ISO-10303-21;
HEADER;
/*Generated by software containing ST-Developer
 * from STEP Tools, Inc. (www.steptools.com) 
 */
/*OPTION: using custom renumber hook */
/*description */
/*implementation_level */
FILE_DESCRIPTION(('STEP AP242 Edition 2','STEP AP242 Edition 2''CAx-IF Rec.Pracs.---Representation and Presentation of Product Manufa
cturing Information (PMI)---4.0---2014-10-13','STEP AP242 Edition 2''CAx-IF Rec.Pracs.---Representation and Presentation of Product Manufa
cturing Information (PMI)---4.0---2014-10-13''CAx-IF Rec.Pracs.---3D Tessellated Geometry---0.4---2014-09-14','STEP AP242 Edition 2''CAx-IF Rec.Pracs.---Representation and Presentation of Product Manufa
cturing Information (PMI)---4.0---2014-10-13''CAx-IF Rec.Pracs.---3D Tessellated Geometry---0.4---2014-09-14''2;1','STEP AP242 Edition 2''CAx-IF Rec.Pracs.---Representation and Presentation of Product Manufa
cturing Information (PMI)---4.0---2014-10-13''CAx-IF Rec.Pracs.---3D Tessellated Geometry---0.4---2014-09-14''2;1''CAx-IF Rec.Pracs.---User Defined Attributes---1.5---2016-08-15'),'2;1');
/*name */
/*time_stamp */
/*author */
/*organization */
/*preprocessor_version */
/*originating_system */
/*authorisation */
FILE_NAME('/vol/tmp/translate-13064171387489952213/699afec0bb46b26ac220f6a4.step','2026-02-22T13:04:01',(''),(''),'ST-DEVELOPER v20','ONSHAPE BY PTC INC, 1.211','  ');
FILE_SCHEMA(('AP242_MANAGED_MODEL_BASED_3D_ENGINEERING_MIM_LF { 1 0 10303 442 3 1 4 }'));
ENDSEC;
DATA;
#10=LINE('',#1051,#34);
#11=LINE('',#1054,#35);
#12=LINE('',#1056,#36);
#13=LINE('',#1058,#37);
#14=LINE('',#1060,#38);
#15=LINE('',#1062,#39);
#16=LINE('',#1064,#40);
#17=LINE('',#1066,#41);
#18=LINE('',#1068,#42);
#19=LINE('',#1070,#43);
#20=LINE('',#1072,#44);
#21=LINE('',#1073,#45);
#22=LINE('',#1077,#46);
#23=LINE('',#1080,#47);
#24=LINE('',#1082,#48);
#25=LINE('',#1084,#49);
#26=LINE('',#1086,#50);
#27=LINE('',#1088,#51);
#28=LINE('',#1090,#52);
#29=LINE('',#1092,#53);
#30=LINE('',#1094,#54);
#31=LINE('',#1096,#55);
#32=LINE('',#1098,#56);
#33=LINE('',#1099,#57);
#34=VECTOR('',#696,1.);
#35=VECTOR('',#697,1.);
#36=VECTOR('',#698,1.);
#37=VECTOR('',#699,1.);
#38=VECTOR('',#702,1.);
#39=VECTOR('',#703,1.);
#40=VECTOR('',#704,1.);
#41=VECTOR('',#707,1.);
#42=VECTOR('',#708,1.);
#43=VECTOR('',#709,1.);
#44=VECTOR('',#712,1.);
#45=VECTOR('',#713,1.);
#46=VECTOR('',#720,1.);
#47=VECTOR('',#721,1.);
#48=VECTOR('',#722,1.);
#49=VECTOR('',#723,1.);
#50=VECTOR('',#726,1.);
#51=VECTOR('',#727,1.);
#52=VECTOR('',#728,1.);
#53=VECTOR('',#731,1.);
#54=VECTOR('',#732,1.);
#55=VECTOR('',#733,1.);
#56=VECTOR('',#736,1.);
#57=VECTOR('',#737,1.);
#58=CONICAL_SURFACE('',#587,0.2015,0.372434596699333);
#59=CONICAL_SURFACE('',#616,0.202,0.373590858035732);
#60=CONICAL_SURFACE('',#624,0.202,0.373590858035732);
#61=B_SPLINE_CURVE_WITH_KNOTS('',3,(#797,#798,#799,#800,#801,#802,#803,#804,#805,#806,#807,#808,#809,#810,#811,#812,#813,#814,#815,#816,#817,#818,#819,#820,#821,#822,#823,#824,#825,#826,#827,#828,#829,#830,#831,#832,#833,#834,#835,#836,#837,#838,#839,#840,#841,#842,#843,#844),.UNSPECIFIED.,.T.,.F.,(1,1,1,1,1,1,1,1,1,1,1,1,1,1,1,1,1,1,1,1,1,1,1,1,1,1,1,1,1,1,1,1,1,1,1,1,1,1,1,1,1,1,1,1,1,1,1,1,1,1,1,1),(-0.0122225152782705,-0.00977801222261637,-0.00488900611130819,0.,0.00488900611130819,0.00977801222261639,0.0146670183339246,0.0195560244452328,0.024445030556541,0.0268895336121951,0.0293340366678492,0.0317785397235033,0.0342230427791574,0.0391120488904656,0.0440010550017738,0.0488900611130819,0.051334564168736,0.0537790672243901,0.0562235702800442,0.0586680733356983,0.0611125763913524,0.0635570794470065,0.0660015825026606,0.0684460855583147,0.0733350916696229,0.0782240977809311,0.0831131038922393,0.0855576069478934,0.0880021100035475,0.0904466130592016,0.0928911161148557,0.0977801222261639,0.102669128337472,0.10755813444878,0.110002637504434,0.112447140560088,0.114891643615743,0.117336146671397,0.119780649727051,0.122225152782705,0.124669655838359,0.127114158894013,0.132003165005321,0.136892171116629,0.141781177227938,0.144225680283592,0.146670183339246,0.151559189450554,0.156448195561862,0.16133720167317,0.166226207784479,0.171115213895787),.UNSPECIFIED.);
#62=B_SPLINE_CURVE_WITH_KNOTS('',3,(#846,#847,#848,#849,#850,#851,#852,#853,#854,#855,#856,#857,#858,#859,#860,#861,#862,#863,#864,#865,#866,#867,#868,#869,#870,#871,#872,#873,#874,#875,#876,#877,#878,#879,#880,#881,#882,#883,#884),.UNSPECIFIED.,.T.,.F.,(1,1,1,1,1,1,1,1,1,1,1,1,1,1,1,1,1,1,1,1,1,1,1,1,1,1,1,1,1,1,1,1,1,1,1,1,1,1,1,1,1,1,1),(-0.0117297394850133,-0.00781982632334222,-0.00390991316167111,0.,0.00390991316167111,0.00781982632334222,0.0117297394850133,0.0156396526466844,0.0195495658083555,0.0215045223891911,0.0234594789700267,0.0254144355508622,0.0273693921316978,0.0312793052933689,0.03518921845504,0.0390991316167111,0.0430090447783822,0.0469189579400533,0.0508288711017244,0.0547387842633955,0.0586486974250666,0.0625586105867377,0.0664685237484089,0.0684234803292444,0.07037843691008,0.0723333934909155,0.0742883500717511,0.0781982632334222,0.0821081763950933,0.0860180895567644,0.0899280027184355,0.0938379158801066,0.0977478290417777,0.101657742203449,0.10556765536512,0.109477568526791,0.113387481688462,0.117297394850133,0.121207308011804,0.125117221173475,0.129027134335147,0.132937047496818,0.136846960658489),.UNSPECIFIED.);
#63=B_SPLINE_CURVE_WITH_KNOTS('',3,(#886,#887,#888,#889,#890,#891,#892,#893,#894,#895,#896),.UNSPECIFIED.,.T.,.F.,(1,1,1,1,1,1,1,1,1,1,1,1,1,1,1),(-0.0105509136565667,-0.00703394243771109,-0.00351697121885554,2.11214275014315E-17,0.00351697121885558,0.00703394243771113,0.0105509136565667,0.0140678848754222,0.0175848560942778,0.0211018273131334,0.0246187985319889,0.0281357697508445,0.0316527409697,0.0351697121885556,0.0386866834074111),.UNSPECIFIED.);
#64=B_SPLINE_CURVE_WITH_KNOTS('',3,(#898,#899,#900,#901,#902,#903,#904,#905,#906,#907,#908),.UNSPECIFIED.,.T.,.F.,(1,1,1,1,1,1,1,1,1,1,1,1,1,1,1),(-0.0105509136565692,-0.0070339424377128,-0.00351697121885639,1.851038821021E-17,0.00351697121885643,0.00703394243771283,0.0105509136565692,0.0140678848754256,0.0175848560942821,0.0211018273131385,0.0246187985319949,0.0281357697508513,0.0316527409697077,0.0351697121885641,0.0386866834074205),.UNSPECIFIED.);
#65=B_SPLINE_CURVE_WITH_KNOTS('',3,(#911,#912,#913,#914,#915,#916,#917,#918,#919,#920,#921,#922,#923,#924,#925,#926,#927,#928,#929,#930,#931,#932,#933,#934,#935,#936,#937,#938,#939,#940,#941,#942,#943,#944,#945,#946,#947,#948,#949,#950,#951,#952,#953,#954,#955,#956,#957,#958),.UNSPECIFIED.,.T.,.F.,(1,1,1,1,1,1,1,1,1,1,1,1,1,1,1,1,1,1,1,1,1,1,1,1,1,1,1,1,1,1,1,1,1,1,1,1,1,1,1,1,1,1,1,1,1,1,1,1,1,1,1,1),(-0.0122231999229974,-0.00977855993839796,-0.004889279969199,0.,0.00488927996919899,0.00977855993839798,0.014667839907597,0.019557119876796,0.0244463998459949,0.0268910398305944,0.0293356798151939,0.0317803197997934,0.0342249597843929,0.0391142397535919,0.0440035197227909,0.0488927996919899,0.0513374396765894,0.0537820796611889,0.0562267196457884,0.0586713596303879,0.0611159996149874,0.0635606395995869,0.0660052795841864,0.0684499195687858,0.0733391995379848,0.0782284795071838,0.0831177594763828,0.0855623994609823,0.0880070394455818,0.0904516794301813,0.0928963194147808,0.0977855993839798,0.102674879353179,0.107564159322378,0.110008799306977,0.112453439291577,0.114898079276176,0.117342719260776,0.119787359245375,0.122231999229975,0.124676639214574,0.127121279199174,0.132010559168373,0.136899839137572,0.141789119106771,0.14423375909137,0.14667839907597,0.151567679045169,0.156456959014368,0.161346238983567,0.166235518952766,0.171124798921965),.UNSPECIFIED.);
#66=B_SPLINE_CURVE_WITH_KNOTS('',3,(#964,#965,#966,#967,#968,#969,#970,#971,#972,#973,#974),.UNSPECIFIED.,.T.,.F.,(1,1,1,1,1,1,1,1,1,1,1,1,1,1,1),(-0.0105509325922746,-0.00703395506151643,-0.00351697753075821,1.02413365539349E-17,0.00351697753075823,0.00703395506151645,0.0105509325922747,0.0140679101230329,0.0175848876537911,0.0211018651845493,0.0246188427153075,0.0281358202460657,0.031652797776824,0.0351697753075822,0.0386867528383404),.UNSPECIFIED.);
#67=B_SPLINE_CURVE_WITH_KNOTS('',3,(#976,#977,#978,#979,#980,#981,#982,#983,#984,#985,#986),.UNSPECIFIED.,.T.,.F.,(1,1,1,1,1,1,1,1,1,1,1,1,1,1,1),(-0.0105509325860074,-0.00703395505733825,-0.00351697752866912,5.20417042793042E-18,0.00351697752866913,0.00703395505733826,0.0105509325860074,0.0140679101146765,0.0175848876433456,0.0211018651720148,0.0246188427006839,0.028135820229353,0.0316527977580222,0.0351697752866913,0.0386867528153604),.UNSPECIFIED.);
#68=B_SPLINE_CURVE_WITH_KNOTS('',3,(#993,#994,#995,#996,#997,#998,#999,#1000,#1001,#1002,#1003,#1004,#1005,#1006,#1007,#1008,#1009,#1010,#1011,#1012,#1013,#1014,#1015,#1016,#1017,#1018,#1019,#1020,#1021,#1022,#1023,#1024,#1025,#1026,#1027,#1028),.UNSPECIFIED.,.T.,.F.,(1,1,1,1,1,1,1,1,1,1,1,1,1,1,1,1,1,1,1,1,1,1,1,1,1,1,1,1,1,1,1,1,1,1,1,1,1,1,1,1),(-0.0121830560296914,-0.00812203734047927,-0.0040610186512671,3.79451003170571E-11,0.00406101872715728,0.00812203741636946,0.0121830561055816,0.0142135654501877,0.0162440747947938,0.020305093484006,0.0243661121732182,0.0324881495516425,0.0365491682408547,0.0406101869300669,0.0446712056192791,0.0487322243084912,0.0527932429977034,0.0568542616869156,0.0609152803761278,0.0629457897207339,0.0649762990653399,0.0690373177545521,0.0730983364437643,0.0771593551329765,0.0812203738221887,0.0832508831667947,0.0852813925114008,0.089342411200613,0.0934034298898252,0.0974644485790374,0.105586485957462,0.109647504646674,0.113708523335886,0.117769542025098,0.12183056071431,0.125891579403523,0.129952598092735,0.134013616781947,0.138074635471159,0.142135654160371),.UNSPECIFIED.);
#69=B_SPLINE_CURVE_WITH_KNOTS('',3,(#1109,#1110,#1111,#1112,#1113,#1114,#1115,#1116,#1117,#1118,#1119,#1120,#1121,#1122,#1123,#1124,#1125,#1126,#1127,#1128,#1129,#1130,#1131,#1132,#1133,#1134,#1135,#1136,#1137,#1138,#1139,#1140,#1141,#1142,#1143,#1144,#1145,#1146,#1147),.UNSPECIFIED.,.T.,.F.,(1,1,1,1,1,1,1,1,1,1,1,1,1,1,1,1,1,1,1,1,1,1,1,1,1,1,1,1,1,1,1,1,1,1,1,1,1,1,1,1,1,1,1),(-0.0101372247504168,-0.00810977979642169,-0.0040548898884315,1.95586771757988E-11,0.00405488992754887,0.00810977983553906,0.0121646697435293,0.0162195596515194,0.0202744495595096,0.0243293394674998,0.02838422937549,0.0324391192834802,0.0364940091914704,0.0405488990994606,0.0446037890074508,0.048658678915441,0.0527135688234312,0.0567684587314214,0.0587959036854165,0.0608233486394116,0.0628507935934067,0.0648782385474018,0.068933128455392,0.0729880183633821,0.0770429082713723,0.0810977981793625,0.0851526880873527,0.0892075779953429,0.0932624679033331,0.0973173578113233,0.101372247719313,0.105427137627304,0.109482027535294,0.113536917443284,0.115564362397279,0.117591807351274,0.119619252305269,0.121646697259264,0.125701587167255,0.129756477075245,0.133811366983235,0.137866256891225,0.141921146799215),.UNSPECIFIED.);
#70=B_SPLINE_CURVE_WITH_KNOTS('',3,(#1150,#1151,#1152,#1153,#1154,#1155,#1156,#1157,#1158,#1159,#1160,#1161,#1162,#1163,#1164,#1165,#1166,#1167,#1168,#1169,#1170,#1171,#1172,#1173,#1174,#1175,#1176,#1177,#1178,#1179,#1180,#1181,#1182,#1183,#1184,#1185,#1186,#1187,#1188),.UNSPECIFIED.,.T.,.F.,(1,1,1,1,1,1,1,1,1,1,1,1,1,1,1,1,1,1,1,1,1,1,1,1,1,1,1,1,1,1,1,1,1,1,1,1,1,1,1,1,1,1,1),(-0.011730158211103,-0.00782010547406867,-0.00391005273703433,0.,0.00391005273703434,0.00782010547406867,0.011730158211103,0.0156402109481373,0.0195502636851717,0.0215052900536888,0.023460316422206,0.0254153427907232,0.0273703691592404,0.0312804218962747,0.035190474633309,0.0391005273703434,0.0430105801073777,0.046920632844412,0.0508306855814464,0.0547407383184807,0.058650791055515,0.0625608437925494,0.0664708965295837,0.0684259228981009,0.0703809492666181,0.0723359756351352,0.0742910020036524,0.0782010547406867,0.0821111074777211,0.0860211602147554,0.0899312129517897,0.0938412656888241,0.0977513184258584,0.101661371162893,0.105571423899927,0.109481476636961,0.113391529373996,0.11730158211103,0.121211634848064,0.125121687585099,0.129031740322133,0.132941793059167,0.136851845796202),.UNSPECIFIED.);
#71=CONTEXT_DEPENDENT_SHAPE_REPRESENTATION(#79,#1216);
#72=CONTEXT_DEPENDENT_SHAPE_REPRESENTATION(#80,#1218);
#73=CONTEXT_DEPENDENT_SHAPE_REPRESENTATION(#81,#1219);
#74=CONTEXT_DEPENDENT_SHAPE_REPRESENTATION(#82,#1220);
#75=NEXT_ASSEMBLY_USAGE_OCCURRENCE('NAUO1','DA40_440','DA40_440',#1221,#1222,'');
#76=NEXT_ASSEMBLY_USAGE_OCCURRENCE('NAUO2','Gestell','Gestell',#1221,#1223,'');
#77=NEXT_ASSEMBLY_USAGE_OCCURRENCE('NAUO3','DA40_440','DA40_440',#1221,#1222,'');
#78=NEXT_ASSEMBLY_USAGE_OCCURRENCE('NAUO4','DA40_440','DA40_440',#1221,#1222,'');
#79=(
REPRESENTATION_RELATIONSHIP(' ',' ',#569,#568)
REPRESENTATION_RELATIONSHIP_WITH_TRANSFORMATION(#83)
SHAPE_REPRESENTATION_RELATIONSHIP()
);
#80=(
REPRESENTATION_RELATIONSHIP(' ',' ',#570,#568)
REPRESENTATION_RELATIONSHIP_WITH_TRANSFORMATION(#84)
SHAPE_REPRESENTATION_RELATIONSHIP()
);
#81=(
REPRESENTATION_RELATIONSHIP(' ',' ',#569,#568)
REPRESENTATION_RELATIONSHIP_WITH_TRANSFORMATION(#85)
SHAPE_REPRESENTATION_RELATIONSHIP()
);
#82=(
REPRESENTATION_RELATIONSHIP(' ',' ',#569,#568)
REPRESENTATION_RELATIONSHIP_WITH_TRANSFORMATION(#86)
SHAPE_REPRESENTATION_RELATIONSHIP()
);
#83=ITEM_DEFINED_TRANSFORMATION(' ',' ',#571,#580);
#84=ITEM_DEFINED_TRANSFORMATION(' ',' ',#571,#629);
#85=ITEM_DEFINED_TRANSFORMATION(' ',' ',#571,#630);
#86=ITEM_DEFINED_TRANSFORMATION(' ',' ',#571,#631);
#87=SHAPE_REPRESENTATION_RELATIONSHIP('','',#569,#89);
#88=SHAPE_REPRESENTATION_RELATIONSHIP('','',#570,#90);
#89=ADVANCED_BREP_SHAPE_REPRESENTATION('',(#563),#1206);
#90=ADVANCED_BREP_SHAPE_REPRESENTATION('',(#564),#1207);
#91=PLANE('',#578);
#92=PLANE('',#579);
#93=PLANE('',#602);
#94=PLANE('',#603);
#95=PLANE('',#604);
#96=PLANE('',#605);
#97=PLANE('',#606);
#98=PLANE('',#607);
#99=PLANE('',#608);
#100=PLANE('',#609);
#101=PLANE('',#610);
#102=PLANE('',#611);
#103=PLANE('',#612);
#104=PLANE('',#613);
#105=PLANE('',#615);
#106=PLANE('',#617);
#107=PLANE('',#626);
#108=ORIENTED_EDGE('',*,*,#220,.T.);
#109=ORIENTED_EDGE('',*,*,#221,.F.);
#110=ORIENTED_EDGE('',*,*,#222,.F.);
#111=ORIENTED_EDGE('',*,*,#223,.T.);
#112=ORIENTED_EDGE('',*,*,#220,.F.);
#113=ORIENTED_EDGE('',*,*,#222,.T.);
#114=ORIENTED_EDGE('',*,*,#221,.T.);
#115=ORIENTED_EDGE('',*,*,#223,.F.);
#116=ORIENTED_EDGE('',*,*,#224,.F.);
#117=ORIENTED_EDGE('',*,*,#225,.T.);
#118=ORIENTED_EDGE('',*,*,#226,.F.);
#119=ORIENTED_EDGE('',*,*,#227,.F.);
#120=ORIENTED_EDGE('',*,*,#228,.F.);
#121=ORIENTED_EDGE('',*,*,#229,.F.);
#122=ORIENTED_EDGE('',*,*,#230,.T.);
#123=ORIENTED_EDGE('',*,*,#231,.F.);
#124=ORIENTED_EDGE('',*,*,#232,.T.);
#125=ORIENTED_EDGE('',*,*,#233,.T.);
#126=ORIENTED_EDGE('',*,*,#234,.T.);
#127=ORIENTED_EDGE('',*,*,#235,.F.);
#128=ORIENTED_EDGE('',*,*,#236,.T.);
#129=ORIENTED_EDGE('',*,*,#237,.F.);
#130=ORIENTED_EDGE('',*,*,#238,.T.);
#131=ORIENTED_EDGE('',*,*,#239,.F.);
#132=ORIENTED_EDGE('',*,*,#240,.T.);
#133=ORIENTED_EDGE('',*,*,#241,.F.);
#134=ORIENTED_EDGE('',*,*,#242,.T.);
#135=ORIENTED_EDGE('',*,*,#243,.F.);
#136=ORIENTED_EDGE('',*,*,#244,.T.);
#137=ORIENTED_EDGE('',*,*,#245,.F.);
#138=ORIENTED_EDGE('',*,*,#246,.F.);
#139=ORIENTED_EDGE('',*,*,#247,.F.);
#140=ORIENTED_EDGE('',*,*,#248,.T.);
#141=ORIENTED_EDGE('',*,*,#249,.T.);
#142=ORIENTED_EDGE('',*,*,#250,.T.);
#143=ORIENTED_EDGE('',*,*,#251,.F.);
#144=ORIENTED_EDGE('',*,*,#252,.F.);
#145=ORIENTED_EDGE('',*,*,#247,.T.);
#146=ORIENTED_EDGE('',*,*,#253,.T.);
#147=ORIENTED_EDGE('',*,*,#254,.F.);
#148=ORIENTED_EDGE('',*,*,#255,.F.);
#149=ORIENTED_EDGE('',*,*,#251,.T.);
#150=ORIENTED_EDGE('',*,*,#256,.F.);
#151=ORIENTED_EDGE('',*,*,#249,.F.);
#152=ORIENTED_EDGE('',*,*,#257,.T.);
#153=ORIENTED_EDGE('',*,*,#254,.T.);
#154=ORIENTED_EDGE('',*,*,#244,.F.);
#155=ORIENTED_EDGE('',*,*,#242,.F.);
#156=ORIENTED_EDGE('',*,*,#240,.F.);
#157=ORIENTED_EDGE('',*,*,#238,.F.);
#158=ORIENTED_EDGE('',*,*,#248,.F.);
#159=ORIENTED_EDGE('',*,*,#252,.T.);
#160=ORIENTED_EDGE('',*,*,#255,.T.);
#161=ORIENTED_EDGE('',*,*,#257,.F.);
#162=ORIENTED_EDGE('',*,*,#246,.T.);
#163=ORIENTED_EDGE('',*,*,#256,.T.);
#164=ORIENTED_EDGE('',*,*,#253,.F.);
#165=ORIENTED_EDGE('',*,*,#250,.F.);
#166=ORIENTED_EDGE('',*,*,#258,.F.);
#167=ORIENTED_EDGE('',*,*,#259,.F.);
#168=ORIENTED_EDGE('',*,*,#260,.T.);
#169=ORIENTED_EDGE('',*,*,#261,.T.);
#170=ORIENTED_EDGE('',*,*,#262,.T.);
#171=ORIENTED_EDGE('',*,*,#263,.F.);
#172=ORIENTED_EDGE('',*,*,#264,.F.);
#173=ORIENTED_EDGE('',*,*,#259,.T.);
#174=ORIENTED_EDGE('',*,*,#265,.T.);
#175=ORIENTED_EDGE('',*,*,#266,.F.);
#176=ORIENTED_EDGE('',*,*,#267,.F.);
#177=ORIENTED_EDGE('',*,*,#263,.T.);
#178=ORIENTED_EDGE('',*,*,#268,.F.);
#179=ORIENTED_EDGE('',*,*,#261,.F.);
#180=ORIENTED_EDGE('',*,*,#269,.T.);
#181=ORIENTED_EDGE('',*,*,#266,.T.);
#182=ORIENTED_EDGE('',*,*,#225,.F.);
#183=ORIENTED_EDGE('',*,*,#260,.F.);
#184=ORIENTED_EDGE('',*,*,#264,.T.);
#185=ORIENTED_EDGE('',*,*,#267,.T.);
#186=ORIENTED_EDGE('',*,*,#269,.F.);
#187=ORIENTED_EDGE('',*,*,#270,.F.);
#188=ORIENTED_EDGE('',*,*,#239,.T.);
#189=ORIENTED_EDGE('',*,*,#241,.T.);
#190=ORIENTED_EDGE('',*,*,#243,.T.);
#191=ORIENTED_EDGE('',*,*,#245,.T.);
#192=ORIENTED_EDGE('',*,*,#258,.T.);
#193=ORIENTED_EDGE('',*,*,#268,.T.);
#194=ORIENTED_EDGE('',*,*,#265,.F.);
#195=ORIENTED_EDGE('',*,*,#262,.F.);
#196=ORIENTED_EDGE('',*,*,#232,.F.);
#197=ORIENTED_EDGE('',*,*,#224,.T.);
#198=ORIENTED_EDGE('',*,*,#235,.T.);
#199=ORIENTED_EDGE('',*,*,#270,.T.);
#200=ORIENTED_EDGE('',*,*,#231,.T.);
#201=ORIENTED_EDGE('',*,*,#236,.F.);
#202=ORIENTED_EDGE('',*,*,#230,.F.);
#203=ORIENTED_EDGE('',*,*,#226,.T.);
#204=ORIENTED_EDGE('',*,*,#271,.T.);
#205=ORIENTED_EDGE('',*,*,#237,.T.);
#206=ORIENTED_EDGE('',*,*,#272,.F.);
#207=ORIENTED_EDGE('',*,*,#227,.T.);
#208=ORIENTED_EDGE('',*,*,#273,.T.);
#209=ORIENTED_EDGE('',*,*,#274,.F.);
#210=ORIENTED_EDGE('',*,*,#272,.T.);
#211=ORIENTED_EDGE('',*,*,#273,.F.);
#212=ORIENTED_EDGE('',*,*,#275,.F.);
#213=ORIENTED_EDGE('',*,*,#271,.F.);
#214=ORIENTED_EDGE('',*,*,#275,.T.);
#215=ORIENTED_EDGE('',*,*,#274,.T.);
#216=ORIENTED_EDGE('',*,*,#233,.F.);
#217=ORIENTED_EDGE('',*,*,#228,.T.);
#218=ORIENTED_EDGE('',*,*,#234,.F.);
#219=ORIENTED_EDGE('',*,*,#229,.T.);
#220=EDGE_CURVE('',#276,#276,#324,.T.);
#221=EDGE_CURVE('',#277,#277,#325,.T.);
#222=EDGE_CURVE('',#278,#278,#326,.T.);
#223=EDGE_CURVE('',#279,#279,#327,.T.);
#224=EDGE_CURVE('',#280,#280,#328,.T.);
#225=EDGE_CURVE('',#281,#281,#329,.T.);
#226=EDGE_CURVE('',#282,#282,#61,.T.);
#227=EDGE_CURVE('',#283,#283,#62,.T.);
#228=EDGE_CURVE('',#284,#284,#63,.T.);
#229=EDGE_CURVE('',#285,#285,#64,.T.);
#230=EDGE_CURVE('',#286,#286,#65,.T.);
#231=EDGE_CURVE('',#287,#287,#330,.T.);
#232=EDGE_CURVE('',#288,#288,#331,.T.);
#233=EDGE_CURVE('',#289,#289,#66,.T.);
#234=EDGE_CURVE('',#290,#290,#67,.T.);
#235=EDGE_CURVE('',#291,#291,#332,.T.);
#236=EDGE_CURVE('',#292,#292,#333,.T.);
#237=EDGE_CURVE('',#293,#293,#68,.T.);
#238=EDGE_CURVE('',#294,#294,#334,.T.);
#239=EDGE_CURVE('',#295,#295,#335,.T.);
#240=EDGE_CURVE('',#296,#296,#336,.T.);
#241=EDGE_CURVE('',#297,#297,#337,.T.);
#242=EDGE_CURVE('',#298,#298,#338,.T.);
#243=EDGE_CURVE('',#299,#299,#339,.T.);
#244=EDGE_CURVE('',#300,#300,#340,.T.);
#245=EDGE_CURVE('',#301,#301,#341,.T.);
#246=EDGE_CURVE('',#302,#303,#10,.T.);
#247=EDGE_CURVE('',#304,#302,#11,.T.);
#248=EDGE_CURVE('',#304,#305,#12,.T.);
#249=EDGE_CURVE('',#305,#303,#13,.T.);
#250=EDGE_CURVE('',#302,#306,#14,.T.);
#251=EDGE_CURVE('',#307,#306,#15,.T.);
#252=EDGE_CURVE('',#304,#307,#16,.T.);
#253=EDGE_CURVE('',#306,#308,#17,.T.);
#254=EDGE_CURVE('',#309,#308,#18,.T.);
#255=EDGE_CURVE('',#307,#309,#19,.T.);
#256=EDGE_CURVE('',#303,#308,#20,.T.);
#257=EDGE_CURVE('',#305,#309,#21,.T.);
#258=EDGE_CURVE('',#310,#311,#22,.T.);
#259=EDGE_CURVE('',#312,#310,#23,.T.);
#260=EDGE_CURVE('',#312,#313,#24,.T.);
#261=EDGE_CURVE('',#313,#311,#25,.T.);
#262=EDGE_CURVE('',#310,#314,#26,.T.);
#263=EDGE_CURVE('',#315,#314,#27,.T.);
#264=EDGE_CURVE('',#312,#315,#28,.T.);
#265=EDGE_CURVE('',#314,#316,#29,.T.);
#266=EDGE_CURVE('',#317,#316,#30,.T.);
#267=EDGE_CURVE('',#315,#317,#31,.T.);
#268=EDGE_CURVE('',#311,#316,#32,.T.);
#269=EDGE_CURVE('',#313,#317,#33,.T.);
#270=EDGE_CURVE('',#318,#318,#342,.F.);
#271=EDGE_CURVE('',#319,#319,#69,.T.);
#272=EDGE_CURVE('',#320,#320,#70,.T.);
#273=EDGE_CURVE('',#321,#321,#343,.T.);
#274=EDGE_CURVE('',#322,#322,#344,.T.);
#275=EDGE_CURVE('',#323,#323,#345,.F.);
#276=VERTEX_POINT('',#781);
#277=VERTEX_POINT('',#783);
#278=VERTEX_POINT('',#786);
#279=VERTEX_POINT('',#788);
#280=VERTEX_POINT('',#794);
#281=VERTEX_POINT('',#796);
#282=VERTEX_POINT('',#845);
#283=VERTEX_POINT('',#885);
#284=VERTEX_POINT('',#897);
#285=VERTEX_POINT('',#909);
#286=VERTEX_POINT('',#959);
#287=VERTEX_POINT('',#961);
#288=VERTEX_POINT('',#963);
#289=VERTEX_POINT('',#975);
#290=VERTEX_POINT('',#987);
#291=VERTEX_POINT('',#990);
#292=VERTEX_POINT('',#992);
#293=VERTEX_POINT('',#1029);
#294=VERTEX_POINT('',#1032);
#295=VERTEX_POINT('',#1034);
#296=VERTEX_POINT('',#1037);
#297=VERTEX_POINT('',#1039);
#298=VERTEX_POINT('',#1042);
#299=VERTEX_POINT('',#1044);
#300=VERTEX_POINT('',#1047);
#301=VERTEX_POINT('',#1049);
#302=VERTEX_POINT('',#1052);
#303=VERTEX_POINT('',#1053);
#304=VERTEX_POINT('',#1055);
#305=VERTEX_POINT('',#1057);
#306=VERTEX_POINT('',#1061);
#307=VERTEX_POINT('',#1063);
#308=VERTEX_POINT('',#1067);
#309=VERTEX_POINT('',#1069);
#310=VERTEX_POINT('',#1078);
#311=VERTEX_POINT('',#1079);
#312=VERTEX_POINT('',#1081);
#313=VERTEX_POINT('',#1083);
#314=VERTEX_POINT('',#1087);
#315=VERTEX_POINT('',#1089);
#316=VERTEX_POINT('',#1093);
#317=VERTEX_POINT('',#1095);
#318=VERTEX_POINT('',#1103);
#319=VERTEX_POINT('',#1148);
#320=VERTEX_POINT('',#1189);
#321=VERTEX_POINT('',#1192);
#322=VERTEX_POINT('',#1194);
#323=VERTEX_POINT('',#1197);
#324=CIRCLE('',#573,0.019);
#325=CIRCLE('',#574,0.019);
#326=CIRCLE('',#576,0.02);
#327=CIRCLE('',#577,0.02);
#328=CIRCLE('',#582,0.206);
#329=CIRCLE('',#583,0.206);
#330=CIRCLE('',#585,0.2);
#331=CIRCLE('',#586,0.2);
#332=CIRCLE('',#588,0.055);
#333=CIRCLE('',#589,0.2015);
#334=CIRCLE('',#591,0.0375);
#335=CIRCLE('',#592,0.0375);
#336=CIRCLE('',#594,0.0375);
#337=CIRCLE('',#595,0.0375);
#338=CIRCLE('',#597,0.0375);
#339=CIRCLE('',#598,0.0375);
#340=CIRCLE('',#600,0.0375);
#341=CIRCLE('',#601,0.0375);
#342=CIRCLE('',#614,0.11576);
#343=CIRCLE('',#622,0.2);
#344=CIRCLE('',#623,0.2);
#345=CIRCLE('',#625,0.1236);
#346=EDGE_LOOP('',(#108));
#347=EDGE_LOOP('',(#109));
#348=EDGE_LOOP('',(#110));
#349=EDGE_LOOP('',(#111));
#350=EDGE_LOOP('',(#112));
#351=EDGE_LOOP('',(#113));
#352=EDGE_LOOP('',(#114));
#353=EDGE_LOOP('',(#115));
#354=EDGE_LOOP('',(#116));
#355=EDGE_LOOP('',(#117));
#356=EDGE_LOOP('',(#118));
#357=EDGE_LOOP('',(#119));
#358=EDGE_LOOP('',(#120));
#359=EDGE_LOOP('',(#121));
#360=EDGE_LOOP('',(#122));
#361=EDGE_LOOP('',(#123));
#362=EDGE_LOOP('',(#124));
#363=EDGE_LOOP('',(#125));
#364=EDGE_LOOP('',(#126));
#365=EDGE_LOOP('',(#127));
#366=EDGE_LOOP('',(#128));
#367=EDGE_LOOP('',(#129));
#368=EDGE_LOOP('',(#130));
#369=EDGE_LOOP('',(#131));
#370=EDGE_LOOP('',(#132));
#371=EDGE_LOOP('',(#133));
#372=EDGE_LOOP('',(#134));
#373=EDGE_LOOP('',(#135));
#374=EDGE_LOOP('',(#136));
#375=EDGE_LOOP('',(#137));
#376=EDGE_LOOP('',(#138,#139,#140,#141));
#377=EDGE_LOOP('',(#142,#143,#144,#145));
#378=EDGE_LOOP('',(#146,#147,#148,#149));
#379=EDGE_LOOP('',(#150,#151,#152,#153));
#380=EDGE_LOOP('',(#154));
#381=EDGE_LOOP('',(#155));
#382=EDGE_LOOP('',(#156));
#383=EDGE_LOOP('',(#157));
#384=EDGE_LOOP('',(#158,#159,#160,#161));
#385=EDGE_LOOP('',(#162,#163,#164,#165));
#386=EDGE_LOOP('',(#166,#167,#168,#169));
#387=EDGE_LOOP('',(#170,#171,#172,#173));
#388=EDGE_LOOP('',(#174,#175,#176,#177));
#389=EDGE_LOOP('',(#178,#179,#180,#181));
#390=EDGE_LOOP('',(#182));
#391=EDGE_LOOP('',(#183,#184,#185,#186));
#392=EDGE_LOOP('',(#187));
#393=EDGE_LOOP('',(#188));
#394=EDGE_LOOP('',(#189));
#395=EDGE_LOOP('',(#190));
#396=EDGE_LOOP('',(#191));
#397=EDGE_LOOP('',(#192,#193,#194,#195));
#398=EDGE_LOOP('',(#196));
#399=EDGE_LOOP('',(#197));
#400=EDGE_LOOP('',(#198));
#401=EDGE_LOOP('',(#199));
#402=EDGE_LOOP('',(#200));
#403=EDGE_LOOP('',(#201));
#404=EDGE_LOOP('',(#202));
#405=EDGE_LOOP('',(#203));
#406=EDGE_LOOP('',(#204));
#407=EDGE_LOOP('',(#205));
#408=EDGE_LOOP('',(#206));
#409=EDGE_LOOP('',(#207));
#410=EDGE_LOOP('',(#208));
#411=EDGE_LOOP('',(#209));
#412=EDGE_LOOP('',(#210));
#413=EDGE_LOOP('',(#211));
#414=EDGE_LOOP('',(#212));
#415=EDGE_LOOP('',(#213));
#416=EDGE_LOOP('',(#214));
#417=EDGE_LOOP('',(#215));
#418=EDGE_LOOP('',(#216));
#419=EDGE_LOOP('',(#217));
#420=EDGE_LOOP('',(#218));
#421=EDGE_LOOP('',(#219));
#422=FACE_BOUND('',#346,.T.);
#423=FACE_BOUND('',#347,.T.);
#424=FACE_BOUND('',#348,.T.);
#425=FACE_BOUND('',#349,.T.);
#426=FACE_BOUND('',#350,.T.);
#427=FACE_BOUND('',#351,.T.);
#428=FACE_BOUND('',#352,.T.);
#429=FACE_BOUND('',#353,.T.);
#430=FACE_BOUND('',#354,.T.);
#431=FACE_BOUND('',#355,.T.);
#432=FACE_BOUND('',#356,.T.);
#433=FACE_BOUND('',#357,.T.);
#434=FACE_BOUND('',#358,.T.);
#435=FACE_BOUND('',#359,.T.);
#436=FACE_BOUND('',#360,.T.);
#437=FACE_BOUND('',#361,.T.);
#438=FACE_BOUND('',#362,.T.);
#439=FACE_BOUND('',#363,.T.);
#440=FACE_BOUND('',#364,.T.);
#441=FACE_BOUND('',#365,.T.);
#442=FACE_BOUND('',#366,.T.);
#443=FACE_BOUND('',#367,.T.);
#444=FACE_BOUND('',#368,.T.);
#445=FACE_BOUND('',#369,.T.);
#446=FACE_BOUND('',#370,.T.);
#447=FACE_BOUND('',#371,.T.);
#448=FACE_BOUND('',#372,.T.);
#449=FACE_BOUND('',#373,.T.);
#450=FACE_BOUND('',#374,.T.);
#451=FACE_BOUND('',#375,.T.);
#452=FACE_BOUND('',#376,.T.);
#453=FACE_BOUND('',#377,.T.);
#454=FACE_BOUND('',#378,.T.);
#455=FACE_BOUND('',#379,.T.);
#456=FACE_BOUND('',#380,.T.);
#457=FACE_BOUND('',#381,.T.);
#458=FACE_BOUND('',#382,.T.);
#459=FACE_BOUND('',#383,.T.);
#460=FACE_BOUND('',#384,.T.);
#461=FACE_BOUND('',#385,.T.);
#462=FACE_BOUND('',#386,.T.);
#463=FACE_BOUND('',#387,.T.);
#464=FACE_BOUND('',#388,.T.);
#465=FACE_BOUND('',#389,.T.);
#466=FACE_BOUND('',#390,.T.);
#467=FACE_BOUND('',#391,.T.);
#468=FACE_BOUND('',#392,.T.);
#469=FACE_BOUND('',#393,.T.);
#470=FACE_BOUND('',#394,.T.);
#471=FACE_BOUND('',#395,.T.);
#472=FACE_BOUND('',#396,.T.);
#473=FACE_BOUND('',#397,.T.);
#474=FACE_BOUND('',#398,.T.);
#475=FACE_BOUND('',#399,.T.);
#476=FACE_BOUND('',#400,.T.);
#477=FACE_BOUND('',#401,.T.);
#478=FACE_BOUND('',#402,.T.);
#479=FACE_BOUND('',#403,.T.);
#480=FACE_BOUND('',#404,.T.);
#481=FACE_BOUND('',#405,.T.);
#482=FACE_BOUND('',#406,.T.);
#483=FACE_BOUND('',#407,.T.);
#484=FACE_BOUND('',#408,.T.);
#485=FACE_BOUND('',#409,.T.);
#486=FACE_BOUND('',#410,.T.);
#487=FACE_BOUND('',#411,.T.);
#488=FACE_BOUND('',#412,.T.);
#489=FACE_BOUND('',#413,.T.);
#490=FACE_BOUND('',#414,.T.);
#491=FACE_BOUND('',#415,.T.);
#492=FACE_BOUND('',#416,.T.);
#493=FACE_BOUND('',#417,.T.);
#494=FACE_BOUND('',#418,.T.);
#495=FACE_BOUND('',#419,.T.);
#496=FACE_BOUND('',#420,.T.);
#497=FACE_BOUND('',#421,.T.);
#498=CYLINDRICAL_SURFACE('',#572,0.019);
#499=CYLINDRICAL_SURFACE('',#575,0.02);
#500=CYLINDRICAL_SURFACE('',#581,0.206);
#501=CYLINDRICAL_SURFACE('',#584,0.2);
#502=CYLINDRICAL_SURFACE('',#590,0.0375);
#503=CYLINDRICAL_SURFACE('',#593,0.0375);
#504=CYLINDRICAL_SURFACE('',#596,0.0375);
#505=CYLINDRICAL_SURFACE('',#599,0.0375);
#506=CYLINDRICAL_SURFACE('',#618,0.025);
#507=CYLINDRICAL_SURFACE('',#619,0.02);
#508=CYLINDRICAL_SURFACE('',#620,0.02);
#509=CYLINDRICAL_SURFACE('',#621,0.2);
#510=CYLINDRICAL_SURFACE('',#627,0.0045);
#511=CYLINDRICAL_SURFACE('',#628,0.0045);
#512=ADVANCED_FACE('',(#422,#423),#498,.F.);
#513=ADVANCED_FACE('',(#424,#425),#499,.T.);
#514=ADVANCED_FACE('',(#426,#427),#91,.T.);
#515=ADVANCED_FACE('',(#428,#429),#92,.F.);
#516=ADVANCED_FACE('',(#430,#431,#432,#433,#434,#435),#500,.T.);
#517=ADVANCED_FACE('',(#436,#437,#438,#439,#440),#501,.F.);
#518=ADVANCED_FACE('',(#441,#442,#443),#58,.F.);
#519=ADVANCED_FACE('',(#444,#445),#502,.T.);
#520=ADVANCED_FACE('',(#446,#447),#503,.T.);
#521=ADVANCED_FACE('',(#448,#449),#504,.T.);
#522=ADVANCED_FACE('',(#450,#451),#505,.T.);
#523=ADVANCED_FACE('',(#452),#93,.T.);
#524=ADVANCED_FACE('',(#453),#94,.F.);
#525=ADVANCED_FACE('',(#454),#95,.F.);
#526=ADVANCED_FACE('',(#455),#96,.T.);
#527=ADVANCED_FACE('',(#456,#457,#458,#459,#460),#97,.T.);
#528=ADVANCED_FACE('',(#461),#98,.F.);
#529=ADVANCED_FACE('',(#462),#99,.T.);
#530=ADVANCED_FACE('',(#463),#100,.F.);
#531=ADVANCED_FACE('',(#464),#101,.F.);
#532=ADVANCED_FACE('',(#465),#102,.T.);
#533=ADVANCED_FACE('',(#466,#467),#103,.T.);
#534=ADVANCED_FACE('',(#468,#469,#470,#471,#472,#473),#104,.F.);
#535=ADVANCED_FACE('',(#474,#475),#105,.T.);
#536=ADVANCED_FACE('',(#476,#477),#59,.T.);
#537=ADVANCED_FACE('',(#478,#479),#106,.F.);
#538=ADVANCED_FACE('',(#480,#481),#506,.F.);
#539=ADVANCED_FACE('',(#482,#483),#507,.F.);
#540=ADVANCED_FACE('',(#484,#485),#508,.F.);
#541=ADVANCED_FACE('',(#486,#487,#488),#509,.F.);
#542=ADVANCED_FACE('',(#489,#490,#491),#60,.T.);
#543=ADVANCED_FACE('',(#492,#493),#107,.T.);
#544=ADVANCED_FACE('',(#494,#495),#510,.F.);
#545=ADVANCED_FACE('',(#496,#497),#511,.F.);
#546=CLOSED_SHELL('',(#512,#513,#514,#515));
#547=CLOSED_SHELL('',(#516,#517,#518,#519,#520,#521,#522,#523,#524,#525,#526,#527,#528,#529,#530,#531,#532,#533,#534,#535,#536,#537,#538,#539,#540,#541,#542,#543,#544,#545));
#548=STYLED_ITEM('',(#550),#563);
#549=STYLED_ITEM('',(#551),#564);
#550=PRESENTATION_STYLE_ASSIGNMENT((#552));
#551=PRESENTATION_STYLE_ASSIGNMENT((#553));
#552=SURFACE_STYLE_USAGE(.BOTH.,#554);
#553=SURFACE_STYLE_USAGE(.BOTH.,#555);
#554=SURFACE_SIDE_STYLE('',(#556));
#555=SURFACE_SIDE_STYLE('',(#557));
#556=SURFACE_STYLE_FILL_AREA(#558);
#557=SURFACE_STYLE_FILL_AREA(#559);
#558=FILL_AREA_STYLE('',(#560));
#559=FILL_AREA_STYLE('',(#561));
#560=FILL_AREA_STYLE_COLOUR('',#562);
#561=FILL_AREA_STYLE_COLOUR('',#562);
#562=COLOUR_RGB('',0.615686274509804,0.811764705882353,0.929411764705882);
#563=MANIFOLD_SOLID_BREP('DA40_440',#546);
#564=MANIFOLD_SOLID_BREP('Gestell',#547);
#565=SHAPE_DEFINITION_REPRESENTATION(#1214,#568);
#566=SHAPE_DEFINITION_REPRESENTATION(#1215,#569);
#567=SHAPE_DEFINITION_REPRESENTATION(#1217,#570);
#568=SHAPE_REPRESENTATION('gestell_only',(#571,#580,#629,#630,#631),#1205);
#569=SHAPE_REPRESENTATION('DA40_440',(#571),#1206);
#570=SHAPE_REPRESENTATION('Gestell',(#571),#1207);
#571=AXIS2_PLACEMENT_3D('',#778,#632,#633);
#572=AXIS2_PLACEMENT_3D('',#779,#634,#635);
#573=AXIS2_PLACEMENT_3D('',#780,#636,#637);
#574=AXIS2_PLACEMENT_3D('',#782,#638,#639);
#575=AXIS2_PLACEMENT_3D('',#784,#640,#641);
#576=AXIS2_PLACEMENT_3D('',#785,#642,#643);
#577=AXIS2_PLACEMENT_3D('',#787,#644,#645);
#578=AXIS2_PLACEMENT_3D('',#789,#646,#647);
#579=AXIS2_PLACEMENT_3D('',#790,#648,#649);
#580=AXIS2_PLACEMENT_3D('',#791,#650,#651);
#581=AXIS2_PLACEMENT_3D('',#792,#652,#653);
#582=AXIS2_PLACEMENT_3D('',#793,#654,#655);
#583=AXIS2_PLACEMENT_3D('',#795,#656,#657);
#584=AXIS2_PLACEMENT_3D('',#910,#658,#659);
#585=AXIS2_PLACEMENT_3D('',#960,#660,#661);
#586=AXIS2_PLACEMENT_3D('',#962,#662,#663);
#587=AXIS2_PLACEMENT_3D('',#988,#664,#665);
#588=AXIS2_PLACEMENT_3D('',#989,#666,#667);
#589=AXIS2_PLACEMENT_3D('',#991,#668,#669);
#590=AXIS2_PLACEMENT_3D('',#1030,#670,#671);
#591=AXIS2_PLACEMENT_3D('',#1031,#672,#673);
#592=AXIS2_PLACEMENT_3D('',#1033,#674,#675);
#593=AXIS2_PLACEMENT_3D('',#1035,#676,#677);
#594=AXIS2_PLACEMENT_3D('',#1036,#678,#679);
#595=AXIS2_PLACEMENT_3D('',#1038,#680,#681);
#596=AXIS2_PLACEMENT_3D('',#1040,#682,#683);
#597=AXIS2_PLACEMENT_3D('',#1041,#684,#685);
#598=AXIS2_PLACEMENT_3D('',#1043,#686,#687);
#599=AXIS2_PLACEMENT_3D('',#1045,#688,#689);
#600=AXIS2_PLACEMENT_3D('',#1046,#690,#691);
#601=AXIS2_PLACEMENT_3D('',#1048,#692,#693);
#602=AXIS2_PLACEMENT_3D('',#1050,#694,#695);
#603=AXIS2_PLACEMENT_3D('',#1059,#700,#701);
#604=AXIS2_PLACEMENT_3D('',#1065,#705,#706);
#605=AXIS2_PLACEMENT_3D('',#1071,#710,#711);
#606=AXIS2_PLACEMENT_3D('',#1074,#714,#715);
#607=AXIS2_PLACEMENT_3D('',#1075,#716,#717);
#608=AXIS2_PLACEMENT_3D('',#1076,#718,#719);
#609=AXIS2_PLACEMENT_3D('',#1085,#724,#725);
#610=AXIS2_PLACEMENT_3D('',#1091,#729,#730);
#611=AXIS2_PLACEMENT_3D('',#1097,#734,#735);
#612=AXIS2_PLACEMENT_3D('',#1100,#738,#739);
#613=AXIS2_PLACEMENT_3D('',#1101,#740,#741);
#614=AXIS2_PLACEMENT_3D('',#1102,#742,#743);
#615=AXIS2_PLACEMENT_3D('',#1104,#744,#745);
#616=AXIS2_PLACEMENT_3D('',#1105,#746,#747);
#617=AXIS2_PLACEMENT_3D('',#1106,#748,#749);
#618=AXIS2_PLACEMENT_3D('',#1107,#750,#751);
#619=AXIS2_PLACEMENT_3D('',#1108,#752,#753);
#620=AXIS2_PLACEMENT_3D('',#1149,#754,#755);
#621=AXIS2_PLACEMENT_3D('',#1190,#756,#757);
#622=AXIS2_PLACEMENT_3D('',#1191,#758,#759);
#623=AXIS2_PLACEMENT_3D('',#1193,#760,#761);
#624=AXIS2_PLACEMENT_3D('',#1195,#762,#763);
#625=AXIS2_PLACEMENT_3D('',#1196,#764,#765);
#626=AXIS2_PLACEMENT_3D('',#1198,#766,#767);
#627=AXIS2_PLACEMENT_3D('',#1199,#768,#769);
#628=AXIS2_PLACEMENT_3D('',#1200,#770,#771);
#629=AXIS2_PLACEMENT_3D('',#1201,#772,#773);
#630=AXIS2_PLACEMENT_3D('',#1202,#774,#775);
#631=AXIS2_PLACEMENT_3D('',#1203,#776,#777);
#632=DIRECTION('',(0.,0.,1.));
#633=DIRECTION('',(1.,0.,0.));
#634=DIRECTION('',(0.,0.,-1.));
#635=DIRECTION('',(-1.,0.,0.));
#636=DIRECTION('',(0.,0.,1.));
#637=DIRECTION('',(1.,0.,0.));
#638=DIRECTION('',(0.,0.,1.));
#639=DIRECTION('',(1.,0.,0.));
#640=DIRECTION('',(0.,0.,-1.));
#641=DIRECTION('',(-1.,0.,0.));
#642=DIRECTION('',(0.,0.,1.));
#643=DIRECTION('',(1.,0.,0.));
#644=DIRECTION('',(0.,0.,1.));
#645=DIRECTION('',(1.,0.,0.));
#646=DIRECTION('',(0.,0.,1.));
#647=DIRECTION('',(1.,0.,0.));
#648=DIRECTION('',(0.,0.,1.));
#649=DIRECTION('',(1.,0.,0.));
#650=DIRECTION('',(-2.01858731750028E-16,1.,0.));
#651=DIRECTION('',(1.,2.01858731750028E-16,0.));
#652=DIRECTION('',(0.,0.,-1.));
#653=DIRECTION('',(-1.,0.,0.));
#654=DIRECTION('',(0.,0.,1.));
#655=DIRECTION('',(1.,0.,0.));
#656=DIRECTION('',(0.,0.,1.));
#657=DIRECTION('',(1.,0.,0.));
#658=DIRECTION('',(0.,0.,-1.));
#659=DIRECTION('',(-1.,0.,0.));
#660=DIRECTION('',(0.,0.,1.));
#661=DIRECTION('',(1.,0.,0.));
#662=DIRECTION('',(0.,0.,1.));
#663=DIRECTION('',(1.,0.,0.));
#664=DIRECTION('',(0.,0.,1.));
#665=DIRECTION('',(1.,0.,0.));
#666=DIRECTION('',(0.,0.,1.));
#667=DIRECTION('',(1.,0.,0.));
#668=DIRECTION('',(0.,0.,1.));
#669=DIRECTION('',(1.,0.,0.));
#670=DIRECTION('',(0.,0.,-1.));
#671=DIRECTION('',(-1.,0.,0.));
#672=DIRECTION('',(0.,0.,1.));
#673=DIRECTION('',(1.,0.,0.));
#674=DIRECTION('',(0.,0.,1.));
#675=DIRECTION('',(1.,0.,0.));
#676=DIRECTION('',(0.,0.,-1.));
#677=DIRECTION('',(-1.,0.,0.));
#678=DIRECTION('',(0.,0.,1.));
#679=DIRECTION('',(1.,0.,0.));
#680=DIRECTION('',(0.,0.,1.));
#681=DIRECTION('',(1.,0.,0.));
#682=DIRECTION('',(0.,0.,-1.));
#683=DIRECTION('',(-1.,0.,0.));
#684=DIRECTION('',(0.,0.,1.));
#685=DIRECTION('',(1.,0.,0.));
#686=DIRECTION('',(0.,0.,1.));
#687=DIRECTION('',(1.,0.,0.));
#688=DIRECTION('',(0.,0.,-1.));
#689=DIRECTION('',(-1.,0.,0.));
#690=DIRECTION('',(0.,0.,1.));
#691=DIRECTION('',(1.,0.,0.));
#692=DIRECTION('',(0.,0.,1.));
#693=DIRECTION('',(1.,0.,0.));
#694=DIRECTION('',(-2.01858731750028E-16,1.,0.));
#695=DIRECTION('',(-1.,-2.01858731750028E-16,0.));
#696=DIRECTION('',(1.,2.01858731750028E-16,0.));
#697=DIRECTION('',(0.,0.,-1.));
#698=DIRECTION('',(1.,2.01858731750028E-16,0.));
#699=DIRECTION('',(0.,0.,-1.));
#700=DIRECTION('',(1.,0.,0.));
#701=DIRECTION('',(0.,0.,-1.));
#702=DIRECTION('',(0.,-1.,0.));
#703=DIRECTION('',(0.,0.,-1.));
#704=DIRECTION('',(0.,-1.,0.));
#705=DIRECTION('',(-2.01858731750028E-16,1.,0.));
#706=DIRECTION('',(-1.,-2.01858731750028E-16,0.));
#707=DIRECTION('',(1.,2.01858731750028E-16,0.));
#708=DIRECTION('',(0.,0.,-1.));
#709=DIRECTION('',(1.,2.01858731750028E-16,0.));
#710=DIRECTION('',(1.,0.,0.));
#711=DIRECTION('',(0.,0.,-1.));
#712=DIRECTION('',(0.,-1.,0.));
#713=DIRECTION('',(0.,-1.,0.));
#714=DIRECTION('',(0.,0.,1.));
#715=DIRECTION('',(1.,0.,0.));
#716=DIRECTION('',(0.,0.,1.));
#717=DIRECTION('',(1.,0.,0.));
#718=DIRECTION('',(-2.01858731750028E-16,1.,0.));
#719=DIRECTION('',(-1.,-2.01858731750028E-16,0.));
#720=DIRECTION('',(1.,2.01858731750028E-16,0.));
#721=DIRECTION('',(0.,0.,-1.));
#722=DIRECTION('',(1.,2.01858731750028E-16,0.));
#723=DIRECTION('',(0.,0.,-1.));
#724=DIRECTION('',(1.,0.,0.));
#725=DIRECTION('',(0.,0.,-1.));
#726=DIRECTION('',(0.,-1.,0.));
#727=DIRECTION('',(0.,0.,-1.));
#728=DIRECTION('',(0.,-1.,0.));
#729=DIRECTION('',(-2.01858731750028E-16,1.,0.));
#730=DIRECTION('',(-1.,-2.01858731750028E-16,0.));
#731=DIRECTION('',(1.,2.01858731750028E-16,0.));
#732=DIRECTION('',(0.,0.,-1.));
#733=DIRECTION('',(1.,2.01858731750028E-16,0.));
#734=DIRECTION('',(1.,0.,0.));
#735=DIRECTION('',(0.,0.,-1.));
#736=DIRECTION('',(0.,-1.,0.));
#737=DIRECTION('',(0.,-1.,0.));
#738=DIRECTION('',(0.,0.,1.));
#739=DIRECTION('',(1.,0.,0.));
#740=DIRECTION('',(0.,0.,1.));
#741=DIRECTION('',(1.,0.,0.));
#742=DIRECTION('',(0.,0.,1.));
#743=DIRECTION('',(1.,0.,0.));
#744=DIRECTION('',(0.,0.,1.));
#745=DIRECTION('',(1.,0.,0.));
#746=DIRECTION('',(0.,0.,1.));
#747=DIRECTION('',(1.,0.,0.));
#748=DIRECTION('',(0.,0.,1.));
#749=DIRECTION('',(1.,0.,0.));
#750=DIRECTION('',(-0.707106781186548,-0.707106781186548,0.));
#751=DIRECTION('',(0.707106781186548,-0.707106781186548,0.));
#752=DIRECTION('',(-0.707106781186548,-0.707106781186548,0.));
#753=DIRECTION('',(0.707106781186548,-0.707106781186548,0.));
#754=DIRECTION('',(-0.707106781186548,-0.707106781186548,0.));
#755=DIRECTION('',(0.707106781186548,-0.707106781186548,0.));
#756=DIRECTION('',(0.,0.,-1.));
#757=DIRECTION('',(-1.,0.,0.));
#758=DIRECTION('',(0.,0.,1.));
#759=DIRECTION('',(1.,0.,0.));
#760=DIRECTION('',(0.,0.,1.));
#761=DIRECTION('',(1.,0.,0.));
#762=DIRECTION('',(0.,0.,1.));
#763=DIRECTION('',(1.,0.,0.));
#764=DIRECTION('',(0.,0.,1.));
#765=DIRECTION('',(1.,0.,0.));
#766=DIRECTION('',(0.,0.,1.));
#767=DIRECTION('',(1.,0.,0.));
#768=DIRECTION('',(-1.,0.,0.));
#769=DIRECTION('',(0.,0.,1.));
#770=DIRECTION('',(1.,0.,0.));
#771=DIRECTION('',(0.,0.,-1.));
#772=DIRECTION('',(0.,0.,1.));
#773=DIRECTION('',(1.,0.,0.));
#774=DIRECTION('',(-1.,0.,0.));
#775=DIRECTION('',(0.,0.,1.));
#776=DIRECTION('',(-1.,0.,0.));
#777=DIRECTION('',(0.,0.,1.));
#778=CARTESIAN_POINT('',(0.,0.,0.));
#779=CARTESIAN_POINT('',(0.,1.16341445918999E-18,0.44));
#780=CARTESIAN_POINT('',(0.,1.16341445918999E-18,0.44));
#781=CARTESIAN_POINT('',(0.019,1.16341445918999E-18,0.44));
#782=CARTESIAN_POINT('',(0.,1.16341445918999E-18,0.));
#783=CARTESIAN_POINT('',(0.019,1.16341445918999E-18,0.));
#784=CARTESIAN_POINT('',(0.,1.22464679914735E-18,0.44));
#785=CARTESIAN_POINT('',(0.,1.22464679914735E-18,0.44));
#786=CARTESIAN_POINT('',(0.02,1.22464679914735E-18,0.44));
#787=CARTESIAN_POINT('',(0.,1.22464679914735E-18,0.));
#788=CARTESIAN_POINT('',(0.02,1.22464679914735E-18,0.));
#789=CARTESIAN_POINT('',(0.,0.,0.44));
#790=CARTESIAN_POINT('',(0.,0.,0.));
#791=CARTESIAN_POINT('',(-0.0957816730720828,-0.377079078153751,0.786501801407908));
#792=CARTESIAN_POINT('',(0.,1.26138620312177E-17,1.503));
#793=CARTESIAN_POINT('',(0.,1.26138620312177E-17,1.503));
#794=CARTESIAN_POINT('',(0.206,1.26138620312177E-17,1.503));
#795=CARTESIAN_POINT('',(0.,1.26138620312177E-17,0.903));
#796=CARTESIAN_POINT('',(0.206,1.26138620312177E-17,0.903));
#797=CARTESIAN_POINT('',(-0.127168222476508,-0.162063321551415,1.45805921233955));
#798=CARTESIAN_POINT('',(-0.126781498985523,-0.162364996463094,1.46301004824661));
#799=CARTESIAN_POINT('',(-0.127163827470256,-0.162066772841032,1.46790059467402));
#800=CARTESIAN_POINT('',(-0.128305904519792,-0.161166794529242,1.47265043820646));
#801=CARTESIAN_POINT('',(-0.130114034469101,-0.159714945409141,1.47696333802769));
#802=CARTESIAN_POINT('',(-0.132555564001505,-0.157699270793004,1.48080327019427));
#803=CARTESIAN_POINT('',(-0.134952802528239,-0.1556505525553,1.48338446258577));
#804=CARTESIAN_POINT('',(-0.137083387902721,-0.153771685412054,1.48508585105938));
#805=CARTESIAN_POINT('',(-0.138725918531847,-0.152291827825817,1.48612887582172));
#806=CARTESIAN_POINT('',(-0.140418420078767,-0.150733326032328,1.48695495300311));
#807=CARTESIAN_POINT('',(-0.142756280794529,-0.148530100243007,1.4877601707087));
#808=CARTESIAN_POINT('',(-0.145657210173547,-0.145698778123957,1.48816154300678));
#809=CARTESIAN_POINT('',(-0.149120299701778,-0.142151246667351,1.48767390871789));
#810=CARTESIAN_POINT('',(-0.151773383614107,-0.139301268906412,1.48649352947825));
#811=CARTESIAN_POINT('',(-0.153778846401361,-0.137075386576278,1.48508030866844));
#812=CARTESIAN_POINT('',(-0.15516982498792,-0.13549795228237,1.48382018595269));
#813=CARTESIAN_POINT('',(-0.156455081999505,-0.134011251480142,1.48236858382952));
#814=CARTESIAN_POINT('',(-0.157642754167763,-0.132611421010523,1.48071307659039));
#815=CARTESIAN_POINT('',(-0.158707017920858,-0.131335042435753,1.4788867319322));
#816=CARTESIAN_POINT('',(-0.159633570597282,-0.130206526798699,1.47692827656682));
#817=CARTESIAN_POINT('',(-0.160432363752368,-0.129220417314426,1.4748300619981));
#818=CARTESIAN_POINT('',(-0.161322486180864,-0.128108532404812,1.47183949856989));
#819=CARTESIAN_POINT('',(-0.162059933031373,-0.12717245556584,1.46795116590637));
#820=CARTESIAN_POINT('',(-0.162365177803751,-0.12678128762178,1.46299391035411));
#821=CARTESIAN_POINT('',(-0.162118720867006,-0.12709725474591,1.45894008990553));
#822=CARTESIAN_POINT('',(-0.161618961574313,-0.127732083412864,1.45572823297046));
#823=CARTESIAN_POINT('',(-0.16110345133065,-0.128382104113714,1.45342817614574));
#824=CARTESIAN_POINT('',(-0.160448618304816,-0.129200227268029,1.45121840666302));
#825=CARTESIAN_POINT('',(-0.159373069284102,-0.130528236541769,1.44838118176518));
#826=CARTESIAN_POINT('',(-0.157725306566748,-0.132524771558101,1.44523655762107));
#827=CARTESIAN_POINT('',(-0.155221739535953,-0.135454055023319,1.4420792246605));
#828=CARTESIAN_POINT('',(-0.152837605287478,-0.138133148370431,1.44016117128915));
#829=CARTESIAN_POINT('',(-0.150725596664244,-0.140426736775708,1.43904143864933));
#830=CARTESIAN_POINT('',(-0.149094676077272,-0.14215724871096,1.43844573286516));
#831=CARTESIAN_POINT('',(-0.147417693254741,-0.143895850735647,1.43808399033034));
#832=CARTESIAN_POINT('',(-0.145683704863847,-0.145651318461588,1.43795914360138));
#833=CARTESIAN_POINT('',(-0.143928262286549,-0.147386052793437,1.4380794977309));
#834=CARTESIAN_POINT('',(-0.142189341335796,-0.149064079260901,1.43843688850888));
#835=CARTESIAN_POINT('',(-0.140457710900072,-0.150696740300838,1.43902861704543));
#836=CARTESIAN_POINT('',(-0.13816346431187,-0.152810219800342,1.44014263189926));
#837=CARTESIAN_POINT('',(-0.135481026506977,-0.155198247396133,1.44205536170373));
#838=CARTESIAN_POINT('',(-0.132548791673275,-0.157705163092301,1.44520537803558));
#839=CARTESIAN_POINT('',(-0.130547536015832,-0.159357285504707,1.448346342107));
#840=CARTESIAN_POINT('',(-0.129216175562223,-0.160435782845031,1.45118084150189));
#841=CARTESIAN_POINT('',(-0.128122646890638,-0.161311210761601,1.45411874504663));
#842=CARTESIAN_POINT('',(-0.127168222476508,-0.162063321551415,1.45805921233955));
#843=CARTESIAN_POINT('',(-0.126781498985523,-0.162364996463094,1.46301004824661));
#844=CARTESIAN_POINT('',(-0.127163827470256,-0.162066772841032,1.46790059467402));
#845=CARTESIAN_POINT('',(-0.12690967431481,-0.162265013374138,1.463));
#846=CARTESIAN_POINT('',(-0.131037442137769,-0.15895079718367,0.949044049320296));
#847=CARTESIAN_POINT('',(-0.130733102510353,-0.159200568260222,0.953009271266607));
#848=CARTESIAN_POINT('',(-0.131032494435602,-0.158954903874998,0.956918865613275));
#849=CARTESIAN_POINT('',(-0.131926052769931,-0.158215810187455,0.960718711413654));
#850=CARTESIAN_POINT('',(-0.133343678333269,-0.157025712667974,0.964169390203345));
#851=CARTESIAN_POINT('',(-0.135263317591588,-0.155378290340043,0.96724273177915));
#852=CARTESIAN_POINT('',(-0.137153449620805,-0.153711011976008,0.969307936040504));
#853=CARTESIAN_POINT('',(-0.138838276717668,-0.152187212728836,0.970669346192667));
#854=CARTESIAN_POINT('',(-0.140139563988116,-0.150989993554651,0.971503782136113));
#855=CARTESIAN_POINT('',(-0.141482758883893,-0.149732505415513,0.972164404135603));
#856=CARTESIAN_POINT('',(-0.143341702883869,-0.147959675550586,0.972808271160406));
#857=CARTESIAN_POINT('',(-0.145656985628406,-0.145688885373504,0.973128910842532));
#858=CARTESIAN_POINT('',(-0.148431095118677,-0.142860901593469,0.972740195544623));
#859=CARTESIAN_POINT('',(-0.15100424152174,-0.140136118277808,0.971603264436049));
#860=CARTESIAN_POINT('',(-0.153364495756255,-0.137546236061433,0.969736461424923));
#861=CARTESIAN_POINT('',(-0.155379914302945,-0.135261422511357,0.967238458385371));
#862=CARTESIAN_POINT('',(-0.157013443703556,-0.133358115039582,0.964199586419834));
#863=CARTESIAN_POINT('',(-0.158220106722164,-0.131920961547794,0.960701543702553));
#864=CARTESIAN_POINT('',(-0.158950044890631,-0.131038352911178,0.956957122135928));
#865=CARTESIAN_POINT('',(-0.159200152248236,-0.130733605645467,0.952995414171135));
#866=CARTESIAN_POINT('',(-0.158997787929195,-0.130980248762424,0.94975359741369));
#867=CARTESIAN_POINT('',(-0.158587209056696,-0.131477023783878,0.94718416869245));
#868=CARTESIAN_POINT('',(-0.158163958620235,-0.131986153980636,0.945343776535058));
#869=CARTESIAN_POINT('',(-0.157627129034729,-0.132627219646646,0.943576383243689));
#870=CARTESIAN_POINT('',(-0.156746649555931,-0.133668915647975,0.941306650896365));
#871=CARTESIAN_POINT('',(-0.155399033364173,-0.135239582205275,0.938788711550204));
#872=CARTESIAN_POINT('',(-0.15336351147821,-0.137547144778108,0.936263894587206));
#873=CARTESIAN_POINT('',(-0.151038500542373,-0.140099234579845,0.934417550922133));
#874=CARTESIAN_POINT('',(-0.148430706033152,-0.14286137790826,0.933258814874647));
#875=CARTESIAN_POINT('',(-0.145687193248068,-0.145658518438295,0.932872313044631));
#876=CARTESIAN_POINT('',(-0.142885609332777,-0.148407415545988,0.933251987771221));
#877=CARTESIAN_POINT('',(-0.140124692673017,-0.151014893842159,0.934403169930183));
#878=CARTESIAN_POINT('',(-0.137568573623251,-0.153344319320872,0.936244860462921));
#879=CARTESIAN_POINT('',(-0.135259496274742,-0.155381751489197,0.938761782193557));
#880=CARTESIAN_POINT('',(-0.133365942538435,-0.157006701717567,0.941788446178723));
#881=CARTESIAN_POINT('',(-0.131926997264288,-0.158215121912383,0.945276889288389));
#882=CARTESIAN_POINT('',(-0.131037442137769,-0.15895079718367,0.949044049320296));
#883=CARTESIAN_POINT('',(-0.130733102510353,-0.159200568260222,0.953009271266607));
#884=CARTESIAN_POINT('',(-0.131032494435602,-0.158954903874998,0.956918865613275));
#885=CARTESIAN_POINT('',(-0.130833724435797,-0.15911799568326,0.953));
#886=CARTESIAN_POINT('',(-0.205975361718689,-0.00353025767996854,1.48652349908379));
#887=CARTESIAN_POINT('',(-0.206012307101582,9.05985723215772E-07,1.48798796593988));
#888=CARTESIAN_POINT('',(-0.205975409874984,0.00352663373707575,1.4865246371567));
#889=CARTESIAN_POINT('',(-0.205938566508974,0.00498616633333955,1.48300364419431));
#890=CARTESIAN_POINT('',(-0.20597538607038,0.00352869711276431,1.47947514250181));
#891=CARTESIAN_POINT('',(-0.206012278665584,6.54459443250985E-07,1.47801363381564));
#892=CARTESIAN_POINT('',(-0.205975499230296,-0.00352175286985269,1.47947032392884));
#893=CARTESIAN_POINT('',(-0.205938550313633,-0.00498699386535242,1.48299467314173));
#894=CARTESIAN_POINT('',(-0.205975361718689,-0.00353025767996854,1.48652349908379));
#895=CARTESIAN_POINT('',(-0.206012307101582,9.05985723215772E-07,1.48798796593988));
#896=CARTESIAN_POINT('',(-0.205975409874984,0.00352663373707575,1.4865246371567));
#897=CARTESIAN_POINT('',(-0.206,3.4347976425389E-17,1.4875));
#898=CARTESIAN_POINT('',(0.205975361718688,-0.00353025767996874,1.47947650091621));
#899=CARTESIAN_POINT('',(0.206012307101582,9.0598572312497E-07,1.47801203406012));
#900=CARTESIAN_POINT('',(0.205975409874984,0.00352663373707566,1.4794753628433));
#901=CARTESIAN_POINT('',(0.205938566508974,0.00498616633333956,1.48299635580569));
#902=CARTESIAN_POINT('',(0.20597538607038,0.00352869711276436,1.48652485749819));
#903=CARTESIAN_POINT('',(0.206012278665584,6.5445944336085E-07,1.48798636618436));
#904=CARTESIAN_POINT('',(0.205975499230296,-0.00352175286985272,1.48652967607116));
#905=CARTESIAN_POINT('',(0.205938550313633,-0.00498699386535236,1.48300532685827));
#906=CARTESIAN_POINT('',(0.205975361718688,-0.00353025767996874,1.47947650091621));
#907=CARTESIAN_POINT('',(0.206012307101582,9.0598572312497E-07,1.47801203406012));
#908=CARTESIAN_POINT('',(0.205975409874984,0.00352663373707566,1.4794753628433));
#909=CARTESIAN_POINT('',(0.206,-7.65006611216757E-17,1.4785));
#910=CARTESIAN_POINT('',(0.,1.22464679914735E-17,1.503));
#911=CARTESIAN_POINT('',(-0.12289385505925,-0.157789029300174,1.45805937637171));
#912=CARTESIAN_POINT('',(-0.122505881326759,-0.158089371873923,1.46300993156636));
#913=CARTESIAN_POINT('',(-0.122889514479869,-0.157792412406254,1.46790089736284));
#914=CARTESIAN_POINT('',(-0.124035367968952,-0.156896046493864,1.47265079519886));
#915=CARTESIAN_POINT('',(-0.125848943643365,-0.155449575725191,1.47696360589122));
#916=CARTESIAN_POINT('',(-0.128296765348222,-0.15344047413427,1.4808032445368));
#917=CARTESIAN_POINT('',(-0.130699192629799,-0.15139707746513,1.48338438513008));
#918=CARTESIAN_POINT('',(-0.132833449407778,-0.149522109818375,1.48508570898869));
#919=CARTESIAN_POINT('',(-0.134478362821601,-0.148044761436257,1.48612873144627));
#920=CARTESIAN_POINT('',(-0.136172897668276,-0.146488260614638,1.48695485811647));
#921=CARTESIAN_POINT('',(-0.13851288647491,-0.144286961214577,1.48776014863233));
#922=CARTESIAN_POINT('',(-0.141414945524898,-0.141456603704737,1.48816155808925));
#923=CARTESIAN_POINT('',(-0.144876986773193,-0.137907579687156,1.48767387778041));
#924=CARTESIAN_POINT('',(-0.147527191964688,-0.135054551092749,1.4864933936236));
#925=CARTESIAN_POINT('',(-0.149529328390825,-0.132825356526123,1.48508011182496));
#926=CARTESIAN_POINT('',(-0.150917381840434,-0.131245242428375,1.48382005171942));
#927=CARTESIAN_POINT('',(-0.152199552113749,-0.129755558968866,1.48236849498512));
#928=CARTESIAN_POINT('',(-0.153384069808889,-0.128352461536758,1.48071287511249));
#929=CARTESIAN_POINT('',(-0.154444934201244,-0.127073102562604,1.47888683588185));
#930=CARTESIAN_POINT('',(-0.155368399587936,-0.125941563229094,1.47692849946887));
#931=CARTESIAN_POINT('',(-0.156164384531228,-0.124952570701618,1.47483023517453));
#932=CARTESIAN_POINT('',(-0.157051120444609,-0.123837339892959,1.47183980552586));
#933=CARTESIAN_POINT('',(-0.157785591043258,-0.122898181171629,1.46795144124073));
#934=CARTESIAN_POINT('',(-0.158089573269987,-0.122505643207798,1.46299399784285));
#935=CARTESIAN_POINT('',(-0.15784412766528,-0.122822731586147,1.45893973971413));
#936=CARTESIAN_POINT('',(-0.157346390899494,-0.123459658578063,1.45572790417113));
#937=CARTESIAN_POINT('',(-0.15683292307811,-0.124111728585415,1.45342791195555));
#938=CARTESIAN_POINT('',(-0.156180520744821,-0.124932394482321,1.45121804622162));
#939=CARTESIAN_POINT('',(-0.155108758302967,-0.126264285169274,1.44838084152953));
#940=CARTESIAN_POINT('',(-0.153466439805826,-0.128265898070777,1.44523659983028));
#941=CARTESIAN_POINT('',(-0.150969397493877,-0.131201492084212,1.44207934143129));
#942=CARTESIAN_POINT('',(-0.148589799602,-0.133884922721471,1.44016129862438));
#943=CARTESIAN_POINT('',(-0.146480424885893,-0.136181346549009,1.43904148555255));
#944=CARTESIAN_POINT('',(-0.14485111230247,-0.1379132366492,1.43844580190232));
#945=CARTESIAN_POINT('',(-0.14317499431067,-0.139652833718036,1.43808399648872));
#946=CARTESIAN_POINT('',(-0.141440935312513,-0.141409018467109,1.43795913817934));
#947=CARTESIAN_POINT('',(-0.139685372870228,-0.143143247974466,1.43807951220378));
#948=CARTESIAN_POINT('',(-0.137945464188195,-0.144820433948449,1.43843690803703));
#949=CARTESIAN_POINT('',(-0.136212096825215,-0.146451838669889,1.43902876585145));
#950=CARTESIAN_POINT('',(-0.133915238215531,-0.148562496087086,1.44014279895303));
#951=CARTESIAN_POINT('',(-0.131228363717845,-0.150946089792063,1.44205562674178));
#952=CARTESIAN_POINT('',(-0.128290043932938,-0.153446299521165,1.44520530482378));
#953=CARTESIAN_POINT('',(-0.126283364623284,-0.155093250264798,1.44834648746262));
#954=CARTESIAN_POINT('',(-0.124948334144957,-0.156167776481733,1.45118065460384));
#955=CARTESIAN_POINT('',(-0.12385153948414,-0.157039855398315,1.45411826732441));
#956=CARTESIAN_POINT('',(-0.12289385505925,-0.157789029300174,1.45805937637171));
#957=CARTESIAN_POINT('',(-0.122505881326759,-0.158089371873923,1.46300993156636));
#958=CARTESIAN_POINT('',(-0.122889514479869,-0.157792412406254,1.46790089736284));
#959=CARTESIAN_POINT('',(-0.122634482474359,-0.157989821533686,1.463));
#960=CARTESIAN_POINT('',(0.,1.22464679914735E-17,1.103));
#961=CARTESIAN_POINT('',(0.2,1.22464679914735E-17,1.103));
#962=CARTESIAN_POINT('',(0.,1.22464679914735E-17,1.503));
#963=CARTESIAN_POINT('',(0.2,1.22464679914735E-17,1.503));
#964=CARTESIAN_POINT('',(-0.199974622572606,-0.00353025750960463,1.48652349886158));
#965=CARTESIAN_POINT('',(-0.200012676314422,9.05915688874165E-07,1.48798796609386));
#966=CARTESIAN_POINT('',(-0.199974672169707,0.0035266338468492,1.48652463676298));
#967=CARTESIAN_POINT('',(-0.199936722947808,0.00498616663745903,1.4830036449419));
#968=CARTESIAN_POINT('',(-0.199974647671882,0.003528695785867,1.47947514111994));
#969=CARTESIAN_POINT('',(-0.200012647020482,6.55127507135462E-07,1.47801363425571));
#970=CARTESIAN_POINT('',(-0.199974764208085,-0.00352175311449606,1.47947032355082));
#971=CARTESIAN_POINT('',(-0.199936706270233,-0.00498699384801881,1.48299467450637));
#972=CARTESIAN_POINT('',(-0.199974622572606,-0.00353025750960463,1.48652349886158));
#973=CARTESIAN_POINT('',(-0.200012676314422,9.05915688874165E-07,1.48798796609386));
#974=CARTESIAN_POINT('',(-0.199974672169707,0.0035266338468492,1.48652463676298));
#975=CARTESIAN_POINT('',(-0.2,1.70804946247031E-18,1.4875));
#976=CARTESIAN_POINT('',(0.199974752427668,-0.00352349888772867,1.48653025748188));
#977=CARTESIAN_POINT('',(0.199936689072162,-0.00498796608017201,1.48299909408435));
#978=CARTESIAN_POINT('',(0.199974702830589,-0.00352463679158284,1.4794733661807));
#979=CARTESIAN_POINT('',(0.20001264243877,-3.64493801438857E-06,1.47801383334911));
#980=CARTESIAN_POINT('',(0.199974727328437,0.00352485890497032,1.47947130424031));
#981=CARTESIAN_POINT('',(0.199936718366101,0.00498636573071197,1.48299934487107));
#982=CARTESIAN_POINT('',(0.199974610792181,0.00352967647857791,1.48652175308691));
#983=CARTESIAN_POINT('',(0.200012659116379,5.3254873708174E-06,1.48798699386185));
#984=CARTESIAN_POINT('',(0.199974752427668,-0.00352349888772867,1.48653025748188));
#985=CARTESIAN_POINT('',(0.199936689072162,-0.00498796608017201,1.48299909408435));
#986=CARTESIAN_POINT('',(0.199974702830589,-0.00352463679158284,1.4794733661807));
#987=CARTESIAN_POINT('',(0.199949368591151,-0.0045000000000001,1.483));
#988=CARTESIAN_POINT('',(-3.80650818014014E-18,-6.88216678969337E-18,1.103));
#989=CARTESIAN_POINT('',(-3.80650818014014E-18,-6.88216678969337E-18,0.728));
#990=CARTESIAN_POINT('',(0.055,-6.88216678969337E-18,0.728));
#991=CARTESIAN_POINT('',(-3.80650818014014E-18,-6.88216678969337E-18,1.103));
#992=CARTESIAN_POINT('',(0.2015,-6.88216678969337E-18,1.103));
#993=CARTESIAN_POINT('',(-0.114838943824528,-0.0935682829150081,0.966370851278374));
#994=CARTESIAN_POINT('',(-0.113745167083564,-0.0965030210508575,0.969012803878657));
#995=CARTESIAN_POINT('',(-0.112116457982497,-0.0996233865653967,0.971092517135597));
#996=CARTESIAN_POINT('',(-0.109934720052495,-0.102836002811425,0.97250029562267));
#997=CARTESIAN_POINT('',(-0.107767553695845,-0.105381447384821,0.973010968580031));
#998=CARTESIAN_POINT('',(-0.105818843785242,-0.107326724564262,0.973006411975542));
#999=CARTESIAN_POINT('',(-0.103818542883022,-0.109120171915373,0.972726795658351));
#1000=CARTESIAN_POINT('',(-0.101162418267496,-0.111137353904231,0.97185988923347));
#1001=CARTESIAN_POINT('',(-0.0969396888875726,-0.113654672312416,0.96950897087519));
#1002=CARTESIAN_POINT('',(-0.0929543680837988,-0.115100487176468,0.965885888993181));
#1003=CARTESIAN_POINT('',(-0.0897244812411748,-0.115482604716527,0.961545524683629));
#1004=CARTESIAN_POINT('',(-0.087698418595965,-0.11527094809666,0.957960229272075));
#1005=CARTESIAN_POINT('',(-0.0861958197305805,-0.114592966967797,0.954259081754049));
#1006=CARTESIAN_POINT('',(-0.085224793427756,-0.113445104590839,0.950417326040736));
#1007=CARTESIAN_POINT('',(-0.0848668885009412,-0.111895290954786,0.946695935596336));
#1008=CARTESIAN_POINT('',(-0.0851394441624289,-0.109912138025679,0.943085149913606));
#1009=CARTESIAN_POINT('',(-0.085883466466734,-0.108000058684612,0.9404083585971));
#1010=CARTESIAN_POINT('',(-0.0867952781834628,-0.106284756575094,0.938459670566876));
#1011=CARTESIAN_POINT('',(-0.0878766347276021,-0.104517669344449,0.936731887724999));
#1012=CARTESIAN_POINT('',(-0.0895784368294545,-0.102139402259956,0.934927429148082));
#1013=CARTESIAN_POINT('',(-0.0920164248405004,-0.0992004280353616,0.933512199144809));
#1014=CARTESIAN_POINT('',(-0.0947961062866577,-0.0962062950033805,0.932885714419124));
#1015=CARTESIAN_POINT('',(-0.0972174554773296,-0.0938442404725962,0.933060432736161));
#1016=CARTESIAN_POINT('',(-0.0992162362763282,-0.0920391596541165,0.933618794118884));
#1017=CARTESIAN_POINT('',(-0.101175258380407,-0.0903669951382511,0.934431564308972));
#1018=CARTESIAN_POINT('',(-0.103621025598806,-0.0884728457427203,0.935948332810553));
#1019=CARTESIAN_POINT('',(-0.10633969954861,-0.0867116400621444,0.938414837638594));
#1020=CARTESIAN_POINT('',(-0.109664256104373,-0.0850927386025153,0.942484778314292));
#1021=CARTESIAN_POINT('',(-0.112290880756268,-0.0847451592612693,0.947318307110294));
#1022=CARTESIAN_POINT('',(-0.114099464176225,-0.085657534665952,0.952421759315498));
#1023=CARTESIAN_POINT('',(-0.114999537896418,-0.0869051382616305,0.9561817389653));
#1024=CARTESIAN_POINT('',(-0.115443586166554,-0.0887023740751604,0.95986967544214));
#1025=CARTESIAN_POINT('',(-0.115397256867269,-0.0909222103009681,0.9632590464154));
#1026=CARTESIAN_POINT('',(-0.114838943824528,-0.0935682829150081,0.966370851278374));
#1027=CARTESIAN_POINT('',(-0.113745167083564,-0.0965030210508575,0.969012803878657));
#1028=CARTESIAN_POINT('',(-0.112116457982497,-0.0996233865653967,0.971092517135597));
#1029=CARTESIAN_POINT('',(-0.113656011707649,-0.0965339590616318,0.968919097229225));
#1030=CARTESIAN_POINT('',(-0.22,0.22,0.885));
#1031=CARTESIAN_POINT('',(-0.22,0.22,0.01));
#1032=CARTESIAN_POINT('',(-0.1825,0.22,0.01));
#1033=CARTESIAN_POINT('',(-0.22,0.22,0.883));
#1034=CARTESIAN_POINT('',(-0.1825,0.22,0.883));
#1035=CARTESIAN_POINT('',(0.22,0.22,0.885));
#1036=CARTESIAN_POINT('',(0.22,0.22,0.01));
#1037=CARTESIAN_POINT('',(0.2575,0.22,0.01));
#1038=CARTESIAN_POINT('',(0.22,0.22,0.883));
#1039=CARTESIAN_POINT('',(0.2575,0.22,0.883));
#1040=CARTESIAN_POINT('',(-0.22,-0.22,0.885));
#1041=CARTESIAN_POINT('',(-0.22,-0.22,0.01));
#1042=CARTESIAN_POINT('',(-0.1825,-0.22,0.01));
#1043=CARTESIAN_POINT('',(-0.22,-0.22,0.883));
#1044=CARTESIAN_POINT('',(-0.1825,-0.22,0.883));
#1045=CARTESIAN_POINT('',(0.22,-0.22,0.885));
#1046=CARTESIAN_POINT('',(0.22,-0.22,0.01));
#1047=CARTESIAN_POINT('',(0.2575,-0.22,0.01));
#1048=CARTESIAN_POINT('',(0.22,-0.22,0.883));
#1049=CARTESIAN_POINT('',(0.2575,-0.22,0.883));
#1050=CARTESIAN_POINT('',(0.,0.275,0.01));
#1051=CARTESIAN_POINT('',(0.,0.275,0.));
#1052=CARTESIAN_POINT('',(-0.275,0.275,0.));
#1053=CARTESIAN_POINT('',(0.275,0.275,0.));
#1054=CARTESIAN_POINT('',(-0.275,0.275,0.01));
#1055=CARTESIAN_POINT('',(-0.275,0.275,0.01));
#1056=CARTESIAN_POINT('',(0.,0.275,0.01));
#1057=CARTESIAN_POINT('',(0.275,0.275,0.01));
#1058=CARTESIAN_POINT('',(0.275,0.275,0.01));
#1059=CARTESIAN_POINT('',(-0.275,0.,0.01));
#1060=CARTESIAN_POINT('',(-0.275,0.,0.));
#1061=CARTESIAN_POINT('',(-0.275,-0.275,0.));
#1062=CARTESIAN_POINT('',(-0.275,-0.275,0.01));
#1063=CARTESIAN_POINT('',(-0.275,-0.275,0.01));
#1064=CARTESIAN_POINT('',(-0.275,0.,0.01));
#1065=CARTESIAN_POINT('',(0.,-0.275,0.01));
#1066=CARTESIAN_POINT('',(0.,-0.275,0.));
#1067=CARTESIAN_POINT('',(0.275,-0.275,0.));
#1068=CARTESIAN_POINT('',(0.275,-0.275,0.01));
#1069=CARTESIAN_POINT('',(0.275,-0.275,0.01));
#1070=CARTESIAN_POINT('',(0.,-0.275,0.01));
#1071=CARTESIAN_POINT('',(0.275,5.55111512312578E-17,0.01));
#1072=CARTESIAN_POINT('',(0.275,5.55111512312578E-17,0.));
#1073=CARTESIAN_POINT('',(0.275,5.55111512312578E-17,0.01));
#1074=CARTESIAN_POINT('',(0.,0.,0.01));
#1075=CARTESIAN_POINT('',(0.,0.,0.));
#1076=CARTESIAN_POINT('',(0.,0.275,0.903));
#1077=CARTESIAN_POINT('',(0.,0.275,0.883));
#1078=CARTESIAN_POINT('',(-0.275,0.275,0.883));
#1079=CARTESIAN_POINT('',(0.275,0.275,0.883));
#1080=CARTESIAN_POINT('',(-0.275,0.275,0.903));
#1081=CARTESIAN_POINT('',(-0.275,0.275,0.903));
#1082=CARTESIAN_POINT('',(0.,0.275,0.903));
#1083=CARTESIAN_POINT('',(0.275,0.275,0.903));
#1084=CARTESIAN_POINT('',(0.275,0.275,0.903));
#1085=CARTESIAN_POINT('',(-0.275,-5.55111512312578E-17,0.903));
#1086=CARTESIAN_POINT('',(-0.275,-5.55111512312578E-17,0.883));
#1087=CARTESIAN_POINT('',(-0.275,-0.275,0.883));
#1088=CARTESIAN_POINT('',(-0.275,-0.275,0.903));
#1089=CARTESIAN_POINT('',(-0.275,-0.275,0.903));
#1090=CARTESIAN_POINT('',(-0.275,-5.55111512312578E-17,0.903));
#1091=CARTESIAN_POINT('',(0.,-0.275,0.903));
#1092=CARTESIAN_POINT('',(0.,-0.275,0.883));
#1093=CARTESIAN_POINT('',(0.275,-0.275,0.883));
#1094=CARTESIAN_POINT('',(0.275,-0.275,0.903));
#1095=CARTESIAN_POINT('',(0.275,-0.275,0.903));
#1096=CARTESIAN_POINT('',(0.,-0.275,0.903));
#1097=CARTESIAN_POINT('',(0.275,5.55111512312578E-17,0.903));
#1098=CARTESIAN_POINT('',(0.275,5.55111512312578E-17,0.883));
#1099=CARTESIAN_POINT('',(0.275,5.55111512312578E-17,0.903));
#1100=CARTESIAN_POINT('',(0.,0.,0.903));
#1101=CARTESIAN_POINT('',(0.,0.,0.883));
#1102=CARTESIAN_POINT('',(-3.80650818014014E-18,-6.88216678969337E-18,0.883));
#1103=CARTESIAN_POINT('',(0.11576,-6.88216678969337E-18,0.883));
#1104=CARTESIAN_POINT('',(0.,0.,1.503));
#1105=CARTESIAN_POINT('',(-3.80650818014014E-18,-6.88216678969337E-18,1.103));
#1106=CARTESIAN_POINT('',(0.,-0.10075,1.103));
#1107=CARTESIAN_POINT('',(1.26154632255442E-16,-1.26154632255442E-16,1.463));
#1108=CARTESIAN_POINT('',(4.46905606254968E-17,-4.46905606254968E-17,0.953));
#1109=CARTESIAN_POINT('',(-0.112368144767371,-0.0998155332769672,0.971071612941709));
#1110=CARTESIAN_POINT('',(-0.114017100337309,-0.0966362564515018,0.968941392557017));
#1111=CARTESIAN_POINT('',(-0.11508192891528,-0.0937292914067034,0.966300926621211));
#1112=CARTESIAN_POINT('',(-0.115627028942493,-0.0910948948447958,0.96319190119478));
#1113=CARTESIAN_POINT('',(-0.11565936927108,-0.0888732419905327,0.95978324180943));
#1114=CARTESIAN_POINT('',(-0.115200108463008,-0.0870878872840656,0.956094921362425));
#1115=CARTESIAN_POINT('',(-0.114291151273881,-0.0858515629924051,0.952346913659716));
#1116=CARTESIAN_POINT('',(-0.112917159488117,-0.0851767593042634,0.948510097396479));
#1117=CARTESIAN_POINT('',(-0.111163032193436,-0.0851275554109962,0.944866579193112));
#1118=CARTESIAN_POINT('',(-0.108987501539757,-0.0857196686640828,0.941400371214777));
#1119=CARTESIAN_POINT('',(-0.106529483482812,-0.0869169503240706,0.938405442078289));
#1120=CARTESIAN_POINT('',(-0.103770022152832,-0.0887029109670814,0.935911087645063));
#1121=CARTESIAN_POINT('',(-0.100862003595661,-0.0909566935676137,0.934120883225592));
#1122=CARTESIAN_POINT('',(-0.0978869533835084,-0.0935721860148157,0.9330917536386));
#1123=CARTESIAN_POINT('',(-0.0949357873834795,-0.0964544789319084,0.932890226730396));
#1124=CARTESIAN_POINT('',(-0.0926614916547981,-0.0989079003222838,0.933410378379721));
#1125=CARTESIAN_POINT('',(-0.0909588763826829,-0.100905205257561,0.934240078279002));
#1126=CARTESIAN_POINT('',(-0.0897932999496878,-0.102363863612344,0.935046387137745));
#1127=CARTESIAN_POINT('',(-0.0887332728138432,-0.103790918131715,0.93602907167678));
#1128=CARTESIAN_POINT('',(-0.0874605565941444,-0.105665676323349,0.937589757025249));
#1129=CARTESIAN_POINT('',(-0.0862274498534785,-0.107829732397396,0.939886277854919));
#1130=CARTESIAN_POINT('',(-0.0853282547392028,-0.110170404906421,0.94316916514011));
#1131=CARTESIAN_POINT('',(-0.0850762638024646,-0.112125119935347,0.946742271509033));
#1132=CARTESIAN_POINT('',(-0.0854527740966188,-0.113693801044991,0.950517320519457));
#1133=CARTESIAN_POINT('',(-0.0864388105910397,-0.114827246722599,0.954339735045994));
#1134=CARTESIAN_POINT('',(-0.0879623017816646,-0.115502096619005,0.958054837957689));
#1135=CARTESIAN_POINT('',(-0.0900034479126558,-0.115702818101439,0.961631372695908));
#1136=CARTESIAN_POINT('',(-0.0924269916717632,-0.115408663283245,0.964865275678641));
#1137=CARTESIAN_POINT('',(-0.0952483763511159,-0.114579526564938,0.967769092072364));
#1138=CARTESIAN_POINT('',(-0.0982543668338426,-0.11323803618299,0.970115806926428));
#1139=CARTESIAN_POINT('',(-0.101468188014678,-0.111315477489356,0.971892242310043));
#1140=CARTESIAN_POINT('',(-0.104065461649862,-0.109338701448499,0.972731995583869));
#1141=CARTESIAN_POINT('',(-0.106106781664351,-0.107504188755283,0.973011016070317));
#1142=CARTESIAN_POINT('',(-0.107543638503937,-0.106064068365088,0.973006591924723));
#1143=CARTESIAN_POINT('',(-0.108895113223905,-0.104558710250173,0.972799064471919));
#1144=CARTESIAN_POINT('',(-0.110586373764795,-0.102454250857621,0.972239693125836));
#1145=CARTESIAN_POINT('',(-0.112368144767371,-0.0998155332769672,0.971071612941709));
#1146=CARTESIAN_POINT('',(-0.114017100337309,-0.0966362564515018,0.968941392557017));
#1147=CARTESIAN_POINT('',(-0.11508192891528,-0.0937292914067034,0.966300926621211));
#1148=CARTESIAN_POINT('',(-0.113919745860665,-0.0966816418119012,0.968856351547629));
#1149=CARTESIAN_POINT('',(4.46905606254968E-17,-4.46905606254968E-17,0.953));
#1150=CARTESIAN_POINT('',(-0.126774584268905,-0.154687983186301,0.94904413249578));
#1151=CARTESIAN_POINT('',(-0.1264694444786,-0.154936905181544,0.9530092119343));
#1152=CARTESIAN_POINT('',(-0.126769660842528,-0.154692046598129,0.956919019767019));
#1153=CARTESIAN_POINT('',(-0.127665604086336,-0.153955253169972,0.960718894186235));
#1154=CARTESIAN_POINT('',(-0.129086687289156,-0.152768579066756,0.964169527414888));
#1155=CARTESIAN_POINT('',(-0.131010357663766,-0.151125328808265,0.967242720407246));
#1156=CARTESIAN_POINT('',(-0.132903808206636,-0.149461439696601,0.969307896409278));
#1157=CARTESIAN_POINT('',(-0.134590997905178,-0.147940116730425,0.970669274632795));
#1158=CARTESIAN_POINT('',(-0.135893815700356,-0.146744493822543,0.971503708768843));
#1159=CARTESIAN_POINT('',(-0.137238306848688,-0.145488286426296,0.972164355731847));
#1160=CARTESIAN_POINT('',(-0.139098597667478,-0.143716699510455,0.972808260253635));
#1161=CARTESIAN_POINT('',(-0.141414591403844,-0.14144653538207,0.973128917078995));
#1162=CARTESIAN_POINT('',(-0.144187999537337,-0.138617634376149,0.972740184875707));
#1163=CARTESIAN_POINT('',(-0.146758938386839,-0.135890495675714,0.971603165558402));
#1164=CARTESIAN_POINT('',(-0.149115634659244,-0.133297275534533,0.96973641460132));
#1165=CARTESIAN_POINT('',(-0.151127024778439,-0.13100837067716,0.967238329167068));
#1166=CARTESIAN_POINT('',(-0.15275633074521,-0.129101170561836,0.964199740218124));
#1167=CARTESIAN_POINT('',(-0.153959558456398,-0.127660476032508,0.960701664628013));
#1168=CARTESIAN_POINT('',(-0.154687193148174,-0.126775545997386,0.956957276430759));
#1169=CARTESIAN_POINT('',(-0.154936502914824,-0.126469933880792,0.952995452867478));
#1170=CARTESIAN_POINT('',(-0.154734784274736,-0.126717278825113,0.949753427250577));
#1171=CARTESIAN_POINT('',(-0.154325491683188,-0.127215381691258,0.947183997962091));
#1172=CARTESIAN_POINT('',(-0.153903539701484,-0.127725812636856,0.945343643407259));
#1173=CARTESIAN_POINT('',(-0.153368262830541,-0.128368482591882,0.943576206501417));
#1174=CARTESIAN_POINT('',(-0.152490188868552,-0.129412649399555,0.941306464915005));
#1175=CARTESIAN_POINT('',(-0.151146031733043,-0.130986570731003,0.938788742040496));
#1176=CARTESIAN_POINT('',(-0.149114661583239,-0.133298169795096,0.936263951717405));
#1177=CARTESIAN_POINT('',(-0.146793081527733,-0.135853654183007,0.934417609608858));
#1178=CARTESIAN_POINT('',(-0.144187687167288,-0.138618034016052,0.933258845061438));
#1179=CARTESIAN_POINT('',(-0.141444690034377,-0.141416273056146,0.9328723036411));
#1180=CARTESIAN_POINT('',(-0.138642419712843,-0.144164273908035,0.933251994689902));
#1181=CARTESIAN_POINT('',(-0.13587902869889,-0.146769608420906,0.934403267582406));
#1182=CARTESIAN_POINT('',(-0.133319591948446,-0.149095537215659,0.93624497815939));
#1183=CARTESIAN_POINT('',(-0.131006550105566,-0.151128768370646,0.938761750938222));
#1184=CARTESIAN_POINT('',(-0.129108898009537,-0.152749703955324,0.941788523071484));
#1185=CARTESIAN_POINT('',(-0.127666591595417,-0.153954535970505,0.94527658115622));
#1186=CARTESIAN_POINT('',(-0.126774584268905,-0.154687983186301,0.94904413249578));
#1187=CARTESIAN_POINT('',(-0.1264694444786,-0.154936905181544,0.9530092119343));
#1188=CARTESIAN_POINT('',(-0.126769660842528,-0.154692046598129,0.956919019767019));
#1189=CARTESIAN_POINT('',(-0.126570337170972,-0.154854608418434,0.953));
#1190=CARTESIAN_POINT('',(0.,1.22464679914735E-17,1.503));
#1191=CARTESIAN_POINT('',(-3.80650818014014E-18,-6.88216678969337E-18,1.09789795918367));
#1192=CARTESIAN_POINT('',(0.2,-6.88216678969337E-18,1.09789795918367));
#1193=CARTESIAN_POINT('',(0.,1.22464679914735E-17,0.903));
#1194=CARTESIAN_POINT('',(0.2,1.22464679914735E-17,0.903));
#1195=CARTESIAN_POINT('',(-3.80650818014014E-18,-6.88216678969337E-18,1.103));
#1196=CARTESIAN_POINT('',(-3.80650818014014E-18,-6.88216678969337E-18,0.903));
#1197=CARTESIAN_POINT('',(0.1236,-6.88216678969337E-18,0.903));
#1198=CARTESIAN_POINT('',(0.,0.,0.903));
#1199=CARTESIAN_POINT('',(0.,-9.55479956265902E-17,1.483));
#1200=CARTESIAN_POINT('',(0.,-9.55479956265902E-17,1.483));
#1201=CARTESIAN_POINT('',(-0.315781673072083,-0.15707907815375,0.306501801407908));
#1202=CARTESIAN_POINT('',(-0.100781673072083,-0.377079078153751,0.781501801407908));
#1203=CARTESIAN_POINT('',(-0.0957816730720829,0.0779209218462494,0.786501801407908));
#1204=MECHANICAL_DESIGN_GEOMETRIC_PRESENTATION_REPRESENTATION('',(#548,#549),#1205);
#1205=(
GEOMETRIC_REPRESENTATION_CONTEXT(3)
GLOBAL_UNCERTAINTY_ASSIGNED_CONTEXT((#1208))
GLOBAL_UNIT_ASSIGNED_CONTEXT((#1213,#1212,#1211))
REPRESENTATION_CONTEXT('gestell_only','TOP_LEVEL_ASSEMBLY_PART')
);
#1206=(
GEOMETRIC_REPRESENTATION_CONTEXT(3)
GLOBAL_UNCERTAINTY_ASSIGNED_CONTEXT((#1209))
GLOBAL_UNIT_ASSIGNED_CONTEXT((#1213,#1212,#1211))
REPRESENTATION_CONTEXT('DA40_440','COMPONENT_PART')
);
#1207=(
GEOMETRIC_REPRESENTATION_CONTEXT(3)
GLOBAL_UNCERTAINTY_ASSIGNED_CONTEXT((#1210))
GLOBAL_UNIT_ASSIGNED_CONTEXT((#1213,#1212,#1211))
REPRESENTATION_CONTEXT('Gestell','COMPONENT_PART')
);
#1208=UNCERTAINTY_MEASURE_WITH_UNIT(LENGTH_MEASURE(1.E-08),#1213,'DISTANCE_ACCURACY_VALUE','Maximum Tolerance applied to model');
#1209=UNCERTAINTY_MEASURE_WITH_UNIT(LENGTH_MEASURE(1.E-08),#1213,'DISTANCE_ACCURACY_VALUE','Maximum Tolerance applied to model');
#1210=UNCERTAINTY_MEASURE_WITH_UNIT(LENGTH_MEASURE(2.E-05),#1213,'DISTANCE_ACCURACY_VALUE','Maximum Tolerance applied to model');
#1211=(
NAMED_UNIT(*)
SI_UNIT($,.STERADIAN.)
SOLID_ANGLE_UNIT()
);
#1212=(
NAMED_UNIT(*)
PLANE_ANGLE_UNIT()
SI_UNIT($,.RADIAN.)
);
#1213=(
LENGTH_UNIT()
NAMED_UNIT(*)
SI_UNIT($,.METRE.)
);
#1214=PRODUCT_DEFINITION_SHAPE('','',#1221);
#1215=PRODUCT_DEFINITION_SHAPE('','',#1222);
#1216=PRODUCT_DEFINITION_SHAPE(' ','NAUO PRDDFN',#75);
#1217=PRODUCT_DEFINITION_SHAPE('','',#1223);
#1218=PRODUCT_DEFINITION_SHAPE(' ','NAUO PRDDFN',#76);
#1219=PRODUCT_DEFINITION_SHAPE(' ','NAUO PRDDFN',#77);
#1220=PRODUCT_DEFINITION_SHAPE(' ','NAUO PRDDFN',#78);
#1221=PRODUCT_DEFINITION('','',#1227,#1224);
#1222=PRODUCT_DEFINITION('','',#1228,#1225);
#1223=PRODUCT_DEFINITION('','',#1229,#1226);
#1224=PRODUCT_DEFINITION_CONTEXT('',#1243,'design');
#1225=PRODUCT_DEFINITION_CONTEXT('',#1243,'design');
#1226=PRODUCT_DEFINITION_CONTEXT('',#1243,'design');
#1227=PRODUCT_DEFINITION_FORMATION_WITH_SPECIFIED_SOURCE('','',#1233,.NOT_KNOWN.);
#1228=PRODUCT_DEFINITION_FORMATION_WITH_SPECIFIED_SOURCE('','',#1234,.NOT_KNOWN.);
#1229=PRODUCT_DEFINITION_FORMATION_WITH_SPECIFIED_SOURCE('','',#1235,.NOT_KNOWN.);
#1230=PRODUCT_RELATED_PRODUCT_CATEGORY('','',(#1233));
#1231=PRODUCT_RELATED_PRODUCT_CATEGORY('','',(#1234));
#1232=PRODUCT_RELATED_PRODUCT_CATEGORY('','',(#1235));
#1233=PRODUCT('gestell_only','gestell_only','gestell_only',(#1239));
#1234=PRODUCT('DA40_440','DA40_440','DA40_440',(#1240));
#1235=PRODUCT('Gestell','Gestell','Gestell',(#1241));
#1236=PRODUCT_CATEGORY('','');
#1237=PRODUCT_CATEGORY('','');
#1238=PRODUCT_CATEGORY('','');
#1239=PRODUCT_CONTEXT('',#1243,'mechanical');
#1240=PRODUCT_CONTEXT('',#1243,'mechanical');
#1241=PRODUCT_CONTEXT('',#1243,'mechanical');
#1242=APPLICATION_PROTOCOL_DEFINITION('international standard','ap242_managed_model_based_3d_engineering',2020,#1243);
#1243=APPLICATION_CONTEXT('managed model based 3d engineering');
ENDSEC;
END-ISO-10303-21;
