  0
SECTION
  2
HEADER
  9
$ACADVER
  1
AC1014
  9
$ACADMAINTVER
 70
     9
  9
$DWGCODEPAGE
  3
ANSI_1252
  9
$INSBASE
 10
0.0
 20
0.0
 30
0.0
  9
$EXTMIN
 10
1.0
 20
0.5
 30
-8.853953907687526
  9
$EXTMAX
 10
420.0
 20
296.5
 30
8.853953907687554
  9
$LIMMIN
 10
0.0
 20
0.0
  9
$LIMMAX
 10
12.0
 20
9.0
  9
$ORTHOMODE
 70
     0
  9
$REGENMODE
 70
     1
  9
$FILLMODE
 70
     1
  9
$QTEXTMODE
 70
     0
  9
$MIRRTEXT
 70
     1
  9
$DRAGMODE
 70
     2
  9
$LTSCALE
 40
12.7
  9
$OSMODE
 70
    23
  9
$ATTMODE
 70
     1
  9
$TEXTSIZE
 40
3.5
  9
$TRACEWID
 40
0.05
  9
$TEXTSTYLE
  7
ONSHAPE-STANDARD
  9
$CLAYER
  8
0
  9
$CELTYPE
  6
BYLAYER
  9
$CECOLOR
 62
   256
  9
$CELTSCALE
 40
1.0
  9
$DELOBJ
 70
     1
  9
$DISPSILH
 70
     0
  9
$DIMSCALE
 40
1.0
  9
$DIMASZ
 40
2.5
  9
$DIMEXO
 40
0.625
  9
$DIMDLI
 40
3.75
  9
$DIMRND
 40
0.0
  9
$DIMDLE
 40
0.0
  9
$DIMEXE
 40
1.25
  9
$DIMTP
 40
0.0
  9
$DIMTM
 40
0.0
  9
$DIMTXT
 40
3.5
  9
$DIMCEN
 40
2.5
  9
$DIMTSZ
 40
0.0
  9
$DIMTOL
 70
     0
  9
$DIMLIM
 70
     0
  9
$DIMTIH
 70
     0
  9
$DIMTOH
 70
     0
  9
$DIMSE1
 70
     0
  9
$DIMSE2
 70
     0
  9
$DIMTAD
 70
     1
  9
$DIMZIN
 70
     8
  9
$DIMBLK
  1

  9
$DIMASO
 70
     1
  9
$DIMSHO
 70
     1
  9
$DIMPOST
  1

  9
$DIMAPOST
  1

  9
$DIMALT
 70
     0
  9
$DIMALTD
 70
     3
  9
$DIMALTF
 40
0.03937
  9
$DIMLFAC
 40
10.0
  9
$DIMTOFL
 70
     1
  9
$DIMTVP
 40
0.0
  9
$DIMTIX
 70
     0
  9
$DIMSOXD
 70
     0
  9
$DIMSAH
 70
     0
  9
$DIMBLK1
  1

  9
$DIMBLK2
  1

  9
$DIMSTYLE
  2
ONSHAPE-ISO-25
  9
$DIMCLRD
 70
     7
  9
$DIMCLRE
 70
     7
  9
$DIMCLRT
 70
     7
  9
$DIMTFAC
 40
1.0
  9
$DIMGAP
 40
0.625
  9
$DIMJUST
 70
     0
  9
$DIMSD1
 70
     0
  9
$DIMSD2
 70
     0
  9
$DIMTOLJ
 70
     0
  9
$DIMTZIN
 70
     8
  9
$DIMALTZ
 70
     8
  9
$DIMALTTZ
 70
     0
  9
$DIMFIT
 70
     3
  9
$DIMUPT
 70
     1
  9
$DIMUNIT
 70
     2
  9
$DIMDEC
 70
     2
  9
$DIMTDEC
 70
     2
  9
$DIMALTU
 70
     2
  9
$DIMALTTD
 70
     3
  9
$DIMTXSTY
  7
ONSHAPE-STANDARD-DIMENSION
  9
$DIMAUNIT
 70
     0
  9
$LUNITS
 70
     2
  9
$LUPREC
 70
     4
  9
$SKETCHINC
 40
0.1
  9
$FILLETRAD
 40
0.5
  9
$AUNITS
 70
     0
  9
$AUPREC
 70
     0
  9
$MENU
  1
.
  9
$ELEVATION
 40
0.0
  9
$PELEVATION
 40
0.0
  9
$THICKNESS
 40
0.0
  9
$LIMCHECK
 70
     0
  9
$CHAMFERA
 40
0.0
  9
$CHAMFERB
 40
0.0
  9
$CHAMFERC
 40
0.0
  9
$CHAMFERD
 40
0.0
  9
$SKPOLY
 70
     0
  9
$TDCREATE
 40
2461094.545099051
  9
$TDUPDATE
 40
2461094.545099873
  9
$TDINDWG
 40
0.0
  9
$TDUSRTIMER
 40
0.0
  9
$USRTIMER
 70
     1
  9
$ANGBASE
 50
0.0
  9
$ANGDIR
 70
     0
  9
$PDMODE
 70
    33
  9
$PDSIZE
 40
1.0
  9
$PLINEWID
 40
0.0
  9
$COORDS
 70
     1
  9
$SPLFRAME
 70
     0
  9
$SPLINETYPE
 70
     6
  9
$SPLINESEGS
 70
     8
  9
$ATTDIA
 70
     0
  9
$ATTREQ
 70
     1
  9
$HANDLING
 70
     1
  9
$HANDSEED
  5
39B
  9
$SURFTAB1
 70
     6
  9
$SURFTAB2
 70
     6
  9
$SURFTYPE
 70
     6
  9
$SURFU
 70
     6
  9
$SURFV
 70
     6
  9
$UCSNAME
  2

  9
$UCSORG
 10
0.0
 20
0.0
 30
0.0
  9
$UCSXDIR
 10
1.0
 20
0.0
 30
0.0
  9
$UCSYDIR
 10
0.0
 20
1.0
 30
0.0
  9
$PUCSNAME
  2

  9
$PUCSORG
 10
0.0
 20
0.0
 30
0.0
  9
$PUCSXDIR
 10
1.0
 20
0.0
 30
0.0
  9
$PUCSYDIR
 10
0.0
 20
1.0
 30
0.0
  9
$USERI1
 70
     0
  9
$USERI2
 70
     0
  9
$USERI3
 70
     0
  9
$USERI4
 70
     0
  9
$USERI5
 70
     0
  9
$USERR1
 40
0.0
  9
$USERR2
 40
0.0
  9
$USERR3
 40
0.0
  9
$USERR4
 40
0.0
  9
$USERR5
 40
0.0
  9
$WORLDVIEW
 70
     1
  9
$SHADEDGE
 70
     3
  9
$SHADEDIF
 70
    70
  9
$TILEMODE
 70
     1
  9
$MAXACTVP
 70
    64
  9
$PINSBASE
 10
0.0
 20
0.0
 30
0.0
  9
$PLIMCHECK
 70
     0
  9
$PEXTMIN
 10
1.000000000000000E+20
 20
1.000000000000000E+20
 30
1.000000000000000E+20
  9
$PEXTMAX
 10
-1.000000000000000E+20
 20
-1.000000000000000E+20
 30
-1.000000000000000E+20
  9
$PLIMMIN
 10
0.0
 20
0.0
  9
$PLIMMAX
 10
12.0
 20
9.0
  9
$UNITMODE
 70
     0
  9
$VISRETAIN
 70
     1
  9
$PLINEGEN
 70
     0
  9
$PSLTSCALE
 70
     1
  9
$TREEDEPTH
 70
  3020
  9
$PICKSTYLE
 70
     1
  9
$CMLSTYLE
  2
STANDARD
  9
$CMLJUST
 70
     0
  9
$CMLSCALE
 40
1.0
  9
$PROXYGRAPHICS
 70
     1
  9
$MEASUREMENT
 70
     0
  0
ENDSEC
  0
SECTION
  2
CLASSES
  0
CLASS
  1
ACDBDICTIONARYWDFLT
  2
AcDbDictionaryWithDefault
  3
ObjectDBX Classes
 90
        0
280
     0
281
     0
  0
CLASS
  1
VISUALSTYLE
  2
AcDbVisualStyle
  3
ObjectDBX Classes
 90
     4095
280
     0
281
     0
  0
CLASS
  1
MATERIAL
  2
AcDbMaterial
  3
ObjectDBX Classes
 90
     1153
280
     0
281
     0
  0
CLASS
  1
SCALE
  2
AcDbScale
  3
ObjectDBX Classes
 90
     1153
280
     0
281
     0
  0
CLASS
  1
TABLESTYLE
  2
AcDbTableStyle
  3
ObjectDBX Classes
 90
     4095
280
     0
281
     0
  0
CLASS
  1
MLEADERSTYLE
  2
AcDbMLeaderStyle
  3
ACDB_MLEADERSTYLE_CLASS
 90
     4095
280
     0
281
     0
  0
CLASS
  1
SUN
  2
AcDbSun
  3
SCENEOE
 90
     1153
280
     0
281
     0
  0
CLASS
  1
DICTIONARYVAR
  2
AcDbDictionaryVar
  3
ObjectDBX Classes
 90
        0
280
     0
281
     0
  0
CLASS
  1
FIELD
  2
AcDbField
  3
ObjectDBX Classes
 90
     1152
280
     0
281
     0
  0
CLASS
  1
FIELDLIST
  2
AcDbFieldList
  3
ObjectDBX Classes
 90
     1152
280
     0
281
     0
  0
CLASS
  1
DIMASSOC
  2
AcDbDimAssoc
  3
"AcDbDimAssoc|Product Desc:     AcDim ARX App For Dimension|Company:          Autodesk, Inc.|WEB Address:      www.autodesk.com"
 90
        0
280
     0
281
     0
  0
CLASS
  1
BREAKDATA
  2
AcDbBreakData
  3
ObjectDBX Classes
 90
     1024
280
     0
281
     0
  0
CLASS
  1
XRECORD
  2
AcDbXrecord
  3
ObjectDBX Classes
 90
        0
280
     0
281
     0
  0
CLASS
  1
LWPOLYLINE
  2
AcDbPolyline
  3
ObjectDBX Classes
 90
        0
280
     0
281
     1
  0
CLASS
  1
HATCH
  2
AcDbHatch
  3
ObjectDBX Classes
 90
        0
280
     0
281
     1
  0
CLASS
  1
ACDBPLACEHOLDER
  2
AcDbPlaceHolder
  3
ObjectDBX Classes
 90
        0
280
     0
281
     0
  0
CLASS
  1
LAYOUT
  2
AcDbLayout
  3
ObjectDBX Classes
 90
        0
280
     0
281
     0
  0
ENDSEC
  0
SECTION
  2
TABLES
  0
TABLE
  2
VPORT
  5
8
102
{ACAD_XDICTIONARY
360
38F
102
}
330
0
100
AcDbSymbolTable
 70
     1
  0
VPORT
  5
29
330
8
100
AcDbSymbolTableRecord
100
AcDbViewportTableRecord
  2
*ACTIVE
 70
     0
 10
0.0
 20
0.0
 11
1.0
 21
1.0
 12
210.5
 22
153.2942779291553
 13
0.0
 23
0.0
 14
0.5
 24
0.5
 15
0.5
 25
0.5
 16
0.0
 26
0.0
 36
1.0
 17
0.0
 27
0.0
 37
0.0
 40
313.7055858310626
 41
1.365292874703758
 42
50.0
 43
0.0
 44
0.0
 50
0.0
 51
0.0
 71
     0
 72
   100
 73
     1
 74
     3
 75
     0
 76
     0
 77
     0
 78
     0
  0
ENDTAB
  0
TABLE
  2
LTYPE
  5
5
330
0
100
AcDbSymbolTable
 70
     2
  0
LTYPE
  5
14
330
5
100
AcDbSymbolTableRecord
100
AcDbLinetypeTableRecord
  2
BYBLOCK
 70
     0
  3

 72
    65
 73
     0
 40
0.0
  0
LTYPE
  5
15
330
5
100
AcDbSymbolTableRecord
100
AcDbLinetypeTableRecord
  2
BYLAYER
 70
     0
  3

 72
    65
 73
     0
 40
0.0
  0
LTYPE
  5
16
330
5
100
AcDbSymbolTableRecord
100
AcDbLinetypeTableRecord
  2
CONTINUOUS
 70
     0
  3
Solid line
 72
    65
 73
     0
 40
0.0
  0
LTYPE
  5
19F
330
5
100
AcDbSymbolTableRecord
100
AcDbLinetypeTableRecord
  2
CENTER
 70
     0
  3
Center line ____ _ ____ _ ____ _
 72
    65
 73
     4
 40
0.7874015748031495
 49
0.4921259842519685
 74
     0
 49
-0.0984251968503937
 74
     0
 49
0.0984251968503937
 74
     0
 49
-0.0984251968503937
 74
     0
  0
ENDTAB
  0
TABLE
  2
LAYER
  5
2
330
0
100
AcDbSymbolTable
 70
     8
  0
LAYER
  5
10
330
2
100
AcDbSymbolTableRecord
100
AcDbLayerTableRecord
  2
0
 70
     0
 62
     7
  6
CONTINUOUS
  0
LAYER
  5
70
330
2
100
AcDbSymbolTableRecord
100
AcDbLayerTableRecord
  2
DEFPOINTS
 70
     0
 62
     7
  6
CONTINUOUS
  0
LAYER
  5
74
330
2
100
AcDbSymbolTableRecord
100
AcDbLayerTableRecord
  2
VISIBLE
 70
     0
 62
     7
  6
CONTINUOUS
  0
LAYER
  5
D9
330
2
100
AcDbSymbolTableRecord
100
AcDbLayerTableRecord
  2
BORDER_FRAME
 70
     0
 62
     7
  6
CONTINUOUS
  0
LAYER
  5
DF
330
2
100
AcDbSymbolTableRecord
100
AcDbLayerTableRecord
  2
BORDER_ZONES
 70
     0
 62
     7
  6
CONTINUOUS
  0
LAYER
  5
105
330
2
100
AcDbSymbolTableRecord
100
AcDbLayerTableRecord
  2
TITLE_BLOCK
 70
     0
 62
     7
  6
CONTINUOUS
  0
LAYER
  5
199
330
2
100
AcDbSymbolTableRecord
100
AcDbLayerTableRecord
  2
ANNOTATION_TEXT
 70
     0
 62
     7
  6
CONTINUOUS
  0
LAYER
  5
19D
330
2
100
AcDbSymbolTableRecord
100
AcDbLayerTableRecord
  2
CENTERMARKS
 70
     0
 62
     7
  6
CONTINUOUS
  0
ENDTAB
  0
TABLE
  2
STYLE
  5
3
330
0
100
AcDbSymbolTable
 70
    36
  0
STYLE
  5
11
330
3
100
AcDbSymbolTableRecord
100
AcDbTextStyleTableRecord
  2
STANDARD
 70
     0
 40
0.0
 41
1.0
 50
0.0
 71
     0
 42
3.5
  3
txt
  4

  0
STYLE
  5
71
330
3
100
AcDbSymbolTableRecord
100
AcDbTextStyleTableRecord
  2
ONSHAPE-STANDARD
 70
     0
 40
0.0
 41
1.0
 50
0.0
 71
     0
 42
3.5
  3
NotoSans-Regular.ttf
  4

1001
ACAD
1000
Noto Sans
1071
        0
  0
STYLE
  5
73
330
3
100
AcDbSymbolTableRecord
100
AcDbTextStyleTableRecord
  2
ONSHAPE-STANDARD-DIMENSION
 70
     0
 40
0.0
 41
1.0
 50
0.0
 71
     0
 42
3.5
  3

  4

1001
ACAD
1000
Noto Sans
1071
        0
  0
STYLE
  5
13A
330
3
100
AcDbSymbolTableRecord
100
AcDbTextStyleTableRecord
  2
ONSHAPE-STANDARD-FIELDS
 70
     0
 40
0.0
 41
1.0
 50
0.0
 71
     0
 42
3.5
  3

  4

1001
ACAD
1000
Noto Sans
1071
        0
  0
STYLE
  5
19B
330
3
100
AcDbSymbolTableRecord
100
AcDbTextStyleTableRecord
  2
ONSHAPE-STANDARD-VIEW-LABE
 70
     0
 40
3.5
 41
1.0
 50
0.0
 71
     0
 42
3.5
  3
NotoSans-Regular.ttf
  4

1001
ACAD
1000
Noto Sans
1071
        0
  0
STYLE
  5
227
330
3
100
AcDbSymbolTableRecord
100
AcDbTextStyleTableRecord
  2
ONSHAPE-STANDARD-NOTESTYLE
 70
     0
 40
3.5
 41
1.0
 50
0.0
 71
     0
 42
3.5
  3
NotoSans-Regular.ttf
  4

1001
ACAD
1000
Noto Sans
1071
        0
  0
STYLE
  5
307
330
3
100
AcDbSymbolTableRecord
100
AcDbTextStyleTableRecord
  2
ONSHAPE-STANDARD-TCFIELDS
 70
     0
 40
0.0
 41
1.0
 50
0.0
 71
     0
 42
3.5
  3
NotoSansTC-Regular.otf
  4

1001
ACAD
1000
Noto Sans TC
1071
        0
  0
STYLE
  5
308
330
3
100
AcDbSymbolTableRecord
100
AcDbTextStyleTableRecord
  2
ONSHAPE-STANDARD-SCFIELDS
 70
     0
 40
0.0
 41
1.0
 50
0.0
 71
     0
 42
3.5
  3
NotoSansSC-Regular.otf
  4

1001
ACAD
1000
Noto Sans SC
1071
        0
  0
STYLE
  5
309
330
3
100
AcDbSymbolTableRecord
100
AcDbTextStyleTableRecord
  2
ONSHAPE-STANDARD-KOREANFIE
 70
     0
 40
0.0
 41
1.0
 50
0.0
 71
     0
 42
3.5
  3
NotoSansKR-Regular.otf
  4

1001
ACAD
1000
Noto Sans KR
1071
        0
  0
STYLE
  5
30A
330
3
100
AcDbSymbolTableRecord
100
AcDbTextStyleTableRecord
  2
ONSHAPE-STANDARD-JAPANESEF
 70
     0
 40
0.0
 41
1.0
 50
0.0
 71
     0
 42
3.5
  3
NotoSansJP-Regular.otf
  4

1001
ACAD
1000
Noto Sans JP
1071
        0
  0
STYLE
  5
30C
330
3
100
AcDbSymbolTableRecord
100
AcDbTextStyleTableRecord
  2
ONSHAPE-STANDARD-BOLD
 70
     0
 40
0.0
 41
1.0
 50
0.0
 71
     0
 42
3.5
  3
NotoSans-Bold.ttf
  4

1001
ACAD
1000
Noto Sans
1071
 33554432
  0
STYLE
  5
30F
330
3
100
AcDbSymbolTableRecord
100
AcDbTextStyleTableRecord
  2
TTFSTYLE
 70
     0
 40
0.0
 41
1.0
 50
0.0
 71
     0
 42
3.5
  3

  4

1001
ACAD
1000
Verdana
1071
       34
  0
STYLE
  5
310
330
3
100
AcDbSymbolTableRecord
100
AcDbTextStyleTableRecord
  2
ONSHAPE-STANDARD-GTOLERANC
 70
     0
 40
0.0
 41
1.0
 50
0.0
 71
     0
 42
3.5
  3

  4

1001
ACAD
1000
Noto Sans
1071
        0
  0
STYLE
  5
311
330
3
100
AcDbSymbolTableRecord
100
AcDbTextStyleTableRecord
  2
ONSHAPE-STANDARD-TABLE-DAT
 70
     0
 40
0.0
 41
1.0
 50
0.0
 71
     0
 42
3.5
  3
NotoSans-Regular.ttf
  4

1001
ACAD
1000
Noto Sans
1071
        0
  0
STYLE
  5
312
330
3
100
AcDbSymbolTableRecord
100
AcDbTextStyleTableRecord
  2
ONSHAPE-STANDARD-TABLE-TIT
 70
     0
 40
0.0
 41
1.0
 50
0.0
 71
     0
 42
3.5
  3
NotoSans-Bold.ttf
  4

1001
ACAD
1000
Noto Sans
1071
 33554432
  0
STYLE
  5
313
330
3
100
AcDbSymbolTableRecord
100
AcDbTextStyleTableRecord
  2
ONSHAPE-STANDARD-TABLE-HEA
 70
     0
 40
0.0
 41
1.0
 50
0.0
 71
     0
 42
3.5
  3
NotoSans-Bold.ttf
  4

1001
ACAD
1000
Noto Sans
1071
 33554432
  0
STYLE
  5
314
330
3
100
AcDbSymbolTableRecord
100
AcDbTextStyleTableRecord
  2
ONSHAPE-STANDARD-BOMTABLE-
 70
     0
 40
0.0
 41
1.0
 50
0.0
 71
     0
 42
3.5
  3
NotoSans-Regular.ttf
  4

1001
ACAD
1000
Noto Sans
1071
        0
  0
STYLE
  5
315
330
3
100
AcDbSymbolTableRecord
100
AcDbTextStyleTableRecord
  2
ONSHAPE-STANDARD-BOMTABLE0
 70
     0
 40
0.0
 41
1.0
 50
0.0
 71
     0
 42
3.5
  3
NotoSans-Bold.ttf
  4

1001
ACAD
1000
Noto Sans
1071
 33554432
  0
STYLE
  5
316
330
3
100
AcDbSymbolTableRecord
100
AcDbTextStyleTableRecord
  2
ONSHAPE-STANDARD-BOMTABLE1
 70
     0
 40
0.0
 41
1.0
 50
0.0
 71
     0
 42
3.5
  3
NotoSans-Bold.ttf
  4

1001
ACAD
1000
Noto Sans
1071
 33554432
  0
STYLE
  5
318
330
3
100
AcDbSymbolTableRecord
100
AcDbTextStyleTableRecord
  2
ONSHAPE-STANDARD-DATUM-DIM
 70
     0
 40
3.5
 41
1.0
 50
0.0
 71
     0
 42
3.5
  3
NotoSans-Regular.ttf
  4

1001
ACAD
1000
Noto Sans
1071
        0
  0
STYLE
  5
31A
330
3
100
AcDbSymbolTableRecord
100
AcDbTextStyleTableRecord
  2
ONSHAPE-DETAIL-VIEW-LEADER
 70
     0
 40
3.5
 41
1.0
 50
0.0
 71
     0
 42
3.5
  3
NotoSans-Regular.ttf
  4

1001
ACAD
1000
Noto Sans
1071
        0
  0
STYLE
  5
31B
330
3
100
AcDbSymbolTableRecord
100
AcDbTextStyleTableRecord
  2
ONSHAPE-STANDARD-HOLE-CALL
 70
     0
 40
3.5
 41
1.0
 50
0.0
 71
     0
 42
3.5
  3
NotoSans-Regular.ttf
  4

1001
ACAD
1000
Noto Sans
1071
        0
  0
STYLE
  5
31C
330
3
100
AcDbSymbolTableRecord
100
AcDbTextStyleTableRecord
  2
ONSHAPE-STANDARD-HOLETABLE
 70
     0
 40
0.0
 41
1.0
 50
0.0
 71
     0
 42
3.5
  3
NotoSans-Regular.ttf
  4

1001
ACAD
1000
Noto Sans
1071
        0
  0
STYLE
  5
31D
330
3
100
AcDbSymbolTableRecord
100
AcDbTextStyleTableRecord
  2
ONSHAPE-STANDARD-HOLETABL0
 70
     0
 40
0.0
 41
1.0
 50
0.0
 71
     0
 42
3.5
  3
NotoSans-Bold.ttf
  4

1001
ACAD
1000
Noto Sans
1071
 33554432
  0
STYLE
  5
31E
330
3
100
AcDbSymbolTableRecord
100
AcDbTextStyleTableRecord
  2
ONSHAPE-STANDARD-HOLETABL1
 70
     0
 40
0.0
 41
1.0
 50
0.0
 71
     0
 42
3.5
  3
NotoSans-Bold.ttf
  4

1001
ACAD
1000
Noto Sans
1071
 33554432
  0
STYLE
  5
31F
330
3
100
AcDbSymbolTableRecord
100
AcDbTextStyleTableRecord
  2
ONSHAPE-STANDARD-HOLE-TAG
 70
     0
 40
3.5
 41
1.0
 50
0.0
 71
     0
 42
3.5
  3
NotoSans-Regular.ttf
  4

1001
ACAD
1000
Noto Sans
1071
        0
  0
STYLE
  5
320
330
3
100
AcDbSymbolTableRecord
100
AcDbTextStyleTableRecord
  2
ONSHAPE-STANDARD-REVISIONT
 70
     0
 40
0.0
 41
1.0
 50
0.0
 71
     0
 42
3.5
  3
NotoSans-Regular.ttf
  4

1001
ACAD
1000
Noto Sans
1071
        0
  0
STYLE
  5
321
330
3
100
AcDbSymbolTableRecord
100
AcDbTextStyleTableRecord
  2
ONSHAPE-STANDARD-REVISION0
 70
     0
 40
0.0
 41
1.0
 50
0.0
 71
     0
 42
3.5
  3
NotoSans-Bold.ttf
  4

1001
ACAD
1000
Noto Sans
1071
 33554432
  0
STYLE
  5
322
330
3
100
AcDbSymbolTableRecord
100
AcDbTextStyleTableRecord
  2
ONSHAPE-STANDARD-REVISION1
 70
     0
 40
0.0
 41
1.0
 50
0.0
 71
     0
 42
3.5
  3
NotoSans-Bold.ttf
  4

1001
ACAD
1000
Noto Sans
1071
 33554432
  0
STYLE
  5
323
330
3
100
AcDbSymbolTableRecord
100
AcDbTextStyleTableRecord
  2
ONSHAPE-STANDARD-REVISION-
 70
     0
 40
3.5
 41
1.0
 50
0.0
 71
     0
 42
3.5
  3
NotoSans-Regular.ttf
  4

1001
ACAD
1000
Noto Sans
1071
        0
  0
STYLE
  5
324
330
3
100
AcDbSymbolTableRecord
100
AcDbTextStyleTableRecord
  2
ONSHAPE-STANDARD-CUTLISTTA
 70
     0
 40
0.0
 41
1.0
 50
0.0
 71
     0
 42
3.5
  3
NotoSans-Regular.ttf
  4

1001
ACAD
1000
Noto Sans
1071
        0
  0
STYLE
  5
325
330
3
100
AcDbSymbolTableRecord
100
AcDbTextStyleTableRecord
  2
ONSHAPE-STANDARD-CUTLISTT0
 70
     0
 40
0.0
 41
1.0
 50
0.0
 71
     0
 42
3.5
  3
NotoSans-Bold.ttf
  4

1001
ACAD
1000
Noto Sans
1071
 33554432
  0
STYLE
  5
326
330
3
100
AcDbSymbolTableRecord
100
AcDbTextStyleTableRecord
  2
ONSHAPE-STANDARD-CUTLISTT1
 70
     0
 40
0.0
 41
1.0
 50
0.0
 71
     0
 42
3.5
  3
NotoSans-Bold.ttf
  4

1001
ACAD
1000
Noto Sans
1071
 33554432
  0
STYLE
  5
327
330
3
100
AcDbSymbolTableRecord
100
AcDbTextStyleTableRecord
  2
ONSHAPE-STANDARD-CUSTOMTAB
 70
     0
 40
0.0
 41
1.0
 50
0.0
 71
     0
 42
3.5
  3
NotoSans-Regular.ttf
  4

1001
ACAD
1000
Noto Sans
1071
        0
  0
STYLE
  5
328
330
3
100
AcDbSymbolTableRecord
100
AcDbTextStyleTableRecord
  2
ONSHAPE-STANDARD-CUSTOMTA0
 70
     0
 40
0.0
 41
1.0
 50
0.0
 71
     0
 42
3.5
  3
NotoSans-Bold.ttf
  4

1001
ACAD
1000
Noto Sans
1071
 33554432
  0
STYLE
  5
329
330
3
100
AcDbSymbolTableRecord
100
AcDbTextStyleTableRecord
  2
ONSHAPE-STANDARD-CUSTOMTA1
 70
     0
 40
0.0
 41
1.0
 50
0.0
 71
     0
 42
3.5
  3
NotoSans-Bold.ttf
  4

1001
ACAD
1000
Noto Sans
1071
 33554432
  0
ENDTAB
  0
TABLE
  2
VIEW
  5
6
330
0
100
AcDbSymbolTable
 70
     0
  0
ENDTAB
  0
TABLE
  2
UCS
  5
7
330
0
100
AcDbSymbolTable
 70
     0
  0
ENDTAB
  0
TABLE
  2
APPID
  5
9
330
0
100
AcDbSymbolTable
 70
     9
  0
APPID
  5
12
330
9
100
AcDbSymbolTableRecord
100
AcDbRegAppTableRecord
  2
ACAD
 70
     0
  0
APPID
  5
16D
330
9
100
AcDbSymbolTableRecord
100
AcDbRegAppTableRecord
  2
ONSHAPE_NOTES_REORDERING_D
 70
     0
  0
APPID
  5
16E
330
9
100
AcDbSymbolTableRecord
100
AcDbRegAppTableRecord
  2
ONSHAPE_NOTES_ANNOTATION_D
 70
     0
  0
APPID
  5
1D8
330
9
100
AcDbSymbolTableRecord
100
AcDbRegAppTableRecord
  2
ACAD_DIMASSOC_CALC_DIMLFAC
 70
     0
  0
APPID
  5
1D9
330
9
100
AcDbSymbolTableRecord
100
AcDbRegAppTableRecord
  2
ACAD_DIMASSOC_DIMLFAC
 70
     0
  0
APPID
  5
1DA
330
9
100
AcDbSymbolTableRecord
100
AcDbRegAppTableRecord
  2
ACAD_DIMASSOC_OVERRIDDEN_D
 70
     0
  0
APPID
  5
1CD
330
9
100
AcDbSymbolTableRecord
100
AcDbRegAppTableRecord
  2
INDEX
 70
     0
  0
APPID
  5
1FF
330
9
100
AcDbSymbolTableRecord
100
AcDbRegAppTableRecord
  2
ACAD_DSTYLE_DIMRADIAL_EXTE
 70
     0
  0
APPID
  5
399
330
9
100
AcDbSymbolTableRecord
100
AcDbRegAppTableRecord
  2
ACAD_MLEADERVER
 70
     0
  0
ENDTAB
  0
TABLE
  2
DIMSTYLE
  5
A
330
0
100
AcDbSymbolTable
 70
    23
  0
DIMSTYLE
105
27
330
A
100
AcDbSymbolTableRecord
100
AcDbDimStyleTableRecord
  2
STANDARD
 70
     0
  3

  4

  5

  6

  7

 40
1.0
 41
0.18
 42
0.0625
 43
0.38
 44
0.18
 45
0.0
 46
0.0
 47
0.0
 48
0.0
140
0.18
141
0.09
142
0.0
143
25.4
144
1.0
145
0.0
146
1.0
147
0.09
 71
     0
 72
     0
 73
     1
 74
     1
 75
     0
 76
     0
 77
     0
 78
     0
170
     0
171
     2
172
     0
173
     0
174
     0
175
     0
176
     0
177
     0
178
     0
270
     2
271
     4
272
     4
273
     2
274
     2
340
11
275
     0
280
     0
281
     0
282
     0
283
     1
284
     0
285
     0
286
     0
287
     3
288
     0
  0
DIMSTYLE
105
72
330
A
100
AcDbSymbolTableRecord
100
AcDbDimStyleTableRecord
  2
ONSHAPE-ISO-25
 70
     0
  3

  4

  5

  6

  7

 40
1.0
 41
2.5
 42
0.625
 43
3.75
 44
1.25
 45
0.0
 46
0.0
 47
0.0
 48
0.0
140
3.5
141
2.5
142
0.0
143
0.03937
144
1.0
145
0.0
146
1.0
147
0.625
 71
     0
 72
     0
 73
     0
 74
     0
 75
     0
 76
     0
 77
     1
 78
     8
170
     0
171
     3
172
     1
173
     0
174
     0
175
     0
176
     7
177
     7
178
     7
179
     1
270
     2
271
     2
272
     2
273
     2
274
     3
340
73
275
     0
280
     0
281
     0
282
     0
283
     0
284
     8
285
     8
286
     0
287
     3
288
     1
  0
DIMSTYLE
105
1C8
102
{ACAD_REACTORS
330
1BF
330
1DB
330
233
330
24F
330
264
330
277
330
28D
330
2A1
330
2B7
102
}
330
A
100
AcDbSymbolTableRecord
100
AcDbDimStyleTableRecord
  2
ONSHAPE-ISO-25$0
 70
     0
  3

  4

  5

  6

  7

 40
1.0
 41
2.5
 42
0.625
 43
3.75
 44
1.25
 45
0.0
 46
0.0
 47
0.0
 48
0.0
140
3.5
141
2.5
142
0.0
143
0.03937
144
1.0
145
0.0
146
1.0
147
0.625
 71
     0
 72
     0
 73
     0
 74
     0
 75
     0
 76
     0
 77
     1
 78
     8
170
     0
171
     3
172
     1
173
     0
174
     0
175
     0
176
     7
177
     7
178
     7
179
     1
270
     2
271
     2
272
     2
273
     2
274
     3
340
73
275
     0
280
     0
281
     0
282
     0
283
     0
284
     8
285
     8
286
     0
287
     3
288
     1
  0
DIMSTYLE
105
1F3
102
{ACAD_REACTORS
330
1EE
330
200
330
211
102
}
330
A
100
AcDbSymbolTableRecord
100
AcDbDimStyleTableRecord
  2
ONSHAPE-ISO-25$3
 70
     0
  3

  4

  5

  6

  7

 40
1.0
 41
2.5
 42
0.625
 43
3.75
 44
1.25
 45
0.0
 46
0.0
 47
0.0
 48
0.0
140
3.5
141
0.0
142
0.0
143
0.03937
144
1.0
145
0.0
146
1.0
147
0.625
 71
     0
 72
     0
 73
     0
 74
     0
 75
     0
 76
     0
 77
     1
 78
     8
170
     0
171
     3
172
     1
173
     0
174
     0
175
     0
176
     7
177
     7
178
     7
179
     1
270
     2
271
     2
272
     2
273
     2
274
     3
340
73
275
     0
280
     0
281
     0
282
     0
283
     0
284
     8
285
     8
286
     0
287
     3
288
     1
  0
DIMSTYLE
105
32A
330
A
100
AcDbSymbolTableRecord
100
AcDbDimStyleTableRecord
  2
ISO-25
 70
     0
  3

  4

  5

  6

  7

 40
1.0
 41
2.5
 42
0.625
 43
3.75
 44
1.25
 45
0.0
 46
0.0
 47
0.0
 48
0.0
140
2.5
141
2.5
142
0.0
143
0.03937007874016
144
1.0
145
0.0
146
1.0
147
0.625
 71
     0
 72
     0
 73
     0
 74
     0
 75
     0
 76
     0
 77
     1
 78
     8
170
     0
171
     3
172
     1
173
     0
174
     0
175
     0
176
     7
177
     7
178
     7
270
     2
271
     2
272
     2
273
     2
274
     3
340
11
275
     0
280
     0
281
     0
282
     0
283
     0
284
     8
285
     0
286
     0
287
     3
288
     1
  0
DIMSTYLE
105
32C
330
A
100
AcDbSymbolTableRecord
100
AcDbDimStyleTableRecord
  2
ISO
 70
     0
  3

  4
"
  5

  6

  7

 40
1.0
 41
3.5
 42
1.0
 43
10.0
 44
1.0
 45
0.0
 46
0.0
 47
0.1
 48
0.1
140
3.5
141
0.0
142
0.0
143
0.03937
144
1.0
145
0.0
146
0.71
147
1.5
 71
     0
 72
     0
 73
     0
 74
     0
 75
     0
 76
     0
 77
     1
 78
     8
170
     0
171
     3
172
     1
173
     0
174
     0
175
     0
176
     7
177
     7
178
     7
270
     2
271
     2
272
     3
273
     2
274
     3
340
11
275
     0
280
     0
281
     0
282
     0
283
     0
284
     8
285
     8
286
     0
287
     3
288
     1
  0
DIMSTYLE
105
32D
330
A
100
AcDbSymbolTableRecord
100
AcDbDimStyleTableRecord
  2
ISO$3
 70
     0
  3

  4
"
  5

  6

  7

 40
1.0
 41
3.5
 42
1.0
 43
10.0
 44
1.0
 45
0.0
 46
0.0
 47
0.1
 48
0.1
140
3.5
141
0.0
142
0.0
143
0.03937
144
1.0
145
0.0
146
0.71
147
1.5
 71
     0
 72
     0
 73
     0
 74
     1
 75
     0
 76
     0
 77
     1
 78
     8
170
     0
171
     3
172
     0
173
     0
174
     0
175
     0
176
     7
177
     7
178
     7
270
     2
271
     2
272
     3
273
     2
274
     3
340
11
275
     0
280
     0
281
     0
282
     0
283
     0
284
     8
285
     8
286
     0
288
     1
  0
DIMSTYLE
105
32E
330
A
100
AcDbSymbolTableRecord
100
AcDbDimStyleTableRecord
  2
ISO$4
 70
     0
  3

  4
"
  5

  6

  7

 40
1.0
 41
3.5
 42
1.0
 43
10.0
 44
1.0
 45
0.0
 46
0.0
 47
0.1
 48
0.1
140
3.5
141
0.0
142
0.0
143
0.03937
144
1.0
145
0.0
146
0.71
147
1.5
 71
     0
 72
     0
 73
     0
 74
     0
 75
     0
 76
     0
 77
     1
 78
     8
170
     0
171
     3
172
     1
173
     0
174
     0
175
     0
176
     7
177
     7
178
     7
270
     2
271
     2
272
     3
273
     2
274
     3
340
11
275
     0
280
     0
281
     0
282
     0
283
     0
284
     8
285
     8
286
     0
287
     3
288
     1
  0
DIMSTYLE
105
32F
330
A
100
AcDbSymbolTableRecord
100
AcDbDimStyleTableRecord
  2
ISO$6
 70
     0
  3

  4
"
  5

  6

  7

 40
1.0
 41
0.5
 42
1.0
 43
10.0
 44
1.0
 45
0.0
 46
0.0
 47
0.1
 48
0.1
140
3.5
141
0.0
142
0.0
143
0.03937
144
1.0
145
0.0
146
0.71
147
1.5
 71
     0
 72
     0
 73
     0
 74
     0
 75
     0
 76
     0
 77
     0
 78
     8
170
     0
171
     3
172
     1
173
     0
174
     0
175
     0
176
     7
177
     7
178
     7
270
     2
271
     2
272
     3
273
     2
274
     3
340
11
275
     0
280
     0
281
     0
282
     0
283
     0
284
     8
285
     8
286
     0
287
     3
288
     1
  0
DIMSTYLE
105
330
330
A
100
AcDbSymbolTableRecord
100
AcDbDimStyleTableRecord
  2
ISO$7
 70
     0
  3

  4
"
  5

  6

  7

 40
1.0
 41
3.5
 42
1.0
 43
10.0
 44
1.0
 45
0.0
 46
0.0
 47
0.1
 48
0.1
140
3.5
141
0.0
142
0.0
143
0.03937
144
1.0
145
0.0
146
0.71
147
1.5
 71
     0
 72
     0
 73
     0
 74
     0
 75
     0
 76
     0
 77
     1
 78
     8
170
     0
171
     3
172
     1
173
     0
174
     0
175
     0
176
     7
177
     7
178
     7
270
     2
271
     2
272
     3
273
     2
274
     3
340
11
275
     0
280
     0
281
     0
282
     0
283
     0
284
     8
285
     8
286
     0
287
     3
288
     1
  0
DIMSTYLE
105
331
330
A
100
AcDbSymbolTableRecord
100
AcDbDimStyleTableRecord
  2
ISO$SF
 70
     0
  3

  4
"
  5

  6

  7

 40
1.0
 41
3.5
 42
1.0
 43
10.0
 44
1.0
 45
0.0
 46
0.0
 47
0.1
 48
0.1
140
3.5
141
0.0
142
0.0
143
0.03937
144
1.0
145
0.0
146
0.71
147
1.5
 71
     0
 72
     0
 73
     0
 74
     0
 75
     1
 76
     1
 77
     1
 78
     8
170
     0
171
     3
172
     1
173
     0
174
     0
175
     0
176
     7
177
     7
178
     7
270
     2
271
     2
272
     3
273
     2
274
     3
340
11
275
     0
280
     0
281
     0
282
     0
283
     0
284
     8
285
     8
286
     0
287
     3
288
     1
  0
DIMSTYLE
105
332
330
A
100
AcDbSymbolTableRecord
100
AcDbDimStyleTableRecord
  2
ISO$SH
 70
     0
  3

  4
"
  5

  6

  7

 40
1.0
 41
3.5
 42
1.0
 43
10.0
 44
1.0
 45
0.0
 46
0.0
 47
0.1
 48
0.1
140
3.5
141
0.0
142
0.0
143
0.03937
144
2.0
145
0.0
146
0.71
147
1.5
 71
     0
 72
     0
 73
     0
 74
     0
 75
     1
 76
     1
 77
     1
 78
     8
170
     0
171
     3
172
     1
173
     1
174
     0
175
     0
176
     7
177
     7
178
     7
270
     2
271
     2
272
     3
273
     2
274
     3
340
11
275
     0
280
     0
281
     0
282
     0
283
     0
284
     8
285
     8
286
     0
287
     3
288
     1
  0
DIMSTYLE
105
336
330
A
100
AcDbSymbolTableRecord
100
AcDbDimStyleTableRecord
  2
ONSHAPE-ISO-25$2
 70
     0
  3

  4

  5

  6

  7

 40
1.0
 41
2.5
 42
0.625
 43
3.75
 44
1.25
 45
0.0
 46
0.0
 47
0.0
 48
0.0
140
3.5
141
2.5
142
0.0
143
0.03937
144
1.0
145
0.0
146
1.0
147
0.625
 71
     0
 72
     0
 73
     0
 74
     0
 75
     0
 76
     0
 77
     1
 78
     8
170
     0
171
     3
172
     1
173
     0
174
     0
175
     0
176
     7
177
     7
178
     7
179
     1
270
     2
271
     2
272
     2
273
     2
274
     3
340
73
275
     0
280
     0
281
     0
282
     0
283
     0
284
     8
285
     8
286
     0
287
     3
288
     1
  0
DIMSTYLE
105
338
330
A
100
AcDbSymbolTableRecord
100
AcDbDimStyleTableRecord
  2
ONSHAPE-ISO-25$4
 70
     0
  3

  4

  5

  6

  7

 40
1.0
 41
2.5
 42
0.625
 43
3.75
 44
1.25
 45
0.0
 46
0.0
 47
0.0
 48
0.0
140
3.5
141
0.0
142
0.0
143
0.03937
144
1.0
145
0.0
146
1.0
147
0.625
 71
     0
 72
     0
 73
     0
 74
     0
 75
     0
 76
     0
 77
     1
 78
     8
170
     0
171
     3
172
     1
173
     0
174
     0
175
     0
176
     7
177
     7
178
     7
179
     1
270
     2
271
     2
272
     2
273
     2
274
     3
340
73
275
     0
280
     0
281
     0
282
     0
283
     0
284
     8
285
     8
286
     0
287
     3
288
     1
  0
DIMSTYLE
105
339
330
A
100
AcDbSymbolTableRecord
100
AcDbDimStyleTableRecord
  2
ONSHAPE-ISO-25$6
 70
     0
  3

  4

  5

  6

  7

 40
1.0
 41
0.5
 42
0.625
 43
3.75
 44
1.25
 45
0.0
 46
0.0
 47
0.0
 48
0.0
140
3.5
141
2.5
142
0.0
143
0.03937
144
1.0
145
0.0
146
1.0
147
0.625
 71
     0
 72
     0
 73
     0
 74
     0
 75
     0
 76
     0
 77
     1
 78
     8
170
     0
171
     3
172
     1
173
     0
174
     0
175
     0
176
     7
177
     7
178
     7
179
     1
270
     2
271
     2
272
     2
273
     2
274
     3
340
73
275
     0
280
     0
281
     0
282
     0
283
     0
284
     8
285
     8
286
     0
287
     3
288
     1
  0
DIMSTYLE
105
33A
330
A
100
AcDbSymbolTableRecord
100
AcDbDimStyleTableRecord
  2
ONSHAPE-ISO-25$7
 70
     0
  3

  4

  5

  6

  7

 40
1.0
 41
2.5
 42
0.625
 43
3.75
 44
1.25
 45
0.0
 46
0.0
 47
0.0
 48
0.0
140
3.5
141
2.5
142
0.0
143
0.03937
144
1.0
145
0.0
146
1.0
147
0.625
 71
     0
 72
     0
 73
     0
 74
     0
 75
     0
 76
     0
 77
     1
 78
     8
170
     0
171
     3
172
     1
173
     0
174
     0
175
     0
176
     7
177
     7
178
     7
179
     1
270
     2
271
     2
272
     2
273
     2
274
     3
340
73
275
     0
280
     0
281
     0
282
     0
283
     0
284
     8
285
     8
286
     0
287
     3
288
     1
  0
DIMSTYLE
105
33B
330
A
100
AcDbSymbolTableRecord
100
AcDbDimStyleTableRecord
  2
ONSHAPE-STANDARD-GTOLERANC
 70
     0
  3

  4

  5

  6

  7

 40
1.0
 41
2.5
 42
0.625
 43
3.75
 44
1.25
 45
0.0
 46
0.0
 47
0.0
 48
0.0
140
3.5
141
2.5
142
0.0
143
0.03937
144
1.0
145
0.0
146
1.0
147
0.625
 71
     0
 72
     0
 73
     0
 74
     0
 75
     0
 76
     0
 77
     1
 78
     8
170
     0
171
     3
172
     1
173
     0
174
     0
175
     0
176
     7
177
     7
178
     7
179
     1
270
     2
271
     2
272
     2
273
     2
274
     3
340
310
275
     0
280
     0
281
     0
282
     0
283
     0
284
     8
285
     8
286
     0
287
     3
288
     1
  0
DIMSTYLE
105
33D
330
A
100
AcDbSymbolTableRecord
100
AcDbDimStyleTableRecord
  2
ONSHAPE-ORDINATESTYLE
 70
     0
  3

  4

  5

  6

  7

 40
1.0
 41
2.5
 42
0.625
 43
3.75
 44
1.25
 45
0.0
 46
0.0
 47
0.0
 48
0.0
140
3.5
141
2.5
142
0.0
143
0.03937
144
1.0
145
0.0
146
1.0
147
0.625
 71
     0
 72
     0
 73
     0
 74
     0
 75
     0
 76
     0
 77
     1
 78
     8
170
     0
171
     3
172
     1
173
     0
174
     0
175
     0
176
     7
177
     7
178
     7
179
     1
270
     2
271
     2
272
     2
273
     2
274
     3
340
73
275
     0
280
     0
281
     0
282
     0
283
     0
284
     8
285
     8
286
     0
287
     3
288
     1
  0
DIMSTYLE
105
33E
330
A
100
AcDbSymbolTableRecord
100
AcDbDimStyleTableRecord
  2
ONSHAPE-CHAMFERDIMSTYLE
 70
     0
  3

  4

  5

  6

  7

 40
1.0
 41
2.5
 42
0.625
 43
3.75
 44
1.25
 45
0.0
 46
0.0
 47
0.0
 48
0.0
140
3.5
141
2.5
142
0.0
143
0.03937
144
1.0
145
0.0
146
1.0
147
0.625
 71
     0
 72
     0
 73
     0
 74
     0
 75
     0
 76
     0
 77
     1
 78
     8
170
     0
171
     3
172
     1
173
     0
174
     0
175
     0
176
     7
177
     7
178
     7
179
     1
270
     2
271
     2
272
     2
273
     2
274
     3
340
73
275
     0
280
     0
281
     0
282
     0
283
     0
284
     8
285
     8
286
     0
287
     3
288
     1
  0
DIMSTYLE
105
33F
330
A
100
AcDbSymbolTableRecord
100
AcDbDimStyleTableRecord
  2
ONSHAPE-SKETCHDRIVENDIMSTY
 70
     0
  3

  4

  5

  6

  7

 40
1.0
 41
2.5
 42
0.625
 43
3.75
 44
1.25
 45
0.0
 46
0.0
 47
0.0
 48
0.0
140
3.5
141
2.5
142
0.0
143
0.03937
144
1.0
145
0.0
146
1.0
147
0.625
 71
     0
 72
     0
 73
     0
 74
     0
 75
     0
 76
     0
 77
     1
 78
     8
170
     0
171
     3
172
     1
173
     0
174
     0
175
     0
176
   251
177
   251
178
   251
179
     1
270
     2
271
     2
272
     2
273
     2
274
     3
340
73
275
     0
280
     0
281
     0
282
     0
283
     0
284
     8
285
     8
286
     0
287
     3
288
     1
  0
DIMSTYLE
105
340
330
A
100
AcDbSymbolTableRecord
100
AcDbDimStyleTableRecord
  2
ONSHAPE-SKETCHDRIVENDIMST0
 70
     0
  3

  4

  5

  6

  7

 40
1.0
 41
2.5
 42
0.625
 43
3.75
 44
1.25
 45
0.0
 46
0.0
 47
0.0
 48
0.0
140
3.5
141
2.5
142
0.0
143
0.03937
144
1.0
145
0.0
146
1.0
147
0.625
 71
     0
 72
     0
 73
     0
 74
     0
 75
     0
 76
     0
 77
     1
 78
     8
170
     0
171
     3
172
     1
173
     0
174
     0
175
     0
176
   251
177
   251
178
   251
179
     1
270
     2
271
     2
272
     2
273
     2
274
     3
340
73
275
     0
280
     0
281
     0
282
     0
283
     0
284
     8
285
     8
286
     0
287
     3
288
     1
  0
DIMSTYLE
105
341
330
A
100
AcDbSymbolTableRecord
100
AcDbDimStyleTableRecord
  2
ONSHAPE-SKETCHDRIVENDIMST1
 70
     0
  3

  4

  5

  6

  7

 40
1.0
 41
2.5
 42
0.625
 43
3.75
 44
1.25
 45
0.0
 46
0.0
 47
0.0
 48
0.0
140
3.5
141
0.0
142
0.0
143
0.03937
144
1.0
145
0.0
146
1.0
147
0.625
 71
     0
 72
     0
 73
     0
 74
     0
 75
     0
 76
     0
 77
     1
 78
     8
170
     0
171
     3
172
     1
173
     0
174
     0
175
     0
176
   251
177
   251
178
   251
179
     1
270
     2
271
     2
272
     2
273
     2
274
     3
340
73
275
     0
280
     0
281
     0
282
     0
283
     0
284
     8
285
     8
286
     0
287
     3
288
     1
  0
DIMSTYLE
105
342
330
A
100
AcDbSymbolTableRecord
100
AcDbDimStyleTableRecord
  2
ONSHAPE-SKETCHDRIVENDIMST2
 70
     0
  3

  4

  5

  6

  7

 40
1.0
 41
2.5
 42
0.625
 43
3.75
 44
1.25
 45
0.0
 46
0.0
 47
0.0
 48
0.0
140
3.5
141
0.0
142
0.0
143
0.03937
144
1.0
145
0.0
146
1.0
147
0.625
 71
     0
 72
     0
 73
     0
 74
     0
 75
     0
 76
     0
 77
     1
 78
     8
170
     0
171
     3
172
     1
173
     0
174
     0
175
     0
176
   251
177
   251
178
   251
179
     1
270
     2
271
     2
272
     2
273
     2
274
     3
340
73
275
     0
280
     0
281
     0
282
     0
283
     0
284
     8
285
     8
286
     0
287
     3
288
     1
  0
ENDTAB
  0
TABLE
  2
BLOCK_RECORD
  5
1
330
0
100
AcDbSymbolTable
 70
    12
  0
BLOCK_RECORD
  5
1F
330
1
100
AcDbSymbolTableRecord
100
AcDbBlockTableRecord
  2
*MODEL_SPACE
  0
BLOCK_RECORD
  5
1B
330
1
100
AcDbSymbolTableRecord
100
AcDbBlockTableRecord
  2
*PAPER_SPACE
  0
BLOCK_RECORD
  5
1CA
330
1
100
AcDbSymbolTableRecord
100
AcDbBlockTableRecord
  2
*D1
  0
BLOCK_RECORD
  5
1E1
330
1
100
AcDbSymbolTableRecord
100
AcDbBlockTableRecord
  2
*D2
  0
BLOCK_RECORD
  5
1F4
330
1
100
AcDbSymbolTableRecord
100
AcDbBlockTableRecord
  2
*D3
  0
BLOCK_RECORD
  5
205
330
1
100
AcDbSymbolTableRecord
100
AcDbBlockTableRecord
  2
*D4
  0
BLOCK_RECORD
  5
216
330
1
100
AcDbSymbolTableRecord
100
AcDbBlockTableRecord
  2
*D5
  0
BLOCK_RECORD
  5
23E
330
1
100
AcDbSymbolTableRecord
100
AcDbBlockTableRecord
  2
*D6
  0
BLOCK_RECORD
  5
255
330
1
100
AcDbSymbolTableRecord
100
AcDbBlockTableRecord
  2
*D7
  0
BLOCK_RECORD
  5
26A
330
1
100
AcDbSymbolTableRecord
100
AcDbBlockTableRecord
  2
*D8
  0
BLOCK_RECORD
  5
27D
330
1
100
AcDbSymbolTableRecord
100
AcDbBlockTableRecord
  2
*D9
  0
BLOCK_RECORD
  5
293
330
1
100
AcDbSymbolTableRecord
100
AcDbBlockTableRecord
  2
*D10
  0
BLOCK_RECORD
  5
2A7
330
1
100
AcDbSymbolTableRecord
100
AcDbBlockTableRecord
  2
*D11
  0
BLOCK_RECORD
  5
2BD
330
1
100
AcDbSymbolTableRecord
100
AcDbBlockTableRecord
  2
*D12
  0
ENDTAB
  0
ENDSEC
  0
SECTION
  2
BLOCKS
  0
BLOCK
  5
20
330
1F
100
AcDbEntity
  8
0
100
AcDbBlockBegin
  2
*MODEL_SPACE
 70
     0
 10
0.0
 20
0.0
 30
0.0
  3
*MODEL_SPACE
  1

  0
ENDBLK
  5
21
330
1F
100
AcDbEntity
  8
0
100
AcDbBlockEnd
  0
BLOCK
  5
1C
330
1B
100
AcDbEntity
 67
     1
  8
0
100
AcDbBlockBegin
  2
*PAPER_SPACE
 70
     0
 10
0.0
 20
0.0
 30
0.0
  3
*PAPER_SPACE
  1

  0
ENDBLK
  5
1D
330
1B
100
AcDbEntity
 67
     1
  8
0
100
AcDbBlockEnd
  0
BLOCK
  5
1CB
330
1CA
100
AcDbEntity
  8
0
100
AcDbBlockBegin
  2
*D1
 70
     1
 10
0.0
 20
0.0
 30
0.0
  3
*D1
  1

  0
LINE
  5
1CC
330
1CA
100
AcDbEntity
  8
ANNOTATION_TEXT
 62
     7
100
AcDbLine
 10
294.8740143932328
 20
236.7734621856411
 30
0.0
 11
294.8740143932328
 21
243.6228027563548
 31
0.0
1001
INDEX
1070
     0
  0
LINE
  5
1CE
330
1CA
100
AcDbEntity
  8
ANNOTATION_TEXT
 62
     7
100
AcDbLine
 10
349.8740143932328
 20
236.7734621856411
 30
0.0
 11
349.8740143932328
 21
243.6228027563548
 31
0.0
1001
INDEX
1070
     1
  0
LINE
  5
1CF
330
1CA
100
AcDbEntity
  8
ANNOTATION_TEXT
 62
     7
100
AcDbLine
 10
297.3740143932328
 20
242.3728027563548
 30
0.0
 11
347.3740143932328
 21
242.3728027563548
 31
0.0
1001
INDEX
1070
     3
  0
SOLID
  5
1D0
330
1CA
100
AcDbEntity
  8
ANNOTATION_TEXT
 62
     7
100
AcDbTrace
 10
297.3740143932328
 20
242.7894694230215
 30
0.0
 11
297.3740143932328
 21
241.9561360896882
 31
0.0
 12
294.8740143932328
 22
242.3728027563548
 32
0.0
 13
294.8740143932328
 23
242.3728027563548
 33
0.0
  0
SOLID
  5
1D1
330
1CA
100
AcDbEntity
  8
ANNOTATION_TEXT
 62
     7
100
AcDbTrace
 10
347.3740143932328
 20
241.9561360896882
 30
0.0
 11
347.3740143932328
 21
242.7894694230215
 31
0.0
 12
349.8740143932328
 22
242.3728027563548
 32
0.0
 13
349.8740143932328
 23
242.3728027563548
 33
0.0
  0
MTEXT
  5
1D2
330
1CA
100
AcDbEntity
  8
ANNOTATION_TEXT
 62
     7
100
AcDbMText
 10
322.3740143932328
 20
244.7919103857826
 30
0.0
 40
3.5
 41
0.0
 71
     5
 72
     1
  1
550
  7
ONSHAPE-STANDARD-DIMENSION
  0
POINT
  5
1D3
330
1CA
100
AcDbEntity
  8
DEFPOINTS
 62
     0
100
AcDbPoint
 10
294.8740143932328
 20
236.1484621856411
 30
0.0
  0
POINT
  5
1D4
330
1CA
100
AcDbEntity
  8
DEFPOINTS
 62
     0
100
AcDbPoint
 10
349.8740143932328
 20
236.1484621856411
 30
0.0
  0
POINT
  5
1D5
330
1CA
100
AcDbEntity
  8
DEFPOINTS
 62
     0
100
AcDbPoint
 10
349.8740143932328
 20
242.3728027563548
 30
0.0
  0
POINT
  5
1D6
330
1CA
100
AcDbEntity
  8
DEFPOINTS
 62
     0
100
AcDbPoint
 10
349.8740143932328
 20
242.3728027563548
 30
0.0
  0
ENDBLK
  5
1D7
330
1CA
100
AcDbEntity
  8
0
100
AcDbBlockEnd
  0
BLOCK
  5
1E2
330
1E1
100
AcDbEntity
  8
0
100
AcDbBlockBegin
  2
*D2
 70
     1
 10
0.0
 20
0.0
 30
0.0
  3
*D2
  1

  0
LINE
  5
1E3
330
1E1
100
AcDbEntity
  8
ANNOTATION_TEXT
 62
     7
100
AcDbLine
 10
350.4990143932328
 20
236.1484621856411
 30
0.0
 11
365.7794401066247
 21
236.1484621856411
 31
0.0
1001
INDEX
1070
     0
  0
LINE
  5
1E4
330
1E1
100
AcDbEntity
  8
ANNOTATION_TEXT
 62
     7
100
AcDbLine
 10
350.4990143932328
 20
181.1484621856411
 30
0.0
 11
365.7794401066247
 21
181.1484621856411
 31
0.0
1001
INDEX
1070
     1
  0
LINE
  5
1E5
330
1E1
100
AcDbEntity
  8
ANNOTATION_TEXT
 62
     7
100
AcDbLine
 10
364.5294401066247
 20
233.6484621856411
 30
0.0
 11
364.5294401066247
 21
183.6484621856411
 31
0.0
1001
INDEX
1070
     3
  0
SOLID
  5
1E6
330
1E1
100
AcDbEntity
  8
ANNOTATION_TEXT
 62
     7
100
AcDbTrace
 10
364.9461067732914
 20
233.6484621856411
 30
0.0
 11
364.1127734399581
 21
233.6484621856411
 31
0.0
 12
364.5294401066247
 22
236.1484621856411
 32
0.0
 13
364.5294401066247
 23
236.1484621856411
 33
0.0
  0
SOLID
  5
1E7
330
1E1
100
AcDbEntity
  8
ANNOTATION_TEXT
 62
     7
100
AcDbTrace
 10
364.1127734399581
 20
183.6484621856411
 30
0.0
 11
364.9461067732914
 21
183.6484621856411
 31
0.0
 12
364.5294401066247
 22
181.1484621856411
 32
0.0
 13
364.5294401066247
 23
181.1484621856411
 33
0.0
  0
MTEXT
  5
1E8
330
1E1
100
AcDbEntity
  8
ANNOTATION_TEXT
 62
     7
100
AcDbMText
 10
362.1103324771969
 20
208.6484621856411
 30
0.0
 40
3.5
 41
0.0
 71
     5
 72
     1
  1
550
  7
ONSHAPE-STANDARD-DIMENSION
 11
0.0
 21
1.0
 31
0.0
  0
POINT
  5
1E9
330
1E1
100
AcDbEntity
  8
DEFPOINTS
 62
     0
100
AcDbPoint
 10
349.8740143932328
 20
236.1484621856411
 30
0.0
  0
POINT
  5
1EA
330
1E1
100
AcDbEntity
  8
DEFPOINTS
 62
     0
100
AcDbPoint
 10
349.8740143932328
 20
181.1484621856411
 30
0.0
  0
POINT
  5
1EB
330
1E1
100
AcDbEntity
  8
DEFPOINTS
 62
     0
100
AcDbPoint
 10
364.5294401066247
 20
181.1484621856411
 30
0.0
  0
POINT
  5
1EC
330
1E1
100
AcDbEntity
  8
DEFPOINTS
 62
     0
100
AcDbPoint
 10
364.5294401066247
 20
181.1484621856411
 30
0.0
  0
ENDBLK
  5
1ED
330
1E1
100
AcDbEntity
  8
0
100
AcDbBlockEnd
  0
BLOCK
  5
1F5
330
1F4
100
AcDbEntity
  8
0
100
AcDbBlockBegin
  2
*D3
 70
     1
 10
0.0
 20
0.0
 30
0.0
  3
*D3
  1

  0
LINE
  5
1F6
330
1F4
100
AcDbEntity
  8
ANNOTATION_TEXT
 62
     7
100
AcDbLine
 10
335.1286612257675
 20
189.3889454685137
 30
0.0
 11
358.3591106150751
 21
154.3109668906592
 31
0.0
1001
INDEX
1070
     3
  0
LINE
  5
1F7
330
1F4
100
AcDbEntity
  8
ANNOTATION_TEXT
 62
     7
100
AcDbLine
 10
309.619367560698
 20
227.9079789027685
 30
0.0
 11
308.2389945268739
 21
229.9923421838429
 31
0.0
1001
INDEX
1070
     3
  0
MTEXT
  5
1F8
330
1F4
100
AcDbEntity
  8
ANNOTATION_TEXT
 62
     7
100
AcDbMText
 10
356.9036605212104
 20
161.075628810131
 30
0.0
 40
3.5
 41
0.0
 71
     5
 72
     1
  1
%%c412
  7
ONSHAPE-STANDARD-DIMENSION
 11
0.5521492135296429
 21
-0.8337453124297596
 31
0.0
  0
LINE
  5
1F9
330
1F4
100
AcDbEntity
  8
ANNOTATION_TEXT
 62
     7
100
AcDbLine
 10
310.9997405945221
 20
225.8236156216942
 30
0.0
 11
333.7482881919434
 21
191.4733087495881
 31
0.0
1001
INDEX
1070
     3
  0
SOLID
  5
1FA
330
1F4
100
AcDbEntity
  8
ANNOTATION_TEXT
 62
     7
100
AcDbTrace
 10
309.2719736805189
 20
227.6779167304645
 30
0.0
 11
309.9667614408771
 21
228.1380410750726
 31
0.0
 12
310.9997405945221
 22
225.8236156216942
 32
0.0
 13
310.9997405945221
 23
225.8236156216942
 33
0.0
  0
SOLID
  5
1FB
330
1F4
100
AcDbEntity
  8
ANNOTATION_TEXT
 62
     7
100
AcDbTrace
 10
335.4760551059466
 20
189.6190076408177
 30
0.0
 11
334.7812673455884
 21
189.1588832962096
 31
0.0
 12
333.7482881919434
 22
191.4733087495881
 32
0.0
 13
333.7482881919434
 23
191.4733087495881
 33
0.0
  0
POINT
  5
1FC
330
1F4
100
AcDbEntity
  8
DEFPOINTS
 62
     0
100
AcDbPoint
 10
333.7482881919434
 20
191.4733087495881
 30
0.0
  0
POINT
  5
1FD
330
1F4
100
AcDbEntity
  8
DEFPOINTS
 62
     0
100
AcDbPoint
 10
310.9997405945221
 20
225.8236156216942
 30
0.0
  0
ENDBLK
  5
1FE
330
1F4
100
AcDbEntity
  8
0
100
AcDbBlockEnd
  0
BLOCK
  5
206
330
205
100
AcDbEntity
  8
0
100
AcDbBlockBegin
  2
*D4
 70
     1
 10
0.0
 20
0.0
 30
0.0
  3
*D4
  1

  0
LINE
  5
207
330
205
100
AcDbEntity
  8
ANNOTATION_TEXT
 62
     7
100
AcDbLine
 10
326.7004185823313
 20
186.5683302387403
 30
0.0
 11
332.2018179182888
 21
158.4915214337256
 31
0.0
1001
INDEX
1070
     3
  0
LINE
  5
208
330
205
100
AcDbEntity
  8
ANNOTATION_TEXT
 62
     7
100
AcDbLine
 10
318.0476102041342
 20
230.7285941325419
 30
0.0
 11
317.5668986275678
 21
233.181942126642
 31
0.0
1001
INDEX
1070
     3
  0
MTEXT
  5
209
330
205
100
AcDbEntity
  8
ANNOTATION_TEXT
 62
     7
100
AcDbMText
 10
333.4360038814957
 20
165.3067983399067
 30
0.0
 40
3.5
 41
0.0
 71
     5
 72
     1
  1
%%c400
  7
ONSHAPE-STANDARD-DIMENSION
 11
0.1922846306266024
 21
-0.9813391976400369
 31
0.0
  0
LINE
  5
20A
330
205
100
AcDbEntity
  8
ANNOTATION_TEXT
 62
     7
100
AcDbLine
 10
318.5283217807007
 20
228.2752461384418
 30
0.0
 11
322.3619966038186
 21
208.7097958854936
 31
0.0
1001
INDEX
1070
     3
  0
LINE
  5
20B
330
205
100
AcDbEntity
  8
ANNOTATION_TEXT
 62
     7
100
AcDbLine
 10
322.3860321826469
 20
208.5871284857886
 30
0.0
 11
326.2197070057648
 21
189.0216782328404
 31
0.0
1001
INDEX
1070
     3
  0
SOLID
  5
20C
330
205
100
AcDbEntity
  8
ANNOTATION_TEXT
 62
     7
100
AcDbTrace
 10
317.6387188717842
 20
230.6484755364475
 30
0.0
 11
318.4565015364843
 21
230.8087127286364
 31
0.0
 12
318.5283217807007
 22
228.2752461384418
 32
0.0
 13
318.5283217807007
 23
228.2752461384418
 33
0.0
  0
SOLID
  5
20D
330
205
100
AcDbEntity
  8
ANNOTATION_TEXT
 62
     7
100
AcDbTrace
 10
327.1093099146813
 20
186.6484488348347
 30
0.0
 11
326.2915272499812
 21
186.4882116426459
 31
0.0
 12
326.2197070057648
 22
189.0216782328404
 32
0.0
 13
326.2197070057648
 23
189.0216782328404
 33
0.0
  0
POINT
  5
20E
330
205
100
AcDbEntity
  8
DEFPOINTS
 62
     0
100
AcDbPoint
 10
326.2197070057648
 20
189.0216782328404
 30
0.0
  0
POINT
  5
20F
330
205
100
AcDbEntity
  8
DEFPOINTS
 62
     0
100
AcDbPoint
 10
318.5283217807007
 20
228.2752461384418
 30
0.0
  0
ENDBLK
  5
210
330
205
100
AcDbEntity
  8
0
100
AcDbBlockEnd
  0
BLOCK
  5
217
330
216
100
AcDbEntity
  8
0
100
AcDbBlockBegin
  2
*D5
 70
     1
 10
0.0
 20
0.0
 30
0.0
  3
*D5
  1

  0
LINE
  5
218
330
216
100
AcDbEntity
  8
ANNOTATION_TEXT
 62
     7
100
AcDbLine
 10
319.9962925616309
 20
201.0099781153871
 30
0.0
 11
307.8346659703208
 21
161.9404832100407
 31
0.0
1001
INDEX
1070
     3
  0
LINE
  5
219
330
216
100
AcDbEntity
  8
ANNOTATION_TEXT
 62
     7
100
AcDbLine
 10
324.7517362248346
 20
216.2869462558951
 30
0.0
 11
325.4947742972101
 21
218.6739725278495
 31
0.0
1001
INDEX
1070
     3
  0
MTEXT
  5
21A
330
216
100
AcDbEntity
  8
ANNOTATION_TEXT
 62
     7
100
AcDbMText
 10
307.3442600530651
 20
168.8492252327263
 30
0.0
 40
3.5
 41
0.0
 71
     5
 72
     1
  1
%%c110
  7
ONSHAPE-STANDARD-DIMENSION
 11
0.2972152289502309
 21
0.9548105087817487
 31
0.0
  0
LINE
  5
21B
330
216
100
AcDbEntity
  8
ANNOTATION_TEXT
 62
     7
100
AcDbLine
 10
324.008698152459
 20
213.8999199839407
 30
0.0
 11
322.3925903450422
 21
208.70813784244
 31
0.0
1001
INDEX
1070
     3
  0
LINE
  5
21C
330
216
100
AcDbEntity
  8
ANNOTATION_TEXT
 62
     7
100
AcDbLine
 10
322.3554384414234
 20
208.5887865288422
 30
0.0
 11
320.7393306340065
 21
203.3970043873415
 31
0.0
1001
INDEX
1070
     3
  0
SOLID
  5
21D
330
216
100
AcDbEntity
  8
ANNOTATION_TEXT
 62
     7
100
AcDbTrace
 10
324.3538985128422
 20
216.4107859346244
 30
0.0
 11
325.149573936827
 21
216.1631065771658
 31
0.0
 12
324.008698152459
 22
213.8999199839407
 32
0.0
 13
324.008698152459
 23
213.8999199839407
 33
0.0
  0
SOLID
  5
21E
330
216
100
AcDbEntity
  8
ANNOTATION_TEXT
 62
     7
100
AcDbTrace
 10
320.3941302736233
 20
200.8861384366578
 30
0.0
 11
319.5984548496385
 21
201.1338177941164
 31
0.0
 12
320.7393306340065
 22
203.3970043873415
 32
0.0
 13
320.7393306340065
 23
203.3970043873415
 33
0.0
  0
POINT
  5
21F
330
216
100
AcDbEntity
  8
DEFPOINTS
 62
     0
100
AcDbPoint
 10
320.7393306340065
 20
203.3970043873415
 30
0.0
  0
POINT
  5
220
330
216
100
AcDbEntity
  8
DEFPOINTS
 62
     0
100
AcDbPoint
 10
324.008698152459
 20
213.8999199839407
 30
0.0
  0
ENDBLK
  5
221
330
216
100
AcDbEntity
  8
0
100
AcDbBlockEnd
  0
BLOCK
  5
23F
330
23E
100
AcDbEntity
  8
0
100
AcDbBlockBegin
  2
*D6
 70
     1
 10
0.0
 20
0.0
 30
0.0
  3
*D6
  1

  0
LINE
  5
240
330
23E
100
AcDbEntity
  8
ANNOTATION_TEXT
 62
     7
100
AcDbLine
 10
212.5929221762297
 20
256.3838442301677
 30
0.0
 11
265.3599286565928
 21
256.3838442301677
 31
0.0
1001
INDEX
1070
     0
  0
LINE
  5
242
330
23E
100
AcDbEntity
  8
ANNOTATION_TEXT
 62
     7
100
AcDbLine
 10
219.4929221762297
 20
106.0838442301677
 30
0.0
 11
265.3599286565928
 21
106.0838442301677
 31
0.0
1001
INDEX
1070
     1
  0
LINE
  5
243
330
23E
100
AcDbEntity
  8
ANNOTATION_TEXT
 62
     7
100
AcDbLine
 10
264.1099286565928
 20
253.8838442301677
 30
0.0
 11
264.1099286565928
 21
108.5838442301677
 31
0.0
1001
INDEX
1070
     3
  0
SOLID
  5
244
330
23E
100
AcDbEntity
  8
ANNOTATION_TEXT
 62
     7
100
AcDbTrace
 10
264.5265953232595
 20
253.8838442301677
 30
0.0
 11
263.6932619899261
 21
253.8838442301677
 31
0.0
 12
264.1099286565928
 22
256.3838442301677
 32
0.0
 13
264.1099286565928
 23
256.3838442301677
 33
0.0
  0
SOLID
  5
245
330
23E
100
AcDbEntity
  8
ANNOTATION_TEXT
 62
     7
100
AcDbTrace
 10
263.6932619899261
 20
108.5838442301677
 30
0.0
 11
264.5265953232595
 21
108.5838442301677
 31
0.0
 12
264.1099286565928
 22
106.0838442301677
 32
0.0
 13
264.1099286565928
 23
106.0838442301677
 33
0.0
  0
MTEXT
  5
246
330
23E
100
AcDbEntity
  8
ANNOTATION_TEXT
 62
     7
100
AcDbMText
 10
261.690821027165
 20
165.2292849667102
 30
0.0
 40
3.5
 41
0.0
 71
     5
 72
     1
  1
1503
  7
ONSHAPE-STANDARD-DIMENSION
 11
0.0
 21
1.0
 31
0.0
  0
POINT
  5
247
330
23E
100
AcDbEntity
  8
DEFPOINTS
 62
     0
100
AcDbPoint
 10
211.9679221762297
 20
256.3838442301677
 30
0.0
  0
POINT
  5
248
330
23E
100
AcDbEntity
  8
DEFPOINTS
 62
     0
100
AcDbPoint
 10
218.8679221762297
 20
106.0838442301677
 30
0.0
  0
POINT
  5
249
330
23E
100
AcDbEntity
  8
DEFPOINTS
 62
     0
100
AcDbPoint
 10
264.1099286565928
 20
106.0838442301677
 30
0.0
  0
POINT
  5
24A
330
23E
100
AcDbEntity
  8
DEFPOINTS
 62
     0
100
AcDbPoint
 10
264.1099286565928
 20
106.0838442301677
 30
0.0
  0
ENDBLK
  5
24B
330
23E
100
AcDbEntity
  8
0
100
AcDbBlockEnd
  0
BLOCK
  5
256
330
255
100
AcDbEntity
  8
0
100
AcDbBlockBegin
  2
*D7
 70
     1
 10
0.0
 20
0.0
 30
0.0
  3
*D7
  1

  0
LINE
  5
257
330
255
100
AcDbEntity
  8
ANNOTATION_TEXT
 62
     7
100
AcDbLine
 10
219.4929221762297
 20
106.0838442301677
 30
0.0
 11
256.0888226839766
 21
106.0838442301677
 31
0.0
1001
INDEX
1070
     0
  0
LINE
  5
258
330
255
100
AcDbEntity
  8
ANNOTATION_TEXT
 62
     7
100
AcDbLine
 10
219.4929221762297
 20
107.0838442301677
 30
0.0
 11
256.0888226839766
 21
107.0838442301677
 31
0.0
1001
INDEX
1070
     1
  0
LINE
  5
259
330
255
100
AcDbEntity
  8
ANNOTATION_TEXT
 62
     7
100
AcDbLine
 10
254.8388226839766
 20
107.0838442301677
 30
0.0
 11
254.8388226839766
 21
120.3183996498942
 31
0.0
  0
LINE
  5
25A
330
255
100
AcDbEntity
  8
ANNOTATION_TEXT
 62
     7
100
AcDbLine
 10
254.8388226839766
 20
106.1463442301677
 30
0.0
 11
254.8388226839766
 21
107.0838442301677
 31
0.0
1001
INDEX
1070
     3
  0
LINE
  5
25B
330
255
100
AcDbEntity
  8
ANNOTATION_TEXT
 62
     7
100
AcDbLine
 10
254.8388226839766
 20
103.5838442301677
 30
0.0
 11
254.8388226839766
 21
101.0838442301677
 31
0.0
1001
INDEX
1070
     3
  0
LINE
  5
25C
330
255
100
AcDbEntity
  8
ANNOTATION_TEXT
 62
     7
100
AcDbLine
 10
254.8388226839766
 20
109.5838442301677
 30
0.0
 11
254.8388226839766
 21
112.0838442301677
 31
0.0
1001
INDEX
1070
     3
  0
SOLID
  5
25D
330
255
100
AcDbEntity
  8
ANNOTATION_TEXT
 62
     7
100
AcDbTrace
 10
255.2554893506432
 20
103.5838442301677
 30
0.0
 11
254.4221560173099
 21
103.5838442301677
 31
0.0
 12
254.8388226839766
 22
106.0838442301677
 32
0.0
 13
254.8388226839766
 23
106.0838442301677
 33
0.0
  0
SOLID
  5
25E
330
255
100
AcDbEntity
  8
ANNOTATION_TEXT
 62
     7
100
AcDbTrace
 10
254.4221560173099
 20
109.5838442301677
 30
0.0
 11
255.2554893506432
 21
109.5838442301677
 31
0.0
 12
254.8388226839766
 22
107.0838442301677
 32
0.0
 13
254.8388226839766
 23
107.0838442301677
 33
0.0
  0
MTEXT
  5
25F
330
255
100
AcDbEntity
  8
ANNOTATION_TEXT
 62
     7
100
AcDbMText
 10
252.4197150545488
 20
117.2376775790496
 30
0.0
 40
3.5
 41
0.0
 71
     5
 72
     1
  1
10
  7
ONSHAPE-STANDARD-DIMENSION
 11
0.0
 21
1.0
 31
0.0
  0
POINT
  5
260
330
255
100
AcDbEntity
  8
DEFPOINTS
 62
     0
100
AcDbPoint
 10
218.8679221762297
 20
106.0838442301677
 30
0.0
  0
POINT
  5
261
330
255
100
AcDbEntity
  8
DEFPOINTS
 62
     0
100
AcDbPoint
 10
218.8679221762297
 20
107.0838442301677
 30
0.0
  0
POINT
  5
262
330
255
100
AcDbEntity
  8
DEFPOINTS
 62
     0
100
AcDbPoint
 10
254.8388226839766
 20
107.0838442301677
 30
0.0
  0
POINT
  5
2CA
330
255
100
AcDbEntity
  8
DEFPOINTS
 62
     0
100
AcDbPoint
 10
254.8388226839766
 20
107.0838442301677
 30
0.0
  0
ENDBLK
  5
263
330
255
100
AcDbEntity
  8
0
100
AcDbBlockEnd
  0
BLOCK
  5
26B
330
26A
100
AcDbEntity
  8
0
100
AcDbBlockBegin
  2
*D8
 70
     1
 10
0.0
 20
0.0
 30
0.0
  3
*D8
  1

  0
LINE
  5
26C
330
26A
100
AcDbEntity
  8
ANNOTATION_TEXT
 62
     7
100
AcDbLine
 10
219.4929221762297
 20
196.3838442301677
 30
0.0
 11
243.2728820747718
 21
196.3838442301677
 31
0.0
1001
INDEX
1070
     0
  0
LINE
  5
26D
330
26A
100
AcDbEntity
  8
ANNOTATION_TEXT
 62
     7
100
AcDbLine
 10
219.4929221762297
 20
106.0838442301677
 30
0.0
 11
243.2728820747718
 21
106.0838442301677
 31
0.0
1001
INDEX
1070
     1
  0
LINE
  5
26E
330
26A
100
AcDbEntity
  8
ANNOTATION_TEXT
 62
     7
100
AcDbLine
 10
242.0228820747718
 20
193.8838442301677
 30
0.0
 11
242.0228820747718
 21
108.5838442301677
 31
0.0
1001
INDEX
1070
     3
  0
SOLID
  5
26F
330
26A
100
AcDbEntity
  8
ANNOTATION_TEXT
 62
     7
100
AcDbTrace
 10
242.4395487414384
 20
193.8838442301677
 30
0.0
 11
241.6062154081051
 21
193.8838442301677
 31
0.0
 12
242.0228820747718
 22
196.3838442301677
 32
0.0
 13
242.0228820747718
 23
196.3838442301677
 33
0.0
  0
SOLID
  5
270
330
26A
100
AcDbEntity
  8
ANNOTATION_TEXT
 62
     7
100
AcDbTrace
 10
241.6062154081051
 20
108.5838442301677
 30
0.0
 11
242.4395487414384
 21
108.5838442301677
 31
0.0
 12
242.0228820747718
 22
106.0838442301677
 32
0.0
 13
242.0228820747718
 23
106.0838442301677
 33
0.0
  0
MTEXT
  5
271
330
26A
100
AcDbEntity
  8
ANNOTATION_TEXT
 62
     7
100
AcDbMText
 10
239.603774445344
 20
136.3252486991419
 30
0.0
 40
3.5
 41
0.0
 71
     5
 72
     1
  1
903
  7
ONSHAPE-STANDARD-DIMENSION
 11
0.0
 21
1.0
 31
0.0
  0
POINT
  5
272
330
26A
100
AcDbEntity
  8
DEFPOINTS
 62
     0
100
AcDbPoint
 10
218.8679221762297
 20
196.3838442301677
 30
0.0
  0
POINT
  5
273
330
26A
100
AcDbEntity
  8
DEFPOINTS
 62
     0
100
AcDbPoint
 10
218.8679221762297
 20
106.0838442301677
 30
0.0
  0
POINT
  5
274
330
26A
100
AcDbEntity
  8
DEFPOINTS
 62
     0
100
AcDbPoint
 10
242.0228820747718
 20
106.0838442301677
 30
0.0
  0
POINT
  5
275
330
26A
100
AcDbEntity
  8
DEFPOINTS
 62
     0
100
AcDbPoint
 10
242.0228820747718
 20
106.0838442301677
 30
0.0
  0
ENDBLK
  5
276
330
26A
100
AcDbEntity
  8
0
100
AcDbBlockEnd
  0
BLOCK
  5
27E
330
27D
100
AcDbEntity
  8
0
100
AcDbBlockBegin
  2
*D9
 70
     1
 10
0.0
 20
0.0
 30
0.0
  3
*D9
  1

  0
LINE
  5
27F
330
27D
100
AcDbEntity
  8
ANNOTATION_TEXT
 62
     7
100
AcDbLine
 10
219.4929221762297
 20
194.3838442301677
 30
0.0
 11
238.3646495010338
 21
194.3838442301677
 31
0.0
1001
INDEX
1070
     0
  0
LINE
  5
280
330
27D
100
AcDbEntity
  8
ANNOTATION_TEXT
 62
     7
100
AcDbLine
 10
219.4929221762297
 20
196.3838442301677
 30
0.0
 11
238.3646495010338
 21
196.3838442301677
 31
0.0
1001
INDEX
1070
     1
  0
LINE
  5
281
330
27D
100
AcDbEntity
  8
ANNOTATION_TEXT
 62
     7
100
AcDbLine
 10
237.1146495010338
 20
194.3838442301677
 30
0.0
 11
237.1146495010338
 21
183.0221276089143
 31
0.0
  0
LINE
  5
282
330
27D
100
AcDbEntity
  8
ANNOTATION_TEXT
 62
     7
100
AcDbLine
 10
237.1146495010338
 20
194.3838442301677
 30
0.0
 11
237.1146495010338
 21
196.3213442301677
 31
0.0
1001
INDEX
1070
     3
  0
LINE
  5
283
330
27D
100
AcDbEntity
  8
ANNOTATION_TEXT
 62
     7
100
AcDbLine
 10
237.1146495010338
 20
191.8838442301677
 30
0.0
 11
237.1146495010338
 21
189.3838442301677
 31
0.0
1001
INDEX
1070
     3
  0
LINE
  5
284
330
27D
100
AcDbEntity
  8
ANNOTATION_TEXT
 62
     7
100
AcDbLine
 10
237.1146495010338
 20
198.8838442301677
 30
0.0
 11
237.1146495010338
 21
201.3838442301677
 31
0.0
1001
INDEX
1070
     3
  0
SOLID
  5
285
330
27D
100
AcDbEntity
  8
ANNOTATION_TEXT
 62
     7
100
AcDbTrace
 10
237.5313161677004
 20
191.8838442301677
 30
0.0
 11
236.6979828343671
 21
191.8838442301677
 31
0.0
 12
237.1146495010338
 22
194.3838442301677
 32
0.0
 13
237.1146495010338
 23
194.3838442301677
 33
0.0
  0
SOLID
  5
286
330
27D
100
AcDbEntity
  8
ANNOTATION_TEXT
 62
     7
100
AcDbTrace
 10
236.6979828343671
 20
198.8838442301677
 30
0.0
 11
237.5313161677004
 21
198.8838442301677
 31
0.0
 12
237.1146495010338
 22
196.3838442301677
 32
0.0
 13
237.1146495010338
 23
196.3838442301677
 33
0.0
  0
MTEXT
  5
287
330
27D
100
AcDbEntity
  8
ANNOTATION_TEXT
 62
     7
100
AcDbMText
 10
234.695541871606
 20
186.202985919541
 30
0.0
 40
3.5
 41
0.0
 71
     5
 72
     1
  1
20
  7
ONSHAPE-STANDARD-DIMENSION
 11
0.0
 21
1.0
 31
0.0
  0
POINT
  5
288
330
27D
100
AcDbEntity
  8
DEFPOINTS
 62
     0
100
AcDbPoint
 10
218.8679221762297
 20
194.3838442301677
 30
0.0
  0
POINT
  5
289
330
27D
100
AcDbEntity
  8
DEFPOINTS
 62
     0
100
AcDbPoint
 10
218.8679221762297
 20
196.3838442301677
 30
0.0
  0
POINT
  5
28A
330
27D
100
AcDbEntity
  8
DEFPOINTS
 62
     0
100
AcDbPoint
 10
237.1146495010338
 20
196.3838442301677
 30
0.0
  0
POINT
  5
28B
330
27D
100
AcDbEntity
  8
DEFPOINTS
 62
     0
100
AcDbPoint
 10
237.1146495010338
 20
196.3838442301677
 30
0.0
  0
ENDBLK
  5
28C
330
27D
100
AcDbEntity
  8
0
100
AcDbBlockEnd
  0
BLOCK
  5
294
330
293
100
AcDbEntity
  8
0
100
AcDbBlockBegin
  2
*D10
 70
     1
 10
0.0
 20
0.0
 30
0.0
  3
*D10
  1

  0
LINE
  5
295
330
293
100
AcDbEntity
  8
ANNOTATION_TEXT
 62
     7
100
AcDbLine
 10
173.1179221762297
 20
160.4006932181123
 30
0.0
 11
173.1179221762297
 21
161.0256932181123
 31
0.0
1001
INDEX
1070
     0
  0
LINE
  5
296
330
293
100
AcDbEntity
  8
ANNOTATION_TEXT
 62
     7
100
AcDbLine
 10
165.6179221762297
 20
160.4006932181123
 30
0.0
 11
165.6179221762297
 21
161.0256932181123
 31
0.0
1001
INDEX
1070
     1
  0
LINE
  5
297
330
293
100
AcDbEntity
  8
ANNOTATION_TEXT
 62
     7
100
AcDbLine
 10
165.6179221762297
 20
159.7756932181123
 30
0.0
 11
144.5487389932598
 21
159.7756932181123
 31
0.0
  0
LINE
  5
298
330
293
100
AcDbEntity
  8
ANNOTATION_TEXT
 62
     7
100
AcDbLine
 10
170.6179221762297
 20
159.7756932181123
 30
0.0
 11
168.1179221762297
 21
159.7756932181123
 31
0.0
1001
INDEX
1070
     3
  0
SOLID
  5
299
330
293
100
AcDbEntity
  8
ANNOTATION_TEXT
 62
     7
100
AcDbTrace
 10
170.6179221762297
 20
159.3590265514457
 30
0.0
 11
170.6179221762297
 21
160.192359884779
 31
0.0
 12
173.1179221762297
 22
159.7756932181123
 32
0.0
 13
173.1179221762297
 23
159.7756932181123
 33
0.0
  0
SOLID
  5
29A
330
293
100
AcDbEntity
  8
ANNOTATION_TEXT
 62
     7
100
AcDbTrace
 10
168.1179221762297
 20
160.192359884779
 30
0.0
 11
168.1179221762297
 21
159.3590265514457
 31
0.0
 12
165.6179221762297
 22
159.7756932181123
 32
0.0
 13
165.6179221762297
 23
159.7756932181123
 33
0.0
  0
MTEXT
  5
29B
330
293
100
AcDbEntity
  8
ANNOTATION_TEXT
 62
     7
100
AcDbMText
 10
149.5845019360391
 20
162.2973212835074
 30
0.0
 40
3.5
 41
0.0
 71
     5
 72
     1
  1
%%c75
  7
ONSHAPE-STANDARD-DIMENSION
  0
POINT
  5
29C
330
293
100
AcDbEntity
  8
DEFPOINTS
 62
     0
100
AcDbPoint
 10
173.1179221762297
 20
159.7756932181123
 30
0.0
  0
POINT
  5
29D
330
293
100
AcDbEntity
  8
DEFPOINTS
 62
     0
100
AcDbPoint
 10
165.6179221762297
 20
159.7756932181123
 30
0.0
  0
POINT
  5
29E
330
293
100
AcDbEntity
  8
DEFPOINTS
 62
     0
100
AcDbPoint
 10
165.6179221762297
 20
159.7756932181123
 30
0.0
  0
POINT
  5
29F
330
293
100
AcDbEntity
  8
DEFPOINTS
 62
     0
100
AcDbPoint
 10
165.6179221762297
 20
159.7756932181123
 30
0.0
  0
ENDBLK
  5
2A0
330
293
100
AcDbEntity
  8
0
100
AcDbBlockEnd
  0
BLOCK
  5
2A8
330
2A7
100
AcDbEntity
  8
0
100
AcDbBlockBegin
  2
*D11
 70
     1
 10
0.0
 20
0.0
 30
0.0
  3
*D11
  1

  0
LINE
  5
2A9
330
2A7
100
AcDbEntity
  8
ANNOTATION_TEXT
 62
     7
100
AcDbLine
 10
193.678954274541
 20
156.0838442301677
 30
0.0
 11
193.053954274541
 21
156.0838442301677
 31
0.0
1001
INDEX
1070
     0
  0
LINE
  5
2AA
330
2A7
100
AcDbEntity
  8
ANNOTATION_TEXT
 62
     7
100
AcDbLine
 10
193.678954274541
 20
152.0838442301677
 30
0.0
 11
193.053954274541
 21
152.0838442301677
 31
0.0
1001
INDEX
1070
     1
  0
LINE
  5
2AB
330
2A7
100
AcDbEntity
  8
ANNOTATION_TEXT
 62
     7
100
AcDbLine
 10
194.303954274541
 20
152.0838442301677
 30
0.0
 11
194.303954274541
 21
136.9741712056446
 31
0.0
  0
LINE
  5
2AC
330
2A7
100
AcDbEntity
  8
ANNOTATION_TEXT
 62
     7
100
AcDbLine
 10
194.303954274541
 20
156.0838442301677
 30
0.0
 11
194.303954274541
 21
152.0838442301677
 31
0.0
1001
INDEX
1070
     3
  0
LINE
  5
2AD
330
2A7
100
AcDbEntity
  8
ANNOTATION_TEXT
 62
     7
100
AcDbLine
 10
194.303954274541
 20
158.5838442301677
 30
0.0
 11
194.303954274541
 21
161.0838442301677
 31
0.0
1001
INDEX
1070
     3
  0
LINE
  5
2AE
330
2A7
100
AcDbEntity
  8
ANNOTATION_TEXT
 62
     7
100
AcDbLine
 10
194.303954274541
 20
149.5838442301677
 30
0.0
 11
194.303954274541
 21
147.0838442301677
 31
0.0
1001
INDEX
1070
     3
  0
SOLID
  5
2AF
330
2A7
100
AcDbEntity
  8
ANNOTATION_TEXT
 62
     7
100
AcDbTrace
 10
193.8872876078744
 20
158.5838442301677
 30
0.0
 11
194.7206209412077
 21
158.5838442301677
 31
0.0
 12
194.303954274541
 22
156.0838442301677
 32
0.0
 13
194.303954274541
 23
156.0838442301677
 33
0.0
  0
SOLID
  5
2B0
330
2A7
100
AcDbEntity
  8
ANNOTATION_TEXT
 62
     7
100
AcDbTrace
 10
194.7206209412077
 20
149.5838442301677
 30
0.0
 11
193.8872876078744
 21
149.5838442301677
 31
0.0
 12
194.303954274541
 22
152.0838442301677
 32
0.0
 13
194.303954274541
 23
152.0838442301677
 33
0.0
  0
MTEXT
  5
2B1
330
2A7
100
AcDbEntity
  8
ANNOTATION_TEXT
 62
     7
100
AcDbMText
 10
191.7823262091459
 20
142.0290077179061
 30
0.0
 40
3.5
 41
0.0
 71
     5
 72
     1
  1
%%c40
  7
ONSHAPE-STANDARD-DIMENSION
 11
0.0
 21
1.0
 31
0.0
  0
POINT
  5
2B2
330
2A7
100
AcDbEntity
  8
DEFPOINTS
 62
     0
100
AcDbPoint
 10
194.303954274541
 20
156.0838442301677
 30
0.0
  0
POINT
  5
2B3
330
2A7
100
AcDbEntity
  8
DEFPOINTS
 62
     0
100
AcDbPoint
 10
194.303954274541
 20
152.0838442301677
 30
0.0
  0
POINT
  5
2B4
330
2A7
100
AcDbEntity
  8
DEFPOINTS
 62
     0
100
AcDbPoint
 10
194.303954274541
 20
152.0838442301677
 30
0.0
  0
POINT
  5
2B5
330
2A7
100
AcDbEntity
  8
DEFPOINTS
 62
     0
100
AcDbPoint
 10
194.303954274541
 20
152.0838442301677
 30
0.0
  0
ENDBLK
  5
2B6
330
2A7
100
AcDbEntity
  8
0
100
AcDbBlockEnd
  0
BLOCK
  5
2BE
330
2BD
100
AcDbEntity
  8
0
100
AcDbBlockBegin
  2
*D12
 70
     1
 10
0.0
 20
0.0
 30
0.0
  3
*D12
  1

  0
LINE
  5
2BF
330
2BD
100
AcDbEntity
  8
ANNOTATION_TEXT
 62
     7
100
AcDbLine
 10
212.5929221762297
 20
256.3838442301677
 30
0.0
 11
261.2697348451445
 21
256.3838442301677
 31
0.0
1001
INDEX
1070
     0
  0
LINE
  5
2C0
330
2BD
100
AcDbEntity
  8
ANNOTATION_TEXT
 62
     7
100
AcDbLine
 10
219.4929221762297
 20
196.3838442301677
 30
0.0
 11
261.2697348451445
 21
196.3838442301677
 31
0.0
1001
INDEX
1070
     1
  0
LINE
  5
2C1
330
2BD
100
AcDbEntity
  8
ANNOTATION_TEXT
 62
     7
100
AcDbLine
 10
260.0197348451445
 20
253.8838442301677
 30
0.0
 11
260.0197348451445
 21
198.8838442301677
 31
0.0
1001
INDEX
1070
     3
  0
SOLID
  5
2C2
330
2BD
100
AcDbEntity
  8
ANNOTATION_TEXT
 62
     7
100
AcDbTrace
 10
260.4364015118111
 20
253.8838442301677
 30
0.0
 11
259.6030681784778
 21
253.8838442301677
 31
0.0
 12
260.0197348451445
 22
256.3838442301677
 32
0.0
 13
260.0197348451445
 23
256.3838442301677
 33
0.0
  0
SOLID
  5
2C3
330
2BD
100
AcDbEntity
  8
ANNOTATION_TEXT
 62
     7
100
AcDbTrace
 10
259.6030681784778
 20
198.8838442301677
 30
0.0
 11
260.4364015118111
 21
198.8838442301677
 31
0.0
 12
260.0197348451445
 22
196.3838442301677
 32
0.0
 13
260.0197348451445
 23
196.3838442301677
 33
0.0
  0
MTEXT
  5
2C4
330
2BD
100
AcDbEntity
  8
ANNOTATION_TEXT
 62
     7
100
AcDbMText
 10
257.6006272157167
 20
208.0399801932028
 30
0.0
 40
3.5
 41
0.0
 71
     5
 72
     1
  1
600
  7
ONSHAPE-STANDARD-DIMENSION
 11
0.0
 21
1.0
 31
0.0
  0
POINT
  5
2C5
330
2BD
100
AcDbEntity
  8
DEFPOINTS
 62
     0
100
AcDbPoint
 10
211.9679221762297
 20
256.3838442301677
 30
0.0
  0
POINT
  5
2C6
330
2BD
100
AcDbEntity
  8
DEFPOINTS
 62
     0
100
AcDbPoint
 10
218.8679221762297
 20
196.3838442301677
 30
0.0
  0
POINT
  5
2C7
330
2BD
100
AcDbEntity
  8
DEFPOINTS
 62
     0
100
AcDbPoint
 10
260.0197348451445
 20
196.3838442301677
 30
0.0
  0
POINT
  5
2C8
330
2BD
100
AcDbEntity
  8
DEFPOINTS
 62
     0
100
AcDbPoint
 10
260.0197348451445
 20
196.3838442301677
 30
0.0
  0
ENDBLK
  5
2C9
330
2BD
100
AcDbEntity
  8
0
100
AcDbBlockEnd
  0
ENDSEC
  0
SECTION
  2
ENTITIES
  0
LINE
  5
76
330
1F
100
AcDbEntity
  8
VISIBLE
100
AcDbLine
 10
77.64608294762584
 20
195.6809342521182
 30
0.0
 11
83.72208294762584
 21
180.1809342521182
 31
0.0
  0
LINE
  5
77
330
1F
100
AcDbEntity
  8
VISIBLE
100
AcDbLine
 10
94.72208294762584
 20
180.1809342521182
 30
0.0
 11
100.7980829476258
 21
195.6809342521182
 31
0.0
  0
LINE
  5
78
330
1F
100
AcDbEntity
  8
VISIBLE
100
AcDbLine
 10
74.27927721947505
 20
204.2697243749519
 30
0.0
 11
75.52598418720652
 21
201.0893494572695
 31
0.0
  0
LINE
  5
79
330
1F
100
AcDbEntity
  8
VISIBLE
100
AcDbLine
 10
109.8220829476258
 20
256.1254351167954
 30
0.0
 11
109.8220829476258
 21
257.6809342521182
 31
0.0
  0
LINE
  5
7A
330
1F
100
AcDbEntity
  8
VISIBLE
100
AcDbLine
 10
109.8220829476258
 20
197.6809342521182
 30
0.0
 11
109.8220829476258
 21
255.2309342521182
 31
0.0
  0
LINE
  5
7B
330
1F
100
AcDbEntity
  8
VISIBLE
100
AcDbLine
 10
68.62208294762584
 20
255.2364333874411
 30
0.0
 11
68.62208294762584
 21
197.6809342521182
 31
0.0
  0
LINE
  5
7C
330
1F
100
AcDbEntity
  8
VISIBLE
100
AcDbLine
 10
68.62208294762584
 20
257.6809342521182
 30
0.0
 11
68.62208294762584
 21
256.1309342521182
 31
0.0
  0
LINE
  5
7D
330
1F
100
AcDbEntity
  8
VISIBLE
100
AcDbLine
 10
114.9720829476258
 20
108.3809342521182
 30
0.0
 11
114.9720829476258
 21
195.6809342521182
 31
0.0
  0
LINE
  5
7E
330
1F
100
AcDbEntity
  8
VISIBLE
100
AcDbLine
 10
107.4720829476258
 20
195.6809342521182
 30
0.0
 11
107.4720829476258
 21
156.8809342521182
 31
0.0
  0
LINE
  5
7F
330
1F
100
AcDbEntity
  8
VISIBLE
100
AcDbLine
 10
107.4720829476258
 20
152.8809342521182
 30
0.0
 11
107.4720829476258
 21
108.3809342521182
 31
0.0
  0
LINE
  5
80
330
1F
100
AcDbEntity
  8
VISIBLE
100
AcDbLine
 10
70.97208294762584
 20
108.3809342521182
 30
0.0
 11
70.97208294762584
 21
152.8809342521182
 31
0.0
  0
LINE
  5
81
330
1F
100
AcDbEntity
  8
VISIBLE
100
AcDbLine
 10
70.97208294762584
 20
156.8809342521182
 30
0.0
 11
70.97208294762584
 21
195.6809342521182
 31
0.0
  0
LINE
  5
82
330
1F
100
AcDbEntity
  8
VISIBLE
100
AcDbLine
 10
63.47208294762584
 20
195.6809342521182
 30
0.0
 11
63.47208294762584
 21
108.3809342521182
 31
0.0
  0
LINE
  5
83
330
1F
100
AcDbEntity
  8
VISIBLE
100
AcDbLine
 10
116.7220829476258
 20
197.6809342521182
 30
0.0
 11
116.7220829476258
 21
195.6809342521182
 31
0.0
  0
LINE
  5
84
330
1F
100
AcDbEntity
  8
VISIBLE
100
AcDbLine
 10
61.72208294762583
 20
197.6809342521182
 30
0.0
 11
116.7220829476258
 21
197.6809342521182
 31
0.0
  0
LINE
  5
85
330
1F
100
AcDbEntity
  8
VISIBLE
100
AcDbLine
 10
61.72208294762583
 20
107.3809342521182
 30
0.0
 11
116.7220829476258
 21
107.3809342521182
 31
0.0
  0
LINE
  5
86
330
1F
100
AcDbEntity
  8
VISIBLE
100
AcDbLine
 10
61.72208294762583
 20
195.6809342521182
 30
0.0
 11
116.7220829476258
 21
195.6809342521182
 31
0.0
  0
LINE
  5
87
330
1F
100
AcDbEntity
  8
VISIBLE
100
AcDbLine
 10
74.65564326211994
 20
251.180934252758
 30
0.0
 11
74.87244344180851
 21
251.1995227612124
 31
0.0
  0
LINE
  5
88
330
1F
100
AcDbEntity
  8
VISIBLE
100
AcDbLine
 10
61.72208294762583
 20
108.3809342521182
 30
0.0
 11
116.7220829476258
 21
108.3809342521182
 31
0.0
  0
LINE
  5
89
330
1F
100
AcDbEntity
  8
VISIBLE
100
AcDbLine
 10
61.72208294762583
 20
108.3809342521182
 30
0.0
 11
61.72208294762583
 21
107.3809342521182
 31
0.0
  0
LINE
  5
8A
330
1F
100
AcDbEntity
  8
VISIBLE
100
AcDbLine
 10
61.72208294762583
 20
197.6809342521182
 30
0.0
 11
61.72208294762583
 21
195.6809342521182
 31
0.0
  0
LINE
  5
8B
330
1F
100
AcDbEntity
  8
VISIBLE
100
AcDbLine
 10
116.7220829476258
 20
108.3809342521182
 30
0.0
 11
116.7220829476258
 21
107.3809342521182
 31
0.0
  0
ARC
  5
8C
330
1F
100
AcDbEntity
  8
VISIBLE
100
AcDbCircle
 10
75.14637667997913
 20
203.5252113884489
 30
0.0
 40
1.16687834436068
100
AcDbArc
 50
104.6057893203816
 51
138.9080152042006
  0
SPLINE
  5
8D
330
1F
100
AcDbEntity
  8
VISIBLE
100
AcDbSpline
210
0.0
220
0.0
230
1.0
 70
     8
 71
     3
 72
    15
 73
    11
 74
     0
 42
0.000000001
 43
0.0000000218126887
 40
0.0
 40
0.0
 40
0.0
 40
0.0
 40
0.0876279129907793
 40
0.2241848784158215
 40
0.3666912471565423
 40
0.5104795192075816
 40
0.6509326509647659
 40
0.7846435978613708
 40
0.9104839258061592
 40
1.0
 40
1.0
 40
1.0
 40
1.0
 10
74.26695257730384
 20
204.2921653102541
 30
0.0
 10
74.21849968450756
 20
204.2366945692461
 30
0.0
 10
74.09453911635424
 20
204.0947797283687
 30
0.0
 10
73.82553567745309
 20
203.535962491601
 30
0.0
 10
73.72370596365538
 20
202.9051497484887
 30
0.0
 10
73.74316856216497
 20
202.2306007401154
 30
0.0
 10
73.91040457884708
 20
201.6091546156409
 30
0.0
 10
74.18599640716678
 20
201.1048164635318
 30
0.0
 10
74.60441457756167
 20
200.7731444893837
 30
0.0
 10
74.79003847394623
 20
200.7243348691767
 30
0.0
 10
74.86719579230733
 20
200.7040464285247
 30
0.0
  0
SPLINE
  5
8E
330
1F
100
AcDbEntity
  8
VISIBLE
100
AcDbSpline
210
0.0
220
0.0
230
1.0
 70
     8
 71
     3
 72
    12
 73
     8
 74
     0
 42
0.000000001
 43
0.0000000218927086
 40
0.0
 40
0.0
 40
0.0
 40
0.0
 40
0.2224630951791917
 40
0.4398870720329185
 40
0.6482998564936141
 40
0.8454720279911103
 40
1.0
 40
1.0
 40
1.0
 40
1.0
 10
76.13871050404609
 20
202.6809342521182
 30
0.0
 10
76.12208178917155
 20
202.9043612540937
 30
0.0
 10
76.08920102442295
 20
203.3461543058039
 30
0.0
 10
75.82804307531266
 20
203.939412501885
 30
0.0
 10
75.46231442779737
 20
204.3933492723991
 30
0.0
 10
74.9871353911577
 20
204.6585707625901
 30
0.0
 10
74.75617063173362
 20
204.6741073734039
 30
0.0
 10
74.65469067348425
 20
204.6809337594754
 30
0.0
  0
ARC
  5
8F
330
1F
100
AcDbEntity
  8
VISIBLE
100
AcDbCircle
 10
74.65563266408623
 20
201.7020762971664
 30
0.0
 40
1.021142052549534
100
AcDbArc
 50
270.0101116963592
 51
282.3114349673828
  0
ARC
  5
90
330
1F
100
AcDbEntity
  8
VISIBLE
100
AcDbCircle
 10
74.57545357618568
 20
201.9822423416968
 30
0.0
 40
1.312093140832036
100
AcDbArc
 50
283.1235329489718
 51
316.6623622315692
  0
SPLINE
  5
91
330
1F
100
AcDbEntity
  8
VISIBLE
100
AcDbSpline
210
0.0
220
0.0
230
1.0
 70
     8
 71
     3
 72
    11
 73
     7
 74
     0
 42
0.000000001
 43
0.0000000217058392
 40
0.0
 40
0.0
 40
0.0
 40
0.0
 40
0.0927795056036135
 40
0.4065497915158683
 40
0.732539345760025
 40
1.0
 40
1.0
 40
1.0
 40
1.0
 10
75.52976789449059
 20
201.0817576987985
 30
0.0
 10
75.53897433285721
 20
201.0901633637204
 30
0.0
 10
75.57931595328509
 20
201.1269960812403
 30
0.0
 10
75.9670437995655
 20
201.6362267083547
 30
0.0
 10
76.11630161257708
 20
202.2275277242833
 30
0.0
 10
76.13174869530073
 20
202.5400736684944
 30
0.0
 10
76.13871050404609
 20
202.6809342521182
 30
0.0
  0
SPLINE
  5
92
330
1F
100
AcDbEntity
  8
VISIBLE
100
AcDbSpline
210
0.0
220
0.0
230
1.0
 70
     8
 71
     3
 72
    17
 73
    13
 74
     0
 42
0.000000001
 43
0.0000000218420574
 40
0.0
 40
0.0
 40
0.0
 40
0.0
 40
0.05550963430707
 40
0.1518347528968358
 40
0.2532902129749516
 40
0.3613942651227393
 40
0.4741820828068386
 40
0.5879887604806148
 40
0.6991710068763175
 40
0.8050246026169029
 40
0.9046501089863551
 40
1.0
 40
1.0
 40
1.0
 40
1.0
 10
74.65469067348425
 20
204.6809337594754
 30
0.0
 10
74.6088914078916
 20
204.6813313447115
 30
0.0
 10
74.48361729537186
 20
204.6824188542373
 30
0.0
 10
74.0091284250723
 20
204.507976561544
 30
0.0
 10
73.66671337882823
 20
204.1063975381801
 30
0.0
 10
73.40865439128464
 20
203.5497882384557
 30
0.0
 10
73.2944832222476
 20
202.9006843196728
 30
0.0
 10
73.31853887820303
 20
202.2308365442768
 30
0.0
 10
73.48142972721996
 20
201.6085118263821
 30
0.0
 10
73.77291738100254
 20
201.1027713785044
 30
0.0
 10
74.17846523164867
 20
200.7484485982055
 30
0.0
 10
74.49904029243227
 20
200.7031076122647
 30
0.0
 10
74.65581287767978
 20
200.6809342605191
 30
0.0
  0
SPLINE
  5
93
330
1F
100
AcDbEntity
  8
VISIBLE
100
AcDbSpline
210
0.0
220
0.0
230
1.0
 70
     8
 71
     3
 72
    16
 73
    12
 74
     0
 42
0.000000001
 43
0.0000000267315762
 40
0.0
 40
0.0
 40
0.0
 40
0.0
 40
0.09809539774873
 40
0.2079666163632536
 40
0.3254092460776862
 40
0.4482223503014979
 40
0.5720885555198462
 40
0.6929333766184932
 40
0.8079153299426446
 40
0.9161149687980794
 40
1.0
 40
1.0
 40
1.0
 40
1.0
 10
74.81341416110301
 20
256.1517999614252
 30
0.0
 10
74.65032350089692
 20
256.0949060861834
 30
0.0
 10
74.30456403060668
 20
255.9742885343165
 30
0.0
 10
73.8501215434211
 20
255.4632768989503
 30
0.0
 10
73.54681505960522
 20
254.775229619965
 30
0.0
 10
73.4039799008828
 20
253.9625830868961
 30
0.0
 10
73.43136786417404
 20
253.1276233695517
 30
0.0
 10
73.62952930607315
 20
252.3508552114175
 30
0.0
 10
73.96897226779171
 20
251.717973131025
 30
0.0
 10
74.47964491049275
 20
251.293347060105
 30
0.0
 10
74.74903101195628
 20
251.2280100825523
 30
0.0
 10
74.86667424459887
 20
251.1994768612441
 30
0.0
  0
SPLINE
  5
94
330
1F
100
AcDbEntity
  8
VISIBLE
100
AcDbSpline
210
0.0
220
0.0
230
1.0
 70
     8
 71
     3
 72
    12
 73
     8
 74
     0
 42
0.000000001
 43
0.0000000267811447
 40
0.0
 40
0.0
 40
0.0
 40
0.0
 40
0.2218870267819283
 40
0.4389985258692142
 40
0.6476323707179481
 40
0.8451989539176958
 40
1.0
 40
1.0
 40
1.0
 40
1.0
 10
76.53111551614487
 20
253.6809342521182
 30
0.0
 10
76.50986998931852
 20
253.959873393851
 30
0.0
 10
76.46783618908538
 20
254.5117482546929
 30
0.0
 10
76.13559767498231
 20
255.252203273546
 30
0.0
 10
75.67197380169573
 20
255.8195811798067
 30
0.0
 10
75.0730606708568
 20
256.1524141777347
 30
0.0
 10
74.78220277508726
 20
256.1722287442896
 30
0.0
 10
74.65442399297223
 20
256.1809336177668
 30
0.0
  0
SPLINE
  5
95
330
1F
100
AcDbEntity
  8
VISIBLE
100
AcDbSpline
210
0.0
220
0.0
230
1.0
 70
     8
 71
     3
 72
    12
 73
     8
 74
     0
 42
0.000000001
 43
0.0000000265421018
 40
0.0
 40
0.0
 40
0.0
 40
0.0
 40
0.157860067797229
 40
0.3649107884561659
 40
0.5838857729442509
 40
0.8112588732670373
 40
1.0
 40
1.0
 40
1.0
 40
1.0
 10
74.87244344180851
 20
251.1995227612124
 30
0.0
 10
74.99268916927264
 20
251.2273909156649
 30
0.0
 10
75.27065030174708
 20
251.2918111984888
 30
0.0
 10
75.83928806135799
 20
251.7061336911669
 30
0.0
 10
76.25718029585434
 20
252.3180978263179
 30
0.0
 10
76.5105377021122
 20
253.1092740548986
 30
0.0
 10
76.52469434489805
 20
253.5025514552135
 30
0.0
 10
76.53111551614487
 20
253.6809342521182
 30
0.0
  0
SPLINE
  5
96
330
1F
100
AcDbEntity
  8
VISIBLE
100
AcDbSpline
210
0.0
220
0.0
230
1.0
 70
     8
 71
     3
 72
    18
 73
    14
 74
     0
 42
0.000000001
 43
0.0000000267287013
 40
0.0
 40
0.0
 40
0.0
 40
0.0
 40
0.0550119422330946
 40
0.1506656370641317
 40
0.251351687721411
 40
0.3589297440936841
 40
0.471392118601805
 40
0.5848268824708212
 40
0.6955150809805435
 40
0.8008397262949405
 40
0.8999523938875429
 40
0.9953461728013195
 40
1.0
 40
1.0
 40
1.0
 40
1.0
 10
74.65442399297223
 20
256.1809336177668
 30
0.0
 10
74.5979513505477
 20
256.18148034238
 30
0.0
 10
74.44328517621892
 20
256.1829777011137
 30
0.0
 10
73.85473176774173
 20
255.9672230708026
 30
0.0
 10
73.43343444072602
 20
255.4673650812256
 30
0.0
 10
73.11690479275069
 20
254.7727996686065
 30
0.0
 10
72.9763053545546
 20
253.9620080531079
 30
0.0
 10
73.00672524941065
 20
253.1258242096082
 30
0.0
 10
73.19319526211746
 20
252.3507120731589
 30
0.0
 10
73.57979197409924
 20
251.7119599676846
 30
0.0
 10
73.96835204052624
 20
251.2810292854735
 30
0.0
 10
74.65058157186996
 20
251.1801049886745
 30
0.0
 10
74.65541827731303
 20
251.1808973931695
 30
0.0
 10
74.65564326211994
 20
251.180934252758
 30
0.0
  0
SPLINE
  5
97
330
1F
100
AcDbEntity
  8
VISIBLE
100
AcDbSpline
210
0.0
220
0.0
230
1.0
 70
     8
 71
     3
 72
     9
 73
     5
 74
     0
 42
0.000000001
 43
0.0000000279048281
 40
0.0
 40
0.0
 40
0.0
 40
0.0
 40
0.6038291548361395
 40
1.0
 40
1.0
 40
1.0
 40
1.0
 10
109.8220829476258
 20
256.1309342521182
 30
0.0
 10
109.8219871559487
 20
256.1265051097237
 30
0.0
 10
109.8218285155845
 20
256.1191700177378
 30
0.0
 10
109.8217464867497
 20
256.1152627891689
 30
0.0
 10
109.8217139893169
 20
256.1137148591246
 30
0.0
  0
ARC
  5
98
330
1F
100
AcDbEntity
  8
VISIBLE
100
AcDbCircle
 10
130.4168016130809
 20
255.6809413132866
 30
0.0
 40
20.59963415142358
100
AcDbArc
 50
178.7961959963922
 51
181.2517482522669
  0
ARC
  5
99
330
1F
100
AcDbEntity
  8
VISIBLE
100
AcDbCircle
 10
48.0242358437293
 20
255.6809500373897
 30
0.0
 40
20.60276242455105
100
AcDbArc
 50
358.7484175493266
 51
1.251494674707177
  0
LINE
  5
9A
330
1F
100
AcDbEntity
  8
VISIBLE
100
AcDbLine
 10
83.72208294762584
 20
180.1809342521182
 30
0.0
 11
94.72208294762584
 21
180.1809342521182
 31
0.0
  0
LINE
  5
9B
330
1F
100
AcDbEntity
  8
VISIBLE
100
AcDbLine
 10
68.62208294762584
 20
257.6809342521182
 30
0.0
 11
109.8220829476258
 21
257.6809342521182
 31
0.0
  0
LINE
  5
9C
330
1F
100
AcDbEntity
  8
VISIBLE
100
AcDbLine
 10
107.4720829476258
 20
156.8809342521182
 30
0.0
 11
70.97208294762584
 21
156.8809342521182
 31
0.0
  0
LINE
  5
9D
330
1F
100
AcDbEntity
  8
VISIBLE
100
AcDbLine
 10
70.97208294762584
 20
152.8809342521182
 30
0.0
 11
107.4720829476258
 21
152.8809342521182
 31
0.0
  0
LINE
  5
9E
330
1F
100
AcDbEntity
  8
VISIBLE
100
AcDbLine
 10
107.4720829476258
 20
157.3809342521182
 30
0.0
 11
70.97208294762584
 21
157.3809342521182
 31
0.0
  0
LINE
  5
A1
330
1F
100
AcDbEntity
  8
VISIBLE
100
AcDbLine
 10
179.7919221762297
 20
194.3838442301677
 30
0.0
 11
185.8679221762297
 21
178.8838442301677
 31
0.0
  0
LINE
  5
A2
330
1F
100
AcDbEntity
  8
VISIBLE
100
AcDbLine
 10
196.8679221762297
 20
178.8838442301677
 30
0.0
 11
202.9439221762297
 21
194.3838442301677
 31
0.0
  0
LINE
  5
A3
330
1F
100
AcDbEntity
  8
VISIBLE
100
AcDbLine
 10
205.7183856038387
 20
199.4069526044111
 30
0.0
 11
205.9344514900159
 21
199.3838442385686
 31
0.0
  0
LINE
  5
A4
330
1F
100
AcDbEntity
  8
VISIBLE
100
AcDbLine
 10
205.063737314441
 20
199.791535909278
 30
0.0
 11
206.313879434318
 21
202.9806739701888
 31
0.0
  0
LINE
  5
A5
330
1F
100
AcDbEntity
  8
VISIBLE
100
AcDbLine
 10
211.9679221762297
 20
196.3838442301677
 30
0.0
 11
211.9679221762297
 21
256.3838442301677
 31
0.0
  0
LINE
  5
A6
330
1F
100
AcDbEntity
  8
VISIBLE
100
AcDbLine
 10
170.7679221762297
 20
256.3838442301677
 30
0.0
 11
170.7679221762297
 21
196.3838442301677
 31
0.0
  0
LINE
  5
A7
330
1F
100
AcDbEntity
  8
VISIBLE
100
AcDbLine
 10
173.1179221762297
 20
107.0838442301677
 30
0.0
 11
173.1179221762297
 21
194.3838442301677
 31
0.0
  0
LINE
  5
A8
330
1F
100
AcDbEntity
  8
VISIBLE
100
AcDbLine
 10
165.6179221762297
 20
194.3838442301677
 30
0.0
 11
165.6179221762297
 21
107.0838442301677
 31
0.0
  0
LINE
  5
A9
330
1F
100
AcDbEntity
  8
VISIBLE
100
AcDbLine
 10
218.8679221762297
 20
107.0838442301677
 30
0.0
 11
218.8679221762297
 21
106.0838442301677
 31
0.0
  0
LINE
  5
AA
330
1F
100
AcDbEntity
  8
VISIBLE
100
AcDbLine
 10
163.8679221762297
 20
107.0838442301677
 30
0.0
 11
218.8679221762297
 21
107.0838442301677
 31
0.0
  0
LINE
  5
AB
330
1F
100
AcDbEntity
  8
VISIBLE
100
AcDbLine
 10
163.8679221762297
 20
106.0838442301677
 30
0.0
 11
218.8679221762297
 21
106.0838442301677
 31
0.0
  0
LINE
  5
AC
330
1F
100
AcDbEntity
  8
VISIBLE
100
AcDbLine
 10
163.8679221762297
 20
196.3838442301677
 30
0.0
 11
218.8679221762297
 21
196.3838442301677
 31
0.0
  0
LINE
  5
AD
330
1F
100
AcDbEntity
  8
VISIBLE
100
AcDbLine
 10
163.8679221762297
 20
107.0838442301677
 30
0.0
 11
163.8679221762297
 21
106.0838442301677
 31
0.0
  0
LINE
  5
AE
330
1F
100
AcDbEntity
  8
VISIBLE
100
AcDbLine
 10
217.1179221762297
 20
107.0838442301677
 30
0.0
 11
217.1179221762297
 21
194.3838442301677
 31
0.0
  0
LINE
  5
AF
330
1F
100
AcDbEntity
  8
VISIBLE
100
AcDbLine
 10
209.6179221762297
 20
194.3838442301677
 30
0.0
 11
209.6179221762297
 21
107.0838442301677
 31
0.0
  0
LINE
  5
B0
330
1F
100
AcDbEntity
  8
VISIBLE
100
AcDbLine
 10
163.8679221762297
 20
194.3838442301677
 30
0.0
 11
218.8679221762297
 21
194.3838442301677
 31
0.0
  0
LINE
  5
B1
330
1F
100
AcDbEntity
  8
VISIBLE
100
AcDbLine
 10
163.8679221762297
 20
196.3838442301677
 30
0.0
 11
163.8679221762297
 21
194.3838442301677
 31
0.0
  0
LINE
  5
B2
330
1F
100
AcDbEntity
  8
VISIBLE
100
AcDbLine
 10
218.8679221762297
 20
196.3838442301677
 30
0.0
 11
218.8679221762297
 21
194.3838442301677
 31
0.0
  0
SPLINE
  5
B3
330
1F
100
AcDbEntity
  8
VISIBLE
100
AcDbSpline
210
0.0
220
0.0
230
1.0
 70
     8
 71
     3
 72
    10
 73
     6
 74
     0
 42
0.000000001
 43
0.0000000290966796
 40
0.0
 40
0.0
 40
0.0
 40
0.0
 40
0.3590036939736522
 40
0.7064120473710362
 40
1.0
 40
1.0
 40
1.0
 40
1.0
 10
206.8533830180731
 20
201.3838442301677
 30
0.0
 10
206.8403989900683
 20
201.6050052495164
 30
0.0
 10
206.8148503008488
 20
202.0401840822119
 30
0.0
 10
206.6002016287705
 20
202.6378672773522
 30
0.0
 10
206.4095043335594
 20
202.8835379190886
 30
0.0
 10
206.322161508107
 20
202.9960595359066
 30
0.0
  0
SPLINE
  5
B4
330
1F
100
AcDbEntity
  8
VISIBLE
100
AcDbSpline
210
0.0
220
0.0
230
1.0
 70
     8
 71
     3
 72
    10
 73
     6
 74
     0
 42
0.000000001
 43
0.000000029086132
 40
0.0
 40
0.0
 40
0.0
 40
0.0
 40
0.2102571452804381
 40
0.649642995515215
 40
1.0
 40
1.0
 40
1.0
 40
1.0
 10
206.322161508107
 20
202.9960595359066
 30
0.0
 10
206.3032881283552
 20
203.0189740088178
 30
0.0
 10
206.2449740152195
 20
203.0897741083948
 30
0.0
 10
205.8207314311121
 20
203.377537454376
 30
0.0
 10
205.6048402533565
 20
203.3819057917129
 30
0.0
 10
205.5090635256772
 20
203.3838437359117
 30
0.0
  0
SPLINE
  5
B5
330
1F
100
AcDbEntity
  8
VISIBLE
100
AcDbSpline
210
0.0
220
0.0
230
1.0
 70
     8
 71
     3
 72
    12
 73
     8
 74
     0
 42
0.000000001
 43
0.0000000289844318
 40
0.0
 40
0.0
 40
0.0
 40
0.0
 40
0.1486718904825566
 40
0.3553533724933374
 40
0.5758007254325725
 40
0.8079992308218472
 40
1.0
 40
1.0
 40
1.0
 40
1.0
 10
205.7245003119859
 20
199.4073303465192
 30
0.0
 10
205.8031548082665
 20
199.428283632466
 30
0.0
 10
205.9911536318798
 20
199.4783658692753
 30
0.0
 10
206.4059990371476
 20
199.8131534718214
 30
0.0
 10
206.6808682001349
 20
200.3069611360658
 30
0.0
 10
206.8415621088398
 20
200.9381378350221
 30
0.0
 10
206.8496997601957
 20
201.2449672995926
 30
0.0
 10
206.8533830180731
 20
201.3838442301677
 30
0.0
  0
SPLINE
  5
B6
330
1F
100
AcDbEntity
  8
VISIBLE
100
AcDbSpline
210
0.0
220
0.0
230
1.0
 70
     8
 71
     3
 72
    12
 73
     8
 74
     0
 42
0.000000001
 43
0.0000000329468573
 40
0.0
 40
0.0
 40
0.0
 40
0.0
 40
0.2256707269501119
 40
0.4437673048515424
 40
0.6498297948682061
 40
0.8442943494265415
 40
1.0
 40
1.0
 40
1.0
 40
1.0
 10
207.1669043295984
 20
252.3838442301677
 30
0.0
 10
207.1507076736125
 20
252.6621110918084
 30
0.0
 10
207.1188579673098
 20
253.2093053907265
 30
0.0
 10
206.8566757216406
 20
253.9485472565553
 30
0.0
 10
206.4672400250699
 20
254.5218982134489
 30
0.0
 10
205.9166772051627
 20
254.8571271479756
 30
0.0
 10
205.6343390052519
 20
254.8756204261639
 30
0.0
 10
205.5087953340469
 20
254.8838435926965
 30
0.0
  0
SPLINE
  5
B7
330
1F
100
AcDbEntity
  8
VISIBLE
100
AcDbSpline
210
0.0
220
0.0
230
1.0
 70
     8
 71
     3
 72
    12
 73
     8
 74
     0
 42
0.000000001
 43
0.0000000327538351
 40
0.0
 40
0.0
 40
0.0
 40
0.0
 40
0.1566531749678478
 40
0.3601098789100919
 40
0.5775737447847359
 40
0.8073111933514265
 40
1.0
 40
1.0
 40
1.0
 40
1.0
 10
205.7236498305948
 20
249.9024429808397
 30
0.0
 10
205.8380720519256
 20
249.9297591347048
 30
0.0
 10
206.1011026114818
 20
249.9925527350431
 30
0.0
 10
206.6105138564491
 20
250.4100410149494
 30
0.0
 10
206.953014993488
 20
251.0259175481182
 30
0.0
 10
207.1511124229091
 20
251.8126742974167
 30
0.0
 10
207.1619574117885
 20
252.2049215219481
 30
0.0
 10
207.1669043295984
 20
252.3838442301677
 30
0.0
  0
SPLINE
  5
B8
330
1F
100
AcDbEntity
  8
VISIBLE
100
AcDbSpline
210
0.0
220
0.0
230
1.0
 70
     8
 71
     3
 72
    12
 73
     8
 74
     0
 42
0.000000001
 43
0.0000000329736912
 40
0.0
 40
0.0
 40
0.0
 40
0.0
 40
0.2256482034008326
 40
0.4437646306795188
 40
0.6498690393129731
 40
0.8443662477685343
 40
1.0
 40
1.0
 40
1.0
 40
1.0
 10
207.5944235136434
 20
252.3838442301677
 30
0.0
 10
207.5781459324066
 20
252.6621880621684
 30
0.0
 10
207.5461340895598
 20
253.2095850542476
 30
0.0
 10
207.2827477941883
 20
253.9490491315832
 30
0.0
 10
206.8920620543321
 20
254.5222284757731
 30
0.0
 10
206.3407841153254
 20
254.8571620881235
 30
0.0
 10
206.058526460601
 20
254.8756331709856
 30
0.0
 10
205.9330624975895
 20
254.8838435958162
 30
0.0
  0
SPLINE
  5
B9
330
1F
100
AcDbEntity
  8
VISIBLE
100
AcDbSpline
210
0.0
220
0.0
230
1.0
 70
     8
 71
     3
 72
    12
 73
     8
 74
     0
 42
0.000000001
 43
0.0000000327808271
 40
0.0
 40
0.0
 40
0.0
 40
0.0
 40
0.1887615720079415
 40
0.3846630133268684
 40
0.5939860698174507
 40
0.8150229552830403
 40
1.0
 40
1.0
 40
1.0
 40
1.0
 10
205.9342818754998
 20
249.8838442308075
 30
0.0
 10
206.1300857005467
 20
249.9115779336258
 30
0.0
 10
206.5290995917869
 20
249.9680943611133
 30
0.0
 10
207.0264713212984
 20
250.410584204462
 30
0.0
 10
207.3836260290737
 20
251.028137871579
 30
0.0
 10
207.5781120930572
 20
251.814845558248
 30
0.0
 10
207.5893181254001
 20
252.2057506597922
 30
0.0
 10
207.5944235136434
 20
252.3838442301677
 30
0.0
  0
ARC
  5
BA
330
1F
100
AcDbEntity
  8
VISIBLE
100
AcDbCircle
 10
205.9371738608181
 20
253.5770247699375
 30
0.0
 40
1.306825293212057
100
AcDbArc
 50
90.18025680315674
 51
102.1302672881397
  0
SPLINE
  5
BB
330
1F
100
AcDbEntity
  8
VISIBLE
100
AcDbSpline
210
0.0
220
0.0
230
1.0
 70
     8
 71
     3
 72
    16
 73
    12
 74
     0
 42
0.000000001
 43
0.0000000328538941
 40
0.0
 40
0.0
 40
0.0
 40
0.0
 40
0.0991627774664468
 40
0.2107474003493215
 40
0.3282173823811753
 40
0.449172806190152
 40
0.5706319891449302
 40
0.6901646493257758
 40
0.805817072143919
 40
0.9158079755180294
 40
1.0
 40
1.0
 40
1.0
 40
1.0
 10
205.6625640479133
 20
254.8546717468578
 30
0.0
 10
205.4891896636825
 20
254.7973341074695
 30
0.0
 10
205.1207227681665
 20
254.6754763020307
 30
0.0
 10
204.5965083947068
 20
254.170201451947
 30
0.0
 10
204.2194284239368
 20
253.4832420646169
 30
0.0
 10
204.0339427800329
 20
252.666390680245
 30
0.0
 10
204.0705364772399
 20
251.8255592422456
 30
0.0
 10
204.3249758997393
 20
251.0458683403016
 30
0.0
 10
204.74091020234
 20
250.4167888920067
 30
0.0
 10
205.3122466138569
 20
249.9974664729353
 30
0.0
 10
205.5951932429504
 20
249.9311380434957
 30
0.0
 10
205.7178706059233
 20
249.9023799811012
 30
0.0
  0
SPLINE
  5
BC
330
1F
100
AcDbEntity
  8
VISIBLE
100
AcDbSpline
210
0.0
220
0.0
230
1.0
 70
     8
 71
     3
 72
     9
 73
     5
 74
     0
 42
0.000000001
 43
0.0000000324849198
 40
0.0
 40
0.0
 40
0.0
 40
0.0
 40
0.9253071802814791
 40
1.0
 40
1.0
 40
1.0
 40
1.0
 10
205.7178706059233
 20
249.9023799811011
 30
0.0
 10
205.8200101097739
 20
249.8933448582533
 30
0.0
 10
205.9303945378074
 20
249.8835804005247
 30
0.0
 10
205.934011699494
 20
249.8838258941932
 30
0.0
 10
205.9342818754998
 20
249.8838442308075
 30
0.0
  0
CIRCLE
  5
BD
330
1F
100
AcDbEntity
  8
VISIBLE
100
AcDbCircle
 10
191.3679221762297
 20
254.3838442301677
 30
0.0
 40
0.45
  0
SPLINE
  5
BE
330
1F
100
AcDbEntity
  8
VISIBLE
100
AcDbSpline
210
0.0
220
0.0
230
1.0
 70
     8
 71
     3
 72
    12
 73
     8
 74
     0
 42
0.000000001
 43
0.0000000291539703
 40
0.0
 40
0.0
 40
0.0
 40
0.0
 40
0.2254723297934802
 40
0.4436953281878787
 40
0.6500771446080088
 40
0.8448015068238713
 40
1.0
 40
1.0
 40
1.0
 40
1.0
 10
207.2797217445557
 20
201.3838442301677
 30
0.0
 10
207.2662720958098
 20
201.6068886124498
 30
0.0
 10
207.2398052281468
 20
202.0458061083916
 30
0.0
 10
207.0227692214315
 20
202.6384355438646
 30
0.0
 10
206.7036589379831
 20
203.0961087688621
 30
0.0
 10
206.258841617665
 20
203.3626471728828
 30
0.0
 10
206.0333428771886
 20
203.3773310947663
 30
0.0
 10
205.9333292193329
 20
203.3838437375249
 30
0.0
  0
SPLINE
  5
BF
330
1F
100
AcDbEntity
  8
VISIBLE
100
AcDbSpline
210
0.0
220
0.0
230
1.0
 70
     8
 71
     3
 72
    13
 73
     9
 74
     0
 42
0.000000001
 43
0.0000000290148003
 40
0.0
 40
0.0
 40
0.0
 40
0.0
 40
0.0183533123188168
 40
0.2043167260384634
 40
0.3976194160631016
 40
0.6037481467778706
 40
0.8207942579057258
 40
1.0
 40
1.0
 40
1.0
 40
1.0
 10
205.9344514900159
 20
199.3838442385686
 30
0.0
 10
205.9352696678586
 20
199.3837311708432
 30
0.0
 10
205.9443779647816
 20
199.3824724537747
 30
0.0
 10
206.4800359734926
 20
199.4645308283754
 30
0.0
 10
206.802536108881
 20
199.8095610330307
 30
0.0
 10
207.1155940749327
 20
200.3092173438875
 30
0.0
 10
207.2662260810074
 20
200.9390176650002
 30
0.0
 10
207.2755190015197
 20
201.2453188629419
 30
0.0
 10
207.2797217445557
 20
201.3838442301677
 30
0.0
  0
ARC
  5
C0
330
1F
100
AcDbEntity
  8
VISIBLE
100
AcDbCircle
 10
205.9364998456778
 20
202.3425675469125
 30
0.0
 40
1.041281017788959
100
AcDbArc
 50
90.17446182691387
 51
102.9749382231908
  0
SPLINE
  5
C1
330
1F
100
AcDbEntity
  8
VISIBLE
100
AcDbSpline
210
0.0
220
0.0
230
1.0
 70
     8
 71
     3
 72
    15
 73
    11
 74
     0
 42
0.000000001
 43
0.0000000290404691
 40
0.0
 40
0.0
 40
0.0
 40
0.0
 40
0.1167692732656822
 40
0.250000919139739
 40
0.3902815561004992
 40
0.5348844530775574
 40
0.6802880773778863
 40
0.8233231718809079
 40
0.9613376357854648
 40
1.0
 40
1.0
 40
1.0
 40
1.0
 10
205.7027063989284
 20
203.3572629604549
 30
0.0
 10
205.5693050026886
 20
203.3116833766643
 30
0.0
 10
205.2836950066532
 20
203.214098305498
 30
0.0
 10
204.8686178671484
 20
202.8085473098475
 30
0.0
 10
204.575825293098
 20
202.257040051827
 30
0.0
 10
204.428404428126
 20
201.6072223580195
 30
0.0
 10
204.4720506108145
 20
200.9213116966496
 30
0.0
 10
204.6235760351152
 20
200.343918058961
 30
0.0
 10
205.0150759630611
 20
199.8251812331697
 30
0.0
 10
205.0521723267134
 20
199.7918979689431
 30
0.0
 10
205.0602901604884
 20
199.784614559469
 30
0.0
  0
ARC
  5
C2
330
1F
100
AcDbEntity
  8
VISIBLE
100
AcDbCircle
 10
206.0131592975173
 20
200.6828245862287
 30
0.0
 40
1.309481135592911
100
AcDbArc
 50
223.3086479158711
 51
256.9908152387284
  0
LINE
  5
C3
330
1F
100
AcDbEntity
  8
VISIBLE
100
AcDbLine
 10
185.8679221762297
 20
178.8838442301677
 30
0.0
 11
196.8679221762297
 21
178.8838442301677
 31
0.0
  0
LINE
  5
C4
330
1F
100
AcDbEntity
  8
VISIBLE
100
AcDbLine
 10
170.7679221762297
 20
256.3838442301677
 30
0.0
 11
211.9679221762297
 21
256.3838442301677
 31
0.0
  0
LINE
  5
C5
330
1F
100
AcDbEntity
  8
VISIBLE
100
AcDbLine
 10
209.6179221762297
 20
156.0838442301677
 30
0.0
 11
173.1179221762297
 21
156.0838442301677
 31
0.0
  0
LINE
  5
C6
330
1F
100
AcDbEntity
  8
VISIBLE
100
AcDbLine
 10
173.1179221762297
 20
152.0838442301677
 30
0.0
 11
209.6179221762297
 21
152.0838442301677
 31
0.0
  0
CIRCLE
  5
C9
330
1F
100
AcDbEntity
  8
VISIBLE
100
AcDbCircle
 10
322.3740143932328
 20
208.6484621856411
 30
0.0
 40
5.500000000000002
  0
LINE
  5
CA
330
1F
100
AcDbEntity
  8
VISIBLE
100
AcDbLine
 10
294.8740143932328
 20
181.1484621856411
 30
0.0
 11
349.8740143932328
 21
181.1484621856411
 31
0.0
  0
LINE
  5
CB
330
1F
100
AcDbEntity
  8
VISIBLE
100
AcDbLine
 10
301.7740143932327
 20
208.1984621856411
 30
0.0
 11
301.7789300282683
 21
208.1984621856411
 31
0.0
  0
LINE
  5
CC
330
1F
100
AcDbEntity
  8
VISIBLE
100
AcDbLine
 10
301.7789300282683
 20
209.0984621856411
 30
0.0
 11
301.7740143932327
 21
209.0984621856411
 31
0.0
  0
LINE
  5
CD
330
1F
100
AcDbEntity
  8
VISIBLE
100
AcDbLine
 10
306.147513055819
 20
195.9574947541601
 30
0.0
 11
306.1448331889
 21
195.954814887241
 31
0.0
  0
LINE
  5
CE
330
1F
100
AcDbEntity
  8
VISIBLE
100
AcDbLine
 10
306.4622148249068
 20
195.5650897420613
 30
0.0
 11
306.460521380338
 21
195.5633962974925
 31
0.0
  0
LINE
  5
CF
330
1F
100
AcDbEntity
  8
VISIBLE
100
AcDbLine
 10
349.8740143932328
 20
236.1484621856411
 30
0.0
 11
349.8740143932328
 21
181.1484621856411
 31
0.0
  0
LINE
  5
D0
330
1F
100
AcDbEntity
  8
VISIBLE
100
AcDbLine
 10
294.8740143932328
 20
236.1484621856411
 30
0.0
 11
294.8740143932328
 21
181.1484621856411
 31
0.0
  0
LINE
  5
D1
330
1F
100
AcDbEntity
  8
VISIBLE
100
AcDbLine
 10
294.8740143932328
 20
236.1484621856411
 30
0.0
 11
349.8740143932328
 21
236.1484621856411
 31
0.0
  0
SPLINE
  5
D2
330
1F
100
AcDbEntity
  8
VISIBLE
100
AcDbSpline
210
0.0
220
0.0
230
1.0
 70
     8
 71
     3
 72
    17
 73
    13
 74
     0
 42
0.000000001
 43
0.0000000382694785
 40
0.0
 40
0.0
 40
0.0
 40
0.0
 40
0.0522899402031731
 40
0.1418744603701043
 40
0.2483679933173641
 40
0.3663812245087432
 40
0.4899093866240427
 40
0.6132462465888466
 40
0.7304409989321735
 40
0.8358645391025225
 40
0.9257842580860467
 40
1.0
 40
1.0
 40
1.0
 40
1.0
 10
310.9331551040224
 20
200.036029955191
 30
0.0
 10
310.9586670828219
 20
200.0605860967171
 30
0.0
 10
311.027886864124
 20
200.127212474836
 30
0.0
 10
311.4042975495057
 20
200.134746675447
 30
0.0
 10
311.8209937196543
 20
199.9030874111335
 30
0.0
 10
312.2980864324028
 20
199.5544498079913
 30
0.0
 10
312.7726465269113
 20
199.1181889815064
 30
0.0
 10
313.2120674914967
 20
198.6498950472862
 30
0.0
 10
313.5702159544603
 20
198.1891673429434
 30
0.0
 10
313.8007607712669
 20
197.7820275838494
 30
0.0
 10
313.8937455921819
 20
197.4213649080153
 30
0.0
 10
313.802431338858
 20
197.273860463454
 30
0.0
 10
313.7611425459262
 20
197.2071646274117
 30
0.0
  0
SPLINE
  5
D3
330
1F
100
AcDbEntity
  8
VISIBLE
100
AcDbSpline
210
0.0
220
0.0
230
1.0
 70
     8
 71
     3
 72
    14
 73
    10
 74
     0
 42
0.000000001
 43
0.0000000382009364
 40
0.0
 40
0.0
 40
0.0
 40
0.0
 40
0.1514319342659608
 40
0.3111465622190318
 40
0.4669762358232133
 40
0.6157793588854219
 40
0.7573824230752471
 40
0.8876714001926356
 40
1.0
 40
1.0
 40
1.0
 40
1.0
 10
311.0084132224679
 20
198.9950662794779
 30
0.0
 10
311.0945466628392
 20
198.8293154663269
 30
0.0
 10
311.2715246826575
 20
198.4887479635283
 30
0.0
 10
311.6814756010931
 20
198.004405477552
 30
0.0
 10
312.1333393811067
 20
197.6127056418097
 30
0.0
 10
312.6024206169168
 20
197.321430461943
 30
0.0
 10
313.0601484052588
 20
197.1432661561343
 30
0.0
 10
313.4962232138915
 20
197.0710283493364
 30
0.0
 10
313.6923953331598
 20
197.1791720070688
 30
0.0
 10
313.7832203251408
 20
197.2292410325907
 30
0.0
  0
SPLINE
  5
D4
330
1F
100
AcDbEntity
  8
VISIBLE
100
AcDbSpline
210
0.0
220
0.0
230
1.0
 70
     8
 71
     3
 72
    10
 73
     6
 74
     0
 42
0.000000001
 43
0.0000000380295066
 40
0.0
 40
0.0
 40
0.0
 40
0.0
 40
0.2577290054730743
 40
0.6175977154712546
 40
1.0
 40
1.0
 40
1.0
 40
1.0
 10
310.9549194467102
 20
200.0577941445731
 30
0.0
 10
310.915171936177
 20
200.0024296332058
 30
0.0
 10
310.8199247145618
 20
199.8697592895018
 30
0.0
 10
310.8357896879998
 20
199.4255176203407
 30
0.0
 10
310.9497191686717
 20
199.1414248523984
 30
0.0
 10
311.0084132224679
 20
198.9950662794779
 30
0.0
  0
SPLINE
  5
D5
330
1F
100
AcDbEntity
  8
VISIBLE
100
AcDbSpline
210
0.0
220
0.0
230
1.0
 70
     8
 71
     3
 72
    18
 73
    14
 74
     0
 42
0.000000001
 43
0.0000000382759632
 40
0.0
 40
0.0
 40
0.0
 40
0.0
 40
0.0117099830627426
 40
0.0953804180849589
 40
0.1951933742005864
 40
0.3089553116038966
 40
0.4304222116454542
 40
0.5539165909179528
 40
0.6735769483607266
 40
0.7835383689536837
 40
0.8790360058887592
 40
0.9598060721927503
 40
1.0
 40
1.0
 40
1.0
 40
1.0
 10
313.7832203251408
 20
197.2292410325907
 30
0.0
 10
313.7842703905772
 20
197.2298584688318
 30
0.0
 10
313.7928234072472
 20
197.2348876244249
 30
0.0
 10
313.9427591529911
 20
197.565049460654
 30
0.0
 10
313.7426381903456
 20
197.9386168728202
 30
0.0
 10
313.4491954168491
 20
198.4108889714073
 30
0.0
 10
313.0354013250454
 20
198.8859987665992
 30
0.0
 10
312.5744516318216
 20
199.345231211885
 30
0.0
 10
312.1082732726006
 20
199.740907424947
 30
0.0
 10
311.669439915066
 20
200.0210225158079
 30
0.0
 10
311.312729687827
 20
200.1819940781534
 30
0.0
 10
311.0084850264113
 20
200.1165478578762
 30
0.0
 10
310.9682790818918
 20
200.0724477370419
 30
0.0
 10
310.9549194467102
 20
200.0577941445731
 30
0.0
  0
CIRCLE
  5
D6
330
1F
100
AcDbEntity
  8
VISIBLE
100
AcDbCircle
 10
322.3740143932328
 20
208.6484621856411
 30
0.0
 40
20.0
  0
CIRCLE
  5
D7
330
1F
100
AcDbEntity
  8
VISIBLE
100
AcDbCircle
 10
322.3740143932328
 20
208.6484621856411
 30
0.0
 40
20.6
  0
LINE
  5
D8
330
1F
100
AcDbEntity
  8
BORDER_FRAME
100
AcDbLine
 10
10.5
 20
10.0
 30
0.0
 11
10.5
 21
287.0
 31
0.0
  0
LINE
  5
DB
330
1F
100
AcDbEntity
  8
BORDER_FRAME
100
AcDbLine
 10
10.5
 20
287.0
 30
0.0
 11
410.5
 21
287.0
 31
0.0
  0
LINE
  5
DC
330
1F
100
AcDbEntity
  8
BORDER_FRAME
100
AcDbLine
 10
410.5
 20
287.0
 30
0.0
 11
410.5
 21
10.0
 31
0.0
  0
LINE
  5
DD
330
1F
100
AcDbEntity
  8
BORDER_FRAME
100
AcDbLine
 10
410.5
 20
10.0
 30
0.0
 11
10.5
 21
10.0
 31
0.0
  0
LINE
  5
DE
330
1F
100
AcDbEntity
  8
BORDER_ZONES
100
AcDbLine
 10
70.5
 20
10.0
 30
0.0
 11
70.5
 21
0.5
 31
0.0
  0
LINE
  5
E0
330
1F
100
AcDbEntity
  8
BORDER_ZONES
100
AcDbLine
 10
70.5
 20
287.0
 30
0.0
 11
70.5
 21
296.5
 31
0.0
  0
MTEXT
  5
E1
330
1F
100
AcDbEntity
  8
BORDER_ZONES
100
AcDbMText
 10
35.5
 20
5.0
 30
0.0
 40
6.0
 41
0.0
 71
     5
 72
     1
  1
6
  7
ONSHAPE-STANDARD
  0
MTEXT
  5
E3
330
1F
100
AcDbEntity
  8
BORDER_ZONES
100
AcDbMText
 10
35.5
 20
292.0
 30
0.0
 40
6.0
 41
0.0
 71
     5
 72
     1
  1
6
  7
ONSHAPE-STANDARD
  0
MTEXT
  5
E4
330
1F
100
AcDbEntity
  8
BORDER_ZONES
100
AcDbMText
 10
105.5
 20
5.0
 30
0.0
 40
6.0
 41
0.0
 71
     5
 72
     1
  1
5
  7
ONSHAPE-STANDARD
  0
MTEXT
  5
E5
330
1F
100
AcDbEntity
  8
BORDER_ZONES
100
AcDbMText
 10
105.5
 20
292.0
 30
0.0
 40
6.0
 41
0.0
 71
     5
 72
     1
  1
5
  7
ONSHAPE-STANDARD
  0
LINE
  5
E6
330
1F
100
AcDbEntity
  8
BORDER_ZONES
100
AcDbLine
 10
140.5
 20
10.0
 30
0.0
 11
140.5
 21
0.5
 31
0.0
  0
LINE
  5
E7
330
1F
100
AcDbEntity
  8
BORDER_ZONES
100
AcDbLine
 10
140.5
 20
287.0
 30
0.0
 11
140.5
 21
296.5
 31
0.0
  0
MTEXT
  5
E8
330
1F
100
AcDbEntity
  8
BORDER_ZONES
100
AcDbMText
 10
175.5
 20
5.0
 30
0.0
 40
6.0
 41
0.0
 71
     5
 72
     1
  1
4
  7
ONSHAPE-STANDARD
  0
MTEXT
  5
E9
330
1F
100
AcDbEntity
  8
BORDER_ZONES
100
AcDbMText
 10
175.5
 20
292.0
 30
0.0
 40
6.0
 41
0.0
 71
     5
 72
     1
  1
4
  7
ONSHAPE-STANDARD
  0
LINE
  5
EA
330
1F
100
AcDbEntity
  8
BORDER_ZONES
100
AcDbLine
 10
210.5
 20
10.0
 30
0.0
 11
210.5
 21
0.5
 31
0.0
  0
LINE
  5
EB
330
1F
100
AcDbEntity
  8
BORDER_ZONES
100
AcDbLine
 10
210.5
 20
287.0
 30
0.0
 11
210.5
 21
296.5
 31
0.0
  0
MTEXT
  5
EC
330
1F
100
AcDbEntity
  8
BORDER_ZONES
100
AcDbMText
 10
245.5
 20
5.0
 30
0.0
 40
6.0
 41
0.0
 71
     5
 72
     1
  1
3
  7
ONSHAPE-STANDARD
  0
MTEXT
  5
ED
330
1F
100
AcDbEntity
  8
BORDER_ZONES
100
AcDbMText
 10
245.5
 20
292.0
 30
0.0
 40
6.0
 41
0.0
 71
     5
 72
     1
  1
3
  7
ONSHAPE-STANDARD
  0
LINE
  5
EE
330
1F
100
AcDbEntity
  8
BORDER_ZONES
100
AcDbLine
 10
280.5
 20
10.0
 30
0.0
 11
280.5
 21
0.5
 31
0.0
  0
LINE
  5
EF
330
1F
100
AcDbEntity
  8
BORDER_ZONES
100
AcDbLine
 10
280.5
 20
287.0
 30
0.0
 11
280.5
 21
296.5
 31
0.0
  0
MTEXT
  5
F0
330
1F
100
AcDbEntity
  8
BORDER_ZONES
100
AcDbMText
 10
315.5
 20
5.0
 30
0.0
 40
6.0
 41
0.0
 71
     5
 72
     1
  1
2
  7
ONSHAPE-STANDARD
  0
MTEXT
  5
F1
330
1F
100
AcDbEntity
  8
BORDER_ZONES
100
AcDbMText
 10
315.5
 20
292.0
 30
0.0
 40
6.0
 41
0.0
 71
     5
 72
     1
  1
2
  7
ONSHAPE-STANDARD
  0
LINE
  5
F2
330
1F
100
AcDbEntity
  8
BORDER_ZONES
100
AcDbLine
 10
350.5
 20
10.0
 30
0.0
 11
350.5
 21
0.5
 31
0.0
  0
LINE
  5
F3
330
1F
100
AcDbEntity
  8
BORDER_ZONES
100
AcDbLine
 10
350.5
 20
287.0
 30
0.0
 11
350.5
 21
296.5
 31
0.0
  0
MTEXT
  5
F4
330
1F
100
AcDbEntity
  8
BORDER_ZONES
100
AcDbMText
 10
385.5
 20
5.0
 30
0.0
 40
6.0
 41
0.0
 71
     5
 72
     1
  1
1
  7
ONSHAPE-STANDARD
  0
MTEXT
  5
F5
330
1F
100
AcDbEntity
  8
BORDER_ZONES
100
AcDbMText
 10
385.5
 20
292.0
 30
0.0
 40
6.0
 41
0.0
 71
     5
 72
     1
  1
1
  7
ONSHAPE-STANDARD
  0
LINE
  5
F6
330
1F
100
AcDbEntity
  8
BORDER_ZONES
100
AcDbLine
 10
10.5
 20
74.5
 30
0.0
 11
1.0
 21
74.5
 31
0.0
  0
LINE
  5
F7
330
1F
100
AcDbEntity
  8
BORDER_ZONES
100
AcDbLine
 10
410.5
 20
74.5
 30
0.0
 11
420.0
 21
74.5
 31
0.0
  0
MTEXT
  5
F8
330
1F
100
AcDbEntity
  8
BORDER_ZONES
100
AcDbMText
 10
5.5
 20
37.5
 30
0.0
 40
6.0
 41
0.0
 71
     5
 72
     1
  1
A
  7
ONSHAPE-STANDARD
  0
MTEXT
  5
F9
330
1F
100
AcDbEntity
  8
BORDER_ZONES
100
AcDbMText
 10
415.5
 20
37.5
 30
0.0
 40
6.0
 41
0.0
 71
     5
 72
     1
  1
A
  7
ONSHAPE-STANDARD
  0
MTEXT
  5
FA
330
1F
100
AcDbEntity
  8
BORDER_ZONES
100
AcDbMText
 10
5.5
 20
111.5
 30
0.0
 40
6.0
 41
0.0
 71
     5
 72
     1
  1
B
  7
ONSHAPE-STANDARD
  0
MTEXT
  5
FB
330
1F
100
AcDbEntity
  8
BORDER_ZONES
100
AcDbMText
 10
415.5
 20
111.5
 30
0.0
 40
6.0
 41
0.0
 71
     5
 72
     1
  1
B
  7
ONSHAPE-STANDARD
  0
LINE
  5
FC
330
1F
100
AcDbEntity
  8
BORDER_ZONES
100
AcDbLine
 10
10.5
 20
148.5
 30
0.0
 11
1.0
 21
148.5
 31
0.0
  0
LINE
  5
FD
330
1F
100
AcDbEntity
  8
BORDER_ZONES
100
AcDbLine
 10
410.5
 20
148.5
 30
0.0
 11
420.0
 21
148.5
 31
0.0
  0
MTEXT
  5
FE
330
1F
100
AcDbEntity
  8
BORDER_ZONES
100
AcDbMText
 10
5.5
 20
185.5
 30
0.0
 40
6.0
 41
0.0
 71
     5
 72
     1
  1
C
  7
ONSHAPE-STANDARD
  0
MTEXT
  5
FF
330
1F
100
AcDbEntity
  8
BORDER_ZONES
100
AcDbMText
 10
415.5
 20
185.5
 30
0.0
 40
6.0
 41
0.0
 71
     5
 72
     1
  1
C
  7
ONSHAPE-STANDARD
  0
LINE
  5
100
330
1F
100
AcDbEntity
  8
BORDER_ZONES
100
AcDbLine
 10
10.5
 20
222.5
 30
0.0
 11
1.0
 21
222.5
 31
0.0
  0
LINE
  5
101
330
1F
100
AcDbEntity
  8
BORDER_ZONES
100
AcDbLine
 10
410.5
 20
222.5
 30
0.0
 11
420.0
 21
222.5
 31
0.0
  0
MTEXT
  5
102
330
1F
100
AcDbEntity
  8
BORDER_ZONES
100
AcDbMText
 10
5.5
 20
259.5
 30
0.0
 40
6.0
 41
0.0
 71
     5
 72
     1
  1
D
  7
ONSHAPE-STANDARD
  0
MTEXT
  5
103
330
1F
100
AcDbEntity
  8
BORDER_ZONES
100
AcDbMText
 10
415.5
 20
259.5
 30
0.0
 40
6.0
 41
0.0
 71
     5
 72
     1
  1
D
  7
ONSHAPE-STANDARD
  0
LINE
  5
104
330
1F
100
AcDbEntity
  8
TITLE_BLOCK
100
AcDbLine
 10
194.6
 20
10.0
 30
0.0
 11
194.6
 21
60.8
 31
0.0
  0
LINE
  5
106
330
1F
100
AcDbEntity
  8
TITLE_BLOCK
100
AcDbLine
 10
194.6
 20
10.0
 30
0.0
 11
235.24
 21
10.0
 31
0.0
  0
LINE
  5
107
330
1F
100
AcDbEntity
  8
TITLE_BLOCK
100
AcDbLine
 10
194.6
 20
20.16
 30
0.0
 11
235.24
 21
20.16
 31
0.0
  0
LINE
  5
108
330
1F
100
AcDbEntity
  8
TITLE_BLOCK
100
AcDbLine
 10
194.6
 20
24.224
 30
0.0
 11
235.24
 21
24.224
 31
0.0
  0
LINE
  5
109
330
1F
100
AcDbEntity
  8
TITLE_BLOCK
100
AcDbLine
 10
194.6
 20
31.1328
 30
0.0
 11
235.24
 21
31.1328
 31
0.0
  0
LINE
  5
10A
330
1F
100
AcDbEntity
  8
TITLE_BLOCK
100
AcDbLine
 10
194.6
 20
37.0256
 30
0.0
 11
235.24
 21
37.0256
 31
0.0
  0
LINE
  5
10B
330
1F
100
AcDbEntity
  8
TITLE_BLOCK
100
AcDbLine
 10
194.6
 20
60.8
 30
0.0
 11
235.24
 21
60.8
 31
0.0
  0
MTEXT
  5
10C
330
1F
100
AcDbEntity
  8
TITLE_BLOCK
100
AcDbMText
 10
195.49408
 20
59.33696
 30
0.0
 40
1.6256
 41
39.82720000000001
 71
     1
 72
     1
  1
UNLESS OTHERWISE SPECIFIED, DIMENSIONS ARE IN MILLIMETERS
  7
ONSHAPE-STANDARD
  0
MTEXT
  5
10D
330
1F
100
AcDbEntity
  8
TITLE_BLOCK
100
AcDbMText
 10
215.724672
 20
53.38726400000001
 30
0.0
 40
1.46304
 41
19.91360000000002
 71
     1
 72
     1
  1
^JANGULAR = ± °^J
  7
ONSHAPE-STANDARD
  0
MTEXT
  5
10E
330
1F
100
AcDbEntity
  8
TITLE_BLOCK
100
AcDbMText
 10
195.49408
 20
43.48736
 30
0.0
 40
1.6256
 41
19.91359999999999
 71
     1
 72
     1
  1
SURFACE FINISH
  7
ONSHAPE-STANDARD
  0
LINE
  5
10F
330
1F
100
AcDbEntity
  8
TITLE_BLOCK
100
AcDbLine
 10
212.888
 20
41.0896
 30
0.0
 11
213.904
 21
39.32983637951002
 31
0.0
  0
LINE
  5
110
330
1F
100
AcDbEntity
  8
TITLE_BLOCK
100
AcDbLine
 10
213.904
 20
39.32983637951002
 30
0.0
 11
216.0376
 21
43.02533998253897
 31
0.0
  0
LINE
  5
111
330
1F
100
AcDbEntity
  8
TITLE_BLOCK
100
AcDbLine
 10
216.0376
 20
43.02533998253897
 30
0.0
 11
218.2728
 21
43.02533998253897
 31
0.0
  0
MTEXT
  5
112
330
1F
100
AcDbEntity
  8
TITLE_BLOCK
100
AcDbMText
 10
214.92
 20
35.123648
 30
0.0
 40
2.11328
 41
39.82720000000001
 71
     2
 72
     1
  1
DO NOT SCALE DRAWING
  7
ONSHAPE-STANDARD
  0
MTEXT
  5
113
330
1F
100
AcDbEntity
  8
TITLE_BLOCK
100
AcDbMText
 10
214.92
 20
29.66976
 30
0.0
 40
1.6256
 41
39.82720000000001
 71
     2
 72
     1
  1
BREAK ALL SHARP EDGES AND REMOVE BURRS
  7
ONSHAPE-STANDARD
  0
CIRCLE
  5
114
330
1F
100
AcDbEntity
  8
TITLE_BLOCK
100
AcDbCircle
 10
219.492
 20
15.03936
 30
0.0
 40
1.8288
  0
CIRCLE
  5
115
330
1F
100
AcDbEntity
  8
TITLE_BLOCK
100
AcDbCircle
 10
219.492
 20
15.03936
 30
0.0
 40
3.6576
  0
LINE
  5
116
330
1F
100
AcDbEntity
  8
TITLE_BLOCK
100
AcDbLine
 10
220.4064
 20
15.03936
 30
0.0
 11
218.5776
 21
15.03936
 31
0.0
  0
LINE
  5
117
330
1F
100
AcDbEntity
  8
TITLE_BLOCK
100
AcDbLine
 10
219.492
 20
15.95376
 30
0.0
 11
219.492
 21
14.12496
 31
0.0
  0
LINE
  5
118
330
1F
100
AcDbEntity
  8
TITLE_BLOCK
100
AcDbLine
 10
221.3208
 20
15.03936
 30
0.0
 11
224.064
 21
15.03936
 31
0.0
  0
LINE
  5
119
330
1F
100
AcDbEntity
  8
TITLE_BLOCK
100
AcDbLine
 10
219.492
 20
16.86816
 30
0.0
 11
219.492
 21
19.61136
 31
0.0
  0
LINE
  5
11A
330
1F
100
AcDbEntity
  8
TITLE_BLOCK
100
AcDbLine
 10
217.6632
 20
15.03936
 30
0.0
 11
214.92
 21
15.03936
 31
0.0
  0
LINE
  5
11B
330
1F
100
AcDbEntity
  8
TITLE_BLOCK
100
AcDbLine
 10
219.492
 20
13.21056
 30
0.0
 11
219.492
 21
10.46736
 31
0.0
  0
LINE
  5
11C
330
1F
100
AcDbEntity
  8
TITLE_BLOCK
100
AcDbLine
 10
214.0056
 20
11.38176
 30
0.0
 11
214.0056
 21
18.69696
 31
0.0
  0
LINE
  5
11D
330
1F
100
AcDbEntity
  8
TITLE_BLOCK
100
AcDbLine
 10
214.0056
 20
18.69696
 30
0.0
 11
206.6904
 21
16.86816
 31
0.0
  0
LINE
  5
11E
330
1F
100
AcDbEntity
  8
TITLE_BLOCK
100
AcDbLine
 10
206.6904
 20
16.86816
 30
0.0
 11
206.6904
 21
13.21056
 31
0.0
  0
LINE
  5
11F
330
1F
100
AcDbEntity
  8
TITLE_BLOCK
100
AcDbLine
 10
206.6904
 20
13.21056
 30
0.0
 11
214.0056
 21
11.38176
 31
0.0
  0
LINE
  5
120
330
1F
100
AcDbEntity
  8
TITLE_BLOCK
100
AcDbLine
 10
211.2624
 20
15.03936
 30
0.0
 11
214.4628
 21
15.03936
 31
0.0
  0
LINE
  5
121
330
1F
100
AcDbEntity
  8
TITLE_BLOCK
100
AcDbLine
 10
210.71376
 20
15.03936
 30
0.0
 11
209.98224
 21
15.03936
 31
0.0
  0
LINE
  5
122
330
1F
100
AcDbEntity
  8
TITLE_BLOCK
100
AcDbLine
 10
209.4336
 20
15.03936
 30
0.0
 11
206.2332
 21
15.03936
 31
0.0
  0
MTEXT
  5
123
330
1F
100
AcDbEntity
  8
TITLE_BLOCK
100
AcDbMText
 10
214.92
 20
22.76096
 30
0.0
 40
1.6256
 41
39.82720000000001
 71
     2
 72
     1
  1
FIRST ANGLE PROJECTION
  7
ONSHAPE-STANDARD
  0
LINE
  5
124
330
1F
100
AcDbEntity
  8
TITLE_BLOCK
100
AcDbLine
 10
235.24
 20
10.0
 30
0.0
 11
235.24
 21
60.8
 31
0.0
  0
LINE
  5
125
330
1F
100
AcDbEntity
  8
TITLE_BLOCK
100
AcDbLine
 10
253.02
 20
24.224
 30
0.0
 11
253.02
 21
60.8
 31
0.0
  0
LINE
  5
126
330
1F
100
AcDbEntity
  8
TITLE_BLOCK
100
AcDbLine
 10
273.34
 20
24.224
 30
0.0
 11
273.34
 21
60.8
 31
0.0
  0
LINE
  5
127
330
1F
100
AcDbEntity
  8
TITLE_BLOCK
100
AcDbLine
 10
270.8
 20
10.0
 30
0.0
 11
270.8
 21
24.224
 31
0.0
  0
MTEXT
  5
128
330
1F
100
AcDbEntity
  8
TITLE_BLOCK
100
AcDbMText
 10
283.5
 20
59.33696
 30
0.0
 40
1.6256
 41
19.91359999999994
 71
     2
 72
     1
  1
SIGNATURE
  7
ONSHAPE-STANDARD
  0
LINE
  5
129
330
1F
100
AcDbEntity
  8
TITLE_BLOCK
100
AcDbLine
 10
293.66
 20
24.224
 30
0.0
 11
293.66
 21
60.8
 31
0.0
  0
LINE
  5
12A
330
1F
100
AcDbEntity
  8
TITLE_BLOCK
100
AcDbLine
 10
235.24
 20
60.8
 30
0.0
 11
306.36
 21
60.8
 31
0.0
  0
LINE
  5
12B
330
1F
100
AcDbEntity
  8
TITLE_BLOCK
100
AcDbLine
 10
235.24
 20
54.70400000000001
 30
0.0
 11
306.36
 21
54.70400000000001
 31
0.0
  0
LINE
  5
12C
330
1F
100
AcDbEntity
  8
TITLE_BLOCK
100
AcDbLine
 10
235.24
 20
48.608
 30
0.0
 11
306.36
 21
48.608
 31
0.0
  0
LINE
  5
12D
330
1F
100
AcDbEntity
  8
TITLE_BLOCK
100
AcDbLine
 10
235.24
 20
42.512
 30
0.0
 11
306.36
 21
42.512
 31
0.0
  0
LINE
  5
12E
330
1F
100
AcDbEntity
  8
TITLE_BLOCK
100
AcDbLine
 10
235.24
 20
36.416
 30
0.0
 11
306.36
 21
36.416
 31
0.0
  0
LINE
  5
12F
330
1F
100
AcDbEntity
  8
TITLE_BLOCK
100
AcDbLine
 10
235.24
 20
30.32
 30
0.0
 11
306.36
 21
30.32
 31
0.0
  0
LINE
  5
130
330
1F
100
AcDbEntity
  8
TITLE_BLOCK
100
AcDbLine
 10
235.24
 20
24.224
 30
0.0
 11
306.36
 21
24.224
 31
0.0
  0
MTEXT
  5
131
330
1F
100
AcDbEntity
  8
TITLE_BLOCK
100
AcDbMText
 10
253.91408
 20
59.33696
 30
0.0
 40
1.6256
 41
19.91360000000002
 71
     1
 72
     1
  1
NAME
  7
ONSHAPE-STANDARD
  0
MTEXT
  5
132
330
1F
100
AcDbEntity
  8
TITLE_BLOCK
100
AcDbMText
 10
300.01
 20
59.33696
 30
0.0
 40
1.6256
 41
12.44600000000004
 71
     2
 72
     1
  1
DATE
  7
ONSHAPE-STANDARD
  0
MTEXT
  5
133
330
1F
100
AcDbEntity
  8
TITLE_BLOCK
100
AcDbMText
 10
236.13408
 20
53.24096000000001
 30
0.0
 40
1.6256
 41
17.4244
 71
     1
 72
     1
  1
DRAWN
  7
ONSHAPE-STANDARD
  0
MTEXT
  5
134
102
{ACAD_XDICTIONARY
360
135
102
}
330
1F
100
AcDbEntity
  8
TITLE_BLOCK
100
AcDbMText
 10
263.18
 20
51.65600000000001
 30
0.0
 40
1.365504
 41
20.32000000000002
 71
     5
 72
     1
  1
ALEX ZAVARSKY
  7
ONSHAPE-STANDARD-FIELDS
1001
ACAD
1000
ACAD_MTEXT_DEFINED_HEIGHT_BEGIN
1070
    46
1040
6.096000000000011
1000
ACAD_MTEXT_DEFINED_HEIGHT_END
  0
MTEXT
  5
13B
102
{ACAD_XDICTIONARY
360
13C
102
}
330
1F
100
AcDbEntity
  8
TITLE_BLOCK
100
AcDbMText
 10
300.01
 20
51.65600000000001
 30
0.0
 40
1.365504
 41
12.70000000000005
 71
     5
 72
     1
  1
2026-02-22
  7
ONSHAPE-STANDARD-FIELDS
1001
ACAD
1000
ACAD_MTEXT_DEFINED_HEIGHT_BEGIN
1070
    46
1040
6.096000000000011
1000
ACAD_MTEXT_DEFINED_HEIGHT_END
  0
MTEXT
  5
141
330
1F
100
AcDbEntity
  8
TITLE_BLOCK
100
AcDbMText
 10
236.13408
 20
47.14496
 30
0.0
 40
1.6256
 41
17.4244
 71
     1
 72
     1
  1
CHECKED
  7
ONSHAPE-STANDARD
  0
MTEXT
  5
142
330
1F
100
AcDbEntity
  8
TITLE_BLOCK
100
AcDbMText
 10
263.18
 20
45.56
 30
0.0
 40
1.365504
 41
20.32000000000002
 71
     5
 72
     1
  1
 
  7
ONSHAPE-STANDARD-FIELDS
1001
ACAD
1000
ACAD_MTEXT_DEFINED_HEIGHT_BEGIN
1070
    46
1040
6.095999999999997
1000
ACAD_MTEXT_DEFINED_HEIGHT_END
  0
MTEXT
  5
143
330
1F
100
AcDbEntity
  8
TITLE_BLOCK
100
AcDbMText
 10
300.01
 20
45.56
 30
0.0
 40
1.365504
 41
12.70000000000005
 71
     5
 72
     1
  1
 
  7
ONSHAPE-STANDARD-FIELDS
1001
ACAD
1000
ACAD_MTEXT_DEFINED_HEIGHT_BEGIN
1070
    46
1040
6.095999999999997
1000
ACAD_MTEXT_DEFINED_HEIGHT_END
  0
MTEXT
  5
144
330
1F
100
AcDbEntity
  8
TITLE_BLOCK
100
AcDbMText
 10
236.13408
 20
41.04896
 30
0.0
 40
1.6256
 41
17.4244
 71
     1
 72
     1
  1
APPROVED
  7
ONSHAPE-STANDARD
  0
MTEXT
  5
145
102
{ACAD_XDICTIONARY
360
146
102
}
330
1F
100
AcDbEntity
  8
TITLE_BLOCK
100
AcDbMText
 10
263.18
 20
39.464
 30
0.0
 40
1.365504
 41
20.32000000000002
 71
     5
 72
     1
  1
----
  7
ONSHAPE-STANDARD-FIELDS
1001
ACAD
1000
ACAD_MTEXT_DEFINED_HEIGHT_BEGIN
1070
    46
1040
6.096000000000004
1000
ACAD_MTEXT_DEFINED_HEIGHT_END
  0
MTEXT
  5
14B
102
{ACAD_XDICTIONARY
360
14C
102
}
330
1F
100
AcDbEntity
  8
TITLE_BLOCK
100
AcDbMText
 10
300.01
 20
39.464
 30
0.0
 40
1.365504
 41
12.70000000000005
 71
     5
 72
     1
  1
----
  7
ONSHAPE-STANDARD-FIELDS
1001
ACAD
1000
ACAD_MTEXT_DEFINED_HEIGHT_BEGIN
1070
    46
1040
6.096000000000004
1000
ACAD_MTEXT_DEFINED_HEIGHT_END
  0
MTEXT
  5
151
330
1F
100
AcDbEntity
  8
TITLE_BLOCK
100
AcDbMText
 10
244.13
 20
33.36799999999999
 30
0.0
 40
2.4384
 41
17.78
 71
     5
 72
     1
  1
 
  7
ONSHAPE-STANDARD-FIELDS
1001
ACAD
1000
ACAD_MTEXT_DEFINED_HEIGHT_BEGIN
1070
    46
1040
6.095999999999997
1000
ACAD_MTEXT_DEFINED_HEIGHT_END
  0
MTEXT
  5
152
330
1F
100
AcDbEntity
  8
TITLE_BLOCK
100
AcDbMText
 10
263.18
 20
33.36799999999999
 30
0.0
 40
1.365504
 41
20.32000000000002
 71
     5
 72
     1
  1
 
  7
ONSHAPE-STANDARD-FIELDS
1001
ACAD
1000
ACAD_MTEXT_DEFINED_HEIGHT_BEGIN
1070
    46
1040
6.095999999999997
1000
ACAD_MTEXT_DEFINED_HEIGHT_END
  0
MTEXT
  5
153
330
1F
100
AcDbEntity
  8
TITLE_BLOCK
100
AcDbMText
 10
300.01
 20
33.36799999999999
 30
0.0
 40
1.365504
 41
12.70000000000005
 71
     5
 72
     1
  1
 
  7
ONSHAPE-STANDARD-FIELDS
1001
ACAD
1000
ACAD_MTEXT_DEFINED_HEIGHT_BEGIN
1070
    46
1040
6.095999999999997
1000
ACAD_MTEXT_DEFINED_HEIGHT_END
  0
MTEXT
  5
154
330
1F
100
AcDbEntity
  8
TITLE_BLOCK
100
AcDbMText
 10
244.13
 20
27.272
 30
0.0
 40
2.4384
 41
17.78
 71
     5
 72
     1
  1
 
  7
ONSHAPE-STANDARD-FIELDS
1001
ACAD
1000
ACAD_MTEXT_DEFINED_HEIGHT_BEGIN
1070
    46
1040
6.096000000000004
1000
ACAD_MTEXT_DEFINED_HEIGHT_END
  0
MTEXT
  5
155
330
1F
100
AcDbEntity
  8
TITLE_BLOCK
100
AcDbMText
 10
263.18
 20
27.272
 30
0.0
 40
1.365504
 41
20.32000000000002
 71
     5
 72
     1
  1
 
  7
ONSHAPE-STANDARD-FIELDS
1001
ACAD
1000
ACAD_MTEXT_DEFINED_HEIGHT_BEGIN
1070
    46
1040
6.096000000000004
1000
ACAD_MTEXT_DEFINED_HEIGHT_END
  0
MTEXT
  5
156
330
1F
100
AcDbEntity
  8
TITLE_BLOCK
100
AcDbMText
 10
300.01
 20
27.272
 30
0.0
 40
1.365504
 41
12.70000000000005
 71
     5
 72
     1
  1
 
  7
ONSHAPE-STANDARD-FIELDS
1001
ACAD
1000
ACAD_MTEXT_DEFINED_HEIGHT_BEGIN
1070
    46
1040
6.096000000000004
1000
ACAD_MTEXT_DEFINED_HEIGHT_END
  0
MTEXT
  5
157
330
1F
100
AcDbEntity
  8
TITLE_BLOCK
100
AcDbMText
 10
236.13408
 20
22.76096
 30
0.0
 40
1.6256
 41
34.8488
 71
     1
 72
     1
  1
MATERIAL
  7
ONSHAPE-STANDARD
  0
MTEXT
  5
158
330
1F
100
AcDbEntity
  8
TITLE_BLOCK
100
AcDbMText
 10
253.02
 20
17.112
 30
0.0
 40
2.4384
 41
35.56
 71
     5
 72
     1
  1
 
  7
ONSHAPE-STANDARD-FIELDS
1001
ACAD
1000
ACAD_MTEXT_DEFINED_HEIGHT_BEGIN
1070
    46
1040
14.224
1000
ACAD_MTEXT_DEFINED_HEIGHT_END
  0
MTEXT
  5
159
330
1F
100
AcDbEntity
  8
TITLE_BLOCK
100
AcDbMText
 10
271.69408
 20
22.76096
 30
0.0
 40
1.6256
 41
34.8488
 71
     1
 72
     1
  1
FINISH
  7
ONSHAPE-STANDARD
  0
MTEXT
  5
15A
330
1F
100
AcDbEntity
  8
TITLE_BLOCK
100
AcDbMText
 10
288.58
 20
17.112
 30
0.0
 40
2.4384
 41
35.56
 71
     5
 72
     1
  1
 
  7
ONSHAPE-STANDARD-FIELDS
1001
ACAD
1000
ACAD_MTEXT_DEFINED_HEIGHT_BEGIN
1070
    46
1040
14.224
1000
ACAD_MTEXT_DEFINED_HEIGHT_END
  0
LINE
  5
15B
330
1F
100
AcDbEntity
  8
TITLE_BLOCK
100
AcDbLine
 10
306.36
 20
10.0
 30
0.0
 11
306.36
 21
60.8
 31
0.0
  0
LINE
  5
15C
330
1F
100
AcDbEntity
  8
TITLE_BLOCK
100
AcDbLine
 10
319.06
 20
16.604
 30
0.0
 11
319.06
 21
26.764
 31
0.0
  0
LINE
  5
15D
330
1F
100
AcDbEntity
  8
TITLE_BLOCK
100
AcDbLine
 10
328.712
 20
10.0
 30
0.0
 11
328.712
 21
16.604
 31
0.0
  0
LINE
  5
15E
330
1F
100
AcDbEntity
  8
TITLE_BLOCK
100
AcDbLine
 10
374.94
 20
10.0
 30
0.0
 11
374.94
 21
16.604
 31
0.0
  0
LINE
  5
15F
330
1F
100
AcDbEntity
  8
TITLE_BLOCK
100
AcDbLine
 10
400.34
 20
16.604
 30
0.0
 11
400.34
 21
26.764
 31
0.0
  0
LINE
  5
160
330
1F
100
AcDbEntity
  8
TITLE_BLOCK
100
AcDbLine
 10
306.36
 20
16.604
 30
0.0
 11
410.5
 21
16.604
 31
0.0
  0
LINE
  5
161
330
1F
100
AcDbEntity
  8
TITLE_BLOCK
100
AcDbLine
 10
306.36
 20
26.764
 30
0.0
 11
410.5
 21
26.764
 31
0.0
  0
LINE
  5
162
330
1F
100
AcDbEntity
  8
TITLE_BLOCK
100
AcDbLine
 10
306.36
 20
48.1
 30
0.0
 11
410.5
 21
48.1
 31
0.0
  0
LINE
  5
163
330
1F
100
AcDbEntity
  8
TITLE_BLOCK
100
AcDbLine
 10
306.36
 20
60.8
 30
0.0
 11
410.5
 21
60.8
 31
0.0
  0
MTEXT
  5
164
330
1F
100
AcDbEntity
  8
TITLE_BLOCK
100
AcDbMText
 10
307.25408
 20
46.63696
 30
0.0
 40
1.6256
 41
12.44599999999999
 71
     1
 72
     1
  1
TITLE
  7
ONSHAPE-STANDARD
  0
MTEXT
  5
165
102
{ACAD_XDICTIONARY
360
166
102
}
330
1F
100
AcDbEntity
  8
TITLE_BLOCK
100
AcDbMText
 10
358.43
 20
44.036
 30
0.0
 40
3.90144
 41
93.97999999999999
 71
     5
 72
     1
  1
----
  7
ONSHAPE-STANDARD-FIELDS
1001
ACAD
1000
ACAD_MTEXT_DEFINED_HEIGHT_BEGIN
1070
    46
1040
6.4008
1000
ACAD_MTEXT_DEFINED_HEIGHT_END
  0
MTEXT
  5
16B
102
{ACAD_XDICTIONARY
360
16C
102
}
330
1F
100
AcDbEntity
  8
TITLE_BLOCK
100
AcDbMText
 10
358.43
 20
37.6352
 30
0.0
 40
3.90144
 41
93.98000000000002
 71
     5
 72
     1
  1
Gestell
  7
ONSHAPE-STANDARD-FIELDS
1001
ONSHAPE_NOTES_REORDERING_D
1071
        0
1070
     0
1001
ACAD
1000
ACAD_MTEXT_DEFINED_HEIGHT_BEGIN
1070
    46
1040
3.954593133514987
1000
ACAD_MTEXT_DEFINED_HEIGHT_END
  0
MTEXT
  5
16F
102
{ACAD_XDICTIONARY
360
170
102
}
330
1F
100
AcDbEntity
  8
TITLE_BLOCK
100
AcDbMText
 10
358.43
 20
31.2344
 30
0.0
 40
3.90144
 41
93.98000000000002
 71
     5
 72
     1
  1
BfG
  7
ONSHAPE-STANDARD-FIELDS
1001
ONSHAPE_NOTES_REORDERING_D
1071
        0
1070
     0
1001
ACAD
1000
ACAD_MTEXT_DEFINED_HEIGHT_BEGIN
1070
    46
1040
3.954593133514987
1000
ACAD_MTEXT_DEFINED_HEIGHT_END
  0
MTEXT
  5
171
330
1F
100
AcDbEntity
  8
TITLE_BLOCK
100
AcDbMText
 10
307.075264
 20
25.593568
 30
0.0
 40
1.30048
 41
12.44599999999999
 71
     1
 72
     1
  1
SIZE
  7
ONSHAPE-STANDARD
  0
MTEXT
  5
172
102
{ACAD_XDICTIONARY
360
173
102
}
330
1F
100
AcDbEntity
  8
TITLE_BLOCK
100
AcDbMText
 10
312.71
 20
21.684
 30
0.0
 40
4.8768
 41
12.69999999999999
 71
     5
 72
     1
  1
A3
  7
ONSHAPE-STANDARD-FIELDS
1001
ACAD
1000
ACAD_MTEXT_DEFINED_HEIGHT_BEGIN
1070
    46
1040
10.16
1000
ACAD_MTEXT_DEFINED_HEIGHT_END
  0
MTEXT
  5
178
330
1F
100
AcDbEntity
  8
TITLE_BLOCK
100
AcDbMText
 10
319.775264
 20
25.593568
 30
0.0
 40
1.30048
 41
79.65439999999997
 71
     1
 72
     1
  1
DWG NO.
  7
ONSHAPE-STANDARD
  0
MTEXT
  5
179
102
{ACAD_XDICTIONARY
360
17A
102
}
330
1F
100
AcDbEntity
  8
TITLE_BLOCK
100
AcDbMText
 10
359.7
 20
21.684
 30
0.0
 40
4.8768
 41
81.27999999999997
 71
     5
 72
     1
  1
----
  7
ONSHAPE-STANDARD-FIELDS
1001
ACAD
1000
ACAD_MTEXT_DEFINED_HEIGHT_BEGIN
1070
    46
1040
10.16
1000
ACAD_MTEXT_DEFINED_HEIGHT_END
  0
MTEXT
  5
17F
330
1F
100
AcDbEntity
  8
TITLE_BLOCK
100
AcDbMText
 10
401.055264
 20
25.593568
 30
0.0
 40
1.30048
 41
9.956800000000024
 71
     1
 72
     1
  1
REV.
  7
ONSHAPE-STANDARD
  0
MTEXT
  5
180
102
{ACAD_XDICTIONARY
360
181
102
}
330
1F
100
AcDbEntity
  8
TITLE_BLOCK
100
AcDbMText
 10
405.928
 20
21.684
 30
0.0
 40
4.8768
 41
9.144000000000005
 71
     5
 72
     1
  1
-
  7
ONSHAPE-STANDARD-FIELDS
1001
ACAD
1000
ACAD_MTEXT_DEFINED_HEIGHT_BEGIN
1070
    46
1040
10.16
1000
ACAD_MTEXT_DEFINED_HEIGHT_END
  0
MTEXT
  5
186
330
1F
100
AcDbEntity
  8
TITLE_BLOCK
100
AcDbMText
 10
307.075264
 20
15.433568
 30
0.0
 40
1.30048
 41
21.90495999999997
 71
     1
 72
     1
  1
SCALE
  7
ONSHAPE-STANDARD
  0
MTEXT
  5
187
102
{ACAD_XDICTIONARY
360
188
102
}
330
1F
100
AcDbEntity
  8
TITLE_BLOCK
100
AcDbMText
 10
318.552
 20
13.302
 30
0.0
 40
2.92608
 41
20.31999999999999
 71
     5
 72
     1
  1
1:10
  7
ONSHAPE-STANDARD-FIELDS
1001
ACAD
1000
ACAD_MTEXT_DEFINED_HEIGHT_BEGIN
1070
    46
1040
6.603999999999999
1000
ACAD_MTEXT_DEFINED_HEIGHT_END
  0
MTEXT
  5
18D
330
1F
100
AcDbEntity
  8
TITLE_BLOCK
100
AcDbMText
 10
329.427264
 20
15.433568
 30
0.0
 40
1.30048
 41
45.30344000000001
 71
     1
 72
     1
  1
WEIGHT
  7
ONSHAPE-STANDARD
  0
MTEXT
  5
18E
330
1F
100
AcDbEntity
  8
TITLE_BLOCK
100
AcDbMText
 10
351.826
 20
13.302
 30
0.0
 40
2.92608
 41
46.22800000000001
 71
     5
 72
     1
  1
 
  7
ONSHAPE-STANDARD-FIELDS
1001
ACAD
1000
ACAD_MTEXT_DEFINED_HEIGHT_BEGIN
1070
    46
1040
6.603999999999999
1000
ACAD_MTEXT_DEFINED_HEIGHT_END
  0
MTEXT
  5
18F
330
1F
100
AcDbEntity
  8
TITLE_BLOCK
100
AcDbMText
 10
375.655264
 20
15.433568
 30
0.0
 40
1.30048
 41
34.8488
 71
     1
 72
     1
  1
SHEET
  7
ONSHAPE-STANDARD
  0
MTEXT
  5
190
102
{ACAD_XDICTIONARY
360
191
102
}
330
1F
100
AcDbEntity
  8
TITLE_BLOCK
100
AcDbMText
 10
393.736
 20
13.302
 30
0.0
 40
2.92608
 41
33.52800000000002
 71
     5
 72
     1
  1
1 of 1
  7
ONSHAPE-STANDARD-FIELDS
1001
ACAD
1000
ACAD_MTEXT_DEFINED_HEIGHT_BEGIN
1070
    46
1040
6.603999999999999
1000
ACAD_MTEXT_DEFINED_HEIGHT_END
  0
MTEXT
  5
196
102
{ACAD_XDICTIONARY
360
197
102
}
330
1F
100
AcDbEntity
  8
ANNOTATION_TEXT
 62
     7
 60
     1
100
AcDbMText
 10
89.22208294762584
 20
96.4159342521182
 30
0.0
 40
3.5
 41
0.0
 71
     2
 72
     1
  1

  7
ONSHAPE-STANDARD-VIEW-LABE
1001
ACAD
1000
ACAD_MTEXT_DEFINED_HEIGHT_BEGIN
1070
    46
1040
3.5
1000
ACAD_MTEXT_DEFINED_HEIGHT_END
  0
LINE
  5
1A1
330
1F
100
AcDbEntity
  8
CENTERMARKS
  6
CONTINUOUS
100
AcDbLine
 10
191.2104221762297
 20
254.3838442301677
 30
0.0
 11
191.5254221762297
 21
254.3838442301677
 31
0.0
  0
LINE
  5
1A2
330
1F
100
AcDbEntity
  8
CENTERMARKS
  6
CONTINUOUS
100
AcDbLine
 10
191.3679221762297
 20
254.2263442301677
 30
0.0
 11
191.3679221762297
 21
254.5413442301677
 31
0.0
  0
LINE
  5
1A3
330
1F
100
AcDbEntity
  8
CENTERMARKS
  6
CENTER
100
AcDbLine
 10
191.0529221762297
 20
254.3838442301677
 30
0.0
 11
190.6029221762298
 21
254.3838442301677
 31
0.0
  0
LINE
  5
1A4
330
1F
100
AcDbEntity
  8
CENTERMARKS
  6
CENTER
100
AcDbLine
 10
191.6829221762297
 20
254.3838442301677
 30
0.0
 11
192.1329221762297
 21
254.3838442301677
 31
0.0
  0
LINE
  5
1A5
330
1F
100
AcDbEntity
  8
CENTERMARKS
  6
CENTER
100
AcDbLine
 10
191.3679221762297
 20
254.6988442301677
 30
0.0
 11
191.3679221762297
 21
255.1488442301677
 31
0.0
  0
LINE
  5
1A6
330
1F
100
AcDbEntity
  8
CENTERMARKS
  6
CENTER
100
AcDbLine
 10
191.3679221762297
 20
254.0688442301677
 30
0.0
 11
191.3679221762297
 21
253.6188442301677
 31
0.0
  0
MTEXT
  5
1A7
102
{ACAD_XDICTIONARY
360
1A8
102
}
330
1F
100
AcDbEntity
  8
ANNOTATION_TEXT
 62
     7
 60
     1
100
AcDbMText
 10
191.3679221762297
 20
95.1188442301677
 30
0.0
 40
3.5
 41
0.0
 71
     2
 72
     1
  1

  7
ONSHAPE-STANDARD-VIEW-LABE
1001
ACAD
1000
ACAD_MTEXT_DEFINED_HEIGHT_BEGIN
1070
    46
1040
3.5
1000
ACAD_MTEXT_DEFINED_HEIGHT_END
  0
LINE
  5
1B2
330
1F
100
AcDbEntity
  8
CENTERMARKS
  6
CONTINUOUS
100
AcDbLine
 10
321.1240143932328
 20
208.6484621856411
 30
0.0
 11
323.6240143932328
 21
208.6484621856411
 31
0.0
  0
LINE
  5
1B3
330
1F
100
AcDbEntity
  8
CENTERMARKS
  6
CONTINUOUS
100
AcDbLine
 10
322.3740143932328
 20
207.3984621856411
 30
0.0
 11
322.3740143932328
 21
209.8984621856411
 31
0.0
  0
LINE
  5
1B4
330
1F
100
AcDbEntity
  8
CENTERMARKS
  6
CENTER
100
AcDbLine
 10
319.8740143932328
 20
208.6484621856411
 30
0.0
 11
299.2740143932327
 21
208.6484621856411
 31
0.0
  0
LINE
  5
1B5
330
1F
100
AcDbEntity
  8
CENTERMARKS
  6
CENTER
100
AcDbLine
 10
324.8740143932328
 20
208.6484621856411
 30
0.0
 11
345.4740143932328
 21
208.6484621856411
 31
0.0
  0
LINE
  5
1B6
330
1F
100
AcDbEntity
  8
CENTERMARKS
  6
CENTER
100
AcDbLine
 10
322.3740143932328
 20
211.1484621856411
 30
0.0
 11
322.3740143932328
 21
231.7484621856411
 31
0.0
  0
LINE
  5
1B7
330
1F
100
AcDbEntity
  8
CENTERMARKS
  6
CENTER
100
AcDbLine
 10
322.3740143932328
 20
206.1484621856411
 30
0.0
 11
322.3740143932328
 21
185.5484621856411
 31
0.0
  0
MTEXT
  5
1B8
102
{ACAD_XDICTIONARY
360
1B9
102
}
330
1F
100
AcDbEntity
  8
ANNOTATION_TEXT
 62
     7
 60
     1
100
AcDbMText
 10
322.3740143932328
 20
176.6484621856411
 30
0.0
 40
3.5
 41
0.0
 71
     2
 72
     1
  1

  7
ONSHAPE-STANDARD-VIEW-LABE
1001
ACAD
1000
ACAD_MTEXT_DEFINED_HEIGHT_BEGIN
1070
    46
1040
3.5
1000
ACAD_MTEXT_DEFINED_HEIGHT_END
  0
DIMENSION
  5
1BF
102
{ACAD_REACTORS
102
}
102
{ACAD_XDICTIONARY
360
1C0
102
}
330
1F
100
AcDbEntity
  8
ANNOTATION_TEXT
100
AcDbDimension
  2
*D1
 10
349.8740143932328
 20
242.3728027563548
 30
0.0
 11
322.3740143932328
 21
242.3728027563548
 31
0.0
 70
   161
  3
ONSHAPE-ISO-25$0
100
AcDbAlignedDimension
 13
294.8740143932328
 23
236.1484621856411
 33
30.47509007039537
 14
349.8740143932328
 24
236.1484621856411
 34
30.47509007039537
1001
ACAD
1000
DSTYLE
1002
{
1070
     4
1000
[]
1070
   144
1040
10.0
1070
     3
1000

1070
   288
1070
     1
1002
}
1001
ACAD_DIMASSOC_CALC_DIMLFAC
1040
-10.0
1001
ACAD_DIMASSOC_DIMLFAC
1040
-10.0
1001
ACAD_DIMASSOC_OVERRIDDEN_D
1040
0.0
  0
DIMENSION
  5
1DB
102
{ACAD_REACTORS
330
1F2
102
}
102
{ACAD_XDICTIONARY
360
1DC
102
}
330
1F
100
AcDbEntity
  8
ANNOTATION_TEXT
100
AcDbDimension
  2
*D2
 10
364.5294401066247
 20
181.1484621856411
 30
0.0
 11
364.5294401066247
 21
208.6484621856411
 31
0.0
 70
   161
  3
ONSHAPE-ISO-25$0
100
AcDbAlignedDimension
 13
349.8740143932328
 23
236.1484621856411
 33
30.47509007039537
 14
349.8740143932328
 24
181.1484621856411
 34
30.47509007039537
1001
ACAD
1000
DSTYLE
1002
{
1070
     4
1000
[]
1070
   144
1040
10.0
1070
     3
1000

1070
   288
1070
     1
1002
}
1001
ACAD_DIMASSOC_CALC_DIMLFAC
1040
-10.0
1001
ACAD_DIMASSOC_DIMLFAC
1040
-10.0
1001
ACAD_DIMASSOC_OVERRIDDEN_D
1040
0.0
  0
DIMENSION
  5
1EE
102
{ACAD_REACTORS
330
204
330
215
102
}
102
{ACAD_XDICTIONARY
360
1EF
102
}
330
1F
100
AcDbEntity
  8
ANNOTATION_TEXT
100
AcDbDimension
  2
*D3
 10
310.9997405945221
 20
225.8236156216942
 30
90.47509007039538
 11
354.8012649419959
 21
159.6833138570088
 31
0.0
 70
   163
  3
ONSHAPE-ISO-25$3
100
AcDbDiametricDimension
 15
333.7482881919434
 25
191.4733087495881
 35
90.47509007039538
 40
0.0
1001
ACAD
1000
DSTYLE
1002
{
1070
   287
1070
     3
1070
     4
1000
[]
1070
   144
1040
10.0
1070
   289
1070
     3
1070
   279
1070
     0
1070
   172
1070
     1
1070
     3
1000
%%c<>
1002
}
1001
ACAD_DSTYLE_DIMRADIAL_EXTE
1070
   387
1070
     1
1070
   388
1040
0.0
1070
   390
1040
6.283185307179586
1001
ACAD_DIMASSOC_CALC_DIMLFAC
1040
-10.0
1001
ACAD_DIMASSOC_DIMLFAC
1040
-10.0
1001
ACAD_DIMASSOC_OVERRIDDEN_D
1040
0.0
  0
DIMENSION
  5
200
102
{ACAD_REACTORS
330
215
102
}
102
{ACAD_XDICTIONARY
360
201
102
}
330
1F
100
AcDbEntity
  8
ANNOTATION_TEXT
100
AcDbDimension
  2
*D4
 10
318.5283217807007
 20
228.2752461384418
 30
90.47509007039538
 11
330.9614314190543
 21
164.8219280187745
 31
0.0
 70
   163
  3
ONSHAPE-ISO-25$3
100
AcDbDiametricDimension
 15
326.2197070057648
 25
189.0216782328404
 35
90.47509007039538
 40
0.0
1001
ACAD
1000
DSTYLE
1002
{
1070
   287
1070
     3
1070
     4
1000
[]
1070
   144
1040
10.0
1070
   289
1070
     3
1070
   279
1070
     0
1070
   172
1070
     1
1070
     3
1000
%%c<>
1002
}
1001
ACAD_DSTYLE_DIMRADIAL_EXTE
1070
   387
1070
     1
1070
   388
1040
0.0
1070
   390
1040
6.283185307179586
1001
ACAD_DIMASSOC_CALC_DIMLFAC
1040
-10.0
1001
ACAD_DIMASSOC_DIMLFAC
1040
-10.0
1001
ACAD_DIMASSOC_OVERRIDDEN_D
1040
0.0
  0
DIMENSION
  5
211
102
{ACAD_REACTORS
102
}
102
{ACAD_XDICTIONARY
360
212
102
}
330
1F
100
AcDbEntity
  8
ANNOTATION_TEXT
100
AcDbDimension
  2
*D5
 10
324.008698152459
 20
213.8999199839407
 30
12.97509007039537
 11
309.7519370291433
 21
168.0997589699426
 31
0.0
 70
   163
  3
ONSHAPE-ISO-25$3
100
AcDbDiametricDimension
 15
320.7393306340065
 25
203.3970043873415
 35
12.97509007039537
 40
0.0
1001
ACAD
1000
DSTYLE
1002
{
1070
   287
1070
     3
1070
     4
1000
[]
1070
   144
1040
10.0
1070
   289
1070
     3
1070
   279
1070
     0
1070
   172
1070
     1
1070
     3
1000
%%c<>
1002
}
1001
ACAD_DSTYLE_DIMRADIAL_EXTE
1070
   387
1070
     1
1070
   388
1040
0.0
1070
   390
1040
6.283185307179586
1001
ACAD_DIMASSOC_CALC_DIMLFAC
1040
-10.0
1001
ACAD_DIMASSOC_DIMLFAC
1040
-10.0
1001
ACAD_DIMASSOC_OVERRIDDEN_D
1040
0.0
  0
MTEXT
  5
223
102
{ACAD_REACTORS
102
}
102
{ACAD_XDICTIONARY
360
387
102
}
330
1F
100
AcDbEntity
  8
ANNOTATION_TEXT
100
AcDbMText
 10
12.15398987137463
 20
172.0462746524574
 30
0.0
 40
3.5
 41
48.87125340599455
 71
     4
 72
     1
  1
bottom drain \Padapt to you needs
  7
ONSHAPE-STANDARD-NOTESTYLE
1001
ONSHAPE_NOTES_REORDERING_D
1071
        0
1070
     0
1001
ACAD
1000
ACAD_MTEXT_DEFINED_HEIGHT_BEGIN
1070
    46
1040
7.257493188010899
1000
ACAD_MTEXT_DEFINED_HEIGHT_END
  0
SOLID
  5
22D
330
1F
100
AcDbEntity
  8
ANNOTATION_TEXT
100
AcDbTrace
 10
92.26511798411488
 20
179.5588938360754
 30
0.0
 11
94.72208294762584
 21
180.1809342521182
 31
0.0
 12
92.59966973869693
 22
178.7956641406687
 32
0.0
 13
92.59966973869693
 23
178.7956641406687
 33
0.0
  0
POLYLINE
  5
22E
330
1F
100
AcDbEntity
  8
ANNOTATION_TEXT
100
AcDb2dPolyline
 66
     1
 10
0.0
 20
0.0
 30
-24.10007225077293
210
0.0
220
-0.139250745415085
230
-0.99025715342094
  0
VERTEX
  5
22F
330
22E
100
AcDbEntity
  8
ANNOTATION_TEXT
100
AcDbVertex
100
AcDb2dVertex
 10
94.72208294762584
 20
-178.5647097986432
 30
-24.10007225077293
  0
VERTEX
  5
230
330
22E
100
AcDbEntity
  8
ANNOTATION_TEXT
100
AcDbVertex
100
AcDb2dVertex
 10
62.27524327736918
 20
-164.2021295909875
 30
-24.10007225077293
  0
VERTEX
  5
231
330
22E
100
AcDbEntity
  8
ANNOTATION_TEXT
100
AcDbVertex
100
AcDb2dVertex
 10
12.15398987137463
 20
-164.2021295909875
 30
-24.10007225077293
  0
SEQEND
  5
232
330
22E
100
AcDbEntity
  8
ANNOTATION_TEXT
  0
DIMENSION
  5
233
102
{ACAD_REACTORS
330
254
330
269
330
2BC
102
}
102
{ACAD_XDICTIONARY
360
234
102
}
330
1F
100
AcDbEntity
  8
ANNOTATION_TEXT
100
AcDbDimension
  2
*D6
 10
264.1099286565928
 20
106.0838442301677
 30
0.0
 11
264.1099286565928
 21
165.2292849667102
 31
0.0
 70
   160
  3
ONSHAPE-ISO-25$0
100
AcDbAlignedDimension
 13
211.9679221762297
 23
256.3838442301677
 33
2.039083653604145
 14
218.8679221762297
 24
106.0838442301677
 34
29.53908365360414
 50
90.0
100
AcDbRotatedDimension
1001
ACAD
1000
DSTYLE
1002
{
1070
     4
1000
[]
1070
   144
1040
10.0
1070
     3
1000

1070
   288
1070
     1
1002
}
1001
ACAD_DIMASSOC_CALC_DIMLFAC
1040
-10.0
1001
ACAD_DIMASSOC_DIMLFAC
1040
-10.0
1001
ACAD_DIMASSOC_OVERRIDDEN_D
1040
0.0
  0
DIMENSION
  5
24F
102
{ACAD_REACTORS
330
269
102
}
102
{ACAD_XDICTIONARY
360
250
102
}
330
1F
100
AcDbEntity
  8
ANNOTATION_TEXT
100
AcDbDimension
  2
*D7
 10
254.8388226839766
 20
107.0838442301677
 30
0.0
 11
254.8388226839766
 21
117.2376775790496
 31
0.0
 70
   160
  3
ONSHAPE-ISO-25$0
100
AcDbAlignedDimension
 13
218.8679221762297
 23
106.0838442301677
 33
29.53908365360414
 14
218.8679221762297
 24
107.0838442301677
 34
29.53908365360414
 50
90.0
100
AcDbRotatedDimension
1001
ACAD
1000
DSTYLE
1002
{
1070
     4
1000
[]
1070
   144
1040
10.0
1070
     3
1000

1070
   288
1070
     1
1002
}
1001
ACAD_DIMASSOC_CALC_DIMLFAC
1040
-10.0
1001
ACAD_DIMASSOC_DIMLFAC
1040
-10.0
1001
ACAD_DIMASSOC_OVERRIDDEN_D
1040
0.0
  0
DIMENSION
  5
264
102
{ACAD_REACTORS
330
27C
330
2BC
102
}
102
{ACAD_XDICTIONARY
360
265
102
}
330
1F
100
AcDbEntity
  8
ANNOTATION_TEXT
100
AcDbDimension
  2
*D8
 10
242.0228820747718
 20
106.0838442301677
 30
0.0
 11
242.0228820747718
 21
136.3252486991419
 31
0.0
 70
   160
  3
ONSHAPE-ISO-25$0
100
AcDbAlignedDimension
 13
218.8679221762297
 23
196.3838442301677
 33
29.53908365360415
 14
218.8679221762297
 24
106.0838442301677
 34
29.53908365360414
 50
90.0
100
AcDbRotatedDimension
1001
ACAD
1000
DSTYLE
1002
{
1070
     4
1000
[]
1070
   144
1040
10.0
1070
     3
1000

1070
   288
1070
     1
1002
}
1001
ACAD_DIMASSOC_CALC_DIMLFAC
1040
-10.0
1001
ACAD_DIMASSOC_DIMLFAC
1040
-10.0
1001
ACAD_DIMASSOC_OVERRIDDEN_D
1040
0.0
  0
DIMENSION
  5
277
102
{ACAD_REACTORS
330
2BC
102
}
102
{ACAD_XDICTIONARY
360
278
102
}
330
1F
100
AcDbEntity
  8
ANNOTATION_TEXT
100
AcDbDimension
  2
*D9
 10
237.1146495010338
 20
196.3838442301677
 30
0.0
 11
237.1146495010338
 21
186.202985919541
 31
0.0
 70
   160
  3
ONSHAPE-ISO-25$0
100
AcDbAlignedDimension
 13
218.8679221762297
 23
194.3838442301677
 33
29.53908365360415
 14
218.8679221762297
 24
196.3838442301677
 34
29.53908365360415
 50
90.0
100
AcDbRotatedDimension
1001
ACAD
1000
DSTYLE
1002
{
1070
     4
1000
[]
1070
   144
1040
10.0
1070
     3
1000

1070
   288
1070
     1
1002
}
1001
ACAD_DIMASSOC_CALC_DIMLFAC
1040
-10.0
1001
ACAD_DIMASSOC_DIMLFAC
1040
-10.0
1001
ACAD_DIMASSOC_OVERRIDDEN_D
1040
0.0
  0
DIMENSION
  5
28D
102
{ACAD_REACTORS
102
}
102
{ACAD_XDICTIONARY
360
28E
102
}
330
1F
100
AcDbEntity
  8
ANNOTATION_TEXT
100
AcDbDimension
  2
*D10
 10
165.6179221762297
 20
159.7756932181123
 30
0.0
 11
149.5845019360391
 21
159.7756932181123
 31
0.0
 70
   160
  3
ONSHAPE-ISO-25$0
100
AcDbAlignedDimension
 13
173.1179221762297
 23
159.7756932181123
 33
24.03908365360413
 14
165.6179221762297
 24
159.7756932181123
 34
24.03908365360413
100
AcDbRotatedDimension
1001
ACAD
1000
DSTYLE
1002
{
1070
     4
1000
[]
1070
   144
1040
10.0
1070
     3
1000
%%c<>
1070
   288
1070
     1
1002
}
1001
ACAD_DIMASSOC_CALC_DIMLFAC
1040
-10.0
1001
ACAD_DIMASSOC_DIMLFAC
1040
-10.0
1001
ACAD_DIMASSOC_OVERRIDDEN_D
1040
0.0
  0
DIMENSION
  5
2A1
102
{ACAD_REACTORS
102
}
102
{ACAD_XDICTIONARY
360
2A2
102
}
330
1F
100
AcDbEntity
  8
ANNOTATION_TEXT
100
AcDbDimension
  2
*D11
 10
194.303954274541
 20
152.0838442301677
 30
0.0
 11
194.303954274541
 21
142.0290077179061
 31
0.0
 70
   160
  3
ONSHAPE-ISO-25$0
100
AcDbAlignedDimension
 13
194.303954274541
 23
156.0838442301677
 33
-19.96091634639587
 14
194.303954274541
 24
152.0838442301677
 34
-19.96091634639587
 50
90.0
100
AcDbRotatedDimension
1001
ACAD
1000
DSTYLE
1002
{
1070
     4
1000
[]
1070
   144
1040
10.0
1070
     3
1000
%%c<>
1070
   288
1070
     1
1002
}
1001
ACAD_DIMASSOC_CALC_DIMLFAC
1040
-10.0
1001
ACAD_DIMASSOC_DIMLFAC
1040
-10.0
1001
ACAD_DIMASSOC_OVERRIDDEN_D
1040
0.0
  0
DIMENSION
  5
2B7
102
{ACAD_REACTORS
102
}
102
{ACAD_XDICTIONARY
360
2B8
102
}
330
1F
100
AcDbEntity
  8
ANNOTATION_TEXT
100
AcDbDimension
  2
*D12
 10
260.0197348451445
 20
196.3838442301677
 30
0.0
 11
260.0197348451445
 21
208.0399801932028
 31
0.0
 70
   160
  3
ONSHAPE-ISO-25$0
100
AcDbAlignedDimension
 13
211.9679221762297
 23
256.3838442301677
 33
2.039083653604145
 14
218.8679221762297
 24
196.3838442301677
 34
29.53908365360415
 50
90.0
100
AcDbRotatedDimension
1001
ACAD
1000
DSTYLE
1002
{
1070
     4
1000
[]
1070
   144
1040
10.0
1070
     3
1000

1070
   288
1070
     1
1002
}
1001
ACAD_DIMASSOC_CALC_DIMLFAC
1040
-10.0
1001
ACAD_DIMASSOC_DIMLFAC
1040
-10.0
1001
ACAD_DIMASSOC_OVERRIDDEN_D
1040
0.0
  0
MTEXT
  5
2CB
102
{ACAD_REACTORS
102
}
102
{ACAD_XDICTIONARY
360
389
102
}
330
1F
100
AcDbEntity
  8
ANNOTATION_TEXT
100
AcDbMText
 10
50.32913211155923
 20
272.9377220015165
 30
0.0
 40
3.5
 41
33.52895095367848
 71
     6
 72
     1
  1
overflow holes
  7
ONSHAPE-STANDARD-NOTESTYLE
1001
ONSHAPE_NOTES_REORDERING_D
1071
        0
1070
     0
1001
ACAD
1000
ACAD_MTEXT_DEFINED_HEIGHT_BEGIN
1070
    46
1040
3.547683923705722
1000
ACAD_MTEXT_DEFINED_HEIGHT_END
  0
SOLID
  5
2D5
330
1F
100
AcDbEntity
  8
ANNOTATION_TEXT
100
AcDbTrace
 10
74.68717596597027
 20
255.4197551303035
 30
0.0
 11
76.53111551614487
 21
253.6809342521182
 31
0.0
 12
74.22290646764935
 22
254.7277303638585
 32
0.0
 13
74.22290646764935
 23
254.7277303638585
 33
0.0
  0
POLYLINE
  5
2D6
330
1F
100
AcDbEntity
  8
ANNOTATION_TEXT
100
AcDb2dPolyline
 66
     1
 10
0.0
 20
0.0
 30
-190.4296490894544
210
0.0
220
-0.7266895489840786
230
0.686966010365372
  0
VERTEX
  5
2D7
330
2D6
100
AcDbEntity
  8
ANNOTATION_TEXT
100
AcDbVertex
100
AcDb2dVertex
 10
76.53111551614487
 20
167.8361035370345
 30
-190.4296490894544
  0
VERTEX
  5
2D8
330
2D6
100
AcDbEntity
  8
ANNOTATION_TEXT
100
AcDbVertex
100
AcDb2dVertex
 10
51.57913211155923
 20
192.2040166852709
 30
-190.4296490894544
  0
VERTEX
  5
2D9
330
2D6
100
AcDbEntity
  8
ANNOTATION_TEXT
100
AcDbVertex
100
AcDb2dVertex
 10
16.80018115788075
 20
192.2040166852709
 30
-190.4296490894544
  0
SEQEND
  5
2DA
330
2D6
100
AcDbEntity
  8
ANNOTATION_TEXT
  0
MTEXT
  5
2DB
102
{ACAD_REACTORS
102
}
102
{ACAD_XDICTIONARY
360
38B
102
}
330
1F
100
AcDbEntity
  8
ANNOTATION_TEXT
100
AcDbMText
 10
50.05645252412936
 20
212.6755331795109
 30
0.0
 40
3.5
 41
28.72002724795641
 71
     6
 72
     1
  1
outflow hole
  7
ONSHAPE-STANDARD-NOTESTYLE
1001
ONSHAPE_NOTES_REORDERING_D
1071
        0
1070
     0
1001
ACAD
1000
ACAD_MTEXT_DEFINED_HEIGHT_BEGIN
1070
    46
1040
3.547683923705722
1000
ACAD_MTEXT_DEFINED_HEIGHT_END
  0
SOLID
  5
2E5
330
1F
100
AcDbEntity
  8
ANNOTATION_TEXT
100
AcDbTrace
 10
72.51260853826321
 20
205.6291924957937
 30
0.0
 11
74.85212830876452
 21
204.6543805372373
 31
0.0
 12
72.32291383659633
 22
204.8177367886821
 32
0.0
 13
72.32291383659633
 23
204.8177367886821
 33
0.0
  0
POLYLINE
  5
2E6
330
1F
100
AcDbEntity
  8
ANNOTATION_TEXT
100
AcDb2dPolyline
 66
     1
 10
0.0
 20
0.0
 30
-198.0588578295671
210
0.0
220
-0.9549306893735826
230
0.2968288707192989
  0
VERTEX
  5
2E7
330
2E6
100
AcDbEntity
  8
ANNOTATION_TEXT
100
AcDbVertex
100
AcDb2dVertex
 10
74.85212830876452
 20
52.29241635387582
 30
-198.0588578295671
  0
VERTEX
  5
2E8
330
2E6
100
AcDbEntity
  8
ANNOTATION_TEXT
100
AcDbVertex
100
AcDb2dVertex
 10
51.30645252412936
 20
70.83607403754617
 30
-198.0588578295671
  0
VERTEX
  5
2E9
330
2E6
100
AcDbEntity
  8
ANNOTATION_TEXT
100
AcDbVertex
100
AcDb2dVertex
 10
21.33642527617295
 20
70.83607403754617
 30
-198.0588578295671
  0
SEQEND
  5
2EA
330
2E6
100
AcDbEntity
  8
ANNOTATION_TEXT
  0
MTEXT
  5
2EB
102
{ACAD_REACTORS
102
}
102
{ACAD_XDICTIONARY
360
38D
102
}
330
1F
100
AcDbEntity
  8
ANNOTATION_TEXT
100
AcDbMText
 10
142.7675122502919
 20
270.2109261272177
 30
0.0
 40
3.5
 41
46.53712534059947
 71
     6
 72
     1
  1
hole for fixing screw
  7
ONSHAPE-STANDARD-NOTESTYLE
1001
ONSHAPE_NOTES_REORDERING_D
1071
        0
1070
     0
1001
ACAD
1000
ACAD_MTEXT_DEFINED_HEIGHT_BEGIN
1070
    46
1040
3.547683923705722
1000
ACAD_MTEXT_DEFINED_HEIGHT_END
  0
SOLID
  5
2F5
330
1F
100
AcDbEntity
  8
ANNOTATION_TEXT
100
AcDbTrace
 10
189.0621918952133
 20
255.4360889651581
 30
0.0
 11
191.3679221762297
 21
254.3838442301677
 31
0.0
 12
188.8455574017578
 22
254.6314064559101
 32
0.0
 13
188.8455574017578
 23
254.6314064559101
 33
0.0
  0
POLYLINE
  5
2F6
330
1F
100
AcDbEntity
  8
ANNOTATION_TEXT
100
AcDb2dPolyline
 66
     1
 10
0.0
 20
0.0
 30
41.18689422011263
210
0.0
220
0.1579508747998851
230
0.9874469713103339
  0
VERTEX
  5
2F7
330
2F6
100
AcDbEntity
  8
ANNOTATION_TEXT
100
AcDbVertex
100
AcDb2dVertex
 10
-191.3679221762297
 20
-251.0295190119205
 30
41.18689422011263
  0
VERTEX
  5
2F8
330
2F6
100
AcDbEntity
  8
ANNOTATION_TEXT
100
AcDbVertex
100
AcDb2dVertex
 10
-144.0175122502919
 20
-263.9391255980667
 30
41.18689422011263
  0
VERTEX
  5
2F9
330
2F6
100
AcDbEntity
  8
ANNOTATION_TEXT
100
AcDbVertex
100
AcDb2dVertex
 10
-96.23038690969241
 20
-263.9391255980667
 30
41.18689422011263
  0
SEQEND
  5
2FA
330
2F6
100
AcDbEntity
  8
ANNOTATION_TEXT
  0
ENDSEC
  0
SECTION
  2
OBJECTS
  0
DICTIONARY
  5
C
330
0
100
AcDbDictionary
  3
ACAD_FIELDLIST
350
19C
  3
ACAD_GROUP
350
D
  3
ACAD_LAYOUT
350
1A
  3
ACAD_MATERIAL
350
43
  3
ACAD_MLEADERSTYLE
350
6B
  3
ACAD_MLINESTYLE
350
17
  3
ACAD_PLOTSETTINGS
350
19
  3
ACAD_SCALELIST
350
47
  3
ACAD_VISUALSTYLE
350
2A
  3
ACDB_RECOMPOSE_DATA
350
39A
  3
ACDBHEADERROUNDTRIPXREC
350
35D
  3
ACDBVARIABLEDICTIONARY
350
6E
  3
DWGPROPS
350
384
  3
ONSHAPE_DATA
350
2FB
  0
DICTIONARY
  5
38F
330
8
100
AcDbDictionary
280
     1
  3
ACAD_XREC_ROUNDTRIP
360
390
  0
DICTIONARY
  5
135
330
134
100
AcDbDictionary
280
     1
  0
DICTIONARY
  5
13C
330
13B
100
AcDbDictionary
280
     1
  0
DICTIONARY
  5
146
330
145
100
AcDbDictionary
280
     1
  0
DICTIONARY
  5
14C
330
14B
100
AcDbDictionary
280
     1
  0
DICTIONARY
  5
166
330
165
100
AcDbDictionary
280
     1
  0
DICTIONARY
  5
16C
330
16B
100
AcDbDictionary
280
     1
  3
ACAD_MTEXT_RT
360
385
  0
DICTIONARY
  5
170
330
16F
100
AcDbDictionary
280
     1
  3
ACAD_MTEXT_RT
360
386
  0
DICTIONARY
  5
173
330
172
100
AcDbDictionary
280
     1
  0
DICTIONARY
  5
17A
330
179
100
AcDbDictionary
280
     1
  0
DICTIONARY
  5
181
330
180
100
AcDbDictionary
280
     1
  0
DICTIONARY
  5
188
330
187
100
AcDbDictionary
280
     1
  0
DICTIONARY
  5
191
330
190
100
AcDbDictionary
280
     1
  0
DICTIONARY
  5
197
330
196
100
AcDbDictionary
280
     1
  3
ONSHAPE_VIEW_ID
360
198
  0
DICTIONARY
  5
1A8
330
1A7
100
AcDbDictionary
280
     1
  3
ONSHAPE_VIEW_ID
360
1A9
  0
DICTIONARY
  5
1B9
330
1B8
100
AcDbDictionary
280
     1
  3
ONSHAPE_VIEW_ID
360
1BA
  0
DICTIONARY
  5
1C0
330
1BF
100
AcDbDictionary
280
     1
  3
ACAD_BREAKDATA
360
1C4
  3
OS_DIM_DISPLAY_FLAG_DATA
360
1C1
  0
DICTIONARY
  5
1DC
330
1DB
100
AcDbDictionary
280
     1
  3
ACAD_BREAKDATA
360
1E0
  3
OS_DIM_DISPLAY_FLAG_DATA
360
1DD
  0
DICTIONARY
  5
1EF
330
1EE
100
AcDbDictionary
280
     1
  3
ACAD_BREAKDATA
360
1F2
  3
OS_DIM_DISPLAY_FLAG_DATA
360
1F0
  0
DICTIONARY
  5
201
330
200
100
AcDbDictionary
280
     1
  3
ACAD_BREAKDATA
360
204
  3
OS_DIM_DISPLAY_FLAG_DATA
360
202
  0
DICTIONARY
  5
212
330
211
100
AcDbDictionary
280
     1
  3
ACAD_BREAKDATA
360
215
  3
OS_DIM_DISPLAY_FLAG_DATA
360
213
  0
DICTIONARY
  5
387
330
223
100
AcDbDictionary
280
     1
  3
ACAD_MTEXT_RT
360
388
  0
DICTIONARY
  5
234
330
233
100
AcDbDictionary
280
     1
  3
ACAD_BREAKDATA
360
238
  3
OS_DIM_DISPLAY_FLAG_DATA
360
235
  0
DICTIONARY
  5
250
330
24F
100
AcDbDictionary
280
     1
  3
ACAD_BREAKDATA
360
254
  3
OS_DIM_DISPLAY_FLAG_DATA
360
251
  0
DICTIONARY
  5
265
330
264
100
AcDbDictionary
280
     1
  3
ACAD_BREAKDATA
360
269
  3
OS_DIM_DISPLAY_FLAG_DATA
360
266
  0
DICTIONARY
  5
278
330
277
100
AcDbDictionary
280
     1
  3
ACAD_BREAKDATA
360
27C
  3
OS_DIM_DISPLAY_FLAG_DATA
360
279
  0
DICTIONARY
  5
28E
330
28D
100
AcDbDictionary
280
     1
  3
ACAD_BREAKDATA
360
292
  3
OS_DIM_DISPLAY_FLAG_DATA
360
28F
  0
DICTIONARY
  5
2A2
330
2A1
100
AcDbDictionary
280
     1
  3
ACAD_BREAKDATA
360
2A6
  3
OS_DIM_DISPLAY_FLAG_DATA
360
2A3
  0
DICTIONARY
  5
2B8
330
2B7
100
AcDbDictionary
280
     1
  3
ACAD_BREAKDATA
360
2BC
  3
OS_DIM_DISPLAY_FLAG_DATA
360
2B9
  0
DICTIONARY
  5
389
330
2CB
100
AcDbDictionary
280
     1
  3
ACAD_MTEXT_RT
360
38A
  0
DICTIONARY
  5
38B
330
2DB
100
AcDbDictionary
280
     1
  3
ACAD_MTEXT_RT
360
38C
  0
DICTIONARY
  5
38D
330
2EB
100
AcDbDictionary
280
     1
  3
ACAD_MTEXT_RT
360
38E
  0
ACAD_PROXY_OBJECT
  5
19C
102
{ACAD_REACTORS
330
C
102
}
330
C
100
AcDbProxyObject
 90
      499
 91
      509
 93
       11
310
4500
330
138
330
139
330
13F
330
140
330
149
330
14A
330
14F
330
150
330
169
330
16A
330
176
330
177
330
17D
330
17E
330
184
330
185
330
18B
330
18C
330
194
330
195
 94
        0
  0
DICTIONARY
  5
D
102
{ACAD_REACTORS
330
C
102
}
330
C
100
AcDbDictionary
  0
DICTIONARY
  5
1A
102
{ACAD_REACTORS
330
C
102
}
330
C
100
AcDbDictionary
  0
DICTIONARY
  5
43
102
{ACAD_REACTORS
330
C
102
}
330
C
100
AcDbDictionary
  3
BYBLOCK
350
45
  3
BYLAYER
350
44
  3
GLOBAL
350
46
  0
DICTIONARY
  5
6B
102
{ACAD_REACTORS
330
C
102
}
330
C
100
AcDbDictionary
  3
STANDARD
350
6C
  0
DICTIONARY
  5
17
102
{ACAD_REACTORS
330
C
102
}
330
C
100
AcDbDictionary
  3
STANDARD
350
18
  0
DICTIONARY
  5
19
102
{ACAD_REACTORS
330
C
102
}
330
C
100
AcDbDictionary
  0
DICTIONARY
  5
47
102
{ACAD_REACTORS
330
C
102
}
330
C
100
AcDbDictionary
  3
A0
350
48
  3
A1
350
49
  3
A2
350
4A
  3
A3
350
4B
  3
A4
350
4C
  3
A5
350
4D
  3
A6
350
4E
  3
A7
350
4F
  3
A8
350
50
  3
A9
350
51
  3
B0
350
52
  3
B1
350
53
  3
B2
350
54
  3
B3
350
55
  3
B4
350
56
  3
B5
350
57
  3
B6
350
58
  3
B7
350
59
  3
B8
350
5A
  3
B9
350
5B
  3
C0
350
5C
  3
C1
350
5D
  3
C2
350
5E
  3
C3
350
5F
  3
C4
350
60
  3
C5
350
61
  3
C6
350
62
  3
C7
350
63
  3
C8
350
64
  3
C9
350
65
  3
D0
350
66
  3
D1
350
67
  3
D2
350
68
  0
DICTIONARY
  5
2A
102
{ACAD_REACTORS
330
C
102
}
330
C
100
AcDbDictionary
  3
2DWIREFRAME
350
2F
  3
BASIC
350
32
  3
BRIGHTEN
350
36
  3
COLORCHANGE
350
3A
  3
CONCEPTUAL
350
34
  3
DIM
350
35
  3
EDGECOLOROFF
350
3D
  3
FACEPATTERN
350
39
  3
FLAT
350
2B
  3
FLATWITHEDGES
350
2C
  3
GOURAUD
350
2D
  3
GOURAUDWITHEDGES
350
2E
  3
HIDDEN
350
31
  3
JITTEROFF
350
3B
  3
LINEPATTERN
350
38
  3
OVERHANGOFF
350
3C
  3
REALISTIC
350
33
  3
SHADED
350
42
  3
SHADED_WITH_EDGES
350
41
  3
SHADES_OF_GRAY
350
3E
  3
SKETCHY
350
3F
  3
THICKEN
350
37
  3
WIREFRAME
350
30
  3
X-RAY
350
40
  0
XRECORD
  5
39A
102
{ACAD_REACTORS
330
C
102
}
330
C
100
AcDbXrecord
 90
        1
330
16B
330
16F
330
2DB
330
2CB
330
223
330
2EB
  0
DICTIONARY
  5
35D
102
{ACAD_REACTORS
330
C
102
}
330
C
100
AcDbDictionary
  3
CEPSNID
350
367
  3
CEPSNTYPE
350
366
  3
DIMSTYLEDATA
350
37D
  3
FINGERPRINTGUID
350
368
  3
HYPERLINKBASE
350
360
  3
INSUNITS
350
365
  3
LAYOUTDICT
350
362
  3
LWETCUNION
350
364
  3
PLOTSETDICT
350
363
  3
PSVPSCALE
350
36A
  3
PUCSBASE
350
36D
  3
PUCSORGBACK
350
373
  3
PUCSORGBOTTOM
350
36F
  3
PUCSORGFRONT
350
372
  3
PUCSORGLEFT
350
370
  3
PUCSORGRIGHT
350
371
  3
PUCSORGTOP
350
36E
  3
PUCSORTHOREF
350
36B
  3
PUCSORTHOVIEW
350
36C
  3
STYLESHEET
350
361
  3
TSTACKALIGN
350
35E
  3
TSTACKSIZE
350
35F
  3
UCSBASE
350
376
  3
UCSORGBACK
350
37C
  3
UCSORGBOTTOM
350
378
  3
UCSORGFRONT
350
37B
  3
UCSORGLEFT
350
379
  3
UCSORGRIGHT
350
37A
  3
UCSORGTOP
350
377
  3
UCSORTHOREF
350
374
  3
UCSORTHOVIEW
350
375
  3
VERSIONGUID
350
369
  0
DICTIONARY
  5
6E
102
{ACAD_REACTORS
330
C
102
}
330
C
100
AcDbDictionary
  3
CANNOSCALE
350
391
  3
CMLEADERSTYLE
350
37F
  3
CTABLESTYLE
350
37E
  3
DIMASSOC
350
382
  3
HIDETEXT
350
383
  3
MSLTSCALE
350
392
  3
OLEFRAME
350
6F
  0
XRECORD
  5
384
102
{ACAD_REACTORS
330
C
102
}
330
C
100
AcDbXrecord
  1
DWGPROPS COOKIE
  2

  3

  4

  6

  7

  8
nobody
  9

300
=
301
=
302
=
303
=
304
=
305
=
306
=
307
=
308
=
309
=
 40
0.0
 41
2461094.545099051
 42
2461094.545099873
  1

 90
        0
  0
DICTIONARY
  5
2FB
102
{ACAD_REACTORS
330
C
102
}
330
C
100
AcDbDictionary
280
     1
  3
DIM_UNITS
360
2FC
  3
ONSHAPE_ANG_TOL_PRECISION
360
2FF
  3
ONSHAPE_BREAK_DIMENSION_DEFAULT
360
305
  3
ONSHAPE_DIMENSION_TEXT_HOR
360
304
  3
ONSHAPE_FITCLASS_TOL_PRECISION
360
300
  3
ONSHAPE_JOGDIMENSION_LOCK_
360
302
  3
ONSHAPE_SHOWDIMENSIONSLINE
360
303
  3
ONSHAPE_UNDERLINEOVERRIDEN
360
301
  3
ONSHAPE_VSHARP_EXTENSION
360
2FE
  3
ONSHAPE_WELD_STANDARD
360
2FD
  0
XRECORD
  5
390
102
{ACAD_REACTORS
330
38F
102
}
330
38F
100
AcDbXrecord
102
VTR_0.000_0.000_1.000_1.000_VISUALSTYLE
340
2F
102
VTR_0.000_0.000_1.000_1.000_GRIDDISPLAY
 70
     3
102
VTR_0.000_0.000_1.000_1.000_GRIDMAJOR
 70
     5
102
VTR_0.000_0.000_1.000_1.000_DEFAULTLIGHTING
280
     1
102
VTR_0.000_0.000_1.000_1.000_DEFAULTLIGHTINGTYPE
 70
     1
102
VTR_0.000_0.000_1.000_1.000_BRIGHTNESS
141
0.0
102
VTR_0.000_0.000_1.000_1.000_CONTRAST
142
0.0
  0
XRECORD
  5
385
102
{ACAD_REACTORS
330
16C
102
}
330
16C
100
AcDbXrecord
 40
2991.0
  1
{\pxqc;Gestell}
  0
XRECORD
  5
386
102
{ACAD_REACTORS
330
170
102
}
330
170
100
AcDbXrecord
 40
483.0
  1
{\pxqc;BfG}
  0
XRECORD
  5
198
102
{ACAD_REACTORS
330
197
102
}
330
197
100
AcDbXrecord
330
0
  0
XRECORD
  5
1A9
102
{ACAD_REACTORS
330
1A8
102
}
330
1A8
100
AcDbXrecord
330
0
  0
XRECORD
  5
1BA
102
{ACAD_REACTORS
330
1B9
102
}
330
1B9
100
AcDbXrecord
330
0
  0
BREAKDATA
  5
1C4
102
{ACAD_REACTORS
330
1C0
102
}
330
1C0
100
AcDbBreakData
 70
     0
330
1BF
 90
        0
  0
XRECORD
  5
1C1
102
{ACAD_REACTORS
330
1C0
102
}
330
1C0
100
AcDbXrecord
 90
        1
 90
        0
  0
BREAKDATA
  5
1E0
102
{ACAD_REACTORS
330
1DC
102
}
330
1DC
100
AcDbBreakData
 70
     0
330
1DB
 90
        0
  0
XRECORD
  5
1DD
102
{ACAD_REACTORS
330
1DC
102
}
330
1DC
100
AcDbXrecord
 90
        1
 90
        0
  0
BREAKDATA
  5
1F2
102
{ACAD_REACTORS
330
1EF
102
}
330
1EF
100
AcDbBreakData
 70
     0
330
1EE
 90
        1
100
AcDbBreakPointRef
 71
     0
 72
     0
 91
       -1
 10
0.0
 20
0.0
 30
0.0
 11
0.0
 21
0.0
 31
0.0
331
1DB
 73
     5
 92
        0
  0
XRECORD
  5
1F0
102
{ACAD_REACTORS
330
1EF
102
}
330
1EF
100
AcDbXrecord
 90
        1
 90
        0
  0
BREAKDATA
  5
204
102
{ACAD_REACTORS
330
201
102
}
330
201
100
AcDbBreakData
 70
     0
330
200
 90
        1
100
AcDbBreakPointRef
 71
     0
 72
     0
 91
       -1
 10
0.0
 20
0.0
 30
0.0
 11
0.0
 21
0.0
 31
0.0
331
1EE
 73
     5
 92
        0
  0
XRECORD
  5
202
102
{ACAD_REACTORS
330
201
102
}
330
201
100
AcDbXrecord
 90
        1
 90
        0
  0
BREAKDATA
  5
215
102
{ACAD_REACTORS
330
212
102
}
330
212
100
AcDbBreakData
 70
     0
330
211
 90
        2
100
AcDbBreakPointRef
 71
     0
 72
     0
 91
       -1
 10
0.0
 20
0.0
 30
0.0
 11
0.0
 21
0.0
 31
0.0
331
1EE
 73
     5
 92
        0
100
AcDbBreakPointRef
 71
     0
 72
     0
 91
       -1
 10
0.0
 20
0.0
 30
0.0
 11
0.0
 21
0.0
 31
0.0
331
200
 73
     5
 92
        0
  0
XRECORD
  5
213
102
{ACAD_REACTORS
330
212
102
}
330
212
100
AcDbXrecord
 90
        1
 90
        0
  0
XRECORD
  5
388
102
{ACAD_REACTORS
330
387
102
}
330
387
100
AcDbXrecord
 40
53043.0
  1
{\pxql;bottom drain \Padapt to you needs}
  0
BREAKDATA
  5
238
102
{ACAD_REACTORS
330
234
102
}
330
234
100
AcDbBreakData
 70
     0
330
233
 90
        0
  0
XRECORD
  5
235
102
{ACAD_REACTORS
330
234
102
}
330
234
100
AcDbXrecord
 90
        1
 90
        0
  0
BREAKDATA
  5
254
102
{ACAD_REACTORS
330
250
102
}
330
250
100
AcDbBreakData
 70
     0
330
24F
 90
        2
100
AcDbBreakPointRef
 71
     0
 72
     0
 91
       -1
 10
0.0
 20
0.0
 30
0.0
 11
0.0
 21
0.0
 31
0.0
331
233
 73
     5
 92
        0
100
AcDbBreakPointRef
 71
     0
 72
     0
 91
       -1
 10
0.0
 20
0.0
 30
0.0
 11
0.0
 21
0.0
 31
0.0
331
233
 73
     2
 92
        0
  0
XRECORD
  5
251
102
{ACAD_REACTORS
330
250
102
}
330
250
100
AcDbXrecord
 90
        1
 90
        0
  0
BREAKDATA
  5
269
102
{ACAD_REACTORS
330
265
102
}
330
265
100
AcDbBreakData
 70
     0
330
264
 90
        2
100
AcDbBreakPointRef
 71
     0
 72
     0
 91
       -1
 10
0.0
 20
0.0
 30
0.0
 11
0.0
 21
0.0
 31
0.0
331
233
 73
     5
 92
        0
100
AcDbBreakPointRef
 71
     0
 72
     0
 91
       -1
 10
0.0
 20
0.0
 30
0.0
 11
0.0
 21
0.0
 31
0.0
331
24F
 73
     5
 92
        0
  0
XRECORD
  5
266
102
{ACAD_REACTORS
330
265
102
}
330
265
100
AcDbXrecord
 90
        1
 90
        0
  0
BREAKDATA
  5
27C
102
{ACAD_REACTORS
330
278
102
}
330
278
100
AcDbBreakData
 70
     0
330
277
 90
        2
100
AcDbBreakPointRef
 71
     0
 72
     0
 91
       -1
 10
0.0
 20
0.0
 30
0.0
 11
0.0
 21
0.0
 31
0.0
331
264
 73
     5
 92
        0
100
AcDbBreakPointRef
 71
     0
 72
     0
 91
       -1
 10
0.0
 20
0.0
 30
0.0
 11
0.0
 21
0.0
 31
0.0
331
264
 73
     2
 92
        0
  0
XRECORD
  5
279
102
{ACAD_REACTORS
330
278
102
}
330
278
100
AcDbXrecord
 90
        1
 90
        0
  0
BREAKDATA
  5
292
102
{ACAD_REACTORS
330
28E
102
}
330
28E
100
AcDbBreakData
 70
     0
330
28D
 90
        0
  0
XRECORD
  5
28F
102
{ACAD_REACTORS
330
28E
102
}
330
28E
100
AcDbXrecord
 90
        1
 90
        0
  0
BREAKDATA
  5
2A6
102
{ACAD_REACTORS
330
2A2
102
}
330
2A2
100
AcDbBreakData
 70
     0
330
2A1
 90
        0
  0
XRECORD
  5
2A3
102
{ACAD_REACTORS
330
2A2
102
}
330
2A2
100
AcDbXrecord
 90
        1
 90
        0
  0
BREAKDATA
  5
2BC
102
{ACAD_REACTORS
330
2B8
102
}
330
2B8
100
AcDbBreakData
 70
     0
330
2B7
 90
        3
100
AcDbBreakPointRef
 71
     0
 72
     0
 91
       -1
 10
0.0
 20
0.0
 30
0.0
 11
0.0
 21
0.0
 31
0.0
331
233
 73
     5
 92
        0
100
AcDbBreakPointRef
 71
     0
 72
     0
 91
       -1
 10
0.0
 20
0.0
 30
0.0
 11
0.0
 21
0.0
 31
0.0
331
264
 73
     5
 92
        0
100
AcDbBreakPointRef
 71
     0
 72
     0
 91
       -1
 10
0.0
 20
0.0
 30
0.0
 11
0.0
 21
0.0
 31
0.0
331
277
 73
     5
 92
        0
  0
XRECORD
  5
2B9
102
{ACAD_REACTORS
330
2B8
102
}
330
2B8
100
AcDbXrecord
 90
        1
 90
        0
  0
XRECORD
  5
38A
102
{ACAD_REACTORS
330
389
102
}
330
389
100
AcDbXrecord
 40
10761.0
  1
{\pxqr;overflow holes}
  0
XRECORD
  5
38C
102
{ACAD_REACTORS
330
38B
102
}
330
38B
100
AcDbXrecord
 40
7842.0
  1
{\pxqr;outflow hole}
  0
XRECORD
  5
38E
102
{ACAD_REACTORS
330
38D
102
}
330
38D
100
AcDbXrecord
 40
22802.0
  1
{\pxqr;hole for fixing screw}
  0
MATERIAL
  5
45
102
{ACAD_REACTORS
330
43
102
}
102
{ACAD_XDICTIONARY
360
395
102
}
330
43
100
AcDbMaterial
  1
BYBLOCK
  0
MATERIAL
  5
44
102
{ACAD_REACTORS
330
43
102
}
102
{ACAD_XDICTIONARY
360
393
102
}
330
43
100
AcDbMaterial
  1
BYLAYER
  0
MATERIAL
  5
46
102
{ACAD_REACTORS
330
43
102
}
102
{ACAD_XDICTIONARY
360
397
102
}
330
43
100
AcDbMaterial
  1
GLOBAL
  0
ACAD_PROXY_OBJECT
  5
6C
102
{ACAD_REACTORS
330
6B
102
}
330
6B
100
AcDbProxyObject
 90
      499
 91
      505
 93
      610
310
40901902A4063FBFFFFFE056BD1B81E855B9FC0AD7A3703D0AD73F4214DD185B99185C9900AD7A3703D0AC73F90140501A02B5E8DC0F42B1CFC02B5E8DC0F42B1CFE5764000000000000300FC0
340
14
340
0
340
11
340
0
 94
        0
1001
ACAD_MLEADERVER
1070
     2
  0
MLINESTYLE
  5
18
102
{ACAD_REACTORS
330
17
102
}
330
17
100
AcDbMlineStyle
  2
Standard
 70
     0
  3

 62
   256
 51
90.0
 52
90.0
 71
     2
 49
0.5
 62
   256
  6
BYLAYER
 49
-0.5
 62
   256
  6
BYLAYER
  0
ACAD_PROXY_OBJECT
  5
48
102
{ACAD_REACTORS
330
47
102
}
330
47
100
AcDbProxyObject
 90
      499
 91
      503
 93
       41
310
903313A31580
  0
ACAD_PROXY_OBJECT
  5
49
102
{ACAD_REACTORS
330
47
102
}
330
47
100
AcDbProxyObject
 90
      499
 91
      503
 93
      105
310
903313A324000000000000004000
  0
ACAD_PROXY_OBJECT
  5
4A
102
{ACAD_REACTORS
330
47
102
}
330
47
100
AcDbProxyObject
 90
      499
 91
      503
 93
      105
310
903313A344000000000000104000
  0
ACAD_PROXY_OBJECT
  5
4B
102
{ACAD_REACTORS
330
47
102
}
330
47
100
AcDbProxyObject
 90
      499
 91
      503
 93
      105
310
903313A354000000000000144000
  0
ACAD_PROXY_OBJECT
  5
4C
102
{ACAD_REACTORS
330
47
102
}
330
47
100
AcDbProxyObject
 90
      499
 91
      503
 93
      105
310
903313A384000000000000204000
  0
ACAD_PROXY_OBJECT
  5
4D
102
{ACAD_REACTORS
330
47
102
}
330
47
100
AcDbProxyObject
 90
      499
 91
      503
 93
      113
310
904313A31304000000000000244000
  0
ACAD_PROXY_OBJECT
  5
4E
102
{ACAD_REACTORS
330
47
102
}
330
47
100
AcDbProxyObject
 90
      499
 91
      503
 93
      113
310
904313A31364000000000000304000
  0
ACAD_PROXY_OBJECT
  5
4F
102
{ACAD_REACTORS
330
47
102
}
330
47
100
AcDbProxyObject
 90
      499
 91
      503
 93
      113
310
904313A32304000000000000344000
  0
ACAD_PROXY_OBJECT
  5
50
102
{ACAD_REACTORS
330
47
102
}
330
47
100
AcDbProxyObject
 90
      499
 91
      503
 93
      113
310
904313A333040000000000003E4000
  0
ACAD_PROXY_OBJECT
  5
51
102
{ACAD_REACTORS
330
47
102
}
330
47
100
AcDbProxyObject
 90
      499
 91
      503
 93
      113
310
904313A34304000000000000444000
  0
ACAD_PROXY_OBJECT
  5
52
102
{ACAD_REACTORS
330
47
102
}
330
47
100
AcDbProxyObject
 90
      499
 91
      503
 93
      113
310
904313A35304000000000000494000
  0
ACAD_PROXY_OBJECT
  5
53
102
{ACAD_REACTORS
330
47
102
}
330
47
100
AcDbProxyObject
 90
      499
 91
      503
 93
      121
310
905313A3130304000000000000594000
  0
ACAD_PROXY_OBJECT
  5
54
102
{ACAD_REACTORS
330
47
102
}
330
47
100
AcDbProxyObject
 90
      499
 91
      503
 93
      105
310
903323A310000000000000010100
  0
ACAD_PROXY_OBJECT
  5
55
102
{ACAD_REACTORS
330
47
102
}
330
47
100
AcDbProxyObject
 90
      499
 91
      503
 93
      105
310
903343A310000000000000410100
  0
ACAD_PROXY_OBJECT
  5
56
102
{ACAD_REACTORS
330
47
102
}
330
47
100
AcDbProxyObject
 90
      499
 91
      503
 93
      105
310
903383A310000000000000810100
  0
ACAD_PROXY_OBJECT
  5
57
102
{ACAD_REACTORS
330
47
102
}
330
47
100
AcDbProxyObject
 90
      499
 91
      503
 93
      113
310
90431303A310000000000000910100
  0
ACAD_PROXY_OBJECT
  5
58
102
{ACAD_REACTORS
330
47
102
}
330
47
100
AcDbProxyObject
 90
      499
 91
      503
 93
      121
310
9053130303A310000000000001650100
  0
ACAD_PROXY_OBJECT
  5
59
102
{ACAD_REACTORS
330
47
102
}
330
47
100
AcDbProxyObject
 90
      499
 91
      503
 93
      257
310
90E312F31323822203D2031272D3022000000000000200FC000000000000284000
  0
ACAD_PROXY_OBJECT
  5
5A
102
{ACAD_REACTORS
330
47
102
}
330
47
100
AcDbProxyObject
 90
      499
 91
      503
 93
      249
310
90D312F363422203D2031272D3022000000000000240FC000000000000284000
  0
ACAD_PROXY_OBJECT
  5
5B
102
{ACAD_REACTORS
330
47
102
}
330
47
100
AcDbProxyObject
 90
      499
 91
      503
 93
      249
310
90D312F333222203D2031272D3022000000000000280FC000000000000284000
  0
ACAD_PROXY_OBJECT
  5
5C
102
{ACAD_REACTORS
330
47
102
}
330
47
100
AcDbProxyObject
 90
      499
 91
      503
 93
      249
310
90D312F313622203D2031272D30220000000000002C0FC000000000000284000
  0
ACAD_PROXY_OBJECT
  5
5D
102
{ACAD_REACTORS
330
47
102
}
330
47
100
AcDbProxyObject
 90
      499
 91
      503
 93
      249
310
90D332F333222203D2031272D30220000000000002E0FC000000000000284000
  0
ACAD_PROXY_OBJECT
  5
5E
102
{ACAD_REACTORS
330
47
102
}
330
47
100
AcDbProxyObject
 90
      499
 91
      503
 93
      241
310
90C312F3822203D2031272D3022000000000000300FC000000000000284000
  0
ACAD_PROXY_OBJECT
  5
5F
102
{ACAD_REACTORS
330
47
102
}
330
47
100
AcDbProxyObject
 90
      499
 91
      503
 93
      249
310
90D332F313622203D2031272D3022000000000000320FC000000000000284000
  0
ACAD_PROXY_OBJECT
  5
60
102
{ACAD_REACTORS
330
47
102
}
330
47
100
AcDbProxyObject
 90
      499
 91
      503
 93
      241
310
90C312F3422203D2031272D3022000000000000340FC000000000000284000
  0
ACAD_PROXY_OBJECT
  5
61
102
{ACAD_REACTORS
330
47
102
}
330
47
100
AcDbProxyObject
 90
      499
 91
      503
 93
      241
310
90C332F3822203D2031272D3022000000000000360FC000000000000284000
  0
ACAD_PROXY_OBJECT
  5
62
102
{ACAD_REACTORS
330
47
102
}
330
47
100
AcDbProxyObject
 90
      499
 91
      503
 93
      241
310
90C312F3222203D2031272D3022000000000000380FC000000000000284000
  0
ACAD_PROXY_OBJECT
  5
63
102
{ACAD_REACTORS
330
47
102
}
330
47
100
AcDbProxyObject
 90
      499
 91
      503
 93
      241
310
90C332F3422203D2031272D30220000000000003A0FC000000000000284000
  0
ACAD_PROXY_OBJECT
  5
64
102
{ACAD_REACTORS
330
47
102
}
330
47
100
AcDbProxyObject
 90
      499
 91
      503
 93
      161
310
90A3122203D2031272D30224000000000000284000
  0
ACAD_PROXY_OBJECT
  5
65
102
{ACAD_REACTORS
330
47
102
}
330
47
100
AcDbProxyObject
 90
      499
 91
      503
 93
      257
310
90E312D312F3222203D2031272D30220000000000003E0FC000000000000284000
  0
ACAD_PROXY_OBJECT
  5
66
102
{ACAD_REACTORS
330
47
102
}
330
47
100
AcDbProxyObject
 90
      499
 91
      503
 93
      225
310
90A3322203D2031272D302200000000000002100000000000000284000
  0
ACAD_PROXY_OBJECT
  5
67
102
{ACAD_REACTORS
330
47
102
}
330
47
100
AcDbProxyObject
 90
      499
 91
      503
 93
      225
310
90A3622203D2031272D302200000000000006100000000000000284000
  0
ACAD_PROXY_OBJECT
  5
68
102
{ACAD_REACTORS
330
47
102
}
330
47
100
AcDbProxyObject
 90
      499
 91
      503
 93
      249
310
90D31272D3022203D2031272D30220000000000000A100000000000000284000
  0
ACAD_PROXY_OBJECT
  5
2F
102
{ACAD_REACTORS
330
2A
102
}
330
2A
100
AcDbProxyObject
 90
      499
 91
      501
 93
      436
310
42CC9915DA5C99599C985B595049028333333333333E33F0000000000000F90107901411070040501600405405064090741402480A0340
1001
ACAD
1000
AcDbSavedByObjectVersion
1070
     0
  0
ACAD_PROXY_OBJECT
  5
32
102
{ACAD_REACTORS
330
2A
102
}
330
2A
100
AcDbProxyObject
 90
      499
 91
      501
 93
      388
310
4150985CDA58D07406404333333333333E33F0000000000000F90107A41107004050150841D405064090741402480A0350
1001
ACAD
1000
AcDbSavedByObjectVersion
1070
     0
  0
ACAD_PROXY_OBJECT
  5
36
102
{ACAD_REACTORS
330
2A
102
}
330
2A
100
AcDbProxyObject
 90
      499
 91
      501
 93
      428
310
42109C9A59DA1D195B90C409028333333333333E33F0000000000000F9010790141107004050150841D405064090741402480A029950
1001
ACAD
1000
AcDbSavedByObjectVersion
1070
     0
  0
ACAD_PROXY_OBJECT
  5
3A
102
{ACAD_REACTORS
330
2A
102
}
330
2A
100
AcDbProxyObject
 90
      499
 91
      501
 93
      452
310
42D0DBDB1BDC90DA185B99D95104090240C333333333333E33F0000000000000F90108901411070040501508421405064090741402480A0350
1001
ACAD
1000
AcDbSavedByObjectVersion
1070
     0
  0
ACAD_PROXY_OBJECT
  5
34
102
{ACAD_REACTORS
330
2A
102
}
330
2A
100
AcDbProxyObject
 90
      499
 91
      501
 93
      500
310
4290DBDB98D95C1D1D585B10940D028333333333333E33F0000000000000F90107902409070040501000000000018199010841D405064090740C02480A0340
1001
ACAD
1000
AcDbSavedByObjectVersion
1070
     0
  0
ACAD_PROXY_OBJECT
  5
35
102
{ACAD_REACTORS
330
2A
102
}
330
2A
100
AcDbProxyObject
 90
      499
 91
      501
 93
      412
310
40D11A5B50B409028333333333333E33F0000000000000F9010790141107004050150841D405064090741402480A02677FFFFFD0
1001
ACAD
1000
AcDbSavedByObjectVersion
1070
     0
  0
ACAD_PROXY_OBJECT
  5
3D
102
{ACAD_REACTORS
330
2A
102
}
330
2A
100
AcDbProxyObject
 90
      499
 91
      501
 93
      452
310
43115919D950DBDB1BDC93D999916409028333333333333E33F0000000000000F9010790141107004050150841D405064090741402480A0350
1001
ACAD
1000
AcDbSavedByObjectVersion
1070
     0
  0
ACAD_PROXY_OBJECT
  5
39
102
{ACAD_REACTORS
330
2A
102
}
330
2A
100
AcDbProxyObject
 90
      499
 91
      501
 93
      444
310
42D19858D95C185D1D195C9B90F409028333333333333E33F0000000000000F9010790141107004050150841D405064090741402480A0350
1001
ACAD
1000
AcDbSavedByObjectVersion
1070
     0
  0
ACAD_PROXY_OBJECT
  5
2B
102
{ACAD_REACTORS
330
2A
102
}
330
2A
100
AcDbProxyObject
 90
      499
 91
      501
 93
      380
310
41119B185D240901404333333333333E33F0000000000000F9010740A907004050150841D405064090741402480A1B50
1001
ACAD
1000
AcDbSavedByObjectVersion
1070
     0
  0
ACAD_PROXY_OBJECT
  5
2C
102
{ACAD_REACTORS
330
2A
102
}
330
2A
100
AcDbProxyObject
 90
      499
 91
      501
 93
      468
310
43519B185D15DA5D1A115919D95CD0140901404333333333333E33F0000000000000F90107409019070040501600405405064090741402480A1B50
1001
ACAD
1000
AcDbSavedByObjectVersion
1070
     0
  0
ACAD_PROXY_OBJECT
  5
2D
102
{ACAD_REACTORS
330
2A
102
}
330
2A
100
AcDbProxyObject
 90
      499
 91
      501
 93
      404
310
41D1DBDD5C985D5910240902404333333333333E33F0000000000000F9010740A9070040501641D405064090741402480A1B50
1001
ACAD
1000
AcDbSavedByObjectVersion
1070
     0
  0
ACAD_PROXY_OBJECT
  5
2E
102
{ACAD_REACTORS
330
2A
102
}
330
2A
100
AcDbProxyObject
 90
      499
 91
      501
 93
      492
310
4411DBDD5C985D5915DA5D1A115919D95CD0340902404333333333333E33F0000000000000F90107409019070040501600405405064090741402480A1B50
1001
ACAD
1000
AcDbSavedByObjectVersion
1070
     0
  0
ACAD_PROXY_OBJECT
  5
31
102
{ACAD_REACTORS
330
2A
102
}
330
2A
100
AcDbProxyObject
 90
      499
 91
      501
 93
      476
310
41921A5919195B90640502408333333333333E33F0000000000000F901079024090700405020000000000001110200405405064090740C02480A0340
1001
ACAD
1000
AcDbSavedByObjectVersion
1070
     0
  0
ACAD_PROXY_OBJECT
  5
3B
102
{ACAD_REACTORS
330
2A
102
}
330
2A
100
AcDbProxyObject
 90
      499
 91
      501
 93
      428
310
42529A5D1D195C93D999914409028333333333333E33F0000000000000F9010790141107004050150A41D405064090741402480A0350
1001
ACAD
1000
AcDbSavedByObjectVersion
1070
     0
  0
ACAD_PROXY_OBJECT
  5
38
102
{ACAD_REACTORS
330
2A
102
}
330
2A
100
AcDbProxyObject
 90
      499
 91
      501
 93
      444
310
42D31A5B995C185D1D195C9B90E409028333333333333E33F0000000000000F9010790141107004050750841D405064090741402483A0350
1001
ACAD
1000
AcDbSavedByObjectVersion
1070
     0
  0
ACAD_PROXY_OBJECT
  5
3C
102
{ACAD_REACTORS
330
2A
102
}
330
2A
100
AcDbProxyObject
 90
      499
 91
      501
 93
      444
310
42D3DD995C9A185B99D3D999915409028333333333333E33F0000000000000F9010790141107004050150941D405064090741402480A0350
1001
ACAD
1000
AcDbSavedByObjectVersion
1070
     0
  0
ACAD_PROXY_OBJECT
  5
33
102
{ACAD_REACTORS
330
2A
102
}
330
2A
100
AcDbProxyObject
 90
      499
 91
      501
 93
      428
310
425499585B1A5CDD1A58D08409038333333333333E33F0000000000000F9010740A907004050150800405405064090740C02480A1B40
1001
ACAD
1000
AcDbSavedByObjectVersion
1070
     0
  0
ACAD_PROXY_OBJECT
  5
42
102
{ACAD_REACTORS
330
2A
102
}
330
2A
100
AcDbProxyObject
 90
      499
 91
      501
 93
      420
310
4194DA1859195911B40902404333333333333E33F0000000000000F9010740A41107004050150800405405064090840C02480A0B40
1001
ACAD
1000
AcDbSavedByObjectVersion
1070
     0
  0
ACAD_PROXY_OBJECT
  5
41
102
{ACAD_REACTORS
330
2A
102
}
330
2A
100
AcDbProxyObject
 90
      499
 91
      501
 93
      516
310
4454DA18591959081DDA5D1A08195919D95CD1A40902404333333333333E33F0000000000000F901074090142907004050250800405405064090740C02480A0B40
1001
ACAD
1000
AcDbSavedByObjectVersion
1070
     0
  0
ACAD_PROXY_OBJECT
  5
3E
102
{ACAD_REACTORS
330
2A
102
}
330
2A
100
AcDbProxyObject
 90
      499
 91
      501
 93
      532
310
4394DA1859195CC81BD98811DC985E5174090240C333333333333E33F0000000000000F901079024090741D01000000000000111010841D405064090740C02480A0340
1001
ACAD
1000
AcDbSavedByObjectVersion
1070
     0
  0
ACAD_PROXY_OBJECT
  5
3F
102
{ACAD_REACTORS
330
2A
102
}
330
2A
100
AcDbProxyObject
 90
      499
 91
      501
 93
      476
310
41D4DAD95D18DA1E51840502408333333333333E33F0000000000000F901079024090741D01000000000000111010B41D405064090741802480A0340
1001
ACAD
1000
AcDbSavedByObjectVersion
1070
     0
  0
ACAD_PROXY_OBJECT
  5
37
102
{ACAD_REACTORS
330
2A
102
}
330
2A
100
AcDbProxyObject
 90
      499
 91
      501
 93
      412
310
41D51A1A58DAD95B90D409028333333333333E33F0000000000000F9010790141107004050150C41D405064090741402480A0350
1001
ACAD
1000
AcDbSavedByObjectVersion
1070
     0
  0
ACAD_PROXY_OBJECT
  5
30
102
{ACAD_REACTORS
330
2A
102
}
330
2A
100
AcDbProxyObject
 90
      499
 91
      501
 93
      420
310
4255DA5C99599C985B595059028333333333333E33F0000000000000F90107901411070040501600405405064090740C02480A0340
1001
ACAD
1000
AcDbSavedByObjectVersion
1070
     0
  0
ACAD_PROXY_OBJECT
  5
40
102
{ACAD_REACTORS
330
2A
102
}
330
2A
100
AcDbProxyObject
 90
      499
 91
      501
 93
      404
310
41560B54985E51940902404000000000000E03F0000000000000F9010740501907004050150841D405064090740C02480A1B40
1001
ACAD
1000
AcDbSavedByObjectVersion
1070
     0
  0
XRECORD
  5
367
102
{ACAD_REACTORS
330
35D
102
}
330
35D
100
AcDbXrecord
340
0
  0
XRECORD
  5
366
102
{ACAD_REACTORS
330
35D
102
}
330
35D
100
AcDbXrecord
 90
        0
  0
XRECORD
  5
37D
102
{ACAD_REACTORS
330
35D
102
}
330
35D
100
AcDbXrecord
1000
DSTYLE
1002
{
1070
   179
 70
     1
1070
   171
 70
     3
1070
   143
 40
0.03937
1070
   274
 70
     3
1070
   285
 70
     8
1070
    41
 40
2.5
1070
   141
 40
2.5
1070
   176
 70
     7
1070
   177
 70
     7
1070
   178
 70
     7
1070
   271
 70
     2
1070
    43
 40
3.75
1070
   278
 70
    44
1070
    44
 40
1.25
1070
    42
 40
0.625
1070
   147
 40
0.625
1070
   144
 40
10.0
1070
   371
 70
    13
1070
   372
 70
    13
1070
    77
 70
     1
1070
   272
 70
     2
1070
    73
 70
     0
1070
   172
 70
     1
1070
    74
 70
     0
1070
   283
 70
     0
1070
   340
340
73
1070
   140
 40
3.5
1070
   284
 70
     8
1070
   288
 70
     1
1070
    78
 70
     8
1002
}
  0
XRECORD
  5
368
102
{ACAD_REACTORS
330
35D
102
}
330
35D
100
AcDbXrecord
  1
{78716561-6563-6561-3472-b57771633630}
  0
XRECORD
  5
360
102
{ACAD_REACTORS
330
35D
102
}
330
35D
100
AcDbXrecord
  1

  0
XRECORD
  5
365
102
{ACAD_REACTORS
330
35D
102
}
330
35D
100
AcDbXrecord
 90
        0
  0
XRECORD
  5
362
102
{ACAD_REACTORS
330
35D
102
}
330
35D
100
AcDbXrecord
340
1A
  0
XRECORD
  5
364
102
{ACAD_REACTORS
330
35D
102
}
330
35D
100
AcDbXrecord
 90
    10269
  0
XRECORD
  5
363
102
{ACAD_REACTORS
330
35D
102
}
330
35D
100
AcDbXrecord
340
19
  0
XRECORD
  5
36A
102
{ACAD_REACTORS
330
35D
102
}
330
35D
100
AcDbXrecord
 40
0.0
  0
XRECORD
  5
36D
102
{ACAD_REACTORS
330
35D
102
}
330
35D
100
AcDbXrecord
340
0
  0
XRECORD
  5
373
102
{ACAD_REACTORS
330
35D
102
}
330
35D
100
AcDbXrecord
 10
0.0
 20
0.0
 30
0.0
  0
XRECORD
  5
36F
102
{ACAD_REACTORS
330
35D
102
}
330
35D
100
AcDbXrecord
 10
0.0
 20
0.0
 30
0.0
  0
XRECORD
  5
372
102
{ACAD_REACTORS
330
35D
102
}
330
35D
100
AcDbXrecord
 10
0.0
 20
0.0
 30
0.0
  0
XRECORD
  5
370
102
{ACAD_REACTORS
330
35D
102
}
330
35D
100
AcDbXrecord
 10
0.0
 20
0.0
 30
0.0
  0
XRECORD
  5
371
102
{ACAD_REACTORS
330
35D
102
}
330
35D
100
AcDbXrecord
 10
0.0
 20
0.0
 30
0.0
  0
XRECORD
  5
36E
102
{ACAD_REACTORS
330
35D
102
}
330
35D
100
AcDbXrecord
 10
0.0
 20
0.0
 30
0.0
  0
XRECORD
  5
36B
102
{ACAD_REACTORS
330
35D
102
}
330
35D
100
AcDbXrecord
340
0
  0
XRECORD
  5
36C
102
{ACAD_REACTORS
330
35D
102
}
330
35D
100
AcDbXrecord
 70
     0
  0
XRECORD
  5
361
102
{ACAD_REACTORS
330
35D
102
}
330
35D
100
AcDbXrecord
  1

  0
XRECORD
  5
35E
102
{ACAD_REACTORS
330
35D
102
}
330
35D
100
AcDbXrecord
 90
        1
  0
XRECORD
  5
35F
102
{ACAD_REACTORS
330
35D
102
}
330
35D
100
AcDbXrecord
 90
       70
  0
XRECORD
  5
376
102
{ACAD_REACTORS
330
35D
102
}
330
35D
100
AcDbXrecord
340
0
  0
XRECORD
  5
37C
102
{ACAD_REACTORS
330
35D
102
}
330
35D
100
AcDbXrecord
 10
0.0
 20
0.0
 30
0.0
  0
XRECORD
  5
378
102
{ACAD_REACTORS
330
35D
102
}
330
35D
100
AcDbXrecord
 10
0.0
 20
0.0
 30
0.0
  0
XRECORD
  5
37B
102
{ACAD_REACTORS
330
35D
102
}
330
35D
100
AcDbXrecord
 10
0.0
 20
0.0
 30
0.0
  0
XRECORD
  5
379
102
{ACAD_REACTORS
330
35D
102
}
330
35D
100
AcDbXrecord
 10
0.0
 20
0.0
 30
0.0
  0
XRECORD
  5
37A
102
{ACAD_REACTORS
330
35D
102
}
330
35D
100
AcDbXrecord
 10
0.0
 20
0.0
 30
0.0
  0
XRECORD
  5
377
102
{ACAD_REACTORS
330
35D
102
}
330
35D
100
AcDbXrecord
 10
0.0
 20
0.0
 30
0.0
  0
XRECORD
  5
374
102
{ACAD_REACTORS
330
35D
102
}
330
35D
100
AcDbXrecord
340
0
  0
XRECORD
  5
375
102
{ACAD_REACTORS
330
35D
102
}
330
35D
100
AcDbXrecord
 70
     0
  0
XRECORD
  5
369
102
{ACAD_REACTORS
330
35D
102
}
330
35D
100
AcDbXrecord
  1
{FAEB1C32-E019-11D5-929B-00C0DF256EC4}
  0
DICTIONARYVAR
  5
391
102
{ACAD_REACTORS
330
6E
102
}
330
6E
100
DictionaryVariables
280
     0
  1
1:1
  0
DICTIONARYVAR
  5
37F
102
{ACAD_REACTORS
330
6E
102
}
330
6E
100
DictionaryVariables
280
     0
  1
Standard
  0
DICTIONARYVAR
  5
37E
102
{ACAD_REACTORS
330
6E
102
}
330
6E
100
DictionaryVariables
280
     0
  1
Onshape-Standard
  0
DICTIONARYVAR
  5
382
102
{ACAD_REACTORS
330
6E
102
}
330
6E
100
DictionaryVariables
280
     0
  1
2
  0
DICTIONARYVAR
  5
383
102
{ACAD_REACTORS
330
6E
102
}
330
6E
100
DictionaryVariables
280
     0
  1
1
  0
DICTIONARYVAR
  5
392
102
{ACAD_REACTORS
330
6E
102
}
330
6E
100
DictionaryVariables
280
     0
  1
1
  0
DICTIONARYVAR
  5
6F
102
{ACAD_REACTORS
330
6E
102
}
330
6E
100
DictionaryVariables
280
     0
  1
0
  0
XRECORD
  5
2FC
102
{ACAD_REACTORS
330
2FB
102
}
330
2FB
100
AcDbXrecord
 70
     0
  0
XRECORD
  5
2FF
102
{ACAD_REACTORS
330
2FB
102
}
330
2FB
100
AcDbXrecord
 90
        0
  0
ACAD_PROXY_OBJECT
  5
305
102
{ACAD_REACTORS
330
2FB
102
}
330
2FB
100
AcDbProxyObject
 90
      499
 91
      512
 93
       34
310
40C8804040
  0
XRECORD
  5
304
102
{ACAD_REACTORS
330
2FB
102
}
330
2FB
100
AcDbXrecord
 90
        5
  0
XRECORD
  5
300
102
{ACAD_REACTORS
330
2FB
102
}
330
2FB
100
AcDbXrecord
 90
        3
  0
XRECORD
  5
302
102
{ACAD_REACTORS
330
2FB
102
}
330
2FB
100
AcDbXrecord
 90
        0
  0
ACAD_PROXY_OBJECT
  5
303
102
{ACAD_REACTORS
330
2FB
102
}
330
2FB
100
AcDbProxyObject
 90
      499
 91
      512
 93
       34
310
40C8804040
  0
ACAD_PROXY_OBJECT
  5
301
102
{ACAD_REACTORS
330
2FB
102
}
330
2FB
100
AcDbProxyObject
 90
      499
 91
      512
 93
       34
310
40C8804040
  0
XRECORD
  5
2FE
102
{ACAD_REACTORS
330
2FB
102
}
330
2FB
100
AcDbXrecord
 90
        0
  0
XRECORD
  5
2FD
102
{ACAD_REACTORS
330
2FB
102
}
330
2FB
100
AcDbXrecord
 90
        1
  0
DICTIONARY
  5
395
330
45
100
AcDbDictionary
280
     1
  3
ACAD_XREC_ROUNDTRIP
360
396
  0
DICTIONARY
  5
393
330
44
100
AcDbDictionary
280
     1
  3
ACAD_XREC_ROUNDTRIP
360
394
  0
DICTIONARY
  5
397
330
46
100
AcDbDictionary
280
     1
  3
ACAD_XREC_ROUNDTRIP
360
398
  0
XRECORD
  5
396
102
{ACAD_REACTORS
330
395
102
}
330
395
100
AcDbXrecord
102
MATERIAL
148
0.0
149
0.0
149
0.0
 93
        0
 94
      127
282
     0
 72
     1
 77
     1
171
     1
175
     1
179
     1
273
     0
  0
XRECORD
  5
394
102
{ACAD_REACTORS
330
393
102
}
330
393
100
AcDbXrecord
102
MATERIAL
148
0.0
149
0.0
149
0.0
 93
        0
 94
      127
282
     0
 72
     1
 77
     1
171
     1
175
     1
179
     1
273
     0
  0
XRECORD
  5
398
102
{ACAD_REACTORS
330
397
102
}
330
397
100
AcDbXrecord
102
MATERIAL
148
0.0
149
0.0
149
0.0
 93
        0
 94
      127
282
     0
 72
     1
 77
     1
171
     1
175
     1
179
     1
273
     0
  0
ENDSEC
  0
EOF
