ISO-10303-21;
HEADER;
/*Generated by software containing ST-Developer
 * from STEP Tools, Inc. (www.steptools.com) 
 */
/*OPTION: using custom renumber hook */
/*description */
/*implementation_level */
FILE_DESCRIPTION(('STEP AP242 Edition 2','STEP AP242 Edition 2''CAx-IF Rec.Pracs.---Representation and Presentation of Product Manufa
cturing Information (PMI)---4.0---2014-10-13','STEP AP242 Edition 2''CAx-IF Rec.Pracs.---Representation and Presentation of Product Manufa
cturing Information (PMI)---4.0---2014-10-13''CAx-IF Rec.Pracs.---3D Tessellated Geometry---0.4---2014-09-14','STEP AP242 Edition 2''CAx-IF Rec.Pracs.---Representation and Presentation of Product Manufa
cturing Information (PMI)---4.0---2014-10-13''CAx-IF Rec.Pracs.---3D Tessellated Geometry---0.4---2014-09-14''2;1','STEP AP242 Edition 2''CAx-IF Rec.Pracs.---Representation and Presentation of Product Manufa
cturing Information (PMI)---4.0---2014-10-13''CAx-IF Rec.Pracs.---3D Tessellated Geometry---0.4---2014-09-14''2;1''CAx-IF Rec.Pracs.---User Defined Attributes---1.5---2016-08-15'),'2;1');
/*name */
/*time_stamp */
/*author */
/*organization */
/*preprocessor_version */
/*originating_system */
/*authorisation */
FILE_NAME('/vol/tmp/translate-7273910794941019011/Steckdeckel.step','2026-02-22T13:00:23',(''),(''),'ST-DEVELOPER v20','ONSHAPE BY PTC INC, 1.211','  ');
FILE_SCHEMA(('AP242_MANAGED_MODEL_BASED_3D_ENGINEERING_MIM_LF { 1 0 10303 442 3 1 4 }'));
ENDSEC;
DATA;
#10=SHAPE_REPRESENTATION_RELATIONSHIP('','',#133,#11);
#11=ADVANCED_BREP_SHAPE_REPRESENTATION('',(#131),#229);
#12=ELLIPSE('',#151,0.0106066017177982,0.0075);
#13=ELLIPSE('',#153,0.0106066017177982,0.0075);
#14=CYLINDRICAL_SURFACE('',#139,0.215);
#15=CYLINDRICAL_SURFACE('',#143,0.175);
#16=CYLINDRICAL_SURFACE('',#147,0.169);
#17=CYLINDRICAL_SURFACE('',#150,0.0075);
#18=CYLINDRICAL_SURFACE('',#152,0.0075);
#19=CYLINDRICAL_SURFACE('',#154,0.0075);
#20=ORIENTED_EDGE('',*,*,#40,.F.);
#21=ORIENTED_EDGE('',*,*,#41,.F.);
#22=ORIENTED_EDGE('',*,*,#42,.T.);
#23=ORIENTED_EDGE('',*,*,#43,.F.);
#24=ORIENTED_EDGE('',*,*,#40,.T.);
#25=ORIENTED_EDGE('',*,*,#44,.F.);
#26=ORIENTED_EDGE('',*,*,#43,.T.);
#27=ORIENTED_EDGE('',*,*,#45,.F.);
#28=ORIENTED_EDGE('',*,*,#44,.T.);
#29=ORIENTED_EDGE('',*,*,#46,.F.);
#30=ORIENTED_EDGE('',*,*,#45,.T.);
#31=ORIENTED_EDGE('',*,*,#47,.F.);
#32=ORIENTED_EDGE('',*,*,#46,.T.);
#33=ORIENTED_EDGE('',*,*,#47,.T.);
#34=ORIENTED_EDGE('',*,*,#41,.T.);
#35=ORIENTED_EDGE('',*,*,#48,.T.);
#36=ORIENTED_EDGE('',*,*,#49,.T.);
#37=ORIENTED_EDGE('',*,*,#48,.F.);
#38=ORIENTED_EDGE('',*,*,#49,.F.);
#39=ORIENTED_EDGE('',*,*,#42,.F.);
#40=EDGE_CURVE('',#50,#50,#60,.T.);
#41=EDGE_CURVE('',#51,#51,#61,.T.);
#42=EDGE_CURVE('',#52,#52,#62,.T.);
#43=EDGE_CURVE('',#53,#53,#63,.T.);
#44=EDGE_CURVE('',#54,#54,#64,.T.);
#45=EDGE_CURVE('',#55,#55,#65,.T.);
#46=EDGE_CURVE('',#56,#56,#66,.T.);
#47=EDGE_CURVE('',#57,#57,#67,.T.);
#48=EDGE_CURVE('',#58,#58,#12,.F.);
#49=EDGE_CURVE('',#59,#59,#13,.F.);
#50=VERTEX_POINT('',#200);
#51=VERTEX_POINT('',#202);
#52=VERTEX_POINT('',#204);
#53=VERTEX_POINT('',#207);
#54=VERTEX_POINT('',#210);
#55=VERTEX_POINT('',#213);
#56=VERTEX_POINT('',#216);
#57=VERTEX_POINT('',#219);
#58=VERTEX_POINT('',#223);
#59=VERTEX_POINT('',#226);
#60=CIRCLE('',#136,0.215);
#61=CIRCLE('',#137,0.0075);
#62=CIRCLE('',#138,0.0075);
#63=CIRCLE('',#140,0.215);
#64=CIRCLE('',#142,0.175);
#65=CIRCLE('',#144,0.175);
#66=CIRCLE('',#146,0.169);
#67=CIRCLE('',#148,0.169);
#68=EDGE_LOOP('',(#20));
#69=EDGE_LOOP('',(#21));
#70=EDGE_LOOP('',(#22));
#71=EDGE_LOOP('',(#23));
#72=EDGE_LOOP('',(#24));
#73=EDGE_LOOP('',(#25));
#74=EDGE_LOOP('',(#26));
#75=EDGE_LOOP('',(#27));
#76=EDGE_LOOP('',(#28));
#77=EDGE_LOOP('',(#29));
#78=EDGE_LOOP('',(#30));
#79=EDGE_LOOP('',(#31));
#80=EDGE_LOOP('',(#32));
#81=EDGE_LOOP('',(#33));
#82=EDGE_LOOP('',(#34));
#83=EDGE_LOOP('',(#35));
#84=EDGE_LOOP('',(#36));
#85=EDGE_LOOP('',(#37));
#86=EDGE_LOOP('',(#38));
#87=EDGE_LOOP('',(#39));
#88=FACE_BOUND('',#68,.T.);
#89=FACE_BOUND('',#69,.T.);
#90=FACE_BOUND('',#70,.T.);
#91=FACE_BOUND('',#71,.T.);
#92=FACE_BOUND('',#72,.T.);
#93=FACE_BOUND('',#73,.T.);
#94=FACE_BOUND('',#74,.T.);
#95=FACE_BOUND('',#75,.T.);
#96=FACE_BOUND('',#76,.T.);
#97=FACE_BOUND('',#77,.T.);
#98=FACE_BOUND('',#78,.T.);
#99=FACE_BOUND('',#79,.T.);
#100=FACE_BOUND('',#80,.T.);
#101=FACE_BOUND('',#81,.T.);
#102=FACE_BOUND('',#82,.T.);
#103=FACE_BOUND('',#83,.T.);
#104=FACE_BOUND('',#84,.T.);
#105=FACE_BOUND('',#85,.T.);
#106=FACE_BOUND('',#86,.T.);
#107=FACE_BOUND('',#87,.T.);
#108=PLANE('',#135);
#109=PLANE('',#141);
#110=PLANE('',#145);
#111=PLANE('',#149);
#112=ADVANCED_FACE('',(#88,#89,#90),#108,.F.);
#113=ADVANCED_FACE('',(#91,#92),#14,.T.);
#114=ADVANCED_FACE('',(#93,#94),#109,.F.);
#115=ADVANCED_FACE('',(#95,#96),#15,.T.);
#116=ADVANCED_FACE('',(#97,#98),#110,.F.);
#117=ADVANCED_FACE('',(#99,#100),#16,.F.);
#118=ADVANCED_FACE('',(#101),#111,.F.);
#119=ADVANCED_FACE('',(#102,#103),#17,.T.);
#120=ADVANCED_FACE('',(#104,#105),#18,.T.);
#121=ADVANCED_FACE('',(#106,#107),#19,.T.);
#122=CLOSED_SHELL('',(#112,#113,#114,#115,#116,#117,#118,#119,#120,#121));
#123=STYLED_ITEM('',(#124),#131);
#124=PRESENTATION_STYLE_ASSIGNMENT((#125));
#125=SURFACE_STYLE_USAGE(.BOTH.,#126);
#126=SURFACE_SIDE_STYLE('',(#127));
#127=SURFACE_STYLE_FILL_AREA(#128);
#128=FILL_AREA_STYLE('',(#129));
#129=FILL_AREA_STYLE_COLOUR('',#130);
#130=COLOUR_RGB('',0.615686274509804,0.811764705882353,0.929411764705882);
#131=MANIFOLD_SOLID_BREP('steckdeckel',#122);
#132=SHAPE_DEFINITION_REPRESENTATION(#234,#133);
#133=SHAPE_REPRESENTATION('steckdeckel',(#134),#229);
#134=AXIS2_PLACEMENT_3D('',#197,#155,#156);
#135=AXIS2_PLACEMENT_3D('',#198,#157,#158);
#136=AXIS2_PLACEMENT_3D('',#199,#159,#160);
#137=AXIS2_PLACEMENT_3D('',#201,#161,#162);
#138=AXIS2_PLACEMENT_3D('',#203,#163,#164);
#139=AXIS2_PLACEMENT_3D('',#205,#165,#166);
#140=AXIS2_PLACEMENT_3D('',#206,#167,#168);
#141=AXIS2_PLACEMENT_3D('',#208,#169,#170);
#142=AXIS2_PLACEMENT_3D('',#209,#171,#172);
#143=AXIS2_PLACEMENT_3D('',#211,#173,#174);
#144=AXIS2_PLACEMENT_3D('',#212,#175,#176);
#145=AXIS2_PLACEMENT_3D('',#214,#177,#178);
#146=AXIS2_PLACEMENT_3D('',#215,#179,#180);
#147=AXIS2_PLACEMENT_3D('',#217,#181,#182);
#148=AXIS2_PLACEMENT_3D('',#218,#183,#184);
#149=AXIS2_PLACEMENT_3D('',#220,#185,#186);
#150=AXIS2_PLACEMENT_3D('',#221,#187,#188);
#151=AXIS2_PLACEMENT_3D('',#222,#189,#190);
#152=AXIS2_PLACEMENT_3D('',#224,#191,#192);
#153=AXIS2_PLACEMENT_3D('',#225,#193,#194);
#154=AXIS2_PLACEMENT_3D('',#227,#195,#196);
#155=DIRECTION('',(0.,0.,1.));
#156=DIRECTION('',(1.,0.,0.));
#157=DIRECTION('',(0.,0.,-1.));
#158=DIRECTION('',(-1.,0.,0.));
#159=DIRECTION('',(0.,0.,-1.));
#160=DIRECTION('',(-1.,0.,0.));
#161=DIRECTION('',(0.,0.,1.));
#162=DIRECTION('',(1.,0.,0.));
#163=DIRECTION('',(-9.9579925010296E-17,0.,-1.));
#164=DIRECTION('',(-1.,0.,9.9579925010296E-17));
#165=DIRECTION('',(0.,0.,-1.));
#166=DIRECTION('',(-1.,0.,0.));
#167=DIRECTION('',(0.,0.,-1.));
#168=DIRECTION('',(-1.,0.,0.));
#169=DIRECTION('',(0.,0.,1.));
#170=DIRECTION('',(1.,0.,0.));
#171=DIRECTION('',(0.,0.,-1.));
#172=DIRECTION('',(-1.,0.,0.));
#173=DIRECTION('',(0.,0.,-1.));
#174=DIRECTION('',(-1.,0.,0.));
#175=DIRECTION('',(0.,0.,-1.));
#176=DIRECTION('',(-1.,0.,0.));
#177=DIRECTION('',(0.,0.,1.));
#178=DIRECTION('',(1.,0.,0.));
#179=DIRECTION('',(0.,0.,-1.));
#180=DIRECTION('',(-1.,0.,0.));
#181=DIRECTION('',(0.,0.,-1.));
#182=DIRECTION('',(-1.,0.,0.));
#183=DIRECTION('',(0.,0.,-1.));
#184=DIRECTION('',(-1.,0.,0.));
#185=DIRECTION('',(0.,0.,1.));
#186=DIRECTION('',(1.,0.,0.));
#187=DIRECTION('',(-6.12323399573677E-17,0.,1.));
#188=DIRECTION('',(1.,0.,6.12323399573677E-17));
#189=DIRECTION('',(0.707106781186548,0.,0.707106781186548));
#190=DIRECTION('',(-0.707106781186548,0.,0.707106781186548));
#191=DIRECTION('',(1.,0.,0.));
#192=DIRECTION('',(0.,0.,-1.));
#193=DIRECTION('',(0.707106781186548,0.,-0.707106781186548));
#194=DIRECTION('',(0.707106781186548,0.,0.707106781186548));
#195=DIRECTION('',(1.22464679914735E-16,0.,-1.));
#196=DIRECTION('',(-1.,0.,-1.22464679914735E-16));
#197=CARTESIAN_POINT('',(0.,0.,0.));
#198=CARTESIAN_POINT('',(-0.1075,0.,-5.63785129692462E-18));
#199=CARTESIAN_POINT('',(0.,0.,-1.12757025938492E-17));
#200=CARTESIAN_POINT('',(-0.215,0.,-1.12757025938492E-17));
#201=CARTESIAN_POINT('',(-0.08,4.59242549680257E-19,-5.63785129692462E-18));
#202=CARTESIAN_POINT('',(-0.0725,4.59242549680257E-19,-5.63785129692462E-18));
#203=CARTESIAN_POINT('',(0.08,4.59242549680257E-19,-2.32854270389905E-18));
#204=CARTESIAN_POINT('',(0.0725,4.59242549680257E-19,-1.58169326632183E-18));
#205=CARTESIAN_POINT('',(0.,0.,0.));
#206=CARTESIAN_POINT('',(0.,0.,-0.015));
#207=CARTESIAN_POINT('',(-0.215,0.,-0.015));
#208=CARTESIAN_POINT('',(-0.195,0.,-0.015));
#209=CARTESIAN_POINT('',(0.,0.,-0.015));
#210=CARTESIAN_POINT('',(-0.175,0.,-0.015));
#211=CARTESIAN_POINT('',(0.,0.,0.));
#212=CARTESIAN_POINT('',(0.,0.,-0.045));
#213=CARTESIAN_POINT('',(-0.175,0.,-0.045));
#214=CARTESIAN_POINT('',(-0.172,0.,-0.045));
#215=CARTESIAN_POINT('',(0.,0.,-0.045));
#216=CARTESIAN_POINT('',(-0.169,0.,-0.045));
#217=CARTESIAN_POINT('',(0.,0.,0.));
#218=CARTESIAN_POINT('',(0.,0.,-0.015));
#219=CARTESIAN_POINT('',(-0.169,0.,-0.015));
#220=CARTESIAN_POINT('',(-0.0845,0.,-0.015));
#221=CARTESIAN_POINT('',(-0.08,4.59242549680257E-19,-5.63785129692462E-18));
#222=CARTESIAN_POINT('',(-0.08,4.59242549680257E-19,0.035));
#223=CARTESIAN_POINT('',(-0.0875,4.59242549680257E-19,0.0425));
#224=CARTESIAN_POINT('',(-1.35895518112332E-17,4.59242549680257E-19,0.035));
#225=CARTESIAN_POINT('',(0.08,4.59242549680257E-19,0.035));
#226=CARTESIAN_POINT('',(0.0875,4.59242549680257E-19,0.0425));
#227=CARTESIAN_POINT('',(0.08,4.59242549680257E-19,0.04335));
#228=MECHANICAL_DESIGN_GEOMETRIC_PRESENTATION_REPRESENTATION('',(#123),#229);
#229=(
GEOMETRIC_REPRESENTATION_CONTEXT(3)
GLOBAL_UNCERTAINTY_ASSIGNED_CONTEXT((#230))
GLOBAL_UNIT_ASSIGNED_CONTEXT((#233,#232,#231))
REPRESENTATION_CONTEXT('steckdeckel','TOP_LEVEL_ASSEMBLY_PART')
);
#230=UNCERTAINTY_MEASURE_WITH_UNIT(LENGTH_MEASURE(1.E-08),#233,'DISTANCE_ACCURACY_VALUE','Maximum Tolerance applied to model');
#231=(
NAMED_UNIT(*)
SI_UNIT($,.STERADIAN.)
SOLID_ANGLE_UNIT()
);
#232=(
NAMED_UNIT(*)
PLANE_ANGLE_UNIT()
SI_UNIT($,.RADIAN.)
);
#233=(
LENGTH_UNIT()
NAMED_UNIT(*)
SI_UNIT($,.METRE.)
);
#234=PRODUCT_DEFINITION_SHAPE('','',#235);
#235=PRODUCT_DEFINITION('','',#237,#236);
#236=PRODUCT_DEFINITION_CONTEXT('',#243,'design');
#237=PRODUCT_DEFINITION_FORMATION_WITH_SPECIFIED_SOURCE('','',#239,.NOT_KNOWN.);
#238=PRODUCT_RELATED_PRODUCT_CATEGORY('','',(#239));
#239=PRODUCT('steckdeckel','steckdeckel','steckdeckel',(#241));
#240=PRODUCT_CATEGORY('','');
#241=PRODUCT_CONTEXT('',#243,'mechanical');
#242=APPLICATION_PROTOCOL_DEFINITION('international standard','ap242_managed_model_based_3d_engineering',2020,#243);
#243=APPLICATION_CONTEXT('managed model based 3d engineering');
ENDSEC;
END-ISO-10303-21;
