ISO-10303-21;
HEADER;
/*Generated by software containing ST-Developer
 * from STEP Tools, Inc. (www.steptools.com) 
 */
/*OPTION: using custom renumber hook */
/*description */
/*implementation_level */
FILE_DESCRIPTION(('STEP AP242 Edition 2','STEP AP242 Edition 2''CAx-IF Rec.Pracs.---Representation and Presentation of Product Manufa
cturing Information (PMI)---4.0---2014-10-13','STEP AP242 Edition 2''CAx-IF Rec.Pracs.---Representation and Presentation of Product Manufa
cturing Information (PMI)---4.0---2014-10-13''CAx-IF Rec.Pracs.---3D Tessellated Geometry---0.4---2014-09-14','STEP AP242 Edition 2''CAx-IF Rec.Pracs.---Representation and Presentation of Product Manufa
cturing Information (PMI)---4.0---2014-10-13''CAx-IF Rec.Pracs.---3D Tessellated Geometry---0.4---2014-09-14''2;1','STEP AP242 Edition 2''CAx-IF Rec.Pracs.---Representation and Presentation of Product Manufa
cturing Information (PMI)---4.0---2014-10-13''CAx-IF Rec.Pracs.---3D Tessellated Geometry---0.4---2014-09-14''2;1''CAx-IF Rec.Pracs.---User Defined Attributes---1.5---2016-08-15'),'2;1');
/*name */
/*time_stamp */
/*author */
/*organization */
/*preprocessor_version */
/*originating_system */
/*authorisation */
FILE_NAME('/vol/tmp/translate-18154615249563356528/T_DN50_DN40.step','2026-02-22T13:01:19',(''),(''),'ST-DEVELOPER v20','ONSHAPE BY PTC INC, 1.211','  ');
FILE_SCHEMA(('AP242_MANAGED_MODEL_BASED_3D_ENGINEERING_MIM_LF { 1 0 10303 442 3 1 4 }'));
ENDSEC;
DATA;
#10=SHAPE_REPRESENTATION_RELATIONSHIP('','',#175,#11);
#11=ADVANCED_BREP_SHAPE_REPRESENTATION('',(#173),#378);
#12=B_SPLINE_CURVE_WITH_KNOTS('',3,(#288,#289,#290,#291,#292,#293,#294,#295,#296,#297,#298,#299,#300,#301,#302,#303,#304,#305,#306,#307,#308,#309,#310,#311,#312,#313,#314,#315,#316,#317,#318,#319,#320,#321,#322,#323,#324),.UNSPECIFIED.,.T.,.F.,(1,1,1,1,1,1,1,1,1,1,1,1,1,1,1,1,1,1,1,1,1,1,1,1,1,1,1,1,1,1,1,1,1,1,1,1,1,1,1,1,1),(-0.0100726591658877,-0.00805812733271019,-0.0040290636663551,0.,0.00805812733271018,0.0120871909990653,0.0161162546654204,0.0201453183317755,0.0241743819981305,0.0282034456644856,0.0302179774976632,0.0322325093308407,0.0362615729971958,0.0382761048303734,0.0402906366635509,0.044319700329906,0.0483487639962611,0.0523778276626162,0.0564068913289713,0.0584214231621488,0.0604359549953264,0.0644650186616815,0.0725231459943916,0.0765522096607467,0.0805812733271018,0.0846103369934569,0.088639400659812,0.0926684643261671,0.0966975279925222,0.100726591658877,0.104755655325232,0.108784718991587,0.112813782657943,0.116842846324298,0.118857378157475,0.120871909990653,0.124900973657008,0.128930037323363,0.136988164656073,0.141017228322428,0.145046291988783),.UNSPECIFIED.);
#13=B_SPLINE_CURVE_WITH_KNOTS('',3,(#329,#330,#331,#332,#333,#334,#335,#336,#337,#338,#339,#340,#341,#342,#343,#344,#345,#346,#347,#348,#349,#350,#351,#352,#353,#354,#355,#356,#357,#358,#359,#360,#361,#362,#363,#364,#365,#366,#367,#368,#369,#370,#371,#372,#373,#374),.UNSPECIFIED.,.T.,.F.,(1,1,1,1,1,1,1,1,1,1,1,1,1,1,1,1,1,1,1,1,1,1,1,1,1,1,1,1,1,1,1,1,1,1,1,1,1,1,1,1,1,1,1,1,1,1,1,1,1,1),(-0.0081506574321957,-0.0054337716214638,-0.0027168858107319,0.,0.0027168858107319,0.00543377162146379,0.0108675432429276,0.0135844290536595,0.0163013148643914,0.0217350864858552,0.027168858107319,0.0326026297287828,0.0380364013502465,0.0407532871609784,0.0434701729717103,0.0489039445931741,0.051620830403906,0.0543377162146379,0.0597714878361017,0.0652052594575655,0.0706390310790293,0.0733559168897612,0.0760728027004931,0.078789688511225,0.0815065743219569,0.0869403459434207,0.0923741175648845,0.0950910033756164,0.0978078891863483,0.10052477499708,0.103241660807812,0.108675432429276,0.11410920405074,0.119542975672203,0.124976747293667,0.130410518915131,0.135844290536595,0.141278062158059,0.146711833779522,0.152145605400986,0.15757937702245,0.160296262833182,0.163013148643914,0.165730034454646,0.168446920265378,0.171163806076109,0.173880691886841,0.176597577697573,0.179314463508305,0.184748235129769),.UNSPECIFIED.);
#14=CYLINDRICAL_SURFACE('',#195,0.0251);
#15=CYLINDRICAL_SURFACE('',#196,0.0251);
#16=CYLINDRICAL_SURFACE('',#197,0.0245);
#17=CYLINDRICAL_SURFACE('',#198,0.0201);
#18=CYLINDRICAL_SURFACE('',#199,0.0195);
#19=CYLINDRICAL_SURFACE('',#200,0.026);
#20=CYLINDRICAL_SURFACE('',#201,0.031);
#21=ORIENTED_EDGE('',*,*,#49,.T.);
#22=ORIENTED_EDGE('',*,*,#50,.T.);
#23=ORIENTED_EDGE('',*,*,#51,.T.);
#24=ORIENTED_EDGE('',*,*,#52,.T.);
#25=ORIENTED_EDGE('',*,*,#53,.T.);
#26=ORIENTED_EDGE('',*,*,#54,.T.);
#27=ORIENTED_EDGE('',*,*,#55,.F.);
#28=ORIENTED_EDGE('',*,*,#56,.F.);
#29=ORIENTED_EDGE('',*,*,#57,.F.);
#30=ORIENTED_EDGE('',*,*,#58,.F.);
#31=ORIENTED_EDGE('',*,*,#59,.F.);
#32=ORIENTED_EDGE('',*,*,#60,.F.);
#33=ORIENTED_EDGE('',*,*,#59,.T.);
#34=ORIENTED_EDGE('',*,*,#50,.F.);
#35=ORIENTED_EDGE('',*,*,#57,.T.);
#36=ORIENTED_EDGE('',*,*,#52,.F.);
#37=ORIENTED_EDGE('',*,*,#60,.T.);
#38=ORIENTED_EDGE('',*,*,#58,.T.);
#39=ORIENTED_EDGE('',*,*,#61,.F.);
#40=ORIENTED_EDGE('',*,*,#54,.F.);
#41=ORIENTED_EDGE('',*,*,#55,.T.);
#42=ORIENTED_EDGE('',*,*,#61,.T.);
#43=ORIENTED_EDGE('',*,*,#56,.T.);
#44=ORIENTED_EDGE('',*,*,#62,.F.);
#45=ORIENTED_EDGE('',*,*,#53,.F.);
#46=ORIENTED_EDGE('',*,*,#51,.F.);
#47=ORIENTED_EDGE('',*,*,#49,.F.);
#48=ORIENTED_EDGE('',*,*,#62,.T.);
#49=EDGE_CURVE('',#63,#63,#77,.T.);
#50=EDGE_CURVE('',#64,#64,#78,.T.);
#51=EDGE_CURVE('',#65,#65,#79,.T.);
#52=EDGE_CURVE('',#66,#66,#80,.T.);
#53=EDGE_CURVE('',#67,#67,#81,.T.);
#54=EDGE_CURVE('',#68,#68,#82,.T.);
#55=EDGE_CURVE('',#69,#69,#83,.T.);
#56=EDGE_CURVE('',#70,#70,#84,.T.);
#57=EDGE_CURVE('',#71,#71,#85,.T.);
#58=EDGE_CURVE('',#72,#72,#86,.T.);
#59=EDGE_CURVE('',#73,#73,#87,.T.);
#60=EDGE_CURVE('',#74,#74,#88,.T.);
#61=EDGE_CURVE('',#75,#75,#12,.T.);
#62=EDGE_CURVE('',#76,#76,#13,.T.);
#63=VERTEX_POINT('',#257);
#64=VERTEX_POINT('',#259);
#65=VERTEX_POINT('',#262);
#66=VERTEX_POINT('',#264);
#67=VERTEX_POINT('',#267);
#68=VERTEX_POINT('',#269);
#69=VERTEX_POINT('',#272);
#70=VERTEX_POINT('',#274);
#71=VERTEX_POINT('',#277);
#72=VERTEX_POINT('',#279);
#73=VERTEX_POINT('',#282);
#74=VERTEX_POINT('',#284);
#75=VERTEX_POINT('',#325);
#76=VERTEX_POINT('',#375);
#77=CIRCLE('',#178,0.031);
#78=CIRCLE('',#179,0.0251);
#79=CIRCLE('',#181,0.031);
#80=CIRCLE('',#182,0.0251);
#81=CIRCLE('',#184,0.026);
#82=CIRCLE('',#185,0.0201);
#83=CIRCLE('',#187,0.0201);
#84=CIRCLE('',#188,0.0195);
#85=CIRCLE('',#190,0.0251);
#86=CIRCLE('',#191,0.0245);
#87=CIRCLE('',#193,0.0251);
#88=CIRCLE('',#194,0.0245);
#89=EDGE_LOOP('',(#21));
#90=EDGE_LOOP('',(#22));
#91=EDGE_LOOP('',(#23));
#92=EDGE_LOOP('',(#24));
#93=EDGE_LOOP('',(#25));
#94=EDGE_LOOP('',(#26));
#95=EDGE_LOOP('',(#27));
#96=EDGE_LOOP('',(#28));
#97=EDGE_LOOP('',(#29));
#98=EDGE_LOOP('',(#30));
#99=EDGE_LOOP('',(#31));
#100=EDGE_LOOP('',(#32));
#101=EDGE_LOOP('',(#33));
#102=EDGE_LOOP('',(#34));
#103=EDGE_LOOP('',(#35));
#104=EDGE_LOOP('',(#36));
#105=EDGE_LOOP('',(#37));
#106=EDGE_LOOP('',(#38));
#107=EDGE_LOOP('',(#39));
#108=EDGE_LOOP('',(#40));
#109=EDGE_LOOP('',(#41));
#110=EDGE_LOOP('',(#42));
#111=EDGE_LOOP('',(#43));
#112=EDGE_LOOP('',(#44));
#113=EDGE_LOOP('',(#45));
#114=EDGE_LOOP('',(#46));
#115=EDGE_LOOP('',(#47));
#116=EDGE_LOOP('',(#48));
#117=FACE_BOUND('',#89,.T.);
#118=FACE_BOUND('',#90,.T.);
#119=FACE_BOUND('',#91,.T.);
#120=FACE_BOUND('',#92,.T.);
#121=FACE_BOUND('',#93,.T.);
#122=FACE_BOUND('',#94,.T.);
#123=FACE_BOUND('',#95,.T.);
#124=FACE_BOUND('',#96,.T.);
#125=FACE_BOUND('',#97,.T.);
#126=FACE_BOUND('',#98,.T.);
#127=FACE_BOUND('',#99,.T.);
#128=FACE_BOUND('',#100,.T.);
#129=FACE_BOUND('',#101,.T.);
#130=FACE_BOUND('',#102,.T.);
#131=FACE_BOUND('',#103,.T.);
#132=FACE_BOUND('',#104,.T.);
#133=FACE_BOUND('',#105,.T.);
#134=FACE_BOUND('',#106,.T.);
#135=FACE_BOUND('',#107,.T.);
#136=FACE_BOUND('',#108,.T.);
#137=FACE_BOUND('',#109,.T.);
#138=FACE_BOUND('',#110,.T.);
#139=FACE_BOUND('',#111,.T.);
#140=FACE_BOUND('',#112,.T.);
#141=FACE_BOUND('',#113,.T.);
#142=FACE_BOUND('',#114,.T.);
#143=FACE_BOUND('',#115,.T.);
#144=FACE_BOUND('',#116,.T.);
#145=PLANE('',#177);
#146=PLANE('',#180);
#147=PLANE('',#183);
#148=PLANE('',#186);
#149=PLANE('',#189);
#150=PLANE('',#192);
#151=ADVANCED_FACE('',(#117,#118),#145,.T.);
#152=ADVANCED_FACE('',(#119,#120),#146,.T.);
#153=ADVANCED_FACE('',(#121,#122),#147,.T.);
#154=ADVANCED_FACE('',(#123,#124),#148,.F.);
#155=ADVANCED_FACE('',(#125,#126),#149,.F.);
#156=ADVANCED_FACE('',(#127,#128),#150,.F.);
#157=ADVANCED_FACE('',(#129,#130),#14,.F.);
#158=ADVANCED_FACE('',(#131,#132),#15,.F.);
#159=ADVANCED_FACE('',(#133,#134,#135),#16,.F.);
#160=ADVANCED_FACE('',(#136,#137),#17,.F.);
#161=ADVANCED_FACE('',(#138,#139),#18,.F.);
#162=ADVANCED_FACE('',(#140,#141),#19,.T.);
#163=ADVANCED_FACE('',(#142,#143,#144),#20,.T.);
#164=CLOSED_SHELL('',(#151,#152,#153,#154,#155,#156,#157,#158,#159,#160,#161,#162,#163));
#165=STYLED_ITEM('',(#166),#173);
#166=PRESENTATION_STYLE_ASSIGNMENT((#167));
#167=SURFACE_STYLE_USAGE(.BOTH.,#168);
#168=SURFACE_SIDE_STYLE('',(#169));
#169=SURFACE_STYLE_FILL_AREA(#170);
#170=FILL_AREA_STYLE('',(#171));
#171=FILL_AREA_STYLE_COLOUR('',#172);
#172=COLOUR_RGB('',0.627450980392157,0.627450980392157,0.627450980392157);
#173=MANIFOLD_SOLID_BREP('DN50_40_T',#164);
#174=SHAPE_DEFINITION_REPRESENTATION(#383,#175);
#175=SHAPE_REPRESENTATION('DN50_40_T',(#176),#378);
#176=AXIS2_PLACEMENT_3D('',#254,#202,#203);
#177=AXIS2_PLACEMENT_3D('',#255,#204,#205);
#178=AXIS2_PLACEMENT_3D('',#256,#206,#207);
#179=AXIS2_PLACEMENT_3D('',#258,#208,#209);
#180=AXIS2_PLACEMENT_3D('',#260,#210,#211);
#181=AXIS2_PLACEMENT_3D('',#261,#212,#213);
#182=AXIS2_PLACEMENT_3D('',#263,#214,#215);
#183=AXIS2_PLACEMENT_3D('',#265,#216,#217);
#184=AXIS2_PLACEMENT_3D('',#266,#218,#219);
#185=AXIS2_PLACEMENT_3D('',#268,#220,#221);
#186=AXIS2_PLACEMENT_3D('',#270,#222,#223);
#187=AXIS2_PLACEMENT_3D('',#271,#224,#225);
#188=AXIS2_PLACEMENT_3D('',#273,#226,#227);
#189=AXIS2_PLACEMENT_3D('',#275,#228,#229);
#190=AXIS2_PLACEMENT_3D('',#276,#230,#231);
#191=AXIS2_PLACEMENT_3D('',#278,#232,#233);
#192=AXIS2_PLACEMENT_3D('',#280,#234,#235);
#193=AXIS2_PLACEMENT_3D('',#281,#236,#237);
#194=AXIS2_PLACEMENT_3D('',#283,#238,#239);
#195=AXIS2_PLACEMENT_3D('',#285,#240,#241);
#196=AXIS2_PLACEMENT_3D('',#286,#242,#243);
#197=AXIS2_PLACEMENT_3D('',#287,#244,#245);
#198=AXIS2_PLACEMENT_3D('',#326,#246,#247);
#199=AXIS2_PLACEMENT_3D('',#327,#248,#249);
#200=AXIS2_PLACEMENT_3D('',#328,#250,#251);
#201=AXIS2_PLACEMENT_3D('',#376,#252,#253);
#202=DIRECTION('',(0.,0.,1.));
#203=DIRECTION('',(1.,0.,0.));
#204=DIRECTION('',(0.,0.,1.));
#205=DIRECTION('',(1.,0.,0.));
#206=DIRECTION('',(0.,0.,1.));
#207=DIRECTION('',(1.,0.,0.));
#208=DIRECTION('',(0.,0.,-1.));
#209=DIRECTION('',(1.,0.,0.));
#210=DIRECTION('',(0.,0.,-1.));
#211=DIRECTION('',(-1.,0.,0.));
#212=DIRECTION('',(0.,0.,-1.));
#213=DIRECTION('',(1.,0.,0.));
#214=DIRECTION('',(0.,0.,1.));
#215=DIRECTION('',(1.,0.,0.));
#216=DIRECTION('',(1.,0.,0.));
#217=DIRECTION('',(0.,0.,-1.));
#218=DIRECTION('',(1.,0.,0.));
#219=DIRECTION('',(0.,0.,-1.));
#220=DIRECTION('',(-1.,0.,0.));
#221=DIRECTION('',(0.,0.,-1.));
#222=DIRECTION('',(-1.,0.,0.));
#223=DIRECTION('',(0.,0.,1.));
#224=DIRECTION('',(-1.,0.,0.));
#225=DIRECTION('',(0.,0.,-1.));
#226=DIRECTION('',(1.,0.,0.));
#227=DIRECTION('',(0.,0.,-1.));
#228=DIRECTION('',(0.,0.,1.));
#229=DIRECTION('',(1.,0.,0.));
#230=DIRECTION('',(0.,0.,1.));
#231=DIRECTION('',(1.,0.,0.));
#232=DIRECTION('',(0.,0.,-1.));
#233=DIRECTION('',(1.,0.,0.));
#234=DIRECTION('',(0.,0.,-1.));
#235=DIRECTION('',(-1.,0.,0.));
#236=DIRECTION('',(0.,0.,-1.));
#237=DIRECTION('',(-1.,0.,0.));
#238=DIRECTION('',(0.,0.,1.));
#239=DIRECTION('',(1.,0.,0.));
#240=DIRECTION('',(0.,0.,1.));
#241=DIRECTION('',(1.,0.,0.));
#242=DIRECTION('',(0.,0.,1.));
#243=DIRECTION('',(1.,0.,0.));
#244=DIRECTION('',(0.,0.,1.));
#245=DIRECTION('',(1.,0.,0.));
#246=DIRECTION('',(1.,0.,0.));
#247=DIRECTION('',(0.,0.,-1.));
#248=DIRECTION('',(1.,0.,0.));
#249=DIRECTION('',(0.,0.,-1.));
#250=DIRECTION('',(1.,0.,0.));
#251=DIRECTION('',(0.,0.,-1.));
#252=DIRECTION('',(0.,0.,1.));
#253=DIRECTION('',(1.,0.,0.));
#254=CARTESIAN_POINT('',(0.,0.,0.));
#255=CARTESIAN_POINT('',(0.,0.,0.059));
#256=CARTESIAN_POINT('',(0.,0.,0.059));
#257=CARTESIAN_POINT('',(0.031,0.,0.059));
#258=CARTESIAN_POINT('',(0.,0.,0.059));
#259=CARTESIAN_POINT('',(0.0251,0.,0.059));
#260=CARTESIAN_POINT('',(0.,0.,-0.059));
#261=CARTESIAN_POINT('',(0.,0.,-0.059));
#262=CARTESIAN_POINT('',(0.031,0.,-0.059));
#263=CARTESIAN_POINT('',(0.,0.,-0.059));
#264=CARTESIAN_POINT('',(0.0251,0.,-0.059));
#265=CARTESIAN_POINT('',(0.054,0.,0.));
#266=CARTESIAN_POINT('',(0.054,0.,0.));
#267=CARTESIAN_POINT('',(0.054,0.,-0.026));
#268=CARTESIAN_POINT('',(0.054,0.,0.));
#269=CARTESIAN_POINT('',(0.054,0.,-0.0201));
#270=CARTESIAN_POINT('',(0.028,0.,0.));
#271=CARTESIAN_POINT('',(0.028,0.,0.));
#272=CARTESIAN_POINT('',(0.028,0.,-0.0201));
#273=CARTESIAN_POINT('',(0.028,0.,0.));
#274=CARTESIAN_POINT('',(0.028,0.,-0.0195));
#275=CARTESIAN_POINT('',(0.,0.,-0.028));
#276=CARTESIAN_POINT('',(0.,0.,-0.028));
#277=CARTESIAN_POINT('',(0.0251,0.,-0.028));
#278=CARTESIAN_POINT('',(0.,0.,-0.028));
#279=CARTESIAN_POINT('',(0.0245,0.,-0.028));
#280=CARTESIAN_POINT('',(0.,0.,0.028));
#281=CARTESIAN_POINT('',(0.,0.,0.028));
#282=CARTESIAN_POINT('',(-0.0251,0.,0.028));
#283=CARTESIAN_POINT('',(0.,0.,0.028));
#284=CARTESIAN_POINT('',(0.0245,0.,0.028));
#285=CARTESIAN_POINT('',(0.,0.,-0.0435));
#286=CARTESIAN_POINT('',(0.,0.,-0.0435));
#287=CARTESIAN_POINT('',(0.,0.,0.));
#288=CARTESIAN_POINT('',(0.0242649860868158,-0.00410042720649342,0.0192060685954029));
#289=CARTESIAN_POINT('',(0.0247349155377928,0.00138396511718981,0.019792396261628));
#290=CARTESIAN_POINT('',(0.0237956468881872,0.00671395300564497,0.0186289517869927));
#291=CARTESIAN_POINT('',(0.021892551180023,0.0111759929891669,0.0161233122900405));
#292=CARTESIAN_POINT('',(0.0202049389421999,0.0139729302747719,0.0137637714832234));
#293=CARTESIAN_POINT('',(0.0183719832118329,0.0162845184930641,0.0109276632080574));
#294=CARTESIAN_POINT('',(0.0166425053769561,0.0180234620640033,0.00774746966556441));
#295=CARTESIAN_POINT('',(0.0154648613412992,0.019010100192919,0.00467786280914054));
#296=CARTESIAN_POINT('',(0.0149309714275424,0.0194256052350949,0.00206620641760282));
#297=CARTESIAN_POINT('',(0.0147350951260009,0.0195728717631401,-0.000685034326933613));
#298=CARTESIAN_POINT('',(0.0151192468842809,0.0192874502580382,-0.00335830603653976));
#299=CARTESIAN_POINT('',(0.0159267185758944,0.0186239909174198,-0.0058835468835941));
#300=CARTESIAN_POINT('',(0.0169073011518939,0.0177556778866197,-0.00822758270780851));
#301=CARTESIAN_POINT('',(0.0183778503806907,0.0162770904206017,-0.0109394764882032));
#302=CARTESIAN_POINT('',(0.020177633190174,0.0140123528008251,-0.0137226868354835));
#303=CARTESIAN_POINT('',(0.0218959923787867,0.0111706892270102,-0.0161284189112258));
#304=CARTESIAN_POINT('',(0.023067164075289,0.00842371966365057,-0.0176710647367854));
#305=CARTESIAN_POINT('',(0.0237914085071674,0.00595577913205481,-0.0186031920583653));
#306=CARTESIAN_POINT('',(0.0243237835003151,0.00341270068543964,-0.0192796012041079));
#307=CARTESIAN_POINT('',(0.0247348459387761,-0.00137764137642837,-0.0197921873946893));
#308=CARTESIAN_POINT('',(0.0237958357363736,-0.00671482539891051,-0.0186291879145237));
#309=CARTESIAN_POINT('',(0.0218917529448386,-0.0111775006456836,-0.0161223210837897));
#310=CARTESIAN_POINT('',(0.0202034216274213,-0.0139752664704071,-0.013761313175011));
#311=CARTESIAN_POINT('',(0.0183695898831567,-0.0162871174852347,-0.0109248298179628));
#312=CARTESIAN_POINT('',(0.0166402114132148,-0.0180259313938758,-0.00773861636272986));
#313=CARTESIAN_POINT('',(0.0152256284305351,-0.0192091701861396,-0.00406890544966418));
#314=CARTESIAN_POINT('',(0.014637023170635,-0.0196445666856215,-8.79240837489427E-06));
#315=CARTESIAN_POINT('',(0.0152206795375927,-0.0192125487672212,0.00404622033749348));
#316=CARTESIAN_POINT('',(0.0166222748524536,-0.0180427816777234,0.00770174899465576));
#317=CARTESIAN_POINT('',(0.0183660241194673,-0.0162909902539884,0.0109197709086628));
#318=CARTESIAN_POINT('',(0.0201911346623381,-0.013993420228196,0.0137431132582186));
#319=CARTESIAN_POINT('',(0.0216054741927942,-0.0116509581880726,0.0157216698759014));
#320=CARTESIAN_POINT('',(0.022590968942226,-0.00953881160409172,0.0170433877507065));
#321=CARTESIAN_POINT('',(0.023470394455759,-0.0072201003542471,0.0181950652623104));
#322=CARTESIAN_POINT('',(0.0242649860868158,-0.00410042720649342,0.0192060685954029));
#323=CARTESIAN_POINT('',(0.0247349155377928,0.00138396511718981,0.019792396261628));
#324=CARTESIAN_POINT('',(0.0237956468881872,0.00671395300564497,0.0186289517869927));
#325=CARTESIAN_POINT('',(0.0245,-2.74914368613571E-18,0.0195));
#326=CARTESIAN_POINT('',(0.041,0.,0.));
#327=CARTESIAN_POINT('',(0.027,0.,0.));
#328=CARTESIAN_POINT('',(0.027,0.,0.));
#329=CARTESIAN_POINT('',(0.030917961423216,-0.00274185151920449,0.0259022570912569));
#330=CARTESIAN_POINT('',(0.0310410209007757,-1.08031282265969E-07,0.0260488699946431));
#331=CARTESIAN_POINT('',(0.0309179549736814,0.00274228364433354,0.0259022629301707));
#332=CARTESIAN_POINT('',(0.030447896765668,0.00628689363009788,0.0253403455769701));
#333=CARTESIAN_POINT('',(0.0295272856839221,0.00969965290354894,0.0242312022561498));
#334=CARTESIAN_POINT('',(0.0282896920395203,0.0127543892966003,0.0227045422370582));
#335=CARTESIAN_POINT('',(0.0268549348259567,0.0156247699235351,0.0208987139378206));
#336=CARTESIAN_POINT('',(0.0248448125687289,0.0186993821080215,0.0182778317536368));
#337=CARTESIAN_POINT('',(0.022196199493021,0.0217493989439483,0.0145120387695424));
#338=CARTESIAN_POINT('',(0.0196553168233104,0.0240378599105896,0.0103046766913342));
#339=CARTESIAN_POINT('',(0.0178684876486571,0.0253450277329965,0.00624938150334673));
#340=CARTESIAN_POINT('',(0.0170305596058296,0.0259044962161816,0.00272935120217888));
#341=CARTESIAN_POINT('',(0.0167288512529777,0.0260976182957154,-0.000970028780393125));
#342=CARTESIAN_POINT('',(0.0173596206731925,0.02569836132517,-0.00457804889992681));
#343=CARTESIAN_POINT('',(0.0186015932717386,0.0248099523770497,-0.00791129294406094));
#344=CARTESIAN_POINT('',(0.0200818258685366,0.0236534214531084,-0.0110113297561392));
#345=CARTESIAN_POINT('',(0.0222392844665928,0.0217038815004877,-0.0145777935515539));
#346=CARTESIAN_POINT('',(0.0248330228537311,0.0187159659091419,-0.0182606090503181));
#347=CARTESIAN_POINT('',(0.0268838244831337,0.0155735393745993,-0.0209359318035058));
#348=CARTESIAN_POINT('',(0.0282908941151126,0.0127501767396558,-0.0227058305475745));
#349=CARTESIAN_POINT('',(0.0292239146645565,0.0104467940441881,-0.0238570464576129));
#350=CARTESIAN_POINT('',(0.0299942233444325,0.00797421144391921,-0.0247936027906447));
#351=CARTESIAN_POINT('',(0.0307542482221065,0.00455689155566503,-0.0257079918271596));
#352=CARTESIAN_POINT('',(0.031164622704662,-7.07395768488903E-05,-0.026195595873939));
#353=CARTESIAN_POINT('',(0.0307517169167669,-0.00457203066158064,-0.0257050217370798));
#354=CARTESIAN_POINT('',(0.0299764903215626,-0.00804446324924066,-0.0247721955199718));
#355=CARTESIAN_POINT('',(0.0292065072322901,-0.0104918303383956,-0.0238356459959812));
#356=CARTESIAN_POINT('',(0.0282763934674076,-0.0127845076558541,-0.0226879714449656));
#357=CARTESIAN_POINT('',(0.0268408470749025,-0.0156480580288924,-0.0208806777072317));
#358=CARTESIAN_POINT('',(0.0248307908043188,-0.0187178913059305,-0.0182585728091589));
#359=CARTESIAN_POINT('',(0.0221831209065927,-0.0217621212956602,-0.0144931918896257));
#360=CARTESIAN_POINT('',(0.0196468869489956,-0.0240452289448347,-0.0102842483710261));
#361=CARTESIAN_POINT('',(0.0175000203006034,-0.0256119841632474,-0.00542680339321271));
#362=CARTESIAN_POINT('',(0.016568720775455,-0.026196805997535,2.62844188203412E-05));
#363=CARTESIAN_POINT('',(0.0175168725259322,-0.0256007153378752,0.00547616723967731));
#364=CARTESIAN_POINT('',(0.0196654137243012,-0.0240304889329378,0.0103186263614419));
#365=CARTESIAN_POINT('',(0.0222098823076025,-0.0217352824966593,0.0145340363256405));
#366=CARTESIAN_POINT('',(0.0248536236158267,-0.0186875216076223,0.0182891461501492));
#367=CARTESIAN_POINT('',(0.0268619682777334,-0.0156122390929847,0.0209077874620752));
#368=CARTESIAN_POINT('',(0.0282951132927136,-0.0127430082224866,0.0227112537909054));
#369=CARTESIAN_POINT('',(0.0292201798038472,-0.0104531151477537,0.0238523687999113));
#370=CARTESIAN_POINT('',(0.0299860819855843,-0.00800892769846416,0.024783771600206));
#371=CARTESIAN_POINT('',(0.0305659236651821,-0.0053961615250696,0.0254814909641643));
#372=CARTESIAN_POINT('',(0.030917961423216,-0.00274185151920449,0.0259022570912569));
#373=CARTESIAN_POINT('',(0.0310410209007757,-1.08031282265969E-07,0.0260488699946431));
#374=CARTESIAN_POINT('',(0.0309179549736814,0.00274228364433354,0.0259022629301707));
#375=CARTESIAN_POINT('',(0.031,9.92044987824237E-21,0.026));
#376=CARTESIAN_POINT('',(0.,0.,0.));
#377=MECHANICAL_DESIGN_GEOMETRIC_PRESENTATION_REPRESENTATION('',(#165),#378);
#378=(
GEOMETRIC_REPRESENTATION_CONTEXT(3)
GLOBAL_UNCERTAINTY_ASSIGNED_CONTEXT((#379))
GLOBAL_UNIT_ASSIGNED_CONTEXT((#382,#381,#380))
REPRESENTATION_CONTEXT('DN50_40_T','TOP_LEVEL_ASSEMBLY_PART')
);
#379=UNCERTAINTY_MEASURE_WITH_UNIT(LENGTH_MEASURE(2.E-05),#382,'DISTANCE_ACCURACY_VALUE','Maximum Tolerance applied to model');
#380=(
NAMED_UNIT(*)
SI_UNIT($,.STERADIAN.)
SOLID_ANGLE_UNIT()
);
#381=(
NAMED_UNIT(*)
PLANE_ANGLE_UNIT()
SI_UNIT($,.RADIAN.)
);
#382=(
LENGTH_UNIT()
NAMED_UNIT(*)
SI_UNIT($,.METRE.)
);
#383=PRODUCT_DEFINITION_SHAPE('','',#384);
#384=PRODUCT_DEFINITION('','',#386,#385);
#385=PRODUCT_DEFINITION_CONTEXT('',#392,'design');
#386=PRODUCT_DEFINITION_FORMATION_WITH_SPECIFIED_SOURCE('','',#388,.NOT_KNOWN.);
#387=PRODUCT_RELATED_PRODUCT_CATEGORY('','',(#388));
#388=PRODUCT('DN50_40_T','DN50_40_T','DN50_40_T',(#390));
#389=PRODUCT_CATEGORY('','');
#390=PRODUCT_CONTEXT('',#392,'mechanical');
#391=APPLICATION_PROTOCOL_DEFINITION('international standard','ap242_managed_model_based_3d_engineering',2020,#392);
#392=APPLICATION_CONTEXT('managed model based 3d engineering');
ENDSEC;
END-ISO-10303-21;
