ISO-10303-21;
HEADER;
/*Generated by software containing ST-Developer
 * from STEP Tools, Inc. (www.steptools.com) 
 */
/*OPTION: using custom renumber hook */
/*description */
/*implementation_level */
FILE_DESCRIPTION(('STEP AP242 Edition 2','STEP AP242 Edition 2''CAx-IF Rec.Pracs.---Representation and Presentation of Product Manufa
cturing Information (PMI)---4.0---2014-10-13','STEP AP242 Edition 2''CAx-IF Rec.Pracs.---Representation and Presentation of Product Manufa
cturing Information (PMI)---4.0---2014-10-13''CAx-IF Rec.Pracs.---3D Tessellated Geometry---0.4---2014-09-14','STEP AP242 Edition 2''CAx-IF Rec.Pracs.---Representation and Presentation of Product Manufa
cturing Information (PMI)---4.0---2014-10-13''CAx-IF Rec.Pracs.---3D Tessellated Geometry---0.4---2014-09-14''2;1','STEP AP242 Edition 2''CAx-IF Rec.Pracs.---Representation and Presentation of Product Manufa
cturing Information (PMI)---4.0---2014-10-13''CAx-IF Rec.Pracs.---3D Tessellated Geometry---0.4---2014-09-14''2;1''CAx-IF Rec.Pracs.---User Defined Attributes---1.5---2016-08-15'),'2;1');
/*name */
/*time_stamp */
/*author */
/*organization */
/*preprocessor_version */
/*originating_system */
/*authorisation */
FILE_NAME('/vol/tmp/translate-1779992033081108736/einlage_mitte.step','2026-03-04T07:37:41',(''),(''),'ST-DEVELOPER v20','ONSHAPE BY PTC INC, 1.211','  ');
FILE_SCHEMA(('AP242_MANAGED_MODEL_BASED_3D_ENGINEERING_MIM_LF { 1 0 10303 442 3 1 4 }'));
ENDSEC;
DATA;
#10=SHAPE_REPRESENTATION_RELATIONSHIP('','',#365,#11);
#11=ADVANCED_BREP_SHAPE_REPRESENTATION('',(#363),#567);
#12=ORIENTED_EDGE('',*,*,#108,.T.);
#13=ORIENTED_EDGE('',*,*,#109,.T.);
#14=ORIENTED_EDGE('',*,*,#110,.T.);
#15=ORIENTED_EDGE('',*,*,#111,.T.);
#16=ORIENTED_EDGE('',*,*,#112,.F.);
#17=ORIENTED_EDGE('',*,*,#113,.F.);
#18=ORIENTED_EDGE('',*,*,#114,.T.);
#19=ORIENTED_EDGE('',*,*,#115,.F.);
#20=ORIENTED_EDGE('',*,*,#116,.F.);
#21=ORIENTED_EDGE('',*,*,#117,.T.);
#22=ORIENTED_EDGE('',*,*,#118,.F.);
#23=ORIENTED_EDGE('',*,*,#119,.F.);
#24=ORIENTED_EDGE('',*,*,#120,.F.);
#25=ORIENTED_EDGE('',*,*,#121,.F.);
#26=ORIENTED_EDGE('',*,*,#122,.T.);
#27=ORIENTED_EDGE('',*,*,#123,.T.);
#28=ORIENTED_EDGE('',*,*,#124,.T.);
#29=ORIENTED_EDGE('',*,*,#125,.T.);
#30=ORIENTED_EDGE('',*,*,#126,.F.);
#31=ORIENTED_EDGE('',*,*,#127,.F.);
#32=ORIENTED_EDGE('',*,*,#128,.F.);
#33=ORIENTED_EDGE('',*,*,#129,.F.);
#34=ORIENTED_EDGE('',*,*,#130,.T.);
#35=ORIENTED_EDGE('',*,*,#131,.T.);
#36=ORIENTED_EDGE('',*,*,#132,.F.);
#37=ORIENTED_EDGE('',*,*,#116,.T.);
#38=ORIENTED_EDGE('',*,*,#133,.F.);
#39=ORIENTED_EDGE('',*,*,#134,.F.);
#40=ORIENTED_EDGE('',*,*,#110,.F.);
#41=ORIENTED_EDGE('',*,*,#135,.T.);
#42=ORIENTED_EDGE('',*,*,#136,.T.);
#43=ORIENTED_EDGE('',*,*,#137,.T.);
#44=ORIENTED_EDGE('',*,*,#136,.F.);
#45=ORIENTED_EDGE('',*,*,#138,.T.);
#46=ORIENTED_EDGE('',*,*,#134,.T.);
#47=ORIENTED_EDGE('',*,*,#139,.T.);
#48=ORIENTED_EDGE('',*,*,#140,.T.);
#49=ORIENTED_EDGE('',*,*,#141,.T.);
#50=ORIENTED_EDGE('',*,*,#113,.T.);
#51=ORIENTED_EDGE('',*,*,#142,.T.);
#52=ORIENTED_EDGE('',*,*,#124,.F.);
#53=ORIENTED_EDGE('',*,*,#143,.F.);
#54=ORIENTED_EDGE('',*,*,#121,.T.);
#55=ORIENTED_EDGE('',*,*,#144,.F.);
#56=ORIENTED_EDGE('',*,*,#127,.T.);
#57=ORIENTED_EDGE('',*,*,#145,.F.);
#58=ORIENTED_EDGE('',*,*,#122,.F.);
#59=ORIENTED_EDGE('',*,*,#143,.T.);
#60=ORIENTED_EDGE('',*,*,#139,.F.);
#61=ORIENTED_EDGE('',*,*,#133,.T.);
#62=ORIENTED_EDGE('',*,*,#123,.F.);
#63=ORIENTED_EDGE('',*,*,#145,.T.);
#64=ORIENTED_EDGE('',*,*,#126,.T.);
#65=ORIENTED_EDGE('',*,*,#146,.F.);
#66=ORIENTED_EDGE('',*,*,#111,.F.);
#67=ORIENTED_EDGE('',*,*,#137,.F.);
#68=ORIENTED_EDGE('',*,*,#125,.F.);
#69=ORIENTED_EDGE('',*,*,#142,.F.);
#70=ORIENTED_EDGE('',*,*,#112,.T.);
#71=ORIENTED_EDGE('',*,*,#146,.T.);
#72=ORIENTED_EDGE('',*,*,#120,.T.);
#73=ORIENTED_EDGE('',*,*,#147,.T.);
#74=ORIENTED_EDGE('',*,*,#148,.F.);
#75=ORIENTED_EDGE('',*,*,#144,.T.);
#76=ORIENTED_EDGE('',*,*,#149,.F.);
#77=ORIENTED_EDGE('',*,*,#114,.F.);
#78=ORIENTED_EDGE('',*,*,#141,.F.);
#79=ORIENTED_EDGE('',*,*,#150,.T.);
#80=ORIENTED_EDGE('',*,*,#151,.F.);
#81=ORIENTED_EDGE('',*,*,#150,.F.);
#82=ORIENTED_EDGE('',*,*,#140,.F.);
#83=ORIENTED_EDGE('',*,*,#148,.T.);
#84=ORIENTED_EDGE('',*,*,#129,.T.);
#85=ORIENTED_EDGE('',*,*,#152,.T.);
#86=ORIENTED_EDGE('',*,*,#108,.F.);
#87=ORIENTED_EDGE('',*,*,#153,.F.);
#88=ORIENTED_EDGE('',*,*,#154,.T.);
#89=ORIENTED_EDGE('',*,*,#118,.T.);
#90=ORIENTED_EDGE('',*,*,#155,.F.);
#91=ORIENTED_EDGE('',*,*,#131,.F.);
#92=ORIENTED_EDGE('',*,*,#128,.T.);
#93=ORIENTED_EDGE('',*,*,#155,.T.);
#94=ORIENTED_EDGE('',*,*,#117,.F.);
#95=ORIENTED_EDGE('',*,*,#132,.T.);
#96=ORIENTED_EDGE('',*,*,#138,.F.);
#97=ORIENTED_EDGE('',*,*,#135,.F.);
#98=ORIENTED_EDGE('',*,*,#109,.F.);
#99=ORIENTED_EDGE('',*,*,#152,.F.);
#100=ORIENTED_EDGE('',*,*,#153,.T.);
#101=ORIENTED_EDGE('',*,*,#115,.T.);
#102=ORIENTED_EDGE('',*,*,#149,.T.);
#103=ORIENTED_EDGE('',*,*,#151,.T.);
#104=ORIENTED_EDGE('',*,*,#147,.F.);
#105=ORIENTED_EDGE('',*,*,#119,.T.);
#106=ORIENTED_EDGE('',*,*,#154,.F.);
#107=ORIENTED_EDGE('',*,*,#130,.F.);
#108=EDGE_CURVE('',#156,#157,#188,.T.);
#109=EDGE_CURVE('',#157,#158,#189,.T.);
#110=EDGE_CURVE('',#158,#159,#190,.T.);
#111=EDGE_CURVE('',#159,#160,#191,.T.);
#112=EDGE_CURVE('',#161,#160,#192,.T.);
#113=EDGE_CURVE('',#162,#161,#193,.T.);
#114=EDGE_CURVE('',#162,#163,#194,.T.);
#115=EDGE_CURVE('',#156,#163,#195,.T.);
#116=EDGE_CURVE('',#164,#165,#196,.T.);
#117=EDGE_CURVE('',#164,#166,#197,.T.);
#118=EDGE_CURVE('',#167,#166,#198,.T.);
#119=EDGE_CURVE('',#168,#167,#199,.T.);
#120=EDGE_CURVE('',#169,#168,#200,.T.);
#121=EDGE_CURVE('',#170,#169,#201,.T.);
#122=EDGE_CURVE('',#170,#171,#202,.T.);
#123=EDGE_CURVE('',#171,#165,#203,.T.);
#124=EDGE_CURVE('',#172,#173,#204,.T.);
#125=EDGE_CURVE('',#173,#174,#205,.T.);
#126=EDGE_CURVE('',#175,#174,#206,.T.);
#127=EDGE_CURVE('',#172,#175,#207,.T.);
#128=EDGE_CURVE('',#176,#177,#208,.T.);
#129=EDGE_CURVE('',#178,#176,#209,.T.);
#130=EDGE_CURVE('',#178,#179,#210,.T.);
#131=EDGE_CURVE('',#179,#177,#211,.T.);
#132=EDGE_CURVE('',#164,#180,#212,.T.);
#133=EDGE_CURVE('',#181,#165,#213,.T.);
#134=EDGE_CURVE('',#180,#181,#214,.T.);
#135=EDGE_CURVE('',#158,#182,#215,.T.);
#136=EDGE_CURVE('',#182,#183,#216,.T.);
#137=EDGE_CURVE('',#183,#159,#217,.T.);
#138=EDGE_CURVE('',#182,#180,#218,.T.);
#139=EDGE_CURVE('',#181,#183,#219,.T.);
#140=EDGE_CURVE('',#184,#185,#220,.T.);
#141=EDGE_CURVE('',#185,#162,#221,.T.);
#142=EDGE_CURVE('',#161,#173,#222,.T.);
#143=EDGE_CURVE('',#170,#172,#223,.T.);
#144=EDGE_CURVE('',#184,#169,#224,.T.);
#145=EDGE_CURVE('',#171,#175,#225,.T.);
#146=EDGE_CURVE('',#160,#174,#226,.T.);
#147=EDGE_CURVE('',#168,#186,#227,.T.);
#148=EDGE_CURVE('',#184,#186,#228,.T.);
#149=EDGE_CURVE('',#163,#187,#229,.T.);
#150=EDGE_CURVE('',#185,#187,#230,.T.);
#151=EDGE_CURVE('',#187,#186,#231,.T.);
#152=EDGE_CURVE('',#176,#157,#232,.T.);
#153=EDGE_CURVE('',#178,#156,#233,.T.);
#154=EDGE_CURVE('',#179,#167,#234,.T.);
#155=EDGE_CURVE('',#177,#166,#235,.T.);
#156=VERTEX_POINT('',#471);
#157=VERTEX_POINT('',#472);
#158=VERTEX_POINT('',#474);
#159=VERTEX_POINT('',#476);
#160=VERTEX_POINT('',#478);
#161=VERTEX_POINT('',#480);
#162=VERTEX_POINT('',#482);
#163=VERTEX_POINT('',#484);
#164=VERTEX_POINT('',#488);
#165=VERTEX_POINT('',#489);
#166=VERTEX_POINT('',#491);
#167=VERTEX_POINT('',#493);
#168=VERTEX_POINT('',#495);
#169=VERTEX_POINT('',#497);
#170=VERTEX_POINT('',#499);
#171=VERTEX_POINT('',#501);
#172=VERTEX_POINT('',#505);
#173=VERTEX_POINT('',#506);
#174=VERTEX_POINT('',#508);
#175=VERTEX_POINT('',#510);
#176=VERTEX_POINT('',#513);
#177=VERTEX_POINT('',#514);
#178=VERTEX_POINT('',#516);
#179=VERTEX_POINT('',#518);
#180=VERTEX_POINT('',#522);
#181=VERTEX_POINT('',#524);
#182=VERTEX_POINT('',#528);
#183=VERTEX_POINT('',#530);
#184=VERTEX_POINT('',#537);
#185=VERTEX_POINT('',#538);
#186=VERTEX_POINT('',#550);
#187=VERTEX_POINT('',#554);
#188=LINE('',#470,#236);
#189=LINE('',#473,#237);
#190=LINE('',#475,#238);
#191=LINE('',#477,#239);
#192=LINE('',#479,#240);
#193=LINE('',#481,#241);
#194=LINE('',#483,#242);
#195=LINE('',#485,#243);
#196=LINE('',#487,#244);
#197=LINE('',#490,#245);
#198=LINE('',#492,#246);
#199=LINE('',#494,#247);
#200=LINE('',#496,#248);
#201=LINE('',#498,#249);
#202=LINE('',#500,#250);
#203=LINE('',#502,#251);
#204=LINE('',#504,#252);
#205=LINE('',#507,#253);
#206=LINE('',#509,#254);
#207=LINE('',#511,#255);
#208=LINE('',#512,#256);
#209=LINE('',#515,#257);
#210=LINE('',#517,#258);
#211=LINE('',#519,#259);
#212=LINE('',#521,#260);
#213=LINE('',#523,#261);
#214=LINE('',#525,#262);
#215=LINE('',#527,#263);
#216=LINE('',#529,#264);
#217=LINE('',#531,#265);
#218=LINE('',#533,#266);
#219=LINE('',#534,#267);
#220=LINE('',#536,#268);
#221=LINE('',#539,#269);
#222=LINE('',#540,#270);
#223=LINE('',#541,#271);
#224=LINE('',#542,#272);
#225=LINE('',#544,#273);
#226=LINE('',#546,#274);
#227=LINE('',#549,#275);
#228=LINE('',#551,#276);
#229=LINE('',#553,#277);
#230=LINE('',#555,#278);
#231=LINE('',#557,#279);
#232=LINE('',#559,#280);
#233=LINE('',#560,#281);
#234=LINE('',#562,#282);
#235=LINE('',#563,#283);
#236=VECTOR('',#388,1.);
#237=VECTOR('',#389,1.);
#238=VECTOR('',#390,1.);
#239=VECTOR('',#391,1.);
#240=VECTOR('',#392,1.);
#241=VECTOR('',#393,1.);
#242=VECTOR('',#394,1.);
#243=VECTOR('',#395,1.);
#244=VECTOR('',#398,1.);
#245=VECTOR('',#399,1.);
#246=VECTOR('',#400,1.);
#247=VECTOR('',#401,1.);
#248=VECTOR('',#402,1.);
#249=VECTOR('',#403,1.);
#250=VECTOR('',#404,1.);
#251=VECTOR('',#405,1.);
#252=VECTOR('',#408,1.);
#253=VECTOR('',#409,1.);
#254=VECTOR('',#410,1.);
#255=VECTOR('',#411,1.);
#256=VECTOR('',#412,1.);
#257=VECTOR('',#413,1.);
#258=VECTOR('',#414,1.);
#259=VECTOR('',#415,1.);
#260=VECTOR('',#418,1.);
#261=VECTOR('',#419,1.);
#262=VECTOR('',#420,1.);
#263=VECTOR('',#423,1.);
#264=VECTOR('',#424,1.);
#265=VECTOR('',#425,1.);
#266=VECTOR('',#428,1.);
#267=VECTOR('',#429,1.);
#268=VECTOR('',#432,1.);
#269=VECTOR('',#433,1.);
#270=VECTOR('',#434,1.);
#271=VECTOR('',#435,1.);
#272=VECTOR('',#436,1.);
#273=VECTOR('',#439,1.);
#274=VECTOR('',#442,1.);
#275=VECTOR('',#447,1.);
#276=VECTOR('',#448,1.);
#277=VECTOR('',#451,1.);
#278=VECTOR('',#452,1.);
#279=VECTOR('',#455,1.);
#280=VECTOR('',#458,1.);
#281=VECTOR('',#459,1.);
#282=VECTOR('',#462,1.);
#283=VECTOR('',#463,1.);
#284=EDGE_LOOP('',(#12,#13,#14,#15,#16,#17,#18,#19));
#285=EDGE_LOOP('',(#20,#21,#22,#23,#24,#25,#26,#27));
#286=EDGE_LOOP('',(#28,#29,#30,#31));
#287=EDGE_LOOP('',(#32,#33,#34,#35));
#288=EDGE_LOOP('',(#36,#37,#38,#39));
#289=EDGE_LOOP('',(#40,#41,#42,#43));
#290=EDGE_LOOP('',(#44,#45,#46,#47));
#291=EDGE_LOOP('',(#48,#49,#50,#51,#52,#53,#54,#55));
#292=EDGE_LOOP('',(#56,#57,#58,#59));
#293=EDGE_LOOP('',(#60,#61,#62,#63,#64,#65,#66,#67));
#294=EDGE_LOOP('',(#68,#69,#70,#71));
#295=EDGE_LOOP('',(#72,#73,#74,#75));
#296=EDGE_LOOP('',(#76,#77,#78,#79));
#297=EDGE_LOOP('',(#80,#81,#82,#83));
#298=EDGE_LOOP('',(#84,#85,#86,#87));
#299=EDGE_LOOP('',(#88,#89,#90,#91));
#300=EDGE_LOOP('',(#92,#93,#94,#95,#96,#97,#98,#99));
#301=EDGE_LOOP('',(#100,#101,#102,#103,#104,#105,#106,#107));
#302=FACE_BOUND('',#284,.T.);
#303=FACE_BOUND('',#285,.T.);
#304=FACE_BOUND('',#286,.T.);
#305=FACE_BOUND('',#287,.T.);
#306=FACE_BOUND('',#288,.T.);
#307=FACE_BOUND('',#289,.T.);
#308=FACE_BOUND('',#290,.T.);
#309=FACE_BOUND('',#291,.T.);
#310=FACE_BOUND('',#292,.T.);
#311=FACE_BOUND('',#293,.T.);
#312=FACE_BOUND('',#294,.T.);
#313=FACE_BOUND('',#295,.T.);
#314=FACE_BOUND('',#296,.T.);
#315=FACE_BOUND('',#297,.T.);
#316=FACE_BOUND('',#298,.T.);
#317=FACE_BOUND('',#299,.T.);
#318=FACE_BOUND('',#300,.T.);
#319=FACE_BOUND('',#301,.T.);
#320=PLANE('',#367);
#321=PLANE('',#368);
#322=PLANE('',#369);
#323=PLANE('',#370);
#324=PLANE('',#371);
#325=PLANE('',#372);
#326=PLANE('',#373);
#327=PLANE('',#374);
#328=PLANE('',#375);
#329=PLANE('',#376);
#330=PLANE('',#377);
#331=PLANE('',#378);
#332=PLANE('',#379);
#333=PLANE('',#380);
#334=PLANE('',#381);
#335=PLANE('',#382);
#336=PLANE('',#383);
#337=ADVANCED_FACE('',(#302),#320,.T.);
#338=ADVANCED_FACE('',(#303),#321,.T.);
#339=ADVANCED_FACE('',(#304,#305),#322,.F.);
#340=ADVANCED_FACE('',(#306),#323,.F.);
#341=ADVANCED_FACE('',(#307),#324,.T.);
#342=ADVANCED_FACE('',(#308),#325,.T.);
#343=ADVANCED_FACE('',(#309),#326,.T.);
#344=ADVANCED_FACE('',(#310),#327,.F.);
#345=ADVANCED_FACE('',(#311),#328,.F.);
#346=ADVANCED_FACE('',(#312),#329,.T.);
#347=ADVANCED_FACE('',(#313),#330,.F.);
#348=ADVANCED_FACE('',(#314),#331,.T.);
#349=ADVANCED_FACE('',(#315),#332,.T.);
#350=ADVANCED_FACE('',(#316),#333,.T.);
#351=ADVANCED_FACE('',(#317),#334,.F.);
#352=ADVANCED_FACE('',(#318),#335,.T.);
#353=ADVANCED_FACE('',(#319),#336,.F.);
#354=CLOSED_SHELL('',(#337,#338,#339,#340,#341,#342,#343,#344,#345,#346,#347,#348,#349,#350,#351,#352,#353));
#355=STYLED_ITEM('',(#356),#363);
#356=PRESENTATION_STYLE_ASSIGNMENT((#357));
#357=SURFACE_STYLE_USAGE(.BOTH.,#358);
#358=SURFACE_SIDE_STYLE('',(#359));
#359=SURFACE_STYLE_FILL_AREA(#360);
#360=FILL_AREA_STYLE('',(#361));
#361=FILL_AREA_STYLE_COLOUR('',#362);
#362=COLOUR_RGB('',0.615686274509804,0.811764705882353,0.929411764705882);
#363=MANIFOLD_SOLID_BREP('einlage_mitte',#354);
#364=SHAPE_DEFINITION_REPRESENTATION(#572,#365);
#365=SHAPE_REPRESENTATION('einlage_mitte',(#366),#567);
#366=AXIS2_PLACEMENT_3D('',#468,#384,#385);
#367=AXIS2_PLACEMENT_3D('',#469,#386,#387);
#368=AXIS2_PLACEMENT_3D('',#486,#396,#397);
#369=AXIS2_PLACEMENT_3D('',#503,#406,#407);
#370=AXIS2_PLACEMENT_3D('',#520,#416,#417);
#371=AXIS2_PLACEMENT_3D('',#526,#421,#422);
#372=AXIS2_PLACEMENT_3D('',#532,#426,#427);
#373=AXIS2_PLACEMENT_3D('',#535,#430,#431);
#374=AXIS2_PLACEMENT_3D('',#543,#437,#438);
#375=AXIS2_PLACEMENT_3D('',#545,#440,#441);
#376=AXIS2_PLACEMENT_3D('',#547,#443,#444);
#377=AXIS2_PLACEMENT_3D('',#548,#445,#446);
#378=AXIS2_PLACEMENT_3D('',#552,#449,#450);
#379=AXIS2_PLACEMENT_3D('',#556,#453,#454);
#380=AXIS2_PLACEMENT_3D('',#558,#456,#457);
#381=AXIS2_PLACEMENT_3D('',#561,#460,#461);
#382=AXIS2_PLACEMENT_3D('',#564,#464,#465);
#383=AXIS2_PLACEMENT_3D('',#565,#466,#467);
#384=DIRECTION('',(0.,0.,1.));
#385=DIRECTION('',(1.,0.,0.));
#386=DIRECTION('',(0.,0.,1.));
#387=DIRECTION('',(1.,0.,0.));
#388=DIRECTION('',(1.,3.04748718752683E-16,0.));
#389=DIRECTION('',(0.,-1.,0.));
#390=DIRECTION('',(1.,6.6436218228899E-17,0.));
#391=DIRECTION('',(0.,1.,0.));
#392=DIRECTION('',(1.,1.22464679914735E-16,0.));
#393=DIRECTION('',(0.,1.,0.));
#394=DIRECTION('',(1.,6.6436218228899E-17,0.));
#395=DIRECTION('',(1.19636101791504E-16,-1.,0.));
#396=DIRECTION('',(0.,0.,1.));
#397=DIRECTION('',(1.,0.,0.));
#398=DIRECTION('',(1.,1.32872436457798E-16,0.));
#399=DIRECTION('',(0.,-1.,0.));
#400=DIRECTION('',(1.,3.00060276925718E-16,0.));
#401=DIRECTION('',(1.19636101791504E-16,-1.,0.));
#402=DIRECTION('',(1.,1.32872436457798E-16,0.));
#403=DIRECTION('',(0.,1.,0.));
#404=DIRECTION('',(1.,1.18108832406932E-16,0.));
#405=DIRECTION('',(0.,1.,0.));
#406=DIRECTION('',(0.,0.,1.));
#407=DIRECTION('',(1.,0.,0.));
#408=DIRECTION('',(0.,1.,0.));
#409=DIRECTION('',(1.,1.22464679914735E-16,0.));
#410=DIRECTION('',(0.,1.,0.));
#411=DIRECTION('',(1.,1.18108832406932E-16,0.));
#412=DIRECTION('',(0.,-1.,0.));
#413=DIRECTION('',(1.,3.04748718752683E-16,0.));
#414=DIRECTION('',(1.19636101791504E-16,-1.,0.));
#415=DIRECTION('',(1.,3.00060276925718E-16,0.));
#416=DIRECTION('',(1.32872436457798E-16,-1.,0.));
#417=DIRECTION('',(1.,1.32872436457798E-16,0.));
#418=DIRECTION('',(0.,0.,-1.));
#419=DIRECTION('',(0.,0.,1.));
#420=DIRECTION('',(1.,1.32872436457798E-16,0.));
#421=DIRECTION('',(6.6436218228899E-17,-1.,0.));
#422=DIRECTION('',(1.,6.6436218228899E-17,0.));
#423=DIRECTION('',(0.,0.,-1.));
#424=DIRECTION('',(1.,6.6436218228899E-17,0.));
#425=DIRECTION('',(0.,0.,1.));
#426=DIRECTION('',(0.,0.,1.));
#427=DIRECTION('',(1.,0.,0.));
#428=DIRECTION('',(0.,-1.,0.));
#429=DIRECTION('',(0.,1.,0.));
#430=DIRECTION('',(-1.,0.,0.));
#431=DIRECTION('',(0.,0.,1.));
#432=DIRECTION('',(0.,1.,0.));
#433=DIRECTION('',(0.,0.,1.));
#434=DIRECTION('',(0.,0.,-1.));
#435=DIRECTION('',(0.,0.,-1.));
#436=DIRECTION('',(0.,0.,1.));
#437=DIRECTION('',(-1.18108832406932E-16,1.,0.));
#438=DIRECTION('',(-1.,-1.18108832406932E-16,0.));
#439=DIRECTION('',(0.,0.,-1.));
#440=DIRECTION('',(-1.,0.,0.));
#441=DIRECTION('',(0.,0.,1.));
#442=DIRECTION('',(0.,0.,-1.));
#443=DIRECTION('',(-1.22464679914735E-16,1.,0.));
#444=DIRECTION('',(-1.,-1.22464679914735E-16,0.));
#445=DIRECTION('',(1.32872436457798E-16,-1.,0.));
#446=DIRECTION('',(1.,1.32872436457798E-16,0.));
#447=DIRECTION('',(0.,0.,-1.));
#448=DIRECTION('',(1.,1.32872436457798E-16,0.));
#449=DIRECTION('',(6.6436218228899E-17,-1.,0.));
#450=DIRECTION('',(1.,6.6436218228899E-17,0.));
#451=DIRECTION('',(0.,0.,-1.));
#452=DIRECTION('',(1.,6.6436218228899E-17,0.));
#453=DIRECTION('',(0.,0.,1.));
#454=DIRECTION('',(1.,0.,0.));
#455=DIRECTION('',(1.19636101791504E-16,-1.,0.));
#456=DIRECTION('',(3.04748718752683E-16,-1.,0.));
#457=DIRECTION('',(1.,3.04748718752683E-16,0.));
#458=DIRECTION('',(0.,0.,1.));
#459=DIRECTION('',(0.,0.,1.));
#460=DIRECTION('',(3.00060276925718E-16,-1.,0.));
#461=DIRECTION('',(1.,3.00060276925718E-16,0.));
#462=DIRECTION('',(0.,0.,1.));
#463=DIRECTION('',(0.,0.,1.));
#464=DIRECTION('',(-1.,0.,0.));
#465=DIRECTION('',(0.,0.,1.));
#466=DIRECTION('',(-1.,-1.19636101791504E-16,0.));
#467=DIRECTION('',(1.19636101791504E-16,-1.,0.));
#468=CARTESIAN_POINT('',(0.,0.,0.));
#469=CARTESIAN_POINT('',(0.235,-0.039,0.01));
#470=CARTESIAN_POINT('',(0.205,-0.01,0.01));
#471=CARTESIAN_POINT('',(0.02,-0.01,0.01));
#472=CARTESIAN_POINT('',(0.39,-0.01,0.01));
#473=CARTESIAN_POINT('',(0.39,-0.039,0.01));
#474=CARTESIAN_POINT('',(0.39,-0.03,0.01));
#475=CARTESIAN_POINT('',(0.235,-0.03,0.01));
#476=CARTESIAN_POINT('',(0.47,-0.03,0.01));
#477=CARTESIAN_POINT('',(0.47,-0.039,0.01));
#478=CARTESIAN_POINT('',(0.47,3.12142552240529E-17,0.01));
#479=CARTESIAN_POINT('',(0.235,2.43505544409013E-18,0.01));
#480=CARTESIAN_POINT('',(1.83697019872104E-18,-2.77555756156289E-17,0.01));
#481=CARTESIAN_POINT('',(1.83697019872104E-18,-0.039,0.01));
#482=CARTESIAN_POINT('',(1.83697019872104E-18,-0.03,0.01));
#483=CARTESIAN_POINT('',(0.235,-0.03,0.01));
#484=CARTESIAN_POINT('',(0.02,-0.03,0.01));
#485=CARTESIAN_POINT('',(0.02,-0.039,0.01));
#486=CARTESIAN_POINT('',(0.235,-0.039,0.01));
#487=CARTESIAN_POINT('',(0.235,-0.048,0.01));
#488=CARTESIAN_POINT('',(0.39,-0.048,0.01));
#489=CARTESIAN_POINT('',(0.47,-0.048,0.01));
#490=CARTESIAN_POINT('',(0.39,-0.039,0.01));
#491=CARTESIAN_POINT('',(0.39,-0.068,0.01));
#492=CARTESIAN_POINT('',(0.205,-0.068,0.01));
#493=CARTESIAN_POINT('',(0.02,-0.068,0.01));
#494=CARTESIAN_POINT('',(0.02,-0.039,0.01));
#495=CARTESIAN_POINT('',(0.02,-0.048,0.01));
#496=CARTESIAN_POINT('',(0.235,-0.048,0.01));
#497=CARTESIAN_POINT('',(1.83697019872104E-18,-0.048,0.01));
#498=CARTESIAN_POINT('',(1.83697019872104E-18,-0.039,0.01));
#499=CARTESIAN_POINT('',(1.83697019872104E-18,-0.078,0.01));
#500=CARTESIAN_POINT('',(0.235,-0.078,0.01));
#501=CARTESIAN_POINT('',(0.47,-0.078,0.01));
#502=CARTESIAN_POINT('',(0.47,-0.039,0.01));
#503=CARTESIAN_POINT('',(0.235,-0.039,0.));
#504=CARTESIAN_POINT('',(1.83697019872104E-18,-0.039,0.));
#505=CARTESIAN_POINT('',(1.83697019872104E-18,-0.078,0.));
#506=CARTESIAN_POINT('',(1.83697019872104E-18,-2.77555756156289E-17,0.));
#507=CARTESIAN_POINT('',(0.235,2.43505544409013E-18,0.));
#508=CARTESIAN_POINT('',(0.47,3.12142552240529E-17,0.));
#509=CARTESIAN_POINT('',(0.47,-0.039,0.));
#510=CARTESIAN_POINT('',(0.47,-0.078,0.));
#511=CARTESIAN_POINT('',(0.235,-0.078,0.));
#512=CARTESIAN_POINT('',(0.39,-0.039,0.));
#513=CARTESIAN_POINT('',(0.39,-0.01,0.));
#514=CARTESIAN_POINT('',(0.39,-0.068,0.));
#515=CARTESIAN_POINT('',(0.235,-0.01,0.));
#516=CARTESIAN_POINT('',(0.02,-0.01,0.));
#517=CARTESIAN_POINT('',(0.02,-0.039,0.));
#518=CARTESIAN_POINT('',(0.02,-0.068,0.));
#519=CARTESIAN_POINT('',(0.235,-0.068,0.));
#520=CARTESIAN_POINT('',(0.235,-0.048,0.005));
#521=CARTESIAN_POINT('',(0.39,-0.048,0.005));
#522=CARTESIAN_POINT('',(0.39,-0.048,0.005));
#523=CARTESIAN_POINT('',(0.47,-0.048,0.005));
#524=CARTESIAN_POINT('',(0.47,-0.048,0.005));
#525=CARTESIAN_POINT('',(0.235,-0.048,0.005));
#526=CARTESIAN_POINT('',(0.235,-0.03,0.005));
#527=CARTESIAN_POINT('',(0.39,-0.03,0.005));
#528=CARTESIAN_POINT('',(0.39,-0.03,0.005));
#529=CARTESIAN_POINT('',(0.235,-0.03,0.005));
#530=CARTESIAN_POINT('',(0.47,-0.03,0.005));
#531=CARTESIAN_POINT('',(0.47,-0.03,0.005));
#532=CARTESIAN_POINT('',(0.235,-0.039,0.005));
#533=CARTESIAN_POINT('',(0.39,-0.039,0.005));
#534=CARTESIAN_POINT('',(0.47,-0.039,0.005));
#535=CARTESIAN_POINT('',(1.83697019872104E-18,-0.039,0.01));
#536=CARTESIAN_POINT('',(1.83697019872104E-18,-0.039,0.005));
#537=CARTESIAN_POINT('',(1.83697019872104E-18,-0.048,0.005));
#538=CARTESIAN_POINT('',(1.83697019872104E-18,-0.03,0.005));
#539=CARTESIAN_POINT('',(1.83697019872104E-18,-0.03,0.005));
#540=CARTESIAN_POINT('',(1.83697019872104E-18,-2.77555756156289E-17,0.01));
#541=CARTESIAN_POINT('',(1.83697019872104E-18,-0.078,0.01));
#542=CARTESIAN_POINT('',(1.83697019872104E-18,-0.048,0.005));
#543=CARTESIAN_POINT('',(0.235,-0.078,0.01));
#544=CARTESIAN_POINT('',(0.47,-0.078,0.01));
#545=CARTESIAN_POINT('',(0.47,-0.039,0.01));
#546=CARTESIAN_POINT('',(0.47,3.12142552240529E-17,0.01));
#547=CARTESIAN_POINT('',(0.235,2.43505544409013E-18,0.01));
#548=CARTESIAN_POINT('',(0.235,-0.048,0.005));
#549=CARTESIAN_POINT('',(0.02,-0.048,0.005));
#550=CARTESIAN_POINT('',(0.02,-0.048,0.005));
#551=CARTESIAN_POINT('',(0.235,-0.048,0.005));
#552=CARTESIAN_POINT('',(0.235,-0.03,0.005));
#553=CARTESIAN_POINT('',(0.02,-0.03,0.005));
#554=CARTESIAN_POINT('',(0.02,-0.03,0.005));
#555=CARTESIAN_POINT('',(0.235,-0.03,0.005));
#556=CARTESIAN_POINT('',(0.235,-0.039,0.005));
#557=CARTESIAN_POINT('',(0.02,-0.039,0.005));
#558=CARTESIAN_POINT('',(0.205,-0.01,-0.015));
#559=CARTESIAN_POINT('',(0.39,-0.01,-0.015));
#560=CARTESIAN_POINT('',(0.02,-0.01,-0.015));
#561=CARTESIAN_POINT('',(0.205,-0.068,-0.015));
#562=CARTESIAN_POINT('',(0.02,-0.068,-0.015));
#563=CARTESIAN_POINT('',(0.39,-0.068,-0.015));
#564=CARTESIAN_POINT('',(0.39,-0.039,-0.015));
#565=CARTESIAN_POINT('',(0.02,-0.039,-0.015));
#566=MECHANICAL_DESIGN_GEOMETRIC_PRESENTATION_REPRESENTATION('',(#355),#567);
#567=(
GEOMETRIC_REPRESENTATION_CONTEXT(3)
GLOBAL_UNCERTAINTY_ASSIGNED_CONTEXT((#568))
GLOBAL_UNIT_ASSIGNED_CONTEXT((#571,#570,#569))
REPRESENTATION_CONTEXT('einlage_mitte','TOP_LEVEL_ASSEMBLY_PART')
);
#568=UNCERTAINTY_MEASURE_WITH_UNIT(LENGTH_MEASURE(1.E-08),#571,'DISTANCE_ACCURACY_VALUE','Maximum Tolerance applied to model');
#569=(
NAMED_UNIT(*)
SI_UNIT($,.STERADIAN.)
SOLID_ANGLE_UNIT()
);
#570=(
NAMED_UNIT(*)
PLANE_ANGLE_UNIT()
SI_UNIT($,.RADIAN.)
);
#571=(
LENGTH_UNIT()
NAMED_UNIT(*)
SI_UNIT($,.METRE.)
);
#572=PRODUCT_DEFINITION_SHAPE('','',#573);
#573=PRODUCT_DEFINITION('','',#575,#574);
#574=PRODUCT_DEFINITION_CONTEXT('',#581,'design');
#575=PRODUCT_DEFINITION_FORMATION_WITH_SPECIFIED_SOURCE('','',#577,.NOT_KNOWN.);
#576=PRODUCT_RELATED_PRODUCT_CATEGORY('','',(#577));
#577=PRODUCT('einlage_mitte','einlage_mitte','einlage_mitte',(#579));
#578=PRODUCT_CATEGORY('','');
#579=PRODUCT_CONTEXT('',#581,'mechanical');
#580=APPLICATION_PROTOCOL_DEFINITION('international standard','ap242_managed_model_based_3d_engineering',2020,#581);
#581=APPLICATION_CONTEXT('managed model based 3d engineering');
ENDSEC;
END-ISO-10303-21;
