  0
SECTION
  2
HEADER
  9
$ACADVER
  1
AC1014
  9
$ACADMAINTVER
 70
     9
  9
$DWGCODEPAGE
  3
ANSI_1252
  9
$INSBASE
 10
0.0
 20
0.0
 30
0.0
  9
$EXTMIN
 10
1.0
 20
0.5
 30
-0.8762698912434672
  9
$EXTMAX
 10
420.0
 20
296.5
 30
0.876269891243453
  9
$LIMMIN
 10
0.0
 20
0.0
  9
$LIMMAX
 10
12.0
 20
9.0
  9
$ORTHOMODE
 70
     0
  9
$REGENMODE
 70
     1
  9
$FILLMODE
 70
     1
  9
$QTEXTMODE
 70
     0
  9
$MIRRTEXT
 70
     1
  9
$DRAGMODE
 70
     2
  9
$LTSCALE
 40
12.7
  9
$OSMODE
 70
    23
  9
$ATTMODE
 70
     1
  9
$TEXTSIZE
 40
3.5
  9
$TRACEWID
 40
0.05
  9
$TEXTSTYLE
  7
ONSHAPE-STANDARD
  9
$CLAYER
  8
0
  9
$CELTYPE
  6
BYLAYER
  9
$CECOLOR
 62
   256
  9
$CELTSCALE
 40
1.0
  9
$DELOBJ
 70
     1
  9
$DISPSILH
 70
     0
  9
$DIMSCALE
 40
1.0
  9
$DIMASZ
 40
2.5
  9
$DIMEXO
 40
0.625
  9
$DIMDLI
 40
3.75
  9
$DIMRND
 40
0.0
  9
$DIMDLE
 40
0.0
  9
$DIMEXE
 40
1.25
  9
$DIMTP
 40
0.0
  9
$DIMTM
 40
0.0
  9
$DIMTXT
 40
3.5
  9
$DIMCEN
 40
2.5
  9
$DIMTSZ
 40
0.0
  9
$DIMTOL
 70
     0
  9
$DIMLIM
 70
     0
  9
$DIMTIH
 70
     0
  9
$DIMTOH
 70
     0
  9
$DIMSE1
 70
     0
  9
$DIMSE2
 70
     0
  9
$DIMTAD
 70
     1
  9
$DIMZIN
 70
     8
  9
$DIMBLK
  1

  9
$DIMASO
 70
     1
  9
$DIMSHO
 70
     1
  9
$DIMPOST
  1

  9
$DIMAPOST
  1

  9
$DIMALT
 70
     0
  9
$DIMALTD
 70
     3
  9
$DIMALTF
 40
0.03937
  9
$DIMLFAC
 40
1.0
  9
$DIMTOFL
 70
     1
  9
$DIMTVP
 40
0.0
  9
$DIMTIX
 70
     0
  9
$DIMSOXD
 70
     0
  9
$DIMSAH
 70
     0
  9
$DIMBLK1
  1

  9
$DIMBLK2
  1

  9
$DIMSTYLE
  2
ONSHAPE-ISO-25
  9
$DIMCLRD
 70
     7
  9
$DIMCLRE
 70
     7
  9
$DIMCLRT
 70
     7
  9
$DIMTFAC
 40
1.0
  9
$DIMGAP
 40
0.625
  9
$DIMJUST
 70
     0
  9
$DIMSD1
 70
     0
  9
$DIMSD2
 70
     0
  9
$DIMTOLJ
 70
     0
  9
$DIMTZIN
 70
     8
  9
$DIMALTZ
 70
     8
  9
$DIMALTTZ
 70
     0
  9
$DIMFIT
 70
     3
  9
$DIMUPT
 70
     1
  9
$DIMUNIT
 70
     2
  9
$DIMDEC
 70
     2
  9
$DIMTDEC
 70
     2
  9
$DIMALTU
 70
     2
  9
$DIMALTTD
 70
     3
  9
$DIMTXSTY
  7
ONSHAPE-STANDARD-DIMENSION
  9
$DIMAUNIT
 70
     0
  9
$LUNITS
 70
     2
  9
$LUPREC
 70
     4
  9
$SKETCHINC
 40
0.1
  9
$FILLETRAD
 40
0.5
  9
$AUNITS
 70
     0
  9
$AUPREC
 70
     0
  9
$MENU
  1
.
  9
$ELEVATION
 40
0.0
  9
$PELEVATION
 40
0.0
  9
$THICKNESS
 40
0.0
  9
$LIMCHECK
 70
     0
  9
$CHAMFERA
 40
0.0
  9
$CHAMFERB
 40
0.0
  9
$CHAMFERC
 40
0.0
  9
$CHAMFERD
 40
0.0
  9
$SKPOLY
 70
     0
  9
$TDCREATE
 40
2461104.318693056
  9
$TDUPDATE
 40
2461104.318693774
  9
$TDINDWG
 40
0.0
  9
$TDUSRTIMER
 40
0.0
  9
$USRTIMER
 70
     1
  9
$ANGBASE
 50
0.0
  9
$ANGDIR
 70
     0
  9
$PDMODE
 70
    33
  9
$PDSIZE
 40
1.0
  9
$PLINEWID
 40
0.0
  9
$COORDS
 70
     1
  9
$SPLFRAME
 70
     0
  9
$SPLINETYPE
 70
     6
  9
$SPLINESEGS
 70
     8
  9
$ATTDIA
 70
     0
  9
$ATTREQ
 70
     1
  9
$HANDLING
 70
     1
  9
$HANDSEED
  5
312
  9
$SURFTAB1
 70
     6
  9
$SURFTAB2
 70
     6
  9
$SURFTYPE
 70
     6
  9
$SURFU
 70
     6
  9
$SURFV
 70
     6
  9
$UCSNAME
  2

  9
$UCSORG
 10
0.0
 20
0.0
 30
0.0
  9
$UCSXDIR
 10
1.0
 20
0.0
 30
0.0
  9
$UCSYDIR
 10
0.0
 20
1.0
 30
0.0
  9
$PUCSNAME
  2

  9
$PUCSORG
 10
0.0
 20
0.0
 30
0.0
  9
$PUCSXDIR
 10
1.0
 20
0.0
 30
0.0
  9
$PUCSYDIR
 10
0.0
 20
1.0
 30
0.0
  9
$USERI1
 70
     0
  9
$USERI2
 70
     0
  9
$USERI3
 70
     0
  9
$USERI4
 70
     0
  9
$USERI5
 70
     0
  9
$USERR1
 40
0.0
  9
$USERR2
 40
0.0
  9
$USERR3
 40
0.0
  9
$USERR4
 40
0.0
  9
$USERR5
 40
0.0
  9
$WORLDVIEW
 70
     1
  9
$SHADEDGE
 70
     3
  9
$SHADEDIF
 70
    70
  9
$TILEMODE
 70
     1
  9
$MAXACTVP
 70
    64
  9
$PINSBASE
 10
0.0
 20
0.0
 30
0.0
  9
$PLIMCHECK
 70
     0
  9
$PEXTMIN
 10
1.000000000000000E+20
 20
1.000000000000000E+20
 30
1.000000000000000E+20
  9
$PEXTMAX
 10
-1.000000000000000E+20
 20
-1.000000000000000E+20
 30
-1.000000000000000E+20
  9
$PLIMMIN
 10
0.0
 20
0.0
  9
$PLIMMAX
 10
12.0
 20
9.0
  9
$UNITMODE
 70
     0
  9
$VISRETAIN
 70
     1
  9
$PLINEGEN
 70
     0
  9
$PSLTSCALE
 70
     1
  9
$TREEDEPTH
 70
  3020
  9
$PICKSTYLE
 70
     1
  9
$CMLSTYLE
  2
STANDARD
  9
$CMLJUST
 70
     0
  9
$CMLSCALE
 40
1.0
  9
$PROXYGRAPHICS
 70
     1
  9
$MEASUREMENT
 70
     0
  0
ENDSEC
  0
SECTION
  2
CLASSES
  0
CLASS
  1
ACDBDICTIONARYWDFLT
  2
AcDbDictionaryWithDefault
  3
ObjectDBX Classes
 90
        0
280
     0
281
     0
  0
CLASS
  1
VISUALSTYLE
  2
AcDbVisualStyle
  3
ObjectDBX Classes
 90
     4095
280
     0
281
     0
  0
CLASS
  1
MATERIAL
  2
AcDbMaterial
  3
ObjectDBX Classes
 90
     1153
280
     0
281
     0
  0
CLASS
  1
SCALE
  2
AcDbScale
  3
ObjectDBX Classes
 90
     1153
280
     0
281
     0
  0
CLASS
  1
TABLESTYLE
  2
AcDbTableStyle
  3
ObjectDBX Classes
 90
     4095
280
     0
281
     0
  0
CLASS
  1
MLEADERSTYLE
  2
AcDbMLeaderStyle
  3
ACDB_MLEADERSTYLE_CLASS
 90
     4095
280
     0
281
     0
  0
CLASS
  1
SUN
  2
AcDbSun
  3
SCENEOE
 90
     1153
280
     0
281
     0
  0
CLASS
  1
DICTIONARYVAR
  2
AcDbDictionaryVar
  3
ObjectDBX Classes
 90
        0
280
     0
281
     0
  0
CLASS
  1
FIELD
  2
AcDbField
  3
ObjectDBX Classes
 90
     1152
280
     0
281
     0
  0
CLASS
  1
FIELDLIST
  2
AcDbFieldList
  3
ObjectDBX Classes
 90
     1152
280
     0
281
     0
  0
CLASS
  1
DIMASSOC
  2
AcDbDimAssoc
  3
"AcDbDimAssoc|Product Desc:     AcDim ARX App For Dimension|Company:          Autodesk, Inc.|WEB Address:      www.autodesk.com"
 90
        0
280
     0
281
     0
  0
CLASS
  1
BREAKDATA
  2
AcDbBreakData
  3
ObjectDBX Classes
 90
     1024
280
     0
281
     0
  0
CLASS
  1
XRECORD
  2
AcDbXrecord
  3
ObjectDBX Classes
 90
        0
280
     0
281
     0
  0
CLASS
  1
LWPOLYLINE
  2
AcDbPolyline
  3
ObjectDBX Classes
 90
        0
280
     0
281
     1
  0
CLASS
  1
HATCH
  2
AcDbHatch
  3
ObjectDBX Classes
 90
        0
280
     0
281
     1
  0
CLASS
  1
ACDBPLACEHOLDER
  2
AcDbPlaceHolder
  3
ObjectDBX Classes
 90
        0
280
     0
281
     0
  0
CLASS
  1
LAYOUT
  2
AcDbLayout
  3
ObjectDBX Classes
 90
        0
280
     0
281
     0
  0
ENDSEC
  0
SECTION
  2
TABLES
  0
TABLE
  2
VPORT
  5
8
102
{ACAD_XDICTIONARY
360
306
102
}
330
0
100
AcDbSymbolTable
 70
     1
  0
VPORT
  5
29
330
8
100
AcDbSymbolTableRecord
100
AcDbViewportTableRecord
  2
*ACTIVE
 70
     0
 10
0.0
 20
0.0
 11
1.0
 21
1.0
 12
210.5
 22
153.2942779291553
 13
0.0
 23
0.0
 14
0.5
 24
0.5
 15
0.5
 25
0.5
 16
0.0
 26
0.0
 36
1.0
 17
0.0
 27
0.0
 37
0.0
 40
313.7055858310626
 41
1.365292874703758
 42
50.0
 43
0.0
 44
0.0
 50
0.0
 51
0.0
 71
     0
 72
   100
 73
     1
 74
     3
 75
     0
 76
     0
 77
     0
 78
     0
  0
ENDTAB
  0
TABLE
  2
LTYPE
  5
5
330
0
100
AcDbSymbolTable
 70
     2
  0
LTYPE
  5
14
330
5
100
AcDbSymbolTableRecord
100
AcDbLinetypeTableRecord
  2
BYBLOCK
 70
     0
  3

 72
    65
 73
     0
 40
0.0
  0
LTYPE
  5
15
330
5
100
AcDbSymbolTableRecord
100
AcDbLinetypeTableRecord
  2
BYLAYER
 70
     0
  3

 72
    65
 73
     0
 40
0.0
  0
LTYPE
  5
16
330
5
100
AcDbSymbolTableRecord
100
AcDbLinetypeTableRecord
  2
CONTINUOUS
 70
     0
  3
Solid line
 72
    65
 73
     0
 40
0.0
  0
LTYPE
  5
18F
330
5
100
AcDbSymbolTableRecord
100
AcDbLinetypeTableRecord
  2
CENTER
 70
     0
  3
Center line ____ _ ____ _ ____ _
 72
    65
 73
     4
 40
0.7874015748031495
 49
0.4921259842519685
 74
     0
 49
-0.0984251968503937
 74
     0
 49
0.0984251968503937
 74
     0
 49
-0.0984251968503937
 74
     0
  0
ENDTAB
  0
TABLE
  2
LAYER
  5
2
330
0
100
AcDbSymbolTable
 70
     9
  0
LAYER
  5
10
330
2
100
AcDbSymbolTableRecord
100
AcDbLayerTableRecord
  2
0
 70
     0
 62
     7
  6
CONTINUOUS
  0
LAYER
  5
70
330
2
100
AcDbSymbolTableRecord
100
AcDbLayerTableRecord
  2
DEFPOINTS
 70
     0
 62
     7
  6
CONTINUOUS
  0
LAYER
  5
74
330
2
100
AcDbSymbolTableRecord
100
AcDbLayerTableRecord
  2
VISIBLE
 70
     0
 62
     7
  6
CONTINUOUS
  0
LAYER
  5
93
330
2
100
AcDbSymbolTableRecord
100
AcDbLayerTableRecord
  2
TANGENT_LINES
 70
     0
 62
     7
  6
CONTINUOUS
  0
LAYER
  5
CC
330
2
100
AcDbSymbolTableRecord
100
AcDbLayerTableRecord
  2
BORDER_FRAME
 70
     0
 62
     7
  6
CONTINUOUS
  0
LAYER
  5
D2
330
2
100
AcDbSymbolTableRecord
100
AcDbLayerTableRecord
  2
BORDER_ZONES
 70
     0
 62
     7
  6
CONTINUOUS
  0
LAYER
  5
F8
330
2
100
AcDbSymbolTableRecord
100
AcDbLayerTableRecord
  2
TITLE_BLOCK
 70
     0
 62
     7
  6
CONTINUOUS
  0
LAYER
  5
184
330
2
100
AcDbSymbolTableRecord
100
AcDbLayerTableRecord
  2
ANNOTATION_TEXT
 70
     0
 62
     7
  6
CONTINUOUS
  0
LAYER
  5
18D
330
2
100
AcDbSymbolTableRecord
100
AcDbLayerTableRecord
  2
CENTERMARKS
 70
     0
 62
     7
  6
CONTINUOUS
  0
ENDTAB
  0
TABLE
  2
STYLE
  5
3
330
0
100
AcDbSymbolTable
 70
    36
  0
STYLE
  5
11
330
3
100
AcDbSymbolTableRecord
100
AcDbTextStyleTableRecord
  2
STANDARD
 70
     0
 40
0.0
 41
1.0
 50
0.0
 71
     0
 42
3.5
  3
txt
  4

  0
STYLE
  5
71
330
3
100
AcDbSymbolTableRecord
100
AcDbTextStyleTableRecord
  2
ONSHAPE-STANDARD
 70
     0
 40
0.0
 41
1.0
 50
0.0
 71
     0
 42
3.5
  3
NotoSans-Regular.ttf
  4

1001
ACAD
1000
Noto Sans
1071
        0
  0
STYLE
  5
73
330
3
100
AcDbSymbolTableRecord
100
AcDbTextStyleTableRecord
  2
ONSHAPE-STANDARD-DIMENSION
 70
     0
 40
0.0
 41
1.0
 50
0.0
 71
     0
 42
3.5
  3

  4

1001
ACAD
1000
Noto Sans
1071
        0
  0
STYLE
  5
12D
330
3
100
AcDbSymbolTableRecord
100
AcDbTextStyleTableRecord
  2
ONSHAPE-STANDARD-FIELDS
 70
     0
 40
0.0
 41
1.0
 50
0.0
 71
     0
 42
3.5
  3

  4

1001
ACAD
1000
Noto Sans
1071
        0
  0
STYLE
  5
186
330
3
100
AcDbSymbolTableRecord
100
AcDbTextStyleTableRecord
  2
ONSHAPE-STANDARD-VIEW-LABE
 70
     0
 40
3.5
 41
1.0
 50
0.0
 71
     0
 42
3.5
  3
NotoSans-Regular.ttf
  4

1001
ACAD
1000
Noto Sans
1071
        0
  0
STYLE
  5
188
330
3
100
AcDbSymbolTableRecord
100
AcDbTextStyleTableRecord
  2
ONSHAPE-STANDARD-NOTESTYLE
 70
     0
 40
3.5
 41
1.0
 50
0.0
 71
     0
 42
3.5
  3
Noto Sans
  4

1001
ACAD
1000
Noto Sans
1071
        0
  0
STYLE
  5
27B
330
3
100
AcDbSymbolTableRecord
100
AcDbTextStyleTableRecord
  2
ONSHAPE-STANDARD-BOLD
 70
     0
 40
0.0
 41
1.0
 50
0.0
 71
     0
 42
3.5
  3
NotoSans-Bold.ttf
  4

1001
ACAD
1000
Noto Sans
1071
 33554432
  0
STYLE
  5
27D
330
3
100
AcDbSymbolTableRecord
100
AcDbTextStyleTableRecord
  2
ONSHAPE-STANDARD-TCFIELDS
 70
     0
 40
0.0
 41
1.0
 50
0.0
 71
     0
 42
3.5
  3
NotoSansTC-Regular.otf
  4

1001
ACAD
1000
Noto Sans TC
1071
        0
  0
STYLE
  5
27E
330
3
100
AcDbSymbolTableRecord
100
AcDbTextStyleTableRecord
  2
ONSHAPE-STANDARD-SCFIELDS
 70
     0
 40
0.0
 41
1.0
 50
0.0
 71
     0
 42
3.5
  3
NotoSansSC-Regular.otf
  4

1001
ACAD
1000
Noto Sans SC
1071
        0
  0
STYLE
  5
27F
330
3
100
AcDbSymbolTableRecord
100
AcDbTextStyleTableRecord
  2
ONSHAPE-STANDARD-KOREANFIE
 70
     0
 40
0.0
 41
1.0
 50
0.0
 71
     0
 42
3.5
  3
NotoSansKR-Regular.otf
  4

1001
ACAD
1000
Noto Sans KR
1071
        0
  0
STYLE
  5
280
330
3
100
AcDbSymbolTableRecord
100
AcDbTextStyleTableRecord
  2
ONSHAPE-STANDARD-JAPANESEF
 70
     0
 40
0.0
 41
1.0
 50
0.0
 71
     0
 42
3.5
  3
NotoSansJP-Regular.otf
  4

1001
ACAD
1000
Noto Sans JP
1071
        0
  0
STYLE
  5
282
330
3
100
AcDbSymbolTableRecord
100
AcDbTextStyleTableRecord
  2
TTFSTYLE
 70
     0
 40
0.0
 41
1.0
 50
0.0
 71
     0
 42
3.5
  3
Verdana.ttf
  4

1001
ACAD
1000
Verdana
1071
       34
  0
STYLE
  5
283
330
3
100
AcDbSymbolTableRecord
100
AcDbTextStyleTableRecord
  2
ONSHAPE-STANDARD-GTOLERANC
 70
     0
 40
0.0
 41
1.0
 50
0.0
 71
     0
 42
3.5
  3

  4

1001
ACAD
1000
Noto Sans
1071
        0
  0
STYLE
  5
284
330
3
100
AcDbSymbolTableRecord
100
AcDbTextStyleTableRecord
  2
ONSHAPE-STANDARD-TABLE-DAT
 70
     0
 40
0.0
 41
1.0
 50
0.0
 71
     0
 42
3.5
  3
NotoSans-Regular.ttf
  4

1001
ACAD
1000
Noto Sans
1071
        0
  0
STYLE
  5
285
330
3
100
AcDbSymbolTableRecord
100
AcDbTextStyleTableRecord
  2
ONSHAPE-STANDARD-TABLE-TIT
 70
     0
 40
0.0
 41
1.0
 50
0.0
 71
     0
 42
3.5
  3
NotoSans-Bold.ttf
  4

1001
ACAD
1000
Noto Sans
1071
 33554432
  0
STYLE
  5
286
330
3
100
AcDbSymbolTableRecord
100
AcDbTextStyleTableRecord
  2
ONSHAPE-STANDARD-TABLE-HEA
 70
     0
 40
0.0
 41
1.0
 50
0.0
 71
     0
 42
3.5
  3
NotoSans-Bold.ttf
  4

1001
ACAD
1000
Noto Sans
1071
 33554432
  0
STYLE
  5
287
330
3
100
AcDbSymbolTableRecord
100
AcDbTextStyleTableRecord
  2
ONSHAPE-STANDARD-BOMTABLE-
 70
     0
 40
0.0
 41
1.0
 50
0.0
 71
     0
 42
3.5
  3
NotoSans-Regular.ttf
  4

1001
ACAD
1000
Noto Sans
1071
        0
  0
STYLE
  5
288
330
3
100
AcDbSymbolTableRecord
100
AcDbTextStyleTableRecord
  2
ONSHAPE-STANDARD-BOMTABLE0
 70
     0
 40
0.0
 41
1.0
 50
0.0
 71
     0
 42
3.5
  3
NotoSans-Bold.ttf
  4

1001
ACAD
1000
Noto Sans
1071
 33554432
  0
STYLE
  5
289
330
3
100
AcDbSymbolTableRecord
100
AcDbTextStyleTableRecord
  2
ONSHAPE-STANDARD-BOMTABLE1
 70
     0
 40
0.0
 41
1.0
 50
0.0
 71
     0
 42
3.5
  3
NotoSans-Bold.ttf
  4

1001
ACAD
1000
Noto Sans
1071
 33554432
  0
STYLE
  5
28B
330
3
100
AcDbSymbolTableRecord
100
AcDbTextStyleTableRecord
  2
ONSHAPE-STANDARD-DATUM-DIM
 70
     0
 40
3.5
 41
1.0
 50
0.0
 71
     0
 42
3.5
  3
Noto Sans
  4

1001
ACAD
1000
Noto Sans
1071
        0
  0
STYLE
  5
28D
330
3
100
AcDbSymbolTableRecord
100
AcDbTextStyleTableRecord
  2
ONSHAPE-DETAIL-VIEW-LEADER
 70
     0
 40
3.5
 41
1.0
 50
0.0
 71
     0
 42
3.5
  3
Noto Sans
  4

1001
ACAD
1000
Noto Sans
1071
        0
  0
STYLE
  5
28E
330
3
100
AcDbSymbolTableRecord
100
AcDbTextStyleTableRecord
  2
ONSHAPE-STANDARD-HOLE-CALL
 70
     0
 40
3.5
 41
1.0
 50
0.0
 71
     0
 42
3.5
  3
Noto Sans
  4

1001
ACAD
1000
Noto Sans
1071
        0
  0
STYLE
  5
28F
330
3
100
AcDbSymbolTableRecord
100
AcDbTextStyleTableRecord
  2
ONSHAPE-STANDARD-HOLETABLE
 70
     0
 40
0.0
 41
1.0
 50
0.0
 71
     0
 42
3.5
  3
NotoSans-Regular.ttf
  4

1001
ACAD
1000
Noto Sans
1071
        0
  0
STYLE
  5
290
330
3
100
AcDbSymbolTableRecord
100
AcDbTextStyleTableRecord
  2
ONSHAPE-STANDARD-HOLETABL0
 70
     0
 40
0.0
 41
1.0
 50
0.0
 71
     0
 42
3.5
  3
NotoSans-Bold.ttf
  4

1001
ACAD
1000
Noto Sans
1071
 33554432
  0
STYLE
  5
291
330
3
100
AcDbSymbolTableRecord
100
AcDbTextStyleTableRecord
  2
ONSHAPE-STANDARD-HOLETABL1
 70
     0
 40
0.0
 41
1.0
 50
0.0
 71
     0
 42
3.5
  3
NotoSans-Bold.ttf
  4

1001
ACAD
1000
Noto Sans
1071
 33554432
  0
STYLE
  5
292
330
3
100
AcDbSymbolTableRecord
100
AcDbTextStyleTableRecord
  2
ONSHAPE-STANDARD-HOLE-TAG
 70
     0
 40
3.5
 41
1.0
 50
0.0
 71
     0
 42
3.5
  3
Noto Sans
  4

1001
ACAD
1000
Noto Sans
1071
        0
  0
STYLE
  5
293
330
3
100
AcDbSymbolTableRecord
100
AcDbTextStyleTableRecord
  2
ONSHAPE-STANDARD-REVISIONT
 70
     0
 40
0.0
 41
1.0
 50
0.0
 71
     0
 42
3.5
  3
NotoSans-Regular.ttf
  4

1001
ACAD
1000
Noto Sans
1071
        0
  0
STYLE
  5
294
330
3
100
AcDbSymbolTableRecord
100
AcDbTextStyleTableRecord
  2
ONSHAPE-STANDARD-REVISION0
 70
     0
 40
0.0
 41
1.0
 50
0.0
 71
     0
 42
3.5
  3
NotoSans-Bold.ttf
  4

1001
ACAD
1000
Noto Sans
1071
 33554432
  0
STYLE
  5
295
330
3
100
AcDbSymbolTableRecord
100
AcDbTextStyleTableRecord
  2
ONSHAPE-STANDARD-REVISION1
 70
     0
 40
0.0
 41
1.0
 50
0.0
 71
     0
 42
3.5
  3
NotoSans-Bold.ttf
  4

1001
ACAD
1000
Noto Sans
1071
 33554432
  0
STYLE
  5
296
330
3
100
AcDbSymbolTableRecord
100
AcDbTextStyleTableRecord
  2
ONSHAPE-STANDARD-REVISION-
 70
     0
 40
3.5
 41
1.0
 50
0.0
 71
     0
 42
3.5
  3
Noto Sans
  4

1001
ACAD
1000
Noto Sans
1071
        0
  0
STYLE
  5
297
330
3
100
AcDbSymbolTableRecord
100
AcDbTextStyleTableRecord
  2
ONSHAPE-STANDARD-CUTLISTTA
 70
     0
 40
0.0
 41
1.0
 50
0.0
 71
     0
 42
3.5
  3
NotoSans-Regular.ttf
  4

1001
ACAD
1000
Noto Sans
1071
        0
  0
STYLE
  5
298
330
3
100
AcDbSymbolTableRecord
100
AcDbTextStyleTableRecord
  2
ONSHAPE-STANDARD-CUTLISTT0
 70
     0
 40
0.0
 41
1.0
 50
0.0
 71
     0
 42
3.5
  3
NotoSans-Bold.ttf
  4

1001
ACAD
1000
Noto Sans
1071
 33554432
  0
STYLE
  5
299
330
3
100
AcDbSymbolTableRecord
100
AcDbTextStyleTableRecord
  2
ONSHAPE-STANDARD-CUTLISTT1
 70
     0
 40
0.0
 41
1.0
 50
0.0
 71
     0
 42
3.5
  3
NotoSans-Bold.ttf
  4

1001
ACAD
1000
Noto Sans
1071
 33554432
  0
STYLE
  5
29A
330
3
100
AcDbSymbolTableRecord
100
AcDbTextStyleTableRecord
  2
ONSHAPE-STANDARD-CUSTOMTAB
 70
     0
 40
0.0
 41
1.0
 50
0.0
 71
     0
 42
3.5
  3
NotoSans-Regular.ttf
  4

1001
ACAD
1000
Noto Sans
1071
        0
  0
STYLE
  5
29B
330
3
100
AcDbSymbolTableRecord
100
AcDbTextStyleTableRecord
  2
ONSHAPE-STANDARD-CUSTOMTA0
 70
     0
 40
0.0
 41
1.0
 50
0.0
 71
     0
 42
3.5
  3
NotoSans-Bold.ttf
  4

1001
ACAD
1000
Noto Sans
1071
 33554432
  0
STYLE
  5
29C
330
3
100
AcDbSymbolTableRecord
100
AcDbTextStyleTableRecord
  2
ONSHAPE-STANDARD-CUSTOMTA1
 70
     0
 40
0.0
 41
1.0
 50
0.0
 71
     0
 42
3.5
  3
NotoSans-Bold.ttf
  4

1001
ACAD
1000
Noto Sans
1071
 33554432
  0
ENDTAB
  0
TABLE
  2
VIEW
  5
6
330
0
100
AcDbSymbolTable
 70
     0
  0
ENDTAB
  0
TABLE
  2
UCS
  5
7
330
0
100
AcDbSymbolTable
 70
     0
  0
ENDTAB
  0
TABLE
  2
APPID
  5
9
330
0
100
AcDbSymbolTable
 70
     9
  0
APPID
  5
12
330
9
100
AcDbSymbolTableRecord
100
AcDbRegAppTableRecord
  2
ACAD
 70
     0
  0
APPID
  5
15A
330
9
100
AcDbSymbolTableRecord
100
AcDbRegAppTableRecord
  2
ONSHAPE_NOTES_REORDERING_D
 70
     0
  0
APPID
  5
15B
330
9
100
AcDbSymbolTableRecord
100
AcDbRegAppTableRecord
  2
ONSHAPE_NOTES_ANNOTATION_D
 70
     0
  0
APPID
  5
1B0
330
9
100
AcDbSymbolTableRecord
100
AcDbRegAppTableRecord
  2
ACAD_DIMASSOC_CALC_DIMLFAC
 70
     0
  0
APPID
  5
1B1
330
9
100
AcDbSymbolTableRecord
100
AcDbRegAppTableRecord
  2
ACAD_DIMASSOC_DIMLFAC
 70
     0
  0
APPID
  5
1B2
330
9
100
AcDbSymbolTableRecord
100
AcDbRegAppTableRecord
  2
ACAD_DIMASSOC_OVERRIDDEN_D
 70
     0
  0
APPID
  5
1A5
330
9
100
AcDbSymbolTableRecord
100
AcDbRegAppTableRecord
  2
INDEX
 70
     0
  0
APPID
  5
1C4
330
9
100
AcDbSymbolTableRecord
100
AcDbRegAppTableRecord
  2
ACAD_DSTYLE_DIMRADIAL_EXTE
 70
     0
  0
APPID
  5
310
330
9
100
AcDbSymbolTableRecord
100
AcDbRegAppTableRecord
  2
ACAD_MLEADERVER
 70
     0
  0
ENDTAB
  0
TABLE
  2
DIMSTYLE
  5
A
330
0
100
AcDbSymbolTable
 70
    23
  0
DIMSTYLE
105
27
330
A
100
AcDbSymbolTableRecord
100
AcDbDimStyleTableRecord
  2
STANDARD
 70
     0
  3

  4

  5

  6

  7

 40
1.0
 41
0.18
 42
0.0625
 43
0.38
 44
0.18
 45
0.0
 46
0.0
 47
0.0
 48
0.0
140
0.18
141
0.09
142
0.0
143
25.4
144
1.0
145
0.0
146
1.0
147
0.09
 71
     0
 72
     0
 73
     1
 74
     1
 75
     0
 76
     0
 77
     0
 78
     0
170
     0
171
     2
172
     0
173
     0
174
     0
175
     0
176
     0
177
     0
178
     0
270
     2
271
     4
272
     4
273
     2
274
     2
340
11
275
     0
280
     0
281
     0
282
     0
283
     1
284
     0
285
     0
286
     0
287
     3
288
     0
  0
DIMSTYLE
105
72
330
A
100
AcDbSymbolTableRecord
100
AcDbDimStyleTableRecord
  2
ONSHAPE-ISO-25
 70
     0
  3

  4

  5

  6

  7

 40
1.0
 41
2.5
 42
0.625
 43
3.75
 44
1.25
 45
0.0
 46
0.0
 47
0.0
 48
0.0
140
3.5
141
2.5
142
0.0
143
0.03937
144
1.0
145
0.0
146
1.0
147
0.625
 71
     0
 72
     0
 73
     0
 74
     0
 75
     0
 76
     0
 77
     1
 78
     8
170
     0
171
     3
172
     1
173
     0
174
     0
175
     0
176
     7
177
     7
178
     7
179
     1
270
     2
271
     2
272
     2
273
     2
274
     3
340
73
275
     0
280
     0
281
     0
282
     0
283
     0
284
     8
285
     8
286
     0
287
     3
288
     1
  0
DIMSTYLE
105
1A0
102
{ACAD_REACTORS
330
197
330
1E7
330
1FA
330
20D
102
}
330
A
100
AcDbSymbolTableRecord
100
AcDbDimStyleTableRecord
  2
ONSHAPE-ISO-25$0
 70
     0
  3

  4

  5

  6

  7

 40
1.0
 41
2.5
 42
0.625
 43
3.75
 44
1.25
 45
0.0
 46
0.0
 47
0.0
 48
0.0
140
3.5
141
2.5
142
0.0
143
0.03937
144
1.0
145
0.0
146
1.0
147
0.625
 71
     0
 72
     0
 73
     0
 74
     0
 75
     0
 76
     0
 77
     1
 78
     8
170
     0
171
     3
172
     1
173
     0
174
     0
175
     0
176
     7
177
     7
178
     7
179
     1
270
     2
271
     2
272
     2
273
     2
274
     3
340
73
275
     0
280
     0
281
     0
282
     0
283
     0
284
     8
285
     8
286
     0
287
     3
288
     1
  0
DIMSTYLE
105
1B8
102
{ACAD_REACTORS
330
1B3
330
1C5
330
1D6
330
244
102
}
330
A
100
AcDbSymbolTableRecord
100
AcDbDimStyleTableRecord
  2
ONSHAPE-ISO-25$3
 70
     0
  3

  4

  5

  6

  7

 40
1.0
 41
2.5
 42
0.625
 43
3.75
 44
1.25
 45
0.0
 46
0.0
 47
0.0
 48
0.0
140
3.5
141
0.0
142
0.0
143
0.03937
144
1.0
145
0.0
146
1.0
147
0.625
 71
     0
 72
     0
 73
     0
 74
     0
 75
     0
 76
     0
 77
     1
 78
     8
170
     0
171
     3
172
     1
173
     0
174
     0
175
     0
176
     7
177
     7
178
     7
179
     1
270
     2
271
     2
272
     2
273
     2
274
     3
340
73
275
     0
280
     0
281
     0
282
     0
283
     0
284
     8
285
     8
286
     0
287
     3
288
     1
  0
DIMSTYLE
105
29D
330
A
100
AcDbSymbolTableRecord
100
AcDbDimStyleTableRecord
  2
ISO-25
 70
     0
  3

  4

  5

  6

  7

 40
1.0
 41
2.5
 42
0.625
 43
3.75
 44
1.25
 45
0.0
 46
0.0
 47
0.0
 48
0.0
140
2.5
141
2.5
142
0.0
143
0.03937007874016
144
1.0
145
0.0
146
1.0
147
0.625
 71
     0
 72
     0
 73
     0
 74
     0
 75
     0
 76
     0
 77
     1
 78
     8
170
     0
171
     3
172
     1
173
     0
174
     0
175
     0
176
     7
177
     7
178
     7
270
     2
271
     2
272
     2
273
     2
274
     3
340
11
275
     0
280
     0
281
     0
282
     0
283
     0
284
     8
285
     0
286
     0
287
     3
288
     1
  0
DIMSTYLE
105
29F
330
A
100
AcDbSymbolTableRecord
100
AcDbDimStyleTableRecord
  2
ISO
 70
     0
  3

  4
"
  5

  6

  7

 40
1.0
 41
3.5
 42
1.0
 43
10.0
 44
1.0
 45
0.0
 46
0.0
 47
0.1
 48
0.1
140
3.5
141
0.0
142
0.0
143
0.03937
144
1.0
145
0.0
146
0.71
147
1.5
 71
     0
 72
     0
 73
     0
 74
     0
 75
     0
 76
     0
 77
     1
 78
     8
170
     0
171
     3
172
     1
173
     0
174
     0
175
     0
176
     7
177
     7
178
     7
270
     2
271
     2
272
     3
273
     2
274
     3
340
11
275
     0
280
     0
281
     0
282
     0
283
     0
284
     8
285
     8
286
     0
287
     3
288
     1
  0
DIMSTYLE
105
2A0
330
A
100
AcDbSymbolTableRecord
100
AcDbDimStyleTableRecord
  2
ISO$3
 70
     0
  3

  4
"
  5

  6

  7

 40
1.0
 41
3.5
 42
1.0
 43
10.0
 44
1.0
 45
0.0
 46
0.0
 47
0.1
 48
0.1
140
3.5
141
0.0
142
0.0
143
0.03937
144
1.0
145
0.0
146
0.71
147
1.5
 71
     0
 72
     0
 73
     0
 74
     1
 75
     0
 76
     0
 77
     1
 78
     8
170
     0
171
     3
172
     0
173
     0
174
     0
175
     0
176
     7
177
     7
178
     7
270
     2
271
     2
272
     3
273
     2
274
     3
340
11
275
     0
280
     0
281
     0
282
     0
283
     0
284
     8
285
     8
286
     0
288
     1
  0
DIMSTYLE
105
2A1
330
A
100
AcDbSymbolTableRecord
100
AcDbDimStyleTableRecord
  2
ISO$4
 70
     0
  3

  4
"
  5

  6

  7

 40
1.0
 41
3.5
 42
1.0
 43
10.0
 44
1.0
 45
0.0
 46
0.0
 47
0.1
 48
0.1
140
3.5
141
0.0
142
0.0
143
0.03937
144
1.0
145
0.0
146
0.71
147
1.5
 71
     0
 72
     0
 73
     0
 74
     0
 75
     0
 76
     0
 77
     1
 78
     8
170
     0
171
     3
172
     1
173
     0
174
     0
175
     0
176
     7
177
     7
178
     7
270
     2
271
     2
272
     3
273
     2
274
     3
340
11
275
     0
280
     0
281
     0
282
     0
283
     0
284
     8
285
     8
286
     0
287
     3
288
     1
  0
DIMSTYLE
105
2A2
330
A
100
AcDbSymbolTableRecord
100
AcDbDimStyleTableRecord
  2
ISO$6
 70
     0
  3

  4
"
  5

  6

  7

 40
1.0
 41
0.5
 42
1.0
 43
10.0
 44
1.0
 45
0.0
 46
0.0
 47
0.1
 48
0.1
140
3.5
141
0.0
142
0.0
143
0.03937
144
1.0
145
0.0
146
0.71
147
1.5
 71
     0
 72
     0
 73
     0
 74
     0
 75
     0
 76
     0
 77
     0
 78
     8
170
     0
171
     3
172
     1
173
     0
174
     0
175
     0
176
     7
177
     7
178
     7
270
     2
271
     2
272
     3
273
     2
274
     3
340
11
275
     0
280
     0
281
     0
282
     0
283
     0
284
     8
285
     8
286
     0
287
     3
288
     1
  0
DIMSTYLE
105
2A3
330
A
100
AcDbSymbolTableRecord
100
AcDbDimStyleTableRecord
  2
ISO$7
 70
     0
  3

  4
"
  5

  6

  7

 40
1.0
 41
3.5
 42
1.0
 43
10.0
 44
1.0
 45
0.0
 46
0.0
 47
0.1
 48
0.1
140
3.5
141
0.0
142
0.0
143
0.03937
144
1.0
145
0.0
146
0.71
147
1.5
 71
     0
 72
     0
 73
     0
 74
     0
 75
     0
 76
     0
 77
     1
 78
     8
170
     0
171
     3
172
     1
173
     0
174
     0
175
     0
176
     7
177
     7
178
     7
270
     2
271
     2
272
     3
273
     2
274
     3
340
11
275
     0
280
     0
281
     0
282
     0
283
     0
284
     8
285
     8
286
     0
287
     3
288
     1
  0
DIMSTYLE
105
2A4
330
A
100
AcDbSymbolTableRecord
100
AcDbDimStyleTableRecord
  2
ISO$SF
 70
     0
  3

  4
"
  5

  6

  7

 40
1.0
 41
3.5
 42
1.0
 43
10.0
 44
1.0
 45
0.0
 46
0.0
 47
0.1
 48
0.1
140
3.5
141
0.0
142
0.0
143
0.03937
144
1.0
145
0.0
146
0.71
147
1.5
 71
     0
 72
     0
 73
     0
 74
     0
 75
     1
 76
     1
 77
     1
 78
     8
170
     0
171
     3
172
     1
173
     0
174
     0
175
     0
176
     7
177
     7
178
     7
270
     2
271
     2
272
     3
273
     2
274
     3
340
11
275
     0
280
     0
281
     0
282
     0
283
     0
284
     8
285
     8
286
     0
287
     3
288
     1
  0
DIMSTYLE
105
2A5
330
A
100
AcDbSymbolTableRecord
100
AcDbDimStyleTableRecord
  2
ISO$SH
 70
     0
  3

  4
"
  5

  6

  7

 40
1.0
 41
3.5
 42
1.0
 43
10.0
 44
1.0
 45
0.0
 46
0.0
 47
0.1
 48
0.1
140
3.5
141
0.0
142
0.0
143
0.03937
144
2.0
145
0.0
146
0.71
147
1.5
 71
     0
 72
     0
 73
     0
 74
     0
 75
     1
 76
     1
 77
     1
 78
     8
170
     0
171
     3
172
     1
173
     1
174
     0
175
     0
176
     7
177
     7
178
     7
270
     2
271
     2
272
     3
273
     2
274
     3
340
11
275
     0
280
     0
281
     0
282
     0
283
     0
284
     8
285
     8
286
     0
287
     3
288
     1
  0
DIMSTYLE
105
2A9
330
A
100
AcDbSymbolTableRecord
100
AcDbDimStyleTableRecord
  2
ONSHAPE-ISO-25$2
 70
     0
  3

  4

  5

  6

  7

 40
1.0
 41
2.5
 42
0.625
 43
3.75
 44
1.25
 45
0.0
 46
0.0
 47
0.0
 48
0.0
140
3.5
141
2.5
142
0.0
143
0.03937
144
1.0
145
0.0
146
1.0
147
0.625
 71
     0
 72
     0
 73
     0
 74
     0
 75
     0
 76
     0
 77
     1
 78
     8
170
     0
171
     3
172
     1
173
     0
174
     0
175
     0
176
     7
177
     7
178
     7
179
     1
270
     2
271
     2
272
     2
273
     2
274
     3
340
73
275
     0
280
     0
281
     0
282
     0
283
     0
284
     8
285
     8
286
     0
287
     3
288
     1
  0
DIMSTYLE
105
2AB
330
A
100
AcDbSymbolTableRecord
100
AcDbDimStyleTableRecord
  2
ONSHAPE-ISO-25$4
 70
     0
  3

  4

  5

  6

  7

 40
1.0
 41
2.5
 42
0.625
 43
3.75
 44
1.25
 45
0.0
 46
0.0
 47
0.0
 48
0.0
140
3.5
141
0.0
142
0.0
143
0.03937
144
1.0
145
0.0
146
1.0
147
0.625
 71
     0
 72
     0
 73
     0
 74
     0
 75
     0
 76
     0
 77
     1
 78
     8
170
     0
171
     3
172
     1
173
     0
174
     0
175
     0
176
     7
177
     7
178
     7
179
     1
270
     2
271
     2
272
     2
273
     2
274
     3
340
73
275
     0
280
     0
281
     0
282
     0
283
     0
284
     8
285
     8
286
     0
287
     3
288
     1
  0
DIMSTYLE
105
2AC
330
A
100
AcDbSymbolTableRecord
100
AcDbDimStyleTableRecord
  2
ONSHAPE-ISO-25$6
 70
     0
  3

  4

  5

  6

  7

 40
1.0
 41
0.5
 42
0.625
 43
3.75
 44
1.25
 45
0.0
 46
0.0
 47
0.0
 48
0.0
140
3.5
141
2.5
142
0.0
143
0.03937
144
1.0
145
0.0
146
1.0
147
0.625
 71
     0
 72
     0
 73
     0
 74
     0
 75
     0
 76
     0
 77
     1
 78
     8
170
     0
171
     3
172
     1
173
     0
174
     0
175
     0
176
     7
177
     7
178
     7
179
     1
270
     2
271
     2
272
     2
273
     2
274
     3
340
73
275
     0
280
     0
281
     0
282
     0
283
     0
284
     8
285
     8
286
     0
287
     3
288
     1
  0
DIMSTYLE
105
2AD
330
A
100
AcDbSymbolTableRecord
100
AcDbDimStyleTableRecord
  2
ONSHAPE-ISO-25$7
 70
     0
  3

  4

  5

  6

  7

 40
1.0
 41
2.5
 42
0.625
 43
3.75
 44
1.25
 45
0.0
 46
0.0
 47
0.0
 48
0.0
140
3.5
141
2.5
142
0.0
143
0.03937
144
1.0
145
0.0
146
1.0
147
0.625
 71
     0
 72
     0
 73
     0
 74
     0
 75
     0
 76
     0
 77
     1
 78
     8
170
     0
171
     3
172
     1
173
     0
174
     0
175
     0
176
     7
177
     7
178
     7
179
     1
270
     2
271
     2
272
     2
273
     2
274
     3
340
73
275
     0
280
     0
281
     0
282
     0
283
     0
284
     8
285
     8
286
     0
287
     3
288
     1
  0
DIMSTYLE
105
2AE
330
A
100
AcDbSymbolTableRecord
100
AcDbDimStyleTableRecord
  2
ONSHAPE-STANDARD-GTOLERANC
 70
     0
  3

  4

  5

  6

  7

 40
1.0
 41
2.5
 42
0.625
 43
3.75
 44
1.25
 45
0.0
 46
0.0
 47
0.0
 48
0.0
140
3.5
141
2.5
142
0.0
143
0.03937
144
1.0
145
0.0
146
1.0
147
0.625
 71
     0
 72
     0
 73
     0
 74
     0
 75
     0
 76
     0
 77
     1
 78
     8
170
     0
171
     3
172
     1
173
     0
174
     0
175
     0
176
     7
177
     7
178
     7
179
     1
270
     2
271
     2
272
     2
273
     2
274
     3
340
283
275
     0
280
     0
281
     0
282
     0
283
     0
284
     8
285
     8
286
     0
287
     3
288
     1
  0
DIMSTYLE
105
2B0
330
A
100
AcDbSymbolTableRecord
100
AcDbDimStyleTableRecord
  2
ONSHAPE-ORDINATESTYLE
 70
     0
  3

  4

  5

  6

  7

 40
1.0
 41
2.5
 42
0.625
 43
3.75
 44
1.25
 45
0.0
 46
0.0
 47
0.0
 48
0.0
140
3.5
141
2.5
142
0.0
143
0.03937
144
1.0
145
0.0
146
1.0
147
0.625
 71
     0
 72
     0
 73
     0
 74
     0
 75
     0
 76
     0
 77
     1
 78
     8
170
     0
171
     3
172
     1
173
     0
174
     0
175
     0
176
     7
177
     7
178
     7
179
     1
270
     2
271
     2
272
     2
273
     2
274
     3
340
73
275
     0
280
     0
281
     0
282
     0
283
     0
284
     8
285
     8
286
     0
287
     3
288
     1
  0
DIMSTYLE
105
2B1
330
A
100
AcDbSymbolTableRecord
100
AcDbDimStyleTableRecord
  2
ONSHAPE-CHAMFERDIMSTYLE
 70
     0
  3

  4

  5

  6

  7

 40
1.0
 41
2.5
 42
0.625
 43
3.75
 44
1.25
 45
0.0
 46
0.0
 47
0.0
 48
0.0
140
3.5
141
2.5
142
0.0
143
0.03937
144
1.0
145
0.0
146
1.0
147
0.625
 71
     0
 72
     0
 73
     0
 74
     0
 75
     0
 76
     0
 77
     1
 78
     8
170
     0
171
     3
172
     1
173
     0
174
     0
175
     0
176
     7
177
     7
178
     7
179
     1
270
     2
271
     2
272
     2
273
     2
274
     3
340
73
275
     0
280
     0
281
     0
282
     0
283
     0
284
     8
285
     8
286
     0
287
     3
288
     1
  0
DIMSTYLE
105
2B2
330
A
100
AcDbSymbolTableRecord
100
AcDbDimStyleTableRecord
  2
ONSHAPE-SKETCHDRIVENDIMSTY
 70
     0
  3

  4

  5

  6

  7

 40
1.0
 41
2.5
 42
0.625
 43
3.75
 44
1.25
 45
0.0
 46
0.0
 47
0.0
 48
0.0
140
3.5
141
2.5
142
0.0
143
0.03937
144
1.0
145
0.0
146
1.0
147
0.625
 71
     0
 72
     0
 73
     0
 74
     0
 75
     0
 76
     0
 77
     1
 78
     8
170
     0
171
     3
172
     1
173
     0
174
     0
175
     0
176
   251
177
   251
178
   251
179
     1
270
     2
271
     2
272
     2
273
     2
274
     3
340
73
275
     0
280
     0
281
     0
282
     0
283
     0
284
     8
285
     8
286
     0
287
     3
288
     1
  0
DIMSTYLE
105
2B3
330
A
100
AcDbSymbolTableRecord
100
AcDbDimStyleTableRecord
  2
ONSHAPE-SKETCHDRIVENDIMST0
 70
     0
  3

  4

  5

  6

  7

 40
1.0
 41
2.5
 42
0.625
 43
3.75
 44
1.25
 45
0.0
 46
0.0
 47
0.0
 48
0.0
140
3.5
141
2.5
142
0.0
143
0.03937
144
1.0
145
0.0
146
1.0
147
0.625
 71
     0
 72
     0
 73
     0
 74
     0
 75
     0
 76
     0
 77
     1
 78
     8
170
     0
171
     3
172
     1
173
     0
174
     0
175
     0
176
   251
177
   251
178
   251
179
     1
270
     2
271
     2
272
     2
273
     2
274
     3
340
73
275
     0
280
     0
281
     0
282
     0
283
     0
284
     8
285
     8
286
     0
287
     3
288
     1
  0
DIMSTYLE
105
2B4
330
A
100
AcDbSymbolTableRecord
100
AcDbDimStyleTableRecord
  2
ONSHAPE-SKETCHDRIVENDIMST1
 70
     0
  3

  4

  5

  6

  7

 40
1.0
 41
2.5
 42
0.625
 43
3.75
 44
1.25
 45
0.0
 46
0.0
 47
0.0
 48
0.0
140
3.5
141
0.0
142
0.0
143
0.03937
144
1.0
145
0.0
146
1.0
147
0.625
 71
     0
 72
     0
 73
     0
 74
     0
 75
     0
 76
     0
 77
     1
 78
     8
170
     0
171
     3
172
     1
173
     0
174
     0
175
     0
176
   251
177
   251
178
   251
179
     1
270
     2
271
     2
272
     2
273
     2
274
     3
340
73
275
     0
280
     0
281
     0
282
     0
283
     0
284
     8
285
     8
286
     0
287
     3
288
     1
  0
DIMSTYLE
105
2B5
330
A
100
AcDbSymbolTableRecord
100
AcDbDimStyleTableRecord
  2
ONSHAPE-SKETCHDRIVENDIMST2
 70
     0
  3

  4

  5

  6

  7

 40
1.0
 41
2.5
 42
0.625
 43
3.75
 44
1.25
 45
0.0
 46
0.0
 47
0.0
 48
0.0
140
3.5
141
0.0
142
0.0
143
0.03937
144
1.0
145
0.0
146
1.0
147
0.625
 71
     0
 72
     0
 73
     0
 74
     0
 75
     0
 76
     0
 77
     1
 78
     8
170
     0
171
     3
172
     1
173
     0
174
     0
175
     0
176
   251
177
   251
178
   251
179
     1
270
     2
271
     2
272
     2
273
     2
274
     3
340
73
275
     0
280
     0
281
     0
282
     0
283
     0
284
     8
285
     8
286
     0
287
     3
288
     1
  0
ENDTAB
  0
TABLE
  2
BLOCK_RECORD
  5
1
330
0
100
AcDbSymbolTable
 70
     8
  0
BLOCK_RECORD
  5
1F
330
1
100
AcDbSymbolTableRecord
100
AcDbBlockTableRecord
  2
*MODEL_SPACE
  0
BLOCK_RECORD
  5
1B
330
1
100
AcDbSymbolTableRecord
100
AcDbBlockTableRecord
  2
*PAPER_SPACE
  0
BLOCK_RECORD
  5
1A2
330
1
100
AcDbSymbolTableRecord
100
AcDbBlockTableRecord
  2
*D1
  0
BLOCK_RECORD
  5
1B9
330
1
100
AcDbSymbolTableRecord
100
AcDbBlockTableRecord
  2
*D2
  0
BLOCK_RECORD
  5
1CA
330
1
100
AcDbSymbolTableRecord
100
AcDbBlockTableRecord
  2
*D3
  0
BLOCK_RECORD
  5
1DB
330
1
100
AcDbSymbolTableRecord
100
AcDbBlockTableRecord
  2
*D4
  0
BLOCK_RECORD
  5
1ED
330
1
100
AcDbSymbolTableRecord
100
AcDbBlockTableRecord
  2
*D5
  0
BLOCK_RECORD
  5
200
330
1
100
AcDbSymbolTableRecord
100
AcDbBlockTableRecord
  2
*D6
  0
BLOCK_RECORD
  5
213
330
1
100
AcDbSymbolTableRecord
100
AcDbBlockTableRecord
  2
*D7
  0
BLOCK_RECORD
  5
24E
330
1
100
AcDbSymbolTableRecord
100
AcDbBlockTableRecord
  2
*D8
  0
ENDTAB
  0
ENDSEC
  0
SECTION
  2
BLOCKS
  0
BLOCK
  5
20
330
1F
100
AcDbEntity
  8
0
100
AcDbBlockBegin
  2
*MODEL_SPACE
 70
     0
 10
0.0
 20
0.0
 30
0.0
  3
*MODEL_SPACE
  1

  0
ENDBLK
  5
21
330
1F
100
AcDbEntity
  8
0
100
AcDbBlockEnd
  0
BLOCK
  5
1C
330
1B
100
AcDbEntity
 67
     1
  8
0
100
AcDbBlockBegin
  2
*PAPER_SPACE
 70
     0
 10
0.0
 20
0.0
 30
0.0
  3
*PAPER_SPACE
  1

  0
ENDBLK
  5
1D
330
1B
100
AcDbEntity
 67
     1
  8
0
100
AcDbBlockEnd
  0
BLOCK
  5
1A3
330
1A2
100
AcDbEntity
  8
0
100
AcDbBlockBegin
  2
*D1
 70
     1
 10
0.0
 20
0.0
 30
0.0
  3
*D1
  1

  0
LINE
  5
1A4
330
1A2
100
AcDbEntity
  8
ANNOTATION_TEXT
 62
     7
100
AcDbLine
 10
57.31101533995515
 20
214.4121894532597
 30
0.0
 11
57.31101533995515
 21
233.1505127331114
 31
0.0
1001
INDEX
1070
     0
  0
LINE
  5
1A6
330
1A2
100
AcDbEntity
  8
ANNOTATION_TEXT
 62
     7
100
AcDbLine
 10
127.3110153399551
 20
214.4121894532597
 30
0.0
 11
127.3110153399551
 21
233.1505127331114
 31
0.0
1001
INDEX
1070
     1
  0
LINE
  5
1A7
330
1A2
100
AcDbEntity
  8
ANNOTATION_TEXT
 62
     7
100
AcDbLine
 10
59.81101533995515
 20
231.9005127331114
 30
0.0
 11
124.8110153399551
 21
231.9005127331114
 31
0.0
1001
INDEX
1070
     3
  0
SOLID
  5
1A8
330
1A2
100
AcDbEntity
  8
ANNOTATION_TEXT
 62
     7
100
AcDbTrace
 10
59.81101533995515
 20
232.3171793997781
 30
0.0
 11
59.81101533995515
 21
231.4838460664448
 31
0.0
 12
57.31101533995515
 22
231.9005127331114
 32
0.0
 13
57.31101533995515
 23
231.9005127331114
 33
0.0
  0
SOLID
  5
1A9
330
1A2
100
AcDbEntity
  8
ANNOTATION_TEXT
 62
     7
100
AcDbTrace
 10
124.8110153399551
 20
231.4838460664448
 30
0.0
 11
124.8110153399551
 21
232.3171793997781
 31
0.0
 12
127.3110153399551
 22
231.9005127331114
 32
0.0
 13
127.3110153399551
 23
231.9005127331114
 33
0.0
  0
MTEXT
  5
1AA
330
1A2
100
AcDbEntity
  8
ANNOTATION_TEXT
 62
     7
100
AcDbMText
 10
91.3969304638789
 20
234.3196203625392
 30
0.0
 40
3.5
 41
0.0
 71
     5
 72
     1
  1
70
  7
ONSHAPE-STANDARD-DIMENSION
  0
POINT
  5
1AB
330
1A2
100
AcDbEntity
  8
DEFPOINTS
 62
     0
100
AcDbPoint
 10
57.31101533995515
 20
213.7871894532597
 30
0.0
  0
POINT
  5
1AC
330
1A2
100
AcDbEntity
  8
DEFPOINTS
 62
     0
100
AcDbPoint
 10
127.3110153399551
 20
213.7871894532597
 30
0.0
  0
POINT
  5
1AD
330
1A2
100
AcDbEntity
  8
DEFPOINTS
 62
     0
100
AcDbPoint
 10
127.3110153399551
 20
231.9005127331114
 30
0.0
  0
POINT
  5
1AE
330
1A2
100
AcDbEntity
  8
DEFPOINTS
 62
     0
100
AcDbPoint
 10
127.3110153399551
 20
231.9005127331114
 30
0.0
  0
ENDBLK
  5
1AF
330
1A2
100
AcDbEntity
  8
0
100
AcDbBlockEnd
  0
BLOCK
  5
1BA
330
1B9
100
AcDbEntity
  8
0
100
AcDbBlockBegin
  2
*D2
 70
     1
 10
0.0
 20
0.0
 30
0.0
  3
*D2
  1

  0
LINE
  5
1BB
330
1B9
100
AcDbEntity
  8
ANNOTATION_TEXT
 62
     7
100
AcDbLine
 10
60.25320499467576
 20
85.4572152013255
 30
0.0
 11
21.9969420286932
 21
110.4513070057674
 31
0.0
1001
INDEX
1070
     3
  0
LINE
  5
1BC
330
1B9
100
AcDbEntity
  8
ANNOTATION_TEXT
 62
     7
100
AcDbLine
 10
123.0406699958673
 20
44.43607140054708
 30
0.0
 11
125.1335854959071
 21
43.06869994052113
 31
0.0
1001
INDEX
1070
     3
  0
MTEXT
  5
1BD
330
1B9
100
AcDbEntity
  8
ANNOTATION_TEXT
 62
     7
100
AcDbMText
 10
27.60788120313347
 20
109.7975931183422
 30
0.0
 40
3.5
 41
0.0
 71
     5
 72
     1
  1
%%c70
  7
ONSHAPE-STANDARD-DIMENSION
 11
0.8371662000158878
 21
-0.5469485840103789
 31
0.0
  0
LINE
  5
1BE
330
1B9
100
AcDbEntity
  8
ANNOTATION_TEXT
 62
     7
100
AcDbLine
 10
120.9477544958276
 20
45.80344286057303
 30
0.0
 11
62.34612049471547
 21
84.08984374129955
 31
0.0
1001
INDEX
1070
     3
  0
SOLID
  5
1BF
330
1B9
100
AcDbEntity
  8
ANNOTATION_TEXT
 62
     7
100
AcDbTrace
 10
123.268565239205
 20
44.7848906505537
 30
0.0
 11
122.8127747525297
 21
44.08725215054046
 31
0.0
 12
120.9477544958276
 22
45.80344286057303
 32
0.0
 13
120.9477544958276
 23
45.80344286057303
 33
0.0
  0
SOLID
  5
1C0
330
1B9
100
AcDbEntity
  8
ANNOTATION_TEXT
 62
     7
100
AcDbTrace
 10
60.0253097513381
 20
85.10839595131888
 30
0.0
 11
60.48110023801341
 21
85.80603445133211
 31
0.0
 12
62.34612049471547
 22
84.08984374129955
 32
0.0
 13
62.34612049471547
 23
84.08984374129955
 33
0.0
  0
POINT
  5
1C1
330
1B9
100
AcDbEntity
  8
DEFPOINTS
 62
     0
100
AcDbPoint
 10
62.34612049471547
 20
84.08984374129955
 30
0.0
  0
POINT
  5
1C2
330
1B9
100
AcDbEntity
  8
DEFPOINTS
 62
     0
100
AcDbPoint
 10
120.9477544958276
 20
45.80344286057303
 30
0.0
  0
ENDBLK
  5
1C3
330
1B9
100
AcDbEntity
  8
0
100
AcDbBlockEnd
  0
BLOCK
  5
1CB
330
1CA
100
AcDbEntity
  8
0
100
AcDbBlockBegin
  2
*D3
 70
     1
 10
0.0
 20
0.0
 30
0.0
  3
*D3
  1

  0
LINE
  5
1CC
330
1CA
100
AcDbEntity
  8
ANNOTATION_TEXT
 62
     7
100
AcDbLine
 10
118.0888460553942
 20
72.50147431811418
 30
0.0
 11
157.5643238989998
 21
83.78018227343001
 31
0.0
1001
INDEX
1070
     3
  0
LINE
  5
1CD
330
1CA
100
AcDbEntity
  8
ANNOTATION_TEXT
 62
     7
100
AcDbLine
 10
65.20502893514889
 20
57.39181228375843
 30
0.0
 11
62.80121906604683
 21
56.70500946401499
 31
0.0
1001
INDEX
1070
     3
  0
MTEXT
  5
1CE
330
1CA
100
AcDbEntity
  8
ANNOTATION_TEXT
 62
     7
100
AcDbMText
 10
152.0112330347881
 20
84.81611765736525
 30
0.0
 40
3.5
 41
0.0
 71
     5
 72
     1
  1
%%c50
  7
ONSHAPE-STANDARD-DIMENSION
 11
0.9615239476408235
 21
0.274721127897377
 31
0.0
  0
LINE
  5
1CF
330
1CA
100
AcDbEntity
  8
ANNOTATION_TEXT
 62
     7
100
AcDbLine
 10
67.60883880425095
 20
58.07861510350187
 30
0.0
 11
91.58684224854397
 21
64.92947323044271
 31
0.0
1001
INDEX
1070
     3
  0
LINE
  5
1D0
330
1CA
100
AcDbEntity
  8
ANNOTATION_TEXT
 62
     7
100
AcDbLine
 10
91.70703274199909
 20
64.9638133714299
 30
0.0
 11
115.6850361862921
 21
71.81467149837073
 31
0.0
1001
INDEX
1070
     3
  0
SOLID
  5
1D1
330
1CA
100
AcDbEntity
  8
ANNOTATION_TEXT
 62
     7
100
AcDbTrace
 10
65.31949607177279
 20
56.99117730557476
 30
0.0
 11
65.09056179852499
 21
57.79244726194211
 31
0.0
 12
67.60883880425095
 22
58.07861510350187
 32
0.0
 13
67.60883880425095
 23
58.07861510350187
 33
0.0
  0
SOLID
  5
1D2
330
1CA
100
AcDbEntity
  8
ANNOTATION_TEXT
 62
     7
100
AcDbTrace
 10
117.9743789187703
 20
72.90210929629785
 30
0.0
 11
118.2033131920181
 21
72.1008393399305
 31
0.0
 12
115.6850361862921
 22
71.81467149837073
 32
0.0
 13
115.6850361862921
 23
71.81467149837073
 33
0.0
  0
POINT
  5
1D3
330
1CA
100
AcDbEntity
  8
DEFPOINTS
 62
     0
100
AcDbPoint
 10
115.6850361862921
 20
71.81467149837073
 30
0.0
  0
POINT
  5
1D4
330
1CA
100
AcDbEntity
  8
DEFPOINTS
 62
     0
100
AcDbPoint
 10
67.60883880425095
 20
58.07861510350187
 30
0.0
  0
ENDBLK
  5
1D5
330
1CA
100
AcDbEntity
  8
0
100
AcDbBlockEnd
  0
BLOCK
  5
1DC
330
1DB
100
AcDbEntity
  8
0
100
AcDbBlockBegin
  2
*D4
 70
     1
 10
0.0
 20
0.0
 30
0.0
  3
*D4
  1

  0
LINE
  5
1DD
330
1DB
100
AcDbEntity
  8
ANNOTATION_TEXT
 62
     7
100
AcDbLine
 10
100.4857722601034
 20
73.78547806576815
 30
0.0
 11
137.9611747029267
 21
111.2608805085915
 31
0.0
1001
INDEX
1070
     3
  0
LINE
  5
1DE
330
1DB
100
AcDbEntity
  8
ANNOTATION_TEXT
 62
     7
100
AcDbLine
 10
82.8081027304397
 20
56.10780853610446
 30
0.0
 11
81.04033577747333
 21
54.34004158313809
 31
0.0
1001
INDEX
1070
     3
  0
MTEXT
  5
1DF
330
1DB
100
AcDbEntity
  8
ANNOTATION_TEXT
 62
     7
100
AcDbMText
 10
132.603805222646
 20
109.4696316376531
 30
0.0
 40
3.5
 41
0.0
 71
     5
 72
     1
  1
%%c20
  7
ONSHAPE-STANDARD-DIMENSION
 11
0.7071067811865475
 21
0.7071067811865475
 31
0.0
  0
LINE
  5
1E0
330
1DB
100
AcDbEntity
  8
ANNOTATION_TEXT
 62
     7
100
AcDbLine
 10
84.57586968340607
 20
57.87557548907083
 30
0.0
 11
91.60274332144738
 21
64.90244912711213
 31
0.0
1001
INDEX
1070
     3
  0
LINE
  5
1E1
330
1DB
100
AcDbEntity
  8
ANNOTATION_TEXT
 62
     7
100
AcDbLine
 10
91.69113166909568
 20
64.99083747476044
 30
0.0
 11
98.71800530713702
 21
72.01771111280178
 31
0.0
1001
INDEX
1070
     3
  0
SOLID
  5
1E2
330
1DB
100
AcDbEntity
  8
ANNOTATION_TEXT
 62
     7
100
AcDbTrace
 10
83.10273055593409
 20
55.81318071061006
 30
0.0
 11
82.51347490494531
 21
56.40243636159885
 31
0.0
 12
84.57586968340607
 22
57.87557548907083
 32
0.0
 13
84.57586968340607
 23
57.87557548907083
 33
0.0
  0
SOLID
  5
1E3
330
1DB
100
AcDbEntity
  8
ANNOTATION_TEXT
 62
     7
100
AcDbTrace
 10
100.191144434609
 20
74.08010589126253
 30
0.0
 11
100.7804000855978
 21
73.49085024027376
 31
0.0
 12
98.71800530713702
 22
72.01771111280178
 32
0.0
 13
98.71800530713702
 23
72.01771111280178
 33
0.0
  0
POINT
  5
1E4
330
1DB
100
AcDbEntity
  8
DEFPOINTS
 62
     0
100
AcDbPoint
 10
98.71800530713702
 20
72.01771111280178
 30
0.0
  0
POINT
  5
1E5
330
1DB
100
AcDbEntity
  8
DEFPOINTS
 62
     0
100
AcDbPoint
 10
84.57586968340607
 20
57.87557548907083
 30
0.0
  0
ENDBLK
  5
1E6
330
1DB
100
AcDbEntity
  8
0
100
AcDbBlockEnd
  0
BLOCK
  5
1EE
330
1ED
100
AcDbEntity
  8
0
100
AcDbBlockBegin
  2
*D5
 70
     1
 10
0.0
 20
0.0
 30
0.0
  3
*D5
  1

  0
LINE
  5
1EF
330
1ED
100
AcDbEntity
  8
ANNOTATION_TEXT
 62
     7
100
AcDbLine
 10
67.31101533995515
 20
158.1621894532597
 30
0.0
 11
67.31101533995515
 21
139.9854339164578
 31
0.0
1001
INDEX
1070
     0
  0
LINE
  5
1F0
330
1ED
100
AcDbEntity
  8
ANNOTATION_TEXT
 62
     7
100
AcDbLine
 10
117.3110153399551
 20
158.1621894532597
 30
0.0
 11
117.3110153399551
 21
139.9854339164578
 31
0.0
1001
INDEX
1070
     1
  0
LINE
  5
1F1
330
1ED
100
AcDbEntity
  8
ANNOTATION_TEXT
 62
     7
100
AcDbLine
 10
69.81101533995515
 20
141.2354339164578
 30
0.0
 11
114.8110153399551
 21
141.2354339164578
 31
0.0
1001
INDEX
1070
     3
  0
SOLID
  5
1F2
330
1ED
100
AcDbEntity
  8
ANNOTATION_TEXT
 62
     7
100
AcDbTrace
 10
69.81101533995515
 20
141.6521005831245
 30
0.0
 11
69.81101533995515
 21
140.8187672497912
 31
0.0
 12
67.31101533995515
 22
141.2354339164578
 32
0.0
 13
67.31101533995515
 23
141.2354339164578
 33
0.0
  0
SOLID
  5
1F3
330
1ED
100
AcDbEntity
  8
ANNOTATION_TEXT
 62
     7
100
AcDbTrace
 10
114.8110153399551
 20
140.8187672497912
 30
0.0
 11
114.8110153399551
 21
141.6521005831245
 31
0.0
 12
117.3110153399551
 22
141.2354339164578
 32
0.0
 13
117.3110153399551
 23
141.2354339164578
 33
0.0
  0
MTEXT
  5
1F4
330
1ED
100
AcDbEntity
  8
ANNOTATION_TEXT
 62
     7
100
AcDbMText
 10
94.17239206030708
 20
143.6545415458856
 30
0.0
 40
3.5
 41
0.0
 71
     5
 72
     1
  1
50
  7
ONSHAPE-STANDARD-DIMENSION
  0
POINT
  5
1F5
330
1ED
100
AcDbEntity
  8
DEFPOINTS
 62
     0
100
AcDbPoint
 10
67.31101533995515
 20
158.7871894532597
 30
0.0
  0
POINT
  5
1F6
330
1ED
100
AcDbEntity
  8
DEFPOINTS
 62
     0
100
AcDbPoint
 10
117.3110153399551
 20
158.7871894532597
 30
0.0
  0
POINT
  5
1F7
330
1ED
100
AcDbEntity
  8
DEFPOINTS
 62
     0
100
AcDbPoint
 10
117.3110153399551
 20
141.2354339164578
 30
0.0
  0
POINT
  5
1F8
330
1ED
100
AcDbEntity
  8
DEFPOINTS
 62
     0
100
AcDbPoint
 10
117.3110153399551
 20
141.2354339164578
 30
0.0
  0
ENDBLK
  5
1F9
330
1ED
100
AcDbEntity
  8
0
100
AcDbBlockEnd
  0
BLOCK
  5
201
330
200
100
AcDbEntity
  8
0
100
AcDbBlockBegin
  2
*D6
 70
     1
 10
0.0
 20
0.0
 30
0.0
  3
*D6
  1

  0
LINE
  5
202
330
200
100
AcDbEntity
  8
ANNOTATION_TEXT
 62
     7
100
AcDbLine
 10
117.9360153399551
 20
208.7871894532597
 30
0.0
 11
139.5213929813325
 21
208.7871894532597
 31
0.0
1001
INDEX
1070
     0
  0
LINE
  5
203
330
200
100
AcDbEntity
  8
ANNOTATION_TEXT
 62
     7
100
AcDbLine
 10
117.9360153399551
 20
158.7871894532597
 30
0.0
 11
139.5213929813325
 21
158.7871894532597
 31
0.0
1001
INDEX
1070
     1
  0
LINE
  5
204
330
200
100
AcDbEntity
  8
ANNOTATION_TEXT
 62
     7
100
AcDbLine
 10
138.2713929813325
 20
206.2871894532597
 30
0.0
 11
138.2713929813325
 21
161.2871894532597
 31
0.0
1001
INDEX
1070
     3
  0
SOLID
  5
205
330
200
100
AcDbEntity
  8
ANNOTATION_TEXT
 62
     7
100
AcDbTrace
 10
138.6880596479991
 20
206.2871894532597
 30
0.0
 11
137.8547263146658
 21
206.2871894532597
 31
0.0
 12
138.2713929813325
 22
208.7871894532597
 32
0.0
 13
138.2713929813325
 23
208.7871894532597
 33
0.0
  0
SOLID
  5
206
330
200
100
AcDbEntity
  8
ANNOTATION_TEXT
 62
     7
100
AcDbTrace
 10
137.8547263146658
 20
161.2871894532597
 30
0.0
 11
138.6880596479991
 21
161.2871894532597
 31
0.0
 12
138.2713929813325
 22
158.7871894532597
 32
0.0
 13
138.2713929813325
 23
158.7871894532597
 33
0.0
  0
MTEXT
  5
207
330
200
100
AcDbEntity
  8
ANNOTATION_TEXT
 62
     7
100
AcDbMText
 10
135.8522853519047
 20
189.6518195430382
 30
0.0
 40
3.5
 41
0.0
 71
     5
 72
     1
  1
50
  7
ONSHAPE-STANDARD-DIMENSION
 11
0.0
 21
1.0
 31
0.0
  0
POINT
  5
208
330
200
100
AcDbEntity
  8
DEFPOINTS
 62
     0
100
AcDbPoint
 10
117.3110153399551
 20
208.7871894532597
 30
0.0
  0
POINT
  5
209
330
200
100
AcDbEntity
  8
DEFPOINTS
 62
     0
100
AcDbPoint
 10
117.3110153399551
 20
158.7871894532597
 30
0.0
  0
POINT
  5
20A
330
200
100
AcDbEntity
  8
DEFPOINTS
 62
     0
100
AcDbPoint
 10
138.2713929813325
 20
158.7871894532597
 30
0.0
  0
POINT
  5
20B
330
200
100
AcDbEntity
  8
DEFPOINTS
 62
     0
100
AcDbPoint
 10
138.2713929813325
 20
158.7871894532597
 30
0.0
  0
ENDBLK
  5
20C
330
200
100
AcDbEntity
  8
0
100
AcDbBlockEnd
  0
BLOCK
  5
214
330
213
100
AcDbEntity
  8
0
100
AcDbBlockBegin
  2
*D7
 70
     1
 10
0.0
 20
0.0
 30
0.0
  3
*D7
  1

  0
LINE
  5
215
330
213
100
AcDbEntity
  8
ANNOTATION_TEXT
 62
     7
100
AcDbLine
 10
126.6860153399551
 20
213.7871894532597
 30
0.0
 11
42.65569870277463
 21
213.7871894532597
 31
0.0
1001
INDEX
1070
     0
  0
LINE
  5
216
330
213
100
AcDbEntity
  8
ANNOTATION_TEXT
 62
     7
100
AcDbLine
 10
126.6860153399551
 20
208.7871894532597
 30
0.0
 11
42.65569870277463
 21
208.7871894532597
 31
0.0
1001
INDEX
1070
     1
  0
LINE
  5
217
330
213
100
AcDbEntity
  8
ANNOTATION_TEXT
 62
     7
100
AcDbLine
 10
43.90569870277463
 20
213.7871894532597
 30
0.0
 11
43.90569870277463
 21
222.2449551208346
 31
0.0
  0
LINE
  5
218
330
213
100
AcDbEntity
  8
ANNOTATION_TEXT
 62
     7
100
AcDbLine
 10
43.90569870277463
 20
211.2871894532597
 30
0.0
 11
43.90569870277463
 21
211.2871894532597
 31
0.0
1001
INDEX
1070
     3
  0
LINE
  5
219
330
213
100
AcDbEntity
  8
ANNOTATION_TEXT
 62
     7
100
AcDbLine
 10
43.90569870277463
 20
211.2871894532597
 30
0.0
 11
43.90569870277463
 21
208.7871894532597
 31
0.0
1001
INDEX
1070
     3
  0
SOLID
  5
21A
330
213
100
AcDbEntity
  8
ANNOTATION_TEXT
 62
     7
100
AcDbTrace
 10
44.32236536944129
 20
211.2871894532597
 30
0.0
 11
43.48903203610796
 21
211.2871894532597
 31
0.0
 12
43.90569870277463
 22
213.7871894532597
 32
0.0
 13
43.90569870277463
 23
213.7871894532597
 33
0.0
  0
SOLID
  5
21B
330
213
100
AcDbEntity
  8
ANNOTATION_TEXT
 62
     7
100
AcDbTrace
 10
43.48903203610796
 20
211.2871894532597
 30
0.0
 11
44.32236536944129
 21
211.2871894532597
 31
0.0
 12
43.90569870277463
 22
208.7871894532597
 32
0.0
 13
43.90569870277463
 23
208.7871894532597
 33
0.0
  0
MTEXT
  5
21C
330
213
100
AcDbEntity
  8
ANNOTATION_TEXT
 62
     7
100
AcDbMText
 10
41.50685674092176
 20
220.5160722870472
 30
0.0
 40
3.5
 41
0.0
 71
     5
 72
     1
  1
5
  7
ONSHAPE-STANDARD-DIMENSION
 11
0.0
 21
1.0
 31
0.0
  0
POINT
  5
21D
330
213
100
AcDbEntity
  8
DEFPOINTS
 62
     0
100
AcDbPoint
 10
127.3110153399551
 20
213.7871894532597
 30
0.0
  0
POINT
  5
21E
330
213
100
AcDbEntity
  8
DEFPOINTS
 62
     0
100
AcDbPoint
 10
127.3110153399551
 20
208.7871894532597
 30
0.0
  0
POINT
  5
21F
330
213
100
AcDbEntity
  8
DEFPOINTS
 62
     0
100
AcDbPoint
 10
43.90569870277463
 20
208.7871894532597
 30
0.0
  0
POINT
  5
220
330
213
100
AcDbEntity
  8
DEFPOINTS
 62
     0
100
AcDbPoint
 10
43.90569870277463
 20
208.7871894532597
 30
0.0
  0
ENDBLK
  5
221
330
213
100
AcDbEntity
  8
0
100
AcDbBlockEnd
  0
BLOCK
  5
24F
330
24E
100
AcDbEntity
  8
0
100
AcDbBlockBegin
  2
*D8
 70
     1
 10
0.0
 20
0.0
 30
0.0
  3
*D8
  1

  0
LINE
  5
250
330
24E
100
AcDbEntity
  8
ANNOTATION_TEXT
 62
     7
100
AcDbLine
 10
301.7828318154304
 20
244.2335488760077
 30
0.0
 11
331.8145638217624
 21
257.3148554554529
 31
0.0
1001
INDEX
1070
     3
  0
LINE
  5
252
330
24E
100
AcDbEntity
  8
ANNOTATION_TEXT
 62
     7
100
AcDbLine
 10
233.0227127763932
 20
214.2828221780221
 30
0.0
 11
230.7307088084253
 21
213.2844646214226
 31
0.0
1001
INDEX
1070
     3
  0
MTEXT
  5
253
330
24E
100
AcDbEntity
  8
ANNOTATION_TEXT
 62
     7
100
AcDbMText
 10
326.1732871107411
 20
257.6080743763462
 30
0.0
 40
3.5
 41
0.0
 71
     5
 72
     1
  1
%%c70
  7
ONSHAPE-STANDARD-DIMENSION
 11
0.9168015871871634
 21
0.3993430226398077
 31
0.0
  0
LINE
  5
254
330
24E
100
AcDbEntity
  8
ANNOTATION_TEXT
 62
     7
100
AcDbLine
 10
235.3147167443611
 20
215.2811797346216
 30
0.0
 11
299.4908278474625
 21
243.2351913194082
 31
0.0
1001
INDEX
1070
     3
  0
SOLID
  5
255
330
24E
100
AcDbEntity
  8
ANNOTATION_TEXT
 62
     7
100
AcDbTrace
 10
233.1891057024931
 20
213.9008215166941
 30
0.0
 11
232.8563198502933
 21
214.6648228393501
 31
0.0
 12
235.3147167443611
 22
215.2811797346216
 32
0.0
 13
235.3147167443611
 23
215.2811797346216
 33
0.0
  0
SOLID
  5
256
330
24E
100
AcDbEntity
  8
ANNOTATION_TEXT
 62
     7
100
AcDbTrace
 10
301.6164388893305
 20
244.6155495373357
 30
0.0
 11
301.9492247415304
 21
243.8515482146797
 31
0.0
 12
299.4908278474625
 22
243.2351913194082
 32
0.0
 13
299.4908278474625
 23
243.2351913194082
 33
0.0
  0
POINT
  5
257
330
24E
100
AcDbEntity
  8
DEFPOINTS
 62
     0
100
AcDbPoint
 10
299.4908278474625
 20
243.2351913194082
 30
0.0
  0
POINT
  5
258
330
24E
100
AcDbEntity
  8
DEFPOINTS
 62
     0
100
AcDbPoint
 10
235.3147167443611
 20
215.2811797346216
 30
0.0
  0
ENDBLK
  5
259
330
24E
100
AcDbEntity
  8
0
100
AcDbBlockEnd
  0
ENDSEC
  0
SECTION
  2
ENTITIES
  0
LINE
  5
76
330
1F
100
AcDbEntity
  8
VISIBLE
100
AcDbLine
 10
115.2238938147343
 20
176.7871894532597
 30
0.0
 11
115.2238938147344
 21
196.7871894532597
 31
0.0
  0
LINE
  5
77
330
1F
100
AcDbEntity
  8
VISIBLE
100
AcDbLine
 10
82.31101533995515
 20
176.7871894532597
 30
0.0
 11
82.31101533995515
 21
196.7871894532597
 31
0.0
  0
LINE
  5
78
330
1F
100
AcDbEntity
  8
VISIBLE
100
AcDbLine
 10
102.3110153399551
 20
176.7871894532597
 30
0.0
 11
102.3110153399551
 21
196.7871894532597
 31
0.0
  0
LINE
  5
79
330
1F
100
AcDbEntity
  8
VISIBLE
100
AcDbLine
 10
69.39813686517594
 20
176.7871894532597
 30
0.0
 11
69.39813686517594
 21
196.7871894532597
 31
0.0
  0
LINE
  5
7A
330
1F
100
AcDbEntity
  8
VISIBLE
100
AcDbLine
 10
127.3110153399551
 20
208.7871894532597
 30
0.0
 11
127.3110153399551
 21
213.7871894532597
 31
0.0
  0
LINE
  5
7B
330
1F
100
AcDbEntity
  8
VISIBLE
100
AcDbLine
 10
57.31101533995515
 20
213.7871894532597
 30
0.0
 11
57.31101533995515
 21
208.7871894532597
 31
0.0
  0
LINE
  5
7C
330
1F
100
AcDbEntity
  8
VISIBLE
100
AcDbLine
 10
67.31101533995515
 20
166.8876288026607
 30
0.0
 11
67.31101533995515
 21
158.7871894532597
 31
0.0
  0
LINE
  5
7D
330
1F
100
AcDbEntity
  8
VISIBLE
100
AcDbLine
 10
67.31101533995515
 20
208.7871894532597
 30
0.0
 11
67.31101533995515
 21
206.6867501038587
 31
0.0
  0
LINE
  5
7E
330
1F
100
AcDbEntity
  8
VISIBLE
100
AcDbLine
 10
117.3110153399551
 20
206.6867501038587
 30
0.0
 11
117.3110153399551
 21
208.7871894532597
 31
0.0
  0
LINE
  5
7F
330
1F
100
AcDbEntity
  8
VISIBLE
100
AcDbLine
 10
117.3110153399551
 20
158.7871894532597
 30
0.0
 11
117.3110153399551
 21
166.8876288026607
 31
0.0
  0
SPLINE
  5
80
330
1F
100
AcDbEntity
  8
VISIBLE
100
AcDbSpline
210
0.0
220
0.0
230
1.0
 70
     8
 71
     3
 72
    12
 73
     8
 74
     0
 42
0.000000001
 43
0.0000000212614143
 40
0.0
 40
0.0
 40
0.0
 40
0.0
 40
0.2601714667740312
 40
0.5070546843292383
 40
0.7330085560706469
 40
0.9138009742028123
 40
1.0
 40
1.0
 40
1.0
 40
1.0
 10
115.2238938147343
 20
176.7871894532597
 30
0.0
 10
115.2677767635586
 20
175.7223194273177
 30
0.0
 10
115.3533013410205
 20
173.6469675774368
 30
0.0
 10
115.9422410484408
 20
170.8564507831365
 30
0.0
 10
116.5966991509402
 20
168.6599730973472
 30
0.0
 10
117.1650430121259
 20
167.1512739376412
 30
0.0
 10
117.2753895686767
 20
166.8760473264231
 30
0.0
 10
117.3110153008529
 20
166.7871895510154
 30
0.0
  0
ARC
  5
81
330
1F
100
AcDbEntity
  8
VISIBLE
100
AcDbCircle
 10
92.31101533995515
 20
176.7871894532597
 30
0.0
 40
10.0
100
AcDbArc
 50
180.0
 51
0.0
  0
ARC
  5
82
330
1F
100
AcDbEntity
  8
VISIBLE
100
AcDbCircle
 10
92.31101533995515
 20
196.7871894532597
 30
0.0
 40
10.0
100
AcDbArc
 50
0.0
 51
180.0
  0
SPLINE
  5
83
330
1F
100
AcDbEntity
  8
VISIBLE
100
AcDbSpline
210
0.0
220
0.0
230
1.0
 70
     8
 71
     3
 72
    12
 73
     8
 74
     0
 42
0.000000001
 43
0.0000000218664457
 40
0.0
 40
0.0
 40
0.0
 40
0.0
 40
0.2601714667740315
 40
0.5070546843292385
 40
0.7330085560706474
 40
0.9138009742028125
 40
1.0
 40
1.0
 40
1.0
 40
1.0
 10
69.39813686517594
 20
196.7871894532597
 30
0.0
 10
69.35425391635172
 20
197.8520594792018
 30
0.0
 10
69.26872933888977
 20
199.9274113290826
 30
0.0
 10
68.6797896314695
 20
202.717928123383
 30
0.0
 10
68.02533152897007
 20
204.9144058091723
 30
0.0
 10
67.45698766778432
 20
206.4231049688782
 30
0.0
 10
67.34664111123355
 20
206.6983315800963
 30
0.0
 10
67.31101537905741
 20
206.7871893555041
 30
0.0
  0
SPLINE
  5
84
330
1F
100
AcDbEntity
  8
VISIBLE
100
AcDbSpline
210
0.0
220
0.0
230
1.0
 70
     8
 71
     3
 72
    13
 73
     9
 74
     0
 42
0.000000001
 43
0.0000000190543732
 40
0.0
 40
0.0
 40
0.0
 40
0.0
 40
0.0255291211013855
 40
0.1490272377165962
 40
0.3328799655222103
 40
0.5598152348957294
 40
0.8124854079528535
 40
1.0
 40
1.0
 40
1.0
 40
1.0
 10
67.31101537905741
 20
166.7871895510154
 30
0.0
 10
67.31384428715555
 20
166.7942343931599
 30
0.0
 10
67.33035814824555
 20
166.8353589332792
 30
0.0
 10
67.66571809104269
 20
167.6827501627613
 30
0.0
 10
68.21159990302348
 20
169.2498060685426
 30
0.0
 10
68.91664410622636
 20
171.718939888429
 30
0.0
 10
69.37782776071933
 20
174.9445499906336
 30
0.0
 10
69.39206986288633
 20
176.2367320038649
 30
0.0
 10
69.39813686517594
 20
176.7871894532597
 30
0.0
  0
SPLINE
  5
85
330
1F
100
AcDbEntity
  8
VISIBLE
100
AcDbSpline
210
0.0
220
0.0
230
1.0
 70
     8
 71
     3
 72
    13
 73
     9
 74
     0
 42
0.000000001
 43
0.0000000238142825
 40
0.0
 40
0.0
 40
0.0
 40
0.0
 40
0.0255291211013865
 40
0.1490272377165968
 40
0.3328799655222111
 40
0.5598152348957299
 40
0.812485407952854
 40
1.0
 40
1.0
 40
1.0
 40
1.0
 10
117.3110153008529
 20
206.7871893555041
 30
0.0
 10
117.3081863927548
 20
206.7801445133596
 30
0.0
 10
117.2916725316647
 20
206.7390199732402
 30
0.0
 10
116.9563125888676
 20
205.8916287437582
 30
0.0
 10
116.4104307768868
 20
204.3245728379768
 30
0.0
 10
115.705386573684
 20
201.8554390180905
 30
0.0
 10
115.244202919191
 20
198.6298289158858
 30
0.0
 10
115.229960817024
 20
197.3376469026545
 30
0.0
 10
115.2238938147344
 20
196.7871894532597
 30
0.0
  0
LINE
  5
86
330
1F
100
AcDbEntity
  8
VISIBLE
100
AcDbLine
 10
117.3110153399551
 20
158.7871894532597
 30
0.0
 11
67.31101533995515
 21
158.7871894532597
 31
0.0
  0
LINE
  5
87
330
1F
100
AcDbEntity
  8
VISIBLE
100
AcDbLine
 10
57.31101533995515
 20
208.7871894532597
 30
0.0
 11
127.3110153399551
 21
208.7871894532597
 31
0.0
  0
LINE
  5
88
330
1F
100
AcDbEntity
  8
VISIBLE
100
AcDbLine
 10
57.31101533995515
 20
213.7871894532597
 30
0.0
 11
127.3110153399551
 21
213.7871894532597
 31
0.0
  0
CIRCLE
  5
8B
330
1F
100
AcDbEntity
  8
VISIBLE
100
AcDbCircle
 10
91.64693749527154
 20
64.9466433009363
 30
0.0
 40
10.0
  0
CIRCLE
  5
8C
330
1F
100
AcDbEntity
  8
VISIBLE
100
AcDbCircle
 10
91.64693749527154
 20
64.9466433009363
 30
0.0
 40
25.0
  0
CIRCLE
  5
8D
330
1F
100
AcDbEntity
  8
VISIBLE
100
AcDbCircle
 10
91.64693749527154
 20
64.94664330093629
 30
0.0
 40
35.0
  0
CIRCLE
  5
90
330
1F
100
AcDbEntity
  8
VISIBLE
100
AcDbCircle
 10
267.4027722959118
 20
229.2581855270149
 30
0.0
 40
35.0
  0
LINE
  5
94
330
1F
100
AcDbEntity
  8
VISIBLE
100
AcDbLine
 10
280.3242465710072
 20
118.2291139870345
 30
0.0
 11
279.5126046740658
 21
117.7605123193497
 31
0.0
  0
LINE
  5
95
330
1F
100
AcDbEntity
  8
VISIBLE
100
AcDbLine
 10
289.3189987614769
 20
113.5082243930426
 30
0.0
 11
288.8095279452458
 21
113.3301345014681
 31
0.0
  0
LINE
  5
96
330
1F
100
AcDbEntity
  8
VISIBLE
100
AcDbLine
 10
261.1297741052957
 20
117.7783505924772
 30
0.0
 11
260.3490290037303
 21
118.2291139870345
 31
0.0
  0
LINE
  5
97
330
1F
100
AcDbEntity
  8
VISIBLE
100
AcDbLine
 10
280.2361327239805
 20
108.3802824626015
 30
0.0
 11
288.8095279452458
 21
113.3301345014681
 31
0.0
  0
LINE
  5
98
330
1F
100
AcDbEntity
  8
VISIBLE
100
AcDbLine
 10
251.8637476294918
 20
113.3301345014681
 30
0.0
 11
251.3540615689618
 21
113.5083487456377
 31
0.0
  0
LINE
  5
99
330
1F
100
AcDbEntity
  8
VISIBLE
100
AcDbLine
 10
247.0637182294836
 20
108.8240979667994
 30
0.0
 11
247.0637182294836
 21
125.1309222252069
 31
0.0
  0
LINE
  5
9A
330
1F
100
AcDbEntity
  8
VISIBLE
100
AcDbLine
 10
260.4371428507571
 20
106.7472893007461
 30
0.0
 11
251.8637476294918
 21
101.7974372618795
 31
0.0
  0
LINE
  5
9B
330
1F
100
AcDbEntity
  8
VISIBLE
100
AcDbLine
 10
261.2058538532146
 20
116.9890637760766
 30
0.0
 11
261.1600706949973
 21
117.7741461912449
 31
0.0
  0
LINE
  5
9C
330
1F
100
AcDbEntity
  8
VISIBLE
100
AcDbLine
 10
261.056811483626
 20
118.4185863645865
 30
0.0
 11
260.9589511121567
 21
118.8390973390601
 31
0.0
  0
LINE
  5
9D
330
1F
100
AcDbEntity
  8
VISIBLE
100
AcDbLine
 10
251.8637476294918
 20
113.3301345014681
 30
0.0
 11
260.4371428507571
 21
108.3802824626015
 31
0.0
  0
LINE
  5
9E
330
1F
100
AcDbEntity
  8
VISIBLE
100
AcDbLine
 10
261.2058538532146
 20
100.6591321575221
 30
0.0
 11
261.2058538532146
 21
116.9890637760766
 31
0.0
  0
LINE
  5
9F
330
1F
100
AcDbEntity
  8
VISIBLE
100
AcDbLine
 10
305.3366377873688
 20
140.2236491187828
 30
0.0
 11
305.3366377873688
 21
144.3061320234215
 31
0.0
  0
LINE
  5
A0
330
1F
100
AcDbEntity
  8
VISIBLE
100
AcDbLine
 10
235.3366377873687
 20
144.3061320234215
 30
0.0
 11
235.3366377873687
 21
140.2236491187828
 31
0.0
  0
LINE
  5
A1
330
1F
100
AcDbEntity
  8
VISIBLE
100
AcDbLine
 10
293.6095573452539
 20
108.8240979667994
 30
0.0
 11
293.6095573452539
 21
125.1309222252069
 31
0.0
  0
LINE
  5
A2
330
1F
100
AcDbEntity
  8
VISIBLE
100
AcDbLine
 10
245.3366377873687
 20
126.0815134950519
 30
0.0
 11
245.3366377873688
 21
99.39882007239653
 31
0.0
  0
LINE
  5
A3
330
1F
100
AcDbEntity
  8
VISIBLE
100
AcDbLine
 10
295.3366377873688
 20
99.39882007239653
 30
0.0
 11
295.3366377873688
 21
126.0815134950519
 31
0.0
  0
LINE
  5
A4
330
1F
100
AcDbEntity
  8
VISIBLE
100
AcDbLine
 10
279.467421721523
 20
100.6591321575221
 30
0.0
 11
279.467421721523
 21
116.9890637760766
 31
0.0
  0
LINE
  5
A5
330
1F
100
AcDbEntity
  8
TANGENT_LINES
100
AcDbLine
 10
293.6095573452539
 20
108.8240979667994
 30
0.0
 11
290.4652704564348
 21
110.6394528484685
 31
0.0
  0
LINE
  5
A6
330
1F
100
AcDbEntity
  8
VISIBLE
100
AcDbLine
 10
250.2080051183027
 20
110.6394528484685
 30
0.0
 11
250.2080051183027
 21
123.6924851461139
 31
0.0
  0
LINE
  5
A7
330
1F
100
AcDbEntity
  8
VISIBLE
100
AcDbLine
 10
290.4652704564348
 20
110.6394528484685
 30
0.0
 11
290.4652704564348
 21
123.6924851461139
 31
0.0
  0
LINE
  5
A8
330
1F
100
AcDbEntity
  8
VISIBLE
100
AcDbLine
 10
279.6162188926656
 20
118.417386909472
 30
0.0
 11
279.5116307910527
 21
117.7603727402671
 31
0.0
  0
LINE
  5
A9
330
1F
100
AcDbEntity
  8
VISIBLE
100
AcDbLine
 10
288.8095279452458
 20
101.7974372618795
 30
0.0
 11
280.2361327239805
 21
106.7472893007461
 31
0.0
  0
LINE
  5
AA
330
1F
100
AcDbEntity
  8
VISIBLE
100
AcDbLine
 10
280.3242465710072
 20
118.2291139870345
 30
0.0
 11
279.7141749711606
 21
118.8502389060992
 31
0.0
  0
LINE
  5
AB
330
1F
100
AcDbEntity
  8
VISIBLE
100
AcDbLine
 10
260.9415116848351
 20
118.8316185042995
 30
0.0
 11
260.3490290037303
 21
118.2291139870345
 31
0.0
  0
LINE
  5
AC
330
1F
100
AcDbEntity
  8
TANGENT_LINES
100
AcDbLine
 10
247.0637182294836
 20
108.8240979667994
 30
0.0
 11
250.2080051183027
 21
110.6394528484685
 31
0.0
  0
SPLINE
  5
AD
330
1F
100
AcDbEntity
  8
VISIBLE
100
AcDbSpline
210
0.0
220
0.0
230
1.0
 70
     8
 71
     3
 72
    11
 73
     7
 74
     0
 42
0.000000001
 43
0.0000000276714216
 40
0.0
 40
0.0
 40
0.0
 40
0.0
 40
0.1201609175150598
 40
0.4310378825811524
 40
0.7695539319027773
 40
1.0
 40
1.0
 40
1.0
 40
1.0
 10
251.3540615689618
 20
113.5083487456377
 30
0.0
 10
251.3310133246672
 20
113.5203647587831
 30
0.0
 10
251.2483353073599
 20
113.5634682650675
 30
0.0
 10
250.7325854323622
 20
114.0404715370169
 30
0.0
 10
250.4956573584837
 20
114.7725883204922
 30
0.0
 10
250.4341546399764
 20
115.0400624952242
 30
0.0
 10
250.4092442650614
 20
115.1483972507333
 30
0.0
  0
SPLINE
  5
AE
330
1F
100
AcDbEntity
  8
VISIBLE
100
AcDbSpline
210
0.0
220
0.0
230
1.0
 70
     8
 71
     3
 72
    11
 73
     7
 74
     0
 42
0.000000001
 43
0.0000000276869937
 40
0.0
 40
0.0
 40
0.0
 40
0.0
 40
0.1184852984423606
 40
0.3697816393497276
 40
0.6744229444288935
 40
1.0
 40
1.0
 40
1.0
 40
1.0
 10
250.4092442650614
 20
115.1483972507333
 30
0.0
 10
250.4021089932758
 20
115.1812882056216
 30
0.0
 10
250.3798404710811
 20
115.2839378286402
 30
0.0
 10
250.2844608980644
 20
115.8575029438816
 30
0.0
 10
250.2211378260251
 20
116.6297365630016
 30
0.0
 10
250.2124785738554
 20
117.2378874367492
 30
0.0
 10
250.2080051183027
 20
117.5520642097227
 30
0.0
  0
SPLINE
  5
AF
330
1F
100
AcDbEntity
  8
VISIBLE
100
AcDbSpline
210
0.0
220
0.0
230
1.0
 70
     8
 71
     3
 72
    16
 73
    12
 74
     0
 42
0.000000001
 43
0.0000000314689919
 40
0.0
 40
0.0
 40
0.0
 40
0.0
 40
0.0144359827553893
 40
0.0964161303982203
 40
0.2150735799689613
 40
0.344223158364451
 40
0.473973878545827
 40
0.6097064684088269
 40
0.7470641175234307
 40
0.8870228062001365
 40
1.0
 40
1.0
 40
1.0
 40
1.0
 10
290.2511768420362
 20
115.141398167441
 30
0.0
 10
290.2475423997427
 20
115.1423824070199
 30
0.0
 10
290.2232684124406
 20
115.1489560205514
 30
0.0
 10
289.6047937351235
 20
115.3347809736693
 30
0.0
 10
288.6242076050281
 20
115.7806212989815
 30
0.0
 10
287.4288654373954
 20
116.470382335843
 30
0.0
 10
286.2889739810703
 20
117.249714033893
 30
0.0
 10
285.0781957726758
 20
118.1978780371996
 30
0.0
 10
283.9410456832659
 20
119.2091343009685
 30
0.0
 10
282.8074197595265
 20
120.376234745719
 30
0.0
 10
282.3359617625428
 20
120.9477033967296
 30
0.0
 10
282.1253787445376
 20
121.2029575105532
 30
0.0
  0
SPLINE
  5
B0
330
1F
100
AcDbEntity
  8
VISIBLE
100
AcDbSpline
210
0.0
220
0.0
230
1.0
 70
     8
 71
     3
 72
    10
 73
     6
 74
     0
 42
0.000000001
 43
0.0000000305657445
 40
0.0
 40
0.0
 40
0.0
 40
0.0
 40
0.3966995608105796
 40
0.7486822304841907
 40
1.0
 40
1.0
 40
1.0
 40
1.0
 10
280.5352861517364
 20
120.9250544320129
 30
0.0
 10
280.3840317887567
 20
120.6174821290071
 30
0.0
 10
280.0985728040916
 20
120.0370077836888
 30
0.0
 10
279.8323935879362
 20
119.2702181463356
 30
0.0
 10
279.7529488849484
 20
118.9807727670574
 30
0.0
 10
279.719854485777
 20
118.8601980709499
 30
0.0
  0
SPLINE
  5
B1
330
1F
100
AcDbEntity
  8
VISIBLE
100
AcDbSpline
210
0.0
220
0.0
230
1.0
 70
     8
 71
     3
 72
     9
 73
     5
 74
     0
 42
0.000000001
 43
0.0000000304097546
 40
0.0
 40
0.0
 40
0.0
 40
0.0
 40
0.6780241986905738
 40
1.0
 40
1.0
 40
1.0
 40
1.0
 10
279.719854485777
 20
118.8601980709499
 30
0.0
 10
279.6853611394144
 20
118.7186021143531
 30
0.0
 10
279.634487813021
 20
118.5097659741826
 30
0.0
 10
279.6206684069946
 20
118.43988643129
 30
0.0
 10
279.6162188926656
 20
118.417386909472
 30
0.0
  0
SPLINE
  5
B2
330
1F
100
AcDbEntity
  8
VISIBLE
100
AcDbSpline
210
0.0
220
0.0
230
1.0
 70
     8
 71
     3
 72
     9
 73
     5
 74
     0
 42
0.000000001
 43
0.0000000303477906
 40
0.0
 40
0.0
 40
0.0
 40
0.0
 40
0.1356584333358948
 40
1.0
 40
1.0
 40
1.0
 40
1.0
 10
279.5116307910527
 20
117.7603727402671
 30
0.0
 10
279.5110444933422
 20
117.7564740144988
 30
0.0
 10
279.5067226263111
 20
117.7277347339957
 30
0.0
 10
279.4856423127619
 20
117.3315246343406
 30
0.0
 10
279.467421721523
 20
116.9890637760766
 30
0.0
  0
SPLINE
  5
B3
330
1F
100
AcDbEntity
  8
VISIBLE
100
AcDbSpline
210
0.0
220
0.0
230
1.0
 70
     8
 71
     3
 72
    10
 73
     6
 74
     0
 42
0.000000001
 43
0.0000000313499904
 40
0.0
 40
0.0
 40
0.0
 40
0.0
 40
0.4237045954625951
 40
0.8203068914095233
 40
1.0
 40
1.0
 40
1.0
 40
1.0
 10
290.4652704564348
 20
117.5520642097227
 30
0.0
 10
290.4621768643788
 20
117.1685470210254
 30
0.0
 10
290.4561875621386
 20
116.4260443523466
 30
0.0
 10
290.3118028918934
 20
115.3583226386508
 30
0.0
 10
290.2714302960584
 20
115.1799967128453
 30
0.0
 10
290.2588418263425
 20
115.124393389102
 30
0.0
  0
SPLINE
  5
B4
330
1F
100
AcDbEntity
  8
VISIBLE
100
AcDbSpline
210
0.0
220
0.0
230
1.0
 70
     8
 71
     3
 72
    11
 73
     7
 74
     0
 42
0.000000001
 43
0.0000000312406236
 40
0.0
 40
0.0
 40
0.0
 40
0.0
 40
0.3028016832213237
 40
0.6232282030674541
 40
0.9164564251440019
 40
1.0
 40
1.0
 40
1.0
 40
1.0
 10
290.2588418263425
 20
115.124393389102
 30
0.0
 10
290.2081375558896
 20
114.9280503900819
 30
0.0
 10
290.1037777286057
 20
114.5239360761772
 30
0.0
 10
289.8531743978773
 20
113.9309368750949
 30
0.0
 10
289.3729341083896
 20
113.5349370200843
 30
0.0
 10
289.3287875974975
 20
113.5130725221593
 30
0.0
 10
289.3189987614769
 20
113.5082243930426
 30
0.0
  0
SPLINE
  5
B5
330
1F
100
AcDbEntity
  8
VISIBLE
100
AcDbSpline
210
0.0
220
0.0
230
1.0
 70
     8
 71
     3
 72
    12
 73
     8
 74
     0
 42
0.000000001
 43
0.0000000299872273
 40
0.0
 40
0.0
 40
0.0
 40
0.0
 40
0.2051289867649565
 40
0.4096408921094756
 40
0.6084826453462366
 40
0.8083060599389319
 40
1.0
 40
1.0
 40
1.0
 40
1.0
 10
279.467421721523
 20
100.6591321575221
 30
0.0
 10
279.4907604152285
 20
100.2368257061312
 30
0.0
 10
279.53736759377
 20
99.39348321114971
 30
0.0
 10
279.9441850965516
 20
98.18409732507732
 30
0.0
 10
280.5448977999549
 20
97.15659682136912
 30
0.0
 10
281.3616451403071
 20
96.25267970055165
 30
0.0
 10
281.9868531799271
 20
95.84524907051612
 30
0.0
 10
282.2929662833388
 20
95.6457637045554
 30
0.0
  0
SPLINE
  5
B6
330
1F
100
AcDbEntity
  8
VISIBLE
100
AcDbSpline
210
0.0
220
0.0
230
1.0
 70
     8
 71
     3
 72
    25
 73
    21
 74
     0
 42
0.000000001
 43
0.000000031327263
 40
0.0
 40
0.0
 40
0.0
 40
0.0
 40
0.0179806379448725
 40
0.0772521885696999
 40
0.1370363383485702
 40
0.1803073665376713
 40
0.2238851967401881
 40
0.2838143804283268
 40
0.3461189711994364
 40
0.4072698827595873
 40
0.4707995532135659
 40
0.5353428431349958
 40
0.6018238448708396
 40
0.6703267935484073
 40
0.7399762974511123
 40
0.8090264254870618
 40
0.8579356660838687
 40
0.9060873335353803
 40
0.9535549450326102
 40
1.0
 40
1.0
 40
1.0
 40
1.0
 10
282.2929662833388
 20
95.6457637045554
 30
0.0
 10
282.3161950983596
 20
95.6314816193669
 30
0.0
 10
282.4159956062022
 20
95.57011992900118
 30
0.0
 10
283.5937839715498
 20
95.01429604199531
 30
0.0
 10
284.7702857116859
 20
94.89080437305645
 30
0.0
 10
285.4750302239117
 20
94.91143910434994
 30
0.0
 10
286.1674668716459
 20
94.98914152953826
 30
0.0
 10
287.4109594411525
 20
95.3535319479982
 30
0.0
 10
288.5846312100252
 20
96.04461818037969
 30
0.0
 10
289.6053575565026
 20
96.91319360095733
 30
0.0
 10
290.5441081920358
 20
98.01503834505456
 30
0.0
 10
291.3412720979289
 20
99.2678605592334
 30
0.0
 10
292.0308990443059
 20
100.6837997812397
 30
0.0
 10
292.6064751874904
 20
102.2645938304004
 30
0.0
 10
293.0476486588897
 20
103.8752472791275
 30
0.0
 10
293.3560998516329
 20
105.5691099698489
 30
0.0
 10
293.4636093618622
 20
106.4114719435863
 30
0.0
 10
293.5491144047244
 20
107.2584815621122
 30
0.0
 10
293.599360679515
 20
108.0532120536399
 30
0.0
 10
293.6061832188012
 20
108.5690080562124
 30
0.0
 10
293.6095573452539
 20
108.8240979667994
 30
0.0
  0
SPLINE
  5
B7
330
1F
100
AcDbEntity
  8
VISIBLE
100
AcDbSpline
210
0.0
220
0.0
230
1.0
 70
     8
 71
     3
 72
    14
 73
    10
 74
     0
 42
0.000000001
 43
0.0000000310973938
 40
0.0
 40
0.0
 40
0.0
 40
0.0
 40
0.1662967070596355
 40
0.3362953758805889
 40
0.5036226140319096
 40
0.6226943153007556
 40
0.7402953599672683
 40
0.8717748631904823
 40
1.0
 40
1.0
 40
1.0
 40
1.0
 10
288.8095279452458
 20
101.7974372618795
 30
0.0
 10
289.0185119420488
 20
102.3280823197073
 30
0.0
 10
289.4411321670704
 20
103.4011852231663
 30
0.0
 10
289.8774608479952
 20
105.0836385225282
 30
0.0
 10
290.1808578868534
 20
106.8078239203931
 30
0.0
 10
290.2895700879986
 20
107.6888005777485
 30
0.0
 10
290.3797507265879
 20
108.5634909259776
 30
0.0
 10
290.451886038487
 20
109.6273010876485
 30
0.0
 10
290.4608464113501
 20
110.3048992623541
 30
0.0
 10
290.4652704564348
 20
110.6394528484685
 30
0.0
  0
SPLINE
  5
B8
330
1F
100
AcDbEntity
  8
VISIBLE
100
AcDbSpline
210
0.0
220
0.0
230
1.0
 70
     8
 71
     3
 72
    16
 73
    12
 74
     0
 42
0.000000001
 43
0.0000000285778982
 40
0.0
 40
0.0
 40
0.0
 40
0.0
 40
0.0698496928131073
 40
0.2083541918326689
 40
0.3471222085422274
 40
0.4457978673602396
 40
0.5432869656391399
 40
0.6723053215533386
 40
0.797220661836927
 40
0.909210158994376
 40
1.0
 40
1.0
 40
1.0
 40
1.0
 10
258.5563482087485
 20
121.2134643111647
 30
0.0
 10
258.481504800547
 20
121.1198175432762
 30
0.0
 10
258.2582548877441
 20
120.8404792118484
 30
0.0
 10
257.1190759600329
 20
119.5664297674879
 30
0.0
 10
255.9054197413408
 20
118.4716081220893
 30
0.0
 10
255.2040954068496
 20
117.8940877768709
 30
0.0
 10
254.5233122570507
 20
117.3590829476543
 30
0.0
 10
253.3067633167981
 20
116.5052958385972
 30
0.0
 10
252.1509524943103
 20
115.8350763711611
 30
0.0
 10
251.1195241930184
 20
115.3561455326823
 30
0.0
 10
250.6223692817489
 20
115.2035627659894
 30
0.0
 10
250.3997794668387
 20
115.1352472992671
 30
0.0
  0
SPLINE
  5
B9
330
1F
100
AcDbEntity
  8
VISIBLE
100
AcDbSpline
210
0.0
220
0.0
230
1.0
 70
     8
 71
     3
 72
     9
 73
     5
 74
     0
 42
0.000000001
 43
0.0000000286967729
 40
0.0
 40
0.0
 40
0.0
 40
0.0
 40
0.6848554652717205
 40
1.0
 40
1.0
 40
1.0
 40
1.0
 10
261.1600706949973
 20
117.7741461912449
 30
0.0
 10
261.1291924154162
 20
117.9846770407078
 30
0.0
 10
261.0841051216048
 20
118.2920862097058
 30
0.0
 10
261.0633517844178
 20
118.3882734739496
 30
0.0
 10
261.056811483626
 20
118.4185863645865
 30
0.0
  0
ARC
  5
BA
330
1F
100
AcDbEntity
  8
VISIBLE
100
AcDbCircle
 10
251.4810272776772
 20
116.312652209734
 30
0.0
 40
9.808871759977826
100
AcDbArc
 50
14.92576626456257
 51
27.9241273295232
  0
SPLINE
  5
BB
330
1F
100
AcDbEntity
  8
VISIBLE
100
AcDbSpline
210
0.0
220
0.0
230
1.0
 70
     8
 71
     3
 72
    23
 73
    19
 74
     0
 42
0.000000001
 43
0.000000028058693
 40
0.0
 40
0.0
 40
0.0
 40
0.0
 40
0.0645698896865477
 40
0.1327738473428178
 40
0.201545501531601
 40
0.2719615867155683
 40
0.3432638142225917
 40
0.4149006391296886
 40
0.485732532155881
 40
0.5358057684417067
 40
0.5852443561006464
 40
0.6510325697836759
 40
0.7161643274879373
 40
0.7771014075427716
 40
0.8378648504229145
 40
0.8976359571587468
 40
0.9578590072107763
 40
1.0
 40
1.0
 40
1.0
 40
1.0
 10
247.0637182294836
 20
108.8240979667994
 30
0.0
 10
247.0734979423863
 20
108.376300173898
 30
0.0
 10
247.0936077817293
 20
107.4555020111048
 30
0.0
 10
247.2582138628209
 20
105.9387748252257
 30
0.0
 10
247.5158019329398
 20
104.4195371693723
 30
0.0
 10
247.8937982721193
 20
102.8425494614995
 30
0.0
 10
248.4172403958987
 20
101.254652597152
 30
0.0
 10
249.0592491813643
 20
99.75747016525045
 30
0.0
 10
249.9151690534977
 20
98.33613251874723
 30
0.0
 10
250.4322443404928
 20
97.66967593647306
 30
0.0
 10
250.9635489638067
 20
97.03919978058603
 30
0.0
 10
252.0133449968637
 20
96.08044771857422
 30
0.0
 10
253.1976644207299
 20
95.40070001414404
 30
0.0
 10
254.3569140761668
 20
95.00334863738088
 30
0.0
 10
255.5807877512847
 20
94.86469579092027
 30
0.0
 10
256.7153363074646
 20
94.96353170184986
 30
0.0
 10
257.8575722530044
 20
95.35170383826018
 30
0.0
 10
258.2282013586751
 20
95.5602020161641
 30
0.0
 10
258.380781093082
 20
95.64603606460278
 30
0.0
  0
SPLINE
  5
BC
330
1F
100
AcDbEntity
  8
VISIBLE
100
AcDbSpline
210
0.0
220
0.0
230
1.0
 70
     8
 71
     3
 72
    14
 73
    10
 74
     0
 42
0.000000001
 43
0.0000000280149329
 40
0.0
 40
0.0
 40
0.0
 40
0.0
 40
0.125615382558129
 40
0.3011729402227212
 40
0.4778573454444519
 40
0.6060368356911879
 40
0.7352354139877854
 40
0.8665411043050595
 40
1.0
 40
1.0
 40
1.0
 40
1.0
 10
258.380781093082
 20
95.64603606460278
 30
0.0
 10
258.5513242354148
 20
95.74915325404953
 30
0.0
 10
258.9602150779628
 20
95.99638497440677
 30
0.0
 10
259.903862355406
 20
96.83029932822461
 30
0.0
 10
260.5814077552167
 20
97.91848078344827
 30
0.0
 10
260.8448878115634
 20
98.54844652127488
 30
0.0
 10
261.0551770243867
 20
99.22702230620052
 30
0.0
 10
261.1811999342898
 20
99.9243410280842
 30
0.0
 10
261.1975914454325
 20
100.4128774357241
 30
0.0
 10
261.2058538532146
 20
100.6591321575221
 30
0.0
  0
SPLINE
  5
BD
330
1F
100
AcDbEntity
  8
VISIBLE
100
AcDbSpline
210
0.0
220
0.0
230
1.0
 70
     8
 71
     3
 72
    13
 73
     9
 74
     0
 42
0.000000001
 43
0.0000000275333735
 40
0.0
 40
0.0
 40
0.0
 40
0.0
 40
0.1569923333785554
 40
0.3230301940773542
 40
0.4902646742824506
 40
0.6612437146679212
 40
0.8303605615415679
 40
1.0
 40
1.0
 40
1.0
 40
1.0
 10
250.2080051183027
 20
110.6394528484685
 30
0.0
 10
250.2155823820121
 20
110.2002750154531
 30
0.0
 10
250.2311734934628
 20
109.2966149603384
 30
0.0
 10
250.3611801389619
 20
107.8010088293537
 30
0.0
 10
250.5658563973472
 20
106.3066797355809
 30
0.0
 10
250.8810162870943
 20
104.7481015924585
 30
0.0
 10
251.2858034458158
 20
103.2511006627025
 30
0.0
 10
251.670901540921
 20
102.2824898134324
 30
0.0
 10
251.8637476294918
 20
101.7974372618795
 30
0.0
  0
ELLIPSE
  5
BE
330
1F
100
AcDbEntity
  8
VISIBLE
100
AcDbEllipse
 10
270.3366377873688
 20
107.5637858816738
 30
0.0
 11
10.0
 21
1.060575238724908E-15
 31
0.0
210
0.0
220
0.0
230
-1.0
 40
0.5773502691896257
 41
2.99969559898563
 42
3.283489708193955
  0
ELLIPSE
  5
BF
330
1F
100
AcDbEntity
  8
VISIBLE
100
AcDbEllipse
 10
270.3366377873688
 20
107.5637858816738
 30
0.0
 11
10.0
 21
1.060575238724908E-15
 31
0.0
210
0.0
220
0.0
230
-1.0
 40
0.5773502691896257
 41
12.42447355975501
 42
12.70826766896334
  0
ELLIPSE
  5
C0
330
1F
100
AcDbEntity
  8
VISIBLE
100
AcDbEllipse
 10
270.3366377873688
 20
140.2236491187829
 30
0.0
 11
-35.0
 21
-3.712013335537177E-15
 31
0.0
210
0.0
220
0.0
230
1.0
 40
0.5773502691896258
 41
0.0000000000000009
 42
3.141592653589792
  0
ELLIPSE
  5
C1
330
1F
100
AcDbEntity
  8
VISIBLE
100
AcDbEllipse
 10
270.3366377873688
 20
99.39882007239652
 30
0.0
 11
25.0
 21
2.651438096812269E-15
 31
0.0
210
0.0
220
0.0
230
-1.0
 40
0.5773502691896257
 41
0.0000000000000006
 42
3.141592653589793
  0
ELLIPSE
  5
C2
330
1F
100
AcDbEntity
  8
VISIBLE
100
AcDbEllipse
 10
270.3366377873688
 20
107.5637858816738
 30
0.0
 11
-21.0
 21
-2.227208001322305E-15
 31
0.0
210
0.0
220
0.0
230
1.0
 40
0.5773502691896258
 41
9.713858762041362
 42
9.920424422730775
  0
ELLIPSE
  5
C3
330
1F
100
AcDbEntity
  8
VISIBLE
100
AcDbEllipse
 10
270.3366377873688
 20
144.3061320234215
 30
0.0
 11
-35.0
 21
-3.712013335537177E-15
 31
0.0
210
0.0
220
0.0
230
1.0
 40
0.5773502691896258
 41
0.0
 42
6.283185307179586
  0
ELLIPSE
  5
C4
330
1F
100
AcDbEntity
  8
VISIBLE
100
AcDbEllipse
 10
270.3366377873688
 20
107.5637858816738
 30
0.0
 11
-21.0
 21
-2.227208001322305E-15
 31
0.0
210
0.0
220
0.0
230
1.0
 40
0.5773502691896258
 41
10.49992782560287
 42
10.53691409958376
  0
ELLIPSE
  5
C5
330
1F
100
AcDbEntity
  8
VISIBLE
100
AcDbEllipse
 10
270.3366377873688
 20
107.5637858816738
 30
0.0
 11
-21.0
 21
-2.227208001322305E-15
 31
0.0
210
0.0
220
0.0
230
1.0
 40
0.5773502691896258
 41
11.45442546990687
 42
11.49122074952568
  0
ELLIPSE
  5
C6
330
1F
100
AcDbEntity
  8
VISIBLE
100
AcDbEllipse
 10
270.3366377873688
 20
107.5637858816738
 30
0.0
 11
-21.0
 21
-2.227208001322305E-15
 31
0.0
210
0.0
220
0.0
230
1.0
 40
0.5773502691896258
 41
12.07072415239777
 42
12.27728981308719
  0
LINE
  5
C7
330
1F
100
AcDbEntity
  8
VISIBLE
100
AcDbLine
 10
261.2058538532146
 20
108.8240979667994
 30
0.0
 11
260.4371428507571
 21
108.3802824626015
 31
0.0
  0
LINE
  5
C8
330
1F
100
AcDbEntity
  8
VISIBLE
100
AcDbLine
 10
280.2361327239805
 20
108.3802824626015
 30
0.0
 11
279.467421721523
 21
108.8240979667994
 31
0.0
  0
ELLIPSE
  5
C9
330
1F
100
AcDbEntity
  8
VISIBLE
100
AcDbEllipse
 10
270.3366377873688
 20
114.0957585290956
 30
0.0
 11
7.071067811865478
 21
-12.24744871391589
 31
0.0
210
0.0
220
0.0
230
1.0
 40
0.577350269189626
 41
0.3653722987227524
 42
0.6435011087932849
  0
ELLIPSE
  5
CA
330
1F
100
AcDbEntity
  8
VISIBLE
100
AcDbEllipse
 10
270.3366377873688
 20
114.0957585290956
 30
0.0
 11
-7.071067811865478
 21
-12.24744871391589
 31
0.0
210
0.0
220
0.0
230
0.9999999999999998
 40
0.5773502691896258
 41
11.92286950556589
 42
12.20099831563642
  0
LINE
  5
CB
330
1F
100
AcDbEntity
  8
BORDER_FRAME
100
AcDbLine
 10
10.5
 20
10.0
 30
0.0
 11
10.5
 21
287.0
 31
0.0
  0
LINE
  5
CE
330
1F
100
AcDbEntity
  8
BORDER_FRAME
100
AcDbLine
 10
10.5
 20
287.0
 30
0.0
 11
410.5
 21
287.0
 31
0.0
  0
LINE
  5
CF
330
1F
100
AcDbEntity
  8
BORDER_FRAME
100
AcDbLine
 10
410.5
 20
287.0
 30
0.0
 11
410.5
 21
10.0
 31
0.0
  0
LINE
  5
D0
330
1F
100
AcDbEntity
  8
BORDER_FRAME
100
AcDbLine
 10
410.5
 20
10.0
 30
0.0
 11
10.5
 21
10.0
 31
0.0
  0
LINE
  5
D1
330
1F
100
AcDbEntity
  8
BORDER_ZONES
100
AcDbLine
 10
70.5
 20
10.0
 30
0.0
 11
70.5
 21
0.5
 31
0.0
  0
LINE
  5
D3
330
1F
100
AcDbEntity
  8
BORDER_ZONES
100
AcDbLine
 10
70.5
 20
287.0
 30
0.0
 11
70.5
 21
296.5
 31
0.0
  0
MTEXT
  5
D4
330
1F
100
AcDbEntity
  8
BORDER_ZONES
100
AcDbMText
 10
35.5
 20
5.0
 30
0.0
 40
6.0
 41
0.0
 71
     5
 72
     1
  1
6
  7
ONSHAPE-STANDARD
  0
MTEXT
  5
D6
330
1F
100
AcDbEntity
  8
BORDER_ZONES
100
AcDbMText
 10
35.5
 20
292.0
 30
0.0
 40
6.0
 41
0.0
 71
     5
 72
     1
  1
6
  7
ONSHAPE-STANDARD
  0
MTEXT
  5
D7
330
1F
100
AcDbEntity
  8
BORDER_ZONES
100
AcDbMText
 10
105.5
 20
5.0
 30
0.0
 40
6.0
 41
0.0
 71
     5
 72
     1
  1
5
  7
ONSHAPE-STANDARD
  0
MTEXT
  5
D8
330
1F
100
AcDbEntity
  8
BORDER_ZONES
100
AcDbMText
 10
105.5
 20
292.0
 30
0.0
 40
6.0
 41
0.0
 71
     5
 72
     1
  1
5
  7
ONSHAPE-STANDARD
  0
LINE
  5
D9
330
1F
100
AcDbEntity
  8
BORDER_ZONES
100
AcDbLine
 10
140.5
 20
10.0
 30
0.0
 11
140.5
 21
0.5
 31
0.0
  0
LINE
  5
DA
330
1F
100
AcDbEntity
  8
BORDER_ZONES
100
AcDbLine
 10
140.5
 20
287.0
 30
0.0
 11
140.5
 21
296.5
 31
0.0
  0
MTEXT
  5
DB
330
1F
100
AcDbEntity
  8
BORDER_ZONES
100
AcDbMText
 10
175.5
 20
5.0
 30
0.0
 40
6.0
 41
0.0
 71
     5
 72
     1
  1
4
  7
ONSHAPE-STANDARD
  0
MTEXT
  5
DC
330
1F
100
AcDbEntity
  8
BORDER_ZONES
100
AcDbMText
 10
175.5
 20
292.0
 30
0.0
 40
6.0
 41
0.0
 71
     5
 72
     1
  1
4
  7
ONSHAPE-STANDARD
  0
LINE
  5
DD
330
1F
100
AcDbEntity
  8
BORDER_ZONES
100
AcDbLine
 10
210.5
 20
10.0
 30
0.0
 11
210.5
 21
0.5
 31
0.0
  0
LINE
  5
DE
330
1F
100
AcDbEntity
  8
BORDER_ZONES
100
AcDbLine
 10
210.5
 20
287.0
 30
0.0
 11
210.5
 21
296.5
 31
0.0
  0
MTEXT
  5
DF
330
1F
100
AcDbEntity
  8
BORDER_ZONES
100
AcDbMText
 10
245.5
 20
5.0
 30
0.0
 40
6.0
 41
0.0
 71
     5
 72
     1
  1
3
  7
ONSHAPE-STANDARD
  0
MTEXT
  5
E0
330
1F
100
AcDbEntity
  8
BORDER_ZONES
100
AcDbMText
 10
245.5
 20
292.0
 30
0.0
 40
6.0
 41
0.0
 71
     5
 72
     1
  1
3
  7
ONSHAPE-STANDARD
  0
LINE
  5
E1
330
1F
100
AcDbEntity
  8
BORDER_ZONES
100
AcDbLine
 10
280.5
 20
10.0
 30
0.0
 11
280.5
 21
0.5
 31
0.0
  0
LINE
  5
E2
330
1F
100
AcDbEntity
  8
BORDER_ZONES
100
AcDbLine
 10
280.5
 20
287.0
 30
0.0
 11
280.5
 21
296.5
 31
0.0
  0
MTEXT
  5
E3
330
1F
100
AcDbEntity
  8
BORDER_ZONES
100
AcDbMText
 10
315.5
 20
5.0
 30
0.0
 40
6.0
 41
0.0
 71
     5
 72
     1
  1
2
  7
ONSHAPE-STANDARD
  0
MTEXT
  5
E4
330
1F
100
AcDbEntity
  8
BORDER_ZONES
100
AcDbMText
 10
315.5
 20
292.0
 30
0.0
 40
6.0
 41
0.0
 71
     5
 72
     1
  1
2
  7
ONSHAPE-STANDARD
  0
LINE
  5
E5
330
1F
100
AcDbEntity
  8
BORDER_ZONES
100
AcDbLine
 10
350.5
 20
10.0
 30
0.0
 11
350.5
 21
0.5
 31
0.0
  0
LINE
  5
E6
330
1F
100
AcDbEntity
  8
BORDER_ZONES
100
AcDbLine
 10
350.5
 20
287.0
 30
0.0
 11
350.5
 21
296.5
 31
0.0
  0
MTEXT
  5
E7
330
1F
100
AcDbEntity
  8
BORDER_ZONES
100
AcDbMText
 10
385.5
 20
5.0
 30
0.0
 40
6.0
 41
0.0
 71
     5
 72
     1
  1
1
  7
ONSHAPE-STANDARD
  0
MTEXT
  5
E8
330
1F
100
AcDbEntity
  8
BORDER_ZONES
100
AcDbMText
 10
385.5
 20
292.0
 30
0.0
 40
6.0
 41
0.0
 71
     5
 72
     1
  1
1
  7
ONSHAPE-STANDARD
  0
LINE
  5
E9
330
1F
100
AcDbEntity
  8
BORDER_ZONES
100
AcDbLine
 10
10.5
 20
74.5
 30
0.0
 11
1.0
 21
74.5
 31
0.0
  0
LINE
  5
EA
330
1F
100
AcDbEntity
  8
BORDER_ZONES
100
AcDbLine
 10
410.5
 20
74.5
 30
0.0
 11
420.0
 21
74.5
 31
0.0
  0
MTEXT
  5
EB
330
1F
100
AcDbEntity
  8
BORDER_ZONES
100
AcDbMText
 10
5.5
 20
37.5
 30
0.0
 40
6.0
 41
0.0
 71
     5
 72
     1
  1
A
  7
ONSHAPE-STANDARD
  0
MTEXT
  5
EC
330
1F
100
AcDbEntity
  8
BORDER_ZONES
100
AcDbMText
 10
415.5
 20
37.5
 30
0.0
 40
6.0
 41
0.0
 71
     5
 72
     1
  1
A
  7
ONSHAPE-STANDARD
  0
MTEXT
  5
ED
330
1F
100
AcDbEntity
  8
BORDER_ZONES
100
AcDbMText
 10
5.5
 20
111.5
 30
0.0
 40
6.0
 41
0.0
 71
     5
 72
     1
  1
B
  7
ONSHAPE-STANDARD
  0
MTEXT
  5
EE
330
1F
100
AcDbEntity
  8
BORDER_ZONES
100
AcDbMText
 10
415.5
 20
111.5
 30
0.0
 40
6.0
 41
0.0
 71
     5
 72
     1
  1
B
  7
ONSHAPE-STANDARD
  0
LINE
  5
EF
330
1F
100
AcDbEntity
  8
BORDER_ZONES
100
AcDbLine
 10
10.5
 20
148.5
 30
0.0
 11
1.0
 21
148.5
 31
0.0
  0
LINE
  5
F0
330
1F
100
AcDbEntity
  8
BORDER_ZONES
100
AcDbLine
 10
410.5
 20
148.5
 30
0.0
 11
420.0
 21
148.5
 31
0.0
  0
MTEXT
  5
F1
330
1F
100
AcDbEntity
  8
BORDER_ZONES
100
AcDbMText
 10
5.5
 20
185.5
 30
0.0
 40
6.0
 41
0.0
 71
     5
 72
     1
  1
C
  7
ONSHAPE-STANDARD
  0
MTEXT
  5
F2
330
1F
100
AcDbEntity
  8
BORDER_ZONES
100
AcDbMText
 10
415.5
 20
185.5
 30
0.0
 40
6.0
 41
0.0
 71
     5
 72
     1
  1
C
  7
ONSHAPE-STANDARD
  0
LINE
  5
F3
330
1F
100
AcDbEntity
  8
BORDER_ZONES
100
AcDbLine
 10
10.5
 20
222.5
 30
0.0
 11
1.0
 21
222.5
 31
0.0
  0
LINE
  5
F4
330
1F
100
AcDbEntity
  8
BORDER_ZONES
100
AcDbLine
 10
410.5
 20
222.5
 30
0.0
 11
420.0
 21
222.5
 31
0.0
  0
MTEXT
  5
F5
330
1F
100
AcDbEntity
  8
BORDER_ZONES
100
AcDbMText
 10
5.5
 20
259.5
 30
0.0
 40
6.0
 41
0.0
 71
     5
 72
     1
  1
D
  7
ONSHAPE-STANDARD
  0
MTEXT
  5
F6
330
1F
100
AcDbEntity
  8
BORDER_ZONES
100
AcDbMText
 10
415.5
 20
259.5
 30
0.0
 40
6.0
 41
0.0
 71
     5
 72
     1
  1
D
  7
ONSHAPE-STANDARD
  0
LINE
  5
F7
330
1F
100
AcDbEntity
  8
TITLE_BLOCK
100
AcDbLine
 10
194.6
 20
10.0
 30
0.0
 11
194.6
 21
60.8
 31
0.0
  0
LINE
  5
F9
330
1F
100
AcDbEntity
  8
TITLE_BLOCK
100
AcDbLine
 10
194.6
 20
10.0
 30
0.0
 11
235.24
 21
10.0
 31
0.0
  0
LINE
  5
FA
330
1F
100
AcDbEntity
  8
TITLE_BLOCK
100
AcDbLine
 10
194.6
 20
20.16
 30
0.0
 11
235.24
 21
20.16
 31
0.0
  0
LINE
  5
FB
330
1F
100
AcDbEntity
  8
TITLE_BLOCK
100
AcDbLine
 10
194.6
 20
24.224
 30
0.0
 11
235.24
 21
24.224
 31
0.0
  0
LINE
  5
FC
330
1F
100
AcDbEntity
  8
TITLE_BLOCK
100
AcDbLine
 10
194.6
 20
31.1328
 30
0.0
 11
235.24
 21
31.1328
 31
0.0
  0
LINE
  5
FD
330
1F
100
AcDbEntity
  8
TITLE_BLOCK
100
AcDbLine
 10
194.6
 20
37.0256
 30
0.0
 11
235.24
 21
37.0256
 31
0.0
  0
LINE
  5
FE
330
1F
100
AcDbEntity
  8
TITLE_BLOCK
100
AcDbLine
 10
194.6
 20
60.8
 30
0.0
 11
235.24
 21
60.8
 31
0.0
  0
MTEXT
  5
FF
330
1F
100
AcDbEntity
  8
TITLE_BLOCK
100
AcDbMText
 10
195.49408
 20
59.33696
 30
0.0
 40
1.6256
 41
39.82720000000001
 71
     1
 72
     1
  1
UNLESS OTHERWISE SPECIFIED, DIMENSIONS ARE IN MILLIMETERS
  7
ONSHAPE-STANDARD
  0
MTEXT
  5
100
330
1F
100
AcDbEntity
  8
TITLE_BLOCK
100
AcDbMText
 10
215.724672
 20
53.38726400000001
 30
0.0
 40
1.46304
 41
19.91360000000002
 71
     1
 72
     1
  1
^JANGULAR = ± °^J
  7
ONSHAPE-STANDARD
  0
MTEXT
  5
101
330
1F
100
AcDbEntity
  8
TITLE_BLOCK
100
AcDbMText
 10
195.49408
 20
43.48736
 30
0.0
 40
1.6256
 41
19.91359999999999
 71
     1
 72
     1
  1
SURFACE FINISH
  7
ONSHAPE-STANDARD
  0
LINE
  5
102
330
1F
100
AcDbEntity
  8
TITLE_BLOCK
100
AcDbLine
 10
212.888
 20
41.0896
 30
0.0
 11
213.904
 21
39.32983637951002
 31
0.0
  0
LINE
  5
103
330
1F
100
AcDbEntity
  8
TITLE_BLOCK
100
AcDbLine
 10
213.904
 20
39.32983637951002
 30
0.0
 11
216.0376
 21
43.02533998253897
 31
0.0
  0
LINE
  5
104
330
1F
100
AcDbEntity
  8
TITLE_BLOCK
100
AcDbLine
 10
216.0376
 20
43.02533998253897
 30
0.0
 11
218.2728
 21
43.02533998253897
 31
0.0
  0
MTEXT
  5
105
330
1F
100
AcDbEntity
  8
TITLE_BLOCK
100
AcDbMText
 10
214.92
 20
35.123648
 30
0.0
 40
2.11328
 41
39.82720000000001
 71
     2
 72
     1
  1
DO NOT SCALE DRAWING
  7
ONSHAPE-STANDARD
  0
MTEXT
  5
106
330
1F
100
AcDbEntity
  8
TITLE_BLOCK
100
AcDbMText
 10
214.92
 20
29.66976
 30
0.0
 40
1.6256
 41
39.82720000000001
 71
     2
 72
     1
  1
BREAK ALL SHARP EDGES AND REMOVE BURRS
  7
ONSHAPE-STANDARD
  0
CIRCLE
  5
107
330
1F
100
AcDbEntity
  8
TITLE_BLOCK
100
AcDbCircle
 10
219.492
 20
15.03936
 30
0.0
 40
1.8288
  0
CIRCLE
  5
108
330
1F
100
AcDbEntity
  8
TITLE_BLOCK
100
AcDbCircle
 10
219.492
 20
15.03936
 30
0.0
 40
3.6576
  0
LINE
  5
109
330
1F
100
AcDbEntity
  8
TITLE_BLOCK
100
AcDbLine
 10
220.4064
 20
15.03936
 30
0.0
 11
218.5776
 21
15.03936
 31
0.0
  0
LINE
  5
10A
330
1F
100
AcDbEntity
  8
TITLE_BLOCK
100
AcDbLine
 10
219.492
 20
15.95376
 30
0.0
 11
219.492
 21
14.12496
 31
0.0
  0
LINE
  5
10B
330
1F
100
AcDbEntity
  8
TITLE_BLOCK
100
AcDbLine
 10
221.3208
 20
15.03936
 30
0.0
 11
224.064
 21
15.03936
 31
0.0
  0
LINE
  5
10C
330
1F
100
AcDbEntity
  8
TITLE_BLOCK
100
AcDbLine
 10
219.492
 20
16.86816
 30
0.0
 11
219.492
 21
19.61136
 31
0.0
  0
LINE
  5
10D
330
1F
100
AcDbEntity
  8
TITLE_BLOCK
100
AcDbLine
 10
217.6632
 20
15.03936
 30
0.0
 11
214.92
 21
15.03936
 31
0.0
  0
LINE
  5
10E
330
1F
100
AcDbEntity
  8
TITLE_BLOCK
100
AcDbLine
 10
219.492
 20
13.21056
 30
0.0
 11
219.492
 21
10.46736
 31
0.0
  0
LINE
  5
10F
330
1F
100
AcDbEntity
  8
TITLE_BLOCK
100
AcDbLine
 10
214.0056
 20
11.38176
 30
0.0
 11
214.0056
 21
18.69696
 31
0.0
  0
LINE
  5
110
330
1F
100
AcDbEntity
  8
TITLE_BLOCK
100
AcDbLine
 10
214.0056
 20
18.69696
 30
0.0
 11
206.6904
 21
16.86816
 31
0.0
  0
LINE
  5
111
330
1F
100
AcDbEntity
  8
TITLE_BLOCK
100
AcDbLine
 10
206.6904
 20
16.86816
 30
0.0
 11
206.6904
 21
13.21056
 31
0.0
  0
LINE
  5
112
330
1F
100
AcDbEntity
  8
TITLE_BLOCK
100
AcDbLine
 10
206.6904
 20
13.21056
 30
0.0
 11
214.0056
 21
11.38176
 31
0.0
  0
LINE
  5
113
330
1F
100
AcDbEntity
  8
TITLE_BLOCK
100
AcDbLine
 10
211.2624
 20
15.03936
 30
0.0
 11
214.4628
 21
15.03936
 31
0.0
  0
LINE
  5
114
330
1F
100
AcDbEntity
  8
TITLE_BLOCK
100
AcDbLine
 10
210.71376
 20
15.03936
 30
0.0
 11
209.98224
 21
15.03936
 31
0.0
  0
LINE
  5
115
330
1F
100
AcDbEntity
  8
TITLE_BLOCK
100
AcDbLine
 10
209.4336
 20
15.03936
 30
0.0
 11
206.2332
 21
15.03936
 31
0.0
  0
MTEXT
  5
116
330
1F
100
AcDbEntity
  8
TITLE_BLOCK
100
AcDbMText
 10
214.92
 20
22.76096
 30
0.0
 40
1.6256
 41
39.82720000000001
 71
     2
 72
     1
  1
FIRST ANGLE PROJECTION
  7
ONSHAPE-STANDARD
  0
LINE
  5
117
330
1F
100
AcDbEntity
  8
TITLE_BLOCK
100
AcDbLine
 10
235.24
 20
10.0
 30
0.0
 11
235.24
 21
60.8
 31
0.0
  0
LINE
  5
118
330
1F
100
AcDbEntity
  8
TITLE_BLOCK
100
AcDbLine
 10
253.02
 20
24.224
 30
0.0
 11
253.02
 21
60.8
 31
0.0
  0
LINE
  5
119
330
1F
100
AcDbEntity
  8
TITLE_BLOCK
100
AcDbLine
 10
273.34
 20
24.224
 30
0.0
 11
273.34
 21
60.8
 31
0.0
  0
LINE
  5
11A
330
1F
100
AcDbEntity
  8
TITLE_BLOCK
100
AcDbLine
 10
270.8
 20
10.0
 30
0.0
 11
270.8
 21
24.224
 31
0.0
  0
MTEXT
  5
11B
330
1F
100
AcDbEntity
  8
TITLE_BLOCK
100
AcDbMText
 10
283.5
 20
59.33696
 30
0.0
 40
1.6256
 41
19.91359999999994
 71
     2
 72
     1
  1
SIGNATURE
  7
ONSHAPE-STANDARD
  0
LINE
  5
11C
330
1F
100
AcDbEntity
  8
TITLE_BLOCK
100
AcDbLine
 10
293.66
 20
24.224
 30
0.0
 11
293.66
 21
60.8
 31
0.0
  0
LINE
  5
11D
330
1F
100
AcDbEntity
  8
TITLE_BLOCK
100
AcDbLine
 10
235.24
 20
60.8
 30
0.0
 11
306.36
 21
60.8
 31
0.0
  0
LINE
  5
11E
330
1F
100
AcDbEntity
  8
TITLE_BLOCK
100
AcDbLine
 10
235.24
 20
54.70400000000001
 30
0.0
 11
306.36
 21
54.70400000000001
 31
0.0
  0
LINE
  5
11F
330
1F
100
AcDbEntity
  8
TITLE_BLOCK
100
AcDbLine
 10
235.24
 20
48.608
 30
0.0
 11
306.36
 21
48.608
 31
0.0
  0
LINE
  5
120
330
1F
100
AcDbEntity
  8
TITLE_BLOCK
100
AcDbLine
 10
235.24
 20
42.512
 30
0.0
 11
306.36
 21
42.512
 31
0.0
  0
LINE
  5
121
330
1F
100
AcDbEntity
  8
TITLE_BLOCK
100
AcDbLine
 10
235.24
 20
36.416
 30
0.0
 11
306.36
 21
36.416
 31
0.0
  0
LINE
  5
122
330
1F
100
AcDbEntity
  8
TITLE_BLOCK
100
AcDbLine
 10
235.24
 20
30.32
 30
0.0
 11
306.36
 21
30.32
 31
0.0
  0
LINE
  5
123
330
1F
100
AcDbEntity
  8
TITLE_BLOCK
100
AcDbLine
 10
235.24
 20
24.224
 30
0.0
 11
306.36
 21
24.224
 31
0.0
  0
MTEXT
  5
124
330
1F
100
AcDbEntity
  8
TITLE_BLOCK
100
AcDbMText
 10
253.91408
 20
59.33696
 30
0.0
 40
1.6256
 41
19.91360000000002
 71
     1
 72
     1
  1
NAME
  7
ONSHAPE-STANDARD
  0
MTEXT
  5
125
330
1F
100
AcDbEntity
  8
TITLE_BLOCK
100
AcDbMText
 10
300.01
 20
59.33696
 30
0.0
 40
1.6256
 41
12.44600000000004
 71
     2
 72
     1
  1
DATE
  7
ONSHAPE-STANDARD
  0
MTEXT
  5
126
330
1F
100
AcDbEntity
  8
TITLE_BLOCK
100
AcDbMText
 10
236.13408
 20
53.24096000000001
 30
0.0
 40
1.6256
 41
17.4244
 71
     1
 72
     1
  1
DRAWN
  7
ONSHAPE-STANDARD
  0
MTEXT
  5
127
102
{ACAD_XDICTIONARY
360
128
102
}
330
1F
100
AcDbEntity
  8
TITLE_BLOCK
100
AcDbMText
 10
263.18
 20
51.65600000000001
 30
0.0
 40
1.365504
 41
20.32000000000002
 71
     5
 72
     1
  1
ALEX ZAVARSKY
  7
ONSHAPE-STANDARD-FIELDS
1001
ACAD
1000
ACAD_MTEXT_DEFINED_HEIGHT_BEGIN
1070
    46
1040
6.096000000000011
1000
ACAD_MTEXT_DEFINED_HEIGHT_END
  0
MTEXT
  5
12E
102
{ACAD_XDICTIONARY
360
12F
102
}
330
1F
100
AcDbEntity
  8
TITLE_BLOCK
100
AcDbMText
 10
300.01
 20
51.65600000000001
 30
0.0
 40
1.365504
 41
12.70000000000005
 71
     5
 72
     1
  1
2025-01-26
  7
ONSHAPE-STANDARD-FIELDS
1001
ACAD
1000
ACAD_MTEXT_DEFINED_HEIGHT_BEGIN
1070
    46
1040
6.096000000000011
1000
ACAD_MTEXT_DEFINED_HEIGHT_END
  0
MTEXT
  5
134
330
1F
100
AcDbEntity
  8
TITLE_BLOCK
100
AcDbMText
 10
236.13408
 20
47.14496
 30
0.0
 40
1.6256
 41
17.4244
 71
     1
 72
     1
  1
CHECKED
  7
ONSHAPE-STANDARD
  0
MTEXT
  5
135
330
1F
100
AcDbEntity
  8
TITLE_BLOCK
100
AcDbMText
 10
263.18
 20
45.56
 30
0.0
 40
1.365504
 41
20.32000000000002
 71
     5
 72
     1
  1
 
  7
ONSHAPE-STANDARD-FIELDS
1001
ACAD
1000
ACAD_MTEXT_DEFINED_HEIGHT_BEGIN
1070
    46
1040
6.095999999999997
1000
ACAD_MTEXT_DEFINED_HEIGHT_END
  0
MTEXT
  5
136
330
1F
100
AcDbEntity
  8
TITLE_BLOCK
100
AcDbMText
 10
300.01
 20
45.56
 30
0.0
 40
1.365504
 41
12.70000000000005
 71
     5
 72
     1
  1
 
  7
ONSHAPE-STANDARD-FIELDS
1001
ACAD
1000
ACAD_MTEXT_DEFINED_HEIGHT_BEGIN
1070
    46
1040
6.095999999999997
1000
ACAD_MTEXT_DEFINED_HEIGHT_END
  0
MTEXT
  5
137
330
1F
100
AcDbEntity
  8
TITLE_BLOCK
100
AcDbMText
 10
236.13408
 20
41.04896
 30
0.0
 40
1.6256
 41
17.4244
 71
     1
 72
     1
  1
APPROVED
  7
ONSHAPE-STANDARD
  0
MTEXT
  5
138
102
{ACAD_XDICTIONARY
360
139
102
}
330
1F
100
AcDbEntity
  8
TITLE_BLOCK
100
AcDbMText
 10
263.18
 20
39.464
 30
0.0
 40
1.365504
 41
20.32000000000002
 71
     5
 72
     1
  1
----
  7
ONSHAPE-STANDARD-FIELDS
1001
ACAD
1000
ACAD_MTEXT_DEFINED_HEIGHT_BEGIN
1070
    46
1040
6.096000000000004
1000
ACAD_MTEXT_DEFINED_HEIGHT_END
  0
MTEXT
  5
13E
102
{ACAD_XDICTIONARY
360
13F
102
}
330
1F
100
AcDbEntity
  8
TITLE_BLOCK
100
AcDbMText
 10
300.01
 20
39.464
 30
0.0
 40
1.365504
 41
12.70000000000005
 71
     5
 72
     1
  1
----
  7
ONSHAPE-STANDARD-FIELDS
1001
ACAD
1000
ACAD_MTEXT_DEFINED_HEIGHT_BEGIN
1070
    46
1040
6.096000000000004
1000
ACAD_MTEXT_DEFINED_HEIGHT_END
  0
MTEXT
  5
144
330
1F
100
AcDbEntity
  8
TITLE_BLOCK
100
AcDbMText
 10
244.13
 20
33.36799999999999
 30
0.0
 40
2.4384
 41
17.78
 71
     5
 72
     1
  1
 
  7
ONSHAPE-STANDARD-FIELDS
1001
ACAD
1000
ACAD_MTEXT_DEFINED_HEIGHT_BEGIN
1070
    46
1040
6.095999999999997
1000
ACAD_MTEXT_DEFINED_HEIGHT_END
  0
MTEXT
  5
145
330
1F
100
AcDbEntity
  8
TITLE_BLOCK
100
AcDbMText
 10
263.18
 20
33.36799999999999
 30
0.0
 40
1.365504
 41
20.32000000000002
 71
     5
 72
     1
  1
 
  7
ONSHAPE-STANDARD-FIELDS
1001
ACAD
1000
ACAD_MTEXT_DEFINED_HEIGHT_BEGIN
1070
    46
1040
6.095999999999997
1000
ACAD_MTEXT_DEFINED_HEIGHT_END
  0
MTEXT
  5
146
330
1F
100
AcDbEntity
  8
TITLE_BLOCK
100
AcDbMText
 10
300.01
 20
33.36799999999999
 30
0.0
 40
1.365504
 41
12.70000000000005
 71
     5
 72
     1
  1
 
  7
ONSHAPE-STANDARD-FIELDS
1001
ACAD
1000
ACAD_MTEXT_DEFINED_HEIGHT_BEGIN
1070
    46
1040
6.095999999999997
1000
ACAD_MTEXT_DEFINED_HEIGHT_END
  0
MTEXT
  5
147
330
1F
100
AcDbEntity
  8
TITLE_BLOCK
100
AcDbMText
 10
244.13
 20
27.272
 30
0.0
 40
2.4384
 41
17.78
 71
     5
 72
     1
  1
 
  7
ONSHAPE-STANDARD-FIELDS
1001
ACAD
1000
ACAD_MTEXT_DEFINED_HEIGHT_BEGIN
1070
    46
1040
6.096000000000004
1000
ACAD_MTEXT_DEFINED_HEIGHT_END
  0
MTEXT
  5
148
330
1F
100
AcDbEntity
  8
TITLE_BLOCK
100
AcDbMText
 10
263.18
 20
27.272
 30
0.0
 40
1.365504
 41
20.32000000000002
 71
     5
 72
     1
  1
 
  7
ONSHAPE-STANDARD-FIELDS
1001
ACAD
1000
ACAD_MTEXT_DEFINED_HEIGHT_BEGIN
1070
    46
1040
6.096000000000004
1000
ACAD_MTEXT_DEFINED_HEIGHT_END
  0
MTEXT
  5
149
330
1F
100
AcDbEntity
  8
TITLE_BLOCK
100
AcDbMText
 10
300.01
 20
27.272
 30
0.0
 40
1.365504
 41
12.70000000000005
 71
     5
 72
     1
  1
 
  7
ONSHAPE-STANDARD-FIELDS
1001
ACAD
1000
ACAD_MTEXT_DEFINED_HEIGHT_BEGIN
1070
    46
1040
6.096000000000004
1000
ACAD_MTEXT_DEFINED_HEIGHT_END
  0
MTEXT
  5
14A
330
1F
100
AcDbEntity
  8
TITLE_BLOCK
100
AcDbMText
 10
236.13408
 20
22.76096
 30
0.0
 40
1.6256
 41
34.8488
 71
     1
 72
     1
  1
MATERIAL
  7
ONSHAPE-STANDARD
  0
MTEXT
  5
14B
330
1F
100
AcDbEntity
  8
TITLE_BLOCK
100
AcDbMText
 10
253.02
 20
17.112
 30
0.0
 40
2.4384
 41
35.56
 71
     5
 72
     1
  1
 
  7
ONSHAPE-STANDARD-FIELDS
1001
ACAD
1000
ACAD_MTEXT_DEFINED_HEIGHT_BEGIN
1070
    46
1040
14.224
1000
ACAD_MTEXT_DEFINED_HEIGHT_END
  0
MTEXT
  5
14C
330
1F
100
AcDbEntity
  8
TITLE_BLOCK
100
AcDbMText
 10
271.69408
 20
22.76096
 30
0.0
 40
1.6256
 41
34.8488
 71
     1
 72
     1
  1
FINISH
  7
ONSHAPE-STANDARD
  0
MTEXT
  5
14D
330
1F
100
AcDbEntity
  8
TITLE_BLOCK
100
AcDbMText
 10
288.58
 20
17.112
 30
0.0
 40
2.4384
 41
35.56
 71
     5
 72
     1
  1
 
  7
ONSHAPE-STANDARD-FIELDS
1001
ACAD
1000
ACAD_MTEXT_DEFINED_HEIGHT_BEGIN
1070
    46
1040
14.224
1000
ACAD_MTEXT_DEFINED_HEIGHT_END
  0
LINE
  5
14E
330
1F
100
AcDbEntity
  8
TITLE_BLOCK
100
AcDbLine
 10
306.36
 20
10.0
 30
0.0
 11
306.36
 21
60.8
 31
0.0
  0
LINE
  5
14F
330
1F
100
AcDbEntity
  8
TITLE_BLOCK
100
AcDbLine
 10
319.06
 20
16.604
 30
0.0
 11
319.06
 21
26.764
 31
0.0
  0
LINE
  5
150
330
1F
100
AcDbEntity
  8
TITLE_BLOCK
100
AcDbLine
 10
328.712
 20
10.0
 30
0.0
 11
328.712
 21
16.604
 31
0.0
  0
LINE
  5
151
330
1F
100
AcDbEntity
  8
TITLE_BLOCK
100
AcDbLine
 10
374.94
 20
10.0
 30
0.0
 11
374.94
 21
16.604
 31
0.0
  0
LINE
  5
152
330
1F
100
AcDbEntity
  8
TITLE_BLOCK
100
AcDbLine
 10
400.34
 20
16.604
 30
0.0
 11
400.34
 21
26.764
 31
0.0
  0
LINE
  5
153
330
1F
100
AcDbEntity
  8
TITLE_BLOCK
100
AcDbLine
 10
306.36
 20
16.604
 30
0.0
 11
410.5
 21
16.604
 31
0.0
  0
LINE
  5
154
330
1F
100
AcDbEntity
  8
TITLE_BLOCK
100
AcDbLine
 10
306.36
 20
26.764
 30
0.0
 11
410.5
 21
26.764
 31
0.0
  0
LINE
  5
155
330
1F
100
AcDbEntity
  8
TITLE_BLOCK
100
AcDbLine
 10
306.36
 20
48.1
 30
0.0
 11
410.5
 21
48.1
 31
0.0
  0
LINE
  5
156
330
1F
100
AcDbEntity
  8
TITLE_BLOCK
100
AcDbLine
 10
306.36
 20
60.8
 30
0.0
 11
410.5
 21
60.8
 31
0.0
  0
MTEXT
  5
157
330
1F
100
AcDbEntity
  8
TITLE_BLOCK
100
AcDbMText
 10
307.25408
 20
46.63696
 30
0.0
 40
1.6256
 41
12.44599999999999
 71
     1
 72
     1
  1
TITLE
  7
ONSHAPE-STANDARD
  0
MTEXT
  5
158
102
{ACAD_XDICTIONARY
360
159
102
}
330
1F
100
AcDbEntity
  8
TITLE_BLOCK
100
AcDbMText
 10
358.43
 20
44.036
 30
0.0
 40
3.90144
 41
93.98000000000002
 71
     5
 72
     1
  1
Einlass
  7
ONSHAPE-STANDARD-FIELDS
1001
ONSHAPE_NOTES_REORDERING_D
1071
        0
1070
     0
1001
ACAD
1000
ACAD_MTEXT_DEFINED_HEIGHT_BEGIN
1070
    46
1040
3.954593133514987
1000
ACAD_MTEXT_DEFINED_HEIGHT_END
  0
MTEXT
  5
15C
102
{ACAD_XDICTIONARY
360
15D
102
}
330
1F
100
AcDbEntity
  8
TITLE_BLOCK
100
AcDbMText
 10
358.43
 20
37.6352
 30
0.0
 40
3.90144
 41
93.98000000000002
 71
     5
 72
     1
  1
aus
  7
ONSHAPE-STANDARD-FIELDS
1001
ONSHAPE_NOTES_REORDERING_D
1071
        0
1070
     0
1001
ACAD
1000
ACAD_MTEXT_DEFINED_HEIGHT_BEGIN
1070
    46
1040
3.954593133514987
1000
ACAD_MTEXT_DEFINED_HEIGHT_END
  0
MTEXT
  5
15E
102
{ACAD_XDICTIONARY
360
15F
102
}
330
1F
100
AcDbEntity
  8
TITLE_BLOCK
100
AcDbMText
 10
358.43
 20
31.2344
 30
0.0
 40
3.90144
 41
93.98000000000002
 71
     5
 72
     1
  1
Gütebecken mit Filterplatte
  7
ONSHAPE-STANDARD-FIELDS
1001
ONSHAPE_NOTES_REORDERING_D
1071
        0
1070
     0
1001
ACAD
1000
ACAD_MTEXT_DEFINED_HEIGHT_BEGIN
1070
    46
1040
3.954593133514987
1000
ACAD_MTEXT_DEFINED_HEIGHT_END
  0
MTEXT
  5
160
330
1F
100
AcDbEntity
  8
TITLE_BLOCK
100
AcDbMText
 10
307.075264
 20
25.593568
 30
0.0
 40
1.30048
 41
12.44599999999999
 71
     1
 72
     1
  1
SIZE
  7
ONSHAPE-STANDARD
  0
MTEXT
  5
161
102
{ACAD_XDICTIONARY
360
162
102
}
330
1F
100
AcDbEntity
  8
TITLE_BLOCK
100
AcDbMText
 10
312.71
 20
21.684
 30
0.0
 40
4.8768
 41
12.69999999999999
 71
     5
 72
     1
  1
A3
  7
ONSHAPE-STANDARD-FIELDS
1001
ACAD
1000
ACAD_MTEXT_DEFINED_HEIGHT_BEGIN
1070
    46
1040
10.16
1000
ACAD_MTEXT_DEFINED_HEIGHT_END
  0
MTEXT
  5
167
330
1F
100
AcDbEntity
  8
TITLE_BLOCK
100
AcDbMText
 10
319.775264
 20
25.593568
 30
0.0
 40
1.30048
 41
79.65439999999997
 71
     1
 72
     1
  1
DWG NO.
  7
ONSHAPE-STANDARD
  0
MTEXT
  5
168
102
{ACAD_XDICTIONARY
360
169
102
}
330
1F
100
AcDbEntity
  8
TITLE_BLOCK
100
AcDbMText
 10
359.7
 20
21.684
 30
0.0
 40
4.8768
 41
81.27999999999997
 71
     5
 72
     1
  1
BfG
  7
ONSHAPE-STANDARD-FIELDS
1001
ONSHAPE_NOTES_REORDERING_D
1071
        0
1070
     0
1001
ACAD
1000
ACAD_MTEXT_DEFINED_HEIGHT_BEGIN
1070
    46
1040
4.943241416893733
1000
ACAD_MTEXT_DEFINED_HEIGHT_END
  0
MTEXT
  5
16A
330
1F
100
AcDbEntity
  8
TITLE_BLOCK
100
AcDbMText
 10
401.055264
 20
25.593568
 30
0.0
 40
1.30048
 41
9.956800000000024
 71
     1
 72
     1
  1
REV.
  7
ONSHAPE-STANDARD
  0
MTEXT
  5
16B
102
{ACAD_XDICTIONARY
360
16C
102
}
330
1F
100
AcDbEntity
  8
TITLE_BLOCK
100
AcDbMText
 10
405.928
 20
21.684
 30
0.0
 40
4.8768
 41
9.144000000000005
 71
     5
 72
     1
  1
-
  7
ONSHAPE-STANDARD-FIELDS
1001
ACAD
1000
ACAD_MTEXT_DEFINED_HEIGHT_BEGIN
1070
    46
1040
10.16
1000
ACAD_MTEXT_DEFINED_HEIGHT_END
  0
MTEXT
  5
171
330
1F
100
AcDbEntity
  8
TITLE_BLOCK
100
AcDbMText
 10
307.075264
 20
15.433568
 30
0.0
 40
1.30048
 41
21.90495999999997
 71
     1
 72
     1
  1
SCALE
  7
ONSHAPE-STANDARD
  0
MTEXT
  5
172
102
{ACAD_XDICTIONARY
360
173
102
}
330
1F
100
AcDbEntity
  8
TITLE_BLOCK
100
AcDbMText
 10
318.552
 20
13.302
 30
0.0
 40
2.92608
 41
20.31999999999999
 71
     5
 72
     1
  1
1:1
  7
ONSHAPE-STANDARD-FIELDS
1001
ACAD
1000
ACAD_MTEXT_DEFINED_HEIGHT_BEGIN
1070
    46
1040
6.603999999999999
1000
ACAD_MTEXT_DEFINED_HEIGHT_END
  0
MTEXT
  5
178
330
1F
100
AcDbEntity
  8
TITLE_BLOCK
100
AcDbMText
 10
329.427264
 20
15.433568
 30
0.0
 40
1.30048
 41
45.30344000000001
 71
     1
 72
     1
  1
WEIGHT
  7
ONSHAPE-STANDARD
  0
MTEXT
  5
179
330
1F
100
AcDbEntity
  8
TITLE_BLOCK
100
AcDbMText
 10
351.826
 20
13.302
 30
0.0
 40
2.92608
 41
46.22800000000001
 71
     5
 72
     1
  1
 
  7
ONSHAPE-STANDARD-FIELDS
1001
ACAD
1000
ACAD_MTEXT_DEFINED_HEIGHT_BEGIN
1070
    46
1040
6.603999999999999
1000
ACAD_MTEXT_DEFINED_HEIGHT_END
  0
MTEXT
  5
17A
330
1F
100
AcDbEntity
  8
TITLE_BLOCK
100
AcDbMText
 10
375.655264
 20
15.433568
 30
0.0
 40
1.30048
 41
34.8488
 71
     1
 72
     1
  1
SHEET
  7
ONSHAPE-STANDARD
  0
MTEXT
  5
17B
102
{ACAD_XDICTIONARY
360
17C
102
}
330
1F
100
AcDbEntity
  8
TITLE_BLOCK
100
AcDbMText
 10
393.736
 20
13.302
 30
0.0
 40
2.92608
 41
33.52800000000002
 71
     5
 72
     1
  1
1 of 1
  7
ONSHAPE-STANDARD-FIELDS
1001
ACAD
1000
ACAD_MTEXT_DEFINED_HEIGHT_BEGIN
1070
    46
1040
6.603999999999999
1000
ACAD_MTEXT_DEFINED_HEIGHT_END
  0
MTEXT
  5
181
102
{ACAD_XDICTIONARY
360
182
102
}
330
1F
100
AcDbEntity
  8
ANNOTATION_TEXT
 62
     7
 60
     1
100
AcDbMText
 10
92.31101533995515
 20
151.0371894532597
 30
0.0
 40
3.5
 41
0.0
 71
     2
 72
     1
  1

  7
ONSHAPE-STANDARD-VIEW-LABE
1001
ACAD
1000
ACAD_MTEXT_DEFINED_HEIGHT_BEGIN
1070
    46
1040
3.5
1000
ACAD_MTEXT_DEFINED_HEIGHT_END
  0
MTEXT
  5
187
102
{ACAD_XDICTIONARY
360
2FC
102
}
330
1F
100
AcDbEntity
  8
ANNOTATION_TEXT
100
AcDbMText
 10
48.26272216407133
 20
270.4586803735128
 30
0.0
 40
3.5
 41
101.180237790149
 71
     1
 72
     5
  1
Wassereinlass aus der da 25mm Tülle
  7
ONSHAPE-STANDARD-NOTESTYLE
1001
ONSHAPE_NOTES_REORDERING_D
1071
        0
1070
     0
1001
ACAD
1000
ACAD_MTEXT_DEFINED_HEIGHT_BEGIN
1070
    46
1040
3.547683923705722
1000
ACAD_MTEXT_DEFINED_HEIGHT_END
  0
MTEXT
  5
189
102
{ACAD_XDICTIONARY
360
18A
102
}
330
1F
100
AcDbEntity
  8
ANNOTATION_TEXT
 62
     7
 60
     1
100
AcDbMText
 10
91.64693749527154
 20
24.6966433009363
 30
0.0
 40
3.5
 41
0.0
 71
     2
 72
     1
  1

  7
ONSHAPE-STANDARD-VIEW-LABE
1001
ACAD
1000
ACAD_MTEXT_DEFINED_HEIGHT_BEGIN
1070
    46
1040
3.5
1000
ACAD_MTEXT_DEFINED_HEIGHT_END
  0
LINE
  5
191
330
1F
100
AcDbEntity
  8
CENTERMARKS
  6
CONTINUOUS
100
AcDbLine
 10
90.39693749527154
 20
64.94664330093629
 30
0.0
 11
92.89693749527154
 21
64.94664330093629
 31
0.0
  0
LINE
  5
192
330
1F
100
AcDbEntity
  8
CENTERMARKS
  6
CONTINUOUS
100
AcDbLine
 10
91.64693749527154
 20
63.69664330093629
 30
0.0
 11
91.64693749527154
 21
66.19664330093629
 31
0.0
  0
LINE
  5
193
330
1F
100
AcDbEntity
  8
CENTERMARKS
  6
CENTER
100
AcDbLine
 10
89.14693749527154
 20
64.94664330093629
 30
0.0
 11
54.14693749527154
 21
64.94664330093629
 31
0.0
  0
LINE
  5
194
330
1F
100
AcDbEntity
  8
CENTERMARKS
  6
CENTER
100
AcDbLine
 10
94.14693749527154
 20
64.94664330093629
 30
0.0
 11
129.1469374952715
 21
64.94664330093629
 31
0.0
  0
LINE
  5
195
330
1F
100
AcDbEntity
  8
CENTERMARKS
  6
CENTER
100
AcDbLine
 10
91.64693749527154
 20
67.44664330093629
 30
-0.0000000000000036
 11
91.64693749527154
 21
102.4466433009363
 31
0.0000000000000036
  0
LINE
  5
196
330
1F
100
AcDbEntity
  8
CENTERMARKS
  6
CENTER
100
AcDbLine
 10
91.64693749527154
 20
62.44664330093629
 30
0.0000000000000036
 11
91.64693749527154
 21
27.44664330093629
 31
-0.0000000000000036
  0
DIMENSION
  5
197
102
{ACAD_REACTORS
102
}
102
{ACAD_XDICTIONARY
360
198
102
}
330
1F
100
AcDbEntity
  8
ANNOTATION_TEXT
100
AcDbDimension
  2
*D1
 10
127.3110153399551
 20
231.9005127331114
 30
0.0
 11
91.3969304638789
 21
231.9005127331114
 31
0.0
 70
   160
  3
ONSHAPE-ISO-25$0
100
AcDbAlignedDimension
 13
57.31101533995515
 23
213.7871894532597
 33
-17.49999999999999
 14
127.3110153399551
 24
213.7871894532597
 34
-17.49999999999999
100
AcDbRotatedDimension
1001
ACAD
1000
DSTYLE
1002
{
1070
     4
1000
[]
1070
   144
1040
1.0
1070
     3
1000

1070
   288
1070
     1
1002
}
1001
ACAD_DIMASSOC_CALC_DIMLFAC
1040
-1.0
1001
ACAD_DIMASSOC_DIMLFAC
1040
-1.0
1001
ACAD_DIMASSOC_OVERRIDDEN_D
1040
0.0
  0
DIMENSION
  5
1B3
102
{ACAD_REACTORS
330
1C9
330
1DA
102
}
102
{ACAD_XDICTIONARY
360
1B4
102
}
330
1F
100
AcDbEntity
  8
ANNOTATION_TEXT
100
AcDbDimension
  2
*D2
 10
120.9477544958276
 20
45.80344286057303
 30
-25.0
 11
26.2286803033648
 21
107.6865713329819
 31
0.0
 70
   163
  3
ONSHAPE-ISO-25$3
100
AcDbDiametricDimension
 15
62.34612049471547
 25
84.08984374129955
 35
-25.0
 40
0.0
1001
ACAD
1000
DSTYLE
1002
{
1070
   287
1070
     3
1070
     4
1000
[]
1070
   144
1040
1.0
1070
   289
1070
     3
1070
   279
1070
     0
1070
   172
1070
     1
1070
     3
1000
%%c<>
1002
}
1001
ACAD_DSTYLE_DIMRADIAL_EXTE
1070
   387
1070
     1
1070
   388
1040
0.0
1070
   390
1040
6.283185307179586
1001
ACAD_DIMASSOC_CALC_DIMLFAC
1040
-1.0
1001
ACAD_DIMASSOC_DIMLFAC
1040
-1.0
1001
ACAD_DIMASSOC_OVERRIDDEN_D
1040
0.0
  0
DIMENSION
  5
1C5
102
{ACAD_REACTORS
330
1DA
102
}
102
{ACAD_XDICTIONARY
360
1C6
102
}
330
1F
100
AcDbEntity
  8
ANNOTATION_TEXT
100
AcDbDimension
  2
*D3
 10
67.60883880425095
 20
58.07861510350187
 30
25.0
 11
152.7039775410511
 21
82.39151188544467
 31
0.0
 70
   163
  3
ONSHAPE-ISO-25$3
100
AcDbDiametricDimension
 15
115.6850361862921
 25
71.81467149837073
 35
25.0
 40
0.0
1001
ACAD
1000
DSTYLE
1002
{
1070
   287
1070
     3
1070
     4
1000
[]
1070
   144
1040
1.0
1070
   289
1070
     3
1070
   279
1070
     0
1070
   172
1070
     1
1070
     3
1000
%%c<>
1002
}
1001
ACAD_DSTYLE_DIMRADIAL_EXTE
1070
   387
1070
     1
1070
   388
1040
0.0
1070
   390
1040
6.283185307179586
1001
ACAD_DIMASSOC_CALC_DIMLFAC
1040
-1.0
1001
ACAD_DIMASSOC_DIMLFAC
1040
-1.0
1001
ACAD_DIMASSOC_OVERRIDDEN_D
1040
0.0
  0
DIMENSION
  5
1D6
102
{ACAD_REACTORS
102
}
102
{ACAD_XDICTIONARY
360
1D7
102
}
330
1F
100
AcDbEntity
  8
ANNOTATION_TEXT
100
AcDbDimension
  2
*D4
 10
84.57586968340607
 20
57.87557548907083
 30
25.0
 11
134.3868655273172
 21
107.6865713329819
 31
0.0
 70
   163
  3
ONSHAPE-ISO-25$3
100
AcDbDiametricDimension
 15
98.71800530713702
 25
72.01771111280178
 35
25.0
 40
0.0
1001
ACAD
1000
DSTYLE
1002
{
1070
   287
1070
     3
1070
     4
1000
[]
1070
   144
1040
1.0
1070
   289
1070
     3
1070
   279
1070
     0
1070
   172
1070
     1
1070
     3
1000
%%c<>
1002
}
1001
ACAD_DSTYLE_DIMRADIAL_EXTE
1070
   387
1070
     1
1070
   388
1040
0.0
1070
   390
1040
6.283185307179586
1001
ACAD_DIMASSOC_CALC_DIMLFAC
1040
-1.0
1001
ACAD_DIMASSOC_DIMLFAC
1040
-1.0
1001
ACAD_DIMASSOC_OVERRIDDEN_D
1040
0.0
  0
DIMENSION
  5
1E7
102
{ACAD_REACTORS
102
}
102
{ACAD_XDICTIONARY
360
1E8
102
}
330
1F
100
AcDbEntity
  8
ANNOTATION_TEXT
100
AcDbDimension
  2
*D5
 10
117.3110153399551
 20
141.2354339164578
 30
0.0
 11
94.17239206030708
 21
141.2354339164578
 31
0.0
 70
   160
  3
ONSHAPE-ISO-25$0
100
AcDbAlignedDimension
 13
67.31101533995515
 23
158.7871894532597
 33
-17.49999999999998
 14
117.3110153399551
 24
158.7871894532597
 34
-17.49999999999998
100
AcDbRotatedDimension
1001
ACAD
1000
DSTYLE
1002
{
1070
     4
1000
[]
1070
   144
1040
1.0
1070
     3
1000

1070
   288
1070
     1
1002
}
1001
ACAD_DIMASSOC_CALC_DIMLFAC
1040
-1.0
1001
ACAD_DIMASSOC_DIMLFAC
1040
-1.0
1001
ACAD_DIMASSOC_OVERRIDDEN_D
1040
0.0
  0
DIMENSION
  5
1FA
102
{ACAD_REACTORS
330
212
102
}
102
{ACAD_XDICTIONARY
360
1FB
102
}
330
1F
100
AcDbEntity
  8
ANNOTATION_TEXT
100
AcDbDimension
  2
*D6
 10
138.2713929813325
 20
158.7871894532597
 30
0.0
 11
138.2713929813325
 21
189.6518195430382
 31
0.0
 70
   160
  3
ONSHAPE-ISO-25$0
100
AcDbAlignedDimension
 13
117.3110153399551
 23
208.7871894532597
 33
-17.49999999999999
 14
117.3110153399551
 24
158.7871894532597
 34
-17.49999999999998
 50
90.0
100
AcDbRotatedDimension
1001
ACAD
1000
DSTYLE
1002
{
1070
     4
1000
[]
1070
   144
1040
1.0
1070
     3
1000

1070
   288
1070
     1
1002
}
1001
ACAD_DIMASSOC_CALC_DIMLFAC
1040
-1.0
1001
ACAD_DIMASSOC_DIMLFAC
1040
-1.0
1001
ACAD_DIMASSOC_OVERRIDDEN_D
1040
0.0
  0
DIMENSION
  5
20D
102
{ACAD_REACTORS
102
}
102
{ACAD_XDICTIONARY
360
20E
102
}
330
1F
100
AcDbEntity
  8
ANNOTATION_TEXT
100
AcDbDimension
  2
*D7
 10
43.90569870277463
 20
208.7871894532597
 30
0.0
 11
43.90569870277463
 21
220.5160722870472
 31
0.0
 70
   160
  3
ONSHAPE-ISO-25$0
100
AcDbAlignedDimension
 13
127.3110153399551
 23
213.7871894532597
 33
-17.49999999999999
 14
127.3110153399551
 24
208.7871894532597
 34
-17.49999999999999
 50
90.0
100
AcDbRotatedDimension
1001
ACAD
1000
DSTYLE
1002
{
1070
     4
1000
[]
1070
   144
1040
1.0
1070
     3
1000

1070
   288
1070
     1
1002
}
1001
ACAD_DIMASSOC_CALC_DIMLFAC
1040
-1.0
1001
ACAD_DIMASSOC_DIMLFAC
1040
-1.0
1001
ACAD_DIMASSOC_OVERRIDDEN_D
1040
0.0
  0
MTEXT
  5
223
102
{ACAD_XDICTIONARY
360
2FE
102
}
330
1F
100
AcDbEntity
  8
ANNOTATION_TEXT
100
AcDbMText
 10
79.63538084265986
 20
254.562775390832
 30
0.0
 40
3.5
 41
101.180237790149
 71
     1
 72
     5
  1
Seite
  7
ONSHAPE-STANDARD-NOTESTYLE
1001
ONSHAPE_NOTES_REORDERING_D
1071
        0
1070
     0
1001
ACAD
1000
ACAD_MTEXT_DEFINED_HEIGHT_BEGIN
1070
    46
1040
3.547683923705722
1000
ACAD_MTEXT_DEFINED_HEIGHT_END
  0
MTEXT
  5
22A
102
{ACAD_XDICTIONARY
360
300
102
}
330
1F
100
AcDbEntity
  8
ANNOTATION_TEXT
100
AcDbMText
 10
77.80171491049919
 20
119.6049627838073
 30
0.0
 40
3.5
 41
101.180237790149
 71
     1
 72
     5
  1
Unten
  7
ONSHAPE-STANDARD-NOTESTYLE
1001
ONSHAPE_NOTES_REORDERING_D
1071
        0
1070
     0
1001
ACAD
1000
ACAD_MTEXT_DEFINED_HEIGHT_BEGIN
1070
    46
1040
3.547683923705722
1000
ACAD_MTEXT_DEFINED_HEIGHT_END
  0
MTEXT
  5
22B
102
{ACAD_XDICTIONARY
360
22C
102
}
330
1F
100
AcDbEntity
  8
ANNOTATION_TEXT
 62
     7
 60
     1
100
AcDbMText
 10
267.4027722959118
 20
189.0081855270149
 30
0.0
 40
3.5
 41
0.0
 71
     2
 72
     1
  1

  7
ONSHAPE-STANDARD-VIEW-LABE
1001
ACAD
1000
ACAD_MTEXT_DEFINED_HEIGHT_BEGIN
1070
    46
1040
3.5
1000
ACAD_MTEXT_DEFINED_HEIGHT_END
  0
LINE
  5
233
330
1F
100
AcDbEntity
  8
CENTERMARKS
  6
CONTINUOUS
100
AcDbLine
 10
266.1527722959118
 20
229.2581855270149
 30
0.0
 11
268.6527722959118
 21
229.2581855270149
 31
0.0
  0
LINE
  5
234
330
1F
100
AcDbEntity
  8
CENTERMARKS
  6
CONTINUOUS
100
AcDbLine
 10
267.4027722959118
 20
228.0081855270149
 30
0.0000000000000002
 11
267.4027722959118
 21
230.5081855270149
 31
-0.0000000000000002
  0
LINE
  5
235
330
1F
100
AcDbEntity
  8
CENTERMARKS
  6
CENTER
100
AcDbLine
 10
264.9027722959118
 20
229.2581855270149
 30
0.0
 11
229.9027722959118
 21
229.2581855270149
 31
0.0
  0
LINE
  5
236
330
1F
100
AcDbEntity
  8
CENTERMARKS
  6
CENTER
100
AcDbLine
 10
269.9027722959118
 20
229.2581855270149
 30
0.0
 11
304.9027722959118
 21
229.2581855270149
 31
0.0
  0
LINE
  5
237
330
1F
100
AcDbEntity
  8
CENTERMARKS
  6
CENTER
100
AcDbLine
 10
267.4027722959118
 20
231.7581855270149
 30
0.0000000000000021
 11
267.4027722959118
 21
266.7581855270149
 31
-0.0000000000000021
  0
LINE
  5
238
330
1F
100
AcDbEntity
  8
CENTERMARKS
  6
CENTER
100
AcDbLine
 10
267.4027722959118
 20
226.7581855270149
 30
-0.0000000000000021
 11
267.4027722959118
 21
191.7581855270149
 31
0.0000000000000021
  0
MTEXT
  5
239
102
{ACAD_XDICTIONARY
360
23A
102
}
330
1F
100
AcDbEntity
  8
ANNOTATION_TEXT
 62
     7
 60
     1
100
AcDbMText
 10
270.3366377873688
 20
79.23764693753576
 30
0.0
 40
3.5
 41
0.0
 71
     2
 72
     1
  1

  7
ONSHAPE-STANDARD-VIEW-LABE
1001
ACAD
1000
ACAD_MTEXT_DEFINED_HEIGHT_BEGIN
1070
    46
1040
3.5
1000
ACAD_MTEXT_DEFINED_HEIGHT_END
  0
MTEXT
  5
240
102
{ACAD_XDICTIONARY
360
302
102
}
330
1F
100
AcDbEntity
  8
ANNOTATION_TEXT
100
AcDbMText
 10
231.8296532119948
 20
275.0998338310314
 30
0.0
 40
3.5
 41
101.180237790149
 71
     1
 72
     5
  1
Oben
  7
ONSHAPE-STANDARD-NOTESTYLE
1001
ONSHAPE_NOTES_REORDERING_D
1071
        0
1070
     0
1001
ACAD
1000
ACAD_MTEXT_DEFINED_HEIGHT_BEGIN
1070
    46
1040
3.547683923705722
1000
ACAD_MTEXT_DEFINED_HEIGHT_END
  0
DIMENSION
  5
244
102
{ACAD_REACTORS
102
}
102
{ACAD_XDICTIONARY
360
245
102
}
330
1F
100
AcDbEntity
  8
ANNOTATION_TEXT
100
AcDbDimension
  2
*D8
 10
235.3147167443611
 20
215.2811797346216
 30
0.0000000000000017
 11
327.1802816843493
 21
255.2962417636963
 31
0.0
 70
   163
  3
ONSHAPE-ISO-25$3
100
AcDbDiametricDimension
 15
299.4908278474625
 25
243.2351913194082
 35
-0.0000000000000017
 40
0.0
1001
ACAD
1000
DSTYLE
1002
{
1070
   287
1070
     3
1070
     4
1000
[]
1070
   144
1040
1.0
1070
   289
1070
     3
1070
   279
1070
     0
1070
   172
1070
     1
1070
     3
1000
%%c<>
1002
}
1001
ACAD_DSTYLE_DIMRADIAL_EXTE
1070
   387
1070
     1
1070
   388
1040
0.0
1070
   390
1040
6.283185307179586
1001
ACAD_DIMASSOC_CALC_DIMLFAC
1040
-1.0
1001
ACAD_DIMASSOC_DIMLFAC
1040
-1.0
1001
ACAD_DIMASSOC_OVERRIDDEN_D
1040
0.0
  0
MTEXT
  5
25E
102
{ACAD_REACTORS
102
}
102
{ACAD_XDICTIONARY
360
304
102
}
330
1F
100
AcDbEntity
  8
ANNOTATION_TEXT
100
AcDbMText
 10
310.3105551084711
 20
149.6770840712422
 30
0.0
 40
3.5
 41
94.25042891305816
 71
     4
 72
     1
  3
Der Einlass kann beliebig gestaltet werden.\PWichtig ist er wird auf das 25 mm Loch gesetzt und  das Wasser von unten muss seitlich ausströmen. Dies soll mit einem Deckel und seitlichen Öffnungen erreicht werden.\PDer Einlass wird auf den Boden zent
  1
riert über die Tülle geklebt
  7
ONSHAPE-STANDARD-NOTESTYLE
1001
ONSHAPE_NOTES_REORDERING_D
1071
        0
1070
     0
1001
ACAD
1000
ACAD_MTEXT_DEFINED_HEIGHT_BEGIN
1070
    46
1040
54.19993188010899
1000
ACAD_MTEXT_DEFINED_HEIGHT_END
  0
SOLID
  5
268
330
1F
100
AcDbEntity
  8
ANNOTATION_TEXT
100
AcDbTrace
 10
296.1140823952865
 20
117.3660527382841
 30
0.0
 11
293.6095573452539
 21
116.9775100960032
 31
0.0
 12
295.8526888329233
 22
118.1573288279011
 32
0.0
 13
295.8526888329233
 23
118.1573288279011
 33
0.0
  0
POLYLINE
  5
269
330
1F
100
AcDbEntity
  8
ANNOTATION_TEXT
100
AcDb2dPolyline
 66
     1
 10
0.0
 20
0.0
 30
-38.8168018224118
210
0.0
220
-0.3247463955885961
230
0.9458011305513516
  0
VERTEX
  5
26A
330
269
100
AcDbEntity
  8
ANNOTATION_TEXT
100
AcDbVertex
100
AcDb2dVertex
 10
293.6095573452539
 20
110.3528958091377
 30
-38.8168018224118
  0
VERTEX
  5
26B
330
269
100
AcDbEntity
  8
ANNOTATION_TEXT
100
AcDbVertex
100
AcDb2dVertex
 10
309.0605551084711
 20
115.7495370230009
 30
-38.8168018224118
  0
VERTEX
  5
26C
330
269
100
AcDbEntity
  8
ANNOTATION_TEXT
100
AcDbVertex
100
AcDb2dVertex
 10
404.5609840215293
 20
115.7495370230009
 30
-38.8168018224118
  0
SEQEND
  5
26D
330
269
100
AcDbEntity
  8
ANNOTATION_TEXT
  0
ENDSEC
  0
SECTION
  2
OBJECTS
  0
DICTIONARY
  5
C
330
0
100
AcDbDictionary
  3
ACAD_FIELDLIST
350
18C
  3
ACAD_GROUP
350
D
  3
ACAD_LAYOUT
350
1A
  3
ACAD_MATERIAL
350
43
  3
ACAD_MLEADERSTYLE
350
6B
  3
ACAD_MLINESTYLE
350
17
  3
ACAD_PLOTSETTINGS
350
19
  3
ACAD_SCALELIST
350
47
  3
ACAD_VISUALSTYLE
350
2A
  3
ACDB_RECOMPOSE_DATA
350
311
  3
ACDBHEADERROUNDTRIPXREC
350
2D0
  3
ACDBVARIABLEDICTIONARY
350
6E
  3
DWGPROPS
350
2F7
  3
ONSHAPE_DATA
350
26E
  0
DICTIONARY
  5
306
330
8
100
AcDbDictionary
280
     1
  3
ACAD_XREC_ROUNDTRIP
360
307
  0
DICTIONARY
  5
128
330
127
100
AcDbDictionary
280
     1
  0
DICTIONARY
  5
12F
330
12E
100
AcDbDictionary
280
     1
  0
DICTIONARY
  5
139
330
138
100
AcDbDictionary
280
     1
  0
DICTIONARY
  5
13F
330
13E
100
AcDbDictionary
280
     1
  0
DICTIONARY
  5
159
330
158
100
AcDbDictionary
280
     1
  3
ACAD_MTEXT_RT
360
2F8
  0
DICTIONARY
  5
15D
330
15C
100
AcDbDictionary
280
     1
  3
ACAD_MTEXT_RT
360
2F9
  0
DICTIONARY
  5
15F
330
15E
100
AcDbDictionary
280
     1
  3
ACAD_MTEXT_RT
360
2FA
  0
DICTIONARY
  5
162
330
161
100
AcDbDictionary
280
     1
  0
DICTIONARY
  5
169
330
168
100
AcDbDictionary
280
     1
  3
ACAD_MTEXT_RT
360
2FB
  0
DICTIONARY
  5
16C
330
16B
100
AcDbDictionary
280
     1
  0
DICTIONARY
  5
173
330
172
100
AcDbDictionary
280
     1
  0
DICTIONARY
  5
17C
330
17B
100
AcDbDictionary
280
     1
  0
DICTIONARY
  5
182
330
181
100
AcDbDictionary
280
     1
  3
ONSHAPE_VIEW_ID
360
183
  0
DICTIONARY
  5
2FC
330
187
100
AcDbDictionary
280
     1
  3
ACAD_MTEXT_RT
360
2FD
  0
DICTIONARY
  5
18A
330
189
100
AcDbDictionary
280
     1
  3
ONSHAPE_VIEW_ID
360
18B
  0
DICTIONARY
  5
198
330
197
100
AcDbDictionary
280
     1
  3
ACAD_BREAKDATA
360
19C
  3
OS_DIM_DISPLAY_FLAG_DATA
360
199
  0
DICTIONARY
  5
1B4
330
1B3
100
AcDbDictionary
280
     1
  3
ACAD_BREAKDATA
360
1B7
  3
OS_DIM_DISPLAY_FLAG_DATA
360
1B5
  0
DICTIONARY
  5
1C6
330
1C5
100
AcDbDictionary
280
     1
  3
ACAD_BREAKDATA
360
1C9
  3
OS_DIM_DISPLAY_FLAG_DATA
360
1C7
  0
DICTIONARY
  5
1D7
330
1D6
100
AcDbDictionary
280
     1
  3
ACAD_BREAKDATA
360
1DA
  3
OS_DIM_DISPLAY_FLAG_DATA
360
1D8
  0
DICTIONARY
  5
1E8
330
1E7
100
AcDbDictionary
280
     1
  3
ACAD_BREAKDATA
360
1EC
  3
OS_DIM_DISPLAY_FLAG_DATA
360
1E9
  0
DICTIONARY
  5
1FB
330
1FA
100
AcDbDictionary
280
     1
  3
ACAD_BREAKDATA
360
1FF
  3
OS_DIM_DISPLAY_FLAG_DATA
360
1FC
  0
DICTIONARY
  5
20E
330
20D
100
AcDbDictionary
280
     1
  3
ACAD_BREAKDATA
360
212
  3
OS_DIM_DISPLAY_FLAG_DATA
360
20F
  0
DICTIONARY
  5
2FE
330
223
100
AcDbDictionary
280
     1
  3
ACAD_MTEXT_RT
360
2FF
  0
DICTIONARY
  5
300
330
22A
100
AcDbDictionary
280
     1
  3
ACAD_MTEXT_RT
360
301
  0
DICTIONARY
  5
22C
330
22B
100
AcDbDictionary
280
     1
  3
ONSHAPE_VIEW_ID
360
22D
  0
DICTIONARY
  5
23A
330
239
100
AcDbDictionary
280
     1
  3
ONSHAPE_VIEW_ID
360
23B
  0
DICTIONARY
  5
302
330
240
100
AcDbDictionary
280
     1
  3
ACAD_MTEXT_RT
360
303
  0
DICTIONARY
  5
245
330
244
100
AcDbDictionary
280
     1
  3
ACAD_BREAKDATA
360
248
  3
OS_DIM_DISPLAY_FLAG_DATA
360
246
  0
DICTIONARY
  5
304
330
25E
100
AcDbDictionary
280
     1
  3
ACAD_MTEXT_RT
360
305
  0
ACAD_PROXY_OBJECT
  5
18C
102
{ACAD_REACTORS
330
C
102
}
330
C
100
AcDbProxyObject
 90
      499
 91
      509
 93
       11
310
4400
330
12B
330
12C
330
132
330
133
330
13C
330
13D
330
142
330
143
330
165
330
166
330
16F
330
170
330
176
330
177
330
17F
330
180
 94
        0
  0
DICTIONARY
  5
D
102
{ACAD_REACTORS
330
C
102
}
330
C
100
AcDbDictionary
  0
DICTIONARY
  5
1A
102
{ACAD_REACTORS
330
C
102
}
330
C
100
AcDbDictionary
  0
DICTIONARY
  5
43
102
{ACAD_REACTORS
330
C
102
}
330
C
100
AcDbDictionary
  3
BYBLOCK
350
45
  3
BYLAYER
350
44
  3
GLOBAL
350
46
  0
DICTIONARY
  5
6B
102
{ACAD_REACTORS
330
C
102
}
330
C
100
AcDbDictionary
  3
STANDARD
350
6C
  0
DICTIONARY
  5
17
102
{ACAD_REACTORS
330
C
102
}
330
C
100
AcDbDictionary
  3
STANDARD
350
18
  0
DICTIONARY
  5
19
102
{ACAD_REACTORS
330
C
102
}
330
C
100
AcDbDictionary
  0
DICTIONARY
  5
47
102
{ACAD_REACTORS
330
C
102
}
330
C
100
AcDbDictionary
  3
A0
350
48
  3
A1
350
49
  3
A2
350
4A
  3
A3
350
4B
  3
A4
350
4C
  3
A5
350
4D
  3
A6
350
4E
  3
A7
350
4F
  3
A8
350
50
  3
A9
350
51
  3
B0
350
52
  3
B1
350
53
  3
B2
350
54
  3
B3
350
55
  3
B4
350
56
  3
B5
350
57
  3
B6
350
58
  3
B7
350
59
  3
B8
350
5A
  3
B9
350
5B
  3
C0
350
5C
  3
C1
350
5D
  3
C2
350
5E
  3
C3
350
5F
  3
C4
350
60
  3
C5
350
61
  3
C6
350
62
  3
C7
350
63
  3
C8
350
64
  3
C9
350
65
  3
D0
350
66
  3
D1
350
67
  3
D2
350
68
  0
DICTIONARY
  5
2A
102
{ACAD_REACTORS
330
C
102
}
330
C
100
AcDbDictionary
  3
2DWIREFRAME
350
2F
  3
BASIC
350
32
  3
BRIGHTEN
350
36
  3
COLORCHANGE
350
3A
  3
CONCEPTUAL
350
34
  3
DIM
350
35
  3
EDGECOLOROFF
350
3D
  3
FACEPATTERN
350
39
  3
FLAT
350
2B
  3
FLATWITHEDGES
350
2C
  3
GOURAUD
350
2D
  3
GOURAUDWITHEDGES
350
2E
  3
HIDDEN
350
31
  3
JITTEROFF
350
3B
  3
LINEPATTERN
350
38
  3
OVERHANGOFF
350
3C
  3
REALISTIC
350
33
  3
SHADED
350
42
  3
SHADED_WITH_EDGES
350
41
  3
SHADES_OF_GRAY
350
3E
  3
SKETCHY
350
3F
  3
THICKEN
350
37
  3
WIREFRAME
350
30
  3
X-RAY
350
40
  0
XRECORD
  5
311
102
{ACAD_REACTORS
330
C
102
}
330
C
100
AcDbXrecord
 90
        1
330
158
330
15C
330
15E
330
168
330
187
330
240
330
25E
330
223
330
22A
  0
DICTIONARY
  5
2D0
102
{ACAD_REACTORS
330
C
102
}
330
C
100
AcDbDictionary
  3
CEPSNID
350
2DA
  3
CEPSNTYPE
350
2D9
  3
DIMSTYLEDATA
350
2F0
  3
FINGERPRINTGUID
350
2DB
  3
HYPERLINKBASE
350
2D3
  3
INSUNITS
350
2D8
  3
LAYOUTDICT
350
2D5
  3
LWETCUNION
350
2D7
  3
PLOTSETDICT
350
2D6
  3
PSVPSCALE
350
2DD
  3
PUCSBASE
350
2E0
  3
PUCSORGBACK
350
2E6
  3
PUCSORGBOTTOM
350
2E2
  3
PUCSORGFRONT
350
2E5
  3
PUCSORGLEFT
350
2E3
  3
PUCSORGRIGHT
350
2E4
  3
PUCSORGTOP
350
2E1
  3
PUCSORTHOREF
350
2DE
  3
PUCSORTHOVIEW
350
2DF
  3
STYLESHEET
350
2D4
  3
TSTACKALIGN
350
2D1
  3
TSTACKSIZE
350
2D2
  3
UCSBASE
350
2E9
  3
UCSORGBACK
350
2EF
  3
UCSORGBOTTOM
350
2EB
  3
UCSORGFRONT
350
2EE
  3
UCSORGLEFT
350
2EC
  3
UCSORGRIGHT
350
2ED
  3
UCSORGTOP
350
2EA
  3
UCSORTHOREF
350
2E7
  3
UCSORTHOVIEW
350
2E8
  3
VERSIONGUID
350
2DC
  0
DICTIONARY
  5
6E
102
{ACAD_REACTORS
330
C
102
}
330
C
100
AcDbDictionary
  3
CANNOSCALE
350
308
  3
CMLEADERSTYLE
350
2F2
  3
CTABLESTYLE
350
2F1
  3
DIMASSOC
350
2F5
  3
HIDETEXT
350
2F6
  3
MSLTSCALE
350
309
  3
OLEFRAME
350
6F
  0
XRECORD
  5
2F7
102
{ACAD_REACTORS
330
C
102
}
330
C
100
AcDbXrecord
  1
DWGPROPS COOKIE
  2

  3

  4

  6

  7

  8
nobody
  9

300
=
301
=
302
=
303
=
304
=
305
=
306
=
307
=
308
=
309
=
 40
0.0
 41
2461104.318693056
 42
2461104.318693774
  1

 90
        0
  0
DICTIONARY
  5
26E
102
{ACAD_REACTORS
330
C
102
}
330
C
100
AcDbDictionary
280
     1
  3
DIM_UNITS
360
26F
  3
ONSHAPE_ANG_TOL_PRECISION
360
272
  3
ONSHAPE_BREAK_DIMENSION_DEFAULT
360
278
  3
ONSHAPE_DIMENSION_TEXT_HOR
360
277
  3
ONSHAPE_FITCLASS_TOL_PRECISION
360
273
  3
ONSHAPE_JOGDIMENSION_LOCK_
360
275
  3
ONSHAPE_SHOWDIMENSIONSLINE
360
276
  3
ONSHAPE_UNDERLINEOVERRIDEN
360
274
  3
ONSHAPE_VSHARP_EXTENSION
360
271
  3
ONSHAPE_WELD_STANDARD
360
270
  0
XRECORD
  5
307
102
{ACAD_REACTORS
330
306
102
}
330
306
100
AcDbXrecord
102
VTR_0.000_0.000_1.000_1.000_VISUALSTYLE
340
2F
102
VTR_0.000_0.000_1.000_1.000_GRIDDISPLAY
 70
     3
102
VTR_0.000_0.000_1.000_1.000_GRIDMAJOR
 70
     5
102
VTR_0.000_0.000_1.000_1.000_DEFAULTLIGHTING
280
     1
102
VTR_0.000_0.000_1.000_1.000_DEFAULTLIGHTINGTYPE
 70
     1
102
VTR_0.000_0.000_1.000_1.000_BRIGHTNESS
141
0.0
102
VTR_0.000_0.000_1.000_1.000_CONTRAST
142
0.0
  0
XRECORD
  5
2F8
102
{ACAD_REACTORS
330
159
102
}
330
159
100
AcDbXrecord
 40
3021.0
  1
{\pxqc;Einlass}
  0
XRECORD
  5
2F9
102
{ACAD_REACTORS
330
15D
102
}
330
15D
100
AcDbXrecord
 40
676.0
  1
{\pxqc;aus}
  0
XRECORD
  5
2FA
102
{ACAD_REACTORS
330
15F
102
}
330
15F
100
AcDbXrecord
 40
37984.0
  1
{\pxqc;Gütebecken mit Filterplatte}
  0
XRECORD
  5
2FB
102
{ACAD_REACTORS
330
169
102
}
330
169
100
AcDbXrecord
 40
483.0
  1
{\pxqc;BfG}
  0
XRECORD
  5
183
102
{ACAD_REACTORS
330
182
102
}
330
182
100
AcDbXrecord
330
0
  0
XRECORD
  5
2FD
102
{ACAD_REACTORS
330
2FC
102
}
330
2FC
100
AcDbXrecord
 40
51737.0
  1
{\pxql;Wassereinlass aus der da 25mm Tülle}
  0
XRECORD
  5
18B
102
{ACAD_REACTORS
330
18A
102
}
330
18A
100
AcDbXrecord
330
0
  0
BREAKDATA
  5
19C
102
{ACAD_REACTORS
330
198
102
}
330
198
100
AcDbBreakData
 70
     0
330
197
 90
        0
  0
XRECORD
  5
199
102
{ACAD_REACTORS
330
198
102
}
330
198
100
AcDbXrecord
 90
        1
 90
        0
  0
BREAKDATA
  5
1B7
102
{ACAD_REACTORS
330
1B4
102
}
330
1B4
100
AcDbBreakData
 70
     0
330
1B3
 90
        0
  0
XRECORD
  5
1B5
102
{ACAD_REACTORS
330
1B4
102
}
330
1B4
100
AcDbXrecord
 90
        1
 90
        0
  0
BREAKDATA
  5
1C9
102
{ACAD_REACTORS
330
1C6
102
}
330
1C6
100
AcDbBreakData
 70
     0
330
1C5
 90
        1
100
AcDbBreakPointRef
 71
     0
 72
     0
 91
       -1
 10
0.0
 20
0.0
 30
0.0
 11
0.0
 21
0.0
 31
0.0
331
1B3
 73
     5
 92
        0
  0
XRECORD
  5
1C7
102
{ACAD_REACTORS
330
1C6
102
}
330
1C6
100
AcDbXrecord
 90
        1
 90
        0
  0
BREAKDATA
  5
1DA
102
{ACAD_REACTORS
330
1D7
102
}
330
1D7
100
AcDbBreakData
 70
     0
330
1D6
 90
        3
100
AcDbBreakPointRef
 71
     0
 72
     0
 91
       -1
 10
0.0
 20
0.0
 30
0.0
 11
0.0
 21
0.0
 31
0.0
331
1C5
 73
     5
 92
        0
100
AcDbBreakPointRef
 71
     0
 72
     0
 91
       -1
 10
0.0
 20
0.0
 30
0.0
 11
0.0
 21
0.0
 31
0.0
331
1B3
 73
     5
 92
        0
100
AcDbBreakPointRef
 71
     0
 72
     0
 91
       -1
 10
0.0
 20
0.0
 30
0.0
 11
0.0
 21
0.0
 31
0.0
331
1C5
 73
     2
 92
        0
  0
XRECORD
  5
1D8
102
{ACAD_REACTORS
330
1D7
102
}
330
1D7
100
AcDbXrecord
 90
        1
 90
        0
  0
BREAKDATA
  5
1EC
102
{ACAD_REACTORS
330
1E8
102
}
330
1E8
100
AcDbBreakData
 70
     0
330
1E7
 90
        0
  0
XRECORD
  5
1E9
102
{ACAD_REACTORS
330
1E8
102
}
330
1E8
100
AcDbXrecord
 90
        1
 90
        0
  0
BREAKDATA
  5
1FF
102
{ACAD_REACTORS
330
1FB
102
}
330
1FB
100
AcDbBreakData
 70
     0
330
1FA
 90
        0
  0
XRECORD
  5
1FC
102
{ACAD_REACTORS
330
1FB
102
}
330
1FB
100
AcDbXrecord
 90
        1
 90
        0
  0
BREAKDATA
  5
212
102
{ACAD_REACTORS
330
20E
102
}
330
20E
100
AcDbBreakData
 70
     0
330
20D
 90
        3
100
AcDbBreakPointRef
 71
     0
 72
     0
 91
       -1
 10
0.0
 20
0.0
 30
0.0
 11
0.0
 21
0.0
 31
0.0
331
1FA
 73
     5
 92
        0
100
AcDbBreakPointRef
 71
     0
 72
     0
 91
       -1
 10
0.0
 20
0.0
 30
0.0
 11
0.0
 21
0.0
 31
0.0
331
1FA
 73
     2
 92
        0
100
AcDbBreakPointRef
 71
     0
 72
     0
 91
       -1
 10
0.0
 20
0.0
 30
0.0
 11
0.0
 21
0.0
 31
0.0
331
1FA
 73
     2
 92
        0
  0
XRECORD
  5
20F
102
{ACAD_REACTORS
330
20E
102
}
330
20E
100
AcDbXrecord
 90
        1
 90
        0
  0
XRECORD
  5
2FF
102
{ACAD_REACTORS
330
2FE
102
}
330
2FE
100
AcDbXrecord
 40
1569.0
  1
{\pxql;Seite}
  0
XRECORD
  5
301
102
{ACAD_REACTORS
330
300
102
}
330
300
100
AcDbXrecord
 40
1607.0
  1
{\pxql;Unten}
  0
XRECORD
  5
22D
102
{ACAD_REACTORS
330
22C
102
}
330
22C
100
AcDbXrecord
330
0
  0
XRECORD
  5
23B
102
{ACAD_REACTORS
330
23A
102
}
330
23A
100
AcDbXrecord
330
0
  0
XRECORD
  5
303
102
{ACAD_REACTORS
330
302
102
}
330
302
100
AcDbXrecord
 40
1018.0
  1
{\pxql;Oben}
  0
BREAKDATA
  5
248
102
{ACAD_REACTORS
330
245
102
}
330
245
100
AcDbBreakData
 70
     0
330
244
 90
        0
  0
XRECORD
  5
246
102
{ACAD_REACTORS
330
245
102
}
330
245
100
AcDbXrecord
 90
        1
 90
        0
  0
XRECORD
  5
305
102
{ACAD_REACTORS
330
304
102
}
330
304
100
AcDbXrecord
 40
3495860.0
  1
{\pxql;Der Einlass kann beliebig gestaltet werden.\PWichtig ist er wird auf das 25 mm Loch gesetzt und  das Wasser von unten muss seitlich ausströmen. Dies soll mit einem Deckel und seitlichen Öffnungen erreicht werden.\PDer Einlass wird auf den Bode
  1
n zentriert über die Tülle geklebt}
  0
MATERIAL
  5
45
102
{ACAD_REACTORS
330
43
102
}
102
{ACAD_XDICTIONARY
360
30C
102
}
330
43
100
AcDbMaterial
  1
BYBLOCK
  0
MATERIAL
  5
44
102
{ACAD_REACTORS
330
43
102
}
102
{ACAD_XDICTIONARY
360
30A
102
}
330
43
100
AcDbMaterial
  1
BYLAYER
  0
MATERIAL
  5
46
102
{ACAD_REACTORS
330
43
102
}
102
{ACAD_XDICTIONARY
360
30E
102
}
330
43
100
AcDbMaterial
  1
GLOBAL
  0
ACAD_PROXY_OBJECT
  5
6C
102
{ACAD_REACTORS
330
6B
102
}
330
6B
100
AcDbProxyObject
 90
      499
 91
      505
 93
      610
310
40901902A4063FBFFFFFE056BD1B81E855B9FC0AD7A3703D0AD73F4214DD185B99185C9900AD7A3703D0AC73F90140501A02B5E8DC0F42B1CFC02B5E8DC0F42B1CFE5764000000000000300FC0
340
14
340
0
340
11
340
0
 94
        0
1001
ACAD_MLEADERVER
1070
     2
  0
MLINESTYLE
  5
18
102
{ACAD_REACTORS
330
17
102
}
330
17
100
AcDbMlineStyle
  2
Standard
 70
     0
  3

 62
   256
 51
90.0
 52
90.0
 71
     2
 49
0.5
 62
   256
  6
BYLAYER
 49
-0.5
 62
   256
  6
BYLAYER
  0
ACAD_PROXY_OBJECT
  5
48
102
{ACAD_REACTORS
330
47
102
}
330
47
100
AcDbProxyObject
 90
      499
 91
      503
 93
       41
310
903313A31580
  0
ACAD_PROXY_OBJECT
  5
49
102
{ACAD_REACTORS
330
47
102
}
330
47
100
AcDbProxyObject
 90
      499
 91
      503
 93
      105
310
903313A324000000000000004000
  0
ACAD_PROXY_OBJECT
  5
4A
102
{ACAD_REACTORS
330
47
102
}
330
47
100
AcDbProxyObject
 90
      499
 91
      503
 93
      105
310
903313A344000000000000104000
  0
ACAD_PROXY_OBJECT
  5
4B
102
{ACAD_REACTORS
330
47
102
}
330
47
100
AcDbProxyObject
 90
      499
 91
      503
 93
      105
310
903313A354000000000000144000
  0
ACAD_PROXY_OBJECT
  5
4C
102
{ACAD_REACTORS
330
47
102
}
330
47
100
AcDbProxyObject
 90
      499
 91
      503
 93
      105
310
903313A384000000000000204000
  0
ACAD_PROXY_OBJECT
  5
4D
102
{ACAD_REACTORS
330
47
102
}
330
47
100
AcDbProxyObject
 90
      499
 91
      503
 93
      113
310
904313A31304000000000000244000
  0
ACAD_PROXY_OBJECT
  5
4E
102
{ACAD_REACTORS
330
47
102
}
330
47
100
AcDbProxyObject
 90
      499
 91
      503
 93
      113
310
904313A31364000000000000304000
  0
ACAD_PROXY_OBJECT
  5
4F
102
{ACAD_REACTORS
330
47
102
}
330
47
100
AcDbProxyObject
 90
      499
 91
      503
 93
      113
310
904313A32304000000000000344000
  0
ACAD_PROXY_OBJECT
  5
50
102
{ACAD_REACTORS
330
47
102
}
330
47
100
AcDbProxyObject
 90
      499
 91
      503
 93
      113
310
904313A333040000000000003E4000
  0
ACAD_PROXY_OBJECT
  5
51
102
{ACAD_REACTORS
330
47
102
}
330
47
100
AcDbProxyObject
 90
      499
 91
      503
 93
      113
310
904313A34304000000000000444000
  0
ACAD_PROXY_OBJECT
  5
52
102
{ACAD_REACTORS
330
47
102
}
330
47
100
AcDbProxyObject
 90
      499
 91
      503
 93
      113
310
904313A35304000000000000494000
  0
ACAD_PROXY_OBJECT
  5
53
102
{ACAD_REACTORS
330
47
102
}
330
47
100
AcDbProxyObject
 90
      499
 91
      503
 93
      121
310
905313A3130304000000000000594000
  0
ACAD_PROXY_OBJECT
  5
54
102
{ACAD_REACTORS
330
47
102
}
330
47
100
AcDbProxyObject
 90
      499
 91
      503
 93
      105
310
903323A310000000000000010100
  0
ACAD_PROXY_OBJECT
  5
55
102
{ACAD_REACTORS
330
47
102
}
330
47
100
AcDbProxyObject
 90
      499
 91
      503
 93
      105
310
903343A310000000000000410100
  0
ACAD_PROXY_OBJECT
  5
56
102
{ACAD_REACTORS
330
47
102
}
330
47
100
AcDbProxyObject
 90
      499
 91
      503
 93
      105
310
903383A310000000000000810100
  0
ACAD_PROXY_OBJECT
  5
57
102
{ACAD_REACTORS
330
47
102
}
330
47
100
AcDbProxyObject
 90
      499
 91
      503
 93
      113
310
90431303A310000000000000910100
  0
ACAD_PROXY_OBJECT
  5
58
102
{ACAD_REACTORS
330
47
102
}
330
47
100
AcDbProxyObject
 90
      499
 91
      503
 93
      121
310
9053130303A310000000000001650100
  0
ACAD_PROXY_OBJECT
  5
59
102
{ACAD_REACTORS
330
47
102
}
330
47
100
AcDbProxyObject
 90
      499
 91
      503
 93
      257
310
90E312F31323822203D2031272D3022000000000000200FC000000000000284000
  0
ACAD_PROXY_OBJECT
  5
5A
102
{ACAD_REACTORS
330
47
102
}
330
47
100
AcDbProxyObject
 90
      499
 91
      503
 93
      249
310
90D312F363422203D2031272D3022000000000000240FC000000000000284000
  0
ACAD_PROXY_OBJECT
  5
5B
102
{ACAD_REACTORS
330
47
102
}
330
47
100
AcDbProxyObject
 90
      499
 91
      503
 93
      249
310
90D312F333222203D2031272D3022000000000000280FC000000000000284000
  0
ACAD_PROXY_OBJECT
  5
5C
102
{ACAD_REACTORS
330
47
102
}
330
47
100
AcDbProxyObject
 90
      499
 91
      503
 93
      249
310
90D312F313622203D2031272D30220000000000002C0FC000000000000284000
  0
ACAD_PROXY_OBJECT
  5
5D
102
{ACAD_REACTORS
330
47
102
}
330
47
100
AcDbProxyObject
 90
      499
 91
      503
 93
      249
310
90D332F333222203D2031272D30220000000000002E0FC000000000000284000
  0
ACAD_PROXY_OBJECT
  5
5E
102
{ACAD_REACTORS
330
47
102
}
330
47
100
AcDbProxyObject
 90
      499
 91
      503
 93
      241
310
90C312F3822203D2031272D3022000000000000300FC000000000000284000
  0
ACAD_PROXY_OBJECT
  5
5F
102
{ACAD_REACTORS
330
47
102
}
330
47
100
AcDbProxyObject
 90
      499
 91
      503
 93
      249
310
90D332F313622203D2031272D3022000000000000320FC000000000000284000
  0
ACAD_PROXY_OBJECT
  5
60
102
{ACAD_REACTORS
330
47
102
}
330
47
100
AcDbProxyObject
 90
      499
 91
      503
 93
      241
310
90C312F3422203D2031272D3022000000000000340FC000000000000284000
  0
ACAD_PROXY_OBJECT
  5
61
102
{ACAD_REACTORS
330
47
102
}
330
47
100
AcDbProxyObject
 90
      499
 91
      503
 93
      241
310
90C332F3822203D2031272D3022000000000000360FC000000000000284000
  0
ACAD_PROXY_OBJECT
  5
62
102
{ACAD_REACTORS
330
47
102
}
330
47
100
AcDbProxyObject
 90
      499
 91
      503
 93
      241
310
90C312F3222203D2031272D3022000000000000380FC000000000000284000
  0
ACAD_PROXY_OBJECT
  5
63
102
{ACAD_REACTORS
330
47
102
}
330
47
100
AcDbProxyObject
 90
      499
 91
      503
 93
      241
310
90C332F3422203D2031272D30220000000000003A0FC000000000000284000
  0
ACAD_PROXY_OBJECT
  5
64
102
{ACAD_REACTORS
330
47
102
}
330
47
100
AcDbProxyObject
 90
      499
 91
      503
 93
      161
310
90A3122203D2031272D30224000000000000284000
  0
ACAD_PROXY_OBJECT
  5
65
102
{ACAD_REACTORS
330
47
102
}
330
47
100
AcDbProxyObject
 90
      499
 91
      503
 93
      257
310
90E312D312F3222203D2031272D30220000000000003E0FC000000000000284000
  0
ACAD_PROXY_OBJECT
  5
66
102
{ACAD_REACTORS
330
47
102
}
330
47
100
AcDbProxyObject
 90
      499
 91
      503
 93
      225
310
90A3322203D2031272D302200000000000002100000000000000284000
  0
ACAD_PROXY_OBJECT
  5
67
102
{ACAD_REACTORS
330
47
102
}
330
47
100
AcDbProxyObject
 90
      499
 91
      503
 93
      225
310
90A3622203D2031272D302200000000000006100000000000000284000
  0
ACAD_PROXY_OBJECT
  5
68
102
{ACAD_REACTORS
330
47
102
}
330
47
100
AcDbProxyObject
 90
      499
 91
      503
 93
      249
310
90D31272D3022203D2031272D30220000000000000A100000000000000284000
  0
ACAD_PROXY_OBJECT
  5
2F
102
{ACAD_REACTORS
330
2A
102
}
330
2A
100
AcDbProxyObject
 90
      499
 91
      501
 93
      436
310
42CC9915DA5C99599C985B595049028333333333333E33F0000000000000F90107901411070040501600405405064090741402480A0340
1001
ACAD
1000
AcDbSavedByObjectVersion
1070
     0
  0
ACAD_PROXY_OBJECT
  5
32
102
{ACAD_REACTORS
330
2A
102
}
330
2A
100
AcDbProxyObject
 90
      499
 91
      501
 93
      388
310
4150985CDA58D07406404333333333333E33F0000000000000F90107A41107004050150841D405064090741402480A0350
1001
ACAD
1000
AcDbSavedByObjectVersion
1070
     0
  0
ACAD_PROXY_OBJECT
  5
36
102
{ACAD_REACTORS
330
2A
102
}
330
2A
100
AcDbProxyObject
 90
      499
 91
      501
 93
      428
310
42109C9A59DA1D195B90C409028333333333333E33F0000000000000F9010790141107004050150841D405064090741402480A029950
1001
ACAD
1000
AcDbSavedByObjectVersion
1070
     0
  0
ACAD_PROXY_OBJECT
  5
3A
102
{ACAD_REACTORS
330
2A
102
}
330
2A
100
AcDbProxyObject
 90
      499
 91
      501
 93
      452
310
42D0DBDB1BDC90DA185B99D95104090240C333333333333E33F0000000000000F90108901411070040501508421405064090741402480A0350
1001
ACAD
1000
AcDbSavedByObjectVersion
1070
     0
  0
ACAD_PROXY_OBJECT
  5
34
102
{ACAD_REACTORS
330
2A
102
}
330
2A
100
AcDbProxyObject
 90
      499
 91
      501
 93
      500
310
4290DBDB98D95C1D1D585B10940D028333333333333E33F0000000000000F90107902409070040501000000000018199010841D405064090740C02480A0340
1001
ACAD
1000
AcDbSavedByObjectVersion
1070
     0
  0
ACAD_PROXY_OBJECT
  5
35
102
{ACAD_REACTORS
330
2A
102
}
330
2A
100
AcDbProxyObject
 90
      499
 91
      501
 93
      412
310
40D11A5B50B409028333333333333E33F0000000000000F9010790141107004050150841D405064090741402480A02677FFFFFD0
1001
ACAD
1000
AcDbSavedByObjectVersion
1070
     0
  0
ACAD_PROXY_OBJECT
  5
3D
102
{ACAD_REACTORS
330
2A
102
}
330
2A
100
AcDbProxyObject
 90
      499
 91
      501
 93
      452
310
43115919D950DBDB1BDC93D999916409028333333333333E33F0000000000000F9010790141107004050150841D405064090741402480A0350
1001
ACAD
1000
AcDbSavedByObjectVersion
1070
     0
  0
ACAD_PROXY_OBJECT
  5
39
102
{ACAD_REACTORS
330
2A
102
}
330
2A
100
AcDbProxyObject
 90
      499
 91
      501
 93
      444
310
42D19858D95C185D1D195C9B90F409028333333333333E33F0000000000000F9010790141107004050150841D405064090741402480A0350
1001
ACAD
1000
AcDbSavedByObjectVersion
1070
     0
  0
ACAD_PROXY_OBJECT
  5
2B
102
{ACAD_REACTORS
330
2A
102
}
330
2A
100
AcDbProxyObject
 90
      499
 91
      501
 93
      380
310
41119B185D240901404333333333333E33F0000000000000F9010740A907004050150841D405064090741402480A1B50
1001
ACAD
1000
AcDbSavedByObjectVersion
1070
     0
  0
ACAD_PROXY_OBJECT
  5
2C
102
{ACAD_REACTORS
330
2A
102
}
330
2A
100
AcDbProxyObject
 90
      499
 91
      501
 93
      468
310
43519B185D15DA5D1A115919D95CD0140901404333333333333E33F0000000000000F90107409019070040501600405405064090741402480A1B50
1001
ACAD
1000
AcDbSavedByObjectVersion
1070
     0
  0
ACAD_PROXY_OBJECT
  5
2D
102
{ACAD_REACTORS
330
2A
102
}
330
2A
100
AcDbProxyObject
 90
      499
 91
      501
 93
      404
310
41D1DBDD5C985D5910240902404333333333333E33F0000000000000F9010740A9070040501641D405064090741402480A1B50
1001
ACAD
1000
AcDbSavedByObjectVersion
1070
     0
  0
ACAD_PROXY_OBJECT
  5
2E
102
{ACAD_REACTORS
330
2A
102
}
330
2A
100
AcDbProxyObject
 90
      499
 91
      501
 93
      492
310
4411DBDD5C985D5915DA5D1A115919D95CD0340902404333333333333E33F0000000000000F90107409019070040501600405405064090741402480A1B50
1001
ACAD
1000
AcDbSavedByObjectVersion
1070
     0
  0
ACAD_PROXY_OBJECT
  5
31
102
{ACAD_REACTORS
330
2A
102
}
330
2A
100
AcDbProxyObject
 90
      499
 91
      501
 93
      476
310
41921A5919195B90640502408333333333333E33F0000000000000F901079024090700405020000000000001110200405405064090740C02480A0340
1001
ACAD
1000
AcDbSavedByObjectVersion
1070
     0
  0
ACAD_PROXY_OBJECT
  5
3B
102
{ACAD_REACTORS
330
2A
102
}
330
2A
100
AcDbProxyObject
 90
      499
 91
      501
 93
      428
310
42529A5D1D195C93D999914409028333333333333E33F0000000000000F9010790141107004050150A41D405064090741402480A0350
1001
ACAD
1000
AcDbSavedByObjectVersion
1070
     0
  0
ACAD_PROXY_OBJECT
  5
38
102
{ACAD_REACTORS
330
2A
102
}
330
2A
100
AcDbProxyObject
 90
      499
 91
      501
 93
      444
310
42D31A5B995C185D1D195C9B90E409028333333333333E33F0000000000000F9010790141107004050750841D405064090741402483A0350
1001
ACAD
1000
AcDbSavedByObjectVersion
1070
     0
  0
ACAD_PROXY_OBJECT
  5
3C
102
{ACAD_REACTORS
330
2A
102
}
330
2A
100
AcDbProxyObject
 90
      499
 91
      501
 93
      444
310
42D3DD995C9A185B99D3D999915409028333333333333E33F0000000000000F9010790141107004050150941D405064090741402480A0350
1001
ACAD
1000
AcDbSavedByObjectVersion
1070
     0
  0
ACAD_PROXY_OBJECT
  5
33
102
{ACAD_REACTORS
330
2A
102
}
330
2A
100
AcDbProxyObject
 90
      499
 91
      501
 93
      428
310
425499585B1A5CDD1A58D08409038333333333333E33F0000000000000F9010740A907004050150800405405064090740C02480A1B40
1001
ACAD
1000
AcDbSavedByObjectVersion
1070
     0
  0
ACAD_PROXY_OBJECT
  5
42
102
{ACAD_REACTORS
330
2A
102
}
330
2A
100
AcDbProxyObject
 90
      499
 91
      501
 93
      420
310
4194DA1859195911B40902404333333333333E33F0000000000000F9010740A41107004050150800405405064090840C02480A0B40
1001
ACAD
1000
AcDbSavedByObjectVersion
1070
     0
  0
ACAD_PROXY_OBJECT
  5
41
102
{ACAD_REACTORS
330
2A
102
}
330
2A
100
AcDbProxyObject
 90
      499
 91
      501
 93
      516
310
4454DA18591959081DDA5D1A08195919D95CD1A40902404333333333333E33F0000000000000F901074090142907004050250800405405064090740C02480A0B40
1001
ACAD
1000
AcDbSavedByObjectVersion
1070
     0
  0
ACAD_PROXY_OBJECT
  5
3E
102
{ACAD_REACTORS
330
2A
102
}
330
2A
100
AcDbProxyObject
 90
      499
 91
      501
 93
      532
310
4394DA1859195CC81BD98811DC985E5174090240C333333333333E33F0000000000000F901079024090741D01000000000000111010841D405064090740C02480A0340
1001
ACAD
1000
AcDbSavedByObjectVersion
1070
     0
  0
ACAD_PROXY_OBJECT
  5
3F
102
{ACAD_REACTORS
330
2A
102
}
330
2A
100
AcDbProxyObject
 90
      499
 91
      501
 93
      476
310
41D4DAD95D18DA1E51840502408333333333333E33F0000000000000F901079024090741D01000000000000111010B41D405064090741802480A0340
1001
ACAD
1000
AcDbSavedByObjectVersion
1070
     0
  0
ACAD_PROXY_OBJECT
  5
37
102
{ACAD_REACTORS
330
2A
102
}
330
2A
100
AcDbProxyObject
 90
      499
 91
      501
 93
      412
310
41D51A1A58DAD95B90D409028333333333333E33F0000000000000F9010790141107004050150C41D405064090741402480A0350
1001
ACAD
1000
AcDbSavedByObjectVersion
1070
     0
  0
ACAD_PROXY_OBJECT
  5
30
102
{ACAD_REACTORS
330
2A
102
}
330
2A
100
AcDbProxyObject
 90
      499
 91
      501
 93
      420
310
4255DA5C99599C985B595059028333333333333E33F0000000000000F90107901411070040501600405405064090740C02480A0340
1001
ACAD
1000
AcDbSavedByObjectVersion
1070
     0
  0
ACAD_PROXY_OBJECT
  5
40
102
{ACAD_REACTORS
330
2A
102
}
330
2A
100
AcDbProxyObject
 90
      499
 91
      501
 93
      404
310
41560B54985E51940902404000000000000E03F0000000000000F9010740501907004050150841D405064090740C02480A1B40
1001
ACAD
1000
AcDbSavedByObjectVersion
1070
     0
  0
XRECORD
  5
2DA
102
{ACAD_REACTORS
330
2D0
102
}
330
2D0
100
AcDbXrecord
340
0
  0
XRECORD
  5
2D9
102
{ACAD_REACTORS
330
2D0
102
}
330
2D0
100
AcDbXrecord
 90
        0
  0
XRECORD
  5
2F0
102
{ACAD_REACTORS
330
2D0
102
}
330
2D0
100
AcDbXrecord
1000
DSTYLE
1002
{
1070
   179
 70
     1
1070
   171
 70
     3
1070
   143
 40
0.03937
1070
   274
 70
     3
1070
   285
 70
     8
1070
    41
 40
2.5
1070
   141
 40
2.5
1070
   176
 70
     7
1070
   177
 70
     7
1070
   178
 70
     7
1070
   271
 70
     2
1070
    43
 40
3.75
1070
   278
 70
    44
1070
    44
 40
1.25
1070
    42
 40
0.625
1070
   147
 40
0.625
1070
   371
 70
    13
1070
   372
 70
    13
1070
    77
 70
     1
1070
   272
 70
     2
1070
    73
 70
     0
1070
   172
 70
     1
1070
    74
 70
     0
1070
   283
 70
     0
1070
   340
340
73
1070
   140
 40
3.5
1070
   284
 70
     8
1070
   288
 70
     1
1070
    78
 70
     8
1002
}
  0
XRECORD
  5
2DB
102
{ACAD_REACTORS
330
2D0
102
}
330
2D0
100
AcDbXrecord
  1
{70646662-6265-7376-b362-307830757171}
  0
XRECORD
  5
2D3
102
{ACAD_REACTORS
330
2D0
102
}
330
2D0
100
AcDbXrecord
  1

  0
XRECORD
  5
2D8
102
{ACAD_REACTORS
330
2D0
102
}
330
2D0
100
AcDbXrecord
 90
        0
  0
XRECORD
  5
2D5
102
{ACAD_REACTORS
330
2D0
102
}
330
2D0
100
AcDbXrecord
340
1A
  0
XRECORD
  5
2D7
102
{ACAD_REACTORS
330
2D0
102
}
330
2D0
100
AcDbXrecord
 90
    10269
  0
XRECORD
  5
2D6
102
{ACAD_REACTORS
330
2D0
102
}
330
2D0
100
AcDbXrecord
340
19
  0
XRECORD
  5
2DD
102
{ACAD_REACTORS
330
2D0
102
}
330
2D0
100
AcDbXrecord
 40
0.0
  0
XRECORD
  5
2E0
102
{ACAD_REACTORS
330
2D0
102
}
330
2D0
100
AcDbXrecord
340
0
  0
XRECORD
  5
2E6
102
{ACAD_REACTORS
330
2D0
102
}
330
2D0
100
AcDbXrecord
 10
0.0
 20
0.0
 30
0.0
  0
XRECORD
  5
2E2
102
{ACAD_REACTORS
330
2D0
102
}
330
2D0
100
AcDbXrecord
 10
0.0
 20
0.0
 30
0.0
  0
XRECORD
  5
2E5
102
{ACAD_REACTORS
330
2D0
102
}
330
2D0
100
AcDbXrecord
 10
0.0
 20
0.0
 30
0.0
  0
XRECORD
  5
2E3
102
{ACAD_REACTORS
330
2D0
102
}
330
2D0
100
AcDbXrecord
 10
0.0
 20
0.0
 30
0.0
  0
XRECORD
  5
2E4
102
{ACAD_REACTORS
330
2D0
102
}
330
2D0
100
AcDbXrecord
 10
0.0
 20
0.0
 30
0.0
  0
XRECORD
  5
2E1
102
{ACAD_REACTORS
330
2D0
102
}
330
2D0
100
AcDbXrecord
 10
0.0
 20
0.0
 30
0.0
  0
XRECORD
  5
2DE
102
{ACAD_REACTORS
330
2D0
102
}
330
2D0
100
AcDbXrecord
340
0
  0
XRECORD
  5
2DF
102
{ACAD_REACTORS
330
2D0
102
}
330
2D0
100
AcDbXrecord
 70
     0
  0
XRECORD
  5
2D4
102
{ACAD_REACTORS
330
2D0
102
}
330
2D0
100
AcDbXrecord
  1

  0
XRECORD
  5
2D1
102
{ACAD_REACTORS
330
2D0
102
}
330
2D0
100
AcDbXrecord
 90
        1
  0
XRECORD
  5
2D2
102
{ACAD_REACTORS
330
2D0
102
}
330
2D0
100
AcDbXrecord
 90
       70
  0
XRECORD
  5
2E9
102
{ACAD_REACTORS
330
2D0
102
}
330
2D0
100
AcDbXrecord
340
0
  0
XRECORD
  5
2EF
102
{ACAD_REACTORS
330
2D0
102
}
330
2D0
100
AcDbXrecord
 10
0.0
 20
0.0
 30
0.0
  0
XRECORD
  5
2EB
102
{ACAD_REACTORS
330
2D0
102
}
330
2D0
100
AcDbXrecord
 10
0.0
 20
0.0
 30
0.0
  0
XRECORD
  5
2EE
102
{ACAD_REACTORS
330
2D0
102
}
330
2D0
100
AcDbXrecord
 10
0.0
 20
0.0
 30
0.0
  0
XRECORD
  5
2EC
102
{ACAD_REACTORS
330
2D0
102
}
330
2D0
100
AcDbXrecord
 10
0.0
 20
0.0
 30
0.0
  0
XRECORD
  5
2ED
102
{ACAD_REACTORS
330
2D0
102
}
330
2D0
100
AcDbXrecord
 10
0.0
 20
0.0
 30
0.0
  0
XRECORD
  5
2EA
102
{ACAD_REACTORS
330
2D0
102
}
330
2D0
100
AcDbXrecord
 10
0.0
 20
0.0
 30
0.0
  0
XRECORD
  5
2E7
102
{ACAD_REACTORS
330
2D0
102
}
330
2D0
100
AcDbXrecord
340
0
  0
XRECORD
  5
2E8
102
{ACAD_REACTORS
330
2D0
102
}
330
2D0
100
AcDbXrecord
 70
     0
  0
XRECORD
  5
2DC
102
{ACAD_REACTORS
330
2D0
102
}
330
2D0
100
AcDbXrecord
  1
{FAEB1C32-E019-11D5-929B-00C0DF256EC4}
  0
DICTIONARYVAR
  5
308
102
{ACAD_REACTORS
330
6E
102
}
330
6E
100
DictionaryVariables
280
     0
  1
1:1
  0
DICTIONARYVAR
  5
2F2
102
{ACAD_REACTORS
330
6E
102
}
330
6E
100
DictionaryVariables
280
     0
  1
Standard
  0
DICTIONARYVAR
  5
2F1
102
{ACAD_REACTORS
330
6E
102
}
330
6E
100
DictionaryVariables
280
     0
  1
Onshape-Standard
  0
DICTIONARYVAR
  5
2F5
102
{ACAD_REACTORS
330
6E
102
}
330
6E
100
DictionaryVariables
280
     0
  1
2
  0
DICTIONARYVAR
  5
2F6
102
{ACAD_REACTORS
330
6E
102
}
330
6E
100
DictionaryVariables
280
     0
  1
1
  0
DICTIONARYVAR
  5
309
102
{ACAD_REACTORS
330
6E
102
}
330
6E
100
DictionaryVariables
280
     0
  1
1
  0
DICTIONARYVAR
  5
6F
102
{ACAD_REACTORS
330
6E
102
}
330
6E
100
DictionaryVariables
280
     0
  1
0
  0
XRECORD
  5
26F
102
{ACAD_REACTORS
330
26E
102
}
330
26E
100
AcDbXrecord
 70
     0
  0
XRECORD
  5
272
102
{ACAD_REACTORS
330
26E
102
}
330
26E
100
AcDbXrecord
 90
        0
  0
ACAD_PROXY_OBJECT
  5
278
102
{ACAD_REACTORS
330
26E
102
}
330
26E
100
AcDbProxyObject
 90
      499
 91
      512
 93
       34
310
40C8804040
  0
XRECORD
  5
277
102
{ACAD_REACTORS
330
26E
102
}
330
26E
100
AcDbXrecord
 90
        5
  0
XRECORD
  5
273
102
{ACAD_REACTORS
330
26E
102
}
330
26E
100
AcDbXrecord
 90
        0
  0
XRECORD
  5
275
102
{ACAD_REACTORS
330
26E
102
}
330
26E
100
AcDbXrecord
 90
        0
  0
ACAD_PROXY_OBJECT
  5
276
102
{ACAD_REACTORS
330
26E
102
}
330
26E
100
AcDbProxyObject
 90
      499
 91
      512
 93
       34
310
40C8804040
  0
ACAD_PROXY_OBJECT
  5
274
102
{ACAD_REACTORS
330
26E
102
}
330
26E
100
AcDbProxyObject
 90
      499
 91
      512
 93
       34
310
40C8804040
  0
XRECORD
  5
271
102
{ACAD_REACTORS
330
26E
102
}
330
26E
100
AcDbXrecord
 90
        0
  0
XRECORD
  5
270
102
{ACAD_REACTORS
330
26E
102
}
330
26E
100
AcDbXrecord
 90
        1
  0
DICTIONARY
  5
30C
330
45
100
AcDbDictionary
280
     1
  3
ACAD_XREC_ROUNDTRIP
360
30D
  0
DICTIONARY
  5
30A
330
44
100
AcDbDictionary
280
     1
  3
ACAD_XREC_ROUNDTRIP
360
30B
  0
DICTIONARY
  5
30E
330
46
100
AcDbDictionary
280
     1
  3
ACAD_XREC_ROUNDTRIP
360
30F
  0
XRECORD
  5
30D
102
{ACAD_REACTORS
330
30C
102
}
330
30C
100
AcDbXrecord
102
MATERIAL
148
0.0
149
0.0
149
0.0
 93
        0
 94
      127
282
     0
 72
     1
 77
     1
171
     1
175
     1
179
     1
273
     0
  0
XRECORD
  5
30B
102
{ACAD_REACTORS
330
30A
102
}
330
30A
100
AcDbXrecord
102
MATERIAL
148
0.0
149
0.0
149
0.0
 93
        0
 94
      127
282
     0
 72
     1
 77
     1
171
     1
175
     1
179
     1
273
     0
  0
XRECORD
  5
30F
102
{ACAD_REACTORS
330
30E
102
}
330
30E
100
AcDbXrecord
102
MATERIAL
148
0.0
149
0.0
149
0.0
 93
        0
 94
      127
282
     0
 72
     1
 77
     1
171
     1
175
     1
179
     1
273
     0
  0
ENDSEC
  0
EOF
