ISO-10303-21;
HEADER;
/*Generated by software containing ST-Developer
 * from STEP Tools, Inc. (www.steptools.com) 
 */
/*OPTION: using custom renumber hook */
/*description */
/*implementation_level */
FILE_DESCRIPTION(('STEP AP242 Edition 2','STEP AP242 Edition 2''CAx-IF Rec.Pracs.---Representation and Presentation of Product Manufa
cturing Information (PMI)---4.0---2014-10-13','STEP AP242 Edition 2''CAx-IF Rec.Pracs.---Representation and Presentation of Product Manufa
cturing Information (PMI)---4.0---2014-10-13''CAx-IF Rec.Pracs.---3D Tessellated Geometry---0.4---2014-09-14','STEP AP242 Edition 2''CAx-IF Rec.Pracs.---Representation and Presentation of Product Manufa
cturing Information (PMI)---4.0---2014-10-13''CAx-IF Rec.Pracs.---3D Tessellated Geometry---0.4---2014-09-14''2;1','STEP AP242 Edition 2''CAx-IF Rec.Pracs.---Representation and Presentation of Product Manufa
cturing Information (PMI)---4.0---2014-10-13''CAx-IF Rec.Pracs.---3D Tessellated Geometry---0.4---2014-09-14''2;1''CAx-IF Rec.Pracs.---User Defined Attributes---1.5---2016-08-15'),'2;1');
/*name */
/*time_stamp */
/*author */
/*organization */
/*preprocessor_version */
/*originating_system */
/*authorisation */
FILE_NAME('/vol/tmp/translate-15098707843923255239/c5913724-3f5b-44ba-8ac7-c1c928055857.step','2026-03-04T07:38:07',(''),(''),'ST-DEVELOPER v20','ONSHAPE BY PTC INC, 1.211','  ');
FILE_SCHEMA(('AP242_MANAGED_MODEL_BASED_3D_ENGINEERING_MIM_LF { 1 0 10303 442 3 1 4 }'));
ENDSEC;
DATA;
#10=SHAPE_REPRESENTATION_RELATIONSHIP('','',#199,#11);
#11=ADVANCED_BREP_SHAPE_REPRESENTATION('',(#197),#309);
#12=ORIENTED_EDGE('',*,*,#60,.F.);
#13=ORIENTED_EDGE('',*,*,#61,.T.);
#14=ORIENTED_EDGE('',*,*,#62,.T.);
#15=ORIENTED_EDGE('',*,*,#63,.F.);
#16=ORIENTED_EDGE('',*,*,#64,.T.);
#17=ORIENTED_EDGE('',*,*,#65,.T.);
#18=ORIENTED_EDGE('',*,*,#60,.T.);
#19=ORIENTED_EDGE('',*,*,#66,.T.);
#20=ORIENTED_EDGE('',*,*,#67,.F.);
#21=ORIENTED_EDGE('',*,*,#68,.F.);
#22=ORIENTED_EDGE('',*,*,#69,.T.);
#23=ORIENTED_EDGE('',*,*,#70,.F.);
#24=ORIENTED_EDGE('',*,*,#71,.T.);
#25=ORIENTED_EDGE('',*,*,#72,.F.);
#26=ORIENTED_EDGE('',*,*,#73,.F.);
#27=ORIENTED_EDGE('',*,*,#68,.T.);
#28=ORIENTED_EDGE('',*,*,#74,.F.);
#29=ORIENTED_EDGE('',*,*,#75,.T.);
#30=ORIENTED_EDGE('',*,*,#76,.F.);
#31=ORIENTED_EDGE('',*,*,#72,.T.);
#32=ORIENTED_EDGE('',*,*,#77,.T.);
#33=ORIENTED_EDGE('',*,*,#78,.F.);
#34=ORIENTED_EDGE('',*,*,#62,.F.);
#35=ORIENTED_EDGE('',*,*,#79,.F.);
#36=ORIENTED_EDGE('',*,*,#80,.F.);
#37=ORIENTED_EDGE('',*,*,#66,.F.);
#38=ORIENTED_EDGE('',*,*,#63,.T.);
#39=ORIENTED_EDGE('',*,*,#78,.T.);
#40=ORIENTED_EDGE('',*,*,#81,.F.);
#41=ORIENTED_EDGE('',*,*,#69,.F.);
#42=ORIENTED_EDGE('',*,*,#73,.T.);
#43=ORIENTED_EDGE('',*,*,#76,.T.);
#44=ORIENTED_EDGE('',*,*,#67,.T.);
#45=ORIENTED_EDGE('',*,*,#80,.T.);
#46=ORIENTED_EDGE('',*,*,#77,.F.);
#47=ORIENTED_EDGE('',*,*,#71,.F.);
#48=ORIENTED_EDGE('',*,*,#81,.T.);
#49=ORIENTED_EDGE('',*,*,#75,.F.);
#50=ORIENTED_EDGE('',*,*,#82,.F.);
#51=ORIENTED_EDGE('',*,*,#70,.T.);
#52=ORIENTED_EDGE('',*,*,#61,.F.);
#53=ORIENTED_EDGE('',*,*,#65,.F.);
#54=ORIENTED_EDGE('',*,*,#83,.T.);
#55=ORIENTED_EDGE('',*,*,#79,.T.);
#56=ORIENTED_EDGE('',*,*,#64,.F.);
#57=ORIENTED_EDGE('',*,*,#82,.T.);
#58=ORIENTED_EDGE('',*,*,#74,.T.);
#59=ORIENTED_EDGE('',*,*,#83,.F.);
#60=EDGE_CURVE('',#84,#85,#100,.T.);
#61=EDGE_CURVE('',#84,#86,#101,.T.);
#62=EDGE_CURVE('',#86,#87,#102,.T.);
#63=EDGE_CURVE('',#85,#87,#103,.T.);
#64=EDGE_CURVE('',#88,#89,#104,.T.);
#65=EDGE_CURVE('',#89,#84,#105,.T.);
#66=EDGE_CURVE('',#85,#90,#106,.T.);
#67=EDGE_CURVE('',#91,#90,#107,.T.);
#68=EDGE_CURVE('',#92,#91,#108,.T.);
#69=EDGE_CURVE('',#92,#93,#109,.T.);
#70=EDGE_CURVE('',#88,#93,#110,.T.);
#71=EDGE_CURVE('',#91,#94,#111,.T.);
#72=EDGE_CURVE('',#95,#94,#112,.T.);
#73=EDGE_CURVE('',#92,#95,#113,.T.);
#74=EDGE_CURVE('',#96,#97,#114,.T.);
#75=EDGE_CURVE('',#96,#98,#115,.T.);
#76=EDGE_CURVE('',#95,#98,#116,.T.);
#77=EDGE_CURVE('',#94,#99,#117,.T.);
#78=EDGE_CURVE('',#87,#99,#118,.T.);
#79=EDGE_CURVE('',#97,#86,#119,.T.);
#80=EDGE_CURVE('',#90,#99,#120,.T.);
#81=EDGE_CURVE('',#93,#98,#121,.T.);
#82=EDGE_CURVE('',#88,#96,#122,.T.);
#83=EDGE_CURVE('',#89,#97,#123,.T.);
#84=VERTEX_POINT('',#260);
#85=VERTEX_POINT('',#261);
#86=VERTEX_POINT('',#263);
#87=VERTEX_POINT('',#265);
#88=VERTEX_POINT('',#269);
#89=VERTEX_POINT('',#270);
#90=VERTEX_POINT('',#273);
#91=VERTEX_POINT('',#275);
#92=VERTEX_POINT('',#277);
#93=VERTEX_POINT('',#279);
#94=VERTEX_POINT('',#283);
#95=VERTEX_POINT('',#285);
#96=VERTEX_POINT('',#289);
#97=VERTEX_POINT('',#290);
#98=VERTEX_POINT('',#292);
#99=VERTEX_POINT('',#295);
#100=LINE('',#259,#124);
#101=LINE('',#262,#125);
#102=LINE('',#264,#126);
#103=LINE('',#266,#127);
#104=LINE('',#268,#128);
#105=LINE('',#271,#129);
#106=LINE('',#272,#130);
#107=LINE('',#274,#131);
#108=LINE('',#276,#132);
#109=LINE('',#278,#133);
#110=LINE('',#280,#134);
#111=LINE('',#282,#135);
#112=LINE('',#284,#136);
#113=LINE('',#286,#137);
#114=LINE('',#288,#138);
#115=LINE('',#291,#139);
#116=LINE('',#293,#140);
#117=LINE('',#294,#141);
#118=LINE('',#296,#142);
#119=LINE('',#297,#143);
#120=LINE('',#299,#144);
#121=LINE('',#301,#145);
#122=LINE('',#304,#146);
#123=LINE('',#306,#147);
#124=VECTOR('',#215,1.);
#125=VECTOR('',#216,1.);
#126=VECTOR('',#217,1.);
#127=VECTOR('',#218,1.);
#128=VECTOR('',#221,1.);
#129=VECTOR('',#222,1.);
#130=VECTOR('',#223,1.);
#131=VECTOR('',#224,1.);
#132=VECTOR('',#225,1.);
#133=VECTOR('',#226,1.);
#134=VECTOR('',#227,1.);
#135=VECTOR('',#230,1.);
#136=VECTOR('',#231,1.);
#137=VECTOR('',#232,1.);
#138=VECTOR('',#235,1.);
#139=VECTOR('',#236,1.);
#140=VECTOR('',#237,1.);
#141=VECTOR('',#238,1.);
#142=VECTOR('',#239,1.);
#143=VECTOR('',#240,1.);
#144=VECTOR('',#243,1.);
#145=VECTOR('',#246,1.);
#146=VECTOR('',#251,1.);
#147=VECTOR('',#254,1.);
#148=EDGE_LOOP('',(#12,#13,#14,#15));
#149=EDGE_LOOP('',(#16,#17,#18,#19,#20,#21,#22,#23));
#150=EDGE_LOOP('',(#24,#25,#26,#27));
#151=EDGE_LOOP('',(#28,#29,#30,#31,#32,#33,#34,#35));
#152=EDGE_LOOP('',(#36,#37,#38,#39));
#153=EDGE_LOOP('',(#40,#41,#42,#43));
#154=EDGE_LOOP('',(#44,#45,#46,#47));
#155=EDGE_LOOP('',(#48,#49,#50,#51));
#156=EDGE_LOOP('',(#52,#53,#54,#55));
#157=EDGE_LOOP('',(#56,#57,#58,#59));
#158=FACE_BOUND('',#148,.T.);
#159=FACE_BOUND('',#149,.T.);
#160=FACE_BOUND('',#150,.T.);
#161=FACE_BOUND('',#151,.T.);
#162=FACE_BOUND('',#152,.T.);
#163=FACE_BOUND('',#153,.T.);
#164=FACE_BOUND('',#154,.T.);
#165=FACE_BOUND('',#155,.T.);
#166=FACE_BOUND('',#156,.T.);
#167=FACE_BOUND('',#157,.T.);
#168=PLANE('',#201);
#169=PLANE('',#202);
#170=PLANE('',#203);
#171=PLANE('',#204);
#172=PLANE('',#205);
#173=PLANE('',#206);
#174=PLANE('',#207);
#175=PLANE('',#208);
#176=PLANE('',#209);
#177=PLANE('',#210);
#178=ADVANCED_FACE('',(#158),#168,.T.);
#179=ADVANCED_FACE('',(#159),#169,.T.);
#180=ADVANCED_FACE('',(#160),#170,.F.);
#181=ADVANCED_FACE('',(#161),#171,.F.);
#182=ADVANCED_FACE('',(#162),#172,.T.);
#183=ADVANCED_FACE('',(#163),#173,.T.);
#184=ADVANCED_FACE('',(#164),#174,.F.);
#185=ADVANCED_FACE('',(#165),#175,.F.);
#186=ADVANCED_FACE('',(#166),#176,.T.);
#187=ADVANCED_FACE('',(#167),#177,.T.);
#188=CLOSED_SHELL('',(#178,#179,#180,#181,#182,#183,#184,#185,#186,#187));
#189=STYLED_ITEM('',(#190),#197);
#190=PRESENTATION_STYLE_ASSIGNMENT((#191));
#191=SURFACE_STYLE_USAGE(.BOTH.,#192);
#192=SURFACE_SIDE_STYLE('',(#193));
#193=SURFACE_STYLE_FILL_AREA(#194);
#194=FILL_AREA_STYLE('',(#195));
#195=FILL_AREA_STYLE_COLOUR('',#196);
#196=COLOUR_RGB('',0.615686274509804,0.811764705882353,0.929411764705882);
#197=MANIFOLD_SOLID_BREP('einlage_gro\X\DF',#188);
#198=SHAPE_DEFINITION_REPRESENTATION(#314,#199);
#199=SHAPE_REPRESENTATION('einlage_gro\X2\FFFD\X0\',(#200),#309);
#200=AXIS2_PLACEMENT_3D('',#257,#211,#212);
#201=AXIS2_PLACEMENT_3D('',#258,#213,#214);
#202=AXIS2_PLACEMENT_3D('',#267,#219,#220);
#203=AXIS2_PLACEMENT_3D('',#281,#228,#229);
#204=AXIS2_PLACEMENT_3D('',#287,#233,#234);
#205=AXIS2_PLACEMENT_3D('',#298,#241,#242);
#206=AXIS2_PLACEMENT_3D('',#300,#244,#245);
#207=AXIS2_PLACEMENT_3D('',#302,#247,#248);
#208=AXIS2_PLACEMENT_3D('',#303,#249,#250);
#209=AXIS2_PLACEMENT_3D('',#305,#252,#253);
#210=AXIS2_PLACEMENT_3D('',#307,#255,#256);
#211=DIRECTION('',(0.,0.,1.));
#212=DIRECTION('',(1.,0.,0.));
#213=DIRECTION('',(0.,0.,1.));
#214=DIRECTION('',(1.,0.,0.));
#215=DIRECTION('',(0.,1.,0.));
#216=DIRECTION('',(1.,6.37245358522093E-17,0.));
#217=DIRECTION('',(0.,1.,0.));
#218=DIRECTION('',(1.,1.22464679914735E-16,0.));
#219=DIRECTION('',(-1.,0.,0.));
#220=DIRECTION('',(0.,0.,1.));
#221=DIRECTION('',(0.,1.,0.));
#222=DIRECTION('',(0.,0.,1.));
#223=DIRECTION('',(0.,0.,-1.));
#224=DIRECTION('',(0.,1.,0.));
#225=DIRECTION('',(0.,0.,-1.));
#226=DIRECTION('',(0.,1.,0.));
#227=DIRECTION('',(0.,0.,1.));
#228=DIRECTION('',(-1.13288063737261E-16,1.,0.));
#229=DIRECTION('',(-1.,-1.13288063737261E-16,0.));
#230=DIRECTION('',(1.,1.13288063737261E-16,0.));
#231=DIRECTION('',(0.,0.,-1.));
#232=DIRECTION('',(1.,1.13288063737261E-16,0.));
#233=DIRECTION('',(-1.,0.,0.));
#234=DIRECTION('',(0.,0.,1.));
#235=DIRECTION('',(0.,1.,0.));
#236=DIRECTION('',(0.,0.,1.));
#237=DIRECTION('',(0.,1.,0.));
#238=DIRECTION('',(0.,1.,0.));
#239=DIRECTION('',(0.,0.,-1.));
#240=DIRECTION('',(0.,0.,1.));
#241=DIRECTION('',(-1.22464679914735E-16,1.,0.));
#242=DIRECTION('',(-1.,-1.22464679914735E-16,0.));
#243=DIRECTION('',(1.,1.22464679914735E-16,0.));
#244=DIRECTION('',(0.,0.,1.));
#245=DIRECTION('',(1.,0.,0.));
#246=DIRECTION('',(1.,1.27449071704418E-16,0.));
#247=DIRECTION('',(0.,0.,1.));
#248=DIRECTION('',(1.,0.,0.));
#249=DIRECTION('',(1.27449071704418E-16,-1.,0.));
#250=DIRECTION('',(1.,1.27449071704418E-16,0.));
#251=DIRECTION('',(1.,1.27449071704418E-16,0.));
#252=DIRECTION('',(6.37245358522093E-17,-1.,0.));
#253=DIRECTION('',(1.,6.37245358522093E-17,0.));
#254=DIRECTION('',(1.,6.37245358522093E-17,0.));
#255=DIRECTION('',(0.,0.,1.));
#256=DIRECTION('',(1.,0.,0.));
#257=CARTESIAN_POINT('',(0.,0.,0.));
#258=CARTESIAN_POINT('',(0.245,-0.039,0.01));
#259=CARTESIAN_POINT('',(1.83697019872104E-18,-0.039,0.01));
#260=CARTESIAN_POINT('',(1.83697019872104E-18,-0.03,0.01));
#261=CARTESIAN_POINT('',(1.83697019872104E-18,-2.77555756156289E-17,0.01));
#262=CARTESIAN_POINT('',(0.245,-0.03,0.01));
#263=CARTESIAN_POINT('',(0.49,-0.03,0.01));
#264=CARTESIAN_POINT('',(0.49,-0.039,0.01));
#265=CARTESIAN_POINT('',(0.49,3.36635488223477E-17,0.01));
#266=CARTESIAN_POINT('',(0.245,3.65970224323748E-18,0.01));
#267=CARTESIAN_POINT('',(1.83697019872104E-18,-0.039,0.01));
#268=CARTESIAN_POINT('',(1.83697019872104E-18,-0.039,0.005));
#269=CARTESIAN_POINT('',(1.83697019872104E-18,-0.048,0.005));
#270=CARTESIAN_POINT('',(1.83697019872104E-18,-0.03,0.005));
#271=CARTESIAN_POINT('',(1.83697019872104E-18,-0.03,0.005));
#272=CARTESIAN_POINT('',(1.83697019872104E-18,-2.77555756156289E-17,0.01));
#273=CARTESIAN_POINT('',(1.83697019872104E-18,-2.77555756156289E-17,0.));
#274=CARTESIAN_POINT('',(1.83697019872104E-18,-0.039,0.));
#275=CARTESIAN_POINT('',(1.83697019872104E-18,-0.078,0.));
#276=CARTESIAN_POINT('',(1.83697019872104E-18,-0.078,0.01));
#277=CARTESIAN_POINT('',(1.83697019872104E-18,-0.078,0.01));
#278=CARTESIAN_POINT('',(1.83697019872104E-18,-0.039,0.01));
#279=CARTESIAN_POINT('',(1.83697019872104E-18,-0.048,0.01));
#280=CARTESIAN_POINT('',(1.83697019872104E-18,-0.048,0.005));
#281=CARTESIAN_POINT('',(0.245,-0.078,0.01));
#282=CARTESIAN_POINT('',(0.245,-0.078,0.));
#283=CARTESIAN_POINT('',(0.49,-0.078,0.));
#284=CARTESIAN_POINT('',(0.49,-0.078,0.01));
#285=CARTESIAN_POINT('',(0.49,-0.078,0.01));
#286=CARTESIAN_POINT('',(0.245,-0.078,0.01));
#287=CARTESIAN_POINT('',(0.49,-0.039,0.01));
#288=CARTESIAN_POINT('',(0.49,-0.039,0.005));
#289=CARTESIAN_POINT('',(0.49,-0.048,0.005));
#290=CARTESIAN_POINT('',(0.49,-0.03,0.005));
#291=CARTESIAN_POINT('',(0.49,-0.048,0.005));
#292=CARTESIAN_POINT('',(0.49,-0.048,0.01));
#293=CARTESIAN_POINT('',(0.49,-0.039,0.01));
#294=CARTESIAN_POINT('',(0.49,-0.039,0.));
#295=CARTESIAN_POINT('',(0.49,3.36635488223477E-17,0.));
#296=CARTESIAN_POINT('',(0.49,3.36635488223477E-17,0.01));
#297=CARTESIAN_POINT('',(0.49,-0.03,0.005));
#298=CARTESIAN_POINT('',(0.245,3.65970224323748E-18,0.01));
#299=CARTESIAN_POINT('',(0.245,3.65970224323748E-18,0.));
#300=CARTESIAN_POINT('',(0.245,-0.039,0.01));
#301=CARTESIAN_POINT('',(0.245,-0.048,0.01));
#302=CARTESIAN_POINT('',(0.245,-0.039,0.));
#303=CARTESIAN_POINT('',(0.245,-0.048,0.005));
#304=CARTESIAN_POINT('',(0.245,-0.048,0.005));
#305=CARTESIAN_POINT('',(0.245,-0.03,0.005));
#306=CARTESIAN_POINT('',(0.245,-0.03,0.005));
#307=CARTESIAN_POINT('',(0.245,-0.039,0.005));
#308=MECHANICAL_DESIGN_GEOMETRIC_PRESENTATION_REPRESENTATION('',(#189),#309);
#309=(
GEOMETRIC_REPRESENTATION_CONTEXT(3)
GLOBAL_UNCERTAINTY_ASSIGNED_CONTEXT((#310))
GLOBAL_UNIT_ASSIGNED_CONTEXT((#313,#312,#311))
REPRESENTATION_CONTEXT('einlage_gro\X2\FFFD\X0\','TOP_LEVEL_ASSEMBLY_PART')
);
#310=UNCERTAINTY_MEASURE_WITH_UNIT(LENGTH_MEASURE(1.E-08),#313,'DISTANCE_ACCURACY_VALUE','Maximum Tolerance applied to model');
#311=(
NAMED_UNIT(*)
SI_UNIT($,.STERADIAN.)
SOLID_ANGLE_UNIT()
);
#312=(
NAMED_UNIT(*)
PLANE_ANGLE_UNIT()
SI_UNIT($,.RADIAN.)
);
#313=(
LENGTH_UNIT()
NAMED_UNIT(*)
SI_UNIT($,.METRE.)
);
#314=PRODUCT_DEFINITION_SHAPE('','',#315);
#315=PRODUCT_DEFINITION('','',#317,#316);
#316=PRODUCT_DEFINITION_CONTEXT('',#323,'design');
#317=PRODUCT_DEFINITION_FORMATION_WITH_SPECIFIED_SOURCE('','',#319,.NOT_KNOWN.);
#318=PRODUCT_RELATED_PRODUCT_CATEGORY('','',(#319));
#319=PRODUCT('einlage_gro\X2\FFFD\X0\','einlage_gro\X2\FFFD\X0\','einlage_gro\X2\FFFD\X0\',(#321));
#320=PRODUCT_CATEGORY('','');
#321=PRODUCT_CONTEXT('',#323,'mechanical');
#322=APPLICATION_PROTOCOL_DEFINITION('international standard','ap242_managed_model_based_3d_engineering',2020,#323);
#323=APPLICATION_CONTEXT('managed model based 3d engineering');
ENDSEC;
END-ISO-10303-21;
