ISO-10303-21;
HEADER;
/*Generated by software containing ST-Developer
 * from STEP Tools, Inc. (www.steptools.com) 
 */
/*OPTION: using custom renumber hook */
/*description */
/*implementation_level */
FILE_DESCRIPTION(('STEP AP242 Edition 2','STEP AP242 Edition 2''CAx-IF Rec.Pracs.---Representation and Presentation of Product Manufa
cturing Information (PMI)---4.0---2014-10-13','STEP AP242 Edition 2''CAx-IF Rec.Pracs.---Representation and Presentation of Product Manufa
cturing Information (PMI)---4.0---2014-10-13''CAx-IF Rec.Pracs.---3D Tessellated Geometry---0.4---2014-09-14','STEP AP242 Edition 2''CAx-IF Rec.Pracs.---Representation and Presentation of Product Manufa
cturing Information (PMI)---4.0---2014-10-13''CAx-IF Rec.Pracs.---3D Tessellated Geometry---0.4---2014-09-14''2;1','STEP AP242 Edition 2''CAx-IF Rec.Pracs.---Representation and Presentation of Product Manufa
cturing Information (PMI)---4.0---2014-10-13''CAx-IF Rec.Pracs.---3D Tessellated Geometry---0.4---2014-09-14''2;1''CAx-IF Rec.Pracs.---User Defined Attributes---1.5---2016-08-15'),'2;1');
/*name */
/*time_stamp */
/*author */
/*organization */
/*preprocessor_version */
/*originating_system */
/*authorisation */
FILE_NAME('/vol/tmp/translate-2860833501908435104/filterplatte.step','2026-03-04T07:36:39',(''),(''),'ST-DEVELOPER v20','ONSHAPE BY PTC INC, 1.211','  ');
FILE_SCHEMA(('AP242_MANAGED_MODEL_BASED_3D_ENGINEERING_MIM_LF { 1 0 10303 442 3 1 4 }'));
ENDSEC;
DATA;
#10=SHAPE_REPRESENTATION_RELATIONSHIP('','',#371,#11);
#11=ADVANCED_BREP_SHAPE_REPRESENTATION('',(#369),#601);
#12=CYLINDRICAL_SURFACE('',#387,0.02);
#13=CYLINDRICAL_SURFACE('',#388,0.02);
#14=CYLINDRICAL_SURFACE('',#389,0.02);
#15=CYLINDRICAL_SURFACE('',#390,0.02);
#16=CIRCLE('',#374,0.02);
#17=CIRCLE('',#375,0.02);
#18=CIRCLE('',#376,0.02);
#19=CIRCLE('',#377,0.02);
#20=CIRCLE('',#379,0.02);
#21=CIRCLE('',#380,0.02);
#22=CIRCLE('',#381,0.02);
#23=CIRCLE('',#382,0.02);
#24=ORIENTED_EDGE('',*,*,#120,.T.);
#25=ORIENTED_EDGE('',*,*,#121,.T.);
#26=ORIENTED_EDGE('',*,*,#122,.F.);
#27=ORIENTED_EDGE('',*,*,#123,.T.);
#28=ORIENTED_EDGE('',*,*,#124,.F.);
#29=ORIENTED_EDGE('',*,*,#125,.T.);
#30=ORIENTED_EDGE('',*,*,#126,.T.);
#31=ORIENTED_EDGE('',*,*,#127,.T.);
#32=ORIENTED_EDGE('',*,*,#128,.T.);
#33=ORIENTED_EDGE('',*,*,#129,.T.);
#34=ORIENTED_EDGE('',*,*,#130,.F.);
#35=ORIENTED_EDGE('',*,*,#131,.F.);
#36=ORIENTED_EDGE('',*,*,#132,.T.);
#37=ORIENTED_EDGE('',*,*,#133,.T.);
#38=ORIENTED_EDGE('',*,*,#134,.F.);
#39=ORIENTED_EDGE('',*,*,#135,.T.);
#40=ORIENTED_EDGE('',*,*,#136,.F.);
#41=ORIENTED_EDGE('',*,*,#137,.T.);
#42=ORIENTED_EDGE('',*,*,#138,.T.);
#43=ORIENTED_EDGE('',*,*,#139,.T.);
#44=ORIENTED_EDGE('',*,*,#140,.F.);
#45=ORIENTED_EDGE('',*,*,#141,.T.);
#46=ORIENTED_EDGE('',*,*,#142,.T.);
#47=ORIENTED_EDGE('',*,*,#143,.F.);
#48=ORIENTED_EDGE('',*,*,#126,.F.);
#49=ORIENTED_EDGE('',*,*,#144,.T.);
#50=ORIENTED_EDGE('',*,*,#136,.T.);
#51=ORIENTED_EDGE('',*,*,#145,.T.);
#52=ORIENTED_EDGE('',*,*,#138,.F.);
#53=ORIENTED_EDGE('',*,*,#146,.T.);
#54=ORIENTED_EDGE('',*,*,#124,.T.);
#55=ORIENTED_EDGE('',*,*,#147,.T.);
#56=ORIENTED_EDGE('',*,*,#122,.T.);
#57=ORIENTED_EDGE('',*,*,#148,.T.);
#58=ORIENTED_EDGE('',*,*,#132,.F.);
#59=ORIENTED_EDGE('',*,*,#149,.T.);
#60=ORIENTED_EDGE('',*,*,#134,.T.);
#61=ORIENTED_EDGE('',*,*,#150,.T.);
#62=ORIENTED_EDGE('',*,*,#120,.F.);
#63=ORIENTED_EDGE('',*,*,#151,.T.);
#64=ORIENTED_EDGE('',*,*,#133,.F.);
#65=ORIENTED_EDGE('',*,*,#148,.F.);
#66=ORIENTED_EDGE('',*,*,#121,.F.);
#67=ORIENTED_EDGE('',*,*,#150,.F.);
#68=ORIENTED_EDGE('',*,*,#137,.F.);
#69=ORIENTED_EDGE('',*,*,#144,.F.);
#70=ORIENTED_EDGE('',*,*,#125,.F.);
#71=ORIENTED_EDGE('',*,*,#146,.F.);
#72=ORIENTED_EDGE('',*,*,#135,.F.);
#73=ORIENTED_EDGE('',*,*,#151,.F.);
#74=ORIENTED_EDGE('',*,*,#127,.F.);
#75=ORIENTED_EDGE('',*,*,#145,.F.);
#76=ORIENTED_EDGE('',*,*,#139,.F.);
#77=ORIENTED_EDGE('',*,*,#147,.F.);
#78=ORIENTED_EDGE('',*,*,#123,.F.);
#79=ORIENTED_EDGE('',*,*,#149,.F.);
#80=ORIENTED_EDGE('',*,*,#141,.F.);
#81=ORIENTED_EDGE('',*,*,#152,.F.);
#82=ORIENTED_EDGE('',*,*,#153,.T.);
#83=ORIENTED_EDGE('',*,*,#154,.T.);
#84=ORIENTED_EDGE('',*,*,#140,.T.);
#85=ORIENTED_EDGE('',*,*,#155,.F.);
#86=ORIENTED_EDGE('',*,*,#156,.F.);
#87=ORIENTED_EDGE('',*,*,#152,.T.);
#88=ORIENTED_EDGE('',*,*,#143,.T.);
#89=ORIENTED_EDGE('',*,*,#157,.F.);
#90=ORIENTED_EDGE('',*,*,#158,.F.);
#91=ORIENTED_EDGE('',*,*,#155,.T.);
#92=ORIENTED_EDGE('',*,*,#142,.F.);
#93=ORIENTED_EDGE('',*,*,#154,.F.);
#94=ORIENTED_EDGE('',*,*,#159,.T.);
#95=ORIENTED_EDGE('',*,*,#157,.T.);
#96=ORIENTED_EDGE('',*,*,#153,.F.);
#97=ORIENTED_EDGE('',*,*,#156,.T.);
#98=ORIENTED_EDGE('',*,*,#158,.T.);
#99=ORIENTED_EDGE('',*,*,#159,.F.);
#100=ORIENTED_EDGE('',*,*,#128,.F.);
#101=ORIENTED_EDGE('',*,*,#160,.F.);
#102=ORIENTED_EDGE('',*,*,#161,.T.);
#103=ORIENTED_EDGE('',*,*,#162,.T.);
#104=ORIENTED_EDGE('',*,*,#131,.T.);
#105=ORIENTED_EDGE('',*,*,#163,.F.);
#106=ORIENTED_EDGE('',*,*,#164,.F.);
#107=ORIENTED_EDGE('',*,*,#160,.T.);
#108=ORIENTED_EDGE('',*,*,#130,.T.);
#109=ORIENTED_EDGE('',*,*,#165,.F.);
#110=ORIENTED_EDGE('',*,*,#166,.F.);
#111=ORIENTED_EDGE('',*,*,#163,.T.);
#112=ORIENTED_EDGE('',*,*,#129,.F.);
#113=ORIENTED_EDGE('',*,*,#162,.F.);
#114=ORIENTED_EDGE('',*,*,#167,.T.);
#115=ORIENTED_EDGE('',*,*,#165,.T.);
#116=ORIENTED_EDGE('',*,*,#161,.F.);
#117=ORIENTED_EDGE('',*,*,#164,.T.);
#118=ORIENTED_EDGE('',*,*,#166,.T.);
#119=ORIENTED_EDGE('',*,*,#167,.F.);
#120=EDGE_CURVE('',#168,#169,#200,.T.);
#121=EDGE_CURVE('',#169,#170,#16,.F.);
#122=EDGE_CURVE('',#171,#170,#201,.T.);
#123=EDGE_CURVE('',#171,#172,#17,.F.);
#124=EDGE_CURVE('',#173,#172,#202,.T.);
#125=EDGE_CURVE('',#173,#174,#18,.F.);
#126=EDGE_CURVE('',#174,#175,#203,.T.);
#127=EDGE_CURVE('',#175,#168,#19,.F.);
#128=EDGE_CURVE('',#176,#177,#204,.T.);
#129=EDGE_CURVE('',#177,#178,#205,.T.);
#130=EDGE_CURVE('',#179,#178,#206,.T.);
#131=EDGE_CURVE('',#176,#179,#207,.T.);
#132=EDGE_CURVE('',#180,#181,#208,.T.);
#133=EDGE_CURVE('',#181,#182,#20,.T.);
#134=EDGE_CURVE('',#183,#182,#209,.T.);
#135=EDGE_CURVE('',#183,#184,#21,.T.);
#136=EDGE_CURVE('',#185,#184,#210,.T.);
#137=EDGE_CURVE('',#185,#186,#22,.T.);
#138=EDGE_CURVE('',#186,#187,#211,.T.);
#139=EDGE_CURVE('',#187,#180,#23,.T.);
#140=EDGE_CURVE('',#188,#189,#212,.T.);
#141=EDGE_CURVE('',#188,#190,#213,.T.);
#142=EDGE_CURVE('',#190,#191,#214,.T.);
#143=EDGE_CURVE('',#189,#191,#215,.T.);
#144=EDGE_CURVE('',#174,#185,#216,.F.);
#145=EDGE_CURVE('',#184,#175,#217,.T.);
#146=EDGE_CURVE('',#186,#173,#218,.T.);
#147=EDGE_CURVE('',#172,#187,#219,.F.);
#148=EDGE_CURVE('',#170,#181,#220,.F.);
#149=EDGE_CURVE('',#180,#171,#221,.T.);
#150=EDGE_CURVE('',#182,#169,#222,.T.);
#151=EDGE_CURVE('',#168,#183,#223,.F.);
#152=EDGE_CURVE('',#192,#188,#224,.T.);
#153=EDGE_CURVE('',#192,#193,#225,.T.);
#154=EDGE_CURVE('',#193,#190,#226,.T.);
#155=EDGE_CURVE('',#194,#189,#227,.T.);
#156=EDGE_CURVE('',#192,#194,#228,.T.);
#157=EDGE_CURVE('',#195,#191,#229,.T.);
#158=EDGE_CURVE('',#194,#195,#230,.T.);
#159=EDGE_CURVE('',#193,#195,#231,.T.);
#160=EDGE_CURVE('',#196,#176,#232,.T.);
#161=EDGE_CURVE('',#196,#197,#233,.T.);
#162=EDGE_CURVE('',#197,#177,#234,.T.);
#163=EDGE_CURVE('',#198,#179,#235,.T.);
#164=EDGE_CURVE('',#196,#198,#236,.T.);
#165=EDGE_CURVE('',#199,#178,#237,.T.);
#166=EDGE_CURVE('',#198,#199,#238,.T.);
#167=EDGE_CURVE('',#197,#199,#239,.T.);
#168=VERTEX_POINT('',#502);
#169=VERTEX_POINT('',#503);
#170=VERTEX_POINT('',#505);
#171=VERTEX_POINT('',#507);
#172=VERTEX_POINT('',#509);
#173=VERTEX_POINT('',#511);
#174=VERTEX_POINT('',#513);
#175=VERTEX_POINT('',#515);
#176=VERTEX_POINT('',#518);
#177=VERTEX_POINT('',#519);
#178=VERTEX_POINT('',#521);
#179=VERTEX_POINT('',#523);
#180=VERTEX_POINT('',#527);
#181=VERTEX_POINT('',#528);
#182=VERTEX_POINT('',#530);
#183=VERTEX_POINT('',#532);
#184=VERTEX_POINT('',#534);
#185=VERTEX_POINT('',#536);
#186=VERTEX_POINT('',#538);
#187=VERTEX_POINT('',#540);
#188=VERTEX_POINT('',#543);
#189=VERTEX_POINT('',#544);
#190=VERTEX_POINT('',#546);
#191=VERTEX_POINT('',#548);
#192=VERTEX_POINT('',#568);
#193=VERTEX_POINT('',#570);
#194=VERTEX_POINT('',#574);
#195=VERTEX_POINT('',#578);
#196=VERTEX_POINT('',#585);
#197=VERTEX_POINT('',#587);
#198=VERTEX_POINT('',#591);
#199=VERTEX_POINT('',#595);
#200=LINE('',#501,#240);
#201=LINE('',#506,#241);
#202=LINE('',#510,#242);
#203=LINE('',#514,#243);
#204=LINE('',#517,#244);
#205=LINE('',#520,#245);
#206=LINE('',#522,#246);
#207=LINE('',#524,#247);
#208=LINE('',#526,#248);
#209=LINE('',#531,#249);
#210=LINE('',#535,#250);
#211=LINE('',#539,#251);
#212=LINE('',#542,#252);
#213=LINE('',#545,#253);
#214=LINE('',#547,#254);
#215=LINE('',#549,#255);
#216=LINE('',#551,#256);
#217=LINE('',#552,#257);
#218=LINE('',#554,#258);
#219=LINE('',#555,#259);
#220=LINE('',#557,#260);
#221=LINE('',#558,#261);
#222=LINE('',#560,#262);
#223=LINE('',#561,#263);
#224=LINE('',#567,#264);
#225=LINE('',#569,#265);
#226=LINE('',#571,#266);
#227=LINE('',#573,#267);
#228=LINE('',#575,#268);
#229=LINE('',#577,#269);
#230=LINE('',#579,#270);
#231=LINE('',#581,#271);
#232=LINE('',#584,#272);
#233=LINE('',#586,#273);
#234=LINE('',#588,#274);
#235=LINE('',#590,#275);
#236=LINE('',#592,#276);
#237=LINE('',#594,#277);
#238=LINE('',#596,#278);
#239=LINE('',#598,#279);
#240=VECTOR('',#405,1.);
#241=VECTOR('',#408,1.);
#242=VECTOR('',#411,1.);
#243=VECTOR('',#414,1.);
#244=VECTOR('',#417,1.);
#245=VECTOR('',#418,1.);
#246=VECTOR('',#419,1.);
#247=VECTOR('',#420,1.);
#248=VECTOR('',#423,1.);
#249=VECTOR('',#426,1.);
#250=VECTOR('',#429,1.);
#251=VECTOR('',#432,1.);
#252=VECTOR('',#435,1.);
#253=VECTOR('',#436,1.);
#254=VECTOR('',#437,1.);
#255=VECTOR('',#438,1.);
#256=VECTOR('',#441,1.);
#257=VECTOR('',#442,1.);
#258=VECTOR('',#445,1.);
#259=VECTOR('',#446,1.);
#260=VECTOR('',#449,1.);
#261=VECTOR('',#450,1.);
#262=VECTOR('',#453,1.);
#263=VECTOR('',#454,1.);
#264=VECTOR('',#465,1.);
#265=VECTOR('',#466,1.);
#266=VECTOR('',#467,1.);
#267=VECTOR('',#470,1.);
#268=VECTOR('',#471,1.);
#269=VECTOR('',#474,1.);
#270=VECTOR('',#475,1.);
#271=VECTOR('',#478,1.);
#272=VECTOR('',#483,1.);
#273=VECTOR('',#484,1.);
#274=VECTOR('',#485,1.);
#275=VECTOR('',#488,1.);
#276=VECTOR('',#489,1.);
#277=VECTOR('',#492,1.);
#278=VECTOR('',#493,1.);
#279=VECTOR('',#496,1.);
#280=EDGE_LOOP('',(#24,#25,#26,#27,#28,#29,#30,#31));
#281=EDGE_LOOP('',(#32,#33,#34,#35));
#282=EDGE_LOOP('',(#36,#37,#38,#39,#40,#41,#42,#43));
#283=EDGE_LOOP('',(#44,#45,#46,#47));
#284=EDGE_LOOP('',(#48,#49,#50,#51));
#285=EDGE_LOOP('',(#52,#53,#54,#55));
#286=EDGE_LOOP('',(#56,#57,#58,#59));
#287=EDGE_LOOP('',(#60,#61,#62,#63));
#288=EDGE_LOOP('',(#64,#65,#66,#67));
#289=EDGE_LOOP('',(#68,#69,#70,#71));
#290=EDGE_LOOP('',(#72,#73,#74,#75));
#291=EDGE_LOOP('',(#76,#77,#78,#79));
#292=EDGE_LOOP('',(#80,#81,#82,#83));
#293=EDGE_LOOP('',(#84,#85,#86,#87));
#294=EDGE_LOOP('',(#88,#89,#90,#91));
#295=EDGE_LOOP('',(#92,#93,#94,#95));
#296=EDGE_LOOP('',(#96,#97,#98,#99));
#297=EDGE_LOOP('',(#100,#101,#102,#103));
#298=EDGE_LOOP('',(#104,#105,#106,#107));
#299=EDGE_LOOP('',(#108,#109,#110,#111));
#300=EDGE_LOOP('',(#112,#113,#114,#115));
#301=EDGE_LOOP('',(#116,#117,#118,#119));
#302=FACE_BOUND('',#280,.T.);
#303=FACE_BOUND('',#281,.T.);
#304=FACE_BOUND('',#282,.T.);
#305=FACE_BOUND('',#283,.T.);
#306=FACE_BOUND('',#284,.T.);
#307=FACE_BOUND('',#285,.T.);
#308=FACE_BOUND('',#286,.T.);
#309=FACE_BOUND('',#287,.T.);
#310=FACE_BOUND('',#288,.T.);
#311=FACE_BOUND('',#289,.T.);
#312=FACE_BOUND('',#290,.T.);
#313=FACE_BOUND('',#291,.T.);
#314=FACE_BOUND('',#292,.T.);
#315=FACE_BOUND('',#293,.T.);
#316=FACE_BOUND('',#294,.T.);
#317=FACE_BOUND('',#295,.T.);
#318=FACE_BOUND('',#296,.T.);
#319=FACE_BOUND('',#297,.T.);
#320=FACE_BOUND('',#298,.T.);
#321=FACE_BOUND('',#299,.T.);
#322=FACE_BOUND('',#300,.T.);
#323=FACE_BOUND('',#301,.T.);
#324=PLANE('',#373);
#325=PLANE('',#378);
#326=PLANE('',#383);
#327=PLANE('',#384);
#328=PLANE('',#385);
#329=PLANE('',#386);
#330=PLANE('',#391);
#331=PLANE('',#392);
#332=PLANE('',#393);
#333=PLANE('',#394);
#334=PLANE('',#395);
#335=PLANE('',#396);
#336=PLANE('',#397);
#337=PLANE('',#398);
#338=PLANE('',#399);
#339=PLANE('',#400);
#340=ADVANCED_FACE('',(#302,#303),#324,.F.);
#341=ADVANCED_FACE('',(#304,#305),#325,.T.);
#342=ADVANCED_FACE('',(#306),#326,.T.);
#343=ADVANCED_FACE('',(#307),#327,.F.);
#344=ADVANCED_FACE('',(#308),#328,.F.);
#345=ADVANCED_FACE('',(#309),#329,.T.);
#346=ADVANCED_FACE('',(#310),#12,.T.);
#347=ADVANCED_FACE('',(#311),#13,.T.);
#348=ADVANCED_FACE('',(#312),#14,.T.);
#349=ADVANCED_FACE('',(#313),#15,.T.);
#350=ADVANCED_FACE('',(#314),#330,.T.);
#351=ADVANCED_FACE('',(#315),#331,.F.);
#352=ADVANCED_FACE('',(#316),#332,.F.);
#353=ADVANCED_FACE('',(#317),#333,.T.);
#354=ADVANCED_FACE('',(#318),#334,.T.);
#355=ADVANCED_FACE('',(#319),#335,.T.);
#356=ADVANCED_FACE('',(#320),#336,.F.);
#357=ADVANCED_FACE('',(#321),#337,.F.);
#358=ADVANCED_FACE('',(#322),#338,.T.);
#359=ADVANCED_FACE('',(#323),#339,.T.);
#360=CLOSED_SHELL('',(#340,#341,#342,#343,#344,#345,#346,#347,#348,#349,#350,#351,#352,#353,#354,#355,#356,#357,#358,#359));
#361=STYLED_ITEM('',(#362),#369);
#362=PRESENTATION_STYLE_ASSIGNMENT((#363));
#363=SURFACE_STYLE_USAGE(.BOTH.,#364);
#364=SURFACE_SIDE_STYLE('',(#365));
#365=SURFACE_STYLE_FILL_AREA(#366);
#366=FILL_AREA_STYLE('',(#367));
#367=FILL_AREA_STYLE_COLOUR('',#368);
#368=COLOUR_RGB('',0.615686274509804,0.811764705882353,0.929411764705882);
#369=MANIFOLD_SOLID_BREP('filterplatte',#360);
#370=SHAPE_DEFINITION_REPRESENTATION(#606,#371);
#371=SHAPE_REPRESENTATION('filterplatte',(#372),#601);
#372=AXIS2_PLACEMENT_3D('',#499,#401,#402);
#373=AXIS2_PLACEMENT_3D('',#500,#403,#404);
#374=AXIS2_PLACEMENT_3D('',#504,#406,#407);
#375=AXIS2_PLACEMENT_3D('',#508,#409,#410);
#376=AXIS2_PLACEMENT_3D('',#512,#412,#413);
#377=AXIS2_PLACEMENT_3D('',#516,#415,#416);
#378=AXIS2_PLACEMENT_3D('',#525,#421,#422);
#379=AXIS2_PLACEMENT_3D('',#529,#424,#425);
#380=AXIS2_PLACEMENT_3D('',#533,#427,#428);
#381=AXIS2_PLACEMENT_3D('',#537,#430,#431);
#382=AXIS2_PLACEMENT_3D('',#541,#433,#434);
#383=AXIS2_PLACEMENT_3D('',#550,#439,#440);
#384=AXIS2_PLACEMENT_3D('',#553,#443,#444);
#385=AXIS2_PLACEMENT_3D('',#556,#447,#448);
#386=AXIS2_PLACEMENT_3D('',#559,#451,#452);
#387=AXIS2_PLACEMENT_3D('',#562,#455,#456);
#388=AXIS2_PLACEMENT_3D('',#563,#457,#458);
#389=AXIS2_PLACEMENT_3D('',#564,#459,#460);
#390=AXIS2_PLACEMENT_3D('',#565,#461,#462);
#391=AXIS2_PLACEMENT_3D('',#566,#463,#464);
#392=AXIS2_PLACEMENT_3D('',#572,#468,#469);
#393=AXIS2_PLACEMENT_3D('',#576,#472,#473);
#394=AXIS2_PLACEMENT_3D('',#580,#476,#477);
#395=AXIS2_PLACEMENT_3D('',#582,#479,#480);
#396=AXIS2_PLACEMENT_3D('',#583,#481,#482);
#397=AXIS2_PLACEMENT_3D('',#589,#486,#487);
#398=AXIS2_PLACEMENT_3D('',#593,#490,#491);
#399=AXIS2_PLACEMENT_3D('',#597,#494,#495);
#400=AXIS2_PLACEMENT_3D('',#599,#497,#498);
#401=DIRECTION('',(0.,0.,1.));
#402=DIRECTION('',(1.,0.,0.));
#403=DIRECTION('',(0.,-1.,0.));
#404=DIRECTION('',(1.,0.,0.));
#405=DIRECTION('',(6.23720800351212E-17,0.,-1.));
#406=DIRECTION('',(0.,-1.,0.));
#407=DIRECTION('',(0.,0.,-1.));
#408=DIRECTION('',(1.,0.,0.));
#409=DIRECTION('',(0.,-1.,0.));
#410=DIRECTION('',(0.,0.,-1.));
#411=DIRECTION('',(6.23720800351212E-17,0.,-1.));
#412=DIRECTION('',(0.,-1.,0.));
#413=DIRECTION('',(0.,0.,-1.));
#414=DIRECTION('',(1.,0.,0.));
#415=DIRECTION('',(0.,-1.,0.));
#416=DIRECTION('',(0.,0.,-1.));
#417=DIRECTION('',(-1.,0.,0.));
#418=DIRECTION('',(-8.28524645242654E-17,0.,-1.));
#419=DIRECTION('',(-1.,0.,0.));
#420=DIRECTION('',(-8.28524645242654E-17,0.,-1.));
#421=DIRECTION('',(0.,-1.,0.));
#422=DIRECTION('',(1.,0.,0.));
#423=DIRECTION('',(1.,0.,0.));
#424=DIRECTION('',(0.,-1.,0.));
#425=DIRECTION('',(0.,0.,-1.));
#426=DIRECTION('',(6.23720800351212E-17,0.,-1.));
#427=DIRECTION('',(0.,-1.,0.));
#428=DIRECTION('',(0.,0.,-1.));
#429=DIRECTION('',(1.,0.,0.));
#430=DIRECTION('',(0.,-1.,0.));
#431=DIRECTION('',(0.,0.,-1.));
#432=DIRECTION('',(6.23720800351212E-17,0.,-1.));
#433=DIRECTION('',(0.,-1.,0.));
#434=DIRECTION('',(0.,0.,-1.));
#435=DIRECTION('',(8.28524645242654E-17,0.,-1.));
#436=DIRECTION('',(1.,0.,0.));
#437=DIRECTION('',(8.28524645242654E-17,0.,-1.));
#438=DIRECTION('',(1.,0.,0.));
#439=DIRECTION('',(0.,0.,1.));
#440=DIRECTION('',(1.,0.,0.));
#441=DIRECTION('',(0.,1.,0.));
#442=DIRECTION('',(0.,1.,0.));
#443=DIRECTION('',(1.,0.,6.23720800351212E-17));
#444=DIRECTION('',(6.23720800351212E-17,0.,-1.));
#445=DIRECTION('',(0.,1.,0.));
#446=DIRECTION('',(0.,1.,0.));
#447=DIRECTION('',(0.,0.,1.));
#448=DIRECTION('',(1.,0.,0.));
#449=DIRECTION('',(0.,1.,0.));
#450=DIRECTION('',(0.,1.,0.));
#451=DIRECTION('',(1.,0.,6.23720800351212E-17));
#452=DIRECTION('',(6.23720800351212E-17,0.,-1.));
#453=DIRECTION('',(0.,1.,0.));
#454=DIRECTION('',(0.,1.,0.));
#455=DIRECTION('',(0.,-1.,0.));
#456=DIRECTION('',(0.,0.,-1.));
#457=DIRECTION('',(0.,-1.,0.));
#458=DIRECTION('',(0.,0.,-1.));
#459=DIRECTION('',(0.,1.,0.));
#460=DIRECTION('',(0.,0.,1.));
#461=DIRECTION('',(0.,1.,0.));
#462=DIRECTION('',(0.,0.,1.));
#463=DIRECTION('',(0.,0.,-1.));
#464=DIRECTION('',(-1.,0.,0.));
#465=DIRECTION('',(0.,-1.,0.));
#466=DIRECTION('',(1.,0.,0.));
#467=DIRECTION('',(0.,-1.,0.));
#468=DIRECTION('',(-1.,0.,-8.28524645242654E-17));
#469=DIRECTION('',(-8.28524645242654E-17,0.,1.));
#470=DIRECTION('',(0.,-1.,0.));
#471=DIRECTION('',(8.28524645242654E-17,0.,-1.));
#472=DIRECTION('',(0.,0.,-1.));
#473=DIRECTION('',(-1.,0.,0.));
#474=DIRECTION('',(0.,-1.,0.));
#475=DIRECTION('',(1.,0.,0.));
#476=DIRECTION('',(-1.,0.,-8.28524645242654E-17));
#477=DIRECTION('',(-8.28524645242654E-17,0.,1.));
#478=DIRECTION('',(8.28524645242654E-17,0.,-1.));
#479=DIRECTION('',(0.,-1.,0.));
#480=DIRECTION('',(1.,0.,0.));
#481=DIRECTION('',(0.,0.,-1.));
#482=DIRECTION('',(-1.,0.,0.));
#483=DIRECTION('',(0.,1.,0.));
#484=DIRECTION('',(-1.,0.,0.));
#485=DIRECTION('',(0.,1.,0.));
#486=DIRECTION('',(1.,0.,-8.28524645242654E-17));
#487=DIRECTION('',(-8.28524645242654E-17,0.,-1.));
#488=DIRECTION('',(0.,1.,0.));
#489=DIRECTION('',(-8.28524645242654E-17,0.,-1.));
#490=DIRECTION('',(0.,0.,-1.));
#491=DIRECTION('',(-1.,0.,0.));
#492=DIRECTION('',(0.,1.,0.));
#493=DIRECTION('',(-1.,0.,0.));
#494=DIRECTION('',(1.,0.,-8.28524645242654E-17));
#495=DIRECTION('',(-8.28524645242654E-17,0.,-1.));
#496=DIRECTION('',(-8.28524645242654E-17,0.,-1.));
#497=DIRECTION('',(0.,1.,0.));
#498=DIRECTION('',(-1.,0.,0.));
#499=CARTESIAN_POINT('',(0.,0.,0.));
#500=CARTESIAN_POINT('',(-2.77555756156289E-17,0.,0.));
#501=CARTESIAN_POINT('',(0.1255,0.,0.));
#502=CARTESIAN_POINT('',(0.1255,0.,0.2025));
#503=CARTESIAN_POINT('',(0.1255,0.,-0.2025));
#504=CARTESIAN_POINT('',(0.1055,0.,-0.2025));
#505=CARTESIAN_POINT('',(0.1055,0.,-0.2225));
#506=CARTESIAN_POINT('',(2.77555756156289E-17,0.,-0.2225));
#507=CARTESIAN_POINT('',(-0.1055,0.,-0.2225));
#508=CARTESIAN_POINT('',(-0.1055,0.,-0.2025));
#509=CARTESIAN_POINT('',(-0.1255,0.,-0.2025));
#510=CARTESIAN_POINT('',(-0.1255,0.,0.));
#511=CARTESIAN_POINT('',(-0.1255,0.,0.2025));
#512=CARTESIAN_POINT('',(-0.1055,0.,0.2025));
#513=CARTESIAN_POINT('',(-0.1055,0.,0.2225));
#514=CARTESIAN_POINT('',(0.,0.,0.2225));
#515=CARTESIAN_POINT('',(0.1055,0.,0.2225));
#516=CARTESIAN_POINT('',(0.1055,0.,0.2025));
#517=CARTESIAN_POINT('',(1.38777878078145E-17,0.,0.1775));
#518=CARTESIAN_POINT('',(0.1055,0.,0.1775));
#519=CARTESIAN_POINT('',(-0.1055,0.,0.1775));
#520=CARTESIAN_POINT('',(-0.1055,0.,0.01));
#521=CARTESIAN_POINT('',(-0.1055,0.,-0.1575));
#522=CARTESIAN_POINT('',(-1.38777878078145E-17,0.,-0.1575));
#523=CARTESIAN_POINT('',(0.1055,0.,-0.1575));
#524=CARTESIAN_POINT('',(0.1055,0.,0.01));
#525=CARTESIAN_POINT('',(-2.77555756156289E-17,-0.016,0.));
#526=CARTESIAN_POINT('',(2.77555756156289E-17,-0.016,-0.2225));
#527=CARTESIAN_POINT('',(-0.1055,-0.016,-0.2225));
#528=CARTESIAN_POINT('',(0.1055,-0.016,-0.2225));
#529=CARTESIAN_POINT('',(0.1055,-0.016,-0.2025));
#530=CARTESIAN_POINT('',(0.1255,-0.016,-0.2025));
#531=CARTESIAN_POINT('',(0.1255,-0.016,0.));
#532=CARTESIAN_POINT('',(0.1255,-0.016,0.2025));
#533=CARTESIAN_POINT('',(0.1055,-0.016,0.2025));
#534=CARTESIAN_POINT('',(0.1055,-0.016,0.2225));
#535=CARTESIAN_POINT('',(0.,-0.016,0.2225));
#536=CARTESIAN_POINT('',(-0.1055,-0.016,0.2225));
#537=CARTESIAN_POINT('',(-0.1055,-0.016,0.2025));
#538=CARTESIAN_POINT('',(-0.1255,-0.016,0.2025));
#539=CARTESIAN_POINT('',(-0.1255,-0.016,0.));
#540=CARTESIAN_POINT('',(-0.1255,-0.016,-0.2025));
#541=CARTESIAN_POINT('',(-0.1055,-0.016,-0.2025));
#542=CARTESIAN_POINT('',(-0.1055,-0.016,0.01));
#543=CARTESIAN_POINT('',(-0.1055,-0.016,0.1775));
#544=CARTESIAN_POINT('',(-0.1055,-0.016,-0.1575));
#545=CARTESIAN_POINT('',(-1.38777878078145E-17,-0.016,0.1775));
#546=CARTESIAN_POINT('',(0.1055,-0.016,0.1775));
#547=CARTESIAN_POINT('',(0.1055,-0.016,0.01));
#548=CARTESIAN_POINT('',(0.1055,-0.016,-0.1575));
#549=CARTESIAN_POINT('',(1.38777878078145E-17,-0.016,-0.1575));
#550=CARTESIAN_POINT('',(0.,-0.016,0.2225));
#551=CARTESIAN_POINT('',(-0.1055,-0.016,0.2225));
#552=CARTESIAN_POINT('',(0.1055,-0.016,0.2225));
#553=CARTESIAN_POINT('',(-0.1255,-0.016,0.));
#554=CARTESIAN_POINT('',(-0.1255,0.,0.2025));
#555=CARTESIAN_POINT('',(-0.1255,-0.016,-0.2025));
#556=CARTESIAN_POINT('',(2.77555756156289E-17,-0.016,-0.2225));
#557=CARTESIAN_POINT('',(0.1055,-0.016,-0.2225));
#558=CARTESIAN_POINT('',(-0.1055,-0.016,-0.2225));
#559=CARTESIAN_POINT('',(0.1255,-0.016,0.));
#560=CARTESIAN_POINT('',(0.1255,0.,-0.2025));
#561=CARTESIAN_POINT('',(0.1255,-0.016,0.2025));
#562=CARTESIAN_POINT('',(0.1055,-0.016,-0.2025));
#563=CARTESIAN_POINT('',(-0.1055,-0.016,0.2025));
#564=CARTESIAN_POINT('',(0.1055,-0.016,0.2025));
#565=CARTESIAN_POINT('',(-0.1055,-0.016,-0.2025));
#566=CARTESIAN_POINT('',(-1.38777878078145E-17,-0.014,0.1775));
#567=CARTESIAN_POINT('',(-0.1055,-0.014,0.1775));
#568=CARTESIAN_POINT('',(-0.1055,-0.014,0.1775));
#569=CARTESIAN_POINT('',(-1.38777878078145E-17,-0.014,0.1775));
#570=CARTESIAN_POINT('',(0.1055,-0.014,0.1775));
#571=CARTESIAN_POINT('',(0.1055,-0.014,0.1775));
#572=CARTESIAN_POINT('',(-0.1055,-0.014,0.01));
#573=CARTESIAN_POINT('',(-0.1055,-0.014,-0.1575));
#574=CARTESIAN_POINT('',(-0.1055,-0.014,-0.1575));
#575=CARTESIAN_POINT('',(-0.1055,-0.014,0.01));
#576=CARTESIAN_POINT('',(1.38777878078145E-17,-0.014,-0.1575));
#577=CARTESIAN_POINT('',(0.1055,-0.014,-0.1575));
#578=CARTESIAN_POINT('',(0.1055,-0.014,-0.1575));
#579=CARTESIAN_POINT('',(1.38777878078145E-17,-0.014,-0.1575));
#580=CARTESIAN_POINT('',(0.1055,-0.014,0.01));
#581=CARTESIAN_POINT('',(0.1055,-0.014,0.01));
#582=CARTESIAN_POINT('',(0.,-0.014,0.));
#583=CARTESIAN_POINT('',(1.38777878078145E-17,-0.002,0.1775));
#584=CARTESIAN_POINT('',(0.1055,-0.002,0.1775));
#585=CARTESIAN_POINT('',(0.1055,-0.002,0.1775));
#586=CARTESIAN_POINT('',(1.38777878078145E-17,-0.002,0.1775));
#587=CARTESIAN_POINT('',(-0.1055,-0.002,0.1775));
#588=CARTESIAN_POINT('',(-0.1055,-0.002,0.1775));
#589=CARTESIAN_POINT('',(0.1055,-0.002,0.01));
#590=CARTESIAN_POINT('',(0.1055,-0.002,-0.1575));
#591=CARTESIAN_POINT('',(0.1055,-0.002,-0.1575));
#592=CARTESIAN_POINT('',(0.1055,-0.002,0.01));
#593=CARTESIAN_POINT('',(-1.38777878078145E-17,-0.002,-0.1575));
#594=CARTESIAN_POINT('',(-0.1055,-0.002,-0.1575));
#595=CARTESIAN_POINT('',(-0.1055,-0.002,-0.1575));
#596=CARTESIAN_POINT('',(-1.38777878078145E-17,-0.002,-0.1575));
#597=CARTESIAN_POINT('',(-0.1055,-0.002,0.01));
#598=CARTESIAN_POINT('',(-0.1055,-0.002,0.01));
#599=CARTESIAN_POINT('',(0.,-0.002,0.));
#600=MECHANICAL_DESIGN_GEOMETRIC_PRESENTATION_REPRESENTATION('',(#361),#601);
#601=(
GEOMETRIC_REPRESENTATION_CONTEXT(3)
GLOBAL_UNCERTAINTY_ASSIGNED_CONTEXT((#602))
GLOBAL_UNIT_ASSIGNED_CONTEXT((#605,#604,#603))
REPRESENTATION_CONTEXT('filterplatte','TOP_LEVEL_ASSEMBLY_PART')
);
#602=UNCERTAINTY_MEASURE_WITH_UNIT(LENGTH_MEASURE(1.E-08),#605,'DISTANCE_ACCURACY_VALUE','Maximum Tolerance applied to model');
#603=(
NAMED_UNIT(*)
SI_UNIT($,.STERADIAN.)
SOLID_ANGLE_UNIT()
);
#604=(
NAMED_UNIT(*)
PLANE_ANGLE_UNIT()
SI_UNIT($,.RADIAN.)
);
#605=(
LENGTH_UNIT()
NAMED_UNIT(*)
SI_UNIT($,.METRE.)
);
#606=PRODUCT_DEFINITION_SHAPE('','',#607);
#607=PRODUCT_DEFINITION('','',#609,#608);
#608=PRODUCT_DEFINITION_CONTEXT('',#615,'design');
#609=PRODUCT_DEFINITION_FORMATION_WITH_SPECIFIED_SOURCE('','',#611,.NOT_KNOWN.);
#610=PRODUCT_RELATED_PRODUCT_CATEGORY('','',(#611));
#611=PRODUCT('filterplatte','filterplatte','filterplatte',(#613));
#612=PRODUCT_CATEGORY('','');
#613=PRODUCT_CONTEXT('',#615,'mechanical');
#614=APPLICATION_PROTOCOL_DEFINITION('international standard','ap242_managed_model_based_3d_engineering',2020,#615);
#615=APPLICATION_CONTEXT('managed model based 3d engineering');
ENDSEC;
END-ISO-10303-21;
