ISO-10303-21;
HEADER;
/*Generated by software containing ST-Developer
 * from STEP Tools, Inc. (www.steptools.com) 
 */
/*OPTION: using custom renumber hook */
/*description */
/*implementation_level */
FILE_DESCRIPTION(('STEP AP242 Edition 2','STEP AP242 Edition 2''CAx-IF Rec.Pracs.---Representation and Presentation of Product Manufa
cturing Information (PMI)---4.0---2014-10-13','STEP AP242 Edition 2''CAx-IF Rec.Pracs.---Representation and Presentation of Product Manufa
cturing Information (PMI)---4.0---2014-10-13''CAx-IF Rec.Pracs.---3D Tessellated Geometry---0.4---2014-09-14','STEP AP242 Edition 2''CAx-IF Rec.Pracs.---Representation and Presentation of Product Manufa
cturing Information (PMI)---4.0---2014-10-13''CAx-IF Rec.Pracs.---3D Tessellated Geometry---0.4---2014-09-14''2;1','STEP AP242 Edition 2''CAx-IF Rec.Pracs.---Representation and Presentation of Product Manufa
cturing Information (PMI)---4.0---2014-10-13''CAx-IF Rec.Pracs.---3D Tessellated Geometry---0.4---2014-09-14''2;1''CAx-IF Rec.Pracs.---User Defined Attributes---1.5---2016-08-15'),'2;1');
/*name */
/*time_stamp */
/*author */
/*organization */
/*preprocessor_version */
/*originating_system */
/*authorisation */
FILE_NAME('/vol/tmp/translate-15273258176243166232/lf.step','2026-03-04T07:41:08',(''),(''),'ST-DEVELOPER v20','ONSHAPE BY PTC INC, 1.211','  ');
FILE_SCHEMA(('AP242_MANAGED_MODEL_BASED_3D_ENGINEERING_MIM_LF { 1 0 10303 442 3 1 4 }'));
ENDSEC;
DATA;
#10=SHAPE_REPRESENTATION_RELATIONSHIP('','',#608,#11);
#11=ADVANCED_BREP_SHAPE_REPRESENTATION('',(#606),#1014);
#12=B_SPLINE_SURFACE_WITH_KNOTS('',3,1,((#868,#869),(#870,#871),(#872,#873),(#874,#875)),.SURF_OF_LINEAR_EXTRUSION.,.F.,.F.,.F.,(4,4),(2,2),(0.,1.),(0.,1.),.PIECEWISE_BEZIER_KNOTS.);
#13=B_SPLINE_SURFACE_WITH_KNOTS('',3,1,((#881,#882),(#883,#884),(#885,#886),(#887,#888)),.SURF_OF_LINEAR_EXTRUSION.,.F.,.F.,.F.,(4,4),(2,2),(0.,1.),(0.,1.),.PIECEWISE_BEZIER_KNOTS.);
#14=B_SPLINE_SURFACE_WITH_KNOTS('',3,1,((#906,#907),(#908,#909),(#910,#911),(#912,#913)),.SURF_OF_LINEAR_EXTRUSION.,.F.,.F.,.F.,(4,4),(2,2),(0.,1.),(0.,1.),.PIECEWISE_BEZIER_KNOTS.);
#15=B_SPLINE_SURFACE_WITH_KNOTS('',3,1,((#923,#924),(#925,#926),(#927,#928),(#929,#930)),.SURF_OF_LINEAR_EXTRUSION.,.F.,.F.,.F.,(4,4),(2,2),(0.,1.),(0.,1.),.PIECEWISE_BEZIER_KNOTS.);
#16=B_SPLINE_SURFACE_WITH_KNOTS('',3,1,((#940,#941),(#942,#943),(#944,#945),(#946,#947)),.SURF_OF_LINEAR_EXTRUSION.,.F.,.F.,.F.,(4,4),(2,2),(0.,1.),(0.,1.),.PIECEWISE_BEZIER_KNOTS.);
#17=CYLINDRICAL_SURFACE('',#616,0.02);
#18=CYLINDRICAL_SURFACE('',#621,0.00312428978995686);
#19=CYLINDRICAL_SURFACE('',#623,0.00453349042073168);
#20=CYLINDRICAL_SURFACE('',#626,0.00796879873557562);
#21=CYLINDRICAL_SURFACE('',#628,0.00330373255870829);
#22=B_SPLINE_CURVE_WITH_KNOTS('',2,(#813,#814,#815),.UNSPECIFIED.,.F.,.F.,(3,3),(0.,1.),.PIECEWISE_BEZIER_KNOTS.);
#23=B_SPLINE_CURVE_WITH_KNOTS('',2,(#819,#820,#821),.UNSPECIFIED.,.F.,.F.,(3,3),(0.,1.),.PIECEWISE_BEZIER_KNOTS.);
#24=B_SPLINE_CURVE_WITH_KNOTS('',2,(#825,#826,#827),.UNSPECIFIED.,.F.,.F.,(3,3),(0.,1.),.PIECEWISE_BEZIER_KNOTS.);
#25=B_SPLINE_CURVE_WITH_KNOTS('',2,(#835,#836,#837),.UNSPECIFIED.,.F.,.F.,(3,3),(0.,1.),.PIECEWISE_BEZIER_KNOTS.);
#26=B_SPLINE_CURVE_WITH_KNOTS('',2,(#839,#840,#841),.UNSPECIFIED.,.F.,.F.,(3,3),(0.,1.),.PIECEWISE_BEZIER_KNOTS.);
#27=B_SPLINE_CURVE_WITH_KNOTS('',2,(#878,#879,#880),.UNSPECIFIED.,.F.,.F.,(3,3),(0.,1.),.PIECEWISE_BEZIER_KNOTS.);
#28=B_SPLINE_CURVE_WITH_KNOTS('',2,(#891,#892,#893),.UNSPECIFIED.,.F.,.F.,(3,3),(0.,1.),.PIECEWISE_BEZIER_KNOTS.);
#29=B_SPLINE_CURVE_WITH_KNOTS('',2,(#916,#917,#918),.UNSPECIFIED.,.F.,.F.,(3,3),(0.,1.),.PIECEWISE_BEZIER_KNOTS.);
#30=B_SPLINE_CURVE_WITH_KNOTS('',2,(#933,#934,#935),.UNSPECIFIED.,.F.,.F.,(3,3),(0.,1.),.PIECEWISE_BEZIER_KNOTS.);
#31=B_SPLINE_CURVE_WITH_KNOTS('',2,(#950,#951,#952),.UNSPECIFIED.,.F.,.F.,(3,3),(0.,1.),.PIECEWISE_BEZIER_KNOTS.);
#32=LINE('',#790,#95);
#33=LINE('',#793,#96);
#34=LINE('',#795,#97);
#35=LINE('',#797,#98);
#36=LINE('',#799,#99);
#37=LINE('',#801,#100);
#38=LINE('',#803,#101);
#39=LINE('',#805,#102);
#40=LINE('',#807,#103);
#41=LINE('',#809,#104);
#42=LINE('',#811,#105);
#43=LINE('',#829,#106);
#44=LINE('',#842,#107);
#45=LINE('',#845,#108);
#46=LINE('',#847,#109);
#47=LINE('',#849,#110);
#48=LINE('',#851,#111);
#49=LINE('',#853,#112);
#50=LINE('',#859,#113);
#51=LINE('',#861,#114);
#52=LINE('',#863,#115);
#53=LINE('',#865,#116);
#54=LINE('',#867,#117);
#55=LINE('',#876,#118);
#56=LINE('',#889,#119);
#57=LINE('',#895,#120);
#58=LINE('',#899,#121);
#59=LINE('',#903,#122);
#60=LINE('',#905,#123);
#61=LINE('',#914,#124);
#62=LINE('',#920,#125);
#63=LINE('',#931,#126);
#64=LINE('',#937,#127);
#65=LINE('',#948,#128);
#66=LINE('',#954,#129);
#67=LINE('',#956,#130);
#68=LINE('',#958,#131);
#69=LINE('',#960,#132);
#70=LINE('',#962,#133);
#71=LINE('',#964,#134);
#72=LINE('',#966,#135);
#73=LINE('',#968,#136);
#74=LINE('',#970,#137);
#75=LINE('',#972,#138);
#76=LINE('',#974,#139);
#77=LINE('',#976,#140);
#78=LINE('',#978,#141);
#79=LINE('',#980,#142);
#80=LINE('',#982,#143);
#81=LINE('',#984,#144);
#82=LINE('',#986,#145);
#83=LINE('',#989,#146);
#84=LINE('',#991,#147);
#85=LINE('',#993,#148);
#86=LINE('',#995,#149);
#87=LINE('',#997,#150);
#88=LINE('',#999,#151);
#89=LINE('',#1001,#152);
#90=LINE('',#1003,#153);
#91=LINE('',#1005,#154);
#92=LINE('',#1007,#155);
#93=LINE('',#1009,#156);
#94=LINE('',#1011,#157);
#95=VECTOR('',#653,1.);
#96=VECTOR('',#654,1.);
#97=VECTOR('',#655,1.);
#98=VECTOR('',#656,1.);
#99=VECTOR('',#657,1.);
#100=VECTOR('',#658,1.);
#101=VECTOR('',#659,1.);
#102=VECTOR('',#660,1.);
#103=VECTOR('',#661,1.);
#104=VECTOR('',#662,1.);
#105=VECTOR('',#663,1.);
#106=VECTOR('',#668,1.);
#107=VECTOR('',#673,1.);
#108=VECTOR('',#674,1.);
#109=VECTOR('',#675,1.);
#110=VECTOR('',#676,1.);
#111=VECTOR('',#677,1.);
#112=VECTOR('',#678,1.);
#113=VECTOR('',#687,1.);
#114=VECTOR('',#688,1.);
#115=VECTOR('',#689,1.);
#116=VECTOR('',#692,1.);
#117=VECTOR('',#693,1.);
#118=VECTOR('',#694,1.);
#119=VECTOR('',#695,1.);
#120=VECTOR('',#698,1.);
#121=VECTOR('',#703,1.);
#122=VECTOR('',#708,1.);
#123=VECTOR('',#709,1.);
#124=VECTOR('',#710,1.);
#125=VECTOR('',#713,1.);
#126=VECTOR('',#716,1.);
#127=VECTOR('',#719,1.);
#128=VECTOR('',#722,1.);
#129=VECTOR('',#725,1.);
#130=VECTOR('',#726,1.);
#131=VECTOR('',#729,1.);
#132=VECTOR('',#730,1.);
#133=VECTOR('',#733,1.);
#134=VECTOR('',#734,1.);
#135=VECTOR('',#737,1.);
#136=VECTOR('',#738,1.);
#137=VECTOR('',#741,1.);
#138=VECTOR('',#742,1.);
#139=VECTOR('',#745,1.);
#140=VECTOR('',#746,1.);
#141=VECTOR('',#749,1.);
#142=VECTOR('',#750,1.);
#143=VECTOR('',#753,1.);
#144=VECTOR('',#754,1.);
#145=VECTOR('',#757,1.);
#146=VECTOR('',#762,1.);
#147=VECTOR('',#763,1.);
#148=VECTOR('',#764,1.);
#149=VECTOR('',#767,1.);
#150=VECTOR('',#768,1.);
#151=VECTOR('',#771,1.);
#152=VECTOR('',#772,1.);
#153=VECTOR('',#775,1.);
#154=VECTOR('',#776,1.);
#155=VECTOR('',#779,1.);
#156=VECTOR('',#780,1.);
#157=VECTOR('',#783,1.);
#158=ORIENTED_EDGE('',*,*,#324,.T.);
#159=ORIENTED_EDGE('',*,*,#325,.T.);
#160=ORIENTED_EDGE('',*,*,#326,.T.);
#161=ORIENTED_EDGE('',*,*,#327,.T.);
#162=ORIENTED_EDGE('',*,*,#328,.T.);
#163=ORIENTED_EDGE('',*,*,#329,.T.);
#164=ORIENTED_EDGE('',*,*,#330,.T.);
#165=ORIENTED_EDGE('',*,*,#331,.T.);
#166=ORIENTED_EDGE('',*,*,#332,.T.);
#167=ORIENTED_EDGE('',*,*,#333,.T.);
#168=ORIENTED_EDGE('',*,*,#334,.T.);
#169=ORIENTED_EDGE('',*,*,#335,.T.);
#170=ORIENTED_EDGE('',*,*,#336,.T.);
#171=ORIENTED_EDGE('',*,*,#337,.T.);
#172=ORIENTED_EDGE('',*,*,#338,.T.);
#173=ORIENTED_EDGE('',*,*,#339,.T.);
#174=ORIENTED_EDGE('',*,*,#340,.T.);
#175=ORIENTED_EDGE('',*,*,#341,.T.);
#176=ORIENTED_EDGE('',*,*,#342,.T.);
#177=ORIENTED_EDGE('',*,*,#343,.T.);
#178=ORIENTED_EDGE('',*,*,#344,.T.);
#179=ORIENTED_EDGE('',*,*,#345,.T.);
#180=ORIENTED_EDGE('',*,*,#346,.T.);
#181=ORIENTED_EDGE('',*,*,#347,.T.);
#182=ORIENTED_EDGE('',*,*,#348,.T.);
#183=ORIENTED_EDGE('',*,*,#349,.T.);
#184=ORIENTED_EDGE('',*,*,#350,.T.);
#185=ORIENTED_EDGE('',*,*,#351,.T.);
#186=ORIENTED_EDGE('',*,*,#324,.F.);
#187=ORIENTED_EDGE('',*,*,#352,.T.);
#188=ORIENTED_EDGE('',*,*,#352,.F.);
#189=ORIENTED_EDGE('',*,*,#326,.F.);
#190=ORIENTED_EDGE('',*,*,#353,.F.);
#191=ORIENTED_EDGE('',*,*,#354,.T.);
#192=ORIENTED_EDGE('',*,*,#355,.T.);
#193=ORIENTED_EDGE('',*,*,#325,.F.);
#194=ORIENTED_EDGE('',*,*,#356,.F.);
#195=ORIENTED_EDGE('',*,*,#357,.T.);
#196=ORIENTED_EDGE('',*,*,#353,.T.);
#197=ORIENTED_EDGE('',*,*,#345,.F.);
#198=ORIENTED_EDGE('',*,*,#358,.F.);
#199=ORIENTED_EDGE('',*,*,#359,.T.);
#200=ORIENTED_EDGE('',*,*,#356,.T.);
#201=ORIENTED_EDGE('',*,*,#344,.F.);
#202=ORIENTED_EDGE('',*,*,#360,.F.);
#203=ORIENTED_EDGE('',*,*,#361,.T.);
#204=ORIENTED_EDGE('',*,*,#358,.T.);
#205=ORIENTED_EDGE('',*,*,#343,.F.);
#206=ORIENTED_EDGE('',*,*,#362,.F.);
#207=ORIENTED_EDGE('',*,*,#363,.T.);
#208=ORIENTED_EDGE('',*,*,#360,.T.);
#209=ORIENTED_EDGE('',*,*,#342,.F.);
#210=ORIENTED_EDGE('',*,*,#364,.F.);
#211=ORIENTED_EDGE('',*,*,#365,.T.);
#212=ORIENTED_EDGE('',*,*,#362,.T.);
#213=ORIENTED_EDGE('',*,*,#341,.F.);
#214=ORIENTED_EDGE('',*,*,#366,.F.);
#215=ORIENTED_EDGE('',*,*,#367,.T.);
#216=ORIENTED_EDGE('',*,*,#364,.T.);
#217=ORIENTED_EDGE('',*,*,#340,.F.);
#218=ORIENTED_EDGE('',*,*,#368,.F.);
#219=ORIENTED_EDGE('',*,*,#369,.T.);
#220=ORIENTED_EDGE('',*,*,#366,.T.);
#221=ORIENTED_EDGE('',*,*,#339,.F.);
#222=ORIENTED_EDGE('',*,*,#370,.F.);
#223=ORIENTED_EDGE('',*,*,#371,.T.);
#224=ORIENTED_EDGE('',*,*,#368,.T.);
#225=ORIENTED_EDGE('',*,*,#338,.F.);
#226=ORIENTED_EDGE('',*,*,#372,.F.);
#227=ORIENTED_EDGE('',*,*,#373,.T.);
#228=ORIENTED_EDGE('',*,*,#370,.T.);
#229=ORIENTED_EDGE('',*,*,#337,.F.);
#230=ORIENTED_EDGE('',*,*,#374,.F.);
#231=ORIENTED_EDGE('',*,*,#375,.T.);
#232=ORIENTED_EDGE('',*,*,#372,.T.);
#233=ORIENTED_EDGE('',*,*,#336,.F.);
#234=ORIENTED_EDGE('',*,*,#376,.F.);
#235=ORIENTED_EDGE('',*,*,#377,.T.);
#236=ORIENTED_EDGE('',*,*,#374,.T.);
#237=ORIENTED_EDGE('',*,*,#335,.F.);
#238=ORIENTED_EDGE('',*,*,#378,.F.);
#239=ORIENTED_EDGE('',*,*,#379,.T.);
#240=ORIENTED_EDGE('',*,*,#376,.T.);
#241=ORIENTED_EDGE('',*,*,#334,.F.);
#242=ORIENTED_EDGE('',*,*,#380,.F.);
#243=ORIENTED_EDGE('',*,*,#381,.T.);
#244=ORIENTED_EDGE('',*,*,#378,.T.);
#245=ORIENTED_EDGE('',*,*,#333,.F.);
#246=ORIENTED_EDGE('',*,*,#382,.F.);
#247=ORIENTED_EDGE('',*,*,#383,.T.);
#248=ORIENTED_EDGE('',*,*,#380,.T.);
#249=ORIENTED_EDGE('',*,*,#332,.F.);
#250=ORIENTED_EDGE('',*,*,#384,.F.);
#251=ORIENTED_EDGE('',*,*,#385,.T.);
#252=ORIENTED_EDGE('',*,*,#382,.T.);
#253=ORIENTED_EDGE('',*,*,#331,.F.);
#254=ORIENTED_EDGE('',*,*,#386,.F.);
#255=ORIENTED_EDGE('',*,*,#387,.T.);
#256=ORIENTED_EDGE('',*,*,#384,.T.);
#257=ORIENTED_EDGE('',*,*,#330,.F.);
#258=ORIENTED_EDGE('',*,*,#388,.F.);
#259=ORIENTED_EDGE('',*,*,#389,.T.);
#260=ORIENTED_EDGE('',*,*,#386,.T.);
#261=ORIENTED_EDGE('',*,*,#329,.F.);
#262=ORIENTED_EDGE('',*,*,#390,.F.);
#263=ORIENTED_EDGE('',*,*,#391,.T.);
#264=ORIENTED_EDGE('',*,*,#388,.T.);
#265=ORIENTED_EDGE('',*,*,#328,.F.);
#266=ORIENTED_EDGE('',*,*,#392,.F.);
#267=ORIENTED_EDGE('',*,*,#393,.T.);
#268=ORIENTED_EDGE('',*,*,#390,.T.);
#269=ORIENTED_EDGE('',*,*,#327,.F.);
#270=ORIENTED_EDGE('',*,*,#355,.F.);
#271=ORIENTED_EDGE('',*,*,#394,.T.);
#272=ORIENTED_EDGE('',*,*,#392,.T.);
#273=ORIENTED_EDGE('',*,*,#354,.F.);
#274=ORIENTED_EDGE('',*,*,#357,.F.);
#275=ORIENTED_EDGE('',*,*,#359,.F.);
#276=ORIENTED_EDGE('',*,*,#361,.F.);
#277=ORIENTED_EDGE('',*,*,#363,.F.);
#278=ORIENTED_EDGE('',*,*,#365,.F.);
#279=ORIENTED_EDGE('',*,*,#367,.F.);
#280=ORIENTED_EDGE('',*,*,#369,.F.);
#281=ORIENTED_EDGE('',*,*,#371,.F.);
#282=ORIENTED_EDGE('',*,*,#373,.F.);
#283=ORIENTED_EDGE('',*,*,#375,.F.);
#284=ORIENTED_EDGE('',*,*,#377,.F.);
#285=ORIENTED_EDGE('',*,*,#379,.F.);
#286=ORIENTED_EDGE('',*,*,#381,.F.);
#287=ORIENTED_EDGE('',*,*,#383,.F.);
#288=ORIENTED_EDGE('',*,*,#385,.F.);
#289=ORIENTED_EDGE('',*,*,#387,.F.);
#290=ORIENTED_EDGE('',*,*,#389,.F.);
#291=ORIENTED_EDGE('',*,*,#391,.F.);
#292=ORIENTED_EDGE('',*,*,#393,.F.);
#293=ORIENTED_EDGE('',*,*,#394,.F.);
#294=ORIENTED_EDGE('',*,*,#347,.F.);
#295=ORIENTED_EDGE('',*,*,#395,.F.);
#296=ORIENTED_EDGE('',*,*,#396,.T.);
#297=ORIENTED_EDGE('',*,*,#397,.T.);
#298=ORIENTED_EDGE('',*,*,#346,.F.);
#299=ORIENTED_EDGE('',*,*,#398,.F.);
#300=ORIENTED_EDGE('',*,*,#399,.T.);
#301=ORIENTED_EDGE('',*,*,#395,.T.);
#302=ORIENTED_EDGE('',*,*,#351,.F.);
#303=ORIENTED_EDGE('',*,*,#400,.F.);
#304=ORIENTED_EDGE('',*,*,#401,.T.);
#305=ORIENTED_EDGE('',*,*,#398,.T.);
#306=ORIENTED_EDGE('',*,*,#350,.F.);
#307=ORIENTED_EDGE('',*,*,#402,.F.);
#308=ORIENTED_EDGE('',*,*,#403,.T.);
#309=ORIENTED_EDGE('',*,*,#400,.T.);
#310=ORIENTED_EDGE('',*,*,#349,.F.);
#311=ORIENTED_EDGE('',*,*,#404,.F.);
#312=ORIENTED_EDGE('',*,*,#405,.T.);
#313=ORIENTED_EDGE('',*,*,#402,.T.);
#314=ORIENTED_EDGE('',*,*,#348,.F.);
#315=ORIENTED_EDGE('',*,*,#397,.F.);
#316=ORIENTED_EDGE('',*,*,#406,.T.);
#317=ORIENTED_EDGE('',*,*,#404,.T.);
#318=ORIENTED_EDGE('',*,*,#396,.F.);
#319=ORIENTED_EDGE('',*,*,#399,.F.);
#320=ORIENTED_EDGE('',*,*,#401,.F.);
#321=ORIENTED_EDGE('',*,*,#403,.F.);
#322=ORIENTED_EDGE('',*,*,#405,.F.);
#323=ORIENTED_EDGE('',*,*,#406,.F.);
#324=EDGE_CURVE('',#407,#407,#463,.T.);
#325=EDGE_CURVE('',#408,#409,#32,.T.);
#326=EDGE_CURVE('',#409,#410,#33,.T.);
#327=EDGE_CURVE('',#410,#411,#34,.T.);
#328=EDGE_CURVE('',#411,#412,#35,.T.);
#329=EDGE_CURVE('',#412,#413,#36,.T.);
#330=EDGE_CURVE('',#413,#414,#37,.T.);
#331=EDGE_CURVE('',#414,#415,#38,.T.);
#332=EDGE_CURVE('',#415,#416,#39,.T.);
#333=EDGE_CURVE('',#416,#417,#40,.T.);
#334=EDGE_CURVE('',#417,#418,#41,.T.);
#335=EDGE_CURVE('',#418,#419,#42,.T.);
#336=EDGE_CURVE('',#419,#420,#22,.T.);
#337=EDGE_CURVE('',#420,#421,#464,.F.);
#338=EDGE_CURVE('',#421,#422,#23,.T.);
#339=EDGE_CURVE('',#422,#423,#465,.F.);
#340=EDGE_CURVE('',#423,#424,#24,.T.);
#341=EDGE_CURVE('',#424,#425,#43,.T.);
#342=EDGE_CURVE('',#425,#426,#466,.T.);
#343=EDGE_CURVE('',#426,#427,#467,.T.);
#344=EDGE_CURVE('',#427,#428,#25,.T.);
#345=EDGE_CURVE('',#428,#408,#26,.T.);
#346=EDGE_CURVE('',#429,#430,#44,.T.);
#347=EDGE_CURVE('',#430,#431,#45,.T.);
#348=EDGE_CURVE('',#431,#432,#46,.T.);
#349=EDGE_CURVE('',#432,#433,#47,.T.);
#350=EDGE_CURVE('',#433,#434,#48,.T.);
#351=EDGE_CURVE('',#434,#429,#49,.T.);
#352=EDGE_CURVE('',#435,#435,#468,.T.);
#353=EDGE_CURVE('',#436,#409,#50,.T.);
#354=EDGE_CURVE('',#436,#437,#51,.T.);
#355=EDGE_CURVE('',#437,#410,#52,.T.);
#356=EDGE_CURVE('',#438,#408,#53,.T.);
#357=EDGE_CURVE('',#438,#436,#54,.T.);
#358=EDGE_CURVE('',#439,#428,#55,.T.);
#359=EDGE_CURVE('',#439,#438,#27,.T.);
#360=EDGE_CURVE('',#440,#427,#56,.T.);
#361=EDGE_CURVE('',#440,#439,#28,.T.);
#362=EDGE_CURVE('',#441,#426,#57,.T.);
#363=EDGE_CURVE('',#441,#440,#469,.T.);
#364=EDGE_CURVE('',#442,#425,#58,.T.);
#365=EDGE_CURVE('',#442,#441,#470,.T.);
#366=EDGE_CURVE('',#443,#424,#59,.T.);
#367=EDGE_CURVE('',#443,#442,#60,.T.);
#368=EDGE_CURVE('',#444,#423,#61,.T.);
#369=EDGE_CURVE('',#444,#443,#29,.T.);
#370=EDGE_CURVE('',#445,#422,#62,.T.);
#371=EDGE_CURVE('',#445,#444,#471,.F.);
#372=EDGE_CURVE('',#446,#421,#63,.T.);
#373=EDGE_CURVE('',#446,#445,#30,.T.);
#374=EDGE_CURVE('',#447,#420,#64,.T.);
#375=EDGE_CURVE('',#447,#446,#472,.F.);
#376=EDGE_CURVE('',#448,#419,#65,.T.);
#377=EDGE_CURVE('',#448,#447,#31,.T.);
#378=EDGE_CURVE('',#449,#418,#66,.T.);
#379=EDGE_CURVE('',#449,#448,#67,.T.);
#380=EDGE_CURVE('',#450,#417,#68,.T.);
#381=EDGE_CURVE('',#450,#449,#69,.T.);
#382=EDGE_CURVE('',#451,#416,#70,.T.);
#383=EDGE_CURVE('',#451,#450,#71,.T.);
#384=EDGE_CURVE('',#452,#415,#72,.T.);
#385=EDGE_CURVE('',#452,#451,#73,.T.);
#386=EDGE_CURVE('',#453,#414,#74,.T.);
#387=EDGE_CURVE('',#453,#452,#75,.T.);
#388=EDGE_CURVE('',#454,#413,#76,.T.);
#389=EDGE_CURVE('',#454,#453,#77,.T.);
#390=EDGE_CURVE('',#455,#412,#78,.T.);
#391=EDGE_CURVE('',#455,#454,#79,.T.);
#392=EDGE_CURVE('',#456,#411,#80,.T.);
#393=EDGE_CURVE('',#456,#455,#81,.T.);
#394=EDGE_CURVE('',#437,#456,#82,.T.);
#395=EDGE_CURVE('',#457,#430,#83,.T.);
#396=EDGE_CURVE('',#457,#458,#84,.T.);
#397=EDGE_CURVE('',#458,#431,#85,.T.);
#398=EDGE_CURVE('',#459,#429,#86,.T.);
#399=EDGE_CURVE('',#459,#457,#87,.T.);
#400=EDGE_CURVE('',#460,#434,#88,.T.);
#401=EDGE_CURVE('',#460,#459,#89,.T.);
#402=EDGE_CURVE('',#461,#433,#90,.T.);
#403=EDGE_CURVE('',#461,#460,#91,.T.);
#404=EDGE_CURVE('',#462,#432,#92,.T.);
#405=EDGE_CURVE('',#462,#461,#93,.T.);
#406=EDGE_CURVE('',#458,#462,#94,.T.);
#407=VERTEX_POINT('',#789);
#408=VERTEX_POINT('',#791);
#409=VERTEX_POINT('',#792);
#410=VERTEX_POINT('',#794);
#411=VERTEX_POINT('',#796);
#412=VERTEX_POINT('',#798);
#413=VERTEX_POINT('',#800);
#414=VERTEX_POINT('',#802);
#415=VERTEX_POINT('',#804);
#416=VERTEX_POINT('',#806);
#417=VERTEX_POINT('',#808);
#418=VERTEX_POINT('',#810);
#419=VERTEX_POINT('',#812);
#420=VERTEX_POINT('',#816);
#421=VERTEX_POINT('',#818);
#422=VERTEX_POINT('',#822);
#423=VERTEX_POINT('',#824);
#424=VERTEX_POINT('',#828);
#425=VERTEX_POINT('',#830);
#426=VERTEX_POINT('',#832);
#427=VERTEX_POINT('',#834);
#428=VERTEX_POINT('',#838);
#429=VERTEX_POINT('',#843);
#430=VERTEX_POINT('',#844);
#431=VERTEX_POINT('',#846);
#432=VERTEX_POINT('',#848);
#433=VERTEX_POINT('',#850);
#434=VERTEX_POINT('',#852);
#435=VERTEX_POINT('',#856);
#436=VERTEX_POINT('',#860);
#437=VERTEX_POINT('',#862);
#438=VERTEX_POINT('',#866);
#439=VERTEX_POINT('',#877);
#440=VERTEX_POINT('',#890);
#441=VERTEX_POINT('',#896);
#442=VERTEX_POINT('',#900);
#443=VERTEX_POINT('',#904);
#444=VERTEX_POINT('',#915);
#445=VERTEX_POINT('',#921);
#446=VERTEX_POINT('',#932);
#447=VERTEX_POINT('',#938);
#448=VERTEX_POINT('',#949);
#449=VERTEX_POINT('',#955);
#450=VERTEX_POINT('',#959);
#451=VERTEX_POINT('',#963);
#452=VERTEX_POINT('',#967);
#453=VERTEX_POINT('',#971);
#454=VERTEX_POINT('',#975);
#455=VERTEX_POINT('',#979);
#456=VERTEX_POINT('',#983);
#457=VERTEX_POINT('',#990);
#458=VERTEX_POINT('',#992);
#459=VERTEX_POINT('',#996);
#460=VERTEX_POINT('',#1000);
#461=VERTEX_POINT('',#1004);
#462=VERTEX_POINT('',#1008);
#463=CIRCLE('',#611,0.02);
#464=CIRCLE('',#612,0.00330373255870829);
#465=CIRCLE('',#613,0.00796879873557562);
#466=CIRCLE('',#614,0.00453349042073168);
#467=CIRCLE('',#615,0.00312428978995686);
#468=CIRCLE('',#617,0.02);
#469=CIRCLE('',#622,0.00312428978995686);
#470=CIRCLE('',#624,0.00453349042073168);
#471=CIRCLE('',#627,0.00796879873557562);
#472=CIRCLE('',#629,0.00330373255870829);
#473=EDGE_LOOP('',(#158));
#474=EDGE_LOOP('',(#159,#160,#161,#162,#163,#164,#165,#166,#167,#168,#169,#170,#171,#172,#173,#174,#175,#176,#177,#178,#179));
#475=EDGE_LOOP('',(#180,#181,#182,#183,#184,#185));
#476=EDGE_LOOP('',(#186));
#477=EDGE_LOOP('',(#187));
#478=EDGE_LOOP('',(#188));
#479=EDGE_LOOP('',(#189,#190,#191,#192));
#480=EDGE_LOOP('',(#193,#194,#195,#196));
#481=EDGE_LOOP('',(#197,#198,#199,#200));
#482=EDGE_LOOP('',(#201,#202,#203,#204));
#483=EDGE_LOOP('',(#205,#206,#207,#208));
#484=EDGE_LOOP('',(#209,#210,#211,#212));
#485=EDGE_LOOP('',(#213,#214,#215,#216));
#486=EDGE_LOOP('',(#217,#218,#219,#220));
#487=EDGE_LOOP('',(#221,#222,#223,#224));
#488=EDGE_LOOP('',(#225,#226,#227,#228));
#489=EDGE_LOOP('',(#229,#230,#231,#232));
#490=EDGE_LOOP('',(#233,#234,#235,#236));
#491=EDGE_LOOP('',(#237,#238,#239,#240));
#492=EDGE_LOOP('',(#241,#242,#243,#244));
#493=EDGE_LOOP('',(#245,#246,#247,#248));
#494=EDGE_LOOP('',(#249,#250,#251,#252));
#495=EDGE_LOOP('',(#253,#254,#255,#256));
#496=EDGE_LOOP('',(#257,#258,#259,#260));
#497=EDGE_LOOP('',(#261,#262,#263,#264));
#498=EDGE_LOOP('',(#265,#266,#267,#268));
#499=EDGE_LOOP('',(#269,#270,#271,#272));
#500=EDGE_LOOP('',(#273,#274,#275,#276,#277,#278,#279,#280,#281,#282,#283,#284,#285,#286,#287,#288,#289,#290,#291,#292,#293));
#501=EDGE_LOOP('',(#294,#295,#296,#297));
#502=EDGE_LOOP('',(#298,#299,#300,#301));
#503=EDGE_LOOP('',(#302,#303,#304,#305));
#504=EDGE_LOOP('',(#306,#307,#308,#309));
#505=EDGE_LOOP('',(#310,#311,#312,#313));
#506=EDGE_LOOP('',(#314,#315,#316,#317));
#507=EDGE_LOOP('',(#318,#319,#320,#321,#322,#323));
#508=FACE_BOUND('',#473,.T.);
#509=FACE_BOUND('',#474,.T.);
#510=FACE_BOUND('',#475,.T.);
#511=FACE_BOUND('',#476,.T.);
#512=FACE_BOUND('',#477,.T.);
#513=FACE_BOUND('',#478,.T.);
#514=FACE_BOUND('',#479,.T.);
#515=FACE_BOUND('',#480,.T.);
#516=FACE_BOUND('',#481,.T.);
#517=FACE_BOUND('',#482,.T.);
#518=FACE_BOUND('',#483,.T.);
#519=FACE_BOUND('',#484,.T.);
#520=FACE_BOUND('',#485,.T.);
#521=FACE_BOUND('',#486,.T.);
#522=FACE_BOUND('',#487,.T.);
#523=FACE_BOUND('',#488,.T.);
#524=FACE_BOUND('',#489,.T.);
#525=FACE_BOUND('',#490,.T.);
#526=FACE_BOUND('',#491,.T.);
#527=FACE_BOUND('',#492,.T.);
#528=FACE_BOUND('',#493,.T.);
#529=FACE_BOUND('',#494,.T.);
#530=FACE_BOUND('',#495,.T.);
#531=FACE_BOUND('',#496,.T.);
#532=FACE_BOUND('',#497,.T.);
#533=FACE_BOUND('',#498,.T.);
#534=FACE_BOUND('',#499,.T.);
#535=FACE_BOUND('',#500,.T.);
#536=FACE_BOUND('',#501,.T.);
#537=FACE_BOUND('',#502,.T.);
#538=FACE_BOUND('',#503,.T.);
#539=FACE_BOUND('',#504,.T.);
#540=FACE_BOUND('',#505,.T.);
#541=FACE_BOUND('',#506,.T.);
#542=FACE_BOUND('',#507,.T.);
#543=PLANE('',#610);
#544=PLANE('',#618);
#545=PLANE('',#619);
#546=PLANE('',#620);
#547=PLANE('',#625);
#548=PLANE('',#630);
#549=PLANE('',#631);
#550=PLANE('',#632);
#551=PLANE('',#633);
#552=PLANE('',#634);
#553=PLANE('',#635);
#554=PLANE('',#636);
#555=PLANE('',#637);
#556=PLANE('',#638);
#557=PLANE('',#639);
#558=PLANE('',#640);
#559=PLANE('',#641);
#560=PLANE('',#642);
#561=PLANE('',#643);
#562=PLANE('',#644);
#563=PLANE('',#645);
#564=PLANE('',#646);
#565=ADVANCED_FACE('',(#508,#509,#510),#543,.T.);
#566=ADVANCED_FACE('',(#511,#512),#17,.T.);
#567=ADVANCED_FACE('',(#513),#544,.F.);
#568=ADVANCED_FACE('',(#514),#545,.T.);
#569=ADVANCED_FACE('',(#515),#546,.T.);
#570=ADVANCED_FACE('',(#516),#12,.T.);
#571=ADVANCED_FACE('',(#517),#13,.T.);
#572=ADVANCED_FACE('',(#518),#18,.T.);
#573=ADVANCED_FACE('',(#519),#19,.T.);
#574=ADVANCED_FACE('',(#520),#547,.T.);
#575=ADVANCED_FACE('',(#521),#14,.T.);
#576=ADVANCED_FACE('',(#522),#20,.F.);
#577=ADVANCED_FACE('',(#523),#15,.T.);
#578=ADVANCED_FACE('',(#524),#21,.F.);
#579=ADVANCED_FACE('',(#525),#16,.T.);
#580=ADVANCED_FACE('',(#526),#548,.T.);
#581=ADVANCED_FACE('',(#527),#549,.T.);
#582=ADVANCED_FACE('',(#528),#550,.T.);
#583=ADVANCED_FACE('',(#529),#551,.T.);
#584=ADVANCED_FACE('',(#530),#552,.T.);
#585=ADVANCED_FACE('',(#531),#553,.T.);
#586=ADVANCED_FACE('',(#532),#554,.T.);
#587=ADVANCED_FACE('',(#533),#555,.T.);
#588=ADVANCED_FACE('',(#534),#556,.T.);
#589=ADVANCED_FACE('',(#535),#557,.T.);
#590=ADVANCED_FACE('',(#536),#558,.T.);
#591=ADVANCED_FACE('',(#537),#559,.T.);
#592=ADVANCED_FACE('',(#538),#560,.T.);
#593=ADVANCED_FACE('',(#539),#561,.T.);
#594=ADVANCED_FACE('',(#540),#562,.T.);
#595=ADVANCED_FACE('',(#541),#563,.T.);
#596=ADVANCED_FACE('',(#542),#564,.T.);
#597=CLOSED_SHELL('',(#565,#566,#567,#568,#569,#570,#571,#572,#573,#574,#575,#576,#577,#578,#579,#580,#581,#582,#583,#584,#585,#586,#587,#588,#589,#590,#591,#592,#593,#594,#595,#596));
#598=STYLED_ITEM('',(#599),#606);
#599=PRESENTATION_STYLE_ASSIGNMENT((#600));
#600=SURFACE_STYLE_USAGE(.BOTH.,#601);
#601=SURFACE_SIDE_STYLE('',(#602));
#602=SURFACE_STYLE_FILL_AREA(#603);
#603=FILL_AREA_STYLE('',(#604));
#604=FILL_AREA_STYLE_COLOUR('',#605);
#605=COLOUR_RGB('',0.615686274509804,0.811764705882353,0.929411764705882);
#606=MANIFOLD_SOLID_BREP('lf',#597);
#607=SHAPE_DEFINITION_REPRESENTATION(#1019,#608);
#608=SHAPE_REPRESENTATION('lf',(#609),#1014);
#609=AXIS2_PLACEMENT_3D('',#786,#647,#648);
#610=AXIS2_PLACEMENT_3D('',#787,#649,#650);
#611=AXIS2_PLACEMENT_3D('',#788,#651,#652);
#612=AXIS2_PLACEMENT_3D('',#817,#664,#665);
#613=AXIS2_PLACEMENT_3D('',#823,#666,#667);
#614=AXIS2_PLACEMENT_3D('',#831,#669,#670);
#615=AXIS2_PLACEMENT_3D('',#833,#671,#672);
#616=AXIS2_PLACEMENT_3D('',#854,#679,#680);
#617=AXIS2_PLACEMENT_3D('',#855,#681,#682);
#618=AXIS2_PLACEMENT_3D('',#857,#683,#684);
#619=AXIS2_PLACEMENT_3D('',#858,#685,#686);
#620=AXIS2_PLACEMENT_3D('',#864,#690,#691);
#621=AXIS2_PLACEMENT_3D('',#894,#696,#697);
#622=AXIS2_PLACEMENT_3D('',#897,#699,#700);
#623=AXIS2_PLACEMENT_3D('',#898,#701,#702);
#624=AXIS2_PLACEMENT_3D('',#901,#704,#705);
#625=AXIS2_PLACEMENT_3D('',#902,#706,#707);
#626=AXIS2_PLACEMENT_3D('',#919,#711,#712);
#627=AXIS2_PLACEMENT_3D('',#922,#714,#715);
#628=AXIS2_PLACEMENT_3D('',#936,#717,#718);
#629=AXIS2_PLACEMENT_3D('',#939,#720,#721);
#630=AXIS2_PLACEMENT_3D('',#953,#723,#724);
#631=AXIS2_PLACEMENT_3D('',#957,#727,#728);
#632=AXIS2_PLACEMENT_3D('',#961,#731,#732);
#633=AXIS2_PLACEMENT_3D('',#965,#735,#736);
#634=AXIS2_PLACEMENT_3D('',#969,#739,#740);
#635=AXIS2_PLACEMENT_3D('',#973,#743,#744);
#636=AXIS2_PLACEMENT_3D('',#977,#747,#748);
#637=AXIS2_PLACEMENT_3D('',#981,#751,#752);
#638=AXIS2_PLACEMENT_3D('',#985,#755,#756);
#639=AXIS2_PLACEMENT_3D('',#987,#758,#759);
#640=AXIS2_PLACEMENT_3D('',#988,#760,#761);
#641=AXIS2_PLACEMENT_3D('',#994,#765,#766);
#642=AXIS2_PLACEMENT_3D('',#998,#769,#770);
#643=AXIS2_PLACEMENT_3D('',#1002,#773,#774);
#644=AXIS2_PLACEMENT_3D('',#1006,#777,#778);
#645=AXIS2_PLACEMENT_3D('',#1010,#781,#782);
#646=AXIS2_PLACEMENT_3D('',#1012,#784,#785);
#647=DIRECTION('',(0.,0.,1.));
#648=DIRECTION('',(1.,0.,0.));
#649=DIRECTION('',(0.,0.,1.));
#650=DIRECTION('',(1.,0.,0.));
#651=DIRECTION('',(0.,0.,1.));
#652=DIRECTION('',(1.,0.,0.));
#653=DIRECTION('',(0.,-1.,0.));
#654=DIRECTION('',(1.,0.,0.));
#655=DIRECTION('',(0.,-1.,0.));
#656=DIRECTION('',(-1.,0.,0.));
#657=DIRECTION('',(0.,-1.,0.));
#658=DIRECTION('',(-1.,0.,0.));
#659=DIRECTION('',(0.,1.,0.));
#660=DIRECTION('',(-1.,0.,0.));
#661=DIRECTION('',(0.,1.,0.));
#662=DIRECTION('',(1.,0.,0.));
#663=DIRECTION('',(0.,1.,0.));
#664=DIRECTION('',(0.,0.,1.));
#665=DIRECTION('',(1.,0.,0.));
#666=DIRECTION('',(0.,0.,1.));
#667=DIRECTION('',(1.,0.,0.));
#668=DIRECTION('',(-0.231499919747764,-0.972834922870668,0.));
#669=DIRECTION('',(0.,0.,1.));
#670=DIRECTION('',(1.,0.,0.));
#671=DIRECTION('',(0.,0.,1.));
#672=DIRECTION('',(1.,0.,0.));
#673=DIRECTION('',(-1.,0.,0.));
#674=DIRECTION('',(0.,1.,0.));
#675=DIRECTION('',(1.,0.,0.));
#676=DIRECTION('',(0.,-1.,0.));
#677=DIRECTION('',(1.,0.,0.));
#678=DIRECTION('',(0.,-1.,0.));
#679=DIRECTION('',(0.,0.,-1.));
#680=DIRECTION('',(-1.,0.,0.));
#681=DIRECTION('',(0.,0.,1.));
#682=DIRECTION('',(1.,0.,0.));
#683=DIRECTION('',(0.,0.,1.));
#684=DIRECTION('',(1.,0.,0.));
#685=DIRECTION('',(0.,-1.,0.));
#686=DIRECTION('',(0.,0.,-1.));
#687=DIRECTION('',(0.,0.,1.));
#688=DIRECTION('',(1.,0.,0.));
#689=DIRECTION('',(0.,0.,1.));
#690=DIRECTION('',(-1.,0.,0.));
#691=DIRECTION('',(0.,0.,1.));
#692=DIRECTION('',(0.,0.,1.));
#693=DIRECTION('',(0.,-1.,0.));
#694=DIRECTION('',(0.,0.,1.));
#695=DIRECTION('',(0.,0.,1.));
#696=DIRECTION('',(0.,0.,1.));
#697=DIRECTION('',(0.0945261621739396,0.995522377781969,0.));
#698=DIRECTION('',(0.,0.,1.));
#699=DIRECTION('',(0.,0.,1.));
#700=DIRECTION('',(1.,0.,0.));
#701=DIRECTION('',(0.,0.,1.));
#702=DIRECTION('',(0.239070771668415,0.971002145277686,0.));
#703=DIRECTION('',(0.,0.,1.));
#704=DIRECTION('',(0.,0.,1.));
#705=DIRECTION('',(1.,0.,0.));
#706=DIRECTION('',(-0.972834922870668,0.231499919747764,0.));
#707=DIRECTION('',(-0.231499919747764,-0.972834922870668,0.));
#708=DIRECTION('',(0.,0.,1.));
#709=DIRECTION('',(-0.231499919747764,-0.972834922870668,0.));
#710=DIRECTION('',(0.,0.,1.));
#711=DIRECTION('',(0.,0.,1.));
#712=DIRECTION('',(0.0855769132852525,0.996331567256889,0.));
#713=DIRECTION('',(0.,0.,1.));
#714=DIRECTION('',(0.,0.,1.));
#715=DIRECTION('',(1.,0.,0.));
#716=DIRECTION('',(0.,0.,1.));
#717=DIRECTION('',(0.,0.,1.));
#718=DIRECTION('',(-0.676239569613312,0.736681779664192,0.));
#719=DIRECTION('',(0.,0.,1.));
#720=DIRECTION('',(0.,0.,1.));
#721=DIRECTION('',(1.,0.,0.));
#722=DIRECTION('',(0.,0.,1.));
#723=DIRECTION('',(1.,0.,0.));
#724=DIRECTION('',(0.,0.,-1.));
#725=DIRECTION('',(0.,0.,1.));
#726=DIRECTION('',(0.,1.,0.));
#727=DIRECTION('',(0.,-1.,0.));
#728=DIRECTION('',(0.,0.,-1.));
#729=DIRECTION('',(0.,0.,1.));
#730=DIRECTION('',(1.,0.,0.));
#731=DIRECTION('',(1.,0.,0.));
#732=DIRECTION('',(0.,0.,-1.));
#733=DIRECTION('',(0.,0.,1.));
#734=DIRECTION('',(0.,1.,0.));
#735=DIRECTION('',(0.,1.,0.));
#736=DIRECTION('',(0.,0.,1.));
#737=DIRECTION('',(0.,0.,1.));
#738=DIRECTION('',(-1.,0.,0.));
#739=DIRECTION('',(1.,0.,0.));
#740=DIRECTION('',(0.,0.,-1.));
#741=DIRECTION('',(0.,0.,1.));
#742=DIRECTION('',(0.,1.,0.));
#743=DIRECTION('',(0.,1.,0.));
#744=DIRECTION('',(0.,0.,1.));
#745=DIRECTION('',(0.,0.,1.));
#746=DIRECTION('',(-1.,0.,0.));
#747=DIRECTION('',(-1.,0.,0.));
#748=DIRECTION('',(0.,0.,1.));
#749=DIRECTION('',(0.,0.,1.));
#750=DIRECTION('',(0.,-1.,0.));
#751=DIRECTION('',(0.,1.,0.));
#752=DIRECTION('',(0.,0.,1.));
#753=DIRECTION('',(0.,0.,1.));
#754=DIRECTION('',(-1.,0.,0.));
#755=DIRECTION('',(-1.,0.,0.));
#756=DIRECTION('',(0.,0.,1.));
#757=DIRECTION('',(0.,-1.,0.));
#758=DIRECTION('',(0.,0.,1.));
#759=DIRECTION('',(1.,0.,0.));
#760=DIRECTION('',(1.,0.,0.));
#761=DIRECTION('',(0.,0.,-1.));
#762=DIRECTION('',(0.,0.,1.));
#763=DIRECTION('',(0.,1.,0.));
#764=DIRECTION('',(0.,0.,1.));
#765=DIRECTION('',(0.,1.,0.));
#766=DIRECTION('',(0.,0.,1.));
#767=DIRECTION('',(0.,0.,1.));
#768=DIRECTION('',(-1.,0.,0.));
#769=DIRECTION('',(-1.,0.,0.));
#770=DIRECTION('',(0.,0.,1.));
#771=DIRECTION('',(0.,0.,1.));
#772=DIRECTION('',(0.,-1.,0.));
#773=DIRECTION('',(0.,-1.,0.));
#774=DIRECTION('',(0.,0.,-1.));
#775=DIRECTION('',(0.,0.,1.));
#776=DIRECTION('',(1.,0.,0.));
#777=DIRECTION('',(-1.,0.,0.));
#778=DIRECTION('',(0.,0.,1.));
#779=DIRECTION('',(0.,0.,1.));
#780=DIRECTION('',(0.,-1.,0.));
#781=DIRECTION('',(0.,-1.,0.));
#782=DIRECTION('',(0.,0.,-1.));
#783=DIRECTION('',(1.,0.,0.));
#784=DIRECTION('',(0.,0.,1.));
#785=DIRECTION('',(1.,0.,0.));
#786=CARTESIAN_POINT('',(0.,0.,0.));
#787=CARTESIAN_POINT('',(0.,0.,0.1785));
#788=CARTESIAN_POINT('',(0.,1.22464679914735E-18,0.1785));
#789=CARTESIAN_POINT('',(0.02,1.22464679914735E-18,0.1785));
#790=CARTESIAN_POINT('',(0.00422877058647076,0.00341325149722973,0.1785));
#791=CARTESIAN_POINT('',(0.00422877058647076,0.00382365165422992,0.1785));
#792=CARTESIAN_POINT('',(0.00422877058647076,0.00300285134022954,0.1785));
#793=CARTESIAN_POINT('',(0.00544944797652263,0.00300285134022954,0.1785));
#794=CARTESIAN_POINT('',(0.00667012536657449,0.00300285134022954,0.1785));
#795=CARTESIAN_POINT('',(0.00667012536657449,0.00172780469860926,0.1785));
#796=CARTESIAN_POINT('',(0.00667012536657449,0.000452758056988998,0.1785));
#797=CARTESIAN_POINT('',(0.00544944797652263,0.000452758056988998,0.1785));
#798=CARTESIAN_POINT('',(0.00422877058647076,0.000452758056988998,0.1785));
#799=CARTESIAN_POINT('',(0.00422877058647076,-0.00439487456672272,0.1785));
#800=CARTESIAN_POINT('',(0.00422877058647076,-0.00924250719043444,0.1785));
#801=CARTESIAN_POINT('',(0.00253455455372637,-0.00924250719043444,0.1785));
#802=CARTESIAN_POINT('',(0.000840338520981964,-0.00924250719043444,0.1785));
#803=CARTESIAN_POINT('',(0.000840338520981964,-0.00439487456672272,0.1785));
#804=CARTESIAN_POINT('',(0.000840338520981964,0.000452758056988998,0.1785));
#805=CARTESIAN_POINT('',(-2.4307963638108E-05,0.000452758056988998,0.1785));
#806=CARTESIAN_POINT('',(-0.00088895444825818,0.000452758056988998,0.1785));
#807=CARTESIAN_POINT('',(-0.00088895444825818,0.00172780469860926,0.1785));
#808=CARTESIAN_POINT('',(-0.00088895444825818,0.00300285134022954,0.1785));
#809=CARTESIAN_POINT('',(-2.4307963638108E-05,0.00300285134022954,0.1785));
#810=CARTESIAN_POINT('',(0.000840338520981964,0.00300285134022954,0.1785));
#811=CARTESIAN_POINT('',(0.000840338520981964,0.0034448207400759,0.1785));
#812=CARTESIAN_POINT('',(0.000840338520981964,0.00388679013992226,0.1785));
#813=CARTESIAN_POINT('',(0.000840338520981964,0.00388679013992226,0.1785));
#814=CARTESIAN_POINT('',(0.000840338520981964,0.00521971372676051,0.1785));
#815=CARTESIAN_POINT('',(0.00136298487476854,0.00609663713915409,0.1785));
#816=CARTESIAN_POINT('',(0.00136298487476854,0.00609663713915409,0.1785));
#817=CARTESIAN_POINT('',(0.00421643308437588,0.00442989978345772,0.1785));
#818=CARTESIAN_POINT('',(0.00279412388379486,0.00741202225774446,0.1785));
#819=CARTESIAN_POINT('',(0.00279412388379486,0.00741202225774446,0.1785));
#820=CARTESIAN_POINT('',(0.00370261653903462,0.00785048396394125,0.1785));
#821=CARTESIAN_POINT('',(0.00486015544339414,0.00785048396394125,0.1785));
#822=CARTESIAN_POINT('',(0.00486015544339414,0.00785048396394125,0.1785));
#823=CARTESIAN_POINT('',(0.00492490757437238,-0.000118931584172386,0.1785));
#824=CARTESIAN_POINT('',(0.00628954060559568,0.00773122237985572,0.1785));
#825=CARTESIAN_POINT('',(0.00628954060559568,0.00773122237985572,0.1785));
#826=CARTESIAN_POINT('',(0.00694021777759172,0.0076119607957702,0.1785));
#827=CARTESIAN_POINT('',(0.00725941789970298,0.00751374537358212,0.1785));
#828=CARTESIAN_POINT('',(0.00725941789970298,0.00751374537358212,0.1785));
#829=CARTESIAN_POINT('',(0.0069560023990148,0.00623869873196185,0.1785));
#830=CARTESIAN_POINT('',(0.00665268886468014,0.00496408057391199,0.1785));
#831=CARTESIAN_POINT('',(0.00534601675785679,0.000622981240454866,0.1785));
#832=CARTESIAN_POINT('',(0.0061614787104725,0.00508274235950171,0.1785));
#833=CARTESIAN_POINT('',(0.00557241299396081,0.00201470215472502,0.1785));
#834=CARTESIAN_POINT('',(0.00556870956060816,0.0051390367728203,0.1785));
#835=CARTESIAN_POINT('',(0.00556870956060816,0.0051390367728203,0.1785));
#836=CARTESIAN_POINT('',(0.00481806311959925,0.0051390367728203,0.1785));
#837=CARTESIAN_POINT('',(0.00452341685303501,0.00479177510151244,0.1785));
#838=CARTESIAN_POINT('',(0.00452341685303501,0.00479177510151244,0.1785));
#839=CARTESIAN_POINT('',(0.00452341685303501,0.00479177510151244,0.1785));
#840=CARTESIAN_POINT('',(0.00422877058647076,0.00444451343020458,0.1785));
#841=CARTESIAN_POINT('',(0.00422877058647076,0.00382365165422992,0.1785));
#842=CARTESIAN_POINT('',(-0.00736591077219717,-0.00924250719043444,0.1785));
#843=CARTESIAN_POINT('',(-0.00214120108115621,-0.00924250719043444,0.1785));
#844=CARTESIAN_POINT('',(-0.0125906204632381,-0.00924250719043444,0.1785));
#845=CARTESIAN_POINT('',(-0.0125906204632381,-0.0010783502210502,0.1785));
#846=CARTESIAN_POINT('',(-0.0125906204632381,0.00708580674833405,0.1785));
#847=CARTESIAN_POINT('',(-0.0108648351876476,0.00708580674833405,0.1785));
#848=CARTESIAN_POINT('',(-0.00913904991205699,0.00708580674833405,0.1785));
#849=CARTESIAN_POINT('',(-0.00913904991205699,0.000344019553852193,0.1785));
#850=CARTESIAN_POINT('',(-0.00913904991205699,-0.00639776764062966,0.1785));
#851=CARTESIAN_POINT('',(-0.0056401254966066,-0.00639776764062966,0.1785));
#852=CARTESIAN_POINT('',(-0.00214120108115621,-0.00639776764062966,0.1785));
#853=CARTESIAN_POINT('',(-0.00214120108115621,-0.00782013741553205,0.1785));
#854=CARTESIAN_POINT('',(0.,1.22464679914735E-18,0.1785));
#855=CARTESIAN_POINT('',(0.,1.22464679914735E-18,-0.1785));
#856=CARTESIAN_POINT('',(0.02,1.22464679914735E-18,-0.1785));
#857=CARTESIAN_POINT('',(0.,0.,-0.1785));
#858=CARTESIAN_POINT('',(0.00544944797652263,0.00300285134022954,0.1535));
#859=CARTESIAN_POINT('',(0.00422877058647076,0.00300285134022954,0.1535));
#860=CARTESIAN_POINT('',(0.00422877058647076,0.00300285134022954,0.1535));
#861=CARTESIAN_POINT('',(0.00544944797652263,0.00300285134022954,0.1535));
#862=CARTESIAN_POINT('',(0.00667012536657449,0.00300285134022954,0.1535));
#863=CARTESIAN_POINT('',(0.00667012536657449,0.00300285134022954,0.1535));
#864=CARTESIAN_POINT('',(0.00422877058647076,0.00341325149722973,0.1535));
#865=CARTESIAN_POINT('',(0.00422877058647076,0.00382365165422992,0.1535));
#866=CARTESIAN_POINT('',(0.00422877058647076,0.00382365165422992,0.1535));
#867=CARTESIAN_POINT('',(0.00422877058647076,0.00341325149722973,0.1535));
#868=CARTESIAN_POINT('',(0.00452341685303501,0.00479177510151244,0.1535));
#869=CARTESIAN_POINT('',(0.00452341685303501,0.00479177510151244,0.1785));
#870=CARTESIAN_POINT('',(0.00432698600865885,0.00456026732064053,0.1535));
#871=CARTESIAN_POINT('',(0.00432698600865885,0.00456026732064053,0.1785));
#872=CARTESIAN_POINT('',(0.00422877058647076,0.0042375595048797,0.1535));
#873=CARTESIAN_POINT('',(0.00422877058647076,0.0042375595048797,0.1785));
#874=CARTESIAN_POINT('',(0.00422877058647076,0.00382365165422992,0.1535));
#875=CARTESIAN_POINT('',(0.00422877058647076,0.00382365165422992,0.1785));
#876=CARTESIAN_POINT('',(0.00452341685303501,0.00479177510151244,0.1535));
#877=CARTESIAN_POINT('',(0.00452341685303501,0.00479177510151244,0.1535));
#878=CARTESIAN_POINT('',(0.00452341685303501,0.00479177510151244,0.1535));
#879=CARTESIAN_POINT('',(0.00422877058647076,0.00444451343020458,0.1535));
#880=CARTESIAN_POINT('',(0.00422877058647076,0.00382365165422992,0.1535));
#881=CARTESIAN_POINT('',(0.00556870956060816,0.0051390367728203,0.1535));
#882=CARTESIAN_POINT('',(0.00556870956060816,0.0051390367728203,0.1785));
#883=CARTESIAN_POINT('',(0.00506827859993555,0.0051390367728203,0.1535));
#884=CARTESIAN_POINT('',(0.00506827859993555,0.0051390367728203,0.1785));
#885=CARTESIAN_POINT('',(0.00471984769741117,0.00502328288238435,0.1535));
#886=CARTESIAN_POINT('',(0.00471984769741117,0.00502328288238435,0.1785));
#887=CARTESIAN_POINT('',(0.00452341685303501,0.00479177510151244,0.1535));
#888=CARTESIAN_POINT('',(0.00452341685303501,0.00479177510151244,0.1785));
#889=CARTESIAN_POINT('',(0.00556870956060816,0.0051390367728203,0.1535));
#890=CARTESIAN_POINT('',(0.00556870956060816,0.0051390367728203,0.1535));
#891=CARTESIAN_POINT('',(0.00556870956060816,0.0051390367728203,0.1535));
#892=CARTESIAN_POINT('',(0.00481806311959925,0.0051390367728203,0.1535));
#893=CARTESIAN_POINT('',(0.00452341685303501,0.00479177510151244,0.1535));
#894=CARTESIAN_POINT('',(0.00557241299396081,0.00201470215472502,0.153499999999998));
#895=CARTESIAN_POINT('',(0.00616150978738622,0.00508291367442711,0.1535));
#896=CARTESIAN_POINT('',(0.0061614787104725,0.00508274235950171,0.1535));
#897=CARTESIAN_POINT('',(0.00557241299396081,0.00201470215472502,0.1535));
#898=CARTESIAN_POINT('',(0.00534601675785679,0.000622981240454866,0.153499999999994));
#899=CARTESIAN_POINT('',(0.00665268886767878,0.00496408057563847,0.1535));
#900=CARTESIAN_POINT('',(0.00665268886468014,0.00496408057391199,0.1535));
#901=CARTESIAN_POINT('',(0.00534601675785679,0.000622981240454866,0.1535));
#902=CARTESIAN_POINT('',(0.0069560023990148,0.00623869873196185,0.1535));
#903=CARTESIAN_POINT('',(0.00725941789970298,0.00751374537358212,0.1535));
#904=CARTESIAN_POINT('',(0.00725941789970298,0.00751374537358212,0.1535));
#905=CARTESIAN_POINT('',(0.0069560023990148,0.00623869873196185,0.1535));
#906=CARTESIAN_POINT('',(0.00628954060559568,0.00773122237985572,0.1535));
#907=CARTESIAN_POINT('',(0.00628954060559568,0.00773122237985572,0.1785));
#908=CARTESIAN_POINT('',(0.00672332538692637,0.00765171465713204,0.1535));
#909=CARTESIAN_POINT('',(0.00672332538692637,0.00765171465713204,0.1785));
#910=CARTESIAN_POINT('',(0.00704661781829547,0.00757922232170751,0.1535));
#911=CARTESIAN_POINT('',(0.00704661781829547,0.00757922232170751,0.1785));
#912=CARTESIAN_POINT('',(0.00725941789970298,0.00751374537358212,0.1535));
#913=CARTESIAN_POINT('',(0.00725941789970298,0.00751374537358212,0.1785));
#914=CARTESIAN_POINT('',(0.00628954060559568,0.00773122237985572,0.1535));
#915=CARTESIAN_POINT('',(0.00628954060559568,0.00773122237985572,0.1535));
#916=CARTESIAN_POINT('',(0.00628954060559568,0.00773122237985572,0.1535));
#917=CARTESIAN_POINT('',(0.00694021777759172,0.0076119607957702,0.1535));
#918=CARTESIAN_POINT('',(0.00725941789970298,0.00751374537358212,0.1535));
#919=CARTESIAN_POINT('',(0.00492490757437238,-0.000118931584172386,0.153499999999998));
#920=CARTESIAN_POINT('',(0.00486015544339414,0.00785048396394125,0.1535));
#921=CARTESIAN_POINT('',(0.00486015544339414,0.00785048396394125,0.1535));
#922=CARTESIAN_POINT('',(0.00492490757437238,-0.000118931584172386,0.1535));
#923=CARTESIAN_POINT('',(0.00279412388379486,0.00741202225774446,0.1535));
#924=CARTESIAN_POINT('',(0.00279412388379486,0.00741202225774446,0.1785));
#925=CARTESIAN_POINT('',(0.0033997856539547,0.00770433006187565,0.1535));
#926=CARTESIAN_POINT('',(0.0033997856539547,0.00770433006187565,0.1785));
#927=CARTESIAN_POINT('',(0.00408846284048779,0.00785048396394125,0.1535));
#928=CARTESIAN_POINT('',(0.00408846284048779,0.00785048396394125,0.1785));
#929=CARTESIAN_POINT('',(0.00486015544339414,0.00785048396394125,0.1535));
#930=CARTESIAN_POINT('',(0.00486015544339414,0.00785048396394125,0.1785));
#931=CARTESIAN_POINT('',(0.00279412388379486,0.00741202225774446,0.1535));
#932=CARTESIAN_POINT('',(0.00279412388379486,0.00741202225774446,0.1535));
#933=CARTESIAN_POINT('',(0.00279412388379486,0.00741202225774446,0.1535));
#934=CARTESIAN_POINT('',(0.00370261653903462,0.00785048396394125,0.1535));
#935=CARTESIAN_POINT('',(0.00486015544339414,0.00785048396394125,0.1535));
#936=CARTESIAN_POINT('',(0.00421643308437588,0.00442989978345772,0.1535));
#937=CARTESIAN_POINT('',(0.00136298487476854,0.00609663713915409,0.1535));
#938=CARTESIAN_POINT('',(0.00136298487476854,0.00609663713915409,0.1535));
#939=CARTESIAN_POINT('',(0.00421643308437588,0.00442989978345772,0.1535));
#940=CARTESIAN_POINT('',(0.000840338520981964,0.00388679013992226,0.1535));
#941=CARTESIAN_POINT('',(0.000840338520981964,0.00388679013992226,0.1785));
#942=CARTESIAN_POINT('',(0.000840338520981964,0.00477540586448109,0.1535));
#943=CARTESIAN_POINT('',(0.000840338520981964,0.00477540586448109,0.1785));
#944=CARTESIAN_POINT('',(0.00101455397224416,0.0055120215308917,0.1535));
#945=CARTESIAN_POINT('',(0.00101455397224416,0.0055120215308917,0.1785));
#946=CARTESIAN_POINT('',(0.00136298487476854,0.00609663713915409,0.1535));
#947=CARTESIAN_POINT('',(0.00136298487476854,0.00609663713915409,0.1785));
#948=CARTESIAN_POINT('',(0.000840338520981964,0.00388679013992226,0.1535));
#949=CARTESIAN_POINT('',(0.000840338520981964,0.00388679013992226,0.1535));
#950=CARTESIAN_POINT('',(0.000840338520981964,0.00388679013992226,0.1535));
#951=CARTESIAN_POINT('',(0.000840338520981964,0.00521971372676051,0.1535));
#952=CARTESIAN_POINT('',(0.00136298487476854,0.00609663713915409,0.1535));
#953=CARTESIAN_POINT('',(0.000840338520981964,0.0034448207400759,0.1535));
#954=CARTESIAN_POINT('',(0.000840338520981964,0.00300285134022954,0.1535));
#955=CARTESIAN_POINT('',(0.000840338520981964,0.00300285134022954,0.1535));
#956=CARTESIAN_POINT('',(0.000840338520981964,0.0034448207400759,0.1535));
#957=CARTESIAN_POINT('',(-2.4307963638108E-05,0.00300285134022954,0.1535));
#958=CARTESIAN_POINT('',(-0.00088895444825818,0.00300285134022954,0.1535));
#959=CARTESIAN_POINT('',(-0.00088895444825818,0.00300285134022954,0.1535));
#960=CARTESIAN_POINT('',(-2.4307963638108E-05,0.00300285134022954,0.1535));
#961=CARTESIAN_POINT('',(-0.00088895444825818,0.00172780469860926,0.1535));
#962=CARTESIAN_POINT('',(-0.00088895444825818,0.000452758056988998,0.1535));
#963=CARTESIAN_POINT('',(-0.00088895444825818,0.000452758056988998,0.1535));
#964=CARTESIAN_POINT('',(-0.00088895444825818,0.00172780469860926,0.1535));
#965=CARTESIAN_POINT('',(-2.4307963638108E-05,0.000452758056988998,0.1535));
#966=CARTESIAN_POINT('',(0.000840338520981964,0.000452758056988998,0.1535));
#967=CARTESIAN_POINT('',(0.000840338520981964,0.000452758056988998,0.1535));
#968=CARTESIAN_POINT('',(-2.4307963638108E-05,0.000452758056988998,0.1535));
#969=CARTESIAN_POINT('',(0.000840338520981964,-0.00439487456672272,0.1535));
#970=CARTESIAN_POINT('',(0.000840338520981964,-0.00924250719043444,0.1535));
#971=CARTESIAN_POINT('',(0.000840338520981964,-0.00924250719043444,0.1535));
#972=CARTESIAN_POINT('',(0.000840338520981964,-0.00439487456672272,0.1535));
#973=CARTESIAN_POINT('',(0.00253455455372637,-0.00924250719043444,0.1535));
#974=CARTESIAN_POINT('',(0.00422877058647076,-0.00924250719043444,0.1535));
#975=CARTESIAN_POINT('',(0.00422877058647076,-0.00924250719043444,0.1535));
#976=CARTESIAN_POINT('',(0.00253455455372637,-0.00924250719043444,0.1535));
#977=CARTESIAN_POINT('',(0.00422877058647076,-0.00439487456672272,0.1535));
#978=CARTESIAN_POINT('',(0.00422877058647076,0.000452758056988998,0.1535));
#979=CARTESIAN_POINT('',(0.00422877058647076,0.000452758056988998,0.1535));
#980=CARTESIAN_POINT('',(0.00422877058647076,-0.00439487456672272,0.1535));
#981=CARTESIAN_POINT('',(0.00544944797652263,0.000452758056988998,0.1535));
#982=CARTESIAN_POINT('',(0.00667012536657449,0.000452758056988998,0.1535));
#983=CARTESIAN_POINT('',(0.00667012536657449,0.000452758056988998,0.1535));
#984=CARTESIAN_POINT('',(0.00544944797652263,0.000452758056988998,0.1535));
#985=CARTESIAN_POINT('',(0.00667012536657449,0.00172780469860926,0.1535));
#986=CARTESIAN_POINT('',(0.00667012536657449,0.00172780469860926,0.1535));
#987=CARTESIAN_POINT('',(0.,0.,0.1535));
#988=CARTESIAN_POINT('',(-0.0125906204632381,-0.0010783502210502,0.1535));
#989=CARTESIAN_POINT('',(-0.0125906204632381,-0.00924250719043444,0.1535));
#990=CARTESIAN_POINT('',(-0.0125906204632381,-0.00924250719043444,0.1535));
#991=CARTESIAN_POINT('',(-0.0125906204632381,-0.0010783502210502,0.1535));
#992=CARTESIAN_POINT('',(-0.0125906204632381,0.00708580674833405,0.1535));
#993=CARTESIAN_POINT('',(-0.0125906204632381,0.00708580674833405,0.1535));
#994=CARTESIAN_POINT('',(-0.00736591077219717,-0.00924250719043444,0.1535));
#995=CARTESIAN_POINT('',(-0.00214120108115621,-0.00924250719043444,0.1535));
#996=CARTESIAN_POINT('',(-0.00214120108115621,-0.00924250719043444,0.1535));
#997=CARTESIAN_POINT('',(-0.00736591077219717,-0.00924250719043444,0.1535));
#998=CARTESIAN_POINT('',(-0.00214120108115621,-0.00782013741553205,0.1535));
#999=CARTESIAN_POINT('',(-0.00214120108115621,-0.00639776764062966,0.1535));
#1000=CARTESIAN_POINT('',(-0.00214120108115621,-0.00639776764062966,0.1535));
#1001=CARTESIAN_POINT('',(-0.00214120108115621,-0.00782013741553205,0.1535));
#1002=CARTESIAN_POINT('',(-0.0056401254966066,-0.00639776764062966,0.1535));
#1003=CARTESIAN_POINT('',(-0.00913904991205699,-0.00639776764062966,0.1535));
#1004=CARTESIAN_POINT('',(-0.00913904991205699,-0.00639776764062966,0.1535));
#1005=CARTESIAN_POINT('',(-0.0056401254966066,-0.00639776764062966,0.1535));
#1006=CARTESIAN_POINT('',(-0.00913904991205699,0.000344019553852193,0.1535));
#1007=CARTESIAN_POINT('',(-0.00913904991205699,0.00708580674833405,0.1535));
#1008=CARTESIAN_POINT('',(-0.00913904991205699,0.00708580674833405,0.1535));
#1009=CARTESIAN_POINT('',(-0.00913904991205699,0.000344019553852193,0.1535));
#1010=CARTESIAN_POINT('',(-0.0108648351876476,0.00708580674833405,0.1535));
#1011=CARTESIAN_POINT('',(-0.0108648351876476,0.00708580674833405,0.1535));
#1012=CARTESIAN_POINT('',(0.,0.,0.1535));
#1013=MECHANICAL_DESIGN_GEOMETRIC_PRESENTATION_REPRESENTATION('',(#598),#1014);
#1014=(
GEOMETRIC_REPRESENTATION_CONTEXT(3)
GLOBAL_UNCERTAINTY_ASSIGNED_CONTEXT((#1015))
GLOBAL_UNIT_ASSIGNED_CONTEXT((#1018,#1017,#1016))
REPRESENTATION_CONTEXT('lf','TOP_LEVEL_ASSEMBLY_PART')
);
#1015=UNCERTAINTY_MEASURE_WITH_UNIT(LENGTH_MEASURE(2.E-05),#1018,'DISTANCE_ACCURACY_VALUE','Maximum Tolerance applied to model');
#1016=(
NAMED_UNIT(*)
SI_UNIT($,.STERADIAN.)
SOLID_ANGLE_UNIT()
);
#1017=(
NAMED_UNIT(*)
PLANE_ANGLE_UNIT()
SI_UNIT($,.RADIAN.)
);
#1018=(
LENGTH_UNIT()
NAMED_UNIT(*)
SI_UNIT($,.METRE.)
);
#1019=PRODUCT_DEFINITION_SHAPE('','',#1020);
#1020=PRODUCT_DEFINITION('','',#1022,#1021);
#1021=PRODUCT_DEFINITION_CONTEXT('',#1028,'design');
#1022=PRODUCT_DEFINITION_FORMATION_WITH_SPECIFIED_SOURCE('','',#1024,.NOT_KNOWN.);
#1023=PRODUCT_RELATED_PRODUCT_CATEGORY('','',(#1024));
#1024=PRODUCT('lf','lf','lf',(#1026));
#1025=PRODUCT_CATEGORY('','');
#1026=PRODUCT_CONTEXT('',#1028,'mechanical');
#1027=APPLICATION_PROTOCOL_DEFINITION('international standard','ap242_managed_model_based_3d_engineering',2020,#1028);
#1028=APPLICATION_CONTEXT('managed model based 3d engineering');
ENDSEC;
END-ISO-10303-21;
