ISO-10303-21;
HEADER;
/*Generated by software containing ST-Developer
 * from STEP Tools, Inc. (www.steptools.com) 
 */
/*OPTION: using custom renumber hook */
/*description */
/*implementation_level */
FILE_DESCRIPTION(('STEP AP242 Edition 2','STEP AP242 Edition 2''CAx-IF Rec.Pracs.---Representation and Presentation of Product Manufa
cturing Information (PMI)---4.0---2014-10-13','STEP AP242 Edition 2''CAx-IF Rec.Pracs.---Representation and Presentation of Product Manufa
cturing Information (PMI)---4.0---2014-10-13''CAx-IF Rec.Pracs.---3D Tessellated Geometry---0.4---2014-09-14','STEP AP242 Edition 2''CAx-IF Rec.Pracs.---Representation and Presentation of Product Manufa
cturing Information (PMI)---4.0---2014-10-13''CAx-IF Rec.Pracs.---3D Tessellated Geometry---0.4---2014-09-14''2;1','STEP AP242 Edition 2''CAx-IF Rec.Pracs.---Representation and Presentation of Product Manufa
cturing Information (PMI)---4.0---2014-10-13''CAx-IF Rec.Pracs.---3D Tessellated Geometry---0.4---2014-09-14''2;1''CAx-IF Rec.Pracs.---User Defined Attributes---1.5---2016-08-15'),'2;1');
/*name */
/*time_stamp */
/*author */
/*organization */
/*preprocessor_version */
/*originating_system */
/*authorisation */
FILE_NAME('/vol/tmp/translate-7033766146991713159/ph.step','2026-03-04T07:41:49',(''),(''),'ST-DEVELOPER v20','ONSHAPE BY PTC INC, 1.211','  ');
FILE_SCHEMA(('AP242_MANAGED_MODEL_BASED_3D_ENGINEERING_MIM_LF { 1 0 10303 442 3 1 4 }'));
ENDSEC;
DATA;
#10=SHAPE_REPRESENTATION_RELATIONSHIP('','',#920,#11);
#11=ADVANCED_BREP_SHAPE_REPRESENTATION('',(#918),#1618);
#12=B_SPLINE_SURFACE_WITH_KNOTS('',3,1,((#1187,#1188),(#1189,#1190),(#1191,
#1192),(#1193,#1194)),.SURF_OF_LINEAR_EXTRUSION.,.F.,.F.,.F.,(4,4),(2,2),(0.,1.),(0.,1.),.PIECEWISE_BEZIER_KNOTS.);
#13=B_SPLINE_SURFACE_WITH_KNOTS('',3,1,((#1207,#1208),(#1209,#1210),(#1211,
#1212),(#1213,#1214)),.SURF_OF_LINEAR_EXTRUSION.,.F.,.F.,.F.,(4,4),(2,2),(0.,1.),(0.,1.),.PIECEWISE_BEZIER_KNOTS.);
#14=B_SPLINE_SURFACE_WITH_KNOTS('',3,1,((#1224,#1225),(#1226,#1227),(#1228,
#1229),(#1230,#1231)),.SURF_OF_LINEAR_EXTRUSION.,.F.,.F.,.F.,(4,4),(2,2),(0.,1.),(0.,1.),.PIECEWISE_BEZIER_KNOTS.);
#15=B_SPLINE_SURFACE_WITH_KNOTS('',3,1,((#1241,#1242),(#1243,#1244),(#1245,
#1246),(#1247,#1248)),.SURF_OF_LINEAR_EXTRUSION.,.F.,.F.,.F.,(4,4),(2,2),(0.,1.),(0.,1.),.PIECEWISE_BEZIER_KNOTS.);
#16=B_SPLINE_SURFACE_WITH_KNOTS('',3,1,((#1258,#1259),(#1260,#1261),(#1262,
#1263),(#1264,#1265)),.SURF_OF_LINEAR_EXTRUSION.,.F.,.F.,.F.,(4,4),(2,2),(0.,1.),(0.,1.),.PIECEWISE_BEZIER_KNOTS.);
#17=B_SPLINE_SURFACE_WITH_KNOTS('',3,1,((#1275,#1276),(#1277,#1278),(#1279,
#1280),(#1281,#1282)),.SURF_OF_LINEAR_EXTRUSION.,.F.,.F.,.F.,(4,4),(2,2),(0.,1.),(0.,1.),.PIECEWISE_BEZIER_KNOTS.);
#18=B_SPLINE_SURFACE_WITH_KNOTS('',3,1,((#1292,#1293),(#1294,#1295),(#1296,
#1297),(#1298,#1299)),.SURF_OF_LINEAR_EXTRUSION.,.F.,.F.,.F.,(4,4),(2,2),(0.,1.),(0.,1.),.PIECEWISE_BEZIER_KNOTS.);
#19=B_SPLINE_SURFACE_WITH_KNOTS('',3,1,((#1309,#1310),(#1311,#1312),(#1313,
#1314),(#1315,#1316)),.SURF_OF_LINEAR_EXTRUSION.,.F.,.F.,.F.,(4,4),(2,2),(0.,1.),(0.,1.),.PIECEWISE_BEZIER_KNOTS.);
#20=B_SPLINE_SURFACE_WITH_KNOTS('',3,1,((#1326,#1327),(#1328,#1329),(#1330,
#1331),(#1332,#1333)),.SURF_OF_LINEAR_EXTRUSION.,.F.,.F.,.F.,(4,4),(2,2),(0.,1.),(0.,1.),.PIECEWISE_BEZIER_KNOTS.);
#21=B_SPLINE_SURFACE_WITH_KNOTS('',3,1,((#1343,#1344),(#1345,#1346),(#1347,
#1348),(#1349,#1350)),.SURF_OF_LINEAR_EXTRUSION.,.F.,.F.,.F.,(4,4),(2,2),(0.,1.),(0.,1.),.PIECEWISE_BEZIER_KNOTS.);
#22=B_SPLINE_SURFACE_WITH_KNOTS('',3,1,((#1360,#1361),(#1362,#1363),(#1364,
#1365),(#1366,#1367)),.SURF_OF_LINEAR_EXTRUSION.,.F.,.F.,.F.,(4,4),(2,2),(0.,1.),(0.,1.),.PIECEWISE_BEZIER_KNOTS.);
#23=B_SPLINE_SURFACE_WITH_KNOTS('',3,1,((#1395,#1396),(#1397,#1398),(#1399,
#1400),(#1401,#1402)),.SURF_OF_LINEAR_EXTRUSION.,.F.,.F.,.F.,(4,4),(2,2),(0.,1.),(0.,1.),.PIECEWISE_BEZIER_KNOTS.);
#24=B_SPLINE_SURFACE_WITH_KNOTS('',3,1,((#1408,#1409),(#1410,#1411),(#1412,
#1413),(#1414,#1415)),.SURF_OF_LINEAR_EXTRUSION.,.F.,.F.,.F.,(4,4),(2,2),(0.,1.),(0.,1.),.PIECEWISE_BEZIER_KNOTS.);
#25=B_SPLINE_SURFACE_WITH_KNOTS('',3,1,((#1421,#1422),(#1423,#1424),(#1425,
#1426),(#1427,#1428)),.SURF_OF_LINEAR_EXTRUSION.,.F.,.F.,.F.,(4,4),(2,2),(0.,1.),(0.,1.),.PIECEWISE_BEZIER_KNOTS.);
#26=B_SPLINE_SURFACE_WITH_KNOTS('',3,1,((#1434,#1435),(#1436,#1437),(#1438,
#1439),(#1440,#1441)),.SURF_OF_LINEAR_EXTRUSION.,.F.,.F.,.F.,(4,4),(2,2),(0.,1.),(0.,1.),.PIECEWISE_BEZIER_KNOTS.);
#27=B_SPLINE_SURFACE_WITH_KNOTS('',3,1,((#1447,#1448),(#1449,#1450),(#1451,
#1452),(#1453,#1454)),.SURF_OF_LINEAR_EXTRUSION.,.F.,.F.,.F.,(4,4),(2,2),(0.,1.),(0.,1.),.PIECEWISE_BEZIER_KNOTS.);
#28=B_SPLINE_SURFACE_WITH_KNOTS('',3,1,((#1460,#1461),(#1462,#1463),(#1464,
#1465),(#1466,#1467)),.SURF_OF_LINEAR_EXTRUSION.,.F.,.F.,.F.,(4,4),(2,2),(0.,1.),(0.,1.),.PIECEWISE_BEZIER_KNOTS.);
#29=B_SPLINE_SURFACE_WITH_KNOTS('',3,1,((#1473,#1474),(#1475,#1476),(#1477,
#1478),(#1479,#1480)),.SURF_OF_LINEAR_EXTRUSION.,.F.,.F.,.F.,(4,4),(2,2),(0.,1.),(0.,1.),.PIECEWISE_BEZIER_KNOTS.);
#30=B_SPLINE_SURFACE_WITH_KNOTS('',3,1,((#1486,#1487),(#1488,#1489),(#1490,
#1491),(#1492,#1493)),.SURF_OF_LINEAR_EXTRUSION.,.F.,.F.,.F.,(4,4),(2,2),(0.,1.),(0.,1.),.PIECEWISE_BEZIER_KNOTS.);
#31=B_SPLINE_SURFACE_WITH_KNOTS('',3,1,((#1503,#1504),(#1505,#1506),(#1507,
#1508),(#1509,#1510)),.SURF_OF_LINEAR_EXTRUSION.,.F.,.F.,.F.,(4,4),(2,2),(0.,1.),(0.,1.),.PIECEWISE_BEZIER_KNOTS.);
#32=B_SPLINE_SURFACE_WITH_KNOTS('',3,1,((#1516,#1517),(#1518,#1519),(#1520,
#1521),(#1522,#1523)),.SURF_OF_LINEAR_EXTRUSION.,.F.,.F.,.F.,(4,4),(2,2),(0.,1.),(0.,1.),.PIECEWISE_BEZIER_KNOTS.);
#33=B_SPLINE_SURFACE_WITH_KNOTS('',3,1,((#1529,#1530),(#1531,#1532),(#1533,
#1534),(#1535,#1536)),.SURF_OF_LINEAR_EXTRUSION.,.F.,.F.,.F.,(4,4),(2,2),(0.,1.),(0.,1.),.PIECEWISE_BEZIER_KNOTS.);
#34=B_SPLINE_SURFACE_WITH_KNOTS('',3,1,((#1552,#1553),(#1554,#1555),(#1556,
#1557),(#1558,#1559)),.SURF_OF_LINEAR_EXTRUSION.,.F.,.F.,.F.,(4,4),(2,2),(0.,1.),(0.,1.),.PIECEWISE_BEZIER_KNOTS.);
#35=CYLINDRICAL_SURFACE('',#925,0.02);
#36=CYLINDRICAL_SURFACE('',#932,0.00397077616430663);
#37=B_SPLINE_CURVE_WITH_KNOTS('',2,(#1110,#1111,#1112),.UNSPECIFIED.,.F.,.F.,(3,3),(0.,1.),.PIECEWISE_BEZIER_KNOTS.);
#38=B_SPLINE_CURVE_WITH_KNOTS('',2,(#1114,#1115,#1116),.UNSPECIFIED.,.F.,.F.,(3,3),(0.,1.),.PIECEWISE_BEZIER_KNOTS.);
#39=B_SPLINE_CURVE_WITH_KNOTS('',2,(#1118,#1119,#1120),.UNSPECIFIED.,.F.,.F.,(3,3),(0.,1.),.PIECEWISE_BEZIER_KNOTS.);
#40=B_SPLINE_CURVE_WITH_KNOTS('',2,(#1124,#1125,#1126),.UNSPECIFIED.,.F.,.F.,(3,3),(0.,1.),.PIECEWISE_BEZIER_KNOTS.);
#41=B_SPLINE_CURVE_WITH_KNOTS('',2,(#1128,#1129,#1130),.UNSPECIFIED.,.F.,.F.,(3,3),(0.,1.),.PIECEWISE_BEZIER_KNOTS.);
#42=B_SPLINE_CURVE_WITH_KNOTS('',2,(#1132,#1133,#1134),.UNSPECIFIED.,.F.,.F.,(3,3),(0.,1.),.PIECEWISE_BEZIER_KNOTS.);
#43=B_SPLINE_CURVE_WITH_KNOTS('',2,(#1136,#1137,#1138),.UNSPECIFIED.,.F.,.F.,(3,3),(0.,1.),.PIECEWISE_BEZIER_KNOTS.);
#44=B_SPLINE_CURVE_WITH_KNOTS('',2,(#1140,#1141,#1142),.UNSPECIFIED.,.F.,.F.,(3,3),(0.,1.),.PIECEWISE_BEZIER_KNOTS.);
#45=B_SPLINE_CURVE_WITH_KNOTS('',2,(#1144,#1145,#1146),.UNSPECIFIED.,.F.,.F.,(3,3),(0.,1.),.PIECEWISE_BEZIER_KNOTS.);
#46=B_SPLINE_CURVE_WITH_KNOTS('',2,(#1148,#1149,#1150),.UNSPECIFIED.,.F.,.F.,(3,3),(0.,1.),.PIECEWISE_BEZIER_KNOTS.);
#47=B_SPLINE_CURVE_WITH_KNOTS('',2,(#1152,#1153,#1154),.UNSPECIFIED.,.F.,.F.,(3,3),(0.,1.),.PIECEWISE_BEZIER_KNOTS.);
#48=B_SPLINE_CURVE_WITH_KNOTS('',2,(#1195,#1196,#1197),.UNSPECIFIED.,.F.,.F.,(3,3),(0.,1.),.PIECEWISE_BEZIER_KNOTS.);
#49=B_SPLINE_CURVE_WITH_KNOTS('',2,(#1202,#1203,#1204),.UNSPECIFIED.,.F.,.F.,(3,3),(0.,1.),.PIECEWISE_BEZIER_KNOTS.);
#50=B_SPLINE_CURVE_WITH_KNOTS('',2,(#1215,#1216,#1217),.UNSPECIFIED.,.F.,.F.,(3,3),(0.,1.),.PIECEWISE_BEZIER_KNOTS.);
#51=B_SPLINE_CURVE_WITH_KNOTS('',2,(#1221,#1222,#1223),.UNSPECIFIED.,.F.,.F.,(3,3),(0.,1.),.PIECEWISE_BEZIER_KNOTS.);
#52=B_SPLINE_CURVE_WITH_KNOTS('',2,(#1232,#1233,#1234),.UNSPECIFIED.,.F.,.F.,(3,3),(0.,1.),.PIECEWISE_BEZIER_KNOTS.);
#53=B_SPLINE_CURVE_WITH_KNOTS('',2,(#1238,#1239,#1240),.UNSPECIFIED.,.F.,.F.,(3,3),(0.,1.),.PIECEWISE_BEZIER_KNOTS.);
#54=B_SPLINE_CURVE_WITH_KNOTS('',2,(#1249,#1250,#1251),.UNSPECIFIED.,.F.,.F.,(3,3),(0.,1.),.PIECEWISE_BEZIER_KNOTS.);
#55=B_SPLINE_CURVE_WITH_KNOTS('',2,(#1255,#1256,#1257),.UNSPECIFIED.,.F.,.F.,(3,3),(0.,1.),.PIECEWISE_BEZIER_KNOTS.);
#56=B_SPLINE_CURVE_WITH_KNOTS('',2,(#1266,#1267,#1268),.UNSPECIFIED.,.F.,.F.,(3,3),(0.,1.),.PIECEWISE_BEZIER_KNOTS.);
#57=B_SPLINE_CURVE_WITH_KNOTS('',2,(#1272,#1273,#1274),.UNSPECIFIED.,.F.,.F.,(3,3),(0.,1.),.PIECEWISE_BEZIER_KNOTS.);
#58=B_SPLINE_CURVE_WITH_KNOTS('',2,(#1283,#1284,#1285),.UNSPECIFIED.,.F.,.F.,(3,3),(0.,1.),.PIECEWISE_BEZIER_KNOTS.);
#59=B_SPLINE_CURVE_WITH_KNOTS('',2,(#1289,#1290,#1291),.UNSPECIFIED.,.F.,.F.,(3,3),(0.,1.),.PIECEWISE_BEZIER_KNOTS.);
#60=B_SPLINE_CURVE_WITH_KNOTS('',2,(#1300,#1301,#1302),.UNSPECIFIED.,.F.,.F.,(3,3),(0.,1.),.PIECEWISE_BEZIER_KNOTS.);
#61=B_SPLINE_CURVE_WITH_KNOTS('',2,(#1306,#1307,#1308),.UNSPECIFIED.,.F.,.F.,(3,3),(0.,1.),.PIECEWISE_BEZIER_KNOTS.);
#62=B_SPLINE_CURVE_WITH_KNOTS('',2,(#1317,#1318,#1319),.UNSPECIFIED.,.F.,.F.,(3,3),(0.,1.),.PIECEWISE_BEZIER_KNOTS.);
#63=B_SPLINE_CURVE_WITH_KNOTS('',2,(#1323,#1324,#1325),.UNSPECIFIED.,.F.,.F.,(3,3),(0.,1.),.PIECEWISE_BEZIER_KNOTS.);
#64=B_SPLINE_CURVE_WITH_KNOTS('',2,(#1334,#1335,#1336),.UNSPECIFIED.,.F.,.F.,(3,3),(0.,1.),.PIECEWISE_BEZIER_KNOTS.);
#65=B_SPLINE_CURVE_WITH_KNOTS('',2,(#1340,#1341,#1342),.UNSPECIFIED.,.F.,.F.,(3,3),(0.,1.),.PIECEWISE_BEZIER_KNOTS.);
#66=B_SPLINE_CURVE_WITH_KNOTS('',2,(#1351,#1352,#1353),.UNSPECIFIED.,.F.,.F.,(3,3),(0.,1.),.PIECEWISE_BEZIER_KNOTS.);
#67=B_SPLINE_CURVE_WITH_KNOTS('',2,(#1357,#1358,#1359),.UNSPECIFIED.,.F.,.F.,(3,3),(0.,1.),.PIECEWISE_BEZIER_KNOTS.);
#68=B_SPLINE_CURVE_WITH_KNOTS('',2,(#1368,#1369,#1370),.UNSPECIFIED.,.F.,.F.,(3,3),(0.,1.),.PIECEWISE_BEZIER_KNOTS.);
#69=B_SPLINE_CURVE_WITH_KNOTS('',2,(#1374,#1375,#1376),.UNSPECIFIED.,.F.,.F.,(3,3),(0.,1.),.PIECEWISE_BEZIER_KNOTS.);
#70=B_SPLINE_CURVE_WITH_KNOTS('',2,(#1405,#1406,#1407),.UNSPECIFIED.,.F.,.F.,(3,3),(0.,1.),.PIECEWISE_BEZIER_KNOTS.);
#71=B_SPLINE_CURVE_WITH_KNOTS('',2,(#1418,#1419,#1420),.UNSPECIFIED.,.F.,.F.,(3,3),(0.,1.),.PIECEWISE_BEZIER_KNOTS.);
#72=B_SPLINE_CURVE_WITH_KNOTS('',2,(#1431,#1432,#1433),.UNSPECIFIED.,.F.,.F.,(3,3),(0.,1.),.PIECEWISE_BEZIER_KNOTS.);
#73=B_SPLINE_CURVE_WITH_KNOTS('',2,(#1444,#1445,#1446),.UNSPECIFIED.,.F.,.F.,(3,3),(0.,1.),.PIECEWISE_BEZIER_KNOTS.);
#74=B_SPLINE_CURVE_WITH_KNOTS('',2,(#1457,#1458,#1459),.UNSPECIFIED.,.F.,.F.,(3,3),(0.,1.),.PIECEWISE_BEZIER_KNOTS.);
#75=B_SPLINE_CURVE_WITH_KNOTS('',2,(#1470,#1471,#1472),.UNSPECIFIED.,.F.,.F.,(3,3),(0.,1.),.PIECEWISE_BEZIER_KNOTS.);
#76=B_SPLINE_CURVE_WITH_KNOTS('',2,(#1483,#1484,#1485),.UNSPECIFIED.,.F.,.F.,(3,3),(0.,1.),.PIECEWISE_BEZIER_KNOTS.);
#77=B_SPLINE_CURVE_WITH_KNOTS('',2,(#1496,#1497,#1498),.UNSPECIFIED.,.F.,.F.,(3,3),(0.,1.),.PIECEWISE_BEZIER_KNOTS.);
#78=B_SPLINE_CURVE_WITH_KNOTS('',2,(#1513,#1514,#1515),.UNSPECIFIED.,.F.,.F.,(3,3),(0.,1.),.PIECEWISE_BEZIER_KNOTS.);
#79=B_SPLINE_CURVE_WITH_KNOTS('',2,(#1526,#1527,#1528),.UNSPECIFIED.,.F.,.F.,(3,3),(0.,1.),.PIECEWISE_BEZIER_KNOTS.);
#80=B_SPLINE_CURVE_WITH_KNOTS('',2,(#1539,#1540,#1541),.UNSPECIFIED.,.F.,.F.,(3,3),(0.,1.),.PIECEWISE_BEZIER_KNOTS.);
#81=B_SPLINE_CURVE_WITH_KNOTS('',2,(#1560,#1561,#1562),.UNSPECIFIED.,.F.,.F.,(3,3),(0.,1.),.PIECEWISE_BEZIER_KNOTS.);
#82=B_SPLINE_CURVE_WITH_KNOTS('',2,(#1563,#1564,#1565),.UNSPECIFIED.,.F.,.F.,(3,3),(0.,1.),.PIECEWISE_BEZIER_KNOTS.);
#83=LINE('',#1099,#164);
#84=LINE('',#1102,#165);
#85=LINE('',#1104,#166);
#86=LINE('',#1106,#167);
#87=LINE('',#1108,#168);
#88=LINE('',#1156,#169);
#89=LINE('',#1158,#170);
#90=LINE('',#1159,#171);
#91=LINE('',#1162,#172);
#92=LINE('',#1164,#173);
#93=LINE('',#1166,#174);
#94=LINE('',#1168,#175);
#95=LINE('',#1170,#176);
#96=LINE('',#1172,#177);
#97=LINE('',#1174,#178);
#98=LINE('',#1176,#179);
#99=LINE('',#1178,#180);
#100=LINE('',#1180,#181);
#101=LINE('',#1182,#182);
#102=LINE('',#1200,#183);
#103=LINE('',#1206,#184);
#104=LINE('',#1219,#185);
#105=LINE('',#1236,#186);
#106=LINE('',#1253,#187);
#107=LINE('',#1270,#188);
#108=LINE('',#1287,#189);
#109=LINE('',#1304,#190);
#110=LINE('',#1321,#191);
#111=LINE('',#1338,#192);
#112=LINE('',#1355,#193);
#113=LINE('',#1372,#194);
#114=LINE('',#1378,#195);
#115=LINE('',#1380,#196);
#116=LINE('',#1382,#197);
#117=LINE('',#1384,#198);
#118=LINE('',#1386,#199);
#119=LINE('',#1388,#200);
#120=LINE('',#1390,#201);
#121=LINE('',#1392,#202);
#122=LINE('',#1394,#203);
#123=LINE('',#1403,#204);
#124=LINE('',#1416,#205);
#125=LINE('',#1429,#206);
#126=LINE('',#1442,#207);
#127=LINE('',#1455,#208);
#128=LINE('',#1468,#209);
#129=LINE('',#1481,#210);
#130=LINE('',#1494,#211);
#131=LINE('',#1500,#212);
#132=LINE('',#1511,#213);
#133=LINE('',#1524,#214);
#134=LINE('',#1537,#215);
#135=LINE('',#1543,#216);
#136=LINE('',#1545,#217);
#137=LINE('',#1547,#218);
#138=LINE('',#1549,#219);
#139=LINE('',#1551,#220);
#140=LINE('',#1568,#221);
#141=LINE('',#1570,#222);
#142=LINE('',#1572,#223);
#143=LINE('',#1574,#224);
#144=LINE('',#1576,#225);
#145=LINE('',#1578,#226);
#146=LINE('',#1580,#227);
#147=LINE('',#1582,#228);
#148=LINE('',#1584,#229);
#149=LINE('',#1586,#230);
#150=LINE('',#1588,#231);
#151=LINE('',#1590,#232);
#152=LINE('',#1592,#233);
#153=LINE('',#1594,#234);
#154=LINE('',#1596,#235);
#155=LINE('',#1598,#236);
#156=LINE('',#1600,#237);
#157=LINE('',#1602,#238);
#158=LINE('',#1604,#239);
#159=LINE('',#1606,#240);
#160=LINE('',#1608,#241);
#161=LINE('',#1610,#242);
#162=LINE('',#1612,#243);
#163=LINE('',#1614,#244);
#164=VECTOR('',#958,1.);
#165=VECTOR('',#959,1.);
#166=VECTOR('',#960,1.);
#167=VECTOR('',#961,1.);
#168=VECTOR('',#962,1.);
#169=VECTOR('',#965,1.);
#170=VECTOR('',#966,1.);
#171=VECTOR('',#967,1.);
#172=VECTOR('',#968,1.);
#173=VECTOR('',#969,1.);
#174=VECTOR('',#970,1.);
#175=VECTOR('',#971,1.);
#176=VECTOR('',#972,1.);
#177=VECTOR('',#973,1.);
#178=VECTOR('',#974,1.);
#179=VECTOR('',#975,1.);
#180=VECTOR('',#976,1.);
#181=VECTOR('',#977,1.);
#182=VECTOR('',#978,1.);
#183=VECTOR('',#985,1.);
#184=VECTOR('',#986,1.);
#185=VECTOR('',#987,1.);
#186=VECTOR('',#988,1.);
#187=VECTOR('',#989,1.);
#188=VECTOR('',#990,1.);
#189=VECTOR('',#991,1.);
#190=VECTOR('',#992,1.);
#191=VECTOR('',#993,1.);
#192=VECTOR('',#994,1.);
#193=VECTOR('',#995,1.);
#194=VECTOR('',#996,1.);
#195=VECTOR('',#999,1.);
#196=VECTOR('',#1000,1.);
#197=VECTOR('',#1001,1.);
#198=VECTOR('',#1004,1.);
#199=VECTOR('',#1005,1.);
#200=VECTOR('',#1008,1.);
#201=VECTOR('',#1009,1.);
#202=VECTOR('',#1012,1.);
#203=VECTOR('',#1013,1.);
#204=VECTOR('',#1014,1.);
#205=VECTOR('',#1015,1.);
#206=VECTOR('',#1016,1.);
#207=VECTOR('',#1017,1.);
#208=VECTOR('',#1018,1.);
#209=VECTOR('',#1019,1.);
#210=VECTOR('',#1020,1.);
#211=VECTOR('',#1021,1.);
#212=VECTOR('',#1024,1.);
#213=VECTOR('',#1027,1.);
#214=VECTOR('',#1028,1.);
#215=VECTOR('',#1029,1.);
#216=VECTOR('',#1032,1.);
#217=VECTOR('',#1033,1.);
#218=VECTOR('',#1036,1.);
#219=VECTOR('',#1037,1.);
#220=VECTOR('',#1040,1.);
#221=VECTOR('',#1045,1.);
#222=VECTOR('',#1046,1.);
#223=VECTOR('',#1047,1.);
#224=VECTOR('',#1050,1.);
#225=VECTOR('',#1051,1.);
#226=VECTOR('',#1054,1.);
#227=VECTOR('',#1055,1.);
#228=VECTOR('',#1058,1.);
#229=VECTOR('',#1059,1.);
#230=VECTOR('',#1062,1.);
#231=VECTOR('',#1063,1.);
#232=VECTOR('',#1066,1.);
#233=VECTOR('',#1067,1.);
#234=VECTOR('',#1070,1.);
#235=VECTOR('',#1071,1.);
#236=VECTOR('',#1074,1.);
#237=VECTOR('',#1075,1.);
#238=VECTOR('',#1078,1.);
#239=VECTOR('',#1079,1.);
#240=VECTOR('',#1082,1.);
#241=VECTOR('',#1083,1.);
#242=VECTOR('',#1086,1.);
#243=VECTOR('',#1087,1.);
#244=VECTOR('',#1090,1.);
#245=ORIENTED_EDGE('',*,*,#507,.T.);
#246=ORIENTED_EDGE('',*,*,#508,.T.);
#247=ORIENTED_EDGE('',*,*,#509,.T.);
#248=ORIENTED_EDGE('',*,*,#510,.T.);
#249=ORIENTED_EDGE('',*,*,#511,.T.);
#250=ORIENTED_EDGE('',*,*,#512,.T.);
#251=ORIENTED_EDGE('',*,*,#513,.T.);
#252=ORIENTED_EDGE('',*,*,#514,.T.);
#253=ORIENTED_EDGE('',*,*,#515,.T.);
#254=ORIENTED_EDGE('',*,*,#516,.T.);
#255=ORIENTED_EDGE('',*,*,#517,.T.);
#256=ORIENTED_EDGE('',*,*,#518,.T.);
#257=ORIENTED_EDGE('',*,*,#519,.T.);
#258=ORIENTED_EDGE('',*,*,#520,.T.);
#259=ORIENTED_EDGE('',*,*,#521,.T.);
#260=ORIENTED_EDGE('',*,*,#522,.T.);
#261=ORIENTED_EDGE('',*,*,#523,.T.);
#262=ORIENTED_EDGE('',*,*,#524,.T.);
#263=ORIENTED_EDGE('',*,*,#525,.T.);
#264=ORIENTED_EDGE('',*,*,#526,.T.);
#265=ORIENTED_EDGE('',*,*,#527,.T.);
#266=ORIENTED_EDGE('',*,*,#528,.T.);
#267=ORIENTED_EDGE('',*,*,#529,.T.);
#268=ORIENTED_EDGE('',*,*,#530,.T.);
#269=ORIENTED_EDGE('',*,*,#531,.T.);
#270=ORIENTED_EDGE('',*,*,#532,.T.);
#271=ORIENTED_EDGE('',*,*,#533,.T.);
#272=ORIENTED_EDGE('',*,*,#534,.T.);
#273=ORIENTED_EDGE('',*,*,#535,.T.);
#274=ORIENTED_EDGE('',*,*,#536,.T.);
#275=ORIENTED_EDGE('',*,*,#537,.T.);
#276=ORIENTED_EDGE('',*,*,#538,.T.);
#277=ORIENTED_EDGE('',*,*,#507,.F.);
#278=ORIENTED_EDGE('',*,*,#539,.T.);
#279=ORIENTED_EDGE('',*,*,#539,.F.);
#280=ORIENTED_EDGE('',*,*,#540,.F.);
#281=ORIENTED_EDGE('',*,*,#541,.F.);
#282=ORIENTED_EDGE('',*,*,#542,.T.);
#283=ORIENTED_EDGE('',*,*,#543,.T.);
#284=ORIENTED_EDGE('',*,*,#544,.F.);
#285=ORIENTED_EDGE('',*,*,#545,.F.);
#286=ORIENTED_EDGE('',*,*,#546,.T.);
#287=ORIENTED_EDGE('',*,*,#541,.T.);
#288=ORIENTED_EDGE('',*,*,#547,.F.);
#289=ORIENTED_EDGE('',*,*,#548,.F.);
#290=ORIENTED_EDGE('',*,*,#549,.T.);
#291=ORIENTED_EDGE('',*,*,#545,.T.);
#292=ORIENTED_EDGE('',*,*,#550,.F.);
#293=ORIENTED_EDGE('',*,*,#551,.F.);
#294=ORIENTED_EDGE('',*,*,#552,.T.);
#295=ORIENTED_EDGE('',*,*,#548,.T.);
#296=ORIENTED_EDGE('',*,*,#553,.F.);
#297=ORIENTED_EDGE('',*,*,#554,.F.);
#298=ORIENTED_EDGE('',*,*,#555,.T.);
#299=ORIENTED_EDGE('',*,*,#551,.T.);
#300=ORIENTED_EDGE('',*,*,#556,.F.);
#301=ORIENTED_EDGE('',*,*,#557,.F.);
#302=ORIENTED_EDGE('',*,*,#558,.T.);
#303=ORIENTED_EDGE('',*,*,#554,.T.);
#304=ORIENTED_EDGE('',*,*,#559,.F.);
#305=ORIENTED_EDGE('',*,*,#560,.F.);
#306=ORIENTED_EDGE('',*,*,#561,.T.);
#307=ORIENTED_EDGE('',*,*,#557,.T.);
#308=ORIENTED_EDGE('',*,*,#562,.F.);
#309=ORIENTED_EDGE('',*,*,#563,.F.);
#310=ORIENTED_EDGE('',*,*,#564,.T.);
#311=ORIENTED_EDGE('',*,*,#560,.T.);
#312=ORIENTED_EDGE('',*,*,#565,.F.);
#313=ORIENTED_EDGE('',*,*,#566,.F.);
#314=ORIENTED_EDGE('',*,*,#567,.T.);
#315=ORIENTED_EDGE('',*,*,#563,.T.);
#316=ORIENTED_EDGE('',*,*,#568,.F.);
#317=ORIENTED_EDGE('',*,*,#569,.F.);
#318=ORIENTED_EDGE('',*,*,#570,.T.);
#319=ORIENTED_EDGE('',*,*,#566,.T.);
#320=ORIENTED_EDGE('',*,*,#571,.F.);
#321=ORIENTED_EDGE('',*,*,#572,.F.);
#322=ORIENTED_EDGE('',*,*,#573,.T.);
#323=ORIENTED_EDGE('',*,*,#569,.T.);
#324=ORIENTED_EDGE('',*,*,#509,.F.);
#325=ORIENTED_EDGE('',*,*,#574,.F.);
#326=ORIENTED_EDGE('',*,*,#575,.T.);
#327=ORIENTED_EDGE('',*,*,#576,.T.);
#328=ORIENTED_EDGE('',*,*,#508,.F.);
#329=ORIENTED_EDGE('',*,*,#577,.F.);
#330=ORIENTED_EDGE('',*,*,#578,.T.);
#331=ORIENTED_EDGE('',*,*,#574,.T.);
#332=ORIENTED_EDGE('',*,*,#526,.F.);
#333=ORIENTED_EDGE('',*,*,#579,.F.);
#334=ORIENTED_EDGE('',*,*,#580,.T.);
#335=ORIENTED_EDGE('',*,*,#577,.T.);
#336=ORIENTED_EDGE('',*,*,#525,.F.);
#337=ORIENTED_EDGE('',*,*,#581,.F.);
#338=ORIENTED_EDGE('',*,*,#582,.T.);
#339=ORIENTED_EDGE('',*,*,#579,.T.);
#340=ORIENTED_EDGE('',*,*,#524,.F.);
#341=ORIENTED_EDGE('',*,*,#583,.F.);
#342=ORIENTED_EDGE('',*,*,#584,.T.);
#343=ORIENTED_EDGE('',*,*,#581,.T.);
#344=ORIENTED_EDGE('',*,*,#523,.F.);
#345=ORIENTED_EDGE('',*,*,#585,.F.);
#346=ORIENTED_EDGE('',*,*,#586,.T.);
#347=ORIENTED_EDGE('',*,*,#583,.T.);
#348=ORIENTED_EDGE('',*,*,#522,.F.);
#349=ORIENTED_EDGE('',*,*,#587,.F.);
#350=ORIENTED_EDGE('',*,*,#588,.T.);
#351=ORIENTED_EDGE('',*,*,#585,.T.);
#352=ORIENTED_EDGE('',*,*,#521,.F.);
#353=ORIENTED_EDGE('',*,*,#589,.F.);
#354=ORIENTED_EDGE('',*,*,#590,.T.);
#355=ORIENTED_EDGE('',*,*,#587,.T.);
#356=ORIENTED_EDGE('',*,*,#520,.F.);
#357=ORIENTED_EDGE('',*,*,#591,.F.);
#358=ORIENTED_EDGE('',*,*,#592,.T.);
#359=ORIENTED_EDGE('',*,*,#589,.T.);
#360=ORIENTED_EDGE('',*,*,#519,.F.);
#361=ORIENTED_EDGE('',*,*,#593,.F.);
#362=ORIENTED_EDGE('',*,*,#594,.T.);
#363=ORIENTED_EDGE('',*,*,#591,.T.);
#364=ORIENTED_EDGE('',*,*,#518,.F.);
#365=ORIENTED_EDGE('',*,*,#595,.F.);
#366=ORIENTED_EDGE('',*,*,#596,.T.);
#367=ORIENTED_EDGE('',*,*,#593,.T.);
#368=ORIENTED_EDGE('',*,*,#517,.F.);
#369=ORIENTED_EDGE('',*,*,#597,.F.);
#370=ORIENTED_EDGE('',*,*,#598,.T.);
#371=ORIENTED_EDGE('',*,*,#595,.T.);
#372=ORIENTED_EDGE('',*,*,#516,.F.);
#373=ORIENTED_EDGE('',*,*,#599,.F.);
#374=ORIENTED_EDGE('',*,*,#600,.T.);
#375=ORIENTED_EDGE('',*,*,#597,.T.);
#376=ORIENTED_EDGE('',*,*,#515,.F.);
#377=ORIENTED_EDGE('',*,*,#601,.F.);
#378=ORIENTED_EDGE('',*,*,#602,.T.);
#379=ORIENTED_EDGE('',*,*,#599,.T.);
#380=ORIENTED_EDGE('',*,*,#514,.F.);
#381=ORIENTED_EDGE('',*,*,#603,.F.);
#382=ORIENTED_EDGE('',*,*,#604,.T.);
#383=ORIENTED_EDGE('',*,*,#601,.T.);
#384=ORIENTED_EDGE('',*,*,#513,.F.);
#385=ORIENTED_EDGE('',*,*,#605,.F.);
#386=ORIENTED_EDGE('',*,*,#606,.T.);
#387=ORIENTED_EDGE('',*,*,#603,.T.);
#388=ORIENTED_EDGE('',*,*,#512,.F.);
#389=ORIENTED_EDGE('',*,*,#607,.F.);
#390=ORIENTED_EDGE('',*,*,#608,.T.);
#391=ORIENTED_EDGE('',*,*,#605,.T.);
#392=ORIENTED_EDGE('',*,*,#511,.F.);
#393=ORIENTED_EDGE('',*,*,#609,.F.);
#394=ORIENTED_EDGE('',*,*,#610,.T.);
#395=ORIENTED_EDGE('',*,*,#607,.T.);
#396=ORIENTED_EDGE('',*,*,#510,.F.);
#397=ORIENTED_EDGE('',*,*,#576,.F.);
#398=ORIENTED_EDGE('',*,*,#611,.T.);
#399=ORIENTED_EDGE('',*,*,#609,.T.);
#400=ORIENTED_EDGE('',*,*,#612,.F.);
#401=ORIENTED_EDGE('',*,*,#543,.F.);
#402=ORIENTED_EDGE('',*,*,#613,.T.);
#403=ORIENTED_EDGE('',*,*,#572,.T.);
#404=ORIENTED_EDGE('',*,*,#575,.F.);
#405=ORIENTED_EDGE('',*,*,#578,.F.);
#406=ORIENTED_EDGE('',*,*,#580,.F.);
#407=ORIENTED_EDGE('',*,*,#582,.F.);
#408=ORIENTED_EDGE('',*,*,#584,.F.);
#409=ORIENTED_EDGE('',*,*,#586,.F.);
#410=ORIENTED_EDGE('',*,*,#588,.F.);
#411=ORIENTED_EDGE('',*,*,#590,.F.);
#412=ORIENTED_EDGE('',*,*,#592,.F.);
#413=ORIENTED_EDGE('',*,*,#594,.F.);
#414=ORIENTED_EDGE('',*,*,#596,.F.);
#415=ORIENTED_EDGE('',*,*,#598,.F.);
#416=ORIENTED_EDGE('',*,*,#600,.F.);
#417=ORIENTED_EDGE('',*,*,#602,.F.);
#418=ORIENTED_EDGE('',*,*,#604,.F.);
#419=ORIENTED_EDGE('',*,*,#606,.F.);
#420=ORIENTED_EDGE('',*,*,#608,.F.);
#421=ORIENTED_EDGE('',*,*,#610,.F.);
#422=ORIENTED_EDGE('',*,*,#611,.F.);
#423=ORIENTED_EDGE('',*,*,#542,.F.);
#424=ORIENTED_EDGE('',*,*,#546,.F.);
#425=ORIENTED_EDGE('',*,*,#549,.F.);
#426=ORIENTED_EDGE('',*,*,#552,.F.);
#427=ORIENTED_EDGE('',*,*,#555,.F.);
#428=ORIENTED_EDGE('',*,*,#558,.F.);
#429=ORIENTED_EDGE('',*,*,#561,.F.);
#430=ORIENTED_EDGE('',*,*,#564,.F.);
#431=ORIENTED_EDGE('',*,*,#567,.F.);
#432=ORIENTED_EDGE('',*,*,#570,.F.);
#433=ORIENTED_EDGE('',*,*,#573,.F.);
#434=ORIENTED_EDGE('',*,*,#613,.F.);
#435=ORIENTED_EDGE('',*,*,#528,.F.);
#436=ORIENTED_EDGE('',*,*,#614,.F.);
#437=ORIENTED_EDGE('',*,*,#615,.T.);
#438=ORIENTED_EDGE('',*,*,#616,.T.);
#439=ORIENTED_EDGE('',*,*,#527,.F.);
#440=ORIENTED_EDGE('',*,*,#617,.F.);
#441=ORIENTED_EDGE('',*,*,#618,.T.);
#442=ORIENTED_EDGE('',*,*,#614,.T.);
#443=ORIENTED_EDGE('',*,*,#538,.F.);
#444=ORIENTED_EDGE('',*,*,#619,.F.);
#445=ORIENTED_EDGE('',*,*,#620,.T.);
#446=ORIENTED_EDGE('',*,*,#617,.T.);
#447=ORIENTED_EDGE('',*,*,#537,.F.);
#448=ORIENTED_EDGE('',*,*,#621,.F.);
#449=ORIENTED_EDGE('',*,*,#622,.T.);
#450=ORIENTED_EDGE('',*,*,#619,.T.);
#451=ORIENTED_EDGE('',*,*,#536,.F.);
#452=ORIENTED_EDGE('',*,*,#623,.F.);
#453=ORIENTED_EDGE('',*,*,#624,.T.);
#454=ORIENTED_EDGE('',*,*,#621,.T.);
#455=ORIENTED_EDGE('',*,*,#535,.F.);
#456=ORIENTED_EDGE('',*,*,#625,.F.);
#457=ORIENTED_EDGE('',*,*,#626,.T.);
#458=ORIENTED_EDGE('',*,*,#623,.T.);
#459=ORIENTED_EDGE('',*,*,#534,.F.);
#460=ORIENTED_EDGE('',*,*,#627,.F.);
#461=ORIENTED_EDGE('',*,*,#628,.T.);
#462=ORIENTED_EDGE('',*,*,#625,.T.);
#463=ORIENTED_EDGE('',*,*,#533,.F.);
#464=ORIENTED_EDGE('',*,*,#629,.F.);
#465=ORIENTED_EDGE('',*,*,#630,.T.);
#466=ORIENTED_EDGE('',*,*,#627,.T.);
#467=ORIENTED_EDGE('',*,*,#532,.F.);
#468=ORIENTED_EDGE('',*,*,#631,.F.);
#469=ORIENTED_EDGE('',*,*,#632,.T.);
#470=ORIENTED_EDGE('',*,*,#629,.T.);
#471=ORIENTED_EDGE('',*,*,#531,.F.);
#472=ORIENTED_EDGE('',*,*,#633,.F.);
#473=ORIENTED_EDGE('',*,*,#634,.T.);
#474=ORIENTED_EDGE('',*,*,#631,.T.);
#475=ORIENTED_EDGE('',*,*,#530,.F.);
#476=ORIENTED_EDGE('',*,*,#635,.F.);
#477=ORIENTED_EDGE('',*,*,#636,.T.);
#478=ORIENTED_EDGE('',*,*,#633,.T.);
#479=ORIENTED_EDGE('',*,*,#529,.F.);
#480=ORIENTED_EDGE('',*,*,#616,.F.);
#481=ORIENTED_EDGE('',*,*,#637,.T.);
#482=ORIENTED_EDGE('',*,*,#635,.T.);
#483=ORIENTED_EDGE('',*,*,#615,.F.);
#484=ORIENTED_EDGE('',*,*,#618,.F.);
#485=ORIENTED_EDGE('',*,*,#620,.F.);
#486=ORIENTED_EDGE('',*,*,#622,.F.);
#487=ORIENTED_EDGE('',*,*,#624,.F.);
#488=ORIENTED_EDGE('',*,*,#626,.F.);
#489=ORIENTED_EDGE('',*,*,#628,.F.);
#490=ORIENTED_EDGE('',*,*,#630,.F.);
#491=ORIENTED_EDGE('',*,*,#632,.F.);
#492=ORIENTED_EDGE('',*,*,#634,.F.);
#493=ORIENTED_EDGE('',*,*,#636,.F.);
#494=ORIENTED_EDGE('',*,*,#637,.F.);
#495=ORIENTED_EDGE('',*,*,#544,.T.);
#496=ORIENTED_EDGE('',*,*,#540,.T.);
#497=ORIENTED_EDGE('',*,*,#612,.T.);
#498=ORIENTED_EDGE('',*,*,#571,.T.);
#499=ORIENTED_EDGE('',*,*,#568,.T.);
#500=ORIENTED_EDGE('',*,*,#565,.T.);
#501=ORIENTED_EDGE('',*,*,#562,.T.);
#502=ORIENTED_EDGE('',*,*,#559,.T.);
#503=ORIENTED_EDGE('',*,*,#556,.T.);
#504=ORIENTED_EDGE('',*,*,#553,.T.);
#505=ORIENTED_EDGE('',*,*,#550,.T.);
#506=ORIENTED_EDGE('',*,*,#547,.T.);
#507=EDGE_CURVE('',#638,#638,#726,.T.);
#508=EDGE_CURVE('',#639,#640,#83,.T.);
#509=EDGE_CURVE('',#640,#641,#84,.T.);
#510=EDGE_CURVE('',#641,#642,#85,.T.);
#511=EDGE_CURVE('',#642,#643,#86,.T.);
#512=EDGE_CURVE('',#643,#644,#87,.T.);
#513=EDGE_CURVE('',#644,#645,#37,.T.);
#514=EDGE_CURVE('',#645,#646,#38,.T.);
#515=EDGE_CURVE('',#646,#647,#39,.T.);
#516=EDGE_CURVE('',#647,#648,#727,.F.);
#517=EDGE_CURVE('',#648,#649,#40,.T.);
#518=EDGE_CURVE('',#649,#650,#41,.T.);
#519=EDGE_CURVE('',#650,#651,#42,.T.);
#520=EDGE_CURVE('',#651,#652,#43,.T.);
#521=EDGE_CURVE('',#652,#653,#44,.T.);
#522=EDGE_CURVE('',#653,#654,#45,.T.);
#523=EDGE_CURVE('',#654,#655,#46,.T.);
#524=EDGE_CURVE('',#655,#656,#47,.T.);
#525=EDGE_CURVE('',#656,#657,#88,.T.);
#526=EDGE_CURVE('',#657,#639,#89,.T.);
#527=EDGE_CURVE('',#658,#659,#90,.T.);
#528=EDGE_CURVE('',#659,#660,#91,.T.);
#529=EDGE_CURVE('',#660,#661,#92,.T.);
#530=EDGE_CURVE('',#661,#662,#93,.T.);
#531=EDGE_CURVE('',#662,#663,#94,.T.);
#532=EDGE_CURVE('',#663,#664,#95,.T.);
#533=EDGE_CURVE('',#664,#665,#96,.T.);
#534=EDGE_CURVE('',#665,#666,#97,.T.);
#535=EDGE_CURVE('',#666,#667,#98,.T.);
#536=EDGE_CURVE('',#667,#668,#99,.T.);
#537=EDGE_CURVE('',#668,#669,#100,.T.);
#538=EDGE_CURVE('',#669,#658,#101,.T.);
#539=EDGE_CURVE('',#670,#670,#728,.T.);
#540=EDGE_CURVE('',#671,#672,#48,.T.);
#541=EDGE_CURVE('',#673,#671,#102,.T.);
#542=EDGE_CURVE('',#673,#674,#49,.T.);
#543=EDGE_CURVE('',#674,#672,#103,.T.);
#544=EDGE_CURVE('',#675,#671,#50,.T.);
#545=EDGE_CURVE('',#676,#675,#104,.T.);
#546=EDGE_CURVE('',#676,#673,#51,.T.);
#547=EDGE_CURVE('',#677,#675,#52,.T.);
#548=EDGE_CURVE('',#678,#677,#105,.T.);
#549=EDGE_CURVE('',#678,#676,#53,.T.);
#550=EDGE_CURVE('',#679,#677,#54,.T.);
#551=EDGE_CURVE('',#680,#679,#106,.T.);
#552=EDGE_CURVE('',#680,#678,#55,.T.);
#553=EDGE_CURVE('',#681,#679,#56,.T.);
#554=EDGE_CURVE('',#682,#681,#107,.T.);
#555=EDGE_CURVE('',#682,#680,#57,.T.);
#556=EDGE_CURVE('',#683,#681,#58,.T.);
#557=EDGE_CURVE('',#684,#683,#108,.T.);
#558=EDGE_CURVE('',#684,#682,#59,.T.);
#559=EDGE_CURVE('',#685,#683,#60,.T.);
#560=EDGE_CURVE('',#686,#685,#109,.T.);
#561=EDGE_CURVE('',#686,#684,#61,.T.);
#562=EDGE_CURVE('',#687,#685,#62,.T.);
#563=EDGE_CURVE('',#688,#687,#110,.T.);
#564=EDGE_CURVE('',#688,#686,#63,.T.);
#565=EDGE_CURVE('',#689,#687,#64,.T.);
#566=EDGE_CURVE('',#690,#689,#111,.T.);
#567=EDGE_CURVE('',#690,#688,#65,.T.);
#568=EDGE_CURVE('',#691,#689,#66,.T.);
#569=EDGE_CURVE('',#692,#691,#112,.T.);
#570=EDGE_CURVE('',#692,#690,#67,.T.);
#571=EDGE_CURVE('',#693,#691,#68,.T.);
#572=EDGE_CURVE('',#694,#693,#113,.T.);
#573=EDGE_CURVE('',#694,#692,#69,.T.);
#574=EDGE_CURVE('',#695,#640,#114,.T.);
#575=EDGE_CURVE('',#695,#696,#115,.T.);
#576=EDGE_CURVE('',#696,#641,#116,.T.);
#577=EDGE_CURVE('',#697,#639,#117,.T.);
#578=EDGE_CURVE('',#697,#695,#118,.T.);
#579=EDGE_CURVE('',#698,#657,#119,.T.);
#580=EDGE_CURVE('',#698,#697,#120,.T.);
#581=EDGE_CURVE('',#699,#656,#121,.T.);
#582=EDGE_CURVE('',#699,#698,#122,.T.);
#583=EDGE_CURVE('',#700,#655,#123,.T.);
#584=EDGE_CURVE('',#700,#699,#70,.T.);
#585=EDGE_CURVE('',#701,#654,#124,.T.);
#586=EDGE_CURVE('',#701,#700,#71,.T.);
#587=EDGE_CURVE('',#702,#653,#125,.T.);
#588=EDGE_CURVE('',#702,#701,#72,.T.);
#589=EDGE_CURVE('',#703,#652,#126,.T.);
#590=EDGE_CURVE('',#703,#702,#73,.T.);
#591=EDGE_CURVE('',#704,#651,#127,.T.);
#592=EDGE_CURVE('',#704,#703,#74,.T.);
#593=EDGE_CURVE('',#705,#650,#128,.T.);
#594=EDGE_CURVE('',#705,#704,#75,.T.);
#595=EDGE_CURVE('',#706,#649,#129,.T.);
#596=EDGE_CURVE('',#706,#705,#76,.T.);
#597=EDGE_CURVE('',#707,#648,#130,.T.);
#598=EDGE_CURVE('',#707,#706,#77,.T.);
#599=EDGE_CURVE('',#708,#647,#131,.T.);
#600=EDGE_CURVE('',#708,#707,#729,.F.);
#601=EDGE_CURVE('',#709,#646,#132,.T.);
#602=EDGE_CURVE('',#709,#708,#78,.T.);
#603=EDGE_CURVE('',#710,#645,#133,.T.);
#604=EDGE_CURVE('',#710,#709,#79,.T.);
#605=EDGE_CURVE('',#711,#644,#134,.T.);
#606=EDGE_CURVE('',#711,#710,#80,.T.);
#607=EDGE_CURVE('',#712,#643,#135,.T.);
#608=EDGE_CURVE('',#712,#711,#136,.T.);
#609=EDGE_CURVE('',#713,#642,#137,.T.);
#610=EDGE_CURVE('',#713,#712,#138,.T.);
#611=EDGE_CURVE('',#696,#713,#139,.T.);
#612=EDGE_CURVE('',#672,#693,#81,.T.);
#613=EDGE_CURVE('',#674,#694,#82,.T.);
#614=EDGE_CURVE('',#714,#659,#140,.T.);
#615=EDGE_CURVE('',#714,#715,#141,.T.);
#616=EDGE_CURVE('',#715,#660,#142,.T.);
#617=EDGE_CURVE('',#716,#658,#143,.T.);
#618=EDGE_CURVE('',#716,#714,#144,.T.);
#619=EDGE_CURVE('',#717,#669,#145,.T.);
#620=EDGE_CURVE('',#717,#716,#146,.T.);
#621=EDGE_CURVE('',#718,#668,#147,.T.);
#622=EDGE_CURVE('',#718,#717,#148,.T.);
#623=EDGE_CURVE('',#719,#667,#149,.T.);
#624=EDGE_CURVE('',#719,#718,#150,.T.);
#625=EDGE_CURVE('',#720,#666,#151,.T.);
#626=EDGE_CURVE('',#720,#719,#152,.T.);
#627=EDGE_CURVE('',#721,#665,#153,.T.);
#628=EDGE_CURVE('',#721,#720,#154,.T.);
#629=EDGE_CURVE('',#722,#664,#155,.T.);
#630=EDGE_CURVE('',#722,#721,#156,.T.);
#631=EDGE_CURVE('',#723,#663,#157,.T.);
#632=EDGE_CURVE('',#723,#722,#158,.T.);
#633=EDGE_CURVE('',#724,#662,#159,.T.);
#634=EDGE_CURVE('',#724,#723,#160,.T.);
#635=EDGE_CURVE('',#725,#661,#161,.T.);
#636=EDGE_CURVE('',#725,#724,#162,.T.);
#637=EDGE_CURVE('',#715,#725,#163,.T.);
#638=VERTEX_POINT('',#1098);
#639=VERTEX_POINT('',#1100);
#640=VERTEX_POINT('',#1101);
#641=VERTEX_POINT('',#1103);
#642=VERTEX_POINT('',#1105);
#643=VERTEX_POINT('',#1107);
#644=VERTEX_POINT('',#1109);
#645=VERTEX_POINT('',#1113);
#646=VERTEX_POINT('',#1117);
#647=VERTEX_POINT('',#1121);
#648=VERTEX_POINT('',#1123);
#649=VERTEX_POINT('',#1127);
#650=VERTEX_POINT('',#1131);
#651=VERTEX_POINT('',#1135);
#652=VERTEX_POINT('',#1139);
#653=VERTEX_POINT('',#1143);
#654=VERTEX_POINT('',#1147);
#655=VERTEX_POINT('',#1151);
#656=VERTEX_POINT('',#1155);
#657=VERTEX_POINT('',#1157);
#658=VERTEX_POINT('',#1160);
#659=VERTEX_POINT('',#1161);
#660=VERTEX_POINT('',#1163);
#661=VERTEX_POINT('',#1165);
#662=VERTEX_POINT('',#1167);
#663=VERTEX_POINT('',#1169);
#664=VERTEX_POINT('',#1171);
#665=VERTEX_POINT('',#1173);
#666=VERTEX_POINT('',#1175);
#667=VERTEX_POINT('',#1177);
#668=VERTEX_POINT('',#1179);
#669=VERTEX_POINT('',#1181);
#670=VERTEX_POINT('',#1185);
#671=VERTEX_POINT('',#1198);
#672=VERTEX_POINT('',#1199);
#673=VERTEX_POINT('',#1201);
#674=VERTEX_POINT('',#1205);
#675=VERTEX_POINT('',#1218);
#676=VERTEX_POINT('',#1220);
#677=VERTEX_POINT('',#1235);
#678=VERTEX_POINT('',#1237);
#679=VERTEX_POINT('',#1252);
#680=VERTEX_POINT('',#1254);
#681=VERTEX_POINT('',#1269);
#682=VERTEX_POINT('',#1271);
#683=VERTEX_POINT('',#1286);
#684=VERTEX_POINT('',#1288);
#685=VERTEX_POINT('',#1303);
#686=VERTEX_POINT('',#1305);
#687=VERTEX_POINT('',#1320);
#688=VERTEX_POINT('',#1322);
#689=VERTEX_POINT('',#1337);
#690=VERTEX_POINT('',#1339);
#691=VERTEX_POINT('',#1354);
#692=VERTEX_POINT('',#1356);
#693=VERTEX_POINT('',#1371);
#694=VERTEX_POINT('',#1373);
#695=VERTEX_POINT('',#1379);
#696=VERTEX_POINT('',#1381);
#697=VERTEX_POINT('',#1385);
#698=VERTEX_POINT('',#1389);
#699=VERTEX_POINT('',#1393);
#700=VERTEX_POINT('',#1404);
#701=VERTEX_POINT('',#1417);
#702=VERTEX_POINT('',#1430);
#703=VERTEX_POINT('',#1443);
#704=VERTEX_POINT('',#1456);
#705=VERTEX_POINT('',#1469);
#706=VERTEX_POINT('',#1482);
#707=VERTEX_POINT('',#1495);
#708=VERTEX_POINT('',#1501);
#709=VERTEX_POINT('',#1512);
#710=VERTEX_POINT('',#1525);
#711=VERTEX_POINT('',#1538);
#712=VERTEX_POINT('',#1544);
#713=VERTEX_POINT('',#1548);
#714=VERTEX_POINT('',#1569);
#715=VERTEX_POINT('',#1571);
#716=VERTEX_POINT('',#1575);
#717=VERTEX_POINT('',#1579);
#718=VERTEX_POINT('',#1583);
#719=VERTEX_POINT('',#1587);
#720=VERTEX_POINT('',#1591);
#721=VERTEX_POINT('',#1595);
#722=VERTEX_POINT('',#1599);
#723=VERTEX_POINT('',#1603);
#724=VERTEX_POINT('',#1607);
#725=VERTEX_POINT('',#1611);
#726=CIRCLE('',#923,0.02);
#727=CIRCLE('',#924,0.00397077616430663);
#728=CIRCLE('',#926,0.02);
#729=CIRCLE('',#933,0.00397077616430663);
#730=EDGE_LOOP('',(#245));
#731=EDGE_LOOP('',(#246,#247,#248,#249,#250,#251,#252,#253,#254,#255,#256,#257,#258,#259,#260,#261,#262,#263,#264));
#732=EDGE_LOOP('',(#265,#266,#267,#268,#269,#270,#271,#272,#273,#274,#275,#276));
#733=EDGE_LOOP('',(#277));
#734=EDGE_LOOP('',(#278));
#735=EDGE_LOOP('',(#279));
#736=EDGE_LOOP('',(#280,#281,#282,#283));
#737=EDGE_LOOP('',(#284,#285,#286,#287));
#738=EDGE_LOOP('',(#288,#289,#290,#291));
#739=EDGE_LOOP('',(#292,#293,#294,#295));
#740=EDGE_LOOP('',(#296,#297,#298,#299));
#741=EDGE_LOOP('',(#300,#301,#302,#303));
#742=EDGE_LOOP('',(#304,#305,#306,#307));
#743=EDGE_LOOP('',(#308,#309,#310,#311));
#744=EDGE_LOOP('',(#312,#313,#314,#315));
#745=EDGE_LOOP('',(#316,#317,#318,#319));
#746=EDGE_LOOP('',(#320,#321,#322,#323));
#747=EDGE_LOOP('',(#324,#325,#326,#327));
#748=EDGE_LOOP('',(#328,#329,#330,#331));
#749=EDGE_LOOP('',(#332,#333,#334,#335));
#750=EDGE_LOOP('',(#336,#337,#338,#339));
#751=EDGE_LOOP('',(#340,#341,#342,#343));
#752=EDGE_LOOP('',(#344,#345,#346,#347));
#753=EDGE_LOOP('',(#348,#349,#350,#351));
#754=EDGE_LOOP('',(#352,#353,#354,#355));
#755=EDGE_LOOP('',(#356,#357,#358,#359));
#756=EDGE_LOOP('',(#360,#361,#362,#363));
#757=EDGE_LOOP('',(#364,#365,#366,#367));
#758=EDGE_LOOP('',(#368,#369,#370,#371));
#759=EDGE_LOOP('',(#372,#373,#374,#375));
#760=EDGE_LOOP('',(#376,#377,#378,#379));
#761=EDGE_LOOP('',(#380,#381,#382,#383));
#762=EDGE_LOOP('',(#384,#385,#386,#387));
#763=EDGE_LOOP('',(#388,#389,#390,#391));
#764=EDGE_LOOP('',(#392,#393,#394,#395));
#765=EDGE_LOOP('',(#396,#397,#398,#399));
#766=EDGE_LOOP('',(#400,#401,#402,#403));
#767=EDGE_LOOP('',(#404,#405,#406,#407,#408,#409,#410,#411,#412,#413,#414,#415,#416,#417,#418,#419,#420,#421,#422));
#768=EDGE_LOOP('',(#423,#424,#425,#426,#427,#428,#429,#430,#431,#432,#433,#434));
#769=EDGE_LOOP('',(#435,#436,#437,#438));
#770=EDGE_LOOP('',(#439,#440,#441,#442));
#771=EDGE_LOOP('',(#443,#444,#445,#446));
#772=EDGE_LOOP('',(#447,#448,#449,#450));
#773=EDGE_LOOP('',(#451,#452,#453,#454));
#774=EDGE_LOOP('',(#455,#456,#457,#458));
#775=EDGE_LOOP('',(#459,#460,#461,#462));
#776=EDGE_LOOP('',(#463,#464,#465,#466));
#777=EDGE_LOOP('',(#467,#468,#469,#470));
#778=EDGE_LOOP('',(#471,#472,#473,#474));
#779=EDGE_LOOP('',(#475,#476,#477,#478));
#780=EDGE_LOOP('',(#479,#480,#481,#482));
#781=EDGE_LOOP('',(#483,#484,#485,#486,#487,#488,#489,#490,#491,#492,#493,#494));
#782=EDGE_LOOP('',(#495,#496,#497,#498,#499,#500,#501,#502,#503,#504,#505,#506));
#783=FACE_BOUND('',#730,.T.);
#784=FACE_BOUND('',#731,.T.);
#785=FACE_BOUND('',#732,.T.);
#786=FACE_BOUND('',#733,.T.);
#787=FACE_BOUND('',#734,.T.);
#788=FACE_BOUND('',#735,.T.);
#789=FACE_BOUND('',#736,.T.);
#790=FACE_BOUND('',#737,.T.);
#791=FACE_BOUND('',#738,.T.);
#792=FACE_BOUND('',#739,.T.);
#793=FACE_BOUND('',#740,.T.);
#794=FACE_BOUND('',#741,.T.);
#795=FACE_BOUND('',#742,.T.);
#796=FACE_BOUND('',#743,.T.);
#797=FACE_BOUND('',#744,.T.);
#798=FACE_BOUND('',#745,.T.);
#799=FACE_BOUND('',#746,.T.);
#800=FACE_BOUND('',#747,.T.);
#801=FACE_BOUND('',#748,.T.);
#802=FACE_BOUND('',#749,.T.);
#803=FACE_BOUND('',#750,.T.);
#804=FACE_BOUND('',#751,.T.);
#805=FACE_BOUND('',#752,.T.);
#806=FACE_BOUND('',#753,.T.);
#807=FACE_BOUND('',#754,.T.);
#808=FACE_BOUND('',#755,.T.);
#809=FACE_BOUND('',#756,.T.);
#810=FACE_BOUND('',#757,.T.);
#811=FACE_BOUND('',#758,.T.);
#812=FACE_BOUND('',#759,.T.);
#813=FACE_BOUND('',#760,.T.);
#814=FACE_BOUND('',#761,.T.);
#815=FACE_BOUND('',#762,.T.);
#816=FACE_BOUND('',#763,.T.);
#817=FACE_BOUND('',#764,.T.);
#818=FACE_BOUND('',#765,.T.);
#819=FACE_BOUND('',#766,.T.);
#820=FACE_BOUND('',#767,.T.);
#821=FACE_BOUND('',#768,.T.);
#822=FACE_BOUND('',#769,.T.);
#823=FACE_BOUND('',#770,.T.);
#824=FACE_BOUND('',#771,.T.);
#825=FACE_BOUND('',#772,.T.);
#826=FACE_BOUND('',#773,.T.);
#827=FACE_BOUND('',#774,.T.);
#828=FACE_BOUND('',#775,.T.);
#829=FACE_BOUND('',#776,.T.);
#830=FACE_BOUND('',#777,.T.);
#831=FACE_BOUND('',#778,.T.);
#832=FACE_BOUND('',#779,.T.);
#833=FACE_BOUND('',#780,.T.);
#834=FACE_BOUND('',#781,.T.);
#835=FACE_BOUND('',#782,.T.);
#836=PLANE('',#922);
#837=PLANE('',#927);
#838=PLANE('',#928);
#839=PLANE('',#929);
#840=PLANE('',#930);
#841=PLANE('',#931);
#842=PLANE('',#934);
#843=PLANE('',#935);
#844=PLANE('',#936);
#845=PLANE('',#937);
#846=PLANE('',#938);
#847=PLANE('',#939);
#848=PLANE('',#940);
#849=PLANE('',#941);
#850=PLANE('',#942);
#851=PLANE('',#943);
#852=PLANE('',#944);
#853=PLANE('',#945);
#854=PLANE('',#946);
#855=PLANE('',#947);
#856=PLANE('',#948);
#857=PLANE('',#949);
#858=PLANE('',#950);
#859=PLANE('',#951);
#860=ADVANCED_FACE('',(#783,#784,#785),#836,.T.);
#861=ADVANCED_FACE('',(#786,#787),#35,.T.);
#862=ADVANCED_FACE('',(#788),#837,.F.);
#863=ADVANCED_FACE('',(#789),#12,.T.);
#864=ADVANCED_FACE('',(#790),#13,.T.);
#865=ADVANCED_FACE('',(#791),#14,.T.);
#866=ADVANCED_FACE('',(#792),#15,.T.);
#867=ADVANCED_FACE('',(#793),#16,.T.);
#868=ADVANCED_FACE('',(#794),#17,.T.);
#869=ADVANCED_FACE('',(#795),#18,.T.);
#870=ADVANCED_FACE('',(#796),#19,.T.);
#871=ADVANCED_FACE('',(#797),#20,.T.);
#872=ADVANCED_FACE('',(#798),#21,.T.);
#873=ADVANCED_FACE('',(#799),#22,.T.);
#874=ADVANCED_FACE('',(#800),#838,.T.);
#875=ADVANCED_FACE('',(#801),#839,.T.);
#876=ADVANCED_FACE('',(#802),#840,.T.);
#877=ADVANCED_FACE('',(#803),#841,.T.);
#878=ADVANCED_FACE('',(#804),#23,.T.);
#879=ADVANCED_FACE('',(#805),#24,.T.);
#880=ADVANCED_FACE('',(#806),#25,.T.);
#881=ADVANCED_FACE('',(#807),#26,.T.);
#882=ADVANCED_FACE('',(#808),#27,.T.);
#883=ADVANCED_FACE('',(#809),#28,.T.);
#884=ADVANCED_FACE('',(#810),#29,.T.);
#885=ADVANCED_FACE('',(#811),#30,.T.);
#886=ADVANCED_FACE('',(#812),#36,.F.);
#887=ADVANCED_FACE('',(#813),#31,.T.);
#888=ADVANCED_FACE('',(#814),#32,.T.);
#889=ADVANCED_FACE('',(#815),#33,.T.);
#890=ADVANCED_FACE('',(#816),#842,.T.);
#891=ADVANCED_FACE('',(#817),#843,.T.);
#892=ADVANCED_FACE('',(#818),#844,.T.);
#893=ADVANCED_FACE('',(#819),#34,.T.);
#894=ADVANCED_FACE('',(#820,#821),#845,.T.);
#895=ADVANCED_FACE('',(#822),#846,.T.);
#896=ADVANCED_FACE('',(#823),#847,.T.);
#897=ADVANCED_FACE('',(#824),#848,.T.);
#898=ADVANCED_FACE('',(#825),#849,.T.);
#899=ADVANCED_FACE('',(#826),#850,.T.);
#900=ADVANCED_FACE('',(#827),#851,.T.);
#901=ADVANCED_FACE('',(#828),#852,.T.);
#902=ADVANCED_FACE('',(#829),#853,.T.);
#903=ADVANCED_FACE('',(#830),#854,.T.);
#904=ADVANCED_FACE('',(#831),#855,.T.);
#905=ADVANCED_FACE('',(#832),#856,.T.);
#906=ADVANCED_FACE('',(#833),#857,.T.);
#907=ADVANCED_FACE('',(#834),#858,.T.);
#908=ADVANCED_FACE('',(#835),#859,.T.);
#909=CLOSED_SHELL('',(#860,#861,#862,#863,#864,#865,#866,#867,#868,#869,#870,#871,#872,#873,#874,#875,#876,#877,#878,#879,#880,#881,#882,#883,#884,#885,#886,#887,#888,#889,#890,#891,#892,#893,#894,#895,#896,#897,#898,#899,#900,#901,#902,#903,#904,#905,#906,#907,#908));
#910=STYLED_ITEM('',(#911),#918);
#911=PRESENTATION_STYLE_ASSIGNMENT((#912));
#912=SURFACE_STYLE_USAGE(.BOTH.,#913);
#913=SURFACE_SIDE_STYLE('',(#914));
#914=SURFACE_STYLE_FILL_AREA(#915);
#915=FILL_AREA_STYLE('',(#916));
#916=FILL_AREA_STYLE_COLOUR('',#917);
#917=COLOUR_RGB('',0.615686274509804,0.811764705882353,0.929411764705882);
#918=MANIFOLD_SOLID_BREP('ph',#909);
#919=SHAPE_DEFINITION_REPRESENTATION(#1623,#920);
#920=SHAPE_REPRESENTATION('ph',(#921),#1618);
#921=AXIS2_PLACEMENT_3D('',#1095,#952,#953);
#922=AXIS2_PLACEMENT_3D('',#1096,#954,#955);
#923=AXIS2_PLACEMENT_3D('',#1097,#956,#957);
#924=AXIS2_PLACEMENT_3D('',#1122,#963,#964);
#925=AXIS2_PLACEMENT_3D('',#1183,#979,#980);
#926=AXIS2_PLACEMENT_3D('',#1184,#981,#982);
#927=AXIS2_PLACEMENT_3D('',#1186,#983,#984);
#928=AXIS2_PLACEMENT_3D('',#1377,#997,#998);
#929=AXIS2_PLACEMENT_3D('',#1383,#1002,#1003);
#930=AXIS2_PLACEMENT_3D('',#1387,#1006,#1007);
#931=AXIS2_PLACEMENT_3D('',#1391,#1010,#1011);
#932=AXIS2_PLACEMENT_3D('',#1499,#1022,#1023);
#933=AXIS2_PLACEMENT_3D('',#1502,#1025,#1026);
#934=AXIS2_PLACEMENT_3D('',#1542,#1030,#1031);
#935=AXIS2_PLACEMENT_3D('',#1546,#1034,#1035);
#936=AXIS2_PLACEMENT_3D('',#1550,#1038,#1039);
#937=AXIS2_PLACEMENT_3D('',#1566,#1041,#1042);
#938=AXIS2_PLACEMENT_3D('',#1567,#1043,#1044);
#939=AXIS2_PLACEMENT_3D('',#1573,#1048,#1049);
#940=AXIS2_PLACEMENT_3D('',#1577,#1052,#1053);
#941=AXIS2_PLACEMENT_3D('',#1581,#1056,#1057);
#942=AXIS2_PLACEMENT_3D('',#1585,#1060,#1061);
#943=AXIS2_PLACEMENT_3D('',#1589,#1064,#1065);
#944=AXIS2_PLACEMENT_3D('',#1593,#1068,#1069);
#945=AXIS2_PLACEMENT_3D('',#1597,#1072,#1073);
#946=AXIS2_PLACEMENT_3D('',#1601,#1076,#1077);
#947=AXIS2_PLACEMENT_3D('',#1605,#1080,#1081);
#948=AXIS2_PLACEMENT_3D('',#1609,#1084,#1085);
#949=AXIS2_PLACEMENT_3D('',#1613,#1088,#1089);
#950=AXIS2_PLACEMENT_3D('',#1615,#1091,#1092);
#951=AXIS2_PLACEMENT_3D('',#1616,#1093,#1094);
#952=DIRECTION('',(0.,0.,1.));
#953=DIRECTION('',(1.,0.,0.));
#954=DIRECTION('',(0.,0.,1.));
#955=DIRECTION('',(1.,0.,0.));
#956=DIRECTION('',(0.,0.,1.));
#957=DIRECTION('',(1.,0.,0.));
#958=DIRECTION('',(-1.,0.,0.));
#959=DIRECTION('',(0.,1.,0.));
#960=DIRECTION('',(1.,0.,0.));
#961=DIRECTION('',(0.,-1.,0.));
#962=DIRECTION('',(1.,0.,0.));
#963=DIRECTION('',(0.,0.,1.));
#964=DIRECTION('',(1.,0.,0.));
#965=DIRECTION('',(-1.,0.,0.));
#966=DIRECTION('',(0.,-1.,0.));
#967=DIRECTION('',(-1.,0.,0.));
#968=DIRECTION('',(0.,1.,0.));
#969=DIRECTION('',(1.,0.,0.));
#970=DIRECTION('',(0.,-1.,0.));
#971=DIRECTION('',(1.,0.,0.));
#972=DIRECTION('',(0.,1.,0.));
#973=DIRECTION('',(1.,0.,0.));
#974=DIRECTION('',(0.,-1.,0.));
#975=DIRECTION('',(-1.,0.,0.));
#976=DIRECTION('',(0.,1.,0.));
#977=DIRECTION('',(-1.,0.,0.));
#978=DIRECTION('',(0.,-1.,0.));
#979=DIRECTION('',(0.,0.,-1.));
#980=DIRECTION('',(-1.,0.,0.));
#981=DIRECTION('',(0.,0.,1.));
#982=DIRECTION('',(1.,0.,0.));
#983=DIRECTION('',(0.,0.,1.));
#984=DIRECTION('',(1.,0.,0.));
#985=DIRECTION('',(0.,0.,1.));
#986=DIRECTION('',(0.,0.,1.));
#987=DIRECTION('',(0.,0.,1.));
#988=DIRECTION('',(0.,0.,1.));
#989=DIRECTION('',(0.,0.,1.));
#990=DIRECTION('',(0.,0.,1.));
#991=DIRECTION('',(0.,0.,1.));
#992=DIRECTION('',(0.,0.,1.));
#993=DIRECTION('',(0.,0.,1.));
#994=DIRECTION('',(0.,0.,1.));
#995=DIRECTION('',(0.,0.,1.));
#996=DIRECTION('',(0.,0.,1.));
#997=DIRECTION('',(1.,0.,0.));
#998=DIRECTION('',(0.,0.,-1.));
#999=DIRECTION('',(0.,0.,1.));
#1000=DIRECTION('',(0.,1.,0.));
#1001=DIRECTION('',(0.,0.,1.));
#1002=DIRECTION('',(0.,1.,0.));
#1003=DIRECTION('',(0.,0.,1.));
#1004=DIRECTION('',(0.,0.,1.));
#1005=DIRECTION('',(-1.,0.,0.));
#1006=DIRECTION('',(-1.,0.,0.));
#1007=DIRECTION('',(0.,0.,1.));
#1008=DIRECTION('',(0.,0.,1.));
#1009=DIRECTION('',(0.,-1.,0.));
#1010=DIRECTION('',(0.,1.,0.));
#1011=DIRECTION('',(0.,0.,1.));
#1012=DIRECTION('',(0.,0.,1.));
#1013=DIRECTION('',(-1.,0.,0.));
#1014=DIRECTION('',(0.,0.,1.));
#1015=DIRECTION('',(0.,0.,1.));
#1016=DIRECTION('',(0.,0.,1.));
#1017=DIRECTION('',(0.,0.,1.));
#1018=DIRECTION('',(0.,0.,1.));
#1019=DIRECTION('',(0.,0.,1.));
#1020=DIRECTION('',(0.,0.,1.));
#1021=DIRECTION('',(0.,0.,1.));
#1022=DIRECTION('',(0.,0.,1.));
#1023=DIRECTION('',(0.271383119753909,0.962471403373958,0.));
#1024=DIRECTION('',(0.,0.,1.));
#1025=DIRECTION('',(0.,0.,1.));
#1026=DIRECTION('',(1.,0.,0.));
#1027=DIRECTION('',(0.,0.,1.));
#1028=DIRECTION('',(0.,0.,1.));
#1029=DIRECTION('',(0.,0.,1.));
#1030=DIRECTION('',(0.,-1.,0.));
#1031=DIRECTION('',(0.,0.,-1.));
#1032=DIRECTION('',(0.,0.,1.));
#1033=DIRECTION('',(1.,0.,0.));
#1034=DIRECTION('',(-1.,0.,0.));
#1035=DIRECTION('',(0.,0.,1.));
#1036=DIRECTION('',(0.,0.,1.));
#1037=DIRECTION('',(0.,-1.,0.));
#1038=DIRECTION('',(0.,-1.,0.));
#1039=DIRECTION('',(0.,0.,-1.));
#1040=DIRECTION('',(1.,0.,0.));
#1041=DIRECTION('',(0.,0.,1.));
#1042=DIRECTION('',(1.,0.,0.));
#1043=DIRECTION('',(1.,0.,0.));
#1044=DIRECTION('',(0.,0.,-1.));
#1045=DIRECTION('',(0.,0.,1.));
#1046=DIRECTION('',(0.,1.,0.));
#1047=DIRECTION('',(0.,0.,1.));
#1048=DIRECTION('',(0.,1.,0.));
#1049=DIRECTION('',(0.,0.,1.));
#1050=DIRECTION('',(0.,0.,1.));
#1051=DIRECTION('',(-1.,0.,0.));
#1052=DIRECTION('',(-1.,0.,0.));
#1053=DIRECTION('',(0.,0.,1.));
#1054=DIRECTION('',(0.,0.,1.));
#1055=DIRECTION('',(0.,-1.,0.));
#1056=DIRECTION('',(0.,1.,0.));
#1057=DIRECTION('',(0.,0.,1.));
#1058=DIRECTION('',(0.,0.,1.));
#1059=DIRECTION('',(-1.,0.,0.));
#1060=DIRECTION('',(1.,0.,0.));
#1061=DIRECTION('',(0.,0.,-1.));
#1062=DIRECTION('',(0.,0.,1.));
#1063=DIRECTION('',(0.,1.,0.));
#1064=DIRECTION('',(0.,1.,0.));
#1065=DIRECTION('',(0.,0.,1.));
#1066=DIRECTION('',(0.,0.,1.));
#1067=DIRECTION('',(-1.,0.,0.));
#1068=DIRECTION('',(-1.,0.,0.));
#1069=DIRECTION('',(0.,0.,1.));
#1070=DIRECTION('',(0.,0.,1.));
#1071=DIRECTION('',(0.,-1.,0.));
#1072=DIRECTION('',(0.,-1.,0.));
#1073=DIRECTION('',(0.,0.,-1.));
#1074=DIRECTION('',(0.,0.,1.));
#1075=DIRECTION('',(1.,0.,0.));
#1076=DIRECTION('',(1.,0.,0.));
#1077=DIRECTION('',(0.,0.,-1.));
#1078=DIRECTION('',(0.,0.,1.));
#1079=DIRECTION('',(0.,1.,0.));
#1080=DIRECTION('',(0.,-1.,0.));
#1081=DIRECTION('',(0.,0.,-1.));
#1082=DIRECTION('',(0.,0.,1.));
#1083=DIRECTION('',(1.,0.,0.));
#1084=DIRECTION('',(-1.,0.,0.));
#1085=DIRECTION('',(0.,0.,1.));
#1086=DIRECTION('',(0.,0.,1.));
#1087=DIRECTION('',(0.,-1.,0.));
#1088=DIRECTION('',(0.,-1.,0.));
#1089=DIRECTION('',(0.,0.,-1.));
#1090=DIRECTION('',(1.,0.,0.));
#1091=DIRECTION('',(0.,0.,1.));
#1092=DIRECTION('',(1.,0.,0.));
#1093=DIRECTION('',(0.,0.,1.));
#1094=DIRECTION('',(1.,0.,0.));
#1095=CARTESIAN_POINT('',(0.,0.,0.));
#1096=CARTESIAN_POINT('',(0.,0.,0.254));
#1097=CARTESIAN_POINT('',(0.,1.22464679914735E-18,0.254));
#1098=CARTESIAN_POINT('',(0.02,1.22464679914735E-18,0.254));
#1099=CARTESIAN_POINT('',(-0.00918285042257691,-0.0114211554326617,0.254));
#1100=CARTESIAN_POINT('',(-0.00772493964737051,-0.0114211554326617,0.254));
#1101=CARTESIAN_POINT('',(-0.0106407611977833,-0.0114211554326617,0.254));
#1102=CARTESIAN_POINT('',(-0.0106407611977833,-0.00419930639139164,0.254));
#1103=CARTESIAN_POINT('',(-0.0106407611977833,0.00302254264987845,0.254));
#1104=CARTESIAN_POINT('',(-0.00920391414894729,0.00302254264987845,0.254));
#1105=CARTESIAN_POINT('',(-0.00776706710011126,0.00302254264987845,0.254));
#1106=CARTESIAN_POINT('',(-0.00776706710011126,0.00214087524609006,0.254));
#1107=CARTESIAN_POINT('',(-0.00776706710011126,0.00125920784230167,0.254));
#1108=CARTESIAN_POINT('',(-0.00770237136911654,0.00125920784230167,0.254));
#1109=CARTESIAN_POINT('',(-0.00763767563812183,0.00125920784230167,0.254));
#1110=CARTESIAN_POINT('',(-0.00763767563812183,0.00125920784230167,0.254));
#1111=CARTESIAN_POINT('',(-0.0074450929970213,0.00168048236970909,0.254));
#1112=CARTESIAN_POINT('',(-0.007079486889307,0.00212282062348689,0.254));
#1113=CARTESIAN_POINT('',(-0.007079486889307,0.00212282062348689,0.254));
#1114=CARTESIAN_POINT('',(-0.007079486889307,0.00212282062348689,0.254));
#1115=CARTESIAN_POINT('',(-0.0067138807815927,0.00256515887726469,0.254));
#1116=CARTESIAN_POINT('',(-0.00612259189133871,0.00286155559833348,0.254));
#1117=CARTESIAN_POINT('',(-0.00612259189133871,0.00286155559833348,0.254));
#1118=CARTESIAN_POINT('',(-0.00612259189133871,0.00286155559833348,0.254));
#1119=CARTESIAN_POINT('',(-0.00553130300108472,0.00315795231940227,0.254));
#1120=CARTESIAN_POINT('',(-0.00464963559729633,0.00315795231940227,0.254));
#1121=CARTESIAN_POINT('',(-0.00464963559729633,0.00315795231940227,0.254));
#1122=CARTESIAN_POINT('',(-0.0046222294657845,-0.000813436559352036,0.254));
#1123=CARTESIAN_POINT('',(-0.00252821744142324,0.00256064522161389,0.254));
#1124=CARTESIAN_POINT('',(-0.00252821744142324,0.00256064522161389,0.254));
#1125=CARTESIAN_POINT('',(-0.00155627692461897,0.00196333812382551,0.254));
#1126=CARTESIAN_POINT('',(-0.000975519897550167,0.000762705720714355,0.254));
#1127=CARTESIAN_POINT('',(-0.000975519897550167,0.000762705720714355,0.254));
#1128=CARTESIAN_POINT('',(-0.000975519897550167,0.000762705720714355,0.254));
#1129=CARTESIAN_POINT('',(-0.000394762870481364,-0.000437926682396799,0.254));
#1130=CARTESIAN_POINT('',(-0.000394762870481364,-0.00224338894271432,0.254));
#1131=CARTESIAN_POINT('',(-0.000394762870481364,-0.00224338894271432,0.254));
#1132=CARTESIAN_POINT('',(-0.000394762870481364,-0.00224338894271432,0.254));
#1133=CARTESIAN_POINT('',(-0.000394762870481364,-0.00400070554275671,0.254));
#1134=CARTESIAN_POINT('',(-0.000958969826830591,-0.00520735615340226,0.254));
#1135=CARTESIAN_POINT('',(-0.000958969826830591,-0.00520735615340226,0.254));
#1136=CARTESIAN_POINT('',(-0.000958969826830591,-0.00520735615340226,0.254));
#1137=CARTESIAN_POINT('',(-0.00152317678317981,-0.0064140067640478,0.254));
#1138=CARTESIAN_POINT('',(-0.00249060364433329,-0.00703388214009016,0.254));
#1139=CARTESIAN_POINT('',(-0.00249060364433329,-0.00703388214009016,0.254));
#1140=CARTESIAN_POINT('',(-0.00249060364433329,-0.00703388214009016,0.254));
#1141=CARTESIAN_POINT('',(-0.00345803050548677,-0.00765375751613251,0.254));
#1142=CARTESIAN_POINT('',(-0.00465565380483072,-0.00765375751613251,0.254));
#1143=CARTESIAN_POINT('',(-0.00465565380483072,-0.00765375751613251,0.254));
#1144=CARTESIAN_POINT('',(-0.00465565380483072,-0.00765375751613251,0.254));
#1145=CARTESIAN_POINT('',(-0.00550422106717996,-0.00765375751613251,0.254));
#1146=CARTESIAN_POINT('',(-0.00609550995743395,-0.00737240631389969,0.254));
#1147=CARTESIAN_POINT('',(-0.00609550995743395,-0.00737240631389969,0.254));
#1148=CARTESIAN_POINT('',(-0.00609550995743395,-0.00737240631389969,0.254));
#1149=CARTESIAN_POINT('',(-0.00668679884768794,-0.00709105511166688,0.254));
#1150=CARTESIAN_POINT('',(-0.00706293681858742,-0.00666376237672506,0.254));
#1151=CARTESIAN_POINT('',(-0.00706293681858742,-0.00666376237672506,0.254));
#1152=CARTESIAN_POINT('',(-0.00706293681858742,-0.00666376237672506,0.254));
#1153=CARTESIAN_POINT('',(-0.00743907478948691,-0.00623646964178325,0.254));
#1154=CARTESIAN_POINT('',(-0.00763767563812183,-0.00580014959553985,0.254));
#1155=CARTESIAN_POINT('',(-0.00763767563812183,-0.00580014959553985,0.254));
#1156=CARTESIAN_POINT('',(-0.00768130764274617,-0.00580014959553985,0.254));
#1157=CARTESIAN_POINT('',(-0.00772493964737051,-0.00580014959553985,0.254));
#1158=CARTESIAN_POINT('',(-0.00772493964737051,-0.00861065251410079,0.254));
#1159=CARTESIAN_POINT('',(0.00307774287686267,-0.00748223860140234,0.254));
#1160=CARTESIAN_POINT('',(0.00455822193032305,-0.00748223860140234,0.254));
#1161=CARTESIAN_POINT('',(0.0015972638234023,-0.00748223860140234,0.254));
#1162=CARTESIAN_POINT('',(0.0015972638234023,-0.000478549583253943,0.254));
#1163=CARTESIAN_POINT('',(0.0015972638234023,0.00652513943489446,0.254));
#1164=CARTESIAN_POINT('',(0.00307774287686267,0.00652513943489446,0.254));
#1165=CARTESIAN_POINT('',(0.00455822193032305,0.00652513943489446,0.254));
#1166=CARTESIAN_POINT('',(0.00455822193032305,0.00363489526650282,0.254));
#1167=CARTESIAN_POINT('',(0.00455822193032305,0.00074465109811118,0.254));
#1168=CARTESIAN_POINT('',(0.00756281204186813,0.00074465109811118,0.254));
#1169=CARTESIAN_POINT('',(0.0105674021534132,0.00074465109811118,0.254));
#1170=CARTESIAN_POINT('',(0.0105674021534132,0.00363489526650282,0.254));
#1171=CARTESIAN_POINT('',(0.0105674021534132,0.00652513943489446,0.254));
#1172=CARTESIAN_POINT('',(0.0120448721031064,0.00652513943489446,0.254));
#1173=CARTESIAN_POINT('',(0.0135223420527996,0.00652513943489446,0.254));
#1174=CARTESIAN_POINT('',(0.0135223420527996,-0.000478549583253943,0.254));
#1175=CARTESIAN_POINT('',(0.0135223420527996,-0.00748223860140234,0.254));
#1176=CARTESIAN_POINT('',(0.0120448721031064,-0.00748223860140234,0.254));
#1177=CARTESIAN_POINT('',(0.0105674021534132,-0.00748223860140234,0.254));
#1178=CARTESIAN_POINT('',(0.0105674021534132,-0.00458898532924351,0.254));
#1179=CARTESIAN_POINT('',(0.0105674021534132,-0.00169573205708468,0.254));
#1180=CARTESIAN_POINT('',(0.00756281204186813,-0.00169573205708468,0.254));
#1181=CARTESIAN_POINT('',(0.00455822193032305,-0.00169573205708468,0.254));
#1182=CARTESIAN_POINT('',(0.00455822193032305,-0.00458898532924351,0.254));
#1183=CARTESIAN_POINT('',(0.,1.22464679914735E-18,0.254));
#1184=CARTESIAN_POINT('',(0.,1.22464679914735E-18,-0.254));
#1185=CARTESIAN_POINT('',(0.02,1.22464679914735E-18,-0.254));
#1186=CARTESIAN_POINT('',(0.,0.,-0.254));
#1187=CARTESIAN_POINT('',(-0.00778813082648163,-0.00223135252764554,0.229));
#1188=CARTESIAN_POINT('',(-0.00778813082648163,-0.00223135252764554,0.254));
#1189=CARTESIAN_POINT('',(-0.00778813082648163,-0.00285524004204415,0.229));
#1190=CARTESIAN_POINT('',(-0.00778813082648163,-0.00285524004204415,0.254));
#1191=CARTESIAN_POINT('',(-0.00770136833452748,-0.0033998878239066,0.229));
#1192=CARTESIAN_POINT('',(-0.00770136833452748,-0.0033998878239066,0.254));
#1193=CARTESIAN_POINT('',(-0.00752784335061918,-0.0038652958732329,0.229));
#1194=CARTESIAN_POINT('',(-0.00752784335061918,-0.0038652958732329,0.254));
#1195=CARTESIAN_POINT('',(-0.00778813082648163,-0.00223135252764554,0.254));
#1196=CARTESIAN_POINT('',(-0.00778813082648163,-0.00316718379924345,0.254));
#1197=CARTESIAN_POINT('',(-0.00752784335061918,-0.0038652958732329,0.254));
#1198=CARTESIAN_POINT('',(-0.00778813082648163,-0.00223135252764554,0.254));
#1199=CARTESIAN_POINT('',(-0.00752784335061918,-0.0038652958732329,0.254));
#1200=CARTESIAN_POINT('',(-0.00778813082648163,-0.00223135252764554,0.229));
#1201=CARTESIAN_POINT('',(-0.00778813082648163,-0.00223135252764554,0.229));
#1202=CARTESIAN_POINT('',(-0.00778813082648163,-0.00223135252764554,0.229));
#1203=CARTESIAN_POINT('',(-0.00778813082648163,-0.00316718379924345,0.229));
#1204=CARTESIAN_POINT('',(-0.00752784335061918,-0.0038652958732329,0.229));
#1205=CARTESIAN_POINT('',(-0.00752784335061918,-0.0038652958732329,0.229));
#1206=CARTESIAN_POINT('',(-0.00752784335061918,-0.0038652958732329,0.229));
#1207=CARTESIAN_POINT('',(-0.00752784335061918,-0.000601922837708974,0.229));
#1208=CARTESIAN_POINT('',(-0.00752784335061918,-0.000601922837708974,0.254));
#1209=CARTESIAN_POINT('',(-0.00770136833452748,-0.00106231571408994,0.229));
#1210=CARTESIAN_POINT('',(-0.00770136833452748,-0.00106231571408994,0.254));
#1211=CARTESIAN_POINT('',(-0.00778813082648163,-0.0016054589440688,0.229));
#1212=CARTESIAN_POINT('',(-0.00778813082648163,-0.0016054589440688,0.254));
#1213=CARTESIAN_POINT('',(-0.00778813082648163,-0.00223135252764554,0.229));
#1214=CARTESIAN_POINT('',(-0.00778813082648163,-0.00223135252764554,0.254));
#1215=CARTESIAN_POINT('',(-0.00752784335061918,-0.000601922837708974,0.254));
#1216=CARTESIAN_POINT('',(-0.00778813082648163,-0.00129251215228043,0.254));
#1217=CARTESIAN_POINT('',(-0.00778813082648163,-0.00223135252764554,0.254));
#1218=CARTESIAN_POINT('',(-0.00752784335061918,-0.000601922837708974,0.254));
#1219=CARTESIAN_POINT('',(-0.00752784335061918,-0.000601922837708974,0.229));
#1220=CARTESIAN_POINT('',(-0.00752784335061918,-0.000601922837708974,0.229));
#1221=CARTESIAN_POINT('',(-0.00752784335061918,-0.000601922837708974,0.229));
#1222=CARTESIAN_POINT('',(-0.00778813082648163,-0.00129251215228043,0.229));
#1223=CARTESIAN_POINT('',(-0.00778813082648163,-0.00223135252764554,0.229));
#1224=CARTESIAN_POINT('',(-0.00677857651258741,0.000464804447761964,0.229));
#1225=CARTESIAN_POINT('',(-0.00677857651258741,0.000464804447761964,0.254));
#1226=CARTESIAN_POINT('',(-0.00710456275403363,0.000214045800495641,0.229));
#1227=CARTESIAN_POINT('',(-0.00710456275403363,0.000214045800495641,0.254));
#1228=CARTESIAN_POINT('',(-0.00735431836671089,-0.000141529961328005,0.229));
#1229=CARTESIAN_POINT('',(-0.00735431836671089,-0.000141529961328005,0.254));
#1230=CARTESIAN_POINT('',(-0.00752784335061918,-0.000601922837708974,0.229));
#1231=CARTESIAN_POINT('',(-0.00752784335061918,-0.000601922837708974,0.254));
#1232=CARTESIAN_POINT('',(-0.00677857651258741,0.000464804447761964,0.254));
#1233=CARTESIAN_POINT('',(-0.00726755587475674,8.86664768624795E-05,0.254));
#1234=CARTESIAN_POINT('',(-0.00752784335061918,-0.000601922837708974,0.254));
#1235=CARTESIAN_POINT('',(-0.00677857651258741,0.000464804447761964,0.254));
#1236=CARTESIAN_POINT('',(-0.00677857651258741,0.000464804447761964,0.229));
#1237=CARTESIAN_POINT('',(-0.00677857651258741,0.000464804447761964,0.229));
#1238=CARTESIAN_POINT('',(-0.00677857651258741,0.000464804447761964,0.229));
#1239=CARTESIAN_POINT('',(-0.00726755587475674,8.86664768624795E-05,0.229));
#1240=CARTESIAN_POINT('',(-0.00752784335061918,-0.000601922837708974,0.229));
#1241=CARTESIAN_POINT('',(-0.00557944866135986,0.000840942418661448,0.229));
#1242=CARTESIAN_POINT('',(-0.00557944866135986,0.000840942418661448,0.254));
#1243=CARTESIAN_POINT('',(-0.00605288098739867,0.000840942418661448,0.229));
#1244=CARTESIAN_POINT('',(-0.00605288098739867,0.000840942418661448,0.254));
#1245=CARTESIAN_POINT('',(-0.00645259027114119,0.000715563095028287,0.229));
#1246=CARTESIAN_POINT('',(-0.00645259027114119,0.000715563095028287,0.254));
#1247=CARTESIAN_POINT('',(-0.00677857651258741,0.000464804447761964,0.229));
#1248=CARTESIAN_POINT('',(-0.00677857651258741,0.000464804447761964,0.254));
#1249=CARTESIAN_POINT('',(-0.00557944866135986,0.000840942418661448,0.254));
#1250=CARTESIAN_POINT('',(-0.00628959715041808,0.000840942418661448,0.254));
#1251=CARTESIAN_POINT('',(-0.00677857651258741,0.000464804447761964,0.254));
#1252=CARTESIAN_POINT('',(-0.00557944866135986,0.000840942418661448,0.254));
#1253=CARTESIAN_POINT('',(-0.00557944866135986,0.000840942418661448,0.229));
#1254=CARTESIAN_POINT('',(-0.00557944866135986,0.000840942418661448,0.229));
#1255=CARTESIAN_POINT('',(-0.00557944866135986,0.000840942418661448,0.229));
#1256=CARTESIAN_POINT('',(-0.00628959715041808,0.000840942418661448,0.229));
#1257=CARTESIAN_POINT('',(-0.00677857651258741,0.000464804447761964,0.229));
#1258=CARTESIAN_POINT('',(-0.00436828439506351,0.000451263480809582,0.229));
#1259=CARTESIAN_POINT('',(-0.00436828439506351,0.000451263480809582,0.254));
#1260=CARTESIAN_POINT('',(-0.00469627670568787,0.000711049439377493,0.229));
#1261=CARTESIAN_POINT('',(-0.00469627670568787,0.000711049439377493,0.254));
#1262=CARTESIAN_POINT('',(-0.00509999812778665,0.000840942418661448,0.229));
#1263=CARTESIAN_POINT('',(-0.00509999812778665,0.000840942418661448,0.254));
#1264=CARTESIAN_POINT('',(-0.00557944866135986,0.000840942418661448,0.229));
#1265=CARTESIAN_POINT('',(-0.00557944866135986,0.000840942418661448,0.254));
#1266=CARTESIAN_POINT('',(-0.00436828439506351,0.000451263480809582,0.254));
#1267=CARTESIAN_POINT('',(-0.00486027286100004,0.000840942418661448,0.254));
#1268=CARTESIAN_POINT('',(-0.00557944866135986,0.000840942418661448,0.254));
#1269=CARTESIAN_POINT('',(-0.00436828439506351,0.000451263480809582,0.254));
#1270=CARTESIAN_POINT('',(-0.00436828439506351,0.000451263480809582,0.229));
#1271=CARTESIAN_POINT('',(-0.00436828439506351,0.000451263480809582,0.229));
#1272=CARTESIAN_POINT('',(-0.00436828439506351,0.000451263480809582,0.229));
#1273=CARTESIAN_POINT('',(-0.00486027286100004,0.000840942418661448,0.229));
#1274=CARTESIAN_POINT('',(-0.00557944866135986,0.000840942418661448,0.229));
#1275=CARTESIAN_POINT('',(-0.00362353121268254,-0.000629004771613736,0.229));
#1276=CARTESIAN_POINT('',(-0.00362353121268254,-0.000629004771613736,0.254));
#1277=CARTESIAN_POINT('',(-0.00379204102364551,-0.000168611895232767,0.229));
#1278=CARTESIAN_POINT('',(-0.00379204102364551,-0.000168611895232767,0.254));
#1279=CARTESIAN_POINT('',(-0.00404029208443916,0.000191477522241672,0.229));
#1280=CARTESIAN_POINT('',(-0.00404029208443916,0.000191477522241672,0.254));
#1281=CARTESIAN_POINT('',(-0.00436828439506351,0.000451263480809582,0.229));
#1282=CARTESIAN_POINT('',(-0.00436828439506351,0.000451263480809582,0.254));
#1283=CARTESIAN_POINT('',(-0.00362353121268254,-0.000629004771613736,0.254));
#1284=CARTESIAN_POINT('',(-0.00387629592912699,6.15845429577169E-05,0.254));
#1285=CARTESIAN_POINT('',(-0.00436828439506351,0.000451263480809582,0.254));
#1286=CARTESIAN_POINT('',(-0.00362353121268254,-0.000629004771613736,0.254));
#1287=CARTESIAN_POINT('',(-0.00362353121268254,-0.000629004771613736,0.229));
#1288=CARTESIAN_POINT('',(-0.00362353121268254,-0.000629004771613736,0.229));
#1289=CARTESIAN_POINT('',(-0.00362353121268254,-0.000629004771613736,0.229));
#1290=CARTESIAN_POINT('',(-0.00387629592912699,6.15845429577169E-05,0.229));
#1291=CARTESIAN_POINT('',(-0.00436828439506351,0.000451263480809582,0.229));
#1292=CARTESIAN_POINT('',(-0.00337076649623809,-0.00223135252764554,0.229));
#1293=CARTESIAN_POINT('',(-0.00337076649623809,-0.00223135252764554,0.254));
#1294=CARTESIAN_POINT('',(-0.00337076649623808,-0.00162351356667197,0.229));
#1295=CARTESIAN_POINT('',(-0.00337076649623808,-0.00162351356667197,0.254));
#1296=CARTESIAN_POINT('',(-0.00345502140171957,-0.00108939764799471,0.229));
#1297=CARTESIAN_POINT('',(-0.00345502140171957,-0.00108939764799471,0.254));
#1298=CARTESIAN_POINT('',(-0.00362353121268254,-0.000629004771613736,0.229));
#1299=CARTESIAN_POINT('',(-0.00362353121268254,-0.000629004771613736,0.254));
#1300=CARTESIAN_POINT('',(-0.00337076649623809,-0.00223135252764554,0.254));
#1301=CARTESIAN_POINT('',(-0.00337076649623809,-0.00131959408618519,0.254));
#1302=CARTESIAN_POINT('',(-0.00362353121268254,-0.000629004771613736,0.254));
#1303=CARTESIAN_POINT('',(-0.00337076649623809,-0.00223135252764554,0.254));
#1304=CARTESIAN_POINT('',(-0.00337076649623809,-0.00223135252764554,0.229));
#1305=CARTESIAN_POINT('',(-0.00337076649623809,-0.00223135252764554,0.229));
#1306=CARTESIAN_POINT('',(-0.00337076649623809,-0.00223135252764554,0.229));
#1307=CARTESIAN_POINT('',(-0.00337076649623809,-0.00131959408618519,0.229));
#1308=CARTESIAN_POINT('',(-0.00362353121268254,-0.000629004771613736,0.229));
#1309=CARTESIAN_POINT('',(-0.00362654031644973,-0.00384724125062972,0.229));
#1310=CARTESIAN_POINT('',(-0.00362654031644973,-0.00384724125062972,0.254));
#1311=CARTESIAN_POINT('',(-0.00345602443630863,-0.0033798271321253,0.229));
#1312=CARTESIAN_POINT('',(-0.00345602443630863,-0.0033798271321253,0.254));
#1313=CARTESIAN_POINT('',(-0.00337076649623808,-0.00284119755779724,0.229));
#1314=CARTESIAN_POINT('',(-0.00337076649623808,-0.00284119755779724,0.254));
#1315=CARTESIAN_POINT('',(-0.00337076649623809,-0.00223135252764554,0.229));
#1316=CARTESIAN_POINT('',(-0.00337076649623809,-0.00223135252764554,0.254));
#1317=CARTESIAN_POINT('',(-0.00362654031644973,-0.00384724125062972,0.254));
#1318=CARTESIAN_POINT('',(-0.00337076649623809,-0.00314612007287308,0.254));
#1319=CARTESIAN_POINT('',(-0.00337076649623809,-0.00223135252764554,0.254));
#1320=CARTESIAN_POINT('',(-0.00362654031644973,-0.00384724125062972,0.254));
#1321=CARTESIAN_POINT('',(-0.00362654031644973,-0.00384724125062972,0.229));
#1322=CARTESIAN_POINT('',(-0.00362654031644973,-0.00384724125062972,0.229));
#1323=CARTESIAN_POINT('',(-0.00362654031644973,-0.00384724125062972,0.229));
#1324=CARTESIAN_POINT('',(-0.00337076649623809,-0.00314612007287308,0.229));
#1325=CARTESIAN_POINT('',(-0.00337076649623809,-0.00223135252764554,0.229));
#1326=CARTESIAN_POINT('',(-0.00437430260259791,-0.00494105047000542,0.229));
#1327=CARTESIAN_POINT('',(-0.00437430260259791,-0.00494105047000542,0.254));
#1328=CARTESIAN_POINT('',(-0.00404631029197356,-0.00467925844225938,0.229));
#1329=CARTESIAN_POINT('',(-0.00404631029197356,-0.00467925844225938,0.254));
#1330=CARTESIAN_POINT('',(-0.00379705619659083,-0.00431465536913415,0.229));
#1331=CARTESIAN_POINT('',(-0.00379705619659083,-0.00431465536913415,0.254));
#1332=CARTESIAN_POINT('',(-0.00362654031644973,-0.00384724125062972,0.229));
#1333=CARTESIAN_POINT('',(-0.00362654031644973,-0.00384724125062972,0.254));
#1334=CARTESIAN_POINT('',(-0.00437430260259791,-0.00494105047000542,0.254));
#1335=CARTESIAN_POINT('',(-0.00388231413666138,-0.00454836242838636,0.254));
#1336=CARTESIAN_POINT('',(-0.00362654031644973,-0.00384724125062972,0.254));
#1337=CARTESIAN_POINT('',(-0.00437430260259791,-0.00494105047000542,0.254));
#1338=CARTESIAN_POINT('',(-0.00437430260259791,-0.00494105047000542,0.229));
#1339=CARTESIAN_POINT('',(-0.00437430260259791,-0.00494105047000542,0.229));
#1340=CARTESIAN_POINT('',(-0.00437430260259791,-0.00494105047000542,0.229));
#1341=CARTESIAN_POINT('',(-0.00388231413666138,-0.00454836242838636,0.229));
#1342=CARTESIAN_POINT('',(-0.00362654031644973,-0.00384724125062972,0.229));
#1343=CARTESIAN_POINT('',(-0.00557944866135986,-0.00533373851162449,0.229));
#1344=CARTESIAN_POINT('',(-0.00557944866135986,-0.00533373851162449,0.254));
#1345=CARTESIAN_POINT('',(-0.00510401026614291,-0.00533373851162449,0.229));
#1346=CARTESIAN_POINT('',(-0.00510401026614291,-0.00533373851162449,0.254));
#1347=CARTESIAN_POINT('',(-0.00470229491322226,-0.00520284249775147,0.229));
#1348=CARTESIAN_POINT('',(-0.00470229491322226,-0.00520284249775147,0.254));
#1349=CARTESIAN_POINT('',(-0.00437430260259791,-0.00494105047000542,0.229));
#1350=CARTESIAN_POINT('',(-0.00437430260259791,-0.00494105047000542,0.254));
#1351=CARTESIAN_POINT('',(-0.00557944866135986,-0.00533373851162449,0.254));
#1352=CARTESIAN_POINT('',(-0.00486629106853443,-0.00533373851162449,0.254));
#1353=CARTESIAN_POINT('',(-0.00437430260259791,-0.00494105047000542,0.254));
#1354=CARTESIAN_POINT('',(-0.00557944866135986,-0.00533373851162449,0.254));
#1355=CARTESIAN_POINT('',(-0.00557944866135986,-0.00533373851162449,0.229));
#1356=CARTESIAN_POINT('',(-0.00557944866135986,-0.00533373851162449,0.229));
#1357=CARTESIAN_POINT('',(-0.00557944866135986,-0.00533373851162449,0.229));
#1358=CARTESIAN_POINT('',(-0.00486629106853443,-0.00533373851162449,0.229));
#1359=CARTESIAN_POINT('',(-0.00437430260259791,-0.00494105047000542,0.229));
#1360=CARTESIAN_POINT('',(-0.00677556740882021,-0.00494857322942341,0.229));
#1361=CARTESIAN_POINT('',(-0.00677556740882021,-0.00494857322942341,0.254));
#1362=CARTESIAN_POINT('',(-0.00644757509819586,-0.00520535008422413,0.229));
#1363=CARTESIAN_POINT('',(-0.00644757509819586,-0.00520535008422413,0.254));
#1364=CARTESIAN_POINT('',(-0.00604886884904241,-0.00533373851162449,0.229));
#1365=CARTESIAN_POINT('',(-0.00604886884904241,-0.00533373851162449,0.254));
#1366=CARTESIAN_POINT('',(-0.00557944866135986,-0.00533373851162449,0.229));
#1367=CARTESIAN_POINT('',(-0.00557944866135986,-0.00533373851162449,0.254));
#1368=CARTESIAN_POINT('',(-0.00677556740882021,-0.00494857322942341,0.254));
#1369=CARTESIAN_POINT('',(-0.00628357894288369,-0.00533373851162449,0.254));
#1370=CARTESIAN_POINT('',(-0.00557944866135986,-0.00533373851162449,0.254));
#1371=CARTESIAN_POINT('',(-0.00677556740882021,-0.00494857322942341,0.254));
#1372=CARTESIAN_POINT('',(-0.00677556740882021,-0.00494857322942341,0.229));
#1373=CARTESIAN_POINT('',(-0.00677556740882021,-0.00494857322942341,0.229));
#1374=CARTESIAN_POINT('',(-0.00677556740882021,-0.00494857322942341,0.229));
#1375=CARTESIAN_POINT('',(-0.00628357894288369,-0.00533373851162449,0.229));
#1376=CARTESIAN_POINT('',(-0.00557944866135986,-0.00533373851162449,0.229));
#1377=CARTESIAN_POINT('',(-0.0106407611977833,-0.00419930639139164,0.229));
#1378=CARTESIAN_POINT('',(-0.0106407611977833,-0.0114211554326617,0.229));
#1379=CARTESIAN_POINT('',(-0.0106407611977833,-0.0114211554326617,0.229));
#1380=CARTESIAN_POINT('',(-0.0106407611977833,-0.00419930639139164,0.229));
#1381=CARTESIAN_POINT('',(-0.0106407611977833,0.00302254264987845,0.229));
#1382=CARTESIAN_POINT('',(-0.0106407611977833,0.00302254264987845,0.229));
#1383=CARTESIAN_POINT('',(-0.00918285042257691,-0.0114211554326617,0.229));
#1384=CARTESIAN_POINT('',(-0.00772493964737051,-0.0114211554326617,0.229));
#1385=CARTESIAN_POINT('',(-0.00772493964737051,-0.0114211554326617,0.229));
#1386=CARTESIAN_POINT('',(-0.00918285042257691,-0.0114211554326617,0.229));
#1387=CARTESIAN_POINT('',(-0.00772493964737051,-0.00861065251410079,0.229));
#1388=CARTESIAN_POINT('',(-0.00772493964737051,-0.00580014959553985,0.229));
#1389=CARTESIAN_POINT('',(-0.00772493964737051,-0.00580014959553985,0.229));
#1390=CARTESIAN_POINT('',(-0.00772493964737051,-0.00861065251410079,0.229));
#1391=CARTESIAN_POINT('',(-0.00768130764274617,-0.00580014959553985,0.229));
#1392=CARTESIAN_POINT('',(-0.00763767563812183,-0.00580014959553985,0.229));
#1393=CARTESIAN_POINT('',(-0.00763767563812183,-0.00580014959553985,0.229));
#1394=CARTESIAN_POINT('',(-0.00768130764274617,-0.00580014959553985,0.229));
#1395=CARTESIAN_POINT('',(-0.00706293681858742,-0.00666376237672506,0.229));
#1396=CARTESIAN_POINT('',(-0.00706293681858742,-0.00666376237672506,0.254));
#1397=CARTESIAN_POINT('',(-0.00731369546585375,-0.00637890055343052,0.229));
#1398=CARTESIAN_POINT('',(-0.00731369546585375,-0.00637890055343052,0.254));
#1399=CARTESIAN_POINT('',(-0.00750527507236522,-0.00609102962636878,0.229));
#1400=CARTESIAN_POINT('',(-0.00750527507236522,-0.00609102962636878,0.254));
#1401=CARTESIAN_POINT('',(-0.00763767563812183,-0.00580014959553985,0.229));
#1402=CARTESIAN_POINT('',(-0.00763767563812183,-0.00580014959553985,0.254));
#1403=CARTESIAN_POINT('',(-0.00706293681858742,-0.00666376237672506,0.229));
#1404=CARTESIAN_POINT('',(-0.00706293681858742,-0.00666376237672506,0.229));
#1405=CARTESIAN_POINT('',(-0.00706293681858742,-0.00666376237672506,0.229));
#1406=CARTESIAN_POINT('',(-0.00743907478948691,-0.00623646964178325,0.229));
#1407=CARTESIAN_POINT('',(-0.00763767563812183,-0.00580014959553985,0.229));
#1408=CARTESIAN_POINT('',(-0.00609550995743395,-0.00737240631389969,0.229));
#1409=CARTESIAN_POINT('',(-0.00609550995743395,-0.00737240631389969,0.254));
#1410=CARTESIAN_POINT('',(-0.00648970255093661,-0.00718483884574448,0.229));
#1411=CARTESIAN_POINT('',(-0.00648970255093661,-0.00718483884574448,0.254));
#1412=CARTESIAN_POINT('',(-0.0068121781713211,-0.00694862420001961,0.229));
#1413=CARTESIAN_POINT('',(-0.0068121781713211,-0.00694862420001961,0.254));
#1414=CARTESIAN_POINT('',(-0.00706293681858742,-0.00666376237672506,0.229));
#1415=CARTESIAN_POINT('',(-0.00706293681858742,-0.00666376237672506,0.254));
#1416=CARTESIAN_POINT('',(-0.00609550995743395,-0.00737240631389969,0.229));
#1417=CARTESIAN_POINT('',(-0.00609550995743395,-0.00737240631389969,0.229));
#1418=CARTESIAN_POINT('',(-0.00609550995743395,-0.00737240631389969,0.229));
#1419=CARTESIAN_POINT('',(-0.00668679884768794,-0.00709105511166688,0.229));
#1420=CARTESIAN_POINT('',(-0.00706293681858742,-0.00666376237672506,0.229));
#1421=CARTESIAN_POINT('',(-0.00465565380483072,-0.00765375751613251,0.229));
#1422=CARTESIAN_POINT('',(-0.00465565380483072,-0.00765375751613251,0.254));
#1423=CARTESIAN_POINT('',(-0.00522136531306355,-0.00765375751613251,0.229));
#1424=CARTESIAN_POINT('',(-0.00522136531306355,-0.00765375751613251,0.254));
#1425=CARTESIAN_POINT('',(-0.00570131736393129,-0.0075599737820549,0.229));
#1426=CARTESIAN_POINT('',(-0.00570131736393129,-0.0075599737820549,0.254));
#1427=CARTESIAN_POINT('',(-0.00609550995743395,-0.00737240631389969,0.229));
#1428=CARTESIAN_POINT('',(-0.00609550995743395,-0.00737240631389969,0.254));
#1429=CARTESIAN_POINT('',(-0.00465565380483072,-0.00765375751613251,0.229));
#1430=CARTESIAN_POINT('',(-0.00465565380483072,-0.00765375751613251,0.229));
#1431=CARTESIAN_POINT('',(-0.00465565380483072,-0.00765375751613251,0.229));
#1432=CARTESIAN_POINT('',(-0.00550422106717996,-0.00765375751613251,0.229));
#1433=CARTESIAN_POINT('',(-0.00609550995743395,-0.00737240631389969,0.229));
#1434=CARTESIAN_POINT('',(-0.00249060364433329,-0.00703388214009016,0.229));
#1435=CARTESIAN_POINT('',(-0.00249060364433329,-0.00703388214009016,0.254));
#1436=CARTESIAN_POINT('',(-0.00313555488510227,-0.00744713239078506,0.229));
#1437=CARTESIAN_POINT('',(-0.00313555488510227,-0.00744713239078506,0.254));
#1438=CARTESIAN_POINT('',(-0.00385723827193475,-0.00765375751613251,0.229));
#1439=CARTESIAN_POINT('',(-0.00385723827193475,-0.00765375751613251,0.254));
#1440=CARTESIAN_POINT('',(-0.00465565380483072,-0.00765375751613251,0.229));
#1441=CARTESIAN_POINT('',(-0.00465565380483072,-0.00765375751613251,0.254));
#1442=CARTESIAN_POINT('',(-0.00249060364433329,-0.00703388214009016,0.229));
#1443=CARTESIAN_POINT('',(-0.00249060364433329,-0.00703388214009016,0.229));
#1444=CARTESIAN_POINT('',(-0.00249060364433329,-0.00703388214009016,0.229));
#1445=CARTESIAN_POINT('',(-0.00345803050548677,-0.00765375751613251,0.229));
#1446=CARTESIAN_POINT('',(-0.00465565380483072,-0.00765375751613251,0.229));
#1447=CARTESIAN_POINT('',(-0.000958969826830591,-0.00520735615340226,0.229));
#1448=CARTESIAN_POINT('',(-0.000958969826830591,-0.00520735615340226,0.254));
#1449=CARTESIAN_POINT('',(-0.00133510779773007,-0.00601178989383262,0.229));
#1450=CARTESIAN_POINT('',(-0.00133510779773007,-0.00601178989383262,0.254));
#1451=CARTESIAN_POINT('',(-0.00184565240356431,-0.00662063188939525,0.229));
#1452=CARTESIAN_POINT('',(-0.00184565240356431,-0.00662063188939525,0.254));
#1453=CARTESIAN_POINT('',(-0.00249060364433329,-0.00703388214009016,0.229));
#1454=CARTESIAN_POINT('',(-0.00249060364433329,-0.00703388214009016,0.254));
#1455=CARTESIAN_POINT('',(-0.000958969826830591,-0.00520735615340226,0.229));
#1456=CARTESIAN_POINT('',(-0.000958969826830591,-0.00520735615340226,0.229));
#1457=CARTESIAN_POINT('',(-0.000958969826830591,-0.00520735615340226,0.229));
#1458=CARTESIAN_POINT('',(-0.00152317678317981,-0.0064140067640478,0.229));
#1459=CARTESIAN_POINT('',(-0.00249060364433329,-0.00703388214009016,0.229));
#1460=CARTESIAN_POINT('',(-0.000394762870481364,-0.00224338894271432,0.229));
#1461=CARTESIAN_POINT('',(-0.000394762870481364,-0.00224338894271432,0.254));
#1462=CARTESIAN_POINT('',(-0.000394762870481364,-0.00341493334274258,0.229));
#1463=CARTESIAN_POINT('',(-0.000394762870481364,-0.00341493334274258,0.254));
#1464=CARTESIAN_POINT('',(-0.000582831855931106,-0.0044029224129719,0.229));
#1465=CARTESIAN_POINT('',(-0.000582831855931106,-0.0044029224129719,0.254));
#1466=CARTESIAN_POINT('',(-0.000958969826830591,-0.00520735615340226,0.229));
#1467=CARTESIAN_POINT('',(-0.000958969826830591,-0.00520735615340226,0.254));
#1468=CARTESIAN_POINT('',(-0.000394762870481364,-0.00224338894271432,0.229));
#1469=CARTESIAN_POINT('',(-0.000394762870481364,-0.00224338894271432,0.229));
#1470=CARTESIAN_POINT('',(-0.000394762870481364,-0.00224338894271432,0.229));
#1471=CARTESIAN_POINT('',(-0.000394762870481364,-0.00400070554275671,0.229));
#1472=CARTESIAN_POINT('',(-0.000958969826830591,-0.00520735615340226,0.229));
#1473=CARTESIAN_POINT('',(-0.000975519897550167,0.000762705720714355,0.229));
#1474=CARTESIAN_POINT('',(-0.000975519897550167,0.000762705720714355,0.254));
#1475=CARTESIAN_POINT('',(-0.000588348546170965,-3.77158813597477E-05,0.229));
#1476=CARTESIAN_POINT('',(-0.000588348546170965,-3.77158813597477E-05,0.254));
#1477=CARTESIAN_POINT('',(-0.000394762870481364,-0.00103974743583597,0.229));
#1478=CARTESIAN_POINT('',(-0.000394762870481364,-0.00103974743583597,0.254));
#1479=CARTESIAN_POINT('',(-0.000394762870481364,-0.00224338894271432,0.229));
#1480=CARTESIAN_POINT('',(-0.000394762870481364,-0.00224338894271432,0.254));
#1481=CARTESIAN_POINT('',(-0.000975519897550167,0.000762705720714355,0.229));
#1482=CARTESIAN_POINT('',(-0.000975519897550167,0.000762705720714355,0.229));
#1483=CARTESIAN_POINT('',(-0.000975519897550167,0.000762705720714355,0.229));
#1484=CARTESIAN_POINT('',(-0.000394762870481364,-0.000437926682396799,0.229));
#1485=CARTESIAN_POINT('',(-0.000394762870481364,-0.00224338894271432,0.229));
#1486=CARTESIAN_POINT('',(-0.00252821744142324,0.00256064522161389,0.229));
#1487=CARTESIAN_POINT('',(-0.00252821744142324,0.00256064522161389,0.254));
#1488=CARTESIAN_POINT('',(-0.00188025709688706,0.00216244048975497,0.229));
#1489=CARTESIAN_POINT('',(-0.00188025709688706,0.00216244048975497,0.254));
#1490=CARTESIAN_POINT('',(-0.00136269124892937,0.00156312732278846,0.229));
#1491=CARTESIAN_POINT('',(-0.00136269124892937,0.00156312732278846,0.254));
#1492=CARTESIAN_POINT('',(-0.000975519897550167,0.000762705720714355,0.229));
#1493=CARTESIAN_POINT('',(-0.000975519897550167,0.000762705720714355,0.254));
#1494=CARTESIAN_POINT('',(-0.00252821744142324,0.00256064522161389,0.229));
#1495=CARTESIAN_POINT('',(-0.00252821744142324,0.00256064522161389,0.229));
#1496=CARTESIAN_POINT('',(-0.00252821744142324,0.00256064522161389,0.229));
#1497=CARTESIAN_POINT('',(-0.00155627692461897,0.00196333812382551,0.229));
#1498=CARTESIAN_POINT('',(-0.000975519897550167,0.000762705720714355,0.229));
#1499=CARTESIAN_POINT('',(-0.0046222294657845,-0.000813436559352036,0.229));
#1500=CARTESIAN_POINT('',(-0.00464963559729633,0.00315795231940227,0.229));
#1501=CARTESIAN_POINT('',(-0.00464963559729633,0.00315795231940227,0.229));
#1502=CARTESIAN_POINT('',(-0.0046222294657845,-0.000813436559352036,0.229));
#1503=CARTESIAN_POINT('',(-0.00612259189133871,0.00286155559833348,0.229));
#1504=CARTESIAN_POINT('',(-0.00612259189133871,0.00286155559833348,0.254));
#1505=CARTESIAN_POINT('',(-0.00572839929783605,0.00305915341237934,0.229));
#1506=CARTESIAN_POINT('',(-0.00572839929783605,0.00305915341237934,0.254));
#1507=CARTESIAN_POINT('',(-0.00523741386648859,0.00315795231940227,0.229));
#1508=CARTESIAN_POINT('',(-0.00523741386648859,0.00315795231940227,0.254));
#1509=CARTESIAN_POINT('',(-0.00464963559729633,0.00315795231940227,0.229));
#1510=CARTESIAN_POINT('',(-0.00464963559729633,0.00315795231940227,0.254));
#1511=CARTESIAN_POINT('',(-0.00612259189133871,0.00286155559833348,0.229));
#1512=CARTESIAN_POINT('',(-0.00612259189133871,0.00286155559833348,0.229));
#1513=CARTESIAN_POINT('',(-0.00612259189133871,0.00286155559833348,0.229));
#1514=CARTESIAN_POINT('',(-0.00553130300108472,0.00315795231940227,0.229));
#1515=CARTESIAN_POINT('',(-0.00464963559729633,0.00315795231940227,0.229));
#1516=CARTESIAN_POINT('',(-0.007079486889307,0.00212282062348689,0.229));
#1517=CARTESIAN_POINT('',(-0.007079486889307,0.00212282062348689,0.254));
#1518=CARTESIAN_POINT('',(-0.00683574948416413,0.00241771279267209,0.229));
#1519=CARTESIAN_POINT('',(-0.00683574948416413,0.00241771279267209,0.254));
#1520=CARTESIAN_POINT('',(-0.00651678448484137,0.00266395778428762,0.229));
#1521=CARTESIAN_POINT('',(-0.00651678448484137,0.00266395778428762,0.254));
#1522=CARTESIAN_POINT('',(-0.00612259189133871,0.00286155559833348,0.229));
#1523=CARTESIAN_POINT('',(-0.00612259189133871,0.00286155559833348,0.254));
#1524=CARTESIAN_POINT('',(-0.007079486889307,0.00212282062348689,0.229));
#1525=CARTESIAN_POINT('',(-0.007079486889307,0.00212282062348689,0.229));
#1526=CARTESIAN_POINT('',(-0.007079486889307,0.00212282062348689,0.229));
#1527=CARTESIAN_POINT('',(-0.0067138807815927,0.00256515887726469,0.229));
#1528=CARTESIAN_POINT('',(-0.00612259189133871,0.00286155559833348,0.229));
#1529=CARTESIAN_POINT('',(-0.00763767563812183,0.00125920784230167,0.229));
#1530=CARTESIAN_POINT('',(-0.00763767563812183,0.00125920784230167,0.254));
#1531=CARTESIAN_POINT('',(-0.00750928721072148,0.00154005752723995,0.229));
#1532=CARTESIAN_POINT('',(-0.00750928721072148,0.00154005752723995,0.254));
#1533=CARTESIAN_POINT('',(-0.00732322429444987,0.00182792845430169,0.229));
#1534=CARTESIAN_POINT('',(-0.00732322429444987,0.00182792845430169,0.254));
#1535=CARTESIAN_POINT('',(-0.007079486889307,0.00212282062348689,0.229));
#1536=CARTESIAN_POINT('',(-0.007079486889307,0.00212282062348689,0.254));
#1537=CARTESIAN_POINT('',(-0.00763767563812183,0.00125920784230167,0.229));
#1538=CARTESIAN_POINT('',(-0.00763767563812183,0.00125920784230167,0.229));
#1539=CARTESIAN_POINT('',(-0.00763767563812183,0.00125920784230167,0.229));
#1540=CARTESIAN_POINT('',(-0.0074450929970213,0.00168048236970909,0.229));
#1541=CARTESIAN_POINT('',(-0.007079486889307,0.00212282062348689,0.229));
#1542=CARTESIAN_POINT('',(-0.00770237136911654,0.00125920784230167,0.229));
#1543=CARTESIAN_POINT('',(-0.00776706710011126,0.00125920784230167,0.229));
#1544=CARTESIAN_POINT('',(-0.00776706710011126,0.00125920784230167,0.229));
#1545=CARTESIAN_POINT('',(-0.00770237136911654,0.00125920784230167,0.229));
#1546=CARTESIAN_POINT('',(-0.00776706710011126,0.00214087524609006,0.229));
#1547=CARTESIAN_POINT('',(-0.00776706710011126,0.00302254264987845,0.229));
#1548=CARTESIAN_POINT('',(-0.00776706710011126,0.00302254264987845,0.229));
#1549=CARTESIAN_POINT('',(-0.00776706710011126,0.00214087524609006,0.229));
#1550=CARTESIAN_POINT('',(-0.00920391414894729,0.00302254264987845,0.229));
#1551=CARTESIAN_POINT('',(-0.00920391414894729,0.00302254264987845,0.229));
#1552=CARTESIAN_POINT('',(-0.00752784335061918,-0.0038652958732329,0.229));
#1553=CARTESIAN_POINT('',(-0.00752784335061918,-0.0038652958732329,0.254));
#1554=CARTESIAN_POINT('',(-0.00735431836671089,-0.00433070392255919,0.229));
#1555=CARTESIAN_POINT('',(-0.00735431836671089,-0.00433070392255919,0.254));
#1556=CARTESIAN_POINT('',(-0.00710355971944456,-0.0046917963746227,0.229));
#1557=CARTESIAN_POINT('',(-0.00710355971944456,-0.0046917963746227,0.254));
#1558=CARTESIAN_POINT('',(-0.00677556740882021,-0.00494857322942341,0.229));
#1559=CARTESIAN_POINT('',(-0.00677556740882021,-0.00494857322942341,0.254));
#1560=CARTESIAN_POINT('',(-0.00752784335061918,-0.0038652958732329,0.254));
#1561=CARTESIAN_POINT('',(-0.00726755587475674,-0.00456340794722234,0.254));
#1562=CARTESIAN_POINT('',(-0.00677556740882021,-0.00494857322942341,0.254));
#1563=CARTESIAN_POINT('',(-0.00752784335061918,-0.0038652958732329,0.229));
#1564=CARTESIAN_POINT('',(-0.00726755587475674,-0.00456340794722234,0.229));
#1565=CARTESIAN_POINT('',(-0.00677556740882021,-0.00494857322942341,0.229));
#1566=CARTESIAN_POINT('',(0.,0.,0.229));
#1567=CARTESIAN_POINT('',(0.0015972638234023,-0.000478549583253943,0.229));
#1568=CARTESIAN_POINT('',(0.0015972638234023,-0.00748223860140234,0.229));
#1569=CARTESIAN_POINT('',(0.0015972638234023,-0.00748223860140234,0.229));
#1570=CARTESIAN_POINT('',(0.0015972638234023,-0.000478549583253943,0.229));
#1571=CARTESIAN_POINT('',(0.0015972638234023,0.00652513943489446,0.229));
#1572=CARTESIAN_POINT('',(0.0015972638234023,0.00652513943489446,0.229));
#1573=CARTESIAN_POINT('',(0.00307774287686267,-0.00748223860140234,0.229));
#1574=CARTESIAN_POINT('',(0.00455822193032305,-0.00748223860140234,0.229));
#1575=CARTESIAN_POINT('',(0.00455822193032305,-0.00748223860140234,0.229));
#1576=CARTESIAN_POINT('',(0.00307774287686267,-0.00748223860140234,0.229));
#1577=CARTESIAN_POINT('',(0.00455822193032305,-0.00458898532924351,0.229));
#1578=CARTESIAN_POINT('',(0.00455822193032305,-0.00169573205708468,0.229));
#1579=CARTESIAN_POINT('',(0.00455822193032305,-0.00169573205708468,0.229));
#1580=CARTESIAN_POINT('',(0.00455822193032305,-0.00458898532924351,0.229));
#1581=CARTESIAN_POINT('',(0.00756281204186813,-0.00169573205708468,0.229));
#1582=CARTESIAN_POINT('',(0.0105674021534132,-0.00169573205708468,0.229));
#1583=CARTESIAN_POINT('',(0.0105674021534132,-0.00169573205708468,0.229));
#1584=CARTESIAN_POINT('',(0.00756281204186813,-0.00169573205708468,0.229));
#1585=CARTESIAN_POINT('',(0.0105674021534132,-0.00458898532924351,0.229));
#1586=CARTESIAN_POINT('',(0.0105674021534132,-0.00748223860140234,0.229));
#1587=CARTESIAN_POINT('',(0.0105674021534132,-0.00748223860140234,0.229));
#1588=CARTESIAN_POINT('',(0.0105674021534132,-0.00458898532924351,0.229));
#1589=CARTESIAN_POINT('',(0.0120448721031064,-0.00748223860140234,0.229));
#1590=CARTESIAN_POINT('',(0.0135223420527996,-0.00748223860140234,0.229));
#1591=CARTESIAN_POINT('',(0.0135223420527996,-0.00748223860140234,0.229));
#1592=CARTESIAN_POINT('',(0.0120448721031064,-0.00748223860140234,0.229));
#1593=CARTESIAN_POINT('',(0.0135223420527996,-0.000478549583253943,0.229));
#1594=CARTESIAN_POINT('',(0.0135223420527996,0.00652513943489446,0.229));
#1595=CARTESIAN_POINT('',(0.0135223420527996,0.00652513943489446,0.229));
#1596=CARTESIAN_POINT('',(0.0135223420527996,-0.000478549583253943,0.229));
#1597=CARTESIAN_POINT('',(0.0120448721031064,0.00652513943489446,0.229));
#1598=CARTESIAN_POINT('',(0.0105674021534132,0.00652513943489446,0.229));
#1599=CARTESIAN_POINT('',(0.0105674021534132,0.00652513943489446,0.229));
#1600=CARTESIAN_POINT('',(0.0120448721031064,0.00652513943489446,0.229));
#1601=CARTESIAN_POINT('',(0.0105674021534132,0.00363489526650282,0.229));
#1602=CARTESIAN_POINT('',(0.0105674021534132,0.00074465109811118,0.229));
#1603=CARTESIAN_POINT('',(0.0105674021534132,0.00074465109811118,0.229));
#1604=CARTESIAN_POINT('',(0.0105674021534132,0.00363489526650282,0.229));
#1605=CARTESIAN_POINT('',(0.00756281204186813,0.00074465109811118,0.229));
#1606=CARTESIAN_POINT('',(0.00455822193032305,0.00074465109811118,0.229));
#1607=CARTESIAN_POINT('',(0.00455822193032305,0.00074465109811118,0.229));
#1608=CARTESIAN_POINT('',(0.00756281204186813,0.00074465109811118,0.229));
#1609=CARTESIAN_POINT('',(0.00455822193032305,0.00363489526650282,0.229));
#1610=CARTESIAN_POINT('',(0.00455822193032305,0.00652513943489446,0.229));
#1611=CARTESIAN_POINT('',(0.00455822193032305,0.00652513943489446,0.229));
#1612=CARTESIAN_POINT('',(0.00455822193032305,0.00363489526650282,0.229));
#1613=CARTESIAN_POINT('',(0.00307774287686267,0.00652513943489446,0.229));
#1614=CARTESIAN_POINT('',(0.00307774287686267,0.00652513943489446,0.229));
#1615=CARTESIAN_POINT('',(0.,0.,0.229));
#1616=CARTESIAN_POINT('',(0.,0.,0.254));
#1617=MECHANICAL_DESIGN_GEOMETRIC_PRESENTATION_REPRESENTATION('',(#910),#1618);
#1618=(
GEOMETRIC_REPRESENTATION_CONTEXT(3)
GLOBAL_UNCERTAINTY_ASSIGNED_CONTEXT((#1619))
GLOBAL_UNIT_ASSIGNED_CONTEXT((#1622,#1621,#1620))
REPRESENTATION_CONTEXT('ph','TOP_LEVEL_ASSEMBLY_PART')
);
#1619=UNCERTAINTY_MEASURE_WITH_UNIT(LENGTH_MEASURE(2.E-05),#1622,'DISTANCE_ACCURACY_VALUE','Maximum Tolerance applied to model');
#1620=(
NAMED_UNIT(*)
SI_UNIT($,.STERADIAN.)
SOLID_ANGLE_UNIT()
);
#1621=(
NAMED_UNIT(*)
PLANE_ANGLE_UNIT()
SI_UNIT($,.RADIAN.)
);
#1622=(
LENGTH_UNIT()
NAMED_UNIT(*)
SI_UNIT($,.METRE.)
);
#1623=PRODUCT_DEFINITION_SHAPE('','',#1624);
#1624=PRODUCT_DEFINITION('','',#1626,#1625);
#1625=PRODUCT_DEFINITION_CONTEXT('',#1632,'design');
#1626=PRODUCT_DEFINITION_FORMATION_WITH_SPECIFIED_SOURCE('','',#1628,.NOT_KNOWN.);
#1627=PRODUCT_RELATED_PRODUCT_CATEGORY('','',(#1628));
#1628=PRODUCT('ph','ph','ph',(#1630));
#1629=PRODUCT_CATEGORY('','');
#1630=PRODUCT_CONTEXT('',#1632,'mechanical');
#1631=APPLICATION_PROTOCOL_DEFINITION('international standard','ap242_managed_model_based_3d_engineering',2020,#1632);
#1632=APPLICATION_CONTEXT('managed model based 3d engineering');
ENDSEC;
END-ISO-10303-21;
