ISO-10303-21;
HEADER;
/*Generated by software containing ST-Developer
 * from STEP Tools, Inc. (www.steptools.com) 
 */
/*OPTION: using custom renumber hook */
/*description */
/*implementation_level */
FILE_DESCRIPTION(('STEP AP242 Edition 2','STEP AP242 Edition 2''CAx-IF Rec.Pracs.---Representation and Presentation of Product Manufa
cturing Information (PMI)---4.0---2014-10-13','STEP AP242 Edition 2''CAx-IF Rec.Pracs.---Representation and Presentation of Product Manufa
cturing Information (PMI)---4.0---2014-10-13''CAx-IF Rec.Pracs.---3D Tessellated Geometry---0.4---2014-09-14','STEP AP242 Edition 2''CAx-IF Rec.Pracs.---Representation and Presentation of Product Manufa
cturing Information (PMI)---4.0---2014-10-13''CAx-IF Rec.Pracs.---3D Tessellated Geometry---0.4---2014-09-14''2;1','STEP AP242 Edition 2''CAx-IF Rec.Pracs.---Representation and Presentation of Product Manufa
cturing Information (PMI)---4.0---2014-10-13''CAx-IF Rec.Pracs.---3D Tessellated Geometry---0.4---2014-09-14''2;1''CAx-IF Rec.Pracs.---User Defined Attributes---1.5---2016-08-15'),'2;1');
/*name */
/*time_stamp */
/*author */
/*organization */
/*preprocessor_version */
/*originating_system */
/*authorisation */
FILE_NAME('/vol/tmp/translate-5122207067378448213/Tischplatte.step','2026-03-04T07:36:19',(''),(''),'ST-DEVELOPER v20','ONSHAPE BY PTC INC, 1.211','  ');
FILE_SCHEMA(('AP242_MANAGED_MODEL_BASED_3D_ENGINEERING_MIM_LF { 1 0 10303 442 3 1 4 }'));
ENDSEC;
DATA;
#10=SHAPE_REPRESENTATION_RELATIONSHIP('','',#287,#11);
#11=ADVANCED_BREP_SHAPE_REPRESENTATION('',(#285),#445);
#12=ORIENTED_EDGE('',*,*,#84,.T.);
#13=ORIENTED_EDGE('',*,*,#85,.T.);
#14=ORIENTED_EDGE('',*,*,#86,.F.);
#15=ORIENTED_EDGE('',*,*,#87,.F.);
#16=ORIENTED_EDGE('',*,*,#88,.F.);
#17=ORIENTED_EDGE('',*,*,#89,.F.);
#18=ORIENTED_EDGE('',*,*,#90,.F.);
#19=ORIENTED_EDGE('',*,*,#91,.F.);
#20=ORIENTED_EDGE('',*,*,#92,.F.);
#21=ORIENTED_EDGE('',*,*,#93,.F.);
#22=ORIENTED_EDGE('',*,*,#94,.F.);
#23=ORIENTED_EDGE('',*,*,#95,.F.);
#24=ORIENTED_EDGE('',*,*,#96,.F.);
#25=ORIENTED_EDGE('',*,*,#97,.T.);
#26=ORIENTED_EDGE('',*,*,#98,.T.);
#27=ORIENTED_EDGE('',*,*,#99,.F.);
#28=ORIENTED_EDGE('',*,*,#100,.T.);
#29=ORIENTED_EDGE('',*,*,#101,.T.);
#30=ORIENTED_EDGE('',*,*,#102,.T.);
#31=ORIENTED_EDGE('',*,*,#103,.T.);
#32=ORIENTED_EDGE('',*,*,#104,.T.);
#33=ORIENTED_EDGE('',*,*,#105,.T.);
#34=ORIENTED_EDGE('',*,*,#106,.T.);
#35=ORIENTED_EDGE('',*,*,#107,.T.);
#36=ORIENTED_EDGE('',*,*,#96,.T.);
#37=ORIENTED_EDGE('',*,*,#108,.F.);
#38=ORIENTED_EDGE('',*,*,#84,.F.);
#39=ORIENTED_EDGE('',*,*,#109,.T.);
#40=ORIENTED_EDGE('',*,*,#97,.F.);
#41=ORIENTED_EDGE('',*,*,#109,.F.);
#42=ORIENTED_EDGE('',*,*,#87,.T.);
#43=ORIENTED_EDGE('',*,*,#110,.T.);
#44=ORIENTED_EDGE('',*,*,#98,.F.);
#45=ORIENTED_EDGE('',*,*,#110,.F.);
#46=ORIENTED_EDGE('',*,*,#86,.T.);
#47=ORIENTED_EDGE('',*,*,#111,.T.);
#48=ORIENTED_EDGE('',*,*,#99,.T.);
#49=ORIENTED_EDGE('',*,*,#111,.F.);
#50=ORIENTED_EDGE('',*,*,#85,.F.);
#51=ORIENTED_EDGE('',*,*,#108,.T.);
#52=ORIENTED_EDGE('',*,*,#88,.T.);
#53=ORIENTED_EDGE('',*,*,#112,.T.);
#54=ORIENTED_EDGE('',*,*,#101,.F.);
#55=ORIENTED_EDGE('',*,*,#113,.F.);
#56=ORIENTED_EDGE('',*,*,#89,.T.);
#57=ORIENTED_EDGE('',*,*,#113,.T.);
#58=ORIENTED_EDGE('',*,*,#100,.F.);
#59=ORIENTED_EDGE('',*,*,#114,.F.);
#60=ORIENTED_EDGE('',*,*,#90,.T.);
#61=ORIENTED_EDGE('',*,*,#114,.T.);
#62=ORIENTED_EDGE('',*,*,#107,.F.);
#63=ORIENTED_EDGE('',*,*,#115,.F.);
#64=ORIENTED_EDGE('',*,*,#91,.T.);
#65=ORIENTED_EDGE('',*,*,#115,.T.);
#66=ORIENTED_EDGE('',*,*,#106,.F.);
#67=ORIENTED_EDGE('',*,*,#116,.F.);
#68=ORIENTED_EDGE('',*,*,#92,.T.);
#69=ORIENTED_EDGE('',*,*,#116,.T.);
#70=ORIENTED_EDGE('',*,*,#105,.F.);
#71=ORIENTED_EDGE('',*,*,#117,.F.);
#72=ORIENTED_EDGE('',*,*,#93,.T.);
#73=ORIENTED_EDGE('',*,*,#117,.T.);
#74=ORIENTED_EDGE('',*,*,#104,.F.);
#75=ORIENTED_EDGE('',*,*,#118,.F.);
#76=ORIENTED_EDGE('',*,*,#94,.T.);
#77=ORIENTED_EDGE('',*,*,#118,.T.);
#78=ORIENTED_EDGE('',*,*,#103,.F.);
#79=ORIENTED_EDGE('',*,*,#119,.F.);
#80=ORIENTED_EDGE('',*,*,#95,.T.);
#81=ORIENTED_EDGE('',*,*,#119,.T.);
#82=ORIENTED_EDGE('',*,*,#102,.F.);
#83=ORIENTED_EDGE('',*,*,#112,.F.);
#84=EDGE_CURVE('',#120,#121,#144,.T.);
#85=EDGE_CURVE('',#121,#122,#145,.T.);
#86=EDGE_CURVE('',#123,#122,#146,.T.);
#87=EDGE_CURVE('',#120,#123,#147,.T.);
#88=EDGE_CURVE('',#124,#125,#148,.T.);
#89=EDGE_CURVE('',#126,#124,#149,.T.);
#90=EDGE_CURVE('',#127,#126,#150,.T.);
#91=EDGE_CURVE('',#128,#127,#151,.T.);
#92=EDGE_CURVE('',#129,#128,#152,.T.);
#93=EDGE_CURVE('',#130,#129,#153,.T.);
#94=EDGE_CURVE('',#131,#130,#154,.T.);
#95=EDGE_CURVE('',#125,#131,#155,.T.);
#96=EDGE_CURVE('',#132,#133,#156,.T.);
#97=EDGE_CURVE('',#132,#134,#157,.T.);
#98=EDGE_CURVE('',#134,#135,#158,.T.);
#99=EDGE_CURVE('',#133,#135,#159,.T.);
#100=EDGE_CURVE('',#136,#137,#160,.T.);
#101=EDGE_CURVE('',#137,#138,#161,.T.);
#102=EDGE_CURVE('',#138,#139,#162,.T.);
#103=EDGE_CURVE('',#139,#140,#163,.T.);
#104=EDGE_CURVE('',#140,#141,#164,.T.);
#105=EDGE_CURVE('',#141,#142,#165,.T.);
#106=EDGE_CURVE('',#142,#143,#166,.T.);
#107=EDGE_CURVE('',#143,#136,#167,.T.);
#108=EDGE_CURVE('',#121,#133,#168,.T.);
#109=EDGE_CURVE('',#120,#132,#169,.T.);
#110=EDGE_CURVE('',#123,#134,#170,.T.);
#111=EDGE_CURVE('',#122,#135,#171,.T.);
#112=EDGE_CURVE('',#125,#138,#172,.T.);
#113=EDGE_CURVE('',#124,#137,#173,.T.);
#114=EDGE_CURVE('',#126,#136,#174,.T.);
#115=EDGE_CURVE('',#127,#143,#175,.T.);
#116=EDGE_CURVE('',#128,#142,#176,.T.);
#117=EDGE_CURVE('',#129,#141,#177,.T.);
#118=EDGE_CURVE('',#130,#140,#178,.T.);
#119=EDGE_CURVE('',#131,#139,#179,.T.);
#120=VERTEX_POINT('',#372);
#121=VERTEX_POINT('',#373);
#122=VERTEX_POINT('',#375);
#123=VERTEX_POINT('',#377);
#124=VERTEX_POINT('',#380);
#125=VERTEX_POINT('',#381);
#126=VERTEX_POINT('',#383);
#127=VERTEX_POINT('',#385);
#128=VERTEX_POINT('',#387);
#129=VERTEX_POINT('',#389);
#130=VERTEX_POINT('',#391);
#131=VERTEX_POINT('',#393);
#132=VERTEX_POINT('',#397);
#133=VERTEX_POINT('',#398);
#134=VERTEX_POINT('',#400);
#135=VERTEX_POINT('',#402);
#136=VERTEX_POINT('',#405);
#137=VERTEX_POINT('',#406);
#138=VERTEX_POINT('',#408);
#139=VERTEX_POINT('',#410);
#140=VERTEX_POINT('',#412);
#141=VERTEX_POINT('',#414);
#142=VERTEX_POINT('',#416);
#143=VERTEX_POINT('',#418);
#144=LINE('',#371,#180);
#145=LINE('',#374,#181);
#146=LINE('',#376,#182);
#147=LINE('',#378,#183);
#148=LINE('',#379,#184);
#149=LINE('',#382,#185);
#150=LINE('',#384,#186);
#151=LINE('',#386,#187);
#152=LINE('',#388,#188);
#153=LINE('',#390,#189);
#154=LINE('',#392,#190);
#155=LINE('',#394,#191);
#156=LINE('',#396,#192);
#157=LINE('',#399,#193);
#158=LINE('',#401,#194);
#159=LINE('',#403,#195);
#160=LINE('',#404,#196);
#161=LINE('',#407,#197);
#162=LINE('',#409,#198);
#163=LINE('',#411,#199);
#164=LINE('',#413,#200);
#165=LINE('',#415,#201);
#166=LINE('',#417,#202);
#167=LINE('',#419,#203);
#168=LINE('',#421,#204);
#169=LINE('',#422,#205);
#170=LINE('',#424,#206);
#171=LINE('',#426,#207);
#172=LINE('',#429,#208);
#173=LINE('',#430,#209);
#174=LINE('',#432,#210);
#175=LINE('',#434,#211);
#176=LINE('',#436,#212);
#177=LINE('',#438,#213);
#178=LINE('',#440,#214);
#179=LINE('',#442,#215);
#180=VECTOR('',#307,1.);
#181=VECTOR('',#308,1.);
#182=VECTOR('',#309,1.);
#183=VECTOR('',#310,1.);
#184=VECTOR('',#311,1.);
#185=VECTOR('',#312,1.);
#186=VECTOR('',#313,1.);
#187=VECTOR('',#314,1.);
#188=VECTOR('',#315,1.);
#189=VECTOR('',#316,1.);
#190=VECTOR('',#317,1.);
#191=VECTOR('',#318,1.);
#192=VECTOR('',#321,1.);
#193=VECTOR('',#322,1.);
#194=VECTOR('',#323,1.);
#195=VECTOR('',#324,1.);
#196=VECTOR('',#325,1.);
#197=VECTOR('',#326,1.);
#198=VECTOR('',#327,1.);
#199=VECTOR('',#328,1.);
#200=VECTOR('',#329,1.);
#201=VECTOR('',#330,1.);
#202=VECTOR('',#331,1.);
#203=VECTOR('',#332,1.);
#204=VECTOR('',#335,1.);
#205=VECTOR('',#336,1.);
#206=VECTOR('',#339,1.);
#207=VECTOR('',#342,1.);
#208=VECTOR('',#347,1.);
#209=VECTOR('',#348,1.);
#210=VECTOR('',#351,1.);
#211=VECTOR('',#354,1.);
#212=VECTOR('',#357,1.);
#213=VECTOR('',#360,1.);
#214=VECTOR('',#363,1.);
#215=VECTOR('',#366,1.);
#216=EDGE_LOOP('',(#12,#13,#14,#15));
#217=EDGE_LOOP('',(#16,#17,#18,#19,#20,#21,#22,#23));
#218=EDGE_LOOP('',(#24,#25,#26,#27));
#219=EDGE_LOOP('',(#28,#29,#30,#31,#32,#33,#34,#35));
#220=EDGE_LOOP('',(#36,#37,#38,#39));
#221=EDGE_LOOP('',(#40,#41,#42,#43));
#222=EDGE_LOOP('',(#44,#45,#46,#47));
#223=EDGE_LOOP('',(#48,#49,#50,#51));
#224=EDGE_LOOP('',(#52,#53,#54,#55));
#225=EDGE_LOOP('',(#56,#57,#58,#59));
#226=EDGE_LOOP('',(#60,#61,#62,#63));
#227=EDGE_LOOP('',(#64,#65,#66,#67));
#228=EDGE_LOOP('',(#68,#69,#70,#71));
#229=EDGE_LOOP('',(#72,#73,#74,#75));
#230=EDGE_LOOP('',(#76,#77,#78,#79));
#231=EDGE_LOOP('',(#80,#81,#82,#83));
#232=FACE_BOUND('',#216,.T.);
#233=FACE_BOUND('',#217,.T.);
#234=FACE_BOUND('',#218,.T.);
#235=FACE_BOUND('',#219,.T.);
#236=FACE_BOUND('',#220,.T.);
#237=FACE_BOUND('',#221,.T.);
#238=FACE_BOUND('',#222,.T.);
#239=FACE_BOUND('',#223,.T.);
#240=FACE_BOUND('',#224,.T.);
#241=FACE_BOUND('',#225,.T.);
#242=FACE_BOUND('',#226,.T.);
#243=FACE_BOUND('',#227,.T.);
#244=FACE_BOUND('',#228,.T.);
#245=FACE_BOUND('',#229,.T.);
#246=FACE_BOUND('',#230,.T.);
#247=FACE_BOUND('',#231,.T.);
#248=PLANE('',#289);
#249=PLANE('',#290);
#250=PLANE('',#291);
#251=PLANE('',#292);
#252=PLANE('',#293);
#253=PLANE('',#294);
#254=PLANE('',#295);
#255=PLANE('',#296);
#256=PLANE('',#297);
#257=PLANE('',#298);
#258=PLANE('',#299);
#259=PLANE('',#300);
#260=PLANE('',#301);
#261=PLANE('',#302);
#262=ADVANCED_FACE('',(#232,#233),#248,.F.);
#263=ADVANCED_FACE('',(#234,#235),#249,.T.);
#264=ADVANCED_FACE('',(#236),#250,.F.);
#265=ADVANCED_FACE('',(#237),#251,.T.);
#266=ADVANCED_FACE('',(#238),#252,.T.);
#267=ADVANCED_FACE('',(#239),#253,.F.);
#268=ADVANCED_FACE('',(#240),#254,.T.);
#269=ADVANCED_FACE('',(#241),#255,.T.);
#270=ADVANCED_FACE('',(#242),#256,.T.);
#271=ADVANCED_FACE('',(#243),#257,.T.);
#272=ADVANCED_FACE('',(#244),#258,.T.);
#273=ADVANCED_FACE('',(#245),#259,.T.);
#274=ADVANCED_FACE('',(#246),#260,.T.);
#275=ADVANCED_FACE('',(#247),#261,.T.);
#276=CLOSED_SHELL('',(#262,#263,#264,#265,#266,#267,#268,#269,#270,#271,#272,#273,#274,#275));
#277=STYLED_ITEM('',(#278),#285);
#278=PRESENTATION_STYLE_ASSIGNMENT((#279));
#279=SURFACE_STYLE_USAGE(.BOTH.,#280);
#280=SURFACE_SIDE_STYLE('',(#281));
#281=SURFACE_STYLE_FILL_AREA(#282);
#282=FILL_AREA_STYLE('',(#283));
#283=FILL_AREA_STYLE_COLOUR('',#284);
#284=COLOUR_RGB('',0.615686274509804,0.811764705882353,0.929411764705882);
#285=MANIFOLD_SOLID_BREP('Tischplatte',#276);
#286=SHAPE_DEFINITION_REPRESENTATION(#450,#287);
#287=SHAPE_REPRESENTATION('Tischplatte',(#288),#445);
#288=AXIS2_PLACEMENT_3D('',#369,#303,#304);
#289=AXIS2_PLACEMENT_3D('',#370,#305,#306);
#290=AXIS2_PLACEMENT_3D('',#395,#319,#320);
#291=AXIS2_PLACEMENT_3D('',#420,#333,#334);
#292=AXIS2_PLACEMENT_3D('',#423,#337,#338);
#293=AXIS2_PLACEMENT_3D('',#425,#340,#341);
#294=AXIS2_PLACEMENT_3D('',#427,#343,#344);
#295=AXIS2_PLACEMENT_3D('',#428,#345,#346);
#296=AXIS2_PLACEMENT_3D('',#431,#349,#350);
#297=AXIS2_PLACEMENT_3D('',#433,#352,#353);
#298=AXIS2_PLACEMENT_3D('',#435,#355,#356);
#299=AXIS2_PLACEMENT_3D('',#437,#358,#359);
#300=AXIS2_PLACEMENT_3D('',#439,#361,#362);
#301=AXIS2_PLACEMENT_3D('',#441,#364,#365);
#302=AXIS2_PLACEMENT_3D('',#443,#367,#368);
#303=DIRECTION('',(0.,0.,1.));
#304=DIRECTION('',(1.,0.,0.));
#305=DIRECTION('',(0.,0.,1.));
#306=DIRECTION('',(1.,0.,0.));
#307=DIRECTION('',(1.,0.,0.));
#308=DIRECTION('',(0.,-1.,0.));
#309=DIRECTION('',(1.,0.,0.));
#310=DIRECTION('',(0.,-1.,0.));
#311=DIRECTION('',(0.,1.,0.));
#312=DIRECTION('',(-1.,-2.08166817117217E-16,0.));
#313=DIRECTION('',(0.,-1.,0.));
#314=DIRECTION('',(-1.,-1.94289029309402E-16,0.));
#315=DIRECTION('',(0.,-1.,0.));
#316=DIRECTION('',(1.,1.11022302462516E-16,0.));
#317=DIRECTION('',(1.91417762866406E-16,-1.,0.));
#318=DIRECTION('',(1.,0.,0.));
#319=DIRECTION('',(0.,0.,1.));
#320=DIRECTION('',(1.,0.,0.));
#321=DIRECTION('',(1.,0.,0.));
#322=DIRECTION('',(0.,-1.,0.));
#323=DIRECTION('',(1.,0.,0.));
#324=DIRECTION('',(0.,-1.,0.));
#325=DIRECTION('',(-1.,-2.08166817117217E-16,0.));
#326=DIRECTION('',(0.,1.,0.));
#327=DIRECTION('',(1.,0.,0.));
#328=DIRECTION('',(1.91417762866406E-16,-1.,0.));
#329=DIRECTION('',(1.,1.11022302462516E-16,0.));
#330=DIRECTION('',(0.,-1.,0.));
#331=DIRECTION('',(-1.,-1.94289029309402E-16,0.));
#332=DIRECTION('',(0.,-1.,0.));
#333=DIRECTION('',(0.,-1.,0.));
#334=DIRECTION('',(0.,0.,-1.));
#335=DIRECTION('',(0.,0.,1.));
#336=DIRECTION('',(0.,0.,1.));
#337=DIRECTION('',(-1.,0.,0.));
#338=DIRECTION('',(0.,0.,1.));
#339=DIRECTION('',(0.,0.,1.));
#340=DIRECTION('',(0.,-1.,0.));
#341=DIRECTION('',(0.,0.,-1.));
#342=DIRECTION('',(0.,0.,1.));
#343=DIRECTION('',(-1.,0.,0.));
#344=DIRECTION('',(0.,0.,1.));
#345=DIRECTION('',(1.,0.,0.));
#346=DIRECTION('',(0.,0.,-1.));
#347=DIRECTION('',(0.,0.,1.));
#348=DIRECTION('',(0.,0.,1.));
#349=DIRECTION('',(-2.08166817117217E-16,1.,0.));
#350=DIRECTION('',(-1.,-2.08166817117217E-16,0.));
#351=DIRECTION('',(0.,0.,1.));
#352=DIRECTION('',(-1.,0.,0.));
#353=DIRECTION('',(0.,0.,1.));
#354=DIRECTION('',(0.,0.,1.));
#355=DIRECTION('',(-1.94289029309402E-16,1.,0.));
#356=DIRECTION('',(-1.,-1.94289029309402E-16,0.));
#357=DIRECTION('',(0.,0.,1.));
#358=DIRECTION('',(-1.,0.,0.));
#359=DIRECTION('',(0.,0.,1.));
#360=DIRECTION('',(0.,0.,1.));
#361=DIRECTION('',(1.11022302462516E-16,-1.,0.));
#362=DIRECTION('',(1.,1.11022302462516E-16,0.));
#363=DIRECTION('',(0.,0.,1.));
#364=DIRECTION('',(-1.,-1.91417762866406E-16,0.));
#365=DIRECTION('',(1.91417762866406E-16,-1.,0.));
#366=DIRECTION('',(0.,0.,1.));
#367=DIRECTION('',(0.,-1.,0.));
#368=DIRECTION('',(0.,0.,-1.));
#369=CARTESIAN_POINT('',(0.,0.,0.));
#370=CARTESIAN_POINT('',(-0.1,5.55111512312578E-17,-0.02));
#371=CARTESIAN_POINT('',(-0.1,0.3,-0.02));
#372=CARTESIAN_POINT('',(-0.6,0.3,-0.02));
#373=CARTESIAN_POINT('',(0.4,0.3,-0.02));
#374=CARTESIAN_POINT('',(0.4,5.55111512312578E-17,-0.02));
#375=CARTESIAN_POINT('',(0.4,-0.3,-0.02));
#376=CARTESIAN_POINT('',(-0.1,-0.3,-0.02));
#377=CARTESIAN_POINT('',(-0.6,-0.3,-0.02));
#378=CARTESIAN_POINT('',(-0.6,5.55111512312578E-17,-0.02));
#379=CARTESIAN_POINT('',(-0.546,5.55111512312578E-17,-0.02));
#380=CARTESIAN_POINT('',(-0.546,-0.2,-0.02));
#381=CARTESIAN_POINT('',(-0.546,0.2,-0.02));
#382=CARTESIAN_POINT('',(-0.1,-0.2,-0.02));
#383=CARTESIAN_POINT('',(-0.146,-0.2,-0.02));
#384=CARTESIAN_POINT('',(-0.146,5.55111512312578E-17,-0.02));
#385=CARTESIAN_POINT('',(-0.146,-0.055,-0.02));
#386=CARTESIAN_POINT('',(-0.1,-0.055,-0.02));
#387=CARTESIAN_POINT('',(0.354,-0.055,-0.02));
#388=CARTESIAN_POINT('',(0.354,5.55111512312578E-17,-0.02));
#389=CARTESIAN_POINT('',(0.354,0.055,-0.02));
#390=CARTESIAN_POINT('',(-0.1,0.055,-0.02));
#391=CARTESIAN_POINT('',(-0.146,0.055,-0.02));
#392=CARTESIAN_POINT('',(-0.146,4.67059341394032E-17,-0.02));
#393=CARTESIAN_POINT('',(-0.146,0.2,-0.02));
#394=CARTESIAN_POINT('',(-0.1,0.2,-0.02));
#395=CARTESIAN_POINT('',(-0.1,5.55111512312578E-17,0.));
#396=CARTESIAN_POINT('',(-0.1,0.3,0.));
#397=CARTESIAN_POINT('',(-0.6,0.3,0.));
#398=CARTESIAN_POINT('',(0.4,0.3,0.));
#399=CARTESIAN_POINT('',(-0.6,5.55111512312578E-17,0.));
#400=CARTESIAN_POINT('',(-0.6,-0.3,0.));
#401=CARTESIAN_POINT('',(-0.1,-0.3,0.));
#402=CARTESIAN_POINT('',(0.4,-0.3,0.));
#403=CARTESIAN_POINT('',(0.4,5.55111512312578E-17,0.));
#404=CARTESIAN_POINT('',(-0.346,-0.2,0.));
#405=CARTESIAN_POINT('',(-0.146,-0.2,0.));
#406=CARTESIAN_POINT('',(-0.546,-0.2,0.));
#407=CARTESIAN_POINT('',(-0.546,0.1,0.));
#408=CARTESIAN_POINT('',(-0.546,0.2,0.));
#409=CARTESIAN_POINT('',(-0.346,0.2,0.));
#410=CARTESIAN_POINT('',(-0.146,0.2,0.));
#411=CARTESIAN_POINT('',(-0.146,0.1275,0.));
#412=CARTESIAN_POINT('',(-0.146,0.055,0.));
#413=CARTESIAN_POINT('',(0.104,0.055,0.));
#414=CARTESIAN_POINT('',(0.354,0.055,0.));
#415=CARTESIAN_POINT('',(0.354,-0.0275,0.));
#416=CARTESIAN_POINT('',(0.354,-0.055,0.));
#417=CARTESIAN_POINT('',(0.104,-0.055,0.));
#418=CARTESIAN_POINT('',(-0.146,-0.055,0.));
#419=CARTESIAN_POINT('',(-0.146,-0.1275,0.));
#420=CARTESIAN_POINT('',(-0.1,0.3,-0.02));
#421=CARTESIAN_POINT('',(0.4,0.3,-0.02));
#422=CARTESIAN_POINT('',(-0.6,0.3,-0.02));
#423=CARTESIAN_POINT('',(-0.6,5.55111512312578E-17,-0.02));
#424=CARTESIAN_POINT('',(-0.6,-0.3,-0.02));
#425=CARTESIAN_POINT('',(-0.1,-0.3,-0.02));
#426=CARTESIAN_POINT('',(0.4,-0.3,-0.02));
#427=CARTESIAN_POINT('',(0.4,5.55111512312578E-17,-0.02));
#428=CARTESIAN_POINT('',(-0.546,0.1,-0.25));
#429=CARTESIAN_POINT('',(-0.546,0.2,-0.25));
#430=CARTESIAN_POINT('',(-0.546,-0.2,-0.25));
#431=CARTESIAN_POINT('',(-0.346,-0.2,-0.25));
#432=CARTESIAN_POINT('',(-0.146,-0.2,-0.25));
#433=CARTESIAN_POINT('',(-0.146,-0.1275,-0.25));
#434=CARTESIAN_POINT('',(-0.146,-0.055,-0.25));
#435=CARTESIAN_POINT('',(0.104,-0.055,-0.25));
#436=CARTESIAN_POINT('',(0.354,-0.055,-0.25));
#437=CARTESIAN_POINT('',(0.354,-0.0275,-0.25));
#438=CARTESIAN_POINT('',(0.354,0.055,-0.25));
#439=CARTESIAN_POINT('',(0.104,0.055,-0.25));
#440=CARTESIAN_POINT('',(-0.146,0.055,-0.25));
#441=CARTESIAN_POINT('',(-0.146,0.1275,-0.25));
#442=CARTESIAN_POINT('',(-0.146,0.2,-0.25));
#443=CARTESIAN_POINT('',(-0.346,0.2,-0.25));
#444=MECHANICAL_DESIGN_GEOMETRIC_PRESENTATION_REPRESENTATION('',(#277),#445);
#445=(
GEOMETRIC_REPRESENTATION_CONTEXT(3)
GLOBAL_UNCERTAINTY_ASSIGNED_CONTEXT((#446))
GLOBAL_UNIT_ASSIGNED_CONTEXT((#449,#448,#447))
REPRESENTATION_CONTEXT('Tischplatte','TOP_LEVEL_ASSEMBLY_PART')
);
#446=UNCERTAINTY_MEASURE_WITH_UNIT(LENGTH_MEASURE(1.E-08),#449,'DISTANCE_ACCURACY_VALUE','Maximum Tolerance applied to model');
#447=(
NAMED_UNIT(*)
SI_UNIT($,.STERADIAN.)
SOLID_ANGLE_UNIT()
);
#448=(
NAMED_UNIT(*)
PLANE_ANGLE_UNIT()
SI_UNIT($,.RADIAN.)
);
#449=(
LENGTH_UNIT()
NAMED_UNIT(*)
SI_UNIT($,.METRE.)
);
#450=PRODUCT_DEFINITION_SHAPE('','',#451);
#451=PRODUCT_DEFINITION('','',#453,#452);
#452=PRODUCT_DEFINITION_CONTEXT('',#459,'design');
#453=PRODUCT_DEFINITION_FORMATION_WITH_SPECIFIED_SOURCE('','',#455,.NOT_KNOWN.);
#454=PRODUCT_RELATED_PRODUCT_CATEGORY('','',(#455));
#455=PRODUCT('Tischplatte','Tischplatte','Tischplatte',(#457));
#456=PRODUCT_CATEGORY('','');
#457=PRODUCT_CONTEXT('',#459,'mechanical');
#458=APPLICATION_PROTOCOL_DEFINITION('international standard','ap242_managed_model_based_3d_engineering',2020,#459);
#459=APPLICATION_CONTEXT('managed model based 3d engineering');
ENDSEC;
END-ISO-10303-21;
