ISO-10303-21;
HEADER;
/*Generated by software containing ST-Developer
 * from STEP Tools, Inc. (www.steptools.com) 
 */
/*OPTION: using custom renumber hook */
/*description */
/*implementation_level */
FILE_DESCRIPTION(('STEP AP242 Edition 2','STEP AP242 Edition 2''CAx-IF Rec.Pracs.---Representation and Presentation of Product Manufa
cturing Information (PMI)---4.0---2014-10-13','STEP AP242 Edition 2''CAx-IF Rec.Pracs.---Representation and Presentation of Product Manufa
cturing Information (PMI)---4.0---2014-10-13''CAx-IF Rec.Pracs.---3D Tessellated Geometry---0.4---2014-09-14','STEP AP242 Edition 2''CAx-IF Rec.Pracs.---Representation and Presentation of Product Manufa
cturing Information (PMI)---4.0---2014-10-13''CAx-IF Rec.Pracs.---3D Tessellated Geometry---0.4---2014-09-14''2;1','STEP AP242 Edition 2''CAx-IF Rec.Pracs.---Representation and Presentation of Product Manufa
cturing Information (PMI)---4.0---2014-10-13''CAx-IF Rec.Pracs.---3D Tessellated Geometry---0.4---2014-09-14''2;1''CAx-IF Rec.Pracs.---User Defined Attributes---1.5---2016-08-15'),'2;1');
/*name */
/*time_stamp */
/*author */
/*organization */
/*preprocessor_version */
/*originating_system */
/*authorisation */
FILE_NAME('/vol/tmp/translate-10098942607409852240/TR.step','2026-03-04T07:41:41',(''),(''),'ST-DEVELOPER v20','ONSHAPE BY PTC INC, 1.211','  ');
FILE_SCHEMA(('AP242_MANAGED_MODEL_BASED_3D_ENGINEERING_MIM_LF { 1 0 10303 442 3 1 4 }'));
ENDSEC;
DATA;
#10=SHAPE_REPRESENTATION_RELATIONSHIP('','',#692,#11);
#11=ADVANCED_BREP_SHAPE_REPRESENTATION('',(#690),#1174);
#12=B_SPLINE_SURFACE_WITH_KNOTS('',3,1,((#938,#939),(#940,#941),(#942,#943),(#944,#945)),.SURF_OF_LINEAR_EXTRUSION.,.F.,.F.,.F.,(4,4),(2,2),(0.,1.),(0.,1.),.PIECEWISE_BEZIER_KNOTS.);
#13=B_SPLINE_SURFACE_WITH_KNOTS('',3,1,((#955,#956),(#957,#958),(#959,#960),(#961,#962)),.SURF_OF_LINEAR_EXTRUSION.,.F.,.F.,.F.,(4,4),(2,2),(0.,1.),(0.,1.),.PIECEWISE_BEZIER_KNOTS.);
#14=B_SPLINE_SURFACE_WITH_KNOTS('',3,1,((#972,#973),(#974,#975),(#976,#977),(#978,#979)),.SURF_OF_LINEAR_EXTRUSION.,.F.,.F.,.F.,(4,4),(2,2),(0.,1.),(0.,1.),.PIECEWISE_BEZIER_KNOTS.);
#15=B_SPLINE_SURFACE_WITH_KNOTS('',3,1,((#989,#990),(#991,#992),(#993,#994),(#995,#996)),.SURF_OF_LINEAR_EXTRUSION.,.F.,.F.,.F.,(4,4),(2,2),(0.,1.),(0.,1.),.PIECEWISE_BEZIER_KNOTS.);
#16=B_SPLINE_SURFACE_WITH_KNOTS('',3,1,((#1006,#1007),(#1008,#1009),(#1010,
#1011),(#1012,#1013)),.SURF_OF_LINEAR_EXTRUSION.,.F.,.F.,.F.,(4,4),(2,2),(0.,1.),(0.,1.),.PIECEWISE_BEZIER_KNOTS.);
#17=B_SPLINE_SURFACE_WITH_KNOTS('',3,1,((#1049,#1050),(#1051,#1052),(#1053,
#1054),(#1055,#1056)),.SURF_OF_LINEAR_EXTRUSION.,.F.,.F.,.F.,(4,4),(2,2),(0.,1.),(0.,1.),.PIECEWISE_BEZIER_KNOTS.);
#18=B_SPLINE_SURFACE_WITH_KNOTS('',3,1,((#1062,#1063),(#1064,#1065),(#1066,
#1067),(#1068,#1069)),.SURF_OF_LINEAR_EXTRUSION.,.F.,.F.,.F.,(4,4),(2,2),(0.,1.),(0.,1.),.PIECEWISE_BEZIER_KNOTS.);
#19=B_SPLINE_SURFACE_WITH_KNOTS('',3,1,((#1075,#1076),(#1077,#1078),(#1079,
#1080),(#1081,#1082)),.SURF_OF_LINEAR_EXTRUSION.,.F.,.F.,.F.,(4,4),(2,2),(0.,1.),(0.,1.),.PIECEWISE_BEZIER_KNOTS.);
#20=B_SPLINE_SURFACE_WITH_KNOTS('',3,1,((#1088,#1089),(#1090,#1091),(#1092,
#1093),(#1094,#1095)),.SURF_OF_LINEAR_EXTRUSION.,.F.,.F.,.F.,(4,4),(2,2),(0.,1.),(0.,1.),.PIECEWISE_BEZIER_KNOTS.);
#21=B_SPLINE_SURFACE_WITH_KNOTS('',3,1,((#1101,#1102),(#1103,#1104),(#1105,
#1106),(#1107,#1108)),.SURF_OF_LINEAR_EXTRUSION.,.F.,.F.,.F.,(4,4),(2,2),(0.,1.),(0.,1.),.PIECEWISE_BEZIER_KNOTS.);
#22=B_SPLINE_SURFACE_WITH_KNOTS('',3,1,((#1124,#1125),(#1126,#1127),(#1128,
#1129),(#1130,#1131)),.SURF_OF_LINEAR_EXTRUSION.,.F.,.F.,.F.,(4,4),(2,2),(0.,1.),(0.,1.),.PIECEWISE_BEZIER_KNOTS.);
#23=CYLINDRICAL_SURFACE('',#697,0.02);
#24=CYLINDRICAL_SURFACE('',#708,0.00473797488943854);
#25=B_SPLINE_CURVE_WITH_KNOTS('',2,(#870,#871,#872),.UNSPECIFIED.,.F.,.F.,(3,3),(0.,1.),.PIECEWISE_BEZIER_KNOTS.);
#26=B_SPLINE_CURVE_WITH_KNOTS('',2,(#874,#875,#876),.UNSPECIFIED.,.F.,.F.,(3,3),(0.,1.),.PIECEWISE_BEZIER_KNOTS.);
#27=B_SPLINE_CURVE_WITH_KNOTS('',2,(#878,#879,#880),.UNSPECIFIED.,.F.,.F.,(3,3),(0.,1.),.PIECEWISE_BEZIER_KNOTS.);
#28=B_SPLINE_CURVE_WITH_KNOTS('',2,(#882,#883,#884),.UNSPECIFIED.,.F.,.F.,(3,3),(0.,1.),.PIECEWISE_BEZIER_KNOTS.);
#29=B_SPLINE_CURVE_WITH_KNOTS('',2,(#886,#887,#888),.UNSPECIFIED.,.F.,.F.,(3,3),(0.,1.),.PIECEWISE_BEZIER_KNOTS.);
#30=B_SPLINE_CURVE_WITH_KNOTS('',2,(#946,#947,#948),.UNSPECIFIED.,.F.,.F.,(3,3),(0.,1.),.PIECEWISE_BEZIER_KNOTS.);
#31=B_SPLINE_CURVE_WITH_KNOTS('',2,(#952,#953,#954),.UNSPECIFIED.,.F.,.F.,(3,3),(0.,1.),.PIECEWISE_BEZIER_KNOTS.);
#32=B_SPLINE_CURVE_WITH_KNOTS('',2,(#963,#964,#965),.UNSPECIFIED.,.F.,.F.,(3,3),(0.,1.),.PIECEWISE_BEZIER_KNOTS.);
#33=B_SPLINE_CURVE_WITH_KNOTS('',2,(#969,#970,#971),.UNSPECIFIED.,.F.,.F.,(3,3),(0.,1.),.PIECEWISE_BEZIER_KNOTS.);
#34=B_SPLINE_CURVE_WITH_KNOTS('',2,(#980,#981,#982),.UNSPECIFIED.,.F.,.F.,(3,3),(0.,1.),.PIECEWISE_BEZIER_KNOTS.);
#35=B_SPLINE_CURVE_WITH_KNOTS('',2,(#986,#987,#988),.UNSPECIFIED.,.F.,.F.,(3,3),(0.,1.),.PIECEWISE_BEZIER_KNOTS.);
#36=B_SPLINE_CURVE_WITH_KNOTS('',2,(#997,#998,#999),.UNSPECIFIED.,.F.,.F.,(3,3),(0.,1.),.PIECEWISE_BEZIER_KNOTS.);
#37=B_SPLINE_CURVE_WITH_KNOTS('',2,(#1003,#1004,#1005),.UNSPECIFIED.,.F.,.F.,(3,3),(0.,1.),.PIECEWISE_BEZIER_KNOTS.);
#38=B_SPLINE_CURVE_WITH_KNOTS('',2,(#1014,#1015,#1016),.UNSPECIFIED.,.F.,.F.,(3,3),(0.,1.),.PIECEWISE_BEZIER_KNOTS.);
#39=B_SPLINE_CURVE_WITH_KNOTS('',2,(#1020,#1021,#1022),.UNSPECIFIED.,.F.,.F.,(3,3),(0.,1.),.PIECEWISE_BEZIER_KNOTS.);
#40=B_SPLINE_CURVE_WITH_KNOTS('',2,(#1059,#1060,#1061),.UNSPECIFIED.,.F.,.F.,(3,3),(0.,1.),.PIECEWISE_BEZIER_KNOTS.);
#41=B_SPLINE_CURVE_WITH_KNOTS('',2,(#1072,#1073,#1074),.UNSPECIFIED.,.F.,.F.,(3,3),(0.,1.),.PIECEWISE_BEZIER_KNOTS.);
#42=B_SPLINE_CURVE_WITH_KNOTS('',2,(#1085,#1086,#1087),.UNSPECIFIED.,.F.,.F.,(3,3),(0.,1.),.PIECEWISE_BEZIER_KNOTS.);
#43=B_SPLINE_CURVE_WITH_KNOTS('',2,(#1098,#1099,#1100),.UNSPECIFIED.,.F.,.F.,(3,3),(0.,1.),.PIECEWISE_BEZIER_KNOTS.);
#44=B_SPLINE_CURVE_WITH_KNOTS('',2,(#1111,#1112,#1113),.UNSPECIFIED.,.F.,.F.,(3,3),(0.,1.),.PIECEWISE_BEZIER_KNOTS.);
#45=B_SPLINE_CURVE_WITH_KNOTS('',2,(#1132,#1133,#1134),.UNSPECIFIED.,.F.,.F.,(3,3),(0.,1.),.PIECEWISE_BEZIER_KNOTS.);
#46=B_SPLINE_CURVE_WITH_KNOTS('',2,(#1135,#1136,#1137),.UNSPECIFIED.,.F.,.F.,(3,3),(0.,1.),.PIECEWISE_BEZIER_KNOTS.);
#47=LINE('',#859,#116);
#48=LINE('',#862,#117);
#49=LINE('',#864,#118);
#50=LINE('',#866,#119);
#51=LINE('',#868,#120);
#52=LINE('',#892,#121);
#53=LINE('',#894,#122);
#54=LINE('',#896,#123);
#55=LINE('',#897,#124);
#56=LINE('',#900,#125);
#57=LINE('',#902,#126);
#58=LINE('',#904,#127);
#59=LINE('',#906,#128);
#60=LINE('',#908,#129);
#61=LINE('',#910,#130);
#62=LINE('',#912,#131);
#63=LINE('',#918,#132);
#64=LINE('',#921,#133);
#65=LINE('',#923,#134);
#66=LINE('',#925,#135);
#67=LINE('',#927,#136);
#68=LINE('',#929,#137);
#69=LINE('',#931,#138);
#70=LINE('',#933,#139);
#71=LINE('',#935,#140);
#72=LINE('',#937,#141);
#73=LINE('',#950,#142);
#74=LINE('',#967,#143);
#75=LINE('',#984,#144);
#76=LINE('',#1001,#145);
#77=LINE('',#1018,#146);
#78=LINE('',#1024,#147);
#79=LINE('',#1026,#148);
#80=LINE('',#1028,#149);
#81=LINE('',#1030,#150);
#82=LINE('',#1032,#151);
#83=LINE('',#1034,#152);
#84=LINE('',#1036,#153);
#85=LINE('',#1038,#154);
#86=LINE('',#1040,#155);
#87=LINE('',#1042,#156);
#88=LINE('',#1044,#157);
#89=LINE('',#1046,#158);
#90=LINE('',#1057,#159);
#91=LINE('',#1070,#160);
#92=LINE('',#1083,#161);
#93=LINE('',#1096,#162);
#94=LINE('',#1109,#163);
#95=LINE('',#1115,#164);
#96=LINE('',#1117,#165);
#97=LINE('',#1119,#166);
#98=LINE('',#1121,#167);
#99=LINE('',#1123,#168);
#100=LINE('',#1140,#169);
#101=LINE('',#1142,#170);
#102=LINE('',#1144,#171);
#103=LINE('',#1146,#172);
#104=LINE('',#1148,#173);
#105=LINE('',#1150,#174);
#106=LINE('',#1152,#175);
#107=LINE('',#1154,#176);
#108=LINE('',#1156,#177);
#109=LINE('',#1158,#178);
#110=LINE('',#1160,#179);
#111=LINE('',#1162,#180);
#112=LINE('',#1164,#181);
#113=LINE('',#1166,#182);
#114=LINE('',#1168,#183);
#115=LINE('',#1170,#184);
#116=VECTOR('',#730,1.);
#117=VECTOR('',#731,1.);
#118=VECTOR('',#732,1.);
#119=VECTOR('',#733,1.);
#120=VECTOR('',#734,1.);
#121=VECTOR('',#737,1.);
#122=VECTOR('',#738,1.);
#123=VECTOR('',#739,1.);
#124=VECTOR('',#740,1.);
#125=VECTOR('',#741,1.);
#126=VECTOR('',#742,1.);
#127=VECTOR('',#743,1.);
#128=VECTOR('',#744,1.);
#129=VECTOR('',#745,1.);
#130=VECTOR('',#746,1.);
#131=VECTOR('',#747,1.);
#132=VECTOR('',#756,1.);
#133=VECTOR('',#757,1.);
#134=VECTOR('',#758,1.);
#135=VECTOR('',#759,1.);
#136=VECTOR('',#762,1.);
#137=VECTOR('',#763,1.);
#138=VECTOR('',#764,1.);
#139=VECTOR('',#767,1.);
#140=VECTOR('',#768,1.);
#141=VECTOR('',#769,1.);
#142=VECTOR('',#770,1.);
#143=VECTOR('',#771,1.);
#144=VECTOR('',#772,1.);
#145=VECTOR('',#773,1.);
#146=VECTOR('',#774,1.);
#147=VECTOR('',#777,1.);
#148=VECTOR('',#778,1.);
#149=VECTOR('',#779,1.);
#150=VECTOR('',#782,1.);
#151=VECTOR('',#783,1.);
#152=VECTOR('',#786,1.);
#153=VECTOR('',#787,1.);
#154=VECTOR('',#790,1.);
#155=VECTOR('',#791,1.);
#156=VECTOR('',#794,1.);
#157=VECTOR('',#795,1.);
#158=VECTOR('',#798,1.);
#159=VECTOR('',#801,1.);
#160=VECTOR('',#802,1.);
#161=VECTOR('',#803,1.);
#162=VECTOR('',#804,1.);
#163=VECTOR('',#805,1.);
#164=VECTOR('',#808,1.);
#165=VECTOR('',#809,1.);
#166=VECTOR('',#812,1.);
#167=VECTOR('',#813,1.);
#168=VECTOR('',#816,1.);
#169=VECTOR('',#821,1.);
#170=VECTOR('',#822,1.);
#171=VECTOR('',#823,1.);
#172=VECTOR('',#826,1.);
#173=VECTOR('',#827,1.);
#174=VECTOR('',#830,1.);
#175=VECTOR('',#831,1.);
#176=VECTOR('',#834,1.);
#177=VECTOR('',#835,1.);
#178=VECTOR('',#838,1.);
#179=VECTOR('',#839,1.);
#180=VECTOR('',#842,1.);
#181=VECTOR('',#843,1.);
#182=VECTOR('',#846,1.);
#183=VECTOR('',#847,1.);
#184=VECTOR('',#850,1.);
#185=ORIENTED_EDGE('',*,*,#375,.T.);
#186=ORIENTED_EDGE('',*,*,#376,.T.);
#187=ORIENTED_EDGE('',*,*,#377,.T.);
#188=ORIENTED_EDGE('',*,*,#378,.T.);
#189=ORIENTED_EDGE('',*,*,#379,.T.);
#190=ORIENTED_EDGE('',*,*,#380,.T.);
#191=ORIENTED_EDGE('',*,*,#381,.T.);
#192=ORIENTED_EDGE('',*,*,#382,.T.);
#193=ORIENTED_EDGE('',*,*,#383,.T.);
#194=ORIENTED_EDGE('',*,*,#384,.T.);
#195=ORIENTED_EDGE('',*,*,#385,.T.);
#196=ORIENTED_EDGE('',*,*,#386,.T.);
#197=ORIENTED_EDGE('',*,*,#387,.T.);
#198=ORIENTED_EDGE('',*,*,#388,.T.);
#199=ORIENTED_EDGE('',*,*,#389,.T.);
#200=ORIENTED_EDGE('',*,*,#390,.T.);
#201=ORIENTED_EDGE('',*,*,#391,.T.);
#202=ORIENTED_EDGE('',*,*,#392,.T.);
#203=ORIENTED_EDGE('',*,*,#393,.T.);
#204=ORIENTED_EDGE('',*,*,#394,.T.);
#205=ORIENTED_EDGE('',*,*,#395,.T.);
#206=ORIENTED_EDGE('',*,*,#396,.T.);
#207=ORIENTED_EDGE('',*,*,#397,.T.);
#208=ORIENTED_EDGE('',*,*,#375,.F.);
#209=ORIENTED_EDGE('',*,*,#398,.T.);
#210=ORIENTED_EDGE('',*,*,#398,.F.);
#211=ORIENTED_EDGE('',*,*,#399,.F.);
#212=ORIENTED_EDGE('',*,*,#400,.F.);
#213=ORIENTED_EDGE('',*,*,#401,.T.);
#214=ORIENTED_EDGE('',*,*,#402,.T.);
#215=ORIENTED_EDGE('',*,*,#403,.F.);
#216=ORIENTED_EDGE('',*,*,#404,.F.);
#217=ORIENTED_EDGE('',*,*,#405,.T.);
#218=ORIENTED_EDGE('',*,*,#400,.T.);
#219=ORIENTED_EDGE('',*,*,#406,.F.);
#220=ORIENTED_EDGE('',*,*,#407,.F.);
#221=ORIENTED_EDGE('',*,*,#408,.T.);
#222=ORIENTED_EDGE('',*,*,#404,.T.);
#223=ORIENTED_EDGE('',*,*,#409,.F.);
#224=ORIENTED_EDGE('',*,*,#410,.F.);
#225=ORIENTED_EDGE('',*,*,#411,.T.);
#226=ORIENTED_EDGE('',*,*,#407,.T.);
#227=ORIENTED_EDGE('',*,*,#412,.F.);
#228=ORIENTED_EDGE('',*,*,#413,.F.);
#229=ORIENTED_EDGE('',*,*,#414,.T.);
#230=ORIENTED_EDGE('',*,*,#410,.T.);
#231=ORIENTED_EDGE('',*,*,#415,.F.);
#232=ORIENTED_EDGE('',*,*,#416,.F.);
#233=ORIENTED_EDGE('',*,*,#417,.T.);
#234=ORIENTED_EDGE('',*,*,#413,.T.);
#235=ORIENTED_EDGE('',*,*,#418,.F.);
#236=ORIENTED_EDGE('',*,*,#419,.F.);
#237=ORIENTED_EDGE('',*,*,#420,.T.);
#238=ORIENTED_EDGE('',*,*,#416,.T.);
#239=ORIENTED_EDGE('',*,*,#421,.F.);
#240=ORIENTED_EDGE('',*,*,#422,.F.);
#241=ORIENTED_EDGE('',*,*,#423,.T.);
#242=ORIENTED_EDGE('',*,*,#419,.T.);
#243=ORIENTED_EDGE('',*,*,#377,.F.);
#244=ORIENTED_EDGE('',*,*,#424,.F.);
#245=ORIENTED_EDGE('',*,*,#425,.T.);
#246=ORIENTED_EDGE('',*,*,#426,.T.);
#247=ORIENTED_EDGE('',*,*,#376,.F.);
#248=ORIENTED_EDGE('',*,*,#427,.F.);
#249=ORIENTED_EDGE('',*,*,#428,.T.);
#250=ORIENTED_EDGE('',*,*,#424,.T.);
#251=ORIENTED_EDGE('',*,*,#389,.F.);
#252=ORIENTED_EDGE('',*,*,#429,.F.);
#253=ORIENTED_EDGE('',*,*,#430,.T.);
#254=ORIENTED_EDGE('',*,*,#427,.T.);
#255=ORIENTED_EDGE('',*,*,#388,.F.);
#256=ORIENTED_EDGE('',*,*,#431,.F.);
#257=ORIENTED_EDGE('',*,*,#432,.T.);
#258=ORIENTED_EDGE('',*,*,#429,.T.);
#259=ORIENTED_EDGE('',*,*,#387,.F.);
#260=ORIENTED_EDGE('',*,*,#433,.F.);
#261=ORIENTED_EDGE('',*,*,#434,.T.);
#262=ORIENTED_EDGE('',*,*,#431,.T.);
#263=ORIENTED_EDGE('',*,*,#386,.F.);
#264=ORIENTED_EDGE('',*,*,#435,.F.);
#265=ORIENTED_EDGE('',*,*,#436,.T.);
#266=ORIENTED_EDGE('',*,*,#433,.T.);
#267=ORIENTED_EDGE('',*,*,#385,.F.);
#268=ORIENTED_EDGE('',*,*,#437,.F.);
#269=ORIENTED_EDGE('',*,*,#438,.T.);
#270=ORIENTED_EDGE('',*,*,#435,.T.);
#271=ORIENTED_EDGE('',*,*,#384,.F.);
#272=ORIENTED_EDGE('',*,*,#439,.F.);
#273=ORIENTED_EDGE('',*,*,#440,.T.);
#274=ORIENTED_EDGE('',*,*,#437,.T.);
#275=ORIENTED_EDGE('',*,*,#383,.F.);
#276=ORIENTED_EDGE('',*,*,#441,.F.);
#277=ORIENTED_EDGE('',*,*,#442,.T.);
#278=ORIENTED_EDGE('',*,*,#439,.T.);
#279=ORIENTED_EDGE('',*,*,#382,.F.);
#280=ORIENTED_EDGE('',*,*,#443,.F.);
#281=ORIENTED_EDGE('',*,*,#444,.T.);
#282=ORIENTED_EDGE('',*,*,#441,.T.);
#283=ORIENTED_EDGE('',*,*,#381,.F.);
#284=ORIENTED_EDGE('',*,*,#445,.F.);
#285=ORIENTED_EDGE('',*,*,#446,.T.);
#286=ORIENTED_EDGE('',*,*,#443,.T.);
#287=ORIENTED_EDGE('',*,*,#380,.F.);
#288=ORIENTED_EDGE('',*,*,#447,.F.);
#289=ORIENTED_EDGE('',*,*,#448,.T.);
#290=ORIENTED_EDGE('',*,*,#445,.T.);
#291=ORIENTED_EDGE('',*,*,#379,.F.);
#292=ORIENTED_EDGE('',*,*,#449,.F.);
#293=ORIENTED_EDGE('',*,*,#450,.T.);
#294=ORIENTED_EDGE('',*,*,#447,.T.);
#295=ORIENTED_EDGE('',*,*,#378,.F.);
#296=ORIENTED_EDGE('',*,*,#426,.F.);
#297=ORIENTED_EDGE('',*,*,#451,.T.);
#298=ORIENTED_EDGE('',*,*,#449,.T.);
#299=ORIENTED_EDGE('',*,*,#452,.F.);
#300=ORIENTED_EDGE('',*,*,#402,.F.);
#301=ORIENTED_EDGE('',*,*,#453,.T.);
#302=ORIENTED_EDGE('',*,*,#422,.T.);
#303=ORIENTED_EDGE('',*,*,#425,.F.);
#304=ORIENTED_EDGE('',*,*,#428,.F.);
#305=ORIENTED_EDGE('',*,*,#430,.F.);
#306=ORIENTED_EDGE('',*,*,#432,.F.);
#307=ORIENTED_EDGE('',*,*,#434,.F.);
#308=ORIENTED_EDGE('',*,*,#436,.F.);
#309=ORIENTED_EDGE('',*,*,#438,.F.);
#310=ORIENTED_EDGE('',*,*,#440,.F.);
#311=ORIENTED_EDGE('',*,*,#442,.F.);
#312=ORIENTED_EDGE('',*,*,#444,.F.);
#313=ORIENTED_EDGE('',*,*,#446,.F.);
#314=ORIENTED_EDGE('',*,*,#448,.F.);
#315=ORIENTED_EDGE('',*,*,#450,.F.);
#316=ORIENTED_EDGE('',*,*,#451,.F.);
#317=ORIENTED_EDGE('',*,*,#401,.F.);
#318=ORIENTED_EDGE('',*,*,#405,.F.);
#319=ORIENTED_EDGE('',*,*,#408,.F.);
#320=ORIENTED_EDGE('',*,*,#411,.F.);
#321=ORIENTED_EDGE('',*,*,#414,.F.);
#322=ORIENTED_EDGE('',*,*,#417,.F.);
#323=ORIENTED_EDGE('',*,*,#420,.F.);
#324=ORIENTED_EDGE('',*,*,#423,.F.);
#325=ORIENTED_EDGE('',*,*,#453,.F.);
#326=ORIENTED_EDGE('',*,*,#391,.F.);
#327=ORIENTED_EDGE('',*,*,#454,.F.);
#328=ORIENTED_EDGE('',*,*,#455,.T.);
#329=ORIENTED_EDGE('',*,*,#456,.T.);
#330=ORIENTED_EDGE('',*,*,#390,.F.);
#331=ORIENTED_EDGE('',*,*,#457,.F.);
#332=ORIENTED_EDGE('',*,*,#458,.T.);
#333=ORIENTED_EDGE('',*,*,#454,.T.);
#334=ORIENTED_EDGE('',*,*,#397,.F.);
#335=ORIENTED_EDGE('',*,*,#459,.F.);
#336=ORIENTED_EDGE('',*,*,#460,.T.);
#337=ORIENTED_EDGE('',*,*,#457,.T.);
#338=ORIENTED_EDGE('',*,*,#396,.F.);
#339=ORIENTED_EDGE('',*,*,#461,.F.);
#340=ORIENTED_EDGE('',*,*,#462,.T.);
#341=ORIENTED_EDGE('',*,*,#459,.T.);
#342=ORIENTED_EDGE('',*,*,#395,.F.);
#343=ORIENTED_EDGE('',*,*,#463,.F.);
#344=ORIENTED_EDGE('',*,*,#464,.T.);
#345=ORIENTED_EDGE('',*,*,#461,.T.);
#346=ORIENTED_EDGE('',*,*,#394,.F.);
#347=ORIENTED_EDGE('',*,*,#465,.F.);
#348=ORIENTED_EDGE('',*,*,#466,.T.);
#349=ORIENTED_EDGE('',*,*,#463,.T.);
#350=ORIENTED_EDGE('',*,*,#393,.F.);
#351=ORIENTED_EDGE('',*,*,#467,.F.);
#352=ORIENTED_EDGE('',*,*,#468,.T.);
#353=ORIENTED_EDGE('',*,*,#465,.T.);
#354=ORIENTED_EDGE('',*,*,#392,.F.);
#355=ORIENTED_EDGE('',*,*,#456,.F.);
#356=ORIENTED_EDGE('',*,*,#469,.T.);
#357=ORIENTED_EDGE('',*,*,#467,.T.);
#358=ORIENTED_EDGE('',*,*,#455,.F.);
#359=ORIENTED_EDGE('',*,*,#458,.F.);
#360=ORIENTED_EDGE('',*,*,#460,.F.);
#361=ORIENTED_EDGE('',*,*,#462,.F.);
#362=ORIENTED_EDGE('',*,*,#464,.F.);
#363=ORIENTED_EDGE('',*,*,#466,.F.);
#364=ORIENTED_EDGE('',*,*,#468,.F.);
#365=ORIENTED_EDGE('',*,*,#469,.F.);
#366=ORIENTED_EDGE('',*,*,#403,.T.);
#367=ORIENTED_EDGE('',*,*,#399,.T.);
#368=ORIENTED_EDGE('',*,*,#452,.T.);
#369=ORIENTED_EDGE('',*,*,#421,.T.);
#370=ORIENTED_EDGE('',*,*,#418,.T.);
#371=ORIENTED_EDGE('',*,*,#415,.T.);
#372=ORIENTED_EDGE('',*,*,#412,.T.);
#373=ORIENTED_EDGE('',*,*,#409,.T.);
#374=ORIENTED_EDGE('',*,*,#406,.T.);
#375=EDGE_CURVE('',#470,#470,#534,.T.);
#376=EDGE_CURVE('',#471,#472,#47,.T.);
#377=EDGE_CURVE('',#472,#473,#48,.T.);
#378=EDGE_CURVE('',#473,#474,#49,.T.);
#379=EDGE_CURVE('',#474,#475,#50,.T.);
#380=EDGE_CURVE('',#475,#476,#51,.T.);
#381=EDGE_CURVE('',#476,#477,#25,.T.);
#382=EDGE_CURVE('',#477,#478,#26,.T.);
#383=EDGE_CURVE('',#478,#479,#27,.T.);
#384=EDGE_CURVE('',#479,#480,#28,.T.);
#385=EDGE_CURVE('',#480,#481,#29,.T.);
#386=EDGE_CURVE('',#481,#482,#535,.T.);
#387=EDGE_CURVE('',#482,#483,#52,.T.);
#388=EDGE_CURVE('',#483,#484,#53,.T.);
#389=EDGE_CURVE('',#484,#471,#54,.T.);
#390=EDGE_CURVE('',#485,#486,#55,.T.);
#391=EDGE_CURVE('',#486,#487,#56,.T.);
#392=EDGE_CURVE('',#487,#488,#57,.T.);
#393=EDGE_CURVE('',#488,#489,#58,.T.);
#394=EDGE_CURVE('',#489,#490,#59,.T.);
#395=EDGE_CURVE('',#490,#491,#60,.T.);
#396=EDGE_CURVE('',#491,#492,#61,.T.);
#397=EDGE_CURVE('',#492,#485,#62,.T.);
#398=EDGE_CURVE('',#493,#493,#536,.T.);
#399=EDGE_CURVE('',#494,#495,#63,.T.);
#400=EDGE_CURVE('',#496,#494,#64,.T.);
#401=EDGE_CURVE('',#496,#497,#65,.T.);
#402=EDGE_CURVE('',#497,#495,#66,.T.);
#403=EDGE_CURVE('',#498,#494,#67,.T.);
#404=EDGE_CURVE('',#499,#498,#68,.T.);
#405=EDGE_CURVE('',#499,#496,#69,.T.);
#406=EDGE_CURVE('',#500,#498,#70,.T.);
#407=EDGE_CURVE('',#501,#500,#71,.T.);
#408=EDGE_CURVE('',#501,#499,#72,.T.);
#409=EDGE_CURVE('',#502,#500,#30,.T.);
#410=EDGE_CURVE('',#503,#502,#73,.T.);
#411=EDGE_CURVE('',#503,#501,#31,.T.);
#412=EDGE_CURVE('',#504,#502,#32,.T.);
#413=EDGE_CURVE('',#505,#504,#74,.T.);
#414=EDGE_CURVE('',#505,#503,#33,.T.);
#415=EDGE_CURVE('',#506,#504,#34,.T.);
#416=EDGE_CURVE('',#507,#506,#75,.T.);
#417=EDGE_CURVE('',#507,#505,#35,.T.);
#418=EDGE_CURVE('',#508,#506,#36,.T.);
#419=EDGE_CURVE('',#509,#508,#76,.T.);
#420=EDGE_CURVE('',#509,#507,#37,.T.);
#421=EDGE_CURVE('',#510,#508,#38,.T.);
#422=EDGE_CURVE('',#511,#510,#77,.T.);
#423=EDGE_CURVE('',#511,#509,#39,.T.);
#424=EDGE_CURVE('',#512,#472,#78,.T.);
#425=EDGE_CURVE('',#512,#513,#79,.T.);
#426=EDGE_CURVE('',#513,#473,#80,.T.);
#427=EDGE_CURVE('',#514,#471,#81,.T.);
#428=EDGE_CURVE('',#514,#512,#82,.T.);
#429=EDGE_CURVE('',#515,#484,#83,.T.);
#430=EDGE_CURVE('',#515,#514,#84,.T.);
#431=EDGE_CURVE('',#516,#483,#85,.T.);
#432=EDGE_CURVE('',#516,#515,#86,.T.);
#433=EDGE_CURVE('',#517,#482,#87,.T.);
#434=EDGE_CURVE('',#517,#516,#88,.T.);
#435=EDGE_CURVE('',#518,#481,#89,.T.);
#436=EDGE_CURVE('',#518,#517,#537,.T.);
#437=EDGE_CURVE('',#519,#480,#90,.T.);
#438=EDGE_CURVE('',#519,#518,#40,.T.);
#439=EDGE_CURVE('',#520,#479,#91,.T.);
#440=EDGE_CURVE('',#520,#519,#41,.T.);
#441=EDGE_CURVE('',#521,#478,#92,.T.);
#442=EDGE_CURVE('',#521,#520,#42,.T.);
#443=EDGE_CURVE('',#522,#477,#93,.T.);
#444=EDGE_CURVE('',#522,#521,#43,.T.);
#445=EDGE_CURVE('',#523,#476,#94,.T.);
#446=EDGE_CURVE('',#523,#522,#44,.T.);
#447=EDGE_CURVE('',#524,#475,#95,.T.);
#448=EDGE_CURVE('',#524,#523,#96,.T.);
#449=EDGE_CURVE('',#525,#474,#97,.T.);
#450=EDGE_CURVE('',#525,#524,#98,.T.);
#451=EDGE_CURVE('',#513,#525,#99,.T.);
#452=EDGE_CURVE('',#495,#510,#45,.T.);
#453=EDGE_CURVE('',#497,#511,#46,.T.);
#454=EDGE_CURVE('',#526,#486,#100,.T.);
#455=EDGE_CURVE('',#526,#527,#101,.T.);
#456=EDGE_CURVE('',#527,#487,#102,.T.);
#457=EDGE_CURVE('',#528,#485,#103,.T.);
#458=EDGE_CURVE('',#528,#526,#104,.T.);
#459=EDGE_CURVE('',#529,#492,#105,.T.);
#460=EDGE_CURVE('',#529,#528,#106,.T.);
#461=EDGE_CURVE('',#530,#491,#107,.T.);
#462=EDGE_CURVE('',#530,#529,#108,.T.);
#463=EDGE_CURVE('',#531,#490,#109,.T.);
#464=EDGE_CURVE('',#531,#530,#110,.T.);
#465=EDGE_CURVE('',#532,#489,#111,.T.);
#466=EDGE_CURVE('',#532,#531,#112,.T.);
#467=EDGE_CURVE('',#533,#488,#113,.T.);
#468=EDGE_CURVE('',#533,#532,#114,.T.);
#469=EDGE_CURVE('',#527,#533,#115,.T.);
#470=VERTEX_POINT('',#858);
#471=VERTEX_POINT('',#860);
#472=VERTEX_POINT('',#861);
#473=VERTEX_POINT('',#863);
#474=VERTEX_POINT('',#865);
#475=VERTEX_POINT('',#867);
#476=VERTEX_POINT('',#869);
#477=VERTEX_POINT('',#873);
#478=VERTEX_POINT('',#877);
#479=VERTEX_POINT('',#881);
#480=VERTEX_POINT('',#885);
#481=VERTEX_POINT('',#889);
#482=VERTEX_POINT('',#891);
#483=VERTEX_POINT('',#893);
#484=VERTEX_POINT('',#895);
#485=VERTEX_POINT('',#898);
#486=VERTEX_POINT('',#899);
#487=VERTEX_POINT('',#901);
#488=VERTEX_POINT('',#903);
#489=VERTEX_POINT('',#905);
#490=VERTEX_POINT('',#907);
#491=VERTEX_POINT('',#909);
#492=VERTEX_POINT('',#911);
#493=VERTEX_POINT('',#915);
#494=VERTEX_POINT('',#919);
#495=VERTEX_POINT('',#920);
#496=VERTEX_POINT('',#922);
#497=VERTEX_POINT('',#924);
#498=VERTEX_POINT('',#928);
#499=VERTEX_POINT('',#930);
#500=VERTEX_POINT('',#934);
#501=VERTEX_POINT('',#936);
#502=VERTEX_POINT('',#949);
#503=VERTEX_POINT('',#951);
#504=VERTEX_POINT('',#966);
#505=VERTEX_POINT('',#968);
#506=VERTEX_POINT('',#983);
#507=VERTEX_POINT('',#985);
#508=VERTEX_POINT('',#1000);
#509=VERTEX_POINT('',#1002);
#510=VERTEX_POINT('',#1017);
#511=VERTEX_POINT('',#1019);
#512=VERTEX_POINT('',#1025);
#513=VERTEX_POINT('',#1027);
#514=VERTEX_POINT('',#1031);
#515=VERTEX_POINT('',#1035);
#516=VERTEX_POINT('',#1039);
#517=VERTEX_POINT('',#1043);
#518=VERTEX_POINT('',#1047);
#519=VERTEX_POINT('',#1058);
#520=VERTEX_POINT('',#1071);
#521=VERTEX_POINT('',#1084);
#522=VERTEX_POINT('',#1097);
#523=VERTEX_POINT('',#1110);
#524=VERTEX_POINT('',#1116);
#525=VERTEX_POINT('',#1120);
#526=VERTEX_POINT('',#1141);
#527=VERTEX_POINT('',#1143);
#528=VERTEX_POINT('',#1147);
#529=VERTEX_POINT('',#1151);
#530=VERTEX_POINT('',#1155);
#531=VERTEX_POINT('',#1159);
#532=VERTEX_POINT('',#1163);
#533=VERTEX_POINT('',#1167);
#534=CIRCLE('',#695,0.02);
#535=CIRCLE('',#696,0.00473800344180645);
#536=CIRCLE('',#698,0.02);
#537=CIRCLE('',#709,0.00473800344180645);
#538=EDGE_LOOP('',(#185));
#539=EDGE_LOOP('',(#186,#187,#188,#189,#190,#191,#192,#193,#194,#195,#196,#197,#198,#199));
#540=EDGE_LOOP('',(#200,#201,#202,#203,#204,#205,#206,#207));
#541=EDGE_LOOP('',(#208));
#542=EDGE_LOOP('',(#209));
#543=EDGE_LOOP('',(#210));
#544=EDGE_LOOP('',(#211,#212,#213,#214));
#545=EDGE_LOOP('',(#215,#216,#217,#218));
#546=EDGE_LOOP('',(#219,#220,#221,#222));
#547=EDGE_LOOP('',(#223,#224,#225,#226));
#548=EDGE_LOOP('',(#227,#228,#229,#230));
#549=EDGE_LOOP('',(#231,#232,#233,#234));
#550=EDGE_LOOP('',(#235,#236,#237,#238));
#551=EDGE_LOOP('',(#239,#240,#241,#242));
#552=EDGE_LOOP('',(#243,#244,#245,#246));
#553=EDGE_LOOP('',(#247,#248,#249,#250));
#554=EDGE_LOOP('',(#251,#252,#253,#254));
#555=EDGE_LOOP('',(#255,#256,#257,#258));
#556=EDGE_LOOP('',(#259,#260,#261,#262));
#557=EDGE_LOOP('',(#263,#264,#265,#266));
#558=EDGE_LOOP('',(#267,#268,#269,#270));
#559=EDGE_LOOP('',(#271,#272,#273,#274));
#560=EDGE_LOOP('',(#275,#276,#277,#278));
#561=EDGE_LOOP('',(#279,#280,#281,#282));
#562=EDGE_LOOP('',(#283,#284,#285,#286));
#563=EDGE_LOOP('',(#287,#288,#289,#290));
#564=EDGE_LOOP('',(#291,#292,#293,#294));
#565=EDGE_LOOP('',(#295,#296,#297,#298));
#566=EDGE_LOOP('',(#299,#300,#301,#302));
#567=EDGE_LOOP('',(#303,#304,#305,#306,#307,#308,#309,#310,#311,#312,#313,#314,#315,#316));
#568=EDGE_LOOP('',(#317,#318,#319,#320,#321,#322,#323,#324,#325));
#569=EDGE_LOOP('',(#326,#327,#328,#329));
#570=EDGE_LOOP('',(#330,#331,#332,#333));
#571=EDGE_LOOP('',(#334,#335,#336,#337));
#572=EDGE_LOOP('',(#338,#339,#340,#341));
#573=EDGE_LOOP('',(#342,#343,#344,#345));
#574=EDGE_LOOP('',(#346,#347,#348,#349));
#575=EDGE_LOOP('',(#350,#351,#352,#353));
#576=EDGE_LOOP('',(#354,#355,#356,#357));
#577=EDGE_LOOP('',(#358,#359,#360,#361,#362,#363,#364,#365));
#578=EDGE_LOOP('',(#366,#367,#368,#369,#370,#371,#372,#373,#374));
#579=FACE_BOUND('',#538,.T.);
#580=FACE_BOUND('',#539,.T.);
#581=FACE_BOUND('',#540,.T.);
#582=FACE_BOUND('',#541,.T.);
#583=FACE_BOUND('',#542,.T.);
#584=FACE_BOUND('',#543,.T.);
#585=FACE_BOUND('',#544,.T.);
#586=FACE_BOUND('',#545,.T.);
#587=FACE_BOUND('',#546,.T.);
#588=FACE_BOUND('',#547,.T.);
#589=FACE_BOUND('',#548,.T.);
#590=FACE_BOUND('',#549,.T.);
#591=FACE_BOUND('',#550,.T.);
#592=FACE_BOUND('',#551,.T.);
#593=FACE_BOUND('',#552,.T.);
#594=FACE_BOUND('',#553,.T.);
#595=FACE_BOUND('',#554,.T.);
#596=FACE_BOUND('',#555,.T.);
#597=FACE_BOUND('',#556,.T.);
#598=FACE_BOUND('',#557,.T.);
#599=FACE_BOUND('',#558,.T.);
#600=FACE_BOUND('',#559,.T.);
#601=FACE_BOUND('',#560,.T.);
#602=FACE_BOUND('',#561,.T.);
#603=FACE_BOUND('',#562,.T.);
#604=FACE_BOUND('',#563,.T.);
#605=FACE_BOUND('',#564,.T.);
#606=FACE_BOUND('',#565,.T.);
#607=FACE_BOUND('',#566,.T.);
#608=FACE_BOUND('',#567,.T.);
#609=FACE_BOUND('',#568,.T.);
#610=FACE_BOUND('',#569,.T.);
#611=FACE_BOUND('',#570,.T.);
#612=FACE_BOUND('',#571,.T.);
#613=FACE_BOUND('',#572,.T.);
#614=FACE_BOUND('',#573,.T.);
#615=FACE_BOUND('',#574,.T.);
#616=FACE_BOUND('',#575,.T.);
#617=FACE_BOUND('',#576,.T.);
#618=FACE_BOUND('',#577,.T.);
#619=FACE_BOUND('',#578,.T.);
#620=PLANE('',#694);
#621=PLANE('',#699);
#622=PLANE('',#700);
#623=PLANE('',#701);
#624=PLANE('',#702);
#625=PLANE('',#703);
#626=PLANE('',#704);
#627=PLANE('',#705);
#628=PLANE('',#706);
#629=PLANE('',#707);
#630=PLANE('',#710);
#631=PLANE('',#711);
#632=PLANE('',#712);
#633=PLANE('',#713);
#634=PLANE('',#714);
#635=PLANE('',#715);
#636=PLANE('',#716);
#637=PLANE('',#717);
#638=PLANE('',#718);
#639=PLANE('',#719);
#640=PLANE('',#720);
#641=PLANE('',#721);
#642=PLANE('',#722);
#643=PLANE('',#723);
#644=ADVANCED_FACE('',(#579,#580,#581),#620,.T.);
#645=ADVANCED_FACE('',(#582,#583),#23,.T.);
#646=ADVANCED_FACE('',(#584),#621,.F.);
#647=ADVANCED_FACE('',(#585),#622,.T.);
#648=ADVANCED_FACE('',(#586),#623,.T.);
#649=ADVANCED_FACE('',(#587),#624,.T.);
#650=ADVANCED_FACE('',(#588),#12,.T.);
#651=ADVANCED_FACE('',(#589),#13,.T.);
#652=ADVANCED_FACE('',(#590),#14,.T.);
#653=ADVANCED_FACE('',(#591),#15,.T.);
#654=ADVANCED_FACE('',(#592),#16,.T.);
#655=ADVANCED_FACE('',(#593),#625,.T.);
#656=ADVANCED_FACE('',(#594),#626,.T.);
#657=ADVANCED_FACE('',(#595),#627,.T.);
#658=ADVANCED_FACE('',(#596),#628,.T.);
#659=ADVANCED_FACE('',(#597),#629,.T.);
#660=ADVANCED_FACE('',(#598),#24,.F.);
#661=ADVANCED_FACE('',(#599),#17,.T.);
#662=ADVANCED_FACE('',(#600),#18,.T.);
#663=ADVANCED_FACE('',(#601),#19,.T.);
#664=ADVANCED_FACE('',(#602),#20,.T.);
#665=ADVANCED_FACE('',(#603),#21,.T.);
#666=ADVANCED_FACE('',(#604),#630,.T.);
#667=ADVANCED_FACE('',(#605),#631,.T.);
#668=ADVANCED_FACE('',(#606),#632,.T.);
#669=ADVANCED_FACE('',(#607),#22,.T.);
#670=ADVANCED_FACE('',(#608,#609),#633,.T.);
#671=ADVANCED_FACE('',(#610),#634,.T.);
#672=ADVANCED_FACE('',(#611),#635,.T.);
#673=ADVANCED_FACE('',(#612),#636,.T.);
#674=ADVANCED_FACE('',(#613),#637,.T.);
#675=ADVANCED_FACE('',(#614),#638,.T.);
#676=ADVANCED_FACE('',(#615),#639,.T.);
#677=ADVANCED_FACE('',(#616),#640,.T.);
#678=ADVANCED_FACE('',(#617),#641,.T.);
#679=ADVANCED_FACE('',(#618),#642,.T.);
#680=ADVANCED_FACE('',(#619),#643,.T.);
#681=CLOSED_SHELL('',(#644,#645,#646,#647,#648,#649,#650,#651,#652,#653,#654,#655,#656,#657,#658,#659,#660,#661,#662,#663,#664,#665,#666,#667,#668,#669,#670,#671,#672,#673,#674,#675,#676,#677,#678,#679,#680));
#682=STYLED_ITEM('',(#683),#690);
#683=PRESENTATION_STYLE_ASSIGNMENT((#684));
#684=SURFACE_STYLE_USAGE(.BOTH.,#685);
#685=SURFACE_SIDE_STYLE('',(#686));
#686=SURFACE_STYLE_FILL_AREA(#687);
#687=FILL_AREA_STYLE('',(#688));
#688=FILL_AREA_STYLE_COLOUR('',#689);
#689=COLOUR_RGB('',0.615686274509804,0.811764705882353,0.929411764705882);
#690=MANIFOLD_SOLID_BREP('tr',#681);
#691=SHAPE_DEFINITION_REPRESENTATION(#1179,#692);
#692=SHAPE_REPRESENTATION('tr',(#693),#1174);
#693=AXIS2_PLACEMENT_3D('',#855,#724,#725);
#694=AXIS2_PLACEMENT_3D('',#856,#726,#727);
#695=AXIS2_PLACEMENT_3D('',#857,#728,#729);
#696=AXIS2_PLACEMENT_3D('',#890,#735,#736);
#697=AXIS2_PLACEMENT_3D('',#913,#748,#749);
#698=AXIS2_PLACEMENT_3D('',#914,#750,#751);
#699=AXIS2_PLACEMENT_3D('',#916,#752,#753);
#700=AXIS2_PLACEMENT_3D('',#917,#754,#755);
#701=AXIS2_PLACEMENT_3D('',#926,#760,#761);
#702=AXIS2_PLACEMENT_3D('',#932,#765,#766);
#703=AXIS2_PLACEMENT_3D('',#1023,#775,#776);
#704=AXIS2_PLACEMENT_3D('',#1029,#780,#781);
#705=AXIS2_PLACEMENT_3D('',#1033,#784,#785);
#706=AXIS2_PLACEMENT_3D('',#1037,#788,#789);
#707=AXIS2_PLACEMENT_3D('',#1041,#792,#793);
#708=AXIS2_PLACEMENT_3D('',#1045,#796,#797);
#709=AXIS2_PLACEMENT_3D('',#1048,#799,#800);
#710=AXIS2_PLACEMENT_3D('',#1114,#806,#807);
#711=AXIS2_PLACEMENT_3D('',#1118,#810,#811);
#712=AXIS2_PLACEMENT_3D('',#1122,#814,#815);
#713=AXIS2_PLACEMENT_3D('',#1138,#817,#818);
#714=AXIS2_PLACEMENT_3D('',#1139,#819,#820);
#715=AXIS2_PLACEMENT_3D('',#1145,#824,#825);
#716=AXIS2_PLACEMENT_3D('',#1149,#828,#829);
#717=AXIS2_PLACEMENT_3D('',#1153,#832,#833);
#718=AXIS2_PLACEMENT_3D('',#1157,#836,#837);
#719=AXIS2_PLACEMENT_3D('',#1161,#840,#841);
#720=AXIS2_PLACEMENT_3D('',#1165,#844,#845);
#721=AXIS2_PLACEMENT_3D('',#1169,#848,#849);
#722=AXIS2_PLACEMENT_3D('',#1171,#851,#852);
#723=AXIS2_PLACEMENT_3D('',#1172,#853,#854);
#724=DIRECTION('',(0.,0.,1.));
#725=DIRECTION('',(1.,0.,0.));
#726=DIRECTION('',(0.,0.,1.));
#727=DIRECTION('',(1.,0.,0.));
#728=DIRECTION('',(0.,0.,1.));
#729=DIRECTION('',(1.,0.,0.));
#730=DIRECTION('',(-1.,0.,0.));
#731=DIRECTION('',(0.,-1.,0.));
#732=DIRECTION('',(-1.,0.,0.));
#733=DIRECTION('',(0.,1.,0.));
#734=DIRECTION('',(1.,0.,0.));
#735=DIRECTION('',(2.51485539277802E-17,-5.58296488614802E-17,-1.));
#736=DIRECTION('',(0.42452215722522,-0.905417548993195,0.));
#737=DIRECTION('',(0.479403623880508,-0.877594533603211,0.));
#738=DIRECTION('',(-1.,0.,0.));
#739=DIRECTION('',(-0.47136610293358,0.881937637820957,0.));
#740=DIRECTION('',(-1.,0.,0.));
#741=DIRECTION('',(0.,1.,0.));
#742=DIRECTION('',(1.,0.,0.));
#743=DIRECTION('',(0.,-1.,0.));
#744=DIRECTION('',(-1.,0.,0.));
#745=DIRECTION('',(0.,-1.,0.));
#746=DIRECTION('',(-1.,0.,0.));
#747=DIRECTION('',(0.,1.,0.));
#748=DIRECTION('',(0.,0.,-1.));
#749=DIRECTION('',(-1.,0.,0.));
#750=DIRECTION('',(0.,0.,1.));
#751=DIRECTION('',(1.,0.,0.));
#752=DIRECTION('',(0.,0.,1.));
#753=DIRECTION('',(1.,0.,0.));
#754=DIRECTION('',(0.,-1.,0.));
#755=DIRECTION('',(0.,0.,-1.));
#756=DIRECTION('',(1.,0.,0.));
#757=DIRECTION('',(0.,0.,1.));
#758=DIRECTION('',(1.,0.,0.));
#759=DIRECTION('',(0.,0.,1.));
#760=DIRECTION('',(-1.,0.,0.));
#761=DIRECTION('',(0.,0.,1.));
#762=DIRECTION('',(0.,-1.,0.));
#763=DIRECTION('',(0.,0.,1.));
#764=DIRECTION('',(0.,-1.,0.));
#765=DIRECTION('',(0.,1.,0.));
#766=DIRECTION('',(0.,0.,1.));
#767=DIRECTION('',(-1.,0.,0.));
#768=DIRECTION('',(0.,0.,1.));
#769=DIRECTION('',(-1.,0.,0.));
#770=DIRECTION('',(0.,0.,1.));
#771=DIRECTION('',(0.,0.,1.));
#772=DIRECTION('',(0.,0.,1.));
#773=DIRECTION('',(0.,0.,1.));
#774=DIRECTION('',(0.,0.,1.));
#775=DIRECTION('',(-1.,0.,0.));
#776=DIRECTION('',(0.,0.,1.));
#777=DIRECTION('',(0.,0.,1.));
#778=DIRECTION('',(0.,-1.,0.));
#779=DIRECTION('',(0.,0.,1.));
#780=DIRECTION('',(0.,1.,0.));
#781=DIRECTION('',(0.,0.,1.));
#782=DIRECTION('',(0.,0.,1.));
#783=DIRECTION('',(-1.,0.,0.));
#784=DIRECTION('',(0.881937637820957,0.47136610293358,0.));
#785=DIRECTION('',(-0.47136610293358,0.881937637820957,0.));
#786=DIRECTION('',(0.,0.,1.));
#787=DIRECTION('',(-0.47136610293358,0.881937637820957,0.));
#788=DIRECTION('',(0.,1.,0.));
#789=DIRECTION('',(0.,0.,1.));
#790=DIRECTION('',(0.,0.,1.));
#791=DIRECTION('',(-1.,0.,0.));
#792=DIRECTION('',(-0.877594533603211,-0.479403623880508,0.));
#793=DIRECTION('',(0.479403623880508,-0.877594533603211,0.));
#794=DIRECTION('',(0.,0.,1.));
#795=DIRECTION('',(0.479403623880508,-0.877594533603211,0.));
#796=DIRECTION('',(0.,0.,1.));
#797=DIRECTION('',(0.410728794880306,-0.911757564847241,0.));
#798=DIRECTION('',(0.,0.,1.));
#799=DIRECTION('',(-2.18492269559983E-12,4.85051614638046E-12,-1.));
#800=DIRECTION('',(0.42452215722522,-0.905417548993195,-5.31913135322297E-12));
#801=DIRECTION('',(0.,0.,1.));
#802=DIRECTION('',(0.,0.,1.));
#803=DIRECTION('',(0.,0.,1.));
#804=DIRECTION('',(0.,0.,1.));
#805=DIRECTION('',(0.,0.,1.));
#806=DIRECTION('',(0.,-1.,0.));
#807=DIRECTION('',(0.,0.,-1.));
#808=DIRECTION('',(0.,0.,1.));
#809=DIRECTION('',(1.,0.,0.));
#810=DIRECTION('',(1.,0.,0.));
#811=DIRECTION('',(0.,0.,-1.));
#812=DIRECTION('',(0.,0.,1.));
#813=DIRECTION('',(0.,1.,0.));
#814=DIRECTION('',(0.,1.,0.));
#815=DIRECTION('',(0.,0.,1.));
#816=DIRECTION('',(-1.,0.,0.));
#817=DIRECTION('',(0.,0.,1.));
#818=DIRECTION('',(1.,0.,0.));
#819=DIRECTION('',(1.,0.,0.));
#820=DIRECTION('',(0.,0.,-1.));
#821=DIRECTION('',(0.,0.,1.));
#822=DIRECTION('',(0.,1.,0.));
#823=DIRECTION('',(0.,0.,1.));
#824=DIRECTION('',(0.,1.,0.));
#825=DIRECTION('',(0.,0.,1.));
#826=DIRECTION('',(0.,0.,1.));
#827=DIRECTION('',(-1.,0.,0.));
#828=DIRECTION('',(1.,0.,0.));
#829=DIRECTION('',(0.,0.,-1.));
#830=DIRECTION('',(0.,0.,1.));
#831=DIRECTION('',(0.,1.,0.));
#832=DIRECTION('',(0.,1.,0.));
#833=DIRECTION('',(0.,0.,1.));
#834=DIRECTION('',(0.,0.,1.));
#835=DIRECTION('',(-1.,0.,0.));
#836=DIRECTION('',(-1.,0.,0.));
#837=DIRECTION('',(0.,0.,1.));
#838=DIRECTION('',(0.,0.,1.));
#839=DIRECTION('',(0.,-1.,0.));
#840=DIRECTION('',(0.,1.,0.));
#841=DIRECTION('',(0.,0.,1.));
#842=DIRECTION('',(0.,0.,1.));
#843=DIRECTION('',(-1.,0.,0.));
#844=DIRECTION('',(-1.,0.,0.));
#845=DIRECTION('',(0.,0.,1.));
#846=DIRECTION('',(0.,0.,1.));
#847=DIRECTION('',(0.,-1.,0.));
#848=DIRECTION('',(0.,-1.,0.));
#849=DIRECTION('',(0.,0.,-1.));
#850=DIRECTION('',(1.,0.,0.));
#851=DIRECTION('',(0.,0.,1.));
#852=DIRECTION('',(1.,0.,0.));
#853=DIRECTION('',(0.,0.,1.));
#854=DIRECTION('',(1.,0.,0.));
#855=CARTESIAN_POINT('',(0.,0.,0.));
#856=CARTESIAN_POINT('',(0.,0.,0.1825));
#857=CARTESIAN_POINT('',(0.,1.22464679914735E-18,0.1825));
#858=CARTESIAN_POINT('',(0.02,1.22464679914735E-18,0.1825));
#859=CARTESIAN_POINT('',(0.00494524350174812,-0.00339676996782101,0.1825));
#860=CARTESIAN_POINT('',(0.00603752143781807,-0.00339676996782101,0.1825));
#861=CARTESIAN_POINT('',(0.00385296556567817,-0.00339676996782101,0.1825));
#862=CARTESIAN_POINT('',(0.00385296556567817,-0.00590642394756042,0.1825));
#863=CARTESIAN_POINT('',(0.00385296556567817,-0.00841607792729984,0.1825));
#864=CARTESIAN_POINT('',(0.0023562991923063,-0.00841607792729984,0.1825));
#865=CARTESIAN_POINT('',(0.000859632818934426,-0.00841607792729984,0.1825));
#866=CARTESIAN_POINT('',(0.000859632818934426,-0.00133581169961075,0.1825));
#867=CARTESIAN_POINT('',(0.000859632818934426,0.00574445452807833,0.1825));
#868=CARTESIAN_POINT('',(0.00365219324729902,0.00574445452807833,0.1825));
#869=CARTESIAN_POINT('',(0.0064447536756636,0.00574445452807833,0.1825));
#870=CARTESIAN_POINT('',(0.0064447536756636,0.00574445452807833,0.1825));
#871=CARTESIAN_POINT('',(0.0080478902178729,0.00574445452807833,0.1825));
#872=CARTESIAN_POINT('',(0.00918560002202144,0.0051740786235921,0.1825));
#873=CARTESIAN_POINT('',(0.00918560002202144,0.0051740786235921,0.1825));
#874=CARTESIAN_POINT('',(0.00918560002202144,0.0051740786235921,0.1825));
#875=CARTESIAN_POINT('',(0.01032330982617,0.00460370271910587,0.1825));
#876=CARTESIAN_POINT('',(0.0109210637740715,0.00356181606691102,0.1825));
#877=CARTESIAN_POINT('',(0.0109210637740715,0.00356181606691102,0.1825));
#878=CARTESIAN_POINT('',(0.0109210637740715,0.00356181606691102,0.1825));
#879=CARTESIAN_POINT('',(0.0115188177219731,0.00251992941471617,0.1825));
#880=CARTESIAN_POINT('',(0.0115188177219731,0.00111756519088602,0.1825));
#881=CARTESIAN_POINT('',(0.0115188177219731,0.00111756519088602,0.1825));
#882=CARTESIAN_POINT('',(0.0115188177219731,0.00111756519088602,0.1825));
#883=CARTESIAN_POINT('',(0.0115188177219731,-0.000293925047415905,0.1825));
#884=CARTESIAN_POINT('',(0.0109104167571878,-0.00130539165137149,0.1825));
#885=CARTESIAN_POINT('',(0.0109104167571878,-0.00130539165137149,0.1825));
#886=CARTESIAN_POINT('',(0.0109104167571878,-0.00130539165137149,0.1825));
#887=CARTESIAN_POINT('',(0.0103020157924025,-0.00231685825532707,0.1825));
#888=CARTESIAN_POINT('',(0.00915061696654628,-0.00285681411157404,0.1825));
#889=CARTESIAN_POINT('',(0.00915061696654628,-0.00285681411157404,0.1825));
#890=CARTESIAN_POINT('',(0.00713922952449009,0.00143305735182768,0.1825));
#891=CARTESIAN_POINT('',(0.0090192550929174,-0.0029159862761549,0.1825));
#892=CARTESIAN_POINT('',(0.0105215228078312,-0.00566603210172737,0.1825));
#893=CARTESIAN_POINT('',(0.0120237905227449,-0.00841607792729984,0.1825));
#894=CARTESIAN_POINT('',(0.0103719819033528,-0.00841607792729984,0.1825));
#895=CARTESIAN_POINT('',(0.00872017328396067,-0.00841607792729984,0.1825));
#896=CARTESIAN_POINT('',(0.00737884736088937,-0.00590642394756042,0.1825));
#897=CARTESIAN_POINT('',(-0.0105250702346107,0.00327434661104996,0.1825));
#898=CARTESIAN_POINT('',(-0.00835764179756307,0.00327434661104996,0.1825));
#899=CARTESIAN_POINT('',(-0.0126924986716584,0.00327434661104996,0.1825));
#900=CARTESIAN_POINT('',(-0.0126924986716584,0.00450940056956414,0.1825));
#901=CARTESIAN_POINT('',(-0.0126924986716584,0.00574445452807833,0.1825));
#902=CARTESIAN_POINT('',(-0.00687770645072279,0.00574445452807833,0.1825));
#903=CARTESIAN_POINT('',(-0.00106291422978716,0.00574445452807833,0.1825));
#904=CARTESIAN_POINT('',(-0.00106291422978716,0.00450940056956414,0.1825));
#905=CARTESIAN_POINT('',(-0.00106291422978716,0.00327434661104996,0.1825));
#906=CARTESIAN_POINT('',(-0.00323034266683484,0.00327434661104996,0.1825));
#907=CARTESIAN_POINT('',(-0.00539777110388252,0.00327434661104996,0.1825));
#908=CARTESIAN_POINT('',(-0.00539777110388252,-0.00257086565812494,0.1825));
#909=CARTESIAN_POINT('',(-0.00539777110388252,-0.00841607792729984,0.1825));
#910=CARTESIAN_POINT('',(-0.00687770645072279,-0.00841607792729984,0.1825));
#911=CARTESIAN_POINT('',(-0.00835764179756307,-0.00841607792729984,0.1825));
#912=CARTESIAN_POINT('',(-0.00835764179756307,-0.00257086565812494,0.1825));
#913=CARTESIAN_POINT('',(0.,1.22464679914735E-18,0.1825));
#914=CARTESIAN_POINT('',(0.,1.22464679914735E-18,-0.1825));
#915=CARTESIAN_POINT('',(0.02,1.22464679914735E-18,-0.1825));
#916=CARTESIAN_POINT('',(0.,0.,-0.1825));
#917=CARTESIAN_POINT('',(0.00486899517686964,-0.000990544152095089,0.1575));
#918=CARTESIAN_POINT('',(0.00486899517686964,-0.000990544152095089,0.1825));
#919=CARTESIAN_POINT('',(0.00385296556567817,-0.000990544152095089,0.1825));
#920=CARTESIAN_POINT('',(0.00588502478806111,-0.000990544152095089,0.1825));
#921=CARTESIAN_POINT('',(0.00385296556567817,-0.000990544152095089,0.1575));
#922=CARTESIAN_POINT('',(0.00385296556567817,-0.000990544152095089,0.1575));
#923=CARTESIAN_POINT('',(0.00486899517686964,-0.000990544152095089,0.1575));
#924=CARTESIAN_POINT('',(0.00588502478806111,-0.000990544152095089,0.1575));
#925=CARTESIAN_POINT('',(0.00588502478806111,-0.000990544152095089,0.1575));
#926=CARTESIAN_POINT('',(0.00385296556567817,0.00115254824636118,0.1575));
#927=CARTESIAN_POINT('',(0.00385296556567817,0.00115254824636118,0.1825));
#928=CARTESIAN_POINT('',(0.00385296556567817,0.00329564064481744,0.1825));
#929=CARTESIAN_POINT('',(0.00385296556567817,0.00329564064481744,0.1575));
#930=CARTESIAN_POINT('',(0.00385296556567817,0.00329564064481744,0.1575));
#931=CARTESIAN_POINT('',(0.00385296556567817,0.00115254824636118,0.1575));
#932=CARTESIAN_POINT('',(0.00486139016480982,0.00329564064481744,0.1575));
#933=CARTESIAN_POINT('',(0.00486139016480982,0.00329564064481744,0.1825));
#934=CARTESIAN_POINT('',(0.00586981476394148,0.00329564064481744,0.1825));
#935=CARTESIAN_POINT('',(0.00586981476394148,0.00329564064481744,0.1575));
#936=CARTESIAN_POINT('',(0.00586981476394148,0.00329564064481744,0.1575));
#937=CARTESIAN_POINT('',(0.00486139016480982,0.00329564064481744,0.1575));
#938=CARTESIAN_POINT('',(0.00730412003842286,0.00304315424443154,0.1575));
#939=CARTESIAN_POINT('',(0.00730412003842286,0.00304315424443154,0.1825));
#940=CARTESIAN_POINT('',(0.00692386943543204,0.00321147851135548,0.1575));
#941=CARTESIAN_POINT('',(0.00692386943543204,0.00321147851135548,0.1825));
#942=CARTESIAN_POINT('',(0.00644576767727158,0.00329564064481744,0.1575));
#943=CARTESIAN_POINT('',(0.00644576767727158,0.00329564064481744,0.1825));
#944=CARTESIAN_POINT('',(0.00586981476394148,0.00329564064481744,0.1575));
#945=CARTESIAN_POINT('',(0.00586981476394148,0.00329564064481744,0.1825));
#946=CARTESIAN_POINT('',(0.00730412003842286,0.00304315424443154,0.1825));
#947=CARTESIAN_POINT('',(0.00673374413393663,0.00329564064481744,0.1825));
#948=CARTESIAN_POINT('',(0.00586981476394148,0.00329564064481744,0.1825));
#949=CARTESIAN_POINT('',(0.00730412003842286,0.00304315424443154,0.1825));
#950=CARTESIAN_POINT('',(0.00730412003842286,0.00304315424443154,0.1575));
#951=CARTESIAN_POINT('',(0.00730412003842286,0.00304315424443154,0.1575));
#952=CARTESIAN_POINT('',(0.00730412003842286,0.00304315424443154,0.1575));
#953=CARTESIAN_POINT('',(0.00673374413393663,0.00329564064481744,0.1575));
#954=CARTESIAN_POINT('',(0.00586981476394148,0.00329564064481744,0.1575));
#955=CARTESIAN_POINT('',(0.00815436038671033,0.00230698907704131,0.1575));
#956=CARTESIAN_POINT('',(0.00815436038671033,0.00230698907704131,0.1825));
#957=CARTESIAN_POINT('',(0.00796778409084284,0.00262944158837752,0.1575));
#958=CARTESIAN_POINT('',(0.00796778409084284,0.00262944158837752,0.1825));
#959=CARTESIAN_POINT('',(0.00768437064141368,0.0028748299775076,0.1575));
#960=CARTESIAN_POINT('',(0.00768437064141368,0.0028748299775076,0.1825));
#961=CARTESIAN_POINT('',(0.00730412003842286,0.00304315424443154,0.1575));
#962=CARTESIAN_POINT('',(0.00730412003842286,0.00304315424443154,0.1825));
#963=CARTESIAN_POINT('',(0.00815436038671033,0.00230698907704131,0.1825));
#964=CARTESIAN_POINT('',(0.00787449594290909,0.00279066784404563,0.1825));
#965=CARTESIAN_POINT('',(0.00730412003842286,0.00304315424443154,0.1825));
#966=CARTESIAN_POINT('',(0.00815436038671033,0.00230698907704131,0.1825));
#967=CARTESIAN_POINT('',(0.00815436038671033,0.00230698907704131,0.1575));
#968=CARTESIAN_POINT('',(0.00815436038671033,0.00230698907704131,0.1575));
#969=CARTESIAN_POINT('',(0.00815436038671033,0.00230698907704131,0.1575));
#970=CARTESIAN_POINT('',(0.00787449594290909,0.00279066784404563,0.1575));
#971=CARTESIAN_POINT('',(0.00730412003842286,0.00304315424443154,0.1575));
#972=CARTESIAN_POINT('',(0.00843422483051158,0.00111756519088602,0.1575));
#973=CARTESIAN_POINT('',(0.00843422483051158,0.00111756519088602,0.1825));
#974=CARTESIAN_POINT('',(0.00843422483051158,0.00158806193698666,0.1575));
#975=CARTESIAN_POINT('',(0.00843422483051158,0.00158806193698666,0.1825));
#976=CARTESIAN_POINT('',(0.00834093668257783,0.00198453656570509,0.1575));
#977=CARTESIAN_POINT('',(0.00834093668257783,0.00198453656570509,0.1825));
#978=CARTESIAN_POINT('',(0.00815436038671033,0.00230698907704131,0.1575));
#979=CARTESIAN_POINT('',(0.00815436038671033,0.00230698907704131,0.1825));
#980=CARTESIAN_POINT('',(0.00843422483051158,0.00111756519088602,0.1825));
#981=CARTESIAN_POINT('',(0.00843422483051158,0.00182331031003698,0.1825));
#982=CARTESIAN_POINT('',(0.00815436038671033,0.00230698907704131,0.1825));
#983=CARTESIAN_POINT('',(0.00843422483051158,0.00111756519088602,0.1825));
#984=CARTESIAN_POINT('',(0.00843422483051158,0.00111756519088602,0.1575));
#985=CARTESIAN_POINT('',(0.00843422483051158,0.00111756519088602,0.1575));
#986=CARTESIAN_POINT('',(0.00843422483051158,0.00111756519088602,0.1575));
#987=CARTESIAN_POINT('',(0.00843422483051158,0.00182331031003698,0.1575));
#988=CARTESIAN_POINT('',(0.00815436038671033,0.00230698907704131,0.1575));
#989=CARTESIAN_POINT('',(0.00815436038671033,-5.05646615017799E-05,0.1575));
#990=CARTESIAN_POINT('',(0.00815436038671033,-5.05646615017799E-05,0.1825));
#991=CARTESIAN_POINT('',(0.00834093668257783,0.000263775836970631,0.1575));
#992=CARTESIAN_POINT('',(0.00834093668257783,0.000263775836970631,0.1825));
#993=CARTESIAN_POINT('',(0.00843422483051158,0.000653152454433232,0.1575));
#994=CARTESIAN_POINT('',(0.00843422483051158,0.000653152454433232,0.1825));
#995=CARTESIAN_POINT('',(0.00843422483051158,0.00111756519088602,0.1575));
#996=CARTESIAN_POINT('',(0.00843422483051158,0.00111756519088602,0.1825));
#997=CARTESIAN_POINT('',(0.00815436038671033,-5.05646615017799E-05,0.1825));
#998=CARTESIAN_POINT('',(0.00843422483051158,0.000420946086206837,0.1825));
#999=CARTESIAN_POINT('',(0.00843422483051158,0.00111756519088602,0.1825));
#1000=CARTESIAN_POINT('',(0.00815436038671033,-5.05646615017799E-05,0.1825));
#1001=CARTESIAN_POINT('',(0.00815436038671033,-5.05646615017799E-05,0.1575));
#1002=CARTESIAN_POINT('',(0.00815436038671033,-5.05646615017799E-05,0.1575));
#1003=CARTESIAN_POINT('',(0.00815436038671033,-5.05646615017799E-05,0.1575));
#1004=CARTESIAN_POINT('',(0.00843422483051158,0.000420946086206837,0.1575));
#1005=CARTESIAN_POINT('',(0.00843422483051158,0.00111756519088602,0.1575));
#1006=CARTESIAN_POINT('',(0.00730868304565875,-0.000756309780652744,0.1575));
#1007=CARTESIAN_POINT('',(0.00730868304565875,-0.000756309780652744,0.1825));
#1008=CARTESIAN_POINT('',(0.00768589164382564,-0.000600153533024514,0.1575));
#1009=CARTESIAN_POINT('',(0.00768589164382564,-0.000600153533024514,0.1825));
#1010=CARTESIAN_POINT('',(0.00796778409084284,-0.000364905159974193,0.1575));
#1011=CARTESIAN_POINT('',(0.00796778409084284,-0.000364905159974193,0.1825));
#1012=CARTESIAN_POINT('',(0.00815436038671033,-5.05646615017799E-05,0.1575));
#1013=CARTESIAN_POINT('',(0.00815436038671033,-5.05646615017799E-05,0.1825));
#1014=CARTESIAN_POINT('',(0.00730868304565875,-0.000756309780652744,0.1825));
#1015=CARTESIAN_POINT('',(0.00787449594290909,-0.000522075409210399,0.1825));
#1016=CARTESIAN_POINT('',(0.00815436038671033,-5.05646615017799E-05,0.1825));
#1017=CARTESIAN_POINT('',(0.00730868304565875,-0.000756309780652744,0.1825));
#1018=CARTESIAN_POINT('',(0.00730868304565875,-0.000756309780652744,0.1575));
#1019=CARTESIAN_POINT('',(0.00730868304565875,-0.000756309780652744,0.1575));
#1020=CARTESIAN_POINT('',(0.00730868304565875,-0.000756309780652744,0.1575));
#1021=CARTESIAN_POINT('',(0.00787449594290909,-0.000522075409210399,0.1575));
#1022=CARTESIAN_POINT('',(0.00815436038671033,-5.05646615017799E-05,0.1575));
#1023=CARTESIAN_POINT('',(0.00385296556567817,-0.00590642394756042,0.1575));
#1024=CARTESIAN_POINT('',(0.00385296556567817,-0.00339676996782101,0.1575));
#1025=CARTESIAN_POINT('',(0.00385296556567817,-0.00339676996782101,0.1575));
#1026=CARTESIAN_POINT('',(0.00385296556567817,-0.00590642394756042,0.1575));
#1027=CARTESIAN_POINT('',(0.00385296556567817,-0.00841607792729984,0.1575));
#1028=CARTESIAN_POINT('',(0.00385296556567817,-0.00841607792729984,0.1575));
#1029=CARTESIAN_POINT('',(0.00494524350174812,-0.00339676996782101,0.1575));
#1030=CARTESIAN_POINT('',(0.00603752143781807,-0.00339676996782101,0.1575));
#1031=CARTESIAN_POINT('',(0.00603752143781807,-0.00339676996782101,0.1575));
#1032=CARTESIAN_POINT('',(0.00494524350174812,-0.00339676996782101,0.1575));
#1033=CARTESIAN_POINT('',(0.00737884736088937,-0.00590642394756042,0.1575));
#1034=CARTESIAN_POINT('',(0.00872017328396067,-0.00841607792729984,0.1575));
#1035=CARTESIAN_POINT('',(0.00872017328396067,-0.00841607792729984,0.1575));
#1036=CARTESIAN_POINT('',(0.00737884736088937,-0.00590642394756042,0.1575));
#1037=CARTESIAN_POINT('',(0.0103719819033528,-0.00841607792729984,0.1575));
#1038=CARTESIAN_POINT('',(0.0120237905227449,-0.00841607792729984,0.1575));
#1039=CARTESIAN_POINT('',(0.0120237905227449,-0.00841607792729984,0.1575));
#1040=CARTESIAN_POINT('',(0.0103719819033528,-0.00841607792729984,0.1575));
#1041=CARTESIAN_POINT('',(0.0105215228078312,-0.00566603210172737,0.1575));
#1042=CARTESIAN_POINT('',(0.0090192550929174,-0.0029159862761549,0.1575));
#1043=CARTESIAN_POINT('',(0.0090192550929174,-0.0029159862761549,0.1575));
#1044=CARTESIAN_POINT('',(0.0105215228078312,-0.00566603210172737,0.1575));
#1045=CARTESIAN_POINT('',(0.00713929409492736,0.00143305512210234,0.15749999999993));
#1046=CARTESIAN_POINT('',(0.00915061696654628,-0.00285681411157404,0.1575));
#1047=CARTESIAN_POINT('',(0.00915061696654628,-0.00285681411157404,0.1575));
#1048=CARTESIAN_POINT('',(0.00713922952449009,0.00143305735182768,0.157500000000025));
#1049=CARTESIAN_POINT('',(0.0109104167571878,-0.00130539165137149,0.1575));
#1050=CARTESIAN_POINT('',(0.0109104167571878,-0.00130539165137149,0.1825));
#1051=CARTESIAN_POINT('',(0.0105048161139976,-0.00197970272067521,0.1575));
#1052=CARTESIAN_POINT('',(0.0105048161139976,-0.00197970272067521,0.1825));
#1053=CARTESIAN_POINT('',(0.00991821618378376,-0.00249684354074273,0.1575));
#1054=CARTESIAN_POINT('',(0.00991821618378376,-0.00249684354074273,0.1825));
#1055=CARTESIAN_POINT('',(0.00915061696654628,-0.00285681411157404,0.1575));
#1056=CARTESIAN_POINT('',(0.00915061696654628,-0.00285681411157404,0.1825));
#1057=CARTESIAN_POINT('',(0.0109104167571878,-0.00130539165137149,0.1575));
#1058=CARTESIAN_POINT('',(0.0109104167571878,-0.00130539165137149,0.1575));
#1059=CARTESIAN_POINT('',(0.0109104167571878,-0.00130539165137149,0.1575));
#1060=CARTESIAN_POINT('',(0.0103020157924025,-0.00231685825532707,0.1575));
#1061=CARTESIAN_POINT('',(0.00915061696654628,-0.00285681411157404,0.1575));
#1062=CARTESIAN_POINT('',(0.0115188177219731,0.00111756519088602,0.1575));
#1063=CARTESIAN_POINT('',(0.0115188177219731,0.00111756519088602,0.1825));
#1064=CARTESIAN_POINT('',(0.0115188177219731,0.000176571698684737,0.1575));
#1065=CARTESIAN_POINT('',(0.0115188177219731,0.000176571698684737,0.1825));
#1066=CARTESIAN_POINT('',(0.011316017400378,-0.000631080582067766,0.1575));
#1067=CARTESIAN_POINT('',(0.011316017400378,-0.000631080582067766,0.1825));
#1068=CARTESIAN_POINT('',(0.0109104167571878,-0.00130539165137149,0.1575));
#1069=CARTESIAN_POINT('',(0.0109104167571878,-0.00130539165137149,0.1825));
#1070=CARTESIAN_POINT('',(0.0115188177219731,0.00111756519088602,0.1575));
#1071=CARTESIAN_POINT('',(0.0115188177219731,0.00111756519088602,0.1575));
#1072=CARTESIAN_POINT('',(0.0115188177219731,0.00111756519088602,0.1575));
#1073=CARTESIAN_POINT('',(0.0115188177219731,-0.000293925047415905,0.1575));
#1074=CARTESIAN_POINT('',(0.0109104167571878,-0.00130539165137149,0.1575));
#1075=CARTESIAN_POINT('',(0.0109210637740715,0.00356181606691102,0.1575));
#1076=CARTESIAN_POINT('',(0.0109210637740715,0.00356181606691102,0.1825));
#1077=CARTESIAN_POINT('',(0.0113195664060059,0.00286722496544779,0.1575));
#1078=CARTESIAN_POINT('',(0.0113195664060059,0.00286722496544779,0.1825));
#1079=CARTESIAN_POINT('',(0.0115188177219731,0.00205247467343945,0.1575));
#1080=CARTESIAN_POINT('',(0.0115188177219731,0.00205247467343945,0.1825));
#1081=CARTESIAN_POINT('',(0.0115188177219731,0.00111756519088602,0.1575));
#1082=CARTESIAN_POINT('',(0.0115188177219731,0.00111756519088602,0.1825));
#1083=CARTESIAN_POINT('',(0.0109210637740715,0.00356181606691102,0.1575));
#1084=CARTESIAN_POINT('',(0.0109210637740715,0.00356181606691102,0.1575));
#1085=CARTESIAN_POINT('',(0.0109210637740715,0.00356181606691102,0.1575));
#1086=CARTESIAN_POINT('',(0.0115188177219731,0.00251992941471617,0.1575));
#1087=CARTESIAN_POINT('',(0.0115188177219731,0.00111756519088602,0.1575));
#1088=CARTESIAN_POINT('',(0.00918560002202144,0.0051740786235921,0.1575));
#1089=CARTESIAN_POINT('',(0.00918560002202144,0.0051740786235921,0.1825));
#1090=CARTESIAN_POINT('',(0.00994407322478712,0.00479382802060128,0.1575));
#1091=CARTESIAN_POINT('',(0.00994407322478712,0.00479382802060128,0.1825));
#1092=CARTESIAN_POINT('',(0.0105225611421372,0.00425640716837425,0.1575));
#1093=CARTESIAN_POINT('',(0.0105225611421372,0.00425640716837425,0.1825));
#1094=CARTESIAN_POINT('',(0.0109210637740715,0.00356181606691102,0.1575));
#1095=CARTESIAN_POINT('',(0.0109210637740715,0.00356181606691102,0.1825));
#1096=CARTESIAN_POINT('',(0.00918560002202144,0.0051740786235921,0.1575));
#1097=CARTESIAN_POINT('',(0.00918560002202144,0.0051740786235921,0.1575));
#1098=CARTESIAN_POINT('',(0.00918560002202144,0.0051740786235921,0.1575));
#1099=CARTESIAN_POINT('',(0.01032330982617,0.00460370271910587,0.1575));
#1100=CARTESIAN_POINT('',(0.0109210637740715,0.00356181606691102,0.1575));
#1101=CARTESIAN_POINT('',(0.0064447536756636,0.00574445452807833,0.1575));
#1102=CARTESIAN_POINT('',(0.0064447536756636,0.00574445452807833,0.1825));
#1103=CARTESIAN_POINT('',(0.0075135113704698,0.00574445452807833,0.1575));
#1104=CARTESIAN_POINT('',(0.0075135113704698,0.00574445452807833,0.1825));
#1105=CARTESIAN_POINT('',(0.00842712681925575,0.00555432922658292,0.1575));
#1106=CARTESIAN_POINT('',(0.00842712681925575,0.00555432922658292,0.1825));
#1107=CARTESIAN_POINT('',(0.00918560002202144,0.0051740786235921,0.1575));
#1108=CARTESIAN_POINT('',(0.00918560002202144,0.0051740786235921,0.1825));
#1109=CARTESIAN_POINT('',(0.0064447536756636,0.00574445452807833,0.1575));
#1110=CARTESIAN_POINT('',(0.0064447536756636,0.00574445452807833,0.1575));
#1111=CARTESIAN_POINT('',(0.0064447536756636,0.00574445452807833,0.1575));
#1112=CARTESIAN_POINT('',(0.0080478902178729,0.00574445452807833,0.1575));
#1113=CARTESIAN_POINT('',(0.00918560002202144,0.0051740786235921,0.1575));
#1114=CARTESIAN_POINT('',(0.00365219324729902,0.00574445452807833,0.1575));
#1115=CARTESIAN_POINT('',(0.000859632818934426,0.00574445452807833,0.1575));
#1116=CARTESIAN_POINT('',(0.000859632818934426,0.00574445452807833,0.1575));
#1117=CARTESIAN_POINT('',(0.00365219324729902,0.00574445452807833,0.1575));
#1118=CARTESIAN_POINT('',(0.000859632818934426,-0.00133581169961075,0.1575));
#1119=CARTESIAN_POINT('',(0.000859632818934426,-0.00841607792729984,0.1575));
#1120=CARTESIAN_POINT('',(0.000859632818934426,-0.00841607792729984,0.1575));
#1121=CARTESIAN_POINT('',(0.000859632818934426,-0.00133581169961075,0.1575));
#1122=CARTESIAN_POINT('',(0.0023562991923063,-0.00841607792729984,0.1575));
#1123=CARTESIAN_POINT('',(0.0023562991923063,-0.00841607792729984,0.1575));
#1124=CARTESIAN_POINT('',(0.00588502478806111,-0.000990544152095089,0.1575));
#1125=CARTESIAN_POINT('',(0.00588502478806111,-0.000990544152095089,0.1825));
#1126=CARTESIAN_POINT('',(0.00645692169495931,-0.000990544152095089,0.1575));
#1127=CARTESIAN_POINT('',(0.00645692169495931,-0.000990544152095089,0.1825));
#1128=CARTESIAN_POINT('',(0.00693147444749186,-0.000912466028280974,0.1575));
#1129=CARTESIAN_POINT('',(0.00693147444749186,-0.000912466028280974,0.1825));
#1130=CARTESIAN_POINT('',(0.00730868304565875,-0.000756309780652744,0.1575));
#1131=CARTESIAN_POINT('',(0.00730868304565875,-0.000756309780652744,0.1825));
#1132=CARTESIAN_POINT('',(0.00588502478806111,-0.000990544152095089,0.1825));
#1133=CARTESIAN_POINT('',(0.00674287014840841,-0.000990544152095089,0.1825));
#1134=CARTESIAN_POINT('',(0.00730868304565875,-0.000756309780652744,0.1825));
#1135=CARTESIAN_POINT('',(0.00588502478806111,-0.000990544152095089,0.1575));
#1136=CARTESIAN_POINT('',(0.00674287014840841,-0.000990544152095089,0.1575));
#1137=CARTESIAN_POINT('',(0.00730868304565875,-0.000756309780652744,0.1575));
#1138=CARTESIAN_POINT('',(0.,0.,0.1575));
#1139=CARTESIAN_POINT('',(-0.0126924986716584,0.00450940056956414,0.1575));
#1140=CARTESIAN_POINT('',(-0.0126924986716584,0.00327434661104996,0.1575));
#1141=CARTESIAN_POINT('',(-0.0126924986716584,0.00327434661104996,0.1575));
#1142=CARTESIAN_POINT('',(-0.0126924986716584,0.00450940056956414,0.1575));
#1143=CARTESIAN_POINT('',(-0.0126924986716584,0.00574445452807833,0.1575));
#1144=CARTESIAN_POINT('',(-0.0126924986716584,0.00574445452807833,0.1575));
#1145=CARTESIAN_POINT('',(-0.0105250702346107,0.00327434661104996,0.1575));
#1146=CARTESIAN_POINT('',(-0.00835764179756307,0.00327434661104996,0.1575));
#1147=CARTESIAN_POINT('',(-0.00835764179756307,0.00327434661104996,0.1575));
#1148=CARTESIAN_POINT('',(-0.0105250702346107,0.00327434661104996,0.1575));
#1149=CARTESIAN_POINT('',(-0.00835764179756307,-0.00257086565812494,0.1575));
#1150=CARTESIAN_POINT('',(-0.00835764179756307,-0.00841607792729984,0.1575));
#1151=CARTESIAN_POINT('',(-0.00835764179756307,-0.00841607792729984,0.1575));
#1152=CARTESIAN_POINT('',(-0.00835764179756307,-0.00257086565812494,0.1575));
#1153=CARTESIAN_POINT('',(-0.00687770645072279,-0.00841607792729984,0.1575));
#1154=CARTESIAN_POINT('',(-0.00539777110388252,-0.00841607792729984,0.1575));
#1155=CARTESIAN_POINT('',(-0.00539777110388252,-0.00841607792729984,0.1575));
#1156=CARTESIAN_POINT('',(-0.00687770645072279,-0.00841607792729984,0.1575));
#1157=CARTESIAN_POINT('',(-0.00539777110388252,-0.00257086565812494,0.1575));
#1158=CARTESIAN_POINT('',(-0.00539777110388252,0.00327434661104996,0.1575));
#1159=CARTESIAN_POINT('',(-0.00539777110388252,0.00327434661104996,0.1575));
#1160=CARTESIAN_POINT('',(-0.00539777110388252,-0.00257086565812494,0.1575));
#1161=CARTESIAN_POINT('',(-0.00323034266683484,0.00327434661104996,0.1575));
#1162=CARTESIAN_POINT('',(-0.00106291422978716,0.00327434661104996,0.1575));
#1163=CARTESIAN_POINT('',(-0.00106291422978716,0.00327434661104996,0.1575));
#1164=CARTESIAN_POINT('',(-0.00323034266683484,0.00327434661104996,0.1575));
#1165=CARTESIAN_POINT('',(-0.00106291422978716,0.00450940056956414,0.1575));
#1166=CARTESIAN_POINT('',(-0.00106291422978716,0.00574445452807833,0.1575));
#1167=CARTESIAN_POINT('',(-0.00106291422978716,0.00574445452807833,0.1575));
#1168=CARTESIAN_POINT('',(-0.00106291422978716,0.00450940056956414,0.1575));
#1169=CARTESIAN_POINT('',(-0.00687770645072279,0.00574445452807833,0.1575));
#1170=CARTESIAN_POINT('',(-0.00687770645072279,0.00574445452807833,0.1575));
#1171=CARTESIAN_POINT('',(0.,0.,0.1575));
#1172=CARTESIAN_POINT('',(0.,0.,0.1825));
#1173=MECHANICAL_DESIGN_GEOMETRIC_PRESENTATION_REPRESENTATION('',(#682),#1174);
#1174=(
GEOMETRIC_REPRESENTATION_CONTEXT(3)
GLOBAL_UNCERTAINTY_ASSIGNED_CONTEXT((#1175))
GLOBAL_UNIT_ASSIGNED_CONTEXT((#1178,#1177,#1176))
REPRESENTATION_CONTEXT('tr','TOP_LEVEL_ASSEMBLY_PART')
);
#1175=UNCERTAINTY_MEASURE_WITH_UNIT(LENGTH_MEASURE(2.E-05),#1178,'DISTANCE_ACCURACY_VALUE','Maximum Tolerance applied to model');
#1176=(
NAMED_UNIT(*)
SI_UNIT($,.STERADIAN.)
SOLID_ANGLE_UNIT()
);
#1177=(
NAMED_UNIT(*)
PLANE_ANGLE_UNIT()
SI_UNIT($,.RADIAN.)
);
#1178=(
LENGTH_UNIT()
NAMED_UNIT(*)
SI_UNIT($,.METRE.)
);
#1179=PRODUCT_DEFINITION_SHAPE('','',#1180);
#1180=PRODUCT_DEFINITION('','',#1182,#1181);
#1181=PRODUCT_DEFINITION_CONTEXT('',#1188,'design');
#1182=PRODUCT_DEFINITION_FORMATION_WITH_SPECIFIED_SOURCE('','',#1184,.NOT_KNOWN.);
#1183=PRODUCT_RELATED_PRODUCT_CATEGORY('','',(#1184));
#1184=PRODUCT('tr','tr','tr',(#1186));
#1185=PRODUCT_CATEGORY('','');
#1186=PRODUCT_CONTEXT('',#1188,'mechanical');
#1187=APPLICATION_PROTOCOL_DEFINITION('international standard','ap242_managed_model_based_3d_engineering',2020,#1188);
#1188=APPLICATION_CONTEXT('managed model based 3d engineering');
ENDSEC;
END-ISO-10303-21;
