ISO-10303-21;
HEADER;
/*Generated by software containing ST-Developer
 * from STEP Tools, Inc. (www.steptools.com) 
 */
/*OPTION: using custom renumber hook */
/*description */
/*implementation_level */
FILE_DESCRIPTION(('STEP AP242 Edition 2','STEP AP242 Edition 2''CAx-IF Rec.Pracs.---Representation and Presentation of Product Manufa
cturing Information (PMI)---4.0---2014-10-13','STEP AP242 Edition 2''CAx-IF Rec.Pracs.---Representation and Presentation of Product Manufa
cturing Information (PMI)---4.0---2014-10-13''CAx-IF Rec.Pracs.---3D Tessellated Geometry---0.4---2014-09-14','STEP AP242 Edition 2''CAx-IF Rec.Pracs.---Representation and Presentation of Product Manufa
cturing Information (PMI)---4.0---2014-10-13''CAx-IF Rec.Pracs.---3D Tessellated Geometry---0.4---2014-09-14''2;1','STEP AP242 Edition 2''CAx-IF Rec.Pracs.---Representation and Presentation of Product Manufa
cturing Information (PMI)---4.0---2014-10-13''CAx-IF Rec.Pracs.---3D Tessellated Geometry---0.4---2014-09-14''2;1''CAx-IF Rec.Pracs.---User Defined Attributes---1.5---2016-08-15'),'2;1');
/*name */
/*time_stamp */
/*author */
/*organization */
/*preprocessor_version */
/*originating_system */
/*authorisation */
FILE_NAME('/vol/tmp/translate-2561346320852424285/1000.step','2026-03-04T07:11:10',(''),(''),'ST-DEVELOPER v20','ONSHAPE BY PTC INC, 1.211','  ');
FILE_SCHEMA(('AP242_MANAGED_MODEL_BASED_3D_ENGINEERING_MIM_LF { 1 0 10303 442 3 1 4 }'));
ENDSEC;
DATA;
#10=SHAPE_REPRESENTATION_RELATIONSHIP('','',#471,#11);
#11=ADVANCED_BREP_SHAPE_REPRESENTATION('',(#469),#739);
#12=CYLINDRICAL_SURFACE('',#495,0.005);
#13=CIRCLE('',#474,0.005);
#14=CIRCLE('',#496,0.005);
#15=ORIENTED_EDGE('',*,*,#139,.F.);
#16=ORIENTED_EDGE('',*,*,#140,.F.);
#17=ORIENTED_EDGE('',*,*,#141,.F.);
#18=ORIENTED_EDGE('',*,*,#142,.F.);
#19=ORIENTED_EDGE('',*,*,#143,.F.);
#20=ORIENTED_EDGE('',*,*,#144,.F.);
#21=ORIENTED_EDGE('',*,*,#145,.F.);
#22=ORIENTED_EDGE('',*,*,#146,.F.);
#23=ORIENTED_EDGE('',*,*,#147,.F.);
#24=ORIENTED_EDGE('',*,*,#148,.F.);
#25=ORIENTED_EDGE('',*,*,#149,.F.);
#26=ORIENTED_EDGE('',*,*,#150,.F.);
#27=ORIENTED_EDGE('',*,*,#151,.F.);
#28=ORIENTED_EDGE('',*,*,#152,.F.);
#29=ORIENTED_EDGE('',*,*,#153,.F.);
#30=ORIENTED_EDGE('',*,*,#154,.F.);
#31=ORIENTED_EDGE('',*,*,#155,.F.);
#32=ORIENTED_EDGE('',*,*,#156,.F.);
#33=ORIENTED_EDGE('',*,*,#157,.F.);
#34=ORIENTED_EDGE('',*,*,#158,.F.);
#35=ORIENTED_EDGE('',*,*,#159,.T.);
#36=ORIENTED_EDGE('',*,*,#160,.T.);
#37=ORIENTED_EDGE('',*,*,#161,.T.);
#38=ORIENTED_EDGE('',*,*,#162,.F.);
#39=ORIENTED_EDGE('',*,*,#139,.T.);
#40=ORIENTED_EDGE('',*,*,#163,.T.);
#41=ORIENTED_EDGE('',*,*,#164,.T.);
#42=ORIENTED_EDGE('',*,*,#160,.F.);
#43=ORIENTED_EDGE('',*,*,#158,.T.);
#44=ORIENTED_EDGE('',*,*,#165,.T.);
#45=ORIENTED_EDGE('',*,*,#166,.T.);
#46=ORIENTED_EDGE('',*,*,#163,.F.);
#47=ORIENTED_EDGE('',*,*,#157,.T.);
#48=ORIENTED_EDGE('',*,*,#167,.T.);
#49=ORIENTED_EDGE('',*,*,#168,.T.);
#50=ORIENTED_EDGE('',*,*,#165,.F.);
#51=ORIENTED_EDGE('',*,*,#156,.T.);
#52=ORIENTED_EDGE('',*,*,#169,.T.);
#53=ORIENTED_EDGE('',*,*,#170,.T.);
#54=ORIENTED_EDGE('',*,*,#167,.F.);
#55=ORIENTED_EDGE('',*,*,#155,.T.);
#56=ORIENTED_EDGE('',*,*,#171,.T.);
#57=ORIENTED_EDGE('',*,*,#172,.T.);
#58=ORIENTED_EDGE('',*,*,#169,.F.);
#59=ORIENTED_EDGE('',*,*,#154,.T.);
#60=ORIENTED_EDGE('',*,*,#173,.T.);
#61=ORIENTED_EDGE('',*,*,#174,.T.);
#62=ORIENTED_EDGE('',*,*,#171,.F.);
#63=ORIENTED_EDGE('',*,*,#153,.T.);
#64=ORIENTED_EDGE('',*,*,#175,.T.);
#65=ORIENTED_EDGE('',*,*,#176,.T.);
#66=ORIENTED_EDGE('',*,*,#173,.F.);
#67=ORIENTED_EDGE('',*,*,#152,.T.);
#68=ORIENTED_EDGE('',*,*,#177,.T.);
#69=ORIENTED_EDGE('',*,*,#178,.T.);
#70=ORIENTED_EDGE('',*,*,#175,.F.);
#71=ORIENTED_EDGE('',*,*,#151,.T.);
#72=ORIENTED_EDGE('',*,*,#179,.T.);
#73=ORIENTED_EDGE('',*,*,#180,.T.);
#74=ORIENTED_EDGE('',*,*,#177,.F.);
#75=ORIENTED_EDGE('',*,*,#150,.T.);
#76=ORIENTED_EDGE('',*,*,#181,.T.);
#77=ORIENTED_EDGE('',*,*,#182,.T.);
#78=ORIENTED_EDGE('',*,*,#179,.F.);
#79=ORIENTED_EDGE('',*,*,#149,.T.);
#80=ORIENTED_EDGE('',*,*,#183,.T.);
#81=ORIENTED_EDGE('',*,*,#184,.T.);
#82=ORIENTED_EDGE('',*,*,#181,.F.);
#83=ORIENTED_EDGE('',*,*,#148,.T.);
#84=ORIENTED_EDGE('',*,*,#185,.T.);
#85=ORIENTED_EDGE('',*,*,#186,.T.);
#86=ORIENTED_EDGE('',*,*,#183,.F.);
#87=ORIENTED_EDGE('',*,*,#147,.T.);
#88=ORIENTED_EDGE('',*,*,#187,.T.);
#89=ORIENTED_EDGE('',*,*,#188,.T.);
#90=ORIENTED_EDGE('',*,*,#185,.F.);
#91=ORIENTED_EDGE('',*,*,#146,.T.);
#92=ORIENTED_EDGE('',*,*,#189,.T.);
#93=ORIENTED_EDGE('',*,*,#190,.T.);
#94=ORIENTED_EDGE('',*,*,#187,.F.);
#95=ORIENTED_EDGE('',*,*,#145,.T.);
#96=ORIENTED_EDGE('',*,*,#191,.T.);
#97=ORIENTED_EDGE('',*,*,#192,.T.);
#98=ORIENTED_EDGE('',*,*,#189,.F.);
#99=ORIENTED_EDGE('',*,*,#144,.T.);
#100=ORIENTED_EDGE('',*,*,#193,.T.);
#101=ORIENTED_EDGE('',*,*,#194,.T.);
#102=ORIENTED_EDGE('',*,*,#191,.F.);
#103=ORIENTED_EDGE('',*,*,#143,.T.);
#104=ORIENTED_EDGE('',*,*,#195,.T.);
#105=ORIENTED_EDGE('',*,*,#196,.T.);
#106=ORIENTED_EDGE('',*,*,#193,.F.);
#107=ORIENTED_EDGE('',*,*,#142,.T.);
#108=ORIENTED_EDGE('',*,*,#197,.T.);
#109=ORIENTED_EDGE('',*,*,#198,.T.);
#110=ORIENTED_EDGE('',*,*,#195,.F.);
#111=ORIENTED_EDGE('',*,*,#141,.T.);
#112=ORIENTED_EDGE('',*,*,#162,.T.);
#113=ORIENTED_EDGE('',*,*,#199,.T.);
#114=ORIENTED_EDGE('',*,*,#197,.F.);
#115=ORIENTED_EDGE('',*,*,#140,.T.);
#116=ORIENTED_EDGE('',*,*,#200,.F.);
#117=ORIENTED_EDGE('',*,*,#159,.F.);
#118=ORIENTED_EDGE('',*,*,#161,.F.);
#119=ORIENTED_EDGE('',*,*,#164,.F.);
#120=ORIENTED_EDGE('',*,*,#166,.F.);
#121=ORIENTED_EDGE('',*,*,#168,.F.);
#122=ORIENTED_EDGE('',*,*,#170,.F.);
#123=ORIENTED_EDGE('',*,*,#172,.F.);
#124=ORIENTED_EDGE('',*,*,#174,.F.);
#125=ORIENTED_EDGE('',*,*,#176,.F.);
#126=ORIENTED_EDGE('',*,*,#178,.F.);
#127=ORIENTED_EDGE('',*,*,#180,.F.);
#128=ORIENTED_EDGE('',*,*,#182,.F.);
#129=ORIENTED_EDGE('',*,*,#184,.F.);
#130=ORIENTED_EDGE('',*,*,#186,.F.);
#131=ORIENTED_EDGE('',*,*,#188,.F.);
#132=ORIENTED_EDGE('',*,*,#190,.F.);
#133=ORIENTED_EDGE('',*,*,#192,.F.);
#134=ORIENTED_EDGE('',*,*,#194,.F.);
#135=ORIENTED_EDGE('',*,*,#196,.F.);
#136=ORIENTED_EDGE('',*,*,#198,.F.);
#137=ORIENTED_EDGE('',*,*,#199,.F.);
#138=ORIENTED_EDGE('',*,*,#200,.T.);
#139=EDGE_CURVE('',#201,#202,#243,.T.);
#140=EDGE_CURVE('',#203,#201,#244,.T.);
#141=EDGE_CURVE('',#204,#203,#245,.T.);
#142=EDGE_CURVE('',#205,#204,#246,.T.);
#143=EDGE_CURVE('',#206,#205,#247,.T.);
#144=EDGE_CURVE('',#207,#206,#248,.T.);
#145=EDGE_CURVE('',#208,#207,#249,.T.);
#146=EDGE_CURVE('',#209,#208,#250,.T.);
#147=EDGE_CURVE('',#210,#209,#251,.T.);
#148=EDGE_CURVE('',#211,#210,#252,.T.);
#149=EDGE_CURVE('',#212,#211,#253,.T.);
#150=EDGE_CURVE('',#213,#212,#254,.T.);
#151=EDGE_CURVE('',#214,#213,#255,.T.);
#152=EDGE_CURVE('',#215,#214,#256,.T.);
#153=EDGE_CURVE('',#216,#215,#257,.T.);
#154=EDGE_CURVE('',#217,#216,#258,.T.);
#155=EDGE_CURVE('',#218,#217,#259,.T.);
#156=EDGE_CURVE('',#219,#218,#260,.T.);
#157=EDGE_CURVE('',#220,#219,#261,.T.);
#158=EDGE_CURVE('',#202,#220,#262,.T.);
#159=EDGE_CURVE('',#221,#221,#13,.T.);
#160=EDGE_CURVE('',#202,#222,#263,.T.);
#161=EDGE_CURVE('',#222,#223,#264,.T.);
#162=EDGE_CURVE('',#201,#223,#265,.T.);
#163=EDGE_CURVE('',#220,#224,#266,.T.);
#164=EDGE_CURVE('',#224,#222,#267,.T.);
#165=EDGE_CURVE('',#219,#225,#268,.T.);
#166=EDGE_CURVE('',#225,#224,#269,.T.);
#167=EDGE_CURVE('',#218,#226,#270,.T.);
#168=EDGE_CURVE('',#226,#225,#271,.T.);
#169=EDGE_CURVE('',#217,#227,#272,.T.);
#170=EDGE_CURVE('',#227,#226,#273,.T.);
#171=EDGE_CURVE('',#216,#228,#274,.T.);
#172=EDGE_CURVE('',#228,#227,#275,.T.);
#173=EDGE_CURVE('',#215,#229,#276,.T.);
#174=EDGE_CURVE('',#229,#228,#277,.T.);
#175=EDGE_CURVE('',#214,#230,#278,.T.);
#176=EDGE_CURVE('',#230,#229,#279,.T.);
#177=EDGE_CURVE('',#213,#231,#280,.T.);
#178=EDGE_CURVE('',#231,#230,#281,.T.);
#179=EDGE_CURVE('',#212,#232,#282,.T.);
#180=EDGE_CURVE('',#232,#231,#283,.T.);
#181=EDGE_CURVE('',#211,#233,#284,.T.);
#182=EDGE_CURVE('',#233,#232,#285,.T.);
#183=EDGE_CURVE('',#210,#234,#286,.T.);
#184=EDGE_CURVE('',#234,#233,#287,.T.);
#185=EDGE_CURVE('',#209,#235,#288,.T.);
#186=EDGE_CURVE('',#235,#234,#289,.T.);
#187=EDGE_CURVE('',#208,#236,#290,.T.);
#188=EDGE_CURVE('',#236,#235,#291,.T.);
#189=EDGE_CURVE('',#207,#237,#292,.T.);
#190=EDGE_CURVE('',#237,#236,#293,.T.);
#191=EDGE_CURVE('',#206,#238,#294,.T.);
#192=EDGE_CURVE('',#238,#237,#295,.T.);
#193=EDGE_CURVE('',#205,#239,#296,.T.);
#194=EDGE_CURVE('',#239,#238,#297,.T.);
#195=EDGE_CURVE('',#204,#240,#298,.T.);
#196=EDGE_CURVE('',#240,#239,#299,.T.);
#197=EDGE_CURVE('',#203,#241,#300,.T.);
#198=EDGE_CURVE('',#241,#240,#301,.T.);
#199=EDGE_CURVE('',#223,#241,#302,.T.);
#200=EDGE_CURVE('',#242,#242,#14,.F.);
#201=VERTEX_POINT('',#613);
#202=VERTEX_POINT('',#614);
#203=VERTEX_POINT('',#616);
#204=VERTEX_POINT('',#618);
#205=VERTEX_POINT('',#620);
#206=VERTEX_POINT('',#622);
#207=VERTEX_POINT('',#624);
#208=VERTEX_POINT('',#626);
#209=VERTEX_POINT('',#628);
#210=VERTEX_POINT('',#630);
#211=VERTEX_POINT('',#632);
#212=VERTEX_POINT('',#634);
#213=VERTEX_POINT('',#636);
#214=VERTEX_POINT('',#638);
#215=VERTEX_POINT('',#640);
#216=VERTEX_POINT('',#642);
#217=VERTEX_POINT('',#644);
#218=VERTEX_POINT('',#646);
#219=VERTEX_POINT('',#648);
#220=VERTEX_POINT('',#650);
#221=VERTEX_POINT('',#653);
#222=VERTEX_POINT('',#656);
#223=VERTEX_POINT('',#658);
#224=VERTEX_POINT('',#662);
#225=VERTEX_POINT('',#666);
#226=VERTEX_POINT('',#670);
#227=VERTEX_POINT('',#674);
#228=VERTEX_POINT('',#678);
#229=VERTEX_POINT('',#682);
#230=VERTEX_POINT('',#686);
#231=VERTEX_POINT('',#690);
#232=VERTEX_POINT('',#694);
#233=VERTEX_POINT('',#698);
#234=VERTEX_POINT('',#702);
#235=VERTEX_POINT('',#706);
#236=VERTEX_POINT('',#710);
#237=VERTEX_POINT('',#714);
#238=VERTEX_POINT('',#718);
#239=VERTEX_POINT('',#722);
#240=VERTEX_POINT('',#726);
#241=VERTEX_POINT('',#730);
#242=VERTEX_POINT('',#736);
#243=LINE('',#612,#303);
#244=LINE('',#615,#304);
#245=LINE('',#617,#305);
#246=LINE('',#619,#306);
#247=LINE('',#621,#307);
#248=LINE('',#623,#308);
#249=LINE('',#625,#309);
#250=LINE('',#627,#310);
#251=LINE('',#629,#311);
#252=LINE('',#631,#312);
#253=LINE('',#633,#313);
#254=LINE('',#635,#314);
#255=LINE('',#637,#315);
#256=LINE('',#639,#316);
#257=LINE('',#641,#317);
#258=LINE('',#643,#318);
#259=LINE('',#645,#319);
#260=LINE('',#647,#320);
#261=LINE('',#649,#321);
#262=LINE('',#651,#322);
#263=LINE('',#655,#323);
#264=LINE('',#657,#324);
#265=LINE('',#659,#325);
#266=LINE('',#661,#326);
#267=LINE('',#663,#327);
#268=LINE('',#665,#328);
#269=LINE('',#667,#329);
#270=LINE('',#669,#330);
#271=LINE('',#671,#331);
#272=LINE('',#673,#332);
#273=LINE('',#675,#333);
#274=LINE('',#677,#334);
#275=LINE('',#679,#335);
#276=LINE('',#681,#336);
#277=LINE('',#683,#337);
#278=LINE('',#685,#338);
#279=LINE('',#687,#339);
#280=LINE('',#689,#340);
#281=LINE('',#691,#341);
#282=LINE('',#693,#342);
#283=LINE('',#695,#343);
#284=LINE('',#697,#344);
#285=LINE('',#699,#345);
#286=LINE('',#701,#346);
#287=LINE('',#703,#347);
#288=LINE('',#705,#348);
#289=LINE('',#707,#349);
#290=LINE('',#709,#350);
#291=LINE('',#711,#351);
#292=LINE('',#713,#352);
#293=LINE('',#715,#353);
#294=LINE('',#717,#354);
#295=LINE('',#719,#355);
#296=LINE('',#721,#356);
#297=LINE('',#723,#357);
#298=LINE('',#725,#358);
#299=LINE('',#727,#359);
#300=LINE('',#729,#360);
#301=LINE('',#731,#361);
#302=LINE('',#733,#362);
#303=VECTOR('',#502,1.);
#304=VECTOR('',#503,1.);
#305=VECTOR('',#504,1.);
#306=VECTOR('',#505,1.);
#307=VECTOR('',#506,1.);
#308=VECTOR('',#507,1.);
#309=VECTOR('',#508,1.);
#310=VECTOR('',#509,1.);
#311=VECTOR('',#510,1.);
#312=VECTOR('',#511,1.);
#313=VECTOR('',#512,1.);
#314=VECTOR('',#513,1.);
#315=VECTOR('',#514,1.);
#316=VECTOR('',#515,1.);
#317=VECTOR('',#516,1.);
#318=VECTOR('',#517,1.);
#319=VECTOR('',#518,1.);
#320=VECTOR('',#519,1.);
#321=VECTOR('',#520,1.);
#322=VECTOR('',#521,1.);
#323=VECTOR('',#526,1.);
#324=VECTOR('',#527,1.);
#325=VECTOR('',#528,1.);
#326=VECTOR('',#531,1.);
#327=VECTOR('',#532,1.);
#328=VECTOR('',#535,1.);
#329=VECTOR('',#536,1.);
#330=VECTOR('',#539,1.);
#331=VECTOR('',#540,1.);
#332=VECTOR('',#543,1.);
#333=VECTOR('',#544,1.);
#334=VECTOR('',#547,1.);
#335=VECTOR('',#548,1.);
#336=VECTOR('',#551,1.);
#337=VECTOR('',#552,1.);
#338=VECTOR('',#555,1.);
#339=VECTOR('',#556,1.);
#340=VECTOR('',#559,1.);
#341=VECTOR('',#560,1.);
#342=VECTOR('',#563,1.);
#343=VECTOR('',#564,1.);
#344=VECTOR('',#567,1.);
#345=VECTOR('',#568,1.);
#346=VECTOR('',#571,1.);
#347=VECTOR('',#572,1.);
#348=VECTOR('',#575,1.);
#349=VECTOR('',#576,1.);
#350=VECTOR('',#579,1.);
#351=VECTOR('',#580,1.);
#352=VECTOR('',#583,1.);
#353=VECTOR('',#584,1.);
#354=VECTOR('',#587,1.);
#355=VECTOR('',#588,1.);
#356=VECTOR('',#591,1.);
#357=VECTOR('',#592,1.);
#358=VECTOR('',#595,1.);
#359=VECTOR('',#596,1.);
#360=VECTOR('',#599,1.);
#361=VECTOR('',#600,1.);
#362=VECTOR('',#603,1.);
#363=EDGE_LOOP('',(#15,#16,#17,#18,#19,#20,#21,#22,#23,#24,#25,#26,#27,#28,#29,#30,#31,#32,#33,#34));
#364=EDGE_LOOP('',(#35));
#365=EDGE_LOOP('',(#36,#37,#38,#39));
#366=EDGE_LOOP('',(#40,#41,#42,#43));
#367=EDGE_LOOP('',(#44,#45,#46,#47));
#368=EDGE_LOOP('',(#48,#49,#50,#51));
#369=EDGE_LOOP('',(#52,#53,#54,#55));
#370=EDGE_LOOP('',(#56,#57,#58,#59));
#371=EDGE_LOOP('',(#60,#61,#62,#63));
#372=EDGE_LOOP('',(#64,#65,#66,#67));
#373=EDGE_LOOP('',(#68,#69,#70,#71));
#374=EDGE_LOOP('',(#72,#73,#74,#75));
#375=EDGE_LOOP('',(#76,#77,#78,#79));
#376=EDGE_LOOP('',(#80,#81,#82,#83));
#377=EDGE_LOOP('',(#84,#85,#86,#87));
#378=EDGE_LOOP('',(#88,#89,#90,#91));
#379=EDGE_LOOP('',(#92,#93,#94,#95));
#380=EDGE_LOOP('',(#96,#97,#98,#99));
#381=EDGE_LOOP('',(#100,#101,#102,#103));
#382=EDGE_LOOP('',(#104,#105,#106,#107));
#383=EDGE_LOOP('',(#108,#109,#110,#111));
#384=EDGE_LOOP('',(#112,#113,#114,#115));
#385=EDGE_LOOP('',(#116));
#386=EDGE_LOOP('',(#117));
#387=EDGE_LOOP('',(#118,#119,#120,#121,#122,#123,#124,#125,#126,#127,#128,#129,#130,#131,#132,#133,#134,#135,#136,#137));
#388=EDGE_LOOP('',(#138));
#389=FACE_BOUND('',#363,.T.);
#390=FACE_BOUND('',#364,.T.);
#391=FACE_BOUND('',#365,.T.);
#392=FACE_BOUND('',#366,.T.);
#393=FACE_BOUND('',#367,.T.);
#394=FACE_BOUND('',#368,.T.);
#395=FACE_BOUND('',#369,.T.);
#396=FACE_BOUND('',#370,.T.);
#397=FACE_BOUND('',#371,.T.);
#398=FACE_BOUND('',#372,.T.);
#399=FACE_BOUND('',#373,.T.);
#400=FACE_BOUND('',#374,.T.);
#401=FACE_BOUND('',#375,.T.);
#402=FACE_BOUND('',#376,.T.);
#403=FACE_BOUND('',#377,.T.);
#404=FACE_BOUND('',#378,.T.);
#405=FACE_BOUND('',#379,.T.);
#406=FACE_BOUND('',#380,.T.);
#407=FACE_BOUND('',#381,.T.);
#408=FACE_BOUND('',#382,.T.);
#409=FACE_BOUND('',#383,.T.);
#410=FACE_BOUND('',#384,.T.);
#411=FACE_BOUND('',#385,.T.);
#412=FACE_BOUND('',#386,.T.);
#413=FACE_BOUND('',#387,.T.);
#414=FACE_BOUND('',#388,.T.);
#415=PLANE('',#473);
#416=PLANE('',#475);
#417=PLANE('',#476);
#418=PLANE('',#477);
#419=PLANE('',#478);
#420=PLANE('',#479);
#421=PLANE('',#480);
#422=PLANE('',#481);
#423=PLANE('',#482);
#424=PLANE('',#483);
#425=PLANE('',#484);
#426=PLANE('',#485);
#427=PLANE('',#486);
#428=PLANE('',#487);
#429=PLANE('',#488);
#430=PLANE('',#489);
#431=PLANE('',#490);
#432=PLANE('',#491);
#433=PLANE('',#492);
#434=PLANE('',#493);
#435=PLANE('',#494);
#436=PLANE('',#497);
#437=ADVANCED_FACE('',(#389,#390),#415,.F.);
#438=ADVANCED_FACE('',(#391),#416,.T.);
#439=ADVANCED_FACE('',(#392),#417,.T.);
#440=ADVANCED_FACE('',(#393),#418,.T.);
#441=ADVANCED_FACE('',(#394),#419,.T.);
#442=ADVANCED_FACE('',(#395),#420,.T.);
#443=ADVANCED_FACE('',(#396),#421,.T.);
#444=ADVANCED_FACE('',(#397),#422,.T.);
#445=ADVANCED_FACE('',(#398),#423,.T.);
#446=ADVANCED_FACE('',(#399),#424,.T.);
#447=ADVANCED_FACE('',(#400),#425,.T.);
#448=ADVANCED_FACE('',(#401),#426,.T.);
#449=ADVANCED_FACE('',(#402),#427,.T.);
#450=ADVANCED_FACE('',(#403),#428,.T.);
#451=ADVANCED_FACE('',(#404),#429,.T.);
#452=ADVANCED_FACE('',(#405),#430,.T.);
#453=ADVANCED_FACE('',(#406),#431,.T.);
#454=ADVANCED_FACE('',(#407),#432,.T.);
#455=ADVANCED_FACE('',(#408),#433,.T.);
#456=ADVANCED_FACE('',(#409),#434,.T.);
#457=ADVANCED_FACE('',(#410),#435,.T.);
#458=ADVANCED_FACE('',(#411,#412),#12,.F.);
#459=ADVANCED_FACE('',(#413,#414),#436,.T.);
#460=CLOSED_SHELL('',(#437,#438,#439,#440,#441,#442,#443,#444,#445,#446,#447,#448,#449,#450,#451,#452,#453,#454,#455,#456,#457,#458,#459));
#461=STYLED_ITEM('',(#462),#469);
#462=PRESENTATION_STYLE_ASSIGNMENT((#463));
#463=SURFACE_STYLE_USAGE(.BOTH.,#464);
#464=SURFACE_SIDE_STYLE('',(#465));
#465=SURFACE_STYLE_FILL_AREA(#466);
#466=FILL_AREA_STYLE('',(#467));
#467=FILL_AREA_STYLE_COLOUR('',#468);
#468=COLOUR_RGB('',0.768627450980392,0.886274509803922,0.952941176470588);
#469=MANIFOLD_SOLID_BREP('alu_1000',#460);
#470=SHAPE_DEFINITION_REPRESENTATION(#744,#471);
#471=SHAPE_REPRESENTATION('alu_1000',(#472),#739);
#472=AXIS2_PLACEMENT_3D('',#610,#498,#499);
#473=AXIS2_PLACEMENT_3D('',#611,#500,#501);
#474=AXIS2_PLACEMENT_3D('',#652,#522,#523);
#475=AXIS2_PLACEMENT_3D('',#654,#524,#525);
#476=AXIS2_PLACEMENT_3D('',#660,#529,#530);
#477=AXIS2_PLACEMENT_3D('',#664,#533,#534);
#478=AXIS2_PLACEMENT_3D('',#668,#537,#538);
#479=AXIS2_PLACEMENT_3D('',#672,#541,#542);
#480=AXIS2_PLACEMENT_3D('',#676,#545,#546);
#481=AXIS2_PLACEMENT_3D('',#680,#549,#550);
#482=AXIS2_PLACEMENT_3D('',#684,#553,#554);
#483=AXIS2_PLACEMENT_3D('',#688,#557,#558);
#484=AXIS2_PLACEMENT_3D('',#692,#561,#562);
#485=AXIS2_PLACEMENT_3D('',#696,#565,#566);
#486=AXIS2_PLACEMENT_3D('',#700,#569,#570);
#487=AXIS2_PLACEMENT_3D('',#704,#573,#574);
#488=AXIS2_PLACEMENT_3D('',#708,#577,#578);
#489=AXIS2_PLACEMENT_3D('',#712,#581,#582);
#490=AXIS2_PLACEMENT_3D('',#716,#585,#586);
#491=AXIS2_PLACEMENT_3D('',#720,#589,#590);
#492=AXIS2_PLACEMENT_3D('',#724,#593,#594);
#493=AXIS2_PLACEMENT_3D('',#728,#597,#598);
#494=AXIS2_PLACEMENT_3D('',#732,#601,#602);
#495=AXIS2_PLACEMENT_3D('',#734,#604,#605);
#496=AXIS2_PLACEMENT_3D('',#735,#606,#607);
#497=AXIS2_PLACEMENT_3D('',#737,#608,#609);
#498=DIRECTION('',(0.,0.,1.));
#499=DIRECTION('',(1.,0.,0.));
#500=DIRECTION('',(1.,0.,0.));
#501=DIRECTION('',(0.,0.,-1.));
#502=DIRECTION('',(0.,0.,-1.));
#503=DIRECTION('',(0.,-1.,0.));
#504=DIRECTION('',(0.,0.,1.));
#505=DIRECTION('',(0.,-1.,0.));
#506=DIRECTION('',(0.,0.,-1.));
#507=DIRECTION('',(0.,-1.,0.));
#508=DIRECTION('',(0.,0.,1.));
#509=DIRECTION('',(0.,1.,0.));
#510=DIRECTION('',(0.,0.,1.));
#511=DIRECTION('',(0.,-1.,0.));
#512=DIRECTION('',(0.,0.,1.));
#513=DIRECTION('',(0.,1.,0.));
#514=DIRECTION('',(0.,0.,-1.));
#515=DIRECTION('',(0.,1.,0.));
#516=DIRECTION('',(0.,0.,1.));
#517=DIRECTION('',(0.,1.,0.));
#518=DIRECTION('',(0.,0.,-1.));
#519=DIRECTION('',(0.,-1.,0.));
#520=DIRECTION('',(0.,0.,-1.));
#521=DIRECTION('',(0.,1.,0.));
#522=DIRECTION('',(1.,0.,0.));
#523=DIRECTION('',(0.,0.,-1.));
#524=DIRECTION('',(0.,-1.,0.));
#525=DIRECTION('',(0.,0.,-1.));
#526=DIRECTION('',(1.,0.,0.));
#527=DIRECTION('',(0.,0.,1.));
#528=DIRECTION('',(1.,0.,0.));
#529=DIRECTION('',(0.,0.,-1.));
#530=DIRECTION('',(0.,1.,0.));
#531=DIRECTION('',(1.,0.,0.));
#532=DIRECTION('',(0.,-1.,0.));
#533=DIRECTION('',(0.,-1.,0.));
#534=DIRECTION('',(0.,0.,-1.));
#535=DIRECTION('',(1.,0.,0.));
#536=DIRECTION('',(0.,0.,1.));
#537=DIRECTION('',(0.,0.,1.));
#538=DIRECTION('',(0.,-1.,0.));
#539=DIRECTION('',(1.,0.,0.));
#540=DIRECTION('',(0.,1.,0.));
#541=DIRECTION('',(0.,-1.,0.));
#542=DIRECTION('',(0.,0.,-1.));
#543=DIRECTION('',(1.,0.,0.));
#544=DIRECTION('',(0.,0.,1.));
#545=DIRECTION('',(0.,0.,-1.));
#546=DIRECTION('',(0.,1.,0.));
#547=DIRECTION('',(1.,0.,0.));
#548=DIRECTION('',(0.,-1.,0.));
#549=DIRECTION('',(0.,1.,0.));
#550=DIRECTION('',(0.,0.,1.));
#551=DIRECTION('',(1.,0.,0.));
#552=DIRECTION('',(0.,0.,-1.));
#553=DIRECTION('',(0.,0.,-1.));
#554=DIRECTION('',(0.,1.,0.));
#555=DIRECTION('',(1.,0.,0.));
#556=DIRECTION('',(0.,-1.,0.));
#557=DIRECTION('',(0.,-1.,0.));
#558=DIRECTION('',(0.,0.,-1.));
#559=DIRECTION('',(1.,0.,0.));
#560=DIRECTION('',(0.,0.,1.));
#561=DIRECTION('',(0.,0.,-1.));
#562=DIRECTION('',(0.,1.,0.));
#563=DIRECTION('',(1.,0.,0.));
#564=DIRECTION('',(0.,-1.,0.));
#565=DIRECTION('',(0.,1.,0.));
#566=DIRECTION('',(0.,0.,1.));
#567=DIRECTION('',(1.,0.,0.));
#568=DIRECTION('',(0.,0.,-1.));
#569=DIRECTION('',(0.,0.,1.));
#570=DIRECTION('',(0.,-1.,0.));
#571=DIRECTION('',(1.,0.,0.));
#572=DIRECTION('',(0.,1.,0.));
#573=DIRECTION('',(0.,1.,0.));
#574=DIRECTION('',(0.,0.,1.));
#575=DIRECTION('',(1.,0.,0.));
#576=DIRECTION('',(0.,0.,-1.));
#577=DIRECTION('',(0.,0.,-1.));
#578=DIRECTION('',(0.,1.,0.));
#579=DIRECTION('',(1.,0.,0.));
#580=DIRECTION('',(0.,-1.,0.));
#581=DIRECTION('',(0.,1.,0.));
#582=DIRECTION('',(0.,0.,1.));
#583=DIRECTION('',(1.,0.,0.));
#584=DIRECTION('',(0.,0.,-1.));
#585=DIRECTION('',(0.,0.,1.));
#586=DIRECTION('',(0.,-1.,0.));
#587=DIRECTION('',(1.,0.,0.));
#588=DIRECTION('',(0.,1.,0.));
#589=DIRECTION('',(0.,-1.,0.));
#590=DIRECTION('',(0.,0.,-1.));
#591=DIRECTION('',(1.,0.,0.));
#592=DIRECTION('',(0.,0.,1.));
#593=DIRECTION('',(0.,0.,1.));
#594=DIRECTION('',(0.,-1.,0.));
#595=DIRECTION('',(1.,0.,0.));
#596=DIRECTION('',(0.,1.,0.));
#597=DIRECTION('',(0.,1.,0.));
#598=DIRECTION('',(0.,0.,1.));
#599=DIRECTION('',(1.,0.,0.));
#600=DIRECTION('',(0.,0.,-1.));
#601=DIRECTION('',(0.,0.,1.));
#602=DIRECTION('',(0.,-1.,0.));
#603=DIRECTION('',(0.,1.,0.));
#604=DIRECTION('',(1.,0.,0.));
#605=DIRECTION('',(0.,0.,-1.));
#606=DIRECTION('',(1.,0.,0.));
#607=DIRECTION('',(0.,0.,-1.));
#608=DIRECTION('',(1.,0.,0.));
#609=DIRECTION('',(0.,1.,0.));
#610=CARTESIAN_POINT('',(0.,0.,0.));
#611=CARTESIAN_POINT('',(0.,4.44089209850063E-19,1.11022302462516E-19));
#612=CARTESIAN_POINT('',(0.,-0.02,0.02));
#613=CARTESIAN_POINT('',(0.,-0.02,0.02));
#614=CARTESIAN_POINT('',(0.,-0.02,0.005));
#615=CARTESIAN_POINT('',(0.,-0.005,0.02));
#616=CARTESIAN_POINT('',(0.,-0.005,0.02));
#617=CARTESIAN_POINT('',(0.,-0.005,0.0075));
#618=CARTESIAN_POINT('',(0.,-0.005,0.0075));
#619=CARTESIAN_POINT('',(0.,0.005,0.0075));
#620=CARTESIAN_POINT('',(0.,0.005,0.0075));
#621=CARTESIAN_POINT('',(0.,0.005,0.02));
#622=CARTESIAN_POINT('',(0.,0.005,0.02));
#623=CARTESIAN_POINT('',(0.,-0.0125,0.02));
#624=CARTESIAN_POINT('',(0.,0.02,0.02));
#625=CARTESIAN_POINT('',(0.,0.02,0.005));
#626=CARTESIAN_POINT('',(0.,0.02,0.005));
#627=CARTESIAN_POINT('',(0.,-0.01375,0.005));
#628=CARTESIAN_POINT('',(0.,0.0075,0.005));
#629=CARTESIAN_POINT('',(0.,0.0075,-0.005));
#630=CARTESIAN_POINT('',(0.,0.0075,-0.005));
#631=CARTESIAN_POINT('',(0.,-0.01375,-0.005));
#632=CARTESIAN_POINT('',(0.,0.02,-0.005));
#633=CARTESIAN_POINT('',(0.,0.02,0.0125));
#634=CARTESIAN_POINT('',(0.,0.02,-0.02));
#635=CARTESIAN_POINT('',(0.,-0.0125,-0.02));
#636=CARTESIAN_POINT('',(0.,0.005,-0.02));
#637=CARTESIAN_POINT('',(0.,0.005,0.01375));
#638=CARTESIAN_POINT('',(0.,0.005,-0.0075));
#639=CARTESIAN_POINT('',(0.,-0.005,-0.0075));
#640=CARTESIAN_POINT('',(0.,-0.005,-0.0075));
#641=CARTESIAN_POINT('',(0.,-0.005,0.01375));
#642=CARTESIAN_POINT('',(0.,-0.005,-0.02));
#643=CARTESIAN_POINT('',(0.,-0.02,-0.02));
#644=CARTESIAN_POINT('',(0.,-0.02,-0.02));
#645=CARTESIAN_POINT('',(0.,-0.02,0.0125));
#646=CARTESIAN_POINT('',(0.,-0.02,-0.005));
#647=CARTESIAN_POINT('',(0.,-0.0075,-0.005));
#648=CARTESIAN_POINT('',(0.,-0.0075,-0.005));
#649=CARTESIAN_POINT('',(0.,-0.0075,0.005));
#650=CARTESIAN_POINT('',(0.,-0.0075,0.005));
#651=CARTESIAN_POINT('',(0.,-0.02,0.005));
#652=CARTESIAN_POINT('',(0.,0.,0.));
#653=CARTESIAN_POINT('',(0.,0.,-0.005));
#654=CARTESIAN_POINT('',(0.,-0.02,0.0125));
#655=CARTESIAN_POINT('',(0.,-0.02,0.005));
#656=CARTESIAN_POINT('',(1.,-0.02,0.005));
#657=CARTESIAN_POINT('',(1.,-0.02,0.0125));
#658=CARTESIAN_POINT('',(1.,-0.02,0.02));
#659=CARTESIAN_POINT('',(0.,-0.02,0.02));
#660=CARTESIAN_POINT('',(0.,-0.01375,0.005));
#661=CARTESIAN_POINT('',(0.,-0.0075,0.005));
#662=CARTESIAN_POINT('',(1.,-0.0075,0.005));
#663=CARTESIAN_POINT('',(1.,-0.01375,0.005));
#664=CARTESIAN_POINT('',(0.,-0.0075,0.));
#665=CARTESIAN_POINT('',(0.,-0.0075,-0.005));
#666=CARTESIAN_POINT('',(1.,-0.0075,-0.005));
#667=CARTESIAN_POINT('',(1.,-0.0075,0.));
#668=CARTESIAN_POINT('',(0.,-0.01375,-0.005));
#669=CARTESIAN_POINT('',(0.,-0.02,-0.005));
#670=CARTESIAN_POINT('',(1.,-0.02,-0.005));
#671=CARTESIAN_POINT('',(1.,-0.01375,-0.005));
#672=CARTESIAN_POINT('',(0.,-0.02,0.0125));
#673=CARTESIAN_POINT('',(0.,-0.02,-0.02));
#674=CARTESIAN_POINT('',(1.,-0.02,-0.02));
#675=CARTESIAN_POINT('',(1.,-0.02,0.0125));
#676=CARTESIAN_POINT('',(0.,-0.0125,-0.02));
#677=CARTESIAN_POINT('',(0.,-0.005,-0.02));
#678=CARTESIAN_POINT('',(1.,-0.005,-0.02));
#679=CARTESIAN_POINT('',(1.,-0.0125,-0.02));
#680=CARTESIAN_POINT('',(0.,-0.005,0.01375));
#681=CARTESIAN_POINT('',(0.,-0.005,-0.0075));
#682=CARTESIAN_POINT('',(1.,-0.005,-0.0075));
#683=CARTESIAN_POINT('',(1.,-0.005,0.01375));
#684=CARTESIAN_POINT('',(0.,0.,-0.0075));
#685=CARTESIAN_POINT('',(0.,0.005,-0.0075));
#686=CARTESIAN_POINT('',(1.,0.005,-0.0075));
#687=CARTESIAN_POINT('',(1.,0.,-0.0075));
#688=CARTESIAN_POINT('',(0.,0.005,0.01375));
#689=CARTESIAN_POINT('',(0.,0.005,-0.02));
#690=CARTESIAN_POINT('',(1.,0.005,-0.02));
#691=CARTESIAN_POINT('',(1.,0.005,0.01375));
#692=CARTESIAN_POINT('',(0.,-0.0125,-0.02));
#693=CARTESIAN_POINT('',(0.,0.02,-0.02));
#694=CARTESIAN_POINT('',(1.,0.02,-0.02));
#695=CARTESIAN_POINT('',(1.,-0.0125,-0.02));
#696=CARTESIAN_POINT('',(0.,0.02,0.0125));
#697=CARTESIAN_POINT('',(0.,0.02,-0.005));
#698=CARTESIAN_POINT('',(1.,0.02,-0.005));
#699=CARTESIAN_POINT('',(1.,0.02,0.0125));
#700=CARTESIAN_POINT('',(0.,-0.01375,-0.005));
#701=CARTESIAN_POINT('',(0.,0.0075,-0.005));
#702=CARTESIAN_POINT('',(1.,0.0075,-0.005));
#703=CARTESIAN_POINT('',(1.,-0.01375,-0.005));
#704=CARTESIAN_POINT('',(0.,0.0075,0.));
#705=CARTESIAN_POINT('',(0.,0.0075,0.005));
#706=CARTESIAN_POINT('',(1.,0.0075,0.005));
#707=CARTESIAN_POINT('',(1.,0.0075,0.));
#708=CARTESIAN_POINT('',(0.,-0.01375,0.005));
#709=CARTESIAN_POINT('',(0.,0.02,0.005));
#710=CARTESIAN_POINT('',(1.,0.02,0.005));
#711=CARTESIAN_POINT('',(1.,-0.01375,0.005));
#712=CARTESIAN_POINT('',(0.,0.02,0.0125));
#713=CARTESIAN_POINT('',(0.,0.02,0.02));
#714=CARTESIAN_POINT('',(1.,0.02,0.02));
#715=CARTESIAN_POINT('',(1.,0.02,0.0125));
#716=CARTESIAN_POINT('',(0.,-0.0125,0.02));
#717=CARTESIAN_POINT('',(0.,0.005,0.02));
#718=CARTESIAN_POINT('',(1.,0.005,0.02));
#719=CARTESIAN_POINT('',(1.,-0.0125,0.02));
#720=CARTESIAN_POINT('',(0.,0.005,0.01375));
#721=CARTESIAN_POINT('',(0.,0.005,0.0075));
#722=CARTESIAN_POINT('',(1.,0.005,0.0075));
#723=CARTESIAN_POINT('',(1.,0.005,0.01375));
#724=CARTESIAN_POINT('',(0.,0.,0.0075));
#725=CARTESIAN_POINT('',(0.,-0.005,0.0075));
#726=CARTESIAN_POINT('',(1.,-0.005,0.0075));
#727=CARTESIAN_POINT('',(1.,0.,0.0075));
#728=CARTESIAN_POINT('',(0.,-0.005,0.01375));
#729=CARTESIAN_POINT('',(0.,-0.005,0.02));
#730=CARTESIAN_POINT('',(1.,-0.005,0.02));
#731=CARTESIAN_POINT('',(1.,-0.005,0.01375));
#732=CARTESIAN_POINT('',(0.,-0.0125,0.02));
#733=CARTESIAN_POINT('',(1.,-0.0125,0.02));
#734=CARTESIAN_POINT('',(3.035,0.,0.));
#735=CARTESIAN_POINT('',(1.,0.,0.));
#736=CARTESIAN_POINT('',(1.,0.,-0.005));
#737=CARTESIAN_POINT('',(1.,-0.00102272722870111,-0.00232438184320926));
#738=MECHANICAL_DESIGN_GEOMETRIC_PRESENTATION_REPRESENTATION('',(#461),#739);
#739=(
GEOMETRIC_REPRESENTATION_CONTEXT(3)
GLOBAL_UNCERTAINTY_ASSIGNED_CONTEXT((#740))
GLOBAL_UNIT_ASSIGNED_CONTEXT((#743,#742,#741))
REPRESENTATION_CONTEXT('alu_1000','TOP_LEVEL_ASSEMBLY_PART')
);
#740=UNCERTAINTY_MEASURE_WITH_UNIT(LENGTH_MEASURE(1.E-06),#743,'DISTANCE_ACCURACY_VALUE','Maximum Tolerance applied to model');
#741=(
NAMED_UNIT(*)
SI_UNIT($,.STERADIAN.)
SOLID_ANGLE_UNIT()
);
#742=(
NAMED_UNIT(*)
PLANE_ANGLE_UNIT()
SI_UNIT($,.RADIAN.)
);
#743=(
LENGTH_UNIT()
NAMED_UNIT(*)
SI_UNIT($,.METRE.)
);
#744=PRODUCT_DEFINITION_SHAPE('','',#745);
#745=PRODUCT_DEFINITION('','',#747,#746);
#746=PRODUCT_DEFINITION_CONTEXT('',#753,'design');
#747=PRODUCT_DEFINITION_FORMATION_WITH_SPECIFIED_SOURCE('','',#749,.NOT_KNOWN.);
#748=PRODUCT_RELATED_PRODUCT_CATEGORY('','',(#749));
#749=PRODUCT('alu_1000','alu_1000','alu_1000',(#751));
#750=PRODUCT_CATEGORY('','');
#751=PRODUCT_CONTEXT('',#753,'mechanical');
#752=APPLICATION_PROTOCOL_DEFINITION('international standard','ap242_managed_model_based_3d_engineering',2020,#753);
#753=APPLICATION_CONTEXT('managed model based 3d engineering');
ENDSEC;
END-ISO-10303-21;
