ISO-10303-21;
HEADER;
/*Generated by software containing ST-Developer
 * from STEP Tools, Inc. (www.steptools.com) 
 */
/*OPTION: using custom renumber hook */
/*description */
/*implementation_level */
FILE_DESCRIPTION(('STEP AP242 Edition 2','STEP AP242 Edition 2''CAx-IF Rec.Pracs.---Representation and Presentation of Product Manufa
cturing Information (PMI)---4.0---2014-10-13','STEP AP242 Edition 2''CAx-IF Rec.Pracs.---Representation and Presentation of Product Manufa
cturing Information (PMI)---4.0---2014-10-13''CAx-IF Rec.Pracs.---3D Tessellated Geometry---0.4---2014-09-14','STEP AP242 Edition 2''CAx-IF Rec.Pracs.---Representation and Presentation of Product Manufa
cturing Information (PMI)---4.0---2014-10-13''CAx-IF Rec.Pracs.---3D Tessellated Geometry---0.4---2014-09-14''2;1','STEP AP242 Edition 2''CAx-IF Rec.Pracs.---Representation and Presentation of Product Manufa
cturing Information (PMI)---4.0---2014-10-13''CAx-IF Rec.Pracs.---3D Tessellated Geometry---0.4---2014-09-14''2;1''CAx-IF Rec.Pracs.---User Defined Attributes---1.5---2016-08-15'),'2;1');
/*name */
/*time_stamp */
/*author */
/*organization */
/*preprocessor_version */
/*originating_system */
/*authorisation */
FILE_NAME('/vol/tmp/translate-16427722895535148269/69a7db826c0e8c4dc421c1e0.step','2026-03-04T07:13:07',(''),(''),'ST-DEVELOPER v20','ONSHAPE BY PTC INC, 1.211','  ');
FILE_SCHEMA(('AP242_MANAGED_MODEL_BASED_3D_ENGINEERING_MIM_LF { 1 0 10303 442 3 1 4 }'));
ENDSEC;
DATA;
#10=CONTEXT_DEPENDENT_SHAPE_REPRESENTATION(#36,#2304);
#11=CONTEXT_DEPENDENT_SHAPE_REPRESENTATION(#37,#2306);
#12=CONTEXT_DEPENDENT_SHAPE_REPRESENTATION(#38,#2308);
#13=CONTEXT_DEPENDENT_SHAPE_REPRESENTATION(#39,#2309);
#14=CONTEXT_DEPENDENT_SHAPE_REPRESENTATION(#40,#2310);
#15=CONTEXT_DEPENDENT_SHAPE_REPRESENTATION(#41,#2311);
#16=CONTEXT_DEPENDENT_SHAPE_REPRESENTATION(#42,#2312);
#17=CONTEXT_DEPENDENT_SHAPE_REPRESENTATION(#43,#2313);
#18=CONTEXT_DEPENDENT_SHAPE_REPRESENTATION(#44,#2314);
#19=CONTEXT_DEPENDENT_SHAPE_REPRESENTATION(#45,#2315);
#20=CONTEXT_DEPENDENT_SHAPE_REPRESENTATION(#46,#2316);
#21=CONTEXT_DEPENDENT_SHAPE_REPRESENTATION(#47,#2317);
#22=CONTEXT_DEPENDENT_SHAPE_REPRESENTATION(#48,#2318);
#23=NEXT_ASSEMBLY_USAGE_OCCURRENCE('NAUO1','alu_2000','alu_2000',#2319,#2320,'');
#24=NEXT_ASSEMBLY_USAGE_OCCURRENCE('NAUO2','alu_600','alu_600',#2319,#2321,'');
#25=NEXT_ASSEMBLY_USAGE_OCCURRENCE('NAUO3','alu_1000','alu_1000',#2319,#2322,'');
#26=NEXT_ASSEMBLY_USAGE_OCCURRENCE('NAUO4','alu_1000','alu_1000',#2319,#2322,'');
#27=NEXT_ASSEMBLY_USAGE_OCCURRENCE('NAUO5','alu_1000','alu_1000',#2319,#2322,'');
#28=NEXT_ASSEMBLY_USAGE_OCCURRENCE('NAUO6','alu_600','alu_600',#2319,#2321,'');
#29=NEXT_ASSEMBLY_USAGE_OCCURRENCE('NAUO7','alu_600','alu_600',#2319,#2321,'');
#30=NEXT_ASSEMBLY_USAGE_OCCURRENCE('NAUO8','alu_1000','alu_1000',#2319,#2322,'');
#31=NEXT_ASSEMBLY_USAGE_OCCURRENCE('NAUO9','alu_1000','alu_1000',#2319,#2322,'');
#32=NEXT_ASSEMBLY_USAGE_OCCURRENCE('NAUO10','alu_1000','alu_1000',#2319,#2322,'');
#33=NEXT_ASSEMBLY_USAGE_OCCURRENCE('NAUO11','alu_2000','alu_2000',#2319,#2320,'');
#34=NEXT_ASSEMBLY_USAGE_OCCURRENCE('NAUO12','alu_1000','alu_1000',#2319,#2322,'');
#35=NEXT_ASSEMBLY_USAGE_OCCURRENCE('NAUO13','alu_600','alu_600',#2319,#2321,'');
#36=(
REPRESENTATION_RELATIONSHIP(' ',' ',#1445,#1444)
REPRESENTATION_RELATIONSHIP_WITH_TRANSFORMATION(#49)
SHAPE_REPRESENTATION_RELATIONSHIP()
);
#37=(
REPRESENTATION_RELATIONSHIP(' ',' ',#1446,#1444)
REPRESENTATION_RELATIONSHIP_WITH_TRANSFORMATION(#50)
SHAPE_REPRESENTATION_RELATIONSHIP()
);
#38=(
REPRESENTATION_RELATIONSHIP(' ',' ',#1447,#1444)
REPRESENTATION_RELATIONSHIP_WITH_TRANSFORMATION(#51)
SHAPE_REPRESENTATION_RELATIONSHIP()
);
#39=(
REPRESENTATION_RELATIONSHIP(' ',' ',#1447,#1444)
REPRESENTATION_RELATIONSHIP_WITH_TRANSFORMATION(#52)
SHAPE_REPRESENTATION_RELATIONSHIP()
);
#40=(
REPRESENTATION_RELATIONSHIP(' ',' ',#1447,#1444)
REPRESENTATION_RELATIONSHIP_WITH_TRANSFORMATION(#53)
SHAPE_REPRESENTATION_RELATIONSHIP()
);
#41=(
REPRESENTATION_RELATIONSHIP(' ',' ',#1446,#1444)
REPRESENTATION_RELATIONSHIP_WITH_TRANSFORMATION(#54)
SHAPE_REPRESENTATION_RELATIONSHIP()
);
#42=(
REPRESENTATION_RELATIONSHIP(' ',' ',#1446,#1444)
REPRESENTATION_RELATIONSHIP_WITH_TRANSFORMATION(#55)
SHAPE_REPRESENTATION_RELATIONSHIP()
);
#43=(
REPRESENTATION_RELATIONSHIP(' ',' ',#1447,#1444)
REPRESENTATION_RELATIONSHIP_WITH_TRANSFORMATION(#56)
SHAPE_REPRESENTATION_RELATIONSHIP()
);
#44=(
REPRESENTATION_RELATIONSHIP(' ',' ',#1447,#1444)
REPRESENTATION_RELATIONSHIP_WITH_TRANSFORMATION(#57)
SHAPE_REPRESENTATION_RELATIONSHIP()
);
#45=(
REPRESENTATION_RELATIONSHIP(' ',' ',#1447,#1444)
REPRESENTATION_RELATIONSHIP_WITH_TRANSFORMATION(#58)
SHAPE_REPRESENTATION_RELATIONSHIP()
);
#46=(
REPRESENTATION_RELATIONSHIP(' ',' ',#1445,#1444)
REPRESENTATION_RELATIONSHIP_WITH_TRANSFORMATION(#59)
SHAPE_REPRESENTATION_RELATIONSHIP()
);
#47=(
REPRESENTATION_RELATIONSHIP(' ',' ',#1447,#1444)
REPRESENTATION_RELATIONSHIP_WITH_TRANSFORMATION(#60)
SHAPE_REPRESENTATION_RELATIONSHIP()
);
#48=(
REPRESENTATION_RELATIONSHIP(' ',' ',#1446,#1444)
REPRESENTATION_RELATIONSHIP_WITH_TRANSFORMATION(#61)
SHAPE_REPRESENTATION_RELATIONSHIP()
);
#49=ITEM_DEFINED_TRANSFORMATION(' ',' ',#1448,#1474);
#50=ITEM_DEFINED_TRANSFORMATION(' ',' ',#1448,#1500);
#51=ITEM_DEFINED_TRANSFORMATION(' ',' ',#1448,#1526);
#52=ITEM_DEFINED_TRANSFORMATION(' ',' ',#1448,#1527);
#53=ITEM_DEFINED_TRANSFORMATION(' ',' ',#1448,#1528);
#54=ITEM_DEFINED_TRANSFORMATION(' ',' ',#1448,#1529);
#55=ITEM_DEFINED_TRANSFORMATION(' ',' ',#1448,#1530);
#56=ITEM_DEFINED_TRANSFORMATION(' ',' ',#1448,#1531);
#57=ITEM_DEFINED_TRANSFORMATION(' ',' ',#1448,#1532);
#58=ITEM_DEFINED_TRANSFORMATION(' ',' ',#1448,#1533);
#59=ITEM_DEFINED_TRANSFORMATION(' ',' ',#1448,#1534);
#60=ITEM_DEFINED_TRANSFORMATION(' ',' ',#1448,#1535);
#61=ITEM_DEFINED_TRANSFORMATION(' ',' ',#1448,#1536);
#62=SHAPE_REPRESENTATION_RELATIONSHIP('','',#1445,#65);
#63=SHAPE_REPRESENTATION_RELATIONSHIP('','',#1446,#66);
#64=SHAPE_REPRESENTATION_RELATIONSHIP('','',#1447,#67);
#65=ADVANCED_BREP_SHAPE_REPRESENTATION('',(#1437),#2292);
#66=ADVANCED_BREP_SHAPE_REPRESENTATION('',(#1438),#2293);
#67=ADVANCED_BREP_SHAPE_REPRESENTATION('',(#1439),#2294);
#68=CYLINDRICAL_SURFACE('',#1471,0.005);
#69=CYLINDRICAL_SURFACE('',#1497,0.005);
#70=CYLINDRICAL_SURFACE('',#1523,0.005);
#71=CIRCLE('',#1450,0.005);
#72=CIRCLE('',#1472,0.005);
#73=CIRCLE('',#1476,0.005);
#74=CIRCLE('',#1498,0.005);
#75=CIRCLE('',#1502,0.005);
#76=CIRCLE('',#1524,0.005);
#77=ORIENTED_EDGE('',*,*,#449,.F.);
#78=ORIENTED_EDGE('',*,*,#450,.F.);
#79=ORIENTED_EDGE('',*,*,#451,.F.);
#80=ORIENTED_EDGE('',*,*,#452,.F.);
#81=ORIENTED_EDGE('',*,*,#453,.F.);
#82=ORIENTED_EDGE('',*,*,#454,.F.);
#83=ORIENTED_EDGE('',*,*,#455,.F.);
#84=ORIENTED_EDGE('',*,*,#456,.F.);
#85=ORIENTED_EDGE('',*,*,#457,.F.);
#86=ORIENTED_EDGE('',*,*,#458,.F.);
#87=ORIENTED_EDGE('',*,*,#459,.F.);
#88=ORIENTED_EDGE('',*,*,#460,.F.);
#89=ORIENTED_EDGE('',*,*,#461,.F.);
#90=ORIENTED_EDGE('',*,*,#462,.F.);
#91=ORIENTED_EDGE('',*,*,#463,.F.);
#92=ORIENTED_EDGE('',*,*,#464,.F.);
#93=ORIENTED_EDGE('',*,*,#465,.F.);
#94=ORIENTED_EDGE('',*,*,#466,.F.);
#95=ORIENTED_EDGE('',*,*,#467,.F.);
#96=ORIENTED_EDGE('',*,*,#468,.F.);
#97=ORIENTED_EDGE('',*,*,#469,.T.);
#98=ORIENTED_EDGE('',*,*,#470,.T.);
#99=ORIENTED_EDGE('',*,*,#471,.T.);
#100=ORIENTED_EDGE('',*,*,#472,.F.);
#101=ORIENTED_EDGE('',*,*,#449,.T.);
#102=ORIENTED_EDGE('',*,*,#473,.T.);
#103=ORIENTED_EDGE('',*,*,#474,.T.);
#104=ORIENTED_EDGE('',*,*,#470,.F.);
#105=ORIENTED_EDGE('',*,*,#468,.T.);
#106=ORIENTED_EDGE('',*,*,#475,.T.);
#107=ORIENTED_EDGE('',*,*,#476,.T.);
#108=ORIENTED_EDGE('',*,*,#473,.F.);
#109=ORIENTED_EDGE('',*,*,#467,.T.);
#110=ORIENTED_EDGE('',*,*,#477,.T.);
#111=ORIENTED_EDGE('',*,*,#478,.T.);
#112=ORIENTED_EDGE('',*,*,#475,.F.);
#113=ORIENTED_EDGE('',*,*,#466,.T.);
#114=ORIENTED_EDGE('',*,*,#479,.T.);
#115=ORIENTED_EDGE('',*,*,#480,.T.);
#116=ORIENTED_EDGE('',*,*,#477,.F.);
#117=ORIENTED_EDGE('',*,*,#465,.T.);
#118=ORIENTED_EDGE('',*,*,#481,.T.);
#119=ORIENTED_EDGE('',*,*,#482,.T.);
#120=ORIENTED_EDGE('',*,*,#479,.F.);
#121=ORIENTED_EDGE('',*,*,#464,.T.);
#122=ORIENTED_EDGE('',*,*,#483,.T.);
#123=ORIENTED_EDGE('',*,*,#484,.T.);
#124=ORIENTED_EDGE('',*,*,#481,.F.);
#125=ORIENTED_EDGE('',*,*,#463,.T.);
#126=ORIENTED_EDGE('',*,*,#485,.T.);
#127=ORIENTED_EDGE('',*,*,#486,.T.);
#128=ORIENTED_EDGE('',*,*,#483,.F.);
#129=ORIENTED_EDGE('',*,*,#462,.T.);
#130=ORIENTED_EDGE('',*,*,#487,.T.);
#131=ORIENTED_EDGE('',*,*,#488,.T.);
#132=ORIENTED_EDGE('',*,*,#485,.F.);
#133=ORIENTED_EDGE('',*,*,#461,.T.);
#134=ORIENTED_EDGE('',*,*,#489,.T.);
#135=ORIENTED_EDGE('',*,*,#490,.T.);
#136=ORIENTED_EDGE('',*,*,#487,.F.);
#137=ORIENTED_EDGE('',*,*,#460,.T.);
#138=ORIENTED_EDGE('',*,*,#491,.T.);
#139=ORIENTED_EDGE('',*,*,#492,.T.);
#140=ORIENTED_EDGE('',*,*,#489,.F.);
#141=ORIENTED_EDGE('',*,*,#459,.T.);
#142=ORIENTED_EDGE('',*,*,#493,.T.);
#143=ORIENTED_EDGE('',*,*,#494,.T.);
#144=ORIENTED_EDGE('',*,*,#491,.F.);
#145=ORIENTED_EDGE('',*,*,#458,.T.);
#146=ORIENTED_EDGE('',*,*,#495,.T.);
#147=ORIENTED_EDGE('',*,*,#496,.T.);
#148=ORIENTED_EDGE('',*,*,#493,.F.);
#149=ORIENTED_EDGE('',*,*,#457,.T.);
#150=ORIENTED_EDGE('',*,*,#497,.T.);
#151=ORIENTED_EDGE('',*,*,#498,.T.);
#152=ORIENTED_EDGE('',*,*,#495,.F.);
#153=ORIENTED_EDGE('',*,*,#456,.T.);
#154=ORIENTED_EDGE('',*,*,#499,.T.);
#155=ORIENTED_EDGE('',*,*,#500,.T.);
#156=ORIENTED_EDGE('',*,*,#497,.F.);
#157=ORIENTED_EDGE('',*,*,#455,.T.);
#158=ORIENTED_EDGE('',*,*,#501,.T.);
#159=ORIENTED_EDGE('',*,*,#502,.T.);
#160=ORIENTED_EDGE('',*,*,#499,.F.);
#161=ORIENTED_EDGE('',*,*,#454,.T.);
#162=ORIENTED_EDGE('',*,*,#503,.T.);
#163=ORIENTED_EDGE('',*,*,#504,.T.);
#164=ORIENTED_EDGE('',*,*,#501,.F.);
#165=ORIENTED_EDGE('',*,*,#453,.T.);
#166=ORIENTED_EDGE('',*,*,#505,.T.);
#167=ORIENTED_EDGE('',*,*,#506,.T.);
#168=ORIENTED_EDGE('',*,*,#503,.F.);
#169=ORIENTED_EDGE('',*,*,#452,.T.);
#170=ORIENTED_EDGE('',*,*,#507,.T.);
#171=ORIENTED_EDGE('',*,*,#508,.T.);
#172=ORIENTED_EDGE('',*,*,#505,.F.);
#173=ORIENTED_EDGE('',*,*,#451,.T.);
#174=ORIENTED_EDGE('',*,*,#472,.T.);
#175=ORIENTED_EDGE('',*,*,#509,.T.);
#176=ORIENTED_EDGE('',*,*,#507,.F.);
#177=ORIENTED_EDGE('',*,*,#450,.T.);
#178=ORIENTED_EDGE('',*,*,#510,.F.);
#179=ORIENTED_EDGE('',*,*,#469,.F.);
#180=ORIENTED_EDGE('',*,*,#471,.F.);
#181=ORIENTED_EDGE('',*,*,#474,.F.);
#182=ORIENTED_EDGE('',*,*,#476,.F.);
#183=ORIENTED_EDGE('',*,*,#478,.F.);
#184=ORIENTED_EDGE('',*,*,#480,.F.);
#185=ORIENTED_EDGE('',*,*,#482,.F.);
#186=ORIENTED_EDGE('',*,*,#484,.F.);
#187=ORIENTED_EDGE('',*,*,#486,.F.);
#188=ORIENTED_EDGE('',*,*,#488,.F.);
#189=ORIENTED_EDGE('',*,*,#490,.F.);
#190=ORIENTED_EDGE('',*,*,#492,.F.);
#191=ORIENTED_EDGE('',*,*,#494,.F.);
#192=ORIENTED_EDGE('',*,*,#496,.F.);
#193=ORIENTED_EDGE('',*,*,#498,.F.);
#194=ORIENTED_EDGE('',*,*,#500,.F.);
#195=ORIENTED_EDGE('',*,*,#502,.F.);
#196=ORIENTED_EDGE('',*,*,#504,.F.);
#197=ORIENTED_EDGE('',*,*,#506,.F.);
#198=ORIENTED_EDGE('',*,*,#508,.F.);
#199=ORIENTED_EDGE('',*,*,#509,.F.);
#200=ORIENTED_EDGE('',*,*,#510,.T.);
#201=ORIENTED_EDGE('',*,*,#511,.F.);
#202=ORIENTED_EDGE('',*,*,#512,.F.);
#203=ORIENTED_EDGE('',*,*,#513,.F.);
#204=ORIENTED_EDGE('',*,*,#514,.F.);
#205=ORIENTED_EDGE('',*,*,#515,.F.);
#206=ORIENTED_EDGE('',*,*,#516,.F.);
#207=ORIENTED_EDGE('',*,*,#517,.F.);
#208=ORIENTED_EDGE('',*,*,#518,.F.);
#209=ORIENTED_EDGE('',*,*,#519,.F.);
#210=ORIENTED_EDGE('',*,*,#520,.F.);
#211=ORIENTED_EDGE('',*,*,#521,.F.);
#212=ORIENTED_EDGE('',*,*,#522,.F.);
#213=ORIENTED_EDGE('',*,*,#523,.F.);
#214=ORIENTED_EDGE('',*,*,#524,.F.);
#215=ORIENTED_EDGE('',*,*,#525,.F.);
#216=ORIENTED_EDGE('',*,*,#526,.F.);
#217=ORIENTED_EDGE('',*,*,#527,.F.);
#218=ORIENTED_EDGE('',*,*,#528,.F.);
#219=ORIENTED_EDGE('',*,*,#529,.F.);
#220=ORIENTED_EDGE('',*,*,#530,.F.);
#221=ORIENTED_EDGE('',*,*,#531,.T.);
#222=ORIENTED_EDGE('',*,*,#532,.T.);
#223=ORIENTED_EDGE('',*,*,#533,.T.);
#224=ORIENTED_EDGE('',*,*,#534,.F.);
#225=ORIENTED_EDGE('',*,*,#511,.T.);
#226=ORIENTED_EDGE('',*,*,#535,.T.);
#227=ORIENTED_EDGE('',*,*,#536,.T.);
#228=ORIENTED_EDGE('',*,*,#532,.F.);
#229=ORIENTED_EDGE('',*,*,#530,.T.);
#230=ORIENTED_EDGE('',*,*,#537,.T.);
#231=ORIENTED_EDGE('',*,*,#538,.T.);
#232=ORIENTED_EDGE('',*,*,#535,.F.);
#233=ORIENTED_EDGE('',*,*,#529,.T.);
#234=ORIENTED_EDGE('',*,*,#539,.T.);
#235=ORIENTED_EDGE('',*,*,#540,.T.);
#236=ORIENTED_EDGE('',*,*,#537,.F.);
#237=ORIENTED_EDGE('',*,*,#528,.T.);
#238=ORIENTED_EDGE('',*,*,#541,.T.);
#239=ORIENTED_EDGE('',*,*,#542,.T.);
#240=ORIENTED_EDGE('',*,*,#539,.F.);
#241=ORIENTED_EDGE('',*,*,#527,.T.);
#242=ORIENTED_EDGE('',*,*,#543,.T.);
#243=ORIENTED_EDGE('',*,*,#544,.T.);
#244=ORIENTED_EDGE('',*,*,#541,.F.);
#245=ORIENTED_EDGE('',*,*,#526,.T.);
#246=ORIENTED_EDGE('',*,*,#545,.T.);
#247=ORIENTED_EDGE('',*,*,#546,.T.);
#248=ORIENTED_EDGE('',*,*,#543,.F.);
#249=ORIENTED_EDGE('',*,*,#525,.T.);
#250=ORIENTED_EDGE('',*,*,#547,.T.);
#251=ORIENTED_EDGE('',*,*,#548,.T.);
#252=ORIENTED_EDGE('',*,*,#545,.F.);
#253=ORIENTED_EDGE('',*,*,#524,.T.);
#254=ORIENTED_EDGE('',*,*,#549,.T.);
#255=ORIENTED_EDGE('',*,*,#550,.T.);
#256=ORIENTED_EDGE('',*,*,#547,.F.);
#257=ORIENTED_EDGE('',*,*,#523,.T.);
#258=ORIENTED_EDGE('',*,*,#551,.T.);
#259=ORIENTED_EDGE('',*,*,#552,.T.);
#260=ORIENTED_EDGE('',*,*,#549,.F.);
#261=ORIENTED_EDGE('',*,*,#522,.T.);
#262=ORIENTED_EDGE('',*,*,#553,.T.);
#263=ORIENTED_EDGE('',*,*,#554,.T.);
#264=ORIENTED_EDGE('',*,*,#551,.F.);
#265=ORIENTED_EDGE('',*,*,#521,.T.);
#266=ORIENTED_EDGE('',*,*,#555,.T.);
#267=ORIENTED_EDGE('',*,*,#556,.T.);
#268=ORIENTED_EDGE('',*,*,#553,.F.);
#269=ORIENTED_EDGE('',*,*,#520,.T.);
#270=ORIENTED_EDGE('',*,*,#557,.T.);
#271=ORIENTED_EDGE('',*,*,#558,.T.);
#272=ORIENTED_EDGE('',*,*,#555,.F.);
#273=ORIENTED_EDGE('',*,*,#519,.T.);
#274=ORIENTED_EDGE('',*,*,#559,.T.);
#275=ORIENTED_EDGE('',*,*,#560,.T.);
#276=ORIENTED_EDGE('',*,*,#557,.F.);
#277=ORIENTED_EDGE('',*,*,#518,.T.);
#278=ORIENTED_EDGE('',*,*,#561,.T.);
#279=ORIENTED_EDGE('',*,*,#562,.T.);
#280=ORIENTED_EDGE('',*,*,#559,.F.);
#281=ORIENTED_EDGE('',*,*,#517,.T.);
#282=ORIENTED_EDGE('',*,*,#563,.T.);
#283=ORIENTED_EDGE('',*,*,#564,.T.);
#284=ORIENTED_EDGE('',*,*,#561,.F.);
#285=ORIENTED_EDGE('',*,*,#516,.T.);
#286=ORIENTED_EDGE('',*,*,#565,.T.);
#287=ORIENTED_EDGE('',*,*,#566,.T.);
#288=ORIENTED_EDGE('',*,*,#563,.F.);
#289=ORIENTED_EDGE('',*,*,#515,.T.);
#290=ORIENTED_EDGE('',*,*,#567,.T.);
#291=ORIENTED_EDGE('',*,*,#568,.T.);
#292=ORIENTED_EDGE('',*,*,#565,.F.);
#293=ORIENTED_EDGE('',*,*,#514,.T.);
#294=ORIENTED_EDGE('',*,*,#569,.T.);
#295=ORIENTED_EDGE('',*,*,#570,.T.);
#296=ORIENTED_EDGE('',*,*,#567,.F.);
#297=ORIENTED_EDGE('',*,*,#513,.T.);
#298=ORIENTED_EDGE('',*,*,#534,.T.);
#299=ORIENTED_EDGE('',*,*,#571,.T.);
#300=ORIENTED_EDGE('',*,*,#569,.F.);
#301=ORIENTED_EDGE('',*,*,#512,.T.);
#302=ORIENTED_EDGE('',*,*,#572,.F.);
#303=ORIENTED_EDGE('',*,*,#531,.F.);
#304=ORIENTED_EDGE('',*,*,#533,.F.);
#305=ORIENTED_EDGE('',*,*,#536,.F.);
#306=ORIENTED_EDGE('',*,*,#538,.F.);
#307=ORIENTED_EDGE('',*,*,#540,.F.);
#308=ORIENTED_EDGE('',*,*,#542,.F.);
#309=ORIENTED_EDGE('',*,*,#544,.F.);
#310=ORIENTED_EDGE('',*,*,#546,.F.);
#311=ORIENTED_EDGE('',*,*,#548,.F.);
#312=ORIENTED_EDGE('',*,*,#550,.F.);
#313=ORIENTED_EDGE('',*,*,#552,.F.);
#314=ORIENTED_EDGE('',*,*,#554,.F.);
#315=ORIENTED_EDGE('',*,*,#556,.F.);
#316=ORIENTED_EDGE('',*,*,#558,.F.);
#317=ORIENTED_EDGE('',*,*,#560,.F.);
#318=ORIENTED_EDGE('',*,*,#562,.F.);
#319=ORIENTED_EDGE('',*,*,#564,.F.);
#320=ORIENTED_EDGE('',*,*,#566,.F.);
#321=ORIENTED_EDGE('',*,*,#568,.F.);
#322=ORIENTED_EDGE('',*,*,#570,.F.);
#323=ORIENTED_EDGE('',*,*,#571,.F.);
#324=ORIENTED_EDGE('',*,*,#572,.T.);
#325=ORIENTED_EDGE('',*,*,#573,.F.);
#326=ORIENTED_EDGE('',*,*,#574,.F.);
#327=ORIENTED_EDGE('',*,*,#575,.F.);
#328=ORIENTED_EDGE('',*,*,#576,.F.);
#329=ORIENTED_EDGE('',*,*,#577,.F.);
#330=ORIENTED_EDGE('',*,*,#578,.F.);
#331=ORIENTED_EDGE('',*,*,#579,.F.);
#332=ORIENTED_EDGE('',*,*,#580,.F.);
#333=ORIENTED_EDGE('',*,*,#581,.F.);
#334=ORIENTED_EDGE('',*,*,#582,.F.);
#335=ORIENTED_EDGE('',*,*,#583,.F.);
#336=ORIENTED_EDGE('',*,*,#584,.F.);
#337=ORIENTED_EDGE('',*,*,#585,.F.);
#338=ORIENTED_EDGE('',*,*,#586,.F.);
#339=ORIENTED_EDGE('',*,*,#587,.F.);
#340=ORIENTED_EDGE('',*,*,#588,.F.);
#341=ORIENTED_EDGE('',*,*,#589,.F.);
#342=ORIENTED_EDGE('',*,*,#590,.F.);
#343=ORIENTED_EDGE('',*,*,#591,.F.);
#344=ORIENTED_EDGE('',*,*,#592,.F.);
#345=ORIENTED_EDGE('',*,*,#593,.T.);
#346=ORIENTED_EDGE('',*,*,#594,.T.);
#347=ORIENTED_EDGE('',*,*,#595,.T.);
#348=ORIENTED_EDGE('',*,*,#596,.F.);
#349=ORIENTED_EDGE('',*,*,#573,.T.);
#350=ORIENTED_EDGE('',*,*,#597,.T.);
#351=ORIENTED_EDGE('',*,*,#598,.T.);
#352=ORIENTED_EDGE('',*,*,#594,.F.);
#353=ORIENTED_EDGE('',*,*,#592,.T.);
#354=ORIENTED_EDGE('',*,*,#599,.T.);
#355=ORIENTED_EDGE('',*,*,#600,.T.);
#356=ORIENTED_EDGE('',*,*,#597,.F.);
#357=ORIENTED_EDGE('',*,*,#591,.T.);
#358=ORIENTED_EDGE('',*,*,#601,.T.);
#359=ORIENTED_EDGE('',*,*,#602,.T.);
#360=ORIENTED_EDGE('',*,*,#599,.F.);
#361=ORIENTED_EDGE('',*,*,#590,.T.);
#362=ORIENTED_EDGE('',*,*,#603,.T.);
#363=ORIENTED_EDGE('',*,*,#604,.T.);
#364=ORIENTED_EDGE('',*,*,#601,.F.);
#365=ORIENTED_EDGE('',*,*,#589,.T.);
#366=ORIENTED_EDGE('',*,*,#605,.T.);
#367=ORIENTED_EDGE('',*,*,#606,.T.);
#368=ORIENTED_EDGE('',*,*,#603,.F.);
#369=ORIENTED_EDGE('',*,*,#588,.T.);
#370=ORIENTED_EDGE('',*,*,#607,.T.);
#371=ORIENTED_EDGE('',*,*,#608,.T.);
#372=ORIENTED_EDGE('',*,*,#605,.F.);
#373=ORIENTED_EDGE('',*,*,#587,.T.);
#374=ORIENTED_EDGE('',*,*,#609,.T.);
#375=ORIENTED_EDGE('',*,*,#610,.T.);
#376=ORIENTED_EDGE('',*,*,#607,.F.);
#377=ORIENTED_EDGE('',*,*,#586,.T.);
#378=ORIENTED_EDGE('',*,*,#611,.T.);
#379=ORIENTED_EDGE('',*,*,#612,.T.);
#380=ORIENTED_EDGE('',*,*,#609,.F.);
#381=ORIENTED_EDGE('',*,*,#585,.T.);
#382=ORIENTED_EDGE('',*,*,#613,.T.);
#383=ORIENTED_EDGE('',*,*,#614,.T.);
#384=ORIENTED_EDGE('',*,*,#611,.F.);
#385=ORIENTED_EDGE('',*,*,#584,.T.);
#386=ORIENTED_EDGE('',*,*,#615,.T.);
#387=ORIENTED_EDGE('',*,*,#616,.T.);
#388=ORIENTED_EDGE('',*,*,#613,.F.);
#389=ORIENTED_EDGE('',*,*,#583,.T.);
#390=ORIENTED_EDGE('',*,*,#617,.T.);
#391=ORIENTED_EDGE('',*,*,#618,.T.);
#392=ORIENTED_EDGE('',*,*,#615,.F.);
#393=ORIENTED_EDGE('',*,*,#582,.T.);
#394=ORIENTED_EDGE('',*,*,#619,.T.);
#395=ORIENTED_EDGE('',*,*,#620,.T.);
#396=ORIENTED_EDGE('',*,*,#617,.F.);
#397=ORIENTED_EDGE('',*,*,#581,.T.);
#398=ORIENTED_EDGE('',*,*,#621,.T.);
#399=ORIENTED_EDGE('',*,*,#622,.T.);
#400=ORIENTED_EDGE('',*,*,#619,.F.);
#401=ORIENTED_EDGE('',*,*,#580,.T.);
#402=ORIENTED_EDGE('',*,*,#623,.T.);
#403=ORIENTED_EDGE('',*,*,#624,.T.);
#404=ORIENTED_EDGE('',*,*,#621,.F.);
#405=ORIENTED_EDGE('',*,*,#579,.T.);
#406=ORIENTED_EDGE('',*,*,#625,.T.);
#407=ORIENTED_EDGE('',*,*,#626,.T.);
#408=ORIENTED_EDGE('',*,*,#623,.F.);
#409=ORIENTED_EDGE('',*,*,#578,.T.);
#410=ORIENTED_EDGE('',*,*,#627,.T.);
#411=ORIENTED_EDGE('',*,*,#628,.T.);
#412=ORIENTED_EDGE('',*,*,#625,.F.);
#413=ORIENTED_EDGE('',*,*,#577,.T.);
#414=ORIENTED_EDGE('',*,*,#629,.T.);
#415=ORIENTED_EDGE('',*,*,#630,.T.);
#416=ORIENTED_EDGE('',*,*,#627,.F.);
#417=ORIENTED_EDGE('',*,*,#576,.T.);
#418=ORIENTED_EDGE('',*,*,#631,.T.);
#419=ORIENTED_EDGE('',*,*,#632,.T.);
#420=ORIENTED_EDGE('',*,*,#629,.F.);
#421=ORIENTED_EDGE('',*,*,#575,.T.);
#422=ORIENTED_EDGE('',*,*,#596,.T.);
#423=ORIENTED_EDGE('',*,*,#633,.T.);
#424=ORIENTED_EDGE('',*,*,#631,.F.);
#425=ORIENTED_EDGE('',*,*,#574,.T.);
#426=ORIENTED_EDGE('',*,*,#634,.F.);
#427=ORIENTED_EDGE('',*,*,#593,.F.);
#428=ORIENTED_EDGE('',*,*,#595,.F.);
#429=ORIENTED_EDGE('',*,*,#598,.F.);
#430=ORIENTED_EDGE('',*,*,#600,.F.);
#431=ORIENTED_EDGE('',*,*,#602,.F.);
#432=ORIENTED_EDGE('',*,*,#604,.F.);
#433=ORIENTED_EDGE('',*,*,#606,.F.);
#434=ORIENTED_EDGE('',*,*,#608,.F.);
#435=ORIENTED_EDGE('',*,*,#610,.F.);
#436=ORIENTED_EDGE('',*,*,#612,.F.);
#437=ORIENTED_EDGE('',*,*,#614,.F.);
#438=ORIENTED_EDGE('',*,*,#616,.F.);
#439=ORIENTED_EDGE('',*,*,#618,.F.);
#440=ORIENTED_EDGE('',*,*,#620,.F.);
#441=ORIENTED_EDGE('',*,*,#622,.F.);
#442=ORIENTED_EDGE('',*,*,#624,.F.);
#443=ORIENTED_EDGE('',*,*,#626,.F.);
#444=ORIENTED_EDGE('',*,*,#628,.F.);
#445=ORIENTED_EDGE('',*,*,#630,.F.);
#446=ORIENTED_EDGE('',*,*,#632,.F.);
#447=ORIENTED_EDGE('',*,*,#633,.F.);
#448=ORIENTED_EDGE('',*,*,#634,.T.);
#449=EDGE_CURVE('',#635,#636,#761,.T.);
#450=EDGE_CURVE('',#637,#635,#762,.T.);
#451=EDGE_CURVE('',#638,#637,#763,.T.);
#452=EDGE_CURVE('',#639,#638,#764,.T.);
#453=EDGE_CURVE('',#640,#639,#765,.T.);
#454=EDGE_CURVE('',#641,#640,#766,.T.);
#455=EDGE_CURVE('',#642,#641,#767,.T.);
#456=EDGE_CURVE('',#643,#642,#768,.T.);
#457=EDGE_CURVE('',#644,#643,#769,.T.);
#458=EDGE_CURVE('',#645,#644,#770,.T.);
#459=EDGE_CURVE('',#646,#645,#771,.T.);
#460=EDGE_CURVE('',#647,#646,#772,.T.);
#461=EDGE_CURVE('',#648,#647,#773,.T.);
#462=EDGE_CURVE('',#649,#648,#774,.T.);
#463=EDGE_CURVE('',#650,#649,#775,.T.);
#464=EDGE_CURVE('',#651,#650,#776,.T.);
#465=EDGE_CURVE('',#652,#651,#777,.T.);
#466=EDGE_CURVE('',#653,#652,#778,.T.);
#467=EDGE_CURVE('',#654,#653,#779,.T.);
#468=EDGE_CURVE('',#636,#654,#780,.T.);
#469=EDGE_CURVE('',#655,#655,#71,.T.);
#470=EDGE_CURVE('',#636,#656,#781,.T.);
#471=EDGE_CURVE('',#656,#657,#782,.T.);
#472=EDGE_CURVE('',#635,#657,#783,.T.);
#473=EDGE_CURVE('',#654,#658,#784,.T.);
#474=EDGE_CURVE('',#658,#656,#785,.T.);
#475=EDGE_CURVE('',#653,#659,#786,.T.);
#476=EDGE_CURVE('',#659,#658,#787,.T.);
#477=EDGE_CURVE('',#652,#660,#788,.T.);
#478=EDGE_CURVE('',#660,#659,#789,.T.);
#479=EDGE_CURVE('',#651,#661,#790,.T.);
#480=EDGE_CURVE('',#661,#660,#791,.T.);
#481=EDGE_CURVE('',#650,#662,#792,.T.);
#482=EDGE_CURVE('',#662,#661,#793,.T.);
#483=EDGE_CURVE('',#649,#663,#794,.T.);
#484=EDGE_CURVE('',#663,#662,#795,.T.);
#485=EDGE_CURVE('',#648,#664,#796,.T.);
#486=EDGE_CURVE('',#664,#663,#797,.T.);
#487=EDGE_CURVE('',#647,#665,#798,.T.);
#488=EDGE_CURVE('',#665,#664,#799,.T.);
#489=EDGE_CURVE('',#646,#666,#800,.T.);
#490=EDGE_CURVE('',#666,#665,#801,.T.);
#491=EDGE_CURVE('',#645,#667,#802,.T.);
#492=EDGE_CURVE('',#667,#666,#803,.T.);
#493=EDGE_CURVE('',#644,#668,#804,.T.);
#494=EDGE_CURVE('',#668,#667,#805,.T.);
#495=EDGE_CURVE('',#643,#669,#806,.T.);
#496=EDGE_CURVE('',#669,#668,#807,.T.);
#497=EDGE_CURVE('',#642,#670,#808,.T.);
#498=EDGE_CURVE('',#670,#669,#809,.T.);
#499=EDGE_CURVE('',#641,#671,#810,.T.);
#500=EDGE_CURVE('',#671,#670,#811,.T.);
#501=EDGE_CURVE('',#640,#672,#812,.T.);
#502=EDGE_CURVE('',#672,#671,#813,.T.);
#503=EDGE_CURVE('',#639,#673,#814,.T.);
#504=EDGE_CURVE('',#673,#672,#815,.T.);
#505=EDGE_CURVE('',#638,#674,#816,.T.);
#506=EDGE_CURVE('',#674,#673,#817,.T.);
#507=EDGE_CURVE('',#637,#675,#818,.T.);
#508=EDGE_CURVE('',#675,#674,#819,.T.);
#509=EDGE_CURVE('',#657,#675,#820,.T.);
#510=EDGE_CURVE('',#676,#676,#72,.F.);
#511=EDGE_CURVE('',#677,#678,#821,.T.);
#512=EDGE_CURVE('',#679,#677,#822,.T.);
#513=EDGE_CURVE('',#680,#679,#823,.T.);
#514=EDGE_CURVE('',#681,#680,#824,.T.);
#515=EDGE_CURVE('',#682,#681,#825,.T.);
#516=EDGE_CURVE('',#683,#682,#826,.T.);
#517=EDGE_CURVE('',#684,#683,#827,.T.);
#518=EDGE_CURVE('',#685,#684,#828,.T.);
#519=EDGE_CURVE('',#686,#685,#829,.T.);
#520=EDGE_CURVE('',#687,#686,#830,.T.);
#521=EDGE_CURVE('',#688,#687,#831,.T.);
#522=EDGE_CURVE('',#689,#688,#832,.T.);
#523=EDGE_CURVE('',#690,#689,#833,.T.);
#524=EDGE_CURVE('',#691,#690,#834,.T.);
#525=EDGE_CURVE('',#692,#691,#835,.T.);
#526=EDGE_CURVE('',#693,#692,#836,.T.);
#527=EDGE_CURVE('',#694,#693,#837,.T.);
#528=EDGE_CURVE('',#695,#694,#838,.T.);
#529=EDGE_CURVE('',#696,#695,#839,.T.);
#530=EDGE_CURVE('',#678,#696,#840,.T.);
#531=EDGE_CURVE('',#697,#697,#73,.T.);
#532=EDGE_CURVE('',#678,#698,#841,.T.);
#533=EDGE_CURVE('',#698,#699,#842,.T.);
#534=EDGE_CURVE('',#677,#699,#843,.T.);
#535=EDGE_CURVE('',#696,#700,#844,.T.);
#536=EDGE_CURVE('',#700,#698,#845,.T.);
#537=EDGE_CURVE('',#695,#701,#846,.T.);
#538=EDGE_CURVE('',#701,#700,#847,.T.);
#539=EDGE_CURVE('',#694,#702,#848,.T.);
#540=EDGE_CURVE('',#702,#701,#849,.T.);
#541=EDGE_CURVE('',#693,#703,#850,.T.);
#542=EDGE_CURVE('',#703,#702,#851,.T.);
#543=EDGE_CURVE('',#692,#704,#852,.T.);
#544=EDGE_CURVE('',#704,#703,#853,.T.);
#545=EDGE_CURVE('',#691,#705,#854,.T.);
#546=EDGE_CURVE('',#705,#704,#855,.T.);
#547=EDGE_CURVE('',#690,#706,#856,.T.);
#548=EDGE_CURVE('',#706,#705,#857,.T.);
#549=EDGE_CURVE('',#689,#707,#858,.T.);
#550=EDGE_CURVE('',#707,#706,#859,.T.);
#551=EDGE_CURVE('',#688,#708,#860,.T.);
#552=EDGE_CURVE('',#708,#707,#861,.T.);
#553=EDGE_CURVE('',#687,#709,#862,.T.);
#554=EDGE_CURVE('',#709,#708,#863,.T.);
#555=EDGE_CURVE('',#686,#710,#864,.T.);
#556=EDGE_CURVE('',#710,#709,#865,.T.);
#557=EDGE_CURVE('',#685,#711,#866,.T.);
#558=EDGE_CURVE('',#711,#710,#867,.T.);
#559=EDGE_CURVE('',#684,#712,#868,.T.);
#560=EDGE_CURVE('',#712,#711,#869,.T.);
#561=EDGE_CURVE('',#683,#713,#870,.T.);
#562=EDGE_CURVE('',#713,#712,#871,.T.);
#563=EDGE_CURVE('',#682,#714,#872,.T.);
#564=EDGE_CURVE('',#714,#713,#873,.T.);
#565=EDGE_CURVE('',#681,#715,#874,.T.);
#566=EDGE_CURVE('',#715,#714,#875,.T.);
#567=EDGE_CURVE('',#680,#716,#876,.T.);
#568=EDGE_CURVE('',#716,#715,#877,.T.);
#569=EDGE_CURVE('',#679,#717,#878,.T.);
#570=EDGE_CURVE('',#717,#716,#879,.T.);
#571=EDGE_CURVE('',#699,#717,#880,.T.);
#572=EDGE_CURVE('',#718,#718,#74,.F.);
#573=EDGE_CURVE('',#719,#720,#881,.T.);
#574=EDGE_CURVE('',#721,#719,#882,.T.);
#575=EDGE_CURVE('',#722,#721,#883,.T.);
#576=EDGE_CURVE('',#723,#722,#884,.T.);
#577=EDGE_CURVE('',#724,#723,#885,.T.);
#578=EDGE_CURVE('',#725,#724,#886,.T.);
#579=EDGE_CURVE('',#726,#725,#887,.T.);
#580=EDGE_CURVE('',#727,#726,#888,.T.);
#581=EDGE_CURVE('',#728,#727,#889,.T.);
#582=EDGE_CURVE('',#729,#728,#890,.T.);
#583=EDGE_CURVE('',#730,#729,#891,.T.);
#584=EDGE_CURVE('',#731,#730,#892,.T.);
#585=EDGE_CURVE('',#732,#731,#893,.T.);
#586=EDGE_CURVE('',#733,#732,#894,.T.);
#587=EDGE_CURVE('',#734,#733,#895,.T.);
#588=EDGE_CURVE('',#735,#734,#896,.T.);
#589=EDGE_CURVE('',#736,#735,#897,.T.);
#590=EDGE_CURVE('',#737,#736,#898,.T.);
#591=EDGE_CURVE('',#738,#737,#899,.T.);
#592=EDGE_CURVE('',#720,#738,#900,.T.);
#593=EDGE_CURVE('',#739,#739,#75,.T.);
#594=EDGE_CURVE('',#720,#740,#901,.T.);
#595=EDGE_CURVE('',#740,#741,#902,.T.);
#596=EDGE_CURVE('',#719,#741,#903,.T.);
#597=EDGE_CURVE('',#738,#742,#904,.T.);
#598=EDGE_CURVE('',#742,#740,#905,.T.);
#599=EDGE_CURVE('',#737,#743,#906,.T.);
#600=EDGE_CURVE('',#743,#742,#907,.T.);
#601=EDGE_CURVE('',#736,#744,#908,.T.);
#602=EDGE_CURVE('',#744,#743,#909,.T.);
#603=EDGE_CURVE('',#735,#745,#910,.T.);
#604=EDGE_CURVE('',#745,#744,#911,.T.);
#605=EDGE_CURVE('',#734,#746,#912,.T.);
#606=EDGE_CURVE('',#746,#745,#913,.T.);
#607=EDGE_CURVE('',#733,#747,#914,.T.);
#608=EDGE_CURVE('',#747,#746,#915,.T.);
#609=EDGE_CURVE('',#732,#748,#916,.T.);
#610=EDGE_CURVE('',#748,#747,#917,.T.);
#611=EDGE_CURVE('',#731,#749,#918,.T.);
#612=EDGE_CURVE('',#749,#748,#919,.T.);
#613=EDGE_CURVE('',#730,#750,#920,.T.);
#614=EDGE_CURVE('',#750,#749,#921,.T.);
#615=EDGE_CURVE('',#729,#751,#922,.T.);
#616=EDGE_CURVE('',#751,#750,#923,.T.);
#617=EDGE_CURVE('',#728,#752,#924,.T.);
#618=EDGE_CURVE('',#752,#751,#925,.T.);
#619=EDGE_CURVE('',#727,#753,#926,.T.);
#620=EDGE_CURVE('',#753,#752,#927,.T.);
#621=EDGE_CURVE('',#726,#754,#928,.T.);
#622=EDGE_CURVE('',#754,#753,#929,.T.);
#623=EDGE_CURVE('',#725,#755,#930,.T.);
#624=EDGE_CURVE('',#755,#754,#931,.T.);
#625=EDGE_CURVE('',#724,#756,#932,.T.);
#626=EDGE_CURVE('',#756,#755,#933,.T.);
#627=EDGE_CURVE('',#723,#757,#934,.T.);
#628=EDGE_CURVE('',#757,#756,#935,.T.);
#629=EDGE_CURVE('',#722,#758,#936,.T.);
#630=EDGE_CURVE('',#758,#757,#937,.T.);
#631=EDGE_CURVE('',#721,#759,#938,.T.);
#632=EDGE_CURVE('',#759,#758,#939,.T.);
#633=EDGE_CURVE('',#741,#759,#940,.T.);
#634=EDGE_CURVE('',#760,#760,#76,.F.);
#635=VERTEX_POINT('',#1898);
#636=VERTEX_POINT('',#1899);
#637=VERTEX_POINT('',#1901);
#638=VERTEX_POINT('',#1903);
#639=VERTEX_POINT('',#1905);
#640=VERTEX_POINT('',#1907);
#641=VERTEX_POINT('',#1909);
#642=VERTEX_POINT('',#1911);
#643=VERTEX_POINT('',#1913);
#644=VERTEX_POINT('',#1915);
#645=VERTEX_POINT('',#1917);
#646=VERTEX_POINT('',#1919);
#647=VERTEX_POINT('',#1921);
#648=VERTEX_POINT('',#1923);
#649=VERTEX_POINT('',#1925);
#650=VERTEX_POINT('',#1927);
#651=VERTEX_POINT('',#1929);
#652=VERTEX_POINT('',#1931);
#653=VERTEX_POINT('',#1933);
#654=VERTEX_POINT('',#1935);
#655=VERTEX_POINT('',#1938);
#656=VERTEX_POINT('',#1941);
#657=VERTEX_POINT('',#1943);
#658=VERTEX_POINT('',#1947);
#659=VERTEX_POINT('',#1951);
#660=VERTEX_POINT('',#1955);
#661=VERTEX_POINT('',#1959);
#662=VERTEX_POINT('',#1963);
#663=VERTEX_POINT('',#1967);
#664=VERTEX_POINT('',#1971);
#665=VERTEX_POINT('',#1975);
#666=VERTEX_POINT('',#1979);
#667=VERTEX_POINT('',#1983);
#668=VERTEX_POINT('',#1987);
#669=VERTEX_POINT('',#1991);
#670=VERTEX_POINT('',#1995);
#671=VERTEX_POINT('',#1999);
#672=VERTEX_POINT('',#2003);
#673=VERTEX_POINT('',#2007);
#674=VERTEX_POINT('',#2011);
#675=VERTEX_POINT('',#2015);
#676=VERTEX_POINT('',#2021);
#677=VERTEX_POINT('',#2026);
#678=VERTEX_POINT('',#2027);
#679=VERTEX_POINT('',#2029);
#680=VERTEX_POINT('',#2031);
#681=VERTEX_POINT('',#2033);
#682=VERTEX_POINT('',#2035);
#683=VERTEX_POINT('',#2037);
#684=VERTEX_POINT('',#2039);
#685=VERTEX_POINT('',#2041);
#686=VERTEX_POINT('',#2043);
#687=VERTEX_POINT('',#2045);
#688=VERTEX_POINT('',#2047);
#689=VERTEX_POINT('',#2049);
#690=VERTEX_POINT('',#2051);
#691=VERTEX_POINT('',#2053);
#692=VERTEX_POINT('',#2055);
#693=VERTEX_POINT('',#2057);
#694=VERTEX_POINT('',#2059);
#695=VERTEX_POINT('',#2061);
#696=VERTEX_POINT('',#2063);
#697=VERTEX_POINT('',#2066);
#698=VERTEX_POINT('',#2069);
#699=VERTEX_POINT('',#2071);
#700=VERTEX_POINT('',#2075);
#701=VERTEX_POINT('',#2079);
#702=VERTEX_POINT('',#2083);
#703=VERTEX_POINT('',#2087);
#704=VERTEX_POINT('',#2091);
#705=VERTEX_POINT('',#2095);
#706=VERTEX_POINT('',#2099);
#707=VERTEX_POINT('',#2103);
#708=VERTEX_POINT('',#2107);
#709=VERTEX_POINT('',#2111);
#710=VERTEX_POINT('',#2115);
#711=VERTEX_POINT('',#2119);
#712=VERTEX_POINT('',#2123);
#713=VERTEX_POINT('',#2127);
#714=VERTEX_POINT('',#2131);
#715=VERTEX_POINT('',#2135);
#716=VERTEX_POINT('',#2139);
#717=VERTEX_POINT('',#2143);
#718=VERTEX_POINT('',#2149);
#719=VERTEX_POINT('',#2154);
#720=VERTEX_POINT('',#2155);
#721=VERTEX_POINT('',#2157);
#722=VERTEX_POINT('',#2159);
#723=VERTEX_POINT('',#2161);
#724=VERTEX_POINT('',#2163);
#725=VERTEX_POINT('',#2165);
#726=VERTEX_POINT('',#2167);
#727=VERTEX_POINT('',#2169);
#728=VERTEX_POINT('',#2171);
#729=VERTEX_POINT('',#2173);
#730=VERTEX_POINT('',#2175);
#731=VERTEX_POINT('',#2177);
#732=VERTEX_POINT('',#2179);
#733=VERTEX_POINT('',#2181);
#734=VERTEX_POINT('',#2183);
#735=VERTEX_POINT('',#2185);
#736=VERTEX_POINT('',#2187);
#737=VERTEX_POINT('',#2189);
#738=VERTEX_POINT('',#2191);
#739=VERTEX_POINT('',#2194);
#740=VERTEX_POINT('',#2197);
#741=VERTEX_POINT('',#2199);
#742=VERTEX_POINT('',#2203);
#743=VERTEX_POINT('',#2207);
#744=VERTEX_POINT('',#2211);
#745=VERTEX_POINT('',#2215);
#746=VERTEX_POINT('',#2219);
#747=VERTEX_POINT('',#2223);
#748=VERTEX_POINT('',#2227);
#749=VERTEX_POINT('',#2231);
#750=VERTEX_POINT('',#2235);
#751=VERTEX_POINT('',#2239);
#752=VERTEX_POINT('',#2243);
#753=VERTEX_POINT('',#2247);
#754=VERTEX_POINT('',#2251);
#755=VERTEX_POINT('',#2255);
#756=VERTEX_POINT('',#2259);
#757=VERTEX_POINT('',#2263);
#758=VERTEX_POINT('',#2267);
#759=VERTEX_POINT('',#2271);
#760=VERTEX_POINT('',#2277);
#761=LINE('',#1897,#941);
#762=LINE('',#1900,#942);
#763=LINE('',#1902,#943);
#764=LINE('',#1904,#944);
#765=LINE('',#1906,#945);
#766=LINE('',#1908,#946);
#767=LINE('',#1910,#947);
#768=LINE('',#1912,#948);
#769=LINE('',#1914,#949);
#770=LINE('',#1916,#950);
#771=LINE('',#1918,#951);
#772=LINE('',#1920,#952);
#773=LINE('',#1922,#953);
#774=LINE('',#1924,#954);
#775=LINE('',#1926,#955);
#776=LINE('',#1928,#956);
#777=LINE('',#1930,#957);
#778=LINE('',#1932,#958);
#779=LINE('',#1934,#959);
#780=LINE('',#1936,#960);
#781=LINE('',#1940,#961);
#782=LINE('',#1942,#962);
#783=LINE('',#1944,#963);
#784=LINE('',#1946,#964);
#785=LINE('',#1948,#965);
#786=LINE('',#1950,#966);
#787=LINE('',#1952,#967);
#788=LINE('',#1954,#968);
#789=LINE('',#1956,#969);
#790=LINE('',#1958,#970);
#791=LINE('',#1960,#971);
#792=LINE('',#1962,#972);
#793=LINE('',#1964,#973);
#794=LINE('',#1966,#974);
#795=LINE('',#1968,#975);
#796=LINE('',#1970,#976);
#797=LINE('',#1972,#977);
#798=LINE('',#1974,#978);
#799=LINE('',#1976,#979);
#800=LINE('',#1978,#980);
#801=LINE('',#1980,#981);
#802=LINE('',#1982,#982);
#803=LINE('',#1984,#983);
#804=LINE('',#1986,#984);
#805=LINE('',#1988,#985);
#806=LINE('',#1990,#986);
#807=LINE('',#1992,#987);
#808=LINE('',#1994,#988);
#809=LINE('',#1996,#989);
#810=LINE('',#1998,#990);
#811=LINE('',#2000,#991);
#812=LINE('',#2002,#992);
#813=LINE('',#2004,#993);
#814=LINE('',#2006,#994);
#815=LINE('',#2008,#995);
#816=LINE('',#2010,#996);
#817=LINE('',#2012,#997);
#818=LINE('',#2014,#998);
#819=LINE('',#2016,#999);
#820=LINE('',#2018,#1000);
#821=LINE('',#2025,#1001);
#822=LINE('',#2028,#1002);
#823=LINE('',#2030,#1003);
#824=LINE('',#2032,#1004);
#825=LINE('',#2034,#1005);
#826=LINE('',#2036,#1006);
#827=LINE('',#2038,#1007);
#828=LINE('',#2040,#1008);
#829=LINE('',#2042,#1009);
#830=LINE('',#2044,#1010);
#831=LINE('',#2046,#1011);
#832=LINE('',#2048,#1012);
#833=LINE('',#2050,#1013);
#834=LINE('',#2052,#1014);
#835=LINE('',#2054,#1015);
#836=LINE('',#2056,#1016);
#837=LINE('',#2058,#1017);
#838=LINE('',#2060,#1018);
#839=LINE('',#2062,#1019);
#840=LINE('',#2064,#1020);
#841=LINE('',#2068,#1021);
#842=LINE('',#2070,#1022);
#843=LINE('',#2072,#1023);
#844=LINE('',#2074,#1024);
#845=LINE('',#2076,#1025);
#846=LINE('',#2078,#1026);
#847=LINE('',#2080,#1027);
#848=LINE('',#2082,#1028);
#849=LINE('',#2084,#1029);
#850=LINE('',#2086,#1030);
#851=LINE('',#2088,#1031);
#852=LINE('',#2090,#1032);
#853=LINE('',#2092,#1033);
#854=LINE('',#2094,#1034);
#855=LINE('',#2096,#1035);
#856=LINE('',#2098,#1036);
#857=LINE('',#2100,#1037);
#858=LINE('',#2102,#1038);
#859=LINE('',#2104,#1039);
#860=LINE('',#2106,#1040);
#861=LINE('',#2108,#1041);
#862=LINE('',#2110,#1042);
#863=LINE('',#2112,#1043);
#864=LINE('',#2114,#1044);
#865=LINE('',#2116,#1045);
#866=LINE('',#2118,#1046);
#867=LINE('',#2120,#1047);
#868=LINE('',#2122,#1048);
#869=LINE('',#2124,#1049);
#870=LINE('',#2126,#1050);
#871=LINE('',#2128,#1051);
#872=LINE('',#2130,#1052);
#873=LINE('',#2132,#1053);
#874=LINE('',#2134,#1054);
#875=LINE('',#2136,#1055);
#876=LINE('',#2138,#1056);
#877=LINE('',#2140,#1057);
#878=LINE('',#2142,#1058);
#879=LINE('',#2144,#1059);
#880=LINE('',#2146,#1060);
#881=LINE('',#2153,#1061);
#882=LINE('',#2156,#1062);
#883=LINE('',#2158,#1063);
#884=LINE('',#2160,#1064);
#885=LINE('',#2162,#1065);
#886=LINE('',#2164,#1066);
#887=LINE('',#2166,#1067);
#888=LINE('',#2168,#1068);
#889=LINE('',#2170,#1069);
#890=LINE('',#2172,#1070);
#891=LINE('',#2174,#1071);
#892=LINE('',#2176,#1072);
#893=LINE('',#2178,#1073);
#894=LINE('',#2180,#1074);
#895=LINE('',#2182,#1075);
#896=LINE('',#2184,#1076);
#897=LINE('',#2186,#1077);
#898=LINE('',#2188,#1078);
#899=LINE('',#2190,#1079);
#900=LINE('',#2192,#1080);
#901=LINE('',#2196,#1081);
#902=LINE('',#2198,#1082);
#903=LINE('',#2200,#1083);
#904=LINE('',#2202,#1084);
#905=LINE('',#2204,#1085);
#906=LINE('',#2206,#1086);
#907=LINE('',#2208,#1087);
#908=LINE('',#2210,#1088);
#909=LINE('',#2212,#1089);
#910=LINE('',#2214,#1090);
#911=LINE('',#2216,#1091);
#912=LINE('',#2218,#1092);
#913=LINE('',#2220,#1093);
#914=LINE('',#2222,#1094);
#915=LINE('',#2224,#1095);
#916=LINE('',#2226,#1096);
#917=LINE('',#2228,#1097);
#918=LINE('',#2230,#1098);
#919=LINE('',#2232,#1099);
#920=LINE('',#2234,#1100);
#921=LINE('',#2236,#1101);
#922=LINE('',#2238,#1102);
#923=LINE('',#2240,#1103);
#924=LINE('',#2242,#1104);
#925=LINE('',#2244,#1105);
#926=LINE('',#2246,#1106);
#927=LINE('',#2248,#1107);
#928=LINE('',#2250,#1108);
#929=LINE('',#2252,#1109);
#930=LINE('',#2254,#1110);
#931=LINE('',#2256,#1111);
#932=LINE('',#2258,#1112);
#933=LINE('',#2260,#1113);
#934=LINE('',#2262,#1114);
#935=LINE('',#2264,#1115);
#936=LINE('',#2266,#1116);
#937=LINE('',#2268,#1117);
#938=LINE('',#2270,#1118);
#939=LINE('',#2272,#1119);
#940=LINE('',#2274,#1120);
#941=VECTOR('',#1541,1.);
#942=VECTOR('',#1542,1.);
#943=VECTOR('',#1543,1.);
#944=VECTOR('',#1544,1.);
#945=VECTOR('',#1545,1.);
#946=VECTOR('',#1546,1.);
#947=VECTOR('',#1547,1.);
#948=VECTOR('',#1548,1.);
#949=VECTOR('',#1549,1.);
#950=VECTOR('',#1550,1.);
#951=VECTOR('',#1551,1.);
#952=VECTOR('',#1552,1.);
#953=VECTOR('',#1553,1.);
#954=VECTOR('',#1554,1.);
#955=VECTOR('',#1555,1.);
#956=VECTOR('',#1556,1.);
#957=VECTOR('',#1557,1.);
#958=VECTOR('',#1558,1.);
#959=VECTOR('',#1559,1.);
#960=VECTOR('',#1560,1.);
#961=VECTOR('',#1565,1.);
#962=VECTOR('',#1566,1.);
#963=VECTOR('',#1567,1.);
#964=VECTOR('',#1570,1.);
#965=VECTOR('',#1571,1.);
#966=VECTOR('',#1574,1.);
#967=VECTOR('',#1575,1.);
#968=VECTOR('',#1578,1.);
#969=VECTOR('',#1579,1.);
#970=VECTOR('',#1582,1.);
#971=VECTOR('',#1583,1.);
#972=VECTOR('',#1586,1.);
#973=VECTOR('',#1587,1.);
#974=VECTOR('',#1590,1.);
#975=VECTOR('',#1591,1.);
#976=VECTOR('',#1594,1.);
#977=VECTOR('',#1595,1.);
#978=VECTOR('',#1598,1.);
#979=VECTOR('',#1599,1.);
#980=VECTOR('',#1602,1.);
#981=VECTOR('',#1603,1.);
#982=VECTOR('',#1606,1.);
#983=VECTOR('',#1607,1.);
#984=VECTOR('',#1610,1.);
#985=VECTOR('',#1611,1.);
#986=VECTOR('',#1614,1.);
#987=VECTOR('',#1615,1.);
#988=VECTOR('',#1618,1.);
#989=VECTOR('',#1619,1.);
#990=VECTOR('',#1622,1.);
#991=VECTOR('',#1623,1.);
#992=VECTOR('',#1626,1.);
#993=VECTOR('',#1627,1.);
#994=VECTOR('',#1630,1.);
#995=VECTOR('',#1631,1.);
#996=VECTOR('',#1634,1.);
#997=VECTOR('',#1635,1.);
#998=VECTOR('',#1638,1.);
#999=VECTOR('',#1639,1.);
#1000=VECTOR('',#1642,1.);
#1001=VECTOR('',#1653,1.);
#1002=VECTOR('',#1654,1.);
#1003=VECTOR('',#1655,1.);
#1004=VECTOR('',#1656,1.);
#1005=VECTOR('',#1657,1.);
#1006=VECTOR('',#1658,1.);
#1007=VECTOR('',#1659,1.);
#1008=VECTOR('',#1660,1.);
#1009=VECTOR('',#1661,1.);
#1010=VECTOR('',#1662,1.);
#1011=VECTOR('',#1663,1.);
#1012=VECTOR('',#1664,1.);
#1013=VECTOR('',#1665,1.);
#1014=VECTOR('',#1666,1.);
#1015=VECTOR('',#1667,1.);
#1016=VECTOR('',#1668,1.);
#1017=VECTOR('',#1669,1.);
#1018=VECTOR('',#1670,1.);
#1019=VECTOR('',#1671,1.);
#1020=VECTOR('',#1672,1.);
#1021=VECTOR('',#1677,1.);
#1022=VECTOR('',#1678,1.);
#1023=VECTOR('',#1679,1.);
#1024=VECTOR('',#1682,1.);
#1025=VECTOR('',#1683,1.);
#1026=VECTOR('',#1686,1.);
#1027=VECTOR('',#1687,1.);
#1028=VECTOR('',#1690,1.);
#1029=VECTOR('',#1691,1.);
#1030=VECTOR('',#1694,1.);
#1031=VECTOR('',#1695,1.);
#1032=VECTOR('',#1698,1.);
#1033=VECTOR('',#1699,1.);
#1034=VECTOR('',#1702,1.);
#1035=VECTOR('',#1703,1.);
#1036=VECTOR('',#1706,1.);
#1037=VECTOR('',#1707,1.);
#1038=VECTOR('',#1710,1.);
#1039=VECTOR('',#1711,1.);
#1040=VECTOR('',#1714,1.);
#1041=VECTOR('',#1715,1.);
#1042=VECTOR('',#1718,1.);
#1043=VECTOR('',#1719,1.);
#1044=VECTOR('',#1722,1.);
#1045=VECTOR('',#1723,1.);
#1046=VECTOR('',#1726,1.);
#1047=VECTOR('',#1727,1.);
#1048=VECTOR('',#1730,1.);
#1049=VECTOR('',#1731,1.);
#1050=VECTOR('',#1734,1.);
#1051=VECTOR('',#1735,1.);
#1052=VECTOR('',#1738,1.);
#1053=VECTOR('',#1739,1.);
#1054=VECTOR('',#1742,1.);
#1055=VECTOR('',#1743,1.);
#1056=VECTOR('',#1746,1.);
#1057=VECTOR('',#1747,1.);
#1058=VECTOR('',#1750,1.);
#1059=VECTOR('',#1751,1.);
#1060=VECTOR('',#1754,1.);
#1061=VECTOR('',#1765,1.);
#1062=VECTOR('',#1766,1.);
#1063=VECTOR('',#1767,1.);
#1064=VECTOR('',#1768,1.);
#1065=VECTOR('',#1769,1.);
#1066=VECTOR('',#1770,1.);
#1067=VECTOR('',#1771,1.);
#1068=VECTOR('',#1772,1.);
#1069=VECTOR('',#1773,1.);
#1070=VECTOR('',#1774,1.);
#1071=VECTOR('',#1775,1.);
#1072=VECTOR('',#1776,1.);
#1073=VECTOR('',#1777,1.);
#1074=VECTOR('',#1778,1.);
#1075=VECTOR('',#1779,1.);
#1076=VECTOR('',#1780,1.);
#1077=VECTOR('',#1781,1.);
#1078=VECTOR('',#1782,1.);
#1079=VECTOR('',#1783,1.);
#1080=VECTOR('',#1784,1.);
#1081=VECTOR('',#1789,1.);
#1082=VECTOR('',#1790,1.);
#1083=VECTOR('',#1791,1.);
#1084=VECTOR('',#1794,1.);
#1085=VECTOR('',#1795,1.);
#1086=VECTOR('',#1798,1.);
#1087=VECTOR('',#1799,1.);
#1088=VECTOR('',#1802,1.);
#1089=VECTOR('',#1803,1.);
#1090=VECTOR('',#1806,1.);
#1091=VECTOR('',#1807,1.);
#1092=VECTOR('',#1810,1.);
#1093=VECTOR('',#1811,1.);
#1094=VECTOR('',#1814,1.);
#1095=VECTOR('',#1815,1.);
#1096=VECTOR('',#1818,1.);
#1097=VECTOR('',#1819,1.);
#1098=VECTOR('',#1822,1.);
#1099=VECTOR('',#1823,1.);
#1100=VECTOR('',#1826,1.);
#1101=VECTOR('',#1827,1.);
#1102=VECTOR('',#1830,1.);
#1103=VECTOR('',#1831,1.);
#1104=VECTOR('',#1834,1.);
#1105=VECTOR('',#1835,1.);
#1106=VECTOR('',#1838,1.);
#1107=VECTOR('',#1839,1.);
#1108=VECTOR('',#1842,1.);
#1109=VECTOR('',#1843,1.);
#1110=VECTOR('',#1846,1.);
#1111=VECTOR('',#1847,1.);
#1112=VECTOR('',#1850,1.);
#1113=VECTOR('',#1851,1.);
#1114=VECTOR('',#1854,1.);
#1115=VECTOR('',#1855,1.);
#1116=VECTOR('',#1858,1.);
#1117=VECTOR('',#1859,1.);
#1118=VECTOR('',#1862,1.);
#1119=VECTOR('',#1863,1.);
#1120=VECTOR('',#1866,1.);
#1121=EDGE_LOOP('',(#77,#78,#79,#80,#81,#82,#83,#84,#85,#86,#87,#88,#89,#90,#91,#92,#93,#94,#95,#96));
#1122=EDGE_LOOP('',(#97));
#1123=EDGE_LOOP('',(#98,#99,#100,#101));
#1124=EDGE_LOOP('',(#102,#103,#104,#105));
#1125=EDGE_LOOP('',(#106,#107,#108,#109));
#1126=EDGE_LOOP('',(#110,#111,#112,#113));
#1127=EDGE_LOOP('',(#114,#115,#116,#117));
#1128=EDGE_LOOP('',(#118,#119,#120,#121));
#1129=EDGE_LOOP('',(#122,#123,#124,#125));
#1130=EDGE_LOOP('',(#126,#127,#128,#129));
#1131=EDGE_LOOP('',(#130,#131,#132,#133));
#1132=EDGE_LOOP('',(#134,#135,#136,#137));
#1133=EDGE_LOOP('',(#138,#139,#140,#141));
#1134=EDGE_LOOP('',(#142,#143,#144,#145));
#1135=EDGE_LOOP('',(#146,#147,#148,#149));
#1136=EDGE_LOOP('',(#150,#151,#152,#153));
#1137=EDGE_LOOP('',(#154,#155,#156,#157));
#1138=EDGE_LOOP('',(#158,#159,#160,#161));
#1139=EDGE_LOOP('',(#162,#163,#164,#165));
#1140=EDGE_LOOP('',(#166,#167,#168,#169));
#1141=EDGE_LOOP('',(#170,#171,#172,#173));
#1142=EDGE_LOOP('',(#174,#175,#176,#177));
#1143=EDGE_LOOP('',(#178));
#1144=EDGE_LOOP('',(#179));
#1145=EDGE_LOOP('',(#180,#181,#182,#183,#184,#185,#186,#187,#188,#189,#190,#191,#192,#193,#194,#195,#196,#197,#198,#199));
#1146=EDGE_LOOP('',(#200));
#1147=EDGE_LOOP('',(#201,#202,#203,#204,#205,#206,#207,#208,#209,#210,#211,#212,#213,#214,#215,#216,#217,#218,#219,#220));
#1148=EDGE_LOOP('',(#221));
#1149=EDGE_LOOP('',(#222,#223,#224,#225));
#1150=EDGE_LOOP('',(#226,#227,#228,#229));
#1151=EDGE_LOOP('',(#230,#231,#232,#233));
#1152=EDGE_LOOP('',(#234,#235,#236,#237));
#1153=EDGE_LOOP('',(#238,#239,#240,#241));
#1154=EDGE_LOOP('',(#242,#243,#244,#245));
#1155=EDGE_LOOP('',(#246,#247,#248,#249));
#1156=EDGE_LOOP('',(#250,#251,#252,#253));
#1157=EDGE_LOOP('',(#254,#255,#256,#257));
#1158=EDGE_LOOP('',(#258,#259,#260,#261));
#1159=EDGE_LOOP('',(#262,#263,#264,#265));
#1160=EDGE_LOOP('',(#266,#267,#268,#269));
#1161=EDGE_LOOP('',(#270,#271,#272,#273));
#1162=EDGE_LOOP('',(#274,#275,#276,#277));
#1163=EDGE_LOOP('',(#278,#279,#280,#281));
#1164=EDGE_LOOP('',(#282,#283,#284,#285));
#1165=EDGE_LOOP('',(#286,#287,#288,#289));
#1166=EDGE_LOOP('',(#290,#291,#292,#293));
#1167=EDGE_LOOP('',(#294,#295,#296,#297));
#1168=EDGE_LOOP('',(#298,#299,#300,#301));
#1169=EDGE_LOOP('',(#302));
#1170=EDGE_LOOP('',(#303));
#1171=EDGE_LOOP('',(#304,#305,#306,#307,#308,#309,#310,#311,#312,#313,#314,#315,#316,#317,#318,#319,#320,#321,#322,#323));
#1172=EDGE_LOOP('',(#324));
#1173=EDGE_LOOP('',(#325,#326,#327,#328,#329,#330,#331,#332,#333,#334,#335,#336,#337,#338,#339,#340,#341,#342,#343,#344));
#1174=EDGE_LOOP('',(#345));
#1175=EDGE_LOOP('',(#346,#347,#348,#349));
#1176=EDGE_LOOP('',(#350,#351,#352,#353));
#1177=EDGE_LOOP('',(#354,#355,#356,#357));
#1178=EDGE_LOOP('',(#358,#359,#360,#361));
#1179=EDGE_LOOP('',(#362,#363,#364,#365));
#1180=EDGE_LOOP('',(#366,#367,#368,#369));
#1181=EDGE_LOOP('',(#370,#371,#372,#373));
#1182=EDGE_LOOP('',(#374,#375,#376,#377));
#1183=EDGE_LOOP('',(#378,#379,#380,#381));
#1184=EDGE_LOOP('',(#382,#383,#384,#385));
#1185=EDGE_LOOP('',(#386,#387,#388,#389));
#1186=EDGE_LOOP('',(#390,#391,#392,#393));
#1187=EDGE_LOOP('',(#394,#395,#396,#397));
#1188=EDGE_LOOP('',(#398,#399,#400,#401));
#1189=EDGE_LOOP('',(#402,#403,#404,#405));
#1190=EDGE_LOOP('',(#406,#407,#408,#409));
#1191=EDGE_LOOP('',(#410,#411,#412,#413));
#1192=EDGE_LOOP('',(#414,#415,#416,#417));
#1193=EDGE_LOOP('',(#418,#419,#420,#421));
#1194=EDGE_LOOP('',(#422,#423,#424,#425));
#1195=EDGE_LOOP('',(#426));
#1196=EDGE_LOOP('',(#427));
#1197=EDGE_LOOP('',(#428,#429,#430,#431,#432,#433,#434,#435,#436,#437,#438,#439,#440,#441,#442,#443,#444,#445,#446,#447));
#1198=EDGE_LOOP('',(#448));
#1199=FACE_BOUND('',#1121,.T.);
#1200=FACE_BOUND('',#1122,.T.);
#1201=FACE_BOUND('',#1123,.T.);
#1202=FACE_BOUND('',#1124,.T.);
#1203=FACE_BOUND('',#1125,.T.);
#1204=FACE_BOUND('',#1126,.T.);
#1205=FACE_BOUND('',#1127,.T.);
#1206=FACE_BOUND('',#1128,.T.);
#1207=FACE_BOUND('',#1129,.T.);
#1208=FACE_BOUND('',#1130,.T.);
#1209=FACE_BOUND('',#1131,.T.);
#1210=FACE_BOUND('',#1132,.T.);
#1211=FACE_BOUND('',#1133,.T.);
#1212=FACE_BOUND('',#1134,.T.);
#1213=FACE_BOUND('',#1135,.T.);
#1214=FACE_BOUND('',#1136,.T.);
#1215=FACE_BOUND('',#1137,.T.);
#1216=FACE_BOUND('',#1138,.T.);
#1217=FACE_BOUND('',#1139,.T.);
#1218=FACE_BOUND('',#1140,.T.);
#1219=FACE_BOUND('',#1141,.T.);
#1220=FACE_BOUND('',#1142,.T.);
#1221=FACE_BOUND('',#1143,.T.);
#1222=FACE_BOUND('',#1144,.T.);
#1223=FACE_BOUND('',#1145,.T.);
#1224=FACE_BOUND('',#1146,.T.);
#1225=FACE_BOUND('',#1147,.T.);
#1226=FACE_BOUND('',#1148,.T.);
#1227=FACE_BOUND('',#1149,.T.);
#1228=FACE_BOUND('',#1150,.T.);
#1229=FACE_BOUND('',#1151,.T.);
#1230=FACE_BOUND('',#1152,.T.);
#1231=FACE_BOUND('',#1153,.T.);
#1232=FACE_BOUND('',#1154,.T.);
#1233=FACE_BOUND('',#1155,.T.);
#1234=FACE_BOUND('',#1156,.T.);
#1235=FACE_BOUND('',#1157,.T.);
#1236=FACE_BOUND('',#1158,.T.);
#1237=FACE_BOUND('',#1159,.T.);
#1238=FACE_BOUND('',#1160,.T.);
#1239=FACE_BOUND('',#1161,.T.);
#1240=FACE_BOUND('',#1162,.T.);
#1241=FACE_BOUND('',#1163,.T.);
#1242=FACE_BOUND('',#1164,.T.);
#1243=FACE_BOUND('',#1165,.T.);
#1244=FACE_BOUND('',#1166,.T.);
#1245=FACE_BOUND('',#1167,.T.);
#1246=FACE_BOUND('',#1168,.T.);
#1247=FACE_BOUND('',#1169,.T.);
#1248=FACE_BOUND('',#1170,.T.);
#1249=FACE_BOUND('',#1171,.T.);
#1250=FACE_BOUND('',#1172,.T.);
#1251=FACE_BOUND('',#1173,.T.);
#1252=FACE_BOUND('',#1174,.T.);
#1253=FACE_BOUND('',#1175,.T.);
#1254=FACE_BOUND('',#1176,.T.);
#1255=FACE_BOUND('',#1177,.T.);
#1256=FACE_BOUND('',#1178,.T.);
#1257=FACE_BOUND('',#1179,.T.);
#1258=FACE_BOUND('',#1180,.T.);
#1259=FACE_BOUND('',#1181,.T.);
#1260=FACE_BOUND('',#1182,.T.);
#1261=FACE_BOUND('',#1183,.T.);
#1262=FACE_BOUND('',#1184,.T.);
#1263=FACE_BOUND('',#1185,.T.);
#1264=FACE_BOUND('',#1186,.T.);
#1265=FACE_BOUND('',#1187,.T.);
#1266=FACE_BOUND('',#1188,.T.);
#1267=FACE_BOUND('',#1189,.T.);
#1268=FACE_BOUND('',#1190,.T.);
#1269=FACE_BOUND('',#1191,.T.);
#1270=FACE_BOUND('',#1192,.T.);
#1271=FACE_BOUND('',#1193,.T.);
#1272=FACE_BOUND('',#1194,.T.);
#1273=FACE_BOUND('',#1195,.T.);
#1274=FACE_BOUND('',#1196,.T.);
#1275=FACE_BOUND('',#1197,.T.);
#1276=FACE_BOUND('',#1198,.T.);
#1277=PLANE('',#1449);
#1278=PLANE('',#1451);
#1279=PLANE('',#1452);
#1280=PLANE('',#1453);
#1281=PLANE('',#1454);
#1282=PLANE('',#1455);
#1283=PLANE('',#1456);
#1284=PLANE('',#1457);
#1285=PLANE('',#1458);
#1286=PLANE('',#1459);
#1287=PLANE('',#1460);
#1288=PLANE('',#1461);
#1289=PLANE('',#1462);
#1290=PLANE('',#1463);
#1291=PLANE('',#1464);
#1292=PLANE('',#1465);
#1293=PLANE('',#1466);
#1294=PLANE('',#1467);
#1295=PLANE('',#1468);
#1296=PLANE('',#1469);
#1297=PLANE('',#1470);
#1298=PLANE('',#1473);
#1299=PLANE('',#1475);
#1300=PLANE('',#1477);
#1301=PLANE('',#1478);
#1302=PLANE('',#1479);
#1303=PLANE('',#1480);
#1304=PLANE('',#1481);
#1305=PLANE('',#1482);
#1306=PLANE('',#1483);
#1307=PLANE('',#1484);
#1308=PLANE('',#1485);
#1309=PLANE('',#1486);
#1310=PLANE('',#1487);
#1311=PLANE('',#1488);
#1312=PLANE('',#1489);
#1313=PLANE('',#1490);
#1314=PLANE('',#1491);
#1315=PLANE('',#1492);
#1316=PLANE('',#1493);
#1317=PLANE('',#1494);
#1318=PLANE('',#1495);
#1319=PLANE('',#1496);
#1320=PLANE('',#1499);
#1321=PLANE('',#1501);
#1322=PLANE('',#1503);
#1323=PLANE('',#1504);
#1324=PLANE('',#1505);
#1325=PLANE('',#1506);
#1326=PLANE('',#1507);
#1327=PLANE('',#1508);
#1328=PLANE('',#1509);
#1329=PLANE('',#1510);
#1330=PLANE('',#1511);
#1331=PLANE('',#1512);
#1332=PLANE('',#1513);
#1333=PLANE('',#1514);
#1334=PLANE('',#1515);
#1335=PLANE('',#1516);
#1336=PLANE('',#1517);
#1337=PLANE('',#1518);
#1338=PLANE('',#1519);
#1339=PLANE('',#1520);
#1340=PLANE('',#1521);
#1341=PLANE('',#1522);
#1342=PLANE('',#1525);
#1343=ADVANCED_FACE('',(#1199,#1200),#1277,.F.);
#1344=ADVANCED_FACE('',(#1201),#1278,.T.);
#1345=ADVANCED_FACE('',(#1202),#1279,.T.);
#1346=ADVANCED_FACE('',(#1203),#1280,.T.);
#1347=ADVANCED_FACE('',(#1204),#1281,.T.);
#1348=ADVANCED_FACE('',(#1205),#1282,.T.);
#1349=ADVANCED_FACE('',(#1206),#1283,.T.);
#1350=ADVANCED_FACE('',(#1207),#1284,.T.);
#1351=ADVANCED_FACE('',(#1208),#1285,.T.);
#1352=ADVANCED_FACE('',(#1209),#1286,.T.);
#1353=ADVANCED_FACE('',(#1210),#1287,.T.);
#1354=ADVANCED_FACE('',(#1211),#1288,.T.);
#1355=ADVANCED_FACE('',(#1212),#1289,.T.);
#1356=ADVANCED_FACE('',(#1213),#1290,.T.);
#1357=ADVANCED_FACE('',(#1214),#1291,.T.);
#1358=ADVANCED_FACE('',(#1215),#1292,.T.);
#1359=ADVANCED_FACE('',(#1216),#1293,.T.);
#1360=ADVANCED_FACE('',(#1217),#1294,.T.);
#1361=ADVANCED_FACE('',(#1218),#1295,.T.);
#1362=ADVANCED_FACE('',(#1219),#1296,.T.);
#1363=ADVANCED_FACE('',(#1220),#1297,.T.);
#1364=ADVANCED_FACE('',(#1221,#1222),#68,.F.);
#1365=ADVANCED_FACE('',(#1223,#1224),#1298,.T.);
#1366=ADVANCED_FACE('',(#1225,#1226),#1299,.F.);
#1367=ADVANCED_FACE('',(#1227),#1300,.T.);
#1368=ADVANCED_FACE('',(#1228),#1301,.T.);
#1369=ADVANCED_FACE('',(#1229),#1302,.T.);
#1370=ADVANCED_FACE('',(#1230),#1303,.T.);
#1371=ADVANCED_FACE('',(#1231),#1304,.T.);
#1372=ADVANCED_FACE('',(#1232),#1305,.T.);
#1373=ADVANCED_FACE('',(#1233),#1306,.T.);
#1374=ADVANCED_FACE('',(#1234),#1307,.T.);
#1375=ADVANCED_FACE('',(#1235),#1308,.T.);
#1376=ADVANCED_FACE('',(#1236),#1309,.T.);
#1377=ADVANCED_FACE('',(#1237),#1310,.T.);
#1378=ADVANCED_FACE('',(#1238),#1311,.T.);
#1379=ADVANCED_FACE('',(#1239),#1312,.T.);
#1380=ADVANCED_FACE('',(#1240),#1313,.T.);
#1381=ADVANCED_FACE('',(#1241),#1314,.T.);
#1382=ADVANCED_FACE('',(#1242),#1315,.T.);
#1383=ADVANCED_FACE('',(#1243),#1316,.T.);
#1384=ADVANCED_FACE('',(#1244),#1317,.T.);
#1385=ADVANCED_FACE('',(#1245),#1318,.T.);
#1386=ADVANCED_FACE('',(#1246),#1319,.T.);
#1387=ADVANCED_FACE('',(#1247,#1248),#69,.F.);
#1388=ADVANCED_FACE('',(#1249,#1250),#1320,.T.);
#1389=ADVANCED_FACE('',(#1251,#1252),#1321,.F.);
#1390=ADVANCED_FACE('',(#1253),#1322,.T.);
#1391=ADVANCED_FACE('',(#1254),#1323,.T.);
#1392=ADVANCED_FACE('',(#1255),#1324,.T.);
#1393=ADVANCED_FACE('',(#1256),#1325,.T.);
#1394=ADVANCED_FACE('',(#1257),#1326,.T.);
#1395=ADVANCED_FACE('',(#1258),#1327,.T.);
#1396=ADVANCED_FACE('',(#1259),#1328,.T.);
#1397=ADVANCED_FACE('',(#1260),#1329,.T.);
#1398=ADVANCED_FACE('',(#1261),#1330,.T.);
#1399=ADVANCED_FACE('',(#1262),#1331,.T.);
#1400=ADVANCED_FACE('',(#1263),#1332,.T.);
#1401=ADVANCED_FACE('',(#1264),#1333,.T.);
#1402=ADVANCED_FACE('',(#1265),#1334,.T.);
#1403=ADVANCED_FACE('',(#1266),#1335,.T.);
#1404=ADVANCED_FACE('',(#1267),#1336,.T.);
#1405=ADVANCED_FACE('',(#1268),#1337,.T.);
#1406=ADVANCED_FACE('',(#1269),#1338,.T.);
#1407=ADVANCED_FACE('',(#1270),#1339,.T.);
#1408=ADVANCED_FACE('',(#1271),#1340,.T.);
#1409=ADVANCED_FACE('',(#1272),#1341,.T.);
#1410=ADVANCED_FACE('',(#1273,#1274),#70,.F.);
#1411=ADVANCED_FACE('',(#1275,#1276),#1342,.T.);
#1412=CLOSED_SHELL('',(#1343,#1344,#1345,#1346,#1347,#1348,#1349,#1350,#1351,#1352,#1353,#1354,#1355,#1356,#1357,#1358,#1359,#1360,#1361,#1362,#1363,#1364,#1365));
#1413=CLOSED_SHELL('',(#1366,#1367,#1368,#1369,#1370,#1371,#1372,#1373,#1374,#1375,#1376,#1377,#1378,#1379,#1380,#1381,#1382,#1383,#1384,#1385,#1386,#1387,#1388));
#1414=CLOSED_SHELL('',(#1389,#1390,#1391,#1392,#1393,#1394,#1395,#1396,#1397,#1398,#1399,#1400,#1401,#1402,#1403,#1404,#1405,#1406,#1407,#1408,#1409,#1410,#1411));
#1415=STYLED_ITEM('',(#1418),#1437);
#1416=STYLED_ITEM('',(#1419),#1438);
#1417=STYLED_ITEM('',(#1420),#1439);
#1418=PRESENTATION_STYLE_ASSIGNMENT((#1421));
#1419=PRESENTATION_STYLE_ASSIGNMENT((#1422));
#1420=PRESENTATION_STYLE_ASSIGNMENT((#1423));
#1421=SURFACE_STYLE_USAGE(.BOTH.,#1424);
#1422=SURFACE_STYLE_USAGE(.BOTH.,#1425);
#1423=SURFACE_STYLE_USAGE(.BOTH.,#1426);
#1424=SURFACE_SIDE_STYLE('',(#1427));
#1425=SURFACE_SIDE_STYLE('',(#1428));
#1426=SURFACE_SIDE_STYLE('',(#1429));
#1427=SURFACE_STYLE_FILL_AREA(#1430);
#1428=SURFACE_STYLE_FILL_AREA(#1431);
#1429=SURFACE_STYLE_FILL_AREA(#1432);
#1430=FILL_AREA_STYLE('',(#1433));
#1431=FILL_AREA_STYLE('',(#1434));
#1432=FILL_AREA_STYLE('',(#1435));
#1433=FILL_AREA_STYLE_COLOUR('',#1436);
#1434=FILL_AREA_STYLE_COLOUR('',#1436);
#1435=FILL_AREA_STYLE_COLOUR('',#1436);
#1436=COLOUR_RGB('',0.768627450980392,0.886274509803922,0.952941176470588);
#1437=MANIFOLD_SOLID_BREP('alu_2000',#1412);
#1438=MANIFOLD_SOLID_BREP('alu_600',#1413);
#1439=MANIFOLD_SOLID_BREP('alu_1000',#1414);
#1440=SHAPE_DEFINITION_REPRESENTATION(#2302,#1444);
#1441=SHAPE_DEFINITION_REPRESENTATION(#2303,#1445);
#1442=SHAPE_DEFINITION_REPRESENTATION(#2305,#1446);
#1443=SHAPE_DEFINITION_REPRESENTATION(#2307,#1447);
#1444=SHAPE_REPRESENTATION('nur_al',(#1448,#1474,#1500,#1526,#1527,#1528,#1529,#1530,#1531,#1532,#1533,#1534,#1535,#1536),#2291);
#1445=SHAPE_REPRESENTATION('alu_2000',(#1448),#2292);
#1446=SHAPE_REPRESENTATION('alu_600',(#1448),#2293);
#1447=SHAPE_REPRESENTATION('alu_1000',(#1448),#2294);
#1448=AXIS2_PLACEMENT_3D('',#1895,#1537,#1538);
#1449=AXIS2_PLACEMENT_3D('',#1896,#1539,#1540);
#1450=AXIS2_PLACEMENT_3D('',#1937,#1561,#1562);
#1451=AXIS2_PLACEMENT_3D('',#1939,#1563,#1564);
#1452=AXIS2_PLACEMENT_3D('',#1945,#1568,#1569);
#1453=AXIS2_PLACEMENT_3D('',#1949,#1572,#1573);
#1454=AXIS2_PLACEMENT_3D('',#1953,#1576,#1577);
#1455=AXIS2_PLACEMENT_3D('',#1957,#1580,#1581);
#1456=AXIS2_PLACEMENT_3D('',#1961,#1584,#1585);
#1457=AXIS2_PLACEMENT_3D('',#1965,#1588,#1589);
#1458=AXIS2_PLACEMENT_3D('',#1969,#1592,#1593);
#1459=AXIS2_PLACEMENT_3D('',#1973,#1596,#1597);
#1460=AXIS2_PLACEMENT_3D('',#1977,#1600,#1601);
#1461=AXIS2_PLACEMENT_3D('',#1981,#1604,#1605);
#1462=AXIS2_PLACEMENT_3D('',#1985,#1608,#1609);
#1463=AXIS2_PLACEMENT_3D('',#1989,#1612,#1613);
#1464=AXIS2_PLACEMENT_3D('',#1993,#1616,#1617);
#1465=AXIS2_PLACEMENT_3D('',#1997,#1620,#1621);
#1466=AXIS2_PLACEMENT_3D('',#2001,#1624,#1625);
#1467=AXIS2_PLACEMENT_3D('',#2005,#1628,#1629);
#1468=AXIS2_PLACEMENT_3D('',#2009,#1632,#1633);
#1469=AXIS2_PLACEMENT_3D('',#2013,#1636,#1637);
#1470=AXIS2_PLACEMENT_3D('',#2017,#1640,#1641);
#1471=AXIS2_PLACEMENT_3D('',#2019,#1643,#1644);
#1472=AXIS2_PLACEMENT_3D('',#2020,#1645,#1646);
#1473=AXIS2_PLACEMENT_3D('',#2022,#1647,#1648);
#1474=AXIS2_PLACEMENT_3D('',#2023,#1649,#1650);
#1475=AXIS2_PLACEMENT_3D('',#2024,#1651,#1652);
#1476=AXIS2_PLACEMENT_3D('',#2065,#1673,#1674);
#1477=AXIS2_PLACEMENT_3D('',#2067,#1675,#1676);
#1478=AXIS2_PLACEMENT_3D('',#2073,#1680,#1681);
#1479=AXIS2_PLACEMENT_3D('',#2077,#1684,#1685);
#1480=AXIS2_PLACEMENT_3D('',#2081,#1688,#1689);
#1481=AXIS2_PLACEMENT_3D('',#2085,#1692,#1693);
#1482=AXIS2_PLACEMENT_3D('',#2089,#1696,#1697);
#1483=AXIS2_PLACEMENT_3D('',#2093,#1700,#1701);
#1484=AXIS2_PLACEMENT_3D('',#2097,#1704,#1705);
#1485=AXIS2_PLACEMENT_3D('',#2101,#1708,#1709);
#1486=AXIS2_PLACEMENT_3D('',#2105,#1712,#1713);
#1487=AXIS2_PLACEMENT_3D('',#2109,#1716,#1717);
#1488=AXIS2_PLACEMENT_3D('',#2113,#1720,#1721);
#1489=AXIS2_PLACEMENT_3D('',#2117,#1724,#1725);
#1490=AXIS2_PLACEMENT_3D('',#2121,#1728,#1729);
#1491=AXIS2_PLACEMENT_3D('',#2125,#1732,#1733);
#1492=AXIS2_PLACEMENT_3D('',#2129,#1736,#1737);
#1493=AXIS2_PLACEMENT_3D('',#2133,#1740,#1741);
#1494=AXIS2_PLACEMENT_3D('',#2137,#1744,#1745);
#1495=AXIS2_PLACEMENT_3D('',#2141,#1748,#1749);
#1496=AXIS2_PLACEMENT_3D('',#2145,#1752,#1753);
#1497=AXIS2_PLACEMENT_3D('',#2147,#1755,#1756);
#1498=AXIS2_PLACEMENT_3D('',#2148,#1757,#1758);
#1499=AXIS2_PLACEMENT_3D('',#2150,#1759,#1760);
#1500=AXIS2_PLACEMENT_3D('',#2151,#1761,#1762);
#1501=AXIS2_PLACEMENT_3D('',#2152,#1763,#1764);
#1502=AXIS2_PLACEMENT_3D('',#2193,#1785,#1786);
#1503=AXIS2_PLACEMENT_3D('',#2195,#1787,#1788);
#1504=AXIS2_PLACEMENT_3D('',#2201,#1792,#1793);
#1505=AXIS2_PLACEMENT_3D('',#2205,#1796,#1797);
#1506=AXIS2_PLACEMENT_3D('',#2209,#1800,#1801);
#1507=AXIS2_PLACEMENT_3D('',#2213,#1804,#1805);
#1508=AXIS2_PLACEMENT_3D('',#2217,#1808,#1809);
#1509=AXIS2_PLACEMENT_3D('',#2221,#1812,#1813);
#1510=AXIS2_PLACEMENT_3D('',#2225,#1816,#1817);
#1511=AXIS2_PLACEMENT_3D('',#2229,#1820,#1821);
#1512=AXIS2_PLACEMENT_3D('',#2233,#1824,#1825);
#1513=AXIS2_PLACEMENT_3D('',#2237,#1828,#1829);
#1514=AXIS2_PLACEMENT_3D('',#2241,#1832,#1833);
#1515=AXIS2_PLACEMENT_3D('',#2245,#1836,#1837);
#1516=AXIS2_PLACEMENT_3D('',#2249,#1840,#1841);
#1517=AXIS2_PLACEMENT_3D('',#2253,#1844,#1845);
#1518=AXIS2_PLACEMENT_3D('',#2257,#1848,#1849);
#1519=AXIS2_PLACEMENT_3D('',#2261,#1852,#1853);
#1520=AXIS2_PLACEMENT_3D('',#2265,#1856,#1857);
#1521=AXIS2_PLACEMENT_3D('',#2269,#1860,#1861);
#1522=AXIS2_PLACEMENT_3D('',#2273,#1864,#1865);
#1523=AXIS2_PLACEMENT_3D('',#2275,#1867,#1868);
#1524=AXIS2_PLACEMENT_3D('',#2276,#1869,#1870);
#1525=AXIS2_PLACEMENT_3D('',#2278,#1871,#1872);
#1526=AXIS2_PLACEMENT_3D('',#2279,#1873,#1874);
#1527=AXIS2_PLACEMENT_3D('',#2280,#1875,#1876);
#1528=AXIS2_PLACEMENT_3D('',#2281,#1877,#1878);
#1529=AXIS2_PLACEMENT_3D('',#2282,#1879,#1880);
#1530=AXIS2_PLACEMENT_3D('',#2283,#1881,#1882);
#1531=AXIS2_PLACEMENT_3D('',#2284,#1883,#1884);
#1532=AXIS2_PLACEMENT_3D('',#2285,#1885,#1886);
#1533=AXIS2_PLACEMENT_3D('',#2286,#1887,#1888);
#1534=AXIS2_PLACEMENT_3D('',#2287,#1889,#1890);
#1535=AXIS2_PLACEMENT_3D('',#2288,#1891,#1892);
#1536=AXIS2_PLACEMENT_3D('',#2289,#1893,#1894);
#1537=DIRECTION('',(0.,0.,1.));
#1538=DIRECTION('',(1.,0.,0.));
#1539=DIRECTION('',(1.,0.,0.));
#1540=DIRECTION('',(0.,0.,-1.));
#1541=DIRECTION('',(0.,0.,-1.));
#1542=DIRECTION('',(0.,-1.,0.));
#1543=DIRECTION('',(0.,0.,1.));
#1544=DIRECTION('',(0.,-1.,0.));
#1545=DIRECTION('',(0.,0.,-1.));
#1546=DIRECTION('',(0.,-1.,0.));
#1547=DIRECTION('',(0.,0.,1.));
#1548=DIRECTION('',(0.,1.,0.));
#1549=DIRECTION('',(0.,0.,1.));
#1550=DIRECTION('',(0.,-1.,0.));
#1551=DIRECTION('',(0.,0.,1.));
#1552=DIRECTION('',(0.,1.,0.));
#1553=DIRECTION('',(0.,0.,-1.));
#1554=DIRECTION('',(0.,1.,0.));
#1555=DIRECTION('',(0.,0.,1.));
#1556=DIRECTION('',(0.,1.,0.));
#1557=DIRECTION('',(0.,0.,-1.));
#1558=DIRECTION('',(0.,-1.,0.));
#1559=DIRECTION('',(0.,0.,-1.));
#1560=DIRECTION('',(0.,1.,0.));
#1561=DIRECTION('',(1.,0.,0.));
#1562=DIRECTION('',(0.,0.,-1.));
#1563=DIRECTION('',(0.,-1.,0.));
#1564=DIRECTION('',(0.,0.,-1.));
#1565=DIRECTION('',(1.,0.,0.));
#1566=DIRECTION('',(0.,0.,1.));
#1567=DIRECTION('',(1.,0.,0.));
#1568=DIRECTION('',(0.,0.,-1.));
#1569=DIRECTION('',(0.,1.,0.));
#1570=DIRECTION('',(1.,0.,0.));
#1571=DIRECTION('',(0.,-1.,0.));
#1572=DIRECTION('',(0.,-1.,0.));
#1573=DIRECTION('',(0.,0.,-1.));
#1574=DIRECTION('',(1.,0.,0.));
#1575=DIRECTION('',(0.,0.,1.));
#1576=DIRECTION('',(0.,0.,1.));
#1577=DIRECTION('',(0.,-1.,0.));
#1578=DIRECTION('',(1.,0.,0.));
#1579=DIRECTION('',(0.,1.,0.));
#1580=DIRECTION('',(0.,-1.,0.));
#1581=DIRECTION('',(0.,0.,-1.));
#1582=DIRECTION('',(1.,0.,0.));
#1583=DIRECTION('',(0.,0.,1.));
#1584=DIRECTION('',(0.,0.,-1.));
#1585=DIRECTION('',(0.,1.,0.));
#1586=DIRECTION('',(1.,0.,0.));
#1587=DIRECTION('',(0.,-1.,0.));
#1588=DIRECTION('',(0.,1.,0.));
#1589=DIRECTION('',(0.,0.,1.));
#1590=DIRECTION('',(1.,0.,0.));
#1591=DIRECTION('',(0.,0.,-1.));
#1592=DIRECTION('',(0.,0.,-1.));
#1593=DIRECTION('',(0.,1.,0.));
#1594=DIRECTION('',(1.,0.,0.));
#1595=DIRECTION('',(0.,-1.,0.));
#1596=DIRECTION('',(0.,-1.,0.));
#1597=DIRECTION('',(0.,0.,-1.));
#1598=DIRECTION('',(1.,0.,0.));
#1599=DIRECTION('',(0.,0.,1.));
#1600=DIRECTION('',(0.,0.,-1.));
#1601=DIRECTION('',(0.,1.,0.));
#1602=DIRECTION('',(1.,0.,0.));
#1603=DIRECTION('',(0.,-1.,0.));
#1604=DIRECTION('',(0.,1.,0.));
#1605=DIRECTION('',(0.,0.,1.));
#1606=DIRECTION('',(1.,0.,0.));
#1607=DIRECTION('',(0.,0.,-1.));
#1608=DIRECTION('',(0.,0.,1.));
#1609=DIRECTION('',(0.,-1.,0.));
#1610=DIRECTION('',(1.,0.,0.));
#1611=DIRECTION('',(0.,1.,0.));
#1612=DIRECTION('',(0.,1.,0.));
#1613=DIRECTION('',(0.,0.,1.));
#1614=DIRECTION('',(1.,0.,0.));
#1615=DIRECTION('',(0.,0.,-1.));
#1616=DIRECTION('',(0.,0.,-1.));
#1617=DIRECTION('',(0.,1.,0.));
#1618=DIRECTION('',(1.,0.,0.));
#1619=DIRECTION('',(0.,-1.,0.));
#1620=DIRECTION('',(0.,1.,0.));
#1621=DIRECTION('',(0.,0.,1.));
#1622=DIRECTION('',(1.,0.,0.));
#1623=DIRECTION('',(0.,0.,-1.));
#1624=DIRECTION('',(0.,0.,1.));
#1625=DIRECTION('',(0.,-1.,0.));
#1626=DIRECTION('',(1.,0.,0.));
#1627=DIRECTION('',(0.,1.,0.));
#1628=DIRECTION('',(0.,-1.,0.));
#1629=DIRECTION('',(0.,0.,-1.));
#1630=DIRECTION('',(1.,0.,0.));
#1631=DIRECTION('',(0.,0.,1.));
#1632=DIRECTION('',(0.,0.,1.));
#1633=DIRECTION('',(0.,-1.,0.));
#1634=DIRECTION('',(1.,0.,0.));
#1635=DIRECTION('',(0.,1.,0.));
#1636=DIRECTION('',(0.,1.,0.));
#1637=DIRECTION('',(0.,0.,1.));
#1638=DIRECTION('',(1.,0.,0.));
#1639=DIRECTION('',(0.,0.,-1.));
#1640=DIRECTION('',(0.,0.,1.));
#1641=DIRECTION('',(0.,-1.,0.));
#1642=DIRECTION('',(0.,1.,0.));
#1643=DIRECTION('',(1.,0.,0.));
#1644=DIRECTION('',(0.,0.,-1.));
#1645=DIRECTION('',(1.,0.,0.));
#1646=DIRECTION('',(0.,0.,-1.));
#1647=DIRECTION('',(1.,0.,0.));
#1648=DIRECTION('',(0.,1.,0.));
#1649=DIRECTION('',(1.,0.,0.));
#1650=DIRECTION('',(0.,0.,-1.));
#1651=DIRECTION('',(1.,0.,0.));
#1652=DIRECTION('',(0.,0.,-1.));
#1653=DIRECTION('',(0.,0.,-1.));
#1654=DIRECTION('',(0.,-1.,0.));
#1655=DIRECTION('',(0.,0.,1.));
#1656=DIRECTION('',(0.,-1.,0.));
#1657=DIRECTION('',(0.,0.,-1.));
#1658=DIRECTION('',(0.,-1.,0.));
#1659=DIRECTION('',(0.,0.,1.));
#1660=DIRECTION('',(0.,1.,0.));
#1661=DIRECTION('',(0.,0.,1.));
#1662=DIRECTION('',(0.,-1.,0.));
#1663=DIRECTION('',(0.,0.,1.));
#1664=DIRECTION('',(0.,1.,0.));
#1665=DIRECTION('',(0.,0.,-1.));
#1666=DIRECTION('',(0.,1.,0.));
#1667=DIRECTION('',(0.,0.,1.));
#1668=DIRECTION('',(0.,1.,0.));
#1669=DIRECTION('',(0.,0.,-1.));
#1670=DIRECTION('',(0.,-1.,0.));
#1671=DIRECTION('',(0.,0.,-1.));
#1672=DIRECTION('',(0.,1.,0.));
#1673=DIRECTION('',(1.,0.,0.));
#1674=DIRECTION('',(0.,0.,-1.));
#1675=DIRECTION('',(0.,-1.,0.));
#1676=DIRECTION('',(0.,0.,-1.));
#1677=DIRECTION('',(1.,0.,0.));
#1678=DIRECTION('',(0.,0.,1.));
#1679=DIRECTION('',(1.,0.,0.));
#1680=DIRECTION('',(0.,0.,-1.));
#1681=DIRECTION('',(0.,1.,0.));
#1682=DIRECTION('',(1.,0.,0.));
#1683=DIRECTION('',(0.,-1.,0.));
#1684=DIRECTION('',(0.,-1.,0.));
#1685=DIRECTION('',(0.,0.,-1.));
#1686=DIRECTION('',(1.,0.,0.));
#1687=DIRECTION('',(0.,0.,1.));
#1688=DIRECTION('',(0.,0.,1.));
#1689=DIRECTION('',(0.,-1.,0.));
#1690=DIRECTION('',(1.,0.,0.));
#1691=DIRECTION('',(0.,1.,0.));
#1692=DIRECTION('',(0.,-1.,0.));
#1693=DIRECTION('',(0.,0.,-1.));
#1694=DIRECTION('',(1.,0.,0.));
#1695=DIRECTION('',(0.,0.,1.));
#1696=DIRECTION('',(0.,0.,-1.));
#1697=DIRECTION('',(0.,1.,0.));
#1698=DIRECTION('',(1.,0.,0.));
#1699=DIRECTION('',(0.,-1.,0.));
#1700=DIRECTION('',(0.,1.,0.));
#1701=DIRECTION('',(0.,0.,1.));
#1702=DIRECTION('',(1.,0.,0.));
#1703=DIRECTION('',(0.,0.,-1.));
#1704=DIRECTION('',(0.,0.,-1.));
#1705=DIRECTION('',(0.,1.,0.));
#1706=DIRECTION('',(1.,0.,0.));
#1707=DIRECTION('',(0.,-1.,0.));
#1708=DIRECTION('',(0.,-1.,0.));
#1709=DIRECTION('',(0.,0.,-1.));
#1710=DIRECTION('',(1.,0.,0.));
#1711=DIRECTION('',(0.,0.,1.));
#1712=DIRECTION('',(0.,0.,-1.));
#1713=DIRECTION('',(0.,1.,0.));
#1714=DIRECTION('',(1.,0.,0.));
#1715=DIRECTION('',(0.,-1.,0.));
#1716=DIRECTION('',(0.,1.,0.));
#1717=DIRECTION('',(0.,0.,1.));
#1718=DIRECTION('',(1.,0.,0.));
#1719=DIRECTION('',(0.,0.,-1.));
#1720=DIRECTION('',(0.,0.,1.));
#1721=DIRECTION('',(0.,-1.,0.));
#1722=DIRECTION('',(1.,0.,0.));
#1723=DIRECTION('',(0.,1.,0.));
#1724=DIRECTION('',(0.,1.,0.));
#1725=DIRECTION('',(0.,0.,1.));
#1726=DIRECTION('',(1.,0.,0.));
#1727=DIRECTION('',(0.,0.,-1.));
#1728=DIRECTION('',(0.,0.,-1.));
#1729=DIRECTION('',(0.,1.,0.));
#1730=DIRECTION('',(1.,0.,0.));
#1731=DIRECTION('',(0.,-1.,0.));
#1732=DIRECTION('',(0.,1.,0.));
#1733=DIRECTION('',(0.,0.,1.));
#1734=DIRECTION('',(1.,0.,0.));
#1735=DIRECTION('',(0.,0.,-1.));
#1736=DIRECTION('',(0.,0.,1.));
#1737=DIRECTION('',(0.,-1.,0.));
#1738=DIRECTION('',(1.,0.,0.));
#1739=DIRECTION('',(0.,1.,0.));
#1740=DIRECTION('',(0.,-1.,0.));
#1741=DIRECTION('',(0.,0.,-1.));
#1742=DIRECTION('',(1.,0.,0.));
#1743=DIRECTION('',(0.,0.,1.));
#1744=DIRECTION('',(0.,0.,1.));
#1745=DIRECTION('',(0.,-1.,0.));
#1746=DIRECTION('',(1.,0.,0.));
#1747=DIRECTION('',(0.,1.,0.));
#1748=DIRECTION('',(0.,1.,0.));
#1749=DIRECTION('',(0.,0.,1.));
#1750=DIRECTION('',(1.,0.,0.));
#1751=DIRECTION('',(0.,0.,-1.));
#1752=DIRECTION('',(0.,0.,1.));
#1753=DIRECTION('',(0.,-1.,0.));
#1754=DIRECTION('',(0.,1.,0.));
#1755=DIRECTION('',(1.,0.,0.));
#1756=DIRECTION('',(0.,0.,-1.));
#1757=DIRECTION('',(1.,0.,0.));
#1758=DIRECTION('',(0.,0.,-1.));
#1759=DIRECTION('',(1.,0.,0.));
#1760=DIRECTION('',(0.,1.,0.));
#1761=DIRECTION('',(0.,0.,1.));
#1762=DIRECTION('',(0.,-1.,0.));
#1763=DIRECTION('',(1.,0.,0.));
#1764=DIRECTION('',(0.,0.,-1.));
#1765=DIRECTION('',(0.,0.,-1.));
#1766=DIRECTION('',(0.,-1.,0.));
#1767=DIRECTION('',(0.,0.,1.));
#1768=DIRECTION('',(0.,-1.,0.));
#1769=DIRECTION('',(0.,0.,-1.));
#1770=DIRECTION('',(0.,-1.,0.));
#1771=DIRECTION('',(0.,0.,1.));
#1772=DIRECTION('',(0.,1.,0.));
#1773=DIRECTION('',(0.,0.,1.));
#1774=DIRECTION('',(0.,-1.,0.));
#1775=DIRECTION('',(0.,0.,1.));
#1776=DIRECTION('',(0.,1.,0.));
#1777=DIRECTION('',(0.,0.,-1.));
#1778=DIRECTION('',(0.,1.,0.));
#1779=DIRECTION('',(0.,0.,1.));
#1780=DIRECTION('',(0.,1.,0.));
#1781=DIRECTION('',(0.,0.,-1.));
#1782=DIRECTION('',(0.,-1.,0.));
#1783=DIRECTION('',(0.,0.,-1.));
#1784=DIRECTION('',(0.,1.,0.));
#1785=DIRECTION('',(1.,0.,0.));
#1786=DIRECTION('',(0.,0.,-1.));
#1787=DIRECTION('',(0.,-1.,0.));
#1788=DIRECTION('',(0.,0.,-1.));
#1789=DIRECTION('',(1.,0.,0.));
#1790=DIRECTION('',(0.,0.,1.));
#1791=DIRECTION('',(1.,0.,0.));
#1792=DIRECTION('',(0.,0.,-1.));
#1793=DIRECTION('',(0.,1.,0.));
#1794=DIRECTION('',(1.,0.,0.));
#1795=DIRECTION('',(0.,-1.,0.));
#1796=DIRECTION('',(0.,-1.,0.));
#1797=DIRECTION('',(0.,0.,-1.));
#1798=DIRECTION('',(1.,0.,0.));
#1799=DIRECTION('',(0.,0.,1.));
#1800=DIRECTION('',(0.,0.,1.));
#1801=DIRECTION('',(0.,-1.,0.));
#1802=DIRECTION('',(1.,0.,0.));
#1803=DIRECTION('',(0.,1.,0.));
#1804=DIRECTION('',(0.,-1.,0.));
#1805=DIRECTION('',(0.,0.,-1.));
#1806=DIRECTION('',(1.,0.,0.));
#1807=DIRECTION('',(0.,0.,1.));
#1808=DIRECTION('',(0.,0.,-1.));
#1809=DIRECTION('',(0.,1.,0.));
#1810=DIRECTION('',(1.,0.,0.));
#1811=DIRECTION('',(0.,-1.,0.));
#1812=DIRECTION('',(0.,1.,0.));
#1813=DIRECTION('',(0.,0.,1.));
#1814=DIRECTION('',(1.,0.,0.));
#1815=DIRECTION('',(0.,0.,-1.));
#1816=DIRECTION('',(0.,0.,-1.));
#1817=DIRECTION('',(0.,1.,0.));
#1818=DIRECTION('',(1.,0.,0.));
#1819=DIRECTION('',(0.,-1.,0.));
#1820=DIRECTION('',(0.,-1.,0.));
#1821=DIRECTION('',(0.,0.,-1.));
#1822=DIRECTION('',(1.,0.,0.));
#1823=DIRECTION('',(0.,0.,1.));
#1824=DIRECTION('',(0.,0.,-1.));
#1825=DIRECTION('',(0.,1.,0.));
#1826=DIRECTION('',(1.,0.,0.));
#1827=DIRECTION('',(0.,-1.,0.));
#1828=DIRECTION('',(0.,1.,0.));
#1829=DIRECTION('',(0.,0.,1.));
#1830=DIRECTION('',(1.,0.,0.));
#1831=DIRECTION('',(0.,0.,-1.));
#1832=DIRECTION('',(0.,0.,1.));
#1833=DIRECTION('',(0.,-1.,0.));
#1834=DIRECTION('',(1.,0.,0.));
#1835=DIRECTION('',(0.,1.,0.));
#1836=DIRECTION('',(0.,1.,0.));
#1837=DIRECTION('',(0.,0.,1.));
#1838=DIRECTION('',(1.,0.,0.));
#1839=DIRECTION('',(0.,0.,-1.));
#1840=DIRECTION('',(0.,0.,-1.));
#1841=DIRECTION('',(0.,1.,0.));
#1842=DIRECTION('',(1.,0.,0.));
#1843=DIRECTION('',(0.,-1.,0.));
#1844=DIRECTION('',(0.,1.,0.));
#1845=DIRECTION('',(0.,0.,1.));
#1846=DIRECTION('',(1.,0.,0.));
#1847=DIRECTION('',(0.,0.,-1.));
#1848=DIRECTION('',(0.,0.,1.));
#1849=DIRECTION('',(0.,-1.,0.));
#1850=DIRECTION('',(1.,0.,0.));
#1851=DIRECTION('',(0.,1.,0.));
#1852=DIRECTION('',(0.,-1.,0.));
#1853=DIRECTION('',(0.,0.,-1.));
#1854=DIRECTION('',(1.,0.,0.));
#1855=DIRECTION('',(0.,0.,1.));
#1856=DIRECTION('',(0.,0.,1.));
#1857=DIRECTION('',(0.,-1.,0.));
#1858=DIRECTION('',(1.,0.,0.));
#1859=DIRECTION('',(0.,1.,0.));
#1860=DIRECTION('',(0.,1.,0.));
#1861=DIRECTION('',(0.,0.,1.));
#1862=DIRECTION('',(1.,0.,0.));
#1863=DIRECTION('',(0.,0.,-1.));
#1864=DIRECTION('',(0.,0.,1.));
#1865=DIRECTION('',(0.,-1.,0.));
#1866=DIRECTION('',(0.,1.,0.));
#1867=DIRECTION('',(1.,0.,0.));
#1868=DIRECTION('',(0.,0.,-1.));
#1869=DIRECTION('',(1.,0.,0.));
#1870=DIRECTION('',(0.,0.,-1.));
#1871=DIRECTION('',(1.,0.,0.));
#1872=DIRECTION('',(0.,1.,0.));
#1873=DIRECTION('',(1.,0.,0.));
#1874=DIRECTION('',(0.,0.,-1.));
#1875=DIRECTION('',(0.,0.,1.));
#1876=DIRECTION('',(1.,0.,0.));
#1877=DIRECTION('',(0.,0.,1.));
#1878=DIRECTION('',(1.,0.,0.));
#1879=DIRECTION('',(0.,0.,1.));
#1880=DIRECTION('',(0.,-1.,0.));
#1881=DIRECTION('',(0.,0.,1.));
#1882=DIRECTION('',(0.,-1.,0.));
#1883=DIRECTION('',(0.,0.,1.));
#1884=DIRECTION('',(1.,0.,0.));
#1885=DIRECTION('',(0.,0.,1.));
#1886=DIRECTION('',(1.,0.,0.));
#1887=DIRECTION('',(0.,-1.,0.));
#1888=DIRECTION('',(0.,0.,-1.));
#1889=DIRECTION('',(-1.,0.,0.));
#1890=DIRECTION('',(0.,0.,1.));
#1891=DIRECTION('',(0.,0.,1.));
#1892=DIRECTION('',(1.,0.,0.));
#1893=DIRECTION('',(0.,0.,1.));
#1894=DIRECTION('',(0.,-1.,0.));
#1895=CARTESIAN_POINT('',(0.,0.,0.));
#1896=CARTESIAN_POINT('',(0.,4.44089209850063E-19,1.11022302462516E-19));
#1897=CARTESIAN_POINT('',(0.,-0.02,0.02));
#1898=CARTESIAN_POINT('',(0.,-0.02,0.02));
#1899=CARTESIAN_POINT('',(0.,-0.02,0.005));
#1900=CARTESIAN_POINT('',(0.,-0.005,0.02));
#1901=CARTESIAN_POINT('',(0.,-0.005,0.02));
#1902=CARTESIAN_POINT('',(0.,-0.005,0.0075));
#1903=CARTESIAN_POINT('',(0.,-0.005,0.0075));
#1904=CARTESIAN_POINT('',(0.,0.005,0.0075));
#1905=CARTESIAN_POINT('',(0.,0.005,0.0075));
#1906=CARTESIAN_POINT('',(0.,0.005,0.02));
#1907=CARTESIAN_POINT('',(0.,0.005,0.02));
#1908=CARTESIAN_POINT('',(0.,-0.0125,0.02));
#1909=CARTESIAN_POINT('',(0.,0.02,0.02));
#1910=CARTESIAN_POINT('',(0.,0.02,0.005));
#1911=CARTESIAN_POINT('',(0.,0.02,0.005));
#1912=CARTESIAN_POINT('',(0.,-0.01375,0.005));
#1913=CARTESIAN_POINT('',(0.,0.0075,0.005));
#1914=CARTESIAN_POINT('',(0.,0.0075,-0.005));
#1915=CARTESIAN_POINT('',(0.,0.0075,-0.005));
#1916=CARTESIAN_POINT('',(0.,-0.01375,-0.005));
#1917=CARTESIAN_POINT('',(0.,0.02,-0.005));
#1918=CARTESIAN_POINT('',(0.,0.02,0.0125));
#1919=CARTESIAN_POINT('',(0.,0.02,-0.02));
#1920=CARTESIAN_POINT('',(0.,-0.0125,-0.02));
#1921=CARTESIAN_POINT('',(0.,0.005,-0.02));
#1922=CARTESIAN_POINT('',(0.,0.005,0.01375));
#1923=CARTESIAN_POINT('',(0.,0.005,-0.0075));
#1924=CARTESIAN_POINT('',(0.,-0.005,-0.0075));
#1925=CARTESIAN_POINT('',(0.,-0.005,-0.0075));
#1926=CARTESIAN_POINT('',(0.,-0.005,0.01375));
#1927=CARTESIAN_POINT('',(0.,-0.005,-0.02));
#1928=CARTESIAN_POINT('',(0.,-0.02,-0.02));
#1929=CARTESIAN_POINT('',(0.,-0.02,-0.02));
#1930=CARTESIAN_POINT('',(0.,-0.02,0.0125));
#1931=CARTESIAN_POINT('',(0.,-0.02,-0.005));
#1932=CARTESIAN_POINT('',(0.,-0.0075,-0.005));
#1933=CARTESIAN_POINT('',(0.,-0.0075,-0.005));
#1934=CARTESIAN_POINT('',(0.,-0.0075,0.005));
#1935=CARTESIAN_POINT('',(0.,-0.0075,0.005));
#1936=CARTESIAN_POINT('',(0.,-0.02,0.005));
#1937=CARTESIAN_POINT('',(0.,0.,0.));
#1938=CARTESIAN_POINT('',(0.,0.,-0.005));
#1939=CARTESIAN_POINT('',(0.,-0.02,0.0125));
#1940=CARTESIAN_POINT('',(0.,-0.02,0.005));
#1941=CARTESIAN_POINT('',(1.7,-0.02,0.005));
#1942=CARTESIAN_POINT('',(1.7,-0.02,0.0125));
#1943=CARTESIAN_POINT('',(1.7,-0.02,0.02));
#1944=CARTESIAN_POINT('',(0.,-0.02,0.02));
#1945=CARTESIAN_POINT('',(0.,-0.01375,0.005));
#1946=CARTESIAN_POINT('',(0.,-0.0075,0.005));
#1947=CARTESIAN_POINT('',(1.7,-0.0075,0.005));
#1948=CARTESIAN_POINT('',(1.7,-0.01375,0.005));
#1949=CARTESIAN_POINT('',(0.,-0.0075,0.));
#1950=CARTESIAN_POINT('',(0.,-0.0075,-0.005));
#1951=CARTESIAN_POINT('',(1.7,-0.0075,-0.005));
#1952=CARTESIAN_POINT('',(1.7,-0.0075,0.));
#1953=CARTESIAN_POINT('',(0.,-0.01375,-0.005));
#1954=CARTESIAN_POINT('',(0.,-0.02,-0.005));
#1955=CARTESIAN_POINT('',(1.7,-0.02,-0.005));
#1956=CARTESIAN_POINT('',(1.7,-0.01375,-0.005));
#1957=CARTESIAN_POINT('',(0.,-0.02,0.0125));
#1958=CARTESIAN_POINT('',(0.,-0.02,-0.02));
#1959=CARTESIAN_POINT('',(1.7,-0.02,-0.02));
#1960=CARTESIAN_POINT('',(1.7,-0.02,0.0125));
#1961=CARTESIAN_POINT('',(0.,-0.0125,-0.02));
#1962=CARTESIAN_POINT('',(0.,-0.005,-0.02));
#1963=CARTESIAN_POINT('',(1.7,-0.005,-0.02));
#1964=CARTESIAN_POINT('',(1.7,-0.0125,-0.02));
#1965=CARTESIAN_POINT('',(0.,-0.005,0.01375));
#1966=CARTESIAN_POINT('',(0.,-0.005,-0.0075));
#1967=CARTESIAN_POINT('',(1.7,-0.005,-0.0075));
#1968=CARTESIAN_POINT('',(1.7,-0.005,0.01375));
#1969=CARTESIAN_POINT('',(0.,0.,-0.0075));
#1970=CARTESIAN_POINT('',(0.,0.005,-0.0075));
#1971=CARTESIAN_POINT('',(1.7,0.005,-0.0075));
#1972=CARTESIAN_POINT('',(1.7,0.,-0.0075));
#1973=CARTESIAN_POINT('',(0.,0.005,0.01375));
#1974=CARTESIAN_POINT('',(0.,0.005,-0.02));
#1975=CARTESIAN_POINT('',(1.7,0.005,-0.02));
#1976=CARTESIAN_POINT('',(1.7,0.005,0.01375));
#1977=CARTESIAN_POINT('',(0.,-0.0125,-0.02));
#1978=CARTESIAN_POINT('',(0.,0.02,-0.02));
#1979=CARTESIAN_POINT('',(1.7,0.02,-0.02));
#1980=CARTESIAN_POINT('',(1.7,-0.0125,-0.02));
#1981=CARTESIAN_POINT('',(0.,0.02,0.0125));
#1982=CARTESIAN_POINT('',(0.,0.02,-0.005));
#1983=CARTESIAN_POINT('',(1.7,0.02,-0.005));
#1984=CARTESIAN_POINT('',(1.7,0.02,0.0125));
#1985=CARTESIAN_POINT('',(0.,-0.01375,-0.005));
#1986=CARTESIAN_POINT('',(0.,0.0075,-0.005));
#1987=CARTESIAN_POINT('',(1.7,0.0075,-0.005));
#1988=CARTESIAN_POINT('',(1.7,-0.01375,-0.005));
#1989=CARTESIAN_POINT('',(0.,0.0075,0.));
#1990=CARTESIAN_POINT('',(0.,0.0075,0.005));
#1991=CARTESIAN_POINT('',(1.7,0.0075,0.005));
#1992=CARTESIAN_POINT('',(1.7,0.0075,0.));
#1993=CARTESIAN_POINT('',(0.,-0.01375,0.005));
#1994=CARTESIAN_POINT('',(0.,0.02,0.005));
#1995=CARTESIAN_POINT('',(1.7,0.02,0.005));
#1996=CARTESIAN_POINT('',(1.7,-0.01375,0.005));
#1997=CARTESIAN_POINT('',(0.,0.02,0.0125));
#1998=CARTESIAN_POINT('',(0.,0.02,0.02));
#1999=CARTESIAN_POINT('',(1.7,0.02,0.02));
#2000=CARTESIAN_POINT('',(1.7,0.02,0.0125));
#2001=CARTESIAN_POINT('',(0.,-0.0125,0.02));
#2002=CARTESIAN_POINT('',(0.,0.005,0.02));
#2003=CARTESIAN_POINT('',(1.7,0.005,0.02));
#2004=CARTESIAN_POINT('',(1.7,-0.0125,0.02));
#2005=CARTESIAN_POINT('',(0.,0.005,0.01375));
#2006=CARTESIAN_POINT('',(0.,0.005,0.0075));
#2007=CARTESIAN_POINT('',(1.7,0.005,0.0075));
#2008=CARTESIAN_POINT('',(1.7,0.005,0.01375));
#2009=CARTESIAN_POINT('',(0.,0.,0.0075));
#2010=CARTESIAN_POINT('',(0.,-0.005,0.0075));
#2011=CARTESIAN_POINT('',(1.7,-0.005,0.0075));
#2012=CARTESIAN_POINT('',(1.7,0.,0.0075));
#2013=CARTESIAN_POINT('',(0.,-0.005,0.01375));
#2014=CARTESIAN_POINT('',(0.,-0.005,0.02));
#2015=CARTESIAN_POINT('',(1.7,-0.005,0.02));
#2016=CARTESIAN_POINT('',(1.7,-0.005,0.01375));
#2017=CARTESIAN_POINT('',(0.,-0.0125,0.02));
#2018=CARTESIAN_POINT('',(1.7,-0.0125,0.02));
#2019=CARTESIAN_POINT('',(3.035,0.,0.));
#2020=CARTESIAN_POINT('',(1.7,0.,0.));
#2021=CARTESIAN_POINT('',(1.7,0.,-0.005));
#2022=CARTESIAN_POINT('',(1.7,-0.00102272722870111,-0.00232438184320926));
#2023=CARTESIAN_POINT('',(0.554336529481697,0.194929672570229,0.719998752503529));
#2024=CARTESIAN_POINT('',(0.,4.44089209850063E-19,1.11022302462516E-19));
#2025=CARTESIAN_POINT('',(0.,-0.02,0.02));
#2026=CARTESIAN_POINT('',(0.,-0.02,0.02));
#2027=CARTESIAN_POINT('',(0.,-0.02,0.005));
#2028=CARTESIAN_POINT('',(0.,-0.005,0.02));
#2029=CARTESIAN_POINT('',(0.,-0.005,0.02));
#2030=CARTESIAN_POINT('',(0.,-0.005,0.0075));
#2031=CARTESIAN_POINT('',(0.,-0.005,0.0075));
#2032=CARTESIAN_POINT('',(0.,0.005,0.0075));
#2033=CARTESIAN_POINT('',(0.,0.005,0.0075));
#2034=CARTESIAN_POINT('',(0.,0.005,0.02));
#2035=CARTESIAN_POINT('',(0.,0.005,0.02));
#2036=CARTESIAN_POINT('',(0.,-0.0125,0.02));
#2037=CARTESIAN_POINT('',(0.,0.02,0.02));
#2038=CARTESIAN_POINT('',(0.,0.02,0.005));
#2039=CARTESIAN_POINT('',(0.,0.02,0.005));
#2040=CARTESIAN_POINT('',(0.,-0.01375,0.005));
#2041=CARTESIAN_POINT('',(0.,0.0075,0.005));
#2042=CARTESIAN_POINT('',(0.,0.0075,-0.005));
#2043=CARTESIAN_POINT('',(0.,0.0075,-0.005));
#2044=CARTESIAN_POINT('',(0.,-0.01375,-0.005));
#2045=CARTESIAN_POINT('',(0.,0.02,-0.005));
#2046=CARTESIAN_POINT('',(0.,0.02,0.0125));
#2047=CARTESIAN_POINT('',(0.,0.02,-0.02));
#2048=CARTESIAN_POINT('',(0.,-0.0125,-0.02));
#2049=CARTESIAN_POINT('',(0.,0.005,-0.02));
#2050=CARTESIAN_POINT('',(0.,0.005,0.01375));
#2051=CARTESIAN_POINT('',(0.,0.005,-0.0075));
#2052=CARTESIAN_POINT('',(0.,-0.005,-0.0075));
#2053=CARTESIAN_POINT('',(0.,-0.005,-0.0075));
#2054=CARTESIAN_POINT('',(0.,-0.005,0.01375));
#2055=CARTESIAN_POINT('',(0.,-0.005,-0.02));
#2056=CARTESIAN_POINT('',(0.,-0.02,-0.02));
#2057=CARTESIAN_POINT('',(0.,-0.02,-0.02));
#2058=CARTESIAN_POINT('',(0.,-0.02,0.0125));
#2059=CARTESIAN_POINT('',(0.,-0.02,-0.005));
#2060=CARTESIAN_POINT('',(0.,-0.0075,-0.005));
#2061=CARTESIAN_POINT('',(0.,-0.0075,-0.005));
#2062=CARTESIAN_POINT('',(0.,-0.0075,0.005));
#2063=CARTESIAN_POINT('',(0.,-0.0075,0.005));
#2064=CARTESIAN_POINT('',(0.,-0.02,0.005));
#2065=CARTESIAN_POINT('',(0.,0.,0.));
#2066=CARTESIAN_POINT('',(0.,0.,-0.005));
#2067=CARTESIAN_POINT('',(0.,-0.02,0.0125));
#2068=CARTESIAN_POINT('',(0.,-0.02,0.005));
#2069=CARTESIAN_POINT('',(0.6,-0.02,0.005));
#2070=CARTESIAN_POINT('',(0.6,-0.02,0.0125));
#2071=CARTESIAN_POINT('',(0.6,-0.02,0.02));
#2072=CARTESIAN_POINT('',(0.,-0.02,0.02));
#2073=CARTESIAN_POINT('',(0.,-0.01375,0.005));
#2074=CARTESIAN_POINT('',(0.,-0.0075,0.005));
#2075=CARTESIAN_POINT('',(0.6,-0.0075,0.005));
#2076=CARTESIAN_POINT('',(0.6,-0.01375,0.005));
#2077=CARTESIAN_POINT('',(0.,-0.0075,0.));
#2078=CARTESIAN_POINT('',(0.,-0.0075,-0.005));
#2079=CARTESIAN_POINT('',(0.6,-0.0075,-0.005));
#2080=CARTESIAN_POINT('',(0.6,-0.0075,0.));
#2081=CARTESIAN_POINT('',(0.,-0.01375,-0.005));
#2082=CARTESIAN_POINT('',(0.,-0.02,-0.005));
#2083=CARTESIAN_POINT('',(0.6,-0.02,-0.005));
#2084=CARTESIAN_POINT('',(0.6,-0.01375,-0.005));
#2085=CARTESIAN_POINT('',(0.,-0.02,0.0125));
#2086=CARTESIAN_POINT('',(0.,-0.02,-0.02));
#2087=CARTESIAN_POINT('',(0.6,-0.02,-0.02));
#2088=CARTESIAN_POINT('',(0.6,-0.02,0.0125));
#2089=CARTESIAN_POINT('',(0.,-0.0125,-0.02));
#2090=CARTESIAN_POINT('',(0.,-0.005,-0.02));
#2091=CARTESIAN_POINT('',(0.6,-0.005,-0.02));
#2092=CARTESIAN_POINT('',(0.6,-0.0125,-0.02));
#2093=CARTESIAN_POINT('',(0.,-0.005,0.01375));
#2094=CARTESIAN_POINT('',(0.,-0.005,-0.0075));
#2095=CARTESIAN_POINT('',(0.6,-0.005,-0.0075));
#2096=CARTESIAN_POINT('',(0.6,-0.005,0.01375));
#2097=CARTESIAN_POINT('',(0.,0.,-0.0075));
#2098=CARTESIAN_POINT('',(0.,0.005,-0.0075));
#2099=CARTESIAN_POINT('',(0.6,0.005,-0.0075));
#2100=CARTESIAN_POINT('',(0.6,0.,-0.0075));
#2101=CARTESIAN_POINT('',(0.,0.005,0.01375));
#2102=CARTESIAN_POINT('',(0.,0.005,-0.02));
#2103=CARTESIAN_POINT('',(0.6,0.005,-0.02));
#2104=CARTESIAN_POINT('',(0.6,0.005,0.01375));
#2105=CARTESIAN_POINT('',(0.,-0.0125,-0.02));
#2106=CARTESIAN_POINT('',(0.,0.02,-0.02));
#2107=CARTESIAN_POINT('',(0.6,0.02,-0.02));
#2108=CARTESIAN_POINT('',(0.6,-0.0125,-0.02));
#2109=CARTESIAN_POINT('',(0.,0.02,0.0125));
#2110=CARTESIAN_POINT('',(0.,0.02,-0.005));
#2111=CARTESIAN_POINT('',(0.6,0.02,-0.005));
#2112=CARTESIAN_POINT('',(0.6,0.02,0.0125));
#2113=CARTESIAN_POINT('',(0.,-0.01375,-0.005));
#2114=CARTESIAN_POINT('',(0.,0.0075,-0.005));
#2115=CARTESIAN_POINT('',(0.6,0.0075,-0.005));
#2116=CARTESIAN_POINT('',(0.6,-0.01375,-0.005));
#2117=CARTESIAN_POINT('',(0.,0.0075,0.));
#2118=CARTESIAN_POINT('',(0.,0.0075,0.005));
#2119=CARTESIAN_POINT('',(0.6,0.0075,0.005));
#2120=CARTESIAN_POINT('',(0.6,0.0075,0.));
#2121=CARTESIAN_POINT('',(0.,-0.01375,0.005));
#2122=CARTESIAN_POINT('',(0.,0.02,0.005));
#2123=CARTESIAN_POINT('',(0.6,0.02,0.005));
#2124=CARTESIAN_POINT('',(0.6,-0.01375,0.005));
#2125=CARTESIAN_POINT('',(0.,0.02,0.0125));
#2126=CARTESIAN_POINT('',(0.,0.02,0.02));
#2127=CARTESIAN_POINT('',(0.6,0.02,0.02));
#2128=CARTESIAN_POINT('',(0.6,0.02,0.0125));
#2129=CARTESIAN_POINT('',(0.,-0.0125,0.02));
#2130=CARTESIAN_POINT('',(0.,0.005,0.02));
#2131=CARTESIAN_POINT('',(0.6,0.005,0.02));
#2132=CARTESIAN_POINT('',(0.6,-0.0125,0.02));
#2133=CARTESIAN_POINT('',(0.,0.005,0.01375));
#2134=CARTESIAN_POINT('',(0.,0.005,0.0075));
#2135=CARTESIAN_POINT('',(0.6,0.005,0.0075));
#2136=CARTESIAN_POINT('',(0.6,0.005,0.01375));
#2137=CARTESIAN_POINT('',(0.,0.,0.0075));
#2138=CARTESIAN_POINT('',(0.,-0.005,0.0075));
#2139=CARTESIAN_POINT('',(0.6,-0.005,0.0075));
#2140=CARTESIAN_POINT('',(0.6,0.,0.0075));
#2141=CARTESIAN_POINT('',(0.,-0.005,0.01375));
#2142=CARTESIAN_POINT('',(0.,-0.005,0.02));
#2143=CARTESIAN_POINT('',(0.6,-0.005,0.02));
#2144=CARTESIAN_POINT('',(0.6,-0.005,0.01375));
#2145=CARTESIAN_POINT('',(0.,-0.0125,0.02));
#2146=CARTESIAN_POINT('',(0.6,-0.0125,0.02));
#2147=CARTESIAN_POINT('',(3.035,0.,0.));
#2148=CARTESIAN_POINT('',(0.6,0.,0.));
#2149=CARTESIAN_POINT('',(0.6,0.,-0.005));
#2150=CARTESIAN_POINT('',(0.6,-0.00102272722870111,-0.00232438184320926));
#2151=CARTESIAN_POINT('',(0.554336529481697,0.214929672570228,-0.560001247496471));
#2152=CARTESIAN_POINT('',(0.,4.44089209850063E-19,1.11022302462516E-19));
#2153=CARTESIAN_POINT('',(0.,-0.02,0.02));
#2154=CARTESIAN_POINT('',(0.,-0.02,0.02));
#2155=CARTESIAN_POINT('',(0.,-0.02,0.005));
#2156=CARTESIAN_POINT('',(0.,-0.005,0.02));
#2157=CARTESIAN_POINT('',(0.,-0.005,0.02));
#2158=CARTESIAN_POINT('',(0.,-0.005,0.0075));
#2159=CARTESIAN_POINT('',(0.,-0.005,0.0075));
#2160=CARTESIAN_POINT('',(0.,0.005,0.0075));
#2161=CARTESIAN_POINT('',(0.,0.005,0.0075));
#2162=CARTESIAN_POINT('',(0.,0.005,0.02));
#2163=CARTESIAN_POINT('',(0.,0.005,0.02));
#2164=CARTESIAN_POINT('',(0.,-0.0125,0.02));
#2165=CARTESIAN_POINT('',(0.,0.02,0.02));
#2166=CARTESIAN_POINT('',(0.,0.02,0.005));
#2167=CARTESIAN_POINT('',(0.,0.02,0.005));
#2168=CARTESIAN_POINT('',(0.,-0.01375,0.005));
#2169=CARTESIAN_POINT('',(0.,0.0075,0.005));
#2170=CARTESIAN_POINT('',(0.,0.0075,-0.005));
#2171=CARTESIAN_POINT('',(0.,0.0075,-0.005));
#2172=CARTESIAN_POINT('',(0.,-0.01375,-0.005));
#2173=CARTESIAN_POINT('',(0.,0.02,-0.005));
#2174=CARTESIAN_POINT('',(0.,0.02,0.0125));
#2175=CARTESIAN_POINT('',(0.,0.02,-0.02));
#2176=CARTESIAN_POINT('',(0.,-0.0125,-0.02));
#2177=CARTESIAN_POINT('',(0.,0.005,-0.02));
#2178=CARTESIAN_POINT('',(0.,0.005,0.01375));
#2179=CARTESIAN_POINT('',(0.,0.005,-0.0075));
#2180=CARTESIAN_POINT('',(0.,-0.005,-0.0075));
#2181=CARTESIAN_POINT('',(0.,-0.005,-0.0075));
#2182=CARTESIAN_POINT('',(0.,-0.005,0.01375));
#2183=CARTESIAN_POINT('',(0.,-0.005,-0.02));
#2184=CARTESIAN_POINT('',(0.,-0.02,-0.02));
#2185=CARTESIAN_POINT('',(0.,-0.02,-0.02));
#2186=CARTESIAN_POINT('',(0.,-0.02,0.0125));
#2187=CARTESIAN_POINT('',(0.,-0.02,-0.005));
#2188=CARTESIAN_POINT('',(0.,-0.0075,-0.005));
#2189=CARTESIAN_POINT('',(0.,-0.0075,-0.005));
#2190=CARTESIAN_POINT('',(0.,-0.0075,0.005));
#2191=CARTESIAN_POINT('',(0.,-0.0075,0.005));
#2192=CARTESIAN_POINT('',(0.,-0.02,0.005));
#2193=CARTESIAN_POINT('',(0.,0.,0.));
#2194=CARTESIAN_POINT('',(0.,0.,-0.005));
#2195=CARTESIAN_POINT('',(0.,-0.02,0.0125));
#2196=CARTESIAN_POINT('',(0.,-0.02,0.005));
#2197=CARTESIAN_POINT('',(1.,-0.02,0.005));
#2198=CARTESIAN_POINT('',(1.,-0.02,0.0125));
#2199=CARTESIAN_POINT('',(1.,-0.02,0.02));
#2200=CARTESIAN_POINT('',(0.,-0.02,0.02));
#2201=CARTESIAN_POINT('',(0.,-0.01375,0.005));
#2202=CARTESIAN_POINT('',(0.,-0.0075,0.005));
#2203=CARTESIAN_POINT('',(1.,-0.0075,0.005));
#2204=CARTESIAN_POINT('',(1.,-0.01375,0.005));
#2205=CARTESIAN_POINT('',(0.,-0.0075,0.));
#2206=CARTESIAN_POINT('',(0.,-0.0075,-0.005));
#2207=CARTESIAN_POINT('',(1.,-0.0075,-0.005));
#2208=CARTESIAN_POINT('',(1.,-0.0075,0.));
#2209=CARTESIAN_POINT('',(0.,-0.01375,-0.005));
#2210=CARTESIAN_POINT('',(0.,-0.02,-0.005));
#2211=CARTESIAN_POINT('',(1.,-0.02,-0.005));
#2212=CARTESIAN_POINT('',(1.,-0.01375,-0.005));
#2213=CARTESIAN_POINT('',(0.,-0.02,0.0125));
#2214=CARTESIAN_POINT('',(0.,-0.02,-0.02));
#2215=CARTESIAN_POINT('',(1.,-0.02,-0.02));
#2216=CARTESIAN_POINT('',(1.,-0.02,0.0125));
#2217=CARTESIAN_POINT('',(0.,-0.0125,-0.02));
#2218=CARTESIAN_POINT('',(0.,-0.005,-0.02));
#2219=CARTESIAN_POINT('',(1.,-0.005,-0.02));
#2220=CARTESIAN_POINT('',(1.,-0.0125,-0.02));
#2221=CARTESIAN_POINT('',(0.,-0.005,0.01375));
#2222=CARTESIAN_POINT('',(0.,-0.005,-0.0075));
#2223=CARTESIAN_POINT('',(1.,-0.005,-0.0075));
#2224=CARTESIAN_POINT('',(1.,-0.005,0.01375));
#2225=CARTESIAN_POINT('',(0.,0.,-0.0075));
#2226=CARTESIAN_POINT('',(0.,0.005,-0.0075));
#2227=CARTESIAN_POINT('',(1.,0.005,-0.0075));
#2228=CARTESIAN_POINT('',(1.,0.,-0.0075));
#2229=CARTESIAN_POINT('',(0.,0.005,0.01375));
#2230=CARTESIAN_POINT('',(0.,0.005,-0.02));
#2231=CARTESIAN_POINT('',(1.,0.005,-0.02));
#2232=CARTESIAN_POINT('',(1.,0.005,0.01375));
#2233=CARTESIAN_POINT('',(0.,-0.0125,-0.02));
#2234=CARTESIAN_POINT('',(0.,0.02,-0.02));
#2235=CARTESIAN_POINT('',(1.,0.02,-0.02));
#2236=CARTESIAN_POINT('',(1.,-0.0125,-0.02));
#2237=CARTESIAN_POINT('',(0.,0.02,0.0125));
#2238=CARTESIAN_POINT('',(0.,0.02,-0.005));
#2239=CARTESIAN_POINT('',(1.,0.02,-0.005));
#2240=CARTESIAN_POINT('',(1.,0.02,0.0125));
#2241=CARTESIAN_POINT('',(0.,-0.01375,-0.005));
#2242=CARTESIAN_POINT('',(0.,0.0075,-0.005));
#2243=CARTESIAN_POINT('',(1.,0.0075,-0.005));
#2244=CARTESIAN_POINT('',(1.,-0.01375,-0.005));
#2245=CARTESIAN_POINT('',(0.,0.0075,0.));
#2246=CARTESIAN_POINT('',(0.,0.0075,0.005));
#2247=CARTESIAN_POINT('',(1.,0.0075,0.005));
#2248=CARTESIAN_POINT('',(1.,0.0075,0.));
#2249=CARTESIAN_POINT('',(0.,-0.01375,0.005));
#2250=CARTESIAN_POINT('',(0.,0.02,0.005));
#2251=CARTESIAN_POINT('',(1.,0.02,0.005));
#2252=CARTESIAN_POINT('',(1.,-0.01375,0.005));
#2253=CARTESIAN_POINT('',(0.,0.02,0.0125));
#2254=CARTESIAN_POINT('',(0.,0.02,0.02));
#2255=CARTESIAN_POINT('',(1.,0.02,0.02));
#2256=CARTESIAN_POINT('',(1.,0.02,0.0125));
#2257=CARTESIAN_POINT('',(0.,-0.0125,0.02));
#2258=CARTESIAN_POINT('',(0.,0.005,0.02));
#2259=CARTESIAN_POINT('',(1.,0.005,0.02));
#2260=CARTESIAN_POINT('',(1.,-0.0125,0.02));
#2261=CARTESIAN_POINT('',(0.,0.005,0.01375));
#2262=CARTESIAN_POINT('',(0.,0.005,0.0075));
#2263=CARTESIAN_POINT('',(1.,0.005,0.0075));
#2264=CARTESIAN_POINT('',(1.,0.005,0.01375));
#2265=CARTESIAN_POINT('',(0.,0.,0.0075));
#2266=CARTESIAN_POINT('',(0.,-0.005,0.0075));
#2267=CARTESIAN_POINT('',(1.,-0.005,0.0075));
#2268=CARTESIAN_POINT('',(1.,0.,0.0075));
#2269=CARTESIAN_POINT('',(0.,-0.005,0.01375));
#2270=CARTESIAN_POINT('',(0.,-0.005,0.02));
#2271=CARTESIAN_POINT('',(1.,-0.005,0.02));
#2272=CARTESIAN_POINT('',(1.,-0.005,0.01375));
#2273=CARTESIAN_POINT('',(0.,-0.0125,0.02));
#2274=CARTESIAN_POINT('',(1.,-0.0125,0.02));
#2275=CARTESIAN_POINT('',(3.035,0.,0.));
#2276=CARTESIAN_POINT('',(1.,0.,0.));
#2277=CARTESIAN_POINT('',(1.,0.,-0.005));
#2278=CARTESIAN_POINT('',(1.,-0.00102272722870111,-0.00232438184320926));
#2279=CARTESIAN_POINT('',(0.554336529481697,-0.365070327429771,0.0199987525035292));
#2280=CARTESIAN_POINT('',(-0.425663470518303,-0.365070327429771,-1.24749647083602E-06));
#2281=CARTESIAN_POINT('',(-0.425663470518303,-0.365070327429771,-0.560001247496471));
#2282=CARTESIAN_POINT('',(0.554336529481697,0.214929672570228,-1.24749647079092E-06));
#2283=CARTESIAN_POINT('',(-0.405663470518303,0.214929672570228,-1.24749647084643E-06));
#2284=CARTESIAN_POINT('',(-0.425663470518303,0.194929672570229,-1.24749647083602E-06));
#2285=CARTESIAN_POINT('',(-0.425663470518303,0.194929672570229,-0.560001247496471));
#2286=CARTESIAN_POINT('',(-0.405663470518303,-0.365070327429771,0.0199987525035292));
#2287=CARTESIAN_POINT('',(-0.405663470518303,0.194929672570229,-0.980001247496471));
#2288=CARTESIAN_POINT('',(-0.425663470518303,0.194929672570229,0.699998752503529));
#2289=CARTESIAN_POINT('',(-0.405663470518303,0.214929672570228,-0.560001247496471));
#2290=MECHANICAL_DESIGN_GEOMETRIC_PRESENTATION_REPRESENTATION('',(#1415,#1416,#1417),#2291);
#2291=(
GEOMETRIC_REPRESENTATION_CONTEXT(3)
GLOBAL_UNCERTAINTY_ASSIGNED_CONTEXT((#2295))
GLOBAL_UNIT_ASSIGNED_CONTEXT((#2301,#2300,#2299))
REPRESENTATION_CONTEXT('nur_al','TOP_LEVEL_ASSEMBLY_PART')
);
#2292=(
GEOMETRIC_REPRESENTATION_CONTEXT(3)
GLOBAL_UNCERTAINTY_ASSIGNED_CONTEXT((#2296))
GLOBAL_UNIT_ASSIGNED_CONTEXT((#2301,#2300,#2299))
REPRESENTATION_CONTEXT('alu_2000','COMPONENT_PART')
);
#2293=(
GEOMETRIC_REPRESENTATION_CONTEXT(3)
GLOBAL_UNCERTAINTY_ASSIGNED_CONTEXT((#2297))
GLOBAL_UNIT_ASSIGNED_CONTEXT((#2301,#2300,#2299))
REPRESENTATION_CONTEXT('alu_600','COMPONENT_PART')
);
#2294=(
GEOMETRIC_REPRESENTATION_CONTEXT(3)
GLOBAL_UNCERTAINTY_ASSIGNED_CONTEXT((#2298))
GLOBAL_UNIT_ASSIGNED_CONTEXT((#2301,#2300,#2299))
REPRESENTATION_CONTEXT('alu_1000','COMPONENT_PART')
);
#2295=UNCERTAINTY_MEASURE_WITH_UNIT(LENGTH_MEASURE(1.E-08),#2301,'DISTANCE_ACCURACY_VALUE','Maximum Tolerance applied to model');
#2296=UNCERTAINTY_MEASURE_WITH_UNIT(LENGTH_MEASURE(1.E-06),#2301,'DISTANCE_ACCURACY_VALUE','Maximum Tolerance applied to model');
#2297=UNCERTAINTY_MEASURE_WITH_UNIT(LENGTH_MEASURE(1.E-06),#2301,'DISTANCE_ACCURACY_VALUE','Maximum Tolerance applied to model');
#2298=UNCERTAINTY_MEASURE_WITH_UNIT(LENGTH_MEASURE(1.E-06),#2301,'DISTANCE_ACCURACY_VALUE','Maximum Tolerance applied to model');
#2299=(
NAMED_UNIT(*)
SI_UNIT($,.STERADIAN.)
SOLID_ANGLE_UNIT()
);
#2300=(
NAMED_UNIT(*)
PLANE_ANGLE_UNIT()
SI_UNIT($,.RADIAN.)
);
#2301=(
LENGTH_UNIT()
NAMED_UNIT(*)
SI_UNIT($,.METRE.)
);
#2302=PRODUCT_DEFINITION_SHAPE('','',#2319);
#2303=PRODUCT_DEFINITION_SHAPE('','',#2320);
#2304=PRODUCT_DEFINITION_SHAPE(' ','NAUO PRDDFN',#23);
#2305=PRODUCT_DEFINITION_SHAPE('','',#2321);
#2306=PRODUCT_DEFINITION_SHAPE(' ','NAUO PRDDFN',#24);
#2307=PRODUCT_DEFINITION_SHAPE('','',#2322);
#2308=PRODUCT_DEFINITION_SHAPE(' ','NAUO PRDDFN',#25);
#2309=PRODUCT_DEFINITION_SHAPE(' ','NAUO PRDDFN',#26);
#2310=PRODUCT_DEFINITION_SHAPE(' ','NAUO PRDDFN',#27);
#2311=PRODUCT_DEFINITION_SHAPE(' ','NAUO PRDDFN',#28);
#2312=PRODUCT_DEFINITION_SHAPE(' ','NAUO PRDDFN',#29);
#2313=PRODUCT_DEFINITION_SHAPE(' ','NAUO PRDDFN',#30);
#2314=PRODUCT_DEFINITION_SHAPE(' ','NAUO PRDDFN',#31);
#2315=PRODUCT_DEFINITION_SHAPE(' ','NAUO PRDDFN',#32);
#2316=PRODUCT_DEFINITION_SHAPE(' ','NAUO PRDDFN',#33);
#2317=PRODUCT_DEFINITION_SHAPE(' ','NAUO PRDDFN',#34);
#2318=PRODUCT_DEFINITION_SHAPE(' ','NAUO PRDDFN',#35);
#2319=PRODUCT_DEFINITION('','',#2327,#2323);
#2320=PRODUCT_DEFINITION('','',#2328,#2324);
#2321=PRODUCT_DEFINITION('','',#2329,#2325);
#2322=PRODUCT_DEFINITION('','',#2330,#2326);
#2323=PRODUCT_DEFINITION_CONTEXT('',#2348,'design');
#2324=PRODUCT_DEFINITION_CONTEXT('',#2348,'design');
#2325=PRODUCT_DEFINITION_CONTEXT('',#2348,'design');
#2326=PRODUCT_DEFINITION_CONTEXT('',#2348,'design');
#2327=PRODUCT_DEFINITION_FORMATION_WITH_SPECIFIED_SOURCE('','',#2335,.NOT_KNOWN.);
#2328=PRODUCT_DEFINITION_FORMATION_WITH_SPECIFIED_SOURCE('','',#2336,.NOT_KNOWN.);
#2329=PRODUCT_DEFINITION_FORMATION_WITH_SPECIFIED_SOURCE('','',#2337,.NOT_KNOWN.);
#2330=PRODUCT_DEFINITION_FORMATION_WITH_SPECIFIED_SOURCE('','',#2338,.NOT_KNOWN.);
#2331=PRODUCT_RELATED_PRODUCT_CATEGORY('','',(#2335));
#2332=PRODUCT_RELATED_PRODUCT_CATEGORY('','',(#2336));
#2333=PRODUCT_RELATED_PRODUCT_CATEGORY('','',(#2337));
#2334=PRODUCT_RELATED_PRODUCT_CATEGORY('','',(#2338));
#2335=PRODUCT('nur_al','nur_al','nur_al',(#2343));
#2336=PRODUCT('alu_2000','alu_2000','alu_2000',(#2344));
#2337=PRODUCT('alu_600','alu_600','alu_600',(#2345));
#2338=PRODUCT('alu_1000','alu_1000','alu_1000',(#2346));
#2339=PRODUCT_CATEGORY('','');
#2340=PRODUCT_CATEGORY('','');
#2341=PRODUCT_CATEGORY('','');
#2342=PRODUCT_CATEGORY('','');
#2343=PRODUCT_CONTEXT('',#2348,'mechanical');
#2344=PRODUCT_CONTEXT('',#2348,'mechanical');
#2345=PRODUCT_CONTEXT('',#2348,'mechanical');
#2346=PRODUCT_CONTEXT('',#2348,'mechanical');
#2347=APPLICATION_PROTOCOL_DEFINITION('international standard','ap242_managed_model_based_3d_engineering',2020,#2348);
#2348=APPLICATION_CONTEXT('managed model based 3d engineering');
ENDSEC;
END-ISO-10303-21;
