ISO-10303-21;
HEADER;
/*Generated by software containing ST-Developer
 * from STEP Tools, Inc. (www.steptools.com) 
 */
/*OPTION: using custom renumber hook */
/*description */
/*implementation_level */
FILE_DESCRIPTION(('STEP AP242 Edition 2','STEP AP242 Edition 2''CAx-IF Rec.Pracs.---Representation and Presentation of Product Manufa
cturing Information (PMI)---4.0---2014-10-13','STEP AP242 Edition 2''CAx-IF Rec.Pracs.---Representation and Presentation of Product Manufa
cturing Information (PMI)---4.0---2014-10-13''CAx-IF Rec.Pracs.---3D Tessellated Geometry---0.4---2014-09-14','STEP AP242 Edition 2''CAx-IF Rec.Pracs.---Representation and Presentation of Product Manufa
cturing Information (PMI)---4.0---2014-10-13''CAx-IF Rec.Pracs.---3D Tessellated Geometry---0.4---2014-09-14''2;1','STEP AP242 Edition 2''CAx-IF Rec.Pracs.---Representation and Presentation of Product Manufa
cturing Information (PMI)---4.0---2014-10-13''CAx-IF Rec.Pracs.---3D Tessellated Geometry---0.4---2014-09-14''2;1''CAx-IF Rec.Pracs.---User Defined Attributes---1.5---2016-08-15'),'2;1');
/*name */
/*time_stamp */
/*author */
/*organization */
/*preprocessor_version */
/*originating_system */
/*authorisation */
FILE_NAME('/vol/tmp/translate-15710224540967090848/69ad589402d78c505ae2e609.step','2026-03-08T11:08:05',(''),(''),'ST-DEVELOPER v20','ONSHAPE BY PTC INC, 1.211','  ');
FILE_SCHEMA(('AP242_MANAGED_MODEL_BASED_3D_ENGINEERING_MIM_LF { 1 0 10303 442 3 1 4 }'));
ENDSEC;
DATA;
#10=CONICAL_SURFACE('',#1230,0.045,0.671143835436009);
#11=CONICAL_SURFACE('',#1234,0.0265,0.671143835436009);
#12=CONTEXT_DEPENDENT_SHAPE_REPRESENTATION(#20,#1887);
#13=CONTEXT_DEPENDENT_SHAPE_REPRESENTATION(#21,#1890);
#14=CONTEXT_DEPENDENT_SHAPE_REPRESENTATION(#22,#1892);
#15=CONTEXT_DEPENDENT_SHAPE_REPRESENTATION(#23,#1893);
#16=NEXT_ASSEMBLY_USAGE_OCCURRENCE('NAUO1','outer_wall','outer_wall',#1894,#1895,'');
#17=NEXT_ASSEMBLY_USAGE_OCCURRENCE('NAUO2','interior','interior',#1896,#1897,'');
#18=NEXT_ASSEMBLY_USAGE_OCCURRENCE('NAUO3','drain','drain',#1896,#1898,'');
#19=NEXT_ASSEMBLY_USAGE_OCCURRENCE('NAUO4','interior_assembly <1>','interior_assembly <1>',#1894,#1896,'');
#20=(
REPRESENTATION_RELATIONSHIP(' ',' ',#1135,#1134)
REPRESENTATION_RELATIONSHIP_WITH_TRANSFORMATION(#24)
SHAPE_REPRESENTATION_RELATIONSHIP()
);
#21=(
REPRESENTATION_RELATIONSHIP(' ',' ',#1137,#1136)
REPRESENTATION_RELATIONSHIP_WITH_TRANSFORMATION(#25)
SHAPE_REPRESENTATION_RELATIONSHIP()
);
#22=(
REPRESENTATION_RELATIONSHIP(' ',' ',#1138,#1136)
REPRESENTATION_RELATIONSHIP_WITH_TRANSFORMATION(#26)
SHAPE_REPRESENTATION_RELATIONSHIP()
);
#23=(
REPRESENTATION_RELATIONSHIP(' ',' ',#1136,#1134)
REPRESENTATION_RELATIONSHIP_WITH_TRANSFORMATION(#27)
SHAPE_REPRESENTATION_RELATIONSHIP()
);
#24=ITEM_DEFINED_TRANSFORMATION(' ',' ',#1139,#1210);
#25=ITEM_DEFINED_TRANSFORMATION(' ',' ',#1139,#1237);
#26=ITEM_DEFINED_TRANSFORMATION(' ',' ',#1139,#1250);
#27=ITEM_DEFINED_TRANSFORMATION(' ',' ',#1139,#1251);
#28=SHAPE_REPRESENTATION_RELATIONSHIP('','',#1135,#31);
#29=SHAPE_REPRESENTATION_RELATIONSHIP('','',#1137,#32);
#30=SHAPE_REPRESENTATION_RELATIONSHIP('','',#1138,#33);
#31=ADVANCED_BREP_SHAPE_REPRESENTATION('',(#1126),#1873);
#32=ADVANCED_BREP_SHAPE_REPRESENTATION('',(#1127),#1875);
#33=ADVANCED_BREP_SHAPE_REPRESENTATION('',(#1128),#1876);
#34=CYLINDRICAL_SURFACE('',#1176,0.0033);
#35=CYLINDRICAL_SURFACE('',#1179,0.0033);
#36=CYLINDRICAL_SURFACE('',#1182,0.0033);
#37=CYLINDRICAL_SURFACE('',#1185,0.0033);
#38=CYLINDRICAL_SURFACE('',#1188,0.0033);
#39=CYLINDRICAL_SURFACE('',#1191,0.0033);
#40=CYLINDRICAL_SURFACE('',#1194,0.0033);
#41=CYLINDRICAL_SURFACE('',#1197,0.0033);
#42=CYLINDRICAL_SURFACE('',#1200,0.0033);
#43=CYLINDRICAL_SURFACE('',#1203,0.0033);
#44=CYLINDRICAL_SURFACE('',#1206,0.0033);
#45=CYLINDRICAL_SURFACE('',#1209,0.0033);
#46=CYLINDRICAL_SURFACE('',#1228,0.045);
#47=CYLINDRICAL_SURFACE('',#1232,0.04);
#48=CYLINDRICAL_SURFACE('',#1238,0.039);
#49=CYLINDRICAL_SURFACE('',#1243,0.025);
#50=CYLINDRICAL_SURFACE('',#1247,0.031);
#51=CIRCLE('',#1150,0.0033);
#52=CIRCLE('',#1151,0.0033);
#53=CIRCLE('',#1152,0.0033);
#54=CIRCLE('',#1153,0.0033);
#55=CIRCLE('',#1154,0.0033);
#56=CIRCLE('',#1155,0.0033);
#57=CIRCLE('',#1156,0.0033);
#58=CIRCLE('',#1157,0.0033);
#59=CIRCLE('',#1158,0.0033);
#60=CIRCLE('',#1159,0.0033);
#61=CIRCLE('',#1160,0.0033);
#62=CIRCLE('',#1161,0.0033);
#63=CIRCLE('',#1175,0.0033);
#64=CIRCLE('',#1178,0.0033);
#65=CIRCLE('',#1181,0.0033);
#66=CIRCLE('',#1184,0.0033);
#67=CIRCLE('',#1187,0.0033);
#68=CIRCLE('',#1190,0.0033);
#69=CIRCLE('',#1193,0.0033);
#70=CIRCLE('',#1196,0.0033);
#71=CIRCLE('',#1199,0.0033);
#72=CIRCLE('',#1202,0.0033);
#73=CIRCLE('',#1205,0.0033);
#74=CIRCLE('',#1208,0.0033);
#75=CIRCLE('',#1216,0.045);
#76=CIRCLE('',#1227,0.04);
#77=CIRCLE('',#1229,0.045);
#78=CIRCLE('',#1231,0.0315);
#79=CIRCLE('',#1233,0.04);
#80=CIRCLE('',#1235,0.0265);
#81=CIRCLE('',#1239,0.039);
#82=CIRCLE('',#1240,0.039);
#83=CIRCLE('',#1242,0.025);
#84=CIRCLE('',#1244,0.025);
#85=CIRCLE('',#1246,0.031);
#86=CIRCLE('',#1248,0.031);
#87=ORIENTED_EDGE('',*,*,#343,.F.);
#88=ORIENTED_EDGE('',*,*,#344,.T.);
#89=ORIENTED_EDGE('',*,*,#345,.T.);
#90=ORIENTED_EDGE('',*,*,#346,.F.);
#91=ORIENTED_EDGE('',*,*,#347,.F.);
#92=ORIENTED_EDGE('',*,*,#348,.F.);
#93=ORIENTED_EDGE('',*,*,#349,.T.);
#94=ORIENTED_EDGE('',*,*,#350,.F.);
#95=ORIENTED_EDGE('',*,*,#351,.F.);
#96=ORIENTED_EDGE('',*,*,#352,.T.);
#97=ORIENTED_EDGE('',*,*,#353,.T.);
#98=ORIENTED_EDGE('',*,*,#354,.F.);
#99=ORIENTED_EDGE('',*,*,#355,.T.);
#100=ORIENTED_EDGE('',*,*,#356,.T.);
#101=ORIENTED_EDGE('',*,*,#357,.T.);
#102=ORIENTED_EDGE('',*,*,#358,.F.);
#103=ORIENTED_EDGE('',*,*,#344,.F.);
#104=ORIENTED_EDGE('',*,*,#359,.T.);
#105=ORIENTED_EDGE('',*,*,#351,.T.);
#106=ORIENTED_EDGE('',*,*,#360,.F.);
#107=ORIENTED_EDGE('',*,*,#361,.F.);
#108=ORIENTED_EDGE('',*,*,#350,.T.);
#109=ORIENTED_EDGE('',*,*,#362,.T.);
#110=ORIENTED_EDGE('',*,*,#353,.F.);
#111=ORIENTED_EDGE('',*,*,#363,.T.);
#112=ORIENTED_EDGE('',*,*,#364,.T.);
#113=ORIENTED_EDGE('',*,*,#365,.F.);
#114=ORIENTED_EDGE('',*,*,#366,.F.);
#115=ORIENTED_EDGE('',*,*,#367,.T.);
#116=ORIENTED_EDGE('',*,*,#368,.T.);
#117=ORIENTED_EDGE('',*,*,#369,.F.);
#118=ORIENTED_EDGE('',*,*,#370,.T.);
#119=ORIENTED_EDGE('',*,*,#371,.F.);
#120=ORIENTED_EDGE('',*,*,#369,.T.);
#121=ORIENTED_EDGE('',*,*,#372,.T.);
#122=ORIENTED_EDGE('',*,*,#373,.F.);
#123=ORIENTED_EDGE('',*,*,#374,.F.);
#124=ORIENTED_EDGE('',*,*,#354,.T.);
#125=ORIENTED_EDGE('',*,*,#362,.F.);
#126=ORIENTED_EDGE('',*,*,#349,.F.);
#127=ORIENTED_EDGE('',*,*,#375,.T.);
#128=ORIENTED_EDGE('',*,*,#376,.F.);
#129=ORIENTED_EDGE('',*,*,#377,.F.);
#130=ORIENTED_EDGE('',*,*,#366,.T.);
#131=ORIENTED_EDGE('',*,*,#378,.T.);
#132=ORIENTED_EDGE('',*,*,#379,.T.);
#133=ORIENTED_EDGE('',*,*,#380,.T.);
#134=ORIENTED_EDGE('',*,*,#381,.T.);
#135=ORIENTED_EDGE('',*,*,#373,.T.);
#136=ORIENTED_EDGE('',*,*,#382,.F.);
#137=ORIENTED_EDGE('',*,*,#383,.F.);
#138=ORIENTED_EDGE('',*,*,#376,.T.);
#139=ORIENTED_EDGE('',*,*,#372,.F.);
#140=ORIENTED_EDGE('',*,*,#368,.F.);
#141=ORIENTED_EDGE('',*,*,#384,.T.);
#142=ORIENTED_EDGE('',*,*,#382,.T.);
#143=ORIENTED_EDGE('',*,*,#385,.T.);
#144=ORIENTED_EDGE('',*,*,#386,.T.);
#145=ORIENTED_EDGE('',*,*,#387,.T.);
#146=ORIENTED_EDGE('',*,*,#388,.T.);
#147=ORIENTED_EDGE('',*,*,#389,.T.);
#148=ORIENTED_EDGE('',*,*,#390,.T.);
#149=ORIENTED_EDGE('',*,*,#391,.T.);
#150=ORIENTED_EDGE('',*,*,#392,.T.);
#151=ORIENTED_EDGE('',*,*,#393,.T.);
#152=ORIENTED_EDGE('',*,*,#394,.T.);
#153=ORIENTED_EDGE('',*,*,#395,.T.);
#154=ORIENTED_EDGE('',*,*,#396,.T.);
#155=ORIENTED_EDGE('',*,*,#367,.F.);
#156=ORIENTED_EDGE('',*,*,#377,.T.);
#157=ORIENTED_EDGE('',*,*,#383,.T.);
#158=ORIENTED_EDGE('',*,*,#384,.F.);
#159=ORIENTED_EDGE('',*,*,#397,.F.);
#160=ORIENTED_EDGE('',*,*,#398,.T.);
#161=ORIENTED_EDGE('',*,*,#399,.T.);
#162=ORIENTED_EDGE('',*,*,#400,.F.);
#163=ORIENTED_EDGE('',*,*,#365,.T.);
#164=ORIENTED_EDGE('',*,*,#401,.T.);
#165=ORIENTED_EDGE('',*,*,#345,.F.);
#166=ORIENTED_EDGE('',*,*,#360,.T.);
#167=ORIENTED_EDGE('',*,*,#358,.T.);
#168=ORIENTED_EDGE('',*,*,#402,.T.);
#169=ORIENTED_EDGE('',*,*,#378,.F.);
#170=ORIENTED_EDGE('',*,*,#375,.F.);
#171=ORIENTED_EDGE('',*,*,#403,.T.);
#172=ORIENTED_EDGE('',*,*,#380,.F.);
#173=ORIENTED_EDGE('',*,*,#404,.F.);
#174=ORIENTED_EDGE('',*,*,#356,.F.);
#175=ORIENTED_EDGE('',*,*,#374,.T.);
#176=ORIENTED_EDGE('',*,*,#381,.F.);
#177=ORIENTED_EDGE('',*,*,#403,.F.);
#178=ORIENTED_EDGE('',*,*,#355,.F.);
#179=ORIENTED_EDGE('',*,*,#404,.T.);
#180=ORIENTED_EDGE('',*,*,#379,.F.);
#181=ORIENTED_EDGE('',*,*,#402,.F.);
#182=ORIENTED_EDGE('',*,*,#357,.F.);
#183=ORIENTED_EDGE('',*,*,#405,.T.);
#184=ORIENTED_EDGE('',*,*,#347,.T.);
#185=ORIENTED_EDGE('',*,*,#406,.F.);
#186=ORIENTED_EDGE('',*,*,#363,.F.);
#187=ORIENTED_EDGE('',*,*,#406,.T.);
#188=ORIENTED_EDGE('',*,*,#346,.T.);
#189=ORIENTED_EDGE('',*,*,#401,.F.);
#190=ORIENTED_EDGE('',*,*,#364,.F.);
#191=ORIENTED_EDGE('',*,*,#371,.T.);
#192=ORIENTED_EDGE('',*,*,#348,.T.);
#193=ORIENTED_EDGE('',*,*,#405,.F.);
#194=ORIENTED_EDGE('',*,*,#370,.F.);
#195=ORIENTED_EDGE('',*,*,#397,.T.);
#196=ORIENTED_EDGE('',*,*,#407,.F.);
#197=ORIENTED_EDGE('',*,*,#408,.F.);
#198=ORIENTED_EDGE('',*,*,#409,.T.);
#199=ORIENTED_EDGE('',*,*,#398,.F.);
#200=ORIENTED_EDGE('',*,*,#409,.F.);
#201=ORIENTED_EDGE('',*,*,#410,.T.);
#202=ORIENTED_EDGE('',*,*,#411,.T.);
#203=ORIENTED_EDGE('',*,*,#399,.F.);
#204=ORIENTED_EDGE('',*,*,#411,.F.);
#205=ORIENTED_EDGE('',*,*,#412,.T.);
#206=ORIENTED_EDGE('',*,*,#413,.T.);
#207=ORIENTED_EDGE('',*,*,#400,.T.);
#208=ORIENTED_EDGE('',*,*,#413,.F.);
#209=ORIENTED_EDGE('',*,*,#414,.F.);
#210=ORIENTED_EDGE('',*,*,#407,.T.);
#211=ORIENTED_EDGE('',*,*,#408,.T.);
#212=ORIENTED_EDGE('',*,*,#414,.T.);
#213=ORIENTED_EDGE('',*,*,#412,.F.);
#214=ORIENTED_EDGE('',*,*,#410,.F.);
#215=ORIENTED_EDGE('',*,*,#343,.T.);
#216=ORIENTED_EDGE('',*,*,#361,.T.);
#217=ORIENTED_EDGE('',*,*,#352,.F.);
#218=ORIENTED_EDGE('',*,*,#359,.F.);
#219=ORIENTED_EDGE('',*,*,#415,.F.);
#220=ORIENTED_EDGE('',*,*,#415,.T.);
#221=ORIENTED_EDGE('',*,*,#396,.F.);
#222=ORIENTED_EDGE('',*,*,#416,.F.);
#223=ORIENTED_EDGE('',*,*,#416,.T.);
#224=ORIENTED_EDGE('',*,*,#395,.F.);
#225=ORIENTED_EDGE('',*,*,#417,.F.);
#226=ORIENTED_EDGE('',*,*,#417,.T.);
#227=ORIENTED_EDGE('',*,*,#394,.F.);
#228=ORIENTED_EDGE('',*,*,#418,.F.);
#229=ORIENTED_EDGE('',*,*,#418,.T.);
#230=ORIENTED_EDGE('',*,*,#393,.F.);
#231=ORIENTED_EDGE('',*,*,#419,.F.);
#232=ORIENTED_EDGE('',*,*,#419,.T.);
#233=ORIENTED_EDGE('',*,*,#392,.F.);
#234=ORIENTED_EDGE('',*,*,#420,.F.);
#235=ORIENTED_EDGE('',*,*,#420,.T.);
#236=ORIENTED_EDGE('',*,*,#391,.F.);
#237=ORIENTED_EDGE('',*,*,#421,.F.);
#238=ORIENTED_EDGE('',*,*,#421,.T.);
#239=ORIENTED_EDGE('',*,*,#390,.F.);
#240=ORIENTED_EDGE('',*,*,#422,.F.);
#241=ORIENTED_EDGE('',*,*,#422,.T.);
#242=ORIENTED_EDGE('',*,*,#389,.F.);
#243=ORIENTED_EDGE('',*,*,#423,.F.);
#244=ORIENTED_EDGE('',*,*,#423,.T.);
#245=ORIENTED_EDGE('',*,*,#388,.F.);
#246=ORIENTED_EDGE('',*,*,#424,.F.);
#247=ORIENTED_EDGE('',*,*,#424,.T.);
#248=ORIENTED_EDGE('',*,*,#387,.F.);
#249=ORIENTED_EDGE('',*,*,#425,.F.);
#250=ORIENTED_EDGE('',*,*,#425,.T.);
#251=ORIENTED_EDGE('',*,*,#386,.F.);
#252=ORIENTED_EDGE('',*,*,#426,.F.);
#253=ORIENTED_EDGE('',*,*,#426,.T.);
#254=ORIENTED_EDGE('',*,*,#385,.F.);
#255=ORIENTED_EDGE('',*,*,#427,.F.);
#256=ORIENTED_EDGE('',*,*,#428,.F.);
#257=ORIENTED_EDGE('',*,*,#429,.T.);
#258=ORIENTED_EDGE('',*,*,#430,.T.);
#259=ORIENTED_EDGE('',*,*,#431,.T.);
#260=ORIENTED_EDGE('',*,*,#432,.F.);
#261=ORIENTED_EDGE('',*,*,#433,.F.);
#262=ORIENTED_EDGE('',*,*,#428,.T.);
#263=ORIENTED_EDGE('',*,*,#434,.T.);
#264=ORIENTED_EDGE('',*,*,#435,.F.);
#265=ORIENTED_EDGE('',*,*,#436,.F.);
#266=ORIENTED_EDGE('',*,*,#432,.T.);
#267=ORIENTED_EDGE('',*,*,#437,.F.);
#268=ORIENTED_EDGE('',*,*,#430,.F.);
#269=ORIENTED_EDGE('',*,*,#438,.T.);
#270=ORIENTED_EDGE('',*,*,#435,.T.);
#271=ORIENTED_EDGE('',*,*,#439,.F.);
#272=ORIENTED_EDGE('',*,*,#427,.T.);
#273=ORIENTED_EDGE('',*,*,#437,.T.);
#274=ORIENTED_EDGE('',*,*,#434,.F.);
#275=ORIENTED_EDGE('',*,*,#431,.F.);
#276=ORIENTED_EDGE('',*,*,#429,.F.);
#277=ORIENTED_EDGE('',*,*,#440,.F.);
#278=ORIENTED_EDGE('',*,*,#441,.T.);
#279=ORIENTED_EDGE('',*,*,#442,.T.);
#280=ORIENTED_EDGE('',*,*,#440,.T.);
#281=ORIENTED_EDGE('',*,*,#433,.T.);
#282=ORIENTED_EDGE('',*,*,#443,.F.);
#283=ORIENTED_EDGE('',*,*,#444,.T.);
#284=ORIENTED_EDGE('',*,*,#443,.T.);
#285=ORIENTED_EDGE('',*,*,#436,.T.);
#286=ORIENTED_EDGE('',*,*,#445,.F.);
#287=ORIENTED_EDGE('',*,*,#446,.T.);
#288=ORIENTED_EDGE('',*,*,#445,.T.);
#289=ORIENTED_EDGE('',*,*,#438,.F.);
#290=ORIENTED_EDGE('',*,*,#442,.F.);
#291=ORIENTED_EDGE('',*,*,#447,.T.);
#292=ORIENTED_EDGE('',*,*,#448,.T.);
#293=ORIENTED_EDGE('',*,*,#449,.T.);
#294=ORIENTED_EDGE('',*,*,#450,.T.);
#295=ORIENTED_EDGE('',*,*,#451,.T.);
#296=ORIENTED_EDGE('',*,*,#447,.F.);
#297=ORIENTED_EDGE('',*,*,#441,.F.);
#298=ORIENTED_EDGE('',*,*,#444,.F.);
#299=ORIENTED_EDGE('',*,*,#446,.F.);
#300=ORIENTED_EDGE('',*,*,#452,.T.);
#301=ORIENTED_EDGE('',*,*,#453,.F.);
#302=ORIENTED_EDGE('',*,*,#451,.F.);
#303=ORIENTED_EDGE('',*,*,#454,.T.);
#304=ORIENTED_EDGE('',*,*,#454,.F.);
#305=ORIENTED_EDGE('',*,*,#450,.F.);
#306=ORIENTED_EDGE('',*,*,#455,.T.);
#307=ORIENTED_EDGE('',*,*,#456,.T.);
#308=ORIENTED_EDGE('',*,*,#455,.F.);
#309=ORIENTED_EDGE('',*,*,#449,.F.);
#310=ORIENTED_EDGE('',*,*,#457,.T.);
#311=ORIENTED_EDGE('',*,*,#458,.T.);
#312=ORIENTED_EDGE('',*,*,#457,.F.);
#313=ORIENTED_EDGE('',*,*,#448,.F.);
#314=ORIENTED_EDGE('',*,*,#453,.T.);
#315=ORIENTED_EDGE('',*,*,#459,.T.);
#316=ORIENTED_EDGE('',*,*,#459,.F.);
#317=ORIENTED_EDGE('',*,*,#452,.F.);
#318=ORIENTED_EDGE('',*,*,#456,.F.);
#319=ORIENTED_EDGE('',*,*,#458,.F.);
#320=ORIENTED_EDGE('',*,*,#460,.T.);
#321=ORIENTED_EDGE('',*,*,#461,.F.);
#322=ORIENTED_EDGE('',*,*,#439,.T.);
#323=ORIENTED_EDGE('',*,*,#462,.F.);
#324=ORIENTED_EDGE('',*,*,#461,.T.);
#325=ORIENTED_EDGE('',*,*,#460,.F.);
#326=ORIENTED_EDGE('',*,*,#463,.T.);
#327=ORIENTED_EDGE('',*,*,#463,.F.);
#328=ORIENTED_EDGE('',*,*,#464,.T.);
#329=ORIENTED_EDGE('',*,*,#464,.F.);
#330=ORIENTED_EDGE('',*,*,#462,.T.);
#331=ORIENTED_EDGE('',*,*,#465,.T.);
#332=ORIENTED_EDGE('',*,*,#466,.F.);
#333=ORIENTED_EDGE('',*,*,#467,.F.);
#334=ORIENTED_EDGE('',*,*,#466,.T.);
#335=ORIENTED_EDGE('',*,*,#467,.T.);
#336=ORIENTED_EDGE('',*,*,#468,.F.);
#337=ORIENTED_EDGE('',*,*,#468,.T.);
#338=ORIENTED_EDGE('',*,*,#469,.F.);
#339=ORIENTED_EDGE('',*,*,#469,.T.);
#340=ORIENTED_EDGE('',*,*,#470,.F.);
#341=ORIENTED_EDGE('',*,*,#470,.T.);
#342=ORIENTED_EDGE('',*,*,#465,.F.);
#343=EDGE_CURVE('',#471,#472,#567,.T.);
#344=EDGE_CURVE('',#471,#473,#568,.T.);
#345=EDGE_CURVE('',#473,#474,#569,.T.);
#346=EDGE_CURVE('',#475,#474,#570,.T.);
#347=EDGE_CURVE('',#476,#475,#571,.T.);
#348=EDGE_CURVE('',#477,#476,#572,.T.);
#349=EDGE_CURVE('',#477,#478,#573,.T.);
#350=EDGE_CURVE('',#472,#478,#574,.T.);
#351=EDGE_CURVE('',#479,#480,#575,.T.);
#352=EDGE_CURVE('',#479,#481,#576,.T.);
#353=EDGE_CURVE('',#481,#482,#577,.T.);
#354=EDGE_CURVE('',#483,#482,#578,.T.);
#355=EDGE_CURVE('',#483,#484,#579,.T.);
#356=EDGE_CURVE('',#484,#485,#580,.T.);
#357=EDGE_CURVE('',#485,#486,#581,.T.);
#358=EDGE_CURVE('',#480,#486,#582,.T.);
#359=EDGE_CURVE('',#471,#479,#583,.T.);
#360=EDGE_CURVE('',#473,#480,#584,.T.);
#361=EDGE_CURVE('',#472,#481,#585,.T.);
#362=EDGE_CURVE('',#478,#482,#586,.T.);
#363=EDGE_CURVE('',#487,#488,#587,.T.);
#364=EDGE_CURVE('',#488,#489,#588,.T.);
#365=EDGE_CURVE('',#490,#489,#589,.T.);
#366=EDGE_CURVE('',#491,#490,#590,.T.);
#367=EDGE_CURVE('',#491,#492,#591,.T.);
#368=EDGE_CURVE('',#492,#493,#592,.T.);
#369=EDGE_CURVE('',#494,#493,#593,.T.);
#370=EDGE_CURVE('',#494,#487,#594,.T.);
#371=EDGE_CURVE('',#494,#477,#595,.T.);
#372=EDGE_CURVE('',#493,#495,#596,.T.);
#373=EDGE_CURVE('',#496,#495,#597,.T.);
#374=EDGE_CURVE('',#483,#496,#598,.T.);
#375=EDGE_CURVE('',#490,#497,#599,.T.);
#376=EDGE_CURVE('',#498,#497,#600,.T.);
#377=EDGE_CURVE('',#491,#498,#601,.T.);
#378=EDGE_CURVE('',#497,#499,#602,.T.);
#379=EDGE_CURVE('',#499,#500,#603,.T.);
#380=EDGE_CURVE('',#500,#501,#604,.T.);
#381=EDGE_CURVE('',#501,#496,#605,.T.);
#382=EDGE_CURVE('',#502,#495,#606,.T.);
#383=EDGE_CURVE('',#498,#502,#607,.T.);
#384=EDGE_CURVE('',#492,#502,#608,.T.);
#385=EDGE_CURVE('',#503,#503,#51,.T.);
#386=EDGE_CURVE('',#504,#504,#52,.T.);
#387=EDGE_CURVE('',#505,#505,#53,.T.);
#388=EDGE_CURVE('',#506,#506,#54,.T.);
#389=EDGE_CURVE('',#507,#507,#55,.T.);
#390=EDGE_CURVE('',#508,#508,#56,.T.);
#391=EDGE_CURVE('',#509,#509,#57,.T.);
#392=EDGE_CURVE('',#510,#510,#58,.T.);
#393=EDGE_CURVE('',#511,#511,#59,.T.);
#394=EDGE_CURVE('',#512,#512,#60,.T.);
#395=EDGE_CURVE('',#513,#513,#61,.T.);
#396=EDGE_CURVE('',#514,#514,#62,.T.);
#397=EDGE_CURVE('',#515,#516,#609,.T.);
#398=EDGE_CURVE('',#515,#517,#610,.T.);
#399=EDGE_CURVE('',#517,#518,#611,.T.);
#400=EDGE_CURVE('',#516,#518,#612,.T.);
#401=EDGE_CURVE('',#489,#474,#613,.T.);
#402=EDGE_CURVE('',#486,#499,#614,.T.);
#403=EDGE_CURVE('',#484,#501,#615,.T.);
#404=EDGE_CURVE('',#485,#500,#616,.T.);
#405=EDGE_CURVE('',#487,#476,#617,.T.);
#406=EDGE_CURVE('',#488,#475,#618,.T.);
#407=EDGE_CURVE('',#519,#516,#619,.T.);
#408=EDGE_CURVE('',#520,#519,#620,.T.);
#409=EDGE_CURVE('',#520,#515,#621,.T.);
#410=EDGE_CURVE('',#520,#521,#622,.T.);
#411=EDGE_CURVE('',#521,#517,#623,.T.);
#412=EDGE_CURVE('',#521,#522,#624,.T.);
#413=EDGE_CURVE('',#522,#518,#625,.T.);
#414=EDGE_CURVE('',#519,#522,#626,.T.);
#415=EDGE_CURVE('',#523,#523,#63,.T.);
#416=EDGE_CURVE('',#524,#524,#64,.T.);
#417=EDGE_CURVE('',#525,#525,#65,.T.);
#418=EDGE_CURVE('',#526,#526,#66,.T.);
#419=EDGE_CURVE('',#527,#527,#67,.T.);
#420=EDGE_CURVE('',#528,#528,#68,.T.);
#421=EDGE_CURVE('',#529,#529,#69,.T.);
#422=EDGE_CURVE('',#530,#530,#70,.T.);
#423=EDGE_CURVE('',#531,#531,#71,.T.);
#424=EDGE_CURVE('',#532,#532,#72,.T.);
#425=EDGE_CURVE('',#533,#533,#73,.T.);
#426=EDGE_CURVE('',#534,#534,#74,.T.);
#427=EDGE_CURVE('',#535,#536,#627,.T.);
#428=EDGE_CURVE('',#537,#535,#628,.T.);
#429=EDGE_CURVE('',#537,#538,#629,.T.);
#430=EDGE_CURVE('',#538,#536,#630,.T.);
#431=EDGE_CURVE('',#535,#539,#631,.T.);
#432=EDGE_CURVE('',#540,#539,#632,.T.);
#433=EDGE_CURVE('',#537,#540,#633,.T.);
#434=EDGE_CURVE('',#539,#541,#634,.T.);
#435=EDGE_CURVE('',#542,#541,#635,.T.);
#436=EDGE_CURVE('',#540,#542,#636,.T.);
#437=EDGE_CURVE('',#536,#541,#637,.T.);
#438=EDGE_CURVE('',#538,#542,#638,.T.);
#439=EDGE_CURVE('',#543,#543,#75,.F.);
#440=EDGE_CURVE('',#544,#537,#639,.T.);
#441=EDGE_CURVE('',#544,#545,#640,.F.);
#442=EDGE_CURVE('',#545,#538,#641,.T.);
#443=EDGE_CURVE('',#546,#540,#642,.T.);
#444=EDGE_CURVE('',#546,#544,#643,.F.);
#445=EDGE_CURVE('',#547,#542,#644,.T.);
#446=EDGE_CURVE('',#547,#546,#645,.T.);
#447=EDGE_CURVE('',#545,#547,#646,.T.);
#448=EDGE_CURVE('',#548,#549,#647,.T.);
#449=EDGE_CURVE('',#549,#550,#648,.T.);
#450=EDGE_CURVE('',#550,#551,#649,.F.);
#451=EDGE_CURVE('',#551,#548,#650,.F.);
#452=EDGE_CURVE('',#552,#553,#651,.F.);
#453=EDGE_CURVE('',#548,#553,#652,.T.);
#454=EDGE_CURVE('',#551,#552,#653,.T.);
#455=EDGE_CURVE('',#550,#554,#654,.T.);
#456=EDGE_CURVE('',#554,#552,#655,.F.);
#457=EDGE_CURVE('',#549,#555,#656,.T.);
#458=EDGE_CURVE('',#555,#554,#657,.T.);
#459=EDGE_CURVE('',#553,#555,#658,.T.);
#460=EDGE_CURVE('',#556,#556,#76,.T.);
#461=EDGE_CURVE('',#557,#557,#77,.T.);
#462=EDGE_CURVE('',#558,#558,#78,.T.);
#463=EDGE_CURVE('',#559,#559,#79,.T.);
#464=EDGE_CURVE('',#560,#560,#80,.T.);
#465=EDGE_CURVE('',#561,#561,#81,.T.);
#466=EDGE_CURVE('',#562,#562,#82,.T.);
#467=EDGE_CURVE('',#563,#563,#83,.T.);
#468=EDGE_CURVE('',#564,#564,#84,.T.);
#469=EDGE_CURVE('',#565,#565,#85,.T.);
#470=EDGE_CURVE('',#566,#566,#86,.T.);
#471=VERTEX_POINT('',#1573);
#472=VERTEX_POINT('',#1574);
#473=VERTEX_POINT('',#1576);
#474=VERTEX_POINT('',#1578);
#475=VERTEX_POINT('',#1580);
#476=VERTEX_POINT('',#1582);
#477=VERTEX_POINT('',#1584);
#478=VERTEX_POINT('',#1586);
#479=VERTEX_POINT('',#1590);
#480=VERTEX_POINT('',#1591);
#481=VERTEX_POINT('',#1593);
#482=VERTEX_POINT('',#1595);
#483=VERTEX_POINT('',#1597);
#484=VERTEX_POINT('',#1599);
#485=VERTEX_POINT('',#1601);
#486=VERTEX_POINT('',#1603);
#487=VERTEX_POINT('',#1613);
#488=VERTEX_POINT('',#1614);
#489=VERTEX_POINT('',#1616);
#490=VERTEX_POINT('',#1618);
#491=VERTEX_POINT('',#1620);
#492=VERTEX_POINT('',#1622);
#493=VERTEX_POINT('',#1624);
#494=VERTEX_POINT('',#1626);
#495=VERTEX_POINT('',#1631);
#496=VERTEX_POINT('',#1633);
#497=VERTEX_POINT('',#1637);
#498=VERTEX_POINT('',#1639);
#499=VERTEX_POINT('',#1643);
#500=VERTEX_POINT('',#1645);
#501=VERTEX_POINT('',#1647);
#502=VERTEX_POINT('',#1650);
#503=VERTEX_POINT('',#1656);
#504=VERTEX_POINT('',#1658);
#505=VERTEX_POINT('',#1660);
#506=VERTEX_POINT('',#1662);
#507=VERTEX_POINT('',#1664);
#508=VERTEX_POINT('',#1666);
#509=VERTEX_POINT('',#1668);
#510=VERTEX_POINT('',#1670);
#511=VERTEX_POINT('',#1672);
#512=VERTEX_POINT('',#1674);
#513=VERTEX_POINT('',#1676);
#514=VERTEX_POINT('',#1678);
#515=VERTEX_POINT('',#1680);
#516=VERTEX_POINT('',#1681);
#517=VERTEX_POINT('',#1683);
#518=VERTEX_POINT('',#1685);
#519=VERTEX_POINT('',#1702);
#520=VERTEX_POINT('',#1704);
#521=VERTEX_POINT('',#1708);
#522=VERTEX_POINT('',#1712);
#523=VERTEX_POINT('',#1719);
#524=VERTEX_POINT('',#1723);
#525=VERTEX_POINT('',#1727);
#526=VERTEX_POINT('',#1731);
#527=VERTEX_POINT('',#1735);
#528=VERTEX_POINT('',#1739);
#529=VERTEX_POINT('',#1743);
#530=VERTEX_POINT('',#1747);
#531=VERTEX_POINT('',#1751);
#532=VERTEX_POINT('',#1755);
#533=VERTEX_POINT('',#1759);
#534=VERTEX_POINT('',#1763);
#535=VERTEX_POINT('',#1768);
#536=VERTEX_POINT('',#1769);
#537=VERTEX_POINT('',#1771);
#538=VERTEX_POINT('',#1773);
#539=VERTEX_POINT('',#1777);
#540=VERTEX_POINT('',#1779);
#541=VERTEX_POINT('',#1783);
#542=VERTEX_POINT('',#1785);
#543=VERTEX_POINT('',#1792);
#544=VERTEX_POINT('',#1795);
#545=VERTEX_POINT('',#1797);
#546=VERTEX_POINT('',#1801);
#547=VERTEX_POINT('',#1805);
#548=VERTEX_POINT('',#1811);
#549=VERTEX_POINT('',#1812);
#550=VERTEX_POINT('',#1814);
#551=VERTEX_POINT('',#1816);
#552=VERTEX_POINT('',#1820);
#553=VERTEX_POINT('',#1821);
#554=VERTEX_POINT('',#1826);
#555=VERTEX_POINT('',#1830);
#556=VERTEX_POINT('',#1836);
#557=VERTEX_POINT('',#1839);
#558=VERTEX_POINT('',#1842);
#559=VERTEX_POINT('',#1845);
#560=VERTEX_POINT('',#1848);
#561=VERTEX_POINT('',#1853);
#562=VERTEX_POINT('',#1855);
#563=VERTEX_POINT('',#1858);
#564=VERTEX_POINT('',#1861);
#565=VERTEX_POINT('',#1864);
#566=VERTEX_POINT('',#1867);
#567=LINE('',#1572,#659);
#568=LINE('',#1575,#660);
#569=LINE('',#1577,#661);
#570=LINE('',#1579,#662);
#571=LINE('',#1581,#663);
#572=LINE('',#1583,#664);
#573=LINE('',#1585,#665);
#574=LINE('',#1587,#666);
#575=LINE('',#1589,#667);
#576=LINE('',#1592,#668);
#577=LINE('',#1594,#669);
#578=LINE('',#1596,#670);
#579=LINE('',#1598,#671);
#580=LINE('',#1600,#672);
#581=LINE('',#1602,#673);
#582=LINE('',#1604,#674);
#583=LINE('',#1606,#675);
#584=LINE('',#1607,#676);
#585=LINE('',#1609,#677);
#586=LINE('',#1610,#678);
#587=LINE('',#1612,#679);
#588=LINE('',#1615,#680);
#589=LINE('',#1617,#681);
#590=LINE('',#1619,#682);
#591=LINE('',#1621,#683);
#592=LINE('',#1623,#684);
#593=LINE('',#1625,#685);
#594=LINE('',#1627,#686);
#595=LINE('',#1629,#687);
#596=LINE('',#1630,#688);
#597=LINE('',#1632,#689);
#598=LINE('',#1634,#690);
#599=LINE('',#1636,#691);
#600=LINE('',#1638,#692);
#601=LINE('',#1640,#693);
#602=LINE('',#1642,#694);
#603=LINE('',#1644,#695);
#604=LINE('',#1646,#696);
#605=LINE('',#1648,#697);
#606=LINE('',#1649,#698);
#607=LINE('',#1651,#699);
#608=LINE('',#1653,#700);
#609=LINE('',#1679,#701);
#610=LINE('',#1682,#702);
#611=LINE('',#1684,#703);
#612=LINE('',#1686,#704);
#613=LINE('',#1688,#705);
#614=LINE('',#1689,#706);
#615=LINE('',#1691,#707);
#616=LINE('',#1692,#708);
#617=LINE('',#1696,#709);
#618=LINE('',#1697,#710);
#619=LINE('',#1701,#711);
#620=LINE('',#1703,#712);
#621=LINE('',#1705,#713);
#622=LINE('',#1707,#714);
#623=LINE('',#1709,#715);
#624=LINE('',#1711,#716);
#625=LINE('',#1713,#717);
#626=LINE('',#1715,#718);
#627=LINE('',#1767,#719);
#628=LINE('',#1770,#720);
#629=LINE('',#1772,#721);
#630=LINE('',#1774,#722);
#631=LINE('',#1776,#723);
#632=LINE('',#1778,#724);
#633=LINE('',#1780,#725);
#634=LINE('',#1782,#726);
#635=LINE('',#1784,#727);
#636=LINE('',#1786,#728);
#637=LINE('',#1788,#729);
#638=LINE('',#1789,#730);
#639=LINE('',#1794,#731);
#640=LINE('',#1796,#732);
#641=LINE('',#1798,#733);
#642=LINE('',#1800,#734);
#643=LINE('',#1802,#735);
#644=LINE('',#1804,#736);
#645=LINE('',#1806,#737);
#646=LINE('',#1808,#738);
#647=LINE('',#1810,#739);
#648=LINE('',#1813,#740);
#649=LINE('',#1815,#741);
#650=LINE('',#1817,#742);
#651=LINE('',#1819,#743);
#652=LINE('',#1822,#744);
#653=LINE('',#1823,#745);
#654=LINE('',#1825,#746);
#655=LINE('',#1827,#747);
#656=LINE('',#1829,#748);
#657=LINE('',#1831,#749);
#658=LINE('',#1833,#750);
#659=VECTOR('',#1256,1.);
#660=VECTOR('',#1257,1.);
#661=VECTOR('',#1258,1.);
#662=VECTOR('',#1259,1.);
#663=VECTOR('',#1260,1.);
#664=VECTOR('',#1261,1.);
#665=VECTOR('',#1262,1.);
#666=VECTOR('',#1263,1.);
#667=VECTOR('',#1266,1.);
#668=VECTOR('',#1267,1.);
#669=VECTOR('',#1268,1.);
#670=VECTOR('',#1269,1.);
#671=VECTOR('',#1270,1.);
#672=VECTOR('',#1271,1.);
#673=VECTOR('',#1272,1.);
#674=VECTOR('',#1273,1.);
#675=VECTOR('',#1276,1.);
#676=VECTOR('',#1277,1.);
#677=VECTOR('',#1280,1.);
#678=VECTOR('',#1281,1.);
#679=VECTOR('',#1284,1.);
#680=VECTOR('',#1285,1.);
#681=VECTOR('',#1286,1.);
#682=VECTOR('',#1287,1.);
#683=VECTOR('',#1288,1.);
#684=VECTOR('',#1289,1.);
#685=VECTOR('',#1290,1.);
#686=VECTOR('',#1291,1.);
#687=VECTOR('',#1294,1.);
#688=VECTOR('',#1295,1.);
#689=VECTOR('',#1296,1.);
#690=VECTOR('',#1297,1.);
#691=VECTOR('',#1300,1.);
#692=VECTOR('',#1301,1.);
#693=VECTOR('',#1302,1.);
#694=VECTOR('',#1305,1.);
#695=VECTOR('',#1306,1.);
#696=VECTOR('',#1307,1.);
#697=VECTOR('',#1308,1.);
#698=VECTOR('',#1309,1.);
#699=VECTOR('',#1310,1.);
#700=VECTOR('',#1313,1.);
#701=VECTOR('',#1340,1.);
#702=VECTOR('',#1341,1.);
#703=VECTOR('',#1342,1.);
#704=VECTOR('',#1343,1.);
#705=VECTOR('',#1346,1.);
#706=VECTOR('',#1347,1.);
#707=VECTOR('',#1350,1.);
#708=VECTOR('',#1351,1.);
#709=VECTOR('',#1358,1.);
#710=VECTOR('',#1359,1.);
#711=VECTOR('',#1366,1.);
#712=VECTOR('',#1367,1.);
#713=VECTOR('',#1368,1.);
#714=VECTOR('',#1371,1.);
#715=VECTOR('',#1372,1.);
#716=VECTOR('',#1375,1.);
#717=VECTOR('',#1376,1.);
#718=VECTOR('',#1379,1.);
#719=VECTOR('',#1458,1.);
#720=VECTOR('',#1459,1.);
#721=VECTOR('',#1460,1.);
#722=VECTOR('',#1461,1.);
#723=VECTOR('',#1464,1.);
#724=VECTOR('',#1465,1.);
#725=VECTOR('',#1466,1.);
#726=VECTOR('',#1469,1.);
#727=VECTOR('',#1470,1.);
#728=VECTOR('',#1471,1.);
#729=VECTOR('',#1474,1.);
#730=VECTOR('',#1475,1.);
#731=VECTOR('',#1482,1.);
#732=VECTOR('',#1483,1.);
#733=VECTOR('',#1484,1.);
#734=VECTOR('',#1487,1.);
#735=VECTOR('',#1488,1.);
#736=VECTOR('',#1491,1.);
#737=VECTOR('',#1492,1.);
#738=VECTOR('',#1495,1.);
#739=VECTOR('',#1498,1.);
#740=VECTOR('',#1499,1.);
#741=VECTOR('',#1500,1.);
#742=VECTOR('',#1501,1.);
#743=VECTOR('',#1504,1.);
#744=VECTOR('',#1505,1.);
#745=VECTOR('',#1506,1.);
#746=VECTOR('',#1509,1.);
#747=VECTOR('',#1510,1.);
#748=VECTOR('',#1513,1.);
#749=VECTOR('',#1514,1.);
#750=VECTOR('',#1517,1.);
#751=EDGE_LOOP('',(#87,#88,#89,#90,#91,#92,#93,#94));
#752=EDGE_LOOP('',(#95,#96,#97,#98,#99,#100,#101,#102));
#753=EDGE_LOOP('',(#103,#104,#105,#106));
#754=EDGE_LOOP('',(#107,#108,#109,#110));
#755=EDGE_LOOP('',(#111,#112,#113,#114,#115,#116,#117,#118));
#756=EDGE_LOOP('',(#119,#120,#121,#122,#123,#124,#125,#126));
#757=EDGE_LOOP('',(#127,#128,#129,#130));
#758=EDGE_LOOP('',(#131,#132,#133,#134,#135,#136,#137,#138));
#759=EDGE_LOOP('',(#139,#140,#141,#142));
#760=EDGE_LOOP('',(#143));
#761=EDGE_LOOP('',(#144));
#762=EDGE_LOOP('',(#145));
#763=EDGE_LOOP('',(#146));
#764=EDGE_LOOP('',(#147));
#765=EDGE_LOOP('',(#148));
#766=EDGE_LOOP('',(#149));
#767=EDGE_LOOP('',(#150));
#768=EDGE_LOOP('',(#151));
#769=EDGE_LOOP('',(#152));
#770=EDGE_LOOP('',(#153));
#771=EDGE_LOOP('',(#154));
#772=EDGE_LOOP('',(#155,#156,#157,#158));
#773=EDGE_LOOP('',(#159,#160,#161,#162));
#774=EDGE_LOOP('',(#163,#164,#165,#166,#167,#168,#169,#170));
#775=EDGE_LOOP('',(#171,#172,#173,#174));
#776=EDGE_LOOP('',(#175,#176,#177,#178));
#777=EDGE_LOOP('',(#179,#180,#181,#182));
#778=EDGE_LOOP('',(#183,#184,#185,#186));
#779=EDGE_LOOP('',(#187,#188,#189,#190));
#780=EDGE_LOOP('',(#191,#192,#193,#194));
#781=EDGE_LOOP('',(#195,#196,#197,#198));
#782=EDGE_LOOP('',(#199,#200,#201,#202));
#783=EDGE_LOOP('',(#203,#204,#205,#206));
#784=EDGE_LOOP('',(#207,#208,#209,#210));
#785=EDGE_LOOP('',(#211,#212,#213,#214));
#786=EDGE_LOOP('',(#215,#216,#217,#218));
#787=EDGE_LOOP('',(#219));
#788=EDGE_LOOP('',(#220));
#789=EDGE_LOOP('',(#221));
#790=EDGE_LOOP('',(#222));
#791=EDGE_LOOP('',(#223));
#792=EDGE_LOOP('',(#224));
#793=EDGE_LOOP('',(#225));
#794=EDGE_LOOP('',(#226));
#795=EDGE_LOOP('',(#227));
#796=EDGE_LOOP('',(#228));
#797=EDGE_LOOP('',(#229));
#798=EDGE_LOOP('',(#230));
#799=EDGE_LOOP('',(#231));
#800=EDGE_LOOP('',(#232));
#801=EDGE_LOOP('',(#233));
#802=EDGE_LOOP('',(#234));
#803=EDGE_LOOP('',(#235));
#804=EDGE_LOOP('',(#236));
#805=EDGE_LOOP('',(#237));
#806=EDGE_LOOP('',(#238));
#807=EDGE_LOOP('',(#239));
#808=EDGE_LOOP('',(#240));
#809=EDGE_LOOP('',(#241));
#810=EDGE_LOOP('',(#242));
#811=EDGE_LOOP('',(#243));
#812=EDGE_LOOP('',(#244));
#813=EDGE_LOOP('',(#245));
#814=EDGE_LOOP('',(#246));
#815=EDGE_LOOP('',(#247));
#816=EDGE_LOOP('',(#248));
#817=EDGE_LOOP('',(#249));
#818=EDGE_LOOP('',(#250));
#819=EDGE_LOOP('',(#251));
#820=EDGE_LOOP('',(#252));
#821=EDGE_LOOP('',(#253));
#822=EDGE_LOOP('',(#254));
#823=EDGE_LOOP('',(#255,#256,#257,#258));
#824=EDGE_LOOP('',(#259,#260,#261,#262));
#825=EDGE_LOOP('',(#263,#264,#265,#266));
#826=EDGE_LOOP('',(#267,#268,#269,#270));
#827=EDGE_LOOP('',(#271));
#828=EDGE_LOOP('',(#272,#273,#274,#275));
#829=EDGE_LOOP('',(#276,#277,#278,#279));
#830=EDGE_LOOP('',(#280,#281,#282,#283));
#831=EDGE_LOOP('',(#284,#285,#286,#287));
#832=EDGE_LOOP('',(#288,#289,#290,#291));
#833=EDGE_LOOP('',(#292,#293,#294,#295));
#834=EDGE_LOOP('',(#296,#297,#298,#299));
#835=EDGE_LOOP('',(#300,#301,#302,#303));
#836=EDGE_LOOP('',(#304,#305,#306,#307));
#837=EDGE_LOOP('',(#308,#309,#310,#311));
#838=EDGE_LOOP('',(#312,#313,#314,#315));
#839=EDGE_LOOP('',(#316,#317,#318,#319));
#840=EDGE_LOOP('',(#320));
#841=EDGE_LOOP('',(#321));
#842=EDGE_LOOP('',(#322));
#843=EDGE_LOOP('',(#323));
#844=EDGE_LOOP('',(#324));
#845=EDGE_LOOP('',(#325));
#846=EDGE_LOOP('',(#326));
#847=EDGE_LOOP('',(#327));
#848=EDGE_LOOP('',(#328));
#849=EDGE_LOOP('',(#329));
#850=EDGE_LOOP('',(#330));
#851=EDGE_LOOP('',(#331));
#852=EDGE_LOOP('',(#332));
#853=EDGE_LOOP('',(#333));
#854=EDGE_LOOP('',(#334));
#855=EDGE_LOOP('',(#335));
#856=EDGE_LOOP('',(#336));
#857=EDGE_LOOP('',(#337));
#858=EDGE_LOOP('',(#338));
#859=EDGE_LOOP('',(#339));
#860=EDGE_LOOP('',(#340));
#861=EDGE_LOOP('',(#341));
#862=EDGE_LOOP('',(#342));
#863=FACE_BOUND('',#751,.T.);
#864=FACE_BOUND('',#752,.T.);
#865=FACE_BOUND('',#753,.T.);
#866=FACE_BOUND('',#754,.T.);
#867=FACE_BOUND('',#755,.T.);
#868=FACE_BOUND('',#756,.T.);
#869=FACE_BOUND('',#757,.T.);
#870=FACE_BOUND('',#758,.T.);
#871=FACE_BOUND('',#759,.T.);
#872=FACE_BOUND('',#760,.T.);
#873=FACE_BOUND('',#761,.T.);
#874=FACE_BOUND('',#762,.T.);
#875=FACE_BOUND('',#763,.T.);
#876=FACE_BOUND('',#764,.T.);
#877=FACE_BOUND('',#765,.T.);
#878=FACE_BOUND('',#766,.T.);
#879=FACE_BOUND('',#767,.T.);
#880=FACE_BOUND('',#768,.T.);
#881=FACE_BOUND('',#769,.T.);
#882=FACE_BOUND('',#770,.T.);
#883=FACE_BOUND('',#771,.T.);
#884=FACE_BOUND('',#772,.T.);
#885=FACE_BOUND('',#773,.T.);
#886=FACE_BOUND('',#774,.T.);
#887=FACE_BOUND('',#775,.T.);
#888=FACE_BOUND('',#776,.T.);
#889=FACE_BOUND('',#777,.T.);
#890=FACE_BOUND('',#778,.T.);
#891=FACE_BOUND('',#779,.T.);
#892=FACE_BOUND('',#780,.T.);
#893=FACE_BOUND('',#781,.T.);
#894=FACE_BOUND('',#782,.T.);
#895=FACE_BOUND('',#783,.T.);
#896=FACE_BOUND('',#784,.T.);
#897=FACE_BOUND('',#785,.T.);
#898=FACE_BOUND('',#786,.T.);
#899=FACE_BOUND('',#787,.T.);
#900=FACE_BOUND('',#788,.T.);
#901=FACE_BOUND('',#789,.T.);
#902=FACE_BOUND('',#790,.T.);
#903=FACE_BOUND('',#791,.T.);
#904=FACE_BOUND('',#792,.T.);
#905=FACE_BOUND('',#793,.T.);
#906=FACE_BOUND('',#794,.T.);
#907=FACE_BOUND('',#795,.T.);
#908=FACE_BOUND('',#796,.T.);
#909=FACE_BOUND('',#797,.T.);
#910=FACE_BOUND('',#798,.T.);
#911=FACE_BOUND('',#799,.T.);
#912=FACE_BOUND('',#800,.T.);
#913=FACE_BOUND('',#801,.T.);
#914=FACE_BOUND('',#802,.T.);
#915=FACE_BOUND('',#803,.T.);
#916=FACE_BOUND('',#804,.T.);
#917=FACE_BOUND('',#805,.T.);
#918=FACE_BOUND('',#806,.T.);
#919=FACE_BOUND('',#807,.T.);
#920=FACE_BOUND('',#808,.T.);
#921=FACE_BOUND('',#809,.T.);
#922=FACE_BOUND('',#810,.T.);
#923=FACE_BOUND('',#811,.T.);
#924=FACE_BOUND('',#812,.T.);
#925=FACE_BOUND('',#813,.T.);
#926=FACE_BOUND('',#814,.T.);
#927=FACE_BOUND('',#815,.T.);
#928=FACE_BOUND('',#816,.T.);
#929=FACE_BOUND('',#817,.T.);
#930=FACE_BOUND('',#818,.T.);
#931=FACE_BOUND('',#819,.T.);
#932=FACE_BOUND('',#820,.T.);
#933=FACE_BOUND('',#821,.T.);
#934=FACE_BOUND('',#822,.T.);
#935=FACE_BOUND('',#823,.T.);
#936=FACE_BOUND('',#824,.T.);
#937=FACE_BOUND('',#825,.T.);
#938=FACE_BOUND('',#826,.T.);
#939=FACE_BOUND('',#827,.T.);
#940=FACE_BOUND('',#828,.T.);
#941=FACE_BOUND('',#829,.T.);
#942=FACE_BOUND('',#830,.T.);
#943=FACE_BOUND('',#831,.T.);
#944=FACE_BOUND('',#832,.T.);
#945=FACE_BOUND('',#833,.T.);
#946=FACE_BOUND('',#834,.T.);
#947=FACE_BOUND('',#835,.T.);
#948=FACE_BOUND('',#836,.T.);
#949=FACE_BOUND('',#837,.T.);
#950=FACE_BOUND('',#838,.T.);
#951=FACE_BOUND('',#839,.T.);
#952=FACE_BOUND('',#840,.T.);
#953=FACE_BOUND('',#841,.T.);
#954=FACE_BOUND('',#842,.T.);
#955=FACE_BOUND('',#843,.T.);
#956=FACE_BOUND('',#844,.T.);
#957=FACE_BOUND('',#845,.T.);
#958=FACE_BOUND('',#846,.T.);
#959=FACE_BOUND('',#847,.T.);
#960=FACE_BOUND('',#848,.T.);
#961=FACE_BOUND('',#849,.T.);
#962=FACE_BOUND('',#850,.T.);
#963=FACE_BOUND('',#851,.T.);
#964=FACE_BOUND('',#852,.T.);
#965=FACE_BOUND('',#853,.T.);
#966=FACE_BOUND('',#854,.T.);
#967=FACE_BOUND('',#855,.T.);
#968=FACE_BOUND('',#856,.T.);
#969=FACE_BOUND('',#857,.T.);
#970=FACE_BOUND('',#858,.T.);
#971=FACE_BOUND('',#859,.T.);
#972=FACE_BOUND('',#860,.T.);
#973=FACE_BOUND('',#861,.T.);
#974=FACE_BOUND('',#862,.T.);
#975=PLANE('',#1140);
#976=PLANE('',#1141);
#977=PLANE('',#1142);
#978=PLANE('',#1143);
#979=PLANE('',#1144);
#980=PLANE('',#1145);
#981=PLANE('',#1146);
#982=PLANE('',#1147);
#983=PLANE('',#1148);
#984=PLANE('',#1149);
#985=PLANE('',#1162);
#986=PLANE('',#1163);
#987=PLANE('',#1164);
#988=PLANE('',#1165);
#989=PLANE('',#1166);
#990=PLANE('',#1167);
#991=PLANE('',#1168);
#992=PLANE('',#1169);
#993=PLANE('',#1170);
#994=PLANE('',#1171);
#995=PLANE('',#1172);
#996=PLANE('',#1173);
#997=PLANE('',#1174);
#998=PLANE('',#1177);
#999=PLANE('',#1180);
#1000=PLANE('',#1183);
#1001=PLANE('',#1186);
#1002=PLANE('',#1189);
#1003=PLANE('',#1192);
#1004=PLANE('',#1195);
#1005=PLANE('',#1198);
#1006=PLANE('',#1201);
#1007=PLANE('',#1204);
#1008=PLANE('',#1207);
#1009=PLANE('',#1211);
#1010=PLANE('',#1212);
#1011=PLANE('',#1213);
#1012=PLANE('',#1214);
#1013=PLANE('',#1215);
#1014=PLANE('',#1217);
#1015=PLANE('',#1218);
#1016=PLANE('',#1219);
#1017=PLANE('',#1220);
#1018=PLANE('',#1221);
#1019=PLANE('',#1222);
#1020=PLANE('',#1223);
#1021=PLANE('',#1224);
#1022=PLANE('',#1225);
#1023=PLANE('',#1226);
#1024=PLANE('',#1236);
#1025=PLANE('',#1241);
#1026=PLANE('',#1245);
#1027=PLANE('',#1249);
#1028=ADVANCED_FACE('',(#863),#975,.F.);
#1029=ADVANCED_FACE('',(#864),#976,.T.);
#1030=ADVANCED_FACE('',(#865),#977,.T.);
#1031=ADVANCED_FACE('',(#866),#978,.F.);
#1032=ADVANCED_FACE('',(#867),#979,.T.);
#1033=ADVANCED_FACE('',(#868),#980,.F.);
#1034=ADVANCED_FACE('',(#869),#981,.F.);
#1035=ADVANCED_FACE('',(#870),#982,.F.);
#1036=ADVANCED_FACE('',(#871),#983,.T.);
#1037=ADVANCED_FACE('',(#872,#873,#874,#875,#876,#877,#878,#879,#880,#881,#882,#883,#884,#885),#984,.T.);
#1038=ADVANCED_FACE('',(#886),#985,.F.);
#1039=ADVANCED_FACE('',(#887),#986,.T.);
#1040=ADVANCED_FACE('',(#888),#987,.T.);
#1041=ADVANCED_FACE('',(#889),#988,.T.);
#1042=ADVANCED_FACE('',(#890),#989,.T.);
#1043=ADVANCED_FACE('',(#891),#990,.T.);
#1044=ADVANCED_FACE('',(#892),#991,.T.);
#1045=ADVANCED_FACE('',(#893),#992,.F.);
#1046=ADVANCED_FACE('',(#894),#993,.T.);
#1047=ADVANCED_FACE('',(#895),#994,.T.);
#1048=ADVANCED_FACE('',(#896),#995,.F.);
#1049=ADVANCED_FACE('',(#897,#898),#996,.F.);
#1050=ADVANCED_FACE('',(#899),#997,.T.);
#1051=ADVANCED_FACE('',(#900,#901),#34,.F.);
#1052=ADVANCED_FACE('',(#902),#998,.T.);
#1053=ADVANCED_FACE('',(#903,#904),#35,.F.);
#1054=ADVANCED_FACE('',(#905),#999,.T.);
#1055=ADVANCED_FACE('',(#906,#907),#36,.F.);
#1056=ADVANCED_FACE('',(#908),#1000,.T.);
#1057=ADVANCED_FACE('',(#909,#910),#37,.F.);
#1058=ADVANCED_FACE('',(#911),#1001,.T.);
#1059=ADVANCED_FACE('',(#912,#913),#38,.F.);
#1060=ADVANCED_FACE('',(#914),#1002,.T.);
#1061=ADVANCED_FACE('',(#915,#916),#39,.F.);
#1062=ADVANCED_FACE('',(#917),#1003,.T.);
#1063=ADVANCED_FACE('',(#918,#919),#40,.F.);
#1064=ADVANCED_FACE('',(#920),#1004,.T.);
#1065=ADVANCED_FACE('',(#921,#922),#41,.F.);
#1066=ADVANCED_FACE('',(#923),#1005,.T.);
#1067=ADVANCED_FACE('',(#924,#925),#42,.F.);
#1068=ADVANCED_FACE('',(#926),#1006,.T.);
#1069=ADVANCED_FACE('',(#927,#928),#43,.F.);
#1070=ADVANCED_FACE('',(#929),#1007,.T.);
#1071=ADVANCED_FACE('',(#930,#931),#44,.F.);
#1072=ADVANCED_FACE('',(#932),#1008,.T.);
#1073=ADVANCED_FACE('',(#933,#934),#45,.F.);
#1074=ADVANCED_FACE('',(#935),#1009,.T.);
#1075=ADVANCED_FACE('',(#936),#1010,.F.);
#1076=ADVANCED_FACE('',(#937),#1011,.F.);
#1077=ADVANCED_FACE('',(#938),#1012,.T.);
#1078=ADVANCED_FACE('',(#939,#940),#1013,.F.);
#1079=ADVANCED_FACE('',(#941),#1014,.F.);
#1080=ADVANCED_FACE('',(#942),#1015,.F.);
#1081=ADVANCED_FACE('',(#943),#1016,.T.);
#1082=ADVANCED_FACE('',(#944),#1017,.T.);
#1083=ADVANCED_FACE('',(#945,#946),#1018,.T.);
#1084=ADVANCED_FACE('',(#947),#1019,.T.);
#1085=ADVANCED_FACE('',(#948),#1020,.T.);
#1086=ADVANCED_FACE('',(#949),#1021,.F.);
#1087=ADVANCED_FACE('',(#950),#1022,.F.);
#1088=ADVANCED_FACE('',(#951,#952),#1023,.T.);
#1089=ADVANCED_FACE('',(#953,#954),#46,.T.);
#1090=ADVANCED_FACE('',(#955,#956),#10,.T.);
#1091=ADVANCED_FACE('',(#957,#958),#47,.F.);
#1092=ADVANCED_FACE('',(#959,#960),#11,.F.);
#1093=ADVANCED_FACE('',(#961,#962),#1024,.F.);
#1094=ADVANCED_FACE('',(#963,#964),#48,.T.);
#1095=ADVANCED_FACE('',(#965,#966),#1025,.F.);
#1096=ADVANCED_FACE('',(#967,#968),#49,.F.);
#1097=ADVANCED_FACE('',(#969,#970),#1026,.T.);
#1098=ADVANCED_FACE('',(#971,#972),#50,.T.);
#1099=ADVANCED_FACE('',(#973,#974),#1027,.T.);
#1100=CLOSED_SHELL('',(#1028,#1029,#1030,#1031,#1032,#1033,#1034,#1035,#1036,#1037,#1038,#1039,#1040,#1041,#1042,#1043,#1044,#1045,#1046,#1047,#1048,#1049,#1050,#1051,#1052,#1053,#1054,#1055,#1056,#1057,#1058,#1059,#1060,#1061,#1062,#1063,#1064,#1065,#1066,#1067,#1068,#1069,#1070,#1071,#1072,#1073));
#1101=CLOSED_SHELL('',(#1074,#1075,#1076,#1077,#1078,#1079,#1080,#1081,#1082,#1083,#1084,#1085,#1086,#1087,#1088,#1089,#1090,#1091,#1092,#1093));
#1102=CLOSED_SHELL('',(#1094,#1095,#1096,#1097,#1098,#1099));
#1103=STYLED_ITEM('',(#1106),#1126);
#1104=STYLED_ITEM('',(#1107),#1127);
#1105=STYLED_ITEM('',(#1108),#1128);
#1106=PRESENTATION_STYLE_ASSIGNMENT((#1109));
#1107=PRESENTATION_STYLE_ASSIGNMENT((#1110));
#1108=PRESENTATION_STYLE_ASSIGNMENT((#1111));
#1109=SURFACE_STYLE_USAGE(.BOTH.,#1112);
#1110=SURFACE_STYLE_USAGE(.BOTH.,#1113);
#1111=SURFACE_STYLE_USAGE(.BOTH.,#1114);
#1112=SURFACE_SIDE_STYLE('',(#1115));
#1113=SURFACE_SIDE_STYLE('',(#1116));
#1114=SURFACE_SIDE_STYLE('',(#1117));
#1115=SURFACE_STYLE_FILL_AREA(#1118);
#1116=SURFACE_STYLE_FILL_AREA(#1119);
#1117=SURFACE_STYLE_FILL_AREA(#1120);
#1118=FILL_AREA_STYLE('',(#1121));
#1119=FILL_AREA_STYLE('',(#1122));
#1120=FILL_AREA_STYLE('',(#1123));
#1121=FILL_AREA_STYLE_COLOUR('',#1124);
#1122=FILL_AREA_STYLE_COLOUR('',#1125);
#1123=FILL_AREA_STYLE_COLOUR('',#1124);
#1124=COLOUR_RGB('',0.615686274509804,0.811764705882353,0.929411764705882);
#1125=COLOUR_RGB('',0.647058823529412,0.647058823529412,0.647058823529412);
#1126=MANIFOLD_SOLID_BREP('outer_wall',#1100);
#1127=MANIFOLD_SOLID_BREP('interior',#1101);
#1128=MANIFOLD_SOLID_BREP('drain',#1102);
#1129=SHAPE_DEFINITION_REPRESENTATION(#1885,#1134);
#1130=SHAPE_DEFINITION_REPRESENTATION(#1886,#1135);
#1131=SHAPE_DEFINITION_REPRESENTATION(#1888,#1136);
#1132=SHAPE_DEFINITION_REPRESENTATION(#1889,#1137);
#1133=SHAPE_DEFINITION_REPRESENTATION(#1891,#1138);
#1134=SHAPE_REPRESENTATION('chamber_wo_lid',(#1139,#1210,#1251),#1872);
#1135=SHAPE_REPRESENTATION('outer_wall',(#1139),#1873);
#1136=SHAPE_REPRESENTATION('interior_assembly <1>',(#1139,#1237,#1250),#1874);
#1137=SHAPE_REPRESENTATION('interior',(#1139),#1875);
#1138=SHAPE_REPRESENTATION('drain',(#1139),#1876);
#1139=AXIS2_PLACEMENT_3D('',#1570,#1252,#1253);
#1140=AXIS2_PLACEMENT_3D('',#1571,#1254,#1255);
#1141=AXIS2_PLACEMENT_3D('',#1588,#1264,#1265);
#1142=AXIS2_PLACEMENT_3D('',#1605,#1274,#1275);
#1143=AXIS2_PLACEMENT_3D('',#1608,#1278,#1279);
#1144=AXIS2_PLACEMENT_3D('',#1611,#1282,#1283);
#1145=AXIS2_PLACEMENT_3D('',#1628,#1292,#1293);
#1146=AXIS2_PLACEMENT_3D('',#1635,#1298,#1299);
#1147=AXIS2_PLACEMENT_3D('',#1641,#1303,#1304);
#1148=AXIS2_PLACEMENT_3D('',#1652,#1311,#1312);
#1149=AXIS2_PLACEMENT_3D('',#1654,#1314,#1315);
#1150=AXIS2_PLACEMENT_3D('',#1655,#1316,#1317);
#1151=AXIS2_PLACEMENT_3D('',#1657,#1318,#1319);
#1152=AXIS2_PLACEMENT_3D('',#1659,#1320,#1321);
#1153=AXIS2_PLACEMENT_3D('',#1661,#1322,#1323);
#1154=AXIS2_PLACEMENT_3D('',#1663,#1324,#1325);
#1155=AXIS2_PLACEMENT_3D('',#1665,#1326,#1327);
#1156=AXIS2_PLACEMENT_3D('',#1667,#1328,#1329);
#1157=AXIS2_PLACEMENT_3D('',#1669,#1330,#1331);
#1158=AXIS2_PLACEMENT_3D('',#1671,#1332,#1333);
#1159=AXIS2_PLACEMENT_3D('',#1673,#1334,#1335);
#1160=AXIS2_PLACEMENT_3D('',#1675,#1336,#1337);
#1161=AXIS2_PLACEMENT_3D('',#1677,#1338,#1339);
#1162=AXIS2_PLACEMENT_3D('',#1687,#1344,#1345);
#1163=AXIS2_PLACEMENT_3D('',#1690,#1348,#1349);
#1164=AXIS2_PLACEMENT_3D('',#1693,#1352,#1353);
#1165=AXIS2_PLACEMENT_3D('',#1694,#1354,#1355);
#1166=AXIS2_PLACEMENT_3D('',#1695,#1356,#1357);
#1167=AXIS2_PLACEMENT_3D('',#1698,#1360,#1361);
#1168=AXIS2_PLACEMENT_3D('',#1699,#1362,#1363);
#1169=AXIS2_PLACEMENT_3D('',#1700,#1364,#1365);
#1170=AXIS2_PLACEMENT_3D('',#1706,#1369,#1370);
#1171=AXIS2_PLACEMENT_3D('',#1710,#1373,#1374);
#1172=AXIS2_PLACEMENT_3D('',#1714,#1377,#1378);
#1173=AXIS2_PLACEMENT_3D('',#1716,#1380,#1381);
#1174=AXIS2_PLACEMENT_3D('',#1717,#1382,#1383);
#1175=AXIS2_PLACEMENT_3D('',#1718,#1384,#1385);
#1176=AXIS2_PLACEMENT_3D('',#1720,#1386,#1387);
#1177=AXIS2_PLACEMENT_3D('',#1721,#1388,#1389);
#1178=AXIS2_PLACEMENT_3D('',#1722,#1390,#1391);
#1179=AXIS2_PLACEMENT_3D('',#1724,#1392,#1393);
#1180=AXIS2_PLACEMENT_3D('',#1725,#1394,#1395);
#1181=AXIS2_PLACEMENT_3D('',#1726,#1396,#1397);
#1182=AXIS2_PLACEMENT_3D('',#1728,#1398,#1399);
#1183=AXIS2_PLACEMENT_3D('',#1729,#1400,#1401);
#1184=AXIS2_PLACEMENT_3D('',#1730,#1402,#1403);
#1185=AXIS2_PLACEMENT_3D('',#1732,#1404,#1405);
#1186=AXIS2_PLACEMENT_3D('',#1733,#1406,#1407);
#1187=AXIS2_PLACEMENT_3D('',#1734,#1408,#1409);
#1188=AXIS2_PLACEMENT_3D('',#1736,#1410,#1411);
#1189=AXIS2_PLACEMENT_3D('',#1737,#1412,#1413);
#1190=AXIS2_PLACEMENT_3D('',#1738,#1414,#1415);
#1191=AXIS2_PLACEMENT_3D('',#1740,#1416,#1417);
#1192=AXIS2_PLACEMENT_3D('',#1741,#1418,#1419);
#1193=AXIS2_PLACEMENT_3D('',#1742,#1420,#1421);
#1194=AXIS2_PLACEMENT_3D('',#1744,#1422,#1423);
#1195=AXIS2_PLACEMENT_3D('',#1745,#1424,#1425);
#1196=AXIS2_PLACEMENT_3D('',#1746,#1426,#1427);
#1197=AXIS2_PLACEMENT_3D('',#1748,#1428,#1429);
#1198=AXIS2_PLACEMENT_3D('',#1749,#1430,#1431);
#1199=AXIS2_PLACEMENT_3D('',#1750,#1432,#1433);
#1200=AXIS2_PLACEMENT_3D('',#1752,#1434,#1435);
#1201=AXIS2_PLACEMENT_3D('',#1753,#1436,#1437);
#1202=AXIS2_PLACEMENT_3D('',#1754,#1438,#1439);
#1203=AXIS2_PLACEMENT_3D('',#1756,#1440,#1441);
#1204=AXIS2_PLACEMENT_3D('',#1757,#1442,#1443);
#1205=AXIS2_PLACEMENT_3D('',#1758,#1444,#1445);
#1206=AXIS2_PLACEMENT_3D('',#1760,#1446,#1447);
#1207=AXIS2_PLACEMENT_3D('',#1761,#1448,#1449);
#1208=AXIS2_PLACEMENT_3D('',#1762,#1450,#1451);
#1209=AXIS2_PLACEMENT_3D('',#1764,#1452,#1453);
#1210=AXIS2_PLACEMENT_3D('',#1765,#1454,#1455);
#1211=AXIS2_PLACEMENT_3D('',#1766,#1456,#1457);
#1212=AXIS2_PLACEMENT_3D('',#1775,#1462,#1463);
#1213=AXIS2_PLACEMENT_3D('',#1781,#1467,#1468);
#1214=AXIS2_PLACEMENT_3D('',#1787,#1472,#1473);
#1215=AXIS2_PLACEMENT_3D('',#1790,#1476,#1477);
#1216=AXIS2_PLACEMENT_3D('',#1791,#1478,#1479);
#1217=AXIS2_PLACEMENT_3D('',#1793,#1480,#1481);
#1218=AXIS2_PLACEMENT_3D('',#1799,#1485,#1486);
#1219=AXIS2_PLACEMENT_3D('',#1803,#1489,#1490);
#1220=AXIS2_PLACEMENT_3D('',#1807,#1493,#1494);
#1221=AXIS2_PLACEMENT_3D('',#1809,#1496,#1497);
#1222=AXIS2_PLACEMENT_3D('',#1818,#1502,#1503);
#1223=AXIS2_PLACEMENT_3D('',#1824,#1507,#1508);
#1224=AXIS2_PLACEMENT_3D('',#1828,#1511,#1512);
#1225=AXIS2_PLACEMENT_3D('',#1832,#1515,#1516);
#1226=AXIS2_PLACEMENT_3D('',#1834,#1518,#1519);
#1227=AXIS2_PLACEMENT_3D('',#1835,#1520,#1521);
#1228=AXIS2_PLACEMENT_3D('',#1837,#1522,#1523);
#1229=AXIS2_PLACEMENT_3D('',#1838,#1524,#1525);
#1230=AXIS2_PLACEMENT_3D('',#1840,#1526,#1527);
#1231=AXIS2_PLACEMENT_3D('',#1841,#1528,#1529);
#1232=AXIS2_PLACEMENT_3D('',#1843,#1530,#1531);
#1233=AXIS2_PLACEMENT_3D('',#1844,#1532,#1533);
#1234=AXIS2_PLACEMENT_3D('',#1846,#1534,#1535);
#1235=AXIS2_PLACEMENT_3D('',#1847,#1536,#1537);
#1236=AXIS2_PLACEMENT_3D('',#1849,#1538,#1539);
#1237=AXIS2_PLACEMENT_3D('',#1850,#1540,#1541);
#1238=AXIS2_PLACEMENT_3D('',#1851,#1542,#1543);
#1239=AXIS2_PLACEMENT_3D('',#1852,#1544,#1545);
#1240=AXIS2_PLACEMENT_3D('',#1854,#1546,#1547);
#1241=AXIS2_PLACEMENT_3D('',#1856,#1548,#1549);
#1242=AXIS2_PLACEMENT_3D('',#1857,#1550,#1551);
#1243=AXIS2_PLACEMENT_3D('',#1859,#1552,#1553);
#1244=AXIS2_PLACEMENT_3D('',#1860,#1554,#1555);
#1245=AXIS2_PLACEMENT_3D('',#1862,#1556,#1557);
#1246=AXIS2_PLACEMENT_3D('',#1863,#1558,#1559);
#1247=AXIS2_PLACEMENT_3D('',#1865,#1560,#1561);
#1248=AXIS2_PLACEMENT_3D('',#1866,#1562,#1563);
#1249=AXIS2_PLACEMENT_3D('',#1868,#1564,#1565);
#1250=AXIS2_PLACEMENT_3D('',#1869,#1566,#1567);
#1251=AXIS2_PLACEMENT_3D('',#1870,#1568,#1569);
#1252=DIRECTION('',(0.,0.,1.));
#1253=DIRECTION('',(1.,0.,0.));
#1254=DIRECTION('',(0.,1.,0.));
#1255=DIRECTION('',(0.,0.,1.));
#1256=DIRECTION('',(1.,0.,0.));
#1257=DIRECTION('',(0.,0.,-1.));
#1258=DIRECTION('',(1.,0.,0.));
#1259=DIRECTION('',(0.,0.,-1.));
#1260=DIRECTION('',(-1.,0.,0.));
#1261=DIRECTION('',(0.,0.,1.));
#1262=DIRECTION('',(1.,0.,0.));
#1263=DIRECTION('',(0.,0.,-1.));
#1264=DIRECTION('',(0.,1.,0.));
#1265=DIRECTION('',(0.,0.,1.));
#1266=DIRECTION('',(0.,0.,-1.));
#1267=DIRECTION('',(1.,0.,0.));
#1268=DIRECTION('',(0.,0.,-1.));
#1269=DIRECTION('',(1.,0.,0.));
#1270=DIRECTION('',(0.,0.,1.));
#1271=DIRECTION('',(-1.,0.,0.));
#1272=DIRECTION('',(0.,0.,-1.));
#1273=DIRECTION('',(1.,0.,0.));
#1274=DIRECTION('',(1.,0.,0.));
#1275=DIRECTION('',(0.,0.,-1.));
#1276=DIRECTION('',(0.,-1.,0.));
#1277=DIRECTION('',(0.,-1.,0.));
#1278=DIRECTION('',(1.,0.,0.));
#1279=DIRECTION('',(0.,0.,-1.));
#1280=DIRECTION('',(0.,-1.,0.));
#1281=DIRECTION('',(0.,-1.,0.));
#1282=DIRECTION('',(0.,1.,0.));
#1283=DIRECTION('',(0.,0.,1.));
#1284=DIRECTION('',(-1.,0.,0.));
#1285=DIRECTION('',(0.,0.,-1.));
#1286=DIRECTION('',(1.,0.,0.));
#1287=DIRECTION('',(0.,0.,-1.));
#1288=DIRECTION('',(1.,0.,0.));
#1289=DIRECTION('',(0.,0.,-1.));
#1290=DIRECTION('',(1.,0.,0.));
#1291=DIRECTION('',(0.,0.,1.));
#1292=DIRECTION('',(0.,0.,1.));
#1293=DIRECTION('',(1.,0.,0.));
#1294=DIRECTION('',(0.,-1.,0.));
#1295=DIRECTION('',(0.,-1.,0.));
#1296=DIRECTION('',(1.,0.,0.));
#1297=DIRECTION('',(0.,-1.,0.));
#1298=DIRECTION('',(1.,0.,0.));
#1299=DIRECTION('',(0.,0.,-1.));
#1300=DIRECTION('',(0.,-1.,0.));
#1301=DIRECTION('',(0.,0.,-1.));
#1302=DIRECTION('',(0.,-1.,0.));
#1303=DIRECTION('',(0.,1.,0.));
#1304=DIRECTION('',(0.,0.,1.));
#1305=DIRECTION('',(1.,0.,0.));
#1306=DIRECTION('',(0.,0.,1.));
#1307=DIRECTION('',(1.,0.,0.));
#1308=DIRECTION('',(0.,0.,-1.));
#1309=DIRECTION('',(0.,0.,-1.));
#1310=DIRECTION('',(1.,0.,0.));
#1311=DIRECTION('',(1.,0.,0.));
#1312=DIRECTION('',(0.,0.,-1.));
#1313=DIRECTION('',(0.,-1.,0.));
#1314=DIRECTION('',(0.,0.,1.));
#1315=DIRECTION('',(1.,0.,0.));
#1316=DIRECTION('',(0.,0.,-1.));
#1317=DIRECTION('',(-1.,0.,0.));
#1318=DIRECTION('',(0.,0.,-1.));
#1319=DIRECTION('',(-1.,0.,0.));
#1320=DIRECTION('',(0.,0.,-1.));
#1321=DIRECTION('',(-1.,0.,0.));
#1322=DIRECTION('',(0.,0.,-1.));
#1323=DIRECTION('',(-1.,0.,0.));
#1324=DIRECTION('',(0.,0.,-1.));
#1325=DIRECTION('',(-1.,0.,0.));
#1326=DIRECTION('',(0.,0.,-1.));
#1327=DIRECTION('',(-1.,0.,0.));
#1328=DIRECTION('',(0.,0.,-1.));
#1329=DIRECTION('',(-1.,0.,0.));
#1330=DIRECTION('',(0.,0.,-1.));
#1331=DIRECTION('',(-1.,0.,0.));
#1332=DIRECTION('',(0.,0.,-1.));
#1333=DIRECTION('',(-1.,0.,0.));
#1334=DIRECTION('',(0.,0.,-1.));
#1335=DIRECTION('',(-1.,0.,0.));
#1336=DIRECTION('',(0.,0.,-1.));
#1337=DIRECTION('',(-1.,0.,0.));
#1338=DIRECTION('',(0.,0.,-1.));
#1339=DIRECTION('',(-1.,0.,0.));
#1340=DIRECTION('',(0.,-1.,0.));
#1341=DIRECTION('',(1.,0.,0.));
#1342=DIRECTION('',(0.,-1.,0.));
#1343=DIRECTION('',(1.,0.,0.));
#1344=DIRECTION('',(0.,0.,1.));
#1345=DIRECTION('',(1.,0.,0.));
#1346=DIRECTION('',(0.,-1.,0.));
#1347=DIRECTION('',(0.,-1.,0.));
#1348=DIRECTION('',(0.,0.,-1.));
#1349=DIRECTION('',(-1.,0.,0.));
#1350=DIRECTION('',(0.,-1.,0.));
#1351=DIRECTION('',(0.,-1.,0.));
#1352=DIRECTION('',(-1.,0.,0.));
#1353=DIRECTION('',(0.,0.,1.));
#1354=DIRECTION('',(1.,0.,0.));
#1355=DIRECTION('',(0.,0.,-1.));
#1356=DIRECTION('',(0.,0.,-1.));
#1357=DIRECTION('',(-1.,0.,0.));
#1358=DIRECTION('',(0.,-1.,0.));
#1359=DIRECTION('',(0.,-1.,0.));
#1360=DIRECTION('',(1.,0.,0.));
#1361=DIRECTION('',(0.,0.,-1.));
#1362=DIRECTION('',(-1.,0.,0.));
#1363=DIRECTION('',(0.,0.,1.));
#1364=DIRECTION('',(-1.,0.,0.));
#1365=DIRECTION('',(0.,0.,1.));
#1366=DIRECTION('',(0.,0.,1.));
#1367=DIRECTION('',(0.,-1.,0.));
#1368=DIRECTION('',(0.,0.,1.));
#1369=DIRECTION('',(0.,-1.,0.));
#1370=DIRECTION('',(0.,0.,-1.));
#1371=DIRECTION('',(1.,0.,0.));
#1372=DIRECTION('',(0.,0.,1.));
#1373=DIRECTION('',(-1.,0.,0.));
#1374=DIRECTION('',(0.,0.,1.));
#1375=DIRECTION('',(0.,-1.,0.));
#1376=DIRECTION('',(0.,0.,1.));
#1377=DIRECTION('',(0.,-1.,0.));
#1378=DIRECTION('',(0.,0.,-1.));
#1379=DIRECTION('',(1.,0.,0.));
#1380=DIRECTION('',(0.,0.,1.));
#1381=DIRECTION('',(1.,0.,0.));
#1382=DIRECTION('',(0.,0.,1.));
#1383=DIRECTION('',(1.,0.,0.));
#1384=DIRECTION('',(0.,0.,-1.));
#1385=DIRECTION('',(-1.,0.,0.));
#1386=DIRECTION('',(0.,0.,-1.));
#1387=DIRECTION('',(-1.,0.,0.));
#1388=DIRECTION('',(0.,0.,1.));
#1389=DIRECTION('',(1.,0.,0.));
#1390=DIRECTION('',(0.,0.,-1.));
#1391=DIRECTION('',(-1.,0.,0.));
#1392=DIRECTION('',(0.,0.,-1.));
#1393=DIRECTION('',(-1.,0.,0.));
#1394=DIRECTION('',(0.,0.,1.));
#1395=DIRECTION('',(1.,0.,0.));
#1396=DIRECTION('',(0.,0.,-1.));
#1397=DIRECTION('',(-1.,0.,0.));
#1398=DIRECTION('',(0.,0.,-1.));
#1399=DIRECTION('',(-1.,0.,0.));
#1400=DIRECTION('',(0.,0.,1.));
#1401=DIRECTION('',(1.,0.,0.));
#1402=DIRECTION('',(0.,0.,-1.));
#1403=DIRECTION('',(-1.,0.,0.));
#1404=DIRECTION('',(0.,0.,-1.));
#1405=DIRECTION('',(-1.,0.,0.));
#1406=DIRECTION('',(0.,0.,1.));
#1407=DIRECTION('',(1.,0.,0.));
#1408=DIRECTION('',(0.,0.,-1.));
#1409=DIRECTION('',(-1.,0.,0.));
#1410=DIRECTION('',(0.,0.,-1.));
#1411=DIRECTION('',(-1.,0.,0.));
#1412=DIRECTION('',(0.,0.,1.));
#1413=DIRECTION('',(1.,0.,0.));
#1414=DIRECTION('',(0.,0.,-1.));
#1415=DIRECTION('',(-1.,0.,0.));
#1416=DIRECTION('',(0.,0.,-1.));
#1417=DIRECTION('',(-1.,0.,0.));
#1418=DIRECTION('',(0.,0.,1.));
#1419=DIRECTION('',(1.,0.,0.));
#1420=DIRECTION('',(0.,0.,-1.));
#1421=DIRECTION('',(-1.,0.,0.));
#1422=DIRECTION('',(0.,0.,-1.));
#1423=DIRECTION('',(-1.,0.,0.));
#1424=DIRECTION('',(0.,0.,1.));
#1425=DIRECTION('',(1.,0.,0.));
#1426=DIRECTION('',(0.,0.,-1.));
#1427=DIRECTION('',(-1.,0.,0.));
#1428=DIRECTION('',(0.,0.,-1.));
#1429=DIRECTION('',(-1.,0.,0.));
#1430=DIRECTION('',(0.,0.,1.));
#1431=DIRECTION('',(1.,0.,0.));
#1432=DIRECTION('',(0.,0.,-1.));
#1433=DIRECTION('',(-1.,0.,0.));
#1434=DIRECTION('',(0.,0.,-1.));
#1435=DIRECTION('',(-1.,0.,0.));
#1436=DIRECTION('',(0.,0.,1.));
#1437=DIRECTION('',(1.,0.,0.));
#1438=DIRECTION('',(0.,0.,-1.));
#1439=DIRECTION('',(-1.,0.,0.));
#1440=DIRECTION('',(0.,0.,-1.));
#1441=DIRECTION('',(-1.,0.,0.));
#1442=DIRECTION('',(0.,0.,1.));
#1443=DIRECTION('',(1.,0.,0.));
#1444=DIRECTION('',(0.,0.,-1.));
#1445=DIRECTION('',(-1.,0.,0.));
#1446=DIRECTION('',(0.,0.,-1.));
#1447=DIRECTION('',(-1.,0.,0.));
#1448=DIRECTION('',(0.,0.,1.));
#1449=DIRECTION('',(1.,0.,0.));
#1450=DIRECTION('',(0.,0.,-1.));
#1451=DIRECTION('',(-1.,0.,0.));
#1452=DIRECTION('',(0.,0.,-1.));
#1453=DIRECTION('',(-1.,0.,0.));
#1454=DIRECTION('',(0.,0.,1.));
#1455=DIRECTION('',(1.,0.,0.));
#1456=DIRECTION('',(-1.,-1.7347234759768E-16,0.));
#1457=DIRECTION('',(1.7347234759768E-16,-1.,0.));
#1458=DIRECTION('',(-1.7347234759768E-16,1.,0.));
#1459=DIRECTION('',(0.,0.,-1.));
#1460=DIRECTION('',(-1.7347234759768E-16,1.,0.));
#1461=DIRECTION('',(0.,0.,-1.));
#1462=DIRECTION('',(0.,1.,0.));
#1463=DIRECTION('',(0.,0.,1.));
#1464=DIRECTION('',(1.,0.,0.));
#1465=DIRECTION('',(0.,0.,-1.));
#1466=DIRECTION('',(1.,0.,0.));
#1467=DIRECTION('',(-1.,-1.7347234759768E-16,0.));
#1468=DIRECTION('',(1.7347234759768E-16,-1.,0.));
#1469=DIRECTION('',(-1.7347234759768E-16,1.,0.));
#1470=DIRECTION('',(0.,0.,-1.));
#1471=DIRECTION('',(-1.7347234759768E-16,1.,0.));
#1472=DIRECTION('',(0.,1.,0.));
#1473=DIRECTION('',(0.,0.,1.));
#1474=DIRECTION('',(1.,0.,0.));
#1475=DIRECTION('',(1.,0.,0.));
#1476=DIRECTION('',(0.,0.,1.));
#1477=DIRECTION('',(1.,0.,0.));
#1478=DIRECTION('',(0.,0.,1.));
#1479=DIRECTION('',(1.,0.,0.));
#1480=DIRECTION('',(0.825644641500814,0.,0.564190505025556));
#1481=DIRECTION('',(0.564190505025556,0.,-0.825644641500814));
#1482=DIRECTION('',(0.49137928862116,0.49137928862116,-0.719091641884625));
#1483=DIRECTION('',(0.,-1.,0.));
#1484=DIRECTION('',(0.49137928862116,-0.49137928862116,-0.719091641884625));
#1485=DIRECTION('',(0.,0.825644641500814,0.564190505025556));
#1486=DIRECTION('',(0.,-0.564190505025556,0.825644641500814));
#1487=DIRECTION('',(-0.49137928862116,0.49137928862116,-0.719091641884625));
#1488=DIRECTION('',(1.,0.,0.));
#1489=DIRECTION('',(0.825644641500814,0.,-0.564190505025556));
#1490=DIRECTION('',(-0.564190505025556,0.,-0.825644641500814));
#1491=DIRECTION('',(-0.49137928862116,-0.49137928862116,-0.719091641884625));
#1492=DIRECTION('',(0.,-1.,0.));
#1493=DIRECTION('',(0.,0.825644641500814,-0.564190505025556));
#1494=DIRECTION('',(0.,0.564190505025556,0.825644641500814));
#1495=DIRECTION('',(1.,0.,0.));
#1496=DIRECTION('',(0.,0.,1.));
#1497=DIRECTION('',(1.,0.,0.));
#1498=DIRECTION('',(1.,0.,0.));
#1499=DIRECTION('',(0.,-1.,0.));
#1500=DIRECTION('',(1.,0.,0.));
#1501=DIRECTION('',(0.,-1.,0.));
#1502=DIRECTION('',(0.825644641500814,0.,0.564190505025556));
#1503=DIRECTION('',(0.564190505025556,0.,-0.825644641500814));
#1504=DIRECTION('',(0.,-1.,0.));
#1505=DIRECTION('',(0.49137928862116,-0.49137928862116,-0.719091641884625));
#1506=DIRECTION('',(0.49137928862116,0.49137928862116,-0.719091641884625));
#1507=DIRECTION('',(0.,0.825644641500814,0.564190505025556));
#1508=DIRECTION('',(0.,-0.564190505025557,0.825644641500814));
#1509=DIRECTION('',(-0.49137928862116,0.49137928862116,-0.719091641884625));
#1510=DIRECTION('',(1.,0.,0.));
#1511=DIRECTION('',(0.825644641500814,0.,-0.564190505025556));
#1512=DIRECTION('',(-0.564190505025556,0.,-0.825644641500814));
#1513=DIRECTION('',(-0.49137928862116,-0.49137928862116,-0.719091641884625));
#1514=DIRECTION('',(0.,-1.,0.));
#1515=DIRECTION('',(0.,0.825644641500814,-0.564190505025556));
#1516=DIRECTION('',(0.,0.564190505025556,0.825644641500814));
#1517=DIRECTION('',(1.,0.,0.));
#1518=DIRECTION('',(0.,0.,1.));
#1519=DIRECTION('',(1.,0.,0.));
#1520=DIRECTION('',(0.,0.,-1.));
#1521=DIRECTION('',(-1.,0.,0.));
#1522=DIRECTION('',(0.,0.,-1.));
#1523=DIRECTION('',(-1.,0.,0.));
#1524=DIRECTION('',(0.,0.,-1.));
#1525=DIRECTION('',(-1.,0.,0.));
#1526=DIRECTION('',(0.,0.,1.));
#1527=DIRECTION('',(1.,0.,0.));
#1528=DIRECTION('',(0.,0.,-1.));
#1529=DIRECTION('',(-1.,0.,0.));
#1530=DIRECTION('',(0.,0.,-1.));
#1531=DIRECTION('',(-1.,0.,0.));
#1532=DIRECTION('',(0.,0.,-1.));
#1533=DIRECTION('',(-1.,0.,0.));
#1534=DIRECTION('',(0.,0.,1.));
#1535=DIRECTION('',(1.,0.,0.));
#1536=DIRECTION('',(0.,0.,-1.));
#1537=DIRECTION('',(-1.,0.,0.));
#1538=DIRECTION('',(0.,0.,1.));
#1539=DIRECTION('',(1.,0.,0.));
#1540=DIRECTION('',(0.,0.,1.));
#1541=DIRECTION('',(1.,0.,0.));
#1542=DIRECTION('',(0.,0.,-1.));
#1543=DIRECTION('',(-1.,0.,0.));
#1544=DIRECTION('',(0.,0.,-1.));
#1545=DIRECTION('',(-1.,0.,0.));
#1546=DIRECTION('',(0.,0.,-1.));
#1547=DIRECTION('',(-1.,0.,0.));
#1548=DIRECTION('',(0.,0.,1.));
#1549=DIRECTION('',(1.,0.,0.));
#1550=DIRECTION('',(0.,0.,-1.));
#1551=DIRECTION('',(-1.,0.,0.));
#1552=DIRECTION('',(0.,0.,-1.));
#1553=DIRECTION('',(-1.,0.,0.));
#1554=DIRECTION('',(0.,0.,-1.));
#1555=DIRECTION('',(-1.,0.,0.));
#1556=DIRECTION('',(0.,0.,1.));
#1557=DIRECTION('',(1.,0.,0.));
#1558=DIRECTION('',(0.,0.,-1.));
#1559=DIRECTION('',(-1.,0.,0.));
#1560=DIRECTION('',(0.,0.,-1.));
#1561=DIRECTION('',(-1.,0.,0.));
#1562=DIRECTION('',(0.,0.,-1.));
#1563=DIRECTION('',(-1.,0.,0.));
#1564=DIRECTION('',(0.,0.,1.));
#1565=DIRECTION('',(1.,0.,0.));
#1566=DIRECTION('',(0.,0.,1.));
#1567=DIRECTION('',(1.,0.,0.));
#1568=DIRECTION('',(0.,0.,1.));
#1569=DIRECTION('',(1.,0.,0.));
#1570=CARTESIAN_POINT('',(0.,0.,0.));
#1571=CARTESIAN_POINT('',(-2.77555756156289E-17,0.183,0.385));
#1572=CARTESIAN_POINT('',(-2.77555756156289E-17,0.183,0.365));
#1573=CARTESIAN_POINT('',(-0.183,0.183,0.365));
#1574=CARTESIAN_POINT('',(0.183,0.183,0.365));
#1575=CARTESIAN_POINT('',(-0.183,0.183,0.385));
#1576=CARTESIAN_POINT('',(-0.183,0.183,0.));
#1577=CARTESIAN_POINT('',(-2.77555756156289E-17,0.183,0.));
#1578=CARTESIAN_POINT('',(-0.145,0.183,0.));
#1579=CARTESIAN_POINT('',(-0.145,0.183,0.385));
#1580=CARTESIAN_POINT('',(-0.145,0.183,0.02));
#1581=CARTESIAN_POINT('',(-2.77555756156289E-17,0.183,0.02));
#1582=CARTESIAN_POINT('',(0.145,0.183,0.02));
#1583=CARTESIAN_POINT('',(0.145,0.183,0.385));
#1584=CARTESIAN_POINT('',(0.145,0.183,0.));
#1585=CARTESIAN_POINT('',(-2.77555756156289E-17,0.183,0.));
#1586=CARTESIAN_POINT('',(0.183,0.183,0.));
#1587=CARTESIAN_POINT('',(0.183,0.183,0.385));
#1588=CARTESIAN_POINT('',(0.,-0.183,0.385));
#1589=CARTESIAN_POINT('',(-0.183,-0.183,0.385));
#1590=CARTESIAN_POINT('',(-0.183,-0.183,0.365));
#1591=CARTESIAN_POINT('',(-0.183,-0.183,0.));
#1592=CARTESIAN_POINT('',(0.,-0.183,0.365));
#1593=CARTESIAN_POINT('',(0.183,-0.183,0.365));
#1594=CARTESIAN_POINT('',(0.183,-0.183,0.385));
#1595=CARTESIAN_POINT('',(0.183,-0.183,0.));
#1596=CARTESIAN_POINT('',(0.,-0.183,0.));
#1597=CARTESIAN_POINT('',(0.145,-0.183,0.));
#1598=CARTESIAN_POINT('',(0.145,-0.183,0.385));
#1599=CARTESIAN_POINT('',(0.145,-0.183,0.02));
#1600=CARTESIAN_POINT('',(0.,-0.183,0.02));
#1601=CARTESIAN_POINT('',(-0.145,-0.183,0.02));
#1602=CARTESIAN_POINT('',(-0.145,-0.183,0.385));
#1603=CARTESIAN_POINT('',(-0.145,-0.183,0.));
#1604=CARTESIAN_POINT('',(0.,-0.183,0.));
#1605=CARTESIAN_POINT('',(-0.183,2.77555756156289E-17,0.385));
#1606=CARTESIAN_POINT('',(-0.183,2.77555756156289E-17,0.365));
#1607=CARTESIAN_POINT('',(-0.183,2.77555756156289E-17,0.));
#1608=CARTESIAN_POINT('',(0.183,0.,0.385));
#1609=CARTESIAN_POINT('',(0.183,0.,0.365));
#1610=CARTESIAN_POINT('',(0.183,0.,0.));
#1611=CARTESIAN_POINT('',(0.,0.195,0.385));
#1612=CARTESIAN_POINT('',(0.,0.195,0.02));
#1613=CARTESIAN_POINT('',(0.145,0.195,0.02));
#1614=CARTESIAN_POINT('',(-0.145,0.195,0.02));
#1615=CARTESIAN_POINT('',(-0.145,0.195,0.385));
#1616=CARTESIAN_POINT('',(-0.145,0.195,0.));
#1617=CARTESIAN_POINT('',(0.,0.195,0.));
#1618=CARTESIAN_POINT('',(-0.195,0.195,0.));
#1619=CARTESIAN_POINT('',(-0.195,0.195,0.385));
#1620=CARTESIAN_POINT('',(-0.195,0.195,0.385));
#1621=CARTESIAN_POINT('',(0.,0.195,0.385));
#1622=CARTESIAN_POINT('',(0.195,0.195,0.385));
#1623=CARTESIAN_POINT('',(0.195,0.195,0.385));
#1624=CARTESIAN_POINT('',(0.195,0.195,0.));
#1625=CARTESIAN_POINT('',(0.,0.195,0.));
#1626=CARTESIAN_POINT('',(0.145,0.195,0.));
#1627=CARTESIAN_POINT('',(0.145,0.195,0.385));
#1628=CARTESIAN_POINT('',(0.,0.,0.));
#1629=CARTESIAN_POINT('',(0.145,0.73,0.));
#1630=CARTESIAN_POINT('',(0.195,0.,0.));
#1631=CARTESIAN_POINT('',(0.195,-0.195,0.));
#1632=CARTESIAN_POINT('',(0.,-0.195,0.));
#1633=CARTESIAN_POINT('',(0.145,-0.195,0.));
#1634=CARTESIAN_POINT('',(0.145,0.73,0.));
#1635=CARTESIAN_POINT('',(-0.195,2.77555756156289E-17,0.385));
#1636=CARTESIAN_POINT('',(-0.195,2.77555756156289E-17,0.));
#1637=CARTESIAN_POINT('',(-0.195,-0.195,0.));
#1638=CARTESIAN_POINT('',(-0.195,-0.195,0.385));
#1639=CARTESIAN_POINT('',(-0.195,-0.195,0.385));
#1640=CARTESIAN_POINT('',(-0.195,2.77555756156289E-17,0.385));
#1641=CARTESIAN_POINT('',(0.,-0.195,0.385));
#1642=CARTESIAN_POINT('',(0.,-0.195,0.));
#1643=CARTESIAN_POINT('',(-0.145,-0.195,0.));
#1644=CARTESIAN_POINT('',(-0.145,-0.195,0.01));
#1645=CARTESIAN_POINT('',(-0.145,-0.195,0.02));
#1646=CARTESIAN_POINT('',(0.,-0.195,0.02));
#1647=CARTESIAN_POINT('',(0.145,-0.195,0.02));
#1648=CARTESIAN_POINT('',(0.145,-0.195,0.01));
#1649=CARTESIAN_POINT('',(0.195,-0.195,0.385));
#1650=CARTESIAN_POINT('',(0.195,-0.195,0.385));
#1651=CARTESIAN_POINT('',(0.,-0.195,0.385));
#1652=CARTESIAN_POINT('',(0.195,0.,0.385));
#1653=CARTESIAN_POINT('',(0.195,0.,0.385));
#1654=CARTESIAN_POINT('',(0.,0.,0.385));
#1655=CARTESIAN_POINT('',(-0.173,0.058,0.385));
#1656=CARTESIAN_POINT('',(-0.1763,0.058,0.385));
#1657=CARTESIAN_POINT('',(0.173,0.173,0.385));
#1658=CARTESIAN_POINT('',(0.1697,0.173,0.385));
#1659=CARTESIAN_POINT('',(0.058,0.173,0.385));
#1660=CARTESIAN_POINT('',(0.0547,0.173,0.385));
#1661=CARTESIAN_POINT('',(-0.058,0.173,0.385));
#1662=CARTESIAN_POINT('',(-0.0613,0.173,0.385));
#1663=CARTESIAN_POINT('',(-0.173,-0.058,0.385));
#1664=CARTESIAN_POINT('',(-0.1763,-0.058,0.385));
#1665=CARTESIAN_POINT('',(-0.173,-0.173,0.385));
#1666=CARTESIAN_POINT('',(-0.1763,-0.173,0.385));
#1667=CARTESIAN_POINT('',(-0.058,-0.173,0.385));
#1668=CARTESIAN_POINT('',(-0.0613,-0.173,0.385));
#1669=CARTESIAN_POINT('',(0.058,-0.173,0.385));
#1670=CARTESIAN_POINT('',(0.0547,-0.173,0.385));
#1671=CARTESIAN_POINT('',(0.173,-0.058,0.385));
#1672=CARTESIAN_POINT('',(0.1697,-0.058,0.385));
#1673=CARTESIAN_POINT('',(0.173,0.058,0.385));
#1674=CARTESIAN_POINT('',(0.1697,0.058,0.385));
#1675=CARTESIAN_POINT('',(0.173,-0.173,0.385));
#1676=CARTESIAN_POINT('',(0.1697,-0.173,0.385));
#1677=CARTESIAN_POINT('',(-0.173,0.173,0.385));
#1678=CARTESIAN_POINT('',(-0.1763,0.173,0.385));
#1679=CARTESIAN_POINT('',(-0.158,-2.77555756156289E-17,0.385));
#1680=CARTESIAN_POINT('',(-0.158,0.158,0.385));
#1681=CARTESIAN_POINT('',(-0.158,-0.158,0.385));
#1682=CARTESIAN_POINT('',(0.,0.158,0.385));
#1683=CARTESIAN_POINT('',(0.158,0.158,0.385));
#1684=CARTESIAN_POINT('',(0.158,-2.77555756156289E-17,0.385));
#1685=CARTESIAN_POINT('',(0.158,-0.158,0.385));
#1686=CARTESIAN_POINT('',(0.,-0.158,0.385));
#1687=CARTESIAN_POINT('',(0.,0.,0.));
#1688=CARTESIAN_POINT('',(-0.145,0.73,0.));
#1689=CARTESIAN_POINT('',(-0.145,0.73,0.));
#1690=CARTESIAN_POINT('',(0.,0.73,0.02));
#1691=CARTESIAN_POINT('',(0.145,0.73,0.02));
#1692=CARTESIAN_POINT('',(-0.145,0.73,0.02));
#1693=CARTESIAN_POINT('',(0.145,0.73,0.01));
#1694=CARTESIAN_POINT('',(-0.145,0.73,0.01));
#1695=CARTESIAN_POINT('',(0.,0.73,0.02));
#1696=CARTESIAN_POINT('',(0.145,0.73,0.02));
#1697=CARTESIAN_POINT('',(-0.145,0.73,0.02));
#1698=CARTESIAN_POINT('',(-0.145,0.73,0.01));
#1699=CARTESIAN_POINT('',(0.145,0.73,0.01));
#1700=CARTESIAN_POINT('',(-0.158,-2.77555756156289E-17,0.365));
#1701=CARTESIAN_POINT('',(-0.158,-0.158,0.365));
#1702=CARTESIAN_POINT('',(-0.158,-0.158,0.365));
#1703=CARTESIAN_POINT('',(-0.158,-2.77555756156289E-17,0.365));
#1704=CARTESIAN_POINT('',(-0.158,0.158,0.365));
#1705=CARTESIAN_POINT('',(-0.158,0.158,0.365));
#1706=CARTESIAN_POINT('',(0.,0.158,0.365));
#1707=CARTESIAN_POINT('',(0.,0.158,0.365));
#1708=CARTESIAN_POINT('',(0.158,0.158,0.365));
#1709=CARTESIAN_POINT('',(0.158,0.158,0.365));
#1710=CARTESIAN_POINT('',(0.158,-2.77555756156289E-17,0.365));
#1711=CARTESIAN_POINT('',(0.158,-2.77555756156289E-17,0.365));
#1712=CARTESIAN_POINT('',(0.158,-0.158,0.365));
#1713=CARTESIAN_POINT('',(0.158,-0.158,0.365));
#1714=CARTESIAN_POINT('',(0.,-0.158,0.365));
#1715=CARTESIAN_POINT('',(0.,-0.158,0.365));
#1716=CARTESIAN_POINT('',(0.,2.77555756156289E-17,0.365));
#1717=CARTESIAN_POINT('',(-0.1697,0.173,0.37));
#1718=CARTESIAN_POINT('',(-0.173,0.173,0.37));
#1719=CARTESIAN_POINT('',(-0.1763,0.173,0.37));
#1720=CARTESIAN_POINT('',(-0.173,0.173,0.385));
#1721=CARTESIAN_POINT('',(0.1763,-0.173,0.37));
#1722=CARTESIAN_POINT('',(0.173,-0.173,0.37));
#1723=CARTESIAN_POINT('',(0.1697,-0.173,0.37));
#1724=CARTESIAN_POINT('',(0.173,-0.173,0.385));
#1725=CARTESIAN_POINT('',(0.1763,0.058,0.37));
#1726=CARTESIAN_POINT('',(0.173,0.058,0.37));
#1727=CARTESIAN_POINT('',(0.1697,0.058,0.37));
#1728=CARTESIAN_POINT('',(0.173,0.058,0.385));
#1729=CARTESIAN_POINT('',(0.1763,-0.058,0.37));
#1730=CARTESIAN_POINT('',(0.173,-0.058,0.37));
#1731=CARTESIAN_POINT('',(0.1697,-0.058,0.37));
#1732=CARTESIAN_POINT('',(0.173,-0.058,0.385));
#1733=CARTESIAN_POINT('',(0.0613,-0.173,0.37));
#1734=CARTESIAN_POINT('',(0.058,-0.173,0.37));
#1735=CARTESIAN_POINT('',(0.0547,-0.173,0.37));
#1736=CARTESIAN_POINT('',(0.058,-0.173,0.385));
#1737=CARTESIAN_POINT('',(-0.0547,-0.173,0.37));
#1738=CARTESIAN_POINT('',(-0.058,-0.173,0.37));
#1739=CARTESIAN_POINT('',(-0.0613,-0.173,0.37));
#1740=CARTESIAN_POINT('',(-0.058,-0.173,0.385));
#1741=CARTESIAN_POINT('',(-0.1697,-0.173,0.37));
#1742=CARTESIAN_POINT('',(-0.173,-0.173,0.37));
#1743=CARTESIAN_POINT('',(-0.1763,-0.173,0.37));
#1744=CARTESIAN_POINT('',(-0.173,-0.173,0.385));
#1745=CARTESIAN_POINT('',(-0.1697,-0.058,0.37));
#1746=CARTESIAN_POINT('',(-0.173,-0.058,0.37));
#1747=CARTESIAN_POINT('',(-0.1763,-0.058,0.37));
#1748=CARTESIAN_POINT('',(-0.173,-0.058,0.385));
#1749=CARTESIAN_POINT('',(-0.0547,0.173,0.37));
#1750=CARTESIAN_POINT('',(-0.058,0.173,0.37));
#1751=CARTESIAN_POINT('',(-0.0613,0.173,0.37));
#1752=CARTESIAN_POINT('',(-0.058,0.173,0.385));
#1753=CARTESIAN_POINT('',(0.0613,0.173,0.37));
#1754=CARTESIAN_POINT('',(0.058,0.173,0.37));
#1755=CARTESIAN_POINT('',(0.0547,0.173,0.37));
#1756=CARTESIAN_POINT('',(0.058,0.173,0.385));
#1757=CARTESIAN_POINT('',(0.1763,0.173,0.37));
#1758=CARTESIAN_POINT('',(0.173,0.173,0.37));
#1759=CARTESIAN_POINT('',(0.1697,0.173,0.37));
#1760=CARTESIAN_POINT('',(0.173,0.173,0.385));
#1761=CARTESIAN_POINT('',(-0.1697,0.058,0.37));
#1762=CARTESIAN_POINT('',(-0.173,0.058,0.37));
#1763=CARTESIAN_POINT('',(-0.1763,0.058,0.37));
#1764=CARTESIAN_POINT('',(-0.173,0.058,0.385));
#1765=CARTESIAN_POINT('',(-2.42861286636753E-17,-2.77555756156289E-17,-0.385));
#1766=CARTESIAN_POINT('',(-0.06,-3.46944695195361E-18,0.02));
#1767=CARTESIAN_POINT('',(-0.06,-3.46944695195361E-18,0.012));
#1768=CARTESIAN_POINT('',(-0.06,-0.06,0.012));
#1769=CARTESIAN_POINT('',(-0.06,0.06,0.012));
#1770=CARTESIAN_POINT('',(-0.06,-0.06,0.02));
#1771=CARTESIAN_POINT('',(-0.06,-0.06,0.02));
#1772=CARTESIAN_POINT('',(-0.06,-3.46944695195361E-18,0.02));
#1773=CARTESIAN_POINT('',(-0.06,0.06,0.02));
#1774=CARTESIAN_POINT('',(-0.06,0.06,0.02));
#1775=CARTESIAN_POINT('',(3.46944695195361E-18,-0.06,0.02));
#1776=CARTESIAN_POINT('',(3.46944695195361E-18,-0.06,0.012));
#1777=CARTESIAN_POINT('',(0.06,-0.06,0.012));
#1778=CARTESIAN_POINT('',(0.06,-0.06,0.02));
#1779=CARTESIAN_POINT('',(0.06,-0.06,0.02));
#1780=CARTESIAN_POINT('',(3.46944695195361E-18,-0.06,0.02));
#1781=CARTESIAN_POINT('',(0.06,-3.46944695195361E-18,0.02));
#1782=CARTESIAN_POINT('',(0.06,-3.46944695195361E-18,0.012));
#1783=CARTESIAN_POINT('',(0.06,0.06,0.012));
#1784=CARTESIAN_POINT('',(0.06,0.06,0.02));
#1785=CARTESIAN_POINT('',(0.06,0.06,0.02));
#1786=CARTESIAN_POINT('',(0.06,-3.46944695195361E-18,0.02));
#1787=CARTESIAN_POINT('',(-1.38777878078145E-17,0.06,0.02));
#1788=CARTESIAN_POINT('',(-1.38777878078145E-17,0.06,0.012));
#1789=CARTESIAN_POINT('',(-1.38777878078145E-17,0.06,0.02));
#1790=CARTESIAN_POINT('',(0.,0.,0.012));
#1791=CARTESIAN_POINT('',(0.,0.,0.012));
#1792=CARTESIAN_POINT('',(0.045,0.,0.012));
#1793=CARTESIAN_POINT('',(-0.0315849270971407,0.,-0.0215830335163795));
#1794=CARTESIAN_POINT('',(-0.183,-0.183,0.2));
#1795=CARTESIAN_POINT('',(-0.183,-0.183,0.2));
#1796=CARTESIAN_POINT('',(-0.183,0.,0.2));
#1797=CARTESIAN_POINT('',(-0.183,0.183,0.2));
#1798=CARTESIAN_POINT('',(-0.183,0.183,0.2));
#1799=CARTESIAN_POINT('',(0.,-0.0315849270971407,-0.0215830335163795));
#1800=CARTESIAN_POINT('',(0.183,-0.183,0.2));
#1801=CARTESIAN_POINT('',(0.183,-0.183,0.2));
#1802=CARTESIAN_POINT('',(0.,-0.183,0.2));
#1803=CARTESIAN_POINT('',(0.0315849270971406,0.,-0.0215830335163795));
#1804=CARTESIAN_POINT('',(0.183,0.183,0.2));
#1805=CARTESIAN_POINT('',(0.183,0.183,0.2));
#1806=CARTESIAN_POINT('',(0.183,0.,0.2));
#1807=CARTESIAN_POINT('',(0.,0.0315849270971407,-0.0215830335163795));
#1808=CARTESIAN_POINT('',(0.,0.183,0.2));
#1809=CARTESIAN_POINT('',(0.,0.,0.2));
#1810=CARTESIAN_POINT('',(0.,0.171,0.2));
#1811=CARTESIAN_POINT('',(-0.171,0.171,0.2));
#1812=CARTESIAN_POINT('',(0.171,0.171,0.2));
#1813=CARTESIAN_POINT('',(0.171,0.,0.2));
#1814=CARTESIAN_POINT('',(0.171,-0.171,0.2));
#1815=CARTESIAN_POINT('',(0.,-0.171,0.2));
#1816=CARTESIAN_POINT('',(-0.171,-0.171,0.2));
#1817=CARTESIAN_POINT('',(-0.171,0.,0.2));
#1818=CARTESIAN_POINT('',(-0.0234046582086726,0.,-0.0159931831092596));
#1819=CARTESIAN_POINT('',(-0.048,0.,0.02));
#1820=CARTESIAN_POINT('',(-0.048,-0.048,0.02));
#1821=CARTESIAN_POINT('',(-0.048,0.048,0.02));
#1822=CARTESIAN_POINT('',(-0.171,0.171,0.2));
#1823=CARTESIAN_POINT('',(-0.171,-0.171,0.2));
#1824=CARTESIAN_POINT('',(0.,-0.0234046582086726,-0.0159931831092596));
#1825=CARTESIAN_POINT('',(0.171,-0.171,0.2));
#1826=CARTESIAN_POINT('',(0.048,-0.048,0.02));
#1827=CARTESIAN_POINT('',(0.,-0.048,0.02));
#1828=CARTESIAN_POINT('',(0.0234046582086726,0.,-0.0159931831092596));
#1829=CARTESIAN_POINT('',(0.171,0.171,0.2));
#1830=CARTESIAN_POINT('',(0.048,0.048,0.02));
#1831=CARTESIAN_POINT('',(0.048,0.,0.02));
#1832=CARTESIAN_POINT('',(0.,0.0234046582086726,-0.0159931831092596));
#1833=CARTESIAN_POINT('',(0.,0.048,0.02));
#1834=CARTESIAN_POINT('',(0.,0.,0.02));
#1835=CARTESIAN_POINT('',(0.,0.,0.02));
#1836=CARTESIAN_POINT('',(-0.04,0.,0.02));
#1837=CARTESIAN_POINT('',(0.,0.,0.02));
#1838=CARTESIAN_POINT('',(0.,0.,-0.018));
#1839=CARTESIAN_POINT('',(-0.045,0.,-0.018));
#1840=CARTESIAN_POINT('',(0.,0.,-0.018));
#1841=CARTESIAN_POINT('',(0.,0.,-0.035));
#1842=CARTESIAN_POINT('',(-0.0315,0.,-0.035));
#1843=CARTESIAN_POINT('',(0.,0.,0.02));
#1844=CARTESIAN_POINT('',(0.,0.,-0.018));
#1845=CARTESIAN_POINT('',(-0.04,0.,-0.018));
#1846=CARTESIAN_POINT('',(0.,0.,-0.035));
#1847=CARTESIAN_POINT('',(0.,0.,-0.035));
#1848=CARTESIAN_POINT('',(-0.0265,0.,-0.035));
#1849=CARTESIAN_POINT('',(0.029,0.,-0.035));
#1850=CARTESIAN_POINT('',(0.,0.,-0.355));
#1851=CARTESIAN_POINT('',(0.,0.,0.));
#1852=CARTESIAN_POINT('',(0.,0.,0.0159235661541277));
#1853=CARTESIAN_POINT('',(-0.039,0.,0.0159235661541277));
#1854=CARTESIAN_POINT('',(0.,0.,0.));
#1855=CARTESIAN_POINT('',(-0.039,0.,0.));
#1856=CARTESIAN_POINT('',(-0.032,0.,0.));
#1857=CARTESIAN_POINT('',(0.,0.,0.));
#1858=CARTESIAN_POINT('',(-0.025,0.,0.));
#1859=CARTESIAN_POINT('',(0.,0.,0.));
#1860=CARTESIAN_POINT('',(0.,0.,0.0509554154474998));
#1861=CARTESIAN_POINT('',(-0.025,0.,0.0509554154474998));
#1862=CARTESIAN_POINT('',(-0.028,0.,0.0509554154474998));
#1863=CARTESIAN_POINT('',(0.,0.,0.0509554154474998));
#1864=CARTESIAN_POINT('',(-0.031,0.,0.0509554154474998));
#1865=CARTESIAN_POINT('',(0.,0.,0.));
#1866=CARTESIAN_POINT('',(0.,0.,0.0159235661541277));
#1867=CARTESIAN_POINT('',(-0.031,0.,0.0159235661541277));
#1868=CARTESIAN_POINT('',(-0.035,0.,0.0159235661541277));
#1869=CARTESIAN_POINT('',(0.,0.,-0.4409554154475));
#1870=CARTESIAN_POINT('',(0.,0.,0.));
#1871=MECHANICAL_DESIGN_GEOMETRIC_PRESENTATION_REPRESENTATION('',(#1103,#1104,#1105),#1872);
#1872=(
GEOMETRIC_REPRESENTATION_CONTEXT(3)
GLOBAL_UNCERTAINTY_ASSIGNED_CONTEXT((#1877))
GLOBAL_UNIT_ASSIGNED_CONTEXT((#1884,#1883,#1882))
REPRESENTATION_CONTEXT('chamber_wo_lid','TOP_LEVEL_ASSEMBLY_PART')
);
#1873=(
GEOMETRIC_REPRESENTATION_CONTEXT(3)
GLOBAL_UNCERTAINTY_ASSIGNED_CONTEXT((#1878))
GLOBAL_UNIT_ASSIGNED_CONTEXT((#1884,#1883,#1882))
REPRESENTATION_CONTEXT('outer_wall','COMPONENT_PART')
);
#1874=(
GEOMETRIC_REPRESENTATION_CONTEXT(3)
GLOBAL_UNCERTAINTY_ASSIGNED_CONTEXT((#1879))
GLOBAL_UNIT_ASSIGNED_CONTEXT((#1884,#1883,#1882))
REPRESENTATION_CONTEXT('interior_assembly <1>','COMPONENT_PART')
);
#1875=(
GEOMETRIC_REPRESENTATION_CONTEXT(3)
GLOBAL_UNCERTAINTY_ASSIGNED_CONTEXT((#1880))
GLOBAL_UNIT_ASSIGNED_CONTEXT((#1884,#1883,#1882))
REPRESENTATION_CONTEXT('interior','COMPONENT_PART')
);
#1876=(
GEOMETRIC_REPRESENTATION_CONTEXT(3)
GLOBAL_UNCERTAINTY_ASSIGNED_CONTEXT((#1881))
GLOBAL_UNIT_ASSIGNED_CONTEXT((#1884,#1883,#1882))
REPRESENTATION_CONTEXT('drain','COMPONENT_PART')
);
#1877=UNCERTAINTY_MEASURE_WITH_UNIT(LENGTH_MEASURE(1.E-08),#1884,'DISTANCE_ACCURACY_VALUE','Maximum Tolerance applied to model');
#1878=UNCERTAINTY_MEASURE_WITH_UNIT(LENGTH_MEASURE(1.E-08),#1884,'DISTANCE_ACCURACY_VALUE','Maximum Tolerance applied to model');
#1879=UNCERTAINTY_MEASURE_WITH_UNIT(LENGTH_MEASURE(1.E-08),#1884,'DISTANCE_ACCURACY_VALUE','Maximum Tolerance applied to model');
#1880=UNCERTAINTY_MEASURE_WITH_UNIT(LENGTH_MEASURE(1.E-08),#1884,'DISTANCE_ACCURACY_VALUE','Maximum Tolerance applied to model');
#1881=UNCERTAINTY_MEASURE_WITH_UNIT(LENGTH_MEASURE(1.E-08),#1884,'DISTANCE_ACCURACY_VALUE','Maximum Tolerance applied to model');
#1882=(
NAMED_UNIT(*)
SI_UNIT($,.STERADIAN.)
SOLID_ANGLE_UNIT()
);
#1883=(
NAMED_UNIT(*)
PLANE_ANGLE_UNIT()
SI_UNIT($,.RADIAN.)
);
#1884=(
LENGTH_UNIT()
NAMED_UNIT(*)
SI_UNIT($,.METRE.)
);
#1885=PRODUCT_DEFINITION_SHAPE('','',#1894);
#1886=PRODUCT_DEFINITION_SHAPE('','',#1895);
#1887=PRODUCT_DEFINITION_SHAPE(' ','NAUO PRDDFN',#16);
#1888=PRODUCT_DEFINITION_SHAPE('','',#1896);
#1889=PRODUCT_DEFINITION_SHAPE('','',#1897);
#1890=PRODUCT_DEFINITION_SHAPE(' ','NAUO PRDDFN',#17);
#1891=PRODUCT_DEFINITION_SHAPE('','',#1898);
#1892=PRODUCT_DEFINITION_SHAPE(' ','NAUO PRDDFN',#18);
#1893=PRODUCT_DEFINITION_SHAPE(' ','NAUO PRDDFN',#19);
#1894=PRODUCT_DEFINITION('','',#1904,#1899);
#1895=PRODUCT_DEFINITION('','',#1905,#1900);
#1896=PRODUCT_DEFINITION('','',#1906,#1901);
#1897=PRODUCT_DEFINITION('','',#1907,#1902);
#1898=PRODUCT_DEFINITION('','',#1908,#1903);
#1899=PRODUCT_DEFINITION_CONTEXT('',#1930,'design');
#1900=PRODUCT_DEFINITION_CONTEXT('',#1930,'design');
#1901=PRODUCT_DEFINITION_CONTEXT('',#1930,'design');
#1902=PRODUCT_DEFINITION_CONTEXT('',#1930,'design');
#1903=PRODUCT_DEFINITION_CONTEXT('',#1930,'design');
#1904=PRODUCT_DEFINITION_FORMATION_WITH_SPECIFIED_SOURCE('','',#1914,.NOT_KNOWN.);
#1905=PRODUCT_DEFINITION_FORMATION_WITH_SPECIFIED_SOURCE('','',#1915,.NOT_KNOWN.);
#1906=PRODUCT_DEFINITION_FORMATION_WITH_SPECIFIED_SOURCE('','',#1916,.NOT_KNOWN.);
#1907=PRODUCT_DEFINITION_FORMATION_WITH_SPECIFIED_SOURCE('','',#1917,.NOT_KNOWN.);
#1908=PRODUCT_DEFINITION_FORMATION_WITH_SPECIFIED_SOURCE('','',#1918,.NOT_KNOWN.);
#1909=PRODUCT_RELATED_PRODUCT_CATEGORY('','',(#1914));
#1910=PRODUCT_RELATED_PRODUCT_CATEGORY('','',(#1915));
#1911=PRODUCT_RELATED_PRODUCT_CATEGORY('','',(#1916));
#1912=PRODUCT_RELATED_PRODUCT_CATEGORY('','',(#1917));
#1913=PRODUCT_RELATED_PRODUCT_CATEGORY('','',(#1918));
#1914=PRODUCT('chamber_wo_lid','chamber_wo_lid','chamber_wo_lid',(#1924));
#1915=PRODUCT('outer_wall','outer_wall','outer_wall',(#1925));
#1916=PRODUCT('interior_assembly <1>','interior_assembly <1>','interior_assembly <1>',(#1926));
#1917=PRODUCT('interior','interior','interior',(#1927));
#1918=PRODUCT('drain','drain','drain',(#1928));
#1919=PRODUCT_CATEGORY('','');
#1920=PRODUCT_CATEGORY('','');
#1921=PRODUCT_CATEGORY('','');
#1922=PRODUCT_CATEGORY('','');
#1923=PRODUCT_CATEGORY('','');
#1924=PRODUCT_CONTEXT('',#1930,'mechanical');
#1925=PRODUCT_CONTEXT('',#1930,'mechanical');
#1926=PRODUCT_CONTEXT('',#1930,'mechanical');
#1927=PRODUCT_CONTEXT('',#1930,'mechanical');
#1928=PRODUCT_CONTEXT('',#1930,'mechanical');
#1929=APPLICATION_PROTOCOL_DEFINITION('international standard','ap242_managed_model_based_3d_engineering',2020,#1930);
#1930=APPLICATION_CONTEXT('managed model based 3d engineering');
ENDSEC;
END-ISO-10303-21;
