  0
SECTION
  2
HEADER
  9
$ACADVER
  1
AC1014
  9
$ACADMAINTVER
 70
     9
  9
$DWGCODEPAGE
  3
ANSI_1252
  9
$INSBASE
 10
0.0
 20
0.0
 30
0.0
  9
$EXTMIN
 10
1.0
 20
0.5
 30
0.0
  9
$EXTMAX
 10
420.0
 20
296.5
 30
0.0
  9
$LIMMIN
 10
0.0
 20
0.0
  9
$LIMMAX
 10
12.0
 20
9.0
  9
$ORTHOMODE
 70
     0
  9
$REGENMODE
 70
     1
  9
$FILLMODE
 70
     1
  9
$QTEXTMODE
 70
     0
  9
$MIRRTEXT
 70
     1
  9
$DRAGMODE
 70
     2
  9
$LTSCALE
 40
12.7
  9
$OSMODE
 70
    23
  9
$ATTMODE
 70
     1
  9
$TEXTSIZE
 40
3.5
  9
$TRACEWID
 40
0.05
  9
$TEXTSTYLE
  7
ONSHAPE-STANDARD
  9
$CLAYER
  8
0
  9
$CELTYPE
  6
BYLAYER
  9
$CECOLOR
 62
   256
  9
$CELTSCALE
 40
1.0
  9
$DELOBJ
 70
     1
  9
$DISPSILH
 70
     0
  9
$DIMSCALE
 40
1.0
  9
$DIMASZ
 40
2.5
  9
$DIMEXO
 40
0.625
  9
$DIMDLI
 40
3.75
  9
$DIMRND
 40
0.0
  9
$DIMDLE
 40
0.0
  9
$DIMEXE
 40
1.25
  9
$DIMTP
 40
0.0
  9
$DIMTM
 40
0.0
  9
$DIMTXT
 40
3.5
  9
$DIMCEN
 40
2.5
  9
$DIMTSZ
 40
0.0
  9
$DIMTOL
 70
     0
  9
$DIMLIM
 70
     0
  9
$DIMTIH
 70
     0
  9
$DIMTOH
 70
     0
  9
$DIMSE1
 70
     0
  9
$DIMSE2
 70
     0
  9
$DIMTAD
 70
     1
  9
$DIMZIN
 70
     8
  9
$DIMBLK
  1

  9
$DIMASO
 70
     1
  9
$DIMSHO
 70
     1
  9
$DIMPOST
  1

  9
$DIMAPOST
  1

  9
$DIMALT
 70
     0
  9
$DIMALTD
 70
     3
  9
$DIMALTF
 40
0.03937
  9
$DIMLFAC
 40
3.0
  9
$DIMTOFL
 70
     1
  9
$DIMTVP
 40
0.0
  9
$DIMTIX
 70
     0
  9
$DIMSOXD
 70
     0
  9
$DIMSAH
 70
     0
  9
$DIMBLK1
  1

  9
$DIMBLK2
  1

  9
$DIMSTYLE
  2
ONSHAPE-ISO-25
  9
$DIMCLRD
 70
     7
  9
$DIMCLRE
 70
     7
  9
$DIMCLRT
 70
     7
  9
$DIMTFAC
 40
1.0
  9
$DIMGAP
 40
0.625
  9
$DIMJUST
 70
     0
  9
$DIMSD1
 70
     0
  9
$DIMSD2
 70
     0
  9
$DIMTOLJ
 70
     0
  9
$DIMTZIN
 70
     8
  9
$DIMALTZ
 70
     8
  9
$DIMALTTZ
 70
     0
  9
$DIMFIT
 70
     3
  9
$DIMUPT
 70
     1
  9
$DIMUNIT
 70
     2
  9
$DIMDEC
 70
     2
  9
$DIMTDEC
 70
     2
  9
$DIMALTU
 70
     2
  9
$DIMALTTD
 70
     3
  9
$DIMTXSTY
  7
ONSHAPE-STANDARD-DIMENSION
  9
$DIMAUNIT
 70
     0
  9
$LUNITS
 70
     2
  9
$LUPREC
 70
     4
  9
$SKETCHINC
 40
0.1
  9
$FILLETRAD
 40
0.5
  9
$AUNITS
 70
     0
  9
$AUPREC
 70
     0
  9
$MENU
  1
.
  9
$ELEVATION
 40
0.0
  9
$PELEVATION
 40
0.0
  9
$THICKNESS
 40
0.0
  9
$LIMCHECK
 70
     0
  9
$CHAMFERA
 40
0.0
  9
$CHAMFERB
 40
0.0
  9
$CHAMFERC
 40
0.0
  9
$CHAMFERD
 40
0.0
  9
$SKPOLY
 70
     0
  9
$TDCREATE
 40
2461108.464958472
  9
$TDUPDATE
 40
2461108.464959167
  9
$TDINDWG
 40
0.0
  9
$TDUSRTIMER
 40
0.0
  9
$USRTIMER
 70
     1
  9
$ANGBASE
 50
0.0
  9
$ANGDIR
 70
     0
  9
$PDMODE
 70
    33
  9
$PDSIZE
 40
1.0
  9
$PLINEWID
 40
0.0
  9
$COORDS
 70
     1
  9
$SPLFRAME
 70
     0
  9
$SPLINETYPE
 70
     6
  9
$SPLINESEGS
 70
     8
  9
$ATTDIA
 70
     0
  9
$ATTREQ
 70
     1
  9
$HANDLING
 70
     1
  9
$HANDSEED
  5
2D6
  9
$SURFTAB1
 70
     6
  9
$SURFTAB2
 70
     6
  9
$SURFTYPE
 70
     6
  9
$SURFU
 70
     6
  9
$SURFV
 70
     6
  9
$UCSNAME
  2

  9
$UCSORG
 10
0.0
 20
0.0
 30
0.0
  9
$UCSXDIR
 10
1.0
 20
0.0
 30
0.0
  9
$UCSYDIR
 10
0.0
 20
1.0
 30
0.0
  9
$PUCSNAME
  2

  9
$PUCSORG
 10
0.0
 20
0.0
 30
0.0
  9
$PUCSXDIR
 10
1.0
 20
0.0
 30
0.0
  9
$PUCSYDIR
 10
0.0
 20
1.0
 30
0.0
  9
$USERI1
 70
     0
  9
$USERI2
 70
     0
  9
$USERI3
 70
     0
  9
$USERI4
 70
     0
  9
$USERI5
 70
     0
  9
$USERR1
 40
0.0
  9
$USERR2
 40
0.0
  9
$USERR3
 40
0.0
  9
$USERR4
 40
0.0
  9
$USERR5
 40
0.0
  9
$WORLDVIEW
 70
     1
  9
$SHADEDGE
 70
     3
  9
$SHADEDIF
 70
    70
  9
$TILEMODE
 70
     1
  9
$MAXACTVP
 70
    64
  9
$PINSBASE
 10
0.0
 20
0.0
 30
0.0
  9
$PLIMCHECK
 70
     0
  9
$PEXTMIN
 10
1.000000000000000E+20
 20
1.000000000000000E+20
 30
1.000000000000000E+20
  9
$PEXTMAX
 10
-1.000000000000000E+20
 20
-1.000000000000000E+20
 30
-1.000000000000000E+20
  9
$PLIMMIN
 10
0.0
 20
0.0
  9
$PLIMMAX
 10
12.0
 20
9.0
  9
$UNITMODE
 70
     0
  9
$VISRETAIN
 70
     1
  9
$PLINEGEN
 70
     0
  9
$PSLTSCALE
 70
     1
  9
$TREEDEPTH
 70
  3020
  9
$PICKSTYLE
 70
     1
  9
$CMLSTYLE
  2
STANDARD
  9
$CMLJUST
 70
     0
  9
$CMLSCALE
 40
1.0
  9
$PROXYGRAPHICS
 70
     1
  9
$MEASUREMENT
 70
     0
  0
ENDSEC
  0
SECTION
  2
CLASSES
  0
CLASS
  1
ACDBDICTIONARYWDFLT
  2
AcDbDictionaryWithDefault
  3
ObjectDBX Classes
 90
        0
280
     0
281
     0
  0
CLASS
  1
VISUALSTYLE
  2
AcDbVisualStyle
  3
ObjectDBX Classes
 90
     4095
280
     0
281
     0
  0
CLASS
  1
MATERIAL
  2
AcDbMaterial
  3
ObjectDBX Classes
 90
     1153
280
     0
281
     0
  0
CLASS
  1
SCALE
  2
AcDbScale
  3
ObjectDBX Classes
 90
     1153
280
     0
281
     0
  0
CLASS
  1
TABLESTYLE
  2
AcDbTableStyle
  3
ObjectDBX Classes
 90
     4095
280
     0
281
     0
  0
CLASS
  1
MLEADERSTYLE
  2
AcDbMLeaderStyle
  3
ACDB_MLEADERSTYLE_CLASS
 90
     4095
280
     0
281
     0
  0
CLASS
  1
SUN
  2
AcDbSun
  3
SCENEOE
 90
     1153
280
     0
281
     0
  0
CLASS
  1
DICTIONARYVAR
  2
AcDbDictionaryVar
  3
ObjectDBX Classes
 90
        0
280
     0
281
     0
  0
CLASS
  1
FIELD
  2
AcDbField
  3
ObjectDBX Classes
 90
     1152
280
     0
281
     0
  0
CLASS
  1
FIELDLIST
  2
AcDbFieldList
  3
ObjectDBX Classes
 90
     1152
280
     0
281
     0
  0
CLASS
  1
DIMASSOC
  2
AcDbDimAssoc
  3
"AcDbDimAssoc|Product Desc:     AcDim ARX App For Dimension|Company:          Autodesk, Inc.|WEB Address:      www.autodesk.com"
 90
        0
280
     0
281
     0
  0
CLASS
  1
BREAKDATA
  2
AcDbBreakData
  3
ObjectDBX Classes
 90
     1024
280
     0
281
     0
  0
CLASS
  1
XRECORD
  2
AcDbXrecord
  3
ObjectDBX Classes
 90
        0
280
     0
281
     0
  0
CLASS
  1
LWPOLYLINE
  2
AcDbPolyline
  3
ObjectDBX Classes
 90
        0
280
     0
281
     1
  0
CLASS
  1
HATCH
  2
AcDbHatch
  3
ObjectDBX Classes
 90
        0
280
     0
281
     1
  0
CLASS
  1
ACDBPLACEHOLDER
  2
AcDbPlaceHolder
  3
ObjectDBX Classes
 90
        0
280
     0
281
     0
  0
CLASS
  1
LAYOUT
  2
AcDbLayout
  3
ObjectDBX Classes
 90
        0
280
     0
281
     0
  0
ENDSEC
  0
SECTION
  2
TABLES
  0
TABLE
  2
VPORT
  5
8
102
{ACAD_XDICTIONARY
360
2CA
102
}
330
0
100
AcDbSymbolTable
 70
     1
  0
VPORT
  5
29
330
8
100
AcDbSymbolTableRecord
100
AcDbViewportTableRecord
  2
*ACTIVE
 70
     0
 10
0.0
 20
0.0
 11
1.0
 21
1.0
 12
210.5
 22
153.2942779291553
 13
0.0
 23
0.0
 14
0.5
 24
0.5
 15
0.5
 25
0.5
 16
0.0
 26
0.0
 36
1.0
 17
0.0
 27
0.0
 37
0.0
 40
313.7055858310626
 41
1.365292874703758
 42
50.0
 43
0.0
 44
0.0
 50
0.0
 51
0.0
 71
     0
 72
   100
 73
     1
 74
     3
 75
     0
 76
     0
 77
     0
 78
     0
  0
ENDTAB
  0
TABLE
  2
LTYPE
  5
5
330
0
100
AcDbSymbolTable
 70
     2
  0
LTYPE
  5
14
330
5
100
AcDbSymbolTableRecord
100
AcDbLinetypeTableRecord
  2
BYBLOCK
 70
     0
  3

 72
    65
 73
     0
 40
0.0
  0
LTYPE
  5
15
330
5
100
AcDbSymbolTableRecord
100
AcDbLinetypeTableRecord
  2
BYLAYER
 70
     0
  3

 72
    65
 73
     0
 40
0.0
  0
LTYPE
  5
16
330
5
100
AcDbSymbolTableRecord
100
AcDbLinetypeTableRecord
  2
CONTINUOUS
 70
     0
  3
Solid line
 72
    65
 73
     0
 40
0.0
  0
LTYPE
  5
151
330
5
100
AcDbSymbolTableRecord
100
AcDbLinetypeTableRecord
  2
CENTER
 70
     0
  3
Center line ____ _ ____ _ ____ _
 72
    65
 73
     4
 40
0.7874015748031495
 49
0.4921259842519685
 74
     0
 49
-0.0984251968503937
 74
     0
 49
0.0984251968503937
 74
     0
 49
-0.0984251968503937
 74
     0
  0
ENDTAB
  0
TABLE
  2
LAYER
  5
2
330
0
100
AcDbSymbolTable
 70
     8
  0
LAYER
  5
10
330
2
100
AcDbSymbolTableRecord
100
AcDbLayerTableRecord
  2
0
 70
     0
 62
     7
  6
CONTINUOUS
  0
LAYER
  5
70
330
2
100
AcDbSymbolTableRecord
100
AcDbLayerTableRecord
  2
DEFPOINTS
 70
     0
 62
     7
  6
CONTINUOUS
  0
LAYER
  5
74
330
2
100
AcDbSymbolTableRecord
100
AcDbLayerTableRecord
  2
VISIBLE
 70
     0
 62
     7
  6
CONTINUOUS
  0
LAYER
  5
91
330
2
100
AcDbSymbolTableRecord
100
AcDbLayerTableRecord
  2
BORDER_FRAME
 70
     0
 62
     7
  6
CONTINUOUS
  0
LAYER
  5
97
330
2
100
AcDbSymbolTableRecord
100
AcDbLayerTableRecord
  2
BORDER_ZONES
 70
     0
 62
     7
  6
CONTINUOUS
  0
LAYER
  5
BD
330
2
100
AcDbSymbolTableRecord
100
AcDbLayerTableRecord
  2
TITLE_BLOCK
 70
     0
 62
     7
  6
CONTINUOUS
  0
LAYER
  5
14F
330
2
100
AcDbSymbolTableRecord
100
AcDbLayerTableRecord
  2
CENTERMARKS
 70
     0
 62
     7
  6
CONTINUOUS
  0
LAYER
  5
1CA
330
2
100
AcDbSymbolTableRecord
100
AcDbLayerTableRecord
  2
ANNOTATION_TEXT
 70
     0
 62
     7
  6
CONTINUOUS
  0
ENDTAB
  0
TABLE
  2
STYLE
  5
3
330
0
100
AcDbSymbolTable
 70
    36
  0
STYLE
  5
11
330
3
100
AcDbSymbolTableRecord
100
AcDbTextStyleTableRecord
  2
STANDARD
 70
     0
 40
0.0
 41
1.0
 50
0.0
 71
     0
 42
3.5
  3
txt
  4

  0
STYLE
  5
71
330
3
100
AcDbSymbolTableRecord
100
AcDbTextStyleTableRecord
  2
ONSHAPE-STANDARD
 70
     0
 40
0.0
 41
1.0
 50
0.0
 71
     0
 42
3.5
  3
NotoSans-Regular.ttf
  4

1001
ACAD
1000
Noto Sans
1071
        0
  0
STYLE
  5
73
330
3
100
AcDbSymbolTableRecord
100
AcDbTextStyleTableRecord
  2
ONSHAPE-STANDARD-DIMENSION
 70
     0
 40
0.0
 41
1.0
 50
0.0
 71
     0
 42
3.5
  3

  4

1001
ACAD
1000
Noto Sans
1071
        0
  0
STYLE
  5
F2
330
3
100
AcDbSymbolTableRecord
100
AcDbTextStyleTableRecord
  2
ONSHAPE-STANDARD-FIELDS
 70
     0
 40
0.0
 41
1.0
 50
0.0
 71
     0
 42
3.5
  3

  4

1001
ACAD
1000
Noto Sans
1071
        0
  0
STYLE
  5
1CD
330
3
100
AcDbSymbolTableRecord
100
AcDbTextStyleTableRecord
  2
ONSHAPE-STANDARD-VIEW-LABE
 70
     0
 40
3.5
 41
1.0
 50
0.0
 71
     0
 42
3.5
  3
NotoSans-Regular.ttf
  4

1001
ACAD
1000
Noto Sans
1071
        0
  0
STYLE
  5
22D
330
3
100
AcDbSymbolTableRecord
100
AcDbTextStyleTableRecord
  2
ONSHAPE-STANDARD-NOTESTYLE
 70
     0
 40
3.5
 41
1.0
 50
0.0
 71
     0
 42
3.5
  3
NotoSans-Regular.ttf
  4

1001
ACAD
1000
Noto Sans
1071
        0
  0
STYLE
  5
246
330
3
100
AcDbSymbolTableRecord
100
AcDbTextStyleTableRecord
  2
ONSHAPE-STANDARD-TCFIELDS
 70
     0
 40
0.0
 41
1.0
 50
0.0
 71
     0
 42
3.5
  3
NotoSansTC-Regular.otf
  4

1001
ACAD
1000
Noto Sans TC
1071
        0
  0
STYLE
  5
247
330
3
100
AcDbSymbolTableRecord
100
AcDbTextStyleTableRecord
  2
ONSHAPE-STANDARD-SCFIELDS
 70
     0
 40
0.0
 41
1.0
 50
0.0
 71
     0
 42
3.5
  3
NotoSansSC-Regular.otf
  4

1001
ACAD
1000
Noto Sans SC
1071
        0
  0
STYLE
  5
248
330
3
100
AcDbSymbolTableRecord
100
AcDbTextStyleTableRecord
  2
ONSHAPE-STANDARD-KOREANFIE
 70
     0
 40
0.0
 41
1.0
 50
0.0
 71
     0
 42
3.5
  3
NotoSansKR-Regular.otf
  4

1001
ACAD
1000
Noto Sans KR
1071
        0
  0
STYLE
  5
249
330
3
100
AcDbSymbolTableRecord
100
AcDbTextStyleTableRecord
  2
ONSHAPE-STANDARD-JAPANESEF
 70
     0
 40
0.0
 41
1.0
 50
0.0
 71
     0
 42
3.5
  3
NotoSansJP-Regular.otf
  4

1001
ACAD
1000
Noto Sans JP
1071
        0
  0
STYLE
  5
24B
330
3
100
AcDbSymbolTableRecord
100
AcDbTextStyleTableRecord
  2
ONSHAPE-STANDARD-BOLD
 70
     0
 40
0.0
 41
1.0
 50
0.0
 71
     0
 42
3.5
  3
NotoSans-Bold.ttf
  4

1001
ACAD
1000
Noto Sans
1071
 33554432
  0
STYLE
  5
24E
330
3
100
AcDbSymbolTableRecord
100
AcDbTextStyleTableRecord
  2
TTFSTYLE
 70
     0
 40
0.0
 41
1.0
 50
0.0
 71
     0
 42
3.5
  3

  4

1001
ACAD
1000
Verdana
1071
       34
  0
STYLE
  5
24F
330
3
100
AcDbSymbolTableRecord
100
AcDbTextStyleTableRecord
  2
ONSHAPE-STANDARD-GTOLERANC
 70
     0
 40
0.0
 41
1.0
 50
0.0
 71
     0
 42
3.5
  3

  4

1001
ACAD
1000
Noto Sans
1071
        0
  0
STYLE
  5
250
330
3
100
AcDbSymbolTableRecord
100
AcDbTextStyleTableRecord
  2
ONSHAPE-STANDARD-TABLE-DAT
 70
     0
 40
0.0
 41
1.0
 50
0.0
 71
     0
 42
3.5
  3
NotoSans-Regular.ttf
  4

1001
ACAD
1000
Noto Sans
1071
        0
  0
STYLE
  5
251
330
3
100
AcDbSymbolTableRecord
100
AcDbTextStyleTableRecord
  2
ONSHAPE-STANDARD-TABLE-TIT
 70
     0
 40
0.0
 41
1.0
 50
0.0
 71
     0
 42
3.5
  3
NotoSans-Bold.ttf
  4

1001
ACAD
1000
Noto Sans
1071
 33554432
  0
STYLE
  5
252
330
3
100
AcDbSymbolTableRecord
100
AcDbTextStyleTableRecord
  2
ONSHAPE-STANDARD-TABLE-HEA
 70
     0
 40
0.0
 41
1.0
 50
0.0
 71
     0
 42
3.5
  3
NotoSans-Bold.ttf
  4

1001
ACAD
1000
Noto Sans
1071
 33554432
  0
STYLE
  5
253
330
3
100
AcDbSymbolTableRecord
100
AcDbTextStyleTableRecord
  2
ONSHAPE-STANDARD-BOMTABLE-
 70
     0
 40
0.0
 41
1.0
 50
0.0
 71
     0
 42
3.5
  3
NotoSans-Regular.ttf
  4

1001
ACAD
1000
Noto Sans
1071
        0
  0
STYLE
  5
254
330
3
100
AcDbSymbolTableRecord
100
AcDbTextStyleTableRecord
  2
ONSHAPE-STANDARD-BOMTABLE0
 70
     0
 40
0.0
 41
1.0
 50
0.0
 71
     0
 42
3.5
  3
NotoSans-Bold.ttf
  4

1001
ACAD
1000
Noto Sans
1071
 33554432
  0
STYLE
  5
255
330
3
100
AcDbSymbolTableRecord
100
AcDbTextStyleTableRecord
  2
ONSHAPE-STANDARD-BOMTABLE1
 70
     0
 40
0.0
 41
1.0
 50
0.0
 71
     0
 42
3.5
  3
NotoSans-Bold.ttf
  4

1001
ACAD
1000
Noto Sans
1071
 33554432
  0
STYLE
  5
257
330
3
100
AcDbSymbolTableRecord
100
AcDbTextStyleTableRecord
  2
ONSHAPE-STANDARD-DATUM-DIM
 70
     0
 40
3.5
 41
1.0
 50
0.0
 71
     0
 42
3.5
  3
NotoSans-Regular.ttf
  4

1001
ACAD
1000
Noto Sans
1071
        0
  0
STYLE
  5
259
330
3
100
AcDbSymbolTableRecord
100
AcDbTextStyleTableRecord
  2
ONSHAPE-DETAIL-VIEW-LEADER
 70
     0
 40
3.5
 41
1.0
 50
0.0
 71
     0
 42
3.5
  3
NotoSans-Regular.ttf
  4

1001
ACAD
1000
Noto Sans
1071
        0
  0
STYLE
  5
25A
330
3
100
AcDbSymbolTableRecord
100
AcDbTextStyleTableRecord
  2
ONSHAPE-STANDARD-HOLE-CALL
 70
     0
 40
3.5
 41
1.0
 50
0.0
 71
     0
 42
3.5
  3
NotoSans-Regular.ttf
  4

1001
ACAD
1000
Noto Sans
1071
        0
  0
STYLE
  5
25B
330
3
100
AcDbSymbolTableRecord
100
AcDbTextStyleTableRecord
  2
ONSHAPE-STANDARD-HOLETABLE
 70
     0
 40
0.0
 41
1.0
 50
0.0
 71
     0
 42
3.5
  3
NotoSans-Regular.ttf
  4

1001
ACAD
1000
Noto Sans
1071
        0
  0
STYLE
  5
25C
330
3
100
AcDbSymbolTableRecord
100
AcDbTextStyleTableRecord
  2
ONSHAPE-STANDARD-HOLETABL0
 70
     0
 40
0.0
 41
1.0
 50
0.0
 71
     0
 42
3.5
  3
NotoSans-Bold.ttf
  4

1001
ACAD
1000
Noto Sans
1071
 33554432
  0
STYLE
  5
25D
330
3
100
AcDbSymbolTableRecord
100
AcDbTextStyleTableRecord
  2
ONSHAPE-STANDARD-HOLETABL1
 70
     0
 40
0.0
 41
1.0
 50
0.0
 71
     0
 42
3.5
  3
NotoSans-Bold.ttf
  4

1001
ACAD
1000
Noto Sans
1071
 33554432
  0
STYLE
  5
25E
330
3
100
AcDbSymbolTableRecord
100
AcDbTextStyleTableRecord
  2
ONSHAPE-STANDARD-HOLE-TAG
 70
     0
 40
3.5
 41
1.0
 50
0.0
 71
     0
 42
3.5
  3
NotoSans-Regular.ttf
  4

1001
ACAD
1000
Noto Sans
1071
        0
  0
STYLE
  5
25F
330
3
100
AcDbSymbolTableRecord
100
AcDbTextStyleTableRecord
  2
ONSHAPE-STANDARD-REVISIONT
 70
     0
 40
0.0
 41
1.0
 50
0.0
 71
     0
 42
3.5
  3
NotoSans-Regular.ttf
  4

1001
ACAD
1000
Noto Sans
1071
        0
  0
STYLE
  5
260
330
3
100
AcDbSymbolTableRecord
100
AcDbTextStyleTableRecord
  2
ONSHAPE-STANDARD-REVISION0
 70
     0
 40
0.0
 41
1.0
 50
0.0
 71
     0
 42
3.5
  3
NotoSans-Bold.ttf
  4

1001
ACAD
1000
Noto Sans
1071
 33554432
  0
STYLE
  5
261
330
3
100
AcDbSymbolTableRecord
100
AcDbTextStyleTableRecord
  2
ONSHAPE-STANDARD-REVISION1
 70
     0
 40
0.0
 41
1.0
 50
0.0
 71
     0
 42
3.5
  3
NotoSans-Bold.ttf
  4

1001
ACAD
1000
Noto Sans
1071
 33554432
  0
STYLE
  5
262
330
3
100
AcDbSymbolTableRecord
100
AcDbTextStyleTableRecord
  2
ONSHAPE-STANDARD-REVISION-
 70
     0
 40
3.5
 41
1.0
 50
0.0
 71
     0
 42
3.5
  3
NotoSans-Regular.ttf
  4

1001
ACAD
1000
Noto Sans
1071
        0
  0
STYLE
  5
263
330
3
100
AcDbSymbolTableRecord
100
AcDbTextStyleTableRecord
  2
ONSHAPE-STANDARD-CUTLISTTA
 70
     0
 40
0.0
 41
1.0
 50
0.0
 71
     0
 42
3.5
  3
NotoSans-Regular.ttf
  4

1001
ACAD
1000
Noto Sans
1071
        0
  0
STYLE
  5
264
330
3
100
AcDbSymbolTableRecord
100
AcDbTextStyleTableRecord
  2
ONSHAPE-STANDARD-CUTLISTT0
 70
     0
 40
0.0
 41
1.0
 50
0.0
 71
     0
 42
3.5
  3
NotoSans-Bold.ttf
  4

1001
ACAD
1000
Noto Sans
1071
 33554432
  0
STYLE
  5
265
330
3
100
AcDbSymbolTableRecord
100
AcDbTextStyleTableRecord
  2
ONSHAPE-STANDARD-CUTLISTT1
 70
     0
 40
0.0
 41
1.0
 50
0.0
 71
     0
 42
3.5
  3
NotoSans-Bold.ttf
  4

1001
ACAD
1000
Noto Sans
1071
 33554432
  0
STYLE
  5
266
330
3
100
AcDbSymbolTableRecord
100
AcDbTextStyleTableRecord
  2
ONSHAPE-STANDARD-CUSTOMTAB
 70
     0
 40
0.0
 41
1.0
 50
0.0
 71
     0
 42
3.5
  3
NotoSans-Regular.ttf
  4

1001
ACAD
1000
Noto Sans
1071
        0
  0
STYLE
  5
267
330
3
100
AcDbSymbolTableRecord
100
AcDbTextStyleTableRecord
  2
ONSHAPE-STANDARD-CUSTOMTA0
 70
     0
 40
0.0
 41
1.0
 50
0.0
 71
     0
 42
3.5
  3
NotoSans-Bold.ttf
  4

1001
ACAD
1000
Noto Sans
1071
 33554432
  0
STYLE
  5
268
330
3
100
AcDbSymbolTableRecord
100
AcDbTextStyleTableRecord
  2
ONSHAPE-STANDARD-CUSTOMTA1
 70
     0
 40
0.0
 41
1.0
 50
0.0
 71
     0
 42
3.5
  3
NotoSans-Bold.ttf
  4

1001
ACAD
1000
Noto Sans
1071
 33554432
  0
ENDTAB
  0
TABLE
  2
VIEW
  5
6
330
0
100
AcDbSymbolTable
 70
     0
  0
ENDTAB
  0
TABLE
  2
UCS
  5
7
330
0
100
AcDbSymbolTable
 70
     0
  0
ENDTAB
  0
TABLE
  2
APPID
  5
9
330
0
100
AcDbSymbolTable
 70
     8
  0
APPID
  5
12
330
9
100
AcDbSymbolTableRecord
100
AcDbRegAppTableRecord
  2
ACAD
 70
     0
  0
APPID
  5
125
330
9
100
AcDbSymbolTableRecord
100
AcDbRegAppTableRecord
  2
ONSHAPE_NOTES_REORDERING_D
 70
     0
  0
APPID
  5
126
330
9
100
AcDbSymbolTableRecord
100
AcDbRegAppTableRecord
  2
ONSHAPE_NOTES_ANNOTATION_D
 70
     0
  0
APPID
  5
1EA
330
9
100
AcDbSymbolTableRecord
100
AcDbRegAppTableRecord
  2
ACAD_DIMASSOC_CALC_DIMLFAC
 70
     0
  0
APPID
  5
1EB
330
9
100
AcDbSymbolTableRecord
100
AcDbRegAppTableRecord
  2
ACAD_DIMASSOC_DIMLFAC
 70
     0
  0
APPID
  5
1EC
330
9
100
AcDbSymbolTableRecord
100
AcDbRegAppTableRecord
  2
ACAD_DIMASSOC_OVERRIDDEN_D
 70
     0
  0
APPID
  5
1DF
330
9
100
AcDbSymbolTableRecord
100
AcDbRegAppTableRecord
  2
INDEX
 70
     0
  0
APPID
  5
2D4
330
9
100
AcDbSymbolTableRecord
100
AcDbRegAppTableRecord
  2
ACAD_MLEADERVER
 70
     0
  0
ENDTAB
  0
TABLE
  2
DIMSTYLE
  5
A
330
0
100
AcDbSymbolTable
 70
    23
  0
DIMSTYLE
105
27
330
A
100
AcDbSymbolTableRecord
100
AcDbDimStyleTableRecord
  2
STANDARD
 70
     0
  3

  4

  5

  6

  7

 40
1.0
 41
0.18
 42
0.0625
 43
0.38
 44
0.18
 45
0.0
 46
0.0
 47
0.0
 48
0.0
140
0.18
141
0.09
142
0.0
143
25.4
144
1.0
145
0.0
146
1.0
147
0.09
 71
     0
 72
     0
 73
     1
 74
     1
 75
     0
 76
     0
 77
     0
 78
     0
170
     0
171
     2
172
     0
173
     0
174
     0
175
     0
176
     0
177
     0
178
     0
270
     2
271
     4
272
     4
273
     2
274
     2
340
11
275
     0
280
     0
281
     0
282
     0
283
     1
284
     0
285
     0
286
     0
287
     3
288
     0
  0
DIMSTYLE
105
72
330
A
100
AcDbSymbolTableRecord
100
AcDbDimStyleTableRecord
  2
ONSHAPE-ISO-25
 70
     0
  3

  4

  5

  6

  7

 40
1.0
 41
2.5
 42
0.625
 43
3.75
 44
1.25
 45
0.0
 46
0.0
 47
0.0
 48
0.0
140
3.5
141
2.5
142
0.0
143
0.03937
144
1.0
145
0.0
146
1.0
147
0.625
 71
     0
 72
     0
 73
     0
 74
     0
 75
     0
 76
     0
 77
     1
 78
     8
170
     0
171
     3
172
     1
173
     0
174
     0
175
     0
176
     7
177
     7
178
     7
179
     1
270
     2
271
     2
272
     2
273
     2
274
     3
340
73
275
     0
280
     0
281
     0
282
     0
283
     0
284
     8
285
     8
286
     0
287
     3
288
     1
  0
DIMSTYLE
105
1DA
102
{ACAD_REACTORS
330
1D1
330
1ED
330
200
330
213
102
}
330
A
100
AcDbSymbolTableRecord
100
AcDbDimStyleTableRecord
  2
ONSHAPE-ISO-25$0
 70
     0
  3

  4

  5

  6

  7

 40
1.0
 41
2.5
 42
0.625
 43
3.75
 44
1.25
 45
0.0
 46
0.0
 47
0.0
 48
0.0
140
3.5
141
2.5
142
0.0
143
0.03937
144
1.0
145
0.0
146
1.0
147
0.625
 71
     0
 72
     0
 73
     0
 74
     0
 75
     0
 76
     0
 77
     1
 78
     8
170
     0
171
     3
172
     1
173
     0
174
     0
175
     0
176
     7
177
     7
178
     7
179
     1
270
     2
271
     2
272
     2
273
     2
274
     3
340
73
275
     0
280
     0
281
     0
282
     0
283
     0
284
     8
285
     8
286
     0
287
     3
288
     1
  0
DIMSTYLE
105
269
330
A
100
AcDbSymbolTableRecord
100
AcDbDimStyleTableRecord
  2
ISO-25
 70
     0
  3

  4

  5

  6

  7

 40
1.0
 41
2.5
 42
0.625
 43
3.75
 44
1.25
 45
0.0
 46
0.0
 47
0.0
 48
0.0
140
2.5
141
2.5
142
0.0
143
0.03937007874016
144
1.0
145
0.0
146
1.0
147
0.625
 71
     0
 72
     0
 73
     0
 74
     0
 75
     0
 76
     0
 77
     1
 78
     8
170
     0
171
     3
172
     1
173
     0
174
     0
175
     0
176
     7
177
     7
178
     7
270
     2
271
     2
272
     2
273
     2
274
     3
340
11
275
     0
280
     0
281
     0
282
     0
283
     0
284
     8
285
     0
286
     0
287
     3
288
     1
  0
DIMSTYLE
105
26B
330
A
100
AcDbSymbolTableRecord
100
AcDbDimStyleTableRecord
  2
ISO
 70
     0
  3

  4
"
  5

  6

  7

 40
1.0
 41
3.5
 42
1.0
 43
10.0
 44
1.0
 45
0.0
 46
0.0
 47
0.1
 48
0.1
140
3.5
141
0.0
142
0.0
143
0.03937
144
1.0
145
0.0
146
0.71
147
1.5
 71
     0
 72
     0
 73
     0
 74
     0
 75
     0
 76
     0
 77
     1
 78
     8
170
     0
171
     3
172
     1
173
     0
174
     0
175
     0
176
     7
177
     7
178
     7
270
     2
271
     2
272
     3
273
     2
274
     3
340
11
275
     0
280
     0
281
     0
282
     0
283
     0
284
     8
285
     8
286
     0
287
     3
288
     1
  0
DIMSTYLE
105
26C
330
A
100
AcDbSymbolTableRecord
100
AcDbDimStyleTableRecord
  2
ISO$3
 70
     0
  3

  4
"
  5

  6

  7

 40
1.0
 41
3.5
 42
1.0
 43
10.0
 44
1.0
 45
0.0
 46
0.0
 47
0.1
 48
0.1
140
3.5
141
0.0
142
0.0
143
0.03937
144
1.0
145
0.0
146
0.71
147
1.5
 71
     0
 72
     0
 73
     0
 74
     1
 75
     0
 76
     0
 77
     1
 78
     8
170
     0
171
     3
172
     0
173
     0
174
     0
175
     0
176
     7
177
     7
178
     7
270
     2
271
     2
272
     3
273
     2
274
     3
340
11
275
     0
280
     0
281
     0
282
     0
283
     0
284
     8
285
     8
286
     0
288
     1
  0
DIMSTYLE
105
26D
330
A
100
AcDbSymbolTableRecord
100
AcDbDimStyleTableRecord
  2
ISO$4
 70
     0
  3

  4
"
  5

  6

  7

 40
1.0
 41
3.5
 42
1.0
 43
10.0
 44
1.0
 45
0.0
 46
0.0
 47
0.1
 48
0.1
140
3.5
141
0.0
142
0.0
143
0.03937
144
1.0
145
0.0
146
0.71
147
1.5
 71
     0
 72
     0
 73
     0
 74
     0
 75
     0
 76
     0
 77
     1
 78
     8
170
     0
171
     3
172
     1
173
     0
174
     0
175
     0
176
     7
177
     7
178
     7
270
     2
271
     2
272
     3
273
     2
274
     3
340
11
275
     0
280
     0
281
     0
282
     0
283
     0
284
     8
285
     8
286
     0
287
     3
288
     1
  0
DIMSTYLE
105
26E
330
A
100
AcDbSymbolTableRecord
100
AcDbDimStyleTableRecord
  2
ISO$6
 70
     0
  3

  4
"
  5

  6

  7

 40
1.0
 41
0.5
 42
1.0
 43
10.0
 44
1.0
 45
0.0
 46
0.0
 47
0.1
 48
0.1
140
3.5
141
0.0
142
0.0
143
0.03937
144
1.0
145
0.0
146
0.71
147
1.5
 71
     0
 72
     0
 73
     0
 74
     0
 75
     0
 76
     0
 77
     0
 78
     8
170
     0
171
     3
172
     1
173
     0
174
     0
175
     0
176
     7
177
     7
178
     7
270
     2
271
     2
272
     3
273
     2
274
     3
340
11
275
     0
280
     0
281
     0
282
     0
283
     0
284
     8
285
     8
286
     0
287
     3
288
     1
  0
DIMSTYLE
105
26F
330
A
100
AcDbSymbolTableRecord
100
AcDbDimStyleTableRecord
  2
ISO$7
 70
     0
  3

  4
"
  5

  6

  7

 40
1.0
 41
3.5
 42
1.0
 43
10.0
 44
1.0
 45
0.0
 46
0.0
 47
0.1
 48
0.1
140
3.5
141
0.0
142
0.0
143
0.03937
144
1.0
145
0.0
146
0.71
147
1.5
 71
     0
 72
     0
 73
     0
 74
     0
 75
     0
 76
     0
 77
     1
 78
     8
170
     0
171
     3
172
     1
173
     0
174
     0
175
     0
176
     7
177
     7
178
     7
270
     2
271
     2
272
     3
273
     2
274
     3
340
11
275
     0
280
     0
281
     0
282
     0
283
     0
284
     8
285
     8
286
     0
287
     3
288
     1
  0
DIMSTYLE
105
270
330
A
100
AcDbSymbolTableRecord
100
AcDbDimStyleTableRecord
  2
ISO$SF
 70
     0
  3

  4
"
  5

  6

  7

 40
1.0
 41
3.5
 42
1.0
 43
10.0
 44
1.0
 45
0.0
 46
0.0
 47
0.1
 48
0.1
140
3.5
141
0.0
142
0.0
143
0.03937
144
1.0
145
0.0
146
0.71
147
1.5
 71
     0
 72
     0
 73
     0
 74
     0
 75
     1
 76
     1
 77
     1
 78
     8
170
     0
171
     3
172
     1
173
     0
174
     0
175
     0
176
     7
177
     7
178
     7
270
     2
271
     2
272
     3
273
     2
274
     3
340
11
275
     0
280
     0
281
     0
282
     0
283
     0
284
     8
285
     8
286
     0
287
     3
288
     1
  0
DIMSTYLE
105
271
330
A
100
AcDbSymbolTableRecord
100
AcDbDimStyleTableRecord
  2
ISO$SH
 70
     0
  3

  4
"
  5

  6

  7

 40
1.0
 41
3.5
 42
1.0
 43
10.0
 44
1.0
 45
0.0
 46
0.0
 47
0.1
 48
0.1
140
3.5
141
0.0
142
0.0
143
0.03937
144
2.0
145
0.0
146
0.71
147
1.5
 71
     0
 72
     0
 73
     0
 74
     0
 75
     1
 76
     1
 77
     1
 78
     8
170
     0
171
     3
172
     1
173
     1
174
     0
175
     0
176
     7
177
     7
178
     7
270
     2
271
     2
272
     3
273
     2
274
     3
340
11
275
     0
280
     0
281
     0
282
     0
283
     0
284
     8
285
     8
286
     0
287
     3
288
     1
  0
DIMSTYLE
105
275
330
A
100
AcDbSymbolTableRecord
100
AcDbDimStyleTableRecord
  2
ONSHAPE-ISO-25$2
 70
     0
  3

  4

  5

  6

  7

 40
1.0
 41
2.5
 42
0.625
 43
3.75
 44
1.25
 45
0.0
 46
0.0
 47
0.0
 48
0.0
140
3.5
141
2.5
142
0.0
143
0.03937
144
1.0
145
0.0
146
1.0
147
0.625
 71
     0
 72
     0
 73
     0
 74
     0
 75
     0
 76
     0
 77
     1
 78
     8
170
     0
171
     3
172
     1
173
     0
174
     0
175
     0
176
     7
177
     7
178
     7
179
     1
270
     2
271
     2
272
     2
273
     2
274
     3
340
73
275
     0
280
     0
281
     0
282
     0
283
     0
284
     8
285
     8
286
     0
287
     3
288
     1
  0
DIMSTYLE
105
276
330
A
100
AcDbSymbolTableRecord
100
AcDbDimStyleTableRecord
  2
ONSHAPE-ISO-25$3
 70
     0
  3

  4

  5

  6

  7

 40
1.0
 41
2.5
 42
0.625
 43
3.75
 44
1.25
 45
0.0
 46
0.0
 47
0.0
 48
0.0
140
3.5
141
0.0
142
0.0
143
0.03937
144
1.0
145
0.0
146
1.0
147
0.625
 71
     0
 72
     0
 73
     0
 74
     0
 75
     0
 76
     0
 77
     1
 78
     8
170
     0
171
     3
172
     1
173
     0
174
     0
175
     0
176
     7
177
     7
178
     7
179
     1
270
     2
271
     2
272
     2
273
     2
274
     3
340
73
275
     0
280
     0
281
     0
282
     0
283
     0
284
     8
285
     8
286
     0
287
     3
288
     1
  0
DIMSTYLE
105
277
330
A
100
AcDbSymbolTableRecord
100
AcDbDimStyleTableRecord
  2
ONSHAPE-ISO-25$4
 70
     0
  3

  4

  5

  6

  7

 40
1.0
 41
2.5
 42
0.625
 43
3.75
 44
1.25
 45
0.0
 46
0.0
 47
0.0
 48
0.0
140
3.5
141
0.0
142
0.0
143
0.03937
144
1.0
145
0.0
146
1.0
147
0.625
 71
     0
 72
     0
 73
     0
 74
     0
 75
     0
 76
     0
 77
     1
 78
     8
170
     0
171
     3
172
     1
173
     0
174
     0
175
     0
176
     7
177
     7
178
     7
179
     1
270
     2
271
     2
272
     2
273
     2
274
     3
340
73
275
     0
280
     0
281
     0
282
     0
283
     0
284
     8
285
     8
286
     0
287
     3
288
     1
  0
DIMSTYLE
105
278
330
A
100
AcDbSymbolTableRecord
100
AcDbDimStyleTableRecord
  2
ONSHAPE-ISO-25$6
 70
     0
  3

  4

  5

  6

  7

 40
1.0
 41
0.5
 42
0.625
 43
3.75
 44
1.25
 45
0.0
 46
0.0
 47
0.0
 48
0.0
140
3.5
141
2.5
142
0.0
143
0.03937
144
1.0
145
0.0
146
1.0
147
0.625
 71
     0
 72
     0
 73
     0
 74
     0
 75
     0
 76
     0
 77
     1
 78
     8
170
     0
171
     3
172
     1
173
     0
174
     0
175
     0
176
     7
177
     7
178
     7
179
     1
270
     2
271
     2
272
     2
273
     2
274
     3
340
73
275
     0
280
     0
281
     0
282
     0
283
     0
284
     8
285
     8
286
     0
287
     3
288
     1
  0
DIMSTYLE
105
279
330
A
100
AcDbSymbolTableRecord
100
AcDbDimStyleTableRecord
  2
ONSHAPE-ISO-25$7
 70
     0
  3

  4

  5

  6

  7

 40
1.0
 41
2.5
 42
0.625
 43
3.75
 44
1.25
 45
0.0
 46
0.0
 47
0.0
 48
0.0
140
3.5
141
2.5
142
0.0
143
0.03937
144
1.0
145
0.0
146
1.0
147
0.625
 71
     0
 72
     0
 73
     0
 74
     0
 75
     0
 76
     0
 77
     1
 78
     8
170
     0
171
     3
172
     1
173
     0
174
     0
175
     0
176
     7
177
     7
178
     7
179
     1
270
     2
271
     2
272
     2
273
     2
274
     3
340
73
275
     0
280
     0
281
     0
282
     0
283
     0
284
     8
285
     8
286
     0
287
     3
288
     1
  0
DIMSTYLE
105
27A
330
A
100
AcDbSymbolTableRecord
100
AcDbDimStyleTableRecord
  2
ONSHAPE-STANDARD-GTOLERANC
 70
     0
  3

  4

  5

  6

  7

 40
1.0
 41
2.5
 42
0.625
 43
3.75
 44
1.25
 45
0.0
 46
0.0
 47
0.0
 48
0.0
140
3.5
141
2.5
142
0.0
143
0.03937
144
1.0
145
0.0
146
1.0
147
0.625
 71
     0
 72
     0
 73
     0
 74
     0
 75
     0
 76
     0
 77
     1
 78
     8
170
     0
171
     3
172
     1
173
     0
174
     0
175
     0
176
     7
177
     7
178
     7
179
     1
270
     2
271
     2
272
     2
273
     2
274
     3
340
24F
275
     0
280
     0
281
     0
282
     0
283
     0
284
     8
285
     8
286
     0
287
     3
288
     1
  0
DIMSTYLE
105
27C
330
A
100
AcDbSymbolTableRecord
100
AcDbDimStyleTableRecord
  2
ONSHAPE-ORDINATESTYLE
 70
     0
  3

  4

  5

  6

  7

 40
1.0
 41
2.5
 42
0.625
 43
3.75
 44
1.25
 45
0.0
 46
0.0
 47
0.0
 48
0.0
140
3.5
141
2.5
142
0.0
143
0.03937
144
1.0
145
0.0
146
1.0
147
0.625
 71
     0
 72
     0
 73
     0
 74
     0
 75
     0
 76
     0
 77
     1
 78
     8
170
     0
171
     3
172
     1
173
     0
174
     0
175
     0
176
     7
177
     7
178
     7
179
     1
270
     2
271
     2
272
     2
273
     2
274
     3
340
73
275
     0
280
     0
281
     0
282
     0
283
     0
284
     8
285
     8
286
     0
287
     3
288
     1
  0
DIMSTYLE
105
27D
330
A
100
AcDbSymbolTableRecord
100
AcDbDimStyleTableRecord
  2
ONSHAPE-CHAMFERDIMSTYLE
 70
     0
  3

  4

  5

  6

  7

 40
1.0
 41
2.5
 42
0.625
 43
3.75
 44
1.25
 45
0.0
 46
0.0
 47
0.0
 48
0.0
140
3.5
141
2.5
142
0.0
143
0.03937
144
1.0
145
0.0
146
1.0
147
0.625
 71
     0
 72
     0
 73
     0
 74
     0
 75
     0
 76
     0
 77
     1
 78
     8
170
     0
171
     3
172
     1
173
     0
174
     0
175
     0
176
     7
177
     7
178
     7
179
     1
270
     2
271
     2
272
     2
273
     2
274
     3
340
73
275
     0
280
     0
281
     0
282
     0
283
     0
284
     8
285
     8
286
     0
287
     3
288
     1
  0
DIMSTYLE
105
27E
330
A
100
AcDbSymbolTableRecord
100
AcDbDimStyleTableRecord
  2
ONSHAPE-SKETCHDRIVENDIMSTY
 70
     0
  3

  4

  5

  6

  7

 40
1.0
 41
2.5
 42
0.625
 43
3.75
 44
1.25
 45
0.0
 46
0.0
 47
0.0
 48
0.0
140
3.5
141
2.5
142
0.0
143
0.03937
144
1.0
145
0.0
146
1.0
147
0.625
 71
     0
 72
     0
 73
     0
 74
     0
 75
     0
 76
     0
 77
     1
 78
     8
170
     0
171
     3
172
     1
173
     0
174
     0
175
     0
176
   251
177
   251
178
   251
179
     1
270
     2
271
     2
272
     2
273
     2
274
     3
340
73
275
     0
280
     0
281
     0
282
     0
283
     0
284
     8
285
     8
286
     0
287
     3
288
     1
  0
DIMSTYLE
105
27F
330
A
100
AcDbSymbolTableRecord
100
AcDbDimStyleTableRecord
  2
ONSHAPE-SKETCHDRIVENDIMST0
 70
     0
  3

  4

  5

  6

  7

 40
1.0
 41
2.5
 42
0.625
 43
3.75
 44
1.25
 45
0.0
 46
0.0
 47
0.0
 48
0.0
140
3.5
141
2.5
142
0.0
143
0.03937
144
1.0
145
0.0
146
1.0
147
0.625
 71
     0
 72
     0
 73
     0
 74
     0
 75
     0
 76
     0
 77
     1
 78
     8
170
     0
171
     3
172
     1
173
     0
174
     0
175
     0
176
   251
177
   251
178
   251
179
     1
270
     2
271
     2
272
     2
273
     2
274
     3
340
73
275
     0
280
     0
281
     0
282
     0
283
     0
284
     8
285
     8
286
     0
287
     3
288
     1
  0
DIMSTYLE
105
280
330
A
100
AcDbSymbolTableRecord
100
AcDbDimStyleTableRecord
  2
ONSHAPE-SKETCHDRIVENDIMST1
 70
     0
  3

  4

  5

  6

  7

 40
1.0
 41
2.5
 42
0.625
 43
3.75
 44
1.25
 45
0.0
 46
0.0
 47
0.0
 48
0.0
140
3.5
141
0.0
142
0.0
143
0.03937
144
1.0
145
0.0
146
1.0
147
0.625
 71
     0
 72
     0
 73
     0
 74
     0
 75
     0
 76
     0
 77
     1
 78
     8
170
     0
171
     3
172
     1
173
     0
174
     0
175
     0
176
   251
177
   251
178
   251
179
     1
270
     2
271
     2
272
     2
273
     2
274
     3
340
73
275
     0
280
     0
281
     0
282
     0
283
     0
284
     8
285
     8
286
     0
287
     3
288
     1
  0
DIMSTYLE
105
281
330
A
100
AcDbSymbolTableRecord
100
AcDbDimStyleTableRecord
  2
ONSHAPE-SKETCHDRIVENDIMST2
 70
     0
  3

  4

  5

  6

  7

 40
1.0
 41
2.5
 42
0.625
 43
3.75
 44
1.25
 45
0.0
 46
0.0
 47
0.0
 48
0.0
140
3.5
141
0.0
142
0.0
143
0.03937
144
1.0
145
0.0
146
1.0
147
0.625
 71
     0
 72
     0
 73
     0
 74
     0
 75
     0
 76
     0
 77
     1
 78
     8
170
     0
171
     3
172
     1
173
     0
174
     0
175
     0
176
   251
177
   251
178
   251
179
     1
270
     2
271
     2
272
     2
273
     2
274
     3
340
73
275
     0
280
     0
281
     0
282
     0
283
     0
284
     8
285
     8
286
     0
287
     3
288
     1
  0
ENDTAB
  0
TABLE
  2
BLOCK_RECORD
  5
1
330
0
100
AcDbSymbolTable
 70
     4
  0
BLOCK_RECORD
  5
1F
330
1
100
AcDbSymbolTableRecord
100
AcDbBlockTableRecord
  2
*MODEL_SPACE
  0
BLOCK_RECORD
  5
1B
330
1
100
AcDbSymbolTableRecord
100
AcDbBlockTableRecord
  2
*PAPER_SPACE
  0
BLOCK_RECORD
  5
1DC
330
1
100
AcDbSymbolTableRecord
100
AcDbBlockTableRecord
  2
*D1
  0
BLOCK_RECORD
  5
1F3
330
1
100
AcDbSymbolTableRecord
100
AcDbBlockTableRecord
  2
*D2
  0
BLOCK_RECORD
  5
206
330
1
100
AcDbSymbolTableRecord
100
AcDbBlockTableRecord
  2
*D3
  0
BLOCK_RECORD
  5
219
330
1
100
AcDbSymbolTableRecord
100
AcDbBlockTableRecord
  2
*D4
  0
ENDTAB
  0
ENDSEC
  0
SECTION
  2
BLOCKS
  0
BLOCK
  5
20
330
1F
100
AcDbEntity
  8
0
100
AcDbBlockBegin
  2
*MODEL_SPACE
 70
     0
 10
0.0
 20
0.0
 30
0.0
  3
*MODEL_SPACE
  1

  0
ENDBLK
  5
21
330
1F
100
AcDbEntity
  8
0
100
AcDbBlockEnd
  0
BLOCK
  5
1C
330
1B
100
AcDbEntity
 67
     1
  8
0
100
AcDbBlockBegin
  2
*PAPER_SPACE
 70
     0
 10
0.0
 20
0.0
 30
0.0
  3
*PAPER_SPACE
  1

  0
ENDBLK
  5
1D
330
1B
100
AcDbEntity
 67
     1
  8
0
100
AcDbBlockEnd
  0
BLOCK
  5
1DD
330
1DC
100
AcDbEntity
  8
0
100
AcDbBlockBegin
  2
*D1
 70
     1
 10
0.0
 20
0.0
 30
0.0
  3
*D1
  1

  0
LINE
  5
1DE
330
1DC
100
AcDbEntity
  8
ANNOTATION_TEXT
 62
     7
100
AcDbLine
 10
32.65316809030425
 20
264.8695595264998
 30
0.0
 11
32.65316809030423
 21
276.3743258106055
 31
0.0
1001
INDEX
1070
     0
  0
LINE
  5
1E0
330
1DC
100
AcDbEntity
  8
ANNOTATION_TEXT
 62
     7
100
AcDbLine
 10
162.6531680903042
 20
264.8695595264998
 30
0.0
 11
162.6531680903042
 21
276.3743258106055
 31
0.0
1001
INDEX
1070
     1
  0
LINE
  5
1E1
330
1DC
100
AcDbEntity
  8
ANNOTATION_TEXT
 62
     7
100
AcDbLine
 10
35.15316809030423
 20
275.1243258106055
 30
0.0
 11
160.1531680903042
 21
275.1243258106055
 31
0.0
1001
INDEX
1070
     3
  0
SOLID
  5
1E2
330
1DC
100
AcDbEntity
  8
ANNOTATION_TEXT
 62
     7
100
AcDbTrace
 10
35.15316809030423
 20
275.5409924772722
 30
0.0
 11
35.15316809030423
 21
274.7076591439388
 31
0.0
 12
32.65316809030423
 22
275.1243258106055
 32
0.0
 13
32.65316809030423
 23
275.1243258106055
 33
0.0
  0
SOLID
  5
1E3
330
1DC
100
AcDbEntity
  8
ANNOTATION_TEXT
 62
     7
100
AcDbTrace
 10
160.1531680903042
 20
274.7076591439388
 30
0.0
 11
160.1531680903042
 21
275.5409924772722
 31
0.0
 12
162.6531680903042
 22
275.1243258106055
 32
0.0
 13
162.6531680903042
 23
275.1243258106055
 33
0.0
  0
MTEXT
  5
1E4
330
1DC
100
AcDbEntity
  8
ANNOTATION_TEXT
 62
     7
100
AcDbMText
 10
94.41044303542792
 20
277.5434334400333
 30
0.0
 40
3.5
 41
0.0
 71
     5
 72
     1
  1
390
  7
ONSHAPE-STANDARD-DIMENSION
  0
POINT
  5
1E5
330
1DC
100
AcDbEntity
  8
DEFPOINTS
 62
     0
100
AcDbPoint
 10
32.65316809030425
 20
264.2445595264998
 30
0.0
  0
POINT
  5
1E6
330
1DC
100
AcDbEntity
  8
DEFPOINTS
 62
     0
100
AcDbPoint
 10
162.6531680903042
 20
264.2445595264998
 30
0.0
  0
POINT
  5
1E7
330
1DC
100
AcDbEntity
  8
DEFPOINTS
 62
     0
100
AcDbPoint
 10
162.6531680903042
 20
275.1243258106055
 30
0.0
  0
POINT
  5
1E8
330
1DC
100
AcDbEntity
  8
DEFPOINTS
 62
     0
100
AcDbPoint
 10
162.6531680903042
 20
275.1243258106055
 30
0.0
  0
ENDBLK
  5
1E9
330
1DC
100
AcDbEntity
  8
0
100
AcDbBlockEnd
  0
BLOCK
  5
1F4
330
1F3
100
AcDbEntity
  8
0
100
AcDbBlockBegin
  2
*D2
 70
     1
 10
0.0
 20
0.0
 30
0.0
  3
*D2
  1

  0
LINE
  5
1F5
330
1F3
100
AcDbEntity
  8
ANNOTATION_TEXT
 62
     7
100
AcDbLine
 10
163.2781680903042
 20
264.2445595264998
 30
0.0
 11
185.8081995609894
 21
264.2445595264998
 31
0.0
1001
INDEX
1070
     0
  0
LINE
  5
1F6
330
1F3
100
AcDbEntity
  8
ANNOTATION_TEXT
 62
     7
100
AcDbLine
 10
150.9448347569709
 20
251.9112261931665
 30
0.0
 11
185.8081995609894
 21
251.9112261931665
 31
0.0
1001
INDEX
1070
     1
  0
LINE
  5
1F7
330
1F3
100
AcDbEntity
  8
ANNOTATION_TEXT
 62
     7
100
AcDbLine
 10
184.5581995609894
 20
261.7445595264998
 30
0.0
 11
184.5581995609894
 21
254.4112261931665
 31
0.0
1001
INDEX
1070
     3
  0
SOLID
  5
1F8
330
1F3
100
AcDbEntity
  8
ANNOTATION_TEXT
 62
     7
100
AcDbTrace
 10
184.9748662276561
 20
261.7445595264998
 30
0.0
 11
184.1415328943228
 21
261.7445595264998
 31
0.0
 12
184.5581995609894
 22
264.2445595264998
 32
0.0
 13
184.5581995609894
 23
264.2445595264998
 33
0.0
  0
SOLID
  5
1F9
330
1F3
100
AcDbEntity
  8
ANNOTATION_TEXT
 62
     7
100
AcDbTrace
 10
184.1415328943228
 20
254.4112261931665
 30
0.0
 11
184.9748662276561
 21
254.4112261931665
 31
0.0
 12
184.5581995609894
 22
251.9112261931665
 32
0.0
 13
184.5581995609894
 23
251.9112261931665
 33
0.0
  0
MTEXT
  5
1FA
330
1F3
100
AcDbEntity
  8
ANNOTATION_TEXT
 62
     7
100
AcDbMText
 10
182.1414761277469
 20
258.0778928598331
 30
0.0
 40
3.5
 41
0.0
 71
     5
 72
     1
  1
37
  7
ONSHAPE-STANDARD-DIMENSION
 11
0.0
 21
1.0
 31
0.0
  0
POINT
  5
1FB
330
1F3
100
AcDbEntity
  8
DEFPOINTS
 62
     0
100
AcDbPoint
 10
162.6531680903042
 20
264.2445595264998
 30
0.0
  0
POINT
  5
1FC
330
1F3
100
AcDbEntity
  8
DEFPOINTS
 62
     0
100
AcDbPoint
 10
150.3198347569709
 20
251.9112261931665
 30
0.0
  0
POINT
  5
1FD
330
1F3
100
AcDbEntity
  8
DEFPOINTS
 62
     0
100
AcDbPoint
 10
184.5581995609894
 20
251.9112261931665
 30
0.0
  0
POINT
  5
1FE
330
1F3
100
AcDbEntity
  8
DEFPOINTS
 62
     0
100
AcDbPoint
 10
184.5581995609894
 20
251.9112261931665
 30
0.0
  0
ENDBLK
  5
1FF
330
1F3
100
AcDbEntity
  8
0
100
AcDbBlockEnd
  0
BLOCK
  5
207
330
206
100
AcDbEntity
  8
0
100
AcDbBlockBegin
  2
*D3
 70
     1
 10
0.0
 20
0.0
 30
0.0
  3
*D3
  1

  0
LINE
  5
208
330
206
100
AcDbEntity
  8
ANNOTATION_TEXT
 62
     7
100
AcDbLine
 10
163.2781680903042
 20
264.2445595264998
 30
0.0
 11
195.860647231106
 21
264.2445595264998
 31
0.0
1001
INDEX
1070
     0
  0
LINE
  5
209
330
206
100
AcDbEntity
  8
ANNOTATION_TEXT
 62
     7
100
AcDbLine
 10
163.2781680903043
 20
134.2445595264998
 30
0.0
 11
195.860647231106
 21
134.2445595264998
 31
0.0
1001
INDEX
1070
     1
  0
LINE
  5
20A
330
206
100
AcDbEntity
  8
ANNOTATION_TEXT
 62
     7
100
AcDbLine
 10
194.610647231106
 20
261.7445595264998
 30
0.0
 11
194.610647231106
 21
136.7445595264998
 31
0.0
1001
INDEX
1070
     3
  0
SOLID
  5
20B
330
206
100
AcDbEntity
  8
ANNOTATION_TEXT
 62
     7
100
AcDbTrace
 10
195.0273138977726
 20
261.7445595264998
 30
0.0
 11
194.1939805644393
 21
261.7445595264998
 31
0.0
 12
194.610647231106
 22
264.2445595264998
 32
0.0
 13
194.610647231106
 23
264.2445595264998
 33
0.0
  0
SOLID
  5
20C
330
206
100
AcDbEntity
  8
ANNOTATION_TEXT
 62
     7
100
AcDbTrace
 10
194.1939805644393
 20
136.7445595264998
 30
0.0
 11
195.0273138977726
 21
136.7445595264998
 31
0.0
 12
194.610647231106
 22
134.2445595264998
 32
0.0
 13
194.610647231106
 23
134.2445595264998
 33
0.0
  0
MTEXT
  5
20D
330
206
100
AcDbEntity
  8
ANNOTATION_TEXT
 62
     7
100
AcDbMText
 10
192.1915396016782
 20
199.2445595264998
 30
0.0
 40
3.5
 41
0.0
 71
     5
 72
     1
  1
390
  7
ONSHAPE-STANDARD-DIMENSION
 11
0.0
 21
1.0
 31
0.0
  0
POINT
  5
20E
330
206
100
AcDbEntity
  8
DEFPOINTS
 62
     0
100
AcDbPoint
 10
162.6531680903042
 20
264.2445595264998
 30
0.0
  0
POINT
  5
20F
330
206
100
AcDbEntity
  8
DEFPOINTS
 62
     0
100
AcDbPoint
 10
162.6531680903043
 20
134.2445595264998
 30
0.0
  0
POINT
  5
210
330
206
100
AcDbEntity
  8
DEFPOINTS
 62
     0
100
AcDbPoint
 10
194.610647231106
 20
134.2445595264998
 30
0.0
  0
POINT
  5
211
330
206
100
AcDbEntity
  8
DEFPOINTS
 62
     0
100
AcDbPoint
 10
194.610647231106
 20
134.2445595264998
 30
0.0
  0
ENDBLK
  5
212
330
206
100
AcDbEntity
  8
0
100
AcDbBlockEnd
  0
BLOCK
  5
21A
330
219
100
AcDbEntity
  8
0
100
AcDbBlockBegin
  2
*D4
 70
     1
 10
0.0
 20
0.0
 30
0.0
  3
*D4
  1

  0
LINE
  5
21B
330
219
100
AcDbEntity
  8
ANNOTATION_TEXT
 62
     7
100
AcDbLine
 10
227.0288369520234
 20
228.4055400094114
 30
0.0
 11
227.0288369520234
 21
229.0305400094114
 31
0.0
1001
INDEX
1070
     0
  0
LINE
  5
21C
330
219
100
AcDbEntity
  8
ANNOTATION_TEXT
 62
     7
100
AcDbLine
 10
227.6955036186901
 20
228.4055400094114
 30
0.0
 11
227.6955036186901
 21
229.0305400094114
 31
0.0
1001
INDEX
1070
     1
  0
LINE
  5
21D
330
219
100
AcDbEntity
  8
ANNOTATION_TEXT
 62
     7
100
AcDbLine
 10
227.6955036186901
 20
227.7805400094114
 30
0.0
 11
251.5147320195892
 21
227.7805400094114
 31
0.0
  0
LINE
  5
21E
330
219
100
AcDbEntity
  8
ANNOTATION_TEXT
 62
     7
100
AcDbLine
 10
227.0288369520234
 20
227.7805400094114
 30
0.0
 11
227.6955036186901
 21
227.7805400094114
 31
0.0
1001
INDEX
1070
     3
  0
LINE
  5
21F
330
219
100
AcDbEntity
  8
ANNOTATION_TEXT
 62
     7
100
AcDbLine
 10
224.5288369520234
 20
227.7805400094114
 30
0.0
 11
222.0288369520234
 21
227.7805400094114
 31
0.0
1001
INDEX
1070
     3
  0
LINE
  5
220
330
219
100
AcDbEntity
  8
ANNOTATION_TEXT
 62
     7
100
AcDbLine
 10
230.1955036186901
 20
227.7805400094114
 30
0.0
 11
232.6955036186901
 21
227.7805400094114
 31
0.0
1001
INDEX
1070
     3
  0
SOLID
  5
221
330
219
100
AcDbEntity
  8
ANNOTATION_TEXT
 62
     7
100
AcDbTrace
 10
224.5288369520234
 20
227.3638733427447
 30
0.0
 11
224.5288369520234
 21
228.197206676078
 31
0.0
 12
227.0288369520234
 22
227.7805400094114
 32
0.0
 13
227.0288369520234
 23
227.7805400094114
 33
0.0
  0
SOLID
  5
222
330
219
100
AcDbEntity
  8
ANNOTATION_TEXT
 62
     7
100
AcDbTrace
 10
230.1955036186901
 20
228.197206676078
 30
0.0
 11
230.1955036186901
 21
227.3638733427447
 31
0.0
 12
227.6955036186901
 22
227.7805400094114
 32
0.0
 13
227.6955036186901
 23
227.7805400094114
 33
0.0
  0
MTEXT
  5
223
330
219
100
AcDbEntity
  8
ANNOTATION_TEXT
 62
     7
100
AcDbMText
 10
249.7369731640033
 20
230.173421480801
 30
0.0
 40
3.5
 41
0.0
 71
     5
 72
     1
  1
2
  7
ONSHAPE-STANDARD-DIMENSION
  0
POINT
  5
224
330
219
100
AcDbEntity
  8
DEFPOINTS
 62
     0
100
AcDbPoint
 10
227.0288369520234
 20
227.7805400094114
 30
0.0
  0
POINT
  5
225
330
219
100
AcDbEntity
  8
DEFPOINTS
 62
     0
100
AcDbPoint
 10
227.6955036186901
 20
227.7805400094114
 30
0.0
  0
POINT
  5
226
330
219
100
AcDbEntity
  8
DEFPOINTS
 62
     0
100
AcDbPoint
 10
227.6955036186901
 20
227.7805400094114
 30
0.0
  0
POINT
  5
227
330
219
100
AcDbEntity
  8
DEFPOINTS
 62
     0
100
AcDbPoint
 10
227.6955036186901
 20
227.7805400094114
 30
0.0
  0
ENDBLK
  5
228
330
219
100
AcDbEntity
  8
0
100
AcDbBlockEnd
  0
ENDSEC
  0
SECTION
  2
ENTITIES
  0
LINE
  5
76
330
1F
100
AcDbEntity
  8
VISIBLE
100
AcDbLine
 10
44.98650142363761
 20
251.9112261931665
 30
0.0
 11
44.98650142363759
 21
146.5778928598331
 31
0.0
  0
LINE
  5
77
330
1F
100
AcDbEntity
  8
VISIBLE
100
AcDbLine
 10
150.3198347569709
 20
146.5778928598332
 30
0.0
 11
44.98650142363759
 21
146.5778928598331
 31
0.0
  0
LINE
  5
78
330
1F
100
AcDbEntity
  8
VISIBLE
100
AcDbLine
 10
150.3198347569709
 20
251.9112261931665
 30
0.0
 11
150.3198347569709
 21
146.5778928598332
 31
0.0
  0
LINE
  5
79
330
1F
100
AcDbEntity
  8
VISIBLE
100
AcDbLine
 10
150.3198347569709
 20
251.9112261931665
 30
0.0
 11
44.98650142363761
 21
251.9112261931665
 31
0.0
  0
LINE
  5
7A
330
1F
100
AcDbEntity
  8
VISIBLE
100
AcDbLine
 10
162.6531680903043
 20
134.2445595264998
 30
0.0
 11
32.65316809030428
 21
134.2445595264998
 31
0.0
  0
CIRCLE
  5
7B
330
1F
100
AcDbEntity
  8
VISIBLE
100
AcDbCircle
 10
155.3198347569709
 20
256.9112261931665
 30
0.0
 40
1.099999999999999
  0
CIRCLE
  5
7C
330
1F
100
AcDbEntity
  8
VISIBLE
100
AcDbCircle
 10
39.98650142363759
 20
141.5778928598332
 30
0.0
 40
1.099999999999999
  0
CIRCLE
  5
7D
330
1F
100
AcDbEntity
  8
VISIBLE
100
AcDbCircle
 10
39.98650142363759
 20
218.5778928598332
 30
0.0
 40
1.099999999999999
  0
CIRCLE
  5
7E
330
1F
100
AcDbEntity
  8
VISIBLE
100
AcDbCircle
 10
39.98650142363759
 20
179.9112261931665
 30
0.0
 40
1.099999999999999
  0
CIRCLE
  5
7F
330
1F
100
AcDbEntity
  8
VISIBLE
100
AcDbCircle
 10
78.31983475697092
 20
141.5778928598332
 30
0.0
 40
1.099999999999999
  0
CIRCLE
  5
80
330
1F
100
AcDbEntity
  8
VISIBLE
100
AcDbCircle
 10
116.9865014236376
 20
141.5778928598332
 30
0.0
 40
1.099999999999999
  0
CIRCLE
  5
81
330
1F
100
AcDbEntity
  8
VISIBLE
100
AcDbCircle
 10
155.3198347569709
 20
141.5778928598332
 30
0.0
 40
1.099999999999999
  0
CIRCLE
  5
82
330
1F
100
AcDbEntity
  8
VISIBLE
100
AcDbCircle
 10
155.3198347569709
 20
179.9112261931665
 30
0.0
 40
1.099999999999999
  0
CIRCLE
  5
83
330
1F
100
AcDbEntity
  8
VISIBLE
100
AcDbCircle
 10
116.9865014236376
 20
256.9112261931665
 30
0.0
 40
1.099999999999999
  0
CIRCLE
  5
84
330
1F
100
AcDbEntity
  8
VISIBLE
100
AcDbCircle
 10
78.31983475697092
 20
256.9112261931665
 30
0.0
 40
1.099999999999999
  0
CIRCLE
  5
85
330
1F
100
AcDbEntity
  8
VISIBLE
100
AcDbCircle
 10
39.98650142363759
 20
256.9112261931665
 30
0.0
 40
1.099999999999999
  0
CIRCLE
  5
86
330
1F
100
AcDbEntity
  8
VISIBLE
100
AcDbCircle
 10
155.3198347569709
 20
218.5778928598332
 30
0.0
 40
1.099999999999999
  0
LINE
  5
87
330
1F
100
AcDbEntity
  8
VISIBLE
100
AcDbLine
 10
162.6531680903042
 20
264.2445595264998
 30
0.0
 11
32.65316809030425
 21
264.2445595264998
 31
0.0
  0
LINE
  5
88
330
1F
100
AcDbEntity
  8
VISIBLE
100
AcDbLine
 10
162.6531680903042
 20
264.2445595264998
 30
0.0
 11
162.6531680903043
 21
134.2445595264998
 31
0.0
  0
LINE
  5
89
330
1F
100
AcDbEntity
  8
VISIBLE
100
AcDbLine
 10
32.65316809030425
 20
264.2445595264998
 30
0.0
 11
32.65316809030428
 21
134.2445595264998
 31
0.0
  0
LINE
  5
8C
330
1F
100
AcDbEntity
  8
VISIBLE
100
AcDbLine
 10
227.6955036186901
 20
134.2445595264998
 30
0.0
 11
227.0288369520234
 21
134.2445595264998
 31
0.0
  0
LINE
  5
8D
330
1F
100
AcDbEntity
  8
VISIBLE
100
AcDbLine
 10
227.0288369520235
 20
264.2445595264998
 30
0.0
 11
227.0288369520234
 21
134.2445595264998
 31
0.0
  0
LINE
  5
8E
330
1F
100
AcDbEntity
  8
VISIBLE
100
AcDbLine
 10
227.6955036186901
 20
264.2445595264998
 30
0.0
 11
227.0288369520235
 21
264.2445595264998
 31
0.0
  0
LINE
  5
8F
330
1F
100
AcDbEntity
  8
VISIBLE
100
AcDbLine
 10
227.6955036186901
 20
264.2445595264998
 30
0.0
 11
227.6955036186901
 21
134.2445595264998
 31
0.0
  0
LINE
  5
90
330
1F
100
AcDbEntity
  8
BORDER_FRAME
100
AcDbLine
 10
10.5
 20
10.0
 30
0.0
 11
10.5
 21
287.0
 31
0.0
  0
LINE
  5
93
330
1F
100
AcDbEntity
  8
BORDER_FRAME
100
AcDbLine
 10
10.5
 20
287.0
 30
0.0
 11
410.5
 21
287.0
 31
0.0
  0
LINE
  5
94
330
1F
100
AcDbEntity
  8
BORDER_FRAME
100
AcDbLine
 10
410.5
 20
287.0
 30
0.0
 11
410.5
 21
10.0
 31
0.0
  0
LINE
  5
95
330
1F
100
AcDbEntity
  8
BORDER_FRAME
100
AcDbLine
 10
410.5
 20
10.0
 30
0.0
 11
10.5
 21
10.0
 31
0.0
  0
LINE
  5
96
330
1F
100
AcDbEntity
  8
BORDER_ZONES
100
AcDbLine
 10
70.5
 20
10.0
 30
0.0
 11
70.5
 21
0.5
 31
0.0
  0
LINE
  5
98
330
1F
100
AcDbEntity
  8
BORDER_ZONES
100
AcDbLine
 10
70.5
 20
287.0
 30
0.0
 11
70.5
 21
296.5
 31
0.0
  0
MTEXT
  5
99
330
1F
100
AcDbEntity
  8
BORDER_ZONES
100
AcDbMText
 10
35.5
 20
5.0
 30
0.0
 40
6.0
 41
0.0
 71
     5
 72
     1
  1
6
  7
ONSHAPE-STANDARD
  0
MTEXT
  5
9B
330
1F
100
AcDbEntity
  8
BORDER_ZONES
100
AcDbMText
 10
35.5
 20
292.0
 30
0.0
 40
6.0
 41
0.0
 71
     5
 72
     1
  1
6
  7
ONSHAPE-STANDARD
  0
MTEXT
  5
9C
330
1F
100
AcDbEntity
  8
BORDER_ZONES
100
AcDbMText
 10
105.5
 20
5.0
 30
0.0
 40
6.0
 41
0.0
 71
     5
 72
     1
  1
5
  7
ONSHAPE-STANDARD
  0
MTEXT
  5
9D
330
1F
100
AcDbEntity
  8
BORDER_ZONES
100
AcDbMText
 10
105.5
 20
292.0
 30
0.0
 40
6.0
 41
0.0
 71
     5
 72
     1
  1
5
  7
ONSHAPE-STANDARD
  0
LINE
  5
9E
330
1F
100
AcDbEntity
  8
BORDER_ZONES
100
AcDbLine
 10
140.5
 20
10.0
 30
0.0
 11
140.5
 21
0.5
 31
0.0
  0
LINE
  5
9F
330
1F
100
AcDbEntity
  8
BORDER_ZONES
100
AcDbLine
 10
140.5
 20
287.0
 30
0.0
 11
140.5
 21
296.5
 31
0.0
  0
MTEXT
  5
A0
330
1F
100
AcDbEntity
  8
BORDER_ZONES
100
AcDbMText
 10
175.5
 20
5.0
 30
0.0
 40
6.0
 41
0.0
 71
     5
 72
     1
  1
4
  7
ONSHAPE-STANDARD
  0
MTEXT
  5
A1
330
1F
100
AcDbEntity
  8
BORDER_ZONES
100
AcDbMText
 10
175.5
 20
292.0
 30
0.0
 40
6.0
 41
0.0
 71
     5
 72
     1
  1
4
  7
ONSHAPE-STANDARD
  0
LINE
  5
A2
330
1F
100
AcDbEntity
  8
BORDER_ZONES
100
AcDbLine
 10
210.5
 20
10.0
 30
0.0
 11
210.5
 21
0.5
 31
0.0
  0
LINE
  5
A3
330
1F
100
AcDbEntity
  8
BORDER_ZONES
100
AcDbLine
 10
210.5
 20
287.0
 30
0.0
 11
210.5
 21
296.5
 31
0.0
  0
MTEXT
  5
A4
330
1F
100
AcDbEntity
  8
BORDER_ZONES
100
AcDbMText
 10
245.5
 20
5.0
 30
0.0
 40
6.0
 41
0.0
 71
     5
 72
     1
  1
3
  7
ONSHAPE-STANDARD
  0
MTEXT
  5
A5
330
1F
100
AcDbEntity
  8
BORDER_ZONES
100
AcDbMText
 10
245.5
 20
292.0
 30
0.0
 40
6.0
 41
0.0
 71
     5
 72
     1
  1
3
  7
ONSHAPE-STANDARD
  0
LINE
  5
A6
330
1F
100
AcDbEntity
  8
BORDER_ZONES
100
AcDbLine
 10
280.5
 20
10.0
 30
0.0
 11
280.5
 21
0.5
 31
0.0
  0
LINE
  5
A7
330
1F
100
AcDbEntity
  8
BORDER_ZONES
100
AcDbLine
 10
280.5
 20
287.0
 30
0.0
 11
280.5
 21
296.5
 31
0.0
  0
MTEXT
  5
A8
330
1F
100
AcDbEntity
  8
BORDER_ZONES
100
AcDbMText
 10
315.5
 20
5.0
 30
0.0
 40
6.0
 41
0.0
 71
     5
 72
     1
  1
2
  7
ONSHAPE-STANDARD
  0
MTEXT
  5
A9
330
1F
100
AcDbEntity
  8
BORDER_ZONES
100
AcDbMText
 10
315.5
 20
292.0
 30
0.0
 40
6.0
 41
0.0
 71
     5
 72
     1
  1
2
  7
ONSHAPE-STANDARD
  0
LINE
  5
AA
330
1F
100
AcDbEntity
  8
BORDER_ZONES
100
AcDbLine
 10
350.5
 20
10.0
 30
0.0
 11
350.5
 21
0.5
 31
0.0
  0
LINE
  5
AB
330
1F
100
AcDbEntity
  8
BORDER_ZONES
100
AcDbLine
 10
350.5
 20
287.0
 30
0.0
 11
350.5
 21
296.5
 31
0.0
  0
MTEXT
  5
AC
330
1F
100
AcDbEntity
  8
BORDER_ZONES
100
AcDbMText
 10
385.5
 20
5.0
 30
0.0
 40
6.0
 41
0.0
 71
     5
 72
     1
  1
1
  7
ONSHAPE-STANDARD
  0
MTEXT
  5
AD
330
1F
100
AcDbEntity
  8
BORDER_ZONES
100
AcDbMText
 10
385.5
 20
292.0
 30
0.0
 40
6.0
 41
0.0
 71
     5
 72
     1
  1
1
  7
ONSHAPE-STANDARD
  0
LINE
  5
AE
330
1F
100
AcDbEntity
  8
BORDER_ZONES
100
AcDbLine
 10
10.5
 20
74.5
 30
0.0
 11
1.0
 21
74.5
 31
0.0
  0
LINE
  5
AF
330
1F
100
AcDbEntity
  8
BORDER_ZONES
100
AcDbLine
 10
410.5
 20
74.5
 30
0.0
 11
420.0
 21
74.5
 31
0.0
  0
MTEXT
  5
B0
330
1F
100
AcDbEntity
  8
BORDER_ZONES
100
AcDbMText
 10
5.5
 20
37.5
 30
0.0
 40
6.0
 41
0.0
 71
     5
 72
     1
  1
A
  7
ONSHAPE-STANDARD
  0
MTEXT
  5
B1
330
1F
100
AcDbEntity
  8
BORDER_ZONES
100
AcDbMText
 10
415.5
 20
37.5
 30
0.0
 40
6.0
 41
0.0
 71
     5
 72
     1
  1
A
  7
ONSHAPE-STANDARD
  0
MTEXT
  5
B2
330
1F
100
AcDbEntity
  8
BORDER_ZONES
100
AcDbMText
 10
5.5
 20
111.5
 30
0.0
 40
6.0
 41
0.0
 71
     5
 72
     1
  1
B
  7
ONSHAPE-STANDARD
  0
MTEXT
  5
B3
330
1F
100
AcDbEntity
  8
BORDER_ZONES
100
AcDbMText
 10
415.5
 20
111.5
 30
0.0
 40
6.0
 41
0.0
 71
     5
 72
     1
  1
B
  7
ONSHAPE-STANDARD
  0
LINE
  5
B4
330
1F
100
AcDbEntity
  8
BORDER_ZONES
100
AcDbLine
 10
10.5
 20
148.5
 30
0.0
 11
1.0
 21
148.5
 31
0.0
  0
LINE
  5
B5
330
1F
100
AcDbEntity
  8
BORDER_ZONES
100
AcDbLine
 10
410.5
 20
148.5
 30
0.0
 11
420.0
 21
148.5
 31
0.0
  0
MTEXT
  5
B6
330
1F
100
AcDbEntity
  8
BORDER_ZONES
100
AcDbMText
 10
5.5
 20
185.5
 30
0.0
 40
6.0
 41
0.0
 71
     5
 72
     1
  1
C
  7
ONSHAPE-STANDARD
  0
MTEXT
  5
B7
330
1F
100
AcDbEntity
  8
BORDER_ZONES
100
AcDbMText
 10
415.5
 20
185.5
 30
0.0
 40
6.0
 41
0.0
 71
     5
 72
     1
  1
C
  7
ONSHAPE-STANDARD
  0
LINE
  5
B8
330
1F
100
AcDbEntity
  8
BORDER_ZONES
100
AcDbLine
 10
10.5
 20
222.5
 30
0.0
 11
1.0
 21
222.5
 31
0.0
  0
LINE
  5
B9
330
1F
100
AcDbEntity
  8
BORDER_ZONES
100
AcDbLine
 10
410.5
 20
222.5
 30
0.0
 11
420.0
 21
222.5
 31
0.0
  0
MTEXT
  5
BA
330
1F
100
AcDbEntity
  8
BORDER_ZONES
100
AcDbMText
 10
5.5
 20
259.5
 30
0.0
 40
6.0
 41
0.0
 71
     5
 72
     1
  1
D
  7
ONSHAPE-STANDARD
  0
MTEXT
  5
BB
330
1F
100
AcDbEntity
  8
BORDER_ZONES
100
AcDbMText
 10
415.5
 20
259.5
 30
0.0
 40
6.0
 41
0.0
 71
     5
 72
     1
  1
D
  7
ONSHAPE-STANDARD
  0
LINE
  5
BC
330
1F
100
AcDbEntity
  8
TITLE_BLOCK
100
AcDbLine
 10
194.6
 20
10.0
 30
0.0
 11
194.6
 21
60.8
 31
0.0
  0
LINE
  5
BE
330
1F
100
AcDbEntity
  8
TITLE_BLOCK
100
AcDbLine
 10
194.6
 20
10.0
 30
0.0
 11
235.24
 21
10.0
 31
0.0
  0
LINE
  5
BF
330
1F
100
AcDbEntity
  8
TITLE_BLOCK
100
AcDbLine
 10
194.6
 20
20.16
 30
0.0
 11
235.24
 21
20.16
 31
0.0
  0
LINE
  5
C0
330
1F
100
AcDbEntity
  8
TITLE_BLOCK
100
AcDbLine
 10
194.6
 20
24.224
 30
0.0
 11
235.24
 21
24.224
 31
0.0
  0
LINE
  5
C1
330
1F
100
AcDbEntity
  8
TITLE_BLOCK
100
AcDbLine
 10
194.6
 20
31.1328
 30
0.0
 11
235.24
 21
31.1328
 31
0.0
  0
LINE
  5
C2
330
1F
100
AcDbEntity
  8
TITLE_BLOCK
100
AcDbLine
 10
194.6
 20
37.0256
 30
0.0
 11
235.24
 21
37.0256
 31
0.0
  0
LINE
  5
C3
330
1F
100
AcDbEntity
  8
TITLE_BLOCK
100
AcDbLine
 10
194.6
 20
60.8
 30
0.0
 11
235.24
 21
60.8
 31
0.0
  0
MTEXT
  5
C4
330
1F
100
AcDbEntity
  8
TITLE_BLOCK
100
AcDbMText
 10
195.49408
 20
59.33696
 30
0.0
 40
1.6256
 41
39.82720000000001
 71
     1
 72
     1
  1
UNLESS OTHERWISE SPECIFIED, DIMENSIONS ARE IN MILLIMETERS
  7
ONSHAPE-STANDARD
  0
MTEXT
  5
C5
330
1F
100
AcDbEntity
  8
TITLE_BLOCK
100
AcDbMText
 10
215.724672
 20
53.38726400000001
 30
0.0
 40
1.46304
 41
19.91360000000002
 71
     1
 72
     1
  1
^JANGULAR = ± °^J
  7
ONSHAPE-STANDARD
  0
MTEXT
  5
C6
330
1F
100
AcDbEntity
  8
TITLE_BLOCK
100
AcDbMText
 10
195.49408
 20
43.48736
 30
0.0
 40
1.6256
 41
19.91359999999999
 71
     1
 72
     1
  1
SURFACE FINISH
  7
ONSHAPE-STANDARD
  0
LINE
  5
C7
330
1F
100
AcDbEntity
  8
TITLE_BLOCK
100
AcDbLine
 10
212.888
 20
41.0896
 30
0.0
 11
213.904
 21
39.32983637951002
 31
0.0
  0
LINE
  5
C8
330
1F
100
AcDbEntity
  8
TITLE_BLOCK
100
AcDbLine
 10
213.904
 20
39.32983637951002
 30
0.0
 11
216.0376
 21
43.02533998253897
 31
0.0
  0
LINE
  5
C9
330
1F
100
AcDbEntity
  8
TITLE_BLOCK
100
AcDbLine
 10
216.0376
 20
43.02533998253897
 30
0.0
 11
218.2728
 21
43.02533998253897
 31
0.0
  0
MTEXT
  5
CA
330
1F
100
AcDbEntity
  8
TITLE_BLOCK
100
AcDbMText
 10
214.92
 20
35.123648
 30
0.0
 40
2.11328
 41
39.82720000000001
 71
     2
 72
     1
  1
DO NOT SCALE DRAWING
  7
ONSHAPE-STANDARD
  0
MTEXT
  5
CB
330
1F
100
AcDbEntity
  8
TITLE_BLOCK
100
AcDbMText
 10
214.92
 20
29.66976
 30
0.0
 40
1.6256
 41
39.82720000000001
 71
     2
 72
     1
  1
BREAK ALL SHARP EDGES AND REMOVE BURRS
  7
ONSHAPE-STANDARD
  0
CIRCLE
  5
CC
330
1F
100
AcDbEntity
  8
TITLE_BLOCK
100
AcDbCircle
 10
219.492
 20
15.03936
 30
0.0
 40
1.8288
  0
CIRCLE
  5
CD
330
1F
100
AcDbEntity
  8
TITLE_BLOCK
100
AcDbCircle
 10
219.492
 20
15.03936
 30
0.0
 40
3.6576
  0
LINE
  5
CE
330
1F
100
AcDbEntity
  8
TITLE_BLOCK
100
AcDbLine
 10
220.4064
 20
15.03936
 30
0.0
 11
218.5776
 21
15.03936
 31
0.0
  0
LINE
  5
CF
330
1F
100
AcDbEntity
  8
TITLE_BLOCK
100
AcDbLine
 10
219.492
 20
15.95376
 30
0.0
 11
219.492
 21
14.12496
 31
0.0
  0
LINE
  5
D0
330
1F
100
AcDbEntity
  8
TITLE_BLOCK
100
AcDbLine
 10
221.3208
 20
15.03936
 30
0.0
 11
224.064
 21
15.03936
 31
0.0
  0
LINE
  5
D1
330
1F
100
AcDbEntity
  8
TITLE_BLOCK
100
AcDbLine
 10
219.492
 20
16.86816
 30
0.0
 11
219.492
 21
19.61136
 31
0.0
  0
LINE
  5
D2
330
1F
100
AcDbEntity
  8
TITLE_BLOCK
100
AcDbLine
 10
217.6632
 20
15.03936
 30
0.0
 11
214.92
 21
15.03936
 31
0.0
  0
LINE
  5
D3
330
1F
100
AcDbEntity
  8
TITLE_BLOCK
100
AcDbLine
 10
219.492
 20
13.21056
 30
0.0
 11
219.492
 21
10.46736
 31
0.0
  0
LINE
  5
D4
330
1F
100
AcDbEntity
  8
TITLE_BLOCK
100
AcDbLine
 10
214.0056
 20
11.38176
 30
0.0
 11
214.0056
 21
18.69696
 31
0.0
  0
LINE
  5
D5
330
1F
100
AcDbEntity
  8
TITLE_BLOCK
100
AcDbLine
 10
214.0056
 20
18.69696
 30
0.0
 11
206.6904
 21
16.86816
 31
0.0
  0
LINE
  5
D6
330
1F
100
AcDbEntity
  8
TITLE_BLOCK
100
AcDbLine
 10
206.6904
 20
16.86816
 30
0.0
 11
206.6904
 21
13.21056
 31
0.0
  0
LINE
  5
D7
330
1F
100
AcDbEntity
  8
TITLE_BLOCK
100
AcDbLine
 10
206.6904
 20
13.21056
 30
0.0
 11
214.0056
 21
11.38176
 31
0.0
  0
LINE
  5
D8
330
1F
100
AcDbEntity
  8
TITLE_BLOCK
100
AcDbLine
 10
211.2624
 20
15.03936
 30
0.0
 11
214.4628
 21
15.03936
 31
0.0
  0
LINE
  5
D9
330
1F
100
AcDbEntity
  8
TITLE_BLOCK
100
AcDbLine
 10
210.71376
 20
15.03936
 30
0.0
 11
209.98224
 21
15.03936
 31
0.0
  0
LINE
  5
DA
330
1F
100
AcDbEntity
  8
TITLE_BLOCK
100
AcDbLine
 10
209.4336
 20
15.03936
 30
0.0
 11
206.2332
 21
15.03936
 31
0.0
  0
MTEXT
  5
DB
330
1F
100
AcDbEntity
  8
TITLE_BLOCK
100
AcDbMText
 10
214.92
 20
22.76096
 30
0.0
 40
1.6256
 41
39.82720000000001
 71
     2
 72
     1
  1
FIRST ANGLE PROJECTION
  7
ONSHAPE-STANDARD
  0
LINE
  5
DC
330
1F
100
AcDbEntity
  8
TITLE_BLOCK
100
AcDbLine
 10
235.24
 20
10.0
 30
0.0
 11
235.24
 21
60.8
 31
0.0
  0
LINE
  5
DD
330
1F
100
AcDbEntity
  8
TITLE_BLOCK
100
AcDbLine
 10
253.02
 20
24.224
 30
0.0
 11
253.02
 21
60.8
 31
0.0
  0
LINE
  5
DE
330
1F
100
AcDbEntity
  8
TITLE_BLOCK
100
AcDbLine
 10
273.34
 20
24.224
 30
0.0
 11
273.34
 21
60.8
 31
0.0
  0
LINE
  5
DF
330
1F
100
AcDbEntity
  8
TITLE_BLOCK
100
AcDbLine
 10
270.8
 20
10.0
 30
0.0
 11
270.8
 21
24.224
 31
0.0
  0
MTEXT
  5
E0
330
1F
100
AcDbEntity
  8
TITLE_BLOCK
100
AcDbMText
 10
283.5
 20
59.33696
 30
0.0
 40
1.6256
 41
19.91359999999994
 71
     2
 72
     1
  1
SIGNATURE
  7
ONSHAPE-STANDARD
  0
LINE
  5
E1
330
1F
100
AcDbEntity
  8
TITLE_BLOCK
100
AcDbLine
 10
293.66
 20
24.224
 30
0.0
 11
293.66
 21
60.8
 31
0.0
  0
LINE
  5
E2
330
1F
100
AcDbEntity
  8
TITLE_BLOCK
100
AcDbLine
 10
235.24
 20
60.8
 30
0.0
 11
306.36
 21
60.8
 31
0.0
  0
LINE
  5
E3
330
1F
100
AcDbEntity
  8
TITLE_BLOCK
100
AcDbLine
 10
235.24
 20
54.70400000000001
 30
0.0
 11
306.36
 21
54.70400000000001
 31
0.0
  0
LINE
  5
E4
330
1F
100
AcDbEntity
  8
TITLE_BLOCK
100
AcDbLine
 10
235.24
 20
48.608
 30
0.0
 11
306.36
 21
48.608
 31
0.0
  0
LINE
  5
E5
330
1F
100
AcDbEntity
  8
TITLE_BLOCK
100
AcDbLine
 10
235.24
 20
42.512
 30
0.0
 11
306.36
 21
42.512
 31
0.0
  0
LINE
  5
E6
330
1F
100
AcDbEntity
  8
TITLE_BLOCK
100
AcDbLine
 10
235.24
 20
36.416
 30
0.0
 11
306.36
 21
36.416
 31
0.0
  0
LINE
  5
E7
330
1F
100
AcDbEntity
  8
TITLE_BLOCK
100
AcDbLine
 10
235.24
 20
30.32
 30
0.0
 11
306.36
 21
30.32
 31
0.0
  0
LINE
  5
E8
330
1F
100
AcDbEntity
  8
TITLE_BLOCK
100
AcDbLine
 10
235.24
 20
24.224
 30
0.0
 11
306.36
 21
24.224
 31
0.0
  0
MTEXT
  5
E9
330
1F
100
AcDbEntity
  8
TITLE_BLOCK
100
AcDbMText
 10
253.91408
 20
59.33696
 30
0.0
 40
1.6256
 41
19.91360000000002
 71
     1
 72
     1
  1
NAME
  7
ONSHAPE-STANDARD
  0
MTEXT
  5
EA
330
1F
100
AcDbEntity
  8
TITLE_BLOCK
100
AcDbMText
 10
300.01
 20
59.33696
 30
0.0
 40
1.6256
 41
12.44600000000004
 71
     2
 72
     1
  1
DATE
  7
ONSHAPE-STANDARD
  0
MTEXT
  5
EB
330
1F
100
AcDbEntity
  8
TITLE_BLOCK
100
AcDbMText
 10
236.13408
 20
53.24096000000001
 30
0.0
 40
1.6256
 41
17.4244
 71
     1
 72
     1
  1
DRAWN
  7
ONSHAPE-STANDARD
  0
MTEXT
  5
EC
102
{ACAD_XDICTIONARY
360
ED
102
}
330
1F
100
AcDbEntity
  8
TITLE_BLOCK
100
AcDbMText
 10
263.18
 20
51.65600000000001
 30
0.0
 40
1.365504
 41
20.32000000000002
 71
     5
 72
     1
  1
ALEX ZAVARSKY
  7
ONSHAPE-STANDARD-FIELDS
1001
ACAD
1000
ACAD_MTEXT_DEFINED_HEIGHT_BEGIN
1070
    46
1040
6.096000000000011
1000
ACAD_MTEXT_DEFINED_HEIGHT_END
  0
MTEXT
  5
F3
102
{ACAD_XDICTIONARY
360
F4
102
}
330
1F
100
AcDbEntity
  8
TITLE_BLOCK
100
AcDbMText
 10
300.01
 20
51.65600000000001
 30
0.0
 40
1.365504
 41
12.70000000000005
 71
     5
 72
     1
  1
2026-03-08
  7
ONSHAPE-STANDARD-FIELDS
1001
ACAD
1000
ACAD_MTEXT_DEFINED_HEIGHT_BEGIN
1070
    46
1040
6.096000000000011
1000
ACAD_MTEXT_DEFINED_HEIGHT_END
  0
MTEXT
  5
F9
330
1F
100
AcDbEntity
  8
TITLE_BLOCK
100
AcDbMText
 10
236.13408
 20
47.14496
 30
0.0
 40
1.6256
 41
17.4244
 71
     1
 72
     1
  1
CHECKED
  7
ONSHAPE-STANDARD
  0
MTEXT
  5
FA
330
1F
100
AcDbEntity
  8
TITLE_BLOCK
100
AcDbMText
 10
263.18
 20
45.56
 30
0.0
 40
1.365504
 41
20.32000000000002
 71
     5
 72
     1
  1
 
  7
ONSHAPE-STANDARD-FIELDS
1001
ACAD
1000
ACAD_MTEXT_DEFINED_HEIGHT_BEGIN
1070
    46
1040
6.095999999999997
1000
ACAD_MTEXT_DEFINED_HEIGHT_END
  0
MTEXT
  5
FB
330
1F
100
AcDbEntity
  8
TITLE_BLOCK
100
AcDbMText
 10
300.01
 20
45.56
 30
0.0
 40
1.365504
 41
12.70000000000005
 71
     5
 72
     1
  1
 
  7
ONSHAPE-STANDARD-FIELDS
1001
ACAD
1000
ACAD_MTEXT_DEFINED_HEIGHT_BEGIN
1070
    46
1040
6.095999999999997
1000
ACAD_MTEXT_DEFINED_HEIGHT_END
  0
MTEXT
  5
FC
330
1F
100
AcDbEntity
  8
TITLE_BLOCK
100
AcDbMText
 10
236.13408
 20
41.04896
 30
0.0
 40
1.6256
 41
17.4244
 71
     1
 72
     1
  1
APPROVED
  7
ONSHAPE-STANDARD
  0
MTEXT
  5
FD
102
{ACAD_XDICTIONARY
360
FE
102
}
330
1F
100
AcDbEntity
  8
TITLE_BLOCK
100
AcDbMText
 10
263.18
 20
39.464
 30
0.0
 40
1.365504
 41
20.32000000000002
 71
     5
 72
     1
  1
----
  7
ONSHAPE-STANDARD-FIELDS
1001
ACAD
1000
ACAD_MTEXT_DEFINED_HEIGHT_BEGIN
1070
    46
1040
6.096000000000004
1000
ACAD_MTEXT_DEFINED_HEIGHT_END
  0
MTEXT
  5
103
102
{ACAD_XDICTIONARY
360
104
102
}
330
1F
100
AcDbEntity
  8
TITLE_BLOCK
100
AcDbMText
 10
300.01
 20
39.464
 30
0.0
 40
1.365504
 41
12.70000000000005
 71
     5
 72
     1
  1
----
  7
ONSHAPE-STANDARD-FIELDS
1001
ACAD
1000
ACAD_MTEXT_DEFINED_HEIGHT_BEGIN
1070
    46
1040
6.096000000000004
1000
ACAD_MTEXT_DEFINED_HEIGHT_END
  0
MTEXT
  5
109
330
1F
100
AcDbEntity
  8
TITLE_BLOCK
100
AcDbMText
 10
244.13
 20
33.36799999999999
 30
0.0
 40
2.4384
 41
17.78
 71
     5
 72
     1
  1
 
  7
ONSHAPE-STANDARD-FIELDS
1001
ACAD
1000
ACAD_MTEXT_DEFINED_HEIGHT_BEGIN
1070
    46
1040
6.095999999999997
1000
ACAD_MTEXT_DEFINED_HEIGHT_END
  0
MTEXT
  5
10A
330
1F
100
AcDbEntity
  8
TITLE_BLOCK
100
AcDbMText
 10
263.18
 20
33.36799999999999
 30
0.0
 40
1.365504
 41
20.32000000000002
 71
     5
 72
     1
  1
 
  7
ONSHAPE-STANDARD-FIELDS
1001
ACAD
1000
ACAD_MTEXT_DEFINED_HEIGHT_BEGIN
1070
    46
1040
6.095999999999997
1000
ACAD_MTEXT_DEFINED_HEIGHT_END
  0
MTEXT
  5
10B
330
1F
100
AcDbEntity
  8
TITLE_BLOCK
100
AcDbMText
 10
300.01
 20
33.36799999999999
 30
0.0
 40
1.365504
 41
12.70000000000005
 71
     5
 72
     1
  1
 
  7
ONSHAPE-STANDARD-FIELDS
1001
ACAD
1000
ACAD_MTEXT_DEFINED_HEIGHT_BEGIN
1070
    46
1040
6.095999999999997
1000
ACAD_MTEXT_DEFINED_HEIGHT_END
  0
MTEXT
  5
10C
330
1F
100
AcDbEntity
  8
TITLE_BLOCK
100
AcDbMText
 10
244.13
 20
27.272
 30
0.0
 40
2.4384
 41
17.78
 71
     5
 72
     1
  1
 
  7
ONSHAPE-STANDARD-FIELDS
1001
ACAD
1000
ACAD_MTEXT_DEFINED_HEIGHT_BEGIN
1070
    46
1040
6.096000000000004
1000
ACAD_MTEXT_DEFINED_HEIGHT_END
  0
MTEXT
  5
10D
330
1F
100
AcDbEntity
  8
TITLE_BLOCK
100
AcDbMText
 10
263.18
 20
27.272
 30
0.0
 40
1.365504
 41
20.32000000000002
 71
     5
 72
     1
  1
 
  7
ONSHAPE-STANDARD-FIELDS
1001
ACAD
1000
ACAD_MTEXT_DEFINED_HEIGHT_BEGIN
1070
    46
1040
6.096000000000004
1000
ACAD_MTEXT_DEFINED_HEIGHT_END
  0
MTEXT
  5
10E
330
1F
100
AcDbEntity
  8
TITLE_BLOCK
100
AcDbMText
 10
300.01
 20
27.272
 30
0.0
 40
1.365504
 41
12.70000000000005
 71
     5
 72
     1
  1
 
  7
ONSHAPE-STANDARD-FIELDS
1001
ACAD
1000
ACAD_MTEXT_DEFINED_HEIGHT_BEGIN
1070
    46
1040
6.096000000000004
1000
ACAD_MTEXT_DEFINED_HEIGHT_END
  0
MTEXT
  5
10F
330
1F
100
AcDbEntity
  8
TITLE_BLOCK
100
AcDbMText
 10
236.13408
 20
22.76096
 30
0.0
 40
1.6256
 41
34.8488
 71
     1
 72
     1
  1
MATERIAL
  7
ONSHAPE-STANDARD
  0
MTEXT
  5
110
330
1F
100
AcDbEntity
  8
TITLE_BLOCK
100
AcDbMText
 10
253.02
 20
17.112
 30
0.0
 40
2.4384
 41
35.56
 71
     5
 72
     1
  1
 
  7
ONSHAPE-STANDARD-FIELDS
1001
ACAD
1000
ACAD_MTEXT_DEFINED_HEIGHT_BEGIN
1070
    46
1040
14.224
1000
ACAD_MTEXT_DEFINED_HEIGHT_END
  0
MTEXT
  5
111
330
1F
100
AcDbEntity
  8
TITLE_BLOCK
100
AcDbMText
 10
271.69408
 20
22.76096
 30
0.0
 40
1.6256
 41
34.8488
 71
     1
 72
     1
  1
FINISH
  7
ONSHAPE-STANDARD
  0
MTEXT
  5
112
330
1F
100
AcDbEntity
  8
TITLE_BLOCK
100
AcDbMText
 10
288.58
 20
17.112
 30
0.0
 40
2.4384
 41
35.56
 71
     5
 72
     1
  1
 
  7
ONSHAPE-STANDARD-FIELDS
1001
ACAD
1000
ACAD_MTEXT_DEFINED_HEIGHT_BEGIN
1070
    46
1040
14.224
1000
ACAD_MTEXT_DEFINED_HEIGHT_END
  0
LINE
  5
113
330
1F
100
AcDbEntity
  8
TITLE_BLOCK
100
AcDbLine
 10
306.36
 20
10.0
 30
0.0
 11
306.36
 21
60.8
 31
0.0
  0
LINE
  5
114
330
1F
100
AcDbEntity
  8
TITLE_BLOCK
100
AcDbLine
 10
319.06
 20
16.604
 30
0.0
 11
319.06
 21
26.764
 31
0.0
  0
LINE
  5
115
330
1F
100
AcDbEntity
  8
TITLE_BLOCK
100
AcDbLine
 10
328.712
 20
10.0
 30
0.0
 11
328.712
 21
16.604
 31
0.0
  0
LINE
  5
116
330
1F
100
AcDbEntity
  8
TITLE_BLOCK
100
AcDbLine
 10
374.94
 20
10.0
 30
0.0
 11
374.94
 21
16.604
 31
0.0
  0
LINE
  5
117
330
1F
100
AcDbEntity
  8
TITLE_BLOCK
100
AcDbLine
 10
400.34
 20
16.604
 30
0.0
 11
400.34
 21
26.764
 31
0.0
  0
LINE
  5
118
330
1F
100
AcDbEntity
  8
TITLE_BLOCK
100
AcDbLine
 10
306.36
 20
16.604
 30
0.0
 11
410.5
 21
16.604
 31
0.0
  0
LINE
  5
119
330
1F
100
AcDbEntity
  8
TITLE_BLOCK
100
AcDbLine
 10
306.36
 20
26.764
 30
0.0
 11
410.5
 21
26.764
 31
0.0
  0
LINE
  5
11A
330
1F
100
AcDbEntity
  8
TITLE_BLOCK
100
AcDbLine
 10
306.36
 20
48.1
 30
0.0
 11
410.5
 21
48.1
 31
0.0
  0
LINE
  5
11B
330
1F
100
AcDbEntity
  8
TITLE_BLOCK
100
AcDbLine
 10
306.36
 20
60.8
 30
0.0
 11
410.5
 21
60.8
 31
0.0
  0
MTEXT
  5
11C
330
1F
100
AcDbEntity
  8
TITLE_BLOCK
100
AcDbMText
 10
307.25408
 20
46.63696
 30
0.0
 40
1.6256
 41
12.44599999999999
 71
     1
 72
     1
  1
TITLE
  7
ONSHAPE-STANDARD
  0
MTEXT
  5
11D
102
{ACAD_XDICTIONARY
360
11E
102
}
330
1F
100
AcDbEntity
  8
TITLE_BLOCK
100
AcDbMText
 10
358.43
 20
44.036
 30
0.0
 40
3.90144
 41
93.97999999999999
 71
     5
 72
     1
  1
----
  7
ONSHAPE-STANDARD-FIELDS
1001
ACAD
1000
ACAD_MTEXT_DEFINED_HEIGHT_BEGIN
1070
    46
1040
6.4008
1000
ACAD_MTEXT_DEFINED_HEIGHT_END
  0
MTEXT
  5
123
102
{ACAD_XDICTIONARY
360
124
102
}
330
1F
100
AcDbEntity
  8
TITLE_BLOCK
100
AcDbMText
 10
358.43
 20
37.6352
 30
0.0
 40
3.90144
 41
93.98000000000002
 71
     5
 72
     1
  1
EPDM Seal
  7
ONSHAPE-STANDARD-FIELDS
1001
ONSHAPE_NOTES_REORDERING_D
1071
        0
1070
     0
1001
ACAD
1000
ACAD_MTEXT_DEFINED_HEIGHT_BEGIN
1070
    46
1040
3.954593133514987
1000
ACAD_MTEXT_DEFINED_HEIGHT_END
  0
MTEXT
  5
127
102
{ACAD_XDICTIONARY
360
128
102
}
330
1F
100
AcDbEntity
  8
TITLE_BLOCK
100
AcDbMText
 10
358.43
 20
31.2344
 30
0.0
 40
3.90144
 41
93.98000000000002
 71
     5
 72
     1
  1
BfG
  7
ONSHAPE-STANDARD-FIELDS
1001
ONSHAPE_NOTES_REORDERING_D
1071
        0
1070
     0
1001
ACAD
1000
ACAD_MTEXT_DEFINED_HEIGHT_BEGIN
1070
    46
1040
3.954593133514987
1000
ACAD_MTEXT_DEFINED_HEIGHT_END
  0
MTEXT
  5
129
330
1F
100
AcDbEntity
  8
TITLE_BLOCK
100
AcDbMText
 10
307.075264
 20
25.593568
 30
0.0
 40
1.30048
 41
12.44599999999999
 71
     1
 72
     1
  1
SIZE
  7
ONSHAPE-STANDARD
  0
MTEXT
  5
12A
102
{ACAD_XDICTIONARY
360
12B
102
}
330
1F
100
AcDbEntity
  8
TITLE_BLOCK
100
AcDbMText
 10
312.71
 20
21.684
 30
0.0
 40
4.8768
 41
12.69999999999999
 71
     5
 72
     1
  1
A3
  7
ONSHAPE-STANDARD-FIELDS
1001
ACAD
1000
ACAD_MTEXT_DEFINED_HEIGHT_BEGIN
1070
    46
1040
10.16
1000
ACAD_MTEXT_DEFINED_HEIGHT_END
  0
MTEXT
  5
130
330
1F
100
AcDbEntity
  8
TITLE_BLOCK
100
AcDbMText
 10
319.775264
 20
25.593568
 30
0.0
 40
1.30048
 41
79.65439999999997
 71
     1
 72
     1
  1
DWG NO.
  7
ONSHAPE-STANDARD
  0
MTEXT
  5
131
102
{ACAD_XDICTIONARY
360
132
102
}
330
1F
100
AcDbEntity
  8
TITLE_BLOCK
100
AcDbMText
 10
359.7
 20
21.684
 30
0.0
 40
4.8768
 41
81.27999999999997
 71
     5
 72
     1
  1
----
  7
ONSHAPE-STANDARD-FIELDS
1001
ACAD
1000
ACAD_MTEXT_DEFINED_HEIGHT_BEGIN
1070
    46
1040
10.16
1000
ACAD_MTEXT_DEFINED_HEIGHT_END
  0
MTEXT
  5
137
330
1F
100
AcDbEntity
  8
TITLE_BLOCK
100
AcDbMText
 10
401.055264
 20
25.593568
 30
0.0
 40
1.30048
 41
9.956800000000024
 71
     1
 72
     1
  1
REV.
  7
ONSHAPE-STANDARD
  0
MTEXT
  5
138
102
{ACAD_XDICTIONARY
360
139
102
}
330
1F
100
AcDbEntity
  8
TITLE_BLOCK
100
AcDbMText
 10
405.928
 20
21.684
 30
0.0
 40
4.8768
 41
9.144000000000005
 71
     5
 72
     1
  1
-
  7
ONSHAPE-STANDARD-FIELDS
1001
ACAD
1000
ACAD_MTEXT_DEFINED_HEIGHT_BEGIN
1070
    46
1040
10.16
1000
ACAD_MTEXT_DEFINED_HEIGHT_END
  0
MTEXT
  5
13E
330
1F
100
AcDbEntity
  8
TITLE_BLOCK
100
AcDbMText
 10
307.075264
 20
15.433568
 30
0.0
 40
1.30048
 41
21.90495999999997
 71
     1
 72
     1
  1
SCALE
  7
ONSHAPE-STANDARD
  0
MTEXT
  5
13F
102
{ACAD_XDICTIONARY
360
140
102
}
330
1F
100
AcDbEntity
  8
TITLE_BLOCK
100
AcDbMText
 10
318.552
 20
13.302
 30
0.0
 40
2.92608
 41
20.31999999999999
 71
     5
 72
     1
  1
1:3
  7
ONSHAPE-STANDARD-FIELDS
1001
ACAD
1000
ACAD_MTEXT_DEFINED_HEIGHT_BEGIN
1070
    46
1040
6.603999999999999
1000
ACAD_MTEXT_DEFINED_HEIGHT_END
  0
MTEXT
  5
145
330
1F
100
AcDbEntity
  8
TITLE_BLOCK
100
AcDbMText
 10
329.427264
 20
15.433568
 30
0.0
 40
1.30048
 41
45.30344000000001
 71
     1
 72
     1
  1
WEIGHT
  7
ONSHAPE-STANDARD
  0
MTEXT
  5
146
330
1F
100
AcDbEntity
  8
TITLE_BLOCK
100
AcDbMText
 10
351.826
 20
13.302
 30
0.0
 40
2.92608
 41
46.22800000000001
 71
     5
 72
     1
  1
 
  7
ONSHAPE-STANDARD-FIELDS
1001
ACAD
1000
ACAD_MTEXT_DEFINED_HEIGHT_BEGIN
1070
    46
1040
6.603999999999999
1000
ACAD_MTEXT_DEFINED_HEIGHT_END
  0
MTEXT
  5
147
330
1F
100
AcDbEntity
  8
TITLE_BLOCK
100
AcDbMText
 10
375.655264
 20
15.433568
 30
0.0
 40
1.30048
 41
34.8488
 71
     1
 72
     1
  1
SHEET
  7
ONSHAPE-STANDARD
  0
MTEXT
  5
148
102
{ACAD_XDICTIONARY
360
149
102
}
330
1F
100
AcDbEntity
  8
TITLE_BLOCK
100
AcDbMText
 10
393.736
 20
13.302
 30
0.0
 40
2.92608
 41
33.52800000000002
 71
     5
 72
     1
  1
1 of 1
  7
ONSHAPE-STANDARD-FIELDS
1001
ACAD
1000
ACAD_MTEXT_DEFINED_HEIGHT_BEGIN
1070
    46
1040
6.603999999999999
1000
ACAD_MTEXT_DEFINED_HEIGHT_END
  0
LINE
  5
153
330
1F
100
AcDbEntity
  8
CENTERMARKS
  6
CONTINUOUS
100
AcDbLine
 10
154.934834756971
 20
256.9112261931665
 30
0.0
 11
155.7048347569709
 21
256.9112261931665
 31
0.0
  0
LINE
  5
154
330
1F
100
AcDbEntity
  8
CENTERMARKS
  6
CONTINUOUS
100
AcDbLine
 10
155.3198347569709
 20
256.5262261931665
 30
0.0
 11
155.3198347569709
 21
257.2962261931665
 31
0.0
  0
LINE
  5
155
330
1F
100
AcDbEntity
  8
CENTERMARKS
  6
CENTER
100
AcDbLine
 10
154.549834756971
 20
256.9112261931665
 30
0.0
 11
153.449834756971
 21
256.9112261931665
 31
0.0
  0
LINE
  5
156
330
1F
100
AcDbEntity
  8
CENTERMARKS
  6
CENTER
100
AcDbLine
 10
156.0898347569709
 20
256.9112261931665
 30
0.0
 11
157.1898347569709
 21
256.9112261931665
 31
0.0
  0
LINE
  5
157
330
1F
100
AcDbEntity
  8
CENTERMARKS
  6
CENTER
100
AcDbLine
 10
155.3198347569709
 20
257.6812261931665
 30
0.0
 11
155.3198347569709
 21
258.7812261931665
 31
0.0
  0
LINE
  5
158
330
1F
100
AcDbEntity
  8
CENTERMARKS
  6
CENTER
100
AcDbLine
 10
155.3198347569709
 20
256.1412261931665
 30
0.0
 11
155.319834756971
 21
255.0412261931665
 31
0.0
  0
LINE
  5
15D
330
1F
100
AcDbEntity
  8
CENTERMARKS
  6
CONTINUOUS
100
AcDbLine
 10
39.60150142363762
 20
141.5778928598332
 30
0.0
 11
40.37150142363762
 21
141.5778928598332
 31
0.0
  0
LINE
  5
15E
330
1F
100
AcDbEntity
  8
CENTERMARKS
  6
CONTINUOUS
100
AcDbLine
 10
39.98650142363763
 20
141.1928928598332
 30
0.0
 11
39.98650142363761
 21
141.9628928598332
 31
0.0
  0
LINE
  5
15F
330
1F
100
AcDbEntity
  8
CENTERMARKS
  6
CENTER
100
AcDbLine
 10
39.21650142363762
 20
141.5778928598332
 30
0.0
 11
38.11650142363762
 21
141.5778928598332
 31
0.0
  0
LINE
  5
160
330
1F
100
AcDbEntity
  8
CENTERMARKS
  6
CENTER
100
AcDbLine
 10
40.75650142363762
 20
141.5778928598332
 30
0.0
 11
41.85650142363762
 21
141.5778928598332
 31
0.0
  0
LINE
  5
161
330
1F
100
AcDbEntity
  8
CENTERMARKS
  6
CENTER
100
AcDbLine
 10
39.98650142363761
 20
142.3478928598332
 30
0.0
 11
39.98650142363758
 21
143.4478928598332
 31
0.0
  0
LINE
  5
162
330
1F
100
AcDbEntity
  8
CENTERMARKS
  6
CENTER
100
AcDbLine
 10
39.98650142363763
 20
140.8078928598332
 30
0.0
 11
39.98650142363766
 21
139.7078928598332
 31
0.0
  0
LINE
  5
167
330
1F
100
AcDbEntity
  8
CENTERMARKS
  6
CONTINUOUS
100
AcDbLine
 10
39.60150142363762
 20
218.5778928598332
 30
0.0
 11
40.37150142363762
 21
218.5778928598332
 31
0.0
  0
LINE
  5
168
330
1F
100
AcDbEntity
  8
CENTERMARKS
  6
CONTINUOUS
100
AcDbLine
 10
39.98650142363763
 20
218.1928928598332
 30
0.0
 11
39.98650142363761
 21
218.9628928598332
 31
0.0
  0
LINE
  5
169
330
1F
100
AcDbEntity
  8
CENTERMARKS
  6
CENTER
100
AcDbLine
 10
39.21650142363762
 20
218.5778928598332
 30
0.0
 11
38.11650142363762
 21
218.5778928598332
 31
0.0
  0
LINE
  5
16A
330
1F
100
AcDbEntity
  8
CENTERMARKS
  6
CENTER
100
AcDbLine
 10
40.75650142363762
 20
218.5778928598332
 30
0.0
 11
41.85650142363762
 21
218.5778928598332
 31
0.0
  0
LINE
  5
16B
330
1F
100
AcDbEntity
  8
CENTERMARKS
  6
CENTER
100
AcDbLine
 10
39.98650142363761
 20
219.3478928598332
 30
0.0
 11
39.98650142363758
 21
220.4478928598332
 31
0.0
  0
LINE
  5
16C
330
1F
100
AcDbEntity
  8
CENTERMARKS
  6
CENTER
100
AcDbLine
 10
39.98650142363763
 20
217.8078928598332
 30
0.0
 11
39.98650142363766
 21
216.7078928598332
 31
0.0
  0
LINE
  5
171
330
1F
100
AcDbEntity
  8
CENTERMARKS
  6
CONTINUOUS
100
AcDbLine
 10
39.60150142363762
 20
179.9112261931665
 30
0.0
 11
40.37150142363762
 21
179.9112261931665
 31
0.0
  0
LINE
  5
172
330
1F
100
AcDbEntity
  8
CENTERMARKS
  6
CONTINUOUS
100
AcDbLine
 10
39.98650142363763
 20
179.5262261931665
 30
0.0
 11
39.98650142363761
 21
180.2962261931665
 31
0.0
  0
LINE
  5
173
330
1F
100
AcDbEntity
  8
CENTERMARKS
  6
CENTER
100
AcDbLine
 10
39.21650142363762
 20
179.9112261931665
 30
0.0
 11
38.11650142363762
 21
179.9112261931666
 31
0.0
  0
LINE
  5
174
330
1F
100
AcDbEntity
  8
CENTERMARKS
  6
CENTER
100
AcDbLine
 10
40.75650142363762
 20
179.9112261931665
 30
0.0
 11
41.85650142363762
 21
179.9112261931665
 31
0.0
  0
LINE
  5
175
330
1F
100
AcDbEntity
  8
CENTERMARKS
  6
CENTER
100
AcDbLine
 10
39.98650142363761
 20
180.6812261931665
 30
0.0
 11
39.98650142363758
 21
181.7812261931665
 31
0.0
  0
LINE
  5
176
330
1F
100
AcDbEntity
  8
CENTERMARKS
  6
CENTER
100
AcDbLine
 10
39.98650142363763
 20
179.1412261931665
 30
0.0
 11
39.98650142363766
 21
178.0412261931666
 31
0.0
  0
LINE
  5
17B
330
1F
100
AcDbEntity
  8
CENTERMARKS
  6
CONTINUOUS
100
AcDbLine
 10
77.93483475697094
 20
141.5778928598332
 30
0.0
 11
78.70483475697095
 21
141.5778928598332
 31
0.0
  0
LINE
  5
17C
330
1F
100
AcDbEntity
  8
CENTERMARKS
  6
CONTINUOUS
100
AcDbLine
 10
78.31983475697096
 20
141.1928928598332
 30
0.0
 11
78.31983475697093
 21
141.9628928598332
 31
0.0
  0
LINE
  5
17D
330
1F
100
AcDbEntity
  8
CENTERMARKS
  6
CENTER
100
AcDbLine
 10
77.54983475697094
 20
141.5778928598332
 30
0.0
 11
76.44983475697094
 21
141.5778928598332
 31
0.0
  0
LINE
  5
17E
330
1F
100
AcDbEntity
  8
CENTERMARKS
  6
CENTER
100
AcDbLine
 10
79.08983475697096
 20
141.5778928598332
 30
0.0
 11
80.18983475697095
 21
141.5778928598332
 31
0.0
  0
LINE
  5
17F
330
1F
100
AcDbEntity
  8
CENTERMARKS
  6
CENTER
100
AcDbLine
 10
78.31983475697092
 20
142.3478928598332
 30
0.0
 11
78.31983475697089
 21
143.4478928598332
 31
0.0
  0
LINE
  5
180
330
1F
100
AcDbEntity
  8
CENTERMARKS
  6
CENTER
100
AcDbLine
 10
78.31983475697098
 20
140.8078928598332
 30
0.0
 11
78.319834756971
 21
139.7078928598332
 31
0.0
  0
LINE
  5
185
330
1F
100
AcDbEntity
  8
CENTERMARKS
  6
CONTINUOUS
100
AcDbLine
 10
116.6015014236376
 20
141.5778928598332
 30
0.0
 11
117.3715014236376
 21
141.5778928598332
 31
0.0
  0
LINE
  5
186
330
1F
100
AcDbEntity
  8
CENTERMARKS
  6
CONTINUOUS
100
AcDbLine
 10
116.9865014236376
 20
141.1928928598332
 30
0.0
 11
116.9865014236376
 21
141.9628928598332
 31
0.0
  0
LINE
  5
187
330
1F
100
AcDbEntity
  8
CENTERMARKS
  6
CENTER
100
AcDbLine
 10
116.2165014236376
 20
141.5778928598332
 30
0.0
 11
115.1165014236376
 21
141.5778928598332
 31
0.0
  0
LINE
  5
188
330
1F
100
AcDbEntity
  8
CENTERMARKS
  6
CENTER
100
AcDbLine
 10
117.7565014236376
 20
141.5778928598332
 30
0.0
 11
118.8565014236376
 21
141.5778928598332
 31
0.0
  0
LINE
  5
189
330
1F
100
AcDbEntity
  8
CENTERMARKS
  6
CENTER
100
AcDbLine
 10
116.9865014236376
 20
142.3478928598332
 30
0.0
 11
116.9865014236376
 21
143.4478928598332
 31
0.0
  0
LINE
  5
18A
330
1F
100
AcDbEntity
  8
CENTERMARKS
  6
CENTER
100
AcDbLine
 10
116.9865014236376
 20
140.8078928598332
 30
0.0
 11
116.9865014236376
 21
139.7078928598332
 31
0.0
  0
LINE
  5
18F
330
1F
100
AcDbEntity
  8
CENTERMARKS
  6
CONTINUOUS
100
AcDbLine
 10
154.934834756971
 20
141.5778928598332
 30
0.0
 11
155.7048347569709
 21
141.5778928598332
 31
0.0
  0
LINE
  5
190
330
1F
100
AcDbEntity
  8
CENTERMARKS
  6
CONTINUOUS
100
AcDbLine
 10
155.3198347569709
 20
141.1928928598332
 30
0.0
 11
155.3198347569709
 21
141.9628928598332
 31
0.0
  0
LINE
  5
191
330
1F
100
AcDbEntity
  8
CENTERMARKS
  6
CENTER
100
AcDbLine
 10
154.549834756971
 20
141.5778928598332
 30
0.0
 11
153.449834756971
 21
141.5778928598332
 31
0.0
  0
LINE
  5
192
330
1F
100
AcDbEntity
  8
CENTERMARKS
  6
CENTER
100
AcDbLine
 10
156.0898347569709
 20
141.5778928598332
 30
0.0
 11
157.1898347569709
 21
141.5778928598332
 31
0.0
  0
LINE
  5
193
330
1F
100
AcDbEntity
  8
CENTERMARKS
  6
CENTER
100
AcDbLine
 10
155.3198347569709
 20
142.3478928598332
 30
0.0
 11
155.3198347569709
 21
143.4478928598332
 31
0.0
  0
LINE
  5
194
330
1F
100
AcDbEntity
  8
CENTERMARKS
  6
CENTER
100
AcDbLine
 10
155.3198347569709
 20
140.8078928598332
 30
0.0
 11
155.319834756971
 21
139.7078928598332
 31
0.0
  0
LINE
  5
199
330
1F
100
AcDbEntity
  8
CENTERMARKS
  6
CONTINUOUS
100
AcDbLine
 10
154.934834756971
 20
179.9112261931665
 30
0.0
 11
155.7048347569709
 21
179.9112261931665
 31
0.0
  0
LINE
  5
19A
330
1F
100
AcDbEntity
  8
CENTERMARKS
  6
CONTINUOUS
100
AcDbLine
 10
155.3198347569709
 20
179.5262261931665
 30
0.0
 11
155.3198347569709
 21
180.2962261931665
 31
0.0
  0
LINE
  5
19B
330
1F
100
AcDbEntity
  8
CENTERMARKS
  6
CENTER
100
AcDbLine
 10
154.549834756971
 20
179.9112261931665
 30
0.0
 11
153.449834756971
 21
179.9112261931666
 31
0.0
  0
LINE
  5
19C
330
1F
100
AcDbEntity
  8
CENTERMARKS
  6
CENTER
100
AcDbLine
 10
156.0898347569709
 20
179.9112261931665
 30
0.0
 11
157.1898347569709
 21
179.9112261931665
 31
0.0
  0
LINE
  5
19D
330
1F
100
AcDbEntity
  8
CENTERMARKS
  6
CENTER
100
AcDbLine
 10
155.3198347569709
 20
180.6812261931665
 30
0.0
 11
155.3198347569709
 21
181.7812261931665
 31
0.0
  0
LINE
  5
19E
330
1F
100
AcDbEntity
  8
CENTERMARKS
  6
CENTER
100
AcDbLine
 10
155.3198347569709
 20
179.1412261931665
 30
0.0
 11
155.319834756971
 21
178.0412261931666
 31
0.0
  0
LINE
  5
1A3
330
1F
100
AcDbEntity
  8
CENTERMARKS
  6
CONTINUOUS
100
AcDbLine
 10
116.6015014236376
 20
256.9112261931665
 30
0.0
 11
117.3715014236376
 21
256.9112261931665
 31
0.0
  0
LINE
  5
1A4
330
1F
100
AcDbEntity
  8
CENTERMARKS
  6
CONTINUOUS
100
AcDbLine
 10
116.9865014236376
 20
256.5262261931665
 30
0.0
 11
116.9865014236376
 21
257.2962261931665
 31
0.0
  0
LINE
  5
1A5
330
1F
100
AcDbEntity
  8
CENTERMARKS
  6
CENTER
100
AcDbLine
 10
116.2165014236376
 20
256.9112261931665
 30
0.0
 11
115.1165014236376
 21
256.9112261931665
 31
0.0
  0
LINE
  5
1A6
330
1F
100
AcDbEntity
  8
CENTERMARKS
  6
CENTER
100
AcDbLine
 10
117.7565014236376
 20
256.9112261931665
 30
0.0
 11
118.8565014236376
 21
256.9112261931665
 31
0.0
  0
LINE
  5
1A7
330
1F
100
AcDbEntity
  8
CENTERMARKS
  6
CENTER
100
AcDbLine
 10
116.9865014236376
 20
257.6812261931665
 30
0.0
 11
116.9865014236376
 21
258.7812261931665
 31
0.0
  0
LINE
  5
1A8
330
1F
100
AcDbEntity
  8
CENTERMARKS
  6
CENTER
100
AcDbLine
 10
116.9865014236376
 20
256.1412261931665
 30
0.0
 11
116.9865014236376
 21
255.0412261931665
 31
0.0
  0
LINE
  5
1AD
330
1F
100
AcDbEntity
  8
CENTERMARKS
  6
CONTINUOUS
100
AcDbLine
 10
77.93483475697094
 20
256.9112261931665
 30
0.0
 11
78.70483475697095
 21
256.9112261931665
 31
0.0
  0
LINE
  5
1AE
330
1F
100
AcDbEntity
  8
CENTERMARKS
  6
CONTINUOUS
100
AcDbLine
 10
78.31983475697096
 20
256.5262261931665
 30
0.0
 11
78.31983475697093
 21
257.2962261931665
 31
0.0
  0
LINE
  5
1AF
330
1F
100
AcDbEntity
  8
CENTERMARKS
  6
CENTER
100
AcDbLine
 10
77.54983475697094
 20
256.9112261931665
 30
0.0
 11
76.44983475697094
 21
256.9112261931665
 31
0.0
  0
LINE
  5
1B0
330
1F
100
AcDbEntity
  8
CENTERMARKS
  6
CENTER
100
AcDbLine
 10
79.08983475697096
 20
256.9112261931665
 30
0.0
 11
80.18983475697095
 21
256.9112261931665
 31
0.0
  0
LINE
  5
1B1
330
1F
100
AcDbEntity
  8
CENTERMARKS
  6
CENTER
100
AcDbLine
 10
78.31983475697092
 20
257.6812261931665
 30
0.0
 11
78.31983475697089
 21
258.7812261931665
 31
0.0
  0
LINE
  5
1B2
330
1F
100
AcDbEntity
  8
CENTERMARKS
  6
CENTER
100
AcDbLine
 10
78.31983475697098
 20
256.1412261931665
 30
0.0
 11
78.319834756971
 21
255.0412261931665
 31
0.0
  0
LINE
  5
1B7
330
1F
100
AcDbEntity
  8
CENTERMARKS
  6
CONTINUOUS
100
AcDbLine
 10
39.60150142363762
 20
256.9112261931665
 30
0.0
 11
40.37150142363762
 21
256.9112261931665
 31
0.0
  0
LINE
  5
1B8
330
1F
100
AcDbEntity
  8
CENTERMARKS
  6
CONTINUOUS
100
AcDbLine
 10
39.98650142363763
 20
256.5262261931665
 30
0.0
 11
39.98650142363761
 21
257.2962261931665
 31
0.0
  0
LINE
  5
1B9
330
1F
100
AcDbEntity
  8
CENTERMARKS
  6
CENTER
100
AcDbLine
 10
39.21650142363762
 20
256.9112261931665
 30
0.0
 11
38.11650142363762
 21
256.9112261931665
 31
0.0
  0
LINE
  5
1BA
330
1F
100
AcDbEntity
  8
CENTERMARKS
  6
CENTER
100
AcDbLine
 10
40.75650142363762
 20
256.9112261931665
 30
0.0
 11
41.85650142363762
 21
256.9112261931665
 31
0.0
  0
LINE
  5
1BB
330
1F
100
AcDbEntity
  8
CENTERMARKS
  6
CENTER
100
AcDbLine
 10
39.98650142363761
 20
257.6812261931665
 30
0.0
 11
39.98650142363758
 21
258.7812261931665
 31
0.0
  0
LINE
  5
1BC
330
1F
100
AcDbEntity
  8
CENTERMARKS
  6
CENTER
100
AcDbLine
 10
39.98650142363763
 20
256.1412261931665
 30
0.0
 11
39.98650142363766
 21
255.0412261931665
 31
0.0
  0
LINE
  5
1C1
330
1F
100
AcDbEntity
  8
CENTERMARKS
  6
CONTINUOUS
100
AcDbLine
 10
154.9348347569709
 20
218.5778928598332
 30
0.0
 11
155.7048347569709
 21
218.5778928598332
 31
0.0
  0
LINE
  5
1C2
330
1F
100
AcDbEntity
  8
CENTERMARKS
  6
CONTINUOUS
100
AcDbLine
 10
155.3198347569709
 20
218.1928928598332
 30
0.0
 11
155.3198347569709
 21
218.9628928598331
 31
0.0
  0
LINE
  5
1C3
330
1F
100
AcDbEntity
  8
CENTERMARKS
  6
CENTER
100
AcDbLine
 10
154.5498347569709
 20
218.5778928598332
 30
0.0
 11
153.4498347569709
 21
218.5778928598332
 31
0.0
  0
LINE
  5
1C4
330
1F
100
AcDbEntity
  8
CENTERMARKS
  6
CENTER
100
AcDbLine
 10
156.0898347569709
 20
218.5778928598332
 30
0.0
 11
157.1898347569709
 21
218.5778928598332
 31
0.0
  0
LINE
  5
1C5
330
1F
100
AcDbEntity
  8
CENTERMARKS
  6
CENTER
100
AcDbLine
 10
155.3198347569709
 20
219.3478928598331
 30
0.0
 11
155.3198347569709
 21
220.4478928598331
 31
0.0
  0
LINE
  5
1C6
330
1F
100
AcDbEntity
  8
CENTERMARKS
  6
CENTER
100
AcDbLine
 10
155.3198347569709
 20
217.8078928598332
 30
0.0
 11
155.3198347569709
 21
216.7078928598332
 31
0.0
  0
MTEXT
  5
1C7
102
{ACAD_XDICTIONARY
360
1C8
102
}
330
1F
100
AcDbEntity
  8
ANNOTATION_TEXT
 62
     7
 60
     1
100
AcDbMText
 10
97.65316809030426
 20
125.9945595264998
 30
0.0
 40
3.5
 41
0.0
 71
     2
 72
     1
  1

  7
ONSHAPE-STANDARD-VIEW-LABE
1001
ACAD
1000
ACAD_MTEXT_DEFINED_HEIGHT_BEGIN
1070
    46
1040
3.5
1000
ACAD_MTEXT_DEFINED_HEIGHT_END
  0
MTEXT
  5
1CE
102
{ACAD_XDICTIONARY
360
1CF
102
}
330
1F
100
AcDbEntity
  8
ANNOTATION_TEXT
 62
     7
 60
     1
100
AcDbMText
 10
227.3621702853568
 20
125.9945595264998
 30
0.0
 40
3.5
 41
0.0
 71
     2
 72
     1
  1

  7
ONSHAPE-STANDARD-VIEW-LABE
1001
ACAD
1000
ACAD_MTEXT_DEFINED_HEIGHT_BEGIN
1070
    46
1040
3.5
1000
ACAD_MTEXT_DEFINED_HEIGHT_END
  0
DIMENSION
  5
1D1
102
{ACAD_REACTORS
102
}
102
{ACAD_XDICTIONARY
360
1D2
102
}
330
1F
100
AcDbEntity
  8
ANNOTATION_TEXT
100
AcDbDimension
  2
*D1
 10
162.6531680903042
 20
275.1243258106055
 30
0.0
 11
94.41044303542792
 21
275.1243258106055
 31
0.0
 70
   160
  3
ONSHAPE-ISO-25$0
100
AcDbAlignedDimension
 13
32.65316809030425
 23
264.2445595264998
 33
0.0000000000000041
 14
162.6531680903042
 24
264.2445595264998
 34
0.0000000000000041
100
AcDbRotatedDimension
1001
ACAD
1000
DSTYLE
1002
{
1070
     4
1000
[]
1070
   144
1040
3.0
1070
     3
1000

1070
   288
1070
     1
1002
}
1001
ACAD_DIMASSOC_CALC_DIMLFAC
1040
-3.0
1001
ACAD_DIMASSOC_DIMLFAC
1040
-3.0
1001
ACAD_DIMASSOC_OVERRIDDEN_D
1040
0.0
  0
DIMENSION
  5
1ED
102
{ACAD_REACTORS
330
205
102
}
102
{ACAD_XDICTIONARY
360
1EE
102
}
330
1F
100
AcDbEntity
  8
ANNOTATION_TEXT
100
AcDbDimension
  2
*D2
 10
184.5581995609894
 20
251.9112261931665
 30
0.0
 11
184.5581995609894
 21
258.0778928598331
 31
0.0
 70
   160
  3
ONSHAPE-ISO-25$0
100
AcDbAlignedDimension
 13
162.6531680903042
 23
264.2445595264998
 33
0.0000000000000041
 14
150.3198347569709
 24
251.9112261931665
 34
0.0000000000000032
 50
90.0
100
AcDbRotatedDimension
1001
ACAD
1000
DSTYLE
1002
{
1070
     4
1000
[]
1070
   144
1040
3.0
1070
     3
1000

1070
   288
1070
     1
1002
}
1001
ACAD_DIMASSOC_CALC_DIMLFAC
1040
-3.0
1001
ACAD_DIMASSOC_DIMLFAC
1040
-3.0
1001
ACAD_DIMASSOC_OVERRIDDEN_D
1040
0.0
  0
DIMENSION
  5
200
102
{ACAD_REACTORS
102
}
102
{ACAD_XDICTIONARY
360
201
102
}
330
1F
100
AcDbEntity
  8
ANNOTATION_TEXT
100
AcDbDimension
  2
*D3
 10
194.610647231106
 20
134.2445595264998
 30
0.0
 11
194.610647231106
 21
199.2445595264998
 31
0.0
 70
   160
  3
ONSHAPE-ISO-25$0
100
AcDbAlignedDimension
 13
162.6531680903042
 23
264.2445595264998
 33
0.0000000000000041
 14
162.6531680903043
 24
134.2445595264998
 34
-0.000000000000004
 50
90.0
100
AcDbRotatedDimension
1001
ACAD
1000
DSTYLE
1002
{
1070
     4
1000
[]
1070
   144
1040
3.0
1070
     3
1000

1070
   288
1070
     1
1002
}
1001
ACAD_DIMASSOC_CALC_DIMLFAC
1040
-3.0
1001
ACAD_DIMASSOC_DIMLFAC
1040
-3.0
1001
ACAD_DIMASSOC_OVERRIDDEN_D
1040
0.0
  0
DIMENSION
  5
213
102
{ACAD_REACTORS
102
}
102
{ACAD_XDICTIONARY
360
214
102
}
330
1F
100
AcDbEntity
  8
ANNOTATION_TEXT
100
AcDbDimension
  2
*D4
 10
227.6955036186901
 20
227.7805400094114
 30
0.0
 11
249.7369731640033
 21
227.7805400094114
 31
0.0
 70
   160
  3
ONSHAPE-ISO-25$0
100
AcDbAlignedDimension
 13
227.0288369520234
 23
227.7805400094114
 33
32.5
 14
227.6955036186901
 24
227.7805400094114
 34
32.5
100
AcDbRotatedDimension
1001
ACAD
1000
DSTYLE
1002
{
1070
     4
1000
[]
1070
   144
1040
3.0
1070
     3
1000

1070
   288
1070
     1
1002
}
1001
ACAD_DIMASSOC_CALC_DIMLFAC
1040
-3.0
1001
ACAD_DIMASSOC_DIMLFAC
1040
-3.0
1001
ACAD_DIMASSOC_OVERRIDDEN_D
1040
0.0
  0
MTEXT
  5
229
102
{ACAD_XDICTIONARY
360
2C6
102
}
330
1F
100
AcDbEntity
  8
ANNOTATION_TEXT
100
AcDbMText
 10
277.6244086359396
 20
192.7591094167472
 30
0.0
 40
3.5
 41
85.34707084468666
 71
     1
 72
     5
  1
EPDM Seal between Lid and chamber
  7
ONSHAPE-STANDARD-NOTESTYLE
1001
ONSHAPE_NOTES_REORDERING_D
1071
        0
1070
     0
1001
ACAD
1000
ACAD_MTEXT_DEFINED_HEIGHT_BEGIN
1070
    46
1040
3.547683923705722
1000
ACAD_MTEXT_DEFINED_HEIGHT_END
  0
MTEXT
  5
230
102
{ACAD_REACTORS
102
}
102
{ACAD_XDICTIONARY
360
2C8
102
}
330
1F
100
AcDbEntity
  8
ANNOTATION_TEXT
100
AcDbMText
 10
271.4632310316746
 20
251.7767054154961
 30
0.0
 40
3.5
 41
90.79972752043597
 71
     4
 72
     1
  1
threaded rods with go through here
  7
ONSHAPE-STANDARD-NOTESTYLE
1001
ONSHAPE_NOTES_REORDERING_D
1071
        0
1070
     0
1001
ACAD
1000
ACAD_MTEXT_DEFINED_HEIGHT_BEGIN
1070
    46
1040
3.547683923705722
1000
ACAD_MTEXT_DEFINED_HEIGHT_END
  0
SOLID
  5
234
330
1F
100
AcDbEntity
  8
ANNOTATION_TEXT
100
AcDbTrace
 10
157.8457280821903
 20
219.8863971061292
 30
0.0
 11
155.3198347569709
 21
219.6778928598332
 31
0.0
 12
157.6415703090554
 22
220.6943352523464
 32
0.0
 13
157.6415703090554
 23
220.6943352523464
 33
0.0
  0
POLYLINE
  5
235
330
1F
100
AcDbEntity
  8
ANNOTATION_TEXT
100
AcDb2dPolyline
 66
     1
 10
0.0
 20
0.0
 30
0.0
  0
VERTEX
  5
236
330
235
100
AcDbEntity
  8
ANNOTATION_TEXT
100
AcDbVertex
100
AcDb2dVertex
 10
155.3198347569709
 20
219.6778928598332
 30
0.0
  0
VERTEX
  5
237
330
235
100
AcDbEntity
  8
ANNOTATION_TEXT
100
AcDbVertex
100
AcDb2dVertex
 10
270.2132310316746
 20
248.7102885217631
 30
0.0
  0
VERTEX
  5
238
330
235
100
AcDbEntity
  8
ANNOTATION_TEXT
100
AcDbVertex
100
AcDb2dVertex
 10
362.2629585521105
 20
248.7102885217631
 30
0.0
  0
SEQEND
  5
239
330
235
100
AcDbEntity
  8
ANNOTATION_TEXT
  0
ENDSEC
  0
SECTION
  2
OBJECTS
  0
DICTIONARY
  5
C
330
0
100
AcDbDictionary
  3
ACAD_FIELDLIST
350
14E
  3
ACAD_GROUP
350
D
  3
ACAD_LAYOUT
350
1A
  3
ACAD_MATERIAL
350
43
  3
ACAD_MLEADERSTYLE
350
6B
  3
ACAD_MLINESTYLE
350
17
  3
ACAD_PLOTSETTINGS
350
19
  3
ACAD_SCALELIST
350
47
  3
ACAD_VISUALSTYLE
350
2A
  3
ACDB_RECOMPOSE_DATA
350
2D5
  3
ACDBHEADERROUNDTRIPXREC
350
29C
  3
ACDBVARIABLEDICTIONARY
350
6E
  3
DWGPROPS
350
2C3
  3
ONSHAPE_DATA
350
23A
  0
DICTIONARY
  5
2CA
330
8
100
AcDbDictionary
280
     1
  3
ACAD_XREC_ROUNDTRIP
360
2CB
  0
DICTIONARY
  5
ED
330
EC
100
AcDbDictionary
280
     1
  0
DICTIONARY
  5
F4
330
F3
100
AcDbDictionary
280
     1
  0
DICTIONARY
  5
FE
330
FD
100
AcDbDictionary
280
     1
  0
DICTIONARY
  5
104
330
103
100
AcDbDictionary
280
     1
  0
DICTIONARY
  5
11E
330
11D
100
AcDbDictionary
280
     1
  0
DICTIONARY
  5
124
330
123
100
AcDbDictionary
280
     1
  3
ACAD_MTEXT_RT
360
2C4
  0
DICTIONARY
  5
128
330
127
100
AcDbDictionary
280
     1
  3
ACAD_MTEXT_RT
360
2C5
  0
DICTIONARY
  5
12B
330
12A
100
AcDbDictionary
280
     1
  0
DICTIONARY
  5
132
330
131
100
AcDbDictionary
280
     1
  0
DICTIONARY
  5
139
330
138
100
AcDbDictionary
280
     1
  0
DICTIONARY
  5
140
330
13F
100
AcDbDictionary
280
     1
  0
DICTIONARY
  5
149
330
148
100
AcDbDictionary
280
     1
  0
DICTIONARY
  5
1C8
330
1C7
100
AcDbDictionary
280
     1
  3
ONSHAPE_VIEW_ID
360
1C9
  0
DICTIONARY
  5
1CF
330
1CE
100
AcDbDictionary
280
     1
  3
ONSHAPE_VIEW_ID
360
1D0
  0
DICTIONARY
  5
1D2
330
1D1
100
AcDbDictionary
280
     1
  3
ACAD_BREAKDATA
360
1D6
  3
OS_DIM_DISPLAY_FLAG_DATA
360
1D3
  0
DICTIONARY
  5
1EE
330
1ED
100
AcDbDictionary
280
     1
  3
ACAD_BREAKDATA
360
1F2
  3
OS_DIM_DISPLAY_FLAG_DATA
360
1EF
  0
DICTIONARY
  5
201
330
200
100
AcDbDictionary
280
     1
  3
ACAD_BREAKDATA
360
205
  3
OS_DIM_DISPLAY_FLAG_DATA
360
202
  0
DICTIONARY
  5
214
330
213
100
AcDbDictionary
280
     1
  3
ACAD_BREAKDATA
360
218
  3
OS_DIM_DISPLAY_FLAG_DATA
360
215
  0
DICTIONARY
  5
2C6
330
229
100
AcDbDictionary
280
     1
  3
ACAD_MTEXT_RT
360
2C7
  0
DICTIONARY
  5
2C8
330
230
100
AcDbDictionary
280
     1
  3
ACAD_MTEXT_RT
360
2C9
  0
ACAD_PROXY_OBJECT
  5
14E
102
{ACAD_REACTORS
330
C
102
}
330
C
100
AcDbProxyObject
 90
      499
 91
      509
 93
       11
310
4500
330
F0
330
F1
330
F7
330
F8
330
101
330
102
330
107
330
108
330
121
330
122
330
12E
330
12F
330
135
330
136
330
13C
330
13D
330
143
330
144
330
14C
330
14D
 94
        0
  0
DICTIONARY
  5
D
102
{ACAD_REACTORS
330
C
102
}
330
C
100
AcDbDictionary
  0
DICTIONARY
  5
1A
102
{ACAD_REACTORS
330
C
102
}
330
C
100
AcDbDictionary
  0
DICTIONARY
  5
43
102
{ACAD_REACTORS
330
C
102
}
330
C
100
AcDbDictionary
  3
BYBLOCK
350
45
  3
BYLAYER
350
44
  3
GLOBAL
350
46
  0
DICTIONARY
  5
6B
102
{ACAD_REACTORS
330
C
102
}
330
C
100
AcDbDictionary
  3
STANDARD
350
6C
  0
DICTIONARY
  5
17
102
{ACAD_REACTORS
330
C
102
}
330
C
100
AcDbDictionary
  3
STANDARD
350
18
  0
DICTIONARY
  5
19
102
{ACAD_REACTORS
330
C
102
}
330
C
100
AcDbDictionary
  0
DICTIONARY
  5
47
102
{ACAD_REACTORS
330
C
102
}
330
C
100
AcDbDictionary
  3
A0
350
48
  3
A1
350
49
  3
A2
350
4A
  3
A3
350
4B
  3
A4
350
4C
  3
A5
350
4D
  3
A6
350
4E
  3
A7
350
4F
  3
A8
350
50
  3
A9
350
51
  3
B0
350
52
  3
B1
350
53
  3
B2
350
54
  3
B3
350
55
  3
B4
350
56
  3
B5
350
57
  3
B6
350
58
  3
B7
350
59
  3
B8
350
5A
  3
B9
350
5B
  3
C0
350
5C
  3
C1
350
5D
  3
C2
350
5E
  3
C3
350
5F
  3
C4
350
60
  3
C5
350
61
  3
C6
350
62
  3
C7
350
63
  3
C8
350
64
  3
C9
350
65
  3
D0
350
66
  3
D1
350
67
  3
D2
350
68
  0
DICTIONARY
  5
2A
102
{ACAD_REACTORS
330
C
102
}
330
C
100
AcDbDictionary
  3
2DWIREFRAME
350
2F
  3
BASIC
350
32
  3
BRIGHTEN
350
36
  3
COLORCHANGE
350
3A
  3
CONCEPTUAL
350
34
  3
DIM
350
35
  3
EDGECOLOROFF
350
3D
  3
FACEPATTERN
350
39
  3
FLAT
350
2B
  3
FLATWITHEDGES
350
2C
  3
GOURAUD
350
2D
  3
GOURAUDWITHEDGES
350
2E
  3
HIDDEN
350
31
  3
JITTEROFF
350
3B
  3
LINEPATTERN
350
38
  3
OVERHANGOFF
350
3C
  3
REALISTIC
350
33
  3
SHADED
350
42
  3
SHADED_WITH_EDGES
350
41
  3
SHADES_OF_GRAY
350
3E
  3
SKETCHY
350
3F
  3
THICKEN
350
37
  3
WIREFRAME
350
30
  3
X-RAY
350
40
  0
XRECORD
  5
2D5
102
{ACAD_REACTORS
330
C
102
}
330
C
100
AcDbXrecord
 90
        1
330
123
330
127
330
229
330
230
  0
DICTIONARY
  5
29C
102
{ACAD_REACTORS
330
C
102
}
330
C
100
AcDbDictionary
  3
CEPSNID
350
2A6
  3
CEPSNTYPE
350
2A5
  3
DIMSTYLEDATA
350
2BC
  3
FINGERPRINTGUID
350
2A7
  3
HYPERLINKBASE
350
29F
  3
INSUNITS
350
2A4
  3
LAYOUTDICT
350
2A1
  3
LWETCUNION
350
2A3
  3
PLOTSETDICT
350
2A2
  3
PSVPSCALE
350
2A9
  3
PUCSBASE
350
2AC
  3
PUCSORGBACK
350
2B2
  3
PUCSORGBOTTOM
350
2AE
  3
PUCSORGFRONT
350
2B1
  3
PUCSORGLEFT
350
2AF
  3
PUCSORGRIGHT
350
2B0
  3
PUCSORGTOP
350
2AD
  3
PUCSORTHOREF
350
2AA
  3
PUCSORTHOVIEW
350
2AB
  3
STYLESHEET
350
2A0
  3
TSTACKALIGN
350
29D
  3
TSTACKSIZE
350
29E
  3
UCSBASE
350
2B5
  3
UCSORGBACK
350
2BB
  3
UCSORGBOTTOM
350
2B7
  3
UCSORGFRONT
350
2BA
  3
UCSORGLEFT
350
2B8
  3
UCSORGRIGHT
350
2B9
  3
UCSORGTOP
350
2B6
  3
UCSORTHOREF
350
2B3
  3
UCSORTHOVIEW
350
2B4
  3
VERSIONGUID
350
2A8
  0
DICTIONARY
  5
6E
102
{ACAD_REACTORS
330
C
102
}
330
C
100
AcDbDictionary
  3
CANNOSCALE
350
2CC
  3
CMLEADERSTYLE
350
2BE
  3
CTABLESTYLE
350
2BD
  3
DIMASSOC
350
2C1
  3
HIDETEXT
350
2C2
  3
MSLTSCALE
350
2CD
  3
OLEFRAME
350
6F
  0
XRECORD
  5
2C3
102
{ACAD_REACTORS
330
C
102
}
330
C
100
AcDbXrecord
  1
DWGPROPS COOKIE
  2

  3

  4

  6

  7

  8
nobody
  9

300
=
301
=
302
=
303
=
304
=
305
=
306
=
307
=
308
=
309
=
 40
0.0
 41
2461108.464958472
 42
2461108.464959167
  1

 90
        0
  0
DICTIONARY
  5
23A
102
{ACAD_REACTORS
330
C
102
}
330
C
100
AcDbDictionary
280
     1
  3
DIM_UNITS
360
23B
  3
ONSHAPE_ANG_TOL_PRECISION
360
23E
  3
ONSHAPE_BREAK_DIMENSION_DEFAULT
360
244
  3
ONSHAPE_DIMENSION_TEXT_HOR
360
243
  3
ONSHAPE_FITCLASS_TOL_PRECISION
360
23F
  3
ONSHAPE_JOGDIMENSION_LOCK_
360
241
  3
ONSHAPE_SHOWDIMENSIONSLINE
360
242
  3
ONSHAPE_UNDERLINEOVERRIDEN
360
240
  3
ONSHAPE_VSHARP_EXTENSION
360
23D
  3
ONSHAPE_WELD_STANDARD
360
23C
  0
XRECORD
  5
2CB
102
{ACAD_REACTORS
330
2CA
102
}
330
2CA
100
AcDbXrecord
102
VTR_0.000_0.000_1.000_1.000_VISUALSTYLE
340
2F
102
VTR_0.000_0.000_1.000_1.000_GRIDDISPLAY
 70
     3
102
VTR_0.000_0.000_1.000_1.000_GRIDMAJOR
 70
     5
102
VTR_0.000_0.000_1.000_1.000_DEFAULTLIGHTING
280
     1
102
VTR_0.000_0.000_1.000_1.000_DEFAULTLIGHTINGTYPE
 70
     1
102
VTR_0.000_0.000_1.000_1.000_BRIGHTNESS
141
0.0
102
VTR_0.000_0.000_1.000_1.000_CONTRAST
142
0.0
  0
XRECORD
  5
2C4
102
{ACAD_REACTORS
330
124
102
}
330
124
100
AcDbXrecord
 40
3854.0
  1
{\pxqc;EPDM Seal}
  0
XRECORD
  5
2C5
102
{ACAD_REACTORS
330
128
102
}
330
128
100
AcDbXrecord
 40
483.0
  1
{\pxqc;BfG}
  0
XRECORD
  5
1C9
102
{ACAD_REACTORS
330
1C8
102
}
330
1C8
100
AcDbXrecord
330
0
  0
XRECORD
  5
1D0
102
{ACAD_REACTORS
330
1CF
102
}
330
1CF
100
AcDbXrecord
330
0
  0
BREAKDATA
  5
1D6
102
{ACAD_REACTORS
330
1D2
102
}
330
1D2
100
AcDbBreakData
 70
     0
330
1D1
 90
        0
  0
XRECORD
  5
1D3
102
{ACAD_REACTORS
330
1D2
102
}
330
1D2
100
AcDbXrecord
 90
        1
 90
        0
  0
BREAKDATA
  5
1F2
102
{ACAD_REACTORS
330
1EE
102
}
330
1EE
100
AcDbBreakData
 70
     0
330
1ED
 90
        0
  0
XRECORD
  5
1EF
102
{ACAD_REACTORS
330
1EE
102
}
330
1EE
100
AcDbXrecord
 90
        1
 90
        0
  0
BREAKDATA
  5
205
102
{ACAD_REACTORS
330
201
102
}
330
201
100
AcDbBreakData
 70
     0
330
200
 90
        1
100
AcDbBreakPointRef
 71
     0
 72
     0
 91
       -1
 10
0.0
 20
0.0
 30
0.0
 11
0.0
 21
0.0
 31
0.0
331
1ED
 73
     5
 92
        0
  0
XRECORD
  5
202
102
{ACAD_REACTORS
330
201
102
}
330
201
100
AcDbXrecord
 90
        1
 90
        0
  0
BREAKDATA
  5
218
102
{ACAD_REACTORS
330
214
102
}
330
214
100
AcDbBreakData
 70
     0
330
213
 90
        0
  0
XRECORD
  5
215
102
{ACAD_REACTORS
330
214
102
}
330
214
100
AcDbXrecord
 90
        1
 90
        0
  0
XRECORD
  5
2C7
102
{ACAD_REACTORS
330
2C6
102
}
330
2C6
100
AcDbXrecord
 40
51466.0
  1
{\pxql;EPDM Seal between Lid and chamber}
  0
XRECORD
  5
2C9
102
{ACAD_REACTORS
330
2C8
102
}
330
2C8
100
AcDbXrecord
 40
57037.0
  1
{\pxql;threaded rods with go through here}
  0
MATERIAL
  5
45
102
{ACAD_REACTORS
330
43
102
}
102
{ACAD_XDICTIONARY
360
2D0
102
}
330
43
100
AcDbMaterial
  1
BYBLOCK
  0
MATERIAL
  5
44
102
{ACAD_REACTORS
330
43
102
}
102
{ACAD_XDICTIONARY
360
2CE
102
}
330
43
100
AcDbMaterial
  1
BYLAYER
  0
MATERIAL
  5
46
102
{ACAD_REACTORS
330
43
102
}
102
{ACAD_XDICTIONARY
360
2D2
102
}
330
43
100
AcDbMaterial
  1
GLOBAL
  0
ACAD_PROXY_OBJECT
  5
6C
102
{ACAD_REACTORS
330
6B
102
}
330
6B
100
AcDbProxyObject
 90
      499
 91
      505
 93
      610
310
40901902A4063FBFFFFFE056BD1B81E855B9FC0AD7A3703D0AD73F4214DD185B99185C9900AD7A3703D0AC73F90140501A02B5E8DC0F42B1CFC02B5E8DC0F42B1CFE5764000000000000300FC0
340
14
340
0
340
11
340
0
 94
        0
1001
ACAD_MLEADERVER
1070
     2
  0
MLINESTYLE
  5
18
102
{ACAD_REACTORS
330
17
102
}
330
17
100
AcDbMlineStyle
  2
Standard
 70
     0
  3

 62
   256
 51
90.0
 52
90.0
 71
     2
 49
0.5
 62
   256
  6
BYLAYER
 49
-0.5
 62
   256
  6
BYLAYER
  0
ACAD_PROXY_OBJECT
  5
48
102
{ACAD_REACTORS
330
47
102
}
330
47
100
AcDbProxyObject
 90
      499
 91
      503
 93
       41
310
903313A31580
  0
ACAD_PROXY_OBJECT
  5
49
102
{ACAD_REACTORS
330
47
102
}
330
47
100
AcDbProxyObject
 90
      499
 91
      503
 93
      105
310
903313A324000000000000004000
  0
ACAD_PROXY_OBJECT
  5
4A
102
{ACAD_REACTORS
330
47
102
}
330
47
100
AcDbProxyObject
 90
      499
 91
      503
 93
      105
310
903313A344000000000000104000
  0
ACAD_PROXY_OBJECT
  5
4B
102
{ACAD_REACTORS
330
47
102
}
330
47
100
AcDbProxyObject
 90
      499
 91
      503
 93
      105
310
903313A354000000000000144000
  0
ACAD_PROXY_OBJECT
  5
4C
102
{ACAD_REACTORS
330
47
102
}
330
47
100
AcDbProxyObject
 90
      499
 91
      503
 93
      105
310
903313A384000000000000204000
  0
ACAD_PROXY_OBJECT
  5
4D
102
{ACAD_REACTORS
330
47
102
}
330
47
100
AcDbProxyObject
 90
      499
 91
      503
 93
      113
310
904313A31304000000000000244000
  0
ACAD_PROXY_OBJECT
  5
4E
102
{ACAD_REACTORS
330
47
102
}
330
47
100
AcDbProxyObject
 90
      499
 91
      503
 93
      113
310
904313A31364000000000000304000
  0
ACAD_PROXY_OBJECT
  5
4F
102
{ACAD_REACTORS
330
47
102
}
330
47
100
AcDbProxyObject
 90
      499
 91
      503
 93
      113
310
904313A32304000000000000344000
  0
ACAD_PROXY_OBJECT
  5
50
102
{ACAD_REACTORS
330
47
102
}
330
47
100
AcDbProxyObject
 90
      499
 91
      503
 93
      113
310
904313A333040000000000003E4000
  0
ACAD_PROXY_OBJECT
  5
51
102
{ACAD_REACTORS
330
47
102
}
330
47
100
AcDbProxyObject
 90
      499
 91
      503
 93
      113
310
904313A34304000000000000444000
  0
ACAD_PROXY_OBJECT
  5
52
102
{ACAD_REACTORS
330
47
102
}
330
47
100
AcDbProxyObject
 90
      499
 91
      503
 93
      113
310
904313A35304000000000000494000
  0
ACAD_PROXY_OBJECT
  5
53
102
{ACAD_REACTORS
330
47
102
}
330
47
100
AcDbProxyObject
 90
      499
 91
      503
 93
      121
310
905313A3130304000000000000594000
  0
ACAD_PROXY_OBJECT
  5
54
102
{ACAD_REACTORS
330
47
102
}
330
47
100
AcDbProxyObject
 90
      499
 91
      503
 93
      105
310
903323A310000000000000010100
  0
ACAD_PROXY_OBJECT
  5
55
102
{ACAD_REACTORS
330
47
102
}
330
47
100
AcDbProxyObject
 90
      499
 91
      503
 93
      105
310
903343A310000000000000410100
  0
ACAD_PROXY_OBJECT
  5
56
102
{ACAD_REACTORS
330
47
102
}
330
47
100
AcDbProxyObject
 90
      499
 91
      503
 93
      105
310
903383A310000000000000810100
  0
ACAD_PROXY_OBJECT
  5
57
102
{ACAD_REACTORS
330
47
102
}
330
47
100
AcDbProxyObject
 90
      499
 91
      503
 93
      113
310
90431303A310000000000000910100
  0
ACAD_PROXY_OBJECT
  5
58
102
{ACAD_REACTORS
330
47
102
}
330
47
100
AcDbProxyObject
 90
      499
 91
      503
 93
      121
310
9053130303A310000000000001650100
  0
ACAD_PROXY_OBJECT
  5
59
102
{ACAD_REACTORS
330
47
102
}
330
47
100
AcDbProxyObject
 90
      499
 91
      503
 93
      257
310
90E312F31323822203D2031272D3022000000000000200FC000000000000284000
  0
ACAD_PROXY_OBJECT
  5
5A
102
{ACAD_REACTORS
330
47
102
}
330
47
100
AcDbProxyObject
 90
      499
 91
      503
 93
      249
310
90D312F363422203D2031272D3022000000000000240FC000000000000284000
  0
ACAD_PROXY_OBJECT
  5
5B
102
{ACAD_REACTORS
330
47
102
}
330
47
100
AcDbProxyObject
 90
      499
 91
      503
 93
      249
310
90D312F333222203D2031272D3022000000000000280FC000000000000284000
  0
ACAD_PROXY_OBJECT
  5
5C
102
{ACAD_REACTORS
330
47
102
}
330
47
100
AcDbProxyObject
 90
      499
 91
      503
 93
      249
310
90D312F313622203D2031272D30220000000000002C0FC000000000000284000
  0
ACAD_PROXY_OBJECT
  5
5D
102
{ACAD_REACTORS
330
47
102
}
330
47
100
AcDbProxyObject
 90
      499
 91
      503
 93
      249
310
90D332F333222203D2031272D30220000000000002E0FC000000000000284000
  0
ACAD_PROXY_OBJECT
  5
5E
102
{ACAD_REACTORS
330
47
102
}
330
47
100
AcDbProxyObject
 90
      499
 91
      503
 93
      241
310
90C312F3822203D2031272D3022000000000000300FC000000000000284000
  0
ACAD_PROXY_OBJECT
  5
5F
102
{ACAD_REACTORS
330
47
102
}
330
47
100
AcDbProxyObject
 90
      499
 91
      503
 93
      249
310
90D332F313622203D2031272D3022000000000000320FC000000000000284000
  0
ACAD_PROXY_OBJECT
  5
60
102
{ACAD_REACTORS
330
47
102
}
330
47
100
AcDbProxyObject
 90
      499
 91
      503
 93
      241
310
90C312F3422203D2031272D3022000000000000340FC000000000000284000
  0
ACAD_PROXY_OBJECT
  5
61
102
{ACAD_REACTORS
330
47
102
}
330
47
100
AcDbProxyObject
 90
      499
 91
      503
 93
      241
310
90C332F3822203D2031272D3022000000000000360FC000000000000284000
  0
ACAD_PROXY_OBJECT
  5
62
102
{ACAD_REACTORS
330
47
102
}
330
47
100
AcDbProxyObject
 90
      499
 91
      503
 93
      241
310
90C312F3222203D2031272D3022000000000000380FC000000000000284000
  0
ACAD_PROXY_OBJECT
  5
63
102
{ACAD_REACTORS
330
47
102
}
330
47
100
AcDbProxyObject
 90
      499
 91
      503
 93
      241
310
90C332F3422203D2031272D30220000000000003A0FC000000000000284000
  0
ACAD_PROXY_OBJECT
  5
64
102
{ACAD_REACTORS
330
47
102
}
330
47
100
AcDbProxyObject
 90
      499
 91
      503
 93
      161
310
90A3122203D2031272D30224000000000000284000
  0
ACAD_PROXY_OBJECT
  5
65
102
{ACAD_REACTORS
330
47
102
}
330
47
100
AcDbProxyObject
 90
      499
 91
      503
 93
      257
310
90E312D312F3222203D2031272D30220000000000003E0FC000000000000284000
  0
ACAD_PROXY_OBJECT
  5
66
102
{ACAD_REACTORS
330
47
102
}
330
47
100
AcDbProxyObject
 90
      499
 91
      503
 93
      225
310
90A3322203D2031272D302200000000000002100000000000000284000
  0
ACAD_PROXY_OBJECT
  5
67
102
{ACAD_REACTORS
330
47
102
}
330
47
100
AcDbProxyObject
 90
      499
 91
      503
 93
      225
310
90A3622203D2031272D302200000000000006100000000000000284000
  0
ACAD_PROXY_OBJECT
  5
68
102
{ACAD_REACTORS
330
47
102
}
330
47
100
AcDbProxyObject
 90
      499
 91
      503
 93
      249
310
90D31272D3022203D2031272D30220000000000000A100000000000000284000
  0
ACAD_PROXY_OBJECT
  5
2F
102
{ACAD_REACTORS
330
2A
102
}
330
2A
100
AcDbProxyObject
 90
      499
 91
      501
 93
      436
310
42CC9915DA5C99599C985B595049028333333333333E33F0000000000000F90107901411070040501600405405064090741402480A0340
1001
ACAD
1000
AcDbSavedByObjectVersion
1070
     0
  0
ACAD_PROXY_OBJECT
  5
32
102
{ACAD_REACTORS
330
2A
102
}
330
2A
100
AcDbProxyObject
 90
      499
 91
      501
 93
      388
310
4150985CDA58D07406404333333333333E33F0000000000000F90107A41107004050150841D405064090741402480A0350
1001
ACAD
1000
AcDbSavedByObjectVersion
1070
     0
  0
ACAD_PROXY_OBJECT
  5
36
102
{ACAD_REACTORS
330
2A
102
}
330
2A
100
AcDbProxyObject
 90
      499
 91
      501
 93
      428
310
42109C9A59DA1D195B90C409028333333333333E33F0000000000000F9010790141107004050150841D405064090741402480A029950
1001
ACAD
1000
AcDbSavedByObjectVersion
1070
     0
  0
ACAD_PROXY_OBJECT
  5
3A
102
{ACAD_REACTORS
330
2A
102
}
330
2A
100
AcDbProxyObject
 90
      499
 91
      501
 93
      452
310
42D0DBDB1BDC90DA185B99D95104090240C333333333333E33F0000000000000F90108901411070040501508421405064090741402480A0350
1001
ACAD
1000
AcDbSavedByObjectVersion
1070
     0
  0
ACAD_PROXY_OBJECT
  5
34
102
{ACAD_REACTORS
330
2A
102
}
330
2A
100
AcDbProxyObject
 90
      499
 91
      501
 93
      500
310
4290DBDB98D95C1D1D585B10940D028333333333333E33F0000000000000F90107902409070040501000000000018199010841D405064090740C02480A0340
1001
ACAD
1000
AcDbSavedByObjectVersion
1070
     0
  0
ACAD_PROXY_OBJECT
  5
35
102
{ACAD_REACTORS
330
2A
102
}
330
2A
100
AcDbProxyObject
 90
      499
 91
      501
 93
      412
310
40D11A5B50B409028333333333333E33F0000000000000F9010790141107004050150841D405064090741402480A02677FFFFFD0
1001
ACAD
1000
AcDbSavedByObjectVersion
1070
     0
  0
ACAD_PROXY_OBJECT
  5
3D
102
{ACAD_REACTORS
330
2A
102
}
330
2A
100
AcDbProxyObject
 90
      499
 91
      501
 93
      452
310
43115919D950DBDB1BDC93D999916409028333333333333E33F0000000000000F9010790141107004050150841D405064090741402480A0350
1001
ACAD
1000
AcDbSavedByObjectVersion
1070
     0
  0
ACAD_PROXY_OBJECT
  5
39
102
{ACAD_REACTORS
330
2A
102
}
330
2A
100
AcDbProxyObject
 90
      499
 91
      501
 93
      444
310
42D19858D95C185D1D195C9B90F409028333333333333E33F0000000000000F9010790141107004050150841D405064090741402480A0350
1001
ACAD
1000
AcDbSavedByObjectVersion
1070
     0
  0
ACAD_PROXY_OBJECT
  5
2B
102
{ACAD_REACTORS
330
2A
102
}
330
2A
100
AcDbProxyObject
 90
      499
 91
      501
 93
      380
310
41119B185D240901404333333333333E33F0000000000000F9010740A907004050150841D405064090741402480A1B50
1001
ACAD
1000
AcDbSavedByObjectVersion
1070
     0
  0
ACAD_PROXY_OBJECT
  5
2C
102
{ACAD_REACTORS
330
2A
102
}
330
2A
100
AcDbProxyObject
 90
      499
 91
      501
 93
      468
310
43519B185D15DA5D1A115919D95CD0140901404333333333333E33F0000000000000F90107409019070040501600405405064090741402480A1B50
1001
ACAD
1000
AcDbSavedByObjectVersion
1070
     0
  0
ACAD_PROXY_OBJECT
  5
2D
102
{ACAD_REACTORS
330
2A
102
}
330
2A
100
AcDbProxyObject
 90
      499
 91
      501
 93
      404
310
41D1DBDD5C985D5910240902404333333333333E33F0000000000000F9010740A9070040501641D405064090741402480A1B50
1001
ACAD
1000
AcDbSavedByObjectVersion
1070
     0
  0
ACAD_PROXY_OBJECT
  5
2E
102
{ACAD_REACTORS
330
2A
102
}
330
2A
100
AcDbProxyObject
 90
      499
 91
      501
 93
      492
310
4411DBDD5C985D5915DA5D1A115919D95CD0340902404333333333333E33F0000000000000F90107409019070040501600405405064090741402480A1B50
1001
ACAD
1000
AcDbSavedByObjectVersion
1070
     0
  0
ACAD_PROXY_OBJECT
  5
31
102
{ACAD_REACTORS
330
2A
102
}
330
2A
100
AcDbProxyObject
 90
      499
 91
      501
 93
      476
310
41921A5919195B90640502408333333333333E33F0000000000000F901079024090700405020000000000001110200405405064090740C02480A0340
1001
ACAD
1000
AcDbSavedByObjectVersion
1070
     0
  0
ACAD_PROXY_OBJECT
  5
3B
102
{ACAD_REACTORS
330
2A
102
}
330
2A
100
AcDbProxyObject
 90
      499
 91
      501
 93
      428
310
42529A5D1D195C93D999914409028333333333333E33F0000000000000F9010790141107004050150A41D405064090741402480A0350
1001
ACAD
1000
AcDbSavedByObjectVersion
1070
     0
  0
ACAD_PROXY_OBJECT
  5
38
102
{ACAD_REACTORS
330
2A
102
}
330
2A
100
AcDbProxyObject
 90
      499
 91
      501
 93
      444
310
42D31A5B995C185D1D195C9B90E409028333333333333E33F0000000000000F9010790141107004050750841D405064090741402483A0350
1001
ACAD
1000
AcDbSavedByObjectVersion
1070
     0
  0
ACAD_PROXY_OBJECT
  5
3C
102
{ACAD_REACTORS
330
2A
102
}
330
2A
100
AcDbProxyObject
 90
      499
 91
      501
 93
      444
310
42D3DD995C9A185B99D3D999915409028333333333333E33F0000000000000F9010790141107004050150941D405064090741402480A0350
1001
ACAD
1000
AcDbSavedByObjectVersion
1070
     0
  0
ACAD_PROXY_OBJECT
  5
33
102
{ACAD_REACTORS
330
2A
102
}
330
2A
100
AcDbProxyObject
 90
      499
 91
      501
 93
      428
310
425499585B1A5CDD1A58D08409038333333333333E33F0000000000000F9010740A907004050150800405405064090740C02480A1B40
1001
ACAD
1000
AcDbSavedByObjectVersion
1070
     0
  0
ACAD_PROXY_OBJECT
  5
42
102
{ACAD_REACTORS
330
2A
102
}
330
2A
100
AcDbProxyObject
 90
      499
 91
      501
 93
      420
310
4194DA1859195911B40902404333333333333E33F0000000000000F9010740A41107004050150800405405064090840C02480A0B40
1001
ACAD
1000
AcDbSavedByObjectVersion
1070
     0
  0
ACAD_PROXY_OBJECT
  5
41
102
{ACAD_REACTORS
330
2A
102
}
330
2A
100
AcDbProxyObject
 90
      499
 91
      501
 93
      516
310
4454DA18591959081DDA5D1A08195919D95CD1A40902404333333333333E33F0000000000000F901074090142907004050250800405405064090740C02480A0B40
1001
ACAD
1000
AcDbSavedByObjectVersion
1070
     0
  0
ACAD_PROXY_OBJECT
  5
3E
102
{ACAD_REACTORS
330
2A
102
}
330
2A
100
AcDbProxyObject
 90
      499
 91
      501
 93
      532
310
4394DA1859195CC81BD98811DC985E5174090240C333333333333E33F0000000000000F901079024090741D01000000000000111010841D405064090740C02480A0340
1001
ACAD
1000
AcDbSavedByObjectVersion
1070
     0
  0
ACAD_PROXY_OBJECT
  5
3F
102
{ACAD_REACTORS
330
2A
102
}
330
2A
100
AcDbProxyObject
 90
      499
 91
      501
 93
      476
310
41D4DAD95D18DA1E51840502408333333333333E33F0000000000000F901079024090741D01000000000000111010B41D405064090741802480A0340
1001
ACAD
1000
AcDbSavedByObjectVersion
1070
     0
  0
ACAD_PROXY_OBJECT
  5
37
102
{ACAD_REACTORS
330
2A
102
}
330
2A
100
AcDbProxyObject
 90
      499
 91
      501
 93
      412
310
41D51A1A58DAD95B90D409028333333333333E33F0000000000000F9010790141107004050150C41D405064090741402480A0350
1001
ACAD
1000
AcDbSavedByObjectVersion
1070
     0
  0
ACAD_PROXY_OBJECT
  5
30
102
{ACAD_REACTORS
330
2A
102
}
330
2A
100
AcDbProxyObject
 90
      499
 91
      501
 93
      420
310
4255DA5C99599C985B595059028333333333333E33F0000000000000F90107901411070040501600405405064090740C02480A0340
1001
ACAD
1000
AcDbSavedByObjectVersion
1070
     0
  0
ACAD_PROXY_OBJECT
  5
40
102
{ACAD_REACTORS
330
2A
102
}
330
2A
100
AcDbProxyObject
 90
      499
 91
      501
 93
      404
310
41560B54985E51940902404000000000000E03F0000000000000F9010740501907004050150841D405064090740C02480A1B40
1001
ACAD
1000
AcDbSavedByObjectVersion
1070
     0
  0
XRECORD
  5
2A6
102
{ACAD_REACTORS
330
29C
102
}
330
29C
100
AcDbXrecord
340
0
  0
XRECORD
  5
2A5
102
{ACAD_REACTORS
330
29C
102
}
330
29C
100
AcDbXrecord
 90
        0
  0
XRECORD
  5
2BC
102
{ACAD_REACTORS
330
29C
102
}
330
29C
100
AcDbXrecord
1000
DSTYLE
1002
{
1070
   179
 70
     1
1070
   171
 70
     3
1070
   143
 40
0.03937
1070
   274
 70
     3
1070
   285
 70
     8
1070
    41
 40
2.5
1070
   141
 40
2.5
1070
   176
 70
     7
1070
   177
 70
     7
1070
   178
 70
     7
1070
   271
 70
     2
1070
    43
 40
3.75
1070
   278
 70
    44
1070
    44
 40
1.25
1070
    42
 40
0.625
1070
   147
 40
0.625
1070
   144
 40
3.0
1070
   371
 70
    13
1070
   372
 70
    13
1070
    77
 70
     1
1070
   272
 70
     2
1070
    73
 70
     0
1070
   172
 70
     1
1070
    74
 70
     0
1070
   283
 70
     0
1070
   340
340
73
1070
   140
 40
3.5
1070
   284
 70
     8
1070
   288
 70
     1
1070
    78
 70
     8
1002
}
  0
XRECORD
  5
2A7
102
{ACAD_REACTORS
330
29C
102
}
330
29C
100
AcDbXrecord
  1
{64373539-78b4-7979-6439-397965723479}
  0
XRECORD
  5
29F
102
{ACAD_REACTORS
330
29C
102
}
330
29C
100
AcDbXrecord
  1

  0
XRECORD
  5
2A4
102
{ACAD_REACTORS
330
29C
102
}
330
29C
100
AcDbXrecord
 90
        0
  0
XRECORD
  5
2A1
102
{ACAD_REACTORS
330
29C
102
}
330
29C
100
AcDbXrecord
340
1A
  0
XRECORD
  5
2A3
102
{ACAD_REACTORS
330
29C
102
}
330
29C
100
AcDbXrecord
 90
    10269
  0
XRECORD
  5
2A2
102
{ACAD_REACTORS
330
29C
102
}
330
29C
100
AcDbXrecord
340
19
  0
XRECORD
  5
2A9
102
{ACAD_REACTORS
330
29C
102
}
330
29C
100
AcDbXrecord
 40
0.0
  0
XRECORD
  5
2AC
102
{ACAD_REACTORS
330
29C
102
}
330
29C
100
AcDbXrecord
340
0
  0
XRECORD
  5
2B2
102
{ACAD_REACTORS
330
29C
102
}
330
29C
100
AcDbXrecord
 10
0.0
 20
0.0
 30
0.0
  0
XRECORD
  5
2AE
102
{ACAD_REACTORS
330
29C
102
}
330
29C
100
AcDbXrecord
 10
0.0
 20
0.0
 30
0.0
  0
XRECORD
  5
2B1
102
{ACAD_REACTORS
330
29C
102
}
330
29C
100
AcDbXrecord
 10
0.0
 20
0.0
 30
0.0
  0
XRECORD
  5
2AF
102
{ACAD_REACTORS
330
29C
102
}
330
29C
100
AcDbXrecord
 10
0.0
 20
0.0
 30
0.0
  0
XRECORD
  5
2B0
102
{ACAD_REACTORS
330
29C
102
}
330
29C
100
AcDbXrecord
 10
0.0
 20
0.0
 30
0.0
  0
XRECORD
  5
2AD
102
{ACAD_REACTORS
330
29C
102
}
330
29C
100
AcDbXrecord
 10
0.0
 20
0.0
 30
0.0
  0
XRECORD
  5
2AA
102
{ACAD_REACTORS
330
29C
102
}
330
29C
100
AcDbXrecord
340
0
  0
XRECORD
  5
2AB
102
{ACAD_REACTORS
330
29C
102
}
330
29C
100
AcDbXrecord
 70
     0
  0
XRECORD
  5
2A0
102
{ACAD_REACTORS
330
29C
102
}
330
29C
100
AcDbXrecord
  1

  0
XRECORD
  5
29D
102
{ACAD_REACTORS
330
29C
102
}
330
29C
100
AcDbXrecord
 90
        1
  0
XRECORD
  5
29E
102
{ACAD_REACTORS
330
29C
102
}
330
29C
100
AcDbXrecord
 90
       70
  0
XRECORD
  5
2B5
102
{ACAD_REACTORS
330
29C
102
}
330
29C
100
AcDbXrecord
340
0
  0
XRECORD
  5
2BB
102
{ACAD_REACTORS
330
29C
102
}
330
29C
100
AcDbXrecord
 10
0.0
 20
0.0
 30
0.0
  0
XRECORD
  5
2B7
102
{ACAD_REACTORS
330
29C
102
}
330
29C
100
AcDbXrecord
 10
0.0
 20
0.0
 30
0.0
  0
XRECORD
  5
2BA
102
{ACAD_REACTORS
330
29C
102
}
330
29C
100
AcDbXrecord
 10
0.0
 20
0.0
 30
0.0
  0
XRECORD
  5
2B8
102
{ACAD_REACTORS
330
29C
102
}
330
29C
100
AcDbXrecord
 10
0.0
 20
0.0
 30
0.0
  0
XRECORD
  5
2B9
102
{ACAD_REACTORS
330
29C
102
}
330
29C
100
AcDbXrecord
 10
0.0
 20
0.0
 30
0.0
  0
XRECORD
  5
2B6
102
{ACAD_REACTORS
330
29C
102
}
330
29C
100
AcDbXrecord
 10
0.0
 20
0.0
 30
0.0
  0
XRECORD
  5
2B3
102
{ACAD_REACTORS
330
29C
102
}
330
29C
100
AcDbXrecord
340
0
  0
XRECORD
  5
2B4
102
{ACAD_REACTORS
330
29C
102
}
330
29C
100
AcDbXrecord
 70
     0
  0
XRECORD
  5
2A8
102
{ACAD_REACTORS
330
29C
102
}
330
29C
100
AcDbXrecord
  1
{FAEB1C32-E019-11D5-929B-00C0DF256EC4}
  0
DICTIONARYVAR
  5
2CC
102
{ACAD_REACTORS
330
6E
102
}
330
6E
100
DictionaryVariables
280
     0
  1
1:1
  0
DICTIONARYVAR
  5
2BE
102
{ACAD_REACTORS
330
6E
102
}
330
6E
100
DictionaryVariables
280
     0
  1
Standard
  0
DICTIONARYVAR
  5
2BD
102
{ACAD_REACTORS
330
6E
102
}
330
6E
100
DictionaryVariables
280
     0
  1
Onshape-Standard
  0
DICTIONARYVAR
  5
2C1
102
{ACAD_REACTORS
330
6E
102
}
330
6E
100
DictionaryVariables
280
     0
  1
2
  0
DICTIONARYVAR
  5
2C2
102
{ACAD_REACTORS
330
6E
102
}
330
6E
100
DictionaryVariables
280
     0
  1
1
  0
DICTIONARYVAR
  5
2CD
102
{ACAD_REACTORS
330
6E
102
}
330
6E
100
DictionaryVariables
280
     0
  1
1
  0
DICTIONARYVAR
  5
6F
102
{ACAD_REACTORS
330
6E
102
}
330
6E
100
DictionaryVariables
280
     0
  1
0
  0
XRECORD
  5
23B
102
{ACAD_REACTORS
330
23A
102
}
330
23A
100
AcDbXrecord
 70
     0
  0
XRECORD
  5
23E
102
{ACAD_REACTORS
330
23A
102
}
330
23A
100
AcDbXrecord
 90
        0
  0
ACAD_PROXY_OBJECT
  5
244
102
{ACAD_REACTORS
330
23A
102
}
330
23A
100
AcDbProxyObject
 90
      499
 91
      512
 93
       34
310
40C8804040
  0
XRECORD
  5
243
102
{ACAD_REACTORS
330
23A
102
}
330
23A
100
AcDbXrecord
 90
        5
  0
XRECORD
  5
23F
102
{ACAD_REACTORS
330
23A
102
}
330
23A
100
AcDbXrecord
 90
        3
  0
XRECORD
  5
241
102
{ACAD_REACTORS
330
23A
102
}
330
23A
100
AcDbXrecord
 90
        0
  0
ACAD_PROXY_OBJECT
  5
242
102
{ACAD_REACTORS
330
23A
102
}
330
23A
100
AcDbProxyObject
 90
      499
 91
      512
 93
       34
310
40C8804040
  0
ACAD_PROXY_OBJECT
  5
240
102
{ACAD_REACTORS
330
23A
102
}
330
23A
100
AcDbProxyObject
 90
      499
 91
      512
 93
       34
310
40C8804040
  0
XRECORD
  5
23D
102
{ACAD_REACTORS
330
23A
102
}
330
23A
100
AcDbXrecord
 90
        0
  0
XRECORD
  5
23C
102
{ACAD_REACTORS
330
23A
102
}
330
23A
100
AcDbXrecord
 90
        1
  0
DICTIONARY
  5
2D0
330
45
100
AcDbDictionary
280
     1
  3
ACAD_XREC_ROUNDTRIP
360
2D1
  0
DICTIONARY
  5
2CE
330
44
100
AcDbDictionary
280
     1
  3
ACAD_XREC_ROUNDTRIP
360
2CF
  0
DICTIONARY
  5
2D2
330
46
100
AcDbDictionary
280
     1
  3
ACAD_XREC_ROUNDTRIP
360
2D3
  0
XRECORD
  5
2D1
102
{ACAD_REACTORS
330
2D0
102
}
330
2D0
100
AcDbXrecord
102
MATERIAL
148
0.0
149
0.0
149
0.0
 93
        0
 94
      127
282
     0
 72
     1
 77
     1
171
     1
175
     1
179
     1
273
     0
  0
XRECORD
  5
2CF
102
{ACAD_REACTORS
330
2CE
102
}
330
2CE
100
AcDbXrecord
102
MATERIAL
148
0.0
149
0.0
149
0.0
 93
        0
 94
      127
282
     0
 72
     1
 77
     1
171
     1
175
     1
179
     1
273
     0
  0
XRECORD
  5
2D3
102
{ACAD_REACTORS
330
2D2
102
}
330
2D2
100
AcDbXrecord
102
MATERIAL
148
0.0
149
0.0
149
0.0
 93
        0
 94
      127
282
     0
 72
     1
 77
     1
171
     1
175
     1
179
     1
273
     0
  0
ENDSEC
  0
EOF
