ISO-10303-21;
HEADER;
/*Generated by software containing ST-Developer
 * from STEP Tools, Inc. (www.steptools.com) 
 */
/*OPTION: using custom renumber hook */
/*description */
/*implementation_level */
FILE_DESCRIPTION(('STEP AP242 Edition 2','STEP AP242 Edition 2''CAx-IF Rec.Pracs.---Representation and Presentation of Product Manufa
cturing Information (PMI)---4.0---2014-10-13','STEP AP242 Edition 2''CAx-IF Rec.Pracs.---Representation and Presentation of Product Manufa
cturing Information (PMI)---4.0---2014-10-13''CAx-IF Rec.Pracs.---3D Tessellated Geometry---0.4---2014-09-14','STEP AP242 Edition 2''CAx-IF Rec.Pracs.---Representation and Presentation of Product Manufa
cturing Information (PMI)---4.0---2014-10-13''CAx-IF Rec.Pracs.---3D Tessellated Geometry---0.4---2014-09-14''2;1','STEP AP242 Edition 2''CAx-IF Rec.Pracs.---Representation and Presentation of Product Manufa
cturing Information (PMI)---4.0---2014-10-13''CAx-IF Rec.Pracs.---3D Tessellated Geometry---0.4---2014-09-14''2;1''CAx-IF Rec.Pracs.---User Defined Attributes---1.5---2016-08-15'),'2;1');
/*name */
/*time_stamp */
/*author */
/*organization */
/*preprocessor_version */
/*originating_system */
/*authorisation */
FILE_NAME('/vol/tmp/translate-3559784310627412828/69ad58a702d78c505ae2e67d.step','2026-03-08T11:08:24',(''),(''),'ST-DEVELOPER v20','ONSHAPE BY PTC INC, 1.211','  ');
FILE_SCHEMA(('AP242_MANAGED_MODEL_BASED_3D_ENGINEERING_MIM_LF { 1 0 10303 442 3 1 4 }'));
ENDSEC;
DATA;
#10=VERTEX_LOOP('',#397);
#11=VERTEX_LOOP('',#399);
#12=LINE('',#1356,#24);
#13=LINE('',#1359,#25);
#14=LINE('',#1361,#26);
#15=LINE('',#1363,#27);
#16=LINE('',#1365,#28);
#17=LINE('',#1367,#29);
#18=LINE('',#1369,#30);
#19=LINE('',#1371,#31);
#20=LINE('',#1373,#32);
#21=LINE('',#1375,#33);
#22=LINE('',#1377,#34);
#23=LINE('',#1378,#35);
#24=VECTOR('',#1131,1.);
#25=VECTOR('',#1132,1.);
#26=VECTOR('',#1133,1.);
#27=VECTOR('',#1134,1.);
#28=VECTOR('',#1137,1.);
#29=VECTOR('',#1138,1.);
#30=VECTOR('',#1139,1.);
#31=VECTOR('',#1142,1.);
#32=VECTOR('',#1143,1.);
#33=VECTOR('',#1144,1.);
#34=VECTOR('',#1147,1.);
#35=VECTOR('',#1148,1.);
#36=CONICAL_SURFACE('',#901,0.008225,0.265781903440384);
#37=CONICAL_SURFACE('',#907,0.01125,0.558599315343562);
#38=CONICAL_SURFACE('',#993,0.0033,1.02974425867665);
#39=CONICAL_SURFACE('',#996,0.0033,1.02974425867665);
#40=TOROIDAL_SURFACE('',#900,0.0076,0.0005);
#41=TOROIDAL_SURFACE('',#902,0.0093,0.0008);
#42=TOROIDAL_SURFACE('',#920,0.015,0.01);
#43=TOROIDAL_SURFACE('',#927,0.015,0.009);
#44=CONTEXT_DEPENDENT_SHAPE_REPRESENTATION(#60,#1492);
#45=CONTEXT_DEPENDENT_SHAPE_REPRESENTATION(#61,#1494);
#46=CONTEXT_DEPENDENT_SHAPE_REPRESENTATION(#62,#1496);
#47=CONTEXT_DEPENDENT_SHAPE_REPRESENTATION(#63,#1498);
#48=CONTEXT_DEPENDENT_SHAPE_REPRESENTATION(#64,#1500);
#49=CONTEXT_DEPENDENT_SHAPE_REPRESENTATION(#65,#1501);
#50=CONTEXT_DEPENDENT_SHAPE_REPRESENTATION(#66,#1503);
#51=CONTEXT_DEPENDENT_SHAPE_REPRESENTATION(#67,#1504);
#52=NEXT_ASSEMBLY_USAGE_OCCURRENCE('NAUO1','pipe_30','pipe_30',#1505,#1506,'');
#53=NEXT_ASSEMBLY_USAGE_OCCURRENCE('NAUO2','red_25_50','red_25_50',#1505,#1507,'');
#54=NEXT_ASSEMBLY_USAGE_OCCURRENCE('NAUO3','pipe_150','pipe_150',#1505,#1508,'');
#55=NEXT_ASSEMBLY_USAGE_OCCURRENCE('NAUO4','90','90',#1505,#1509,'');
#56=NEXT_ASSEMBLY_USAGE_OCCURRENCE('NAUO5','Part 1','Part 1',#1505,#1510,'');
#57=NEXT_ASSEMBLY_USAGE_OCCURRENCE('NAUO6','Part 1','Part 1',#1505,#1510,'');
#58=NEXT_ASSEMBLY_USAGE_OCCURRENCE('NAUO7','lid_plate','lid_plate',#1505,#1511,'');
#59=NEXT_ASSEMBLY_USAGE_OCCURRENCE('NAUO8','90','90',#1505,#1509,'');
#60=(
REPRESENTATION_RELATIONSHIP(' ',' ',#870,#869)
REPRESENTATION_RELATIONSHIP_WITH_TRANSFORMATION(#68)
SHAPE_REPRESENTATION_RELATIONSHIP()
);
#61=(
REPRESENTATION_RELATIONSHIP(' ',' ',#871,#869)
REPRESENTATION_RELATIONSHIP_WITH_TRANSFORMATION(#69)
SHAPE_REPRESENTATION_RELATIONSHIP()
);
#62=(
REPRESENTATION_RELATIONSHIP(' ',' ',#872,#869)
REPRESENTATION_RELATIONSHIP_WITH_TRANSFORMATION(#70)
SHAPE_REPRESENTATION_RELATIONSHIP()
);
#63=(
REPRESENTATION_RELATIONSHIP(' ',' ',#873,#869)
REPRESENTATION_RELATIONSHIP_WITH_TRANSFORMATION(#71)
SHAPE_REPRESENTATION_RELATIONSHIP()
);
#64=(
REPRESENTATION_RELATIONSHIP(' ',' ',#874,#869)
REPRESENTATION_RELATIONSHIP_WITH_TRANSFORMATION(#72)
SHAPE_REPRESENTATION_RELATIONSHIP()
);
#65=(
REPRESENTATION_RELATIONSHIP(' ',' ',#874,#869)
REPRESENTATION_RELATIONSHIP_WITH_TRANSFORMATION(#73)
SHAPE_REPRESENTATION_RELATIONSHIP()
);
#66=(
REPRESENTATION_RELATIONSHIP(' ',' ',#875,#869)
REPRESENTATION_RELATIONSHIP_WITH_TRANSFORMATION(#74)
SHAPE_REPRESENTATION_RELATIONSHIP()
);
#67=(
REPRESENTATION_RELATIONSHIP(' ',' ',#873,#869)
REPRESENTATION_RELATIONSHIP_WITH_TRANSFORMATION(#75)
SHAPE_REPRESENTATION_RELATIONSHIP()
);
#68=ITEM_DEFINED_TRANSFORMATION(' ',' ',#876,#885);
#69=ITEM_DEFINED_TRANSFORMATION(' ',' ',#876,#910);
#70=ITEM_DEFINED_TRANSFORMATION(' ',' ',#876,#919);
#71=ITEM_DEFINED_TRANSFORMATION(' ',' ',#876,#928);
#72=ITEM_DEFINED_TRANSFORMATION(' ',' ',#876,#938);
#73=ITEM_DEFINED_TRANSFORMATION(' ',' ',#876,#939);
#74=ITEM_DEFINED_TRANSFORMATION(' ',' ',#876,#999);
#75=ITEM_DEFINED_TRANSFORMATION(' ',' ',#876,#1000);
#76=SHAPE_REPRESENTATION_RELATIONSHIP('','',#870,#82);
#77=SHAPE_REPRESENTATION_RELATIONSHIP('','',#871,#83);
#78=SHAPE_REPRESENTATION_RELATIONSHIP('','',#872,#84);
#79=SHAPE_REPRESENTATION_RELATIONSHIP('','',#873,#85);
#80=SHAPE_REPRESENTATION_RELATIONSHIP('','',#874,#86);
#81=SHAPE_REPRESENTATION_RELATIONSHIP('','',#875,#87);
#82=ADVANCED_BREP_SHAPE_REPRESENTATION('',(#856),#1474);
#83=ADVANCED_BREP_SHAPE_REPRESENTATION('',(#857),#1475);
#84=ADVANCED_BREP_SHAPE_REPRESENTATION('',(#858),#1476);
#85=ADVANCED_BREP_SHAPE_REPRESENTATION('',(#859),#1477);
#86=ADVANCED_BREP_SHAPE_REPRESENTATION('',(#860),#1478);
#87=ADVANCED_BREP_SHAPE_REPRESENTATION('',(#861),#1479);
#88=PLANE('',#883);
#89=PLANE('',#884);
#90=PLANE('',#886);
#91=PLANE('',#889);
#92=PLANE('',#892);
#93=PLANE('',#895);
#94=PLANE('',#917);
#95=PLANE('',#918);
#96=PLANE('',#923);
#97=PLANE('',#925);
#98=PLANE('',#932);
#99=PLANE('',#934);
#100=PLANE('',#937);
#101=PLANE('',#940);
#102=PLANE('',#941);
#103=PLANE('',#942);
#104=PLANE('',#943);
#105=PLANE('',#944);
#106=PLANE('',#962);
#107=ORIENTED_EDGE('',*,*,#255,.T.);
#108=ORIENTED_EDGE('',*,*,#256,.F.);
#109=ORIENTED_EDGE('',*,*,#257,.F.);
#110=ORIENTED_EDGE('',*,*,#258,.T.);
#111=ORIENTED_EDGE('',*,*,#255,.F.);
#112=ORIENTED_EDGE('',*,*,#257,.T.);
#113=ORIENTED_EDGE('',*,*,#256,.T.);
#114=ORIENTED_EDGE('',*,*,#258,.F.);
#115=ORIENTED_EDGE('',*,*,#259,.T.);
#116=ORIENTED_EDGE('',*,*,#260,.F.);
#117=ORIENTED_EDGE('',*,*,#261,.T.);
#118=ORIENTED_EDGE('',*,*,#262,.F.);
#119=ORIENTED_EDGE('',*,*,#263,.T.);
#120=ORIENTED_EDGE('',*,*,#264,.F.);
#121=ORIENTED_EDGE('',*,*,#265,.T.);
#122=ORIENTED_EDGE('',*,*,#266,.F.);
#123=ORIENTED_EDGE('',*,*,#267,.F.);
#124=ORIENTED_EDGE('',*,*,#260,.T.);
#125=ORIENTED_EDGE('',*,*,#267,.T.);
#126=ORIENTED_EDGE('',*,*,#265,.F.);
#127=ORIENTED_EDGE('',*,*,#263,.F.);
#128=ORIENTED_EDGE('',*,*,#266,.T.);
#129=ORIENTED_EDGE('',*,*,#268,.F.);
#130=ORIENTED_EDGE('',*,*,#264,.T.);
#131=ORIENTED_EDGE('',*,*,#261,.F.);
#132=ORIENTED_EDGE('',*,*,#268,.T.);
#133=ORIENTED_EDGE('',*,*,#262,.T.);
#134=ORIENTED_EDGE('',*,*,#269,.F.);
#135=ORIENTED_EDGE('',*,*,#269,.T.);
#136=ORIENTED_EDGE('',*,*,#270,.F.);
#137=ORIENTED_EDGE('',*,*,#270,.T.);
#138=ORIENTED_EDGE('',*,*,#259,.F.);
#139=ORIENTED_EDGE('',*,*,#271,.T.);
#140=ORIENTED_EDGE('',*,*,#272,.F.);
#141=ORIENTED_EDGE('',*,*,#273,.F.);
#142=ORIENTED_EDGE('',*,*,#274,.T.);
#143=ORIENTED_EDGE('',*,*,#271,.F.);
#144=ORIENTED_EDGE('',*,*,#273,.T.);
#145=ORIENTED_EDGE('',*,*,#272,.T.);
#146=ORIENTED_EDGE('',*,*,#274,.F.);
#147=ORIENTED_EDGE('',*,*,#275,.F.);
#148=ORIENTED_EDGE('',*,*,#276,.T.);
#149=ORIENTED_EDGE('',*,*,#277,.F.);
#150=ORIENTED_EDGE('',*,*,#275,.T.);
#151=ORIENTED_EDGE('',*,*,#278,.T.);
#152=ORIENTED_EDGE('',*,*,#276,.F.);
#153=ORIENTED_EDGE('',*,*,#277,.T.);
#154=ORIENTED_EDGE('',*,*,#278,.F.);
#155=ORIENTED_EDGE('',*,*,#279,.F.);
#156=ORIENTED_EDGE('',*,*,#280,.T.);
#157=ORIENTED_EDGE('',*,*,#281,.F.);
#158=ORIENTED_EDGE('',*,*,#279,.T.);
#159=ORIENTED_EDGE('',*,*,#280,.F.);
#160=ORIENTED_EDGE('',*,*,#281,.T.);
#161=ORIENTED_EDGE('',*,*,#282,.F.);
#162=ORIENTED_EDGE('',*,*,#282,.T.);
#163=ORIENTED_EDGE('',*,*,#283,.F.);
#164=ORIENTED_EDGE('',*,*,#284,.F.);
#165=ORIENTED_EDGE('',*,*,#285,.T.);
#166=ORIENTED_EDGE('',*,*,#286,.T.);
#167=ORIENTED_EDGE('',*,*,#287,.T.);
#168=ORIENTED_EDGE('',*,*,#288,.F.);
#169=ORIENTED_EDGE('',*,*,#289,.F.);
#170=ORIENTED_EDGE('',*,*,#284,.T.);
#171=ORIENTED_EDGE('',*,*,#290,.T.);
#172=ORIENTED_EDGE('',*,*,#291,.F.);
#173=ORIENTED_EDGE('',*,*,#292,.F.);
#174=ORIENTED_EDGE('',*,*,#288,.T.);
#175=ORIENTED_EDGE('',*,*,#293,.F.);
#176=ORIENTED_EDGE('',*,*,#286,.F.);
#177=ORIENTED_EDGE('',*,*,#294,.T.);
#178=ORIENTED_EDGE('',*,*,#291,.T.);
#179=ORIENTED_EDGE('',*,*,#295,.T.);
#180=ORIENTED_EDGE('',*,*,#296,.T.);
#181=ORIENTED_EDGE('',*,*,#297,.T.);
#182=ORIENTED_EDGE('',*,*,#298,.T.);
#183=ORIENTED_EDGE('',*,*,#299,.T.);
#184=ORIENTED_EDGE('',*,*,#300,.T.);
#185=ORIENTED_EDGE('',*,*,#301,.T.);
#186=ORIENTED_EDGE('',*,*,#302,.T.);
#187=ORIENTED_EDGE('',*,*,#303,.T.);
#188=ORIENTED_EDGE('',*,*,#304,.T.);
#189=ORIENTED_EDGE('',*,*,#305,.T.);
#190=ORIENTED_EDGE('',*,*,#306,.T.);
#191=ORIENTED_EDGE('',*,*,#307,.T.);
#192=ORIENTED_EDGE('',*,*,#308,.T.);
#193=ORIENTED_EDGE('',*,*,#309,.T.);
#194=ORIENTED_EDGE('',*,*,#310,.T.);
#195=ORIENTED_EDGE('',*,*,#311,.T.);
#196=ORIENTED_EDGE('',*,*,#285,.F.);
#197=ORIENTED_EDGE('',*,*,#289,.T.);
#198=ORIENTED_EDGE('',*,*,#292,.T.);
#199=ORIENTED_EDGE('',*,*,#294,.F.);
#200=ORIENTED_EDGE('',*,*,#312,.F.);
#201=ORIENTED_EDGE('',*,*,#313,.F.);
#202=ORIENTED_EDGE('',*,*,#314,.F.);
#203=ORIENTED_EDGE('',*,*,#315,.F.);
#204=ORIENTED_EDGE('',*,*,#316,.F.);
#205=ORIENTED_EDGE('',*,*,#317,.F.);
#206=ORIENTED_EDGE('',*,*,#318,.F.);
#207=ORIENTED_EDGE('',*,*,#319,.F.);
#208=ORIENTED_EDGE('',*,*,#320,.F.);
#209=ORIENTED_EDGE('',*,*,#321,.F.);
#210=ORIENTED_EDGE('',*,*,#322,.F.);
#211=ORIENTED_EDGE('',*,*,#323,.F.);
#212=ORIENTED_EDGE('',*,*,#324,.F.);
#213=ORIENTED_EDGE('',*,*,#325,.F.);
#214=ORIENTED_EDGE('',*,*,#326,.F.);
#215=ORIENTED_EDGE('',*,*,#283,.T.);
#216=ORIENTED_EDGE('',*,*,#293,.T.);
#217=ORIENTED_EDGE('',*,*,#290,.F.);
#218=ORIENTED_EDGE('',*,*,#287,.F.);
#219=ORIENTED_EDGE('',*,*,#326,.T.);
#220=ORIENTED_EDGE('',*,*,#311,.F.);
#221=ORIENTED_EDGE('',*,*,#325,.T.);
#222=ORIENTED_EDGE('',*,*,#310,.F.);
#223=ORIENTED_EDGE('',*,*,#324,.T.);
#224=ORIENTED_EDGE('',*,*,#309,.F.);
#225=ORIENTED_EDGE('',*,*,#323,.T.);
#226=ORIENTED_EDGE('',*,*,#308,.F.);
#227=ORIENTED_EDGE('',*,*,#322,.T.);
#228=ORIENTED_EDGE('',*,*,#307,.F.);
#229=ORIENTED_EDGE('',*,*,#321,.T.);
#230=ORIENTED_EDGE('',*,*,#306,.F.);
#231=ORIENTED_EDGE('',*,*,#320,.T.);
#232=ORIENTED_EDGE('',*,*,#305,.F.);
#233=ORIENTED_EDGE('',*,*,#319,.T.);
#234=ORIENTED_EDGE('',*,*,#304,.F.);
#235=ORIENTED_EDGE('',*,*,#318,.T.);
#236=ORIENTED_EDGE('',*,*,#303,.F.);
#237=ORIENTED_EDGE('',*,*,#317,.T.);
#238=ORIENTED_EDGE('',*,*,#302,.F.);
#239=ORIENTED_EDGE('',*,*,#316,.T.);
#240=ORIENTED_EDGE('',*,*,#301,.F.);
#241=ORIENTED_EDGE('',*,*,#315,.T.);
#242=ORIENTED_EDGE('',*,*,#300,.F.);
#243=ORIENTED_EDGE('',*,*,#314,.T.);
#244=ORIENTED_EDGE('',*,*,#299,.F.);
#245=ORIENTED_EDGE('',*,*,#313,.T.);
#246=ORIENTED_EDGE('',*,*,#298,.F.);
#247=ORIENTED_EDGE('',*,*,#312,.T.);
#248=ORIENTED_EDGE('',*,*,#297,.F.);
#249=ORIENTED_EDGE('',*,*,#327,.F.);
#250=ORIENTED_EDGE('',*,*,#327,.T.);
#251=ORIENTED_EDGE('',*,*,#296,.F.);
#252=ORIENTED_EDGE('',*,*,#328,.F.);
#253=ORIENTED_EDGE('',*,*,#328,.T.);
#254=ORIENTED_EDGE('',*,*,#295,.F.);
#255=EDGE_CURVE('',#329,#329,#401,.T.);
#256=EDGE_CURVE('',#330,#330,#402,.T.);
#257=EDGE_CURVE('',#331,#331,#403,.T.);
#258=EDGE_CURVE('',#332,#332,#404,.T.);
#259=EDGE_CURVE('',#333,#333,#405,.T.);
#260=EDGE_CURVE('',#334,#334,#406,.T.);
#261=EDGE_CURVE('',#335,#335,#407,.T.);
#262=EDGE_CURVE('',#336,#336,#408,.T.);
#263=EDGE_CURVE('',#337,#337,#409,.T.);
#264=EDGE_CURVE('',#338,#338,#410,.T.);
#265=EDGE_CURVE('',#339,#339,#411,.T.);
#266=EDGE_CURVE('',#340,#340,#412,.T.);
#267=EDGE_CURVE('',#341,#341,#413,.T.);
#268=EDGE_CURVE('',#342,#342,#414,.T.);
#269=EDGE_CURVE('',#343,#343,#415,.T.);
#270=EDGE_CURVE('',#344,#344,#416,.T.);
#271=EDGE_CURVE('',#345,#345,#417,.T.);
#272=EDGE_CURVE('',#346,#346,#418,.T.);
#273=EDGE_CURVE('',#347,#347,#419,.T.);
#274=EDGE_CURVE('',#348,#348,#420,.T.);
#275=EDGE_CURVE('',#349,#349,#421,.T.);
#276=EDGE_CURVE('',#350,#350,#422,.T.);
#277=EDGE_CURVE('',#351,#351,#423,.T.);
#278=EDGE_CURVE('',#352,#352,#424,.T.);
#279=EDGE_CURVE('',#353,#353,#425,.T.);
#280=EDGE_CURVE('',#354,#354,#426,.T.);
#281=EDGE_CURVE('',#355,#355,#427,.T.);
#282=EDGE_CURVE('',#356,#356,#428,.T.);
#283=EDGE_CURVE('',#357,#358,#12,.T.);
#284=EDGE_CURVE('',#359,#357,#13,.T.);
#285=EDGE_CURVE('',#359,#360,#14,.T.);
#286=EDGE_CURVE('',#360,#358,#15,.T.);
#287=EDGE_CURVE('',#357,#361,#16,.T.);
#288=EDGE_CURVE('',#362,#361,#17,.T.);
#289=EDGE_CURVE('',#359,#362,#18,.T.);
#290=EDGE_CURVE('',#361,#363,#19,.T.);
#291=EDGE_CURVE('',#364,#363,#20,.T.);
#292=EDGE_CURVE('',#362,#364,#21,.T.);
#293=EDGE_CURVE('',#358,#363,#22,.T.);
#294=EDGE_CURVE('',#360,#364,#23,.T.);
#295=EDGE_CURVE('',#365,#365,#429,.T.);
#296=EDGE_CURVE('',#366,#366,#430,.T.);
#297=EDGE_CURVE('',#367,#367,#431,.T.);
#298=EDGE_CURVE('',#368,#368,#432,.T.);
#299=EDGE_CURVE('',#369,#369,#433,.T.);
#300=EDGE_CURVE('',#370,#370,#434,.T.);
#301=EDGE_CURVE('',#371,#371,#435,.T.);
#302=EDGE_CURVE('',#372,#372,#436,.T.);
#303=EDGE_CURVE('',#373,#373,#437,.T.);
#304=EDGE_CURVE('',#374,#374,#438,.T.);
#305=EDGE_CURVE('',#375,#375,#439,.T.);
#306=EDGE_CURVE('',#376,#376,#440,.T.);
#307=EDGE_CURVE('',#377,#377,#441,.T.);
#308=EDGE_CURVE('',#378,#378,#442,.T.);
#309=EDGE_CURVE('',#379,#379,#443,.T.);
#310=EDGE_CURVE('',#380,#380,#444,.T.);
#311=EDGE_CURVE('',#381,#381,#445,.T.);
#312=EDGE_CURVE('',#382,#382,#446,.T.);
#313=EDGE_CURVE('',#383,#383,#447,.T.);
#314=EDGE_CURVE('',#384,#384,#448,.T.);
#315=EDGE_CURVE('',#385,#385,#449,.T.);
#316=EDGE_CURVE('',#386,#386,#450,.T.);
#317=EDGE_CURVE('',#387,#387,#451,.T.);
#318=EDGE_CURVE('',#388,#388,#452,.T.);
#319=EDGE_CURVE('',#389,#389,#453,.T.);
#320=EDGE_CURVE('',#390,#390,#454,.T.);
#321=EDGE_CURVE('',#391,#391,#455,.T.);
#322=EDGE_CURVE('',#392,#392,#456,.T.);
#323=EDGE_CURVE('',#393,#393,#457,.T.);
#324=EDGE_CURVE('',#394,#394,#458,.T.);
#325=EDGE_CURVE('',#395,#395,#459,.T.);
#326=EDGE_CURVE('',#396,#396,#460,.T.);
#327=EDGE_CURVE('',#398,#398,#461,.T.);
#328=EDGE_CURVE('',#400,#400,#462,.T.);
#329=VERTEX_POINT('',#1266);
#330=VERTEX_POINT('',#1268);
#331=VERTEX_POINT('',#1271);
#332=VERTEX_POINT('',#1273);
#333=VERTEX_POINT('',#1279);
#334=VERTEX_POINT('',#1281);
#335=VERTEX_POINT('',#1284);
#336=VERTEX_POINT('',#1286);
#337=VERTEX_POINT('',#1289);
#338=VERTEX_POINT('',#1291);
#339=VERTEX_POINT('',#1294);
#340=VERTEX_POINT('',#1296);
#341=VERTEX_POINT('',#1299);
#342=VERTEX_POINT('',#1304);
#343=VERTEX_POINT('',#1308);
#344=VERTEX_POINT('',#1311);
#345=VERTEX_POINT('',#1316);
#346=VERTEX_POINT('',#1318);
#347=VERTEX_POINT('',#1321);
#348=VERTEX_POINT('',#1323);
#349=VERTEX_POINT('',#1329);
#350=VERTEX_POINT('',#1331);
#351=VERTEX_POINT('',#1334);
#352=VERTEX_POINT('',#1337);
#353=VERTEX_POINT('',#1342);
#354=VERTEX_POINT('',#1344);
#355=VERTEX_POINT('',#1347);
#356=VERTEX_POINT('',#1351);
#357=VERTEX_POINT('',#1357);
#358=VERTEX_POINT('',#1358);
#359=VERTEX_POINT('',#1360);
#360=VERTEX_POINT('',#1362);
#361=VERTEX_POINT('',#1366);
#362=VERTEX_POINT('',#1368);
#363=VERTEX_POINT('',#1372);
#364=VERTEX_POINT('',#1374);
#365=VERTEX_POINT('',#1381);
#366=VERTEX_POINT('',#1383);
#367=VERTEX_POINT('',#1385);
#368=VERTEX_POINT('',#1387);
#369=VERTEX_POINT('',#1389);
#370=VERTEX_POINT('',#1391);
#371=VERTEX_POINT('',#1393);
#372=VERTEX_POINT('',#1395);
#373=VERTEX_POINT('',#1397);
#374=VERTEX_POINT('',#1399);
#375=VERTEX_POINT('',#1401);
#376=VERTEX_POINT('',#1403);
#377=VERTEX_POINT('',#1405);
#378=VERTEX_POINT('',#1407);
#379=VERTEX_POINT('',#1409);
#380=VERTEX_POINT('',#1411);
#381=VERTEX_POINT('',#1413);
#382=VERTEX_POINT('',#1416);
#383=VERTEX_POINT('',#1418);
#384=VERTEX_POINT('',#1420);
#385=VERTEX_POINT('',#1422);
#386=VERTEX_POINT('',#1424);
#387=VERTEX_POINT('',#1426);
#388=VERTEX_POINT('',#1428);
#389=VERTEX_POINT('',#1430);
#390=VERTEX_POINT('',#1432);
#391=VERTEX_POINT('',#1434);
#392=VERTEX_POINT('',#1436);
#393=VERTEX_POINT('',#1438);
#394=VERTEX_POINT('',#1440);
#395=VERTEX_POINT('',#1442);
#396=VERTEX_POINT('',#1444);
#397=VERTEX_POINT('',#1461);
#398=VERTEX_POINT('',#1463);
#399=VERTEX_POINT('',#1466);
#400=VERTEX_POINT('',#1468);
#401=CIRCLE('',#878,0.009);
#402=CIRCLE('',#879,0.009);
#403=CIRCLE('',#881,0.01);
#404=CIRCLE('',#882,0.01);
#405=CIRCLE('',#887,0.01);
#406=CIRCLE('',#888,0.0081);
#407=CIRCLE('',#890,0.0101);
#408=CIRCLE('',#891,0.0125);
#409=CIRCLE('',#893,0.00945);
#410=CIRCLE('',#894,0.0093);
#411=CIRCLE('',#896,0.0076);
#412=CIRCLE('',#897,0.007);
#413=CIRCLE('',#899,0.0081);
#414=CIRCLE('',#903,0.0101);
#415=CIRCLE('',#906,0.0125);
#416=CIRCLE('',#908,0.01);
#417=CIRCLE('',#912,0.009);
#418=CIRCLE('',#913,0.009);
#419=CIRCLE('',#915,0.01);
#420=CIRCLE('',#916,0.01);
#421=CIRCLE('',#921,0.01);
#422=CIRCLE('',#922,0.01);
#423=CIRCLE('',#924,0.009);
#424=CIRCLE('',#926,0.009);
#425=CIRCLE('',#930,0.052);
#426=CIRCLE('',#931,0.052);
#427=CIRCLE('',#933,0.045);
#428=CIRCLE('',#936,0.045);
#429=CIRCLE('',#945,0.0033);
#430=CIRCLE('',#946,0.0033);
#431=CIRCLE('',#947,0.052);
#432=CIRCLE('',#948,0.052);
#433=CIRCLE('',#949,0.0033);
#434=CIRCLE('',#950,0.0033);
#435=CIRCLE('',#951,0.0033);
#436=CIRCLE('',#952,0.0033);
#437=CIRCLE('',#953,0.0033);
#438=CIRCLE('',#954,0.0033);
#439=CIRCLE('',#955,0.0033);
#440=CIRCLE('',#956,0.0033);
#441=CIRCLE('',#957,0.0033);
#442=CIRCLE('',#958,0.0033);
#443=CIRCLE('',#959,0.0033);
#444=CIRCLE('',#960,0.0033);
#445=CIRCLE('',#961,0.01);
#446=CIRCLE('',#963,0.052);
#447=CIRCLE('',#964,0.052);
#448=CIRCLE('',#965,0.0033);
#449=CIRCLE('',#966,0.0033);
#450=CIRCLE('',#967,0.0033);
#451=CIRCLE('',#968,0.0033);
#452=CIRCLE('',#969,0.0033);
#453=CIRCLE('',#970,0.0033);
#454=CIRCLE('',#971,0.0033);
#455=CIRCLE('',#972,0.0033);
#456=CIRCLE('',#973,0.0033);
#457=CIRCLE('',#974,0.0033);
#458=CIRCLE('',#975,0.0033);
#459=CIRCLE('',#976,0.0033);
#460=CIRCLE('',#977,0.01);
#461=CIRCLE('',#994,0.0033);
#462=CIRCLE('',#997,0.0033);
#463=EDGE_LOOP('',(#107));
#464=EDGE_LOOP('',(#108));
#465=EDGE_LOOP('',(#109));
#466=EDGE_LOOP('',(#110));
#467=EDGE_LOOP('',(#111));
#468=EDGE_LOOP('',(#112));
#469=EDGE_LOOP('',(#113));
#470=EDGE_LOOP('',(#114));
#471=EDGE_LOOP('',(#115));
#472=EDGE_LOOP('',(#116));
#473=EDGE_LOOP('',(#117));
#474=EDGE_LOOP('',(#118));
#475=EDGE_LOOP('',(#119));
#476=EDGE_LOOP('',(#120));
#477=EDGE_LOOP('',(#121));
#478=EDGE_LOOP('',(#122));
#479=EDGE_LOOP('',(#123));
#480=EDGE_LOOP('',(#124));
#481=EDGE_LOOP('',(#125));
#482=EDGE_LOOP('',(#126));
#483=EDGE_LOOP('',(#127));
#484=EDGE_LOOP('',(#128));
#485=EDGE_LOOP('',(#129));
#486=EDGE_LOOP('',(#130));
#487=EDGE_LOOP('',(#131));
#488=EDGE_LOOP('',(#132));
#489=EDGE_LOOP('',(#133));
#490=EDGE_LOOP('',(#134));
#491=EDGE_LOOP('',(#135));
#492=EDGE_LOOP('',(#136));
#493=EDGE_LOOP('',(#137));
#494=EDGE_LOOP('',(#138));
#495=EDGE_LOOP('',(#139));
#496=EDGE_LOOP('',(#140));
#497=EDGE_LOOP('',(#141));
#498=EDGE_LOOP('',(#142));
#499=EDGE_LOOP('',(#143));
#500=EDGE_LOOP('',(#144));
#501=EDGE_LOOP('',(#145));
#502=EDGE_LOOP('',(#146));
#503=EDGE_LOOP('',(#147));
#504=EDGE_LOOP('',(#148));
#505=EDGE_LOOP('',(#149));
#506=EDGE_LOOP('',(#150));
#507=EDGE_LOOP('',(#151));
#508=EDGE_LOOP('',(#152));
#509=EDGE_LOOP('',(#153));
#510=EDGE_LOOP('',(#154));
#511=EDGE_LOOP('',(#155));
#512=EDGE_LOOP('',(#156));
#513=EDGE_LOOP('',(#157));
#514=EDGE_LOOP('',(#158));
#515=EDGE_LOOP('',(#159));
#516=EDGE_LOOP('',(#160));
#517=EDGE_LOOP('',(#161));
#518=EDGE_LOOP('',(#162));
#519=EDGE_LOOP('',(#163,#164,#165,#166));
#520=EDGE_LOOP('',(#167,#168,#169,#170));
#521=EDGE_LOOP('',(#171,#172,#173,#174));
#522=EDGE_LOOP('',(#175,#176,#177,#178));
#523=EDGE_LOOP('',(#179));
#524=EDGE_LOOP('',(#180));
#525=EDGE_LOOP('',(#181));
#526=EDGE_LOOP('',(#182));
#527=EDGE_LOOP('',(#183));
#528=EDGE_LOOP('',(#184));
#529=EDGE_LOOP('',(#185));
#530=EDGE_LOOP('',(#186));
#531=EDGE_LOOP('',(#187));
#532=EDGE_LOOP('',(#188));
#533=EDGE_LOOP('',(#189));
#534=EDGE_LOOP('',(#190));
#535=EDGE_LOOP('',(#191));
#536=EDGE_LOOP('',(#192));
#537=EDGE_LOOP('',(#193));
#538=EDGE_LOOP('',(#194));
#539=EDGE_LOOP('',(#195));
#540=EDGE_LOOP('',(#196,#197,#198,#199));
#541=EDGE_LOOP('',(#200));
#542=EDGE_LOOP('',(#201));
#543=EDGE_LOOP('',(#202));
#544=EDGE_LOOP('',(#203));
#545=EDGE_LOOP('',(#204));
#546=EDGE_LOOP('',(#205));
#547=EDGE_LOOP('',(#206));
#548=EDGE_LOOP('',(#207));
#549=EDGE_LOOP('',(#208));
#550=EDGE_LOOP('',(#209));
#551=EDGE_LOOP('',(#210));
#552=EDGE_LOOP('',(#211));
#553=EDGE_LOOP('',(#212));
#554=EDGE_LOOP('',(#213));
#555=EDGE_LOOP('',(#214));
#556=EDGE_LOOP('',(#215,#216,#217,#218));
#557=EDGE_LOOP('',(#219));
#558=EDGE_LOOP('',(#220));
#559=EDGE_LOOP('',(#221));
#560=EDGE_LOOP('',(#222));
#561=EDGE_LOOP('',(#223));
#562=EDGE_LOOP('',(#224));
#563=EDGE_LOOP('',(#225));
#564=EDGE_LOOP('',(#226));
#565=EDGE_LOOP('',(#227));
#566=EDGE_LOOP('',(#228));
#567=EDGE_LOOP('',(#229));
#568=EDGE_LOOP('',(#230));
#569=EDGE_LOOP('',(#231));
#570=EDGE_LOOP('',(#232));
#571=EDGE_LOOP('',(#233));
#572=EDGE_LOOP('',(#234));
#573=EDGE_LOOP('',(#235));
#574=EDGE_LOOP('',(#236));
#575=EDGE_LOOP('',(#237));
#576=EDGE_LOOP('',(#238));
#577=EDGE_LOOP('',(#239));
#578=EDGE_LOOP('',(#240));
#579=EDGE_LOOP('',(#241));
#580=EDGE_LOOP('',(#242));
#581=EDGE_LOOP('',(#243));
#582=EDGE_LOOP('',(#244));
#583=EDGE_LOOP('',(#245));
#584=EDGE_LOOP('',(#246));
#585=EDGE_LOOP('',(#247));
#586=EDGE_LOOP('',(#248));
#587=EDGE_LOOP('',(#249));
#588=EDGE_LOOP('',(#250));
#589=EDGE_LOOP('',(#251));
#590=EDGE_LOOP('',(#252));
#591=EDGE_LOOP('',(#253));
#592=EDGE_LOOP('',(#254));
#593=FACE_BOUND('',#463,.T.);
#594=FACE_BOUND('',#464,.T.);
#595=FACE_BOUND('',#465,.T.);
#596=FACE_BOUND('',#466,.T.);
#597=FACE_BOUND('',#467,.T.);
#598=FACE_BOUND('',#468,.T.);
#599=FACE_BOUND('',#469,.T.);
#600=FACE_BOUND('',#470,.T.);
#601=FACE_BOUND('',#471,.T.);
#602=FACE_BOUND('',#472,.T.);
#603=FACE_BOUND('',#473,.T.);
#604=FACE_BOUND('',#474,.T.);
#605=FACE_BOUND('',#475,.T.);
#606=FACE_BOUND('',#476,.T.);
#607=FACE_BOUND('',#477,.T.);
#608=FACE_BOUND('',#478,.T.);
#609=FACE_BOUND('',#479,.T.);
#610=FACE_BOUND('',#480,.T.);
#611=FACE_BOUND('',#481,.T.);
#612=FACE_BOUND('',#482,.T.);
#613=FACE_BOUND('',#483,.T.);
#614=FACE_BOUND('',#484,.T.);
#615=FACE_BOUND('',#485,.T.);
#616=FACE_BOUND('',#486,.T.);
#617=FACE_BOUND('',#487,.T.);
#618=FACE_BOUND('',#488,.T.);
#619=FACE_BOUND('',#489,.T.);
#620=FACE_BOUND('',#490,.T.);
#621=FACE_BOUND('',#491,.T.);
#622=FACE_BOUND('',#492,.T.);
#623=FACE_BOUND('',#493,.T.);
#624=FACE_BOUND('',#494,.T.);
#625=FACE_BOUND('',#495,.T.);
#626=FACE_BOUND('',#496,.T.);
#627=FACE_BOUND('',#497,.T.);
#628=FACE_BOUND('',#498,.T.);
#629=FACE_BOUND('',#499,.T.);
#630=FACE_BOUND('',#500,.T.);
#631=FACE_BOUND('',#501,.T.);
#632=FACE_BOUND('',#502,.T.);
#633=FACE_BOUND('',#503,.T.);
#634=FACE_BOUND('',#504,.T.);
#635=FACE_BOUND('',#505,.T.);
#636=FACE_BOUND('',#506,.T.);
#637=FACE_BOUND('',#507,.T.);
#638=FACE_BOUND('',#508,.T.);
#639=FACE_BOUND('',#509,.T.);
#640=FACE_BOUND('',#510,.T.);
#641=FACE_BOUND('',#511,.T.);
#642=FACE_BOUND('',#512,.T.);
#643=FACE_BOUND('',#513,.T.);
#644=FACE_BOUND('',#514,.T.);
#645=FACE_BOUND('',#515,.T.);
#646=FACE_BOUND('',#516,.T.);
#647=FACE_BOUND('',#517,.T.);
#648=FACE_BOUND('',#518,.T.);
#649=FACE_BOUND('',#519,.T.);
#650=FACE_BOUND('',#520,.T.);
#651=FACE_BOUND('',#521,.T.);
#652=FACE_BOUND('',#522,.T.);
#653=FACE_BOUND('',#523,.T.);
#654=FACE_BOUND('',#524,.T.);
#655=FACE_BOUND('',#525,.T.);
#656=FACE_BOUND('',#526,.T.);
#657=FACE_BOUND('',#527,.T.);
#658=FACE_BOUND('',#528,.T.);
#659=FACE_BOUND('',#529,.T.);
#660=FACE_BOUND('',#530,.T.);
#661=FACE_BOUND('',#531,.T.);
#662=FACE_BOUND('',#532,.T.);
#663=FACE_BOUND('',#533,.T.);
#664=FACE_BOUND('',#534,.T.);
#665=FACE_BOUND('',#535,.T.);
#666=FACE_BOUND('',#536,.T.);
#667=FACE_BOUND('',#537,.T.);
#668=FACE_BOUND('',#538,.T.);
#669=FACE_BOUND('',#539,.T.);
#670=FACE_BOUND('',#540,.T.);
#671=FACE_BOUND('',#541,.T.);
#672=FACE_BOUND('',#542,.T.);
#673=FACE_BOUND('',#543,.T.);
#674=FACE_BOUND('',#544,.T.);
#675=FACE_BOUND('',#545,.T.);
#676=FACE_BOUND('',#546,.T.);
#677=FACE_BOUND('',#547,.T.);
#678=FACE_BOUND('',#548,.T.);
#679=FACE_BOUND('',#549,.T.);
#680=FACE_BOUND('',#550,.T.);
#681=FACE_BOUND('',#551,.T.);
#682=FACE_BOUND('',#552,.T.);
#683=FACE_BOUND('',#553,.T.);
#684=FACE_BOUND('',#554,.T.);
#685=FACE_BOUND('',#555,.T.);
#686=FACE_BOUND('',#556,.T.);
#687=FACE_BOUND('',#557,.T.);
#688=FACE_BOUND('',#558,.T.);
#689=FACE_BOUND('',#559,.T.);
#690=FACE_BOUND('',#560,.T.);
#691=FACE_BOUND('',#561,.T.);
#692=FACE_BOUND('',#562,.T.);
#693=FACE_BOUND('',#563,.T.);
#694=FACE_BOUND('',#564,.T.);
#695=FACE_BOUND('',#565,.T.);
#696=FACE_BOUND('',#566,.T.);
#697=FACE_BOUND('',#567,.T.);
#698=FACE_BOUND('',#568,.T.);
#699=FACE_BOUND('',#569,.T.);
#700=FACE_BOUND('',#570,.T.);
#701=FACE_BOUND('',#571,.T.);
#702=FACE_BOUND('',#572,.T.);
#703=FACE_BOUND('',#573,.T.);
#704=FACE_BOUND('',#574,.T.);
#705=FACE_BOUND('',#575,.T.);
#706=FACE_BOUND('',#576,.T.);
#707=FACE_BOUND('',#577,.T.);
#708=FACE_BOUND('',#578,.T.);
#709=FACE_BOUND('',#579,.T.);
#710=FACE_BOUND('',#580,.T.);
#711=FACE_BOUND('',#581,.T.);
#712=FACE_BOUND('',#582,.T.);
#713=FACE_BOUND('',#583,.T.);
#714=FACE_BOUND('',#584,.T.);
#715=FACE_BOUND('',#585,.T.);
#716=FACE_BOUND('',#586,.T.);
#717=FACE_BOUND('',#10,.T.);
#718=FACE_BOUND('',#587,.T.);
#719=FACE_BOUND('',#588,.T.);
#720=FACE_BOUND('',#589,.T.);
#721=FACE_BOUND('',#11,.T.);
#722=FACE_BOUND('',#590,.T.);
#723=FACE_BOUND('',#591,.T.);
#724=FACE_BOUND('',#592,.T.);
#725=CYLINDRICAL_SURFACE('',#877,0.009);
#726=CYLINDRICAL_SURFACE('',#880,0.01);
#727=CYLINDRICAL_SURFACE('',#898,0.0081);
#728=CYLINDRICAL_SURFACE('',#904,0.0101);
#729=CYLINDRICAL_SURFACE('',#905,0.0125);
#730=CYLINDRICAL_SURFACE('',#909,0.01);
#731=CYLINDRICAL_SURFACE('',#911,0.009);
#732=CYLINDRICAL_SURFACE('',#914,0.01);
#733=CYLINDRICAL_SURFACE('',#929,0.052);
#734=CYLINDRICAL_SURFACE('',#935,0.045);
#735=CYLINDRICAL_SURFACE('',#978,0.01);
#736=CYLINDRICAL_SURFACE('',#979,0.0033);
#737=CYLINDRICAL_SURFACE('',#980,0.0033);
#738=CYLINDRICAL_SURFACE('',#981,0.0033);
#739=CYLINDRICAL_SURFACE('',#982,0.0033);
#740=CYLINDRICAL_SURFACE('',#983,0.0033);
#741=CYLINDRICAL_SURFACE('',#984,0.0033);
#742=CYLINDRICAL_SURFACE('',#985,0.0033);
#743=CYLINDRICAL_SURFACE('',#986,0.0033);
#744=CYLINDRICAL_SURFACE('',#987,0.0033);
#745=CYLINDRICAL_SURFACE('',#988,0.0033);
#746=CYLINDRICAL_SURFACE('',#989,0.0033);
#747=CYLINDRICAL_SURFACE('',#990,0.0033);
#748=CYLINDRICAL_SURFACE('',#991,0.052);
#749=CYLINDRICAL_SURFACE('',#992,0.052);
#750=CYLINDRICAL_SURFACE('',#995,0.0033);
#751=CYLINDRICAL_SURFACE('',#998,0.0033);
#752=ADVANCED_FACE('',(#593,#594),#725,.F.);
#753=ADVANCED_FACE('',(#595,#596),#726,.T.);
#754=ADVANCED_FACE('',(#597,#598),#88,.T.);
#755=ADVANCED_FACE('',(#599,#600),#89,.F.);
#756=ADVANCED_FACE('',(#601,#602),#90,.T.);
#757=ADVANCED_FACE('',(#603,#604),#91,.T.);
#758=ADVANCED_FACE('',(#605,#606),#92,.T.);
#759=ADVANCED_FACE('',(#607,#608),#93,.T.);
#760=ADVANCED_FACE('',(#609,#610),#727,.F.);
#761=ADVANCED_FACE('',(#611,#612),#40,.F.);
#762=ADVANCED_FACE('',(#613,#614),#36,.F.);
#763=ADVANCED_FACE('',(#615,#616),#41,.F.);
#764=ADVANCED_FACE('',(#617,#618),#728,.F.);
#765=ADVANCED_FACE('',(#619,#620),#729,.T.);
#766=ADVANCED_FACE('',(#621,#622),#37,.T.);
#767=ADVANCED_FACE('',(#623,#624),#730,.T.);
#768=ADVANCED_FACE('',(#625,#626),#731,.F.);
#769=ADVANCED_FACE('',(#627,#628),#732,.T.);
#770=ADVANCED_FACE('',(#629,#630),#94,.T.);
#771=ADVANCED_FACE('',(#631,#632),#95,.F.);
#772=ADVANCED_FACE('',(#633,#634),#42,.T.);
#773=ADVANCED_FACE('',(#635,#636),#96,.T.);
#774=ADVANCED_FACE('',(#637,#638),#97,.F.);
#775=ADVANCED_FACE('',(#639,#640),#43,.F.);
#776=ADVANCED_FACE('',(#641,#642),#733,.T.);
#777=ADVANCED_FACE('',(#643,#644),#98,.T.);
#778=ADVANCED_FACE('',(#645),#99,.F.);
#779=ADVANCED_FACE('',(#646,#647),#734,.F.);
#780=ADVANCED_FACE('',(#648),#100,.T.);
#781=ADVANCED_FACE('',(#649),#101,.T.);
#782=ADVANCED_FACE('',(#650),#102,.F.);
#783=ADVANCED_FACE('',(#651),#103,.F.);
#784=ADVANCED_FACE('',(#652),#104,.T.);
#785=ADVANCED_FACE('',(#653,#654,#655,#656,#657,#658,#659,#660,#661,#662,#663,#664,#665,#666,#667,#668,#669,#670),#105,.T.);
#786=ADVANCED_FACE('',(#671,#672,#673,#674,#675,#676,#677,#678,#679,#680,#681,#682,#683,#684,#685,#686),#106,.F.);
#787=ADVANCED_FACE('',(#687,#688),#735,.F.);
#788=ADVANCED_FACE('',(#689,#690),#736,.F.);
#789=ADVANCED_FACE('',(#691,#692),#737,.F.);
#790=ADVANCED_FACE('',(#693,#694),#738,.F.);
#791=ADVANCED_FACE('',(#695,#696),#739,.F.);
#792=ADVANCED_FACE('',(#697,#698),#740,.F.);
#793=ADVANCED_FACE('',(#699,#700),#741,.F.);
#794=ADVANCED_FACE('',(#701,#702),#742,.F.);
#795=ADVANCED_FACE('',(#703,#704),#743,.F.);
#796=ADVANCED_FACE('',(#705,#706),#744,.F.);
#797=ADVANCED_FACE('',(#707,#708),#745,.F.);
#798=ADVANCED_FACE('',(#709,#710),#746,.F.);
#799=ADVANCED_FACE('',(#711,#712),#747,.F.);
#800=ADVANCED_FACE('',(#713,#714),#748,.F.);
#801=ADVANCED_FACE('',(#715,#716),#749,.F.);
#802=ADVANCED_FACE('',(#717,#718),#38,.F.);
#803=ADVANCED_FACE('',(#719,#720),#750,.F.);
#804=ADVANCED_FACE('',(#721,#722),#39,.F.);
#805=ADVANCED_FACE('',(#723,#724),#751,.F.);
#806=CLOSED_SHELL('',(#752,#753,#754,#755));
#807=CLOSED_SHELL('',(#756,#757,#758,#759,#760,#761,#762,#763,#764,#765,#766,#767));
#808=CLOSED_SHELL('',(#768,#769,#770,#771));
#809=CLOSED_SHELL('',(#772,#773,#774,#775));
#810=CLOSED_SHELL('',(#776,#777,#778,#779,#780));
#811=CLOSED_SHELL('',(#781,#782,#783,#784,#785,#786,#787,#788,#789,#790,#791,#792,#793,#794,#795,#796,#797,#798,#799,#800,#801,#802,#803,#804,#805));
#812=STYLED_ITEM('',(#818),#856);
#813=STYLED_ITEM('',(#819),#857);
#814=STYLED_ITEM('',(#820),#858);
#815=STYLED_ITEM('',(#821),#859);
#816=STYLED_ITEM('',(#822),#860);
#817=STYLED_ITEM('',(#823),#861);
#818=PRESENTATION_STYLE_ASSIGNMENT((#824));
#819=PRESENTATION_STYLE_ASSIGNMENT((#825));
#820=PRESENTATION_STYLE_ASSIGNMENT((#826));
#821=PRESENTATION_STYLE_ASSIGNMENT((#827));
#822=PRESENTATION_STYLE_ASSIGNMENT((#828));
#823=PRESENTATION_STYLE_ASSIGNMENT((#829));
#824=SURFACE_STYLE_USAGE(.BOTH.,#830);
#825=SURFACE_STYLE_USAGE(.BOTH.,#831);
#826=SURFACE_STYLE_USAGE(.BOTH.,#832);
#827=SURFACE_STYLE_USAGE(.BOTH.,#833);
#828=SURFACE_STYLE_USAGE(.BOTH.,#834);
#829=SURFACE_STYLE_USAGE(.BOTH.,#835);
#830=SURFACE_SIDE_STYLE('',(#836));
#831=SURFACE_SIDE_STYLE('',(#837));
#832=SURFACE_SIDE_STYLE('',(#838));
#833=SURFACE_SIDE_STYLE('',(#839));
#834=SURFACE_SIDE_STYLE('',(#840));
#835=SURFACE_SIDE_STYLE('',(#841));
#836=SURFACE_STYLE_FILL_AREA(#842);
#837=SURFACE_STYLE_FILL_AREA(#843);
#838=SURFACE_STYLE_FILL_AREA(#844);
#839=SURFACE_STYLE_FILL_AREA(#845);
#840=SURFACE_STYLE_FILL_AREA(#846);
#841=SURFACE_STYLE_FILL_AREA(#847);
#842=FILL_AREA_STYLE('',(#848));
#843=FILL_AREA_STYLE('',(#849));
#844=FILL_AREA_STYLE('',(#850));
#845=FILL_AREA_STYLE('',(#851));
#846=FILL_AREA_STYLE('',(#852));
#847=FILL_AREA_STYLE('',(#853));
#848=FILL_AREA_STYLE_COLOUR('',#854);
#849=FILL_AREA_STYLE_COLOUR('',#855);
#850=FILL_AREA_STYLE_COLOUR('',#854);
#851=FILL_AREA_STYLE_COLOUR('',#854);
#852=FILL_AREA_STYLE_COLOUR('',#854);
#853=FILL_AREA_STYLE_COLOUR('',#854);
#854=COLOUR_RGB('',0.615686274509804,0.811764705882353,0.929411764705882);
#855=COLOUR_RGB('',0.509803921568627,0.509803921568627,0.588235294117647);
#856=MANIFOLD_SOLID_BREP('pipe_30',#806);
#857=MANIFOLD_SOLID_BREP('red_25_50',#807);
#858=MANIFOLD_SOLID_BREP('pipe_150',#808);
#859=MANIFOLD_SOLID_BREP('90',#809);
#860=MANIFOLD_SOLID_BREP('Part 1',#810);
#861=MANIFOLD_SOLID_BREP('lid_plate',#811);
#862=SHAPE_DEFINITION_REPRESENTATION(#1490,#869);
#863=SHAPE_DEFINITION_REPRESENTATION(#1491,#870);
#864=SHAPE_DEFINITION_REPRESENTATION(#1493,#871);
#865=SHAPE_DEFINITION_REPRESENTATION(#1495,#872);
#866=SHAPE_DEFINITION_REPRESENTATION(#1497,#873);
#867=SHAPE_DEFINITION_REPRESENTATION(#1499,#874);
#868=SHAPE_DEFINITION_REPRESENTATION(#1502,#875);
#869=SHAPE_REPRESENTATION('full_lid',(#876,#885,#910,#919,#928,#938,#939,#999,#1000),#1473);
#870=SHAPE_REPRESENTATION('pipe_30',(#876),#1474);
#871=SHAPE_REPRESENTATION('red_25_50',(#876),#1475);
#872=SHAPE_REPRESENTATION('pipe_150',(#876),#1476);
#873=SHAPE_REPRESENTATION('90',(#876),#1477);
#874=SHAPE_REPRESENTATION('Part 1',(#876),#1478);
#875=SHAPE_REPRESENTATION('lid_plate',(#876),#1479);
#876=AXIS2_PLACEMENT_3D('',#1263,#1001,#1002);
#877=AXIS2_PLACEMENT_3D('',#1264,#1003,#1004);
#878=AXIS2_PLACEMENT_3D('',#1265,#1005,#1006);
#879=AXIS2_PLACEMENT_3D('',#1267,#1007,#1008);
#880=AXIS2_PLACEMENT_3D('',#1269,#1009,#1010);
#881=AXIS2_PLACEMENT_3D('',#1270,#1011,#1012);
#882=AXIS2_PLACEMENT_3D('',#1272,#1013,#1014);
#883=AXIS2_PLACEMENT_3D('',#1274,#1015,#1016);
#884=AXIS2_PLACEMENT_3D('',#1275,#1017,#1018);
#885=AXIS2_PLACEMENT_3D('',#1276,#1019,#1020);
#886=AXIS2_PLACEMENT_3D('',#1277,#1021,#1022);
#887=AXIS2_PLACEMENT_3D('',#1278,#1023,#1024);
#888=AXIS2_PLACEMENT_3D('',#1280,#1025,#1026);
#889=AXIS2_PLACEMENT_3D('',#1282,#1027,#1028);
#890=AXIS2_PLACEMENT_3D('',#1283,#1029,#1030);
#891=AXIS2_PLACEMENT_3D('',#1285,#1031,#1032);
#892=AXIS2_PLACEMENT_3D('',#1287,#1033,#1034);
#893=AXIS2_PLACEMENT_3D('',#1288,#1035,#1036);
#894=AXIS2_PLACEMENT_3D('',#1290,#1037,#1038);
#895=AXIS2_PLACEMENT_3D('',#1292,#1039,#1040);
#896=AXIS2_PLACEMENT_3D('',#1293,#1041,#1042);
#897=AXIS2_PLACEMENT_3D('',#1295,#1043,#1044);
#898=AXIS2_PLACEMENT_3D('',#1297,#1045,#1046);
#899=AXIS2_PLACEMENT_3D('',#1298,#1047,#1048);
#900=AXIS2_PLACEMENT_3D('',#1300,#1049,#1050);
#901=AXIS2_PLACEMENT_3D('',#1301,#1051,#1052);
#902=AXIS2_PLACEMENT_3D('',#1302,#1053,#1054);
#903=AXIS2_PLACEMENT_3D('',#1303,#1055,#1056);
#904=AXIS2_PLACEMENT_3D('',#1305,#1057,#1058);
#905=AXIS2_PLACEMENT_3D('',#1306,#1059,#1060);
#906=AXIS2_PLACEMENT_3D('',#1307,#1061,#1062);
#907=AXIS2_PLACEMENT_3D('',#1309,#1063,#1064);
#908=AXIS2_PLACEMENT_3D('',#1310,#1065,#1066);
#909=AXIS2_PLACEMENT_3D('',#1312,#1067,#1068);
#910=AXIS2_PLACEMENT_3D('',#1313,#1069,#1070);
#911=AXIS2_PLACEMENT_3D('',#1314,#1071,#1072);
#912=AXIS2_PLACEMENT_3D('',#1315,#1073,#1074);
#913=AXIS2_PLACEMENT_3D('',#1317,#1075,#1076);
#914=AXIS2_PLACEMENT_3D('',#1319,#1077,#1078);
#915=AXIS2_PLACEMENT_3D('',#1320,#1079,#1080);
#916=AXIS2_PLACEMENT_3D('',#1322,#1081,#1082);
#917=AXIS2_PLACEMENT_3D('',#1324,#1083,#1084);
#918=AXIS2_PLACEMENT_3D('',#1325,#1085,#1086);
#919=AXIS2_PLACEMENT_3D('',#1326,#1087,#1088);
#920=AXIS2_PLACEMENT_3D('',#1327,#1089,#1090);
#921=AXIS2_PLACEMENT_3D('',#1328,#1091,#1092);
#922=AXIS2_PLACEMENT_3D('',#1330,#1093,#1094);
#923=AXIS2_PLACEMENT_3D('',#1332,#1095,#1096);
#924=AXIS2_PLACEMENT_3D('',#1333,#1097,#1098);
#925=AXIS2_PLACEMENT_3D('',#1335,#1099,#1100);
#926=AXIS2_PLACEMENT_3D('',#1336,#1101,#1102);
#927=AXIS2_PLACEMENT_3D('',#1338,#1103,#1104);
#928=AXIS2_PLACEMENT_3D('',#1339,#1105,#1106);
#929=AXIS2_PLACEMENT_3D('',#1340,#1107,#1108);
#930=AXIS2_PLACEMENT_3D('',#1341,#1109,#1110);
#931=AXIS2_PLACEMENT_3D('',#1343,#1111,#1112);
#932=AXIS2_PLACEMENT_3D('',#1345,#1113,#1114);
#933=AXIS2_PLACEMENT_3D('',#1346,#1115,#1116);
#934=AXIS2_PLACEMENT_3D('',#1348,#1117,#1118);
#935=AXIS2_PLACEMENT_3D('',#1349,#1119,#1120);
#936=AXIS2_PLACEMENT_3D('',#1350,#1121,#1122);
#937=AXIS2_PLACEMENT_3D('',#1352,#1123,#1124);
#938=AXIS2_PLACEMENT_3D('',#1353,#1125,#1126);
#939=AXIS2_PLACEMENT_3D('',#1354,#1127,#1128);
#940=AXIS2_PLACEMENT_3D('',#1355,#1129,#1130);
#941=AXIS2_PLACEMENT_3D('',#1364,#1135,#1136);
#942=AXIS2_PLACEMENT_3D('',#1370,#1140,#1141);
#943=AXIS2_PLACEMENT_3D('',#1376,#1145,#1146);
#944=AXIS2_PLACEMENT_3D('',#1379,#1149,#1150);
#945=AXIS2_PLACEMENT_3D('',#1380,#1151,#1152);
#946=AXIS2_PLACEMENT_3D('',#1382,#1153,#1154);
#947=AXIS2_PLACEMENT_3D('',#1384,#1155,#1156);
#948=AXIS2_PLACEMENT_3D('',#1386,#1157,#1158);
#949=AXIS2_PLACEMENT_3D('',#1388,#1159,#1160);
#950=AXIS2_PLACEMENT_3D('',#1390,#1161,#1162);
#951=AXIS2_PLACEMENT_3D('',#1392,#1163,#1164);
#952=AXIS2_PLACEMENT_3D('',#1394,#1165,#1166);
#953=AXIS2_PLACEMENT_3D('',#1396,#1167,#1168);
#954=AXIS2_PLACEMENT_3D('',#1398,#1169,#1170);
#955=AXIS2_PLACEMENT_3D('',#1400,#1171,#1172);
#956=AXIS2_PLACEMENT_3D('',#1402,#1173,#1174);
#957=AXIS2_PLACEMENT_3D('',#1404,#1175,#1176);
#958=AXIS2_PLACEMENT_3D('',#1406,#1177,#1178);
#959=AXIS2_PLACEMENT_3D('',#1408,#1179,#1180);
#960=AXIS2_PLACEMENT_3D('',#1410,#1181,#1182);
#961=AXIS2_PLACEMENT_3D('',#1412,#1183,#1184);
#962=AXIS2_PLACEMENT_3D('',#1414,#1185,#1186);
#963=AXIS2_PLACEMENT_3D('',#1415,#1187,#1188);
#964=AXIS2_PLACEMENT_3D('',#1417,#1189,#1190);
#965=AXIS2_PLACEMENT_3D('',#1419,#1191,#1192);
#966=AXIS2_PLACEMENT_3D('',#1421,#1193,#1194);
#967=AXIS2_PLACEMENT_3D('',#1423,#1195,#1196);
#968=AXIS2_PLACEMENT_3D('',#1425,#1197,#1198);
#969=AXIS2_PLACEMENT_3D('',#1427,#1199,#1200);
#970=AXIS2_PLACEMENT_3D('',#1429,#1201,#1202);
#971=AXIS2_PLACEMENT_3D('',#1431,#1203,#1204);
#972=AXIS2_PLACEMENT_3D('',#1433,#1205,#1206);
#973=AXIS2_PLACEMENT_3D('',#1435,#1207,#1208);
#974=AXIS2_PLACEMENT_3D('',#1437,#1209,#1210);
#975=AXIS2_PLACEMENT_3D('',#1439,#1211,#1212);
#976=AXIS2_PLACEMENT_3D('',#1441,#1213,#1214);
#977=AXIS2_PLACEMENT_3D('',#1443,#1215,#1216);
#978=AXIS2_PLACEMENT_3D('',#1445,#1217,#1218);
#979=AXIS2_PLACEMENT_3D('',#1446,#1219,#1220);
#980=AXIS2_PLACEMENT_3D('',#1447,#1221,#1222);
#981=AXIS2_PLACEMENT_3D('',#1448,#1223,#1224);
#982=AXIS2_PLACEMENT_3D('',#1449,#1225,#1226);
#983=AXIS2_PLACEMENT_3D('',#1450,#1227,#1228);
#984=AXIS2_PLACEMENT_3D('',#1451,#1229,#1230);
#985=AXIS2_PLACEMENT_3D('',#1452,#1231,#1232);
#986=AXIS2_PLACEMENT_3D('',#1453,#1233,#1234);
#987=AXIS2_PLACEMENT_3D('',#1454,#1235,#1236);
#988=AXIS2_PLACEMENT_3D('',#1455,#1237,#1238);
#989=AXIS2_PLACEMENT_3D('',#1456,#1239,#1240);
#990=AXIS2_PLACEMENT_3D('',#1457,#1241,#1242);
#991=AXIS2_PLACEMENT_3D('',#1458,#1243,#1244);
#992=AXIS2_PLACEMENT_3D('',#1459,#1245,#1246);
#993=AXIS2_PLACEMENT_3D('',#1460,#1247,#1248);
#994=AXIS2_PLACEMENT_3D('',#1462,#1249,#1250);
#995=AXIS2_PLACEMENT_3D('',#1464,#1251,#1252);
#996=AXIS2_PLACEMENT_3D('',#1465,#1253,#1254);
#997=AXIS2_PLACEMENT_3D('',#1467,#1255,#1256);
#998=AXIS2_PLACEMENT_3D('',#1469,#1257,#1258);
#999=AXIS2_PLACEMENT_3D('',#1470,#1259,#1260);
#1000=AXIS2_PLACEMENT_3D('',#1471,#1261,#1262);
#1001=DIRECTION('',(0.,0.,1.));
#1002=DIRECTION('',(1.,0.,0.));
#1003=DIRECTION('',(0.,1.,0.));
#1004=DIRECTION('',(0.,0.,1.));
#1005=DIRECTION('',(0.,-1.,0.));
#1006=DIRECTION('',(0.,0.,-1.));
#1007=DIRECTION('',(0.,-1.,0.));
#1008=DIRECTION('',(0.,0.,-1.));
#1009=DIRECTION('',(0.,1.,0.));
#1010=DIRECTION('',(0.,0.,1.));
#1011=DIRECTION('',(0.,-1.,0.));
#1012=DIRECTION('',(0.,0.,-1.));
#1013=DIRECTION('',(0.,-1.,0.));
#1014=DIRECTION('',(0.,0.,-1.));
#1015=DIRECTION('',(0.,-1.,0.));
#1016=DIRECTION('',(1.,0.,0.));
#1017=DIRECTION('',(0.,-1.,0.));
#1018=DIRECTION('',(1.,0.,0.));
#1019=DIRECTION('',(1.,0.,0.));
#1020=DIRECTION('',(0.,-1.,0.));
#1021=DIRECTION('',(0.,0.,1.));
#1022=DIRECTION('',(1.,0.,0.));
#1023=DIRECTION('',(0.,0.,1.));
#1024=DIRECTION('',(1.,0.,0.));
#1025=DIRECTION('',(0.,0.,1.));
#1026=DIRECTION('',(1.,0.,0.));
#1027=DIRECTION('',(0.,0.,-1.));
#1028=DIRECTION('',(-1.,0.,0.));
#1029=DIRECTION('',(0.,0.,1.));
#1030=DIRECTION('',(1.,0.,0.));
#1031=DIRECTION('',(0.,0.,1.));
#1032=DIRECTION('',(1.,0.,0.));
#1033=DIRECTION('',(0.,0.,1.));
#1034=DIRECTION('',(1.,0.,0.));
#1035=DIRECTION('',(0.,0.,1.));
#1036=DIRECTION('',(1.,0.,0.));
#1037=DIRECTION('',(0.,0.,1.));
#1038=DIRECTION('',(1.,0.,0.));
#1039=DIRECTION('',(0.,0.,1.));
#1040=DIRECTION('',(1.,0.,0.));
#1041=DIRECTION('',(0.,0.,1.));
#1042=DIRECTION('',(1.,0.,0.));
#1043=DIRECTION('',(0.,0.,1.));
#1044=DIRECTION('',(1.,0.,0.));
#1045=DIRECTION('',(0.,0.,1.));
#1046=DIRECTION('',(1.,0.,0.));
#1047=DIRECTION('',(0.,0.,1.));
#1048=DIRECTION('',(1.,0.,0.));
#1049=DIRECTION('',(0.,0.,1.));
#1050=DIRECTION('',(-1.,0.,0.));
#1051=DIRECTION('',(0.,0.,-1.));
#1052=DIRECTION('',(1.,0.,0.));
#1053=DIRECTION('',(0.,0.,1.));
#1054=DIRECTION('',(-1.,0.,0.));
#1055=DIRECTION('',(0.,0.,1.));
#1056=DIRECTION('',(1.,0.,0.));
#1057=DIRECTION('',(0.,0.,1.));
#1058=DIRECTION('',(1.,0.,0.));
#1059=DIRECTION('',(0.,0.,1.));
#1060=DIRECTION('',(1.,0.,0.));
#1061=DIRECTION('',(0.,0.,1.));
#1062=DIRECTION('',(1.,0.,0.));
#1063=DIRECTION('',(0.,0.,-1.));
#1064=DIRECTION('',(1.,0.,0.));
#1065=DIRECTION('',(0.,0.,1.));
#1066=DIRECTION('',(1.,0.,0.));
#1067=DIRECTION('',(0.,0.,1.));
#1068=DIRECTION('',(1.,0.,0.));
#1069=DIRECTION('',(0.,0.,-1.));
#1070=DIRECTION('',(1.,0.,0.));
#1071=DIRECTION('',(0.,1.,0.));
#1072=DIRECTION('',(0.,0.,1.));
#1073=DIRECTION('',(0.,-1.,0.));
#1074=DIRECTION('',(0.,0.,-1.));
#1075=DIRECTION('',(0.,-1.,0.));
#1076=DIRECTION('',(0.,0.,-1.));
#1077=DIRECTION('',(0.,1.,0.));
#1078=DIRECTION('',(0.,0.,1.));
#1079=DIRECTION('',(0.,-1.,0.));
#1080=DIRECTION('',(0.,0.,-1.));
#1081=DIRECTION('',(0.,-1.,0.));
#1082=DIRECTION('',(0.,0.,-1.));
#1083=DIRECTION('',(0.,-1.,0.));
#1084=DIRECTION('',(1.,0.,0.));
#1085=DIRECTION('',(0.,-1.,0.));
#1086=DIRECTION('',(1.,0.,0.));
#1087=DIRECTION('',(0.707106781186548,0.707106781186548,-3.69778549322349E-32));
#1088=DIRECTION('',(-4.32978028117746E-17,4.32978028117747E-17,1.));
#1089=DIRECTION('',(1.,0.,0.));
#1090=DIRECTION('',(0.,0.,-1.));
#1091=DIRECTION('',(0.,-1.,6.12323399573677E-17));
#1092=DIRECTION('',(1.,0.,0.));
#1093=DIRECTION('',(0.,0.,1.));
#1094=DIRECTION('',(1.,0.,0.));
#1095=DIRECTION('',(0.,-1.,6.12323399573677E-17));
#1096=DIRECTION('',(1.,0.,0.));
#1097=DIRECTION('',(0.,-1.,6.12323399573677E-17));
#1098=DIRECTION('',(1.,0.,0.));
#1099=DIRECTION('',(0.,0.,1.));
#1100=DIRECTION('',(1.,0.,0.));
#1101=DIRECTION('',(0.,0.,1.));
#1102=DIRECTION('',(1.,0.,0.));
#1103=DIRECTION('',(1.,0.,0.));
#1104=DIRECTION('',(0.,0.,-1.));
#1105=DIRECTION('',(-0.707106781186548,0.707106781186548,1.17756934401283E-16));
#1106=DIRECTION('',(0.707106781186548,0.707106781186548,5.55111512312578E-17));
#1107=DIRECTION('',(0.,0.,-1.));
#1108=DIRECTION('',(-1.,0.,0.));
#1109=DIRECTION('',(0.,0.,1.));
#1110=DIRECTION('',(1.,0.,0.));
#1111=DIRECTION('',(0.,0.,1.));
#1112=DIRECTION('',(1.,0.,0.));
#1113=DIRECTION('',(0.,0.,1.));
#1114=DIRECTION('',(1.,0.,0.));
#1115=DIRECTION('',(0.,0.,1.));
#1116=DIRECTION('',(1.,0.,0.));
#1117=DIRECTION('',(0.,0.,1.));
#1118=DIRECTION('',(1.,0.,0.));
#1119=DIRECTION('',(0.,0.,-1.));
#1120=DIRECTION('',(-1.,0.,0.));
#1121=DIRECTION('',(0.,0.,1.));
#1122=DIRECTION('',(1.,0.,0.));
#1123=DIRECTION('',(0.,0.,1.));
#1124=DIRECTION('',(1.,0.,0.));
#1125=DIRECTION('',(0.,0.,-1.));
#1126=DIRECTION('',(1.,0.,0.));
#1127=DIRECTION('',(0.,0.,-1.));
#1128=DIRECTION('',(1.,0.,0.));
#1129=DIRECTION('',(0.,1.,0.));
#1130=DIRECTION('',(0.,0.,1.));
#1131=DIRECTION('',(1.,0.,0.));
#1132=DIRECTION('',(0.,0.,-1.));
#1133=DIRECTION('',(1.,0.,0.));
#1134=DIRECTION('',(0.,0.,-1.));
#1135=DIRECTION('',(1.,0.,0.));
#1136=DIRECTION('',(0.,0.,-1.));
#1137=DIRECTION('',(0.,-1.,0.));
#1138=DIRECTION('',(0.,0.,-1.));
#1139=DIRECTION('',(0.,-1.,0.));
#1140=DIRECTION('',(0.,1.,0.));
#1141=DIRECTION('',(0.,0.,1.));
#1142=DIRECTION('',(1.,0.,0.));
#1143=DIRECTION('',(0.,0.,-1.));
#1144=DIRECTION('',(1.,0.,0.));
#1145=DIRECTION('',(1.,0.,0.));
#1146=DIRECTION('',(0.,0.,-1.));
#1147=DIRECTION('',(0.,-1.,0.));
#1148=DIRECTION('',(0.,-1.,0.));
#1149=DIRECTION('',(0.,0.,1.));
#1150=DIRECTION('',(1.,0.,0.));
#1151=DIRECTION('',(0.,0.,-1.));
#1152=DIRECTION('',(-1.,0.,0.));
#1153=DIRECTION('',(0.,0.,-1.));
#1154=DIRECTION('',(-1.,0.,0.));
#1155=DIRECTION('',(0.,0.,-1.));
#1156=DIRECTION('',(-1.,0.,0.));
#1157=DIRECTION('',(0.,0.,-1.));
#1158=DIRECTION('',(-1.,0.,0.));
#1159=DIRECTION('',(0.,0.,-1.));
#1160=DIRECTION('',(-1.,0.,0.));
#1161=DIRECTION('',(0.,0.,-1.));
#1162=DIRECTION('',(-1.,0.,0.));
#1163=DIRECTION('',(0.,0.,-1.));
#1164=DIRECTION('',(-1.,0.,0.));
#1165=DIRECTION('',(0.,0.,-1.));
#1166=DIRECTION('',(-1.,0.,0.));
#1167=DIRECTION('',(0.,0.,-1.));
#1168=DIRECTION('',(-1.,0.,0.));
#1169=DIRECTION('',(0.,0.,-1.));
#1170=DIRECTION('',(-1.,0.,0.));
#1171=DIRECTION('',(0.,0.,-1.));
#1172=DIRECTION('',(-1.,0.,0.));
#1173=DIRECTION('',(0.,0.,-1.));
#1174=DIRECTION('',(-1.,0.,0.));
#1175=DIRECTION('',(0.,0.,-1.));
#1176=DIRECTION('',(-1.,0.,0.));
#1177=DIRECTION('',(0.,0.,-1.));
#1178=DIRECTION('',(-1.,0.,0.));
#1179=DIRECTION('',(0.,0.,-1.));
#1180=DIRECTION('',(-1.,0.,0.));
#1181=DIRECTION('',(0.,0.,-1.));
#1182=DIRECTION('',(-1.,0.,0.));
#1183=DIRECTION('',(0.,0.,-1.));
#1184=DIRECTION('',(-1.,0.,0.));
#1185=DIRECTION('',(0.,0.,1.));
#1186=DIRECTION('',(1.,0.,0.));
#1187=DIRECTION('',(0.,0.,-1.));
#1188=DIRECTION('',(-1.,0.,0.));
#1189=DIRECTION('',(0.,0.,-1.));
#1190=DIRECTION('',(-1.,0.,0.));
#1191=DIRECTION('',(0.,0.,-1.));
#1192=DIRECTION('',(-1.,0.,0.));
#1193=DIRECTION('',(0.,0.,-1.));
#1194=DIRECTION('',(-1.,0.,0.));
#1195=DIRECTION('',(0.,0.,-1.));
#1196=DIRECTION('',(-1.,0.,0.));
#1197=DIRECTION('',(0.,0.,-1.));
#1198=DIRECTION('',(-1.,0.,0.));
#1199=DIRECTION('',(0.,0.,-1.));
#1200=DIRECTION('',(-1.,0.,0.));
#1201=DIRECTION('',(0.,0.,-1.));
#1202=DIRECTION('',(-1.,0.,0.));
#1203=DIRECTION('',(0.,0.,-1.));
#1204=DIRECTION('',(-1.,0.,0.));
#1205=DIRECTION('',(0.,0.,-1.));
#1206=DIRECTION('',(-1.,0.,0.));
#1207=DIRECTION('',(0.,0.,-1.));
#1208=DIRECTION('',(-1.,0.,0.));
#1209=DIRECTION('',(0.,0.,-1.));
#1210=DIRECTION('',(-1.,0.,0.));
#1211=DIRECTION('',(0.,0.,-1.));
#1212=DIRECTION('',(-1.,0.,0.));
#1213=DIRECTION('',(0.,0.,-1.));
#1214=DIRECTION('',(-1.,0.,0.));
#1215=DIRECTION('',(0.,0.,-1.));
#1216=DIRECTION('',(-1.,0.,0.));
#1217=DIRECTION('',(0.,0.,-1.));
#1218=DIRECTION('',(-1.,0.,0.));
#1219=DIRECTION('',(0.,0.,-1.));
#1220=DIRECTION('',(-1.,0.,0.));
#1221=DIRECTION('',(0.,0.,-1.));
#1222=DIRECTION('',(-1.,0.,0.));
#1223=DIRECTION('',(0.,0.,-1.));
#1224=DIRECTION('',(-1.,0.,0.));
#1225=DIRECTION('',(0.,0.,-1.));
#1226=DIRECTION('',(-1.,0.,0.));
#1227=DIRECTION('',(0.,0.,-1.));
#1228=DIRECTION('',(-1.,0.,0.));
#1229=DIRECTION('',(0.,0.,-1.));
#1230=DIRECTION('',(-1.,0.,0.));
#1231=DIRECTION('',(0.,0.,-1.));
#1232=DIRECTION('',(-1.,0.,0.));
#1233=DIRECTION('',(0.,0.,-1.));
#1234=DIRECTION('',(-1.,0.,0.));
#1235=DIRECTION('',(0.,0.,-1.));
#1236=DIRECTION('',(-1.,0.,0.));
#1237=DIRECTION('',(0.,0.,-1.));
#1238=DIRECTION('',(-1.,0.,0.));
#1239=DIRECTION('',(0.,0.,-1.));
#1240=DIRECTION('',(-1.,0.,0.));
#1241=DIRECTION('',(0.,0.,-1.));
#1242=DIRECTION('',(-1.,0.,0.));
#1243=DIRECTION('',(0.,0.,-1.));
#1244=DIRECTION('',(-1.,0.,0.));
#1245=DIRECTION('',(0.,0.,-1.));
#1246=DIRECTION('',(-1.,0.,0.));
#1247=DIRECTION('',(0.,0.,1.));
#1248=DIRECTION('',(1.,0.,0.));
#1249=DIRECTION('',(0.,0.,-1.));
#1250=DIRECTION('',(-1.,0.,0.));
#1251=DIRECTION('',(0.,0.,-1.));
#1252=DIRECTION('',(-1.,0.,0.));
#1253=DIRECTION('',(0.,0.,1.));
#1254=DIRECTION('',(1.,0.,0.));
#1255=DIRECTION('',(0.,0.,-1.));
#1256=DIRECTION('',(-1.,0.,0.));
#1257=DIRECTION('',(0.,0.,-1.));
#1258=DIRECTION('',(-1.,0.,0.));
#1259=DIRECTION('',(0.,0.,1.));
#1260=DIRECTION('',(1.,0.,0.));
#1261=DIRECTION('',(-1.17756934401283E-16,1.96261557335472E-16,-1.));
#1262=DIRECTION('',(0.707106781186548,0.707106781186548,5.55111512312578E-17));
#1263=CARTESIAN_POINT('',(0.,0.,0.));
#1264=CARTESIAN_POINT('',(0.,-0.03,5.51091059616309E-19));
#1265=CARTESIAN_POINT('',(0.,-0.03,5.51091059616309E-19));
#1266=CARTESIAN_POINT('',(0.,-0.03,-0.009));
#1267=CARTESIAN_POINT('',(0.,0.,5.51091059616309E-19));
#1268=CARTESIAN_POINT('',(0.,0.,-0.009));
#1269=CARTESIAN_POINT('',(0.,-0.03,6.12323399573677E-19));
#1270=CARTESIAN_POINT('',(0.,-0.03,6.12323399573677E-19));
#1271=CARTESIAN_POINT('',(0.,-0.03,-0.01));
#1272=CARTESIAN_POINT('',(0.,0.,6.12323399573677E-19));
#1273=CARTESIAN_POINT('',(0.,0.,-0.01));
#1274=CARTESIAN_POINT('',(0.,-0.03,0.));
#1275=CARTESIAN_POINT('',(0.,0.,0.));
#1276=CARTESIAN_POINT('',(-5.51091059616309E-19,0.,-0.045));
#1277=CARTESIAN_POINT('',(0.00905,0.,0.039));
#1278=CARTESIAN_POINT('',(0.,0.,0.039));
#1279=CARTESIAN_POINT('',(0.01,0.,0.039));
#1280=CARTESIAN_POINT('',(0.,0.,0.039));
#1281=CARTESIAN_POINT('',(0.0081,0.,0.039));
#1282=CARTESIAN_POINT('',(0.0113,0.,0.));
#1283=CARTESIAN_POINT('',(0.,0.,0.));
#1284=CARTESIAN_POINT('',(0.0101,0.,0.));
#1285=CARTESIAN_POINT('',(0.,0.,0.));
#1286=CARTESIAN_POINT('',(0.0125,0.,0.));
#1287=CARTESIAN_POINT('',(0.009375,0.,0.016));
#1288=CARTESIAN_POINT('',(0.,0.,0.016));
#1289=CARTESIAN_POINT('',(0.00945,0.,0.016));
#1290=CARTESIAN_POINT('',(0.,0.,0.016));
#1291=CARTESIAN_POINT('',(0.0093,0.,0.016));
#1292=CARTESIAN_POINT('',(0.0073,0.,0.025));
#1293=CARTESIAN_POINT('',(0.,0.,0.025));
#1294=CARTESIAN_POINT('',(0.0076,0.,0.025));
#1295=CARTESIAN_POINT('',(0.,0.,0.025));
#1296=CARTESIAN_POINT('',(0.007,0.,0.025));
#1297=CARTESIAN_POINT('',(0.,0.,0.03225));
#1298=CARTESIAN_POINT('',(0.,0.,0.0255));
#1299=CARTESIAN_POINT('',(0.0081,0.,0.0255));
#1300=CARTESIAN_POINT('',(0.,0.,0.0255));
#1301=CARTESIAN_POINT('',(0.,0.,0.0205));
#1302=CARTESIAN_POINT('',(0.,0.,0.0152));
#1303=CARTESIAN_POINT('',(0.,0.,0.0152));
#1304=CARTESIAN_POINT('',(0.0101,0.,0.0152));
#1305=CARTESIAN_POINT('',(0.,0.,0.0076));
#1306=CARTESIAN_POINT('',(0.,0.,0.0095));
#1307=CARTESIAN_POINT('',(0.,0.,0.019));
#1308=CARTESIAN_POINT('',(0.0125,0.,0.019));
#1309=CARTESIAN_POINT('',(0.,0.,0.021));
#1310=CARTESIAN_POINT('',(0.,0.,0.023));
#1311=CARTESIAN_POINT('',(0.01,0.,0.023));
#1312=CARTESIAN_POINT('',(0.,0.,0.031));
#1313=CARTESIAN_POINT('',(0.,0.,0.029));
#1314=CARTESIAN_POINT('',(0.,-0.15,5.51091059616309E-19));
#1315=CARTESIAN_POINT('',(0.,-0.15,5.51091059616309E-19));
#1316=CARTESIAN_POINT('',(0.,-0.15,-0.009));
#1317=CARTESIAN_POINT('',(0.,0.,5.51091059616309E-19));
#1318=CARTESIAN_POINT('',(0.,0.,-0.009));
#1319=CARTESIAN_POINT('',(0.,-0.15,6.12323399573677E-19));
#1320=CARTESIAN_POINT('',(0.,-0.15,6.12323399573677E-19));
#1321=CARTESIAN_POINT('',(0.,-0.15,-0.01));
#1322=CARTESIAN_POINT('',(0.,0.,6.12323399573677E-19));
#1323=CARTESIAN_POINT('',(0.,0.,-0.01));
#1324=CARTESIAN_POINT('',(0.,-0.15,0.));
#1325=CARTESIAN_POINT('',(0.,0.,0.));
#1326=CARTESIAN_POINT('',(0.0530330085889911,-0.0530330085889911,0.029));
#1327=CARTESIAN_POINT('',(0.,-0.015,0.));
#1328=CARTESIAN_POINT('',(0.,-0.015,0.015));
#1329=CARTESIAN_POINT('',(0.01,-0.015,0.015));
#1330=CARTESIAN_POINT('',(0.,6.12323399573677E-19,0.));
#1331=CARTESIAN_POINT('',(0.01,6.12323399573677E-19,0.));
#1332=CARTESIAN_POINT('',(0.,-0.015,0.015));
#1333=CARTESIAN_POINT('',(0.,-0.015,0.015));
#1334=CARTESIAN_POINT('',(0.009,-0.015,0.015));
#1335=CARTESIAN_POINT('',(0.,0.,0.));
#1336=CARTESIAN_POINT('',(0.,5.51091059616309E-19,0.));
#1337=CARTESIAN_POINT('',(0.009,5.51091059616309E-19,0.));
#1338=CARTESIAN_POINT('',(0.,-0.015,0.));
#1339=CARTESIAN_POINT('',(-0.0530330085889911,0.0530330085889911,0.029));
#1340=CARTESIAN_POINT('',(0.,3.18408167778312E-18,0.205));
#1341=CARTESIAN_POINT('',(0.,3.18408167778312E-18,0.205));
#1342=CARTESIAN_POINT('',(0.052,3.18408167778312E-18,0.205));
#1343=CARTESIAN_POINT('',(0.,3.18408167778312E-18,0.));
#1344=CARTESIAN_POINT('',(0.052,3.18408167778312E-18,0.));
#1345=CARTESIAN_POINT('',(0.,0.,0.205));
#1346=CARTESIAN_POINT('',(0.,3.18408167778312E-18,0.205));
#1347=CARTESIAN_POINT('',(0.045,3.18408167778312E-18,0.205));
#1348=CARTESIAN_POINT('',(0.,0.,0.));
#1349=CARTESIAN_POINT('',(0.,3.18408167778312E-18,0.205));
#1350=CARTESIAN_POINT('',(0.,3.18408167778312E-18,0.007));
#1351=CARTESIAN_POINT('',(0.045,3.18408167778312E-18,0.007));
#1352=CARTESIAN_POINT('',(0.,0.,0.007));
#1353=CARTESIAN_POINT('',(0.065,0.065,0.16));
#1354=CARTESIAN_POINT('',(-0.065,-0.065,0.16));
#1355=CARTESIAN_POINT('',(0.,0.195,0.015));
#1356=CARTESIAN_POINT('',(0.,0.195,0.));
#1357=CARTESIAN_POINT('',(-0.195,0.195,0.));
#1358=CARTESIAN_POINT('',(0.195,0.195,0.));
#1359=CARTESIAN_POINT('',(-0.195,0.195,0.015));
#1360=CARTESIAN_POINT('',(-0.195,0.195,0.015));
#1361=CARTESIAN_POINT('',(0.,0.195,0.015));
#1362=CARTESIAN_POINT('',(0.195,0.195,0.015));
#1363=CARTESIAN_POINT('',(0.195,0.195,0.015));
#1364=CARTESIAN_POINT('',(-0.195,0.,0.015));
#1365=CARTESIAN_POINT('',(-0.195,0.,0.));
#1366=CARTESIAN_POINT('',(-0.195,-0.195,0.));
#1367=CARTESIAN_POINT('',(-0.195,-0.195,0.015));
#1368=CARTESIAN_POINT('',(-0.195,-0.195,0.015));
#1369=CARTESIAN_POINT('',(-0.195,0.,0.015));
#1370=CARTESIAN_POINT('',(0.,-0.195,0.015));
#1371=CARTESIAN_POINT('',(0.,-0.195,0.));
#1372=CARTESIAN_POINT('',(0.195,-0.195,0.));
#1373=CARTESIAN_POINT('',(0.195,-0.195,0.015));
#1374=CARTESIAN_POINT('',(0.195,-0.195,0.015));
#1375=CARTESIAN_POINT('',(0.,-0.195,0.015));
#1376=CARTESIAN_POINT('',(0.195,-2.77555756156289E-17,0.015));
#1377=CARTESIAN_POINT('',(0.195,-2.77555756156289E-17,0.));
#1378=CARTESIAN_POINT('',(0.195,-2.77555756156289E-17,0.015));
#1379=CARTESIAN_POINT('',(0.,-2.77555756156289E-17,0.015));
#1380=CARTESIAN_POINT('',(-0.135,0.135,0.015));
#1381=CARTESIAN_POINT('',(-0.1383,0.135,0.015));
#1382=CARTESIAN_POINT('',(0.135,-0.135,0.015));
#1383=CARTESIAN_POINT('',(0.1317,-0.135,0.015));
#1384=CARTESIAN_POINT('',(0.065,0.065,0.015));
#1385=CARTESIAN_POINT('',(0.013,0.065,0.015));
#1386=CARTESIAN_POINT('',(-0.065,-0.065,0.015));
#1387=CARTESIAN_POINT('',(-0.117,-0.065,0.015));
#1388=CARTESIAN_POINT('',(-0.173,0.058,0.015));
#1389=CARTESIAN_POINT('',(-0.1763,0.058,0.015));
#1390=CARTESIAN_POINT('',(0.173,0.173,0.015));
#1391=CARTESIAN_POINT('',(0.1697,0.173,0.015));
#1392=CARTESIAN_POINT('',(0.058,0.173,0.015));
#1393=CARTESIAN_POINT('',(0.0547,0.173,0.015));
#1394=CARTESIAN_POINT('',(-0.058,0.173,0.015));
#1395=CARTESIAN_POINT('',(-0.0613,0.173,0.015));
#1396=CARTESIAN_POINT('',(-0.173,-0.058,0.015));
#1397=CARTESIAN_POINT('',(-0.1763,-0.058,0.015));
#1398=CARTESIAN_POINT('',(-0.173,-0.173,0.015));
#1399=CARTESIAN_POINT('',(-0.1763,-0.173,0.015));
#1400=CARTESIAN_POINT('',(-0.058,-0.173,0.015));
#1401=CARTESIAN_POINT('',(-0.0613,-0.173,0.015));
#1402=CARTESIAN_POINT('',(0.058,-0.173,0.015));
#1403=CARTESIAN_POINT('',(0.0547,-0.173,0.015));
#1404=CARTESIAN_POINT('',(0.173,-0.173,0.015));
#1405=CARTESIAN_POINT('',(0.1697,-0.173,0.015));
#1406=CARTESIAN_POINT('',(0.173,-0.058,0.015));
#1407=CARTESIAN_POINT('',(0.1697,-0.058,0.015));
#1408=CARTESIAN_POINT('',(0.173,0.058,0.015));
#1409=CARTESIAN_POINT('',(0.1697,0.058,0.015));
#1410=CARTESIAN_POINT('',(-0.173,0.173,0.015));
#1411=CARTESIAN_POINT('',(-0.1763,0.173,0.015));
#1412=CARTESIAN_POINT('',(0.,0.,0.015));
#1413=CARTESIAN_POINT('',(-0.01,0.,0.015));
#1414=CARTESIAN_POINT('',(0.,-2.77555756156289E-17,0.));
#1415=CARTESIAN_POINT('',(0.065,0.065,0.));
#1416=CARTESIAN_POINT('',(0.013,0.065,0.));
#1417=CARTESIAN_POINT('',(-0.065,-0.065,0.));
#1418=CARTESIAN_POINT('',(-0.117,-0.065,0.));
#1419=CARTESIAN_POINT('',(-0.173,0.058,0.));
#1420=CARTESIAN_POINT('',(-0.1763,0.058,0.));
#1421=CARTESIAN_POINT('',(0.173,0.173,0.));
#1422=CARTESIAN_POINT('',(0.1697,0.173,0.));
#1423=CARTESIAN_POINT('',(0.058,0.173,0.));
#1424=CARTESIAN_POINT('',(0.0547,0.173,0.));
#1425=CARTESIAN_POINT('',(-0.058,0.173,0.));
#1426=CARTESIAN_POINT('',(-0.0613,0.173,0.));
#1427=CARTESIAN_POINT('',(-0.173,-0.058,0.));
#1428=CARTESIAN_POINT('',(-0.1763,-0.058,0.));
#1429=CARTESIAN_POINT('',(-0.173,-0.173,0.));
#1430=CARTESIAN_POINT('',(-0.1763,-0.173,0.));
#1431=CARTESIAN_POINT('',(-0.058,-0.173,0.));
#1432=CARTESIAN_POINT('',(-0.0613,-0.173,0.));
#1433=CARTESIAN_POINT('',(0.058,-0.173,0.));
#1434=CARTESIAN_POINT('',(0.0547,-0.173,0.));
#1435=CARTESIAN_POINT('',(0.173,-0.173,0.));
#1436=CARTESIAN_POINT('',(0.1697,-0.173,0.));
#1437=CARTESIAN_POINT('',(0.173,-0.058,0.));
#1438=CARTESIAN_POINT('',(0.1697,-0.058,0.));
#1439=CARTESIAN_POINT('',(0.173,0.058,0.));
#1440=CARTESIAN_POINT('',(0.1697,0.058,0.));
#1441=CARTESIAN_POINT('',(-0.173,0.173,0.));
#1442=CARTESIAN_POINT('',(-0.1763,0.173,0.));
#1443=CARTESIAN_POINT('',(0.,0.,0.));
#1444=CARTESIAN_POINT('',(-0.01,0.,0.));
#1445=CARTESIAN_POINT('',(0.,0.,0.015));
#1446=CARTESIAN_POINT('',(-0.173,0.173,0.015));
#1447=CARTESIAN_POINT('',(0.173,0.058,0.015));
#1448=CARTESIAN_POINT('',(0.173,-0.058,0.015));
#1449=CARTESIAN_POINT('',(0.173,-0.173,0.015));
#1450=CARTESIAN_POINT('',(0.058,-0.173,0.015));
#1451=CARTESIAN_POINT('',(-0.058,-0.173,0.015));
#1452=CARTESIAN_POINT('',(-0.173,-0.173,0.015));
#1453=CARTESIAN_POINT('',(-0.173,-0.058,0.015));
#1454=CARTESIAN_POINT('',(-0.058,0.173,0.015));
#1455=CARTESIAN_POINT('',(0.058,0.173,0.015));
#1456=CARTESIAN_POINT('',(0.173,0.173,0.015));
#1457=CARTESIAN_POINT('',(-0.173,0.058,0.015));
#1458=CARTESIAN_POINT('',(-0.065,-0.065,0.015));
#1459=CARTESIAN_POINT('',(0.065,0.065,0.015));
#1460=CARTESIAN_POINT('',(0.135,-0.135,0.005));
#1461=CARTESIAN_POINT('',(0.135,-0.135,0.00301715995720905));
#1462=CARTESIAN_POINT('',(0.135,-0.135,0.005));
#1463=CARTESIAN_POINT('',(0.1317,-0.135,0.005));
#1464=CARTESIAN_POINT('',(0.135,-0.135,0.015));
#1465=CARTESIAN_POINT('',(-0.135,0.135,0.005));
#1466=CARTESIAN_POINT('',(-0.135,0.135,0.00301715995720905));
#1467=CARTESIAN_POINT('',(-0.135,0.135,0.005));
#1468=CARTESIAN_POINT('',(-0.1383,0.135,0.005));
#1469=CARTESIAN_POINT('',(-0.135,0.135,0.015));
#1470=CARTESIAN_POINT('',(0.,0.,-0.015));
#1471=CARTESIAN_POINT('',(0.0636396103067893,-0.0636396103067893,0.044));
#1472=MECHANICAL_DESIGN_GEOMETRIC_PRESENTATION_REPRESENTATION('',(#812,#813,#814,#815,#816,#817),#1473);
#1473=(
GEOMETRIC_REPRESENTATION_CONTEXT(3)
GLOBAL_UNCERTAINTY_ASSIGNED_CONTEXT((#1480))
GLOBAL_UNIT_ASSIGNED_CONTEXT((#1489,#1488,#1487))
REPRESENTATION_CONTEXT('full_lid','TOP_LEVEL_ASSEMBLY_PART')
);
#1474=(
GEOMETRIC_REPRESENTATION_CONTEXT(3)
GLOBAL_UNCERTAINTY_ASSIGNED_CONTEXT((#1481))
GLOBAL_UNIT_ASSIGNED_CONTEXT((#1489,#1488,#1487))
REPRESENTATION_CONTEXT('pipe_30','COMPONENT_PART')
);
#1475=(
GEOMETRIC_REPRESENTATION_CONTEXT(3)
GLOBAL_UNCERTAINTY_ASSIGNED_CONTEXT((#1482))
GLOBAL_UNIT_ASSIGNED_CONTEXT((#1489,#1488,#1487))
REPRESENTATION_CONTEXT('red_25_50','COMPONENT_PART')
);
#1476=(
GEOMETRIC_REPRESENTATION_CONTEXT(3)
GLOBAL_UNCERTAINTY_ASSIGNED_CONTEXT((#1483))
GLOBAL_UNIT_ASSIGNED_CONTEXT((#1489,#1488,#1487))
REPRESENTATION_CONTEXT('pipe_150','COMPONENT_PART')
);
#1477=(
GEOMETRIC_REPRESENTATION_CONTEXT(3)
GLOBAL_UNCERTAINTY_ASSIGNED_CONTEXT((#1484))
GLOBAL_UNIT_ASSIGNED_CONTEXT((#1489,#1488,#1487))
REPRESENTATION_CONTEXT('90','COMPONENT_PART')
);
#1478=(
GEOMETRIC_REPRESENTATION_CONTEXT(3)
GLOBAL_UNCERTAINTY_ASSIGNED_CONTEXT((#1485))
GLOBAL_UNIT_ASSIGNED_CONTEXT((#1489,#1488,#1487))
REPRESENTATION_CONTEXT('Part 1','COMPONENT_PART')
);
#1479=(
GEOMETRIC_REPRESENTATION_CONTEXT(3)
GLOBAL_UNCERTAINTY_ASSIGNED_CONTEXT((#1486))
GLOBAL_UNIT_ASSIGNED_CONTEXT((#1489,#1488,#1487))
REPRESENTATION_CONTEXT('lid_plate','COMPONENT_PART')
);
#1480=UNCERTAINTY_MEASURE_WITH_UNIT(LENGTH_MEASURE(1.E-08),#1489,'DISTANCE_ACCURACY_VALUE','Maximum Tolerance applied to model');
#1481=UNCERTAINTY_MEASURE_WITH_UNIT(LENGTH_MEASURE(1.E-08),#1489,'DISTANCE_ACCURACY_VALUE','Maximum Tolerance applied to model');
#1482=UNCERTAINTY_MEASURE_WITH_UNIT(LENGTH_MEASURE(1.E-08),#1489,'DISTANCE_ACCURACY_VALUE','Maximum Tolerance applied to model');
#1483=UNCERTAINTY_MEASURE_WITH_UNIT(LENGTH_MEASURE(1.E-08),#1489,'DISTANCE_ACCURACY_VALUE','Maximum Tolerance applied to model');
#1484=UNCERTAINTY_MEASURE_WITH_UNIT(LENGTH_MEASURE(1.E-08),#1489,'DISTANCE_ACCURACY_VALUE','Maximum Tolerance applied to model');
#1485=UNCERTAINTY_MEASURE_WITH_UNIT(LENGTH_MEASURE(1.E-08),#1489,'DISTANCE_ACCURACY_VALUE','Maximum Tolerance applied to model');
#1486=UNCERTAINTY_MEASURE_WITH_UNIT(LENGTH_MEASURE(1.E-08),#1489,'DISTANCE_ACCURACY_VALUE','Maximum Tolerance applied to model');
#1487=(
NAMED_UNIT(*)
SI_UNIT($,.STERADIAN.)
SOLID_ANGLE_UNIT()
);
#1488=(
NAMED_UNIT(*)
PLANE_ANGLE_UNIT()
SI_UNIT($,.RADIAN.)
);
#1489=(
LENGTH_UNIT()
NAMED_UNIT(*)
SI_UNIT($,.METRE.)
);
#1490=PRODUCT_DEFINITION_SHAPE('','',#1505);
#1491=PRODUCT_DEFINITION_SHAPE('','',#1506);
#1492=PRODUCT_DEFINITION_SHAPE(' ','NAUO PRDDFN',#52);
#1493=PRODUCT_DEFINITION_SHAPE('','',#1507);
#1494=PRODUCT_DEFINITION_SHAPE(' ','NAUO PRDDFN',#53);
#1495=PRODUCT_DEFINITION_SHAPE('','',#1508);
#1496=PRODUCT_DEFINITION_SHAPE(' ','NAUO PRDDFN',#54);
#1497=PRODUCT_DEFINITION_SHAPE('','',#1509);
#1498=PRODUCT_DEFINITION_SHAPE(' ','NAUO PRDDFN',#55);
#1499=PRODUCT_DEFINITION_SHAPE('','',#1510);
#1500=PRODUCT_DEFINITION_SHAPE(' ','NAUO PRDDFN',#56);
#1501=PRODUCT_DEFINITION_SHAPE(' ','NAUO PRDDFN',#57);
#1502=PRODUCT_DEFINITION_SHAPE('','',#1511);
#1503=PRODUCT_DEFINITION_SHAPE(' ','NAUO PRDDFN',#58);
#1504=PRODUCT_DEFINITION_SHAPE(' ','NAUO PRDDFN',#59);
#1505=PRODUCT_DEFINITION('','',#1519,#1512);
#1506=PRODUCT_DEFINITION('','',#1520,#1513);
#1507=PRODUCT_DEFINITION('','',#1521,#1514);
#1508=PRODUCT_DEFINITION('','',#1522,#1515);
#1509=PRODUCT_DEFINITION('','',#1523,#1516);
#1510=PRODUCT_DEFINITION('','',#1524,#1517);
#1511=PRODUCT_DEFINITION('','',#1525,#1518);
#1512=PRODUCT_DEFINITION_CONTEXT('',#1555,'design');
#1513=PRODUCT_DEFINITION_CONTEXT('',#1555,'design');
#1514=PRODUCT_DEFINITION_CONTEXT('',#1555,'design');
#1515=PRODUCT_DEFINITION_CONTEXT('',#1555,'design');
#1516=PRODUCT_DEFINITION_CONTEXT('',#1555,'design');
#1517=PRODUCT_DEFINITION_CONTEXT('',#1555,'design');
#1518=PRODUCT_DEFINITION_CONTEXT('',#1555,'design');
#1519=PRODUCT_DEFINITION_FORMATION_WITH_SPECIFIED_SOURCE('','',#1533,.NOT_KNOWN.);
#1520=PRODUCT_DEFINITION_FORMATION_WITH_SPECIFIED_SOURCE('','',#1534,.NOT_KNOWN.);
#1521=PRODUCT_DEFINITION_FORMATION_WITH_SPECIFIED_SOURCE('','',#1535,.NOT_KNOWN.);
#1522=PRODUCT_DEFINITION_FORMATION_WITH_SPECIFIED_SOURCE('','',#1536,.NOT_KNOWN.);
#1523=PRODUCT_DEFINITION_FORMATION_WITH_SPECIFIED_SOURCE('','',#1537,.NOT_KNOWN.);
#1524=PRODUCT_DEFINITION_FORMATION_WITH_SPECIFIED_SOURCE('','',#1538,.NOT_KNOWN.);
#1525=PRODUCT_DEFINITION_FORMATION_WITH_SPECIFIED_SOURCE('','',#1539,.NOT_KNOWN.);
#1526=PRODUCT_RELATED_PRODUCT_CATEGORY('','',(#1533));
#1527=PRODUCT_RELATED_PRODUCT_CATEGORY('','',(#1534));
#1528=PRODUCT_RELATED_PRODUCT_CATEGORY('','',(#1535));
#1529=PRODUCT_RELATED_PRODUCT_CATEGORY('','',(#1536));
#1530=PRODUCT_RELATED_PRODUCT_CATEGORY('','',(#1537));
#1531=PRODUCT_RELATED_PRODUCT_CATEGORY('','',(#1538));
#1532=PRODUCT_RELATED_PRODUCT_CATEGORY('','',(#1539));
#1533=PRODUCT('full_lid','full_lid','full_lid',(#1547));
#1534=PRODUCT('pipe_30','pipe_30','pipe_30',(#1548));
#1535=PRODUCT('red_25_50','red_25_50','red_25_50',(#1549));
#1536=PRODUCT('pipe_150','pipe_150','pipe_150',(#1550));
#1537=PRODUCT('90','90','90',(#1551));
#1538=PRODUCT('Part 1','Part 1','Part 1',(#1552));
#1539=PRODUCT('lid_plate','lid_plate','lid_plate',(#1553));
#1540=PRODUCT_CATEGORY('','');
#1541=PRODUCT_CATEGORY('','');
#1542=PRODUCT_CATEGORY('','');
#1543=PRODUCT_CATEGORY('','');
#1544=PRODUCT_CATEGORY('','');
#1545=PRODUCT_CATEGORY('','');
#1546=PRODUCT_CATEGORY('','');
#1547=PRODUCT_CONTEXT('',#1555,'mechanical');
#1548=PRODUCT_CONTEXT('',#1555,'mechanical');
#1549=PRODUCT_CONTEXT('',#1555,'mechanical');
#1550=PRODUCT_CONTEXT('',#1555,'mechanical');
#1551=PRODUCT_CONTEXT('',#1555,'mechanical');
#1552=PRODUCT_CONTEXT('',#1555,'mechanical');
#1553=PRODUCT_CONTEXT('',#1555,'mechanical');
#1554=APPLICATION_PROTOCOL_DEFINITION('international standard','ap242_managed_model_based_3d_engineering',2020,#1555);
#1555=APPLICATION_CONTEXT('managed model based 3d engineering');
ENDSEC;
END-ISO-10303-21;
