ISO-10303-21;
HEADER;
/*Generated by software containing ST-Developer
 * from STEP Tools, Inc. (www.steptools.com) 
 */
/*OPTION: using custom renumber hook */
/*description */
/*implementation_level */
FILE_DESCRIPTION(('STEP AP242 Edition 2','STEP AP242 Edition 2''CAx-IF Rec.Pracs.---Representation and Presentation of Product Manufa
cturing Information (PMI)---4.0---2014-10-13','STEP AP242 Edition 2''CAx-IF Rec.Pracs.---Representation and Presentation of Product Manufa
cturing Information (PMI)---4.0---2014-10-13''CAx-IF Rec.Pracs.---3D Tessellated Geometry---0.4---2014-09-14','STEP AP242 Edition 2''CAx-IF Rec.Pracs.---Representation and Presentation of Product Manufa
cturing Information (PMI)---4.0---2014-10-13''CAx-IF Rec.Pracs.---3D Tessellated Geometry---0.4---2014-09-14''2;1','STEP AP242 Edition 2''CAx-IF Rec.Pracs.---Representation and Presentation of Product Manufa
cturing Information (PMI)---4.0---2014-10-13''CAx-IF Rec.Pracs.---3D Tessellated Geometry---0.4---2014-09-14''2;1''CAx-IF Rec.Pracs.---User Defined Attributes---1.5---2016-08-15'),'2;1');
/*name */
/*time_stamp */
/*author */
/*organization */
/*preprocessor_version */
/*originating_system */
/*authorisation */
FILE_NAME('/vol/tmp/translate-1902582999124901364/interior.step','2026-03-08T11:05:38',(''),(''),'ST-DEVELOPER v20','ONSHAPE BY PTC INC, 1.211','  ');
FILE_SCHEMA(('AP242_MANAGED_MODEL_BASED_3D_ENGINEERING_MIM_LF { 1 0 10303 442 3 1 4 }'));
ENDSEC;
DATA;
#10=SHAPE_REPRESENTATION_RELATIONSHIP('','',#329,#11);
#11=ADVANCED_BREP_SHAPE_REPRESENTATION('',(#327),#529);
#12=CONICAL_SURFACE('',#350,0.045,0.671143835436009);
#13=CONICAL_SURFACE('',#354,0.0265,0.671143835436009);
#14=CYLINDRICAL_SURFACE('',#348,0.045);
#15=CYLINDRICAL_SURFACE('',#352,0.04);
#16=CIRCLE('',#336,0.045);
#17=CIRCLE('',#347,0.04);
#18=CIRCLE('',#349,0.045);
#19=CIRCLE('',#351,0.0315);
#20=CIRCLE('',#353,0.04);
#21=CIRCLE('',#355,0.0265);
#22=ORIENTED_EDGE('',*,*,#98,.F.);
#23=ORIENTED_EDGE('',*,*,#99,.F.);
#24=ORIENTED_EDGE('',*,*,#100,.T.);
#25=ORIENTED_EDGE('',*,*,#101,.T.);
#26=ORIENTED_EDGE('',*,*,#102,.T.);
#27=ORIENTED_EDGE('',*,*,#103,.F.);
#28=ORIENTED_EDGE('',*,*,#104,.F.);
#29=ORIENTED_EDGE('',*,*,#99,.T.);
#30=ORIENTED_EDGE('',*,*,#105,.T.);
#31=ORIENTED_EDGE('',*,*,#106,.F.);
#32=ORIENTED_EDGE('',*,*,#107,.F.);
#33=ORIENTED_EDGE('',*,*,#103,.T.);
#34=ORIENTED_EDGE('',*,*,#108,.F.);
#35=ORIENTED_EDGE('',*,*,#101,.F.);
#36=ORIENTED_EDGE('',*,*,#109,.T.);
#37=ORIENTED_EDGE('',*,*,#106,.T.);
#38=ORIENTED_EDGE('',*,*,#110,.F.);
#39=ORIENTED_EDGE('',*,*,#98,.T.);
#40=ORIENTED_EDGE('',*,*,#108,.T.);
#41=ORIENTED_EDGE('',*,*,#105,.F.);
#42=ORIENTED_EDGE('',*,*,#102,.F.);
#43=ORIENTED_EDGE('',*,*,#100,.F.);
#44=ORIENTED_EDGE('',*,*,#111,.F.);
#45=ORIENTED_EDGE('',*,*,#112,.T.);
#46=ORIENTED_EDGE('',*,*,#113,.T.);
#47=ORIENTED_EDGE('',*,*,#111,.T.);
#48=ORIENTED_EDGE('',*,*,#104,.T.);
#49=ORIENTED_EDGE('',*,*,#114,.F.);
#50=ORIENTED_EDGE('',*,*,#115,.T.);
#51=ORIENTED_EDGE('',*,*,#114,.T.);
#52=ORIENTED_EDGE('',*,*,#107,.T.);
#53=ORIENTED_EDGE('',*,*,#116,.F.);
#54=ORIENTED_EDGE('',*,*,#117,.T.);
#55=ORIENTED_EDGE('',*,*,#116,.T.);
#56=ORIENTED_EDGE('',*,*,#109,.F.);
#57=ORIENTED_EDGE('',*,*,#113,.F.);
#58=ORIENTED_EDGE('',*,*,#118,.T.);
#59=ORIENTED_EDGE('',*,*,#119,.T.);
#60=ORIENTED_EDGE('',*,*,#120,.T.);
#61=ORIENTED_EDGE('',*,*,#121,.T.);
#62=ORIENTED_EDGE('',*,*,#122,.T.);
#63=ORIENTED_EDGE('',*,*,#118,.F.);
#64=ORIENTED_EDGE('',*,*,#112,.F.);
#65=ORIENTED_EDGE('',*,*,#115,.F.);
#66=ORIENTED_EDGE('',*,*,#117,.F.);
#67=ORIENTED_EDGE('',*,*,#123,.T.);
#68=ORIENTED_EDGE('',*,*,#124,.F.);
#69=ORIENTED_EDGE('',*,*,#122,.F.);
#70=ORIENTED_EDGE('',*,*,#125,.T.);
#71=ORIENTED_EDGE('',*,*,#125,.F.);
#72=ORIENTED_EDGE('',*,*,#121,.F.);
#73=ORIENTED_EDGE('',*,*,#126,.T.);
#74=ORIENTED_EDGE('',*,*,#127,.T.);
#75=ORIENTED_EDGE('',*,*,#126,.F.);
#76=ORIENTED_EDGE('',*,*,#120,.F.);
#77=ORIENTED_EDGE('',*,*,#128,.T.);
#78=ORIENTED_EDGE('',*,*,#129,.T.);
#79=ORIENTED_EDGE('',*,*,#128,.F.);
#80=ORIENTED_EDGE('',*,*,#119,.F.);
#81=ORIENTED_EDGE('',*,*,#124,.T.);
#82=ORIENTED_EDGE('',*,*,#130,.T.);
#83=ORIENTED_EDGE('',*,*,#130,.F.);
#84=ORIENTED_EDGE('',*,*,#123,.F.);
#85=ORIENTED_EDGE('',*,*,#127,.F.);
#86=ORIENTED_EDGE('',*,*,#129,.F.);
#87=ORIENTED_EDGE('',*,*,#131,.T.);
#88=ORIENTED_EDGE('',*,*,#132,.F.);
#89=ORIENTED_EDGE('',*,*,#110,.T.);
#90=ORIENTED_EDGE('',*,*,#133,.F.);
#91=ORIENTED_EDGE('',*,*,#132,.T.);
#92=ORIENTED_EDGE('',*,*,#131,.F.);
#93=ORIENTED_EDGE('',*,*,#134,.T.);
#94=ORIENTED_EDGE('',*,*,#134,.F.);
#95=ORIENTED_EDGE('',*,*,#135,.T.);
#96=ORIENTED_EDGE('',*,*,#135,.F.);
#97=ORIENTED_EDGE('',*,*,#133,.T.);
#98=EDGE_CURVE('',#136,#137,#162,.T.);
#99=EDGE_CURVE('',#138,#136,#163,.T.);
#100=EDGE_CURVE('',#138,#139,#164,.T.);
#101=EDGE_CURVE('',#139,#137,#165,.T.);
#102=EDGE_CURVE('',#136,#140,#166,.T.);
#103=EDGE_CURVE('',#141,#140,#167,.T.);
#104=EDGE_CURVE('',#138,#141,#168,.T.);
#105=EDGE_CURVE('',#140,#142,#169,.T.);
#106=EDGE_CURVE('',#143,#142,#170,.T.);
#107=EDGE_CURVE('',#141,#143,#171,.T.);
#108=EDGE_CURVE('',#137,#142,#172,.T.);
#109=EDGE_CURVE('',#139,#143,#173,.T.);
#110=EDGE_CURVE('',#144,#144,#16,.F.);
#111=EDGE_CURVE('',#145,#138,#174,.T.);
#112=EDGE_CURVE('',#145,#146,#175,.F.);
#113=EDGE_CURVE('',#146,#139,#176,.T.);
#114=EDGE_CURVE('',#147,#141,#177,.T.);
#115=EDGE_CURVE('',#147,#145,#178,.F.);
#116=EDGE_CURVE('',#148,#143,#179,.T.);
#117=EDGE_CURVE('',#148,#147,#180,.T.);
#118=EDGE_CURVE('',#146,#148,#181,.T.);
#119=EDGE_CURVE('',#149,#150,#182,.T.);
#120=EDGE_CURVE('',#150,#151,#183,.T.);
#121=EDGE_CURVE('',#151,#152,#184,.F.);
#122=EDGE_CURVE('',#152,#149,#185,.F.);
#123=EDGE_CURVE('',#153,#154,#186,.F.);
#124=EDGE_CURVE('',#149,#154,#187,.T.);
#125=EDGE_CURVE('',#152,#153,#188,.T.);
#126=EDGE_CURVE('',#151,#155,#189,.T.);
#127=EDGE_CURVE('',#155,#153,#190,.F.);
#128=EDGE_CURVE('',#150,#156,#191,.T.);
#129=EDGE_CURVE('',#156,#155,#192,.T.);
#130=EDGE_CURVE('',#154,#156,#193,.T.);
#131=EDGE_CURVE('',#157,#157,#17,.T.);
#132=EDGE_CURVE('',#158,#158,#18,.T.);
#133=EDGE_CURVE('',#159,#159,#19,.T.);
#134=EDGE_CURVE('',#160,#160,#20,.T.);
#135=EDGE_CURVE('',#161,#161,#21,.T.);
#136=VERTEX_POINT('',#446);
#137=VERTEX_POINT('',#447);
#138=VERTEX_POINT('',#449);
#139=VERTEX_POINT('',#451);
#140=VERTEX_POINT('',#455);
#141=VERTEX_POINT('',#457);
#142=VERTEX_POINT('',#461);
#143=VERTEX_POINT('',#463);
#144=VERTEX_POINT('',#470);
#145=VERTEX_POINT('',#473);
#146=VERTEX_POINT('',#475);
#147=VERTEX_POINT('',#479);
#148=VERTEX_POINT('',#483);
#149=VERTEX_POINT('',#489);
#150=VERTEX_POINT('',#490);
#151=VERTEX_POINT('',#492);
#152=VERTEX_POINT('',#494);
#153=VERTEX_POINT('',#498);
#154=VERTEX_POINT('',#499);
#155=VERTEX_POINT('',#504);
#156=VERTEX_POINT('',#508);
#157=VERTEX_POINT('',#514);
#158=VERTEX_POINT('',#517);
#159=VERTEX_POINT('',#520);
#160=VERTEX_POINT('',#523);
#161=VERTEX_POINT('',#526);
#162=LINE('',#445,#194);
#163=LINE('',#448,#195);
#164=LINE('',#450,#196);
#165=LINE('',#452,#197);
#166=LINE('',#454,#198);
#167=LINE('',#456,#199);
#168=LINE('',#458,#200);
#169=LINE('',#460,#201);
#170=LINE('',#462,#202);
#171=LINE('',#464,#203);
#172=LINE('',#466,#204);
#173=LINE('',#467,#205);
#174=LINE('',#472,#206);
#175=LINE('',#474,#207);
#176=LINE('',#476,#208);
#177=LINE('',#478,#209);
#178=LINE('',#480,#210);
#179=LINE('',#482,#211);
#180=LINE('',#484,#212);
#181=LINE('',#486,#213);
#182=LINE('',#488,#214);
#183=LINE('',#491,#215);
#184=LINE('',#493,#216);
#185=LINE('',#495,#217);
#186=LINE('',#497,#218);
#187=LINE('',#500,#219);
#188=LINE('',#501,#220);
#189=LINE('',#503,#221);
#190=LINE('',#505,#222);
#191=LINE('',#507,#223);
#192=LINE('',#509,#224);
#193=LINE('',#511,#225);
#194=VECTOR('',#361,1.);
#195=VECTOR('',#362,1.);
#196=VECTOR('',#363,1.);
#197=VECTOR('',#364,1.);
#198=VECTOR('',#367,1.);
#199=VECTOR('',#368,1.);
#200=VECTOR('',#369,1.);
#201=VECTOR('',#372,1.);
#202=VECTOR('',#373,1.);
#203=VECTOR('',#374,1.);
#204=VECTOR('',#377,1.);
#205=VECTOR('',#378,1.);
#206=VECTOR('',#385,1.);
#207=VECTOR('',#386,1.);
#208=VECTOR('',#387,1.);
#209=VECTOR('',#390,1.);
#210=VECTOR('',#391,1.);
#211=VECTOR('',#394,1.);
#212=VECTOR('',#395,1.);
#213=VECTOR('',#398,1.);
#214=VECTOR('',#401,1.);
#215=VECTOR('',#402,1.);
#216=VECTOR('',#403,1.);
#217=VECTOR('',#404,1.);
#218=VECTOR('',#407,1.);
#219=VECTOR('',#408,1.);
#220=VECTOR('',#409,1.);
#221=VECTOR('',#412,1.);
#222=VECTOR('',#413,1.);
#223=VECTOR('',#416,1.);
#224=VECTOR('',#417,1.);
#225=VECTOR('',#420,1.);
#226=EDGE_LOOP('',(#22,#23,#24,#25));
#227=EDGE_LOOP('',(#26,#27,#28,#29));
#228=EDGE_LOOP('',(#30,#31,#32,#33));
#229=EDGE_LOOP('',(#34,#35,#36,#37));
#230=EDGE_LOOP('',(#38));
#231=EDGE_LOOP('',(#39,#40,#41,#42));
#232=EDGE_LOOP('',(#43,#44,#45,#46));
#233=EDGE_LOOP('',(#47,#48,#49,#50));
#234=EDGE_LOOP('',(#51,#52,#53,#54));
#235=EDGE_LOOP('',(#55,#56,#57,#58));
#236=EDGE_LOOP('',(#59,#60,#61,#62));
#237=EDGE_LOOP('',(#63,#64,#65,#66));
#238=EDGE_LOOP('',(#67,#68,#69,#70));
#239=EDGE_LOOP('',(#71,#72,#73,#74));
#240=EDGE_LOOP('',(#75,#76,#77,#78));
#241=EDGE_LOOP('',(#79,#80,#81,#82));
#242=EDGE_LOOP('',(#83,#84,#85,#86));
#243=EDGE_LOOP('',(#87));
#244=EDGE_LOOP('',(#88));
#245=EDGE_LOOP('',(#89));
#246=EDGE_LOOP('',(#90));
#247=EDGE_LOOP('',(#91));
#248=EDGE_LOOP('',(#92));
#249=EDGE_LOOP('',(#93));
#250=EDGE_LOOP('',(#94));
#251=EDGE_LOOP('',(#95));
#252=EDGE_LOOP('',(#96));
#253=EDGE_LOOP('',(#97));
#254=FACE_BOUND('',#226,.T.);
#255=FACE_BOUND('',#227,.T.);
#256=FACE_BOUND('',#228,.T.);
#257=FACE_BOUND('',#229,.T.);
#258=FACE_BOUND('',#230,.T.);
#259=FACE_BOUND('',#231,.T.);
#260=FACE_BOUND('',#232,.T.);
#261=FACE_BOUND('',#233,.T.);
#262=FACE_BOUND('',#234,.T.);
#263=FACE_BOUND('',#235,.T.);
#264=FACE_BOUND('',#236,.T.);
#265=FACE_BOUND('',#237,.T.);
#266=FACE_BOUND('',#238,.T.);
#267=FACE_BOUND('',#239,.T.);
#268=FACE_BOUND('',#240,.T.);
#269=FACE_BOUND('',#241,.T.);
#270=FACE_BOUND('',#242,.T.);
#271=FACE_BOUND('',#243,.T.);
#272=FACE_BOUND('',#244,.T.);
#273=FACE_BOUND('',#245,.T.);
#274=FACE_BOUND('',#246,.T.);
#275=FACE_BOUND('',#247,.T.);
#276=FACE_BOUND('',#248,.T.);
#277=FACE_BOUND('',#249,.T.);
#278=FACE_BOUND('',#250,.T.);
#279=FACE_BOUND('',#251,.T.);
#280=FACE_BOUND('',#252,.T.);
#281=FACE_BOUND('',#253,.T.);
#282=PLANE('',#331);
#283=PLANE('',#332);
#284=PLANE('',#333);
#285=PLANE('',#334);
#286=PLANE('',#335);
#287=PLANE('',#337);
#288=PLANE('',#338);
#289=PLANE('',#339);
#290=PLANE('',#340);
#291=PLANE('',#341);
#292=PLANE('',#342);
#293=PLANE('',#343);
#294=PLANE('',#344);
#295=PLANE('',#345);
#296=PLANE('',#346);
#297=PLANE('',#356);
#298=ADVANCED_FACE('',(#254),#282,.T.);
#299=ADVANCED_FACE('',(#255),#283,.F.);
#300=ADVANCED_FACE('',(#256),#284,.F.);
#301=ADVANCED_FACE('',(#257),#285,.T.);
#302=ADVANCED_FACE('',(#258,#259),#286,.F.);
#303=ADVANCED_FACE('',(#260),#287,.F.);
#304=ADVANCED_FACE('',(#261),#288,.F.);
#305=ADVANCED_FACE('',(#262),#289,.T.);
#306=ADVANCED_FACE('',(#263),#290,.T.);
#307=ADVANCED_FACE('',(#264,#265),#291,.T.);
#308=ADVANCED_FACE('',(#266),#292,.T.);
#309=ADVANCED_FACE('',(#267),#293,.T.);
#310=ADVANCED_FACE('',(#268),#294,.F.);
#311=ADVANCED_FACE('',(#269),#295,.F.);
#312=ADVANCED_FACE('',(#270,#271),#296,.T.);
#313=ADVANCED_FACE('',(#272,#273),#14,.T.);
#314=ADVANCED_FACE('',(#274,#275),#12,.T.);
#315=ADVANCED_FACE('',(#276,#277),#15,.F.);
#316=ADVANCED_FACE('',(#278,#279),#13,.F.);
#317=ADVANCED_FACE('',(#280,#281),#297,.F.);
#318=CLOSED_SHELL('',(#298,#299,#300,#301,#302,#303,#304,#305,#306,#307,#308,#309,#310,#311,#312,#313,#314,#315,#316,#317));
#319=STYLED_ITEM('',(#320),#327);
#320=PRESENTATION_STYLE_ASSIGNMENT((#321));
#321=SURFACE_STYLE_USAGE(.BOTH.,#322);
#322=SURFACE_SIDE_STYLE('',(#323));
#323=SURFACE_STYLE_FILL_AREA(#324);
#324=FILL_AREA_STYLE('',(#325));
#325=FILL_AREA_STYLE_COLOUR('',#326);
#326=COLOUR_RGB('',0.647058823529412,0.647058823529412,0.647058823529412);
#327=MANIFOLD_SOLID_BREP('interior',#318);
#328=SHAPE_DEFINITION_REPRESENTATION(#534,#329);
#329=SHAPE_REPRESENTATION('interior',(#330),#529);
#330=AXIS2_PLACEMENT_3D('',#443,#357,#358);
#331=AXIS2_PLACEMENT_3D('',#444,#359,#360);
#332=AXIS2_PLACEMENT_3D('',#453,#365,#366);
#333=AXIS2_PLACEMENT_3D('',#459,#370,#371);
#334=AXIS2_PLACEMENT_3D('',#465,#375,#376);
#335=AXIS2_PLACEMENT_3D('',#468,#379,#380);
#336=AXIS2_PLACEMENT_3D('',#469,#381,#382);
#337=AXIS2_PLACEMENT_3D('',#471,#383,#384);
#338=AXIS2_PLACEMENT_3D('',#477,#388,#389);
#339=AXIS2_PLACEMENT_3D('',#481,#392,#393);
#340=AXIS2_PLACEMENT_3D('',#485,#396,#397);
#341=AXIS2_PLACEMENT_3D('',#487,#399,#400);
#342=AXIS2_PLACEMENT_3D('',#496,#405,#406);
#343=AXIS2_PLACEMENT_3D('',#502,#410,#411);
#344=AXIS2_PLACEMENT_3D('',#506,#414,#415);
#345=AXIS2_PLACEMENT_3D('',#510,#418,#419);
#346=AXIS2_PLACEMENT_3D('',#512,#421,#422);
#347=AXIS2_PLACEMENT_3D('',#513,#423,#424);
#348=AXIS2_PLACEMENT_3D('',#515,#425,#426);
#349=AXIS2_PLACEMENT_3D('',#516,#427,#428);
#350=AXIS2_PLACEMENT_3D('',#518,#429,#430);
#351=AXIS2_PLACEMENT_3D('',#519,#431,#432);
#352=AXIS2_PLACEMENT_3D('',#521,#433,#434);
#353=AXIS2_PLACEMENT_3D('',#522,#435,#436);
#354=AXIS2_PLACEMENT_3D('',#524,#437,#438);
#355=AXIS2_PLACEMENT_3D('',#525,#439,#440);
#356=AXIS2_PLACEMENT_3D('',#527,#441,#442);
#357=DIRECTION('',(0.,0.,1.));
#358=DIRECTION('',(1.,0.,0.));
#359=DIRECTION('',(-1.,-1.7347234759768E-16,0.));
#360=DIRECTION('',(1.7347234759768E-16,-1.,0.));
#361=DIRECTION('',(-1.7347234759768E-16,1.,0.));
#362=DIRECTION('',(0.,0.,-1.));
#363=DIRECTION('',(-1.7347234759768E-16,1.,0.));
#364=DIRECTION('',(0.,0.,-1.));
#365=DIRECTION('',(0.,1.,0.));
#366=DIRECTION('',(0.,0.,1.));
#367=DIRECTION('',(1.,0.,0.));
#368=DIRECTION('',(0.,0.,-1.));
#369=DIRECTION('',(1.,0.,0.));
#370=DIRECTION('',(-1.,-1.7347234759768E-16,0.));
#371=DIRECTION('',(1.7347234759768E-16,-1.,0.));
#372=DIRECTION('',(-1.7347234759768E-16,1.,0.));
#373=DIRECTION('',(0.,0.,-1.));
#374=DIRECTION('',(-1.7347234759768E-16,1.,0.));
#375=DIRECTION('',(0.,1.,0.));
#376=DIRECTION('',(0.,0.,1.));
#377=DIRECTION('',(1.,0.,0.));
#378=DIRECTION('',(1.,0.,0.));
#379=DIRECTION('',(0.,0.,1.));
#380=DIRECTION('',(1.,0.,0.));
#381=DIRECTION('',(0.,0.,1.));
#382=DIRECTION('',(1.,0.,0.));
#383=DIRECTION('',(0.825644641500814,0.,0.564190505025556));
#384=DIRECTION('',(0.564190505025556,0.,-0.825644641500814));
#385=DIRECTION('',(0.49137928862116,0.49137928862116,-0.719091641884625));
#386=DIRECTION('',(0.,-1.,0.));
#387=DIRECTION('',(0.49137928862116,-0.49137928862116,-0.719091641884625));
#388=DIRECTION('',(0.,0.825644641500814,0.564190505025556));
#389=DIRECTION('',(0.,-0.564190505025556,0.825644641500814));
#390=DIRECTION('',(-0.49137928862116,0.49137928862116,-0.719091641884625));
#391=DIRECTION('',(1.,0.,0.));
#392=DIRECTION('',(0.825644641500814,0.,-0.564190505025556));
#393=DIRECTION('',(-0.564190505025556,0.,-0.825644641500814));
#394=DIRECTION('',(-0.49137928862116,-0.49137928862116,-0.719091641884625));
#395=DIRECTION('',(0.,-1.,0.));
#396=DIRECTION('',(0.,0.825644641500814,-0.564190505025556));
#397=DIRECTION('',(0.,0.564190505025556,0.825644641500814));
#398=DIRECTION('',(1.,0.,0.));
#399=DIRECTION('',(0.,0.,1.));
#400=DIRECTION('',(1.,0.,0.));
#401=DIRECTION('',(1.,0.,0.));
#402=DIRECTION('',(0.,-1.,0.));
#403=DIRECTION('',(1.,0.,0.));
#404=DIRECTION('',(0.,-1.,0.));
#405=DIRECTION('',(0.825644641500814,0.,0.564190505025556));
#406=DIRECTION('',(0.564190505025556,0.,-0.825644641500814));
#407=DIRECTION('',(0.,-1.,0.));
#408=DIRECTION('',(0.49137928862116,-0.49137928862116,-0.719091641884625));
#409=DIRECTION('',(0.49137928862116,0.49137928862116,-0.719091641884625));
#410=DIRECTION('',(0.,0.825644641500814,0.564190505025556));
#411=DIRECTION('',(0.,-0.564190505025557,0.825644641500814));
#412=DIRECTION('',(-0.49137928862116,0.49137928862116,-0.719091641884625));
#413=DIRECTION('',(1.,0.,0.));
#414=DIRECTION('',(0.825644641500814,0.,-0.564190505025556));
#415=DIRECTION('',(-0.564190505025556,0.,-0.825644641500814));
#416=DIRECTION('',(-0.49137928862116,-0.49137928862116,-0.719091641884625));
#417=DIRECTION('',(0.,-1.,0.));
#418=DIRECTION('',(0.,0.825644641500814,-0.564190505025556));
#419=DIRECTION('',(0.,0.564190505025556,0.825644641500814));
#420=DIRECTION('',(1.,0.,0.));
#421=DIRECTION('',(0.,0.,1.));
#422=DIRECTION('',(1.,0.,0.));
#423=DIRECTION('',(0.,0.,-1.));
#424=DIRECTION('',(-1.,0.,0.));
#425=DIRECTION('',(0.,0.,-1.));
#426=DIRECTION('',(-1.,0.,0.));
#427=DIRECTION('',(0.,0.,-1.));
#428=DIRECTION('',(-1.,0.,0.));
#429=DIRECTION('',(0.,0.,1.));
#430=DIRECTION('',(1.,0.,0.));
#431=DIRECTION('',(0.,0.,-1.));
#432=DIRECTION('',(-1.,0.,0.));
#433=DIRECTION('',(0.,0.,-1.));
#434=DIRECTION('',(-1.,0.,0.));
#435=DIRECTION('',(0.,0.,-1.));
#436=DIRECTION('',(-1.,0.,0.));
#437=DIRECTION('',(0.,0.,1.));
#438=DIRECTION('',(1.,0.,0.));
#439=DIRECTION('',(0.,0.,-1.));
#440=DIRECTION('',(-1.,0.,0.));
#441=DIRECTION('',(0.,0.,1.));
#442=DIRECTION('',(1.,0.,0.));
#443=CARTESIAN_POINT('',(0.,0.,0.));
#444=CARTESIAN_POINT('',(-0.06,-3.46944695195361E-18,0.02));
#445=CARTESIAN_POINT('',(-0.06,-3.46944695195361E-18,0.012));
#446=CARTESIAN_POINT('',(-0.06,-0.06,0.012));
#447=CARTESIAN_POINT('',(-0.06,0.06,0.012));
#448=CARTESIAN_POINT('',(-0.06,-0.06,0.02));
#449=CARTESIAN_POINT('',(-0.06,-0.06,0.02));
#450=CARTESIAN_POINT('',(-0.06,-3.46944695195361E-18,0.02));
#451=CARTESIAN_POINT('',(-0.06,0.06,0.02));
#452=CARTESIAN_POINT('',(-0.06,0.06,0.02));
#453=CARTESIAN_POINT('',(3.46944695195361E-18,-0.06,0.02));
#454=CARTESIAN_POINT('',(3.46944695195361E-18,-0.06,0.012));
#455=CARTESIAN_POINT('',(0.06,-0.06,0.012));
#456=CARTESIAN_POINT('',(0.06,-0.06,0.02));
#457=CARTESIAN_POINT('',(0.06,-0.06,0.02));
#458=CARTESIAN_POINT('',(3.46944695195361E-18,-0.06,0.02));
#459=CARTESIAN_POINT('',(0.06,-3.46944695195361E-18,0.02));
#460=CARTESIAN_POINT('',(0.06,-3.46944695195361E-18,0.012));
#461=CARTESIAN_POINT('',(0.06,0.06,0.012));
#462=CARTESIAN_POINT('',(0.06,0.06,0.02));
#463=CARTESIAN_POINT('',(0.06,0.06,0.02));
#464=CARTESIAN_POINT('',(0.06,-3.46944695195361E-18,0.02));
#465=CARTESIAN_POINT('',(-1.38777878078145E-17,0.06,0.02));
#466=CARTESIAN_POINT('',(-1.38777878078145E-17,0.06,0.012));
#467=CARTESIAN_POINT('',(-1.38777878078145E-17,0.06,0.02));
#468=CARTESIAN_POINT('',(0.,0.,0.012));
#469=CARTESIAN_POINT('',(0.,0.,0.012));
#470=CARTESIAN_POINT('',(0.045,0.,0.012));
#471=CARTESIAN_POINT('',(-0.0315849270971407,0.,-0.0215830335163795));
#472=CARTESIAN_POINT('',(-0.183,-0.183,0.2));
#473=CARTESIAN_POINT('',(-0.183,-0.183,0.2));
#474=CARTESIAN_POINT('',(-0.183,0.,0.2));
#475=CARTESIAN_POINT('',(-0.183,0.183,0.2));
#476=CARTESIAN_POINT('',(-0.183,0.183,0.2));
#477=CARTESIAN_POINT('',(0.,-0.0315849270971407,-0.0215830335163795));
#478=CARTESIAN_POINT('',(0.183,-0.183,0.2));
#479=CARTESIAN_POINT('',(0.183,-0.183,0.2));
#480=CARTESIAN_POINT('',(0.,-0.183,0.2));
#481=CARTESIAN_POINT('',(0.0315849270971406,0.,-0.0215830335163795));
#482=CARTESIAN_POINT('',(0.183,0.183,0.2));
#483=CARTESIAN_POINT('',(0.183,0.183,0.2));
#484=CARTESIAN_POINT('',(0.183,0.,0.2));
#485=CARTESIAN_POINT('',(0.,0.0315849270971407,-0.0215830335163795));
#486=CARTESIAN_POINT('',(0.,0.183,0.2));
#487=CARTESIAN_POINT('',(0.,0.,0.2));
#488=CARTESIAN_POINT('',(0.,0.171,0.2));
#489=CARTESIAN_POINT('',(-0.171,0.171,0.2));
#490=CARTESIAN_POINT('',(0.171,0.171,0.2));
#491=CARTESIAN_POINT('',(0.171,0.,0.2));
#492=CARTESIAN_POINT('',(0.171,-0.171,0.2));
#493=CARTESIAN_POINT('',(0.,-0.171,0.2));
#494=CARTESIAN_POINT('',(-0.171,-0.171,0.2));
#495=CARTESIAN_POINT('',(-0.171,0.,0.2));
#496=CARTESIAN_POINT('',(-0.0234046582086726,0.,-0.0159931831092596));
#497=CARTESIAN_POINT('',(-0.048,0.,0.02));
#498=CARTESIAN_POINT('',(-0.048,-0.048,0.02));
#499=CARTESIAN_POINT('',(-0.048,0.048,0.02));
#500=CARTESIAN_POINT('',(-0.171,0.171,0.2));
#501=CARTESIAN_POINT('',(-0.171,-0.171,0.2));
#502=CARTESIAN_POINT('',(0.,-0.0234046582086726,-0.0159931831092596));
#503=CARTESIAN_POINT('',(0.171,-0.171,0.2));
#504=CARTESIAN_POINT('',(0.048,-0.048,0.02));
#505=CARTESIAN_POINT('',(0.,-0.048,0.02));
#506=CARTESIAN_POINT('',(0.0234046582086726,0.,-0.0159931831092596));
#507=CARTESIAN_POINT('',(0.171,0.171,0.2));
#508=CARTESIAN_POINT('',(0.048,0.048,0.02));
#509=CARTESIAN_POINT('',(0.048,0.,0.02));
#510=CARTESIAN_POINT('',(0.,0.0234046582086726,-0.0159931831092596));
#511=CARTESIAN_POINT('',(0.,0.048,0.02));
#512=CARTESIAN_POINT('',(0.,0.,0.02));
#513=CARTESIAN_POINT('',(0.,0.,0.02));
#514=CARTESIAN_POINT('',(-0.04,0.,0.02));
#515=CARTESIAN_POINT('',(0.,0.,0.02));
#516=CARTESIAN_POINT('',(0.,0.,-0.018));
#517=CARTESIAN_POINT('',(-0.045,0.,-0.018));
#518=CARTESIAN_POINT('',(0.,0.,-0.018));
#519=CARTESIAN_POINT('',(0.,0.,-0.035));
#520=CARTESIAN_POINT('',(-0.0315,0.,-0.035));
#521=CARTESIAN_POINT('',(0.,0.,0.02));
#522=CARTESIAN_POINT('',(0.,0.,-0.018));
#523=CARTESIAN_POINT('',(-0.04,0.,-0.018));
#524=CARTESIAN_POINT('',(0.,0.,-0.035));
#525=CARTESIAN_POINT('',(0.,0.,-0.035));
#526=CARTESIAN_POINT('',(-0.0265,0.,-0.035));
#527=CARTESIAN_POINT('',(0.029,0.,-0.035));
#528=MECHANICAL_DESIGN_GEOMETRIC_PRESENTATION_REPRESENTATION('',(#319),#529);
#529=(
GEOMETRIC_REPRESENTATION_CONTEXT(3)
GLOBAL_UNCERTAINTY_ASSIGNED_CONTEXT((#530))
GLOBAL_UNIT_ASSIGNED_CONTEXT((#533,#532,#531))
REPRESENTATION_CONTEXT('interior','TOP_LEVEL_ASSEMBLY_PART')
);
#530=UNCERTAINTY_MEASURE_WITH_UNIT(LENGTH_MEASURE(1.E-08),#533,'DISTANCE_ACCURACY_VALUE','Maximum Tolerance applied to model');
#531=(
NAMED_UNIT(*)
SI_UNIT($,.STERADIAN.)
SOLID_ANGLE_UNIT()
);
#532=(
NAMED_UNIT(*)
PLANE_ANGLE_UNIT()
SI_UNIT($,.RADIAN.)
);
#533=(
LENGTH_UNIT()
NAMED_UNIT(*)
SI_UNIT($,.METRE.)
);
#534=PRODUCT_DEFINITION_SHAPE('','',#535);
#535=PRODUCT_DEFINITION('','',#537,#536);
#536=PRODUCT_DEFINITION_CONTEXT('',#543,'design');
#537=PRODUCT_DEFINITION_FORMATION_WITH_SPECIFIED_SOURCE('','',#539,.NOT_KNOWN.);
#538=PRODUCT_RELATED_PRODUCT_CATEGORY('','',(#539));
#539=PRODUCT('interior','interior','interior',(#541));
#540=PRODUCT_CATEGORY('','');
#541=PRODUCT_CONTEXT('',#543,'mechanical');
#542=APPLICATION_PROTOCOL_DEFINITION('international standard','ap242_managed_model_based_3d_engineering',2020,#543);
#543=APPLICATION_CONTEXT('managed model based 3d engineering');
ENDSEC;
END-ISO-10303-21;
