ISO-10303-21;
HEADER;
/*Generated by software containing ST-Developer
 * from STEP Tools, Inc. (www.steptools.com) 
 */
/*OPTION: using custom renumber hook */
/*description */
/*implementation_level */
FILE_DESCRIPTION(('STEP AP242 Edition 2','STEP AP242 Edition 2''CAx-IF Rec.Pracs.---Representation and Presentation of Product Manufa
cturing Information (PMI)---4.0---2014-10-13','STEP AP242 Edition 2''CAx-IF Rec.Pracs.---Representation and Presentation of Product Manufa
cturing Information (PMI)---4.0---2014-10-13''CAx-IF Rec.Pracs.---3D Tessellated Geometry---0.4---2014-09-14','STEP AP242 Edition 2''CAx-IF Rec.Pracs.---Representation and Presentation of Product Manufa
cturing Information (PMI)---4.0---2014-10-13''CAx-IF Rec.Pracs.---3D Tessellated Geometry---0.4---2014-09-14''2;1','STEP AP242 Edition 2''CAx-IF Rec.Pracs.---Representation and Presentation of Product Manufa
cturing Information (PMI)---4.0---2014-10-13''CAx-IF Rec.Pracs.---3D Tessellated Geometry---0.4---2014-09-14''2;1''CAx-IF Rec.Pracs.---User Defined Attributes---1.5---2016-08-15'),'2;1');
/*name */
/*time_stamp */
/*author */
/*organization */
/*preprocessor_version */
/*originating_system */
/*authorisation */
FILE_NAME('/vol/tmp/translate-6659969292974482931/69ad588f02d78c505ae2e5c8.step','2026-03-08T11:08:00',(''),(''),'ST-DEVELOPER v20','ONSHAPE BY PTC INC, 1.211','  ');
FILE_SCHEMA(('AP242_MANAGED_MODEL_BASED_3D_ENGINEERING_MIM_LF { 1 0 10303 442 3 1 4 }'));
ENDSEC;
DATA;
#10=CONICAL_SURFACE('',#453,0.045,0.671143835436009);
#11=CONICAL_SURFACE('',#457,0.0265,0.671143835436009);
#12=LINE('',#596,#44);
#13=LINE('',#599,#45);
#14=LINE('',#601,#46);
#15=LINE('',#603,#47);
#16=LINE('',#605,#48);
#17=LINE('',#607,#49);
#18=LINE('',#609,#50);
#19=LINE('',#611,#51);
#20=LINE('',#613,#52);
#21=LINE('',#615,#53);
#22=LINE('',#617,#54);
#23=LINE('',#618,#55);
#24=LINE('',#623,#56);
#25=LINE('',#625,#57);
#26=LINE('',#627,#58);
#27=LINE('',#629,#59);
#28=LINE('',#631,#60);
#29=LINE('',#633,#61);
#30=LINE('',#635,#62);
#31=LINE('',#637,#63);
#32=LINE('',#639,#64);
#33=LINE('',#642,#65);
#34=LINE('',#644,#66);
#35=LINE('',#646,#67);
#36=LINE('',#648,#68);
#37=LINE('',#651,#69);
#38=LINE('',#652,#70);
#39=LINE('',#654,#71);
#40=LINE('',#656,#72);
#41=LINE('',#658,#73);
#42=LINE('',#660,#74);
#43=LINE('',#662,#75);
#44=VECTOR('',#491,1.);
#45=VECTOR('',#492,1.);
#46=VECTOR('',#493,1.);
#47=VECTOR('',#494,1.);
#48=VECTOR('',#497,1.);
#49=VECTOR('',#498,1.);
#50=VECTOR('',#499,1.);
#51=VECTOR('',#502,1.);
#52=VECTOR('',#503,1.);
#53=VECTOR('',#504,1.);
#54=VECTOR('',#507,1.);
#55=VECTOR('',#508,1.);
#56=VECTOR('',#515,1.);
#57=VECTOR('',#516,1.);
#58=VECTOR('',#517,1.);
#59=VECTOR('',#520,1.);
#60=VECTOR('',#521,1.);
#61=VECTOR('',#524,1.);
#62=VECTOR('',#525,1.);
#63=VECTOR('',#528,1.);
#64=VECTOR('',#531,1.);
#65=VECTOR('',#532,1.);
#66=VECTOR('',#533,1.);
#67=VECTOR('',#534,1.);
#68=VECTOR('',#537,1.);
#69=VECTOR('',#538,1.);
#70=VECTOR('',#539,1.);
#71=VECTOR('',#542,1.);
#72=VECTOR('',#543,1.);
#73=VECTOR('',#546,1.);
#74=VECTOR('',#547,1.);
#75=VECTOR('',#550,1.);
#76=CONTEXT_DEPENDENT_SHAPE_REPRESENTATION(#80,#692);
#77=CONTEXT_DEPENDENT_SHAPE_REPRESENTATION(#81,#694);
#78=NEXT_ASSEMBLY_USAGE_OCCURRENCE('NAUO1','drain','drain',#695,#696,'');
#79=NEXT_ASSEMBLY_USAGE_OCCURRENCE('NAUO2','interior','interior',#695,#697,'');
#80=(
REPRESENTATION_RELATIONSHIP(' ',' ',#418,#417)
REPRESENTATION_RELATIONSHIP_WITH_TRANSFORMATION(#82)
SHAPE_REPRESENTATION_RELATIONSHIP()
);
#81=(
REPRESENTATION_RELATIONSHIP(' ',' ',#419,#417)
REPRESENTATION_RELATIONSHIP_WITH_TRANSFORMATION(#83)
SHAPE_REPRESENTATION_RELATIONSHIP()
);
#82=ITEM_DEFINED_TRANSFORMATION(' ',' ',#420,#433);
#83=ITEM_DEFINED_TRANSFORMATION(' ',' ',#420,#460);
#84=SHAPE_REPRESENTATION_RELATIONSHIP('','',#418,#86);
#85=SHAPE_REPRESENTATION_RELATIONSHIP('','',#419,#87);
#86=ADVANCED_BREP_SHAPE_REPRESENTATION('',(#412),#682);
#87=ADVANCED_BREP_SHAPE_REPRESENTATION('',(#413),#683);
#88=PLANE('',#424);
#89=PLANE('',#428);
#90=PLANE('',#432);
#91=PLANE('',#434);
#92=PLANE('',#435);
#93=PLANE('',#436);
#94=PLANE('',#437);
#95=PLANE('',#438);
#96=PLANE('',#440);
#97=PLANE('',#441);
#98=PLANE('',#442);
#99=PLANE('',#443);
#100=PLANE('',#444);
#101=PLANE('',#445);
#102=PLANE('',#446);
#103=PLANE('',#447);
#104=PLANE('',#448);
#105=PLANE('',#449);
#106=PLANE('',#459);
#107=ORIENTED_EDGE('',*,*,#195,.T.);
#108=ORIENTED_EDGE('',*,*,#196,.F.);
#109=ORIENTED_EDGE('',*,*,#197,.F.);
#110=ORIENTED_EDGE('',*,*,#196,.T.);
#111=ORIENTED_EDGE('',*,*,#197,.T.);
#112=ORIENTED_EDGE('',*,*,#198,.F.);
#113=ORIENTED_EDGE('',*,*,#198,.T.);
#114=ORIENTED_EDGE('',*,*,#199,.F.);
#115=ORIENTED_EDGE('',*,*,#199,.T.);
#116=ORIENTED_EDGE('',*,*,#200,.F.);
#117=ORIENTED_EDGE('',*,*,#200,.T.);
#118=ORIENTED_EDGE('',*,*,#195,.F.);
#119=ORIENTED_EDGE('',*,*,#201,.F.);
#120=ORIENTED_EDGE('',*,*,#202,.F.);
#121=ORIENTED_EDGE('',*,*,#203,.T.);
#122=ORIENTED_EDGE('',*,*,#204,.T.);
#123=ORIENTED_EDGE('',*,*,#205,.T.);
#124=ORIENTED_EDGE('',*,*,#206,.F.);
#125=ORIENTED_EDGE('',*,*,#207,.F.);
#126=ORIENTED_EDGE('',*,*,#202,.T.);
#127=ORIENTED_EDGE('',*,*,#208,.T.);
#128=ORIENTED_EDGE('',*,*,#209,.F.);
#129=ORIENTED_EDGE('',*,*,#210,.F.);
#130=ORIENTED_EDGE('',*,*,#206,.T.);
#131=ORIENTED_EDGE('',*,*,#211,.F.);
#132=ORIENTED_EDGE('',*,*,#204,.F.);
#133=ORIENTED_EDGE('',*,*,#212,.T.);
#134=ORIENTED_EDGE('',*,*,#209,.T.);
#135=ORIENTED_EDGE('',*,*,#213,.F.);
#136=ORIENTED_EDGE('',*,*,#201,.T.);
#137=ORIENTED_EDGE('',*,*,#211,.T.);
#138=ORIENTED_EDGE('',*,*,#208,.F.);
#139=ORIENTED_EDGE('',*,*,#205,.F.);
#140=ORIENTED_EDGE('',*,*,#203,.F.);
#141=ORIENTED_EDGE('',*,*,#214,.F.);
#142=ORIENTED_EDGE('',*,*,#215,.T.);
#143=ORIENTED_EDGE('',*,*,#216,.T.);
#144=ORIENTED_EDGE('',*,*,#214,.T.);
#145=ORIENTED_EDGE('',*,*,#207,.T.);
#146=ORIENTED_EDGE('',*,*,#217,.F.);
#147=ORIENTED_EDGE('',*,*,#218,.T.);
#148=ORIENTED_EDGE('',*,*,#217,.T.);
#149=ORIENTED_EDGE('',*,*,#210,.T.);
#150=ORIENTED_EDGE('',*,*,#219,.F.);
#151=ORIENTED_EDGE('',*,*,#220,.T.);
#152=ORIENTED_EDGE('',*,*,#219,.T.);
#153=ORIENTED_EDGE('',*,*,#212,.F.);
#154=ORIENTED_EDGE('',*,*,#216,.F.);
#155=ORIENTED_EDGE('',*,*,#221,.T.);
#156=ORIENTED_EDGE('',*,*,#222,.T.);
#157=ORIENTED_EDGE('',*,*,#223,.T.);
#158=ORIENTED_EDGE('',*,*,#224,.T.);
#159=ORIENTED_EDGE('',*,*,#225,.T.);
#160=ORIENTED_EDGE('',*,*,#221,.F.);
#161=ORIENTED_EDGE('',*,*,#215,.F.);
#162=ORIENTED_EDGE('',*,*,#218,.F.);
#163=ORIENTED_EDGE('',*,*,#220,.F.);
#164=ORIENTED_EDGE('',*,*,#226,.T.);
#165=ORIENTED_EDGE('',*,*,#227,.F.);
#166=ORIENTED_EDGE('',*,*,#225,.F.);
#167=ORIENTED_EDGE('',*,*,#228,.T.);
#168=ORIENTED_EDGE('',*,*,#228,.F.);
#169=ORIENTED_EDGE('',*,*,#224,.F.);
#170=ORIENTED_EDGE('',*,*,#229,.T.);
#171=ORIENTED_EDGE('',*,*,#230,.T.);
#172=ORIENTED_EDGE('',*,*,#229,.F.);
#173=ORIENTED_EDGE('',*,*,#223,.F.);
#174=ORIENTED_EDGE('',*,*,#231,.T.);
#175=ORIENTED_EDGE('',*,*,#232,.T.);
#176=ORIENTED_EDGE('',*,*,#231,.F.);
#177=ORIENTED_EDGE('',*,*,#222,.F.);
#178=ORIENTED_EDGE('',*,*,#227,.T.);
#179=ORIENTED_EDGE('',*,*,#233,.T.);
#180=ORIENTED_EDGE('',*,*,#233,.F.);
#181=ORIENTED_EDGE('',*,*,#226,.F.);
#182=ORIENTED_EDGE('',*,*,#230,.F.);
#183=ORIENTED_EDGE('',*,*,#232,.F.);
#184=ORIENTED_EDGE('',*,*,#234,.T.);
#185=ORIENTED_EDGE('',*,*,#235,.F.);
#186=ORIENTED_EDGE('',*,*,#213,.T.);
#187=ORIENTED_EDGE('',*,*,#236,.F.);
#188=ORIENTED_EDGE('',*,*,#235,.T.);
#189=ORIENTED_EDGE('',*,*,#234,.F.);
#190=ORIENTED_EDGE('',*,*,#237,.T.);
#191=ORIENTED_EDGE('',*,*,#237,.F.);
#192=ORIENTED_EDGE('',*,*,#238,.T.);
#193=ORIENTED_EDGE('',*,*,#238,.F.);
#194=ORIENTED_EDGE('',*,*,#236,.T.);
#195=EDGE_CURVE('',#239,#239,#271,.T.);
#196=EDGE_CURVE('',#240,#240,#272,.T.);
#197=EDGE_CURVE('',#241,#241,#273,.T.);
#198=EDGE_CURVE('',#242,#242,#274,.T.);
#199=EDGE_CURVE('',#243,#243,#275,.T.);
#200=EDGE_CURVE('',#244,#244,#276,.T.);
#201=EDGE_CURVE('',#245,#246,#12,.T.);
#202=EDGE_CURVE('',#247,#245,#13,.T.);
#203=EDGE_CURVE('',#247,#248,#14,.T.);
#204=EDGE_CURVE('',#248,#246,#15,.T.);
#205=EDGE_CURVE('',#245,#249,#16,.T.);
#206=EDGE_CURVE('',#250,#249,#17,.T.);
#207=EDGE_CURVE('',#247,#250,#18,.T.);
#208=EDGE_CURVE('',#249,#251,#19,.T.);
#209=EDGE_CURVE('',#252,#251,#20,.T.);
#210=EDGE_CURVE('',#250,#252,#21,.T.);
#211=EDGE_CURVE('',#246,#251,#22,.T.);
#212=EDGE_CURVE('',#248,#252,#23,.T.);
#213=EDGE_CURVE('',#253,#253,#277,.F.);
#214=EDGE_CURVE('',#254,#247,#24,.T.);
#215=EDGE_CURVE('',#254,#255,#25,.F.);
#216=EDGE_CURVE('',#255,#248,#26,.T.);
#217=EDGE_CURVE('',#256,#250,#27,.T.);
#218=EDGE_CURVE('',#256,#254,#28,.F.);
#219=EDGE_CURVE('',#257,#252,#29,.T.);
#220=EDGE_CURVE('',#257,#256,#30,.T.);
#221=EDGE_CURVE('',#255,#257,#31,.T.);
#222=EDGE_CURVE('',#258,#259,#32,.T.);
#223=EDGE_CURVE('',#259,#260,#33,.T.);
#224=EDGE_CURVE('',#260,#261,#34,.F.);
#225=EDGE_CURVE('',#261,#258,#35,.F.);
#226=EDGE_CURVE('',#262,#263,#36,.F.);
#227=EDGE_CURVE('',#258,#263,#37,.T.);
#228=EDGE_CURVE('',#261,#262,#38,.T.);
#229=EDGE_CURVE('',#260,#264,#39,.T.);
#230=EDGE_CURVE('',#264,#262,#40,.F.);
#231=EDGE_CURVE('',#259,#265,#41,.T.);
#232=EDGE_CURVE('',#265,#264,#42,.T.);
#233=EDGE_CURVE('',#263,#265,#43,.T.);
#234=EDGE_CURVE('',#266,#266,#278,.T.);
#235=EDGE_CURVE('',#267,#267,#279,.T.);
#236=EDGE_CURVE('',#268,#268,#280,.T.);
#237=EDGE_CURVE('',#269,#269,#281,.T.);
#238=EDGE_CURVE('',#270,#270,#282,.T.);
#239=VERTEX_POINT('',#578);
#240=VERTEX_POINT('',#580);
#241=VERTEX_POINT('',#583);
#242=VERTEX_POINT('',#586);
#243=VERTEX_POINT('',#589);
#244=VERTEX_POINT('',#592);
#245=VERTEX_POINT('',#597);
#246=VERTEX_POINT('',#598);
#247=VERTEX_POINT('',#600);
#248=VERTEX_POINT('',#602);
#249=VERTEX_POINT('',#606);
#250=VERTEX_POINT('',#608);
#251=VERTEX_POINT('',#612);
#252=VERTEX_POINT('',#614);
#253=VERTEX_POINT('',#621);
#254=VERTEX_POINT('',#624);
#255=VERTEX_POINT('',#626);
#256=VERTEX_POINT('',#630);
#257=VERTEX_POINT('',#634);
#258=VERTEX_POINT('',#640);
#259=VERTEX_POINT('',#641);
#260=VERTEX_POINT('',#643);
#261=VERTEX_POINT('',#645);
#262=VERTEX_POINT('',#649);
#263=VERTEX_POINT('',#650);
#264=VERTEX_POINT('',#655);
#265=VERTEX_POINT('',#659);
#266=VERTEX_POINT('',#665);
#267=VERTEX_POINT('',#668);
#268=VERTEX_POINT('',#671);
#269=VERTEX_POINT('',#674);
#270=VERTEX_POINT('',#677);
#271=CIRCLE('',#422,0.039);
#272=CIRCLE('',#423,0.039);
#273=CIRCLE('',#425,0.025);
#274=CIRCLE('',#427,0.025);
#275=CIRCLE('',#429,0.031);
#276=CIRCLE('',#431,0.031);
#277=CIRCLE('',#439,0.045);
#278=CIRCLE('',#450,0.04);
#279=CIRCLE('',#452,0.045);
#280=CIRCLE('',#454,0.0315);
#281=CIRCLE('',#456,0.04);
#282=CIRCLE('',#458,0.0265);
#283=EDGE_LOOP('',(#107));
#284=EDGE_LOOP('',(#108));
#285=EDGE_LOOP('',(#109));
#286=EDGE_LOOP('',(#110));
#287=EDGE_LOOP('',(#111));
#288=EDGE_LOOP('',(#112));
#289=EDGE_LOOP('',(#113));
#290=EDGE_LOOP('',(#114));
#291=EDGE_LOOP('',(#115));
#292=EDGE_LOOP('',(#116));
#293=EDGE_LOOP('',(#117));
#294=EDGE_LOOP('',(#118));
#295=EDGE_LOOP('',(#119,#120,#121,#122));
#296=EDGE_LOOP('',(#123,#124,#125,#126));
#297=EDGE_LOOP('',(#127,#128,#129,#130));
#298=EDGE_LOOP('',(#131,#132,#133,#134));
#299=EDGE_LOOP('',(#135));
#300=EDGE_LOOP('',(#136,#137,#138,#139));
#301=EDGE_LOOP('',(#140,#141,#142,#143));
#302=EDGE_LOOP('',(#144,#145,#146,#147));
#303=EDGE_LOOP('',(#148,#149,#150,#151));
#304=EDGE_LOOP('',(#152,#153,#154,#155));
#305=EDGE_LOOP('',(#156,#157,#158,#159));
#306=EDGE_LOOP('',(#160,#161,#162,#163));
#307=EDGE_LOOP('',(#164,#165,#166,#167));
#308=EDGE_LOOP('',(#168,#169,#170,#171));
#309=EDGE_LOOP('',(#172,#173,#174,#175));
#310=EDGE_LOOP('',(#176,#177,#178,#179));
#311=EDGE_LOOP('',(#180,#181,#182,#183));
#312=EDGE_LOOP('',(#184));
#313=EDGE_LOOP('',(#185));
#314=EDGE_LOOP('',(#186));
#315=EDGE_LOOP('',(#187));
#316=EDGE_LOOP('',(#188));
#317=EDGE_LOOP('',(#189));
#318=EDGE_LOOP('',(#190));
#319=EDGE_LOOP('',(#191));
#320=EDGE_LOOP('',(#192));
#321=EDGE_LOOP('',(#193));
#322=EDGE_LOOP('',(#194));
#323=FACE_BOUND('',#283,.T.);
#324=FACE_BOUND('',#284,.T.);
#325=FACE_BOUND('',#285,.T.);
#326=FACE_BOUND('',#286,.T.);
#327=FACE_BOUND('',#287,.T.);
#328=FACE_BOUND('',#288,.T.);
#329=FACE_BOUND('',#289,.T.);
#330=FACE_BOUND('',#290,.T.);
#331=FACE_BOUND('',#291,.T.);
#332=FACE_BOUND('',#292,.T.);
#333=FACE_BOUND('',#293,.T.);
#334=FACE_BOUND('',#294,.T.);
#335=FACE_BOUND('',#295,.T.);
#336=FACE_BOUND('',#296,.T.);
#337=FACE_BOUND('',#297,.T.);
#338=FACE_BOUND('',#298,.T.);
#339=FACE_BOUND('',#299,.T.);
#340=FACE_BOUND('',#300,.T.);
#341=FACE_BOUND('',#301,.T.);
#342=FACE_BOUND('',#302,.T.);
#343=FACE_BOUND('',#303,.T.);
#344=FACE_BOUND('',#304,.T.);
#345=FACE_BOUND('',#305,.T.);
#346=FACE_BOUND('',#306,.T.);
#347=FACE_BOUND('',#307,.T.);
#348=FACE_BOUND('',#308,.T.);
#349=FACE_BOUND('',#309,.T.);
#350=FACE_BOUND('',#310,.T.);
#351=FACE_BOUND('',#311,.T.);
#352=FACE_BOUND('',#312,.T.);
#353=FACE_BOUND('',#313,.T.);
#354=FACE_BOUND('',#314,.T.);
#355=FACE_BOUND('',#315,.T.);
#356=FACE_BOUND('',#316,.T.);
#357=FACE_BOUND('',#317,.T.);
#358=FACE_BOUND('',#318,.T.);
#359=FACE_BOUND('',#319,.T.);
#360=FACE_BOUND('',#320,.T.);
#361=FACE_BOUND('',#321,.T.);
#362=FACE_BOUND('',#322,.T.);
#363=CYLINDRICAL_SURFACE('',#421,0.039);
#364=CYLINDRICAL_SURFACE('',#426,0.025);
#365=CYLINDRICAL_SURFACE('',#430,0.031);
#366=CYLINDRICAL_SURFACE('',#451,0.045);
#367=CYLINDRICAL_SURFACE('',#455,0.04);
#368=ADVANCED_FACE('',(#323,#324),#363,.T.);
#369=ADVANCED_FACE('',(#325,#326),#88,.F.);
#370=ADVANCED_FACE('',(#327,#328),#364,.F.);
#371=ADVANCED_FACE('',(#329,#330),#89,.T.);
#372=ADVANCED_FACE('',(#331,#332),#365,.T.);
#373=ADVANCED_FACE('',(#333,#334),#90,.T.);
#374=ADVANCED_FACE('',(#335),#91,.T.);
#375=ADVANCED_FACE('',(#336),#92,.F.);
#376=ADVANCED_FACE('',(#337),#93,.F.);
#377=ADVANCED_FACE('',(#338),#94,.T.);
#378=ADVANCED_FACE('',(#339,#340),#95,.F.);
#379=ADVANCED_FACE('',(#341),#96,.F.);
#380=ADVANCED_FACE('',(#342),#97,.F.);
#381=ADVANCED_FACE('',(#343),#98,.T.);
#382=ADVANCED_FACE('',(#344),#99,.T.);
#383=ADVANCED_FACE('',(#345,#346),#100,.T.);
#384=ADVANCED_FACE('',(#347),#101,.T.);
#385=ADVANCED_FACE('',(#348),#102,.T.);
#386=ADVANCED_FACE('',(#349),#103,.F.);
#387=ADVANCED_FACE('',(#350),#104,.F.);
#388=ADVANCED_FACE('',(#351,#352),#105,.T.);
#389=ADVANCED_FACE('',(#353,#354),#366,.T.);
#390=ADVANCED_FACE('',(#355,#356),#10,.T.);
#391=ADVANCED_FACE('',(#357,#358),#367,.F.);
#392=ADVANCED_FACE('',(#359,#360),#11,.F.);
#393=ADVANCED_FACE('',(#361,#362),#106,.F.);
#394=CLOSED_SHELL('',(#368,#369,#370,#371,#372,#373));
#395=CLOSED_SHELL('',(#374,#375,#376,#377,#378,#379,#380,#381,#382,#383,#384,#385,#386,#387,#388,#389,#390,#391,#392,#393));
#396=STYLED_ITEM('',(#398),#412);
#397=STYLED_ITEM('',(#399),#413);
#398=PRESENTATION_STYLE_ASSIGNMENT((#400));
#399=PRESENTATION_STYLE_ASSIGNMENT((#401));
#400=SURFACE_STYLE_USAGE(.BOTH.,#402);
#401=SURFACE_STYLE_USAGE(.BOTH.,#403);
#402=SURFACE_SIDE_STYLE('',(#404));
#403=SURFACE_SIDE_STYLE('',(#405));
#404=SURFACE_STYLE_FILL_AREA(#406);
#405=SURFACE_STYLE_FILL_AREA(#407);
#406=FILL_AREA_STYLE('',(#408));
#407=FILL_AREA_STYLE('',(#409));
#408=FILL_AREA_STYLE_COLOUR('',#410);
#409=FILL_AREA_STYLE_COLOUR('',#411);
#410=COLOUR_RGB('',0.615686274509804,0.811764705882353,0.929411764705882);
#411=COLOUR_RGB('',0.647058823529412,0.647058823529412,0.647058823529412);
#412=MANIFOLD_SOLID_BREP('drain',#394);
#413=MANIFOLD_SOLID_BREP('interior',#395);
#414=SHAPE_DEFINITION_REPRESENTATION(#690,#417);
#415=SHAPE_DEFINITION_REPRESENTATION(#691,#418);
#416=SHAPE_DEFINITION_REPRESENTATION(#693,#419);
#417=SHAPE_REPRESENTATION('interior_assembly',(#420,#433,#460),#681);
#418=SHAPE_REPRESENTATION('drain',(#420),#682);
#419=SHAPE_REPRESENTATION('interior',(#420),#683);
#420=AXIS2_PLACEMENT_3D('',#575,#461,#462);
#421=AXIS2_PLACEMENT_3D('',#576,#463,#464);
#422=AXIS2_PLACEMENT_3D('',#577,#465,#466);
#423=AXIS2_PLACEMENT_3D('',#579,#467,#468);
#424=AXIS2_PLACEMENT_3D('',#581,#469,#470);
#425=AXIS2_PLACEMENT_3D('',#582,#471,#472);
#426=AXIS2_PLACEMENT_3D('',#584,#473,#474);
#427=AXIS2_PLACEMENT_3D('',#585,#475,#476);
#428=AXIS2_PLACEMENT_3D('',#587,#477,#478);
#429=AXIS2_PLACEMENT_3D('',#588,#479,#480);
#430=AXIS2_PLACEMENT_3D('',#590,#481,#482);
#431=AXIS2_PLACEMENT_3D('',#591,#483,#484);
#432=AXIS2_PLACEMENT_3D('',#593,#485,#486);
#433=AXIS2_PLACEMENT_3D('',#594,#487,#488);
#434=AXIS2_PLACEMENT_3D('',#595,#489,#490);
#435=AXIS2_PLACEMENT_3D('',#604,#495,#496);
#436=AXIS2_PLACEMENT_3D('',#610,#500,#501);
#437=AXIS2_PLACEMENT_3D('',#616,#505,#506);
#438=AXIS2_PLACEMENT_3D('',#619,#509,#510);
#439=AXIS2_PLACEMENT_3D('',#620,#511,#512);
#440=AXIS2_PLACEMENT_3D('',#622,#513,#514);
#441=AXIS2_PLACEMENT_3D('',#628,#518,#519);
#442=AXIS2_PLACEMENT_3D('',#632,#522,#523);
#443=AXIS2_PLACEMENT_3D('',#636,#526,#527);
#444=AXIS2_PLACEMENT_3D('',#638,#529,#530);
#445=AXIS2_PLACEMENT_3D('',#647,#535,#536);
#446=AXIS2_PLACEMENT_3D('',#653,#540,#541);
#447=AXIS2_PLACEMENT_3D('',#657,#544,#545);
#448=AXIS2_PLACEMENT_3D('',#661,#548,#549);
#449=AXIS2_PLACEMENT_3D('',#663,#551,#552);
#450=AXIS2_PLACEMENT_3D('',#664,#553,#554);
#451=AXIS2_PLACEMENT_3D('',#666,#555,#556);
#452=AXIS2_PLACEMENT_3D('',#667,#557,#558);
#453=AXIS2_PLACEMENT_3D('',#669,#559,#560);
#454=AXIS2_PLACEMENT_3D('',#670,#561,#562);
#455=AXIS2_PLACEMENT_3D('',#672,#563,#564);
#456=AXIS2_PLACEMENT_3D('',#673,#565,#566);
#457=AXIS2_PLACEMENT_3D('',#675,#567,#568);
#458=AXIS2_PLACEMENT_3D('',#676,#569,#570);
#459=AXIS2_PLACEMENT_3D('',#678,#571,#572);
#460=AXIS2_PLACEMENT_3D('',#679,#573,#574);
#461=DIRECTION('',(0.,0.,1.));
#462=DIRECTION('',(1.,0.,0.));
#463=DIRECTION('',(0.,0.,-1.));
#464=DIRECTION('',(-1.,0.,0.));
#465=DIRECTION('',(0.,0.,-1.));
#466=DIRECTION('',(-1.,0.,0.));
#467=DIRECTION('',(0.,0.,-1.));
#468=DIRECTION('',(-1.,0.,0.));
#469=DIRECTION('',(0.,0.,1.));
#470=DIRECTION('',(1.,0.,0.));
#471=DIRECTION('',(0.,0.,-1.));
#472=DIRECTION('',(-1.,0.,0.));
#473=DIRECTION('',(0.,0.,-1.));
#474=DIRECTION('',(-1.,0.,0.));
#475=DIRECTION('',(0.,0.,-1.));
#476=DIRECTION('',(-1.,0.,0.));
#477=DIRECTION('',(0.,0.,1.));
#478=DIRECTION('',(1.,0.,0.));
#479=DIRECTION('',(0.,0.,-1.));
#480=DIRECTION('',(-1.,0.,0.));
#481=DIRECTION('',(0.,0.,-1.));
#482=DIRECTION('',(-1.,0.,0.));
#483=DIRECTION('',(0.,0.,-1.));
#484=DIRECTION('',(-1.,0.,0.));
#485=DIRECTION('',(0.,0.,1.));
#486=DIRECTION('',(1.,0.,0.));
#487=DIRECTION('',(0.,0.,1.));
#488=DIRECTION('',(1.,0.,0.));
#489=DIRECTION('',(-1.,-1.7347234759768E-16,0.));
#490=DIRECTION('',(1.7347234759768E-16,-1.,0.));
#491=DIRECTION('',(-1.7347234759768E-16,1.,0.));
#492=DIRECTION('',(0.,0.,-1.));
#493=DIRECTION('',(-1.7347234759768E-16,1.,0.));
#494=DIRECTION('',(0.,0.,-1.));
#495=DIRECTION('',(0.,1.,0.));
#496=DIRECTION('',(0.,0.,1.));
#497=DIRECTION('',(1.,0.,0.));
#498=DIRECTION('',(0.,0.,-1.));
#499=DIRECTION('',(1.,0.,0.));
#500=DIRECTION('',(-1.,-1.7347234759768E-16,0.));
#501=DIRECTION('',(1.7347234759768E-16,-1.,0.));
#502=DIRECTION('',(-1.7347234759768E-16,1.,0.));
#503=DIRECTION('',(0.,0.,-1.));
#504=DIRECTION('',(-1.7347234759768E-16,1.,0.));
#505=DIRECTION('',(0.,1.,0.));
#506=DIRECTION('',(0.,0.,1.));
#507=DIRECTION('',(1.,0.,0.));
#508=DIRECTION('',(1.,0.,0.));
#509=DIRECTION('',(0.,0.,1.));
#510=DIRECTION('',(1.,0.,0.));
#511=DIRECTION('',(0.,0.,1.));
#512=DIRECTION('',(1.,0.,0.));
#513=DIRECTION('',(0.825644641500814,0.,0.564190505025556));
#514=DIRECTION('',(0.564190505025556,0.,-0.825644641500814));
#515=DIRECTION('',(0.49137928862116,0.49137928862116,-0.719091641884625));
#516=DIRECTION('',(0.,-1.,0.));
#517=DIRECTION('',(0.49137928862116,-0.49137928862116,-0.719091641884625));
#518=DIRECTION('',(0.,0.825644641500814,0.564190505025556));
#519=DIRECTION('',(0.,-0.564190505025556,0.825644641500814));
#520=DIRECTION('',(-0.49137928862116,0.49137928862116,-0.719091641884625));
#521=DIRECTION('',(1.,0.,0.));
#522=DIRECTION('',(0.825644641500814,0.,-0.564190505025556));
#523=DIRECTION('',(-0.564190505025556,0.,-0.825644641500814));
#524=DIRECTION('',(-0.49137928862116,-0.49137928862116,-0.719091641884625));
#525=DIRECTION('',(0.,-1.,0.));
#526=DIRECTION('',(0.,0.825644641500814,-0.564190505025556));
#527=DIRECTION('',(0.,0.564190505025556,0.825644641500814));
#528=DIRECTION('',(1.,0.,0.));
#529=DIRECTION('',(0.,0.,1.));
#530=DIRECTION('',(1.,0.,0.));
#531=DIRECTION('',(1.,0.,0.));
#532=DIRECTION('',(0.,-1.,0.));
#533=DIRECTION('',(1.,0.,0.));
#534=DIRECTION('',(0.,-1.,0.));
#535=DIRECTION('',(0.825644641500814,0.,0.564190505025556));
#536=DIRECTION('',(0.564190505025556,0.,-0.825644641500814));
#537=DIRECTION('',(0.,-1.,0.));
#538=DIRECTION('',(0.49137928862116,-0.49137928862116,-0.719091641884625));
#539=DIRECTION('',(0.49137928862116,0.49137928862116,-0.719091641884625));
#540=DIRECTION('',(0.,0.825644641500814,0.564190505025556));
#541=DIRECTION('',(0.,-0.564190505025557,0.825644641500814));
#542=DIRECTION('',(-0.49137928862116,0.49137928862116,-0.719091641884625));
#543=DIRECTION('',(1.,0.,0.));
#544=DIRECTION('',(0.825644641500814,0.,-0.564190505025556));
#545=DIRECTION('',(-0.564190505025556,0.,-0.825644641500814));
#546=DIRECTION('',(-0.49137928862116,-0.49137928862116,-0.719091641884625));
#547=DIRECTION('',(0.,-1.,0.));
#548=DIRECTION('',(0.,0.825644641500814,-0.564190505025556));
#549=DIRECTION('',(0.,0.564190505025556,0.825644641500814));
#550=DIRECTION('',(1.,0.,0.));
#551=DIRECTION('',(0.,0.,1.));
#552=DIRECTION('',(1.,0.,0.));
#553=DIRECTION('',(0.,0.,-1.));
#554=DIRECTION('',(-1.,0.,0.));
#555=DIRECTION('',(0.,0.,-1.));
#556=DIRECTION('',(-1.,0.,0.));
#557=DIRECTION('',(0.,0.,-1.));
#558=DIRECTION('',(-1.,0.,0.));
#559=DIRECTION('',(0.,0.,1.));
#560=DIRECTION('',(1.,0.,0.));
#561=DIRECTION('',(0.,0.,-1.));
#562=DIRECTION('',(-1.,0.,0.));
#563=DIRECTION('',(0.,0.,-1.));
#564=DIRECTION('',(-1.,0.,0.));
#565=DIRECTION('',(0.,0.,-1.));
#566=DIRECTION('',(-1.,0.,0.));
#567=DIRECTION('',(0.,0.,1.));
#568=DIRECTION('',(1.,0.,0.));
#569=DIRECTION('',(0.,0.,-1.));
#570=DIRECTION('',(-1.,0.,0.));
#571=DIRECTION('',(0.,0.,1.));
#572=DIRECTION('',(1.,0.,0.));
#573=DIRECTION('',(0.,0.,1.));
#574=DIRECTION('',(1.,0.,0.));
#575=CARTESIAN_POINT('',(0.,0.,0.));
#576=CARTESIAN_POINT('',(0.,0.,0.));
#577=CARTESIAN_POINT('',(0.,0.,0.0159235661541277));
#578=CARTESIAN_POINT('',(-0.039,0.,0.0159235661541277));
#579=CARTESIAN_POINT('',(0.,0.,0.));
#580=CARTESIAN_POINT('',(-0.039,0.,0.));
#581=CARTESIAN_POINT('',(-0.032,0.,0.));
#582=CARTESIAN_POINT('',(0.,0.,0.));
#583=CARTESIAN_POINT('',(-0.025,0.,0.));
#584=CARTESIAN_POINT('',(0.,0.,0.));
#585=CARTESIAN_POINT('',(0.,0.,0.0509554154474998));
#586=CARTESIAN_POINT('',(-0.025,0.,0.0509554154474998));
#587=CARTESIAN_POINT('',(-0.028,0.,0.0509554154474998));
#588=CARTESIAN_POINT('',(0.,0.,0.0509554154474998));
#589=CARTESIAN_POINT('',(-0.031,0.,0.0509554154474998));
#590=CARTESIAN_POINT('',(0.,0.,0.));
#591=CARTESIAN_POINT('',(0.,0.,0.0159235661541277));
#592=CARTESIAN_POINT('',(-0.031,0.,0.0159235661541277));
#593=CARTESIAN_POINT('',(-0.035,0.,0.0159235661541277));
#594=CARTESIAN_POINT('',(0.,0.,-0.0509554154474998));
#595=CARTESIAN_POINT('',(-0.06,-3.46944695195361E-18,0.02));
#596=CARTESIAN_POINT('',(-0.06,-3.46944695195361E-18,0.012));
#597=CARTESIAN_POINT('',(-0.06,-0.06,0.012));
#598=CARTESIAN_POINT('',(-0.06,0.06,0.012));
#599=CARTESIAN_POINT('',(-0.06,-0.06,0.02));
#600=CARTESIAN_POINT('',(-0.06,-0.06,0.02));
#601=CARTESIAN_POINT('',(-0.06,-3.46944695195361E-18,0.02));
#602=CARTESIAN_POINT('',(-0.06,0.06,0.02));
#603=CARTESIAN_POINT('',(-0.06,0.06,0.02));
#604=CARTESIAN_POINT('',(3.46944695195361E-18,-0.06,0.02));
#605=CARTESIAN_POINT('',(3.46944695195361E-18,-0.06,0.012));
#606=CARTESIAN_POINT('',(0.06,-0.06,0.012));
#607=CARTESIAN_POINT('',(0.06,-0.06,0.02));
#608=CARTESIAN_POINT('',(0.06,-0.06,0.02));
#609=CARTESIAN_POINT('',(3.46944695195361E-18,-0.06,0.02));
#610=CARTESIAN_POINT('',(0.06,-3.46944695195361E-18,0.02));
#611=CARTESIAN_POINT('',(0.06,-3.46944695195361E-18,0.012));
#612=CARTESIAN_POINT('',(0.06,0.06,0.012));
#613=CARTESIAN_POINT('',(0.06,0.06,0.02));
#614=CARTESIAN_POINT('',(0.06,0.06,0.02));
#615=CARTESIAN_POINT('',(0.06,-3.46944695195361E-18,0.02));
#616=CARTESIAN_POINT('',(-1.38777878078145E-17,0.06,0.02));
#617=CARTESIAN_POINT('',(-1.38777878078145E-17,0.06,0.012));
#618=CARTESIAN_POINT('',(-1.38777878078145E-17,0.06,0.02));
#619=CARTESIAN_POINT('',(0.,0.,0.012));
#620=CARTESIAN_POINT('',(0.,0.,0.012));
#621=CARTESIAN_POINT('',(0.045,0.,0.012));
#622=CARTESIAN_POINT('',(-0.0315849270971407,0.,-0.0215830335163795));
#623=CARTESIAN_POINT('',(-0.183,-0.183,0.2));
#624=CARTESIAN_POINT('',(-0.183,-0.183,0.2));
#625=CARTESIAN_POINT('',(-0.183,0.,0.2));
#626=CARTESIAN_POINT('',(-0.183,0.183,0.2));
#627=CARTESIAN_POINT('',(-0.183,0.183,0.2));
#628=CARTESIAN_POINT('',(0.,-0.0315849270971407,-0.0215830335163795));
#629=CARTESIAN_POINT('',(0.183,-0.183,0.2));
#630=CARTESIAN_POINT('',(0.183,-0.183,0.2));
#631=CARTESIAN_POINT('',(0.,-0.183,0.2));
#632=CARTESIAN_POINT('',(0.0315849270971406,0.,-0.0215830335163795));
#633=CARTESIAN_POINT('',(0.183,0.183,0.2));
#634=CARTESIAN_POINT('',(0.183,0.183,0.2));
#635=CARTESIAN_POINT('',(0.183,0.,0.2));
#636=CARTESIAN_POINT('',(0.,0.0315849270971407,-0.0215830335163795));
#637=CARTESIAN_POINT('',(0.,0.183,0.2));
#638=CARTESIAN_POINT('',(0.,0.,0.2));
#639=CARTESIAN_POINT('',(0.,0.171,0.2));
#640=CARTESIAN_POINT('',(-0.171,0.171,0.2));
#641=CARTESIAN_POINT('',(0.171,0.171,0.2));
#642=CARTESIAN_POINT('',(0.171,0.,0.2));
#643=CARTESIAN_POINT('',(0.171,-0.171,0.2));
#644=CARTESIAN_POINT('',(0.,-0.171,0.2));
#645=CARTESIAN_POINT('',(-0.171,-0.171,0.2));
#646=CARTESIAN_POINT('',(-0.171,0.,0.2));
#647=CARTESIAN_POINT('',(-0.0234046582086726,0.,-0.0159931831092596));
#648=CARTESIAN_POINT('',(-0.048,0.,0.02));
#649=CARTESIAN_POINT('',(-0.048,-0.048,0.02));
#650=CARTESIAN_POINT('',(-0.048,0.048,0.02));
#651=CARTESIAN_POINT('',(-0.171,0.171,0.2));
#652=CARTESIAN_POINT('',(-0.171,-0.171,0.2));
#653=CARTESIAN_POINT('',(0.,-0.0234046582086726,-0.0159931831092596));
#654=CARTESIAN_POINT('',(0.171,-0.171,0.2));
#655=CARTESIAN_POINT('',(0.048,-0.048,0.02));
#656=CARTESIAN_POINT('',(0.,-0.048,0.02));
#657=CARTESIAN_POINT('',(0.0234046582086726,0.,-0.0159931831092596));
#658=CARTESIAN_POINT('',(0.171,0.171,0.2));
#659=CARTESIAN_POINT('',(0.048,0.048,0.02));
#660=CARTESIAN_POINT('',(0.048,0.,0.02));
#661=CARTESIAN_POINT('',(0.,0.0234046582086726,-0.0159931831092596));
#662=CARTESIAN_POINT('',(0.,0.048,0.02));
#663=CARTESIAN_POINT('',(0.,0.,0.02));
#664=CARTESIAN_POINT('',(0.,0.,0.02));
#665=CARTESIAN_POINT('',(-0.04,0.,0.02));
#666=CARTESIAN_POINT('',(0.,0.,0.02));
#667=CARTESIAN_POINT('',(0.,0.,-0.018));
#668=CARTESIAN_POINT('',(-0.045,0.,-0.018));
#669=CARTESIAN_POINT('',(0.,0.,-0.018));
#670=CARTESIAN_POINT('',(0.,0.,-0.035));
#671=CARTESIAN_POINT('',(-0.0315,0.,-0.035));
#672=CARTESIAN_POINT('',(0.,0.,0.02));
#673=CARTESIAN_POINT('',(0.,0.,-0.018));
#674=CARTESIAN_POINT('',(-0.04,0.,-0.018));
#675=CARTESIAN_POINT('',(0.,0.,-0.035));
#676=CARTESIAN_POINT('',(0.,0.,-0.035));
#677=CARTESIAN_POINT('',(-0.0265,0.,-0.035));
#678=CARTESIAN_POINT('',(0.029,0.,-0.035));
#679=CARTESIAN_POINT('',(0.,0.,0.035));
#680=MECHANICAL_DESIGN_GEOMETRIC_PRESENTATION_REPRESENTATION('',(#396,#397),#681);
#681=(
GEOMETRIC_REPRESENTATION_CONTEXT(3)
GLOBAL_UNCERTAINTY_ASSIGNED_CONTEXT((#684))
GLOBAL_UNIT_ASSIGNED_CONTEXT((#689,#688,#687))
REPRESENTATION_CONTEXT('interior_assembly','TOP_LEVEL_ASSEMBLY_PART')
);
#682=(
GEOMETRIC_REPRESENTATION_CONTEXT(3)
GLOBAL_UNCERTAINTY_ASSIGNED_CONTEXT((#685))
GLOBAL_UNIT_ASSIGNED_CONTEXT((#689,#688,#687))
REPRESENTATION_CONTEXT('drain','COMPONENT_PART')
);
#683=(
GEOMETRIC_REPRESENTATION_CONTEXT(3)
GLOBAL_UNCERTAINTY_ASSIGNED_CONTEXT((#686))
GLOBAL_UNIT_ASSIGNED_CONTEXT((#689,#688,#687))
REPRESENTATION_CONTEXT('interior','COMPONENT_PART')
);
#684=UNCERTAINTY_MEASURE_WITH_UNIT(LENGTH_MEASURE(1.E-08),#689,'DISTANCE_ACCURACY_VALUE','Maximum Tolerance applied to model');
#685=UNCERTAINTY_MEASURE_WITH_UNIT(LENGTH_MEASURE(1.E-08),#689,'DISTANCE_ACCURACY_VALUE','Maximum Tolerance applied to model');
#686=UNCERTAINTY_MEASURE_WITH_UNIT(LENGTH_MEASURE(1.E-08),#689,'DISTANCE_ACCURACY_VALUE','Maximum Tolerance applied to model');
#687=(
NAMED_UNIT(*)
SI_UNIT($,.STERADIAN.)
SOLID_ANGLE_UNIT()
);
#688=(
NAMED_UNIT(*)
PLANE_ANGLE_UNIT()
SI_UNIT($,.RADIAN.)
);
#689=(
LENGTH_UNIT()
NAMED_UNIT(*)
SI_UNIT($,.METRE.)
);
#690=PRODUCT_DEFINITION_SHAPE('','',#695);
#691=PRODUCT_DEFINITION_SHAPE('','',#696);
#692=PRODUCT_DEFINITION_SHAPE(' ','NAUO PRDDFN',#78);
#693=PRODUCT_DEFINITION_SHAPE('','',#697);
#694=PRODUCT_DEFINITION_SHAPE(' ','NAUO PRDDFN',#79);
#695=PRODUCT_DEFINITION('','',#701,#698);
#696=PRODUCT_DEFINITION('','',#702,#699);
#697=PRODUCT_DEFINITION('','',#703,#700);
#698=PRODUCT_DEFINITION_CONTEXT('',#717,'design');
#699=PRODUCT_DEFINITION_CONTEXT('',#717,'design');
#700=PRODUCT_DEFINITION_CONTEXT('',#717,'design');
#701=PRODUCT_DEFINITION_FORMATION_WITH_SPECIFIED_SOURCE('','',#707,.NOT_KNOWN.);
#702=PRODUCT_DEFINITION_FORMATION_WITH_SPECIFIED_SOURCE('','',#708,.NOT_KNOWN.);
#703=PRODUCT_DEFINITION_FORMATION_WITH_SPECIFIED_SOURCE('','',#709,.NOT_KNOWN.);
#704=PRODUCT_RELATED_PRODUCT_CATEGORY('','',(#707));
#705=PRODUCT_RELATED_PRODUCT_CATEGORY('','',(#708));
#706=PRODUCT_RELATED_PRODUCT_CATEGORY('','',(#709));
#707=PRODUCT('interior_assembly','interior_assembly','interior_assembly',(#713));
#708=PRODUCT('drain','drain','drain',(#714));
#709=PRODUCT('interior','interior','interior',(#715));
#710=PRODUCT_CATEGORY('','');
#711=PRODUCT_CATEGORY('','');
#712=PRODUCT_CATEGORY('','');
#713=PRODUCT_CONTEXT('',#717,'mechanical');
#714=PRODUCT_CONTEXT('',#717,'mechanical');
#715=PRODUCT_CONTEXT('',#717,'mechanical');
#716=APPLICATION_PROTOCOL_DEFINITION('international standard','ap242_managed_model_based_3d_engineering',2020,#717);
#717=APPLICATION_CONTEXT('managed model based 3d engineering');
ENDSEC;
END-ISO-10303-21;
