ISO-10303-21;
HEADER;
/* Generated by software containing ST-Developer
 * from STEP Tools, Inc. (www.steptools.com) 
 */
/* OPTION: using custom renumber hook */

FILE_DESCRIPTION(
/* description */ ('STEP AP242 Edition 2',
'CAx-IF Rec.Pracs.---Representation and Presentation of Product Manufa
cturing Information (PMI)---4.0---2014-10-13',
'CAx-IF Rec.Pracs.---3D Tessellated Geometry---0.4---2014-09-14','2;1',
'CAx-IF Rec.Pracs.---User Defined Attributes---1.5---2016-08-15'),
/* implementation_level */ '2;1');

FILE_NAME(
/* name */ '6985d83b3394be3e2b96fb6f',
/* time_stamp */ '2026-02-06T12:02:04Z',
/* author */ (''),
/* organization */ (''),
/* preprocessor_version */ 'ST-DEVELOPER v20',
/* originating_system */ 'ONSHAPE BY PTC INC, 1.210',
/* authorisation */ '  ');

FILE_SCHEMA (('AP242_MANAGED_MODEL_BASED_3D_ENGINEERING_MIM_LF { 1 0 10303 442 3 1 4 }'));
ENDSEC;

DATA;
#10=SHAPE_REPRESENTATION_RELATIONSHIP('','',#129,#11);
#11=ADVANCED_BREP_SHAPE_REPRESENTATION('',(#127),#217);
#12=PLANE('',#134);
#13=PLANE('',#138);
#14=PLANE('',#142);
#15=ORIENTED_EDGE('',*,*,#35,.T.);
#16=ORIENTED_EDGE('',*,*,#36,.F.);
#17=ORIENTED_EDGE('',*,*,#37,.T.);
#18=ORIENTED_EDGE('',*,*,#38,.T.);
#19=ORIENTED_EDGE('',*,*,#39,.T.);
#20=ORIENTED_EDGE('',*,*,#35,.F.);
#21=ORIENTED_EDGE('',*,*,#40,.F.);
#22=ORIENTED_EDGE('',*,*,#36,.T.);
#23=ORIENTED_EDGE('',*,*,#41,.F.);
#24=ORIENTED_EDGE('',*,*,#40,.T.);
#25=ORIENTED_EDGE('',*,*,#42,.T.);
#26=ORIENTED_EDGE('',*,*,#43,.T.);
#27=ORIENTED_EDGE('',*,*,#44,.T.);
#28=ORIENTED_EDGE('',*,*,#41,.T.);
#29=ORIENTED_EDGE('',*,*,#44,.F.);
#30=ORIENTED_EDGE('',*,*,#39,.F.);
#31=ORIENTED_EDGE('',*,*,#43,.F.);
#32=ORIENTED_EDGE('',*,*,#38,.F.);
#33=ORIENTED_EDGE('',*,*,#42,.F.);
#34=ORIENTED_EDGE('',*,*,#37,.F.);
#35=EDGE_CURVE('',#45,#45,#55,.T.);
#36=EDGE_CURVE('',#46,#46,#56,.T.);
#37=EDGE_CURVE('',#47,#47,#57,.T.);
#38=EDGE_CURVE('',#48,#48,#58,.T.);
#39=EDGE_CURVE('',#49,#49,#59,.T.);
#40=EDGE_CURVE('',#50,#50,#60,.T.);
#41=EDGE_CURVE('',#51,#51,#61,.T.);
#42=EDGE_CURVE('',#52,#52,#62,.F.);
#43=EDGE_CURVE('',#53,#53,#63,.F.);
#44=EDGE_CURVE('',#54,#54,#64,.F.);
#45=VERTEX_POINT('',#190);
#46=VERTEX_POINT('',#192);
#47=VERTEX_POINT('',#195);
#48=VERTEX_POINT('',#197);
#49=VERTEX_POINT('',#199);
#50=VERTEX_POINT('',#202);
#51=VERTEX_POINT('',#205);
#52=VERTEX_POINT('',#208);
#53=VERTEX_POINT('',#210);
#54=VERTEX_POINT('',#212);
#55=CIRCLE('',#132,0.1275);
#56=CIRCLE('',#133,0.1275);
#57=CIRCLE('',#135,0.00674624);
#58=CIRCLE('',#136,0.0033782);
#59=CIRCLE('',#137,0.0033782);
#60=CIRCLE('',#139,0.125);
#61=CIRCLE('',#141,0.125);
#62=CIRCLE('',#143,0.00674624);
#63=CIRCLE('',#144,0.0033782);
#64=CIRCLE('',#145,0.0033782);
#65=EDGE_LOOP('',(#15));
#66=EDGE_LOOP('',(#16));
#67=EDGE_LOOP('',(#17));
#68=EDGE_LOOP('',(#18));
#69=EDGE_LOOP('',(#19));
#70=EDGE_LOOP('',(#20));
#71=EDGE_LOOP('',(#21));
#72=EDGE_LOOP('',(#22));
#73=EDGE_LOOP('',(#23));
#74=EDGE_LOOP('',(#24));
#75=EDGE_LOOP('',(#25));
#76=EDGE_LOOP('',(#26));
#77=EDGE_LOOP('',(#27));
#78=EDGE_LOOP('',(#28));
#79=EDGE_LOOP('',(#29));
#80=EDGE_LOOP('',(#30));
#81=EDGE_LOOP('',(#31));
#82=EDGE_LOOP('',(#32));
#83=EDGE_LOOP('',(#33));
#84=EDGE_LOOP('',(#34));
#85=FACE_BOUND('',#65,.T.);
#86=FACE_BOUND('',#66,.T.);
#87=FACE_BOUND('',#67,.T.);
#88=FACE_BOUND('',#68,.T.);
#89=FACE_BOUND('',#69,.T.);
#90=FACE_BOUND('',#70,.T.);
#91=FACE_BOUND('',#71,.T.);
#92=FACE_BOUND('',#72,.T.);
#93=FACE_BOUND('',#73,.T.);
#94=FACE_BOUND('',#74,.T.);
#95=FACE_BOUND('',#75,.T.);
#96=FACE_BOUND('',#76,.T.);
#97=FACE_BOUND('',#77,.T.);
#98=FACE_BOUND('',#78,.T.);
#99=FACE_BOUND('',#79,.T.);
#100=FACE_BOUND('',#80,.T.);
#101=FACE_BOUND('',#81,.T.);
#102=FACE_BOUND('',#82,.T.);
#103=FACE_BOUND('',#83,.T.);
#104=FACE_BOUND('',#84,.T.);
#105=CYLINDRICAL_SURFACE('',#131,0.1275);
#106=CYLINDRICAL_SURFACE('',#140,0.125);
#107=CYLINDRICAL_SURFACE('',#146,0.0033782);
#108=CYLINDRICAL_SURFACE('',#147,0.0033782);
#109=CYLINDRICAL_SURFACE('',#148,0.00674624);
#110=ADVANCED_FACE('',(#85,#86),#105,.T.);
#111=ADVANCED_FACE('',(#87,#88,#89,#90),#12,.F.);
#112=ADVANCED_FACE('',(#91,#92),#13,.T.);
#113=ADVANCED_FACE('',(#93,#94),#106,.F.);
#114=ADVANCED_FACE('',(#95,#96,#97,#98),#14,.T.);
#115=ADVANCED_FACE('',(#99,#100),#107,.F.);
#116=ADVANCED_FACE('',(#101,#102),#108,.F.);
#117=ADVANCED_FACE('',(#103,#104),#109,.F.);
#118=CLOSED_SHELL('',(#110,#111,#112,#113,#114,#115,#116,#117));
#119=STYLED_ITEM('',(#120),#127);
#120=PRESENTATION_STYLE_ASSIGNMENT((#121));
#121=SURFACE_STYLE_USAGE(.BOTH.,#122);
#122=SURFACE_SIDE_STYLE('',(#123));
#123=SURFACE_STYLE_FILL_AREA(#124);
#124=FILL_AREA_STYLE('',(#125));
#125=FILL_AREA_STYLE_COLOUR('',#126);
#126=COLOUR_RGB('',0.615686274509804,0.811764705882353,0.929411764705882);
#127=MANIFOLD_SOLID_BREP('Part 1',#118);
#128=SHAPE_DEFINITION_REPRESENTATION(#222,#129);
#129=SHAPE_REPRESENTATION('Part 1',(#130),#217);
#130=AXIS2_PLACEMENT_3D('',#187,#149,#150);
#131=AXIS2_PLACEMENT_3D('',#188,#151,#152);
#132=AXIS2_PLACEMENT_3D('',#189,#153,#154);
#133=AXIS2_PLACEMENT_3D('',#191,#155,#156);
#134=AXIS2_PLACEMENT_3D('',#193,#157,#158);
#135=AXIS2_PLACEMENT_3D('',#194,#159,#160);
#136=AXIS2_PLACEMENT_3D('',#196,#161,#162);
#137=AXIS2_PLACEMENT_3D('',#198,#163,#164);
#138=AXIS2_PLACEMENT_3D('',#200,#165,#166);
#139=AXIS2_PLACEMENT_3D('',#201,#167,#168);
#140=AXIS2_PLACEMENT_3D('',#203,#169,#170);
#141=AXIS2_PLACEMENT_3D('',#204,#171,#172);
#142=AXIS2_PLACEMENT_3D('',#206,#173,#174);
#143=AXIS2_PLACEMENT_3D('',#207,#175,#176);
#144=AXIS2_PLACEMENT_3D('',#209,#177,#178);
#145=AXIS2_PLACEMENT_3D('',#211,#179,#180);
#146=AXIS2_PLACEMENT_3D('',#213,#181,#182);
#147=AXIS2_PLACEMENT_3D('',#214,#183,#184);
#148=AXIS2_PLACEMENT_3D('',#215,#185,#186);
#149=DIRECTION('',(0.,0.,1.));
#150=DIRECTION('',(1.,0.,0.));
#151=DIRECTION('',(0.,0.,1.));
#152=DIRECTION('',(1.,0.,0.));
#153=DIRECTION('',(0.,0.,1.));
#154=DIRECTION('',(1.,0.,0.));
#155=DIRECTION('',(0.,0.,1.));
#156=DIRECTION('',(1.,0.,0.));
#157=DIRECTION('',(0.,0.,1.));
#158=DIRECTION('',(1.,0.,0.));
#159=DIRECTION('',(0.,0.,1.));
#160=DIRECTION('',(1.,0.,0.));
#161=DIRECTION('',(0.,0.,1.));
#162=DIRECTION('',(1.,0.,0.));
#163=DIRECTION('',(0.,0.,1.));
#164=DIRECTION('',(1.,0.,0.));
#165=DIRECTION('',(0.,0.,1.));
#166=DIRECTION('',(1.,0.,0.));
#167=DIRECTION('',(0.,0.,1.));
#168=DIRECTION('',(1.,0.,0.));
#169=DIRECTION('',(0.,0.,1.));
#170=DIRECTION('',(1.,0.,0.));
#171=DIRECTION('',(0.,0.,1.));
#172=DIRECTION('',(1.,0.,0.));
#173=DIRECTION('',(0.,0.,1.));
#174=DIRECTION('',(1.,0.,0.));
#175=DIRECTION('',(0.,0.,1.));
#176=DIRECTION('',(1.,0.,0.));
#177=DIRECTION('',(0.,0.,1.));
#178=DIRECTION('',(1.,0.,0.));
#179=DIRECTION('',(0.,0.,1.));
#180=DIRECTION('',(1.,0.,0.));
#181=DIRECTION('',(0.,0.,1.));
#182=DIRECTION('',(1.,0.,0.));
#183=DIRECTION('',(0.,0.,1.));
#184=DIRECTION('',(1.,0.,0.));
#185=DIRECTION('',(0.,0.,1.));
#186=DIRECTION('',(1.,0.,0.));
#187=CARTESIAN_POINT('',(0.,0.,0.));
#188=CARTESIAN_POINT('',(0.,7.80712334456438E-18,-0.26));
#189=CARTESIAN_POINT('',(0.,7.80712334456438E-18,-0.26));
#190=CARTESIAN_POINT('',(0.1275,7.80712334456438E-18,-0.26));
#191=CARTESIAN_POINT('',(0.,7.80712334456438E-18,0.));
#192=CARTESIAN_POINT('',(0.1275,7.80712334456438E-18,0.));
#193=CARTESIAN_POINT('',(0.,0.,-0.26));
#194=CARTESIAN_POINT('',(0.,0.,-0.26));
#195=CARTESIAN_POINT('',(0.00674624,0.,-0.26));
#196=CARTESIAN_POINT('',(-0.0675,0.,-0.26));
#197=CARTESIAN_POINT('',(-0.0641218,0.,-0.26));
#198=CARTESIAN_POINT('',(0.0675,1.46957615897682E-17,-0.26));
#199=CARTESIAN_POINT('',(0.0708782,1.46957615897682E-17,-0.26));
#200=CARTESIAN_POINT('',(0.,0.,0.));
#201=CARTESIAN_POINT('',(0.,7.80712334456438E-18,0.));
#202=CARTESIAN_POINT('',(0.125,7.80712334456438E-18,0.));
#203=CARTESIAN_POINT('',(0.,7.80712334456438E-18,-0.26));
#204=CARTESIAN_POINT('',(0.,7.80712334456438E-18,-0.2575));
#205=CARTESIAN_POINT('',(0.125,7.80712334456438E-18,-0.2575));
#206=CARTESIAN_POINT('',(0.,0.,-0.2575));
#207=CARTESIAN_POINT('',(0.,0.,-0.2575));
#208=CARTESIAN_POINT('',(0.00674624,0.,-0.2575));
#209=CARTESIAN_POINT('',(-0.0675,0.,-0.2575));
#210=CARTESIAN_POINT('',(-0.0641218,0.,-0.2575));
#211=CARTESIAN_POINT('',(0.0675,1.46957615897682E-17,-0.2575));
#212=CARTESIAN_POINT('',(0.0708782,1.46957615897682E-17,-0.2575));
#213=CARTESIAN_POINT('',(0.0675,1.46957615897682E-17,-0.26));
#214=CARTESIAN_POINT('',(-0.0675,0.,-0.26));
#215=CARTESIAN_POINT('',(0.,0.,-0.26));
#216=MECHANICAL_DESIGN_GEOMETRIC_PRESENTATION_REPRESENTATION('',(#119),
#217);
#217=(
GEOMETRIC_REPRESENTATION_CONTEXT(3)
GLOBAL_UNCERTAINTY_ASSIGNED_CONTEXT((#218))
GLOBAL_UNIT_ASSIGNED_CONTEXT((#221,#220,#219))
REPRESENTATION_CONTEXT('Part 1','TOP_LEVEL_ASSEMBLY_PART')
);
#218=UNCERTAINTY_MEASURE_WITH_UNIT(LENGTH_MEASURE(1.E-8),#221,
'DISTANCE_ACCURACY_VALUE','Maximum Tolerance applied to model');
#219=(
NAMED_UNIT(*)
SI_UNIT($,.STERADIAN.)
SOLID_ANGLE_UNIT()
);
#220=(
NAMED_UNIT(*)
PLANE_ANGLE_UNIT()
SI_UNIT($,.RADIAN.)
);
#221=(
LENGTH_UNIT()
NAMED_UNIT(*)
SI_UNIT($,.METRE.)
);
#222=PRODUCT_DEFINITION_SHAPE('','',#223);
#223=PRODUCT_DEFINITION('','',#225,#224);
#224=PRODUCT_DEFINITION_CONTEXT('',#231,'design');
#225=PRODUCT_DEFINITION_FORMATION_WITH_SPECIFIED_SOURCE('','',#227,
 .NOT_KNOWN.);
#226=PRODUCT_RELATED_PRODUCT_CATEGORY('','',(#227));
#227=PRODUCT('Part 1','Part 1','Part 1',(#229));
#228=PRODUCT_CATEGORY('','');
#229=PRODUCT_CONTEXT('',#231,'mechanical');
#230=APPLICATION_PROTOCOL_DEFINITION('international standard',
'ap242_managed_model_based_3d_engineering',2020,#231);
#231=APPLICATION_CONTEXT('managed model based 3d engineering');
ENDSEC;
END-ISO-10303-21;
