  0
SECTION
  2
HEADER
  9
$ACADVER
  1
AC1014
  9
$ACADMAINTVER
 70
     9
  9
$DWGCODEPAGE
  3
ANSI_1252
  9
$INSBASE
 10
0.0
 20
0.0
 30
0.0
  9
$EXTMIN
 10
1.0
 20
0.5
 30
-15.9375
  9
$EXTMAX
 10
420.0
 20
296.5
 30
15.9375
  9
$LIMMIN
 10
0.0
 20
0.0
  9
$LIMMAX
 10
12.0
 20
9.0
  9
$ORTHOMODE
 70
     0
  9
$REGENMODE
 70
     1
  9
$FILLMODE
 70
     1
  9
$QTEXTMODE
 70
     0
  9
$MIRRTEXT
 70
     1
  9
$DRAGMODE
 70
     2
  9
$LTSCALE
 40
12.7
  9
$OSMODE
 70
    23
  9
$ATTMODE
 70
     1
  9
$TEXTSIZE
 40
3.5
  9
$TRACEWID
 40
0.05
  9
$TEXTSTYLE
  7
ONSHAPE-STANDARD
  9
$CLAYER
  8
0
  9
$CELTYPE
  6
BYLAYER
  9
$CECOLOR
 62
   256
  9
$CELTSCALE
 40
1.0
  9
$DELOBJ
 70
     1
  9
$DISPSILH
 70
     0
  9
$DIMSCALE
 40
1.0
  9
$DIMASZ
 40
2.5
  9
$DIMEXO
 40
0.625
  9
$DIMDLI
 40
3.75
  9
$DIMRND
 40
0.0
  9
$DIMDLE
 40
0.0
  9
$DIMEXE
 40
1.25
  9
$DIMTP
 40
0.0
  9
$DIMTM
 40
0.0
  9
$DIMTXT
 40
3.5
  9
$DIMCEN
 40
2.5
  9
$DIMTSZ
 40
0.0
  9
$DIMTOL
 70
     0
  9
$DIMLIM
 70
     0
  9
$DIMTIH
 70
     0
  9
$DIMTOH
 70
     0
  9
$DIMSE1
 70
     0
  9
$DIMSE2
 70
     0
  9
$DIMTAD
 70
     1
  9
$DIMZIN
 70
     8
  9
$DIMBLK
  1

  9
$DIMASO
 70
     1
  9
$DIMSHO
 70
     1
  9
$DIMPOST
  1

  9
$DIMAPOST
  1

  9
$DIMALT
 70
     0
  9
$DIMALTD
 70
     3
  9
$DIMALTF
 40
0.03937
  9
$DIMLFAC
 40
4.0
  9
$DIMTOFL
 70
     1
  9
$DIMTVP
 40
0.0
  9
$DIMTIX
 70
     0
  9
$DIMSOXD
 70
     0
  9
$DIMSAH
 70
     0
  9
$DIMBLK1
  1

  9
$DIMBLK2
  1

  9
$DIMSTYLE
  2
ONSHAPE-ISO-25
  9
$DIMCLRD
 70
     7
  9
$DIMCLRE
 70
     7
  9
$DIMCLRT
 70
     7
  9
$DIMTFAC
 40
1.0
  9
$DIMGAP
 40
0.625
  9
$DIMJUST
 70
     0
  9
$DIMSD1
 70
     0
  9
$DIMSD2
 70
     0
  9
$DIMTOLJ
 70
     0
  9
$DIMTZIN
 70
     8
  9
$DIMALTZ
 70
     8
  9
$DIMALTTZ
 70
     0
  9
$DIMFIT
 70
     3
  9
$DIMUPT
 70
     1
  9
$DIMUNIT
 70
     2
  9
$DIMDEC
 70
     2
  9
$DIMTDEC
 70
     2
  9
$DIMALTU
 70
     2
  9
$DIMALTTD
 70
     3
  9
$DIMTXSTY
  7
ONSHAPE-STANDARD-DIMENSION
  9
$DIMAUNIT
 70
     0
  9
$LUNITS
 70
     2
  9
$LUPREC
 70
     4
  9
$SKETCHINC
 40
0.1
  9
$FILLETRAD
 40
0.5
  9
$AUNITS
 70
     0
  9
$AUPREC
 70
     0
  9
$MENU
  1
.
  9
$ELEVATION
 40
0.0
  9
$PELEVATION
 40
0.0
  9
$THICKNESS
 40
0.0
  9
$LIMCHECK
 70
     0
  9
$CHAMFERA
 40
0.0
  9
$CHAMFERB
 40
0.0
  9
$CHAMFERC
 40
0.0
  9
$CHAMFERD
 40
0.0
  9
$SKPOLY
 70
     0
  9
$TDCREATE
 40
2461078.502332674
  9
$TDUPDATE
 40
2461078.502333762
  9
$TDINDWG
 40
0.0
  9
$TDUSRTIMER
 40
0.0
  9
$USRTIMER
 70
     1
  9
$ANGBASE
 50
0.0
  9
$ANGDIR
 70
     0
  9
$PDMODE
 70
    33
  9
$PDSIZE
 40
1.0
  9
$PLINEWID
 40
0.0
  9
$COORDS
 70
     1
  9
$SPLFRAME
 70
     0
  9
$SPLINETYPE
 70
     6
  9
$SPLINESEGS
 70
     8
  9
$ATTDIA
 70
     0
  9
$ATTREQ
 70
     1
  9
$HANDLING
 70
     1
  9
$HANDSEED
  5
2E4
  9
$SURFTAB1
 70
     6
  9
$SURFTAB2
 70
     6
  9
$SURFTYPE
 70
     6
  9
$SURFU
 70
     6
  9
$SURFV
 70
     6
  9
$UCSNAME
  2

  9
$UCSORG
 10
0.0
 20
0.0
 30
0.0
  9
$UCSXDIR
 10
1.0
 20
0.0
 30
0.0
  9
$UCSYDIR
 10
0.0
 20
1.0
 30
0.0
  9
$PUCSNAME
  2

  9
$PUCSORG
 10
0.0
 20
0.0
 30
0.0
  9
$PUCSXDIR
 10
1.0
 20
0.0
 30
0.0
  9
$PUCSYDIR
 10
0.0
 20
1.0
 30
0.0
  9
$USERI1
 70
     0
  9
$USERI2
 70
     0
  9
$USERI3
 70
     0
  9
$USERI4
 70
     0
  9
$USERI5
 70
     0
  9
$USERR1
 40
0.0
  9
$USERR2
 40
0.0
  9
$USERR3
 40
0.0
  9
$USERR4
 40
0.0
  9
$USERR5
 40
0.0
  9
$WORLDVIEW
 70
     1
  9
$SHADEDGE
 70
     3
  9
$SHADEDIF
 70
    70
  9
$TILEMODE
 70
     1
  9
$MAXACTVP
 70
    64
  9
$PINSBASE
 10
0.0
 20
0.0
 30
0.0
  9
$PLIMCHECK
 70
     0
  9
$PEXTMIN
 10
1.000000000000000E+20
 20
1.000000000000000E+20
 30
1.000000000000000E+20
  9
$PEXTMAX
 10
-1.000000000000000E+20
 20
-1.000000000000000E+20
 30
-1.000000000000000E+20
  9
$PLIMMIN
 10
0.0
 20
0.0
  9
$PLIMMAX
 10
12.0
 20
9.0
  9
$UNITMODE
 70
     0
  9
$VISRETAIN
 70
     1
  9
$PLINEGEN
 70
     0
  9
$PSLTSCALE
 70
     1
  9
$TREEDEPTH
 70
  3020
  9
$PICKSTYLE
 70
     1
  9
$CMLSTYLE
  2
STANDARD
  9
$CMLJUST
 70
     0
  9
$CMLSCALE
 40
1.0
  9
$PROXYGRAPHICS
 70
     1
  9
$MEASUREMENT
 70
     0
  0
ENDSEC
  0
SECTION
  2
CLASSES
  0
CLASS
  1
ACDBDICTIONARYWDFLT
  2
AcDbDictionaryWithDefault
  3
ObjectDBX Classes
 90
        0
280
     0
281
     0
  0
CLASS
  1
VISUALSTYLE
  2
AcDbVisualStyle
  3
ObjectDBX Classes
 90
     4095
280
     0
281
     0
  0
CLASS
  1
MATERIAL
  2
AcDbMaterial
  3
ObjectDBX Classes
 90
     1153
280
     0
281
     0
  0
CLASS
  1
SCALE
  2
AcDbScale
  3
ObjectDBX Classes
 90
     1153
280
     0
281
     0
  0
CLASS
  1
TABLESTYLE
  2
AcDbTableStyle
  3
ObjectDBX Classes
 90
     4095
280
     0
281
     0
  0
CLASS
  1
MLEADERSTYLE
  2
AcDbMLeaderStyle
  3
ACDB_MLEADERSTYLE_CLASS
 90
     4095
280
     0
281
     0
  0
CLASS
  1
SUN
  2
AcDbSun
  3
SCENEOE
 90
     1153
280
     0
281
     0
  0
CLASS
  1
DICTIONARYVAR
  2
AcDbDictionaryVar
  3
ObjectDBX Classes
 90
        0
280
     0
281
     0
  0
CLASS
  1
FIELD
  2
AcDbField
  3
ObjectDBX Classes
 90
     1152
280
     0
281
     0
  0
CLASS
  1
FIELDLIST
  2
AcDbFieldList
  3
ObjectDBX Classes
 90
     1152
280
     0
281
     0
  0
CLASS
  1
DIMASSOC
  2
AcDbDimAssoc
  3
"AcDbDimAssoc|Product Desc:     AcDim ARX App For Dimension|Company:          Autodesk, Inc.|WEB Address:      www.autodesk.com"
 90
        0
280
     0
281
     0
  0
CLASS
  1
XRECORD
  2
AcDbXrecord
  3
ObjectDBX Classes
 90
        0
280
     0
281
     0
  0
CLASS
  1
LWPOLYLINE
  2
AcDbPolyline
  3
ObjectDBX Classes
 90
        0
280
     0
281
     1
  0
CLASS
  1
HATCH
  2
AcDbHatch
  3
ObjectDBX Classes
 90
        0
280
     0
281
     1
  0
CLASS
  1
ACDBPLACEHOLDER
  2
AcDbPlaceHolder
  3
ObjectDBX Classes
 90
        0
280
     0
281
     0
  0
CLASS
  1
LAYOUT
  2
AcDbLayout
  3
ObjectDBX Classes
 90
        0
280
     0
281
     0
  0
ENDSEC
  0
SECTION
  2
TABLES
  0
TABLE
  2
VPORT
  5
8
102
{ACAD_XDICTIONARY
360
2D8
102
}
330
0
100
AcDbSymbolTable
 70
     1
  0
VPORT
  5
29
330
8
100
AcDbSymbolTableRecord
100
AcDbViewportTableRecord
  2
*ACTIVE
 70
     0
 10
0.0
 20
0.0
 11
1.0
 21
1.0
 12
210.5
 22
153.2942779291553
 13
0.0
 23
0.0
 14
0.5
 24
0.5
 15
0.5
 25
0.5
 16
0.0
 26
0.0
 36
1.0
 17
0.0
 27
0.0
 37
0.0
 40
313.7055858310626
 41
1.365292874703758
 42
50.0
 43
0.0
 44
0.0
 50
0.0
 51
0.0
 71
     0
 72
   100
 73
     1
 74
     3
 75
     0
 76
     0
 77
     0
 78
     0
  0
ENDTAB
  0
TABLE
  2
LTYPE
  5
5
330
0
100
AcDbSymbolTable
 70
     2
  0
LTYPE
  5
14
330
5
100
AcDbSymbolTableRecord
100
AcDbLinetypeTableRecord
  2
BYBLOCK
 70
     0
  3

 72
    65
 73
     0
 40
0.0
  0
LTYPE
  5
15
330
5
100
AcDbSymbolTableRecord
100
AcDbLinetypeTableRecord
  2
BYLAYER
 70
     0
  3

 72
    65
 73
     0
 40
0.0
  0
LTYPE
  5
16
330
5
100
AcDbSymbolTableRecord
100
AcDbLinetypeTableRecord
  2
CONTINUOUS
 70
     0
  3
Solid line
 72
    65
 73
     0
 40
0.0
  0
LTYPE
  5
154
330
5
100
AcDbSymbolTableRecord
100
AcDbLinetypeTableRecord
  2
ONS_DASHDOT
 70
     0
  3
Onshape Dashed with Dot _ . ____ . ____
 72
    65
 73
     4
 40
0.71
 49
0.5
 74
     0
 49
-0.1
 74
     0
 49
0.01
 74
     0
 49
-0.1
 74
     0
  0
ENDTAB
  0
TABLE
  2
LAYER
  5
2
330
0
100
AcDbSymbolTable
 70
    11
  0
LAYER
  5
10
330
2
100
AcDbSymbolTableRecord
100
AcDbLayerTableRecord
  2
0
 70
     0
 62
     7
  6
CONTINUOUS
  0
LAYER
  5
70
330
2
100
AcDbSymbolTableRecord
100
AcDbLayerTableRecord
  2
DEFPOINTS
 70
     0
 62
     7
  6
CONTINUOUS
  0
LAYER
  5
74
330
2
100
AcDbSymbolTableRecord
100
AcDbLayerTableRecord
  2
VISIBLE
 70
     0
 62
     7
  6
CONTINUOUS
  0
LAYER
  5
83
330
2
100
AcDbSymbolTableRecord
100
AcDbLayerTableRecord
  2
VIEW_HATCHES
 70
     0
 62
     7
  6
CONTINUOUS
  0
LAYER
  5
AB
330
2
100
AcDbSymbolTableRecord
100
AcDbLayerTableRecord
  2
BORDER_FRAME
 70
     0
 62
     7
  6
CONTINUOUS
  0
LAYER
  5
B1
330
2
100
AcDbSymbolTableRecord
100
AcDbLayerTableRecord
  2
BORDER_ZONES
 70
     0
 62
     7
  6
CONTINUOUS
  0
LAYER
  5
D7
330
2
100
AcDbSymbolTableRecord
100
AcDbLayerTableRecord
  2
TITLE_BLOCK
 70
     0
 62
     7
  6
CONTINUOUS
  0
LAYER
  5
14B
330
2
100
AcDbSymbolTableRecord
100
AcDbLayerTableRecord
  2
ANNOTATION_TEXT
 70
     0
 62
     7
  6
CONTINUOUS
  0
LAYER
  5
152
330
2
100
AcDbSymbolTableRecord
100
AcDbLayerTableRecord
  2
SECTION_CUTTING_LINE
 70
     0
 62
     7
  6
ONS_DASHDOT
  0
LAYER
  5
1E7
330
2
100
AcDbSymbolTableRecord
100
AcDbLayerTableRecord
  2
ANNOTATION_LINES
 70
     0
 62
     7
  6
CONTINUOUS
  0
LAYER
  5
237
330
2
100
AcDbSymbolTableRecord
100
AcDbLayerTableRecord
  2
CENTERMARKS
 70
     0
 62
     7
  6
CONTINUOUS
  0
ENDTAB
  0
TABLE
  2
STYLE
  5
3
330
0
100
AcDbSymbolTable
 70
    35
  0
STYLE
  5
11
330
3
100
AcDbSymbolTableRecord
100
AcDbTextStyleTableRecord
  2
STANDARD
 70
     0
 40
0.0
 41
1.0
 50
0.0
 71
     0
 42
3.5
  3
txt
  4

  0
STYLE
  5
71
330
3
100
AcDbSymbolTableRecord
100
AcDbTextStyleTableRecord
  2
ONSHAPE-STANDARD
 70
     0
 40
0.0
 41
1.0
 50
0.0
 71
     0
 42
3.5
  3
NotoSans-Regular.ttf
  4

1001
ACAD
1000
Noto Sans
1071
        0
  0
STYLE
  5
73
330
3
100
AcDbSymbolTableRecord
100
AcDbTextStyleTableRecord
  2
ONSHAPE-STANDARD-DIMENSION
 70
     0
 40
0.0
 41
1.0
 50
0.0
 71
     0
 42
3.5
  3

  4

1001
ACAD
1000
Noto Sans
1071
        0
  0
STYLE
  5
10D
330
3
100
AcDbSymbolTableRecord
100
AcDbTextStyleTableRecord
  2
ONSHAPE-STANDARD-FIELDS
 70
     0
 40
0.0
 41
1.0
 50
0.0
 71
     0
 42
3.5
  3

  4

1001
ACAD
1000
Noto Sans
1071
        0
  0
STYLE
  5
14C
330
3
100
AcDbSymbolTableRecord
100
AcDbTextStyleTableRecord
  2
ONSHAPE-STANDARD-VIEW-LABE
 70
     0
 40
3.5
 41
1.0
 50
0.0
 71
     0
 42
3.5
  3
NotoSans-Regular.ttf
  4

1001
ACAD
1000
Noto Sans
1071
        0
  0
STYLE
  5
1CE
330
3
100
AcDbSymbolTableRecord
100
AcDbTextStyleTableRecord
  2
ONSHAPE-STANDARD-NOTESTYLE
 70
     0
 40
3.5
 41
1.0
 50
0.0
 71
     0
 42
3.5
  3
Noto Sans
  4

1001
ACAD
1000
Noto Sans
1071
        0
  0
STYLE
  5
1E3
330
3
100
AcDbSymbolTableRecord
100
AcDbTextStyleTableRecord
  2
ONSHAPE-STANDARD-HOLE-CALL
 70
     0
 40
3.5
 41
1.0
 50
0.0
 71
     0
 42
3.5
  3
Noto Sans
  4

1001
ACAD
1000
Noto Sans
1071
        0
  0
STYLE
  5
253
330
3
100
AcDbSymbolTableRecord
100
AcDbTextStyleTableRecord
  2
ONSHAPE-STANDARD-BOLD
 70
     0
 40
0.0
 41
1.0
 50
0.0
 71
     0
 42
3.5
  3
NotoSans-Bold.ttf
  4

1001
ACAD
1000
Noto Sans
1071
 33554432
  0
STYLE
  5
255
330
3
100
AcDbSymbolTableRecord
100
AcDbTextStyleTableRecord
  2
ONSHAPE-STANDARD-TCFIELDS
 70
     0
 40
0.0
 41
1.0
 50
0.0
 71
     0
 42
3.5
  3
NotoSansTC-Regular.otf
  4

1001
ACAD
1000
Noto Sans TC
1071
        0
  0
STYLE
  5
256
330
3
100
AcDbSymbolTableRecord
100
AcDbTextStyleTableRecord
  2
ONSHAPE-STANDARD-SCFIELDS
 70
     0
 40
0.0
 41
1.0
 50
0.0
 71
     0
 42
3.5
  3
NotoSansSC-Regular.otf
  4

1001
ACAD
1000
Noto Sans SC
1071
        0
  0
STYLE
  5
257
330
3
100
AcDbSymbolTableRecord
100
AcDbTextStyleTableRecord
  2
ONSHAPE-STANDARD-KOREANFIE
 70
     0
 40
0.0
 41
1.0
 50
0.0
 71
     0
 42
3.5
  3
NotoSansKR-Regular.otf
  4

1001
ACAD
1000
Noto Sans KR
1071
        0
  0
STYLE
  5
258
330
3
100
AcDbSymbolTableRecord
100
AcDbTextStyleTableRecord
  2
ONSHAPE-STANDARD-JAPANESEF
 70
     0
 40
0.0
 41
1.0
 50
0.0
 71
     0
 42
3.5
  3
NotoSansJP-Regular.otf
  4

1001
ACAD
1000
Noto Sans JP
1071
        0
  0
STYLE
  5
25A
330
3
100
AcDbSymbolTableRecord
100
AcDbTextStyleTableRecord
  2
TTFSTYLE
 70
     0
 40
0.0
 41
1.0
 50
0.0
 71
     0
 42
3.5
  3
Verdana.ttf
  4

1001
ACAD
1000
Verdana
1071
       34
  0
STYLE
  5
25B
330
3
100
AcDbSymbolTableRecord
100
AcDbTextStyleTableRecord
  2
ONSHAPE-STANDARD-GTOLERANC
 70
     0
 40
0.0
 41
1.0
 50
0.0
 71
     0
 42
3.5
  3

  4

1001
ACAD
1000
Noto Sans
1071
        0
  0
STYLE
  5
25C
330
3
100
AcDbSymbolTableRecord
100
AcDbTextStyleTableRecord
  2
ONSHAPE-STANDARD-TABLE-DAT
 70
     0
 40
0.0
 41
1.0
 50
0.0
 71
     0
 42
3.5
  3
NotoSans-Regular.ttf
  4

1001
ACAD
1000
Noto Sans
1071
        0
  0
STYLE
  5
25D
330
3
100
AcDbSymbolTableRecord
100
AcDbTextStyleTableRecord
  2
ONSHAPE-STANDARD-TABLE-TIT
 70
     0
 40
0.0
 41
1.0
 50
0.0
 71
     0
 42
3.5
  3
NotoSans-Bold.ttf
  4

1001
ACAD
1000
Noto Sans
1071
 33554432
  0
STYLE
  5
25E
330
3
100
AcDbSymbolTableRecord
100
AcDbTextStyleTableRecord
  2
ONSHAPE-STANDARD-TABLE-HEA
 70
     0
 40
0.0
 41
1.0
 50
0.0
 71
     0
 42
3.5
  3
NotoSans-Bold.ttf
  4

1001
ACAD
1000
Noto Sans
1071
 33554432
  0
STYLE
  5
25F
330
3
100
AcDbSymbolTableRecord
100
AcDbTextStyleTableRecord
  2
ONSHAPE-STANDARD-BOMTABLE-
 70
     0
 40
0.0
 41
1.0
 50
0.0
 71
     0
 42
3.5
  3
NotoSans-Regular.ttf
  4

1001
ACAD
1000
Noto Sans
1071
        0
  0
STYLE
  5
260
330
3
100
AcDbSymbolTableRecord
100
AcDbTextStyleTableRecord
  2
ONSHAPE-STANDARD-BOMTABLE0
 70
     0
 40
0.0
 41
1.0
 50
0.0
 71
     0
 42
3.5
  3
NotoSans-Bold.ttf
  4

1001
ACAD
1000
Noto Sans
1071
 33554432
  0
STYLE
  5
261
330
3
100
AcDbSymbolTableRecord
100
AcDbTextStyleTableRecord
  2
ONSHAPE-STANDARD-BOMTABLE1
 70
     0
 40
0.0
 41
1.0
 50
0.0
 71
     0
 42
3.5
  3
NotoSans-Bold.ttf
  4

1001
ACAD
1000
Noto Sans
1071
 33554432
  0
STYLE
  5
265
330
3
100
AcDbSymbolTableRecord
100
AcDbTextStyleTableRecord
  2
ONSHAPE-STANDARD-HOLETABLE
 70
     0
 40
0.0
 41
1.0
 50
0.0
 71
     0
 42
3.5
  3
NotoSans-Regular.ttf
  4

1001
ACAD
1000
Noto Sans
1071
        0
  0
STYLE
  5
266
330
3
100
AcDbSymbolTableRecord
100
AcDbTextStyleTableRecord
  2
ONSHAPE-STANDARD-HOLETABL0
 70
     0
 40
0.0
 41
1.0
 50
0.0
 71
     0
 42
3.5
  3
NotoSans-Bold.ttf
  4

1001
ACAD
1000
Noto Sans
1071
 33554432
  0
STYLE
  5
267
330
3
100
AcDbSymbolTableRecord
100
AcDbTextStyleTableRecord
  2
ONSHAPE-STANDARD-HOLETABL1
 70
     0
 40
0.0
 41
1.0
 50
0.0
 71
     0
 42
3.5
  3
NotoSans-Bold.ttf
  4

1001
ACAD
1000
Noto Sans
1071
 33554432
  0
STYLE
  5
268
330
3
100
AcDbSymbolTableRecord
100
AcDbTextStyleTableRecord
  2
ONSHAPE-STANDARD-HOLE-TAG
 70
     0
 40
3.5
 41
1.0
 50
0.0
 71
     0
 42
3.5
  3
Noto Sans
  4

1001
ACAD
1000
Noto Sans
1071
        0
  0
STYLE
  5
269
330
3
100
AcDbSymbolTableRecord
100
AcDbTextStyleTableRecord
  2
ONSHAPE-STANDARD-REVISIONT
 70
     0
 40
0.0
 41
1.0
 50
0.0
 71
     0
 42
3.5
  3
NotoSans-Regular.ttf
  4

1001
ACAD
1000
Noto Sans
1071
        0
  0
STYLE
  5
26A
330
3
100
AcDbSymbolTableRecord
100
AcDbTextStyleTableRecord
  2
ONSHAPE-STANDARD-REVISION0
 70
     0
 40
0.0
 41
1.0
 50
0.0
 71
     0
 42
3.5
  3
NotoSans-Bold.ttf
  4

1001
ACAD
1000
Noto Sans
1071
 33554432
  0
STYLE
  5
26B
330
3
100
AcDbSymbolTableRecord
100
AcDbTextStyleTableRecord
  2
ONSHAPE-STANDARD-REVISION1
 70
     0
 40
0.0
 41
1.0
 50
0.0
 71
     0
 42
3.5
  3
NotoSans-Bold.ttf
  4

1001
ACAD
1000
Noto Sans
1071
 33554432
  0
STYLE
  5
26C
330
3
100
AcDbSymbolTableRecord
100
AcDbTextStyleTableRecord
  2
ONSHAPE-STANDARD-REVISION-
 70
     0
 40
3.5
 41
1.0
 50
0.0
 71
     0
 42
3.5
  3
Noto Sans
  4

1001
ACAD
1000
Noto Sans
1071
        0
  0
STYLE
  5
26D
330
3
100
AcDbSymbolTableRecord
100
AcDbTextStyleTableRecord
  2
ONSHAPE-STANDARD-CUTLISTTA
 70
     0
 40
0.0
 41
1.0
 50
0.0
 71
     0
 42
3.5
  3
NotoSans-Regular.ttf
  4

1001
ACAD
1000
Noto Sans
1071
        0
  0
STYLE
  5
26E
330
3
100
AcDbSymbolTableRecord
100
AcDbTextStyleTableRecord
  2
ONSHAPE-STANDARD-CUTLISTT0
 70
     0
 40
0.0
 41
1.0
 50
0.0
 71
     0
 42
3.5
  3
NotoSans-Bold.ttf
  4

1001
ACAD
1000
Noto Sans
1071
 33554432
  0
STYLE
  5
26F
330
3
100
AcDbSymbolTableRecord
100
AcDbTextStyleTableRecord
  2
ONSHAPE-STANDARD-CUTLISTT1
 70
     0
 40
0.0
 41
1.0
 50
0.0
 71
     0
 42
3.5
  3
NotoSans-Bold.ttf
  4

1001
ACAD
1000
Noto Sans
1071
 33554432
  0
STYLE
  5
270
330
3
100
AcDbSymbolTableRecord
100
AcDbTextStyleTableRecord
  2
ONSHAPE-STANDARD-CUSTOMTAB
 70
     0
 40
0.0
 41
1.0
 50
0.0
 71
     0
 42
3.5
  3
NotoSans-Regular.ttf
  4

1001
ACAD
1000
Noto Sans
1071
        0
  0
STYLE
  5
271
330
3
100
AcDbSymbolTableRecord
100
AcDbTextStyleTableRecord
  2
ONSHAPE-STANDARD-CUSTOMTA0
 70
     0
 40
0.0
 41
1.0
 50
0.0
 71
     0
 42
3.5
  3
NotoSans-Bold.ttf
  4

1001
ACAD
1000
Noto Sans
1071
 33554432
  0
STYLE
  5
272
330
3
100
AcDbSymbolTableRecord
100
AcDbTextStyleTableRecord
  2
ONSHAPE-STANDARD-CUSTOMTA1
 70
     0
 40
0.0
 41
1.0
 50
0.0
 71
     0
 42
3.5
  3
NotoSans-Bold.ttf
  4

1001
ACAD
1000
Noto Sans
1071
 33554432
  0
STYLE
  5
273
330
3
100
AcDbSymbolTableRecord
100
AcDbTextStyleTableRecord
  2
ONSHAPE-STANDARD-DATUM-DIM
 70
     0
 40
3.5
 41
1.0
 50
0.0
 71
     0
 42
3.5
  3
NotoSans-Regular.ttf
  4

1001
ACAD
1000
Noto Sans
1071
        0
  0
ENDTAB
  0
TABLE
  2
VIEW
  5
6
330
0
100
AcDbSymbolTable
 70
     0
  0
ENDTAB
  0
TABLE
  2
UCS
  5
7
330
0
100
AcDbSymbolTable
 70
     0
  0
ENDTAB
  0
TABLE
  2
APPID
  5
9
330
0
100
AcDbSymbolTable
 70
     8
  0
APPID
  5
12
330
9
100
AcDbSymbolTableRecord
100
AcDbRegAppTableRecord
  2
ACAD
 70
     0
  0
APPID
  5
151
330
9
100
AcDbSymbolTableRecord
100
AcDbRegAppTableRecord
  2
ONSHAPE_NOTES_ANNOTATION_D
 70
     0
  0
APPID
  5
17D
330
9
100
AcDbSymbolTableRecord
100
AcDbRegAppTableRecord
  2
ACAD_DIMASSOC_CALC_DIMLFAC
 70
     0
  0
APPID
  5
17E
330
9
100
AcDbSymbolTableRecord
100
AcDbRegAppTableRecord
  2
ACAD_DIMASSOC_DIMLFAC
 70
     0
  0
APPID
  5
17F
330
9
100
AcDbSymbolTableRecord
100
AcDbRegAppTableRecord
  2
ACAD_DIMASSOC_OVERRIDDEN_D
 70
     0
  0
APPID
  5
172
330
9
100
AcDbSymbolTableRecord
100
AcDbRegAppTableRecord
  2
INDEX
 70
     0
  0
APPID
  5
1A2
330
9
100
AcDbSymbolTableRecord
100
AcDbRegAppTableRecord
  2
ACAD_DSTYLE_DIMRADIAL_EXTE
 70
     0
  0
APPID
  5
2E2
330
9
100
AcDbSymbolTableRecord
100
AcDbRegAppTableRecord
  2
ACAD_MLEADERVER
 70
     0
  0
ENDTAB
  0
TABLE
  2
DIMSTYLE
  5
A
330
0
100
AcDbSymbolTable
 70
    23
  0
DIMSTYLE
105
27
330
A
100
AcDbSymbolTableRecord
100
AcDbDimStyleTableRecord
  2
STANDARD
 70
     0
  3

  4

  5

  6

  7

 40
1.0
 41
0.18
 42
0.0625
 43
0.38
 44
0.18
 45
0.0
 46
0.0
 47
0.0
 48
0.0
140
0.18
141
0.09
142
0.0
143
25.4
144
1.0
145
0.0
146
1.0
147
0.09
 71
     0
 72
     0
 73
     1
 74
     1
 75
     0
 76
     0
 77
     0
 78
     0
170
     0
171
     2
172
     0
173
     0
174
     0
175
     0
176
     0
177
     0
178
     0
270
     2
271
     4
272
     4
273
     2
274
     2
340
11
275
     0
280
     0
281
     0
282
     0
283
     1
284
     0
285
     0
286
     0
287
     3
288
     0
  0
DIMSTYLE
105
72
330
A
100
AcDbSymbolTableRecord
100
AcDbDimStyleTableRecord
  2
ONSHAPE-ISO-25
 70
     0
  3

  4

  5

  6

  7

 40
1.0
 41
2.5
 42
0.625
 43
3.75
 44
1.25
 45
0.0
 46
0.0
 47
0.0
 48
0.0
140
3.5
141
2.5
142
0.0
143
0.03937
144
1.0
145
0.0
146
1.0
147
0.625
 71
     0
 72
     0
 73
     0
 74
     0
 75
     0
 76
     0
 77
     1
 78
     8
170
     0
171
     3
172
     1
173
     0
174
     0
175
     0
176
     7
177
     7
178
     7
179
     1
270
     2
271
     2
272
     2
273
     2
274
     3
340
73
275
     0
280
     0
281
     0
282
     0
283
     0
284
     8
285
     8
286
     0
287
     3
288
     1
  0
DIMSTYLE
105
16D
102
{ACAD_REACTORS
330
165
330
180
330
1A3
330
1B5
102
}
330
A
100
AcDbSymbolTableRecord
100
AcDbDimStyleTableRecord
  2
ONSHAPE-ISO-25$0
 70
     0
  3

  4

  5

  6

  7

 40
1.0
 41
2.5
 42
0.625
 43
3.75
 44
1.25
 45
0.0
 46
0.0
 47
0.0
 48
0.0
140
3.5
141
2.5
142
0.0
143
0.03937
144
1.0
145
0.0
146
1.0
147
0.625
 71
     0
 72
     0
 73
     0
 74
     0
 75
     0
 76
     0
 77
     1
 78
     8
170
     0
171
     3
172
     1
173
     0
174
     0
175
     0
176
     7
177
     7
178
     7
179
     1
270
     2
271
     2
272
     2
273
     2
274
     3
340
73
275
     0
280
     0
281
     0
282
     0
283
     0
284
     8
285
     8
286
     0
287
     3
288
     1
  0
DIMSTYLE
105
196
102
{ACAD_REACTORS
330
192
102
}
330
A
100
AcDbSymbolTableRecord
100
AcDbDimStyleTableRecord
  2
ONSHAPE-ISO-25$3
 70
     0
  3

  4

  5

  6

  7

 40
1.0
 41
2.5
 42
0.625
 43
3.75
 44
1.25
 45
0.0
 46
0.0
 47
0.0
 48
0.0
140
3.5
141
0.0
142
0.0
143
0.03937
144
1.0
145
0.0
146
1.0
147
0.625
 71
     0
 72
     0
 73
     0
 74
     0
 75
     0
 76
     0
 77
     1
 78
     8
170
     0
171
     3
172
     1
173
     0
174
     0
175
     0
176
     7
177
     7
178
     7
179
     1
270
     2
271
     2
272
     2
273
     2
274
     3
340
73
275
     0
280
     0
281
     0
282
     0
283
     0
284
     8
285
     8
286
     0
287
     3
288
     1
  0
DIMSTYLE
105
274
330
A
100
AcDbSymbolTableRecord
100
AcDbDimStyleTableRecord
  2
ISO-25
 70
     0
  3

  4

  5

  6

  7

 40
1.0
 41
2.5
 42
0.625
 43
3.75
 44
1.25
 45
0.0
 46
0.0
 47
0.0
 48
0.0
140
2.5
141
2.5
142
0.0
143
0.03937007874016
144
1.0
145
0.0
146
1.0
147
0.625
 71
     0
 72
     0
 73
     0
 74
     0
 75
     0
 76
     0
 77
     1
 78
     8
170
     0
171
     3
172
     1
173
     0
174
     0
175
     0
176
     7
177
     7
178
     7
270
     2
271
     2
272
     2
273
     2
274
     3
340
11
275
     0
280
     0
281
     0
282
     0
283
     0
284
     8
285
     0
286
     0
287
     3
288
     1
  0
DIMSTYLE
105
276
330
A
100
AcDbSymbolTableRecord
100
AcDbDimStyleTableRecord
  2
ISO
 70
     0
  3

  4
"
  5

  6

  7

 40
1.0
 41
3.5
 42
1.0
 43
10.0
 44
1.0
 45
0.0
 46
0.0
 47
0.1
 48
0.1
140
3.5
141
0.0
142
0.0
143
0.03937
144
1.0
145
0.0
146
0.71
147
1.5
 71
     0
 72
     0
 73
     0
 74
     0
 75
     0
 76
     0
 77
     1
 78
     8
170
     0
171
     3
172
     1
173
     0
174
     0
175
     0
176
     7
177
     7
178
     7
270
     2
271
     2
272
     3
273
     2
274
     3
340
11
275
     0
280
     0
281
     0
282
     0
283
     0
284
     8
285
     8
286
     0
287
     3
288
     1
  0
DIMSTYLE
105
277
330
A
100
AcDbSymbolTableRecord
100
AcDbDimStyleTableRecord
  2
ISO$3
 70
     0
  3

  4
"
  5

  6

  7

 40
1.0
 41
3.5
 42
1.0
 43
10.0
 44
1.0
 45
0.0
 46
0.0
 47
0.1
 48
0.1
140
3.5
141
0.0
142
0.0
143
0.03937
144
1.0
145
0.0
146
0.71
147
1.5
 71
     0
 72
     0
 73
     0
 74
     1
 75
     0
 76
     0
 77
     1
 78
     8
170
     0
171
     3
172
     0
173
     0
174
     0
175
     0
176
     7
177
     7
178
     7
270
     2
271
     2
272
     3
273
     2
274
     3
340
11
275
     0
280
     0
281
     0
282
     0
283
     0
284
     8
285
     8
286
     0
288
     1
  0
DIMSTYLE
105
278
330
A
100
AcDbSymbolTableRecord
100
AcDbDimStyleTableRecord
  2
ISO$4
 70
     0
  3

  4
"
  5

  6

  7

 40
1.0
 41
3.5
 42
1.0
 43
10.0
 44
1.0
 45
0.0
 46
0.0
 47
0.1
 48
0.1
140
3.5
141
0.0
142
0.0
143
0.03937
144
1.0
145
0.0
146
0.71
147
1.5
 71
     0
 72
     0
 73
     0
 74
     0
 75
     0
 76
     0
 77
     1
 78
     8
170
     0
171
     3
172
     1
173
     0
174
     0
175
     0
176
     7
177
     7
178
     7
270
     2
271
     2
272
     3
273
     2
274
     3
340
11
275
     0
280
     0
281
     0
282
     0
283
     0
284
     8
285
     8
286
     0
287
     3
288
     1
  0
DIMSTYLE
105
279
330
A
100
AcDbSymbolTableRecord
100
AcDbDimStyleTableRecord
  2
ISO$6
 70
     0
  3

  4
"
  5

  6

  7

 40
1.0
 41
0.5
 42
1.0
 43
10.0
 44
1.0
 45
0.0
 46
0.0
 47
0.1
 48
0.1
140
3.5
141
0.0
142
0.0
143
0.03937
144
1.0
145
0.0
146
0.71
147
1.5
 71
     0
 72
     0
 73
     0
 74
     0
 75
     0
 76
     0
 77
     0
 78
     8
170
     0
171
     3
172
     1
173
     0
174
     0
175
     0
176
     7
177
     7
178
     7
270
     2
271
     2
272
     3
273
     2
274
     3
340
11
275
     0
280
     0
281
     0
282
     0
283
     0
284
     8
285
     8
286
     0
287
     3
288
     1
  0
DIMSTYLE
105
27A
330
A
100
AcDbSymbolTableRecord
100
AcDbDimStyleTableRecord
  2
ISO$7
 70
     0
  3

  4
"
  5

  6

  7

 40
1.0
 41
3.5
 42
1.0
 43
10.0
 44
1.0
 45
0.0
 46
0.0
 47
0.1
 48
0.1
140
3.5
141
0.0
142
0.0
143
0.03937
144
1.0
145
0.0
146
0.71
147
1.5
 71
     0
 72
     0
 73
     0
 74
     0
 75
     0
 76
     0
 77
     1
 78
     8
170
     0
171
     3
172
     1
173
     0
174
     0
175
     0
176
     7
177
     7
178
     7
270
     2
271
     2
272
     3
273
     2
274
     3
340
11
275
     0
280
     0
281
     0
282
     0
283
     0
284
     8
285
     8
286
     0
287
     3
288
     1
  0
DIMSTYLE
105
27B
330
A
100
AcDbSymbolTableRecord
100
AcDbDimStyleTableRecord
  2
ISO$SF
 70
     0
  3

  4
"
  5

  6

  7

 40
1.0
 41
3.5
 42
1.0
 43
10.0
 44
1.0
 45
0.0
 46
0.0
 47
0.1
 48
0.1
140
3.5
141
0.0
142
0.0
143
0.03937
144
1.0
145
0.0
146
0.71
147
1.5
 71
     0
 72
     0
 73
     0
 74
     0
 75
     1
 76
     1
 77
     1
 78
     8
170
     0
171
     3
172
     1
173
     0
174
     0
175
     0
176
     7
177
     7
178
     7
270
     2
271
     2
272
     3
273
     2
274
     3
340
11
275
     0
280
     0
281
     0
282
     0
283
     0
284
     8
285
     8
286
     0
287
     3
288
     1
  0
DIMSTYLE
105
27C
330
A
100
AcDbSymbolTableRecord
100
AcDbDimStyleTableRecord
  2
ISO$SH
 70
     0
  3

  4
"
  5

  6

  7

 40
1.0
 41
3.5
 42
1.0
 43
10.0
 44
1.0
 45
0.0
 46
0.0
 47
0.1
 48
0.1
140
3.5
141
0.0
142
0.0
143
0.03937
144
2.0
145
0.0
146
0.71
147
1.5
 71
     0
 72
     0
 73
     0
 74
     0
 75
     1
 76
     1
 77
     1
 78
     8
170
     0
171
     3
172
     1
173
     1
174
     0
175
     0
176
     7
177
     7
178
     7
270
     2
271
     2
272
     3
273
     2
274
     3
340
11
275
     0
280
     0
281
     0
282
     0
283
     0
284
     8
285
     8
286
     0
287
     3
288
     1
  0
DIMSTYLE
105
280
330
A
100
AcDbSymbolTableRecord
100
AcDbDimStyleTableRecord
  2
ONSHAPE-ISO-25$2
 70
     0
  3

  4

  5

  6

  7

 40
1.0
 41
2.5
 42
0.625
 43
3.75
 44
1.25
 45
0.0
 46
0.0
 47
0.0
 48
0.0
140
3.5
141
2.5
142
0.0
143
0.03937
144
1.0
145
0.0
146
1.0
147
0.625
 71
     0
 72
     0
 73
     0
 74
     0
 75
     0
 76
     0
 77
     1
 78
     8
170
     0
171
     3
172
     1
173
     0
174
     0
175
     0
176
     7
177
     7
178
     7
179
     1
270
     2
271
     2
272
     2
273
     2
274
     3
340
73
275
     0
280
     0
281
     0
282
     0
283
     0
284
     8
285
     8
286
     0
287
     3
288
     1
  0
DIMSTYLE
105
282
330
A
100
AcDbSymbolTableRecord
100
AcDbDimStyleTableRecord
  2
ONSHAPE-ISO-25$4
 70
     0
  3

  4

  5

  6

  7

 40
1.0
 41
2.5
 42
0.625
 43
3.75
 44
1.25
 45
0.0
 46
0.0
 47
0.0
 48
0.0
140
3.5
141
0.0
142
0.0
143
0.03937
144
1.0
145
0.0
146
1.0
147
0.625
 71
     0
 72
     0
 73
     0
 74
     0
 75
     0
 76
     0
 77
     1
 78
     8
170
     0
171
     3
172
     1
173
     0
174
     0
175
     0
176
     7
177
     7
178
     7
179
     1
270
     2
271
     2
272
     2
273
     2
274
     3
340
73
275
     0
280
     0
281
     0
282
     0
283
     0
284
     8
285
     8
286
     0
287
     3
288
     1
  0
DIMSTYLE
105
283
330
A
100
AcDbSymbolTableRecord
100
AcDbDimStyleTableRecord
  2
ONSHAPE-ISO-25$6
 70
     0
  3

  4

  5

  6

  7

 40
1.0
 41
0.5
 42
0.625
 43
3.75
 44
1.25
 45
0.0
 46
0.0
 47
0.0
 48
0.0
140
3.5
141
2.5
142
0.0
143
0.03937
144
1.0
145
0.0
146
1.0
147
0.625
 71
     0
 72
     0
 73
     0
 74
     0
 75
     0
 76
     0
 77
     1
 78
     8
170
     0
171
     3
172
     1
173
     0
174
     0
175
     0
176
     7
177
     7
178
     7
179
     1
270
     2
271
     2
272
     2
273
     2
274
     3
340
73
275
     0
280
     0
281
     0
282
     0
283
     0
284
     8
285
     8
286
     0
287
     3
288
     1
  0
DIMSTYLE
105
284
330
A
100
AcDbSymbolTableRecord
100
AcDbDimStyleTableRecord
  2
ONSHAPE-ISO-25$7
 70
     0
  3

  4

  5

  6

  7

 40
1.0
 41
2.5
 42
0.625
 43
3.75
 44
1.25
 45
0.0
 46
0.0
 47
0.0
 48
0.0
140
3.5
141
2.5
142
0.0
143
0.03937
144
1.0
145
0.0
146
1.0
147
0.625
 71
     0
 72
     0
 73
     0
 74
     0
 75
     0
 76
     0
 77
     1
 78
     8
170
     0
171
     3
172
     1
173
     0
174
     0
175
     0
176
     7
177
     7
178
     7
179
     1
270
     2
271
     2
272
     2
273
     2
274
     3
340
73
275
     0
280
     0
281
     0
282
     0
283
     0
284
     8
285
     8
286
     0
287
     3
288
     1
  0
DIMSTYLE
105
285
330
A
100
AcDbSymbolTableRecord
100
AcDbDimStyleTableRecord
  2
ONSHAPE-STANDARD-GTOLERANC
 70
     0
  3

  4

  5

  6

  7

 40
1.0
 41
2.5
 42
0.625
 43
3.75
 44
1.25
 45
0.0
 46
0.0
 47
0.0
 48
0.0
140
3.5
141
2.5
142
0.0
143
0.03937
144
1.0
145
0.0
146
1.0
147
0.625
 71
     0
 72
     0
 73
     0
 74
     0
 75
     0
 76
     0
 77
     1
 78
     8
170
     0
171
     3
172
     1
173
     0
174
     0
175
     0
176
     7
177
     7
178
     7
179
     1
270
     2
271
     2
272
     2
273
     2
274
     3
340
25B
275
     0
280
     0
281
     0
282
     0
283
     0
284
     8
285
     8
286
     0
287
     3
288
     1
  0
DIMSTYLE
105
287
330
A
100
AcDbSymbolTableRecord
100
AcDbDimStyleTableRecord
  2
ONSHAPE-ORDINATESTYLE
 70
     0
  3

  4

  5

  6

  7

 40
1.0
 41
2.5
 42
0.625
 43
3.75
 44
1.25
 45
0.0
 46
0.0
 47
0.0
 48
0.0
140
3.5
141
2.5
142
0.0
143
0.03937
144
1.0
145
0.0
146
1.0
147
0.625
 71
     0
 72
     0
 73
     0
 74
     0
 75
     0
 76
     0
 77
     1
 78
     8
170
     0
171
     3
172
     1
173
     0
174
     0
175
     0
176
     7
177
     7
178
     7
179
     1
270
     2
271
     2
272
     2
273
     2
274
     3
340
73
275
     0
280
     0
281
     0
282
     0
283
     0
284
     8
285
     8
286
     0
287
     3
288
     1
  0
DIMSTYLE
105
288
330
A
100
AcDbSymbolTableRecord
100
AcDbDimStyleTableRecord
  2
ONSHAPE-CHAMFERDIMSTYLE
 70
     0
  3

  4

  5

  6

  7

 40
1.0
 41
2.5
 42
0.625
 43
3.75
 44
1.25
 45
0.0
 46
0.0
 47
0.0
 48
0.0
140
3.5
141
2.5
142
0.0
143
0.03937
144
1.0
145
0.0
146
1.0
147
0.625
 71
     0
 72
     0
 73
     0
 74
     0
 75
     0
 76
     0
 77
     1
 78
     8
170
     0
171
     3
172
     1
173
     0
174
     0
175
     0
176
     7
177
     7
178
     7
179
     1
270
     2
271
     2
272
     2
273
     2
274
     3
340
73
275
     0
280
     0
281
     0
282
     0
283
     0
284
     8
285
     8
286
     0
287
     3
288
     1
  0
DIMSTYLE
105
289
330
A
100
AcDbSymbolTableRecord
100
AcDbDimStyleTableRecord
  2
ONSHAPE-SKETCHDRIVENDIMSTY
 70
     0
  3

  4

  5

  6

  7

 40
1.0
 41
2.5
 42
0.625
 43
3.75
 44
1.25
 45
0.0
 46
0.0
 47
0.0
 48
0.0
140
3.5
141
2.5
142
0.0
143
0.03937
144
1.0
145
0.0
146
1.0
147
0.625
 71
     0
 72
     0
 73
     0
 74
     0
 75
     0
 76
     0
 77
     1
 78
     8
170
     0
171
     3
172
     1
173
     0
174
     0
175
     0
176
   251
177
   251
178
   251
179
     1
270
     2
271
     2
272
     2
273
     2
274
     3
340
73
275
     0
280
     0
281
     0
282
     0
283
     0
284
     8
285
     8
286
     0
287
     3
288
     1
  0
DIMSTYLE
105
28A
330
A
100
AcDbSymbolTableRecord
100
AcDbDimStyleTableRecord
  2
ONSHAPE-SKETCHDRIVENDIMST0
 70
     0
  3

  4

  5

  6

  7

 40
1.0
 41
2.5
 42
0.625
 43
3.75
 44
1.25
 45
0.0
 46
0.0
 47
0.0
 48
0.0
140
3.5
141
2.5
142
0.0
143
0.03937
144
1.0
145
0.0
146
1.0
147
0.625
 71
     0
 72
     0
 73
     0
 74
     0
 75
     0
 76
     0
 77
     1
 78
     8
170
     0
171
     3
172
     1
173
     0
174
     0
175
     0
176
   251
177
   251
178
   251
179
     1
270
     2
271
     2
272
     2
273
     2
274
     3
340
73
275
     0
280
     0
281
     0
282
     0
283
     0
284
     8
285
     8
286
     0
287
     3
288
     1
  0
DIMSTYLE
105
28B
330
A
100
AcDbSymbolTableRecord
100
AcDbDimStyleTableRecord
  2
ONSHAPE-SKETCHDRIVENDIMST1
 70
     0
  3

  4

  5

  6

  7

 40
1.0
 41
2.5
 42
0.625
 43
3.75
 44
1.25
 45
0.0
 46
0.0
 47
0.0
 48
0.0
140
3.5
141
0.0
142
0.0
143
0.03937
144
1.0
145
0.0
146
1.0
147
0.625
 71
     0
 72
     0
 73
     0
 74
     0
 75
     0
 76
     0
 77
     1
 78
     8
170
     0
171
     3
172
     1
173
     0
174
     0
175
     0
176
   251
177
   251
178
   251
179
     1
270
     2
271
     2
272
     2
273
     2
274
     3
340
73
275
     0
280
     0
281
     0
282
     0
283
     0
284
     8
285
     8
286
     0
287
     3
288
     1
  0
DIMSTYLE
105
28C
330
A
100
AcDbSymbolTableRecord
100
AcDbDimStyleTableRecord
  2
ONSHAPE-SKETCHDRIVENDIMST2
 70
     0
  3

  4

  5

  6

  7

 40
1.0
 41
2.5
 42
0.625
 43
3.75
 44
1.25
 45
0.0
 46
0.0
 47
0.0
 48
0.0
140
3.5
141
0.0
142
0.0
143
0.03937
144
1.0
145
0.0
146
1.0
147
0.625
 71
     0
 72
     0
 73
     0
 74
     0
 75
     0
 76
     0
 77
     1
 78
     8
170
     0
171
     3
172
     1
173
     0
174
     0
175
     0
176
   251
177
   251
178
   251
179
     1
270
     2
271
     2
272
     2
273
     2
274
     3
340
73
275
     0
280
     0
281
     0
282
     0
283
     0
284
     8
285
     8
286
     0
287
     3
288
     1
  0
ENDTAB
  0
TABLE
  2
BLOCK_RECORD
  5
1
330
0
100
AcDbSymbolTable
 70
     8
  0
BLOCK_RECORD
  5
1F
330
1
100
AcDbSymbolTableRecord
100
AcDbBlockTableRecord
  2
*MODEL_SPACE
  0
BLOCK_RECORD
  5
1B
330
1
100
AcDbSymbolTableRecord
100
AcDbBlockTableRecord
  2
*PAPER_SPACE
  0
BLOCK_RECORD
  5
16F
330
1
100
AcDbSymbolTableRecord
100
AcDbBlockTableRecord
  2
*D1
  0
BLOCK_RECORD
  5
185
330
1
100
AcDbSymbolTableRecord
100
AcDbBlockTableRecord
  2
*D2
  0
BLOCK_RECORD
  5
197
330
1
100
AcDbSymbolTableRecord
100
AcDbBlockTableRecord
  2
*D3
  0
BLOCK_RECORD
  5
1A8
330
1
100
AcDbSymbolTableRecord
100
AcDbBlockTableRecord
  2
*D4
  0
BLOCK_RECORD
  5
1BA
330
1
100
AcDbSymbolTableRecord
100
AcDbBlockTableRecord
  2
*D5
  0
BLOCK_RECORD
  5
1D6
330
1
100
AcDbSymbolTableRecord
100
AcDbBlockTableRecord
  2
*U6
  0
BLOCK_RECORD
  5
1F4
330
1
100
AcDbSymbolTableRecord
100
AcDbBlockTableRecord
  2
*U7
  0
BLOCK_RECORD
  5
212
330
1
100
AcDbSymbolTableRecord
100
AcDbBlockTableRecord
  2
*U8
  0
ENDTAB
  0
ENDSEC
  0
SECTION
  2
BLOCKS
  0
BLOCK
  5
20
330
1F
100
AcDbEntity
  8
0
100
AcDbBlockBegin
  2
*MODEL_SPACE
 70
     0
 10
0.0
 20
0.0
 30
0.0
  3
*MODEL_SPACE
  1

  0
ENDBLK
  5
21
330
1F
100
AcDbEntity
  8
0
100
AcDbBlockEnd
  0
BLOCK
  5
1C
330
1B
100
AcDbEntity
 67
     1
  8
0
100
AcDbBlockBegin
  2
*PAPER_SPACE
 70
     0
 10
0.0
 20
0.0
 30
0.0
  3
*PAPER_SPACE
  1

  0
ENDBLK
  5
1D
330
1B
100
AcDbEntity
 67
     1
  8
0
100
AcDbBlockEnd
  0
BLOCK
  5
170
330
16F
100
AcDbEntity
  8
0
100
AcDbBlockBegin
  2
*D1
 70
     1
 10
0.0
 20
0.0
 30
0.0
  3
*D1
  1

  0
LINE
  5
171
330
16F
100
AcDbEntity
  8
ANNOTATION_TEXT
 62
     7
100
AcDbLine
 10
66.13519469956236
 20
279.3249428424712
 30
0.0
 11
50.81848499859119
 21
279.3249428424712
 31
0.0
1001
INDEX
1070
     0
  0
LINE
  5
173
330
16F
100
AcDbEntity
  8
ANNOTATION_TEXT
 62
     7
100
AcDbLine
 10
66.13519469956236
 20
214.3249428424712
 30
0.0
 11
50.81848499859119
 21
214.3249428424712
 31
0.0
1001
INDEX
1070
     1
  0
LINE
  5
174
330
16F
100
AcDbEntity
  8
ANNOTATION_TEXT
 62
     7
100
AcDbLine
 10
52.06848499859119
 20
276.8249428424712
 30
0.0
 11
52.06848499859119
 21
216.8249428424712
 31
0.0
1001
INDEX
1070
     3
  0
SOLID
  5
175
330
16F
100
AcDbEntity
  8
ANNOTATION_TEXT
 62
     7
100
AcDbTrace
 10
52.48515166525785
 20
276.8249428424712
 30
0.0
 11
51.65181833192452
 21
276.8249428424712
 31
0.0
 12
52.06848499859119
 22
279.3249428424712
 32
0.0
 13
52.06848499859119
 23
279.3249428424712
 33
0.0
  0
SOLID
  5
176
330
16F
100
AcDbEntity
  8
ANNOTATION_TEXT
 62
     7
100
AcDbTrace
 10
51.65181833192452
 20
216.8249428424712
 30
0.0
 11
52.48515166525785
 21
216.8249428424712
 31
0.0
 12
52.06848499859119
 22
214.3249428424712
 32
0.0
 13
52.06848499859119
 23
214.3249428424712
 33
0.0
  0
MTEXT
  5
177
330
16F
100
AcDbEntity
  8
ANNOTATION_TEXT
 62
     7
100
AcDbMText
 10
49.64937736916339
 20
246.8249428424712
 30
0.0
 40
3.5
 41
0.0
 71
     5
 72
     1
  1
260
  7
ONSHAPE-STANDARD-DIMENSION
 11
1.093142670400154E-16
 21
1.0
 31
0.0
  0
POINT
  5
178
330
16F
100
AcDbEntity
  8
DEFPOINTS
 62
     0
100
AcDbPoint
 10
66.76019469956236
 20
279.3249428424712
 30
0.0
  0
POINT
  5
179
330
16F
100
AcDbEntity
  8
DEFPOINTS
 62
     0
100
AcDbPoint
 10
66.76019469956236
 20
214.3249428424712
 30
0.0
  0
POINT
  5
17A
330
16F
100
AcDbEntity
  8
DEFPOINTS
 62
     0
100
AcDbPoint
 10
52.06848499859119
 20
214.3249428424712
 30
0.0
  0
POINT
  5
17B
330
16F
100
AcDbEntity
  8
DEFPOINTS
 62
     0
100
AcDbPoint
 10
52.06848499859119
 20
214.3249428424712
 30
0.0
  0
ENDBLK
  5
17C
330
16F
100
AcDbEntity
  8
0
100
AcDbBlockEnd
  0
BLOCK
  5
186
330
185
100
AcDbEntity
  8
0
100
AcDbBlockBegin
  2
*D2
 70
     1
 10
0.0
 20
0.0
 30
0.0
  3
*D2
  1

  0
LINE
  5
187
330
185
100
AcDbEntity
  8
ANNOTATION_TEXT
 62
     7
100
AcDbLine
 10
66.76019469956236
 20
213.6999428424712
 30
0.0
 11
66.76019469956236
 21
201.688331541556
 31
0.0
1001
INDEX
1070
     0
  0
LINE
  5
188
330
185
100
AcDbEntity
  8
ANNOTATION_TEXT
 62
     7
100
AcDbLine
 10
130.5101946995624
 20
213.6999428424712
 30
0.0
 11
130.5101946995624
 21
201.688331541556
 31
0.0
1001
INDEX
1070
     1
  0
LINE
  5
189
330
185
100
AcDbEntity
  8
ANNOTATION_TEXT
 62
     7
100
AcDbLine
 10
69.26019469956236
 20
202.938331541556
 30
0.0
 11
128.0101946995624
 21
202.938331541556
 31
0.0
1001
INDEX
1070
     3
  0
SOLID
  5
18A
330
185
100
AcDbEntity
  8
ANNOTATION_TEXT
 62
     7
100
AcDbTrace
 10
69.26019469956236
 20
203.3549982082226
 30
0.0
 11
69.26019469956236
 21
202.5216648748893
 31
0.0
 12
66.76019469956236
 22
202.938331541556
 32
0.0
 13
66.76019469956236
 23
202.938331541556
 33
0.0
  0
SOLID
  5
18B
330
185
100
AcDbEntity
  8
ANNOTATION_TEXT
 62
     7
100
AcDbTrace
 10
128.0101946995624
 20
202.5216648748893
 30
0.0
 11
128.0101946995624
 21
203.3549982082226
 31
0.0
 12
130.5101946995624
 22
202.938331541556
 32
0.0
 13
130.5101946995624
 23
202.938331541556
 33
0.0
  0
MTEXT
  5
18C
330
185
100
AcDbEntity
  8
ANNOTATION_TEXT
 62
     7
100
AcDbMText
 10
98.63519469956236
 20
205.3550549747985
 30
0.0
 40
3.5
 41
0.0
 71
     5
 72
     1
  1
255
  7
ONSHAPE-STANDARD-DIMENSION
  0
POINT
  5
18D
330
185
100
AcDbEntity
  8
DEFPOINTS
 62
     0
100
AcDbPoint
 10
66.76019469956236
 20
214.3249428424712
 30
0.0
  0
POINT
  5
18E
330
185
100
AcDbEntity
  8
DEFPOINTS
 62
     0
100
AcDbPoint
 10
130.5101946995624
 20
214.3249428424712
 30
0.0
  0
POINT
  5
18F
330
185
100
AcDbEntity
  8
DEFPOINTS
 62
     0
100
AcDbPoint
 10
130.5101946995624
 20
202.938331541556
 30
0.0
  0
POINT
  5
190
330
185
100
AcDbEntity
  8
DEFPOINTS
 62
     0
100
AcDbPoint
 10
130.5101946995624
 20
202.938331541556
 30
0.0
  0
ENDBLK
  5
191
330
185
100
AcDbEntity
  8
0
100
AcDbBlockEnd
  0
BLOCK
  5
198
330
197
100
AcDbEntity
  8
0
100
AcDbBlockBegin
  2
*D3
 70
     1
 10
0.0
 20
0.0
 30
0.0
  3
*D3
  1

  0
LINE
  5
199
330
197
100
AcDbEntity
  8
ANNOTATION_TEXT
 62
     7
100
AcDbLine
 10
124.2208830243794
 20
177.0414579865854
 30
0.0
 11
137.9254132920069
 21
188.8306713969233
 31
0.0
1001
INDEX
1070
     3
  0
LINE
  5
19A
330
197
100
AcDbEntity
  8
ANNOTATION_TEXT
 62
     7
100
AcDbLine
 10
73.04950637474532
 20
133.0216872945284
 30
0.0
 11
71.15427020253665
 21
131.3913254170448
 31
0.0
1001
INDEX
1070
     3
  0
MTEXT
  5
19B
330
197
100
AcDbEntity
  8
ANNOTATION_TEXT
 62
     7
100
AcDbMText
 10
131.3906435858085
 20
186.5354591656353
 30
0.0
 40
3.5
 41
0.0
 71
     5
 72
     1
  1
%%c250
  7
ONSHAPE-STANDARD-DIMENSION
 11
0.7580944688834678
 21
0.6521447509934377
 31
0.0
  0
LINE
  5
19C
330
197
100
AcDbEntity
  8
ANNOTATION_TEXT
 62
     7
100
AcDbLine
 10
74.94474254695399
 20
134.652049172012
 30
0.0
 11
122.3256468521707
 21
175.4110961091018
 31
0.0
1001
INDEX
1070
     3
  0
SOLID
  5
19D
330
197
100
AcDbEntity
  8
ANNOTATION_TEXT
 62
     7
100
AcDbTrace
 10
73.32123335432593
 20
132.7058145991602
 30
0.0
 11
72.77777939516471
 21
133.3375599898965
 31
0.0
 12
74.94474254695399
 22
134.652049172012
 32
0.0
 13
74.94474254695399
 23
134.652049172012
 33
0.0
  0
SOLID
  5
19E
330
197
100
AcDbEntity
  8
ANNOTATION_TEXT
 62
     7
100
AcDbTrace
 10
123.9491560447988
 20
177.3573306819536
 30
0.0
 11
124.49261000396
 21
176.7255852912173
 31
0.0
 12
122.3256468521707
 22
175.4110961091018
 32
0.0
 13
122.3256468521707
 23
175.4110961091018
 33
0.0
  0
POINT
  5
19F
330
197
100
AcDbEntity
  8
DEFPOINTS
 62
     0
100
AcDbPoint
 10
122.3256468521707
 20
175.4110961091018
 30
0.0
  0
POINT
  5
1A0
330
197
100
AcDbEntity
  8
DEFPOINTS
 62
     0
100
AcDbPoint
 10
74.94474254695399
 20
134.652049172012
 30
0.0
  0
ENDBLK
  5
1A1
330
197
100
AcDbEntity
  8
0
100
AcDbBlockEnd
  0
BLOCK
  5
1A9
330
1A8
100
AcDbEntity
  8
0
100
AcDbBlockBegin
  2
*D4
 70
     1
 10
0.0
 20
0.0
 30
0.0
  3
*D4
  1

  0
LINE
  5
1AA
330
1A8
100
AcDbEntity
  8
ANNOTATION_TEXT
 62
     7
100
AcDbLine
 10
115.5101946995624
 20
154.4065726405569
 30
0.0
 11
115.5101946995624
 21
135.482859135423
 31
0.0
1001
INDEX
1070
     0
  0
LINE
  5
1AB
330
1A8
100
AcDbEntity
  8
ANNOTATION_TEXT
 62
     7
100
AcDbLine
 10
98.63519469956236
 20
154.4065726405569
 30
0.0
 11
98.63519469956236
 21
135.482859135423
 31
0.0
1001
INDEX
1070
     1
  0
LINE
  5
1AC
330
1A8
100
AcDbEntity
  8
ANNOTATION_TEXT
 62
     7
100
AcDbLine
 10
113.0101946995624
 20
136.732859135423
 30
0.0
 11
101.1351946995624
 21
136.732859135423
 31
0.0
1001
INDEX
1070
     3
  0
SOLID
  5
1AD
330
1A8
100
AcDbEntity
  8
ANNOTATION_TEXT
 62
     7
100
AcDbTrace
 10
113.0101946995624
 20
136.3161924687563
 30
0.0
 11
113.0101946995624
 21
137.1495258020896
 31
0.0
 12
115.5101946995624
 22
136.732859135423
 32
0.0
 13
115.5101946995624
 23
136.732859135423
 33
0.0
  0
SOLID
  5
1AE
330
1A8
100
AcDbEntity
  8
ANNOTATION_TEXT
 62
     7
100
AcDbTrace
 10
101.1351946995624
 20
137.1495258020896
 30
0.0
 11
101.1351946995624
 21
136.3161924687563
 31
0.0
 12
98.63519469956236
 22
136.732859135423
 32
0.0
 13
98.63519469956236
 23
136.732859135423
 33
0.0
  0
MTEXT
  5
1AF
330
1A8
100
AcDbEntity
  8
ANNOTATION_TEXT
 62
     7
100
AcDbMText
 10
106.2879347182713
 20
139.4404545032704
 30
0.0
 40
3.5
 41
0.0
 71
     5
 72
     1
  1
67,5
  7
ONSHAPE-STANDARD-DIMENSION
  0
POINT
  5
1B0
330
1A8
100
AcDbEntity
  8
DEFPOINTS
 62
     0
100
AcDbPoint
 10
115.5101946995624
 20
155.0315726405569
 30
0.0
  0
POINT
  5
1B1
330
1A8
100
AcDbEntity
  8
DEFPOINTS
 62
     0
100
AcDbPoint
 10
98.63519469956236
 20
155.0315726405569
 30
0.0
  0
POINT
  5
1B2
330
1A8
100
AcDbEntity
  8
DEFPOINTS
 62
     0
100
AcDbPoint
 10
98.63519469956236
 20
136.732859135423
 30
0.0
  0
POINT
  5
1B3
330
1A8
100
AcDbEntity
  8
DEFPOINTS
 62
     0
100
AcDbPoint
 10
98.63519469956236
 20
136.732859135423
 30
0.0
  0
ENDBLK
  5
1B4
330
1A8
100
AcDbEntity
  8
0
100
AcDbBlockEnd
  0
BLOCK
  5
1BB
330
1BA
100
AcDbEntity
  8
0
100
AcDbBlockBegin
  2
*D5
 70
     1
 10
0.0
 20
0.0
 30
0.0
  3
*D5
  1

  0
LINE
  5
1BC
330
1BA
100
AcDbEntity
  8
ANNOTATION_TEXT
 62
     7
100
AcDbLine
 10
129.8851946995624
 20
93.77164318888504
 30
0.0
 11
129.8851946995624
 21
102.7446004664644
 31
0.0
1001
INDEX
1070
     0
  0
LINE
  5
1BD
330
1BA
100
AcDbEntity
  8
ANNOTATION_TEXT
 62
     7
100
AcDbLine
 10
130.5101946995624
 20
94.39664318888504
 30
0.0
 11
130.5101946995624
 21
102.7446004664644
 31
0.0
1001
INDEX
1070
     1
  0
LINE
  5
1BE
330
1BA
100
AcDbEntity
  8
ANNOTATION_TEXT
 62
     7
100
AcDbLine
 10
129.8851946995624
 20
101.4946004664644
 30
0.0
 11
115.8591388412517
 21
101.4946004664644
 31
0.0
  0
LINE
  5
1BF
330
1BA
100
AcDbEntity
  8
ANNOTATION_TEXT
 62
     7
100
AcDbLine
 10
129.8851946995624
 20
101.4946004664644
 30
0.0
 11
130.5101946995624
 21
101.4946004664644
 31
0.0
1001
INDEX
1070
     3
  0
LINE
  5
1C0
330
1BA
100
AcDbEntity
  8
ANNOTATION_TEXT
 62
     7
100
AcDbLine
 10
127.3851946995624
 20
101.4946004664644
 30
0.0
 11
124.8851946995624
 21
101.4946004664644
 31
0.0
1001
INDEX
1070
     3
  0
LINE
  5
1C1
330
1BA
100
AcDbEntity
  8
ANNOTATION_TEXT
 62
     7
100
AcDbLine
 10
133.0101946995624
 20
101.4946004664644
 30
0.0
 11
135.5101946995624
 21
101.4946004664644
 31
0.0
1001
INDEX
1070
     3
  0
SOLID
  5
1C2
330
1BA
100
AcDbEntity
  8
ANNOTATION_TEXT
 62
     7
100
AcDbTrace
 10
127.3851946995624
 20
101.0779337997977
 30
0.0
 11
127.3851946995624
 21
101.9112671331311
 31
0.0
 12
129.8851946995624
 22
101.4946004664644
 32
0.0
 13
129.8851946995624
 23
101.4946004664644
 33
0.0
  0
SOLID
  5
1C3
330
1BA
100
AcDbEntity
  8
ANNOTATION_TEXT
 62
     7
100
AcDbTrace
 10
133.0101946995624
 20
101.9112671331311
 30
0.0
 11
133.0101946995624
 21
101.0779337997977
 31
0.0
 12
130.5101946995624
 22
101.4946004664644
 32
0.0
 13
130.5101946995624
 23
101.4946004664644
 33
0.0
  0
MTEXT
  5
1C4
330
1BA
100
AcDbEntity
  8
ANNOTATION_TEXT
 62
     7
100
AcDbMText
 10
119.6753854352572
 20
104.2021958343118
 30
0.0
 40
3.5
 41
0.0
 71
     5
 72
     1
  1
2,5
  7
ONSHAPE-STANDARD-DIMENSION
  0
POINT
  5
1C5
330
1BA
100
AcDbEntity
  8
DEFPOINTS
 62
     0
100
AcDbPoint
 10
129.8851946995624
 20
93.14664318888504
 30
0.0
  0
POINT
  5
1C6
330
1BA
100
AcDbEntity
  8
DEFPOINTS
 62
     0
100
AcDbPoint
 10
130.5101946995624
 20
93.77164318888504
 30
0.0
  0
POINT
  5
1C7
330
1BA
100
AcDbEntity
  8
DEFPOINTS
 62
     0
100
AcDbPoint
 10
130.5101946995624
 20
101.4946004664644
 30
0.0
  0
POINT
  5
1C8
330
1BA
100
AcDbEntity
  8
DEFPOINTS
 62
     0
100
AcDbPoint
 10
130.5101946995624
 20
101.4946004664644
 30
0.0
  0
ENDBLK
  5
1C9
330
1BA
100
AcDbEntity
  8
0
100
AcDbBlockEnd
  0
BLOCK
  5
1DA
330
1D6
100
AcDbEntity
  8
0
100
AcDbBlockBegin
  2
*U6
 70
     3
 10
-2.5
 20
-4.964237057220709
 30
0.0
  3
*U6
  1

  0
MTEXT
  5
1E2
330
1D6
100
AcDbEntity
  8
ANNOTATION_TEXT
 62
     0
100
AcDbMText
 10
0.0
 20
-3.7574931880109
 30
0.0
 40
3.5
 41
0.0
 71
     7
 72
     1
  1
G 1/4 Gewinde
  7
ONSHAPE-STANDARD-HOLE-CALL
  0
MTEXT
  5
1E4
330
1D6
100
AcDbEntity
  8
ANNOTATION_TEXT
 62
     0
100
AcDbMText
 10
33.67438692098094
 20
-4.339237057220709
 30
0.0
 40
3.5
 41
0.0
 71
     7
 72
     1
  1
%%c6,76
  7
ONSHAPE-STANDARD-HOLE-CALL
  0
MTEXT
  5
1E5
330
1D6
100
AcDbEntity
  8
ANNOTATION_TEXT
 62
     0
100
AcDbMText
 10
46.8732970027248
 20
-3.7574931880109
 30
0.0
 40
3.5
 41
0.0
 71
     7
 72
     1
  1
 THRU
  7
ONSHAPE-STANDARD-HOLE-CALL
  0
ENDBLK
  5
1E6
330
1D6
100
AcDbEntity
  8
0
100
AcDbBlockEnd
  0
BLOCK
  5
1F8
330
1F4
100
AcDbEntity
  8
0
100
AcDbBlockBegin
  2
*U7
 70
     3
 10
63.13964577656677
 20
-4.964237057220709
 30
0.0
  3
*U7
  1

  0
MTEXT
  5
200
330
1F4
100
AcDbEntity
  8
ANNOTATION_TEXT
 62
     0
100
AcDbMText
 10
0.0
 20
-3.7574931880109
 30
0.0
 40
3.5
 41
0.0
 71
     7
 72
     1
  1
G 1/4 Gewinde
  7
ONSHAPE-STANDARD-HOLE-CALL
  0
MTEXT
  5
202
330
1F4
100
AcDbEntity
  8
ANNOTATION_TEXT
 62
     0
100
AcDbMText
 10
33.67438692098094
 20
-4.339237057220709
 30
0.0
 40
3.5
 41
0.0
 71
     7
 72
     1
  1
%%c6,76
  7
ONSHAPE-STANDARD-HOLE-CALL
  0
MTEXT
  5
203
330
1F4
100
AcDbEntity
  8
ANNOTATION_TEXT
 62
     0
100
AcDbMText
 10
46.8732970027248
 20
-3.7574931880109
 30
0.0
 40
3.5
 41
0.0
 71
     7
 72
     1
  1
 THRU
  7
ONSHAPE-STANDARD-HOLE-CALL
  0
ENDBLK
  5
204
330
1F4
100
AcDbEntity
  8
0
100
AcDbBlockEnd
  0
BLOCK
  5
216
330
212
100
AcDbEntity
  8
0
100
AcDbBlockBegin
  2
*U8
 70
     3
 10
-2.5
 20
-4.964237057220709
 30
0.0
  3
*U8
  1

  0
MTEXT
  5
21E
330
212
100
AcDbEntity
  8
ANNOTATION_TEXT
 62
     0
100
AcDbMText
 10
0.0
 20
-3.7574931880109
 30
0.0
 40
3.5
 41
0.0
 71
     7
 72
     1
  1
G 1/2 Gewinde
  7
ONSHAPE-STANDARD-HOLE-CALL
  0
MTEXT
  5
220
330
212
100
AcDbEntity
  8
ANNOTATION_TEXT
 62
     0
100
AcDbMText
 10
33.67438692098094
 20
-4.339237057220709
 30
0.0
 40
3.5
 41
0.0
 71
     7
 72
     1
  1
%%c13,49
  7
ONSHAPE-STANDARD-HOLE-CALL
  0
MTEXT
  5
221
330
212
100
AcDbEntity
  8
ANNOTATION_TEXT
 62
     0
100
AcDbMText
 10
49.66519073569483
 20
-3.7574931880109
 30
0.0
 40
3.5
 41
0.0
 71
     7
 72
     1
  1
 THRU
  7
ONSHAPE-STANDARD-HOLE-CALL
  0
ENDBLK
  5
222
330
212
100
AcDbEntity
  8
0
100
AcDbBlockEnd
  0
ENDSEC
  0
SECTION
  2
ENTITIES
  0
LINE
  5
76
330
1F
100
AcDbEntity
  8
VISIBLE
100
AcDbLine
 10
66.76019469956236
 20
279.3249428424712
 30
0.0
 11
130.5101946995624
 21
279.3249428424712
 31
0.0
  0
LINE
  5
77
330
1F
100
AcDbEntity
  8
VISIBLE
100
AcDbLine
 10
66.76019469956236
 20
214.3249428424712
 30
0.0
 11
130.5101946995624
 21
214.3249428424712
 31
0.0
  0
LINE
  5
78
330
1F
100
AcDbEntity
  8
VISIBLE
100
AcDbLine
 10
66.76019469956236
 20
279.3249428424712
 30
0.0
 11
66.76019469956236
 21
214.3249428424712
 31
0.0
  0
LINE
  5
79
330
1F
100
AcDbEntity
  8
VISIBLE
100
AcDbLine
 10
130.5101946995624
 20
214.3249428424712
 30
0.0
 11
130.5101946995624
 21
279.3249428424712
 31
0.0
  0
CIRCLE
  5
7C
330
1F
100
AcDbEntity
  8
VISIBLE
100
AcDbCircle
 10
98.63519469956236
 20
155.0315726405569
 30
0.0
 40
31.25
  0
CIRCLE
  5
7D
330
1F
100
AcDbEntity
  8
VISIBLE
100
AcDbCircle
 10
98.63519469956236
 20
155.0315726405569
 30
0.0
 40
31.875
  0
CIRCLE
  5
7E
330
1F
100
AcDbEntity
  8
VISIBLE
100
AcDbCircle
 10
115.5101946995624
 20
155.0315726405569
 30
0.0
 40
0.8445499999999995
  0
CIRCLE
  5
7F
330
1F
100
AcDbEntity
  8
VISIBLE
100
AcDbCircle
 10
81.76019469956236
 20
155.0315726405569
 30
0.0
 40
0.8445499999999995
  0
CIRCLE
  5
80
330
1F
100
AcDbEntity
  8
VISIBLE
100
AcDbCircle
 10
98.63519469956236
 20
155.0315726405569
 30
0.0
 40
1.68656
  0
HATCH
  5
84
330
1F
100
AcDbEntity
  8
VIEW_HATCHES
100
AcDbHatch
 10
0.0
 20
0.0
 30
0.0
210
0.0
220
0.0
230
1.0
  2
ISO02W100
 70
     0
 71
     0
 91
        1
 92
        0
 93
        4
 72
     1
 10
96.94863469956236
 20
93.14664318888504
 11
82.60474469956236
 21
93.14664318888504
 72
     1
 10
96.94863469956236
 20
93.77164318888504
 11
96.94863469956236
 21
93.14664318888504
 72
     1
 10
96.94863469956236
 20
93.77164318888504
 11
82.60474469956236
 21
93.77164318888504
 72
     1
 10
82.60474469956236
 20
93.14664318888504
 11
82.60474469956236
 21
93.77164318888504
 97
        0
 75
     0
 76
     2
 52
0.0
 41
42.02044092606956
 77
     0
 78
     1
 53
45.0
 43
98.63519469956236
 44
28.77164318888504
 45
-3.714117340909064
 46
3.714117340909065
 79
     2
 49
12.60613227782087
 49
-3.151533069455217
 98
        1
 10
98.63519469956236
 20
28.77164318888504
  0
HATCH
  5
85
330
1F
100
AcDbEntity
  8
VIEW_HATCHES
100
AcDbHatch
 10
0.0
 20
0.0
 30
0.0
210
0.0
220
0.0
230
1.0
  2
ISO02W100
 70
     0
 71
     0
 91
        1
 92
        0
 93
        4
 72
     1
 10
114.6656446995624
 20
93.77164318888504
 11
100.3217546995624
 21
93.77164318888504
 72
     1
 10
100.3217546995624
 20
93.14664318888504
 11
100.3217546995624
 21
93.77164318888504
 72
     1
 10
114.6656446995624
 20
93.14664318888504
 11
100.3217546995624
 21
93.14664318888504
 72
     1
 10
114.6656446995624
 20
93.77164318888504
 11
114.6656446995624
 21
93.14664318888504
 97
        0
 75
     0
 76
     2
 52
0.0
 41
42.02044092606956
 77
     0
 78
     1
 53
45.0
 43
98.63519469956236
 44
28.77164318888504
 45
-3.714117340909064
 46
3.714117340909065
 79
     2
 49
12.60613227782087
 49
-3.151533069455217
 98
        1
 10
98.63519469956236
 20
28.77164318888504
  0
HATCH
  5
86
330
1F
100
AcDbEntity
  8
VIEW_HATCHES
100
AcDbHatch
 10
0.0
 20
0.0
 30
0.0
210
0.0
220
0.0
230
1.0
  2
ISO02W100
 70
     0
 71
     0
 91
        1
 92
        0
 93
        6
 72
     1
 10
67.38519469956236
 20
28.77164318888504
 11
66.76019469956236
 21
28.77164318888504
 72
     1
 10
67.38519469956236
 20
28.77164318888504
 11
67.38519469956236
 21
93.14664318888504
 72
     1
 10
80.91564469956236
 20
93.14664318888504
 11
67.38519469956236
 21
93.14664318888504
 72
     1
 10
80.91564469956236
 20
93.77164318888504
 11
80.91564469956236
 21
93.14664318888504
 72
     1
 10
80.91564469956236
 20
93.77164318888504
 11
66.76019469956236
 21
93.77164318888504
 72
     1
 10
66.76019469956236
 20
28.77164318888504
 11
66.76019469956236
 21
93.77164318888504
 97
        0
 75
     0
 76
     2
 52
0.0
 41
42.02044092606956
 77
     0
 78
     1
 53
45.0
 43
98.63519469956236
 44
28.77164318888504
 45
-3.714117340909064
 46
3.714117340909065
 79
     2
 49
12.60613227782087
 49
-3.151533069455217
 98
        1
 10
98.63519469956236
 20
28.77164318888504
  0
HATCH
  5
87
330
1F
100
AcDbEntity
  8
VIEW_HATCHES
100
AcDbHatch
 10
0.0
 20
0.0
 30
0.0
210
0.0
220
0.0
230
1.0
  2
ISO02W100
 70
     0
 71
     0
 91
        1
 92
        0
 93
        6
 72
     1
 10
130.5101946995624
 20
93.77164318888504
 11
116.3547446995624
 21
93.77164318888504
 72
     1
 10
116.3547446995624
 20
93.14664318888504
 11
116.3547446995624
 21
93.77164318888504
 72
     1
 10
129.8851946995624
 20
93.14664318888504
 11
116.3547446995624
 21
93.14664318888504
 72
     1
 10
129.8851946995624
 20
93.14664318888504
 11
129.8851946995624
 21
28.77164318888504
 72
     1
 10
130.5101946995624
 20
28.77164318888504
 11
129.8851946995624
 21
28.77164318888504
 72
     1
 10
130.5101946995624
 20
93.77164318888504
 11
130.5101946995624
 21
28.77164318888504
 97
        0
 75
     0
 76
     2
 52
0.0
 41
42.02044092606956
 77
     0
 78
     1
 53
45.0
 43
98.63519469956236
 44
28.77164318888504
 45
-3.714117340909064
 46
3.714117340909065
 79
     2
 49
12.60613227782087
 49
-3.151533069455217
 98
        1
 10
98.63519469956236
 20
28.77164318888504
  0
LINE
  5
88
330
1F
100
AcDbEntity
  8
VISIBLE
100
AcDbLine
 10
116.3547446995624
 20
93.14664318888504
 30
0.0
 11
116.3547446995624
 21
93.77164318888504
 31
0.0
  0
LINE
  5
89
330
1F
100
AcDbEntity
  8
VISIBLE
100
AcDbLine
 10
116.3547446995624
 20
93.14664318888504
 30
0.0
 11
114.6656446995624
 21
93.14664318888504
 31
0.0
  0
LINE
  5
8A
330
1F
100
AcDbEntity
  8
VISIBLE
100
AcDbLine
 10
114.6656446995624
 20
93.77164318888504
 30
0.0
 11
114.6656446995624
 21
93.14664318888504
 31
0.0
  0
LINE
  5
8B
330
1F
100
AcDbEntity
  8
VISIBLE
100
AcDbLine
 10
114.6656446995624
 20
93.77164318888504
 30
0.0
 11
116.3547446995624
 21
93.77164318888504
 31
0.0
  0
LINE
  5
8C
330
1F
100
AcDbEntity
  8
VISIBLE
100
AcDbLine
 10
130.5101946995624
 20
93.77164318888504
 30
0.0
 11
130.5101946995624
 21
28.77164318888504
 31
0.0
  0
LINE
  5
8D
330
1F
100
AcDbEntity
  8
VISIBLE
100
AcDbLine
 10
130.5101946995624
 20
28.77164318888504
 30
0.0
 11
129.8851946995624
 21
28.77164318888504
 31
0.0
  0
LINE
  5
8E
330
1F
100
AcDbEntity
  8
VISIBLE
100
AcDbLine
 10
129.8851946995624
 20
93.14664318888504
 30
0.0
 11
129.8851946995624
 21
28.77164318888504
 31
0.0
  0
LINE
  5
8F
330
1F
100
AcDbEntity
  8
VISIBLE
100
AcDbLine
 10
129.8851946995624
 20
93.14664318888504
 30
0.0
 11
116.3547446995624
 21
93.14664318888504
 31
0.0
  0
LINE
  5
90
330
1F
100
AcDbEntity
  8
VISIBLE
100
AcDbLine
 10
130.5101946995624
 20
93.77164318888504
 30
0.0
 11
116.3547446995624
 21
93.77164318888504
 31
0.0
  0
LINE
  5
91
330
1F
100
AcDbEntity
  8
VISIBLE
100
AcDbLine
 10
66.76019469956236
 20
28.77164318888504
 30
0.0
 11
66.76019469956236
 21
93.77164318888504
 31
0.0
  0
LINE
  5
92
330
1F
100
AcDbEntity
  8
VISIBLE
100
AcDbLine
 10
80.91564469956236
 20
93.77164318888504
 30
0.0
 11
80.91564469956236
 21
93.14664318888504
 31
0.0
  0
LINE
  5
93
330
1F
100
AcDbEntity
  8
VISIBLE
100
AcDbLine
 10
80.91564469956236
 20
93.14664318888504
 30
0.0
 11
67.38519469956236
 21
93.14664318888504
 31
0.0
  0
LINE
  5
94
330
1F
100
AcDbEntity
  8
VISIBLE
100
AcDbLine
 10
67.38519469956236
 20
28.77164318888504
 30
0.0
 11
67.38519469956236
 21
93.14664318888504
 31
0.0
  0
LINE
  5
95
330
1F
100
AcDbEntity
  8
VISIBLE
100
AcDbLine
 10
67.38519469956236
 20
28.77164318888504
 30
0.0
 11
66.76019469956236
 21
28.77164318888504
 31
0.0
  0
LINE
  5
96
330
1F
100
AcDbEntity
  8
VISIBLE
100
AcDbLine
 10
80.91564469956236
 20
93.77164318888504
 30
0.0
 11
66.76019469956236
 21
93.77164318888504
 31
0.0
  0
LINE
  5
97
330
1F
100
AcDbEntity
  8
VISIBLE
100
AcDbLine
 10
100.3217546995624
 20
93.14664318888504
 30
0.0
 11
100.3217546995624
 21
93.77164318888504
 31
0.0
  0
LINE
  5
98
330
1F
100
AcDbEntity
  8
VISIBLE
100
AcDbLine
 10
100.3217546995624
 20
93.14664318888504
 30
0.0
 11
96.94863469956236
 21
93.14664318888504
 31
0.0
  0
LINE
  5
99
330
1F
100
AcDbEntity
  8
VISIBLE
100
AcDbLine
 10
96.94863469956236
 20
93.77164318888504
 30
0.0
 11
96.94863469956236
 21
93.14664318888504
 31
0.0
  0
LINE
  5
9A
330
1F
100
AcDbEntity
  8
VISIBLE
100
AcDbLine
 10
82.60474469956236
 20
93.14664318888504
 30
0.0
 11
80.91564469956236
 21
93.14664318888504
 31
0.0
  0
LINE
  5
9B
330
1F
100
AcDbEntity
  8
VISIBLE
100
AcDbLine
 10
96.94863469956236
 20
93.77164318888504
 30
0.0
 11
100.3217546995624
 21
93.77164318888504
 31
0.0
  0
LINE
  5
9C
330
1F
100
AcDbEntity
  8
VISIBLE
100
AcDbLine
 10
114.6656446995624
 20
93.14664318888504
 30
0.0
 11
100.3217546995624
 21
93.14664318888504
 31
0.0
  0
LINE
  5
9D
330
1F
100
AcDbEntity
  8
VISIBLE
100
AcDbLine
 10
114.6656446995624
 20
93.77164318888504
 30
0.0
 11
100.3217546995624
 21
93.77164318888504
 31
0.0
  0
LINE
  5
9E
330
1F
100
AcDbEntity
  8
VISIBLE
100
AcDbLine
 10
82.60474469956236
 20
93.14664318888504
 30
0.0
 11
82.60474469956236
 21
93.77164318888504
 31
0.0
  0
LINE
  5
9F
330
1F
100
AcDbEntity
  8
VISIBLE
100
AcDbLine
 10
96.94863469956236
 20
93.14664318888504
 30
0.0
 11
82.60474469956236
 21
93.14664318888504
 31
0.0
  0
LINE
  5
A0
330
1F
100
AcDbEntity
  8
VISIBLE
100
AcDbLine
 10
96.94863469956236
 20
93.77164318888504
 30
0.0
 11
82.60474469956236
 21
93.77164318888504
 31
0.0
  0
LINE
  5
A1
330
1F
100
AcDbEntity
  8
VISIBLE
100
AcDbLine
 10
80.91564469956236
 20
93.77164318888504
 30
0.0
 11
82.60474469956236
 21
93.77164318888504
 31
0.0
  0
LINE
  5
A2
330
1F
100
AcDbEntity
  8
VISIBLE
100
AcDbLine
 10
129.8851946995624
 20
28.77164318888504
 30
0.0
 11
67.38519469956236
 21
28.77164318888504
 31
0.0
  0
LINE
  5
A5
330
1F
100
AcDbEntity
  8
VISIBLE
100
AcDbLine
 10
306.9114709231198
 20
223.5912892488127
 30
0.0
 11
306.9114709231198
 21
170.5190114885105
 31
0.0
  0
LINE
  5
A6
330
1F
100
AcDbEntity
  8
VISIBLE
100
AcDbLine
 10
370.6614709231198
 20
170.5190114885105
 30
0.0
 11
370.6614709231198
 21
223.5912892488127
 31
0.0
  0
ELLIPSE
  5
A7
330
1F
100
AcDbEntity
  8
VISIBLE
100
AcDbEllipse
 10
338.7864709231198
 20
223.5912892488127
 30
0.0
 11
-31.24999999999999
 21
0.0
 31
0.0
210
0.0
220
0.0
230
1.0
 40
0.577350269189626
 41
0.0
 42
6.283185307179586
  0
ELLIPSE
  5
A8
330
1F
100
AcDbEntity
  8
VISIBLE
100
AcDbEllipse
 10
338.7864709231198
 20
223.5912892488127
 30
0.0
 11
-31.875
 21
0.0
 31
0.0
210
0.0
220
0.0
230
1.0
 40
0.577350269189626
 41
0.0
 42
6.283185307179586
  0
ELLIPSE
  5
A9
330
1F
100
AcDbEntity
  8
VISIBLE
100
AcDbEllipse
 10
338.7864709231198
 20
170.5190114885105
 30
0.0
 11
-31.875
 21
0.0
 31
0.0
210
0.0
220
0.0
230
1.0
 40
0.577350269189626
 41
0.0000000000000004
 42
3.141592653589793
  0
LINE
  5
AA
330
1F
100
AcDbEntity
  8
BORDER_FRAME
100
AcDbLine
 10
10.5
 20
10.0
 30
0.0
 11
10.5
 21
287.0
 31
0.0
  0
LINE
  5
AD
330
1F
100
AcDbEntity
  8
BORDER_FRAME
100
AcDbLine
 10
10.5
 20
287.0
 30
0.0
 11
410.5
 21
287.0
 31
0.0
  0
LINE
  5
AE
330
1F
100
AcDbEntity
  8
BORDER_FRAME
100
AcDbLine
 10
410.5
 20
287.0
 30
0.0
 11
410.5
 21
10.0
 31
0.0
  0
LINE
  5
AF
330
1F
100
AcDbEntity
  8
BORDER_FRAME
100
AcDbLine
 10
410.5
 20
10.0
 30
0.0
 11
10.5
 21
10.0
 31
0.0
  0
LINE
  5
B0
330
1F
100
AcDbEntity
  8
BORDER_ZONES
100
AcDbLine
 10
70.5
 20
10.0
 30
0.0
 11
70.5
 21
0.5
 31
0.0
  0
LINE
  5
B2
330
1F
100
AcDbEntity
  8
BORDER_ZONES
100
AcDbLine
 10
70.5
 20
287.0
 30
0.0
 11
70.5
 21
296.5
 31
0.0
  0
MTEXT
  5
B3
330
1F
100
AcDbEntity
  8
BORDER_ZONES
100
AcDbMText
 10
35.5
 20
5.0
 30
0.0
 40
6.0
 41
0.0
 71
     5
 72
     1
  1
6
  7
ONSHAPE-STANDARD
  0
MTEXT
  5
B5
330
1F
100
AcDbEntity
  8
BORDER_ZONES
100
AcDbMText
 10
35.5
 20
292.0
 30
0.0
 40
6.0
 41
0.0
 71
     5
 72
     1
  1
6
  7
ONSHAPE-STANDARD
  0
MTEXT
  5
B6
330
1F
100
AcDbEntity
  8
BORDER_ZONES
100
AcDbMText
 10
105.5
 20
5.0
 30
0.0
 40
6.0
 41
0.0
 71
     5
 72
     1
  1
5
  7
ONSHAPE-STANDARD
  0
MTEXT
  5
B7
330
1F
100
AcDbEntity
  8
BORDER_ZONES
100
AcDbMText
 10
105.5
 20
292.0
 30
0.0
 40
6.0
 41
0.0
 71
     5
 72
     1
  1
5
  7
ONSHAPE-STANDARD
  0
LINE
  5
B8
330
1F
100
AcDbEntity
  8
BORDER_ZONES
100
AcDbLine
 10
140.5
 20
10.0
 30
0.0
 11
140.5
 21
0.5
 31
0.0
  0
LINE
  5
B9
330
1F
100
AcDbEntity
  8
BORDER_ZONES
100
AcDbLine
 10
140.5
 20
287.0
 30
0.0
 11
140.5
 21
296.5
 31
0.0
  0
MTEXT
  5
BA
330
1F
100
AcDbEntity
  8
BORDER_ZONES
100
AcDbMText
 10
175.5
 20
5.0
 30
0.0
 40
6.0
 41
0.0
 71
     5
 72
     1
  1
4
  7
ONSHAPE-STANDARD
  0
MTEXT
  5
BB
330
1F
100
AcDbEntity
  8
BORDER_ZONES
100
AcDbMText
 10
175.5
 20
292.0
 30
0.0
 40
6.0
 41
0.0
 71
     5
 72
     1
  1
4
  7
ONSHAPE-STANDARD
  0
LINE
  5
BC
330
1F
100
AcDbEntity
  8
BORDER_ZONES
100
AcDbLine
 10
210.5
 20
10.0
 30
0.0
 11
210.5
 21
0.5
 31
0.0
  0
LINE
  5
BD
330
1F
100
AcDbEntity
  8
BORDER_ZONES
100
AcDbLine
 10
210.5
 20
287.0
 30
0.0
 11
210.5
 21
296.5
 31
0.0
  0
MTEXT
  5
BE
330
1F
100
AcDbEntity
  8
BORDER_ZONES
100
AcDbMText
 10
245.5
 20
5.0
 30
0.0
 40
6.0
 41
0.0
 71
     5
 72
     1
  1
3
  7
ONSHAPE-STANDARD
  0
MTEXT
  5
BF
330
1F
100
AcDbEntity
  8
BORDER_ZONES
100
AcDbMText
 10
245.5
 20
292.0
 30
0.0
 40
6.0
 41
0.0
 71
     5
 72
     1
  1
3
  7
ONSHAPE-STANDARD
  0
LINE
  5
C0
330
1F
100
AcDbEntity
  8
BORDER_ZONES
100
AcDbLine
 10
280.5
 20
10.0
 30
0.0
 11
280.5
 21
0.5
 31
0.0
  0
LINE
  5
C1
330
1F
100
AcDbEntity
  8
BORDER_ZONES
100
AcDbLine
 10
280.5
 20
287.0
 30
0.0
 11
280.5
 21
296.5
 31
0.0
  0
MTEXT
  5
C2
330
1F
100
AcDbEntity
  8
BORDER_ZONES
100
AcDbMText
 10
315.5
 20
5.0
 30
0.0
 40
6.0
 41
0.0
 71
     5
 72
     1
  1
2
  7
ONSHAPE-STANDARD
  0
MTEXT
  5
C3
330
1F
100
AcDbEntity
  8
BORDER_ZONES
100
AcDbMText
 10
315.5
 20
292.0
 30
0.0
 40
6.0
 41
0.0
 71
     5
 72
     1
  1
2
  7
ONSHAPE-STANDARD
  0
LINE
  5
C4
330
1F
100
AcDbEntity
  8
BORDER_ZONES
100
AcDbLine
 10
350.5
 20
10.0
 30
0.0
 11
350.5
 21
0.5
 31
0.0
  0
LINE
  5
C5
330
1F
100
AcDbEntity
  8
BORDER_ZONES
100
AcDbLine
 10
350.5
 20
287.0
 30
0.0
 11
350.5
 21
296.5
 31
0.0
  0
MTEXT
  5
C6
330
1F
100
AcDbEntity
  8
BORDER_ZONES
100
AcDbMText
 10
385.5
 20
5.0
 30
0.0
 40
6.0
 41
0.0
 71
     5
 72
     1
  1
1
  7
ONSHAPE-STANDARD
  0
MTEXT
  5
C7
330
1F
100
AcDbEntity
  8
BORDER_ZONES
100
AcDbMText
 10
385.5
 20
292.0
 30
0.0
 40
6.0
 41
0.0
 71
     5
 72
     1
  1
1
  7
ONSHAPE-STANDARD
  0
LINE
  5
C8
330
1F
100
AcDbEntity
  8
BORDER_ZONES
100
AcDbLine
 10
10.5
 20
74.5
 30
0.0
 11
1.0
 21
74.5
 31
0.0
  0
LINE
  5
C9
330
1F
100
AcDbEntity
  8
BORDER_ZONES
100
AcDbLine
 10
410.5
 20
74.5
 30
0.0
 11
420.0
 21
74.5
 31
0.0
  0
MTEXT
  5
CA
330
1F
100
AcDbEntity
  8
BORDER_ZONES
100
AcDbMText
 10
5.5
 20
37.5
 30
0.0
 40
6.0
 41
0.0
 71
     5
 72
     1
  1
A
  7
ONSHAPE-STANDARD
  0
MTEXT
  5
CB
330
1F
100
AcDbEntity
  8
BORDER_ZONES
100
AcDbMText
 10
415.5
 20
37.5
 30
0.0
 40
6.0
 41
0.0
 71
     5
 72
     1
  1
A
  7
ONSHAPE-STANDARD
  0
MTEXT
  5
CC
330
1F
100
AcDbEntity
  8
BORDER_ZONES
100
AcDbMText
 10
5.5
 20
111.5
 30
0.0
 40
6.0
 41
0.0
 71
     5
 72
     1
  1
B
  7
ONSHAPE-STANDARD
  0
MTEXT
  5
CD
330
1F
100
AcDbEntity
  8
BORDER_ZONES
100
AcDbMText
 10
415.5
 20
111.5
 30
0.0
 40
6.0
 41
0.0
 71
     5
 72
     1
  1
B
  7
ONSHAPE-STANDARD
  0
LINE
  5
CE
330
1F
100
AcDbEntity
  8
BORDER_ZONES
100
AcDbLine
 10
10.5
 20
148.5
 30
0.0
 11
1.0
 21
148.5
 31
0.0
  0
LINE
  5
CF
330
1F
100
AcDbEntity
  8
BORDER_ZONES
100
AcDbLine
 10
410.5
 20
148.5
 30
0.0
 11
420.0
 21
148.5
 31
0.0
  0
MTEXT
  5
D0
330
1F
100
AcDbEntity
  8
BORDER_ZONES
100
AcDbMText
 10
5.5
 20
185.5
 30
0.0
 40
6.0
 41
0.0
 71
     5
 72
     1
  1
C
  7
ONSHAPE-STANDARD
  0
MTEXT
  5
D1
330
1F
100
AcDbEntity
  8
BORDER_ZONES
100
AcDbMText
 10
415.5
 20
185.5
 30
0.0
 40
6.0
 41
0.0
 71
     5
 72
     1
  1
C
  7
ONSHAPE-STANDARD
  0
LINE
  5
D2
330
1F
100
AcDbEntity
  8
BORDER_ZONES
100
AcDbLine
 10
10.5
 20
222.5
 30
0.0
 11
1.0
 21
222.5
 31
0.0
  0
LINE
  5
D3
330
1F
100
AcDbEntity
  8
BORDER_ZONES
100
AcDbLine
 10
410.5
 20
222.5
 30
0.0
 11
420.0
 21
222.5
 31
0.0
  0
MTEXT
  5
D4
330
1F
100
AcDbEntity
  8
BORDER_ZONES
100
AcDbMText
 10
5.5
 20
259.5
 30
0.0
 40
6.0
 41
0.0
 71
     5
 72
     1
  1
D
  7
ONSHAPE-STANDARD
  0
MTEXT
  5
D5
330
1F
100
AcDbEntity
  8
BORDER_ZONES
100
AcDbMText
 10
415.5
 20
259.5
 30
0.0
 40
6.0
 41
0.0
 71
     5
 72
     1
  1
D
  7
ONSHAPE-STANDARD
  0
LINE
  5
D6
330
1F
100
AcDbEntity
  8
TITLE_BLOCK
100
AcDbLine
 10
194.6
 20
10.0
 30
0.0
 11
194.6
 21
60.8
 31
0.0
  0
LINE
  5
D8
330
1F
100
AcDbEntity
  8
TITLE_BLOCK
100
AcDbLine
 10
194.6
 20
10.0
 30
0.0
 11
235.24
 21
10.0
 31
0.0
  0
LINE
  5
D9
330
1F
100
AcDbEntity
  8
TITLE_BLOCK
100
AcDbLine
 10
194.6
 20
20.16
 30
0.0
 11
235.24
 21
20.16
 31
0.0
  0
LINE
  5
DA
330
1F
100
AcDbEntity
  8
TITLE_BLOCK
100
AcDbLine
 10
194.6
 20
24.224
 30
0.0
 11
235.24
 21
24.224
 31
0.0
  0
LINE
  5
DB
330
1F
100
AcDbEntity
  8
TITLE_BLOCK
100
AcDbLine
 10
194.6
 20
31.1328
 30
0.0
 11
235.24
 21
31.1328
 31
0.0
  0
LINE
  5
DC
330
1F
100
AcDbEntity
  8
TITLE_BLOCK
100
AcDbLine
 10
194.6
 20
37.0256
 30
0.0
 11
235.24
 21
37.0256
 31
0.0
  0
LINE
  5
DD
330
1F
100
AcDbEntity
  8
TITLE_BLOCK
100
AcDbLine
 10
194.6
 20
60.8
 30
0.0
 11
235.24
 21
60.8
 31
0.0
  0
MTEXT
  5
DE
330
1F
100
AcDbEntity
  8
TITLE_BLOCK
100
AcDbMText
 10
195.49408
 20
59.33696
 30
0.0
 40
1.6256
 41
39.82720000000001
 71
     1
 72
     1
  1
UNLESS OTHERWISE SPECIFIED, DIMENSIONS ARE IN MILLIMETERS
  7
ONSHAPE-STANDARD
  0
MTEXT
  5
DF
330
1F
100
AcDbEntity
  8
TITLE_BLOCK
100
AcDbMText
 10
215.724672
 20
53.38726400000001
 30
0.0
 40
1.46304
 41
19.91360000000002
 71
     1
 72
     1
  1
^JANGULAR = ± °^J
  7
ONSHAPE-STANDARD
  0
MTEXT
  5
E0
330
1F
100
AcDbEntity
  8
TITLE_BLOCK
100
AcDbMText
 10
195.49408
 20
43.48736
 30
0.0
 40
1.6256
 41
19.91359999999999
 71
     1
 72
     1
  1
SURFACE FINISH
  7
ONSHAPE-STANDARD
  0
LINE
  5
E1
330
1F
100
AcDbEntity
  8
TITLE_BLOCK
100
AcDbLine
 10
212.888
 20
41.0896
 30
0.0
 11
213.904
 21
39.32983637951002
 31
0.0
  0
LINE
  5
E2
330
1F
100
AcDbEntity
  8
TITLE_BLOCK
100
AcDbLine
 10
213.904
 20
39.32983637951002
 30
0.0
 11
216.0376
 21
43.02533998253897
 31
0.0
  0
LINE
  5
E3
330
1F
100
AcDbEntity
  8
TITLE_BLOCK
100
AcDbLine
 10
216.0376
 20
43.02533998253897
 30
0.0
 11
218.2728
 21
43.02533998253897
 31
0.0
  0
MTEXT
  5
E4
330
1F
100
AcDbEntity
  8
TITLE_BLOCK
100
AcDbMText
 10
214.92
 20
35.123648
 30
0.0
 40
2.11328
 41
39.82720000000001
 71
     2
 72
     1
  1
DO NOT SCALE DRAWING
  7
ONSHAPE-STANDARD
  0
MTEXT
  5
E5
330
1F
100
AcDbEntity
  8
TITLE_BLOCK
100
AcDbMText
 10
214.92
 20
29.66976
 30
0.0
 40
1.6256
 41
39.82720000000001
 71
     2
 72
     1
  1
BREAK ALL SHARP EDGES AND REMOVE BURRS
  7
ONSHAPE-STANDARD
  0
CIRCLE
  5
E6
330
1F
100
AcDbEntity
  8
TITLE_BLOCK
100
AcDbCircle
 10
219.492
 20
15.03936
 30
0.0
 40
1.8288
  0
CIRCLE
  5
E7
330
1F
100
AcDbEntity
  8
TITLE_BLOCK
100
AcDbCircle
 10
219.492
 20
15.03936
 30
0.0
 40
3.6576
  0
LINE
  5
E8
330
1F
100
AcDbEntity
  8
TITLE_BLOCK
100
AcDbLine
 10
220.4064
 20
15.03936
 30
0.0
 11
218.5776
 21
15.03936
 31
0.0
  0
LINE
  5
E9
330
1F
100
AcDbEntity
  8
TITLE_BLOCK
100
AcDbLine
 10
219.492
 20
15.95376
 30
0.0
 11
219.492
 21
14.12496
 31
0.0
  0
LINE
  5
EA
330
1F
100
AcDbEntity
  8
TITLE_BLOCK
100
AcDbLine
 10
221.3208
 20
15.03936
 30
0.0
 11
224.064
 21
15.03936
 31
0.0
  0
LINE
  5
EB
330
1F
100
AcDbEntity
  8
TITLE_BLOCK
100
AcDbLine
 10
219.492
 20
16.86816
 30
0.0
 11
219.492
 21
19.61136
 31
0.0
  0
LINE
  5
EC
330
1F
100
AcDbEntity
  8
TITLE_BLOCK
100
AcDbLine
 10
217.6632
 20
15.03936
 30
0.0
 11
214.92
 21
15.03936
 31
0.0
  0
LINE
  5
ED
330
1F
100
AcDbEntity
  8
TITLE_BLOCK
100
AcDbLine
 10
219.492
 20
13.21056
 30
0.0
 11
219.492
 21
10.46736
 31
0.0
  0
LINE
  5
EE
330
1F
100
AcDbEntity
  8
TITLE_BLOCK
100
AcDbLine
 10
214.0056
 20
11.38176
 30
0.0
 11
214.0056
 21
18.69696
 31
0.0
  0
LINE
  5
EF
330
1F
100
AcDbEntity
  8
TITLE_BLOCK
100
AcDbLine
 10
214.0056
 20
18.69696
 30
0.0
 11
206.6904
 21
16.86816
 31
0.0
  0
LINE
  5
F0
330
1F
100
AcDbEntity
  8
TITLE_BLOCK
100
AcDbLine
 10
206.6904
 20
16.86816
 30
0.0
 11
206.6904
 21
13.21056
 31
0.0
  0
LINE
  5
F1
330
1F
100
AcDbEntity
  8
TITLE_BLOCK
100
AcDbLine
 10
206.6904
 20
13.21056
 30
0.0
 11
214.0056
 21
11.38176
 31
0.0
  0
LINE
  5
F2
330
1F
100
AcDbEntity
  8
TITLE_BLOCK
100
AcDbLine
 10
211.2624
 20
15.03936
 30
0.0
 11
214.4628
 21
15.03936
 31
0.0
  0
LINE
  5
F3
330
1F
100
AcDbEntity
  8
TITLE_BLOCK
100
AcDbLine
 10
210.71376
 20
15.03936
 30
0.0
 11
209.98224
 21
15.03936
 31
0.0
  0
LINE
  5
F4
330
1F
100
AcDbEntity
  8
TITLE_BLOCK
100
AcDbLine
 10
209.4336
 20
15.03936
 30
0.0
 11
206.2332
 21
15.03936
 31
0.0
  0
MTEXT
  5
F5
330
1F
100
AcDbEntity
  8
TITLE_BLOCK
100
AcDbMText
 10
214.92
 20
22.76096
 30
0.0
 40
1.6256
 41
39.82720000000001
 71
     2
 72
     1
  1
FIRST ANGLE PROJECTION
  7
ONSHAPE-STANDARD
  0
LINE
  5
F6
330
1F
100
AcDbEntity
  8
TITLE_BLOCK
100
AcDbLine
 10
235.24
 20
10.0
 30
0.0
 11
235.24
 21
60.8
 31
0.0
  0
LINE
  5
F7
330
1F
100
AcDbEntity
  8
TITLE_BLOCK
100
AcDbLine
 10
253.02
 20
24.224
 30
0.0
 11
253.02
 21
60.8
 31
0.0
  0
LINE
  5
F8
330
1F
100
AcDbEntity
  8
TITLE_BLOCK
100
AcDbLine
 10
273.34
 20
24.224
 30
0.0
 11
273.34
 21
60.8
 31
0.0
  0
LINE
  5
F9
330
1F
100
AcDbEntity
  8
TITLE_BLOCK
100
AcDbLine
 10
270.8
 20
10.0
 30
0.0
 11
270.8
 21
24.224
 31
0.0
  0
MTEXT
  5
FA
330
1F
100
AcDbEntity
  8
TITLE_BLOCK
100
AcDbMText
 10
283.5
 20
59.33696
 30
0.0
 40
1.6256
 41
19.91359999999994
 71
     2
 72
     1
  1
SIGNATURE
  7
ONSHAPE-STANDARD
  0
LINE
  5
FB
330
1F
100
AcDbEntity
  8
TITLE_BLOCK
100
AcDbLine
 10
293.66
 20
24.224
 30
0.0
 11
293.66
 21
60.8
 31
0.0
  0
LINE
  5
FC
330
1F
100
AcDbEntity
  8
TITLE_BLOCK
100
AcDbLine
 10
235.24
 20
60.8
 30
0.0
 11
306.36
 21
60.8
 31
0.0
  0
LINE
  5
FD
330
1F
100
AcDbEntity
  8
TITLE_BLOCK
100
AcDbLine
 10
235.24
 20
54.70400000000001
 30
0.0
 11
306.36
 21
54.70400000000001
 31
0.0
  0
LINE
  5
FE
330
1F
100
AcDbEntity
  8
TITLE_BLOCK
100
AcDbLine
 10
235.24
 20
48.608
 30
0.0
 11
306.36
 21
48.608
 31
0.0
  0
LINE
  5
FF
330
1F
100
AcDbEntity
  8
TITLE_BLOCK
100
AcDbLine
 10
235.24
 20
42.512
 30
0.0
 11
306.36
 21
42.512
 31
0.0
  0
LINE
  5
100
330
1F
100
AcDbEntity
  8
TITLE_BLOCK
100
AcDbLine
 10
235.24
 20
36.416
 30
0.0
 11
306.36
 21
36.416
 31
0.0
  0
LINE
  5
101
330
1F
100
AcDbEntity
  8
TITLE_BLOCK
100
AcDbLine
 10
235.24
 20
30.32
 30
0.0
 11
306.36
 21
30.32
 31
0.0
  0
LINE
  5
102
330
1F
100
AcDbEntity
  8
TITLE_BLOCK
100
AcDbLine
 10
235.24
 20
24.224
 30
0.0
 11
306.36
 21
24.224
 31
0.0
  0
MTEXT
  5
103
330
1F
100
AcDbEntity
  8
TITLE_BLOCK
100
AcDbMText
 10
253.91408
 20
59.33696
 30
0.0
 40
1.6256
 41
19.91360000000002
 71
     1
 72
     1
  1
NAME
  7
ONSHAPE-STANDARD
  0
MTEXT
  5
104
330
1F
100
AcDbEntity
  8
TITLE_BLOCK
100
AcDbMText
 10
300.01
 20
59.33696
 30
0.0
 40
1.6256
 41
12.44600000000004
 71
     2
 72
     1
  1
DATE
  7
ONSHAPE-STANDARD
  0
MTEXT
  5
105
330
1F
100
AcDbEntity
  8
TITLE_BLOCK
100
AcDbMText
 10
236.13408
 20
53.24096000000001
 30
0.0
 40
1.6256
 41
17.4244
 71
     1
 72
     1
  1
DRAWN
  7
ONSHAPE-STANDARD
  0
MTEXT
  5
106
102
{ACAD_XDICTIONARY
360
107
102
}
330
1F
100
AcDbEntity
  8
TITLE_BLOCK
100
AcDbMText
 10
263.18
 20
51.65600000000001
 30
0.0
 40
1.365504
 41
20.32000000000002
 71
     5
 72
     1
  1
ALEX ZAVARSKY
  7
ONSHAPE-STANDARD-FIELDS
1001
ACAD
1000
ACAD_MTEXT_DEFINED_HEIGHT_BEGIN
1070
    46
1040
6.096000000000011
1000
ACAD_MTEXT_DEFINED_HEIGHT_END
  0
MTEXT
  5
10E
102
{ACAD_XDICTIONARY
360
10F
102
}
330
1F
100
AcDbEntity
  8
TITLE_BLOCK
100
AcDbMText
 10
300.01
 20
51.65600000000001
 30
0.0
 40
1.365504
 41
12.70000000000005
 71
     5
 72
     1
  1
2022-04-05
  7
ONSHAPE-STANDARD-FIELDS
1001
ACAD
1000
ACAD_MTEXT_DEFINED_HEIGHT_BEGIN
1070
    46
1040
6.096000000000011
1000
ACAD_MTEXT_DEFINED_HEIGHT_END
  0
MTEXT
  5
114
330
1F
100
AcDbEntity
  8
TITLE_BLOCK
100
AcDbMText
 10
236.13408
 20
47.14496
 30
0.0
 40
1.6256
 41
17.4244
 71
     1
 72
     1
  1
CHECKED
  7
ONSHAPE-STANDARD
  0
MTEXT
  5
115
330
1F
100
AcDbEntity
  8
TITLE_BLOCK
100
AcDbMText
 10
263.18
 20
45.56
 30
0.0
 40
1.365504
 41
20.32000000000002
 71
     5
 72
     1
  1
 
  7
ONSHAPE-STANDARD-FIELDS
1001
ACAD
1000
ACAD_MTEXT_DEFINED_HEIGHT_BEGIN
1070
    46
1040
6.095999999999997
1000
ACAD_MTEXT_DEFINED_HEIGHT_END
  0
MTEXT
  5
116
330
1F
100
AcDbEntity
  8
TITLE_BLOCK
100
AcDbMText
 10
300.01
 20
45.56
 30
0.0
 40
1.365504
 41
12.70000000000005
 71
     5
 72
     1
  1
 
  7
ONSHAPE-STANDARD-FIELDS
1001
ACAD
1000
ACAD_MTEXT_DEFINED_HEIGHT_BEGIN
1070
    46
1040
6.095999999999997
1000
ACAD_MTEXT_DEFINED_HEIGHT_END
  0
MTEXT
  5
117
330
1F
100
AcDbEntity
  8
TITLE_BLOCK
100
AcDbMText
 10
236.13408
 20
41.04896
 30
0.0
 40
1.6256
 41
17.4244
 71
     1
 72
     1
  1
APPROVED
  7
ONSHAPE-STANDARD
  0
MTEXT
  5
118
330
1F
100
AcDbEntity
  8
TITLE_BLOCK
100
AcDbMText
 10
244.13
 20
33.36799999999999
 30
0.0
 40
2.4384
 41
17.78
 71
     5
 72
     1
  1
 
  7
ONSHAPE-STANDARD-FIELDS
1001
ACAD
1000
ACAD_MTEXT_DEFINED_HEIGHT_BEGIN
1070
    46
1040
6.095999999999997
1000
ACAD_MTEXT_DEFINED_HEIGHT_END
  0
MTEXT
  5
119
330
1F
100
AcDbEntity
  8
TITLE_BLOCK
100
AcDbMText
 10
263.18
 20
33.36799999999999
 30
0.0
 40
1.365504
 41
20.32000000000002
 71
     5
 72
     1
  1
 
  7
ONSHAPE-STANDARD-FIELDS
1001
ACAD
1000
ACAD_MTEXT_DEFINED_HEIGHT_BEGIN
1070
    46
1040
6.095999999999997
1000
ACAD_MTEXT_DEFINED_HEIGHT_END
  0
MTEXT
  5
11A
330
1F
100
AcDbEntity
  8
TITLE_BLOCK
100
AcDbMText
 10
300.01
 20
33.36799999999999
 30
0.0
 40
1.365504
 41
12.70000000000005
 71
     5
 72
     1
  1
 
  7
ONSHAPE-STANDARD-FIELDS
1001
ACAD
1000
ACAD_MTEXT_DEFINED_HEIGHT_BEGIN
1070
    46
1040
6.095999999999997
1000
ACAD_MTEXT_DEFINED_HEIGHT_END
  0
MTEXT
  5
11B
330
1F
100
AcDbEntity
  8
TITLE_BLOCK
100
AcDbMText
 10
244.13
 20
27.272
 30
0.0
 40
2.4384
 41
17.78
 71
     5
 72
     1
  1
 
  7
ONSHAPE-STANDARD-FIELDS
1001
ACAD
1000
ACAD_MTEXT_DEFINED_HEIGHT_BEGIN
1070
    46
1040
6.096000000000004
1000
ACAD_MTEXT_DEFINED_HEIGHT_END
  0
MTEXT
  5
11C
330
1F
100
AcDbEntity
  8
TITLE_BLOCK
100
AcDbMText
 10
263.18
 20
27.272
 30
0.0
 40
1.365504
 41
20.32000000000002
 71
     5
 72
     1
  1
 
  7
ONSHAPE-STANDARD-FIELDS
1001
ACAD
1000
ACAD_MTEXT_DEFINED_HEIGHT_BEGIN
1070
    46
1040
6.096000000000004
1000
ACAD_MTEXT_DEFINED_HEIGHT_END
  0
MTEXT
  5
11D
330
1F
100
AcDbEntity
  8
TITLE_BLOCK
100
AcDbMText
 10
300.01
 20
27.272
 30
0.0
 40
1.365504
 41
12.70000000000005
 71
     5
 72
     1
  1
 
  7
ONSHAPE-STANDARD-FIELDS
1001
ACAD
1000
ACAD_MTEXT_DEFINED_HEIGHT_BEGIN
1070
    46
1040
6.096000000000004
1000
ACAD_MTEXT_DEFINED_HEIGHT_END
  0
MTEXT
  5
11E
330
1F
100
AcDbEntity
  8
TITLE_BLOCK
100
AcDbMText
 10
236.13408
 20
22.76096
 30
0.0
 40
1.6256
 41
34.8488
 71
     1
 72
     1
  1
MATERIAL
  7
ONSHAPE-STANDARD
  0
MTEXT
  5
11F
330
1F
100
AcDbEntity
  8
TITLE_BLOCK
100
AcDbMText
 10
253.02
 20
17.112
 30
0.0
 40
2.4384
 41
35.56
 71
     5
 72
     1
  1
 
  7
ONSHAPE-STANDARD-FIELDS
1001
ACAD
1000
ACAD_MTEXT_DEFINED_HEIGHT_BEGIN
1070
    46
1040
14.224
1000
ACAD_MTEXT_DEFINED_HEIGHT_END
  0
MTEXT
  5
120
330
1F
100
AcDbEntity
  8
TITLE_BLOCK
100
AcDbMText
 10
271.69408
 20
22.76096
 30
0.0
 40
1.6256
 41
34.8488
 71
     1
 72
     1
  1
FINISH
  7
ONSHAPE-STANDARD
  0
MTEXT
  5
121
330
1F
100
AcDbEntity
  8
TITLE_BLOCK
100
AcDbMText
 10
288.58
 20
17.112
 30
0.0
 40
2.4384
 41
35.56
 71
     5
 72
     1
  1
 
  7
ONSHAPE-STANDARD-FIELDS
1001
ACAD
1000
ACAD_MTEXT_DEFINED_HEIGHT_BEGIN
1070
    46
1040
14.224
1000
ACAD_MTEXT_DEFINED_HEIGHT_END
  0
LINE
  5
122
330
1F
100
AcDbEntity
  8
TITLE_BLOCK
100
AcDbLine
 10
306.36
 20
10.0
 30
0.0
 11
306.36
 21
60.8
 31
0.0
  0
LINE
  5
123
330
1F
100
AcDbEntity
  8
TITLE_BLOCK
100
AcDbLine
 10
319.06
 20
16.604
 30
0.0
 11
319.06
 21
26.764
 31
0.0
  0
LINE
  5
124
330
1F
100
AcDbEntity
  8
TITLE_BLOCK
100
AcDbLine
 10
328.712
 20
10.0
 30
0.0
 11
328.712
 21
16.604
 31
0.0
  0
LINE
  5
125
330
1F
100
AcDbEntity
  8
TITLE_BLOCK
100
AcDbLine
 10
374.94
 20
10.0
 30
0.0
 11
374.94
 21
16.604
 31
0.0
  0
LINE
  5
126
330
1F
100
AcDbEntity
  8
TITLE_BLOCK
100
AcDbLine
 10
400.34
 20
16.604
 30
0.0
 11
400.34
 21
26.764
 31
0.0
  0
LINE
  5
127
330
1F
100
AcDbEntity
  8
TITLE_BLOCK
100
AcDbLine
 10
306.36
 20
16.604
 30
0.0
 11
410.5
 21
16.604
 31
0.0
  0
LINE
  5
128
330
1F
100
AcDbEntity
  8
TITLE_BLOCK
100
AcDbLine
 10
306.36
 20
26.764
 30
0.0
 11
410.5
 21
26.764
 31
0.0
  0
LINE
  5
129
330
1F
100
AcDbEntity
  8
TITLE_BLOCK
100
AcDbLine
 10
306.36
 20
48.1
 30
0.0
 11
410.5
 21
48.1
 31
0.0
  0
LINE
  5
12A
330
1F
100
AcDbEntity
  8
TITLE_BLOCK
100
AcDbLine
 10
306.36
 20
60.8
 30
0.0
 11
410.5
 21
60.8
 31
0.0
  0
MTEXT
  5
12B
102
{ACAD_XDICTIONARY
360
12C
102
}
330
1F
100
AcDbEntity
  8
TITLE_BLOCK
100
AcDbMText
 10
358.43
 20
44.036
 30
0.0
 40
3.90144
 41
93.98000000000002
 71
     5
 72
     1
  1
Pflanzenmessung Annika
  7
ONSHAPE-STANDARD-FIELDS
1001
ACAD
1000
ACAD_MTEXT_DEFINED_HEIGHT_BEGIN
1070
    46
1040
3.954593133514987
1000
ACAD_MTEXT_DEFINED_HEIGHT_END
  0
MTEXT
  5
12D
102
{ACAD_XDICTIONARY
360
12E
102
}
330
1F
100
AcDbEntity
  8
TITLE_BLOCK
100
AcDbMText
 10
358.1312007419138
 20
34.34840816105071
 30
0.0
 40
2.0
 41
93.98000000000002
 71
     5
 72
     1
  1
{\fNoto Sans|b0|i0|c0|p0;\W7.78853;   }Material: Durchsichtiger Kunststoff\PAcrylglas o. Ähnl. Muss aber kratzfest, UV und Witterungsfest
  7
ONSHAPE-STANDARD-FIELDS
1001
ACAD
1000
ACAD_MTEXT_DEFINED_HEIGHT_BEGIN
1070
    46
1040
5.585376930063579
1000
ACAD_MTEXT_DEFINED_HEIGHT_END
  0
MTEXT
  5
12F
330
1F
100
AcDbEntity
  8
TITLE_BLOCK
100
AcDbMText
 10
307.075264
 20
25.593568
 30
0.0
 40
1.30048
 41
12.44599999999999
 71
     1
 72
     1
  1
SIZE
  7
ONSHAPE-STANDARD
  0
MTEXT
  5
130
102
{ACAD_XDICTIONARY
360
131
102
}
330
1F
100
AcDbEntity
  8
TITLE_BLOCK
100
AcDbMText
 10
312.71
 20
21.684
 30
0.0
 40
4.8768
 41
12.69999999999999
 71
     5
 72
     1
  1
A3
  7
ONSHAPE-STANDARD-FIELDS
1001
ACAD
1000
ACAD_MTEXT_DEFINED_HEIGHT_BEGIN
1070
    46
1040
10.16
1000
ACAD_MTEXT_DEFINED_HEIGHT_END
  0
MTEXT
  5
136
330
1F
100
AcDbEntity
  8
TITLE_BLOCK
100
AcDbMText
 10
319.775264
 20
25.593568
 30
0.0
 40
1.30048
 41
79.65439999999997
 71
     1
 72
     1
  1
DWG NO.
  7
ONSHAPE-STANDARD
  0
MTEXT
  5
137
330
1F
100
AcDbEntity
  8
TITLE_BLOCK
100
AcDbMText
 10
401.055264
 20
25.593568
 30
0.0
 40
1.30048
 41
9.956800000000024
 71
     1
 72
     1
  1
REV.
  7
ONSHAPE-STANDARD
  0
MTEXT
  5
138
330
1F
100
AcDbEntity
  8
TITLE_BLOCK
100
AcDbMText
 10
307.075264
 20
15.433568
 30
0.0
 40
1.30048
 41
21.90495999999997
 71
     1
 72
     1
  1
SCALE
  7
ONSHAPE-STANDARD
  0
MTEXT
  5
139
102
{ACAD_XDICTIONARY
360
13A
102
}
330
1F
100
AcDbEntity
  8
TITLE_BLOCK
100
AcDbMText
 10
318.552
 20
13.302
 30
0.0
 40
2.92608
 41
20.31999999999999
 71
     5
 72
     1
  1
1:4
  7
ONSHAPE-STANDARD-FIELDS
1001
ACAD
1000
ACAD_MTEXT_DEFINED_HEIGHT_BEGIN
1070
    46
1040
6.603999999999999
1000
ACAD_MTEXT_DEFINED_HEIGHT_END
  0
MTEXT
  5
13F
330
1F
100
AcDbEntity
  8
TITLE_BLOCK
100
AcDbMText
 10
329.427264
 20
15.433568
 30
0.0
 40
1.30048
 41
45.30344000000001
 71
     1
 72
     1
  1
WEIGHT
  7
ONSHAPE-STANDARD
  0
MTEXT
  5
140
330
1F
100
AcDbEntity
  8
TITLE_BLOCK
100
AcDbMText
 10
351.826
 20
13.302
 30
0.0
 40
2.92608
 41
46.22800000000001
 71
     5
 72
     1
  1
 
  7
ONSHAPE-STANDARD-FIELDS
1001
ACAD
1000
ACAD_MTEXT_DEFINED_HEIGHT_BEGIN
1070
    46
1040
6.603999999999999
1000
ACAD_MTEXT_DEFINED_HEIGHT_END
  0
MTEXT
  5
141
330
1F
100
AcDbEntity
  8
TITLE_BLOCK
100
AcDbMText
 10
375.655264
 20
15.433568
 30
0.0
 40
1.30048
 41
34.8488
 71
     1
 72
     1
  1
SHEET
  7
ONSHAPE-STANDARD
  0
MTEXT
  5
142
102
{ACAD_XDICTIONARY
360
143
102
}
330
1F
100
AcDbEntity
  8
TITLE_BLOCK
100
AcDbMText
 10
393.736
 20
13.302
 30
0.0
 40
2.92608
 41
33.52800000000002
 71
     5
 72
     1
  1
1 of 1
  7
ONSHAPE-STANDARD-FIELDS
1001
ACAD
1000
ACAD_MTEXT_DEFINED_HEIGHT_BEGIN
1070
    46
1040
6.603999999999999
1000
ACAD_MTEXT_DEFINED_HEIGHT_END
  0
MTEXT
  5
148
102
{ACAD_XDICTIONARY
360
149
102
}
330
1F
100
AcDbEntity
  8
ANNOTATION_TEXT
 62
     7
 60
     1
100
AcDbMText
 10
98.63519469956236
 20
206.5749428424712
 30
0.0
 40
3.5
 41
0.0
 71
     2
 72
     1
  1

  7
ONSHAPE-STANDARD-VIEW-LABE
1001
ACAD
1000
ACAD_MTEXT_DEFINED_HEIGHT_BEGIN
1070
    46
1040
3.5
1000
ACAD_MTEXT_DEFINED_HEIGHT_END
  0
MTEXT
  5
14D
102
{ACAD_XDICTIONARY
360
14E
102
}
330
1F
100
AcDbEntity
  8
ANNOTATION_TEXT
 62
     7
 60
     1
100
AcDbMText
 10
98.63519469956236
 20
118.2190726405569
 30
0.0
 40
3.5
 41
0.0
 71
     2
 72
     1
  1

  7
ONSHAPE-STANDARD-VIEW-LABE
1001
ACAD
1000
ACAD_MTEXT_DEFINED_HEIGHT_BEGIN
1070
    46
1040
3.5
1000
ACAD_MTEXT_DEFINED_HEIGHT_END
  0
LINE
  5
157
330
1F
100
AcDbEntity
  8
SECTION_CUTTING_LINE
 62
     7
100
AcDbLine
 10
60.76019469956239
 20
155.0315726405569
 30
0.0
 11
136.5101946995624
 21
155.0315726405569
 31
0.0
  0
SOLID
  5
158
330
1F
100
AcDbEntity
  8
SECTION_CUTTING_LINE
 62
     7
100
AcDbTrace
 10
60.76019469956239
 20
155.0315726405569
 30
0.0
 11
61.17686136622905
 21
157.5315726405569
 31
0.0
 12
60.34352803289573
 22
157.5315726405569
 32
0.0
 13
60.34352803289573
 23
157.5315726405569
 33
0.0
  0
SOLID
  5
159
330
1F
100
AcDbEntity
  8
SECTION_CUTTING_LINE
 62
     7
100
AcDbTrace
 10
60.86436136622905
 20
157.5315726405569
 30
0.0
 11
60.86436136622905
 21
160.0315726405569
 31
0.0
 12
60.65602803289573
 22
157.5315726405569
 32
0.0
 13
60.65602803289573
 23
160.0315726405569
 33
0.0
  0
SOLID
  5
15A
330
1F
100
AcDbEntity
  8
SECTION_CUTTING_LINE
 62
     7
100
AcDbTrace
 10
136.5101946995624
 20
155.0315726405569
 30
0.0
 11
136.926861366229
 21
157.5315726405569
 31
0.0
 12
136.0935280328957
 22
157.5315726405569
 32
0.0
 13
136.0935280328957
 23
157.5315726405569
 33
0.0
  0
SOLID
  5
15B
330
1F
100
AcDbEntity
  8
SECTION_CUTTING_LINE
 62
     7
100
AcDbTrace
 10
136.614361366229
 20
157.5315726405569
 30
0.0
 11
136.614361366229
 21
160.0315726405569
 31
0.0
 12
136.4060280328957
 22
157.5315726405569
 32
0.0
 13
136.4060280328957
 23
160.0315726405569
 33
0.0
  0
MTEXT
  5
15C
330
1F
100
AcDbEntity
  8
SECTION_CUTTING_LINE
 62
     7
100
AcDbMText
 10
59.20212249247792
 20
165.1178640233703
 30
0.0
 40
3.5
 41
3.12091280653951
 71
     1
 72
     1
  1
\fNoto Sans|b0|i0|c0|p0;\W1.0000000000;\T1.0000000000;\o\lA
  7
ONSHAPE-STANDARD
  0
MTEXT
  5
15D
330
1F
100
AcDbEntity
  8
SECTION_CUTTING_LINE
 62
     7
100
AcDbMText
 10
134.9521224924779
 20
165.1178640233703
 30
0.0
 40
3.5
 41
3.12091280653951
 71
     1
 72
     1
  1
\fNoto Sans|b0|i0|c0|p0;\W1.0000000000;\T1.0000000000;\o\lA
  7
ONSHAPE-STANDARD
  0
MTEXT
  5
15E
102
{ACAD_XDICTIONARY
360
15F
102
}
330
1F
100
AcDbEntity
  8
ANNOTATION_TEXT
 62
     7
100
AcDbMText
 10
98.63519469956236
 20
21.02164318888504
 30
0.0
 40
3.5
 41
0.0
 71
     2
 72
     1
  1
 A - A 
  7
ONSHAPE-STANDARD-VIEW-LABE
1001
ACAD
1000
ACAD_MTEXT_DEFINED_HEIGHT_BEGIN
1070
    46
1040
3.5
1000
ACAD_MTEXT_DEFINED_HEIGHT_END
  0
DIMENSION
  5
165
102
{ACAD_REACTORS
102
}
102
{ACAD_XDICTIONARY
360
166
102
}
330
1F
100
AcDbEntity
  8
ANNOTATION_TEXT
100
AcDbDimension
  2
*D1
 10
52.06848499859119
 20
214.3249428424712
 30
0.0
 11
52.06848499859119
 21
246.8249428424712
 31
0.0
 70
   160
  3
ONSHAPE-ISO-25$0
100
AcDbAlignedDimension
 13
66.76019469956236
 23
279.3249428424712
 33
-15.9375
 14
66.76019469956236
 24
214.3249428424712
 34
-15.93750000000001
 50
90.0
100
AcDbRotatedDimension
1001
ACAD
1000
DSTYLE
1002
{
1070
     4
1000
[]
1070
   144
1040
4.0
1070
     3
1000

1070
   288
1070
     1
1002
}
1001
ACAD_DIMASSOC_CALC_DIMLFAC
1040
-4.0
1001
ACAD_DIMASSOC_DIMLFAC
1040
-4.0
1001
ACAD_DIMASSOC_OVERRIDDEN_D
1040
0.0
  0
DIMENSION
  5
180
102
{ACAD_REACTORS
102
}
102
{ACAD_XDICTIONARY
360
181
102
}
330
1F
100
AcDbEntity
  8
ANNOTATION_TEXT
100
AcDbDimension
  2
*D2
 10
130.5101946995624
 20
202.938331541556
 30
0.0
 11
98.63519469956236
 21
202.938331541556
 31
0.0
 70
   160
  3
ONSHAPE-ISO-25$0
100
AcDbAlignedDimension
 13
66.76019469956236
 23
214.3249428424712
 33
-15.93750000000001
 14
130.5101946995624
 24
214.3249428424712
 34
-15.9375
100
AcDbRotatedDimension
1001
ACAD
1000
DSTYLE
1002
{
1070
     4
1000
[]
1070
   144
1040
4.0
1070
     3
1000

1070
   288
1070
     1
1002
}
1001
ACAD_DIMASSOC_CALC_DIMLFAC
1040
-4.0
1001
ACAD_DIMASSOC_DIMLFAC
1040
-4.0
1001
ACAD_DIMASSOC_OVERRIDDEN_D
1040
0.0
  0
DIMENSION
  5
192
102
{ACAD_REACTORS
102
}
102
{ACAD_XDICTIONARY
360
193
102
}
330
1F
100
AcDbEntity
  8
ANNOTATION_TEXT
100
AcDbDimension
  2
*D3
 10
74.94474254695399
 20
134.652049172012
 30
32.5
 11
133.0351100926137
 21
184.623826876678
 31
0.0
 70
   163
  3
ONSHAPE-ISO-25$3
100
AcDbDiametricDimension
 15
122.3256468521707
 25
175.4110961091018
 35
32.50000000000001
 40
0.0
1001
ACAD
1000
DSTYLE
1002
{
1070
   287
1070
     3
1070
   289
1070
     3
1070
   279
1070
     0
1070
   172
1070
     1
1070
     4
1000
[]
1070
   144
1040
4.0
1070
     3
1000
%%c<>
1070
   288
1070
     1
1002
}
1001
ACAD_DSTYLE_DIMRADIAL_EXTE
1070
   387
1070
     1
1070
   388
1040
0.0
1070
   390
1040
6.283185307179586
1001
ACAD_DIMASSOC_CALC_DIMLFAC
1040
-4.0
1001
ACAD_DIMASSOC_DIMLFAC
1040
-4.0
1001
ACAD_DIMASSOC_OVERRIDDEN_D
1040
0.0
  0
DIMENSION
  5
1A3
102
{ACAD_REACTORS
102
}
102
{ACAD_XDICTIONARY
360
1A4
102
}
330
1F
100
AcDbEntity
  8
ANNOTATION_TEXT
100
AcDbDimension
  2
*D4
 10
98.63519469956236
 20
136.732859135423
 30
0.0
 11
106.2879347182713
 21
136.732859135423
 31
0.0
 70
   160
  3
ONSHAPE-ISO-25$0
100
AcDbAlignedDimension
 13
115.5101946995624
 23
155.0315726405569
 33
-31.87499999999999
 14
98.63519469956236
 24
155.0315726405569
 34
32.50000000000001
100
AcDbRotatedDimension
1001
ACAD
1000
DSTYLE
1002
{
1070
     4
1000
[]
1070
   144
1040
4.0
1070
     3
1000

1070
   288
1070
     1
1002
}
1001
ACAD_DIMASSOC_CALC_DIMLFAC
1040
-4.0
1001
ACAD_DIMASSOC_DIMLFAC
1040
-4.0
1001
ACAD_DIMASSOC_OVERRIDDEN_D
1040
0.0
  0
DIMENSION
  5
1B5
102
{ACAD_REACTORS
102
}
102
{ACAD_XDICTIONARY
360
1B6
102
}
330
1F
100
AcDbEntity
  8
ANNOTATION_TEXT
100
AcDbDimension
  2
*D5
 10
130.5101946995624
 20
101.4946004664644
 30
0.0
 11
119.6753854352572
 21
101.4946004664644
 31
0.0
 70
   160
  3
ONSHAPE-ISO-25$0
100
AcDbAlignedDimension
 13
129.8851946995624
 23
93.14664318888504
 33
15.93749999999999
 14
130.5101946995624
 24
93.77164318888504
 34
15.93749999999999
100
AcDbRotatedDimension
1001
ACAD
1000
DSTYLE
1002
{
1070
     4
1000
[]
1070
   144
1040
4.0
1070
     3
1000

1070
   288
1070
     1
1002
}
1001
ACAD_DIMASSOC_CALC_DIMLFAC
1040
-4.0
1001
ACAD_DIMASSOC_DIMLFAC
1040
-4.0
1001
ACAD_DIMASSOC_OVERRIDDEN_D
1040
0.0
  0
MTEXT
  5
1CA
102
{ACAD_XDICTIONARY
360
2D1
102
}
330
1F
100
AcDbEntity
  8
ANNOTATION_TEXT
100
AcDbMText
 10
54.66658934420886
 20
112.5746624836775
 30
0.0
 40
3.5
 41
21.54399605518884
 71
     1
 72
     5
  1
Pflanze 1
  7
ONSHAPE-STANDARD-NOTESTYLE
1001
ACAD
1000
ACAD_MTEXT_DEFINED_HEIGHT_BEGIN
1070
    46
1040
3.547683923705722
1000
ACAD_MTEXT_DEFINED_HEIGHT_END
  0
INSERT
  5
1CF
102
{ACAD_REACTORS
102
}
102
{ACAD_XDICTIONARY
360
1D0
102
}
330
1F
100
AcDbEntity
  8
ANNOTATION_TEXT
 62
     7
100
AcDbBlockReference
  2
*U6
 10
148.8752689409274
 20
133.9382406068126
 30
0.0
  0
SOLID
  5
1EA
330
1F
100
AcDbEntity
  8
ANNOTATION_LINES
100
AcDbTrace
 10
118.1145313509306
 20
152.8921670175039
 30
0.0
 11
116.2240527756776
 21
154.5802730176177
 31
0.0
 12
118.5598371577106
 22
153.5965441770516
 32
0.0
 13
118.5598371577106
 23
153.5965441770516
 33
0.0
  0
LINE
  5
1EB
330
1F
100
AcDbEntity
  8
ANNOTATION_LINES
100
AcDbLine
 10
116.2240527756776
 20
154.5802730176177
 30
-15.9375
 11
148.8752689409274
 21
133.9382406068126
 31
15.9375
  0
LINE
  5
1EC
330
1F
100
AcDbEntity
  8
ANNOTATION_LINES
100
AcDbLine
 10
148.8752689409274
 20
133.9382406068126
 30
0.0
 11
212.0149147174942
 21
133.9382406068126
 31
0.0
  0
INSERT
  5
1ED
102
{ACAD_REACTORS
102
}
102
{ACAD_XDICTIONARY
360
1EE
102
}
330
1F
100
AcDbEntity
  8
ANNOTATION_TEXT
 62
     7
100
AcDbBlockReference
  2
*U7
 10
78.87070744746228
 20
118.1849325396806
 30
0.0
  0
SOLID
  5
208
330
1F
100
AcDbEntity
  8
ANNOTATION_LINES
100
AcDbTrace
 10
81.083328837999
 20
151.7298339441939
 30
0.0
 11
81.69416839657143
 21
154.1896075404409
 31
0.0
 12
81.91411160211008
 22
151.6646845520216
 32
0.0
 13
81.91411160211008
 23
151.6646845520216
 33
0.0
  0
LINE
  5
209
330
1F
100
AcDbEntity
  8
ANNOTATION_LINES
100
AcDbLine
 10
81.69416839657143
 20
154.1896075404409
 30
-15.9375
 11
78.87070744746228
 21
118.1849325396806
 31
15.9375
  0
LINE
  5
20A
330
1F
100
AcDbEntity
  8
ANNOTATION_LINES
100
AcDbLine
 10
78.87070744746228
 20
118.1849325396806
 30
0.0
 11
15.73106167089551
 21
118.1849325396806
 31
0.0
  0
INSERT
  5
20B
102
{ACAD_REACTORS
102
}
102
{ACAD_XDICTIONARY
360
20C
102
}
330
1F
100
AcDbEntity
  8
ANNOTATION_TEXT
 62
     7
100
AcDbBlockReference
  2
*U8
 10
161.899976519431
 20
177.6244369682564
 30
0.0
  0
SOLID
  5
226
330
1F
100
AcDbEntity
  8
ANNOTATION_LINES
100
AcDbTrace
 10
102.7180180957053
 20
156.0471753486171
 30
0.0
 11
100.2235124609136
 21
155.598786288644
 31
0.0
 12
102.4377564743739
 22
156.8319669566591
 32
0.0
 13
102.4377564743739
 23
156.8319669566591
 33
0.0
  0
LINE
  5
227
330
1F
100
AcDbEntity
  8
ANNOTATION_LINES
100
AcDbLine
 10
100.2235124609136
 20
155.598786288644
 30
-15.9375
 11
161.899976519431
 21
177.6244369682564
 31
15.9375
  0
LINE
  5
228
330
1F
100
AcDbEntity
  8
ANNOTATION_LINES
100
AcDbLine
 10
161.899976519431
 20
177.6244369682564
 30
0.0
 11
227.8315160289678
 21
177.6244369682564
 31
0.0
  0
MTEXT
  5
229
102
{ACAD_XDICTIONARY
360
2D3
102
}
330
1F
100
AcDbEntity
  8
ANNOTATION_TEXT
100
AcDbMText
 10
135.769017118886
 20
274.7780039702824
 30
0.0
 40
3.5
 41
259.9695448054213
 71
     1
 72
     5
  1
Sollten Standardteile mit +- 10mm wirtschafltiche und günstiger sein kann +-10 mm von den größen Maßen abgewichen werden.
  7
ONSHAPE-STANDARD-NOTESTYLE
1001
ACAD
1000
ACAD_MTEXT_DEFINED_HEIGHT_BEGIN
1070
    46
1040
9.795867393278838
1000
ACAD_MTEXT_DEFINED_HEIGHT_END
  0
MTEXT
  5
22E
102
{ACAD_XDICTIONARY
360
2D5
102
}
330
1F
100
AcDbEntity
  8
ANNOTATION_TEXT
100
AcDbMText
 10
135.0989925188722
 20
87.40292490928923
 30
0.0
 40
3.5
 41
259.9695448054213
 71
     1
 72
     5
  1
Bei der Dicke kann auch bis 5mm Dicke gegangen werden.
  7
ONSHAPE-STANDARD-NOTESTYLE
1001
ACAD
1000
ACAD_MTEXT_DEFINED_HEIGHT_BEGIN
1070
    46
1040
3.569141689373297
1000
ACAD_MTEXT_DEFINED_HEIGHT_END
  0
MTEXT
  5
22F
102
{ACAD_XDICTIONARY
360
230
102
}
330
1F
100
AcDbEntity
  8
ANNOTATION_TEXT
 62
     7
 60
     1
100
AcDbMText
 10
338.7864709231198
 20
145.8720537870341
 30
0.0
 40
3.5
 41
0.0
 71
     2
 72
     1
  1

  7
ONSHAPE-STANDARD-VIEW-LABE
1001
ACAD
1000
ACAD_MTEXT_DEFINED_HEIGHT_BEGIN
1070
    46
1040
3.5
1000
ACAD_MTEXT_DEFINED_HEIGHT_END
  0
MTEXT
  5
233
102
{ACAD_XDICTIONARY
360
234
102
}
330
1F
100
AcDbEntity
  8
TITLE_BLOCK
100
AcDbMText
 10
306.043543521457
 20
122.3151772917386
 30
0.0
 40
6.0
 41
162.0899182561308
 71
     5
 72
     1
  1
{\fNoto Sans|b0|i0|c0|p0;\W1.85714; }Material: Durchsichtiger Kunststoff;\PAcryl o. ähnl. Muss aber kratzfest, UV- und witterungsbeständig sein
  7
ONSHAPE-STANDARD-FIELDS
1001
ACAD
1000
ACAD_MTEXT_DEFINED_HEIGHT_BEGIN
1070
    46
1040
27.43051771117166
1000
ACAD_MTEXT_DEFINED_HEIGHT_END
  0
LINE
  5
23A
330
1F
100
AcDbEntity
  8
CENTERMARKS
  6
CONTINUOUS
100
AcDbLine
 10
97.38519469956236
 20
155.0315726405569
 30
0.0
 11
99.88519469956236
 21
155.0315726405569
 31
0.0
  0
LINE
  5
23B
330
1F
100
AcDbEntity
  8
CENTERMARKS
  6
CONTINUOUS
100
AcDbLine
 10
98.63519469956236
 20
153.7815726405569
 30
0.0
 11
98.63519469956236
 21
156.2815726405569
 31
0.0
  0
LINE
  5
23F
330
1F
100
AcDbEntity
  8
CENTERMARKS
  6
CONTINUOUS
100
AcDbLine
 10
115.2146021995624
 20
155.0315726405569
 30
0.0
 11
115.8057871995624
 21
155.0315726405569
 31
0.0
  0
LINE
  5
240
330
1F
100
AcDbEntity
  8
CENTERMARKS
  6
CONTINUOUS
100
AcDbLine
 10
115.5101946995624
 20
154.7359801405569
 30
0.0
 11
115.5101946995624
 21
155.3271651405569
 31
0.0
  0
LINE
  5
244
330
1F
100
AcDbEntity
  8
CENTERMARKS
  6
CONTINUOUS
100
AcDbLine
 10
81.46460219956236
 20
155.0315726405569
 30
0.0
 11
82.05578719956236
 21
155.0315726405569
 31
0.0
  0
LINE
  5
245
330
1F
100
AcDbEntity
  8
CENTERMARKS
  6
CONTINUOUS
100
AcDbLine
 10
81.76019469956236
 20
154.7359801405569
 30
0.0
 11
81.76019469956236
 21
155.3271651405569
 31
0.0
  0
ENDSEC
  0
SECTION
  2
OBJECTS
  0
DICTIONARY
  5
C
330
0
100
AcDbDictionary
  3
ACAD_FIELDLIST
350
150
  3
ACAD_GROUP
350
D
  3
ACAD_LAYOUT
350
1A
  3
ACAD_MATERIAL
350
43
  3
ACAD_MLEADERSTYLE
350
6B
  3
ACAD_MLINESTYLE
350
17
  3
ACAD_PLOTSETTINGS
350
19
  3
ACAD_SCALELIST
350
47
  3
ACAD_VISUALSTYLE
350
2A
  3
ACDB_RECOMPOSE_DATA
350
2E3
  3
ACDBHEADERROUNDTRIPXREC
350
2A7
  3
ACDBVARIABLEDICTIONARY
350
6E
  3
DWGPROPS
350
2CE
  3
ONSHAPE_DATA
350
246
  0
DICTIONARY
  5
2D8
330
8
100
AcDbDictionary
280
     1
  3
ACAD_XREC_ROUNDTRIP
360
2D9
  0
DICTIONARY
  5
107
330
106
100
AcDbDictionary
280
     1
  0
DICTIONARY
  5
10F
330
10E
100
AcDbDictionary
280
     1
  0
DICTIONARY
  5
12C
330
12B
100
AcDbDictionary
280
     1
  3
ACAD_MTEXT_RT
360
2CF
  0
DICTIONARY
  5
12E
330
12D
100
AcDbDictionary
280
     1
  3
ACAD_MTEXT_RT
360
2D0
  0
DICTIONARY
  5
131
330
130
100
AcDbDictionary
280
     1
  0
DICTIONARY
  5
13A
330
139
100
AcDbDictionary
280
     1
  0
DICTIONARY
  5
143
330
142
100
AcDbDictionary
280
     1
  0
DICTIONARY
  5
149
330
148
100
AcDbDictionary
280
     1
  3
ONSHAPE_VIEW_ID
360
14A
  0
DICTIONARY
  5
14E
330
14D
100
AcDbDictionary
280
     1
  3
ONSHAPE_VIEW_ID
360
14F
  0
DICTIONARY
  5
15F
330
15E
100
AcDbDictionary
280
     1
  3
ONSHAPE_VIEW_ID
360
160
  0
DICTIONARY
  5
166
330
165
100
AcDbDictionary
280
     1
  3
OS_DIM_DISPLAY_FLAG_DATA
360
169
  0
DICTIONARY
  5
181
330
180
100
AcDbDictionary
280
     1
  3
OS_DIM_DISPLAY_FLAG_DATA
360
184
  0
DICTIONARY
  5
193
330
192
100
AcDbDictionary
280
     1
  3
OS_DIM_DISPLAY_FLAG_DATA
360
195
  0
DICTIONARY
  5
1A4
330
1A3
100
AcDbDictionary
280
     1
  3
OS_DIM_DISPLAY_FLAG_DATA
360
1A7
  0
DICTIONARY
  5
1B6
330
1B5
100
AcDbDictionary
280
     1
  3
OS_DIM_DISPLAY_FLAG_DATA
360
1B9
  0
DICTIONARY
  5
2D1
330
1CA
100
AcDbDictionary
280
     1
  3
ACAD_MTEXT_RT
360
2D2
  0
DICTIONARY
  5
1D0
330
1CF
100
AcDbDictionary
280
     1
  3
OS_DIM_DISPLAY_FLAG_DATA
360
1D2
  3
OS_HOLECALLOUTDIM_DATA
360
1D1
  0
DICTIONARY
  5
1EE
330
1ED
100
AcDbDictionary
280
     1
  3
OS_DIM_DISPLAY_FLAG_DATA
360
1F0
  3
OS_HOLECALLOUTDIM_DATA
360
1EF
  0
DICTIONARY
  5
20C
330
20B
100
AcDbDictionary
280
     1
  3
OS_DIM_DISPLAY_FLAG_DATA
360
20E
  3
OS_HOLECALLOUTDIM_DATA
360
20D
  0
DICTIONARY
  5
2D3
330
229
100
AcDbDictionary
280
     1
  3
ACAD_MTEXT_RT
360
2D4
  0
DICTIONARY
  5
2D5
330
22E
100
AcDbDictionary
280
     1
  3
ACAD_MTEXT_RT
360
2D6
  0
DICTIONARY
  5
230
330
22F
100
AcDbDictionary
280
     1
  3
ONSHAPE_VIEW_ID
360
231
  0
DICTIONARY
  5
234
330
233
100
AcDbDictionary
280
     1
  3
ACAD_MTEXT_RT
360
2D7
  0
ACAD_PROXY_OBJECT
  5
150
102
{ACAD_REACTORS
330
C
102
}
330
C
100
AcDbProxyObject
 90
      499
 91
      509
 93
       11
310
4280
330
10A
330
10B
330
112
330
113
330
134
330
135
330
13D
330
13E
330
146
330
147
 94
        0
  0
DICTIONARY
  5
D
102
{ACAD_REACTORS
330
C
102
}
330
C
100
AcDbDictionary
  0
DICTIONARY
  5
1A
102
{ACAD_REACTORS
330
C
102
}
330
C
100
AcDbDictionary
  0
DICTIONARY
  5
43
102
{ACAD_REACTORS
330
C
102
}
330
C
100
AcDbDictionary
  3
BYBLOCK
350
45
  3
BYLAYER
350
44
  3
GLOBAL
350
46
  0
DICTIONARY
  5
6B
102
{ACAD_REACTORS
330
C
102
}
330
C
100
AcDbDictionary
  3
STANDARD
350
6C
  0
DICTIONARY
  5
17
102
{ACAD_REACTORS
330
C
102
}
330
C
100
AcDbDictionary
  3
STANDARD
350
18
  0
DICTIONARY
  5
19
102
{ACAD_REACTORS
330
C
102
}
330
C
100
AcDbDictionary
  0
DICTIONARY
  5
47
102
{ACAD_REACTORS
330
C
102
}
330
C
100
AcDbDictionary
  3
A0
350
48
  3
A1
350
49
  3
A2
350
4A
  3
A3
350
4B
  3
A4
350
4C
  3
A5
350
4D
  3
A6
350
4E
  3
A7
350
4F
  3
A8
350
50
  3
A9
350
51
  3
B0
350
52
  3
B1
350
53
  3
B2
350
54
  3
B3
350
55
  3
B4
350
56
  3
B5
350
57
  3
B6
350
58
  3
B7
350
59
  3
B8
350
5A
  3
B9
350
5B
  3
C0
350
5C
  3
C1
350
5D
  3
C2
350
5E
  3
C3
350
5F
  3
C4
350
60
  3
C5
350
61
  3
C6
350
62
  3
C7
350
63
  3
C8
350
64
  3
C9
350
65
  3
D0
350
66
  3
D1
350
67
  3
D2
350
68
  0
DICTIONARY
  5
2A
102
{ACAD_REACTORS
330
C
102
}
330
C
100
AcDbDictionary
  3
2DWIREFRAME
350
2F
  3
BASIC
350
32
  3
BRIGHTEN
350
36
  3
COLORCHANGE
350
3A
  3
CONCEPTUAL
350
34
  3
DIM
350
35
  3
EDGECOLOROFF
350
3D
  3
FACEPATTERN
350
39
  3
FLAT
350
2B
  3
FLATWITHEDGES
350
2C
  3
GOURAUD
350
2D
  3
GOURAUDWITHEDGES
350
2E
  3
HIDDEN
350
31
  3
JITTEROFF
350
3B
  3
LINEPATTERN
350
38
  3
OVERHANGOFF
350
3C
  3
REALISTIC
350
33
  3
SHADED
350
42
  3
SHADED_WITH_EDGES
350
41
  3
SHADES_OF_GRAY
350
3E
  3
SKETCHY
350
3F
  3
THICKEN
350
37
  3
WIREFRAME
350
30
  3
X-RAY
350
40
  0
XRECORD
  5
2E3
102
{ACAD_REACTORS
330
C
102
}
330
C
100
AcDbXrecord
 90
        1
330
12B
330
12D
330
229
330
22E
330
233
330
1CA
  0
DICTIONARY
  5
2A7
102
{ACAD_REACTORS
330
C
102
}
330
C
100
AcDbDictionary
  3
CEPSNID
350
2B1
  3
CEPSNTYPE
350
2B0
  3
DIMSTYLEDATA
350
2C7
  3
FINGERPRINTGUID
350
2B2
  3
HYPERLINKBASE
350
2AA
  3
INSUNITS
350
2AF
  3
LAYOUTDICT
350
2AC
  3
LWETCUNION
350
2AE
  3
PLOTSETDICT
350
2AD
  3
PSVPSCALE
350
2B4
  3
PUCSBASE
350
2B7
  3
PUCSORGBACK
350
2BD
  3
PUCSORGBOTTOM
350
2B9
  3
PUCSORGFRONT
350
2BC
  3
PUCSORGLEFT
350
2BA
  3
PUCSORGRIGHT
350
2BB
  3
PUCSORGTOP
350
2B8
  3
PUCSORTHOREF
350
2B5
  3
PUCSORTHOVIEW
350
2B6
  3
STYLESHEET
350
2AB
  3
TSTACKALIGN
350
2A8
  3
TSTACKSIZE
350
2A9
  3
UCSBASE
350
2C0
  3
UCSORGBACK
350
2C6
  3
UCSORGBOTTOM
350
2C2
  3
UCSORGFRONT
350
2C5
  3
UCSORGLEFT
350
2C3
  3
UCSORGRIGHT
350
2C4
  3
UCSORGTOP
350
2C1
  3
UCSORTHOREF
350
2BE
  3
UCSORTHOVIEW
350
2BF
  3
VERSIONGUID
350
2B3
  0
DICTIONARY
  5
6E
102
{ACAD_REACTORS
330
C
102
}
330
C
100
AcDbDictionary
  3
CANNOSCALE
350
2DA
  3
CMLEADERSTYLE
350
2C9
  3
CTABLESTYLE
350
2C8
  3
DIMASSOC
350
2CC
  3
HIDETEXT
350
2CD
  3
MSLTSCALE
350
2DB
  3
OLEFRAME
350
6F
  0
XRECORD
  5
2CE
102
{ACAD_REACTORS
330
C
102
}
330
C
100
AcDbXrecord
  1
DWGPROPS COOKIE
  2

  3

  4

  6

  7

  8
nobody
  9

300
=
301
=
302
=
303
=
304
=
305
=
306
=
307
=
308
=
309
=
 40
0.0
 41
2461078.502332674
 42
2461078.502333762
  1

 90
        0
  0
DICTIONARY
  5
246
102
{ACAD_REACTORS
330
C
102
}
330
C
100
AcDbDictionary
280
     1
  3
DIM_UNITS
360
247
  3
ONSHAPE_ANG_TOL_PRECISION
360
24A
  3
ONSHAPE_BREAK_DIMENSION_DEFAULT
360
250
  3
ONSHAPE_DIMENSION_TEXT_HOR
360
24F
  3
ONSHAPE_FITCLASS_TOL_PRECISION
360
24B
  3
ONSHAPE_JOGDIMENSION_LOCK_
360
24D
  3
ONSHAPE_SHOWDIMENSIONSLINE
360
24E
  3
ONSHAPE_UNDERLINEOVERRIDEN
360
24C
  3
ONSHAPE_VSHARP_EXTENSION
360
249
  3
ONSHAPE_WELD_STANDARD
360
248
  0
XRECORD
  5
2D9
102
{ACAD_REACTORS
330
2D8
102
}
330
2D8
100
AcDbXrecord
102
VTR_0.000_0.000_1.000_1.000_VISUALSTYLE
340
2F
102
VTR_0.000_0.000_1.000_1.000_GRIDDISPLAY
 70
     3
102
VTR_0.000_0.000_1.000_1.000_GRIDMAJOR
 70
     5
102
VTR_0.000_0.000_1.000_1.000_DEFAULTLIGHTING
280
     1
102
VTR_0.000_0.000_1.000_1.000_DEFAULTLIGHTINGTYPE
 70
     1
102
VTR_0.000_0.000_1.000_1.000_BRIGHTNESS
141
0.0
102
VTR_0.000_0.000_1.000_1.000_CONTRAST
142
0.0
  0
XRECORD
  5
2CF
102
{ACAD_REACTORS
330
12C
102
}
330
12C
100
AcDbXrecord
 40
25275.0
  1
{\pxqc;Pflanzenmessung Annika}
  0
XRECORD
  5
2D0
102
{ACAD_REACTORS
330
12E
102
}
330
12E
100
AcDbXrecord
 40
868531.0
  1
{\pxqc;Material: Durchsichtiger Kunststoff\PAcrylglas o. Ähnl. Muss aber kratzfest, UV und Witterungsfest}
  0
XRECORD
  5
14A
102
{ACAD_REACTORS
330
149
102
}
330
149
100
AcDbXrecord
330
0
  0
XRECORD
  5
14F
102
{ACAD_REACTORS
330
14E
102
}
330
14E
100
AcDbXrecord
330
0
  0
XRECORD
  5
160
102
{ACAD_REACTORS
330
15F
102
}
330
15F
100
AcDbXrecord
330
0
  0
XRECORD
  5
169
102
{ACAD_REACTORS
330
166
102
}
330
166
100
AcDbXrecord
 90
        1
 90
        0
  0
XRECORD
  5
184
102
{ACAD_REACTORS
330
181
102
}
330
181
100
AcDbXrecord
 90
        1
 90
        0
  0
XRECORD
  5
195
102
{ACAD_REACTORS
330
193
102
}
330
193
100
AcDbXrecord
 90
        1
 90
        0
  0
XRECORD
  5
1A7
102
{ACAD_REACTORS
330
1A4
102
}
330
1A4
100
AcDbXrecord
 90
        1
 90
        0
  0
XRECORD
  5
1B9
102
{ACAD_REACTORS
330
1B6
102
}
330
1B6
100
AcDbXrecord
 90
        1
 90
        0
  0
XRECORD
  5
2D2
102
{ACAD_REACTORS
330
2D1
102
}
330
2D1
100
AcDbXrecord
 40
3682.0
  1
{\pxql;Pflanze 1}
  0
XRECORD
  5
1D2
102
{ACAD_REACTORS
330
1D0
102
}
330
1D0
100
AcDbXrecord
 90
        1
 90
        0
  0
ACAD_PROXY_OBJECT
  5
1D1
102
{ACAD_REACTORS
330
1D0
102
}
330
1D0
100
AcDbProxyObject
 90
      499
 91
      511
 93
      754
310
57568000400000100040000000000000001680383D1C200880401680008000001680008000000A000000000000003C2FCA000000000000003C2FD6803FFFFFFFC880400880400B004000078B004080079A5B88804008804016803FFFFFFFC0
  0
XRECORD
  5
1F0
102
{ACAD_REACTORS
330
1EE
102
}
330
1EE
100
AcDbXrecord
 90
        1
 90
        0
  0
ACAD_PROXY_OBJECT
  5
1EF
102
{ACAD_REACTORS
330
1EE
102
}
330
1EE
100
AcDbProxyObject
 90
      499
 91
      511
 93
      754
310
57568000400000100040000000000000001680383D1C200880401680008000001680008000000A000000000000003C2FCA000000000000003C2FD6803FFFFFFFC880400880400B004000078B004080079A5B88804008804016803FFFFFFFC0
  0
XRECORD
  5
20E
102
{ACAD_REACTORS
330
20C
102
}
330
20C
100
AcDbXrecord
 90
        1
 90
        0
  0
ACAD_PROXY_OBJECT
  5
20D
102
{ACAD_REACTORS
330
20C
102
}
330
20C
100
AcDbProxyObject
 90
      499
 91
      511
 93
      754
310
57568000400000100040000000000000001680383D1C200880401680008000001680008000000A000000000000003C2FCA000000000000003C2FD6803FFFFFFFC880400880400B004000078B004080079A5B88804008804016803FFFFFFFC0
  0
XRECORD
  5
2D4
102
{ACAD_REACTORS
330
2D3
102
}
330
2D3
100
AcDbXrecord
 40
625397.0
  1
{\pxql;Sollten Standardteile mit +- 10mm wirtschafltiche und günstiger sein kann +-10 mm von den größen Maßen abgewichen werden.}
  0
XRECORD
  5
2D6
102
{ACAD_REACTORS
330
2D5
102
}
330
2D5
100
AcDbXrecord
 40
134244.0
  1
{\pxql;Bei der Dicke kann auch bis 5mm Dicke gegangen werden.}
  0
XRECORD
  5
231
102
{ACAD_REACTORS
330
230
102
}
330
230
100
AcDbXrecord
330
0
  0
XRECORD
  5
2D7
102
{ACAD_REACTORS
330
234
102
}
330
234
100
AcDbXrecord
 40
935635.0
  1
{\pxqc;Material: Durchsichtiger Kunststoff;\PAcryl o. ähnl. Muss aber kratzfest, UV- und witterungsbeständig sein}
  0
MATERIAL
  5
45
102
{ACAD_REACTORS
330
43
102
}
102
{ACAD_XDICTIONARY
360
2DE
102
}
330
43
100
AcDbMaterial
  1
BYBLOCK
  0
MATERIAL
  5
44
102
{ACAD_REACTORS
330
43
102
}
102
{ACAD_XDICTIONARY
360
2DC
102
}
330
43
100
AcDbMaterial
  1
BYLAYER
  0
MATERIAL
  5
46
102
{ACAD_REACTORS
330
43
102
}
102
{ACAD_XDICTIONARY
360
2E0
102
}
330
43
100
AcDbMaterial
  1
GLOBAL
  0
ACAD_PROXY_OBJECT
  5
6C
102
{ACAD_REACTORS
330
6B
102
}
330
6B
100
AcDbProxyObject
 90
      499
 91
      505
 93
      610
310
40901902A4063FBFFFFFE056BD1B81E855B9FC0AD7A3703D0AD73F4214DD185B99185C9900AD7A3703D0AC73F90140501A02B5E8DC0F42B1CFC02B5E8DC0F42B1CFE5764000000000000300FC0
340
14
340
0
340
11
340
0
 94
        0
1001
ACAD_MLEADERVER
1070
     2
  0
MLINESTYLE
  5
18
102
{ACAD_REACTORS
330
17
102
}
330
17
100
AcDbMlineStyle
  2
Standard
 70
     0
  3

 62
   256
 51
90.0
 52
90.0
 71
     2
 49
0.5
 62
   256
  6
BYLAYER
 49
-0.5
 62
   256
  6
BYLAYER
  0
ACAD_PROXY_OBJECT
  5
48
102
{ACAD_REACTORS
330
47
102
}
330
47
100
AcDbProxyObject
 90
      499
 91
      503
 93
       41
310
903313A31580
  0
ACAD_PROXY_OBJECT
  5
49
102
{ACAD_REACTORS
330
47
102
}
330
47
100
AcDbProxyObject
 90
      499
 91
      503
 93
      105
310
903313A324000000000000004000
  0
ACAD_PROXY_OBJECT
  5
4A
102
{ACAD_REACTORS
330
47
102
}
330
47
100
AcDbProxyObject
 90
      499
 91
      503
 93
      105
310
903313A344000000000000104000
  0
ACAD_PROXY_OBJECT
  5
4B
102
{ACAD_REACTORS
330
47
102
}
330
47
100
AcDbProxyObject
 90
      499
 91
      503
 93
      105
310
903313A354000000000000144000
  0
ACAD_PROXY_OBJECT
  5
4C
102
{ACAD_REACTORS
330
47
102
}
330
47
100
AcDbProxyObject
 90
      499
 91
      503
 93
      105
310
903313A384000000000000204000
  0
ACAD_PROXY_OBJECT
  5
4D
102
{ACAD_REACTORS
330
47
102
}
330
47
100
AcDbProxyObject
 90
      499
 91
      503
 93
      113
310
904313A31304000000000000244000
  0
ACAD_PROXY_OBJECT
  5
4E
102
{ACAD_REACTORS
330
47
102
}
330
47
100
AcDbProxyObject
 90
      499
 91
      503
 93
      113
310
904313A31364000000000000304000
  0
ACAD_PROXY_OBJECT
  5
4F
102
{ACAD_REACTORS
330
47
102
}
330
47
100
AcDbProxyObject
 90
      499
 91
      503
 93
      113
310
904313A32304000000000000344000
  0
ACAD_PROXY_OBJECT
  5
50
102
{ACAD_REACTORS
330
47
102
}
330
47
100
AcDbProxyObject
 90
      499
 91
      503
 93
      113
310
904313A333040000000000003E4000
  0
ACAD_PROXY_OBJECT
  5
51
102
{ACAD_REACTORS
330
47
102
}
330
47
100
AcDbProxyObject
 90
      499
 91
      503
 93
      113
310
904313A34304000000000000444000
  0
ACAD_PROXY_OBJECT
  5
52
102
{ACAD_REACTORS
330
47
102
}
330
47
100
AcDbProxyObject
 90
      499
 91
      503
 93
      113
310
904313A35304000000000000494000
  0
ACAD_PROXY_OBJECT
  5
53
102
{ACAD_REACTORS
330
47
102
}
330
47
100
AcDbProxyObject
 90
      499
 91
      503
 93
      121
310
905313A3130304000000000000594000
  0
ACAD_PROXY_OBJECT
  5
54
102
{ACAD_REACTORS
330
47
102
}
330
47
100
AcDbProxyObject
 90
      499
 91
      503
 93
      105
310
903323A310000000000000010100
  0
ACAD_PROXY_OBJECT
  5
55
102
{ACAD_REACTORS
330
47
102
}
330
47
100
AcDbProxyObject
 90
      499
 91
      503
 93
      105
310
903343A310000000000000410100
  0
ACAD_PROXY_OBJECT
  5
56
102
{ACAD_REACTORS
330
47
102
}
330
47
100
AcDbProxyObject
 90
      499
 91
      503
 93
      105
310
903383A310000000000000810100
  0
ACAD_PROXY_OBJECT
  5
57
102
{ACAD_REACTORS
330
47
102
}
330
47
100
AcDbProxyObject
 90
      499
 91
      503
 93
      113
310
90431303A310000000000000910100
  0
ACAD_PROXY_OBJECT
  5
58
102
{ACAD_REACTORS
330
47
102
}
330
47
100
AcDbProxyObject
 90
      499
 91
      503
 93
      121
310
9053130303A310000000000001650100
  0
ACAD_PROXY_OBJECT
  5
59
102
{ACAD_REACTORS
330
47
102
}
330
47
100
AcDbProxyObject
 90
      499
 91
      503
 93
      257
310
90E312F31323822203D2031272D3022000000000000200FC000000000000284000
  0
ACAD_PROXY_OBJECT
  5
5A
102
{ACAD_REACTORS
330
47
102
}
330
47
100
AcDbProxyObject
 90
      499
 91
      503
 93
      249
310
90D312F363422203D2031272D3022000000000000240FC000000000000284000
  0
ACAD_PROXY_OBJECT
  5
5B
102
{ACAD_REACTORS
330
47
102
}
330
47
100
AcDbProxyObject
 90
      499
 91
      503
 93
      249
310
90D312F333222203D2031272D3022000000000000280FC000000000000284000
  0
ACAD_PROXY_OBJECT
  5
5C
102
{ACAD_REACTORS
330
47
102
}
330
47
100
AcDbProxyObject
 90
      499
 91
      503
 93
      249
310
90D312F313622203D2031272D30220000000000002C0FC000000000000284000
  0
ACAD_PROXY_OBJECT
  5
5D
102
{ACAD_REACTORS
330
47
102
}
330
47
100
AcDbProxyObject
 90
      499
 91
      503
 93
      249
310
90D332F333222203D2031272D30220000000000002E0FC000000000000284000
  0
ACAD_PROXY_OBJECT
  5
5E
102
{ACAD_REACTORS
330
47
102
}
330
47
100
AcDbProxyObject
 90
      499
 91
      503
 93
      241
310
90C312F3822203D2031272D3022000000000000300FC000000000000284000
  0
ACAD_PROXY_OBJECT
  5
5F
102
{ACAD_REACTORS
330
47
102
}
330
47
100
AcDbProxyObject
 90
      499
 91
      503
 93
      249
310
90D332F313622203D2031272D3022000000000000320FC000000000000284000
  0
ACAD_PROXY_OBJECT
  5
60
102
{ACAD_REACTORS
330
47
102
}
330
47
100
AcDbProxyObject
 90
      499
 91
      503
 93
      241
310
90C312F3422203D2031272D3022000000000000340FC000000000000284000
  0
ACAD_PROXY_OBJECT
  5
61
102
{ACAD_REACTORS
330
47
102
}
330
47
100
AcDbProxyObject
 90
      499
 91
      503
 93
      241
310
90C332F3822203D2031272D3022000000000000360FC000000000000284000
  0
ACAD_PROXY_OBJECT
  5
62
102
{ACAD_REACTORS
330
47
102
}
330
47
100
AcDbProxyObject
 90
      499
 91
      503
 93
      241
310
90C312F3222203D2031272D3022000000000000380FC000000000000284000
  0
ACAD_PROXY_OBJECT
  5
63
102
{ACAD_REACTORS
330
47
102
}
330
47
100
AcDbProxyObject
 90
      499
 91
      503
 93
      241
310
90C332F3422203D2031272D30220000000000003A0FC000000000000284000
  0
ACAD_PROXY_OBJECT
  5
64
102
{ACAD_REACTORS
330
47
102
}
330
47
100
AcDbProxyObject
 90
      499
 91
      503
 93
      161
310
90A3122203D2031272D30224000000000000284000
  0
ACAD_PROXY_OBJECT
  5
65
102
{ACAD_REACTORS
330
47
102
}
330
47
100
AcDbProxyObject
 90
      499
 91
      503
 93
      257
310
90E312D312F3222203D2031272D30220000000000003E0FC000000000000284000
  0
ACAD_PROXY_OBJECT
  5
66
102
{ACAD_REACTORS
330
47
102
}
330
47
100
AcDbProxyObject
 90
      499
 91
      503
 93
      225
310
90A3322203D2031272D302200000000000002100000000000000284000
  0
ACAD_PROXY_OBJECT
  5
67
102
{ACAD_REACTORS
330
47
102
}
330
47
100
AcDbProxyObject
 90
      499
 91
      503
 93
      225
310
90A3622203D2031272D302200000000000006100000000000000284000
  0
ACAD_PROXY_OBJECT
  5
68
102
{ACAD_REACTORS
330
47
102
}
330
47
100
AcDbProxyObject
 90
      499
 91
      503
 93
      249
310
90D31272D3022203D2031272D30220000000000000A100000000000000284000
  0
ACAD_PROXY_OBJECT
  5
2F
102
{ACAD_REACTORS
330
2A
102
}
330
2A
100
AcDbProxyObject
 90
      499
 91
      501
 93
      436
310
42CC9915DA5C99599C985B595049028333333333333E33F0000000000000F90107901411070040501600405405064090741402480A0340
1001
ACAD
1000
AcDbSavedByObjectVersion
1070
     0
  0
ACAD_PROXY_OBJECT
  5
32
102
{ACAD_REACTORS
330
2A
102
}
330
2A
100
AcDbProxyObject
 90
      499
 91
      501
 93
      388
310
4150985CDA58D07406404333333333333E33F0000000000000F90107A41107004050150841D405064090741402480A0350
1001
ACAD
1000
AcDbSavedByObjectVersion
1070
     0
  0
ACAD_PROXY_OBJECT
  5
36
102
{ACAD_REACTORS
330
2A
102
}
330
2A
100
AcDbProxyObject
 90
      499
 91
      501
 93
      428
310
42109C9A59DA1D195B90C409028333333333333E33F0000000000000F9010790141107004050150841D405064090741402480A029950
1001
ACAD
1000
AcDbSavedByObjectVersion
1070
     0
  0
ACAD_PROXY_OBJECT
  5
3A
102
{ACAD_REACTORS
330
2A
102
}
330
2A
100
AcDbProxyObject
 90
      499
 91
      501
 93
      452
310
42D0DBDB1BDC90DA185B99D95104090240C333333333333E33F0000000000000F90108901411070040501508421405064090741402480A0350
1001
ACAD
1000
AcDbSavedByObjectVersion
1070
     0
  0
ACAD_PROXY_OBJECT
  5
34
102
{ACAD_REACTORS
330
2A
102
}
330
2A
100
AcDbProxyObject
 90
      499
 91
      501
 93
      500
310
4290DBDB98D95C1D1D585B10940D028333333333333E33F0000000000000F90107902409070040501000000000018199010841D405064090740C02480A0340
1001
ACAD
1000
AcDbSavedByObjectVersion
1070
     0
  0
ACAD_PROXY_OBJECT
  5
35
102
{ACAD_REACTORS
330
2A
102
}
330
2A
100
AcDbProxyObject
 90
      499
 91
      501
 93
      412
310
40D11A5B50B409028333333333333E33F0000000000000F9010790141107004050150841D405064090741402480A02677FFFFFD0
1001
ACAD
1000
AcDbSavedByObjectVersion
1070
     0
  0
ACAD_PROXY_OBJECT
  5
3D
102
{ACAD_REACTORS
330
2A
102
}
330
2A
100
AcDbProxyObject
 90
      499
 91
      501
 93
      452
310
43115919D950DBDB1BDC93D999916409028333333333333E33F0000000000000F9010790141107004050150841D405064090741402480A0350
1001
ACAD
1000
AcDbSavedByObjectVersion
1070
     0
  0
ACAD_PROXY_OBJECT
  5
39
102
{ACAD_REACTORS
330
2A
102
}
330
2A
100
AcDbProxyObject
 90
      499
 91
      501
 93
      444
310
42D19858D95C185D1D195C9B90F409028333333333333E33F0000000000000F9010790141107004050150841D405064090741402480A0350
1001
ACAD
1000
AcDbSavedByObjectVersion
1070
     0
  0
ACAD_PROXY_OBJECT
  5
2B
102
{ACAD_REACTORS
330
2A
102
}
330
2A
100
AcDbProxyObject
 90
      499
 91
      501
 93
      380
310
41119B185D240901404333333333333E33F0000000000000F9010740A907004050150841D405064090741402480A1B50
1001
ACAD
1000
AcDbSavedByObjectVersion
1070
     0
  0
ACAD_PROXY_OBJECT
  5
2C
102
{ACAD_REACTORS
330
2A
102
}
330
2A
100
AcDbProxyObject
 90
      499
 91
      501
 93
      468
310
43519B185D15DA5D1A115919D95CD0140901404333333333333E33F0000000000000F90107409019070040501600405405064090741402480A1B50
1001
ACAD
1000
AcDbSavedByObjectVersion
1070
     0
  0
ACAD_PROXY_OBJECT
  5
2D
102
{ACAD_REACTORS
330
2A
102
}
330
2A
100
AcDbProxyObject
 90
      499
 91
      501
 93
      404
310
41D1DBDD5C985D5910240902404333333333333E33F0000000000000F9010740A9070040501641D405064090741402480A1B50
1001
ACAD
1000
AcDbSavedByObjectVersion
1070
     0
  0
ACAD_PROXY_OBJECT
  5
2E
102
{ACAD_REACTORS
330
2A
102
}
330
2A
100
AcDbProxyObject
 90
      499
 91
      501
 93
      492
310
4411DBDD5C985D5915DA5D1A115919D95CD0340902404333333333333E33F0000000000000F90107409019070040501600405405064090741402480A1B50
1001
ACAD
1000
AcDbSavedByObjectVersion
1070
     0
  0
ACAD_PROXY_OBJECT
  5
31
102
{ACAD_REACTORS
330
2A
102
}
330
2A
100
AcDbProxyObject
 90
      499
 91
      501
 93
      476
310
41921A5919195B90640502408333333333333E33F0000000000000F901079024090700405020000000000001110200405405064090740C02480A0340
1001
ACAD
1000
AcDbSavedByObjectVersion
1070
     0
  0
ACAD_PROXY_OBJECT
  5
3B
102
{ACAD_REACTORS
330
2A
102
}
330
2A
100
AcDbProxyObject
 90
      499
 91
      501
 93
      428
310
42529A5D1D195C93D999914409028333333333333E33F0000000000000F9010790141107004050150A41D405064090741402480A0350
1001
ACAD
1000
AcDbSavedByObjectVersion
1070
     0
  0
ACAD_PROXY_OBJECT
  5
38
102
{ACAD_REACTORS
330
2A
102
}
330
2A
100
AcDbProxyObject
 90
      499
 91
      501
 93
      444
310
42D31A5B995C185D1D195C9B90E409028333333333333E33F0000000000000F9010790141107004050750841D405064090741402483A0350
1001
ACAD
1000
AcDbSavedByObjectVersion
1070
     0
  0
ACAD_PROXY_OBJECT
  5
3C
102
{ACAD_REACTORS
330
2A
102
}
330
2A
100
AcDbProxyObject
 90
      499
 91
      501
 93
      444
310
42D3DD995C9A185B99D3D999915409028333333333333E33F0000000000000F9010790141107004050150941D405064090741402480A0350
1001
ACAD
1000
AcDbSavedByObjectVersion
1070
     0
  0
ACAD_PROXY_OBJECT
  5
33
102
{ACAD_REACTORS
330
2A
102
}
330
2A
100
AcDbProxyObject
 90
      499
 91
      501
 93
      428
310
425499585B1A5CDD1A58D08409038333333333333E33F0000000000000F9010740A907004050150800405405064090740C02480A1B40
1001
ACAD
1000
AcDbSavedByObjectVersion
1070
     0
  0
ACAD_PROXY_OBJECT
  5
42
102
{ACAD_REACTORS
330
2A
102
}
330
2A
100
AcDbProxyObject
 90
      499
 91
      501
 93
      420
310
4194DA1859195911B40902404333333333333E33F0000000000000F9010740A41107004050150800405405064090840C02480A0B40
1001
ACAD
1000
AcDbSavedByObjectVersion
1070
     0
  0
ACAD_PROXY_OBJECT
  5
41
102
{ACAD_REACTORS
330
2A
102
}
330
2A
100
AcDbProxyObject
 90
      499
 91
      501
 93
      516
310
4454DA18591959081DDA5D1A08195919D95CD1A40902404333333333333E33F0000000000000F901074090142907004050250800405405064090740C02480A0B40
1001
ACAD
1000
AcDbSavedByObjectVersion
1070
     0
  0
ACAD_PROXY_OBJECT
  5
3E
102
{ACAD_REACTORS
330
2A
102
}
330
2A
100
AcDbProxyObject
 90
      499
 91
      501
 93
      532
310
4394DA1859195CC81BD98811DC985E5174090240C333333333333E33F0000000000000F901079024090741D01000000000000111010841D405064090740C02480A0340
1001
ACAD
1000
AcDbSavedByObjectVersion
1070
     0
  0
ACAD_PROXY_OBJECT
  5
3F
102
{ACAD_REACTORS
330
2A
102
}
330
2A
100
AcDbProxyObject
 90
      499
 91
      501
 93
      476
310
41D4DAD95D18DA1E51840502408333333333333E33F0000000000000F901079024090741D01000000000000111010B41D405064090741802480A0340
1001
ACAD
1000
AcDbSavedByObjectVersion
1070
     0
  0
ACAD_PROXY_OBJECT
  5
37
102
{ACAD_REACTORS
330
2A
102
}
330
2A
100
AcDbProxyObject
 90
      499
 91
      501
 93
      412
310
41D51A1A58DAD95B90D409028333333333333E33F0000000000000F9010790141107004050150C41D405064090741402480A0350
1001
ACAD
1000
AcDbSavedByObjectVersion
1070
     0
  0
ACAD_PROXY_OBJECT
  5
30
102
{ACAD_REACTORS
330
2A
102
}
330
2A
100
AcDbProxyObject
 90
      499
 91
      501
 93
      420
310
4255DA5C99599C985B595059028333333333333E33F0000000000000F90107901411070040501600405405064090740C02480A0340
1001
ACAD
1000
AcDbSavedByObjectVersion
1070
     0
  0
ACAD_PROXY_OBJECT
  5
40
102
{ACAD_REACTORS
330
2A
102
}
330
2A
100
AcDbProxyObject
 90
      499
 91
      501
 93
      404
310
41560B54985E51940902404000000000000E03F0000000000000F9010740501907004050150841D405064090740C02480A1B40
1001
ACAD
1000
AcDbSavedByObjectVersion
1070
     0
  0
XRECORD
  5
2B1
102
{ACAD_REACTORS
330
2A7
102
}
330
2A7
100
AcDbXrecord
340
0
  0
XRECORD
  5
2B0
102
{ACAD_REACTORS
330
2A7
102
}
330
2A7
100
AcDbXrecord
 90
        0
  0
XRECORD
  5
2C7
102
{ACAD_REACTORS
330
2A7
102
}
330
2A7
100
AcDbXrecord
1000
DSTYLE
1002
{
1070
   179
 70
     1
1070
   171
 70
     3
1070
   143
 40
0.03937
1070
   274
 70
     3
1070
   285
 70
     8
1070
    41
 40
2.5
1070
   141
 40
2.5
1070
   176
 70
     7
1070
   177
 70
     7
1070
   178
 70
     7
1070
   271
 70
     2
1070
    43
 40
3.75
1070
   278
 70
    44
1070
    44
 40
1.25
1070
    42
 40
0.625
1070
   147
 40
0.625
1070
   144
 40
4.0
1070
   371
 70
    13
1070
   372
 70
    13
1070
    77
 70
     1
1070
   272
 70
     2
1070
    73
 70
     0
1070
   172
 70
     1
1070
    74
 70
     0
1070
   283
 70
     0
1070
   340
340
73
1070
   140
 40
3.5
1070
   284
 70
     8
1070
   288
 70
     1
1070
    78
 70
     8
1002
}
  0
XRECORD
  5
2B2
102
{ACAD_REACTORS
330
2A7
102
}
330
2A7
100
AcDbXrecord
  1
{30393574-3273-7179-b373-6275b77177b1}
  0
XRECORD
  5
2AA
102
{ACAD_REACTORS
330
2A7
102
}
330
2A7
100
AcDbXrecord
  1

  0
XRECORD
  5
2AF
102
{ACAD_REACTORS
330
2A7
102
}
330
2A7
100
AcDbXrecord
 90
        0
  0
XRECORD
  5
2AC
102
{ACAD_REACTORS
330
2A7
102
}
330
2A7
100
AcDbXrecord
340
1A
  0
XRECORD
  5
2AE
102
{ACAD_REACTORS
330
2A7
102
}
330
2A7
100
AcDbXrecord
 90
    10269
  0
XRECORD
  5
2AD
102
{ACAD_REACTORS
330
2A7
102
}
330
2A7
100
AcDbXrecord
340
19
  0
XRECORD
  5
2B4
102
{ACAD_REACTORS
330
2A7
102
}
330
2A7
100
AcDbXrecord
 40
0.0
  0
XRECORD
  5
2B7
102
{ACAD_REACTORS
330
2A7
102
}
330
2A7
100
AcDbXrecord
340
0
  0
XRECORD
  5
2BD
102
{ACAD_REACTORS
330
2A7
102
}
330
2A7
100
AcDbXrecord
 10
0.0
 20
0.0
 30
0.0
  0
XRECORD
  5
2B9
102
{ACAD_REACTORS
330
2A7
102
}
330
2A7
100
AcDbXrecord
 10
0.0
 20
0.0
 30
0.0
  0
XRECORD
  5
2BC
102
{ACAD_REACTORS
330
2A7
102
}
330
2A7
100
AcDbXrecord
 10
0.0
 20
0.0
 30
0.0
  0
XRECORD
  5
2BA
102
{ACAD_REACTORS
330
2A7
102
}
330
2A7
100
AcDbXrecord
 10
0.0
 20
0.0
 30
0.0
  0
XRECORD
  5
2BB
102
{ACAD_REACTORS
330
2A7
102
}
330
2A7
100
AcDbXrecord
 10
0.0
 20
0.0
 30
0.0
  0
XRECORD
  5
2B8
102
{ACAD_REACTORS
330
2A7
102
}
330
2A7
100
AcDbXrecord
 10
0.0
 20
0.0
 30
0.0
  0
XRECORD
  5
2B5
102
{ACAD_REACTORS
330
2A7
102
}
330
2A7
100
AcDbXrecord
340
0
  0
XRECORD
  5
2B6
102
{ACAD_REACTORS
330
2A7
102
}
330
2A7
100
AcDbXrecord
 70
     0
  0
XRECORD
  5
2AB
102
{ACAD_REACTORS
330
2A7
102
}
330
2A7
100
AcDbXrecord
  1

  0
XRECORD
  5
2A8
102
{ACAD_REACTORS
330
2A7
102
}
330
2A7
100
AcDbXrecord
 90
        1
  0
XRECORD
  5
2A9
102
{ACAD_REACTORS
330
2A7
102
}
330
2A7
100
AcDbXrecord
 90
       70
  0
XRECORD
  5
2C0
102
{ACAD_REACTORS
330
2A7
102
}
330
2A7
100
AcDbXrecord
340
0
  0
XRECORD
  5
2C6
102
{ACAD_REACTORS
330
2A7
102
}
330
2A7
100
AcDbXrecord
 10
0.0
 20
0.0
 30
0.0
  0
XRECORD
  5
2C2
102
{ACAD_REACTORS
330
2A7
102
}
330
2A7
100
AcDbXrecord
 10
0.0
 20
0.0
 30
0.0
  0
XRECORD
  5
2C5
102
{ACAD_REACTORS
330
2A7
102
}
330
2A7
100
AcDbXrecord
 10
0.0
 20
0.0
 30
0.0
  0
XRECORD
  5
2C3
102
{ACAD_REACTORS
330
2A7
102
}
330
2A7
100
AcDbXrecord
 10
0.0
 20
0.0
 30
0.0
  0
XRECORD
  5
2C4
102
{ACAD_REACTORS
330
2A7
102
}
330
2A7
100
AcDbXrecord
 10
0.0
 20
0.0
 30
0.0
  0
XRECORD
  5
2C1
102
{ACAD_REACTORS
330
2A7
102
}
330
2A7
100
AcDbXrecord
 10
0.0
 20
0.0
 30
0.0
  0
XRECORD
  5
2BE
102
{ACAD_REACTORS
330
2A7
102
}
330
2A7
100
AcDbXrecord
340
0
  0
XRECORD
  5
2BF
102
{ACAD_REACTORS
330
2A7
102
}
330
2A7
100
AcDbXrecord
 70
     0
  0
XRECORD
  5
2B3
102
{ACAD_REACTORS
330
2A7
102
}
330
2A7
100
AcDbXrecord
  1
{FAEB1C32-E019-11D5-929B-00C0DF256EC4}
  0
DICTIONARYVAR
  5
2DA
102
{ACAD_REACTORS
330
6E
102
}
330
6E
100
DictionaryVariables
280
     0
  1
1:1
  0
DICTIONARYVAR
  5
2C9
102
{ACAD_REACTORS
330
6E
102
}
330
6E
100
DictionaryVariables
280
     0
  1
Standard
  0
DICTIONARYVAR
  5
2C8
102
{ACAD_REACTORS
330
6E
102
}
330
6E
100
DictionaryVariables
280
     0
  1
Onshape-Standard
  0
DICTIONARYVAR
  5
2CC
102
{ACAD_REACTORS
330
6E
102
}
330
6E
100
DictionaryVariables
280
     0
  1
2
  0
DICTIONARYVAR
  5
2CD
102
{ACAD_REACTORS
330
6E
102
}
330
6E
100
DictionaryVariables
280
     0
  1
1
  0
DICTIONARYVAR
  5
2DB
102
{ACAD_REACTORS
330
6E
102
}
330
6E
100
DictionaryVariables
280
     0
  1
1
  0
DICTIONARYVAR
  5
6F
102
{ACAD_REACTORS
330
6E
102
}
330
6E
100
DictionaryVariables
280
     0
  1
0
  0
XRECORD
  5
247
102
{ACAD_REACTORS
330
246
102
}
330
246
100
AcDbXrecord
 70
     0
  0
XRECORD
  5
24A
102
{ACAD_REACTORS
330
246
102
}
330
246
100
AcDbXrecord
 90
        0
  0
ACAD_PROXY_OBJECT
  5
250
102
{ACAD_REACTORS
330
246
102
}
330
246
100
AcDbProxyObject
 90
      499
 91
      511
 93
       34
310
40C8804040
  0
XRECORD
  5
24F
102
{ACAD_REACTORS
330
246
102
}
330
246
100
AcDbXrecord
 90
        5
  0
XRECORD
  5
24B
102
{ACAD_REACTORS
330
246
102
}
330
246
100
AcDbXrecord
 90
        0
  0
XRECORD
  5
24D
102
{ACAD_REACTORS
330
246
102
}
330
246
100
AcDbXrecord
 90
        0
  0
ACAD_PROXY_OBJECT
  5
24E
102
{ACAD_REACTORS
330
246
102
}
330
246
100
AcDbProxyObject
 90
      499
 91
      511
 93
       34
310
40C8804040
  0
ACAD_PROXY_OBJECT
  5
24C
102
{ACAD_REACTORS
330
246
102
}
330
246
100
AcDbProxyObject
 90
      499
 91
      511
 93
       34
310
40C8804040
  0
XRECORD
  5
249
102
{ACAD_REACTORS
330
246
102
}
330
246
100
AcDbXrecord
 90
        0
  0
XRECORD
  5
248
102
{ACAD_REACTORS
330
246
102
}
330
246
100
AcDbXrecord
 90
        1
  0
DICTIONARY
  5
2DE
330
45
100
AcDbDictionary
280
     1
  3
ACAD_XREC_ROUNDTRIP
360
2DF
  0
DICTIONARY
  5
2DC
330
44
100
AcDbDictionary
280
     1
  3
ACAD_XREC_ROUNDTRIP
360
2DD
  0
DICTIONARY
  5
2E0
330
46
100
AcDbDictionary
280
     1
  3
ACAD_XREC_ROUNDTRIP
360
2E1
  0
XRECORD
  5
2DF
102
{ACAD_REACTORS
330
2DE
102
}
330
2DE
100
AcDbXrecord
102
MATERIAL
148
0.0
149
0.0
149
0.0
 93
        0
 94
      127
282
     0
 72
     1
 77
     1
171
     1
175
     1
179
     1
273
     0
  0
XRECORD
  5
2DD
102
{ACAD_REACTORS
330
2DC
102
}
330
2DC
100
AcDbXrecord
102
MATERIAL
148
0.0
149
0.0
149
0.0
 93
        0
 94
      127
282
     0
 72
     1
 77
     1
171
     1
175
     1
179
     1
273
     0
  0
XRECORD
  5
2E1
102
{ACAD_REACTORS
330
2E0
102
}
330
2E0
100
AcDbXrecord
102
MATERIAL
148
0.0
149
0.0
149
0.0
 93
        0
 94
      127
282
     0
 72
     1
 77
     1
171
     1
175
     1
179
     1
273
     0
  0
ENDSEC
  0
EOF
