ISO-10303-21;
HEADER;
/* Generated by software containing ST-Developer
 * from STEP Tools, Inc. (www.steptools.com) 
 */
/* OPTION: using custom renumber hook */

FILE_DESCRIPTION(
/* description */ ('STEP AP242 Edition 2',
'CAx-IF Rec.Pracs.---Representation and Presentation of Product Manufa
cturing Information (PMI)---4.0---2014-10-13',
'CAx-IF Rec.Pracs.---3D Tessellated Geometry---0.4---2014-09-14','2;1',
'CAx-IF Rec.Pracs.---User Defined Attributes---1.5---2016-08-15'),
/* implementation_level */ '2;1');

FILE_NAME(
/* name */ '698c7d49d9c976ddab44e385',
/* time_stamp */ '2026-02-11T13:00:03Z',
/* author */ (''),
/* organization */ (''),
/* preprocessor_version */ 'ST-DEVELOPER v20',
/* originating_system */ 'ONSHAPE BY PTC INC, 1.210',
/* authorisation */ '  ');

FILE_SCHEMA (('AP242_MANAGED_MODEL_BASED_3D_ENGINEERING_MIM_LF { 1 0 10303 442 3 1 4 }'));
ENDSEC;

DATA;
#10=SHAPE_REPRESENTATION_RELATIONSHIP('','',#789,#11);
#11=ADVANCED_BREP_SHAPE_REPRESENTATION('',(#787),#1263);
#12=CYLINDRICAL_SURFACE('',#822,0.0134);
#13=CYLINDRICAL_SURFACE('',#826,0.0114);
#14=CYLINDRICAL_SURFACE('',#827,0.0134);
#15=CYLINDRICAL_SURFACE('',#831,0.0114);
#16=CYLINDRICAL_SURFACE('',#844,0.0045);
#17=CYLINDRICAL_SURFACE('',#845,0.0045);
#18=CYLINDRICAL_SURFACE('',#846,0.0045);
#19=CYLINDRICAL_SURFACE('',#847,0.0045);
#20=CIRCLE('',#793,0.0114);
#21=CIRCLE('',#796,0.0114);
#22=CIRCLE('',#802,0.0045);
#23=CIRCLE('',#803,0.0045);
#24=CIRCLE('',#804,0.0045);
#25=CIRCLE('',#805,0.0045);
#26=CIRCLE('',#808,0.0134);
#27=CIRCLE('',#811,0.0134);
#28=CIRCLE('',#823,0.0134);
#29=CIRCLE('',#825,0.0114);
#30=CIRCLE('',#828,0.0134);
#31=CIRCLE('',#830,0.0114);
#32=CIRCLE('',#833,0.0045);
#33=CIRCLE('',#836,0.0045);
#34=CIRCLE('',#840,0.0045);
#35=CIRCLE('',#843,0.0045);
#36=ORIENTED_EDGE('',*,*,#236,.F.);
#37=ORIENTED_EDGE('',*,*,#237,.F.);
#38=ORIENTED_EDGE('',*,*,#238,.T.);
#39=ORIENTED_EDGE('',*,*,#239,.T.);
#40=ORIENTED_EDGE('',*,*,#240,.F.);
#41=ORIENTED_EDGE('',*,*,#241,.T.);
#42=ORIENTED_EDGE('',*,*,#242,.T.);
#43=ORIENTED_EDGE('',*,*,#243,.T.);
#44=ORIENTED_EDGE('',*,*,#244,.F.);
#45=ORIENTED_EDGE('',*,*,#245,.T.);
#46=ORIENTED_EDGE('',*,*,#246,.T.);
#47=ORIENTED_EDGE('',*,*,#247,.T.);
#48=ORIENTED_EDGE('',*,*,#248,.F.);
#49=ORIENTED_EDGE('',*,*,#249,.F.);
#50=ORIENTED_EDGE('',*,*,#250,.T.);
#51=ORIENTED_EDGE('',*,*,#251,.F.);
#52=ORIENTED_EDGE('',*,*,#252,.F.);
#53=ORIENTED_EDGE('',*,*,#253,.T.);
#54=ORIENTED_EDGE('',*,*,#254,.T.);
#55=ORIENTED_EDGE('',*,*,#255,.T.);
#56=ORIENTED_EDGE('',*,*,#256,.T.);
#57=ORIENTED_EDGE('',*,*,#257,.F.);
#58=ORIENTED_EDGE('',*,*,#238,.F.);
#59=ORIENTED_EDGE('',*,*,#258,.T.);
#60=ORIENTED_EDGE('',*,*,#259,.T.);
#61=ORIENTED_EDGE('',*,*,#253,.F.);
#62=ORIENTED_EDGE('',*,*,#260,.T.);
#63=ORIENTED_EDGE('',*,*,#261,.T.);
#64=ORIENTED_EDGE('',*,*,#262,.F.);
#65=ORIENTED_EDGE('',*,*,#263,.F.);
#66=ORIENTED_EDGE('',*,*,#264,.F.);
#67=ORIENTED_EDGE('',*,*,#265,.T.);
#68=ORIENTED_EDGE('',*,*,#266,.F.);
#69=ORIENTED_EDGE('',*,*,#267,.F.);
#70=ORIENTED_EDGE('',*,*,#268,.F.);
#71=ORIENTED_EDGE('',*,*,#248,.T.);
#72=ORIENTED_EDGE('',*,*,#269,.T.);
#73=ORIENTED_EDGE('',*,*,#270,.F.);
#74=ORIENTED_EDGE('',*,*,#266,.T.);
#75=ORIENTED_EDGE('',*,*,#271,.T.);
#76=ORIENTED_EDGE('',*,*,#272,.F.);
#77=ORIENTED_EDGE('',*,*,#273,.F.);
#78=ORIENTED_EDGE('',*,*,#247,.F.);
#79=ORIENTED_EDGE('',*,*,#274,.T.);
#80=ORIENTED_EDGE('',*,*,#275,.T.);
#81=ORIENTED_EDGE('',*,*,#269,.F.);
#82=ORIENTED_EDGE('',*,*,#276,.F.);
#83=ORIENTED_EDGE('',*,*,#243,.F.);
#84=ORIENTED_EDGE('',*,*,#277,.T.);
#85=ORIENTED_EDGE('',*,*,#278,.T.);
#86=ORIENTED_EDGE('',*,*,#279,.T.);
#87=ORIENTED_EDGE('',*,*,#280,.T.);
#88=ORIENTED_EDGE('',*,*,#281,.T.);
#89=ORIENTED_EDGE('',*,*,#282,.F.);
#90=ORIENTED_EDGE('',*,*,#283,.T.);
#91=ORIENTED_EDGE('',*,*,#270,.T.);
#92=ORIENTED_EDGE('',*,*,#275,.F.);
#93=ORIENTED_EDGE('',*,*,#284,.F.);
#94=ORIENTED_EDGE('',*,*,#285,.F.);
#95=ORIENTED_EDGE('',*,*,#286,.T.);
#96=ORIENTED_EDGE('',*,*,#278,.F.);
#97=ORIENTED_EDGE('',*,*,#287,.F.);
#98=ORIENTED_EDGE('',*,*,#288,.F.);
#99=ORIENTED_EDGE('',*,*,#289,.T.);
#100=ORIENTED_EDGE('',*,*,#290,.F.);
#101=ORIENTED_EDGE('',*,*,#256,.F.);
#102=ORIENTED_EDGE('',*,*,#291,.F.);
#103=ORIENTED_EDGE('',*,*,#292,.F.);
#104=ORIENTED_EDGE('',*,*,#293,.F.);
#105=ORIENTED_EDGE('',*,*,#294,.F.);
#106=ORIENTED_EDGE('',*,*,#281,.F.);
#107=ORIENTED_EDGE('',*,*,#295,.F.);
#108=ORIENTED_EDGE('',*,*,#251,.T.);
#109=ORIENTED_EDGE('',*,*,#296,.T.);
#110=ORIENTED_EDGE('',*,*,#297,.T.);
#111=ORIENTED_EDGE('',*,*,#298,.T.);
#112=ORIENTED_EDGE('',*,*,#299,.F.);
#113=ORIENTED_EDGE('',*,*,#300,.F.);
#114=ORIENTED_EDGE('',*,*,#300,.T.);
#115=ORIENTED_EDGE('',*,*,#301,.T.);
#116=ORIENTED_EDGE('',*,*,#302,.F.);
#117=ORIENTED_EDGE('',*,*,#303,.F.);
#118=ORIENTED_EDGE('',*,*,#303,.T.);
#119=ORIENTED_EDGE('',*,*,#304,.T.);
#120=ORIENTED_EDGE('',*,*,#305,.F.);
#121=ORIENTED_EDGE('',*,*,#297,.F.);
#122=ORIENTED_EDGE('',*,*,#306,.F.);
#123=ORIENTED_EDGE('',*,*,#305,.T.);
#124=ORIENTED_EDGE('',*,*,#307,.T.);
#125=ORIENTED_EDGE('',*,*,#308,.F.);
#126=ORIENTED_EDGE('',*,*,#298,.F.);
#127=ORIENTED_EDGE('',*,*,#308,.T.);
#128=ORIENTED_EDGE('',*,*,#309,.F.);
#129=ORIENTED_EDGE('',*,*,#301,.F.);
#130=ORIENTED_EDGE('',*,*,#299,.T.);
#131=ORIENTED_EDGE('',*,*,#310,.F.);
#132=ORIENTED_EDGE('',*,*,#302,.T.);
#133=ORIENTED_EDGE('',*,*,#309,.T.);
#134=ORIENTED_EDGE('',*,*,#307,.F.);
#135=ORIENTED_EDGE('',*,*,#304,.F.);
#136=ORIENTED_EDGE('',*,*,#311,.F.);
#137=ORIENTED_EDGE('',*,*,#239,.F.);
#138=ORIENTED_EDGE('',*,*,#257,.T.);
#139=ORIENTED_EDGE('',*,*,#290,.T.);
#140=ORIENTED_EDGE('',*,*,#261,.F.);
#141=ORIENTED_EDGE('',*,*,#312,.F.);
#142=ORIENTED_EDGE('',*,*,#313,.F.);
#143=ORIENTED_EDGE('',*,*,#236,.T.);
#144=ORIENTED_EDGE('',*,*,#295,.T.);
#145=ORIENTED_EDGE('',*,*,#280,.F.);
#146=ORIENTED_EDGE('',*,*,#314,.T.);
#147=ORIENTED_EDGE('',*,*,#315,.T.);
#148=ORIENTED_EDGE('',*,*,#282,.T.);
#149=ORIENTED_EDGE('',*,*,#296,.F.);
#150=ORIENTED_EDGE('',*,*,#250,.F.);
#151=ORIENTED_EDGE('',*,*,#316,.T.);
#152=ORIENTED_EDGE('',*,*,#317,.T.);
#153=ORIENTED_EDGE('',*,*,#272,.T.);
#154=ORIENTED_EDGE('',*,*,#318,.F.);
#155=ORIENTED_EDGE('',*,*,#319,.T.);
#156=ORIENTED_EDGE('',*,*,#277,.F.);
#157=ORIENTED_EDGE('',*,*,#242,.F.);
#158=ORIENTED_EDGE('',*,*,#320,.T.);
#159=ORIENTED_EDGE('',*,*,#287,.T.);
#160=ORIENTED_EDGE('',*,*,#311,.T.);
#161=ORIENTED_EDGE('',*,*,#289,.F.);
#162=ORIENTED_EDGE('',*,*,#321,.F.);
#163=ORIENTED_EDGE('',*,*,#240,.T.);
#164=ORIENTED_EDGE('',*,*,#320,.F.);
#165=ORIENTED_EDGE('',*,*,#241,.F.);
#166=ORIENTED_EDGE('',*,*,#321,.T.);
#167=ORIENTED_EDGE('',*,*,#288,.T.);
#168=ORIENTED_EDGE('',*,*,#276,.T.);
#169=ORIENTED_EDGE('',*,*,#286,.F.);
#170=ORIENTED_EDGE('',*,*,#322,.F.);
#171=ORIENTED_EDGE('',*,*,#244,.T.);
#172=ORIENTED_EDGE('',*,*,#274,.F.);
#173=ORIENTED_EDGE('',*,*,#246,.F.);
#174=ORIENTED_EDGE('',*,*,#323,.T.);
#175=ORIENTED_EDGE('',*,*,#284,.T.);
#176=ORIENTED_EDGE('',*,*,#245,.F.);
#177=ORIENTED_EDGE('',*,*,#322,.T.);
#178=ORIENTED_EDGE('',*,*,#285,.T.);
#179=ORIENTED_EDGE('',*,*,#323,.F.);
#180=ORIENTED_EDGE('',*,*,#324,.F.);
#181=ORIENTED_EDGE('',*,*,#306,.T.);
#182=ORIENTED_EDGE('',*,*,#325,.F.);
#183=ORIENTED_EDGE('',*,*,#324,.T.);
#184=ORIENTED_EDGE('',*,*,#259,.F.);
#185=ORIENTED_EDGE('',*,*,#325,.T.);
#186=ORIENTED_EDGE('',*,*,#326,.F.);
#187=ORIENTED_EDGE('',*,*,#310,.T.);
#188=ORIENTED_EDGE('',*,*,#327,.F.);
#189=ORIENTED_EDGE('',*,*,#326,.T.);
#190=ORIENTED_EDGE('',*,*,#327,.T.);
#191=ORIENTED_EDGE('',*,*,#263,.T.);
#192=ORIENTED_EDGE('',*,*,#328,.F.);
#193=ORIENTED_EDGE('',*,*,#316,.F.);
#194=ORIENTED_EDGE('',*,*,#249,.T.);
#195=ORIENTED_EDGE('',*,*,#268,.T.);
#196=ORIENTED_EDGE('',*,*,#329,.T.);
#197=ORIENTED_EDGE('',*,*,#329,.F.);
#198=ORIENTED_EDGE('',*,*,#267,.T.);
#199=ORIENTED_EDGE('',*,*,#273,.T.);
#200=ORIENTED_EDGE('',*,*,#317,.F.);
#201=ORIENTED_EDGE('',*,*,#330,.F.);
#202=ORIENTED_EDGE('',*,*,#331,.F.);
#203=ORIENTED_EDGE('',*,*,#264,.T.);
#204=ORIENTED_EDGE('',*,*,#283,.F.);
#205=ORIENTED_EDGE('',*,*,#319,.F.);
#206=ORIENTED_EDGE('',*,*,#265,.F.);
#207=ORIENTED_EDGE('',*,*,#331,.T.);
#208=ORIENTED_EDGE('',*,*,#318,.T.);
#209=ORIENTED_EDGE('',*,*,#271,.F.);
#210=ORIENTED_EDGE('',*,*,#254,.F.);
#211=ORIENTED_EDGE('',*,*,#262,.T.);
#212=ORIENTED_EDGE('',*,*,#315,.F.);
#213=ORIENTED_EDGE('',*,*,#332,.F.);
#214=ORIENTED_EDGE('',*,*,#333,.F.);
#215=ORIENTED_EDGE('',*,*,#255,.F.);
#216=ORIENTED_EDGE('',*,*,#332,.T.);
#217=ORIENTED_EDGE('',*,*,#314,.F.);
#218=ORIENTED_EDGE('',*,*,#279,.F.);
#219=ORIENTED_EDGE('',*,*,#260,.F.);
#220=ORIENTED_EDGE('',*,*,#252,.T.);
#221=ORIENTED_EDGE('',*,*,#334,.T.);
#222=ORIENTED_EDGE('',*,*,#312,.T.);
#223=ORIENTED_EDGE('',*,*,#335,.F.);
#224=ORIENTED_EDGE('',*,*,#258,.F.);
#225=ORIENTED_EDGE('',*,*,#237,.T.);
#226=ORIENTED_EDGE('',*,*,#313,.T.);
#227=ORIENTED_EDGE('',*,*,#334,.F.);
#228=ORIENTED_EDGE('',*,*,#293,.T.);
#229=ORIENTED_EDGE('',*,*,#335,.T.);
#230=ORIENTED_EDGE('',*,*,#294,.T.);
#231=ORIENTED_EDGE('',*,*,#333,.T.);
#232=ORIENTED_EDGE('',*,*,#291,.T.);
#233=ORIENTED_EDGE('',*,*,#330,.T.);
#234=ORIENTED_EDGE('',*,*,#292,.T.);
#235=ORIENTED_EDGE('',*,*,#328,.T.);
#236=EDGE_CURVE('',#336,#337,#408,.T.);
#237=EDGE_CURVE('',#338,#336,#409,.T.);
#238=EDGE_CURVE('',#338,#339,#410,.T.);
#239=EDGE_CURVE('',#339,#340,#411,.T.);
#240=EDGE_CURVE('',#341,#340,#412,.T.);
#241=EDGE_CURVE('',#341,#342,#413,.T.);
#242=EDGE_CURVE('',#342,#343,#414,.T.);
#243=EDGE_CURVE('',#343,#344,#415,.T.);
#244=EDGE_CURVE('',#345,#344,#416,.T.);
#245=EDGE_CURVE('',#345,#346,#417,.T.);
#246=EDGE_CURVE('',#346,#347,#418,.T.);
#247=EDGE_CURVE('',#347,#348,#419,.T.);
#248=EDGE_CURVE('',#349,#348,#420,.T.);
#249=EDGE_CURVE('',#350,#349,#421,.T.);
#250=EDGE_CURVE('',#350,#351,#422,.T.);
#251=EDGE_CURVE('',#337,#351,#423,.T.);
#252=EDGE_CURVE('',#352,#353,#424,.T.);
#253=EDGE_CURVE('',#352,#354,#425,.T.);
#254=EDGE_CURVE('',#354,#355,#426,.T.);
#255=EDGE_CURVE('',#355,#356,#427,.T.);
#256=EDGE_CURVE('',#356,#357,#428,.T.);
#257=EDGE_CURVE('',#339,#357,#429,.T.);
#258=EDGE_CURVE('',#338,#353,#430,.T.);
#259=EDGE_CURVE('',#358,#358,#20,.F.);
#260=EDGE_CURVE('',#352,#359,#431,.T.);
#261=EDGE_CURVE('',#359,#360,#432,.T.);
#262=EDGE_CURVE('',#354,#360,#433,.T.);
#263=EDGE_CURVE('',#361,#361,#21,.F.);
#264=EDGE_CURVE('',#362,#363,#434,.T.);
#265=EDGE_CURVE('',#362,#364,#435,.T.);
#266=EDGE_CURVE('',#365,#364,#436,.T.);
#267=EDGE_CURVE('',#366,#365,#437,.T.);
#268=EDGE_CURVE('',#349,#366,#438,.T.);
#269=EDGE_CURVE('',#348,#367,#439,.T.);
#270=EDGE_CURVE('',#363,#367,#440,.T.);
#271=EDGE_CURVE('',#364,#368,#441,.T.);
#272=EDGE_CURVE('',#369,#368,#442,.T.);
#273=EDGE_CURVE('',#365,#369,#443,.T.);
#274=EDGE_CURVE('',#347,#370,#444,.T.);
#275=EDGE_CURVE('',#370,#367,#445,.T.);
#276=EDGE_CURVE('',#344,#371,#446,.T.);
#277=EDGE_CURVE('',#343,#372,#447,.T.);
#278=EDGE_CURVE('',#372,#371,#448,.T.);
#279=EDGE_CURVE('',#356,#373,#449,.T.);
#280=EDGE_CURVE('',#373,#374,#450,.T.);
#281=EDGE_CURVE('',#374,#375,#451,.T.);
#282=EDGE_CURVE('',#376,#375,#452,.T.);
#283=EDGE_CURVE('',#376,#363,#453,.T.);
#284=EDGE_CURVE('',#377,#370,#454,.T.);
#285=EDGE_CURVE('',#378,#377,#455,.T.);
#286=EDGE_CURVE('',#378,#371,#456,.T.);
#287=EDGE_CURVE('',#379,#372,#457,.T.);
#288=EDGE_CURVE('',#380,#379,#458,.T.);
#289=EDGE_CURVE('',#380,#381,#459,.T.);
#290=EDGE_CURVE('',#357,#381,#460,.T.);
#291=EDGE_CURVE('',#382,#382,#22,.T.);
#292=EDGE_CURVE('',#383,#383,#23,.T.);
#293=EDGE_CURVE('',#384,#384,#24,.T.);
#294=EDGE_CURVE('',#385,#385,#25,.T.);
#295=EDGE_CURVE('',#337,#374,#461,.T.);
#296=EDGE_CURVE('',#351,#375,#462,.T.);
#297=EDGE_CURVE('',#386,#387,#463,.T.);
#298=EDGE_CURVE('',#387,#388,#464,.T.);
#299=EDGE_CURVE('',#389,#388,#465,.T.);
#300=EDGE_CURVE('',#386,#389,#466,.T.);
#301=EDGE_CURVE('',#389,#390,#467,.T.);
#302=EDGE_CURVE('',#391,#390,#468,.T.);
#303=EDGE_CURVE('',#386,#391,#469,.T.);
#304=EDGE_CURVE('',#391,#392,#470,.T.);
#305=EDGE_CURVE('',#387,#392,#471,.T.);
#306=EDGE_CURVE('',#393,#393,#26,.T.);
#307=EDGE_CURVE('',#392,#394,#472,.T.);
#308=EDGE_CURVE('',#388,#394,#473,.T.);
#309=EDGE_CURVE('',#390,#394,#474,.T.);
#310=EDGE_CURVE('',#395,#395,#27,.T.);
#311=EDGE_CURVE('',#340,#381,#475,.T.);
#312=EDGE_CURVE('',#396,#359,#476,.T.);
#313=EDGE_CURVE('',#336,#396,#477,.T.);
#314=EDGE_CURVE('',#373,#397,#478,.T.);
#315=EDGE_CURVE('',#397,#360,#479,.T.);
#316=EDGE_CURVE('',#350,#398,#480,.T.);
#317=EDGE_CURVE('',#398,#369,#481,.T.);
#318=EDGE_CURVE('',#399,#368,#482,.T.);
#319=EDGE_CURVE('',#399,#376,#483,.T.);
#320=EDGE_CURVE('',#342,#379,#484,.T.);
#321=EDGE_CURVE('',#341,#380,#485,.T.);
#322=EDGE_CURVE('',#345,#378,#486,.T.);
#323=EDGE_CURVE('',#346,#377,#487,.T.);
#324=EDGE_CURVE('',#400,#400,#28,.T.);
#325=EDGE_CURVE('',#401,#401,#29,.T.);
#326=EDGE_CURVE('',#402,#402,#30,.T.);
#327=EDGE_CURVE('',#403,#403,#31,.T.);
#328=EDGE_CURVE('',#404,#404,#32,.F.);
#329=EDGE_CURVE('',#366,#398,#488,.T.);
#330=EDGE_CURVE('',#405,#405,#33,.F.);
#331=EDGE_CURVE('',#362,#399,#489,.T.);
#332=EDGE_CURVE('',#355,#397,#490,.T.);
#333=EDGE_CURVE('',#406,#406,#34,.F.);
#334=EDGE_CURVE('',#353,#396,#491,.T.);
#335=EDGE_CURVE('',#407,#407,#35,.F.);
#336=VERTEX_POINT('',#1051);
#337=VERTEX_POINT('',#1052);
#338=VERTEX_POINT('',#1054);
#339=VERTEX_POINT('',#1056);
#340=VERTEX_POINT('',#1058);
#341=VERTEX_POINT('',#1060);
#342=VERTEX_POINT('',#1062);
#343=VERTEX_POINT('',#1064);
#344=VERTEX_POINT('',#1066);
#345=VERTEX_POINT('',#1068);
#346=VERTEX_POINT('',#1070);
#347=VERTEX_POINT('',#1072);
#348=VERTEX_POINT('',#1074);
#349=VERTEX_POINT('',#1076);
#350=VERTEX_POINT('',#1078);
#351=VERTEX_POINT('',#1080);
#352=VERTEX_POINT('',#1084);
#353=VERTEX_POINT('',#1085);
#354=VERTEX_POINT('',#1087);
#355=VERTEX_POINT('',#1089);
#356=VERTEX_POINT('',#1091);
#357=VERTEX_POINT('',#1093);
#358=VERTEX_POINT('',#1097);
#359=VERTEX_POINT('',#1100);
#360=VERTEX_POINT('',#1102);
#361=VERTEX_POINT('',#1106);
#362=VERTEX_POINT('',#1108);
#363=VERTEX_POINT('',#1109);
#364=VERTEX_POINT('',#1111);
#365=VERTEX_POINT('',#1113);
#366=VERTEX_POINT('',#1115);
#367=VERTEX_POINT('',#1118);
#368=VERTEX_POINT('',#1122);
#369=VERTEX_POINT('',#1124);
#370=VERTEX_POINT('',#1128);
#371=VERTEX_POINT('',#1132);
#372=VERTEX_POINT('',#1134);
#373=VERTEX_POINT('',#1138);
#374=VERTEX_POINT('',#1140);
#375=VERTEX_POINT('',#1142);
#376=VERTEX_POINT('',#1144);
#377=VERTEX_POINT('',#1147);
#378=VERTEX_POINT('',#1149);
#379=VERTEX_POINT('',#1152);
#380=VERTEX_POINT('',#1154);
#381=VERTEX_POINT('',#1156);
#382=VERTEX_POINT('',#1160);
#383=VERTEX_POINT('',#1162);
#384=VERTEX_POINT('',#1164);
#385=VERTEX_POINT('',#1166);
#386=VERTEX_POINT('',#1170);
#387=VERTEX_POINT('',#1171);
#388=VERTEX_POINT('',#1173);
#389=VERTEX_POINT('',#1175);
#390=VERTEX_POINT('',#1179);
#391=VERTEX_POINT('',#1181);
#392=VERTEX_POINT('',#1185);
#393=VERTEX_POINT('',#1188);
#394=VERTEX_POINT('',#1191);
#395=VERTEX_POINT('',#1196);
#396=VERTEX_POINT('',#1202);
#397=VERTEX_POINT('',#1205);
#398=VERTEX_POINT('',#1209);
#399=VERTEX_POINT('',#1212);
#400=VERTEX_POINT('',#1226);
#401=VERTEX_POINT('',#1229);
#402=VERTEX_POINT('',#1233);
#403=VERTEX_POINT('',#1236);
#404=VERTEX_POINT('',#1240);
#405=VERTEX_POINT('',#1245);
#406=VERTEX_POINT('',#1252);
#407=VERTEX_POINT('',#1257);
#408=LINE('',#1050,#492);
#409=LINE('',#1053,#493);
#410=LINE('',#1055,#494);
#411=LINE('',#1057,#495);
#412=LINE('',#1059,#496);
#413=LINE('',#1061,#497);
#414=LINE('',#1063,#498);
#415=LINE('',#1065,#499);
#416=LINE('',#1067,#500);
#417=LINE('',#1069,#501);
#418=LINE('',#1071,#502);
#419=LINE('',#1073,#503);
#420=LINE('',#1075,#504);
#421=LINE('',#1077,#505);
#422=LINE('',#1079,#506);
#423=LINE('',#1081,#507);
#424=LINE('',#1083,#508);
#425=LINE('',#1086,#509);
#426=LINE('',#1088,#510);
#427=LINE('',#1090,#511);
#428=LINE('',#1092,#512);
#429=LINE('',#1094,#513);
#430=LINE('',#1095,#514);
#431=LINE('',#1099,#515);
#432=LINE('',#1101,#516);
#433=LINE('',#1103,#517);
#434=LINE('',#1107,#518);
#435=LINE('',#1110,#519);
#436=LINE('',#1112,#520);
#437=LINE('',#1114,#521);
#438=LINE('',#1116,#522);
#439=LINE('',#1117,#523);
#440=LINE('',#1119,#524);
#441=LINE('',#1121,#525);
#442=LINE('',#1123,#526);
#443=LINE('',#1125,#527);
#444=LINE('',#1127,#528);
#445=LINE('',#1129,#529);
#446=LINE('',#1131,#530);
#447=LINE('',#1133,#531);
#448=LINE('',#1135,#532);
#449=LINE('',#1137,#533);
#450=LINE('',#1139,#534);
#451=LINE('',#1141,#535);
#452=LINE('',#1143,#536);
#453=LINE('',#1145,#537);
#454=LINE('',#1146,#538);
#455=LINE('',#1148,#539);
#456=LINE('',#1150,#540);
#457=LINE('',#1151,#541);
#458=LINE('',#1153,#542);
#459=LINE('',#1155,#543);
#460=LINE('',#1157,#544);
#461=LINE('',#1167,#545);
#462=LINE('',#1168,#546);
#463=LINE('',#1169,#547);
#464=LINE('',#1172,#548);
#465=LINE('',#1174,#549);
#466=LINE('',#1176,#550);
#467=LINE('',#1178,#551);
#468=LINE('',#1180,#552);
#469=LINE('',#1182,#553);
#470=LINE('',#1184,#554);
#471=LINE('',#1186,#555);
#472=LINE('',#1190,#556);
#473=LINE('',#1192,#557);
#474=LINE('',#1194,#558);
#475=LINE('',#1199,#559);
#476=LINE('',#1201,#560);
#477=LINE('',#1203,#561);
#478=LINE('',#1204,#562);
#479=LINE('',#1206,#563);
#480=LINE('',#1208,#564);
#481=LINE('',#1210,#565);
#482=LINE('',#1211,#566);
#483=LINE('',#1213,#567);
#484=LINE('',#1215,#568);
#485=LINE('',#1217,#569);
#486=LINE('',#1220,#570);
#487=LINE('',#1222,#571);
#488=LINE('',#1241,#572);
#489=LINE('',#1246,#573);
#490=LINE('',#1249,#574);
#491=LINE('',#1254,#575);
#492=VECTOR('',#852,1.);
#493=VECTOR('',#853,1.);
#494=VECTOR('',#854,1.);
#495=VECTOR('',#855,1.);
#496=VECTOR('',#856,1.);
#497=VECTOR('',#857,1.);
#498=VECTOR('',#858,1.);
#499=VECTOR('',#859,1.);
#500=VECTOR('',#860,1.);
#501=VECTOR('',#861,1.);
#502=VECTOR('',#862,1.);
#503=VECTOR('',#863,1.);
#504=VECTOR('',#864,1.);
#505=VECTOR('',#865,1.);
#506=VECTOR('',#866,1.);
#507=VECTOR('',#867,1.);
#508=VECTOR('',#870,1.);
#509=VECTOR('',#871,1.);
#510=VECTOR('',#872,1.);
#511=VECTOR('',#873,1.);
#512=VECTOR('',#874,1.);
#513=VECTOR('',#875,1.);
#514=VECTOR('',#876,1.);
#515=VECTOR('',#881,1.);
#516=VECTOR('',#882,1.);
#517=VECTOR('',#883,1.);
#518=VECTOR('',#888,1.);
#519=VECTOR('',#889,1.);
#520=VECTOR('',#890,1.);
#521=VECTOR('',#891,1.);
#522=VECTOR('',#892,1.);
#523=VECTOR('',#893,1.);
#524=VECTOR('',#894,1.);
#525=VECTOR('',#897,1.);
#526=VECTOR('',#898,1.);
#527=VECTOR('',#899,1.);
#528=VECTOR('',#902,1.);
#529=VECTOR('',#903,1.);
#530=VECTOR('',#906,1.);
#531=VECTOR('',#907,1.);
#532=VECTOR('',#908,1.);
#533=VECTOR('',#911,1.);
#534=VECTOR('',#912,1.);
#535=VECTOR('',#913,1.);
#536=VECTOR('',#914,1.);
#537=VECTOR('',#915,1.);
#538=VECTOR('',#916,1.);
#539=VECTOR('',#917,1.);
#540=VECTOR('',#918,1.);
#541=VECTOR('',#919,1.);
#542=VECTOR('',#920,1.);
#543=VECTOR('',#921,1.);
#544=VECTOR('',#922,1.);
#545=VECTOR('',#933,1.);
#546=VECTOR('',#934,1.);
#547=VECTOR('',#935,1.);
#548=VECTOR('',#936,1.);
#549=VECTOR('',#937,1.);
#550=VECTOR('',#938,1.);
#551=VECTOR('',#941,1.);
#552=VECTOR('',#942,1.);
#553=VECTOR('',#943,1.);
#554=VECTOR('',#946,1.);
#555=VECTOR('',#947,1.);
#556=VECTOR('',#952,1.);
#557=VECTOR('',#953,1.);
#558=VECTOR('',#956,1.);
#559=VECTOR('',#963,1.);
#560=VECTOR('',#966,1.);
#561=VECTOR('',#967,1.);
#562=VECTOR('',#968,1.);
#563=VECTOR('',#969,1.);
#564=VECTOR('',#972,1.);
#565=VECTOR('',#973,1.);
#566=VECTOR('',#974,1.);
#567=VECTOR('',#975,1.);
#568=VECTOR('',#978,1.);
#569=VECTOR('',#981,1.);
#570=VECTOR('',#986,1.);
#571=VECTOR('',#989,1.);
#572=VECTOR('',#1016,1.);
#573=VECTOR('',#1023,1.);
#574=VECTOR('',#1028,1.);
#575=VECTOR('',#1035,1.);
#576=EDGE_LOOP('',(#36,#37,#38,#39,#40,#41,#42,#43,#44,#45,#46,#47,#48,
#49,#50,#51));
#577=EDGE_LOOP('',(#52,#53,#54,#55,#56,#57,#58,#59));
#578=EDGE_LOOP('',(#60));
#579=EDGE_LOOP('',(#61,#62,#63,#64));
#580=EDGE_LOOP('',(#65));
#581=EDGE_LOOP('',(#66,#67,#68,#69,#70,#71,#72,#73));
#582=EDGE_LOOP('',(#74,#75,#76,#77));
#583=EDGE_LOOP('',(#78,#79,#80,#81));
#584=EDGE_LOOP('',(#82,#83,#84,#85));
#585=EDGE_LOOP('',(#86,#87,#88,#89,#90,#91,#92,#93,#94,#95,#96,#97,#98,
#99,#100,#101));
#586=EDGE_LOOP('',(#102));
#587=EDGE_LOOP('',(#103));
#588=EDGE_LOOP('',(#104));
#589=EDGE_LOOP('',(#105));
#590=EDGE_LOOP('',(#106,#107,#108,#109));
#591=EDGE_LOOP('',(#110,#111,#112,#113));
#592=EDGE_LOOP('',(#114,#115,#116,#117));
#593=EDGE_LOOP('',(#118,#119,#120,#121));
#594=EDGE_LOOP('',(#122));
#595=EDGE_LOOP('',(#123,#124,#125,#126));
#596=EDGE_LOOP('',(#127,#128,#129,#130));
#597=EDGE_LOOP('',(#131));
#598=EDGE_LOOP('',(#132,#133,#134,#135));
#599=EDGE_LOOP('',(#136,#137,#138,#139));
#600=EDGE_LOOP('',(#140,#141,#142,#143,#144,#145,#146,#147));
#601=EDGE_LOOP('',(#148,#149,#150,#151,#152,#153,#154,#155));
#602=EDGE_LOOP('',(#156,#157,#158,#159));
#603=EDGE_LOOP('',(#160,#161,#162,#163));
#604=EDGE_LOOP('',(#164,#165,#166,#167));
#605=EDGE_LOOP('',(#168,#169,#170,#171));
#606=EDGE_LOOP('',(#172,#173,#174,#175));
#607=EDGE_LOOP('',(#176,#177,#178,#179));
#608=EDGE_LOOP('',(#180));
#609=EDGE_LOOP('',(#181));
#610=EDGE_LOOP('',(#182));
#611=EDGE_LOOP('',(#183));
#612=EDGE_LOOP('',(#184));
#613=EDGE_LOOP('',(#185));
#614=EDGE_LOOP('',(#186));
#615=EDGE_LOOP('',(#187));
#616=EDGE_LOOP('',(#188));
#617=EDGE_LOOP('',(#189));
#618=EDGE_LOOP('',(#190));
#619=EDGE_LOOP('',(#191));
#620=EDGE_LOOP('',(#192));
#621=EDGE_LOOP('',(#193,#194,#195,#196));
#622=EDGE_LOOP('',(#197,#198,#199,#200));
#623=EDGE_LOOP('',(#201));
#624=EDGE_LOOP('',(#202,#203,#204,#205));
#625=EDGE_LOOP('',(#206,#207,#208,#209));
#626=EDGE_LOOP('',(#210,#211,#212,#213));
#627=EDGE_LOOP('',(#214));
#628=EDGE_LOOP('',(#215,#216,#217,#218));
#629=EDGE_LOOP('',(#219,#220,#221,#222));
#630=EDGE_LOOP('',(#223));
#631=EDGE_LOOP('',(#224,#225,#226,#227));
#632=EDGE_LOOP('',(#228));
#633=EDGE_LOOP('',(#229));
#634=EDGE_LOOP('',(#230));
#635=EDGE_LOOP('',(#231));
#636=EDGE_LOOP('',(#232));
#637=EDGE_LOOP('',(#233));
#638=EDGE_LOOP('',(#234));
#639=EDGE_LOOP('',(#235));
#640=FACE_BOUND('',#576,.T.);
#641=FACE_BOUND('',#577,.T.);
#642=FACE_BOUND('',#578,.T.);
#643=FACE_BOUND('',#579,.T.);
#644=FACE_BOUND('',#580,.T.);
#645=FACE_BOUND('',#581,.T.);
#646=FACE_BOUND('',#582,.T.);
#647=FACE_BOUND('',#583,.T.);
#648=FACE_BOUND('',#584,.T.);
#649=FACE_BOUND('',#585,.T.);
#650=FACE_BOUND('',#586,.T.);
#651=FACE_BOUND('',#587,.T.);
#652=FACE_BOUND('',#588,.T.);
#653=FACE_BOUND('',#589,.T.);
#654=FACE_BOUND('',#590,.T.);
#655=FACE_BOUND('',#591,.T.);
#656=FACE_BOUND('',#592,.T.);
#657=FACE_BOUND('',#593,.T.);
#658=FACE_BOUND('',#594,.T.);
#659=FACE_BOUND('',#595,.T.);
#660=FACE_BOUND('',#596,.T.);
#661=FACE_BOUND('',#597,.T.);
#662=FACE_BOUND('',#598,.T.);
#663=FACE_BOUND('',#599,.T.);
#664=FACE_BOUND('',#600,.T.);
#665=FACE_BOUND('',#601,.T.);
#666=FACE_BOUND('',#602,.T.);
#667=FACE_BOUND('',#603,.T.);
#668=FACE_BOUND('',#604,.T.);
#669=FACE_BOUND('',#605,.T.);
#670=FACE_BOUND('',#606,.T.);
#671=FACE_BOUND('',#607,.T.);
#672=FACE_BOUND('',#608,.T.);
#673=FACE_BOUND('',#609,.T.);
#674=FACE_BOUND('',#610,.T.);
#675=FACE_BOUND('',#611,.T.);
#676=FACE_BOUND('',#612,.T.);
#677=FACE_BOUND('',#613,.T.);
#678=FACE_BOUND('',#614,.T.);
#679=FACE_BOUND('',#615,.T.);
#680=FACE_BOUND('',#616,.T.);
#681=FACE_BOUND('',#617,.T.);
#682=FACE_BOUND('',#618,.T.);
#683=FACE_BOUND('',#619,.T.);
#684=FACE_BOUND('',#620,.T.);
#685=FACE_BOUND('',#621,.T.);
#686=FACE_BOUND('',#622,.T.);
#687=FACE_BOUND('',#623,.T.);
#688=FACE_BOUND('',#624,.T.);
#689=FACE_BOUND('',#625,.T.);
#690=FACE_BOUND('',#626,.T.);
#691=FACE_BOUND('',#627,.T.);
#692=FACE_BOUND('',#628,.T.);
#693=FACE_BOUND('',#629,.T.);
#694=FACE_BOUND('',#630,.T.);
#695=FACE_BOUND('',#631,.T.);
#696=FACE_BOUND('',#632,.T.);
#697=FACE_BOUND('',#633,.T.);
#698=FACE_BOUND('',#634,.T.);
#699=FACE_BOUND('',#635,.T.);
#700=FACE_BOUND('',#636,.T.);
#701=FACE_BOUND('',#637,.T.);
#702=FACE_BOUND('',#638,.T.);
#703=FACE_BOUND('',#639,.T.);
#704=PLANE('',#791);
#705=PLANE('',#792);
#706=PLANE('',#794);
#707=PLANE('',#795);
#708=PLANE('',#797);
#709=PLANE('',#798);
#710=PLANE('',#799);
#711=PLANE('',#800);
#712=PLANE('',#801);
#713=PLANE('',#806);
#714=PLANE('',#807);
#715=PLANE('',#809);
#716=PLANE('',#810);
#717=PLANE('',#812);
#718=PLANE('',#813);
#719=PLANE('',#814);
#720=PLANE('',#815);
#721=PLANE('',#816);
#722=PLANE('',#817);
#723=PLANE('',#818);
#724=PLANE('',#819);
#725=PLANE('',#820);
#726=PLANE('',#821);
#727=PLANE('',#824);
#728=PLANE('',#829);
#729=PLANE('',#832);
#730=PLANE('',#834);
#731=PLANE('',#835);
#732=PLANE('',#837);
#733=PLANE('',#838);
#734=PLANE('',#839);
#735=PLANE('',#841);
#736=PLANE('',#842);
#737=ADVANCED_FACE('',(#640),#704,.F.);
#738=ADVANCED_FACE('',(#641,#642),#705,.T.);
#739=ADVANCED_FACE('',(#643),#706,.F.);
#740=ADVANCED_FACE('',(#644,#645),#707,.F.);
#741=ADVANCED_FACE('',(#646),#708,.F.);
#742=ADVANCED_FACE('',(#647),#709,.T.);
#743=ADVANCED_FACE('',(#648),#710,.T.);
#744=ADVANCED_FACE('',(#649),#711,.T.);
#745=ADVANCED_FACE('',(#650,#651,#652,#653,#654,#655),#712,.T.);
#746=ADVANCED_FACE('',(#656),#713,.T.);
#747=ADVANCED_FACE('',(#657,#658),#714,.F.);
#748=ADVANCED_FACE('',(#659),#715,.F.);
#749=ADVANCED_FACE('',(#660,#661),#716,.T.);
#750=ADVANCED_FACE('',(#662),#717,.F.);
#751=ADVANCED_FACE('',(#663),#718,.T.);
#752=ADVANCED_FACE('',(#664),#719,.F.);
#753=ADVANCED_FACE('',(#665),#720,.T.);
#754=ADVANCED_FACE('',(#666),#721,.T.);
#755=ADVANCED_FACE('',(#667),#722,.F.);
#756=ADVANCED_FACE('',(#668),#723,.T.);
#757=ADVANCED_FACE('',(#669),#724,.F.);
#758=ADVANCED_FACE('',(#670),#725,.T.);
#759=ADVANCED_FACE('',(#671),#726,.T.);
#760=ADVANCED_FACE('',(#672,#673),#12,.T.);
#761=ADVANCED_FACE('',(#674,#675),#727,.T.);
#762=ADVANCED_FACE('',(#676,#677),#13,.F.);
#763=ADVANCED_FACE('',(#678,#679),#14,.T.);
#764=ADVANCED_FACE('',(#680,#681),#728,.T.);
#765=ADVANCED_FACE('',(#682,#683),#15,.F.);
#766=ADVANCED_FACE('',(#684,#685),#729,.F.);
#767=ADVANCED_FACE('',(#686),#730,.F.);
#768=ADVANCED_FACE('',(#687,#688),#731,.F.);
#769=ADVANCED_FACE('',(#689),#732,.T.);
#770=ADVANCED_FACE('',(#690),#733,.F.);
#771=ADVANCED_FACE('',(#691,#692),#734,.F.);
#772=ADVANCED_FACE('',(#693),#735,.T.);
#773=ADVANCED_FACE('',(#694,#695),#736,.F.);
#774=ADVANCED_FACE('',(#696,#697),#16,.F.);
#775=ADVANCED_FACE('',(#698,#699),#17,.F.);
#776=ADVANCED_FACE('',(#700,#701),#18,.F.);
#777=ADVANCED_FACE('',(#702,#703),#19,.F.);
#778=CLOSED_SHELL('',(#737,#738,#739,#740,#741,#742,#743,#744,#745,#746,
#747,#748,#749,#750,#751,#752,#753,#754,#755,#756,#757,#758,#759,#760,#761,
#762,#763,#764,#765,#766,#767,#768,#769,#770,#771,#772,#773,#774,#775,#776,
#777));
#779=STYLED_ITEM('',(#780),#787);
#780=PRESENTATION_STYLE_ASSIGNMENT((#781));
#781=SURFACE_STYLE_USAGE(.BOTH.,#782);
#782=SURFACE_SIDE_STYLE('',(#783));
#783=SURFACE_STYLE_FILL_AREA(#784);
#784=FILL_AREA_STYLE('',(#785));
#785=FILL_AREA_STYLE_COLOUR('',#786);
#786=COLOUR_RGB('',0.615686274509804,0.811764705882353,0.929411764705882);
#787=MANIFOLD_SOLID_BREP('koerper',#778);
#788=SHAPE_DEFINITION_REPRESENTATION(#1268,#789);
#789=SHAPE_REPRESENTATION('koerper',(#790),#1263);
#790=AXIS2_PLACEMENT_3D('',#1048,#848,#849);
#791=AXIS2_PLACEMENT_3D('',#1049,#850,#851);
#792=AXIS2_PLACEMENT_3D('',#1082,#868,#869);
#793=AXIS2_PLACEMENT_3D('',#1096,#877,#878);
#794=AXIS2_PLACEMENT_3D('',#1098,#879,#880);
#795=AXIS2_PLACEMENT_3D('',#1104,#884,#885);
#796=AXIS2_PLACEMENT_3D('',#1105,#886,#887);
#797=AXIS2_PLACEMENT_3D('',#1120,#895,#896);
#798=AXIS2_PLACEMENT_3D('',#1126,#900,#901);
#799=AXIS2_PLACEMENT_3D('',#1130,#904,#905);
#800=AXIS2_PLACEMENT_3D('',#1136,#909,#910);
#801=AXIS2_PLACEMENT_3D('',#1158,#923,#924);
#802=AXIS2_PLACEMENT_3D('',#1159,#925,#926);
#803=AXIS2_PLACEMENT_3D('',#1161,#927,#928);
#804=AXIS2_PLACEMENT_3D('',#1163,#929,#930);
#805=AXIS2_PLACEMENT_3D('',#1165,#931,#932);
#806=AXIS2_PLACEMENT_3D('',#1177,#939,#940);
#807=AXIS2_PLACEMENT_3D('',#1183,#944,#945);
#808=AXIS2_PLACEMENT_3D('',#1187,#948,#949);
#809=AXIS2_PLACEMENT_3D('',#1189,#950,#951);
#810=AXIS2_PLACEMENT_3D('',#1193,#954,#955);
#811=AXIS2_PLACEMENT_3D('',#1195,#957,#958);
#812=AXIS2_PLACEMENT_3D('',#1197,#959,#960);
#813=AXIS2_PLACEMENT_3D('',#1198,#961,#962);
#814=AXIS2_PLACEMENT_3D('',#1200,#964,#965);
#815=AXIS2_PLACEMENT_3D('',#1207,#970,#971);
#816=AXIS2_PLACEMENT_3D('',#1214,#976,#977);
#817=AXIS2_PLACEMENT_3D('',#1216,#979,#980);
#818=AXIS2_PLACEMENT_3D('',#1218,#982,#983);
#819=AXIS2_PLACEMENT_3D('',#1219,#984,#985);
#820=AXIS2_PLACEMENT_3D('',#1221,#987,#988);
#821=AXIS2_PLACEMENT_3D('',#1223,#990,#991);
#822=AXIS2_PLACEMENT_3D('',#1224,#992,#993);
#823=AXIS2_PLACEMENT_3D('',#1225,#994,#995);
#824=AXIS2_PLACEMENT_3D('',#1227,#996,#997);
#825=AXIS2_PLACEMENT_3D('',#1228,#998,#999);
#826=AXIS2_PLACEMENT_3D('',#1230,#1000,#1001);
#827=AXIS2_PLACEMENT_3D('',#1231,#1002,#1003);
#828=AXIS2_PLACEMENT_3D('',#1232,#1004,#1005);
#829=AXIS2_PLACEMENT_3D('',#1234,#1006,#1007);
#830=AXIS2_PLACEMENT_3D('',#1235,#1008,#1009);
#831=AXIS2_PLACEMENT_3D('',#1237,#1010,#1011);
#832=AXIS2_PLACEMENT_3D('',#1238,#1012,#1013);
#833=AXIS2_PLACEMENT_3D('',#1239,#1014,#1015);
#834=AXIS2_PLACEMENT_3D('',#1242,#1017,#1018);
#835=AXIS2_PLACEMENT_3D('',#1243,#1019,#1020);
#836=AXIS2_PLACEMENT_3D('',#1244,#1021,#1022);
#837=AXIS2_PLACEMENT_3D('',#1247,#1024,#1025);
#838=AXIS2_PLACEMENT_3D('',#1248,#1026,#1027);
#839=AXIS2_PLACEMENT_3D('',#1250,#1029,#1030);
#840=AXIS2_PLACEMENT_3D('',#1251,#1031,#1032);
#841=AXIS2_PLACEMENT_3D('',#1253,#1033,#1034);
#842=AXIS2_PLACEMENT_3D('',#1255,#1036,#1037);
#843=AXIS2_PLACEMENT_3D('',#1256,#1038,#1039);
#844=AXIS2_PLACEMENT_3D('',#1258,#1040,#1041);
#845=AXIS2_PLACEMENT_3D('',#1259,#1042,#1043);
#846=AXIS2_PLACEMENT_3D('',#1260,#1044,#1045);
#847=AXIS2_PLACEMENT_3D('',#1261,#1046,#1047);
#848=DIRECTION('',(0.,0.,1.));
#849=DIRECTION('',(1.,0.,0.));
#850=DIRECTION('',(0.,1.,0.));
#851=DIRECTION('',(0.,0.,1.));
#852=DIRECTION('',(0.,0.,1.));
#853=DIRECTION('',(1.,0.,0.));
#854=DIRECTION('',(0.,0.,-1.));
#855=DIRECTION('',(1.,0.,0.));
#856=DIRECTION('',(0.,0.,-1.));
#857=DIRECTION('',(1.,0.,0.));
#858=DIRECTION('',(0.,0.,-1.));
#859=DIRECTION('',(1.,0.,0.));
#860=DIRECTION('',(0.,0.,-1.));
#861=DIRECTION('',(1.,0.,0.));
#862=DIRECTION('',(0.,0.,-1.));
#863=DIRECTION('',(1.,0.,0.));
#864=DIRECTION('',(0.,0.,-1.));
#865=DIRECTION('',(1.,0.,0.));
#866=DIRECTION('',(0.,0.,1.));
#867=DIRECTION('',(1.,0.,0.));
#868=DIRECTION('',(1.,0.,0.));
#869=DIRECTION('',(0.,0.,-1.));
#870=DIRECTION('',(0.,0.,-1.));
#871=DIRECTION('',(0.,-1.,0.));
#872=DIRECTION('',(0.,0.,-1.));
#873=DIRECTION('',(0.,-1.,0.));
#874=DIRECTION('',(0.,0.,-1.));
#875=DIRECTION('',(0.,-1.,0.));
#876=DIRECTION('',(0.,-1.,0.));
#877=DIRECTION('',(1.,0.,0.));
#878=DIRECTION('',(0.,0.,-1.));
#879=DIRECTION('',(0.,0.,1.));
#880=DIRECTION('',(1.,0.,0.));
#881=DIRECTION('',(1.,0.,0.));
#882=DIRECTION('',(0.,-1.,0.));
#883=DIRECTION('',(1.,0.,0.));
#884=DIRECTION('',(1.,0.,0.));
#885=DIRECTION('',(0.,0.,-1.));
#886=DIRECTION('',(1.,0.,0.));
#887=DIRECTION('',(0.,0.,-1.));
#888=DIRECTION('',(0.,-1.,0.));
#889=DIRECTION('',(0.,0.,1.));
#890=DIRECTION('',(0.,-1.,0.));
#891=DIRECTION('',(0.,0.,1.));
#892=DIRECTION('',(0.,-1.,0.));
#893=DIRECTION('',(0.,-1.,0.));
#894=DIRECTION('',(0.,0.,-1.));
#895=DIRECTION('',(0.,0.,1.));
#896=DIRECTION('',(1.,0.,0.));
#897=DIRECTION('',(-1.,0.,0.));
#898=DIRECTION('',(2.46716227694479E-16,-1.,0.));
#899=DIRECTION('',(-1.,0.,0.));
#900=DIRECTION('',(0.,0.,1.));
#901=DIRECTION('',(1.,0.,0.));
#902=DIRECTION('',(6.22322323220379E-17,-1.,0.));
#903=DIRECTION('',(1.,0.,0.));
#904=DIRECTION('',(0.,0.,1.));
#905=DIRECTION('',(1.,0.,0.));
#906=DIRECTION('',(6.22322323220379E-17,-1.,0.));
#907=DIRECTION('',(6.22322323220379E-17,-1.,0.));
#908=DIRECTION('',(1.,0.,0.));
#909=DIRECTION('',(0.,1.,0.));
#910=DIRECTION('',(0.,0.,1.));
#911=DIRECTION('',(1.,0.,0.));
#912=DIRECTION('',(0.,0.,1.));
#913=DIRECTION('',(1.,0.,0.));
#914=DIRECTION('',(0.,0.,1.));
#915=DIRECTION('',(1.,0.,0.));
#916=DIRECTION('',(0.,0.,-1.));
#917=DIRECTION('',(1.,0.,0.));
#918=DIRECTION('',(0.,0.,-1.));
#919=DIRECTION('',(0.,0.,-1.));
#920=DIRECTION('',(1.,0.,0.));
#921=DIRECTION('',(0.,0.,-1.));
#922=DIRECTION('',(1.,0.,0.));
#923=DIRECTION('',(0.,0.,1.));
#924=DIRECTION('',(1.,0.,0.));
#925=DIRECTION('',(0.,0.,1.));
#926=DIRECTION('',(1.,0.,0.));
#927=DIRECTION('',(0.,0.,1.));
#928=DIRECTION('',(1.,0.,0.));
#929=DIRECTION('',(0.,0.,1.));
#930=DIRECTION('',(1.,0.,0.));
#931=DIRECTION('',(0.,0.,1.));
#932=DIRECTION('',(1.,0.,0.));
#933=DIRECTION('',(0.,-1.,0.));
#934=DIRECTION('',(2.46716227694479E-16,-1.,0.));
#935=DIRECTION('',(0.,-1.,0.));
#936=DIRECTION('',(1.,0.,0.));
#937=DIRECTION('',(0.,-1.,0.));
#938=DIRECTION('',(1.,0.,0.));
#939=DIRECTION('',(0.,1.,0.));
#940=DIRECTION('',(0.,0.,1.));
#941=DIRECTION('',(0.,0.,-1.));
#942=DIRECTION('',(1.,0.,0.));
#943=DIRECTION('',(0.,0.,-1.));
#944=DIRECTION('',(1.,0.,0.));
#945=DIRECTION('',(0.,0.,-1.));
#946=DIRECTION('',(0.,-1.,0.));
#947=DIRECTION('',(0.,0.,-1.));
#948=DIRECTION('',(-1.,0.,0.));
#949=DIRECTION('',(0.,0.,1.));
#950=DIRECTION('',(0.,1.,0.));
#951=DIRECTION('',(0.,0.,1.));
#952=DIRECTION('',(1.,0.,0.));
#953=DIRECTION('',(0.,0.,-1.));
#954=DIRECTION('',(1.,0.,0.));
#955=DIRECTION('',(0.,0.,-1.));
#956=DIRECTION('',(0.,-1.,0.));
#957=DIRECTION('',(1.,0.,0.));
#958=DIRECTION('',(0.,0.,-1.));
#959=DIRECTION('',(0.,0.,1.));
#960=DIRECTION('',(1.,0.,0.));
#961=DIRECTION('',(0.,0.,1.));
#962=DIRECTION('',(1.,0.,0.));
#963=DIRECTION('',(6.22322323220379E-17,-1.,0.));
#964=DIRECTION('',(-1.,0.,0.));
#965=DIRECTION('',(0.,0.,1.));
#966=DIRECTION('',(0.,0.,1.));
#967=DIRECTION('',(0.,-1.,0.));
#968=DIRECTION('',(0.,1.,0.));
#969=DIRECTION('',(0.,0.,1.));
#970=DIRECTION('',(-1.,-2.46716227694479E-16,0.));
#971=DIRECTION('',(2.46716227694479E-16,-1.,0.));
#972=DIRECTION('',(0.,-1.,0.));
#973=DIRECTION('',(0.,0.,1.));
#974=DIRECTION('',(0.,0.,1.));
#975=DIRECTION('',(2.46716227694479E-16,-1.,0.));
#976=DIRECTION('',(1.,6.22322323220379E-17,0.));
#977=DIRECTION('',(-6.22322323220379E-17,1.,0.));
#978=DIRECTION('',(6.22322323220379E-17,-1.,0.));
#979=DIRECTION('',(1.,6.22322323220379E-17,0.));
#980=DIRECTION('',(-6.22322323220379E-17,1.,0.));
#981=DIRECTION('',(6.22322323220379E-17,-1.,0.));
#982=DIRECTION('',(0.,0.,1.));
#983=DIRECTION('',(1.,0.,0.));
#984=DIRECTION('',(1.,6.22322323220379E-17,0.));
#985=DIRECTION('',(-6.22322323220379E-17,1.,0.));
#986=DIRECTION('',(6.22322323220379E-17,-1.,0.));
#987=DIRECTION('',(1.,6.22322323220379E-17,0.));
#988=DIRECTION('',(-6.22322323220379E-17,1.,0.));
#989=DIRECTION('',(6.22322323220379E-17,-1.,0.));
#990=DIRECTION('',(0.,0.,1.));
#991=DIRECTION('',(1.,0.,0.));
#992=DIRECTION('',(1.,0.,0.));
#993=DIRECTION('',(0.,0.,-1.));
#994=DIRECTION('',(-1.,0.,0.));
#995=DIRECTION('',(0.,0.,1.));
#996=DIRECTION('',(-1.,0.,0.));
#997=DIRECTION('',(0.,-1.,0.));
#998=DIRECTION('',(-1.,0.,0.));
#999=DIRECTION('',(0.,0.,1.));
#1000=DIRECTION('',(-1.,0.,0.));
#1001=DIRECTION('',(0.,0.,1.));
#1002=DIRECTION('',(-1.,0.,0.));
#1003=DIRECTION('',(0.,0.,1.));
#1004=DIRECTION('',(1.,0.,0.));
#1005=DIRECTION('',(0.,0.,-1.));
#1006=DIRECTION('',(1.,0.,0.));
#1007=DIRECTION('',(0.,1.,0.));
#1008=DIRECTION('',(1.,0.,0.));
#1009=DIRECTION('',(0.,0.,-1.));
#1010=DIRECTION('',(1.,0.,0.));
#1011=DIRECTION('',(0.,0.,-1.));
#1012=DIRECTION('',(0.,0.,1.));
#1013=DIRECTION('',(1.,0.,0.));
#1014=DIRECTION('',(0.,0.,1.));
#1015=DIRECTION('',(1.,0.,0.));
#1016=DIRECTION('',(-1.,0.,0.));
#1017=DIRECTION('',(0.,1.,0.));
#1018=DIRECTION('',(0.,0.,1.));
#1019=DIRECTION('',(0.,0.,1.));
#1020=DIRECTION('',(1.,0.,0.));
#1021=DIRECTION('',(0.,0.,1.));
#1022=DIRECTION('',(1.,0.,0.));
#1023=DIRECTION('',(-1.,0.,0.));
#1024=DIRECTION('',(0.,1.,0.));
#1025=DIRECTION('',(0.,0.,1.));
#1026=DIRECTION('',(0.,-1.,0.));
#1027=DIRECTION('',(0.,0.,-1.));
#1028=DIRECTION('',(1.,0.,0.));
#1029=DIRECTION('',(0.,0.,1.));
#1030=DIRECTION('',(1.,0.,0.));
#1031=DIRECTION('',(0.,0.,1.));
#1032=DIRECTION('',(1.,0.,0.));
#1033=DIRECTION('',(0.,-1.,0.));
#1034=DIRECTION('',(0.,0.,-1.));
#1035=DIRECTION('',(1.,0.,0.));
#1036=DIRECTION('',(0.,0.,1.));
#1037=DIRECTION('',(1.,0.,0.));
#1038=DIRECTION('',(0.,0.,1.));
#1039=DIRECTION('',(1.,0.,0.));
#1040=DIRECTION('',(0.,0.,1.));
#1041=DIRECTION('',(1.,0.,0.));
#1042=DIRECTION('',(0.,0.,1.));
#1043=DIRECTION('',(1.,0.,0.));
#1044=DIRECTION('',(0.,0.,1.));
#1045=DIRECTION('',(1.,0.,0.));
#1046=DIRECTION('',(0.,0.,1.));
#1047=DIRECTION('',(1.,0.,0.));
#1048=CARTESIAN_POINT('',(0.,0.,0.));
#1049=CARTESIAN_POINT('',(0.,0.223,0.2));
#1050=CARTESIAN_POINT('',(-0.285,0.223,0.2));
#1051=CARTESIAN_POINT('',(-0.285,0.223,0.18));
#1052=CARTESIAN_POINT('',(-0.285,0.223,0.2));
#1053=CARTESIAN_POINT('',(0.,0.223,0.18));
#1054=CARTESIAN_POINT('',(-0.298,0.223,0.18));
#1055=CARTESIAN_POINT('',(-0.298,0.223,0.2));
#1056=CARTESIAN_POINT('',(-0.298,0.223,0.002));
#1057=CARTESIAN_POINT('',(0.,0.223,0.002));
#1058=CARTESIAN_POINT('',(-0.101,0.223,0.002));
#1059=CARTESIAN_POINT('',(-0.101,0.223,0.172));
#1060=CARTESIAN_POINT('',(-0.101,0.223,0.172));
#1061=CARTESIAN_POINT('',(0.,0.223,0.172));
#1062=CARTESIAN_POINT('',(-0.1,0.223,0.172));
#1063=CARTESIAN_POINT('',(-0.1,0.223,0.172));
#1064=CARTESIAN_POINT('',(-0.1,0.223,0.002));
#1065=CARTESIAN_POINT('',(0.,0.223,0.002));
#1066=CARTESIAN_POINT('',(0.1,0.223,0.002));
#1067=CARTESIAN_POINT('',(0.1,0.223,0.172));
#1068=CARTESIAN_POINT('',(0.1,0.223,0.172));
#1069=CARTESIAN_POINT('',(0.,0.223,0.172));
#1070=CARTESIAN_POINT('',(0.101,0.223,0.172));
#1071=CARTESIAN_POINT('',(0.101,0.223,0.172));
#1072=CARTESIAN_POINT('',(0.101,0.223,0.002));
#1073=CARTESIAN_POINT('',(0.,0.223,0.002));
#1074=CARTESIAN_POINT('',(0.298,0.223,0.002));
#1075=CARTESIAN_POINT('',(0.298,0.223,0.2));
#1076=CARTESIAN_POINT('',(0.298,0.223,0.18));
#1077=CARTESIAN_POINT('',(0.,0.223,0.18));
#1078=CARTESIAN_POINT('',(0.285,0.223,0.18));
#1079=CARTESIAN_POINT('',(0.285,0.223,0.2));
#1080=CARTESIAN_POINT('',(0.285,0.223,0.2));
#1081=CARTESIAN_POINT('',(0.,0.223,0.2));
#1082=CARTESIAN_POINT('',(-0.298,0.,0.2));
#1083=CARTESIAN_POINT('',(-0.298,0.21,0.2));
#1084=CARTESIAN_POINT('',(-0.298,0.21,0.198));
#1085=CARTESIAN_POINT('',(-0.298,0.21,0.18));
#1086=CARTESIAN_POINT('',(-0.298,0.,0.198));
#1087=CARTESIAN_POINT('',(-0.298,-0.21,0.198));
#1088=CARTESIAN_POINT('',(-0.298,-0.21,0.2));
#1089=CARTESIAN_POINT('',(-0.298,-0.21,0.18));
#1090=CARTESIAN_POINT('',(-0.298,0.,0.18));
#1091=CARTESIAN_POINT('',(-0.298,-0.223,0.18));
#1092=CARTESIAN_POINT('',(-0.298,-0.223,0.2));
#1093=CARTESIAN_POINT('',(-0.298,-0.223,0.002));
#1094=CARTESIAN_POINT('',(-0.298,0.,0.002));
#1095=CARTESIAN_POINT('',(-0.298,0.,0.18));
#1096=CARTESIAN_POINT('',(-0.298,-1.21430643318376E-17,0.1));
#1097=CARTESIAN_POINT('',(-0.298,-1.21430643318376E-17,0.0886));
#1098=CARTESIAN_POINT('',(0.,0.,0.198));
#1099=CARTESIAN_POINT('',(0.,0.21,0.198));
#1100=CARTESIAN_POINT('',(-0.285,0.21,0.198));
#1101=CARTESIAN_POINT('',(-0.285,0.,0.198));
#1102=CARTESIAN_POINT('',(-0.285,-0.21,0.198));
#1103=CARTESIAN_POINT('',(0.,-0.21,0.198));
#1104=CARTESIAN_POINT('',(0.298,0.,0.2));
#1105=CARTESIAN_POINT('',(0.298,-2.77555756156289E-17,0.1));
#1106=CARTESIAN_POINT('',(0.298,-2.77555756156289E-17,0.0886));
#1107=CARTESIAN_POINT('',(0.298,0.,0.18));
#1108=CARTESIAN_POINT('',(0.298,-0.21,0.18));
#1109=CARTESIAN_POINT('',(0.298,-0.223,0.18));
#1110=CARTESIAN_POINT('',(0.298,-0.21,0.2));
#1111=CARTESIAN_POINT('',(0.298,-0.21,0.198));
#1112=CARTESIAN_POINT('',(0.298,0.,0.198));
#1113=CARTESIAN_POINT('',(0.298,0.21,0.198));
#1114=CARTESIAN_POINT('',(0.298,0.21,0.2));
#1115=CARTESIAN_POINT('',(0.298,0.21,0.18));
#1116=CARTESIAN_POINT('',(0.298,0.,0.18));
#1117=CARTESIAN_POINT('',(0.298,0.,0.002));
#1118=CARTESIAN_POINT('',(0.298,-0.223,0.002));
#1119=CARTESIAN_POINT('',(0.298,-0.223,0.2));
#1120=CARTESIAN_POINT('',(0.,0.,0.198));
#1121=CARTESIAN_POINT('',(0.,-0.21,0.198));
#1122=CARTESIAN_POINT('',(0.285,-0.21,0.198));
#1123=CARTESIAN_POINT('',(0.285,0.,0.198));
#1124=CARTESIAN_POINT('',(0.285,0.21,0.198));
#1125=CARTESIAN_POINT('',(0.,0.21,0.198));
#1126=CARTESIAN_POINT('',(0.,0.,0.002));
#1127=CARTESIAN_POINT('',(0.101,0.,0.002));
#1128=CARTESIAN_POINT('',(0.101,-0.223,0.002));
#1129=CARTESIAN_POINT('',(0.,-0.223,0.002));
#1130=CARTESIAN_POINT('',(0.,0.,0.002));
#1131=CARTESIAN_POINT('',(0.1,0.,0.002));
#1132=CARTESIAN_POINT('',(0.1,-0.223,0.002));
#1133=CARTESIAN_POINT('',(-0.1,0.,0.002));
#1134=CARTESIAN_POINT('',(-0.1,-0.223,0.002));
#1135=CARTESIAN_POINT('',(0.,-0.223,0.002));
#1136=CARTESIAN_POINT('',(0.,-0.223,0.2));
#1137=CARTESIAN_POINT('',(0.,-0.223,0.18));
#1138=CARTESIAN_POINT('',(-0.285,-0.223,0.18));
#1139=CARTESIAN_POINT('',(-0.285,-0.223,0.2));
#1140=CARTESIAN_POINT('',(-0.285,-0.223,0.2));
#1141=CARTESIAN_POINT('',(0.,-0.223,0.2));
#1142=CARTESIAN_POINT('',(0.285,-0.223,0.2));
#1143=CARTESIAN_POINT('',(0.285,-0.223,0.2));
#1144=CARTESIAN_POINT('',(0.285,-0.223,0.18));
#1145=CARTESIAN_POINT('',(0.,-0.223,0.18));
#1146=CARTESIAN_POINT('',(0.101,-0.223,0.172));
#1147=CARTESIAN_POINT('',(0.101,-0.223,0.172));
#1148=CARTESIAN_POINT('',(0.,-0.223,0.172));
#1149=CARTESIAN_POINT('',(0.1,-0.223,0.172));
#1150=CARTESIAN_POINT('',(0.1,-0.223,0.172));
#1151=CARTESIAN_POINT('',(-0.1,-0.223,0.172));
#1152=CARTESIAN_POINT('',(-0.1,-0.223,0.172));
#1153=CARTESIAN_POINT('',(0.,-0.223,0.172));
#1154=CARTESIAN_POINT('',(-0.101,-0.223,0.172));
#1155=CARTESIAN_POINT('',(-0.101,-0.223,0.172));
#1156=CARTESIAN_POINT('',(-0.101,-0.223,0.002));
#1157=CARTESIAN_POINT('',(0.,-0.223,0.002));
#1158=CARTESIAN_POINT('',(0.,0.,0.2));
#1159=CARTESIAN_POINT('',(0.2925,-0.2175,0.2));
#1160=CARTESIAN_POINT('',(0.297,-0.2175,0.2));
#1161=CARTESIAN_POINT('',(0.2925,0.2175,0.2));
#1162=CARTESIAN_POINT('',(0.297,0.2175,0.2));
#1163=CARTESIAN_POINT('',(-0.2925,0.2175,0.2));
#1164=CARTESIAN_POINT('',(-0.288,0.2175,0.2));
#1165=CARTESIAN_POINT('',(-0.2925,-0.2175,0.2));
#1166=CARTESIAN_POINT('',(-0.288,-0.2175,0.2));
#1167=CARTESIAN_POINT('',(-0.285,0.,0.2));
#1168=CARTESIAN_POINT('',(0.285,0.,0.2));
#1169=CARTESIAN_POINT('',(-0.3,0.,0.2));
#1170=CARTESIAN_POINT('',(-0.3,0.225,0.2));
#1171=CARTESIAN_POINT('',(-0.3,-0.225,0.2));
#1172=CARTESIAN_POINT('',(0.,-0.225,0.2));
#1173=CARTESIAN_POINT('',(0.3,-0.225,0.2));
#1174=CARTESIAN_POINT('',(0.3,0.,0.2));
#1175=CARTESIAN_POINT('',(0.3,0.225,0.2));
#1176=CARTESIAN_POINT('',(0.,0.225,0.2));
#1177=CARTESIAN_POINT('',(0.,0.225,0.2));
#1178=CARTESIAN_POINT('',(0.3,0.225,0.2));
#1179=CARTESIAN_POINT('',(0.3,0.225,0.));
#1180=CARTESIAN_POINT('',(0.,0.225,0.));
#1181=CARTESIAN_POINT('',(-0.3,0.225,0.));
#1182=CARTESIAN_POINT('',(-0.3,0.225,0.2));
#1183=CARTESIAN_POINT('',(-0.3,0.,0.2));
#1184=CARTESIAN_POINT('',(-0.3,0.,0.));
#1185=CARTESIAN_POINT('',(-0.3,-0.225,0.));
#1186=CARTESIAN_POINT('',(-0.3,-0.225,0.2));
#1187=CARTESIAN_POINT('',(-0.3,-1.21430643318376E-17,0.1));
#1188=CARTESIAN_POINT('',(-0.3,-1.21430643318376E-17,0.1134));
#1189=CARTESIAN_POINT('',(0.,-0.225,0.2));
#1190=CARTESIAN_POINT('',(0.,-0.225,0.));
#1191=CARTESIAN_POINT('',(0.3,-0.225,0.));
#1192=CARTESIAN_POINT('',(0.3,-0.225,0.2));
#1193=CARTESIAN_POINT('',(0.3,0.,0.2));
#1194=CARTESIAN_POINT('',(0.3,0.,0.));
#1195=CARTESIAN_POINT('',(0.3,-2.77555756156289E-17,0.1));
#1196=CARTESIAN_POINT('',(0.3,-2.77555756156289E-17,0.0866));
#1197=CARTESIAN_POINT('',(0.,0.,0.));
#1198=CARTESIAN_POINT('',(0.,0.,0.002));
#1199=CARTESIAN_POINT('',(-0.101,0.,0.002));
#1200=CARTESIAN_POINT('',(-0.285,0.,0.198));
#1201=CARTESIAN_POINT('',(-0.285,0.21,0.18));
#1202=CARTESIAN_POINT('',(-0.285,0.21,0.18));
#1203=CARTESIAN_POINT('',(-0.285,0.,0.18));
#1204=CARTESIAN_POINT('',(-0.285,-0.2175,0.18));
#1205=CARTESIAN_POINT('',(-0.285,-0.21,0.18));
#1206=CARTESIAN_POINT('',(-0.285,-0.21,0.18));
#1207=CARTESIAN_POINT('',(0.285,0.,0.198));
#1208=CARTESIAN_POINT('',(0.285,0.2175,0.18));
#1209=CARTESIAN_POINT('',(0.285,0.21,0.18));
#1210=CARTESIAN_POINT('',(0.285,0.21,0.18));
#1211=CARTESIAN_POINT('',(0.285,-0.21,0.18));
#1212=CARTESIAN_POINT('',(0.285,-0.21,0.18));
#1213=CARTESIAN_POINT('',(0.285,0.,0.18));
#1214=CARTESIAN_POINT('',(-0.1,0.,0.172));
#1215=CARTESIAN_POINT('',(-0.1,0.,0.172));
#1216=CARTESIAN_POINT('',(-0.101,0.,0.172));
#1217=CARTESIAN_POINT('',(-0.101,0.,0.172));
#1218=CARTESIAN_POINT('',(0.,0.,0.172));
#1219=CARTESIAN_POINT('',(0.1,0.,0.172));
#1220=CARTESIAN_POINT('',(0.1,0.,0.172));
#1221=CARTESIAN_POINT('',(0.101,0.,0.172));
#1222=CARTESIAN_POINT('',(0.101,0.,0.172));
#1223=CARTESIAN_POINT('',(0.,0.,0.172));
#1224=CARTESIAN_POINT('',(-0.335,-1.21430643318376E-17,0.1));
#1225=CARTESIAN_POINT('',(-0.335,-1.21430643318376E-17,0.1));
#1226=CARTESIAN_POINT('',(-0.335,-1.21430643318376E-17,0.1134));
#1227=CARTESIAN_POINT('',(-0.335,0.,0.1));
#1228=CARTESIAN_POINT('',(-0.335,-1.21430643318376E-17,0.1));
#1229=CARTESIAN_POINT('',(-0.335,-1.21430643318376E-17,0.1114));
#1230=CARTESIAN_POINT('',(-0.306575094471543,-1.21430643318376E-17,0.1));
#1231=CARTESIAN_POINT('',(0.335,-2.77555756156289E-17,0.1));
#1232=CARTESIAN_POINT('',(0.335,-2.77555756156289E-17,0.1));
#1233=CARTESIAN_POINT('',(0.335,-2.77555756156289E-17,0.0866));
#1234=CARTESIAN_POINT('',(0.335,0.,0.1));
#1235=CARTESIAN_POINT('',(0.335,-2.77555756156289E-17,0.1));
#1236=CARTESIAN_POINT('',(0.335,-2.77555756156289E-17,0.0886));
#1237=CARTESIAN_POINT('',(0.306575094471543,-2.77555756156289E-17,0.1));
#1238=CARTESIAN_POINT('',(0.,0.,0.18));
#1239=CARTESIAN_POINT('',(0.2925,0.2175,0.18));
#1240=CARTESIAN_POINT('',(0.297,0.2175,0.18));
#1241=CARTESIAN_POINT('',(0.2925,0.21,0.18));
#1242=CARTESIAN_POINT('',(0.2925,0.21,0.18));
#1243=CARTESIAN_POINT('',(0.,0.,0.18));
#1244=CARTESIAN_POINT('',(0.2925,-0.2175,0.18));
#1245=CARTESIAN_POINT('',(0.297,-0.2175,0.18));
#1246=CARTESIAN_POINT('',(0.2925,-0.21,0.18));
#1247=CARTESIAN_POINT('',(0.2925,-0.21,0.18));
#1248=CARTESIAN_POINT('',(-0.2925,-0.21,0.18));
#1249=CARTESIAN_POINT('',(-0.2925,-0.21,0.18));
#1250=CARTESIAN_POINT('',(0.,0.,0.18));
#1251=CARTESIAN_POINT('',(-0.2925,-0.2175,0.18));
#1252=CARTESIAN_POINT('',(-0.288,-0.2175,0.18));
#1253=CARTESIAN_POINT('',(-0.2925,0.21,0.18));
#1254=CARTESIAN_POINT('',(-0.2925,0.21,0.18));
#1255=CARTESIAN_POINT('',(0.,0.,0.18));
#1256=CARTESIAN_POINT('',(-0.2925,0.2175,0.18));
#1257=CARTESIAN_POINT('',(-0.288,0.2175,0.18));
#1258=CARTESIAN_POINT('',(-0.2925,0.2175,0.148648063607188));
#1259=CARTESIAN_POINT('',(-0.2925,-0.2175,0.148648063607188));
#1260=CARTESIAN_POINT('',(0.2925,-0.2175,0.148648063607188));
#1261=CARTESIAN_POINT('',(0.2925,0.2175,0.148648063607188));
#1262=MECHANICAL_DESIGN_GEOMETRIC_PRESENTATION_REPRESENTATION('',(#779),
#1263);
#1263=(
GEOMETRIC_REPRESENTATION_CONTEXT(3)
GLOBAL_UNCERTAINTY_ASSIGNED_CONTEXT((#1264))
GLOBAL_UNIT_ASSIGNED_CONTEXT((#1267,#1266,#1265))
REPRESENTATION_CONTEXT('koerper','TOP_LEVEL_ASSEMBLY_PART')
);
#1264=UNCERTAINTY_MEASURE_WITH_UNIT(LENGTH_MEASURE(1.E-8),#1267,
'DISTANCE_ACCURACY_VALUE','Maximum Tolerance applied to model');
#1265=(
NAMED_UNIT(*)
SI_UNIT($,.STERADIAN.)
SOLID_ANGLE_UNIT()
);
#1266=(
NAMED_UNIT(*)
PLANE_ANGLE_UNIT()
SI_UNIT($,.RADIAN.)
);
#1267=(
LENGTH_UNIT()
NAMED_UNIT(*)
SI_UNIT($,.METRE.)
);
#1268=PRODUCT_DEFINITION_SHAPE('','',#1269);
#1269=PRODUCT_DEFINITION('','',#1271,#1270);
#1270=PRODUCT_DEFINITION_CONTEXT('',#1277,'design');
#1271=PRODUCT_DEFINITION_FORMATION_WITH_SPECIFIED_SOURCE('','',#1273,
 .NOT_KNOWN.);
#1272=PRODUCT_RELATED_PRODUCT_CATEGORY('','',(#1273));
#1273=PRODUCT('koerper','koerper','koerper',(#1275));
#1274=PRODUCT_CATEGORY('','');
#1275=PRODUCT_CONTEXT('',#1277,'mechanical');
#1276=APPLICATION_PROTOCOL_DEFINITION('international standard',
'ap242_managed_model_based_3d_engineering',2020,#1277);
#1277=APPLICATION_CONTEXT('managed model based 3d engineering');
ENDSEC;
END-ISO-10303-21;
