ISO-10303-21;
HEADER;
/* Generated by software containing ST-Developer
 * from STEP Tools, Inc. (www.steptools.com) 
 */
/* OPTION: using custom renumber hook */

FILE_DESCRIPTION(
/* description */ ('STEP AP242 Edition 2',
'CAx-IF Rec.Pracs.---Representation and Presentation of Product Manufa
cturing Information (PMI)---4.0---2014-10-13',
'CAx-IF Rec.Pracs.---3D Tessellated Geometry---0.4---2014-09-14','2;1',
'CAx-IF Rec.Pracs.---User Defined Attributes---1.5---2016-08-15'),
/* implementation_level */ '2;1');

FILE_NAME(
/* name */ '698c7d7fd9c976ddab44e4da',
/* time_stamp */ '2026-02-11T13:01:13Z',
/* author */ (''),
/* organization */ (''),
/* preprocessor_version */ 'ST-DEVELOPER v20',
/* originating_system */ 'ONSHAPE BY PTC INC, 1.210',
/* authorisation */ '  ');

FILE_SCHEMA (('AP242_MANAGED_MODEL_BASED_3D_ENGINEERING_MIM_LF { 1 0 10303 442 3 1 4 }'));
ENDSEC;

DATA;
#10=CONTEXT_DEPENDENT_SHAPE_REPRESENTATION(#16,#583);
#11=CONTEXT_DEPENDENT_SHAPE_REPRESENTATION(#17,#585);
#12=CONTEXT_DEPENDENT_SHAPE_REPRESENTATION(#18,#586);
#13=NEXT_ASSEMBLY_USAGE_OCCURRENCE('NAUO1','griff','griff',#587,#588,'');
#14=NEXT_ASSEMBLY_USAGE_OCCURRENCE('NAUO2','schale','schale',#587,#589,
'');
#15=NEXT_ASSEMBLY_USAGE_OCCURRENCE('NAUO3','griff','griff',#587,#588,'');
#16=(
REPRESENTATION_RELATIONSHIP(' ',' ',#365,#364)
REPRESENTATION_RELATIONSHIP_WITH_TRANSFORMATION(#19)
SHAPE_REPRESENTATION_RELATIONSHIP()
);
#17=(
REPRESENTATION_RELATIONSHIP(' ',' ',#366,#364)
REPRESENTATION_RELATIONSHIP_WITH_TRANSFORMATION(#20)
SHAPE_REPRESENTATION_RELATIONSHIP()
);
#18=(
REPRESENTATION_RELATIONSHIP(' ',' ',#365,#364)
REPRESENTATION_RELATIONSHIP_WITH_TRANSFORMATION(#21)
SHAPE_REPRESENTATION_RELATIONSHIP()
);
#19=ITEM_DEFINED_TRANSFORMATION(' ',' ',#367,#376);
#20=ITEM_DEFINED_TRANSFORMATION(' ',' ',#367,#388);
#21=ITEM_DEFINED_TRANSFORMATION(' ',' ',#367,#389);
#22=SHAPE_REPRESENTATION_RELATIONSHIP('','',#365,#24);
#23=SHAPE_REPRESENTATION_RELATIONSHIP('','',#366,#25);
#24=ADVANCED_BREP_SHAPE_REPRESENTATION('',(#359),#573);
#25=ADVANCED_BREP_SHAPE_REPRESENTATION('',(#360),#574);
#26=ORIENTED_EDGE('',*,*,#110,.F.);
#27=ORIENTED_EDGE('',*,*,#111,.F.);
#28=ORIENTED_EDGE('',*,*,#112,.T.);
#29=ORIENTED_EDGE('',*,*,#113,.T.);
#30=ORIENTED_EDGE('',*,*,#114,.T.);
#31=ORIENTED_EDGE('',*,*,#115,.T.);
#32=ORIENTED_EDGE('',*,*,#116,.T.);
#33=ORIENTED_EDGE('',*,*,#117,.F.);
#34=ORIENTED_EDGE('',*,*,#118,.F.);
#35=ORIENTED_EDGE('',*,*,#111,.T.);
#36=ORIENTED_EDGE('',*,*,#119,.T.);
#37=ORIENTED_EDGE('',*,*,#120,.F.);
#38=ORIENTED_EDGE('',*,*,#121,.F.);
#39=ORIENTED_EDGE('',*,*,#122,.F.);
#40=ORIENTED_EDGE('',*,*,#123,.F.);
#41=ORIENTED_EDGE('',*,*,#117,.T.);
#42=ORIENTED_EDGE('',*,*,#124,.F.);
#43=ORIENTED_EDGE('',*,*,#115,.F.);
#44=ORIENTED_EDGE('',*,*,#125,.F.);
#45=ORIENTED_EDGE('',*,*,#120,.T.);
#46=ORIENTED_EDGE('',*,*,#126,.F.);
#47=ORIENTED_EDGE('',*,*,#112,.F.);
#48=ORIENTED_EDGE('',*,*,#118,.T.);
#49=ORIENTED_EDGE('',*,*,#123,.T.);
#50=ORIENTED_EDGE('',*,*,#110,.T.);
#51=ORIENTED_EDGE('',*,*,#124,.T.);
#52=ORIENTED_EDGE('',*,*,#119,.F.);
#53=ORIENTED_EDGE('',*,*,#116,.F.);
#54=ORIENTED_EDGE('',*,*,#125,.T.);
#55=ORIENTED_EDGE('',*,*,#114,.F.);
#56=ORIENTED_EDGE('',*,*,#127,.F.);
#57=ORIENTED_EDGE('',*,*,#121,.T.);
#58=ORIENTED_EDGE('',*,*,#122,.T.);
#59=ORIENTED_EDGE('',*,*,#127,.T.);
#60=ORIENTED_EDGE('',*,*,#113,.F.);
#61=ORIENTED_EDGE('',*,*,#126,.T.);
#62=ORIENTED_EDGE('',*,*,#128,.F.);
#63=ORIENTED_EDGE('',*,*,#129,.T.);
#64=ORIENTED_EDGE('',*,*,#130,.T.);
#65=ORIENTED_EDGE('',*,*,#131,.F.);
#66=ORIENTED_EDGE('',*,*,#132,.F.);
#67=ORIENTED_EDGE('',*,*,#133,.T.);
#68=ORIENTED_EDGE('',*,*,#134,.T.);
#69=ORIENTED_EDGE('',*,*,#135,.F.);
#70=ORIENTED_EDGE('',*,*,#136,.F.);
#71=ORIENTED_EDGE('',*,*,#137,.F.);
#72=ORIENTED_EDGE('',*,*,#128,.T.);
#73=ORIENTED_EDGE('',*,*,#138,.T.);
#74=ORIENTED_EDGE('',*,*,#139,.T.);
#75=ORIENTED_EDGE('',*,*,#140,.F.);
#76=ORIENTED_EDGE('',*,*,#129,.F.);
#77=ORIENTED_EDGE('',*,*,#137,.T.);
#78=ORIENTED_EDGE('',*,*,#141,.T.);
#79=ORIENTED_EDGE('',*,*,#142,.F.);
#80=ORIENTED_EDGE('',*,*,#130,.F.);
#81=ORIENTED_EDGE('',*,*,#140,.T.);
#82=ORIENTED_EDGE('',*,*,#143,.F.);
#83=ORIENTED_EDGE('',*,*,#138,.F.);
#84=ORIENTED_EDGE('',*,*,#131,.T.);
#85=ORIENTED_EDGE('',*,*,#142,.T.);
#86=ORIENTED_EDGE('',*,*,#136,.T.);
#87=ORIENTED_EDGE('',*,*,#143,.T.);
#88=ORIENTED_EDGE('',*,*,#141,.F.);
#89=ORIENTED_EDGE('',*,*,#139,.F.);
#90=ORIENTED_EDGE('',*,*,#144,.T.);
#91=ORIENTED_EDGE('',*,*,#145,.F.);
#92=ORIENTED_EDGE('',*,*,#133,.F.);
#93=ORIENTED_EDGE('',*,*,#146,.T.);
#94=ORIENTED_EDGE('',*,*,#147,.F.);
#95=ORIENTED_EDGE('',*,*,#146,.F.);
#96=ORIENTED_EDGE('',*,*,#132,.T.);
#97=ORIENTED_EDGE('',*,*,#148,.T.);
#98=ORIENTED_EDGE('',*,*,#149,.F.);
#99=ORIENTED_EDGE('',*,*,#148,.F.);
#100=ORIENTED_EDGE('',*,*,#135,.T.);
#101=ORIENTED_EDGE('',*,*,#150,.T.);
#102=ORIENTED_EDGE('',*,*,#151,.T.);
#103=ORIENTED_EDGE('',*,*,#150,.F.);
#104=ORIENTED_EDGE('',*,*,#134,.F.);
#105=ORIENTED_EDGE('',*,*,#145,.T.);
#106=ORIENTED_EDGE('',*,*,#144,.F.);
#107=ORIENTED_EDGE('',*,*,#147,.T.);
#108=ORIENTED_EDGE('',*,*,#149,.T.);
#109=ORIENTED_EDGE('',*,*,#151,.F.);
#110=EDGE_CURVE('',#152,#153,#180,.T.);
#111=EDGE_CURVE('',#154,#152,#181,.T.);
#112=EDGE_CURVE('',#154,#155,#182,.T.);
#113=EDGE_CURVE('',#155,#156,#183,.T.);
#114=EDGE_CURVE('',#156,#157,#184,.T.);
#115=EDGE_CURVE('',#157,#153,#185,.T.);
#116=EDGE_CURVE('',#152,#158,#186,.T.);
#117=EDGE_CURVE('',#159,#158,#187,.T.);
#118=EDGE_CURVE('',#154,#159,#188,.T.);
#119=EDGE_CURVE('',#158,#160,#189,.T.);
#120=EDGE_CURVE('',#161,#160,#190,.T.);
#121=EDGE_CURVE('',#162,#161,#191,.T.);
#122=EDGE_CURVE('',#163,#162,#192,.T.);
#123=EDGE_CURVE('',#159,#163,#193,.T.);
#124=EDGE_CURVE('',#153,#160,#194,.T.);
#125=EDGE_CURVE('',#161,#157,#195,.T.);
#126=EDGE_CURVE('',#155,#163,#196,.T.);
#127=EDGE_CURVE('',#162,#156,#197,.T.);
#128=EDGE_CURVE('',#164,#165,#198,.T.);
#129=EDGE_CURVE('',#164,#166,#199,.T.);
#130=EDGE_CURVE('',#166,#167,#200,.T.);
#131=EDGE_CURVE('',#165,#167,#201,.T.);
#132=EDGE_CURVE('',#168,#169,#202,.T.);
#133=EDGE_CURVE('',#168,#170,#203,.T.);
#134=EDGE_CURVE('',#170,#171,#204,.T.);
#135=EDGE_CURVE('',#169,#171,#205,.T.);
#136=EDGE_CURVE('',#172,#173,#206,.T.);
#137=EDGE_CURVE('',#164,#172,#207,.T.);
#138=EDGE_CURVE('',#165,#173,#208,.T.);
#139=EDGE_CURVE('',#172,#174,#209,.T.);
#140=EDGE_CURVE('',#166,#174,#210,.T.);
#141=EDGE_CURVE('',#174,#175,#211,.T.);
#142=EDGE_CURVE('',#167,#175,#212,.T.);
#143=EDGE_CURVE('',#173,#175,#213,.T.);
#144=EDGE_CURVE('',#176,#177,#214,.T.);
#145=EDGE_CURVE('',#170,#177,#215,.T.);
#146=EDGE_CURVE('',#168,#176,#216,.T.);
#147=EDGE_CURVE('',#176,#178,#217,.T.);
#148=EDGE_CURVE('',#169,#178,#218,.T.);
#149=EDGE_CURVE('',#178,#179,#219,.T.);
#150=EDGE_CURVE('',#171,#179,#220,.T.);
#151=EDGE_CURVE('',#177,#179,#221,.T.);
#152=VERTEX_POINT('',#481);
#153=VERTEX_POINT('',#482);
#154=VERTEX_POINT('',#484);
#155=VERTEX_POINT('',#486);
#156=VERTEX_POINT('',#488);
#157=VERTEX_POINT('',#490);
#158=VERTEX_POINT('',#494);
#159=VERTEX_POINT('',#496);
#160=VERTEX_POINT('',#500);
#161=VERTEX_POINT('',#502);
#162=VERTEX_POINT('',#504);
#163=VERTEX_POINT('',#506);
#164=VERTEX_POINT('',#520);
#165=VERTEX_POINT('',#521);
#166=VERTEX_POINT('',#523);
#167=VERTEX_POINT('',#525);
#168=VERTEX_POINT('',#528);
#169=VERTEX_POINT('',#529);
#170=VERTEX_POINT('',#531);
#171=VERTEX_POINT('',#533);
#172=VERTEX_POINT('',#537);
#173=VERTEX_POINT('',#538);
#174=VERTEX_POINT('',#543);
#175=VERTEX_POINT('',#547);
#176=VERTEX_POINT('',#554);
#177=VERTEX_POINT('',#555);
#178=VERTEX_POINT('',#560);
#179=VERTEX_POINT('',#564);
#180=LINE('',#480,#222);
#181=LINE('',#483,#223);
#182=LINE('',#485,#224);
#183=LINE('',#487,#225);
#184=LINE('',#489,#226);
#185=LINE('',#491,#227);
#186=LINE('',#493,#228);
#187=LINE('',#495,#229);
#188=LINE('',#497,#230);
#189=LINE('',#499,#231);
#190=LINE('',#501,#232);
#191=LINE('',#503,#233);
#192=LINE('',#505,#234);
#193=LINE('',#507,#235);
#194=LINE('',#509,#236);
#195=LINE('',#510,#237);
#196=LINE('',#512,#238);
#197=LINE('',#515,#239);
#198=LINE('',#519,#240);
#199=LINE('',#522,#241);
#200=LINE('',#524,#242);
#201=LINE('',#526,#243);
#202=LINE('',#527,#244);
#203=LINE('',#530,#245);
#204=LINE('',#532,#246);
#205=LINE('',#534,#247);
#206=LINE('',#536,#248);
#207=LINE('',#539,#249);
#208=LINE('',#540,#250);
#209=LINE('',#542,#251);
#210=LINE('',#544,#252);
#211=LINE('',#546,#253);
#212=LINE('',#548,#254);
#213=LINE('',#550,#255);
#214=LINE('',#553,#256);
#215=LINE('',#556,#257);
#216=LINE('',#557,#258);
#217=LINE('',#559,#259);
#218=LINE('',#561,#260);
#219=LINE('',#563,#261);
#220=LINE('',#565,#262);
#221=LINE('',#567,#263);
#222=VECTOR('',#394,1.);
#223=VECTOR('',#395,1.);
#224=VECTOR('',#396,1.);
#225=VECTOR('',#397,1.);
#226=VECTOR('',#398,1.);
#227=VECTOR('',#399,1.);
#228=VECTOR('',#402,1.);
#229=VECTOR('',#403,1.);
#230=VECTOR('',#404,1.);
#231=VECTOR('',#407,1.);
#232=VECTOR('',#408,1.);
#233=VECTOR('',#409,1.);
#234=VECTOR('',#410,1.);
#235=VECTOR('',#411,1.);
#236=VECTOR('',#414,1.);
#237=VECTOR('',#415,1.);
#238=VECTOR('',#418,1.);
#239=VECTOR('',#423,1.);
#240=VECTOR('',#430,1.);
#241=VECTOR('',#431,1.);
#242=VECTOR('',#432,1.);
#243=VECTOR('',#433,1.);
#244=VECTOR('',#434,1.);
#245=VECTOR('',#435,1.);
#246=VECTOR('',#436,1.);
#247=VECTOR('',#437,1.);
#248=VECTOR('',#440,1.);
#249=VECTOR('',#441,1.);
#250=VECTOR('',#442,1.);
#251=VECTOR('',#445,1.);
#252=VECTOR('',#446,1.);
#253=VECTOR('',#449,1.);
#254=VECTOR('',#450,1.);
#255=VECTOR('',#453,1.);
#256=VECTOR('',#458,1.);
#257=VECTOR('',#459,1.);
#258=VECTOR('',#460,1.);
#259=VECTOR('',#463,1.);
#260=VECTOR('',#464,1.);
#261=VECTOR('',#467,1.);
#262=VECTOR('',#468,1.);
#263=VECTOR('',#471,1.);
#264=EDGE_LOOP('',(#26,#27,#28,#29,#30,#31));
#265=EDGE_LOOP('',(#32,#33,#34,#35));
#266=EDGE_LOOP('',(#36,#37,#38,#39,#40,#41));
#267=EDGE_LOOP('',(#42,#43,#44,#45));
#268=EDGE_LOOP('',(#46,#47,#48,#49));
#269=EDGE_LOOP('',(#50,#51,#52,#53));
#270=EDGE_LOOP('',(#54,#55,#56,#57));
#271=EDGE_LOOP('',(#58,#59,#60,#61));
#272=EDGE_LOOP('',(#62,#63,#64,#65));
#273=EDGE_LOOP('',(#66,#67,#68,#69));
#274=EDGE_LOOP('',(#70,#71,#72,#73));
#275=EDGE_LOOP('',(#74,#75,#76,#77));
#276=EDGE_LOOP('',(#78,#79,#80,#81));
#277=EDGE_LOOP('',(#82,#83,#84,#85));
#278=EDGE_LOOP('',(#86,#87,#88,#89));
#279=EDGE_LOOP('',(#90,#91,#92,#93));
#280=EDGE_LOOP('',(#94,#95,#96,#97));
#281=EDGE_LOOP('',(#98,#99,#100,#101));
#282=EDGE_LOOP('',(#102,#103,#104,#105));
#283=EDGE_LOOP('',(#106,#107,#108,#109));
#284=FACE_BOUND('',#264,.T.);
#285=FACE_BOUND('',#265,.T.);
#286=FACE_BOUND('',#266,.T.);
#287=FACE_BOUND('',#267,.T.);
#288=FACE_BOUND('',#268,.T.);
#289=FACE_BOUND('',#269,.T.);
#290=FACE_BOUND('',#270,.T.);
#291=FACE_BOUND('',#271,.T.);
#292=FACE_BOUND('',#272,.T.);
#293=FACE_BOUND('',#273,.T.);
#294=FACE_BOUND('',#274,.T.);
#295=FACE_BOUND('',#275,.T.);
#296=FACE_BOUND('',#276,.T.);
#297=FACE_BOUND('',#277,.T.);
#298=FACE_BOUND('',#278,.T.);
#299=FACE_BOUND('',#279,.T.);
#300=FACE_BOUND('',#280,.T.);
#301=FACE_BOUND('',#281,.T.);
#302=FACE_BOUND('',#282,.T.);
#303=FACE_BOUND('',#283,.T.);
#304=PLANE('',#368);
#305=PLANE('',#369);
#306=PLANE('',#370);
#307=PLANE('',#371);
#308=PLANE('',#372);
#309=PLANE('',#373);
#310=PLANE('',#374);
#311=PLANE('',#375);
#312=PLANE('',#377);
#313=PLANE('',#378);
#314=PLANE('',#379);
#315=PLANE('',#380);
#316=PLANE('',#381);
#317=PLANE('',#382);
#318=PLANE('',#383);
#319=PLANE('',#384);
#320=PLANE('',#385);
#321=PLANE('',#386);
#322=PLANE('',#387);
#323=ADVANCED_FACE('',(#284),#304,.T.);
#324=ADVANCED_FACE('',(#285),#305,.F.);
#325=ADVANCED_FACE('',(#286),#306,.F.);
#326=ADVANCED_FACE('',(#287),#307,.T.);
#327=ADVANCED_FACE('',(#288),#308,.T.);
#328=ADVANCED_FACE('',(#289),#309,.F.);
#329=ADVANCED_FACE('',(#290),#310,.F.);
#330=ADVANCED_FACE('',(#291),#311,.F.);
#331=ADVANCED_FACE('',(#292,#293),#312,.T.);
#332=ADVANCED_FACE('',(#294),#313,.T.);
#333=ADVANCED_FACE('',(#295),#314,.F.);
#334=ADVANCED_FACE('',(#296),#315,.F.);
#335=ADVANCED_FACE('',(#297),#316,.T.);
#336=ADVANCED_FACE('',(#298),#317,.F.);
#337=ADVANCED_FACE('',(#299),#318,.F.);
#338=ADVANCED_FACE('',(#300),#319,.T.);
#339=ADVANCED_FACE('',(#301),#320,.T.);
#340=ADVANCED_FACE('',(#302),#321,.F.);
#341=ADVANCED_FACE('',(#303),#322,.T.);
#342=CLOSED_SHELL('',(#323,#324,#325,#326,#327,#328,#329,#330));
#343=CLOSED_SHELL('',(#331,#332,#333,#334,#335,#336,#337,#338,#339,#340,
#341));
#344=STYLED_ITEM('',(#346),#359);
#345=STYLED_ITEM('',(#347),#360);
#346=PRESENTATION_STYLE_ASSIGNMENT((#348));
#347=PRESENTATION_STYLE_ASSIGNMENT((#349));
#348=SURFACE_STYLE_USAGE(.BOTH.,#350);
#349=SURFACE_STYLE_USAGE(.BOTH.,#351);
#350=SURFACE_SIDE_STYLE('',(#352));
#351=SURFACE_SIDE_STYLE('',(#353));
#352=SURFACE_STYLE_FILL_AREA(#354);
#353=SURFACE_STYLE_FILL_AREA(#355);
#354=FILL_AREA_STYLE('',(#356));
#355=FILL_AREA_STYLE('',(#357));
#356=FILL_AREA_STYLE_COLOUR('',#358);
#357=FILL_AREA_STYLE_COLOUR('',#358);
#358=COLOUR_RGB('',0.615686274509804,0.811764705882353,0.929411764705882);
#359=MANIFOLD_SOLID_BREP('griff',#342);
#360=MANIFOLD_SOLID_BREP('schale',#343);
#361=SHAPE_DEFINITION_REPRESENTATION(#581,#364);
#362=SHAPE_DEFINITION_REPRESENTATION(#582,#365);
#363=SHAPE_DEFINITION_REPRESENTATION(#584,#366);
#364=SHAPE_REPRESENTATION('schale_fertig',(#367,#376,#388,#389),#572);
#365=SHAPE_REPRESENTATION('griff',(#367),#573);
#366=SHAPE_REPRESENTATION('schale',(#367),#574);
#367=AXIS2_PLACEMENT_3D('',#478,#390,#391);
#368=AXIS2_PLACEMENT_3D('',#479,#392,#393);
#369=AXIS2_PLACEMENT_3D('',#492,#400,#401);
#370=AXIS2_PLACEMENT_3D('',#498,#405,#406);
#371=AXIS2_PLACEMENT_3D('',#508,#412,#413);
#372=AXIS2_PLACEMENT_3D('',#511,#416,#417);
#373=AXIS2_PLACEMENT_3D('',#513,#419,#420);
#374=AXIS2_PLACEMENT_3D('',#514,#421,#422);
#375=AXIS2_PLACEMENT_3D('',#516,#424,#425);
#376=AXIS2_PLACEMENT_3D('',#517,#426,#427);
#377=AXIS2_PLACEMENT_3D('',#518,#428,#429);
#378=AXIS2_PLACEMENT_3D('',#535,#438,#439);
#379=AXIS2_PLACEMENT_3D('',#541,#443,#444);
#380=AXIS2_PLACEMENT_3D('',#545,#447,#448);
#381=AXIS2_PLACEMENT_3D('',#549,#451,#452);
#382=AXIS2_PLACEMENT_3D('',#551,#454,#455);
#383=AXIS2_PLACEMENT_3D('',#552,#456,#457);
#384=AXIS2_PLACEMENT_3D('',#558,#461,#462);
#385=AXIS2_PLACEMENT_3D('',#562,#465,#466);
#386=AXIS2_PLACEMENT_3D('',#566,#469,#470);
#387=AXIS2_PLACEMENT_3D('',#568,#472,#473);
#388=AXIS2_PLACEMENT_3D('',#569,#474,#475);
#389=AXIS2_PLACEMENT_3D('',#570,#476,#477);
#390=DIRECTION('',(0.,0.,1.));
#391=DIRECTION('',(1.,0.,0.));
#392=DIRECTION('',(0.,-1.,0.));
#393=DIRECTION('',(0.,0.,-1.));
#394=DIRECTION('',(0.,0.,1.));
#395=DIRECTION('',(-1.,0.,0.));
#396=DIRECTION('',(0.,0.,1.));
#397=DIRECTION('',(1.,0.,0.));
#398=DIRECTION('',(0.,0.,1.));
#399=DIRECTION('',(-1.,0.,0.));
#400=DIRECTION('',(0.,0.,1.));
#401=DIRECTION('',(1.,0.,0.));
#402=DIRECTION('',(0.,1.,0.));
#403=DIRECTION('',(-1.,0.,0.));
#404=DIRECTION('',(0.,1.,0.));
#405=DIRECTION('',(0.,-1.,-1.79647738612485E-16));
#406=DIRECTION('',(0.,1.79647738612485E-16,-1.));
#407=DIRECTION('',(0.,-1.79647738612485E-16,1.));
#408=DIRECTION('',(-1.,0.,0.));
#409=DIRECTION('',(0.,0.,1.));
#410=DIRECTION('',(1.,0.,0.));
#411=DIRECTION('',(0.,-1.79647738612485E-16,1.));
#412=DIRECTION('',(0.,0.,1.));
#413=DIRECTION('',(1.,0.,0.));
#414=DIRECTION('',(0.,1.,0.));
#415=DIRECTION('',(0.,-1.,0.));
#416=DIRECTION('',(1.,0.,0.));
#417=DIRECTION('',(0.,1.,0.));
#418=DIRECTION('',(0.,1.,0.));
#419=DIRECTION('',(1.,0.,0.));
#420=DIRECTION('',(0.,1.,0.));
#421=DIRECTION('',(-1.,0.,0.));
#422=DIRECTION('',(0.,0.,1.));
#423=DIRECTION('',(0.,-1.,0.));
#424=DIRECTION('',(0.,0.,1.));
#425=DIRECTION('',(1.,0.,0.));
#426=DIRECTION('',(0.,0.,1.));
#427=DIRECTION('',(-1.,0.,0.));
#428=DIRECTION('',(0.,0.,1.));
#429=DIRECTION('',(1.,0.,0.));
#430=DIRECTION('',(1.,0.,0.));
#431=DIRECTION('',(0.,-1.,0.));
#432=DIRECTION('',(1.,0.,0.));
#433=DIRECTION('',(0.,-1.,0.));
#434=DIRECTION('',(0.,-1.,0.));
#435=DIRECTION('',(1.,0.,0.));
#436=DIRECTION('',(0.,-1.,0.));
#437=DIRECTION('',(1.,0.,0.));
#438=DIRECTION('',(0.,1.,0.));
#439=DIRECTION('',(0.,0.,1.));
#440=DIRECTION('',(1.,0.,0.));
#441=DIRECTION('',(0.,0.,-1.));
#442=DIRECTION('',(0.,0.,-1.));
#443=DIRECTION('',(1.,0.,0.));
#444=DIRECTION('',(0.,0.,-1.));
#445=DIRECTION('',(0.,-1.,0.));
#446=DIRECTION('',(0.,0.,-1.));
#447=DIRECTION('',(0.,1.,0.));
#448=DIRECTION('',(0.,0.,1.));
#449=DIRECTION('',(1.,0.,0.));
#450=DIRECTION('',(0.,0.,-1.));
#451=DIRECTION('',(1.,0.,0.));
#452=DIRECTION('',(0.,0.,-1.));
#453=DIRECTION('',(0.,-1.,0.));
#454=DIRECTION('',(0.,0.,1.));
#455=DIRECTION('',(1.,0.,0.));
#456=DIRECTION('',(0.,1.,0.));
#457=DIRECTION('',(0.,0.,1.));
#458=DIRECTION('',(1.,0.,0.));
#459=DIRECTION('',(0.,0.,-1.));
#460=DIRECTION('',(0.,0.,-1.));
#461=DIRECTION('',(1.,0.,0.));
#462=DIRECTION('',(0.,0.,-1.));
#463=DIRECTION('',(0.,-1.,0.));
#464=DIRECTION('',(0.,0.,-1.));
#465=DIRECTION('',(0.,1.,0.));
#466=DIRECTION('',(0.,0.,1.));
#467=DIRECTION('',(1.,0.,0.));
#468=DIRECTION('',(0.,0.,-1.));
#469=DIRECTION('',(1.,0.,0.));
#470=DIRECTION('',(0.,0.,-1.));
#471=DIRECTION('',(0.,-1.,0.));
#472=DIRECTION('',(0.,0.,1.));
#473=DIRECTION('',(1.,0.,0.));
#474=DIRECTION('',(0.,0.,1.));
#475=DIRECTION('',(1.,0.,0.));
#476=DIRECTION('',(0.,0.,1.));
#477=DIRECTION('',(1.,0.,0.));
#478=CARTESIAN_POINT('',(0.,0.,0.));
#479=CARTESIAN_POINT('',(0.001,-0.0714226927427386,0.0478021241724491));
#480=CARTESIAN_POINT('',(0.,-0.0714226927427386,0.0478021241724491));
#481=CARTESIAN_POINT('',(0.,-0.0714226927427386,-0.0294478758275509));
#482=CARTESIAN_POINT('',(0.,-0.0714226927427386,0.125052124172449));
#483=CARTESIAN_POINT('',(0.001,-0.0714226927427386,-0.0294478758275509));
#484=CARTESIAN_POINT('',(0.001,-0.0714226927427386,-0.0294478758275509));
#485=CARTESIAN_POINT('',(0.001,-0.0714226927427386,0.0478021241724491));
#486=CARTESIAN_POINT('',(0.001,-0.0714226927427386,0.124052124172449));
#487=CARTESIAN_POINT('',(0.0125,-0.0714226927427386,0.124052124172449));
#488=CARTESIAN_POINT('',(0.025,-0.0714226927427386,0.124052124172449));
#489=CARTESIAN_POINT('',(0.025,-0.0714226927427386,0.124052124172449));
#490=CARTESIAN_POINT('',(0.025,-0.0714226927427386,0.125052124172449));
#491=CARTESIAN_POINT('',(0.001,-0.0714226927427386,0.125052124172449));
#492=CARTESIAN_POINT('',(0.001,-0.0514226927427386,-0.0294478758275509));
#493=CARTESIAN_POINT('',(0.,-0.0514226927427386,-0.0294478758275509));
#494=CARTESIAN_POINT('',(0.,-0.0314226927427386,-0.0294478758275509));
#495=CARTESIAN_POINT('',(0.001,-0.0314226927427386,-0.0294478758275509));
#496=CARTESIAN_POINT('',(0.001,-0.0314226927427386,-0.0294478758275509));
#497=CARTESIAN_POINT('',(0.001,-0.0514226927427386,-0.0294478758275509));
#498=CARTESIAN_POINT('',(0.001,-0.0314226927427386,0.0478021241724491));
#499=CARTESIAN_POINT('',(0.,-0.0314226927427386,0.0478021241724491));
#500=CARTESIAN_POINT('',(0.,-0.0314226927427387,0.125052124172449));
#501=CARTESIAN_POINT('',(0.001,-0.0314226927427387,0.125052124172449));
#502=CARTESIAN_POINT('',(0.025,-0.0314226927427387,0.125052124172449));
#503=CARTESIAN_POINT('',(0.025,-0.0314226927427387,0.124052124172449));
#504=CARTESIAN_POINT('',(0.025,-0.0314226927427387,0.124052124172449));
#505=CARTESIAN_POINT('',(0.0125,-0.0314226927427387,0.124052124172449));
#506=CARTESIAN_POINT('',(0.001,-0.0314226927427387,0.124052124172449));
#507=CARTESIAN_POINT('',(0.001,-0.0314226927427386,0.0478021241724491));
#508=CARTESIAN_POINT('',(0.001,-0.0514226927427386,0.125052124172449));
#509=CARTESIAN_POINT('',(0.,-0.0514226927427386,0.125052124172449));
#510=CARTESIAN_POINT('',(0.025,-0.0514226927427386,0.125052124172449));
#511=CARTESIAN_POINT('',(0.001,-0.0514226927427386,0.0478021241724491));
#512=CARTESIAN_POINT('',(0.001,-0.0514226927427386,0.124052124172449));
#513=CARTESIAN_POINT('',(0.,-0.0514226927427386,0.0478021241724491));
#514=CARTESIAN_POINT('',(0.025,-0.0514226927427386,0.124052124172449));
#515=CARTESIAN_POINT('',(0.025,-0.0514226927427386,0.124052124172449));
#516=CARTESIAN_POINT('',(0.0125,-0.0514226927427386,0.124052124172449));
#517=CARTESIAN_POINT('',(0.214356167055766,-0.0789948527518703,0.0349462500745627));
#518=CARTESIAN_POINT('',(0.,1.38777878078145E-17,0.045));
#519=CARTESIAN_POINT('',(0.,0.0925,0.045));
#520=CARTESIAN_POINT('',(-0.2175,0.0925,0.045));
#521=CARTESIAN_POINT('',(0.2175,0.0925,0.045));
#522=CARTESIAN_POINT('',(-0.2175,1.38777878078145E-17,0.045));
#523=CARTESIAN_POINT('',(-0.2175,-0.0925,0.045));
#524=CARTESIAN_POINT('',(-2.77555756156289E-17,-0.0925,0.045));
#525=CARTESIAN_POINT('',(0.2175,-0.0925,0.045));
#526=CARTESIAN_POINT('',(0.2175,1.38777878078145E-17,0.045));
#527=CARTESIAN_POINT('',(-0.2155,1.38777878078145E-17,0.045));
#528=CARTESIAN_POINT('',(-0.2155,0.0905,0.045));
#529=CARTESIAN_POINT('',(-0.2155,-0.0905,0.045));
#530=CARTESIAN_POINT('',(0.,0.0905,0.045));
#531=CARTESIAN_POINT('',(0.2155,0.0905,0.045));
#532=CARTESIAN_POINT('',(0.2155,1.38777878078145E-17,0.045));
#533=CARTESIAN_POINT('',(0.2155,-0.0905,0.045));
#534=CARTESIAN_POINT('',(-2.77555756156289E-17,-0.0905,0.045));
#535=CARTESIAN_POINT('',(0.,0.0925,0.045));
#536=CARTESIAN_POINT('',(0.,0.0925,0.));
#537=CARTESIAN_POINT('',(-0.2175,0.0925,0.));
#538=CARTESIAN_POINT('',(0.2175,0.0925,0.));
#539=CARTESIAN_POINT('',(-0.2175,0.0925,0.045));
#540=CARTESIAN_POINT('',(0.2175,0.0925,0.045));
#541=CARTESIAN_POINT('',(-0.2175,1.38777878078145E-17,0.045));
#542=CARTESIAN_POINT('',(-0.2175,1.38777878078145E-17,0.));
#543=CARTESIAN_POINT('',(-0.2175,-0.0925,0.));
#544=CARTESIAN_POINT('',(-0.2175,-0.0925,0.045));
#545=CARTESIAN_POINT('',(-2.77555756156289E-17,-0.0925,0.045));
#546=CARTESIAN_POINT('',(-2.77555756156289E-17,-0.0925,0.));
#547=CARTESIAN_POINT('',(0.2175,-0.0925,0.));
#548=CARTESIAN_POINT('',(0.2175,-0.0925,0.045));
#549=CARTESIAN_POINT('',(0.2175,1.38777878078145E-17,0.045));
#550=CARTESIAN_POINT('',(0.2175,1.38777878078145E-17,0.));
#551=CARTESIAN_POINT('',(0.,1.38777878078145E-17,0.));
#552=CARTESIAN_POINT('',(0.,0.0905,0.045));
#553=CARTESIAN_POINT('',(0.,0.0905,0.002));
#554=CARTESIAN_POINT('',(-0.2155,0.0905,0.002));
#555=CARTESIAN_POINT('',(0.2155,0.0905,0.002));
#556=CARTESIAN_POINT('',(0.2155,0.0905,0.045));
#557=CARTESIAN_POINT('',(-0.2155,0.0905,0.045));
#558=CARTESIAN_POINT('',(-0.2155,1.38777878078145E-17,0.045));
#559=CARTESIAN_POINT('',(-0.2155,1.38777878078145E-17,0.002));
#560=CARTESIAN_POINT('',(-0.2155,-0.0905,0.002));
#561=CARTESIAN_POINT('',(-0.2155,-0.0905,0.045));
#562=CARTESIAN_POINT('',(-2.77555756156289E-17,-0.0905,0.045));
#563=CARTESIAN_POINT('',(-2.77555756156289E-17,-0.0905,0.002));
#564=CARTESIAN_POINT('',(0.2155,-0.0905,0.002));
#565=CARTESIAN_POINT('',(0.2155,-0.0905,0.045));
#566=CARTESIAN_POINT('',(0.2155,1.38777878078145E-17,0.045));
#567=CARTESIAN_POINT('',(0.2155,1.38777878078145E-17,0.002));
#568=CARTESIAN_POINT('',(0.,1.38777878078145E-17,0.002));
#569=CARTESIAN_POINT('',(-0.00214383294423336,0.0174278399908683,0.00549837424701185));
#570=CARTESIAN_POINT('',(-0.218643832944234,0.113850532733607,0.0349462500745627));
#571=MECHANICAL_DESIGN_GEOMETRIC_PRESENTATION_REPRESENTATION('',(#344,#345),
#572);
#572=(
GEOMETRIC_REPRESENTATION_CONTEXT(3)
GLOBAL_UNCERTAINTY_ASSIGNED_CONTEXT((#575))
GLOBAL_UNIT_ASSIGNED_CONTEXT((#580,#579,#578))
REPRESENTATION_CONTEXT('schale_fertig','TOP_LEVEL_ASSEMBLY_PART')
);
#573=(
GEOMETRIC_REPRESENTATION_CONTEXT(3)
GLOBAL_UNCERTAINTY_ASSIGNED_CONTEXT((#576))
GLOBAL_UNIT_ASSIGNED_CONTEXT((#580,#579,#578))
REPRESENTATION_CONTEXT('griff','COMPONENT_PART')
);
#574=(
GEOMETRIC_REPRESENTATION_CONTEXT(3)
GLOBAL_UNCERTAINTY_ASSIGNED_CONTEXT((#577))
GLOBAL_UNIT_ASSIGNED_CONTEXT((#580,#579,#578))
REPRESENTATION_CONTEXT('schale','COMPONENT_PART')
);
#575=UNCERTAINTY_MEASURE_WITH_UNIT(LENGTH_MEASURE(1.E-8),#580,
'DISTANCE_ACCURACY_VALUE','Maximum Tolerance applied to model');
#576=UNCERTAINTY_MEASURE_WITH_UNIT(LENGTH_MEASURE(1.E-8),#580,
'DISTANCE_ACCURACY_VALUE','Maximum Tolerance applied to model');
#577=UNCERTAINTY_MEASURE_WITH_UNIT(LENGTH_MEASURE(1.E-8),#580,
'DISTANCE_ACCURACY_VALUE','Maximum Tolerance applied to model');
#578=(
NAMED_UNIT(*)
SI_UNIT($,.STERADIAN.)
SOLID_ANGLE_UNIT()
);
#579=(
NAMED_UNIT(*)
PLANE_ANGLE_UNIT()
SI_UNIT($,.RADIAN.)
);
#580=(
LENGTH_UNIT()
NAMED_UNIT(*)
SI_UNIT($,.METRE.)
);
#581=PRODUCT_DEFINITION_SHAPE('','',#587);
#582=PRODUCT_DEFINITION_SHAPE('','',#588);
#583=PRODUCT_DEFINITION_SHAPE(' ','NAUO PRDDFN',#13);
#584=PRODUCT_DEFINITION_SHAPE('','',#589);
#585=PRODUCT_DEFINITION_SHAPE(' ','NAUO PRDDFN',#14);
#586=PRODUCT_DEFINITION_SHAPE(' ','NAUO PRDDFN',#15);
#587=PRODUCT_DEFINITION('','',#593,#590);
#588=PRODUCT_DEFINITION('','',#594,#591);
#589=PRODUCT_DEFINITION('','',#595,#592);
#590=PRODUCT_DEFINITION_CONTEXT('',#609,'design');
#591=PRODUCT_DEFINITION_CONTEXT('',#609,'design');
#592=PRODUCT_DEFINITION_CONTEXT('',#609,'design');
#593=PRODUCT_DEFINITION_FORMATION_WITH_SPECIFIED_SOURCE('','',#599,
 .NOT_KNOWN.);
#594=PRODUCT_DEFINITION_FORMATION_WITH_SPECIFIED_SOURCE('','',#600,
 .NOT_KNOWN.);
#595=PRODUCT_DEFINITION_FORMATION_WITH_SPECIFIED_SOURCE('','',#601,
 .NOT_KNOWN.);
#596=PRODUCT_RELATED_PRODUCT_CATEGORY('','',(#599));
#597=PRODUCT_RELATED_PRODUCT_CATEGORY('','',(#600));
#598=PRODUCT_RELATED_PRODUCT_CATEGORY('','',(#601));
#599=PRODUCT('schale_fertig','schale_fertig','schale_fertig',(#605));
#600=PRODUCT('griff','griff','griff',(#606));
#601=PRODUCT('schale','schale','schale',(#607));
#602=PRODUCT_CATEGORY('','');
#603=PRODUCT_CATEGORY('','');
#604=PRODUCT_CATEGORY('','');
#605=PRODUCT_CONTEXT('',#609,'mechanical');
#606=PRODUCT_CONTEXT('',#609,'mechanical');
#607=PRODUCT_CONTEXT('',#609,'mechanical');
#608=APPLICATION_PROTOCOL_DEFINITION('international standard',
'ap242_managed_model_based_3d_engineering',2020,#609);
#609=APPLICATION_CONTEXT('managed model based 3d engineering');
ENDSEC;
END-ISO-10303-21;
