ISO-10303-21;
HEADER;
/* Generated by software containing ST-Developer
 * from STEP Tools, Inc. (www.steptools.com) 
 */
/* OPTION: using custom renumber hook */

FILE_DESCRIPTION(
/* description */ ('STEP AP242 Edition 2',
'CAx-IF Rec.Pracs.---Representation and Presentation of Product Manufa
cturing Information (PMI)---4.0---2014-10-13',
'CAx-IF Rec.Pracs.---3D Tessellated Geometry---0.4---2014-09-14','2;1',
'CAx-IF Rec.Pracs.---User Defined Attributes---1.5---2016-08-15'),
/* implementation_level */ '2;1');

FILE_NAME(
/* name */ '698c62df3c032df967dc492d',
/* time_stamp */ '2026-02-11T11:07:12Z',
/* author */ (''),
/* organization */ (''),
/* preprocessor_version */ 'ST-DEVELOPER v20',
/* originating_system */ 'ONSHAPE BY PTC INC, 1.210',
/* authorisation */ '  ');

FILE_SCHEMA (('AP242_MANAGED_MODEL_BASED_3D_ENGINEERING_MIM_LF { 1 0 10303 442 3 1 4 }'));
ENDSEC;

DATA;
#10=CONTEXT_DEPENDENT_SHAPE_REPRESENTATION(#14,#509);
#11=CONTEXT_DEPENDENT_SHAPE_REPRESENTATION(#15,#511);
#12=NEXT_ASSEMBLY_USAGE_OCCURRENCE('NAUO1','deckelwand','deckelwand',#512,
#513,'');
#13=NEXT_ASSEMBLY_USAGE_OCCURRENCE('NAUO2','Deckel','Deckel',#512,#514,
'');
#14=(
REPRESENTATION_RELATIONSHIP(' ',' ',#319,#318)
REPRESENTATION_RELATIONSHIP_WITH_TRANSFORMATION(#16)
SHAPE_REPRESENTATION_RELATIONSHIP()
);
#15=(
REPRESENTATION_RELATIONSHIP(' ',' ',#320,#318)
REPRESENTATION_RELATIONSHIP_WITH_TRANSFORMATION(#17)
SHAPE_REPRESENTATION_RELATIONSHIP()
);
#16=ITEM_DEFINED_TRANSFORMATION(' ',' ',#321,#328);
#17=ITEM_DEFINED_TRANSFORMATION(' ',' ',#321,#340);
#18=SHAPE_REPRESENTATION_RELATIONSHIP('','',#319,#20);
#19=SHAPE_REPRESENTATION_RELATIONSHIP('','',#320,#21);
#20=ADVANCED_BREP_SHAPE_REPRESENTATION('',(#313),#499);
#21=ADVANCED_BREP_SHAPE_REPRESENTATION('',(#314),#500);
#22=ORIENTED_EDGE('',*,*,#94,.F.);
#23=ORIENTED_EDGE('',*,*,#95,.F.);
#24=ORIENTED_EDGE('',*,*,#96,.T.);
#25=ORIENTED_EDGE('',*,*,#97,.T.);
#26=ORIENTED_EDGE('',*,*,#98,.T.);
#27=ORIENTED_EDGE('',*,*,#99,.F.);
#28=ORIENTED_EDGE('',*,*,#100,.F.);
#29=ORIENTED_EDGE('',*,*,#95,.T.);
#30=ORIENTED_EDGE('',*,*,#101,.T.);
#31=ORIENTED_EDGE('',*,*,#102,.F.);
#32=ORIENTED_EDGE('',*,*,#103,.F.);
#33=ORIENTED_EDGE('',*,*,#99,.T.);
#34=ORIENTED_EDGE('',*,*,#104,.F.);
#35=ORIENTED_EDGE('',*,*,#97,.F.);
#36=ORIENTED_EDGE('',*,*,#105,.T.);
#37=ORIENTED_EDGE('',*,*,#102,.T.);
#38=ORIENTED_EDGE('',*,*,#96,.F.);
#39=ORIENTED_EDGE('',*,*,#100,.T.);
#40=ORIENTED_EDGE('',*,*,#103,.T.);
#41=ORIENTED_EDGE('',*,*,#105,.F.);
#42=ORIENTED_EDGE('',*,*,#94,.T.);
#43=ORIENTED_EDGE('',*,*,#104,.T.);
#44=ORIENTED_EDGE('',*,*,#101,.F.);
#45=ORIENTED_EDGE('',*,*,#98,.F.);
#46=ORIENTED_EDGE('',*,*,#106,.F.);
#47=ORIENTED_EDGE('',*,*,#107,.T.);
#48=ORIENTED_EDGE('',*,*,#108,.T.);
#49=ORIENTED_EDGE('',*,*,#109,.F.);
#50=ORIENTED_EDGE('',*,*,#110,.F.);
#51=ORIENTED_EDGE('',*,*,#111,.T.);
#52=ORIENTED_EDGE('',*,*,#112,.T.);
#53=ORIENTED_EDGE('',*,*,#113,.F.);
#54=ORIENTED_EDGE('',*,*,#114,.F.);
#55=ORIENTED_EDGE('',*,*,#115,.F.);
#56=ORIENTED_EDGE('',*,*,#106,.T.);
#57=ORIENTED_EDGE('',*,*,#116,.T.);
#58=ORIENTED_EDGE('',*,*,#117,.T.);
#59=ORIENTED_EDGE('',*,*,#118,.F.);
#60=ORIENTED_EDGE('',*,*,#107,.F.);
#61=ORIENTED_EDGE('',*,*,#115,.T.);
#62=ORIENTED_EDGE('',*,*,#119,.T.);
#63=ORIENTED_EDGE('',*,*,#120,.F.);
#64=ORIENTED_EDGE('',*,*,#108,.F.);
#65=ORIENTED_EDGE('',*,*,#118,.T.);
#66=ORIENTED_EDGE('',*,*,#121,.F.);
#67=ORIENTED_EDGE('',*,*,#116,.F.);
#68=ORIENTED_EDGE('',*,*,#109,.T.);
#69=ORIENTED_EDGE('',*,*,#120,.T.);
#70=ORIENTED_EDGE('',*,*,#114,.T.);
#71=ORIENTED_EDGE('',*,*,#121,.T.);
#72=ORIENTED_EDGE('',*,*,#119,.F.);
#73=ORIENTED_EDGE('',*,*,#117,.F.);
#74=ORIENTED_EDGE('',*,*,#122,.T.);
#75=ORIENTED_EDGE('',*,*,#123,.F.);
#76=ORIENTED_EDGE('',*,*,#111,.F.);
#77=ORIENTED_EDGE('',*,*,#124,.T.);
#78=ORIENTED_EDGE('',*,*,#125,.F.);
#79=ORIENTED_EDGE('',*,*,#124,.F.);
#80=ORIENTED_EDGE('',*,*,#110,.T.);
#81=ORIENTED_EDGE('',*,*,#126,.T.);
#82=ORIENTED_EDGE('',*,*,#127,.F.);
#83=ORIENTED_EDGE('',*,*,#126,.F.);
#84=ORIENTED_EDGE('',*,*,#113,.T.);
#85=ORIENTED_EDGE('',*,*,#128,.T.);
#86=ORIENTED_EDGE('',*,*,#129,.T.);
#87=ORIENTED_EDGE('',*,*,#128,.F.);
#88=ORIENTED_EDGE('',*,*,#112,.F.);
#89=ORIENTED_EDGE('',*,*,#123,.T.);
#90=ORIENTED_EDGE('',*,*,#122,.F.);
#91=ORIENTED_EDGE('',*,*,#125,.T.);
#92=ORIENTED_EDGE('',*,*,#127,.T.);
#93=ORIENTED_EDGE('',*,*,#129,.F.);
#94=EDGE_CURVE('',#130,#131,#154,.T.);
#95=EDGE_CURVE('',#132,#130,#155,.T.);
#96=EDGE_CURVE('',#132,#133,#156,.T.);
#97=EDGE_CURVE('',#133,#131,#157,.T.);
#98=EDGE_CURVE('',#130,#134,#158,.T.);
#99=EDGE_CURVE('',#135,#134,#159,.T.);
#100=EDGE_CURVE('',#132,#135,#160,.T.);
#101=EDGE_CURVE('',#134,#136,#161,.T.);
#102=EDGE_CURVE('',#137,#136,#162,.T.);
#103=EDGE_CURVE('',#135,#137,#163,.T.);
#104=EDGE_CURVE('',#131,#136,#164,.T.);
#105=EDGE_CURVE('',#133,#137,#165,.T.);
#106=EDGE_CURVE('',#138,#139,#166,.T.);
#107=EDGE_CURVE('',#138,#140,#167,.T.);
#108=EDGE_CURVE('',#140,#141,#168,.T.);
#109=EDGE_CURVE('',#139,#141,#169,.T.);
#110=EDGE_CURVE('',#142,#143,#170,.T.);
#111=EDGE_CURVE('',#142,#144,#171,.T.);
#112=EDGE_CURVE('',#144,#145,#172,.T.);
#113=EDGE_CURVE('',#143,#145,#173,.T.);
#114=EDGE_CURVE('',#146,#147,#174,.T.);
#115=EDGE_CURVE('',#138,#146,#175,.T.);
#116=EDGE_CURVE('',#139,#147,#176,.T.);
#117=EDGE_CURVE('',#146,#148,#177,.T.);
#118=EDGE_CURVE('',#140,#148,#178,.T.);
#119=EDGE_CURVE('',#148,#149,#179,.T.);
#120=EDGE_CURVE('',#141,#149,#180,.T.);
#121=EDGE_CURVE('',#147,#149,#181,.T.);
#122=EDGE_CURVE('',#150,#151,#182,.T.);
#123=EDGE_CURVE('',#144,#151,#183,.T.);
#124=EDGE_CURVE('',#142,#150,#184,.T.);
#125=EDGE_CURVE('',#150,#152,#185,.T.);
#126=EDGE_CURVE('',#143,#152,#186,.T.);
#127=EDGE_CURVE('',#152,#153,#187,.T.);
#128=EDGE_CURVE('',#145,#153,#188,.T.);
#129=EDGE_CURVE('',#151,#153,#189,.T.);
#130=VERTEX_POINT('',#420);
#131=VERTEX_POINT('',#421);
#132=VERTEX_POINT('',#423);
#133=VERTEX_POINT('',#425);
#134=VERTEX_POINT('',#429);
#135=VERTEX_POINT('',#431);
#136=VERTEX_POINT('',#435);
#137=VERTEX_POINT('',#437);
#138=VERTEX_POINT('',#447);
#139=VERTEX_POINT('',#448);
#140=VERTEX_POINT('',#450);
#141=VERTEX_POINT('',#452);
#142=VERTEX_POINT('',#455);
#143=VERTEX_POINT('',#456);
#144=VERTEX_POINT('',#458);
#145=VERTEX_POINT('',#460);
#146=VERTEX_POINT('',#464);
#147=VERTEX_POINT('',#465);
#148=VERTEX_POINT('',#470);
#149=VERTEX_POINT('',#474);
#150=VERTEX_POINT('',#481);
#151=VERTEX_POINT('',#482);
#152=VERTEX_POINT('',#487);
#153=VERTEX_POINT('',#491);
#154=LINE('',#419,#190);
#155=LINE('',#422,#191);
#156=LINE('',#424,#192);
#157=LINE('',#426,#193);
#158=LINE('',#428,#194);
#159=LINE('',#430,#195);
#160=LINE('',#432,#196);
#161=LINE('',#434,#197);
#162=LINE('',#436,#198);
#163=LINE('',#438,#199);
#164=LINE('',#440,#200);
#165=LINE('',#441,#201);
#166=LINE('',#446,#202);
#167=LINE('',#449,#203);
#168=LINE('',#451,#204);
#169=LINE('',#453,#205);
#170=LINE('',#454,#206);
#171=LINE('',#457,#207);
#172=LINE('',#459,#208);
#173=LINE('',#461,#209);
#174=LINE('',#463,#210);
#175=LINE('',#466,#211);
#176=LINE('',#467,#212);
#177=LINE('',#469,#213);
#178=LINE('',#471,#214);
#179=LINE('',#473,#215);
#180=LINE('',#475,#216);
#181=LINE('',#477,#217);
#182=LINE('',#480,#218);
#183=LINE('',#483,#219);
#184=LINE('',#484,#220);
#185=LINE('',#486,#221);
#186=LINE('',#488,#222);
#187=LINE('',#490,#223);
#188=LINE('',#492,#224);
#189=LINE('',#494,#225);
#190=VECTOR('',#345,1.);
#191=VECTOR('',#346,1.);
#192=VECTOR('',#347,1.);
#193=VECTOR('',#348,1.);
#194=VECTOR('',#351,1.);
#195=VECTOR('',#352,1.);
#196=VECTOR('',#353,1.);
#197=VECTOR('',#356,1.);
#198=VECTOR('',#357,1.);
#199=VECTOR('',#358,1.);
#200=VECTOR('',#361,1.);
#201=VECTOR('',#362,1.);
#202=VECTOR('',#371,1.);
#203=VECTOR('',#372,1.);
#204=VECTOR('',#373,1.);
#205=VECTOR('',#374,1.);
#206=VECTOR('',#375,1.);
#207=VECTOR('',#376,1.);
#208=VECTOR('',#377,1.);
#209=VECTOR('',#378,1.);
#210=VECTOR('',#381,1.);
#211=VECTOR('',#382,1.);
#212=VECTOR('',#383,1.);
#213=VECTOR('',#386,1.);
#214=VECTOR('',#387,1.);
#215=VECTOR('',#390,1.);
#216=VECTOR('',#391,1.);
#217=VECTOR('',#394,1.);
#218=VECTOR('',#399,1.);
#219=VECTOR('',#400,1.);
#220=VECTOR('',#401,1.);
#221=VECTOR('',#404,1.);
#222=VECTOR('',#405,1.);
#223=VECTOR('',#408,1.);
#224=VECTOR('',#409,1.);
#225=VECTOR('',#412,1.);
#226=EDGE_LOOP('',(#22,#23,#24,#25));
#227=EDGE_LOOP('',(#26,#27,#28,#29));
#228=EDGE_LOOP('',(#30,#31,#32,#33));
#229=EDGE_LOOP('',(#34,#35,#36,#37));
#230=EDGE_LOOP('',(#38,#39,#40,#41));
#231=EDGE_LOOP('',(#42,#43,#44,#45));
#232=EDGE_LOOP('',(#46,#47,#48,#49));
#233=EDGE_LOOP('',(#50,#51,#52,#53));
#234=EDGE_LOOP('',(#54,#55,#56,#57));
#235=EDGE_LOOP('',(#58,#59,#60,#61));
#236=EDGE_LOOP('',(#62,#63,#64,#65));
#237=EDGE_LOOP('',(#66,#67,#68,#69));
#238=EDGE_LOOP('',(#70,#71,#72,#73));
#239=EDGE_LOOP('',(#74,#75,#76,#77));
#240=EDGE_LOOP('',(#78,#79,#80,#81));
#241=EDGE_LOOP('',(#82,#83,#84,#85));
#242=EDGE_LOOP('',(#86,#87,#88,#89));
#243=EDGE_LOOP('',(#90,#91,#92,#93));
#244=FACE_BOUND('',#226,.T.);
#245=FACE_BOUND('',#227,.T.);
#246=FACE_BOUND('',#228,.T.);
#247=FACE_BOUND('',#229,.T.);
#248=FACE_BOUND('',#230,.T.);
#249=FACE_BOUND('',#231,.T.);
#250=FACE_BOUND('',#232,.T.);
#251=FACE_BOUND('',#233,.T.);
#252=FACE_BOUND('',#234,.T.);
#253=FACE_BOUND('',#235,.T.);
#254=FACE_BOUND('',#236,.T.);
#255=FACE_BOUND('',#237,.T.);
#256=FACE_BOUND('',#238,.T.);
#257=FACE_BOUND('',#239,.T.);
#258=FACE_BOUND('',#240,.T.);
#259=FACE_BOUND('',#241,.T.);
#260=FACE_BOUND('',#242,.T.);
#261=FACE_BOUND('',#243,.T.);
#262=PLANE('',#322);
#263=PLANE('',#323);
#264=PLANE('',#324);
#265=PLANE('',#325);
#266=PLANE('',#326);
#267=PLANE('',#327);
#268=PLANE('',#329);
#269=PLANE('',#330);
#270=PLANE('',#331);
#271=PLANE('',#332);
#272=PLANE('',#333);
#273=PLANE('',#334);
#274=PLANE('',#335);
#275=PLANE('',#336);
#276=PLANE('',#337);
#277=PLANE('',#338);
#278=PLANE('',#339);
#279=ADVANCED_FACE('',(#244),#262,.T.);
#280=ADVANCED_FACE('',(#245),#263,.F.);
#281=ADVANCED_FACE('',(#246),#264,.F.);
#282=ADVANCED_FACE('',(#247),#265,.T.);
#283=ADVANCED_FACE('',(#248),#266,.T.);
#284=ADVANCED_FACE('',(#249),#267,.F.);
#285=ADVANCED_FACE('',(#250,#251),#268,.T.);
#286=ADVANCED_FACE('',(#252),#269,.T.);
#287=ADVANCED_FACE('',(#253),#270,.F.);
#288=ADVANCED_FACE('',(#254),#271,.F.);
#289=ADVANCED_FACE('',(#255),#272,.T.);
#290=ADVANCED_FACE('',(#256),#273,.F.);
#291=ADVANCED_FACE('',(#257),#274,.F.);
#292=ADVANCED_FACE('',(#258),#275,.T.);
#293=ADVANCED_FACE('',(#259),#276,.T.);
#294=ADVANCED_FACE('',(#260),#277,.F.);
#295=ADVANCED_FACE('',(#261),#278,.T.);
#296=CLOSED_SHELL('',(#279,#280,#281,#282,#283,#284));
#297=CLOSED_SHELL('',(#285,#286,#287,#288,#289,#290,#291,#292,#293,#294,
#295));
#298=STYLED_ITEM('',(#300),#313);
#299=STYLED_ITEM('',(#301),#314);
#300=PRESENTATION_STYLE_ASSIGNMENT((#302));
#301=PRESENTATION_STYLE_ASSIGNMENT((#303));
#302=SURFACE_STYLE_USAGE(.BOTH.,#304);
#303=SURFACE_STYLE_USAGE(.BOTH.,#305);
#304=SURFACE_SIDE_STYLE('',(#306));
#305=SURFACE_SIDE_STYLE('',(#307));
#306=SURFACE_STYLE_FILL_AREA(#308);
#307=SURFACE_STYLE_FILL_AREA(#309);
#308=FILL_AREA_STYLE('',(#310));
#309=FILL_AREA_STYLE('',(#311));
#310=FILL_AREA_STYLE_COLOUR('',#312);
#311=FILL_AREA_STYLE_COLOUR('',#312);
#312=COLOUR_RGB('',0.615686274509804,0.811764705882353,0.929411764705882);
#313=MANIFOLD_SOLID_BREP('deckelwand',#296);
#314=MANIFOLD_SOLID_BREP('Deckel',#297);
#315=SHAPE_DEFINITION_REPRESENTATION(#507,#318);
#316=SHAPE_DEFINITION_REPRESENTATION(#508,#319);
#317=SHAPE_DEFINITION_REPRESENTATION(#510,#320);
#318=SHAPE_REPRESENTATION('deckel',(#321,#328,#340),#498);
#319=SHAPE_REPRESENTATION('deckelwand',(#321),#499);
#320=SHAPE_REPRESENTATION('Deckel',(#321),#500);
#321=AXIS2_PLACEMENT_3D('',#417,#341,#342);
#322=AXIS2_PLACEMENT_3D('',#418,#343,#344);
#323=AXIS2_PLACEMENT_3D('',#427,#349,#350);
#324=AXIS2_PLACEMENT_3D('',#433,#354,#355);
#325=AXIS2_PLACEMENT_3D('',#439,#359,#360);
#326=AXIS2_PLACEMENT_3D('',#442,#363,#364);
#327=AXIS2_PLACEMENT_3D('',#443,#365,#366);
#328=AXIS2_PLACEMENT_3D('',#444,#367,#368);
#329=AXIS2_PLACEMENT_3D('',#445,#369,#370);
#330=AXIS2_PLACEMENT_3D('',#462,#379,#380);
#331=AXIS2_PLACEMENT_3D('',#468,#384,#385);
#332=AXIS2_PLACEMENT_3D('',#472,#388,#389);
#333=AXIS2_PLACEMENT_3D('',#476,#392,#393);
#334=AXIS2_PLACEMENT_3D('',#478,#395,#396);
#335=AXIS2_PLACEMENT_3D('',#479,#397,#398);
#336=AXIS2_PLACEMENT_3D('',#485,#402,#403);
#337=AXIS2_PLACEMENT_3D('',#489,#406,#407);
#338=AXIS2_PLACEMENT_3D('',#493,#410,#411);
#339=AXIS2_PLACEMENT_3D('',#495,#413,#414);
#340=AXIS2_PLACEMENT_3D('',#496,#415,#416);
#341=DIRECTION('',(0.,0.,1.));
#342=DIRECTION('',(1.,0.,0.));
#343=DIRECTION('',(0.,0.,1.));
#344=DIRECTION('',(1.,0.,0.));
#345=DIRECTION('',(1.,0.,0.));
#346=DIRECTION('',(0.,1.,0.));
#347=DIRECTION('',(1.,0.,0.));
#348=DIRECTION('',(0.,1.,0.));
#349=DIRECTION('',(1.,0.,4.7526670574707E-17));
#350=DIRECTION('',(4.7526670574707E-17,0.,-1.));
#351=DIRECTION('',(4.7526670574707E-17,0.,-1.));
#352=DIRECTION('',(0.,1.,0.));
#353=DIRECTION('',(4.7526670574707E-17,0.,-1.));
#354=DIRECTION('',(0.,0.,1.));
#355=DIRECTION('',(1.,0.,0.));
#356=DIRECTION('',(1.,0.,0.));
#357=DIRECTION('',(0.,1.,0.));
#358=DIRECTION('',(1.,0.,0.));
#359=DIRECTION('',(1.,0.,4.7526670574707E-17));
#360=DIRECTION('',(4.7526670574707E-17,0.,-1.));
#361=DIRECTION('',(4.7526670574707E-17,0.,-1.));
#362=DIRECTION('',(4.7526670574707E-17,0.,-1.));
#363=DIRECTION('',(0.,-1.,0.));
#364=DIRECTION('',(1.,0.,0.));
#365=DIRECTION('',(0.,-1.,0.));
#366=DIRECTION('',(1.,0.,0.));
#367=DIRECTION('',(1.,0.,-4.75266705747086E-17));
#368=DIRECTION('',(-4.75266705747086E-17,0.,-1.));
#369=DIRECTION('',(0.,0.,1.));
#370=DIRECTION('',(1.,0.,0.));
#371=DIRECTION('',(1.,0.,0.));
#372=DIRECTION('',(0.,-1.,0.));
#373=DIRECTION('',(1.,0.,0.));
#374=DIRECTION('',(0.,-1.,0.));
#375=DIRECTION('',(0.,-1.,0.));
#376=DIRECTION('',(1.,0.,0.));
#377=DIRECTION('',(0.,-1.,0.));
#378=DIRECTION('',(1.,0.,0.));
#379=DIRECTION('',(0.,1.,0.));
#380=DIRECTION('',(0.,0.,1.));
#381=DIRECTION('',(1.,0.,0.));
#382=DIRECTION('',(0.,0.,-1.));
#383=DIRECTION('',(0.,0.,-1.));
#384=DIRECTION('',(1.,0.,0.));
#385=DIRECTION('',(0.,0.,-1.));
#386=DIRECTION('',(0.,-1.,0.));
#387=DIRECTION('',(0.,0.,-1.));
#388=DIRECTION('',(0.,1.,0.));
#389=DIRECTION('',(0.,0.,1.));
#390=DIRECTION('',(1.,0.,0.));
#391=DIRECTION('',(0.,0.,-1.));
#392=DIRECTION('',(1.,0.,0.));
#393=DIRECTION('',(0.,0.,-1.));
#394=DIRECTION('',(0.,-1.,0.));
#395=DIRECTION('',(0.,0.,1.));
#396=DIRECTION('',(1.,0.,0.));
#397=DIRECTION('',(0.,1.,0.));
#398=DIRECTION('',(0.,0.,1.));
#399=DIRECTION('',(1.,0.,0.));
#400=DIRECTION('',(0.,0.,-1.));
#401=DIRECTION('',(0.,0.,-1.));
#402=DIRECTION('',(1.,0.,0.));
#403=DIRECTION('',(0.,0.,-1.));
#404=DIRECTION('',(0.,-1.,0.));
#405=DIRECTION('',(0.,0.,-1.));
#406=DIRECTION('',(0.,1.,0.));
#407=DIRECTION('',(0.,0.,1.));
#408=DIRECTION('',(1.,0.,0.));
#409=DIRECTION('',(0.,0.,-1.));
#410=DIRECTION('',(1.,0.,0.));
#411=DIRECTION('',(0.,0.,-1.));
#412=DIRECTION('',(0.,-1.,0.));
#413=DIRECTION('',(0.,0.,1.));
#414=DIRECTION('',(1.,0.,0.));
#415=DIRECTION('',(0.,0.,-1.));
#416=DIRECTION('',(0.,1.,0.));
#417=CARTESIAN_POINT('',(0.,0.,0.));
#418=CARTESIAN_POINT('',(0.,-0.001,0.146));
#419=CARTESIAN_POINT('',(0.,0.,0.146));
#420=CARTESIAN_POINT('',(-0.1,0.,0.146));
#421=CARTESIAN_POINT('',(0.1,0.,0.146));
#422=CARTESIAN_POINT('',(-0.1,-0.001,0.146));
#423=CARTESIAN_POINT('',(-0.1,-0.001,0.146));
#424=CARTESIAN_POINT('',(0.,-0.001,0.146));
#425=CARTESIAN_POINT('',(0.1,-0.001,0.146));
#426=CARTESIAN_POINT('',(0.1,-0.001,0.146));
#427=CARTESIAN_POINT('',(-0.1,-0.001,0.));
#428=CARTESIAN_POINT('',(-0.1,0.,0.));
#429=CARTESIAN_POINT('',(-0.1,0.,-0.146));
#430=CARTESIAN_POINT('',(-0.1,-0.001,-0.146));
#431=CARTESIAN_POINT('',(-0.1,-0.001,-0.146));
#432=CARTESIAN_POINT('',(-0.1,-0.001,0.));
#433=CARTESIAN_POINT('',(2.77555756156289E-17,-0.001,-0.146));
#434=CARTESIAN_POINT('',(2.77555756156289E-17,0.,-0.146));
#435=CARTESIAN_POINT('',(0.1,0.,-0.146));
#436=CARTESIAN_POINT('',(0.1,-0.001,-0.146));
#437=CARTESIAN_POINT('',(0.1,-0.001,-0.146));
#438=CARTESIAN_POINT('',(2.77555756156289E-17,-0.001,-0.146));
#439=CARTESIAN_POINT('',(0.1,-0.001,0.));
#440=CARTESIAN_POINT('',(0.1,0.,0.));
#441=CARTESIAN_POINT('',(0.1,-0.001,0.));
#442=CARTESIAN_POINT('',(1.38777878078145E-17,-0.001,0.));
#443=CARTESIAN_POINT('',(1.38777878078145E-17,0.,0.));
#444=CARTESIAN_POINT('',(-0.0544480963349342,0.000781770490109931,0.318380028381691));
#445=CARTESIAN_POINT('',(0.,0.,0.017));
#446=CARTESIAN_POINT('',(0.,0.15225,0.017));
#447=CARTESIAN_POINT('',(-0.2045,0.15225,0.017));
#448=CARTESIAN_POINT('',(0.2045,0.15225,0.017));
#449=CARTESIAN_POINT('',(-0.2045,0.,0.017));
#450=CARTESIAN_POINT('',(-0.2045,-0.15225,0.017));
#451=CARTESIAN_POINT('',(0.,-0.15225,0.017));
#452=CARTESIAN_POINT('',(0.2045,-0.15225,0.017));
#453=CARTESIAN_POINT('',(0.2045,0.,0.017));
#454=CARTESIAN_POINT('',(-0.2035,0.,0.017));
#455=CARTESIAN_POINT('',(-0.2035,0.15125,0.017));
#456=CARTESIAN_POINT('',(-0.2035,-0.15125,0.017));
#457=CARTESIAN_POINT('',(0.,0.15125,0.017));
#458=CARTESIAN_POINT('',(0.2035,0.15125,0.017));
#459=CARTESIAN_POINT('',(0.2035,0.,0.017));
#460=CARTESIAN_POINT('',(0.2035,-0.15125,0.017));
#461=CARTESIAN_POINT('',(0.,-0.15125,0.017));
#462=CARTESIAN_POINT('',(0.,0.15225,0.017));
#463=CARTESIAN_POINT('',(0.,0.15225,0.));
#464=CARTESIAN_POINT('',(-0.2045,0.15225,0.));
#465=CARTESIAN_POINT('',(0.2045,0.15225,0.));
#466=CARTESIAN_POINT('',(-0.2045,0.15225,0.017));
#467=CARTESIAN_POINT('',(0.2045,0.15225,0.017));
#468=CARTESIAN_POINT('',(-0.2045,0.,0.017));
#469=CARTESIAN_POINT('',(-0.2045,0.,0.));
#470=CARTESIAN_POINT('',(-0.2045,-0.15225,0.));
#471=CARTESIAN_POINT('',(-0.2045,-0.15225,0.017));
#472=CARTESIAN_POINT('',(0.,-0.15225,0.017));
#473=CARTESIAN_POINT('',(0.,-0.15225,0.));
#474=CARTESIAN_POINT('',(0.2045,-0.15225,0.));
#475=CARTESIAN_POINT('',(0.2045,-0.15225,0.017));
#476=CARTESIAN_POINT('',(0.2045,0.,0.017));
#477=CARTESIAN_POINT('',(0.2045,0.,0.));
#478=CARTESIAN_POINT('',(0.,0.,0.));
#479=CARTESIAN_POINT('',(0.,0.15125,0.017));
#480=CARTESIAN_POINT('',(0.,0.15125,0.001));
#481=CARTESIAN_POINT('',(-0.2035,0.15125,0.001));
#482=CARTESIAN_POINT('',(0.2035,0.15125,0.001));
#483=CARTESIAN_POINT('',(0.2035,0.15125,0.017));
#484=CARTESIAN_POINT('',(-0.2035,0.15125,0.017));
#485=CARTESIAN_POINT('',(-0.2035,0.,0.017));
#486=CARTESIAN_POINT('',(-0.2035,0.,0.001));
#487=CARTESIAN_POINT('',(-0.2035,-0.15125,0.001));
#488=CARTESIAN_POINT('',(-0.2035,-0.15125,0.017));
#489=CARTESIAN_POINT('',(0.,-0.15125,0.017));
#490=CARTESIAN_POINT('',(0.,-0.15125,0.001));
#491=CARTESIAN_POINT('',(0.2035,-0.15125,0.001));
#492=CARTESIAN_POINT('',(0.2035,-0.15125,0.017));
#493=CARTESIAN_POINT('',(0.2035,0.,0.017));
#494=CARTESIAN_POINT('',(0.2035,0.,0.001));
#495=CARTESIAN_POINT('',(0.,0.,0.001));
#496=CARTESIAN_POINT('',(-0.0544480963349342,0.01028177049011,0.418380028381692));
#497=MECHANICAL_DESIGN_GEOMETRIC_PRESENTATION_REPRESENTATION('',(#298,#299),
#498);
#498=(
GEOMETRIC_REPRESENTATION_CONTEXT(3)
GLOBAL_UNCERTAINTY_ASSIGNED_CONTEXT((#501))
GLOBAL_UNIT_ASSIGNED_CONTEXT((#506,#505,#504))
REPRESENTATION_CONTEXT('deckel','TOP_LEVEL_ASSEMBLY_PART')
);
#499=(
GEOMETRIC_REPRESENTATION_CONTEXT(3)
GLOBAL_UNCERTAINTY_ASSIGNED_CONTEXT((#502))
GLOBAL_UNIT_ASSIGNED_CONTEXT((#506,#505,#504))
REPRESENTATION_CONTEXT('deckelwand','COMPONENT_PART')
);
#500=(
GEOMETRIC_REPRESENTATION_CONTEXT(3)
GLOBAL_UNCERTAINTY_ASSIGNED_CONTEXT((#503))
GLOBAL_UNIT_ASSIGNED_CONTEXT((#506,#505,#504))
REPRESENTATION_CONTEXT('Deckel','COMPONENT_PART')
);
#501=UNCERTAINTY_MEASURE_WITH_UNIT(LENGTH_MEASURE(1.E-8),#506,
'DISTANCE_ACCURACY_VALUE','Maximum Tolerance applied to model');
#502=UNCERTAINTY_MEASURE_WITH_UNIT(LENGTH_MEASURE(1.E-8),#506,
'DISTANCE_ACCURACY_VALUE','Maximum Tolerance applied to model');
#503=UNCERTAINTY_MEASURE_WITH_UNIT(LENGTH_MEASURE(1.E-8),#506,
'DISTANCE_ACCURACY_VALUE','Maximum Tolerance applied to model');
#504=(
NAMED_UNIT(*)
SI_UNIT($,.STERADIAN.)
SOLID_ANGLE_UNIT()
);
#505=(
NAMED_UNIT(*)
PLANE_ANGLE_UNIT()
SI_UNIT($,.RADIAN.)
);
#506=(
LENGTH_UNIT()
NAMED_UNIT(*)
SI_UNIT($,.METRE.)
);
#507=PRODUCT_DEFINITION_SHAPE('','',#512);
#508=PRODUCT_DEFINITION_SHAPE('','',#513);
#509=PRODUCT_DEFINITION_SHAPE(' ','NAUO PRDDFN',#12);
#510=PRODUCT_DEFINITION_SHAPE('','',#514);
#511=PRODUCT_DEFINITION_SHAPE(' ','NAUO PRDDFN',#13);
#512=PRODUCT_DEFINITION('','',#518,#515);
#513=PRODUCT_DEFINITION('','',#519,#516);
#514=PRODUCT_DEFINITION('','',#520,#517);
#515=PRODUCT_DEFINITION_CONTEXT('',#534,'design');
#516=PRODUCT_DEFINITION_CONTEXT('',#534,'design');
#517=PRODUCT_DEFINITION_CONTEXT('',#534,'design');
#518=PRODUCT_DEFINITION_FORMATION_WITH_SPECIFIED_SOURCE('','',#524,
 .NOT_KNOWN.);
#519=PRODUCT_DEFINITION_FORMATION_WITH_SPECIFIED_SOURCE('','',#525,
 .NOT_KNOWN.);
#520=PRODUCT_DEFINITION_FORMATION_WITH_SPECIFIED_SOURCE('','',#526,
 .NOT_KNOWN.);
#521=PRODUCT_RELATED_PRODUCT_CATEGORY('','',(#524));
#522=PRODUCT_RELATED_PRODUCT_CATEGORY('','',(#525));
#523=PRODUCT_RELATED_PRODUCT_CATEGORY('','',(#526));
#524=PRODUCT('deckel','deckel','deckel',(#530));
#525=PRODUCT('deckelwand','deckelwand','deckelwand',(#531));
#526=PRODUCT('Deckel','Deckel','Deckel',(#532));
#527=PRODUCT_CATEGORY('','');
#528=PRODUCT_CATEGORY('','');
#529=PRODUCT_CATEGORY('','');
#530=PRODUCT_CONTEXT('',#534,'mechanical');
#531=PRODUCT_CONTEXT('',#534,'mechanical');
#532=PRODUCT_CONTEXT('',#534,'mechanical');
#533=APPLICATION_PROTOCOL_DEFINITION('international standard',
'ap242_managed_model_based_3d_engineering',2020,#534);
#534=APPLICATION_CONTEXT('managed model based 3d engineering');
ENDSEC;
END-ISO-10303-21;
