  0
SECTION
  2
HEADER
  9
$ACADVER
  1
AC1014
  9
$ACADMAINTVER
 70
     9
  9
$DWGCODEPAGE
  3
ANSI_1252
  9
$INSBASE
 10
0.0
 20
0.0
 30
0.0
  9
$EXTMIN
 10
1.0
 20
0.5
 30
-9.375000000000009
  9
$EXTMAX
 10
420.0
 20
296.5
 30
9.375000000000036
  9
$LIMMIN
 10
0.0
 20
0.0
  9
$LIMMAX
 10
12.0
 20
9.0
  9
$ORTHOMODE
 70
     0
  9
$REGENMODE
 70
     1
  9
$FILLMODE
 70
     1
  9
$QTEXTMODE
 70
     0
  9
$MIRRTEXT
 70
     1
  9
$DRAGMODE
 70
     2
  9
$LTSCALE
 40
12.7
  9
$OSMODE
 70
    23
  9
$ATTMODE
 70
     1
  9
$TEXTSIZE
 40
3.5
  9
$TRACEWID
 40
0.05
  9
$TEXTSTYLE
  7
ONSHAPE-STANDARD
  9
$CLAYER
  8
0
  9
$CELTYPE
  6
BYLAYER
  9
$CECOLOR
 62
   256
  9
$CELTSCALE
 40
1.0
  9
$DELOBJ
 70
     1
  9
$DISPSILH
 70
     0
  9
$DIMSCALE
 40
1.0
  9
$DIMASZ
 40
2.5
  9
$DIMEXO
 40
0.625
  9
$DIMDLI
 40
3.75
  9
$DIMRND
 40
0.0
  9
$DIMDLE
 40
0.0
  9
$DIMEXE
 40
1.25
  9
$DIMTP
 40
0.0
  9
$DIMTM
 40
0.0
  9
$DIMTXT
 40
3.5
  9
$DIMCEN
 40
2.5
  9
$DIMTSZ
 40
0.0
  9
$DIMTOL
 70
     0
  9
$DIMLIM
 70
     0
  9
$DIMTIH
 70
     0
  9
$DIMTOH
 70
     0
  9
$DIMSE1
 70
     0
  9
$DIMSE2
 70
     0
  9
$DIMTAD
 70
     1
  9
$DIMZIN
 70
     8
  9
$DIMBLK
  1

  9
$DIMASO
 70
     1
  9
$DIMSHO
 70
     1
  9
$DIMPOST
  1

  9
$DIMAPOST
  1

  9
$DIMALT
 70
     0
  9
$DIMALTD
 70
     3
  9
$DIMALTF
 40
0.03937
  9
$DIMLFAC
 40
4.0
  9
$DIMTOFL
 70
     1
  9
$DIMTVP
 40
0.0
  9
$DIMTIX
 70
     0
  9
$DIMSOXD
 70
     0
  9
$DIMSAH
 70
     0
  9
$DIMBLK1
  1

  9
$DIMBLK2
  1

  9
$DIMSTYLE
  2
ONSHAPE-ISO-25
  9
$DIMCLRD
 70
     7
  9
$DIMCLRE
 70
     7
  9
$DIMCLRT
 70
     7
  9
$DIMTFAC
 40
1.0
  9
$DIMGAP
 40
0.625
  9
$DIMJUST
 70
     0
  9
$DIMSD1
 70
     0
  9
$DIMSD2
 70
     0
  9
$DIMTOLJ
 70
     0
  9
$DIMTZIN
 70
     8
  9
$DIMALTZ
 70
     8
  9
$DIMALTTZ
 70
     0
  9
$DIMFIT
 70
     3
  9
$DIMUPT
 70
     1
  9
$DIMUNIT
 70
     2
  9
$DIMDEC
 70
     2
  9
$DIMTDEC
 70
     2
  9
$DIMALTU
 70
     2
  9
$DIMALTTD
 70
     3
  9
$DIMTXSTY
  7
ONSHAPE-STANDARD-DIMENSION
  9
$DIMAUNIT
 70
     0
  9
$LUNITS
 70
     2
  9
$LUPREC
 70
     4
  9
$SKETCHINC
 40
0.1
  9
$FILLETRAD
 40
0.5
  9
$AUNITS
 70
     0
  9
$AUPREC
 70
     0
  9
$MENU
  1
.
  9
$ELEVATION
 40
0.0
  9
$PELEVATION
 40
0.0
  9
$THICKNESS
 40
0.0
  9
$LIMCHECK
 70
     0
  9
$CHAMFERA
 40
0.0
  9
$CHAMFERB
 40
0.0
  9
$CHAMFERC
 40
0.0
  9
$CHAMFERD
 40
0.0
  9
$SKPOLY
 70
     0
  9
$TDCREATE
 40
2461083.465718183
  9
$TDUPDATE
 40
2461083.46571904
  9
$TDINDWG
 40
0.0
  9
$TDUSRTIMER
 40
0.0
  9
$USRTIMER
 70
     1
  9
$ANGBASE
 50
0.0
  9
$ANGDIR
 70
     0
  9
$PDMODE
 70
    33
  9
$PDSIZE
 40
1.0
  9
$PLINEWID
 40
0.0
  9
$COORDS
 70
     1
  9
$SPLFRAME
 70
     0
  9
$SPLINETYPE
 70
     6
  9
$SPLINESEGS
 70
     8
  9
$ATTDIA
 70
     0
  9
$ATTREQ
 70
     1
  9
$HANDLING
 70
     1
  9
$HANDSEED
  5
3B4
  9
$SURFTAB1
 70
     6
  9
$SURFTAB2
 70
     6
  9
$SURFTYPE
 70
     6
  9
$SURFU
 70
     6
  9
$SURFV
 70
     6
  9
$UCSNAME
  2

  9
$UCSORG
 10
0.0
 20
0.0
 30
0.0
  9
$UCSXDIR
 10
1.0
 20
0.0
 30
0.0
  9
$UCSYDIR
 10
0.0
 20
1.0
 30
0.0
  9
$PUCSNAME
  2

  9
$PUCSORG
 10
0.0
 20
0.0
 30
0.0
  9
$PUCSXDIR
 10
1.0
 20
0.0
 30
0.0
  9
$PUCSYDIR
 10
0.0
 20
1.0
 30
0.0
  9
$USERI1
 70
     0
  9
$USERI2
 70
     0
  9
$USERI3
 70
     0
  9
$USERI4
 70
     0
  9
$USERI5
 70
     0
  9
$USERR1
 40
0.0
  9
$USERR2
 40
0.0
  9
$USERR3
 40
0.0
  9
$USERR4
 40
0.0
  9
$USERR5
 40
0.0
  9
$WORLDVIEW
 70
     1
  9
$SHADEDGE
 70
     3
  9
$SHADEDIF
 70
    70
  9
$TILEMODE
 70
     1
  9
$MAXACTVP
 70
    64
  9
$PINSBASE
 10
0.0
 20
0.0
 30
0.0
  9
$PLIMCHECK
 70
     0
  9
$PEXTMIN
 10
1.000000000000000E+20
 20
1.000000000000000E+20
 30
1.000000000000000E+20
  9
$PEXTMAX
 10
-1.000000000000000E+20
 20
-1.000000000000000E+20
 30
-1.000000000000000E+20
  9
$PLIMMIN
 10
0.0
 20
0.0
  9
$PLIMMAX
 10
12.0
 20
9.0
  9
$UNITMODE
 70
     0
  9
$VISRETAIN
 70
     1
  9
$PLINEGEN
 70
     0
  9
$PSLTSCALE
 70
     1
  9
$TREEDEPTH
 70
  3020
  9
$PICKSTYLE
 70
     1
  9
$CMLSTYLE
  2
STANDARD
  9
$CMLJUST
 70
     0
  9
$CMLSCALE
 40
1.0
  9
$PROXYGRAPHICS
 70
     1
  9
$MEASUREMENT
 70
     0
  0
ENDSEC
  0
SECTION
  2
CLASSES
  0
CLASS
  1
ACDBDICTIONARYWDFLT
  2
AcDbDictionaryWithDefault
  3
ObjectDBX Classes
 90
        0
280
     0
281
     0
  0
CLASS
  1
VISUALSTYLE
  2
AcDbVisualStyle
  3
ObjectDBX Classes
 90
     4095
280
     0
281
     0
  0
CLASS
  1
MATERIAL
  2
AcDbMaterial
  3
ObjectDBX Classes
 90
     1153
280
     0
281
     0
  0
CLASS
  1
SCALE
  2
AcDbScale
  3
ObjectDBX Classes
 90
     1153
280
     0
281
     0
  0
CLASS
  1
TABLESTYLE
  2
AcDbTableStyle
  3
ObjectDBX Classes
 90
     4095
280
     0
281
     0
  0
CLASS
  1
MLEADERSTYLE
  2
AcDbMLeaderStyle
  3
ACDB_MLEADERSTYLE_CLASS
 90
     4095
280
     0
281
     0
  0
CLASS
  1
SUN
  2
AcDbSun
  3
SCENEOE
 90
     1153
280
     0
281
     0
  0
CLASS
  1
DICTIONARYVAR
  2
AcDbDictionaryVar
  3
ObjectDBX Classes
 90
        0
280
     0
281
     0
  0
CLASS
  1
FIELD
  2
AcDbField
  3
ObjectDBX Classes
 90
     1152
280
     0
281
     0
  0
CLASS
  1
FIELDLIST
  2
AcDbFieldList
  3
ObjectDBX Classes
 90
     1152
280
     0
281
     0
  0
CLASS
  1
DIMASSOC
  2
AcDbDimAssoc
  3
"AcDbDimAssoc|Product Desc:     AcDim ARX App For Dimension|Company:          Autodesk, Inc.|WEB Address:      www.autodesk.com"
 90
        0
280
     0
281
     0
  0
CLASS
  1
XRECORD
  2
AcDbXrecord
  3
ObjectDBX Classes
 90
        0
280
     0
281
     0
  0
CLASS
  1
LWPOLYLINE
  2
AcDbPolyline
  3
ObjectDBX Classes
 90
        0
280
     0
281
     1
  0
CLASS
  1
HATCH
  2
AcDbHatch
  3
ObjectDBX Classes
 90
        0
280
     0
281
     1
  0
CLASS
  1
ACDBPLACEHOLDER
  2
AcDbPlaceHolder
  3
ObjectDBX Classes
 90
        0
280
     0
281
     0
  0
CLASS
  1
LAYOUT
  2
AcDbLayout
  3
ObjectDBX Classes
 90
        0
280
     0
281
     0
  0
ENDSEC
  0
SECTION
  2
TABLES
  0
TABLE
  2
VPORT
  5
8
102
{ACAD_XDICTIONARY
360
3A8
102
}
330
0
100
AcDbSymbolTable
 70
     1
  0
VPORT
  5
29
330
8
100
AcDbSymbolTableRecord
100
AcDbViewportTableRecord
  2
*ACTIVE
 70
     0
 10
0.0
 20
0.0
 11
1.0
 21
1.0
 12
210.5
 22
153.2942779291553
 13
0.0
 23
0.0
 14
0.5
 24
0.5
 15
0.5
 25
0.5
 16
0.0
 26
0.0
 36
1.0
 17
0.0
 27
0.0
 37
0.0
 40
313.7055858310626
 41
1.365292874703758
 42
50.0
 43
0.0
 44
0.0
 50
0.0
 51
0.0
 71
     0
 72
   100
 73
     1
 74
     3
 75
     0
 76
     0
 77
     0
 78
     0
  0
ENDTAB
  0
TABLE
  2
LTYPE
  5
5
330
0
100
AcDbSymbolTable
 70
     2
  0
LTYPE
  5
14
330
5
100
AcDbSymbolTableRecord
100
AcDbLinetypeTableRecord
  2
BYBLOCK
 70
     0
  3

 72
    65
 73
     0
 40
0.0
  0
LTYPE
  5
15
330
5
100
AcDbSymbolTableRecord
100
AcDbLinetypeTableRecord
  2
BYLAYER
 70
     0
  3

 72
    65
 73
     0
 40
0.0
  0
LTYPE
  5
16
330
5
100
AcDbSymbolTableRecord
100
AcDbLinetypeTableRecord
  2
CONTINUOUS
 70
     0
  3
Solid line
 72
    65
 73
     0
 40
0.0
  0
LTYPE
  5
242
330
5
100
AcDbSymbolTableRecord
100
AcDbLinetypeTableRecord
  2
ONS_DASHDOT
 70
     0
  3
Onshape Dashed with Dot _ . ____ . ____
 72
    65
 73
     4
 40
0.71
 49
0.5
 74
     0
 49
-0.1
 74
     0
 49
0.01
 74
     0
 49
-0.1
 74
     0
  0
ENDTAB
  0
TABLE
  2
LAYER
  5
2
330
0
100
AcDbSymbolTable
 70
    10
  0
LAYER
  5
10
330
2
100
AcDbSymbolTableRecord
100
AcDbLayerTableRecord
  2
0
 70
     0
 62
     7
  6
CONTINUOUS
  0
LAYER
  5
70
330
2
100
AcDbSymbolTableRecord
100
AcDbLayerTableRecord
  2
DEFPOINTS
 70
     0
 62
     7
  6
CONTINUOUS
  0
LAYER
  5
74
330
2
100
AcDbSymbolTableRecord
100
AcDbLayerTableRecord
  2
VISIBLE
 70
     0
 62
     7
  6
CONTINUOUS
  0
LAYER
  5
9A
330
2
100
AcDbSymbolTableRecord
100
AcDbLayerTableRecord
  2
VIEW_HATCHES
 70
     0
 62
     7
  6
CONTINUOUS
  0
LAYER
  5
102
330
2
100
AcDbSymbolTableRecord
100
AcDbLayerTableRecord
  2
BORDER_FRAME
 70
     0
 62
     7
  6
CONTINUOUS
  0
LAYER
  5
108
330
2
100
AcDbSymbolTableRecord
100
AcDbLayerTableRecord
  2
BORDER_ZONES
 70
     0
 62
     7
  6
CONTINUOUS
  0
LAYER
  5
12E
330
2
100
AcDbSymbolTableRecord
100
AcDbLayerTableRecord
  2
TITLE_BLOCK
 70
     0
 62
     7
  6
CONTINUOUS
  0
LAYER
  5
1C2
330
2
100
AcDbSymbolTableRecord
100
AcDbLayerTableRecord
  2
ANNOTATION_TEXT
 70
     0
 62
     7
  6
CONTINUOUS
  0
LAYER
  5
224
330
2
100
AcDbSymbolTableRecord
100
AcDbLayerTableRecord
  2
ANNOTATION_LINES
 70
     0
 62
     7
  6
CONTINUOUS
  0
LAYER
  5
240
330
2
100
AcDbSymbolTableRecord
100
AcDbLayerTableRecord
  2
SECTION_CUTTING_LINE
 70
     0
 62
     7
  6
ONS_DASHDOT
  0
ENDTAB
  0
TABLE
  2
STYLE
  5
3
330
0
100
AcDbSymbolTable
 70
    34
  0
STYLE
  5
11
330
3
100
AcDbSymbolTableRecord
100
AcDbTextStyleTableRecord
  2
STANDARD
 70
     0
 40
0.0
 41
1.0
 50
0.0
 71
     0
 42
3.5
  3
txt
  4

  0
STYLE
  5
71
330
3
100
AcDbSymbolTableRecord
100
AcDbTextStyleTableRecord
  2
ONSHAPE-STANDARD
 70
     0
 40
0.0
 41
1.0
 50
0.0
 71
     0
 42
3.5
  3
NotoSans-Regular.ttf
  4

1001
ACAD
1000
Noto Sans
1071
        0
  0
STYLE
  5
73
330
3
100
AcDbSymbolTableRecord
100
AcDbTextStyleTableRecord
  2
ONSHAPE-STANDARD-DIMENSION
 70
     0
 40
0.0
 41
1.0
 50
0.0
 71
     0
 42
3.5
  3

  4

1001
ACAD
1000
Noto Sans
1071
        0
  0
STYLE
  5
163
330
3
100
AcDbSymbolTableRecord
100
AcDbTextStyleTableRecord
  2
ONSHAPE-STANDARD-FIELDS
 70
     0
 40
0.0
 41
1.0
 50
0.0
 71
     0
 42
3.5
  3

  4

1001
ACAD
1000
Noto Sans
1071
        0
  0
STYLE
  5
1C4
330
3
100
AcDbSymbolTableRecord
100
AcDbTextStyleTableRecord
  2
ONSHAPE-STANDARD-VIEW-LABE
 70
     0
 40
3.5
 41
1.0
 50
0.0
 71
     0
 42
3.5
  3
NotoSans-Regular.ttf
  4

1001
ACAD
1000
Noto Sans
1071
        0
  0
STYLE
  5
29C
330
3
100
AcDbSymbolTableRecord
100
AcDbTextStyleTableRecord
  2
ONSHAPE-STANDARD-NOTESTYLE
 70
     0
 40
3.5
 41
1.0
 50
0.0
 71
     0
 42
3.5
  3
Noto Sans
  4

1001
ACAD
1000
Noto Sans
1071
        0
  0
STYLE
  5
325
330
3
100
AcDbSymbolTableRecord
100
AcDbTextStyleTableRecord
  2
ONSHAPE-STANDARD-BOLD
 70
     0
 40
0.0
 41
1.0
 50
0.0
 71
     0
 42
3.5
  3
NotoSans-Bold.ttf
  4

1001
ACAD
1000
Noto Sans
1071
 33554432
  0
STYLE
  5
327
330
3
100
AcDbSymbolTableRecord
100
AcDbTextStyleTableRecord
  2
ONSHAPE-STANDARD-TCFIELDS
 70
     0
 40
0.0
 41
1.0
 50
0.0
 71
     0
 42
3.5
  3
NotoSansTC-Regular.otf
  4

1001
ACAD
1000
Noto Sans TC
1071
        0
  0
STYLE
  5
328
330
3
100
AcDbSymbolTableRecord
100
AcDbTextStyleTableRecord
  2
ONSHAPE-STANDARD-SCFIELDS
 70
     0
 40
0.0
 41
1.0
 50
0.0
 71
     0
 42
3.5
  3
NotoSansSC-Regular.otf
  4

1001
ACAD
1000
Noto Sans SC
1071
        0
  0
STYLE
  5
329
330
3
100
AcDbSymbolTableRecord
100
AcDbTextStyleTableRecord
  2
ONSHAPE-STANDARD-KOREANFIE
 70
     0
 40
0.0
 41
1.0
 50
0.0
 71
     0
 42
3.5
  3
NotoSansKR-Regular.otf
  4

1001
ACAD
1000
Noto Sans KR
1071
        0
  0
STYLE
  5
32B
330
3
100
AcDbSymbolTableRecord
100
AcDbTextStyleTableRecord
  2
TTFSTYLE
 70
     0
 40
0.0
 41
1.0
 50
0.0
 71
     0
 42
3.5
  3
Verdana.ttf
  4

1001
ACAD
1000
Verdana
1071
       34
  0
STYLE
  5
32C
330
3
100
AcDbSymbolTableRecord
100
AcDbTextStyleTableRecord
  2
ONSHAPE-STANDARD-GTOLERANC
 70
     0
 40
0.0
 41
1.0
 50
0.0
 71
     0
 42
3.5
  3

  4

1001
ACAD
1000
Noto Sans
1071
        0
  0
STYLE
  5
32D
330
3
100
AcDbSymbolTableRecord
100
AcDbTextStyleTableRecord
  2
ONSHAPE-STANDARD-TABLE-DAT
 70
     0
 40
0.0
 41
1.0
 50
0.0
 71
     0
 42
3.5
  3
NotoSans-Regular.ttf
  4

1001
ACAD
1000
Noto Sans
1071
        0
  0
STYLE
  5
32E
330
3
100
AcDbSymbolTableRecord
100
AcDbTextStyleTableRecord
  2
ONSHAPE-STANDARD-TABLE-TIT
 70
     0
 40
0.0
 41
1.0
 50
0.0
 71
     0
 42
3.5
  3
NotoSans-Bold.ttf
  4

1001
ACAD
1000
Noto Sans
1071
 33554432
  0
STYLE
  5
32F
330
3
100
AcDbSymbolTableRecord
100
AcDbTextStyleTableRecord
  2
ONSHAPE-STANDARD-TABLE-HEA
 70
     0
 40
0.0
 41
1.0
 50
0.0
 71
     0
 42
3.5
  3
NotoSans-Bold.ttf
  4

1001
ACAD
1000
Noto Sans
1071
 33554432
  0
STYLE
  5
330
330
3
100
AcDbSymbolTableRecord
100
AcDbTextStyleTableRecord
  2
ONSHAPE-STANDARD-BOMTABLE-
 70
     0
 40
0.0
 41
1.0
 50
0.0
 71
     0
 42
3.5
  3
NotoSans-Regular.ttf
  4

1001
ACAD
1000
Noto Sans
1071
        0
  0
STYLE
  5
331
330
3
100
AcDbSymbolTableRecord
100
AcDbTextStyleTableRecord
  2
ONSHAPE-STANDARD-BOMTABLE0
 70
     0
 40
0.0
 41
1.0
 50
0.0
 71
     0
 42
3.5
  3
NotoSans-Bold.ttf
  4

1001
ACAD
1000
Noto Sans
1071
 33554432
  0
STYLE
  5
332
330
3
100
AcDbSymbolTableRecord
100
AcDbTextStyleTableRecord
  2
ONSHAPE-STANDARD-BOMTABLE1
 70
     0
 40
0.0
 41
1.0
 50
0.0
 71
     0
 42
3.5
  3
NotoSans-Bold.ttf
  4

1001
ACAD
1000
Noto Sans
1071
 33554432
  0
STYLE
  5
335
330
3
100
AcDbSymbolTableRecord
100
AcDbTextStyleTableRecord
  2
ONSHAPE-STANDARD-HOLE-CALL
 70
     0
 40
3.5
 41
1.0
 50
0.0
 71
     0
 42
3.5
  3
Noto Sans
  4

1001
ACAD
1000
Noto Sans
1071
        0
  0
STYLE
  5
336
330
3
100
AcDbSymbolTableRecord
100
AcDbTextStyleTableRecord
  2
ONSHAPE-STANDARD-HOLETABLE
 70
     0
 40
0.0
 41
1.0
 50
0.0
 71
     0
 42
3.5
  3
NotoSans-Regular.ttf
  4

1001
ACAD
1000
Noto Sans
1071
        0
  0
STYLE
  5
337
330
3
100
AcDbSymbolTableRecord
100
AcDbTextStyleTableRecord
  2
ONSHAPE-STANDARD-HOLETABL0
 70
     0
 40
0.0
 41
1.0
 50
0.0
 71
     0
 42
3.5
  3
NotoSans-Bold.ttf
  4

1001
ACAD
1000
Noto Sans
1071
 33554432
  0
STYLE
  5
338
330
3
100
AcDbSymbolTableRecord
100
AcDbTextStyleTableRecord
  2
ONSHAPE-STANDARD-HOLETABL1
 70
     0
 40
0.0
 41
1.0
 50
0.0
 71
     0
 42
3.5
  3
NotoSans-Bold.ttf
  4

1001
ACAD
1000
Noto Sans
1071
 33554432
  0
STYLE
  5
339
330
3
100
AcDbSymbolTableRecord
100
AcDbTextStyleTableRecord
  2
ONSHAPE-STANDARD-HOLE-TAG
 70
     0
 40
3.5
 41
1.0
 50
0.0
 71
     0
 42
3.5
  3
Noto Sans
  4

1001
ACAD
1000
Noto Sans
1071
        0
  0
STYLE
  5
33A
330
3
100
AcDbSymbolTableRecord
100
AcDbTextStyleTableRecord
  2
ONSHAPE-STANDARD-REVISIONT
 70
     0
 40
0.0
 41
1.0
 50
0.0
 71
     0
 42
3.5
  3
NotoSans-Regular.ttf
  4

1001
ACAD
1000
Noto Sans
1071
        0
  0
STYLE
  5
33B
330
3
100
AcDbSymbolTableRecord
100
AcDbTextStyleTableRecord
  2
ONSHAPE-STANDARD-REVISION0
 70
     0
 40
0.0
 41
1.0
 50
0.0
 71
     0
 42
3.5
  3
NotoSans-Bold.ttf
  4

1001
ACAD
1000
Noto Sans
1071
 33554432
  0
STYLE
  5
33C
330
3
100
AcDbSymbolTableRecord
100
AcDbTextStyleTableRecord
  2
ONSHAPE-STANDARD-REVISION1
 70
     0
 40
0.0
 41
1.0
 50
0.0
 71
     0
 42
3.5
  3
NotoSans-Bold.ttf
  4

1001
ACAD
1000
Noto Sans
1071
 33554432
  0
STYLE
  5
33D
330
3
100
AcDbSymbolTableRecord
100
AcDbTextStyleTableRecord
  2
ONSHAPE-STANDARD-REVISION-
 70
     0
 40
3.5
 41
1.0
 50
0.0
 71
     0
 42
3.5
  3
Noto Sans
  4

1001
ACAD
1000
Noto Sans
1071
        0
  0
STYLE
  5
33E
330
3
100
AcDbSymbolTableRecord
100
AcDbTextStyleTableRecord
  2
ONSHAPE-STANDARD-CUTLISTTA
 70
     0
 40
0.0
 41
1.0
 50
0.0
 71
     0
 42
3.5
  3
NotoSans-Regular.ttf
  4

1001
ACAD
1000
Noto Sans
1071
        0
  0
STYLE
  5
33F
330
3
100
AcDbSymbolTableRecord
100
AcDbTextStyleTableRecord
  2
ONSHAPE-STANDARD-CUTLISTT0
 70
     0
 40
0.0
 41
1.0
 50
0.0
 71
     0
 42
3.5
  3
NotoSans-Bold.ttf
  4

1001
ACAD
1000
Noto Sans
1071
 33554432
  0
STYLE
  5
340
330
3
100
AcDbSymbolTableRecord
100
AcDbTextStyleTableRecord
  2
ONSHAPE-STANDARD-CUTLISTT1
 70
     0
 40
0.0
 41
1.0
 50
0.0
 71
     0
 42
3.5
  3
NotoSans-Bold.ttf
  4

1001
ACAD
1000
Noto Sans
1071
 33554432
  0
STYLE
  5
341
330
3
100
AcDbSymbolTableRecord
100
AcDbTextStyleTableRecord
  2
ONSHAPE-STANDARD-CUSTOMTAB
 70
     0
 40
0.0
 41
1.0
 50
0.0
 71
     0
 42
3.5
  3
NotoSans-Regular.ttf
  4

1001
ACAD
1000
Noto Sans
1071
        0
  0
STYLE
  5
342
330
3
100
AcDbSymbolTableRecord
100
AcDbTextStyleTableRecord
  2
ONSHAPE-STANDARD-CUSTOMTA0
 70
     0
 40
0.0
 41
1.0
 50
0.0
 71
     0
 42
3.5
  3
NotoSans-Bold.ttf
  4

1001
ACAD
1000
Noto Sans
1071
 33554432
  0
STYLE
  5
343
330
3
100
AcDbSymbolTableRecord
100
AcDbTextStyleTableRecord
  2
ONSHAPE-STANDARD-CUSTOMTA1
 70
     0
 40
0.0
 41
1.0
 50
0.0
 71
     0
 42
3.5
  3
NotoSans-Bold.ttf
  4

1001
ACAD
1000
Noto Sans
1071
 33554432
  0
STYLE
  5
344
330
3
100
AcDbSymbolTableRecord
100
AcDbTextStyleTableRecord
  2
ONSHAPE-STANDARD-DATUM-DIM
 70
     0
 40
3.5
 41
1.0
 50
0.0
 71
     0
 42
3.5
  3
NotoSans-Regular.ttf
  4

1001
ACAD
1000
Noto Sans
1071
        0
  0
ENDTAB
  0
TABLE
  2
VIEW
  5
6
330
0
100
AcDbSymbolTable
 70
     0
  0
ENDTAB
  0
TABLE
  2
UCS
  5
7
330
0
100
AcDbSymbolTable
 70
     0
  0
ENDTAB
  0
TABLE
  2
APPID
  5
9
330
0
100
AcDbSymbolTable
 70
     8
  0
APPID
  5
12
330
9
100
AcDbSymbolTableRecord
100
AcDbRegAppTableRecord
  2
ACAD
 70
     0
  0
APPID
  5
196
330
9
100
AcDbSymbolTableRecord
100
AcDbRegAppTableRecord
  2
ONSHAPE_NOTES_REORDERING_D
 70
     0
  0
APPID
  5
197
330
9
100
AcDbSymbolTableRecord
100
AcDbRegAppTableRecord
  2
ONSHAPE_NOTES_ANNOTATION_D
 70
     0
  0
APPID
  5
1DE
330
9
100
AcDbSymbolTableRecord
100
AcDbRegAppTableRecord
  2
ACAD_DIMASSOC_CALC_DIMLFAC
 70
     0
  0
APPID
  5
1DF
330
9
100
AcDbSymbolTableRecord
100
AcDbRegAppTableRecord
  2
ACAD_DIMASSOC_DIMLFAC
 70
     0
  0
APPID
  5
1E0
330
9
100
AcDbSymbolTableRecord
100
AcDbRegAppTableRecord
  2
ACAD_DIMASSOC_OVERRIDDEN_D
 70
     0
  0
APPID
  5
1D3
330
9
100
AcDbSymbolTableRecord
100
AcDbRegAppTableRecord
  2
INDEX
 70
     0
  0
APPID
  5
3B2
330
9
100
AcDbSymbolTableRecord
100
AcDbRegAppTableRecord
  2
ACAD_MLEADERVER
 70
     0
  0
ENDTAB
  0
TABLE
  2
DIMSTYLE
  5
A
330
0
100
AcDbSymbolTable
 70
    23
  0
DIMSTYLE
105
27
330
A
100
AcDbSymbolTableRecord
100
AcDbDimStyleTableRecord
  2
STANDARD
 70
     0
  3

  4

  5

  6

  7

 40
1.0
 41
0.18
 42
0.0625
 43
0.38
 44
0.18
 45
0.0
 46
0.0
 47
0.0
 48
0.0
140
0.18
141
0.09
142
0.0
143
25.4
144
1.0
145
0.0
146
1.0
147
0.09
 71
     0
 72
     0
 73
     1
 74
     1
 75
     0
 76
     0
 77
     0
 78
     0
170
     0
171
     2
172
     0
173
     0
174
     0
175
     0
176
     0
177
     0
178
     0
270
     2
271
     4
272
     4
273
     2
274
     2
340
11
275
     0
280
     0
281
     0
282
     0
283
     1
284
     0
285
     0
286
     0
287
     3
288
     0
  0
DIMSTYLE
105
72
330
A
100
AcDbSymbolTableRecord
100
AcDbDimStyleTableRecord
  2
ONSHAPE-ISO-25
 70
     0
  3

  4

  5

  6

  7

 40
1.0
 41
2.5
 42
0.625
 43
3.75
 44
1.25
 45
0.0
 46
0.0
 47
0.0
 48
0.0
140
3.5
141
2.5
142
0.0
143
0.03937
144
1.0
145
0.0
146
1.0
147
0.625
 71
     0
 72
     0
 73
     0
 74
     0
 75
     0
 76
     0
 77
     1
 78
     8
170
     0
171
     3
172
     1
173
     0
174
     0
175
     0
176
     7
177
     7
178
     7
179
     1
270
     2
271
     2
272
     2
273
     2
274
     3
340
73
275
     0
280
     0
281
     0
282
     0
283
     0
284
     8
285
     8
286
     0
287
     3
288
     1
  0
DIMSTYLE
105
1CE
102
{ACAD_REACTORS
330
1C6
330
1E1
330
1F3
330
205
330
253
330
271
330
283
330
29E
330
2B9
330
2CE
330
2E0
330
2F2
102
}
330
A
100
AcDbSymbolTableRecord
100
AcDbDimStyleTableRecord
  2
ONSHAPE-ISO-25$0
 70
     0
  3

  4

  5

  6

  7

 40
1.0
 41
2.5
 42
0.625
 43
3.75
 44
1.25
 45
0.0
 46
0.0
 47
0.0
 48
0.0
140
3.5
141
2.5
142
0.0
143
0.03937
144
1.0
145
0.0
146
1.0
147
0.625
 71
     0
 72
     0
 73
     0
 74
     0
 75
     0
 76
     0
 77
     1
 78
     8
170
     0
171
     3
172
     1
173
     0
174
     0
175
     0
176
     7
177
     7
178
     7
179
     1
270
     2
271
     2
272
     2
273
     2
274
     3
340
73
275
     0
280
     0
281
     0
282
     0
283
     0
284
     8
285
     8
286
     0
287
     3
288
     1
  0
DIMSTYLE
105
345
330
A
100
AcDbSymbolTableRecord
100
AcDbDimStyleTableRecord
  2
ISO-25
 70
     0
  3

  4

  5

  6

  7

 40
1.0
 41
2.5
 42
0.625
 43
3.75
 44
1.25
 45
0.0
 46
0.0
 47
0.0
 48
0.0
140
2.5
141
2.5
142
0.0
143
0.03937007874016
144
1.0
145
0.0
146
1.0
147
0.625
 71
     0
 72
     0
 73
     0
 74
     0
 75
     0
 76
     0
 77
     1
 78
     8
170
     0
171
     3
172
     1
173
     0
174
     0
175
     0
176
     7
177
     7
178
     7
270
     2
271
     2
272
     2
273
     2
274
     3
340
11
275
     0
280
     0
281
     0
282
     0
283
     0
284
     8
285
     0
286
     0
287
     3
288
     1
  0
DIMSTYLE
105
347
330
A
100
AcDbSymbolTableRecord
100
AcDbDimStyleTableRecord
  2
ISO
 70
     0
  3

  4
"
  5

  6

  7

 40
1.0
 41
3.5
 42
1.0
 43
10.0
 44
1.0
 45
0.0
 46
0.0
 47
0.1
 48
0.1
140
3.5
141
0.0
142
0.0
143
0.03937
144
1.0
145
0.0
146
0.71
147
1.5
 71
     0
 72
     0
 73
     0
 74
     0
 75
     0
 76
     0
 77
     1
 78
     8
170
     0
171
     3
172
     1
173
     0
174
     0
175
     0
176
     7
177
     7
178
     7
270
     2
271
     2
272
     3
273
     2
274
     3
340
11
275
     0
280
     0
281
     0
282
     0
283
     0
284
     8
285
     8
286
     0
287
     3
288
     1
  0
DIMSTYLE
105
348
330
A
100
AcDbSymbolTableRecord
100
AcDbDimStyleTableRecord
  2
ISO$3
 70
     0
  3

  4
"
  5

  6

  7

 40
1.0
 41
3.5
 42
1.0
 43
10.0
 44
1.0
 45
0.0
 46
0.0
 47
0.1
 48
0.1
140
3.5
141
0.0
142
0.0
143
0.03937
144
1.0
145
0.0
146
0.71
147
1.5
 71
     0
 72
     0
 73
     0
 74
     1
 75
     0
 76
     0
 77
     1
 78
     8
170
     0
171
     3
172
     0
173
     0
174
     0
175
     0
176
     7
177
     7
178
     7
270
     2
271
     2
272
     3
273
     2
274
     3
340
11
275
     0
280
     0
281
     0
282
     0
283
     0
284
     8
285
     8
286
     0
288
     1
  0
DIMSTYLE
105
349
330
A
100
AcDbSymbolTableRecord
100
AcDbDimStyleTableRecord
  2
ISO$4
 70
     0
  3

  4
"
  5

  6

  7

 40
1.0
 41
3.5
 42
1.0
 43
10.0
 44
1.0
 45
0.0
 46
0.0
 47
0.1
 48
0.1
140
3.5
141
0.0
142
0.0
143
0.03937
144
1.0
145
0.0
146
0.71
147
1.5
 71
     0
 72
     0
 73
     0
 74
     0
 75
     0
 76
     0
 77
     1
 78
     8
170
     0
171
     3
172
     1
173
     0
174
     0
175
     0
176
     7
177
     7
178
     7
270
     2
271
     2
272
     3
273
     2
274
     3
340
11
275
     0
280
     0
281
     0
282
     0
283
     0
284
     8
285
     8
286
     0
287
     3
288
     1
  0
DIMSTYLE
105
34A
330
A
100
AcDbSymbolTableRecord
100
AcDbDimStyleTableRecord
  2
ISO$6
 70
     0
  3

  4
"
  5

  6

  7

 40
1.0
 41
0.5
 42
1.0
 43
10.0
 44
1.0
 45
0.0
 46
0.0
 47
0.1
 48
0.1
140
3.5
141
0.0
142
0.0
143
0.03937
144
1.0
145
0.0
146
0.71
147
1.5
 71
     0
 72
     0
 73
     0
 74
     0
 75
     0
 76
     0
 77
     0
 78
     8
170
     0
171
     3
172
     1
173
     0
174
     0
175
     0
176
     7
177
     7
178
     7
270
     2
271
     2
272
     3
273
     2
274
     3
340
11
275
     0
280
     0
281
     0
282
     0
283
     0
284
     8
285
     8
286
     0
287
     3
288
     1
  0
DIMSTYLE
105
34B
330
A
100
AcDbSymbolTableRecord
100
AcDbDimStyleTableRecord
  2
ISO$7
 70
     0
  3

  4
"
  5

  6

  7

 40
1.0
 41
3.5
 42
1.0
 43
10.0
 44
1.0
 45
0.0
 46
0.0
 47
0.1
 48
0.1
140
3.5
141
0.0
142
0.0
143
0.03937
144
1.0
145
0.0
146
0.71
147
1.5
 71
     0
 72
     0
 73
     0
 74
     0
 75
     0
 76
     0
 77
     1
 78
     8
170
     0
171
     3
172
     1
173
     0
174
     0
175
     0
176
     7
177
     7
178
     7
270
     2
271
     2
272
     3
273
     2
274
     3
340
11
275
     0
280
     0
281
     0
282
     0
283
     0
284
     8
285
     8
286
     0
287
     3
288
     1
  0
DIMSTYLE
105
34C
330
A
100
AcDbSymbolTableRecord
100
AcDbDimStyleTableRecord
  2
ISO$SF
 70
     0
  3

  4
"
  5

  6

  7

 40
1.0
 41
3.5
 42
1.0
 43
10.0
 44
1.0
 45
0.0
 46
0.0
 47
0.1
 48
0.1
140
3.5
141
0.0
142
0.0
143
0.03937
144
1.0
145
0.0
146
0.71
147
1.5
 71
     0
 72
     0
 73
     0
 74
     0
 75
     1
 76
     1
 77
     1
 78
     8
170
     0
171
     3
172
     1
173
     0
174
     0
175
     0
176
     7
177
     7
178
     7
270
     2
271
     2
272
     3
273
     2
274
     3
340
11
275
     0
280
     0
281
     0
282
     0
283
     0
284
     8
285
     8
286
     0
287
     3
288
     1
  0
DIMSTYLE
105
34D
330
A
100
AcDbSymbolTableRecord
100
AcDbDimStyleTableRecord
  2
ISO$SH
 70
     0
  3

  4
"
  5

  6

  7

 40
1.0
 41
3.5
 42
1.0
 43
10.0
 44
1.0
 45
0.0
 46
0.0
 47
0.1
 48
0.1
140
3.5
141
0.0
142
0.0
143
0.03937
144
2.0
145
0.0
146
0.71
147
1.5
 71
     0
 72
     0
 73
     0
 74
     0
 75
     1
 76
     1
 77
     1
 78
     8
170
     0
171
     3
172
     1
173
     1
174
     0
175
     0
176
     7
177
     7
178
     7
270
     2
271
     2
272
     3
273
     2
274
     3
340
11
275
     0
280
     0
281
     0
282
     0
283
     0
284
     8
285
     8
286
     0
287
     3
288
     1
  0
DIMSTYLE
105
351
330
A
100
AcDbSymbolTableRecord
100
AcDbDimStyleTableRecord
  2
ONSHAPE-ISO-25$2
 70
     0
  3

  4

  5

  6

  7

 40
1.0
 41
2.5
 42
0.625
 43
3.75
 44
1.25
 45
0.0
 46
0.0
 47
0.0
 48
0.0
140
3.5
141
2.5
142
0.0
143
0.03937
144
1.0
145
0.0
146
1.0
147
0.625
 71
     0
 72
     0
 73
     0
 74
     0
 75
     0
 76
     0
 77
     1
 78
     8
170
     0
171
     3
172
     1
173
     0
174
     0
175
     0
176
     7
177
     7
178
     7
179
     1
270
     2
271
     2
272
     2
273
     2
274
     3
340
73
275
     0
280
     0
281
     0
282
     0
283
     0
284
     8
285
     8
286
     0
287
     3
288
     1
  0
DIMSTYLE
105
352
330
A
100
AcDbSymbolTableRecord
100
AcDbDimStyleTableRecord
  2
ONSHAPE-ISO-25$3
 70
     0
  3

  4

  5

  6

  7

 40
1.0
 41
2.5
 42
0.625
 43
3.75
 44
1.25
 45
0.0
 46
0.0
 47
0.0
 48
0.0
140
3.5
141
0.0
142
0.0
143
0.03937
144
1.0
145
0.0
146
1.0
147
0.625
 71
     0
 72
     0
 73
     0
 74
     0
 75
     0
 76
     0
 77
     1
 78
     8
170
     0
171
     3
172
     1
173
     0
174
     0
175
     0
176
     7
177
     7
178
     7
179
     1
270
     2
271
     2
272
     2
273
     2
274
     3
340
73
275
     0
280
     0
281
     0
282
     0
283
     0
284
     8
285
     8
286
     0
287
     3
288
     1
  0
DIMSTYLE
105
353
330
A
100
AcDbSymbolTableRecord
100
AcDbDimStyleTableRecord
  2
ONSHAPE-ISO-25$4
 70
     0
  3

  4

  5

  6

  7

 40
1.0
 41
2.5
 42
0.625
 43
3.75
 44
1.25
 45
0.0
 46
0.0
 47
0.0
 48
0.0
140
3.5
141
0.0
142
0.0
143
0.03937
144
1.0
145
0.0
146
1.0
147
0.625
 71
     0
 72
     0
 73
     0
 74
     0
 75
     0
 76
     0
 77
     1
 78
     8
170
     0
171
     3
172
     1
173
     0
174
     0
175
     0
176
     7
177
     7
178
     7
179
     1
270
     2
271
     2
272
     2
273
     2
274
     3
340
73
275
     0
280
     0
281
     0
282
     0
283
     0
284
     8
285
     8
286
     0
287
     3
288
     1
  0
DIMSTYLE
105
354
330
A
100
AcDbSymbolTableRecord
100
AcDbDimStyleTableRecord
  2
ONSHAPE-ISO-25$6
 70
     0
  3

  4

  5

  6

  7

 40
1.0
 41
0.5
 42
0.625
 43
3.75
 44
1.25
 45
0.0
 46
0.0
 47
0.0
 48
0.0
140
3.5
141
2.5
142
0.0
143
0.03937
144
1.0
145
0.0
146
1.0
147
0.625
 71
     0
 72
     0
 73
     0
 74
     0
 75
     0
 76
     0
 77
     1
 78
     8
170
     0
171
     3
172
     1
173
     0
174
     0
175
     0
176
     7
177
     7
178
     7
179
     1
270
     2
271
     2
272
     2
273
     2
274
     3
340
73
275
     0
280
     0
281
     0
282
     0
283
     0
284
     8
285
     8
286
     0
287
     3
288
     1
  0
DIMSTYLE
105
355
330
A
100
AcDbSymbolTableRecord
100
AcDbDimStyleTableRecord
  2
ONSHAPE-ISO-25$7
 70
     0
  3

  4

  5

  6

  7

 40
1.0
 41
2.5
 42
0.625
 43
3.75
 44
1.25
 45
0.0
 46
0.0
 47
0.0
 48
0.0
140
3.5
141
2.5
142
0.0
143
0.03937
144
1.0
145
0.0
146
1.0
147
0.625
 71
     0
 72
     0
 73
     0
 74
     0
 75
     0
 76
     0
 77
     1
 78
     8
170
     0
171
     3
172
     1
173
     0
174
     0
175
     0
176
     7
177
     7
178
     7
179
     1
270
     2
271
     2
272
     2
273
     2
274
     3
340
73
275
     0
280
     0
281
     0
282
     0
283
     0
284
     8
285
     8
286
     0
287
     3
288
     1
  0
DIMSTYLE
105
356
330
A
100
AcDbSymbolTableRecord
100
AcDbDimStyleTableRecord
  2
ONSHAPE-STANDARD-GTOLERANC
 70
     0
  3

  4

  5

  6

  7

 40
1.0
 41
2.5
 42
0.625
 43
3.75
 44
1.25
 45
0.0
 46
0.0
 47
0.0
 48
0.0
140
3.5
141
2.5
142
0.0
143
0.03937
144
1.0
145
0.0
146
1.0
147
0.625
 71
     0
 72
     0
 73
     0
 74
     0
 75
     0
 76
     0
 77
     1
 78
     8
170
     0
171
     3
172
     1
173
     0
174
     0
175
     0
176
     7
177
     7
178
     7
179
     1
270
     2
271
     2
272
     2
273
     2
274
     3
340
32C
275
     0
280
     0
281
     0
282
     0
283
     0
284
     8
285
     8
286
     0
287
     3
288
     1
  0
DIMSTYLE
105
358
330
A
100
AcDbSymbolTableRecord
100
AcDbDimStyleTableRecord
  2
ONSHAPE-ORDINATESTYLE
 70
     0
  3

  4

  5

  6

  7

 40
1.0
 41
2.5
 42
0.625
 43
3.75
 44
1.25
 45
0.0
 46
0.0
 47
0.0
 48
0.0
140
3.5
141
2.5
142
0.0
143
0.03937
144
1.0
145
0.0
146
1.0
147
0.625
 71
     0
 72
     0
 73
     0
 74
     0
 75
     0
 76
     0
 77
     1
 78
     8
170
     0
171
     3
172
     1
173
     0
174
     0
175
     0
176
     7
177
     7
178
     7
179
     1
270
     2
271
     2
272
     2
273
     2
274
     3
340
73
275
     0
280
     0
281
     0
282
     0
283
     0
284
     8
285
     8
286
     0
287
     3
288
     1
  0
DIMSTYLE
105
359
330
A
100
AcDbSymbolTableRecord
100
AcDbDimStyleTableRecord
  2
ONSHAPE-CHAMFERDIMSTYLE
 70
     0
  3

  4

  5

  6

  7

 40
1.0
 41
2.5
 42
0.625
 43
3.75
 44
1.25
 45
0.0
 46
0.0
 47
0.0
 48
0.0
140
3.5
141
2.5
142
0.0
143
0.03937
144
1.0
145
0.0
146
1.0
147
0.625
 71
     0
 72
     0
 73
     0
 74
     0
 75
     0
 76
     0
 77
     1
 78
     8
170
     0
171
     3
172
     1
173
     0
174
     0
175
     0
176
     7
177
     7
178
     7
179
     1
270
     2
271
     2
272
     2
273
     2
274
     3
340
73
275
     0
280
     0
281
     0
282
     0
283
     0
284
     8
285
     8
286
     0
287
     3
288
     1
  0
DIMSTYLE
105
35A
330
A
100
AcDbSymbolTableRecord
100
AcDbDimStyleTableRecord
  2
ONSHAPE-SKETCHDRIVENDIMSTY
 70
     0
  3

  4

  5

  6

  7

 40
1.0
 41
2.5
 42
0.625
 43
3.75
 44
1.25
 45
0.0
 46
0.0
 47
0.0
 48
0.0
140
3.5
141
2.5
142
0.0
143
0.03937
144
1.0
145
0.0
146
1.0
147
0.625
 71
     0
 72
     0
 73
     0
 74
     0
 75
     0
 76
     0
 77
     1
 78
     8
170
     0
171
     3
172
     1
173
     0
174
     0
175
     0
176
   251
177
   251
178
   251
179
     1
270
     2
271
     2
272
     2
273
     2
274
     3
340
73
275
     0
280
     0
281
     0
282
     0
283
     0
284
     8
285
     8
286
     0
287
     3
288
     1
  0
DIMSTYLE
105
35B
330
A
100
AcDbSymbolTableRecord
100
AcDbDimStyleTableRecord
  2
ONSHAPE-SKETCHDRIVENDIMST0
 70
     0
  3

  4

  5

  6

  7

 40
1.0
 41
2.5
 42
0.625
 43
3.75
 44
1.25
 45
0.0
 46
0.0
 47
0.0
 48
0.0
140
3.5
141
2.5
142
0.0
143
0.03937
144
1.0
145
0.0
146
1.0
147
0.625
 71
     0
 72
     0
 73
     0
 74
     0
 75
     0
 76
     0
 77
     1
 78
     8
170
     0
171
     3
172
     1
173
     0
174
     0
175
     0
176
   251
177
   251
178
   251
179
     1
270
     2
271
     2
272
     2
273
     2
274
     3
340
73
275
     0
280
     0
281
     0
282
     0
283
     0
284
     8
285
     8
286
     0
287
     3
288
     1
  0
DIMSTYLE
105
35C
330
A
100
AcDbSymbolTableRecord
100
AcDbDimStyleTableRecord
  2
ONSHAPE-SKETCHDRIVENDIMST1
 70
     0
  3

  4

  5

  6

  7

 40
1.0
 41
2.5
 42
0.625
 43
3.75
 44
1.25
 45
0.0
 46
0.0
 47
0.0
 48
0.0
140
3.5
141
0.0
142
0.0
143
0.03937
144
1.0
145
0.0
146
1.0
147
0.625
 71
     0
 72
     0
 73
     0
 74
     0
 75
     0
 76
     0
 77
     1
 78
     8
170
     0
171
     3
172
     1
173
     0
174
     0
175
     0
176
   251
177
   251
178
   251
179
     1
270
     2
271
     2
272
     2
273
     2
274
     3
340
73
275
     0
280
     0
281
     0
282
     0
283
     0
284
     8
285
     8
286
     0
287
     3
288
     1
  0
DIMSTYLE
105
35D
330
A
100
AcDbSymbolTableRecord
100
AcDbDimStyleTableRecord
  2
ONSHAPE-SKETCHDRIVENDIMST2
 70
     0
  3

  4

  5

  6

  7

 40
1.0
 41
2.5
 42
0.625
 43
3.75
 44
1.25
 45
0.0
 46
0.0
 47
0.0
 48
0.0
140
3.5
141
0.0
142
0.0
143
0.03937
144
1.0
145
0.0
146
1.0
147
0.625
 71
     0
 72
     0
 73
     0
 74
     0
 75
     0
 76
     0
 77
     1
 78
     8
170
     0
171
     3
172
     1
173
     0
174
     0
175
     0
176
   251
177
   251
178
   251
179
     1
270
     2
271
     2
272
     2
273
     2
274
     3
340
73
275
     0
280
     0
281
     0
282
     0
283
     0
284
     8
285
     8
286
     0
287
     3
288
     1
  0
ENDTAB
  0
TABLE
  2
BLOCK_RECORD
  5
1
330
0
100
AcDbSymbolTable
 70
    12
  0
BLOCK_RECORD
  5
1F
330
1
100
AcDbSymbolTableRecord
100
AcDbBlockTableRecord
  2
*MODEL_SPACE
  0
BLOCK_RECORD
  5
1B
330
1
100
AcDbSymbolTableRecord
100
AcDbBlockTableRecord
  2
*PAPER_SPACE
  0
BLOCK_RECORD
  5
1D0
330
1
100
AcDbSymbolTableRecord
100
AcDbBlockTableRecord
  2
*D1
  0
BLOCK_RECORD
  5
1E6
330
1
100
AcDbSymbolTableRecord
100
AcDbBlockTableRecord
  2
*D2
  0
BLOCK_RECORD
  5
1F8
330
1
100
AcDbSymbolTableRecord
100
AcDbBlockTableRecord
  2
*D3
  0
BLOCK_RECORD
  5
20A
330
1
100
AcDbSymbolTableRecord
100
AcDbBlockTableRecord
  2
*D4
  0
BLOCK_RECORD
  5
25D
330
1
100
AcDbSymbolTableRecord
100
AcDbBlockTableRecord
  2
*D5
  0
BLOCK_RECORD
  5
276
330
1
100
AcDbSymbolTableRecord
100
AcDbBlockTableRecord
  2
*D6
  0
BLOCK_RECORD
  5
288
330
1
100
AcDbSymbolTableRecord
100
AcDbBlockTableRecord
  2
*D7
  0
BLOCK_RECORD
  5
2A8
330
1
100
AcDbSymbolTableRecord
100
AcDbBlockTableRecord
  2
*D8
  0
BLOCK_RECORD
  5
2BE
330
1
100
AcDbSymbolTableRecord
100
AcDbBlockTableRecord
  2
*D9
  0
BLOCK_RECORD
  5
2D3
330
1
100
AcDbSymbolTableRecord
100
AcDbBlockTableRecord
  2
*D10
  0
BLOCK_RECORD
  5
2E5
330
1
100
AcDbSymbolTableRecord
100
AcDbBlockTableRecord
  2
*D11
  0
BLOCK_RECORD
  5
2F7
330
1
100
AcDbSymbolTableRecord
100
AcDbBlockTableRecord
  2
*D12
  0
ENDTAB
  0
ENDSEC
  0
SECTION
  2
BLOCKS
  0
BLOCK
  5
20
330
1F
100
AcDbEntity
  8
0
100
AcDbBlockBegin
  2
*MODEL_SPACE
 70
     0
 10
0.0
 20
0.0
 30
0.0
  3
*MODEL_SPACE
  1

  0
ENDBLK
  5
21
330
1F
100
AcDbEntity
  8
0
100
AcDbBlockEnd
  0
BLOCK
  5
1C
330
1B
100
AcDbEntity
 67
     1
  8
0
100
AcDbBlockBegin
  2
*PAPER_SPACE
 70
     0
 10
0.0
 20
0.0
 30
0.0
  3
*PAPER_SPACE
  1

  0
ENDBLK
  5
1D
330
1B
100
AcDbEntity
 67
     1
  8
0
100
AcDbBlockEnd
  0
BLOCK
  5
1D1
330
1D0
100
AcDbEntity
  8
0
100
AcDbBlockBegin
  2
*D1
 70
     1
 10
0.0
 20
0.0
 30
0.0
  3
*D1
  1

  0
LINE
  5
1D2
330
1D0
100
AcDbEntity
  8
ANNOTATION_TEXT
 62
     7
100
AcDbLine
 10
222.9759073822502
 20
264.470587485119
 30
0.0
 11
240.3247720785544
 21
264.470587485119
 31
0.0
1001
INDEX
1070
     0
  0
LINE
  5
1D4
330
1D0
100
AcDbEntity
  8
ANNOTATION_TEXT
 62
     7
100
AcDbLine
 10
222.9759073822502
 20
201.970587485119
 30
0.0
 11
240.3247720785544
 21
201.970587485119
 31
0.0
1001
INDEX
1070
     1
  0
LINE
  5
1D5
330
1D0
100
AcDbEntity
  8
ANNOTATION_TEXT
 62
     7
100
AcDbLine
 10
239.0747720785544
 20
261.970587485119
 30
0.0
 11
239.0747720785544
 21
204.470587485119
 31
0.0
1001
INDEX
1070
     3
  0
SOLID
  5
1D6
330
1D0
100
AcDbEntity
  8
ANNOTATION_TEXT
 62
     7
100
AcDbTrace
 10
239.491438745221
 20
261.970587485119
 30
0.0
 11
238.6581054118877
 21
261.970587485119
 31
0.0
 12
239.0747720785544
 22
264.470587485119
 32
0.0
 13
239.0747720785544
 23
264.470587485119
 33
0.0
  0
SOLID
  5
1D7
330
1D0
100
AcDbEntity
  8
ANNOTATION_TEXT
 62
     7
100
AcDbTrace
 10
238.6581054118877
 20
204.470587485119
 30
0.0
 11
239.491438745221
 21
204.470587485119
 31
0.0
 12
239.0747720785544
 22
201.970587485119
 32
0.0
 13
239.0747720785544
 23
201.970587485119
 33
0.0
  0
MTEXT
  5
1D8
330
1D0
100
AcDbEntity
  8
ANNOTATION_TEXT
 62
     7
100
AcDbMText
 10
236.6556644491266
 20
233.220587485119
 30
0.0
 40
3.5
 41
0.0
 71
     5
 72
     1
  1
250
  7
ONSHAPE-STANDARD-DIMENSION
 11
0.0
 21
1.0
 31
0.0
  0
POINT
  5
1D9
330
1D0
100
AcDbEntity
  8
DEFPOINTS
 62
     0
100
AcDbPoint
 10
222.3509073822502
 20
264.470587485119
 30
0.0
  0
POINT
  5
1DA
330
1D0
100
AcDbEntity
  8
DEFPOINTS
 62
     0
100
AcDbPoint
 10
222.3509073822502
 20
201.970587485119
 30
0.0
  0
POINT
  5
1DB
330
1D0
100
AcDbEntity
  8
DEFPOINTS
 62
     0
100
AcDbPoint
 10
239.0747720785544
 20
201.970587485119
 30
0.0
  0
POINT
  5
1DC
330
1D0
100
AcDbEntity
  8
DEFPOINTS
 62
     0
100
AcDbPoint
 10
239.0747720785544
 20
201.970587485119
 30
0.0
  0
ENDBLK
  5
1DD
330
1D0
100
AcDbEntity
  8
0
100
AcDbBlockEnd
  0
BLOCK
  5
1E7
330
1E6
100
AcDbEntity
  8
0
100
AcDbBlockBegin
  2
*D2
 70
     1
 10
0.0
 20
0.0
 30
0.0
  3
*D2
  1

  0
LINE
  5
1E8
330
1E6
100
AcDbEntity
  8
ANNOTATION_TEXT
 62
     7
100
AcDbLine
 10
122.3509073822502
 20
201.345587485119
 30
0.0
 11
122.3509073822502
 21
193.9458352075407
 31
0.0
1001
INDEX
1070
     0
  0
LINE
  5
1E9
330
1E6
100
AcDbEntity
  8
ANNOTATION_TEXT
 62
     7
100
AcDbLine
 10
222.3509073822502
 20
201.345587485119
 30
0.0
 11
222.3509073822502
 21
193.9458352075407
 31
0.0
1001
INDEX
1070
     1
  0
LINE
  5
1EA
330
1E6
100
AcDbEntity
  8
ANNOTATION_TEXT
 62
     7
100
AcDbLine
 10
124.8509073822502
 20
195.1958352075407
 30
0.0
 11
219.8509073822502
 21
195.1958352075407
 31
0.0
1001
INDEX
1070
     3
  0
SOLID
  5
1EB
330
1E6
100
AcDbEntity
  8
ANNOTATION_TEXT
 62
     7
100
AcDbTrace
 10
124.8509073822502
 20
195.6125018742074
 30
0.0
 11
124.8509073822502
 21
194.7791685408741
 31
0.0
 12
122.3509073822502
 22
195.1958352075407
 32
0.0
 13
122.3509073822502
 23
195.1958352075407
 33
0.0
  0
SOLID
  5
1EC
330
1E6
100
AcDbEntity
  8
ANNOTATION_TEXT
 62
     7
100
AcDbTrace
 10
219.8509073822502
 20
194.7791685408741
 30
0.0
 11
219.8509073822502
 21
195.6125018742074
 31
0.0
 12
222.3509073822502
 22
195.1958352075407
 32
0.0
 13
222.3509073822502
 23
195.1958352075407
 33
0.0
  0
MTEXT
  5
1ED
330
1E6
100
AcDbEntity
  8
ANNOTATION_TEXT
 62
     7
100
AcDbMText
 10
173.0780967765197
 20
197.6149428369685
 30
0.0
 40
3.5
 41
0.0
 71
     5
 72
     1
  1
400
  7
ONSHAPE-STANDARD-DIMENSION
  0
POINT
  5
1EE
330
1E6
100
AcDbEntity
  8
DEFPOINTS
 62
     0
100
AcDbPoint
 10
122.3509073822502
 20
201.970587485119
 30
0.0
  0
POINT
  5
1EF
330
1E6
100
AcDbEntity
  8
DEFPOINTS
 62
     0
100
AcDbPoint
 10
222.3509073822502
 20
201.970587485119
 30
0.0
  0
POINT
  5
1F0
330
1E6
100
AcDbEntity
  8
DEFPOINTS
 62
     0
100
AcDbPoint
 10
222.3509073822502
 20
195.1958352075407
 30
0.0
  0
POINT
  5
1F1
330
1E6
100
AcDbEntity
  8
DEFPOINTS
 62
     0
100
AcDbPoint
 10
222.3509073822502
 20
195.1958352075407
 30
0.0
  0
ENDBLK
  5
1F2
330
1E6
100
AcDbEntity
  8
0
100
AcDbBlockEnd
  0
BLOCK
  5
1F9
330
1F8
100
AcDbEntity
  8
0
100
AcDbBlockBegin
  2
*D3
 70
     1
 10
0.0
 20
0.0
 30
0.0
  3
*D3
  1

  0
LINE
  5
1FA
330
1F8
100
AcDbEntity
  8
ANNOTATION_TEXT
 62
     7
100
AcDbLine
 10
112.9759073822502
 20
233.220587485119
 30
0.0
 11
103.8810581711147
 21
233.220587485119
 31
0.0
1001
INDEX
1070
     0
  0
LINE
  5
1FB
330
1F8
100
AcDbEntity
  8
ANNOTATION_TEXT
 62
     7
100
AcDbLine
 10
121.7259073822502
 20
201.970587485119
 30
0.0
 11
103.8810581711147
 21
201.970587485119
 31
0.0
1001
INDEX
1070
     1
  0
LINE
  5
1FC
330
1F8
100
AcDbEntity
  8
ANNOTATION_TEXT
 62
     7
100
AcDbLine
 10
105.1310581711147
 20
230.720587485119
 30
0.0
 11
105.1310581711147
 21
204.470587485119
 31
0.0
1001
INDEX
1070
     3
  0
SOLID
  5
1FD
330
1F8
100
AcDbEntity
  8
ANNOTATION_TEXT
 62
     7
100
AcDbTrace
 10
105.5477248377814
 20
230.720587485119
 30
0.0
 11
104.7143915044481
 21
230.720587485119
 31
0.0
 12
105.1310581711147
 22
233.220587485119
 32
0.0
 13
105.1310581711147
 23
233.220587485119
 33
0.0
  0
SOLID
  5
1FE
330
1F8
100
AcDbEntity
  8
ANNOTATION_TEXT
 62
     7
100
AcDbTrace
 10
104.7143915044481
 20
204.470587485119
 30
0.0
 11
105.5477248377814
 21
204.470587485119
 31
0.0
 12
105.1310581711147
 22
201.970587485119
 32
0.0
 13
105.1310581711147
 23
201.970587485119
 33
0.0
  0
MTEXT
  5
1FF
330
1F8
100
AcDbEntity
  8
ANNOTATION_TEXT
 62
     7
100
AcDbMText
 10
102.7143347378722
 20
221.1667490995452
 30
0.0
 40
3.5
 41
0.0
 71
     5
 72
     1
  1
125
  7
ONSHAPE-STANDARD-DIMENSION
 11
0.0
 21
1.0
 31
0.0
  0
POINT
  5
200
330
1F8
100
AcDbEntity
  8
DEFPOINTS
 62
     0
100
AcDbPoint
 10
113.6009073822502
 20
233.220587485119
 30
0.0
  0
POINT
  5
201
330
1F8
100
AcDbEntity
  8
DEFPOINTS
 62
     0
100
AcDbPoint
 10
122.3509073822502
 20
201.970587485119
 30
0.0
  0
POINT
  5
202
330
1F8
100
AcDbEntity
  8
DEFPOINTS
 62
     0
100
AcDbPoint
 10
105.1310581711147
 20
201.970587485119
 30
0.0
  0
POINT
  5
203
330
1F8
100
AcDbEntity
  8
DEFPOINTS
 62
     0
100
AcDbPoint
 10
105.1310581711147
 20
201.970587485119
 30
0.0
  0
ENDBLK
  5
204
330
1F8
100
AcDbEntity
  8
0
100
AcDbBlockEnd
  0
BLOCK
  5
20B
330
20A
100
AcDbEntity
  8
0
100
AcDbBlockBegin
  2
*D4
 70
     1
 10
0.0
 20
0.0
 30
0.0
  3
*D4
  1

  0
LINE
  5
20C
330
20A
100
AcDbEntity
  8
ANNOTATION_TEXT
 62
     7
100
AcDbLine
 10
112.9759073822502
 20
236.570587485119
 30
0.0
 11
89.94333297584706
 21
236.570587485119
 31
0.0
1001
INDEX
1070
     0
  0
LINE
  5
20D
330
20A
100
AcDbEntity
  8
ANNOTATION_TEXT
 62
     7
100
AcDbLine
 10
112.9759073822502
 20
229.870587485119
 30
0.0
 11
89.94333297584706
 21
229.870587485119
 31
0.0
1001
INDEX
1070
     1
  0
LINE
  5
20E
330
20A
100
AcDbEntity
  8
ANNOTATION_TEXT
 62
     7
100
AcDbLine
 10
91.19333297584706
 20
236.570587485119
 30
0.0
 11
91.19333297584706
 21
229.870587485119
 31
0.0
1001
INDEX
1070
     3
  0
LINE
  5
20F
330
20A
100
AcDbEntity
  8
ANNOTATION_TEXT
 62
     7
100
AcDbLine
 10
91.19333297584706
 20
239.070587485119
 30
0.0
 11
91.19333297584706
 21
241.570587485119
 31
0.0
1001
INDEX
1070
     3
  0
LINE
  5
210
330
20A
100
AcDbEntity
  8
ANNOTATION_TEXT
 62
     7
100
AcDbLine
 10
91.19333297584706
 20
227.370587485119
 30
0.0
 11
91.19333297584706
 21
224.870587485119
 31
0.0
1001
INDEX
1070
     3
  0
SOLID
  5
211
330
20A
100
AcDbEntity
  8
ANNOTATION_TEXT
 62
     7
100
AcDbTrace
 10
90.77666630918038
 20
239.070587485119
 30
0.0
 11
91.60999964251373
 21
239.070587485119
 31
0.0
 12
91.19333297584706
 22
236.570587485119
 32
0.0
 13
91.19333297584706
 23
236.570587485119
 33
0.0
  0
SOLID
  5
212
330
20A
100
AcDbEntity
  8
ANNOTATION_TEXT
 62
     7
100
AcDbTrace
 10
91.60999964251373
 20
227.370587485119
 30
0.0
 11
90.77666630918038
 21
227.370587485119
 31
0.0
 12
91.19333297584706
 22
229.870587485119
 32
0.0
 13
91.19333297584706
 23
229.870587485119
 33
0.0
  0
MTEXT
  5
213
330
20A
100
AcDbEntity
  8
ANNOTATION_TEXT
 62
     7
100
AcDbMText
 10
88.48573760799965
 20
233.2205874851191
 30
0.0
 40
3.5
 41
0.0
 71
     5
 72
     1
  1
26,8
  7
ONSHAPE-STANDARD-DIMENSION
 11
0.0
 21
1.0
 31
0.0
  0
POINT
  5
214
330
20A
100
AcDbEntity
  8
DEFPOINTS
 62
     0
100
AcDbPoint
 10
113.6009073822502
 20
236.570587485119
 30
0.0
  0
POINT
  5
215
330
20A
100
AcDbEntity
  8
DEFPOINTS
 62
     0
100
AcDbPoint
 10
113.6009073822502
 20
229.870587485119
 30
0.0
  0
POINT
  5
216
330
20A
100
AcDbEntity
  8
DEFPOINTS
 62
     0
100
AcDbPoint
 10
91.19333297584706
 20
229.870587485119
 30
0.0
  0
POINT
  5
217
330
20A
100
AcDbEntity
  8
DEFPOINTS
 62
     0
100
AcDbPoint
 10
91.19333297584706
 20
229.870587485119
 30
0.0
  0
ENDBLK
  5
218
330
20A
100
AcDbEntity
  8
0
100
AcDbBlockEnd
  0
BLOCK
  5
25E
330
25D
100
AcDbEntity
  8
0
100
AcDbBlockBegin
  2
*D5
 70
     1
 10
0.0
 20
0.0
 30
0.0
  3
*D5
  1

  0
LINE
  5
25F
330
25D
100
AcDbEntity
  8
ANNOTATION_TEXT
 62
     7
100
AcDbLine
 10
175.4460579311354
 20
62.78771461561288
 30
0.0
 11
226.1675447904931
 21
62.78771461561288
 31
0.0
1001
INDEX
1070
     0
  0
LINE
  5
261
330
25D
100
AcDbEntity
  8
ANNOTATION_TEXT
 62
     7
100
AcDbLine
 10
175.4460579311354
 20
62.53771461561288
 30
0.0
 11
226.1675447904931
 21
62.53771461561288
 31
0.0
1001
INDEX
1070
     1
  0
LINE
  5
262
330
25D
100
AcDbEntity
  8
ANNOTATION_TEXT
 62
     7
100
AcDbLine
 10
224.9175447904931
 20
62.53771461561288
 30
0.0
 11
224.9175447904931
 21
51.05321189081727
 31
0.0
  0
LINE
  5
263
330
25D
100
AcDbEntity
  8
ANNOTATION_TEXT
 62
     7
100
AcDbLine
 10
224.9175447904931
 20
62.78771461561288
 30
0.0
 11
224.9175447904931
 21
62.53771461561288
 31
0.0
1001
INDEX
1070
     3
  0
LINE
  5
264
330
25D
100
AcDbEntity
  8
ANNOTATION_TEXT
 62
     7
100
AcDbLine
 10
224.9175447904931
 20
65.28771461561288
 30
0.0
 11
224.9175447904931
 21
67.78771461561288
 31
0.0
1001
INDEX
1070
     3
  0
LINE
  5
265
330
25D
100
AcDbEntity
  8
ANNOTATION_TEXT
 62
     7
100
AcDbLine
 10
224.9175447904931
 20
60.03771461561288
 30
0.0
 11
224.9175447904931
 21
57.53771461561288
 31
0.0
1001
INDEX
1070
     3
  0
SOLID
  5
266
330
25D
100
AcDbEntity
  8
ANNOTATION_TEXT
 62
     7
100
AcDbTrace
 10
224.5008781238265
 20
65.28771461561288
 30
0.0
 11
225.3342114571598
 21
65.28771461561288
 31
0.0
 12
224.9175447904931
 22
62.78771461561288
 32
0.0
 13
224.9175447904931
 23
62.78771461561288
 33
0.0
  0
SOLID
  5
267
330
25D
100
AcDbEntity
  8
ANNOTATION_TEXT
 62
     7
100
AcDbTrace
 10
225.3342114571598
 20
60.03771461561288
 30
0.0
 11
224.5008781238265
 21
60.03771461561288
 31
0.0
 12
224.9175447904931
 22
62.53771461561288
 32
0.0
 13
224.9175447904931
 23
62.53771461561288
 33
0.0
  0
MTEXT
  5
268
330
25D
100
AcDbEntity
  8
ANNOTATION_TEXT
 62
     7
100
AcDbMText
 10
222.5425447904931
 20
52.32790535130772
 30
0.0
 40
3.5
 41
0.0
 71
     5
 72
     1
  1
1
  7
ONSHAPE-STANDARD-DIMENSION
 11
0.0
 21
1.0
 31
0.0
  0
POINT
  5
269
330
25D
100
AcDbEntity
  8
DEFPOINTS
 62
     0
100
AcDbPoint
 10
174.8210579311354
 20
62.78771461561288
 30
0.0
  0
POINT
  5
26A
330
25D
100
AcDbEntity
  8
DEFPOINTS
 62
     0
100
AcDbPoint
 10
174.8210579311354
 20
62.53771461561288
 30
0.0
  0
POINT
  5
26B
330
25D
100
AcDbEntity
  8
DEFPOINTS
 62
     0
100
AcDbPoint
 10
224.9175447904931
 20
62.53771461561288
 30
0.0
  0
POINT
  5
26C
330
25D
100
AcDbEntity
  8
DEFPOINTS
 62
     0
100
AcDbPoint
 10
224.9175447904931
 20
62.53771461561288
 30
0.0
  0
ENDBLK
  5
26D
330
25D
100
AcDbEntity
  8
0
100
AcDbBlockEnd
  0
BLOCK
  5
277
330
276
100
AcDbEntity
  8
0
100
AcDbBlockBegin
  2
*D6
 70
     1
 10
0.0
 20
0.0
 30
0.0
  3
*D6
  1

  0
LINE
  5
278
330
276
100
AcDbEntity
  8
ANNOTATION_TEXT
 62
     7
100
AcDbLine
 10
174.8210579311354
 20
63.41271461561288
 30
0.0
 11
174.8210579311354
 21
71.24986148443165
 31
0.0
1001
INDEX
1070
     0
  0
LINE
  5
279
330
276
100
AcDbEntity
  8
ANNOTATION_TEXT
 62
     7
100
AcDbLine
 10
124.8210579311355
 20
63.41271461561288
 30
0.0
 11
124.8210579311355
 21
71.24986148443165
 31
0.0
1001
INDEX
1070
     1
  0
LINE
  5
27A
330
276
100
AcDbEntity
  8
ANNOTATION_TEXT
 62
     7
100
AcDbLine
 10
172.3210579311354
 20
69.99986148443165
 30
0.0
 11
127.3210579311355
 21
69.99986148443165
 31
0.0
1001
INDEX
1070
     3
  0
SOLID
  5
27B
330
276
100
AcDbEntity
  8
ANNOTATION_TEXT
 62
     7
100
AcDbTrace
 10
172.3210579311354
 20
69.58319481776498
 30
0.0
 11
172.3210579311354
 21
70.41652815109832
 31
0.0
 12
174.8210579311354
 22
69.99986148443165
 32
0.0
 13
174.8210579311354
 23
69.99986148443165
 33
0.0
  0
SOLID
  5
27C
330
276
100
AcDbEntity
  8
ANNOTATION_TEXT
 62
     7
100
AcDbTrace
 10
127.3210579311355
 20
70.41652815109832
 30
0.0
 11
127.3210579311355
 21
69.58319481776498
 31
0.0
 12
124.8210579311355
 22
69.99986148443165
 32
0.0
 13
124.8210579311355
 23
69.99986148443165
 33
0.0
  0
MTEXT
  5
27D
330
276
100
AcDbEntity
  8
ANNOTATION_TEXT
 62
     7
100
AcDbMText
 10
151.5695200709392
 20
72.41896911385945
 30
0.0
 40
3.5
 41
0.0
 71
     5
 72
     1
  1
200
  7
ONSHAPE-STANDARD-DIMENSION
  0
POINT
  5
27E
330
276
100
AcDbEntity
  8
DEFPOINTS
 62
     0
100
AcDbPoint
 10
174.8210579311354
 20
62.78771461561288
 30
0.0
  0
POINT
  5
27F
330
276
100
AcDbEntity
  8
DEFPOINTS
 62
     0
100
AcDbPoint
 10
124.8210579311355
 20
62.78771461561288
 30
0.0
  0
POINT
  5
280
330
276
100
AcDbEntity
  8
DEFPOINTS
 62
     0
100
AcDbPoint
 10
124.8210579311355
 20
69.99986148443165
 30
0.0
  0
POINT
  5
281
330
276
100
AcDbEntity
  8
DEFPOINTS
 62
     0
100
AcDbPoint
 10
124.8210579311355
 20
69.99986148443165
 30
0.0
  0
ENDBLK
  5
282
330
276
100
AcDbEntity
  8
0
100
AcDbBlockEnd
  0
BLOCK
  5
289
330
288
100
AcDbEntity
  8
0
100
AcDbBlockBegin
  2
*D7
 70
     1
 10
0.0
 20
0.0
 30
0.0
  3
*D7
  1

  0
LINE
  5
28A
330
288
100
AcDbEntity
  8
ANNOTATION_TEXT
 62
     7
100
AcDbLine
 10
124.8210579311355
 20
69.5348098756024
 30
0.0
 11
124.8210579311355
 21
70.1598098756024
 31
0.0
1001
INDEX
1070
     0
  0
LINE
  5
28B
330
288
100
AcDbEntity
  8
ANNOTATION_TEXT
 62
     7
100
AcDbLine
 10
124.5710579311355
 20
69.53480987560242
 30
0.0
 11
124.5710579311355
 21
70.1598098756024
 31
0.0
1001
INDEX
1070
     1
  0
LINE
  5
28C
330
288
100
AcDbEntity
  8
ANNOTATION_TEXT
 62
     7
100
AcDbLine
 10
124.5710579311355
 20
68.9098098756024
 30
0.0
 11
113.0865552063398
 21
68.9098098756024
 31
0.0
  0
LINE
  5
28D
330
288
100
AcDbEntity
  8
ANNOTATION_TEXT
 62
     7
100
AcDbLine
 10
124.8210579311355
 20
68.9098098756024
 30
0.0
 11
124.5710579311355
 21
68.9098098756024
 31
0.0
1001
INDEX
1070
     3
  0
LINE
  5
28E
330
288
100
AcDbEntity
  8
ANNOTATION_TEXT
 62
     7
100
AcDbLine
 10
127.3210579311355
 20
68.9098098756024
 30
0.0
 11
129.8210579311355
 21
68.9098098756024
 31
0.0
1001
INDEX
1070
     3
  0
LINE
  5
28F
330
288
100
AcDbEntity
  8
ANNOTATION_TEXT
 62
     7
100
AcDbLine
 10
122.0710579311355
 20
68.9098098756024
 30
0.0
 11
119.5710579311355
 21
68.9098098756024
 31
0.0
1001
INDEX
1070
     3
  0
SOLID
  5
290
330
288
100
AcDbEntity
  8
ANNOTATION_TEXT
 62
     7
100
AcDbTrace
 10
127.3210579311355
 20
69.32647654226908
 30
0.0
 11
127.3210579311355
 21
68.49314320893573
 31
0.0
 12
124.8210579311355
 22
68.9098098756024
 32
0.0
 13
124.8210579311355
 23
68.9098098756024
 33
0.0
  0
SOLID
  5
291
330
288
100
AcDbEntity
  8
ANNOTATION_TEXT
 62
     7
100
AcDbTrace
 10
122.0710579311355
 20
68.49314320893573
 30
0.0
 11
122.0710579311355
 21
69.32647654226908
 31
0.0
 12
124.5710579311355
 22
68.9098098756024
 32
0.0
 13
124.5710579311355
 23
68.9098098756024
 33
0.0
  0
MTEXT
  5
292
330
288
100
AcDbEntity
  8
ANNOTATION_TEXT
 62
     7
100
AcDbMText
 10
114.3612486668303
 20
71.2848098756024
 30
0.0
 40
3.5
 41
0.0
 71
     5
 72
     1
  1
1
  7
ONSHAPE-STANDARD-DIMENSION
  0
POINT
  5
293
330
288
100
AcDbEntity
  8
DEFPOINTS
 62
     0
100
AcDbPoint
 10
124.8210579311355
 20
68.9098098756024
 30
0.0
  0
POINT
  5
294
330
288
100
AcDbEntity
  8
DEFPOINTS
 62
     0
100
AcDbPoint
 10
124.5710579311355
 20
68.90980987560242
 30
0.0
  0
POINT
  5
295
330
288
100
AcDbEntity
  8
DEFPOINTS
 62
     0
100
AcDbPoint
 10
124.5710579311355
 20
68.9098098756024
 30
0.0
  0
POINT
  5
296
330
288
100
AcDbEntity
  8
DEFPOINTS
 62
     0
100
AcDbPoint
 10
124.5710579311355
 20
68.9098098756024
 30
0.0
  0
ENDBLK
  5
297
330
288
100
AcDbEntity
  8
0
100
AcDbBlockEnd
  0
BLOCK
  5
2A9
330
2A8
100
AcDbEntity
  8
0
100
AcDbBlockBegin
  2
*D8
 70
     1
 10
0.0
 20
0.0
 30
0.0
  3
*D8
  1

  0
LINE
  5
2AA
330
2A8
100
AcDbEntity
  8
ANNOTATION_TEXT
 62
     7
100
AcDbLine
 10
124.5710579311355
 20
133.2877146156129
 30
0.0
 11
124.5710579311355
 21
148.7656183970581
 31
0.0
1001
INDEX
1070
     0
  0
LINE
  5
2AC
330
2A8
100
AcDbEntity
  8
ANNOTATION_TEXT
 62
     7
100
AcDbLine
 10
152.6960579311355
 20
133.2877146156129
 30
0.0
 11
152.6960579311355
 21
148.7656183970581
 31
0.0
1001
INDEX
1070
     1
  0
LINE
  5
2AD
330
2A8
100
AcDbEntity
  8
ANNOTATION_TEXT
 62
     7
100
AcDbLine
 10
127.0710579311355
 20
147.5156183970581
 30
0.0
 11
150.1960579311355
 21
147.5156183970581
 31
0.0
1001
INDEX
1070
     3
  0
SOLID
  5
2AE
330
2A8
100
AcDbEntity
  8
ANNOTATION_TEXT
 62
     7
100
AcDbTrace
 10
127.0710579311355
 20
147.9322850637248
 30
0.0
 11
127.0710579311355
 21
147.0989517303915
 31
0.0
 12
124.5710579311355
 22
147.5156183970581
 32
0.0
 13
124.5710579311355
 23
147.5156183970581
 33
0.0
  0
SOLID
  5
2AF
330
2A8
100
AcDbEntity
  8
ANNOTATION_TEXT
 62
     7
100
AcDbTrace
 10
150.1960579311355
 20
147.0989517303915
 30
0.0
 11
150.1960579311355
 21
147.9322850637248
 31
0.0
 12
152.6960579311355
 22
147.5156183970581
 32
0.0
 13
152.6960579311355
 23
147.5156183970581
 33
0.0
  0
MTEXT
  5
2B0
330
2A8
100
AcDbEntity
  8
ANNOTATION_TEXT
 62
     7
100
AcDbMText
 10
138.6335579311355
 20
150.2232137649056
 30
0.0
 40
3.5
 41
0.0
 71
     5
 72
     1
  1
112,5
  7
ONSHAPE-STANDARD-DIMENSION
  0
POINT
  5
2B1
330
2A8
100
AcDbEntity
  8
DEFPOINTS
 62
     0
100
AcDbPoint
 10
124.5710579311355
 20
132.6627146156129
 30
0.0
  0
POINT
  5
2B2
330
2A8
100
AcDbEntity
  8
DEFPOINTS
 62
     0
100
AcDbPoint
 10
152.6960579311355
 20
132.6627146156129
 30
0.0
  0
POINT
  5
2B3
330
2A8
100
AcDbEntity
  8
DEFPOINTS
 62
     0
100
AcDbPoint
 10
152.6960579311355
 20
147.5156183970581
 30
0.0
  0
POINT
  5
2B4
330
2A8
100
AcDbEntity
  8
DEFPOINTS
 62
     0
100
AcDbPoint
 10
152.6960579311355
 20
147.5156183970581
 30
0.0
  0
ENDBLK
  5
2B5
330
2A8
100
AcDbEntity
  8
0
100
AcDbBlockEnd
  0
BLOCK
  5
2BF
330
2BE
100
AcDbEntity
  8
0
100
AcDbBlockBegin
  2
*D9
 70
     1
 10
0.0
 20
0.0
 30
0.0
  3
*D9
  1

  0
LINE
  5
2C0
330
2BE
100
AcDbEntity
  8
ANNOTATION_TEXT
 62
     7
100
AcDbLine
 10
153.3210579311355
 20
132.6627146156129
 30
0.0
 11
164.772207245973
 21
132.6627146156129
 31
0.0
1001
INDEX
1070
     0
  0
LINE
  5
2C1
330
2BE
100
AcDbEntity
  8
ANNOTATION_TEXT
 62
     7
100
AcDbLine
 10
186.4460579311355
 20
128.9127146156129
 30
0.0
 11
162.272207245973
 21
128.9127146156129
 31
0.0
1001
INDEX
1070
     1
  0
LINE
  5
2C2
330
2BE
100
AcDbEntity
  8
ANNOTATION_TEXT
 62
     7
100
AcDbLine
 10
163.522207245973
 20
128.9127146156129
 30
0.0
 11
163.522207245973
 21
115.6317200652042
 31
0.0
  0
LINE
  5
2C3
330
2BE
100
AcDbEntity
  8
ANNOTATION_TEXT
 62
     7
100
AcDbLine
 10
163.522207245973
 20
132.6627146156129
 30
0.0
 11
163.522207245973
 21
128.9127146156129
 31
0.0
1001
INDEX
1070
     3
  0
LINE
  5
2C4
330
2BE
100
AcDbEntity
  8
ANNOTATION_TEXT
 62
     7
100
AcDbLine
 10
163.522207245973
 20
135.1627146156129
 30
0.0
 11
163.522207245973
 21
137.6627146156129
 31
0.0
1001
INDEX
1070
     3
  0
LINE
  5
2C5
330
2BE
100
AcDbEntity
  8
ANNOTATION_TEXT
 62
     7
100
AcDbLine
 10
163.522207245973
 20
126.4127146156129
 30
0.0
 11
163.522207245973
 21
123.9127146156129
 31
0.0
1001
INDEX
1070
     3
  0
SOLID
  5
2C6
330
2BE
100
AcDbEntity
  8
ANNOTATION_TEXT
 62
     7
100
AcDbTrace
 10
163.1055405793064
 20
135.1627146156129
 30
0.0
 11
163.9388739126397
 21
135.1627146156129
 31
0.0
 12
163.522207245973
 22
132.6627146156129
 32
0.0
 13
163.522207245973
 23
132.6627146156129
 33
0.0
  0
SOLID
  5
2C7
330
2BE
100
AcDbEntity
  8
ANNOTATION_TEXT
 62
     7
100
AcDbTrace
 10
163.9388739126397
 20
126.4127146156129
 30
0.0
 11
163.1055405793064
 21
126.4127146156129
 31
0.0
 12
163.522207245973
 22
128.9127146156129
 32
0.0
 13
163.522207245973
 23
128.9127146156129
 33
0.0
  0
MTEXT
  5
2C8
330
2BE
100
AcDbEntity
  8
ANNOTATION_TEXT
 62
     7
100
AcDbMText
 10
161.1233652841202
 20
118.6933685665666
 30
0.0
 40
3.5
 41
0.0
 71
     5
 72
     1
  1
15
  7
ONSHAPE-STANDARD-DIMENSION
 11
0.0
 21
1.0
 31
0.0
  0
POINT
  5
2C9
330
2BE
100
AcDbEntity
  8
DEFPOINTS
 62
     0
100
AcDbPoint
 10
152.6960579311355
 20
132.6627146156129
 30
0.0
  0
POINT
  5
2CA
330
2BE
100
AcDbEntity
  8
DEFPOINTS
 62
     0
100
AcDbPoint
 10
187.0710579311355
 20
128.9127146156129
 30
0.0
  0
POINT
  5
2CB
330
2BE
100
AcDbEntity
  8
DEFPOINTS
 62
     0
100
AcDbPoint
 10
163.522207245973
 20
128.9127146156129
 30
0.0
  0
POINT
  5
2CC
330
2BE
100
AcDbEntity
  8
DEFPOINTS
 62
     0
100
AcDbPoint
 10
163.522207245973
 20
128.9127146156129
 30
0.0
  0
ENDBLK
  5
2CD
330
2BE
100
AcDbEntity
  8
0
100
AcDbBlockEnd
  0
BLOCK
  5
2D4
330
2D3
100
AcDbEntity
  8
0
100
AcDbBlockBegin
  2
*D10
 70
     1
 10
0.0
 20
0.0
 30
0.0
  3
*D10
  1

  0
LINE
  5
2D5
330
2D3
100
AcDbEntity
  8
ANNOTATION_TEXT
 62
     7
100
AcDbLine
 10
123.9460579311355
 20
132.6627146156129
 30
0.0
 11
112.16327232682
 21
132.6627146156129
 31
0.0
1001
INDEX
1070
     0
  0
LINE
  5
2D6
330
2D3
100
AcDbEntity
  8
ANNOTATION_TEXT
 62
     7
100
AcDbLine
 10
123.9460579311355
 20
32.66271461561288
 30
0.0
 11
112.16327232682
 21
32.66271461561288
 31
0.0
1001
INDEX
1070
     1
  0
LINE
  5
2D7
330
2D3
100
AcDbEntity
  8
ANNOTATION_TEXT
 62
     7
100
AcDbLine
 10
113.41327232682
 20
130.1627146156129
 30
0.0
 11
113.41327232682
 21
35.16271461561288
 31
0.0
1001
INDEX
1070
     3
  0
SOLID
  5
2D8
330
2D3
100
AcDbEntity
  8
ANNOTATION_TEXT
 62
     7
100
AcDbTrace
 10
113.8299389934867
 20
130.1627146156129
 30
0.0
 11
112.9966056601534
 21
130.1627146156129
 31
0.0
 12
113.41327232682
 22
132.6627146156129
 32
0.0
 13
113.41327232682
 23
132.6627146156129
 33
0.0
  0
SOLID
  5
2D9
330
2D3
100
AcDbEntity
  8
ANNOTATION_TEXT
 62
     7
100
AcDbTrace
 10
112.9966056601534
 20
35.16271461561288
 30
0.0
 11
113.8299389934867
 21
35.16271461561288
 31
0.0
 12
113.41327232682
 22
32.66271461561288
 32
0.0
 13
113.41327232682
 23
32.66271461561288
 33
0.0
  0
MTEXT
  5
2DA
330
2D3
100
AcDbEntity
  8
ANNOTATION_TEXT
 62
     7
100
AcDbMText
 10
110.9941646973923
 20
79.79209421220226
 30
0.0
 40
3.5
 41
0.0
 71
     5
 72
     1
  1
400
  7
ONSHAPE-STANDARD-DIMENSION
 11
0.0
 21
1.0
 31
0.0
  0
POINT
  5
2DB
330
2D3
100
AcDbEntity
  8
DEFPOINTS
 62
     0
100
AcDbPoint
 10
124.5710579311355
 20
132.6627146156129
 30
0.0
  0
POINT
  5
2DC
330
2D3
100
AcDbEntity
  8
DEFPOINTS
 62
     0
100
AcDbPoint
 10
124.5710579311355
 20
32.66271461561288
 30
0.0
  0
POINT
  5
2DD
330
2D3
100
AcDbEntity
  8
DEFPOINTS
 62
     0
100
AcDbPoint
 10
113.41327232682
 20
32.66271461561288
 30
0.0
  0
POINT
  5
2DE
330
2D3
100
AcDbEntity
  8
DEFPOINTS
 62
     0
100
AcDbPoint
 10
113.41327232682
 20
32.66271461561288
 30
0.0
  0
ENDBLK
  5
2DF
330
2D3
100
AcDbEntity
  8
0
100
AcDbBlockEnd
  0
BLOCK
  5
2E6
330
2E5
100
AcDbEntity
  8
0
100
AcDbBlockBegin
  2
*D11
 70
     1
 10
0.0
 20
0.0
 30
0.0
  3
*D11
  1

  0
LINE
  5
2E7
330
2E5
100
AcDbEntity
  8
ANNOTATION_TEXT
 62
     7
100
AcDbLine
 10
153.3210579311355
 20
32.6627146156129
 30
0.0
 11
191.9746852615338
 21
32.6627146156129
 31
0.0
1001
INDEX
1070
     0
  0
LINE
  5
2E8
330
2E5
100
AcDbEntity
  8
ANNOTATION_TEXT
 62
     7
100
AcDbLine
 10
175.4460579311354
 20
62.53771461561288
 30
0.0
 11
191.9746852615338
 21
62.53771461561288
 31
0.0
1001
INDEX
1070
     1
  0
LINE
  5
2E9
330
2E5
100
AcDbEntity
  8
ANNOTATION_TEXT
 62
     7
100
AcDbLine
 10
190.7246852615338
 20
35.1627146156129
 30
0.0
 11
190.7246852615338
 21
60.03771461561288
 31
0.0
1001
INDEX
1070
     3
  0
SOLID
  5
2EA
330
2E5
100
AcDbEntity
  8
ANNOTATION_TEXT
 62
     7
100
AcDbTrace
 10
190.3080185948672
 20
35.1627146156129
 30
0.0
 11
191.1413519282005
 21
35.1627146156129
 31
0.0
 12
190.7246852615338
 22
32.6627146156129
 32
0.0
 13
190.7246852615338
 23
32.6627146156129
 33
0.0
  0
SOLID
  5
2EB
330
2E5
100
AcDbEntity
  8
ANNOTATION_TEXT
 62
     7
100
AcDbTrace
 10
191.1413519282005
 20
60.03771461561288
 30
0.0
 11
190.3080185948672
 21
60.03771461561288
 31
0.0
 12
190.7246852615338
 22
62.53771461561288
 32
0.0
 13
190.7246852615338
 23
62.53771461561288
 33
0.0
  0
MTEXT
  5
2EC
330
2E5
100
AcDbEntity
  8
ANNOTATION_TEXT
 62
     7
100
AcDbMText
 10
188.0170898936864
 20
52.39110470776443
 30
0.0
 40
3.5
 41
0.0
 71
     5
 72
     1
  1
119,5
  7
ONSHAPE-STANDARD-DIMENSION
 11
0.0
 21
1.0
 31
0.0
  0
POINT
  5
2ED
330
2E5
100
AcDbEntity
  8
DEFPOINTS
 62
     0
100
AcDbPoint
 10
152.6960579311355
 20
32.6627146156129
 30
0.0
  0
POINT
  5
2EE
330
2E5
100
AcDbEntity
  8
DEFPOINTS
 62
     0
100
AcDbPoint
 10
174.8210579311354
 20
62.53771461561288
 30
0.0
  0
POINT
  5
2EF
330
2E5
100
AcDbEntity
  8
DEFPOINTS
 62
     0
100
AcDbPoint
 10
190.7246852615338
 20
62.53771461561288
 30
0.0
  0
POINT
  5
2F0
330
2E5
100
AcDbEntity
  8
DEFPOINTS
 62
     0
100
AcDbPoint
 10
190.7246852615338
 20
62.53771461561288
 30
0.0
  0
ENDBLK
  5
2F1
330
2E5
100
AcDbEntity
  8
0
100
AcDbBlockEnd
  0
BLOCK
  5
2F8
330
2F7
100
AcDbEntity
  8
0
100
AcDbBlockBegin
  2
*D12
 70
     1
 10
0.0
 20
0.0
 30
0.0
  3
*D12
  1

  0
LINE
  5
2F9
330
2F7
100
AcDbEntity
  8
ANNOTATION_TEXT
 62
     7
100
AcDbLine
 10
153.3210579311355
 20
132.6627146156129
 30
0.0
 11
191.9746852615338
 21
132.6627146156129
 31
0.0
1001
INDEX
1070
     0
  0
LINE
  5
2FA
330
2F7
100
AcDbEntity
  8
ANNOTATION_TEXT
 62
     7
100
AcDbLine
 10
175.4460579311354
 20
62.78771461561288
 30
0.0
 11
191.9746852615338
 21
62.78771461561288
 31
0.0
1001
INDEX
1070
     1
  0
LINE
  5
2FB
330
2F7
100
AcDbEntity
  8
ANNOTATION_TEXT
 62
     7
100
AcDbLine
 10
190.7246852615338
 20
130.1627146156129
 30
0.0
 11
190.7246852615338
 21
65.28771461561288
 31
0.0
1001
INDEX
1070
     3
  0
SOLID
  5
2FC
330
2F7
100
AcDbEntity
  8
ANNOTATION_TEXT
 62
     7
100
AcDbTrace
 10
191.1413519282005
 20
130.1627146156129
 30
0.0
 11
190.3080185948671
 21
130.1627146156129
 31
0.0
 12
190.7246852615338
 22
132.6627146156129
 32
0.0
 13
190.7246852615338
 23
132.6627146156129
 33
0.0
  0
SOLID
  5
2FD
330
2F7
100
AcDbEntity
  8
ANNOTATION_TEXT
 62
     7
100
AcDbTrace
 10
190.3080185948671
 20
65.28771461561288
 30
0.0
 11
191.1413519282005
 21
65.28771461561288
 31
0.0
 12
190.7246852615338
 22
62.78771461561288
 32
0.0
 13
190.7246852615338
 23
62.78771461561288
 33
0.0
  0
MTEXT
  5
2FE
330
2F7
100
AcDbEntity
  8
ANNOTATION_TEXT
 62
     7
100
AcDbMText
 10
188.0170898936864
 20
94.63488911528287
 30
0.0
 40
3.5
 41
0.0
 71
     5
 72
     1
  1
279,5
  7
ONSHAPE-STANDARD-DIMENSION
 11
0.0
 21
1.0
 31
0.0
  0
POINT
  5
2FF
330
2F7
100
AcDbEntity
  8
DEFPOINTS
 62
     0
100
AcDbPoint
 10
152.6960579311355
 20
132.6627146156129
 30
0.0
  0
POINT
  5
300
330
2F7
100
AcDbEntity
  8
DEFPOINTS
 62
     0
100
AcDbPoint
 10
174.8210579311354
 20
62.78771461561288
 30
0.0
  0
POINT
  5
301
330
2F7
100
AcDbEntity
  8
DEFPOINTS
 62
     0
100
AcDbPoint
 10
190.7246852615338
 20
62.78771461561288
 30
0.0
  0
POINT
  5
302
330
2F7
100
AcDbEntity
  8
DEFPOINTS
 62
     0
100
AcDbPoint
 10
190.7246852615338
 20
62.78771461561288
 30
0.0
  0
ENDBLK
  5
303
330
2F7
100
AcDbEntity
  8
0
100
AcDbBlockEnd
  0
ENDSEC
  0
SECTION
  2
ENTITIES
  0
LINE
  5
76
330
1F
100
AcDbEntity
  8
VISIBLE
100
AcDbLine
 10
122.3509073822502
 20
264.470587485119
 30
0.0
 11
122.3509073822502
 21
201.970587485119
 31
0.0
  0
LINE
  5
77
330
1F
100
AcDbEntity
  8
VISIBLE
100
AcDbLine
 10
222.3509073822502
 20
201.970587485119
 30
0.0
 11
122.3509073822502
 21
201.970587485119
 31
0.0
  0
LINE
  5
78
330
1F
100
AcDbEntity
  8
VISIBLE
100
AcDbLine
 10
222.3509073822502
 20
264.470587485119
 30
0.0
 11
122.3509073822502
 21
264.470587485119
 31
0.0
  0
LINE
  5
79
330
1F
100
AcDbEntity
  8
VISIBLE
100
AcDbLine
 10
222.3509073822502
 20
264.470587485119
 30
0.0
 11
222.3509073822502
 21
201.970587485119
 31
0.0
  0
LINE
  5
7A
330
1F
100
AcDbEntity
  8
VISIBLE
100
AcDbLine
 10
122.3509073822502
 20
236.570587485119
 30
0.0
 11
113.6009073822502
 21
236.570587485119
 31
0.0
  0
LINE
  5
7B
330
1F
100
AcDbEntity
  8
VISIBLE
100
AcDbLine
 10
113.6009073822502
 20
229.870587485119
 30
0.0
 11
122.3509073822502
 21
229.870587485119
 31
0.0
  0
LINE
  5
7C
330
1F
100
AcDbEntity
  8
VISIBLE
100
AcDbLine
 10
113.6009073822502
 20
229.870587485119
 30
0.0
 11
113.6009073822502
 21
236.570587485119
 31
0.0
  0
LINE
  5
7D
330
1F
100
AcDbEntity
  8
VISIBLE
100
AcDbLine
 10
231.1009073822502
 20
236.570587485119
 30
0.0
 11
222.3509073822502
 21
236.570587485119
 31
0.0
  0
LINE
  5
7E
330
1F
100
AcDbEntity
  8
VISIBLE
100
AcDbLine
 10
222.3509073822502
 20
229.870587485119
 30
0.0
 11
231.1009073822502
 21
229.870587485119
 31
0.0
  0
LINE
  5
7F
330
1F
100
AcDbEntity
  8
VISIBLE
100
AcDbLine
 10
231.1009073822502
 20
229.870587485119
 30
0.0
 11
231.1009073822502
 21
236.570587485119
 31
0.0
  0
CIRCLE
  5
82
330
1F
100
AcDbEntity
  8
VISIBLE
100
AcDbCircle
 10
26.40252736548536
 20
130.7877146156129
 30
0.0
 40
1.125000000000001
  0
CIRCLE
  5
83
330
1F
100
AcDbEntity
  8
VISIBLE
100
AcDbCircle
 10
26.40252736548539
 20
34.5377146156129
 30
0.0
 40
1.125000000000001
  0
CIRCLE
  5
84
330
1F
100
AcDbEntity
  8
VISIBLE
100
AcDbCircle
 10
97.65252736548538
 20
34.5377146156129
 30
0.0
 40
1.125000000000001
  0
CIRCLE
  5
85
330
1F
100
AcDbEntity
  8
VISIBLE
100
AcDbCircle
 10
97.65252736548535
 20
130.7877146156129
 30
0.0
 40
1.125000000000001
  0
LINE
  5
86
330
1F
100
AcDbEntity
  8
VISIBLE
100
AcDbLine
 10
99.52752736548534
 20
132.6627146156129
 30
0.0
 11
99.52752736548538
 21
32.6627146156129
 31
0.0
  0
LINE
  5
87
330
1F
100
AcDbEntity
  8
VISIBLE
100
AcDbLine
 10
99.27752736548535
 20
128.9127146156129
 30
0.0
 11
99.27752736548538
 21
36.41271461561287
 31
0.0
  0
LINE
  5
88
330
1F
100
AcDbEntity
  8
VISIBLE
100
AcDbLine
 10
24.52752736548536
 20
132.6627146156129
 30
0.0
 11
24.52752736548539
 21
32.66271461561288
 31
0.0
  0
LINE
  5
89
330
1F
100
AcDbEntity
  8
VISIBLE
100
AcDbLine
 10
99.52752736548534
 20
132.6627146156129
 30
0.0
 11
24.52752736548536
 21
132.6627146156129
 31
0.0
  0
LINE
  5
8A
330
1F
100
AcDbEntity
  8
VISIBLE
100
AcDbLine
 10
24.77752736548536
 20
128.9127146156129
 30
0.0
 11
99.27752736548535
 21
128.9127146156129
 31
0.0
  0
LINE
  5
8B
330
1F
100
AcDbEntity
  8
VISIBLE
100
AcDbLine
 10
24.77752736548539
 20
36.41271461561287
 30
0.0
 11
99.27752736548538
 21
36.41271461561287
 31
0.0
  0
LINE
  5
8C
330
1F
100
AcDbEntity
  8
VISIBLE
100
AcDbLine
 10
24.77752736548536
 20
128.9127146156129
 30
0.0
 11
24.77752736548539
 21
36.41271461561287
 31
0.0
  0
LINE
  5
8D
330
1F
100
AcDbEntity
  8
VISIBLE
100
AcDbLine
 10
99.52752736548538
 20
32.6627146156129
 30
0.0
 11
24.52752736548539
 21
32.66271461561288
 31
0.0
  0
LINE
  5
8E
330
1F
100
AcDbEntity
  8
VISIBLE
100
AcDbLine
 10
65.3775273654854
 20
23.91271461561289
 30
0.0
 11
58.6775273654854
 21
23.91271461561289
 31
0.0
  0
LINE
  5
8F
330
1F
100
AcDbEntity
  8
VISIBLE
100
AcDbLine
 10
58.6775273654854
 20
32.6627146156129
 30
0.0
 11
58.6775273654854
 21
23.91271461561289
 31
0.0
  0
LINE
  5
90
330
1F
100
AcDbEntity
  8
VISIBLE
100
AcDbLine
 10
65.3775273654854
 20
23.91271461561289
 30
0.0
 11
65.3775273654854
 21
32.6627146156129
 31
0.0
  0
LINE
  5
91
330
1F
100
AcDbEntity
  8
VISIBLE
100
AcDbLine
 10
65.37752736548535
 20
141.4127146156129
 30
0.0
 11
58.67752736548535
 21
141.4127146156129
 31
0.0
  0
LINE
  5
92
330
1F
100
AcDbEntity
  8
VISIBLE
100
AcDbLine
 10
58.67752736548535
 20
141.4127146156129
 30
0.0
 11
58.67752736548535
 21
132.6627146156129
 31
0.0
  0
LINE
  5
93
330
1F
100
AcDbEntity
  8
VISIBLE
100
AcDbLine
 10
65.37752736548535
 20
132.6627146156129
 30
0.0
 11
65.37752736548535
 21
141.4127146156129
 31
0.0
  0
LINE
  5
94
330
1F
100
AcDbEntity
  8
VISIBLE
100
AcDbLine
 10
99.15252736548537
 20
62.53771461561288
 30
0.0
 11
99.15252736548537
 21
62.78771461561288
 31
0.0
  0
LINE
  5
95
330
1F
100
AcDbEntity
  8
VISIBLE
100
AcDbLine
 10
99.15252736548537
 20
62.78771461561288
 30
0.0
 11
24.90252736548536
 21
62.78771461561288
 31
0.0
  0
LINE
  5
96
330
1F
100
AcDbEntity
  8
VISIBLE
100
AcDbLine
 10
24.90252736548536
 20
62.53771461561288
 30
0.0
 11
24.90252736548536
 21
62.78771461561288
 31
0.0
  0
LINE
  5
97
330
1F
100
AcDbEntity
  8
VISIBLE
100
AcDbLine
 10
99.15252736548537
 20
62.53771461561288
 30
0.0
 11
24.90252736548536
 21
62.53771461561288
 31
0.0
  0
HATCH
  5
9B
330
1F
100
AcDbEntity
  8
VIEW_HATCHES
100
AcDbHatch
 10
0.0
 20
0.0
 30
0.0
210
0.0
220
0.0
230
1.0
  2
ANSI31
 70
     0
 71
     0
 91
        1
 92
        0
 93
        6
 72
     1
 10
186.8210579311355
 20
132.4127146156129
 11
186.8210579311355
 21
128.9127146156129
 72
     1
 10
187.0710579311355
 20
128.9127146156129
 11
186.8210579311355
 21
128.9127146156129
 72
     1
 10
187.0710579311355
 20
132.6627146156129
 11
187.0710579311355
 21
128.9127146156129
 72
     1
 10
187.0710579311355
 20
132.6627146156129
 11
158.9460579311355
 21
132.6627146156129
 72
     1
 10
158.9460579311355
 20
132.4127146156129
 11
158.9460579311355
 21
132.6627146156129
 72
     1
 10
186.8210579311355
 20
132.4127146156129
 11
158.9460579311355
 21
132.4127146156129
 97
        0
 75
     0
 76
     2
 52
72.0
 41
26.39999999999999
 77
     0
 78
     1
 53
117.0
 43
130.0012366479142
 44
80.0922719930854
 45
-2.940321529821615
 46
-1.498168649140504
 79
     0
 98
        1
 10
130.0012366479142
 20
80.0922719930854
  0
HATCH
  5
9C
330
1F
100
AcDbEntity
  8
VIEW_HATCHES
100
AcDbHatch
 10
0.0
 20
0.0
 30
0.0
210
0.0
220
0.0
230
1.0
  2
ANSI31
 70
     0
 71
     0
 91
        1
 92
        0
 93
        6
 72
     1
 10
186.8210579311355
 20
36.41271461561287
 11
186.8210579311355
 21
32.9127146156129
 72
     1
 10
186.8210579311355
 20
32.9127146156129
 11
158.9460579311355
 21
32.9127146156129
 72
     1
 10
158.9460579311355
 20
32.6627146156129
 11
158.9460579311355
 21
32.9127146156129
 72
     1
 10
187.0710579311355
 20
32.6627146156129
 11
158.9460579311355
 21
32.6627146156129
 72
     1
 10
187.0710579311355
 20
36.41271461561287
 11
187.0710579311355
 21
32.66271461561289
 72
     1
 10
187.0710579311355
 20
36.41271461561287
 11
186.8210579311355
 21
36.41271461561287
 97
        0
 75
     0
 76
     2
 52
72.0
 41
26.39999999999999
 77
     0
 78
     1
 53
117.0
 43
130.0012366479142
 44
80.0922719930854
 45
-2.940321529821615
 46
-1.498168649140504
 79
     0
 98
        1
 10
130.0012366479142
 20
80.0922719930854
  0
HATCH
  5
9D
330
1F
100
AcDbEntity
  8
VIEW_HATCHES
100
AcDbHatch
 10
0.0
 20
0.0
 30
0.0
210
0.0
220
0.0
230
1.0
  2
ANSI31
 70
     0
 71
     0
 91
        1
 92
        0
 93
        8
 72
     1
 10
152.6960579311355
 20
32.9127146156129
 11
124.8210579311355
 21
32.9127146156129
 72
     1
 10
124.8210579311355
 20
132.4127146156129
 11
124.8210579311355
 21
32.91271461561291
 72
     1
 10
152.6960579311355
 20
132.4127146156129
 11
124.8210579311355
 21
132.4127146156129
 72
     1
 10
152.6960579311355
 20
132.6627146156129
 11
152.6960579311355
 21
132.4127146156129
 72
     1
 10
152.6960579311355
 20
132.6627146156129
 11
124.5710579311355
 21
132.6627146156129
 72
     1
 10
124.5710579311355
 20
132.6627146156129
 11
124.5710579311355
 21
32.6627146156129
 72
     1
 10
152.6960579311355
 20
32.6627146156129
 11
124.5710579311355
 21
32.66271461561288
 72
     1
 10
152.6960579311355
 20
32.9127146156129
 11
152.6960579311355
 21
32.6627146156129
 97
        0
 75
     0
 76
     2
 52
72.0
 41
26.39999999999999
 77
     0
 78
     1
 53
117.0
 43
130.0012366479142
 44
80.0922719930854
 45
-2.940321529821615
 46
-1.498168649140504
 79
     0
 98
        1
 10
130.0012366479142
 20
80.0922719930854
  0
HATCH
  5
9E
330
1F
100
AcDbEntity
  8
VIEW_HATCHES
100
AcDbHatch
 10
0.0
 20
0.0
 30
0.0
210
0.0
220
0.0
230
1.0
  2
ANSI31
 70
     0
 71
     0
 91
        1
 92
        0
 93
        4
 72
     1
 10
174.8210579311354
 20
62.53771461561288
 11
174.8210579311354
 21
62.78771461561288
 72
     1
 10
174.8210579311354
 20
62.78771461561288
 11
124.8210579311354
 21
62.78771461561288
 72
     1
 10
124.8210579311355
 20
62.53771461561288
 11
124.8210579311355
 21
62.78771461561288
 72
     1
 10
174.8210579311354
 20
62.53771461561288
 11
124.8210579311354
 21
62.53771461561288
 97
        0
 75
     0
 76
     2
 52
150.0
 41
26.4
 77
     0
 78
     1
 53
194.9999999999999
 43
130.0012366479142
 44
80.0922719930854
 45
0.8541028488383188
 46
-3.187555226753926
 79
     0
 98
        1
 10
130.0012366479142
 20
80.0922719930854
  0
HATCH
  5
9F
330
1F
100
AcDbEntity
  8
VIEW_HATCHES
100
AcDbHatch
 10
0.0
 20
0.0
 30
0.0
210
0.0
220
0.0
230
1.0
  2
ANSI31
 70
     0
 71
     0
 91
        1
 92
        0
 93
        4
 72
     1
 10
152.4710579311355
 20
32.6627146156129
 11
152.4710579311355
 21
23.9127146156129
 72
     1
 10
152.6960579311355
 20
23.91271461561289
 11
152.4710579311355
 21
23.91271461561289
 72
     1
 10
152.6960579311355
 20
32.6627146156129
 11
152.6960579311355
 21
23.9127146156129
 72
     1
 10
152.6960579311355
 20
32.6627146156129
 11
152.4710579311355
 21
32.6627146156129
 97
        0
 75
     0
 76
     2
 52
30.0
 41
29.04000000000001
 77
     0
 78
     1
 53
75.0
 43
130.0012366479142
 44
80.0922719930854
 45
-3.506310749429318
 46
0.9395131337221513
 79
     0
 98
        1
 10
130.0012366479142
 20
80.0922719930854
  0
HATCH
  5
A0
330
1F
100
AcDbEntity
  8
VIEW_HATCHES
100
AcDbHatch
 10
0.0
 20
0.0
 30
0.0
210
0.0
220
0.0
230
1.0
  2
ANSI31
 70
     0
 71
     0
 91
        1
 92
        0
 93
        4
 72
     1
 10
159.1710579311355
 20
23.91271461561289
 11
159.1710579311355
 21
32.66271461561289
 72
     1
 10
159.1710579311355
 20
32.6627146156129
 11
158.9460579311355
 21
32.6627146156129
 72
     1
 10
158.9460579311355
 20
23.91271461561289
 11
158.9460579311355
 21
32.66271461561289
 72
     1
 10
159.1710579311355
 20
23.91271461561289
 11
158.9460579311355
 21
23.91271461561289
 97
        0
 75
     0
 76
     2
 52
30.0
 41
29.04000000000001
 77
     0
 78
     1
 53
75.0
 43
130.0012366479142
 44
80.0922719930854
 45
-3.506310749429318
 46
0.9395131337221513
 79
     0
 98
        1
 10
130.0012366479142
 20
80.0922719930854
  0
HATCH
  5
A1
330
1F
100
AcDbEntity
  8
VIEW_HATCHES
100
AcDbHatch
 10
0.0
 20
0.0
 30
0.0
210
0.0
220
0.0
230
1.0
  2
ANSI31
 70
     0
 71
     0
 91
        1
 92
        0
 93
        4
 72
     1
 10
152.4710579311355
 20
141.4127146156129
 11
152.4710579311355
 21
132.6627146156129
 72
     1
 10
152.6960579311355
 20
132.6627146156129
 11
152.4710579311355
 21
132.6627146156129
 72
     1
 10
152.6960579311355
 20
141.4127146156129
 11
152.6960579311355
 21
132.6627146156129
 72
     1
 10
152.6960579311355
 20
141.4127146156129
 11
152.4710579311355
 21
141.4127146156129
 97
        0
 75
     0
 76
     2
 52
174.0
 41
24.0
 77
     0
 78
     1
 53
218.9999999999999
 43
130.0012366479142
 44
80.0922719930854
 45
1.887961173149511
 46
-2.331437884370913
 79
     0
 98
        1
 10
130.0012366479142
 20
80.0922719930854
  0
HATCH
  5
A2
330
1F
100
AcDbEntity
  8
VIEW_HATCHES
100
AcDbHatch
 10
0.0
 20
0.0
 30
0.0
210
0.0
220
0.0
230
1.0
  2
ANSI31
 70
     0
 71
     0
 91
        1
 92
        0
 93
        4
 72
     1
 10
159.1710579311355
 20
132.6627146156129
 11
159.1710579311355
 21
141.4127146156129
 72
     1
 10
159.1710579311355
 20
141.4127146156129
 11
158.9460579311355
 21
141.4127146156129
 72
     1
 10
158.9460579311355
 20
132.6627146156129
 11
158.9460579311355
 21
141.4127146156129
 72
     1
 10
159.1710579311355
 20
132.6627146156129
 11
158.9460579311355
 21
132.6627146156129
 97
        0
 75
     0
 76
     2
 52
174.0
 41
24.0
 77
     0
 78
     1
 53
218.9999999999999
 43
130.0012366479142
 44
80.0922719930854
 45
1.887961173149511
 46
-2.331437884370913
 79
     0
 98
        1
 10
130.0012366479142
 20
80.0922719930854
  0
LINE
  5
A3
330
1F
100
AcDbEntity
  8
VISIBLE
100
AcDbLine
 10
182.0710579311355
 20
32.9127146156129
 30
0.0
 11
182.0710579311355
 21
36.41271461561287
 31
0.0
  0
LINE
  5
A4
330
1F
100
AcDbEntity
  8
VISIBLE
100
AcDbLine
 10
182.0710579311355
 20
132.4127146156129
 30
0.0
 11
182.0710579311355
 21
128.9127146156129
 31
0.0
  0
LINE
  5
A5
330
1F
100
AcDbEntity
  8
VISIBLE
100
AcDbLine
 10
186.8210579311355
 20
36.41271461561287
 30
0.0
 11
186.8210579311355
 21
32.9127146156129
 31
0.0
  0
LINE
  5
A6
330
1F
100
AcDbEntity
  8
VISIBLE
100
AcDbLine
 10
187.0710579311355
 20
128.9127146156129
 30
0.0
 11
187.0710579311355
 21
36.41271461561287
 31
0.0
  0
LINE
  5
A7
330
1F
100
AcDbEntity
  8
VISIBLE
100
AcDbLine
 10
187.0710579311355
 20
128.9127146156129
 30
0.0
 11
186.8210579311355
 21
128.9127146156129
 31
0.0
  0
LINE
  5
A8
330
1F
100
AcDbEntity
  8
VISIBLE
100
AcDbLine
 10
182.0710579311355
 20
36.41271461561287
 30
0.0
 11
186.8210579311355
 21
36.41271461561287
 31
0.0
  0
LINE
  5
A9
330
1F
100
AcDbEntity
  8
VISIBLE
100
AcDbLine
 10
186.8210579311355
 20
32.9127146156129
 30
0.0
 11
158.9460579311355
 21
32.9127146156129
 31
0.0
  0
LINE
  5
AA
330
1F
100
AcDbEntity
  8
VISIBLE
100
AcDbLine
 10
158.9460579311355
 20
132.4127146156129
 30
0.0
 11
158.9460579311355
 21
132.6627146156129
 31
0.0
  0
LINE
  5
AB
330
1F
100
AcDbEntity
  8
VISIBLE
100
AcDbLine
 10
187.0710579311355
 20
132.6627146156129
 30
0.0
 11
158.9460579311355
 21
132.6627146156129
 31
0.0
  0
LINE
  5
AC
330
1F
100
AcDbEntity
  8
VISIBLE
100
AcDbLine
 10
187.0710579311355
 20
36.41271461561287
 30
0.0
 11
186.8210579311355
 21
36.41271461561287
 31
0.0
  0
LINE
  5
AD
330
1F
100
AcDbEntity
  8
VISIBLE
100
AcDbLine
 10
186.8210579311355
 20
132.4127146156129
 30
0.0
 11
186.8210579311355
 21
128.9127146156129
 31
0.0
  0
LINE
  5
AE
330
1F
100
AcDbEntity
  8
VISIBLE
100
AcDbLine
 10
158.9460579311355
 20
32.6627146156129
 30
0.0
 11
158.9460579311355
 21
32.9127146156129
 31
0.0
  0
LINE
  5
AF
330
1F
100
AcDbEntity
  8
VISIBLE
100
AcDbLine
 10
186.8210579311355
 20
132.4127146156129
 30
0.0
 11
158.9460579311355
 21
132.4127146156129
 31
0.0
  0
LINE
  5
B0
330
1F
100
AcDbEntity
  8
VISIBLE
100
AcDbLine
 10
182.0710579311355
 20
128.9127146156129
 30
0.0
 11
186.8210579311355
 21
128.9127146156129
 31
0.0
  0
LINE
  5
B1
330
1F
100
AcDbEntity
  8
VISIBLE
100
AcDbLine
 10
152.6960579311355
 20
32.9127146156129
 30
0.0
 11
152.6960579311355
 21
32.6627146156129
 31
0.0
  0
LINE
  5
B2
330
1F
100
AcDbEntity
  8
VISIBLE
100
AcDbLine
 10
187.0710579311355
 20
36.41271461561287
 30
0.0
 11
187.0710579311355
 21
32.6627146156129
 31
0.0
  0
LINE
  5
B3
330
1F
100
AcDbEntity
  8
VISIBLE
100
AcDbLine
 10
152.6960579311355
 20
132.6627146156129
 30
0.0
 11
152.6960579311355
 21
132.4127146156129
 31
0.0
  0
LINE
  5
B4
330
1F
100
AcDbEntity
  8
VISIBLE
100
AcDbLine
 10
187.0710579311355
 20
32.6627146156129
 30
0.0
 11
158.9460579311355
 21
32.6627146156129
 31
0.0
  0
LINE
  5
B5
330
1F
100
AcDbEntity
  8
VISIBLE
100
AcDbLine
 10
158.9460579311355
 20
132.6627146156129
 30
0.0
 11
152.6960579311355
 21
132.6627146156129
 31
0.0
  0
LINE
  5
B6
330
1F
100
AcDbEntity
  8
VISIBLE
100
AcDbLine
 10
152.6960579311355
 20
132.6627146156129
 30
0.0
 11
124.5710579311355
 21
132.6627146156129
 31
0.0
  0
LINE
  5
B7
330
1F
100
AcDbEntity
  8
VISIBLE
100
AcDbLine
 10
152.6960579311355
 20
32.6627146156129
 30
0.0
 11
124.5710579311355
 21
32.66271461561288
 31
0.0
  0
LINE
  5
B8
330
1F
100
AcDbEntity
  8
VISIBLE
100
AcDbLine
 10
124.5710579311355
 20
132.6627146156129
 30
0.0
 11
124.5710579311355
 21
32.66271461561288
 31
0.0
  0
LINE
  5
B9
330
1F
100
AcDbEntity
  8
VISIBLE
100
AcDbLine
 10
158.9460579311355
 20
132.4127146156129
 30
0.0
 11
152.6960579311355
 21
132.4127146156129
 31
0.0
  0
LINE
  5
BA
330
1F
100
AcDbEntity
  8
VISIBLE
100
AcDbLine
 10
187.0710579311355
 20
132.6627146156129
 30
0.0
 11
187.0710579311355
 21
128.9127146156129
 31
0.0
  0
LINE
  5
BB
330
1F
100
AcDbEntity
  8
VISIBLE
100
AcDbLine
 10
152.6960579311355
 20
32.9127146156129
 30
0.0
 11
124.8210579311355
 21
32.9127146156129
 31
0.0
  0
LINE
  5
BC
330
1F
100
AcDbEntity
  8
VISIBLE
100
AcDbLine
 10
124.8210579311355
 20
132.4127146156129
 30
0.0
 11
124.8210579311355
 21
32.9127146156129
 31
0.0
  0
LINE
  5
BD
330
1F
100
AcDbEntity
  8
VISIBLE
100
AcDbLine
 10
158.9460579311355
 20
32.6627146156129
 30
0.0
 11
152.6960579311355
 21
32.6627146156129
 31
0.0
  0
LINE
  5
BE
330
1F
100
AcDbEntity
  8
VISIBLE
100
AcDbLine
 10
158.9460579311355
 20
32.9127146156129
 30
0.0
 11
152.6960579311355
 21
32.9127146156129
 31
0.0
  0
LINE
  5
BF
330
1F
100
AcDbEntity
  8
VISIBLE
100
AcDbLine
 10
152.6960579311355
 20
132.4127146156129
 30
0.0
 11
124.8210579311355
 21
132.4127146156129
 31
0.0
  0
LINE
  5
C0
330
1F
100
AcDbEntity
  8
VISIBLE
100
AcDbLine
 10
174.8210579311354
 20
62.53771461561288
 30
0.0
 11
174.8210579311354
 21
62.78771461561288
 31
0.0
  0
LINE
  5
C1
330
1F
100
AcDbEntity
  8
VISIBLE
100
AcDbLine
 10
159.1710579311355
 20
23.91271461561289
 30
0.0
 11
158.9460579311355
 21
23.91271461561289
 31
0.0
  0
LINE
  5
C2
330
1F
100
AcDbEntity
  8
VISIBLE
100
AcDbLine
 10
124.8210579311355
 20
62.53771461561288
 30
0.0
 11
124.8210579311355
 21
62.78771461561288
 31
0.0
  0
LINE
  5
C3
330
1F
100
AcDbEntity
  8
VISIBLE
100
AcDbLine
 10
174.8210579311354
 20
62.78771461561288
 30
0.0
 11
124.8210579311355
 21
62.78771461561288
 31
0.0
  0
LINE
  5
C4
330
1F
100
AcDbEntity
  8
VISIBLE
100
AcDbLine
 10
158.9460579311355
 20
23.91271461561289
 30
0.0
 11
158.9460579311355
 21
32.6627146156129
 31
0.0
  0
LINE
  5
C5
330
1F
100
AcDbEntity
  8
VISIBLE
100
AcDbLine
 10
174.8210579311354
 20
62.53771461561288
 30
0.0
 11
124.8210579311355
 21
62.53771461561288
 31
0.0
  0
LINE
  5
C6
330
1F
100
AcDbEntity
  8
VISIBLE
100
AcDbLine
 10
159.1710579311355
 20
32.6627146156129
 30
0.0
 11
158.9460579311355
 21
32.6627146156129
 31
0.0
  0
LINE
  5
C7
330
1F
100
AcDbEntity
  8
VISIBLE
100
AcDbLine
 10
159.1710579311355
 20
23.91271461561289
 30
0.0
 11
159.1710579311355
 21
32.6627146156129
 31
0.0
  0
LINE
  5
C8
330
1F
100
AcDbEntity
  8
VISIBLE
100
AcDbLine
 10
152.4710579311355
 20
32.6627146156129
 30
0.0
 11
152.4710579311355
 21
23.91271461561289
 31
0.0
  0
LINE
  5
C9
330
1F
100
AcDbEntity
  8
VISIBLE
100
AcDbLine
 10
152.6960579311355
 20
32.6627146156129
 30
0.0
 11
152.6960579311355
 21
23.91271461561289
 31
0.0
  0
LINE
  5
CA
330
1F
100
AcDbEntity
  8
VISIBLE
100
AcDbLine
 10
152.6960579311355
 20
32.6627146156129
 30
0.0
 11
158.9460579311355
 21
32.6627146156129
 31
0.0
  0
LINE
  5
CB
330
1F
100
AcDbEntity
  8
VISIBLE
100
AcDbLine
 10
158.9460579311355
 20
23.91271461561289
 30
0.0
 11
152.6960579311355
 21
23.91271461561289
 31
0.0
  0
LINE
  5
CC
330
1F
100
AcDbEntity
  8
VISIBLE
100
AcDbLine
 10
152.6960579311355
 20
32.6627146156129
 30
0.0
 11
152.4710579311355
 21
32.6627146156129
 31
0.0
  0
LINE
  5
CD
330
1F
100
AcDbEntity
  8
VISIBLE
100
AcDbLine
 10
152.6960579311355
 20
23.91271461561289
 30
0.0
 11
152.4710579311355
 21
23.91271461561289
 31
0.0
  0
LINE
  5
CE
330
1F
100
AcDbEntity
  8
VISIBLE
100
AcDbLine
 10
159.1710579311355
 20
132.6627146156129
 30
0.0
 11
158.9460579311355
 21
132.6627146156129
 31
0.0
  0
LINE
  5
CF
330
1F
100
AcDbEntity
  8
VISIBLE
100
AcDbLine
 10
158.9460579311355
 20
132.6627146156129
 30
0.0
 11
158.9460579311355
 21
141.4127146156129
 31
0.0
  0
LINE
  5
D0
330
1F
100
AcDbEntity
  8
VISIBLE
100
AcDbLine
 10
159.1710579311355
 20
141.4127146156129
 30
0.0
 11
158.9460579311355
 21
141.4127146156129
 31
0.0
  0
LINE
  5
D1
330
1F
100
AcDbEntity
  8
VISIBLE
100
AcDbLine
 10
159.1710579311355
 20
132.6627146156129
 30
0.0
 11
159.1710579311355
 21
141.4127146156129
 31
0.0
  0
LINE
  5
D2
330
1F
100
AcDbEntity
  8
VISIBLE
100
AcDbLine
 10
152.6960579311355
 20
141.4127146156129
 30
0.0
 11
152.6960579311355
 21
132.6627146156129
 31
0.0
  0
LINE
  5
D3
330
1F
100
AcDbEntity
  8
VISIBLE
100
AcDbLine
 10
152.6960579311355
 20
141.4127146156129
 30
0.0
 11
158.9460579311355
 21
141.4127146156129
 31
0.0
  0
LINE
  5
D4
330
1F
100
AcDbEntity
  8
VISIBLE
100
AcDbLine
 10
158.9460579311355
 20
132.6627146156129
 30
0.0
 11
152.6960579311355
 21
132.6627146156129
 31
0.0
  0
LINE
  5
D5
330
1F
100
AcDbEntity
  8
VISIBLE
100
AcDbLine
 10
152.4710579311355
 20
141.4127146156129
 30
0.0
 11
152.4710579311355
 21
132.6627146156129
 31
0.0
  0
LINE
  5
D6
330
1F
100
AcDbEntity
  8
VISIBLE
100
AcDbLine
 10
152.6960579311355
 20
141.4127146156129
 30
0.0
 11
152.4710579311355
 21
141.4127146156129
 31
0.0
  0
LINE
  5
D7
330
1F
100
AcDbEntity
  8
VISIBLE
100
AcDbLine
 10
152.6960579311355
 20
132.6627146156129
 30
0.0
 11
152.4710579311355
 21
132.6627146156129
 31
0.0
  0
LINE
  5
DA
330
1F
100
AcDbEntity
  8
VISIBLE
100
AcDbLine
 10
336.7270244196328
 20
277.9022064843273
 30
0.0
 11
336.7270244196328
 21
273.8197235796887
 31
0.0
  0
LINE
  5
DB
330
1F
100
AcDbEntity
  8
VISIBLE
100
AcDbLine
 10
331.7772769513269
 20
273.8197235796887
 30
0.0
 11
334.2521506854798
 21
272.3908545630652
 31
0.0
  0
LINE
  5
DC
330
1F
100
AcDbEntity
  8
VISIBLE
100
AcDbLine
 10
349.4549464809907
 20
209.7247419768622
 30
0.0
 11
402.1344016793885
 21
240.13923961642
 31
0.0
  0
LINE
  5
DD
330
1F
100
AcDbEntity
  8
VISIBLE
100
AcDbLine
 10
404.9628288041347
 20
238.7103705997965
 30
0.0
 11
351.9298202151436
 21
208.0917488150068
 31
0.0
  0
LINE
  5
DE
330
1F
100
AcDbEntity
  8
VISIBLE
100
AcDbLine
 10
334.2521506854798
 20
228.5041633381999
 30
0.0
 11
325.5900926159446
 21
223.5031217800176
 31
0.0
  0
LINE
  5
DF
330
1F
100
AcDbEntity
  8
VISIBLE
100
AcDbLine
 10
286.5224429553879
 20
248.7124537161611
 30
0.0
 11
334.2521506854798
 21
276.2692133224719
 31
0.0
  0
LINE
  5
E0
330
1F
100
AcDbEntity
  8
VISIBLE
100
AcDbLine
 10
284.0475692212349
 20
247.4877088447696
 30
0.0
 11
349.4549464809907
 21
209.7247419768622
 31
0.0
  0
LINE
  5
E1
330
1F
100
AcDbEntity
  8
VISIBLE
100
AcDbLine
 10
281.2191420964888
 20
248.9165778613931
 30
0.0
 11
351.9298202151436
 21
208.0917488150068
 31
0.0
  0
LINE
  5
E2
330
1F
100
AcDbEntity
  8
VISIBLE
100
AcDbLine
 10
334.2521506854798
 20
272.3908545630652
 30
0.0
 11
334.2521506854798
 21
276.2692133224719
 31
0.0
  0
LINE
  5
E3
330
1F
100
AcDbEntity
  8
VISIBLE
100
AcDbLine
 10
334.2521506854798
 20
279.5351996461828
 30
0.0
 11
281.2191420964888
 21
248.9165778613931
 31
0.0
  0
LINE
  5
E4
330
1F
100
AcDbEntity
  8
VISIBLE
100
AcDbLine
 10
331.7772769513269
 20
274.8403443058484
 30
0.0
 11
331.7772769513269
 21
273.8197235796887
 31
0.0
  0
LINE
  5
E5
330
1F
100
AcDbEntity
  8
VISIBLE
100
AcDbLine
 10
334.2521506854798
 20
279.5351996461828
 30
0.0
 11
404.9628288041347
 21
238.7103705997965
 31
0.0
  0
LINE
  5
E6
330
1F
100
AcDbEntity
  8
VISIBLE
100
AcDbLine
 10
336.7270244196328
 20
273.8197235796887
 30
0.0
 11
334.2521506854798
 21
272.3908545630652
 31
0.0
  0
LINE
  5
E7
330
1F
100
AcDbEntity
  8
VISIBLE
100
AcDbLine
 10
284.0475692212349
 20
247.4877088447696
 30
0.0
 11
336.7270244196328
 21
277.9022064843273
 31
0.0
  0
LINE
  5
E8
330
1F
100
AcDbEntity
  8
VISIBLE
100
AcDbLine
 10
336.7270244196328
 20
277.9022064843273
 30
0.0
 11
402.1344016793885
 21
240.13923961642
 31
0.0
  0
LINE
  5
E9
330
1F
100
AcDbEntity
  8
VISIBLE
100
AcDbLine
 10
351.9298202151436
 20
208.0917488150068
 30
0.0
 11
351.9298202151436
 21
157.0607125070239
 31
0.0
  0
LINE
  5
EA
330
1F
100
AcDbEntity
  8
VISIBLE
100
AcDbLine
 10
281.2191420964888
 20
197.8855415534102
 30
0.0
 11
351.9298202151436
 21
157.0607125070239
 31
0.0
  0
LINE
  5
EB
330
1F
100
AcDbEntity
  8
VISIBLE
100
AcDbLine
 10
281.2191420964888
 20
248.9165778613931
 30
0.0
 11
281.2191420964888
 21
197.8855415534102
 31
0.0
  0
LINE
  5
EC
330
1F
100
AcDbEntity
  8
VISIBLE
100
AcDbLine
 10
286.5224429553879
 20
246.058839828146
 30
0.0
 11
286.5224429553879
 21
248.7124537161611
 31
0.0
  0
LINE
  5
ED
330
1F
100
AcDbEntity
  8
VISIBLE
100
AcDbLine
 10
404.9628288041347
 20
238.7103705997965
 30
0.0
 11
404.9628288041347
 21
187.6793342918136
 31
0.0
  0
LINE
  5
EE
330
1F
100
AcDbEntity
  8
VISIBLE
100
AcDbLine
 10
334.2521506854798
 20
228.5041633381999
 30
0.0
 11
348.1291212662659
 21
220.4922906378466
 31
0.0
  0
LINE
  5
EF
330
1F
100
AcDbEntity
  8
VISIBLE
100
AcDbLine
 10
334.2521506854798
 20
272.3908545630652
 30
0.0
 11
334.2521506854798
 21
228.5041633381999
 31
0.0
  0
LINE
  5
F0
330
1F
100
AcDbEntity
  8
VISIBLE
100
AcDbLine
 10
404.9628288041347
 20
187.6793342918136
 30
0.0
 11
351.9298202151436
 21
157.0607125070239
 31
0.0
  0
ELLIPSE
  5
F1
330
1F
100
AcDbEntity
  8
VISIBLE
100
AcDbEllipse
 10
307.7356463909843
 20
238.7103705997965
 30
0.0
 11
-1.562499999999999
 21
-2.706329386826372
 31
0.0
210
0.0
220
0.0
230
-1.0
 40
0.5773502691896257
 41
9.48137671668038
 42
12.50977185844738
  0
ELLIPSE
  5
F2
330
1F
100
AcDbEntity
  8
VISIBLE
100
AcDbEllipse
 10
334.2521506854799
 20
278.0042685569433
 30
0.0
 11
-1.125000000000001
 21
0.0
 31
0.0
210
0.0
220
0.0
230
1.0
 40
0.5773502691896258
 41
0.0
 42
6.283185307179586
  0
ELLIPSE
  5
F3
330
1F
100
AcDbEntity
  8
VISIBLE
100
AcDbEllipse
 10
402.3111783746851
 20
238.7103705997965
 30
0.0
 11
-1.125000000000001
 21
0.0
 31
0.0
210
0.0
220
0.0
230
1.0
 40
0.5773502691896258
 41
0.0
 42
6.283185307179586
  0
ELLIPSE
  5
F4
330
1F
100
AcDbEntity
  8
VISIBLE
100
AcDbEllipse
 10
283.8707925259383
 20
248.9165778613931
 30
0.0
 11
-1.125000000000001
 21
0.0
 31
0.0
210
0.0
220
0.0
230
1.0
 40
0.5773502691896258
 41
0.0
 42
6.283185307179586
  0
ELLIPSE
  5
F5
330
1F
100
AcDbEntity
  8
VISIBLE
100
AcDbEllipse
 10
307.9124230862809
 20
238.6083085271806
 30
0.0
 11
-1.562499999999999
 21
-2.706329386826372
 31
0.0
210
0.0
220
0.0
230
-1.0
 40
0.5773502691896257
 41
0.0
 42
6.283185307179586
  0
ELLIPSE
  5
F6
330
1F
100
AcDbEntity
  8
VISIBLE
100
AcDbEllipse
 10
351.9298202151436
 20
209.6226799042463
 30
0.0
 11
-1.125000000000001
 21
0.0
 31
0.0
210
0.0
220
0.0
230
1.0
 40
0.5773502691896258
 41
0.0
 42
6.283185307179586
  0
LINE
  5
F7
330
1F
100
AcDbEntity
  8
VISIBLE
100
AcDbLine
 10
376.7713245096392
 20
194.9843564507323
 30
0.0
 11
382.9585088450214
 21
191.4121839091736
 31
0.0
  0
LINE
  5
F8
330
1F
100
AcDbEntity
  8
VISIBLE
100
AcDbLine
 10
386.3085088450214
 20
197.2145541145293
 30
0.0
 11
380.1213245096391
 21
200.7867266560881
 31
0.0
  0
ELLIPSE
  5
F9
330
1F
100
AcDbEntity
  8
VISIBLE
100
AcDbEllipse
 10
384.6335088450214
 20
194.3133690118514
 30
0.0
 11
-1.562499999999999
 21
-2.706329386826372
 31
0.0
210
0.0
220
0.0
230
-1.0
 40
0.5773502691896257
 41
0.0
 42
6.283185307179586
  0
ELLIPSE
  5
FA
330
1F
100
AcDbEntity
  8
VISIBLE
100
AcDbEllipse
 10
384.6335088450214
 20
194.3133690118514
 30
0.0
 11
1.674999999999999
 21
2.901185102677871
 31
0.0
210
0.0
220
0.0
230
1.0
 40
0.5773502691896258
 41
0.0
 42
6.283185307179586
  0
ELLIPSE
  5
FB
330
1F
100
AcDbEntity
  8
VISIBLE
100
AcDbEllipse
 10
378.4463245096391
 20
197.8855415534102
 30
0.0
 11
1.674999999999999
 21
2.901185102677871
 31
0.0
210
0.0
220
0.0
230
0.9999999999999999
 40
0.5773502691896257
 41
-0.0000000000000046
 42
3.14159265358978
  0
ELLIPSE
  5
FC
330
1F
100
AcDbEntity
  8
VISIBLE
100
AcDbEllipse
 10
307.7356463909842
 20
238.7103705997965
 30
0.0
 11
-1.562499999999999
 21
-2.706329386826372
 31
0.0
210
0.0
220
0.0
230
-1.0
 40
0.5773502691896257
 41
9.481376716678016
 42
12.50977185844995
  0
LINE
  5
FD
330
1F
100
AcDbEntity
  8
VISIBLE
100
AcDbLine
 10
383.3960719779449
 20
240.8536741247318
 30
0.0
 11
339.4670631967306
 21
215.4912490796643
 31
0.0
  0
LINE
  5
FE
330
1F
100
AcDbEntity
  8
VISIBLE
100
AcDbLine
 10
383.5728486732416
 20
240.7516120521158
 30
0.0
 11
383.3960719779449
 21
240.8536741247318
 31
0.0
  0
LINE
  5
FF
330
1F
100
AcDbEntity
  8
VISIBLE
100
AcDbLine
 10
383.5728486732416
 20
240.7516120521158
 30
0.0
 11
383.5728486732416
 21
229.4227219917436
 31
0.0
  0
LINE
  5
100
330
1F
100
AcDbEntity
  8
VISIBLE
100
AcDbLine
 10
383.5728486732416
 20
240.7516120521158
 30
0.0
 11
339.6438398920273
 21
215.3891870070483
 31
0.0
  0
LINE
  5
101
330
1F
100
AcDbEntity
  8
BORDER_FRAME
100
AcDbLine
 10
10.5
 20
10.0
 30
0.0
 11
10.5
 21
287.0
 31
0.0
  0
LINE
  5
104
330
1F
100
AcDbEntity
  8
BORDER_FRAME
100
AcDbLine
 10
10.5
 20
287.0
 30
0.0
 11
410.5
 21
287.0
 31
0.0
  0
LINE
  5
105
330
1F
100
AcDbEntity
  8
BORDER_FRAME
100
AcDbLine
 10
410.5
 20
287.0
 30
0.0
 11
410.5
 21
10.0
 31
0.0
  0
LINE
  5
106
330
1F
100
AcDbEntity
  8
BORDER_FRAME
100
AcDbLine
 10
410.5
 20
10.0
 30
0.0
 11
10.5
 21
10.0
 31
0.0
  0
LINE
  5
107
330
1F
100
AcDbEntity
  8
BORDER_ZONES
100
AcDbLine
 10
70.5
 20
10.0
 30
0.0
 11
70.5
 21
0.5
 31
0.0
  0
LINE
  5
109
330
1F
100
AcDbEntity
  8
BORDER_ZONES
100
AcDbLine
 10
70.5
 20
287.0
 30
0.0
 11
70.5
 21
296.5
 31
0.0
  0
MTEXT
  5
10A
330
1F
100
AcDbEntity
  8
BORDER_ZONES
100
AcDbMText
 10
35.5
 20
5.0
 30
0.0
 40
6.0
 41
0.0
 71
     5
 72
     1
  1
6
  7
ONSHAPE-STANDARD
  0
MTEXT
  5
10C
330
1F
100
AcDbEntity
  8
BORDER_ZONES
100
AcDbMText
 10
35.5
 20
292.0
 30
0.0
 40
6.0
 41
0.0
 71
     5
 72
     1
  1
6
  7
ONSHAPE-STANDARD
  0
MTEXT
  5
10D
330
1F
100
AcDbEntity
  8
BORDER_ZONES
100
AcDbMText
 10
105.5
 20
5.0
 30
0.0
 40
6.0
 41
0.0
 71
     5
 72
     1
  1
5
  7
ONSHAPE-STANDARD
  0
MTEXT
  5
10E
330
1F
100
AcDbEntity
  8
BORDER_ZONES
100
AcDbMText
 10
105.5
 20
292.0
 30
0.0
 40
6.0
 41
0.0
 71
     5
 72
     1
  1
5
  7
ONSHAPE-STANDARD
  0
LINE
  5
10F
330
1F
100
AcDbEntity
  8
BORDER_ZONES
100
AcDbLine
 10
140.5
 20
10.0
 30
0.0
 11
140.5
 21
0.5
 31
0.0
  0
LINE
  5
110
330
1F
100
AcDbEntity
  8
BORDER_ZONES
100
AcDbLine
 10
140.5
 20
287.0
 30
0.0
 11
140.5
 21
296.5
 31
0.0
  0
MTEXT
  5
111
330
1F
100
AcDbEntity
  8
BORDER_ZONES
100
AcDbMText
 10
175.5
 20
5.0
 30
0.0
 40
6.0
 41
0.0
 71
     5
 72
     1
  1
4
  7
ONSHAPE-STANDARD
  0
MTEXT
  5
112
330
1F
100
AcDbEntity
  8
BORDER_ZONES
100
AcDbMText
 10
175.5
 20
292.0
 30
0.0
 40
6.0
 41
0.0
 71
     5
 72
     1
  1
4
  7
ONSHAPE-STANDARD
  0
LINE
  5
113
330
1F
100
AcDbEntity
  8
BORDER_ZONES
100
AcDbLine
 10
210.5
 20
10.0
 30
0.0
 11
210.5
 21
0.5
 31
0.0
  0
LINE
  5
114
330
1F
100
AcDbEntity
  8
BORDER_ZONES
100
AcDbLine
 10
210.5
 20
287.0
 30
0.0
 11
210.5
 21
296.5
 31
0.0
  0
MTEXT
  5
115
330
1F
100
AcDbEntity
  8
BORDER_ZONES
100
AcDbMText
 10
245.5
 20
5.0
 30
0.0
 40
6.0
 41
0.0
 71
     5
 72
     1
  1
3
  7
ONSHAPE-STANDARD
  0
MTEXT
  5
116
330
1F
100
AcDbEntity
  8
BORDER_ZONES
100
AcDbMText
 10
245.5
 20
292.0
 30
0.0
 40
6.0
 41
0.0
 71
     5
 72
     1
  1
3
  7
ONSHAPE-STANDARD
  0
LINE
  5
117
330
1F
100
AcDbEntity
  8
BORDER_ZONES
100
AcDbLine
 10
280.5
 20
10.0
 30
0.0
 11
280.5
 21
0.5
 31
0.0
  0
LINE
  5
118
330
1F
100
AcDbEntity
  8
BORDER_ZONES
100
AcDbLine
 10
280.5
 20
287.0
 30
0.0
 11
280.5
 21
296.5
 31
0.0
  0
MTEXT
  5
119
330
1F
100
AcDbEntity
  8
BORDER_ZONES
100
AcDbMText
 10
315.5
 20
5.0
 30
0.0
 40
6.0
 41
0.0
 71
     5
 72
     1
  1
2
  7
ONSHAPE-STANDARD
  0
MTEXT
  5
11A
330
1F
100
AcDbEntity
  8
BORDER_ZONES
100
AcDbMText
 10
315.5
 20
292.0
 30
0.0
 40
6.0
 41
0.0
 71
     5
 72
     1
  1
2
  7
ONSHAPE-STANDARD
  0
LINE
  5
11B
330
1F
100
AcDbEntity
  8
BORDER_ZONES
100
AcDbLine
 10
350.5
 20
10.0
 30
0.0
 11
350.5
 21
0.5
 31
0.0
  0
LINE
  5
11C
330
1F
100
AcDbEntity
  8
BORDER_ZONES
100
AcDbLine
 10
350.5
 20
287.0
 30
0.0
 11
350.5
 21
296.5
 31
0.0
  0
MTEXT
  5
11D
330
1F
100
AcDbEntity
  8
BORDER_ZONES
100
AcDbMText
 10
385.5
 20
5.0
 30
0.0
 40
6.0
 41
0.0
 71
     5
 72
     1
  1
1
  7
ONSHAPE-STANDARD
  0
MTEXT
  5
11E
330
1F
100
AcDbEntity
  8
BORDER_ZONES
100
AcDbMText
 10
385.5
 20
292.0
 30
0.0
 40
6.0
 41
0.0
 71
     5
 72
     1
  1
1
  7
ONSHAPE-STANDARD
  0
LINE
  5
11F
330
1F
100
AcDbEntity
  8
BORDER_ZONES
100
AcDbLine
 10
10.5
 20
74.5
 30
0.0
 11
1.0
 21
74.5
 31
0.0
  0
LINE
  5
120
330
1F
100
AcDbEntity
  8
BORDER_ZONES
100
AcDbLine
 10
410.5
 20
74.5
 30
0.0
 11
420.0
 21
74.5
 31
0.0
  0
MTEXT
  5
121
330
1F
100
AcDbEntity
  8
BORDER_ZONES
100
AcDbMText
 10
5.5
 20
37.5
 30
0.0
 40
6.0
 41
0.0
 71
     5
 72
     1
  1
A
  7
ONSHAPE-STANDARD
  0
MTEXT
  5
122
330
1F
100
AcDbEntity
  8
BORDER_ZONES
100
AcDbMText
 10
415.5
 20
37.5
 30
0.0
 40
6.0
 41
0.0
 71
     5
 72
     1
  1
A
  7
ONSHAPE-STANDARD
  0
MTEXT
  5
123
330
1F
100
AcDbEntity
  8
BORDER_ZONES
100
AcDbMText
 10
5.5
 20
111.5
 30
0.0
 40
6.0
 41
0.0
 71
     5
 72
     1
  1
B
  7
ONSHAPE-STANDARD
  0
MTEXT
  5
124
330
1F
100
AcDbEntity
  8
BORDER_ZONES
100
AcDbMText
 10
415.5
 20
111.5
 30
0.0
 40
6.0
 41
0.0
 71
     5
 72
     1
  1
B
  7
ONSHAPE-STANDARD
  0
LINE
  5
125
330
1F
100
AcDbEntity
  8
BORDER_ZONES
100
AcDbLine
 10
10.5
 20
148.5
 30
0.0
 11
1.0
 21
148.5
 31
0.0
  0
LINE
  5
126
330
1F
100
AcDbEntity
  8
BORDER_ZONES
100
AcDbLine
 10
410.5
 20
148.5
 30
0.0
 11
420.0
 21
148.5
 31
0.0
  0
MTEXT
  5
127
330
1F
100
AcDbEntity
  8
BORDER_ZONES
100
AcDbMText
 10
5.5
 20
185.5
 30
0.0
 40
6.0
 41
0.0
 71
     5
 72
     1
  1
C
  7
ONSHAPE-STANDARD
  0
MTEXT
  5
128
330
1F
100
AcDbEntity
  8
BORDER_ZONES
100
AcDbMText
 10
415.5
 20
185.5
 30
0.0
 40
6.0
 41
0.0
 71
     5
 72
     1
  1
C
  7
ONSHAPE-STANDARD
  0
LINE
  5
129
330
1F
100
AcDbEntity
  8
BORDER_ZONES
100
AcDbLine
 10
10.5
 20
222.5
 30
0.0
 11
1.0
 21
222.5
 31
0.0
  0
LINE
  5
12A
330
1F
100
AcDbEntity
  8
BORDER_ZONES
100
AcDbLine
 10
410.5
 20
222.5
 30
0.0
 11
420.0
 21
222.5
 31
0.0
  0
MTEXT
  5
12B
330
1F
100
AcDbEntity
  8
BORDER_ZONES
100
AcDbMText
 10
5.5
 20
259.5
 30
0.0
 40
6.0
 41
0.0
 71
     5
 72
     1
  1
D
  7
ONSHAPE-STANDARD
  0
MTEXT
  5
12C
330
1F
100
AcDbEntity
  8
BORDER_ZONES
100
AcDbMText
 10
415.5
 20
259.5
 30
0.0
 40
6.0
 41
0.0
 71
     5
 72
     1
  1
D
  7
ONSHAPE-STANDARD
  0
LINE
  5
12D
330
1F
100
AcDbEntity
  8
TITLE_BLOCK
100
AcDbLine
 10
194.6
 20
10.0
 30
0.0
 11
194.6
 21
60.8
 31
0.0
  0
LINE
  5
12F
330
1F
100
AcDbEntity
  8
TITLE_BLOCK
100
AcDbLine
 10
194.6
 20
10.0
 30
0.0
 11
235.24
 21
10.0
 31
0.0
  0
LINE
  5
130
330
1F
100
AcDbEntity
  8
TITLE_BLOCK
100
AcDbLine
 10
194.6
 20
20.16
 30
0.0
 11
235.24
 21
20.16
 31
0.0
  0
LINE
  5
131
330
1F
100
AcDbEntity
  8
TITLE_BLOCK
100
AcDbLine
 10
194.6
 20
24.224
 30
0.0
 11
235.24
 21
24.224
 31
0.0
  0
LINE
  5
132
330
1F
100
AcDbEntity
  8
TITLE_BLOCK
100
AcDbLine
 10
194.6
 20
31.1328
 30
0.0
 11
235.24
 21
31.1328
 31
0.0
  0
LINE
  5
133
330
1F
100
AcDbEntity
  8
TITLE_BLOCK
100
AcDbLine
 10
194.6
 20
37.0256
 30
0.0
 11
235.24
 21
37.0256
 31
0.0
  0
LINE
  5
134
330
1F
100
AcDbEntity
  8
TITLE_BLOCK
100
AcDbLine
 10
194.6
 20
60.8
 30
0.0
 11
235.24
 21
60.8
 31
0.0
  0
MTEXT
  5
135
330
1F
100
AcDbEntity
  8
TITLE_BLOCK
100
AcDbMText
 10
195.49408
 20
59.33696
 30
0.0
 40
1.6256
 41
40.64000000000001
 71
     1
 72
     1
  1
UNLESS OTHERWISE SPECIFIED, DIMENSIONS ARE IN MILLIMETERS
  7
ONSHAPE-STANDARD
  0
MTEXT
  5
136
330
1F
100
AcDbEntity
  8
TITLE_BLOCK
100
AcDbMText
 10
215.724672
 20
53.38726400000001
 30
0.0
 40
1.46304
 41
20.32000000000002
 71
     1
 72
     1
  1
^JANGULAR = ± °^J
  7
ONSHAPE-STANDARD
  0
MTEXT
  5
137
330
1F
100
AcDbEntity
  8
TITLE_BLOCK
100
AcDbMText
 10
195.49408
 20
43.48736
 30
0.0
 40
1.6256
 41
20.31999999999999
 71
     1
 72
     1
  1
SURFACE FINISH
  7
ONSHAPE-STANDARD
  0
LINE
  5
138
330
1F
100
AcDbEntity
  8
TITLE_BLOCK
100
AcDbLine
 10
212.888
 20
41.0896
 30
0.0
 11
213.904
 21
39.32983637951002
 31
0.0
  0
LINE
  5
139
330
1F
100
AcDbEntity
  8
TITLE_BLOCK
100
AcDbLine
 10
213.904
 20
39.32983637951002
 30
0.0
 11
216.0376
 21
43.02533998253897
 31
0.0
  0
LINE
  5
13A
330
1F
100
AcDbEntity
  8
TITLE_BLOCK
100
AcDbLine
 10
216.0376
 20
43.02533998253897
 30
0.0
 11
218.2728
 21
43.02533998253897
 31
0.0
  0
MTEXT
  5
13B
330
1F
100
AcDbEntity
  8
TITLE_BLOCK
100
AcDbMText
 10
214.92
 20
35.123648
 30
0.0
 40
2.11328
 41
40.64000000000001
 71
     2
 72
     1
  1
DO NOT SCALE DRAWING
  7
ONSHAPE-STANDARD
  0
MTEXT
  5
13C
330
1F
100
AcDbEntity
  8
TITLE_BLOCK
100
AcDbMText
 10
214.92
 20
29.66976
 30
0.0
 40
1.6256
 41
40.64000000000001
 71
     2
 72
     1
  1
BREAK ALL SHARP EDGES AND REMOVE BURRS
  7
ONSHAPE-STANDARD
  0
CIRCLE
  5
13D
330
1F
100
AcDbEntity
  8
TITLE_BLOCK
100
AcDbCircle
 10
219.492
 20
15.03936
 30
0.0
 40
1.8288
  0
CIRCLE
  5
13E
330
1F
100
AcDbEntity
  8
TITLE_BLOCK
100
AcDbCircle
 10
219.492
 20
15.03936
 30
0.0
 40
3.6576
  0
LINE
  5
13F
330
1F
100
AcDbEntity
  8
TITLE_BLOCK
100
AcDbLine
 10
220.4064
 20
15.03936
 30
0.0
 11
218.5776
 21
15.03936
 31
0.0
  0
LINE
  5
140
330
1F
100
AcDbEntity
  8
TITLE_BLOCK
100
AcDbLine
 10
219.492
 20
15.95376
 30
0.0
 11
219.492
 21
14.12496
 31
0.0
  0
LINE
  5
141
330
1F
100
AcDbEntity
  8
TITLE_BLOCK
100
AcDbLine
 10
221.3208
 20
15.03936
 30
0.0
 11
224.064
 21
15.03936
 31
0.0
  0
LINE
  5
142
330
1F
100
AcDbEntity
  8
TITLE_BLOCK
100
AcDbLine
 10
219.492
 20
16.86816
 30
0.0
 11
219.492
 21
19.61136
 31
0.0
  0
LINE
  5
143
330
1F
100
AcDbEntity
  8
TITLE_BLOCK
100
AcDbLine
 10
217.6632
 20
15.03936
 30
0.0
 11
214.92
 21
15.03936
 31
0.0
  0
LINE
  5
144
330
1F
100
AcDbEntity
  8
TITLE_BLOCK
100
AcDbLine
 10
219.492
 20
13.21056
 30
0.0
 11
219.492
 21
10.46736
 31
0.0
  0
LINE
  5
145
330
1F
100
AcDbEntity
  8
TITLE_BLOCK
100
AcDbLine
 10
214.0056
 20
11.38176
 30
0.0
 11
214.0056
 21
18.69696
 31
0.0
  0
LINE
  5
146
330
1F
100
AcDbEntity
  8
TITLE_BLOCK
100
AcDbLine
 10
214.0056
 20
18.69696
 30
0.0
 11
206.6904
 21
16.86816
 31
0.0
  0
LINE
  5
147
330
1F
100
AcDbEntity
  8
TITLE_BLOCK
100
AcDbLine
 10
206.6904
 20
16.86816
 30
0.0
 11
206.6904
 21
13.21056
 31
0.0
  0
LINE
  5
148
330
1F
100
AcDbEntity
  8
TITLE_BLOCK
100
AcDbLine
 10
206.6904
 20
13.21056
 30
0.0
 11
214.0056
 21
11.38176
 31
0.0
  0
LINE
  5
149
330
1F
100
AcDbEntity
  8
TITLE_BLOCK
100
AcDbLine
 10
211.2624
 20
15.03936
 30
0.0
 11
214.4628
 21
15.03936
 31
0.0
  0
LINE
  5
14A
330
1F
100
AcDbEntity
  8
TITLE_BLOCK
100
AcDbLine
 10
210.71376
 20
15.03936
 30
0.0
 11
209.98224
 21
15.03936
 31
0.0
  0
LINE
  5
14B
330
1F
100
AcDbEntity
  8
TITLE_BLOCK
100
AcDbLine
 10
209.4336
 20
15.03936
 30
0.0
 11
206.2332
 21
15.03936
 31
0.0
  0
MTEXT
  5
14C
330
1F
100
AcDbEntity
  8
TITLE_BLOCK
100
AcDbMText
 10
214.92
 20
22.76096
 30
0.0
 40
1.6256
 41
40.64000000000001
 71
     2
 72
     1
  1
FIRST ANGLE PROJECTION
  7
ONSHAPE-STANDARD
  0
LINE
  5
14D
330
1F
100
AcDbEntity
  8
TITLE_BLOCK
100
AcDbLine
 10
235.24
 20
10.0
 30
0.0
 11
235.24
 21
60.8
 31
0.0
  0
LINE
  5
14E
330
1F
100
AcDbEntity
  8
TITLE_BLOCK
100
AcDbLine
 10
253.02
 20
24.224
 30
0.0
 11
253.02
 21
60.8
 31
0.0
  0
LINE
  5
14F
330
1F
100
AcDbEntity
  8
TITLE_BLOCK
100
AcDbLine
 10
273.34
 20
24.224
 30
0.0
 11
273.34
 21
60.8
 31
0.0
  0
LINE
  5
150
330
1F
100
AcDbEntity
  8
TITLE_BLOCK
100
AcDbLine
 10
270.8
 20
10.0
 30
0.0
 11
270.8
 21
24.224
 31
0.0
  0
MTEXT
  5
151
330
1F
100
AcDbEntity
  8
TITLE_BLOCK
100
AcDbMText
 10
283.5
 20
59.33696
 30
0.0
 40
1.6256
 41
20.31999999999994
 71
     2
 72
     1
  1
SIGNATURE
  7
ONSHAPE-STANDARD
  0
LINE
  5
152
330
1F
100
AcDbEntity
  8
TITLE_BLOCK
100
AcDbLine
 10
293.66
 20
24.224
 30
0.0
 11
293.66
 21
60.8
 31
0.0
  0
LINE
  5
153
330
1F
100
AcDbEntity
  8
TITLE_BLOCK
100
AcDbLine
 10
235.24
 20
60.8
 30
0.0
 11
306.36
 21
60.8
 31
0.0
  0
LINE
  5
154
330
1F
100
AcDbEntity
  8
TITLE_BLOCK
100
AcDbLine
 10
235.24
 20
54.70400000000001
 30
0.0
 11
306.36
 21
54.70400000000001
 31
0.0
  0
LINE
  5
155
330
1F
100
AcDbEntity
  8
TITLE_BLOCK
100
AcDbLine
 10
235.24
 20
48.608
 30
0.0
 11
306.36
 21
48.608
 31
0.0
  0
LINE
  5
156
330
1F
100
AcDbEntity
  8
TITLE_BLOCK
100
AcDbLine
 10
235.24
 20
42.512
 30
0.0
 11
306.36
 21
42.512
 31
0.0
  0
LINE
  5
157
330
1F
100
AcDbEntity
  8
TITLE_BLOCK
100
AcDbLine
 10
235.24
 20
36.416
 30
0.0
 11
306.36
 21
36.416
 31
0.0
  0
LINE
  5
158
330
1F
100
AcDbEntity
  8
TITLE_BLOCK
100
AcDbLine
 10
235.24
 20
30.32
 30
0.0
 11
306.36
 21
30.32
 31
0.0
  0
LINE
  5
159
330
1F
100
AcDbEntity
  8
TITLE_BLOCK
100
AcDbLine
 10
235.24
 20
24.224
 30
0.0
 11
306.36
 21
24.224
 31
0.0
  0
MTEXT
  5
15A
330
1F
100
AcDbEntity
  8
TITLE_BLOCK
100
AcDbMText
 10
253.91408
 20
59.33696
 30
0.0
 40
1.6256
 41
20.32000000000002
 71
     1
 72
     1
  1
NAME
  7
ONSHAPE-STANDARD
  0
MTEXT
  5
15B
330
1F
100
AcDbEntity
  8
TITLE_BLOCK
100
AcDbMText
 10
300.01
 20
59.33696
 30
0.0
 40
1.6256
 41
12.70000000000005
 71
     2
 72
     1
  1
DATE
  7
ONSHAPE-STANDARD
  0
MTEXT
  5
15C
330
1F
100
AcDbEntity
  8
TITLE_BLOCK
100
AcDbMText
 10
236.13408
 20
53.24096000000001
 30
0.0
 40
1.6256
 41
17.78
 71
     1
 72
     1
  1
DRAWN
  7
ONSHAPE-STANDARD
  0
MTEXT
  5
15D
102
{ACAD_XDICTIONARY
360
15E
102
}
330
1F
100
AcDbEntity
  8
TITLE_BLOCK
100
AcDbMText
 10
263.18
 20
51.65600000000001
 30
0.0
 40
1.365504
 41
20.32000000000002
 71
     5
 72
     1
  1
ALEX ZAVARSKY
  7
ONSHAPE-STANDARD-FIELDS
1001
ACAD
1000
ACAD_MTEXT_DEFINED_HEIGHT_BEGIN
1070
    46
1040
6.096000000000011
1000
ACAD_MTEXT_DEFINED_HEIGHT_END
  0
MTEXT
  5
164
102
{ACAD_XDICTIONARY
360
165
102
}
330
1F
100
AcDbEntity
  8
TITLE_BLOCK
100
AcDbMText
 10
300.01
 20
51.65600000000001
 30
0.0
 40
1.365504
 41
12.70000000000005
 71
     5
 72
     1
  1
2021-05-26
  7
ONSHAPE-STANDARD-FIELDS
1001
ACAD
1000
ACAD_MTEXT_DEFINED_HEIGHT_BEGIN
1070
    46
1040
6.096000000000011
1000
ACAD_MTEXT_DEFINED_HEIGHT_END
  0
MTEXT
  5
16A
330
1F
100
AcDbEntity
  8
TITLE_BLOCK
100
AcDbMText
 10
236.13408
 20
47.14496
 30
0.0
 40
1.6256
 41
17.78
 71
     1
 72
     1
  1
CHECKED
  7
ONSHAPE-STANDARD
  0
MTEXT
  5
16B
330
1F
100
AcDbEntity
  8
TITLE_BLOCK
100
AcDbMText
 10
263.18
 20
45.56
 30
0.0
 40
1.365504
 41
20.32000000000002
 71
     5
 72
     1
  1
 
  7
ONSHAPE-STANDARD-FIELDS
1001
ACAD
1000
ACAD_MTEXT_DEFINED_HEIGHT_BEGIN
1070
    46
1040
6.095999999999997
1000
ACAD_MTEXT_DEFINED_HEIGHT_END
  0
MTEXT
  5
16C
330
1F
100
AcDbEntity
  8
TITLE_BLOCK
100
AcDbMText
 10
300.01
 20
45.56
 30
0.0
 40
1.365504
 41
12.70000000000005
 71
     5
 72
     1
  1
 
  7
ONSHAPE-STANDARD-FIELDS
1001
ACAD
1000
ACAD_MTEXT_DEFINED_HEIGHT_BEGIN
1070
    46
1040
6.095999999999997
1000
ACAD_MTEXT_DEFINED_HEIGHT_END
  0
MTEXT
  5
16D
330
1F
100
AcDbEntity
  8
TITLE_BLOCK
100
AcDbMText
 10
236.13408
 20
41.04896
 30
0.0
 40
1.6256
 41
17.78
 71
     1
 72
     1
  1
APPROVED
  7
ONSHAPE-STANDARD
  0
MTEXT
  5
16E
102
{ACAD_XDICTIONARY
360
16F
102
}
330
1F
100
AcDbEntity
  8
TITLE_BLOCK
100
AcDbMText
 10
263.18
 20
39.464
 30
0.0
 40
1.365504
 41
20.32000000000002
 71
     5
 72
     1
  1
----
  7
ONSHAPE-STANDARD-FIELDS
1001
ACAD
1000
ACAD_MTEXT_DEFINED_HEIGHT_BEGIN
1070
    46
1040
6.096000000000004
1000
ACAD_MTEXT_DEFINED_HEIGHT_END
  0
MTEXT
  5
174
102
{ACAD_XDICTIONARY
360
175
102
}
330
1F
100
AcDbEntity
  8
TITLE_BLOCK
100
AcDbMText
 10
300.01
 20
39.464
 30
0.0
 40
1.365504
 41
12.70000000000005
 71
     5
 72
     1
  1
----
  7
ONSHAPE-STANDARD-FIELDS
1001
ACAD
1000
ACAD_MTEXT_DEFINED_HEIGHT_BEGIN
1070
    46
1040
6.096000000000004
1000
ACAD_MTEXT_DEFINED_HEIGHT_END
  0
MTEXT
  5
17A
330
1F
100
AcDbEntity
  8
TITLE_BLOCK
100
AcDbMText
 10
244.13
 20
33.36799999999999
 30
0.0
 40
2.4384
 41
17.78
 71
     5
 72
     1
  1
 
  7
ONSHAPE-STANDARD-FIELDS
1001
ACAD
1000
ACAD_MTEXT_DEFINED_HEIGHT_BEGIN
1070
    46
1040
6.095999999999997
1000
ACAD_MTEXT_DEFINED_HEIGHT_END
  0
MTEXT
  5
17B
330
1F
100
AcDbEntity
  8
TITLE_BLOCK
100
AcDbMText
 10
263.18
 20
33.36799999999999
 30
0.0
 40
1.365504
 41
20.32000000000002
 71
     5
 72
     1
  1
 
  7
ONSHAPE-STANDARD-FIELDS
1001
ACAD
1000
ACAD_MTEXT_DEFINED_HEIGHT_BEGIN
1070
    46
1040
6.095999999999997
1000
ACAD_MTEXT_DEFINED_HEIGHT_END
  0
MTEXT
  5
17C
330
1F
100
AcDbEntity
  8
TITLE_BLOCK
100
AcDbMText
 10
300.01
 20
33.36799999999999
 30
0.0
 40
1.365504
 41
12.70000000000005
 71
     5
 72
     1
  1
 
  7
ONSHAPE-STANDARD-FIELDS
1001
ACAD
1000
ACAD_MTEXT_DEFINED_HEIGHT_BEGIN
1070
    46
1040
6.095999999999997
1000
ACAD_MTEXT_DEFINED_HEIGHT_END
  0
MTEXT
  5
17D
330
1F
100
AcDbEntity
  8
TITLE_BLOCK
100
AcDbMText
 10
244.13
 20
27.272
 30
0.0
 40
2.4384
 41
17.78
 71
     5
 72
     1
  1
 
  7
ONSHAPE-STANDARD-FIELDS
1001
ACAD
1000
ACAD_MTEXT_DEFINED_HEIGHT_BEGIN
1070
    46
1040
6.096000000000004
1000
ACAD_MTEXT_DEFINED_HEIGHT_END
  0
MTEXT
  5
17E
330
1F
100
AcDbEntity
  8
TITLE_BLOCK
100
AcDbMText
 10
263.18
 20
27.272
 30
0.0
 40
1.365504
 41
20.32000000000002
 71
     5
 72
     1
  1
 
  7
ONSHAPE-STANDARD-FIELDS
1001
ACAD
1000
ACAD_MTEXT_DEFINED_HEIGHT_BEGIN
1070
    46
1040
6.096000000000004
1000
ACAD_MTEXT_DEFINED_HEIGHT_END
  0
MTEXT
  5
17F
330
1F
100
AcDbEntity
  8
TITLE_BLOCK
100
AcDbMText
 10
300.01
 20
27.272
 30
0.0
 40
1.365504
 41
12.70000000000005
 71
     5
 72
     1
  1
 
  7
ONSHAPE-STANDARD-FIELDS
1001
ACAD
1000
ACAD_MTEXT_DEFINED_HEIGHT_BEGIN
1070
    46
1040
6.096000000000004
1000
ACAD_MTEXT_DEFINED_HEIGHT_END
  0
MTEXT
  5
180
330
1F
100
AcDbEntity
  8
TITLE_BLOCK
100
AcDbMText
 10
236.13408
 20
22.76096
 30
0.0
 40
1.6256
 41
35.56
 71
     1
 72
     1
  1
MATERIAL
  7
ONSHAPE-STANDARD
  0
MTEXT
  5
181
330
1F
100
AcDbEntity
  8
TITLE_BLOCK
100
AcDbMText
 10
253.02
 20
17.112
 30
0.0
 40
2.4384
 41
35.56
 71
     5
 72
     1
  1
 
  7
ONSHAPE-STANDARD-FIELDS
1001
ACAD
1000
ACAD_MTEXT_DEFINED_HEIGHT_BEGIN
1070
    46
1040
14.224
1000
ACAD_MTEXT_DEFINED_HEIGHT_END
  0
MTEXT
  5
182
330
1F
100
AcDbEntity
  8
TITLE_BLOCK
100
AcDbMText
 10
271.69408
 20
22.76096
 30
0.0
 40
1.6256
 41
35.56
 71
     1
 72
     1
  1
FINISH
  7
ONSHAPE-STANDARD
  0
MTEXT
  5
183
330
1F
100
AcDbEntity
  8
TITLE_BLOCK
100
AcDbMText
 10
288.58
 20
17.112
 30
0.0
 40
2.4384
 41
35.56
 71
     5
 72
     1
  1
 
  7
ONSHAPE-STANDARD-FIELDS
1001
ACAD
1000
ACAD_MTEXT_DEFINED_HEIGHT_BEGIN
1070
    46
1040
14.224
1000
ACAD_MTEXT_DEFINED_HEIGHT_END
  0
LINE
  5
184
330
1F
100
AcDbEntity
  8
TITLE_BLOCK
100
AcDbLine
 10
306.36
 20
10.0
 30
0.0
 11
306.36
 21
60.8
 31
0.0
  0
LINE
  5
185
330
1F
100
AcDbEntity
  8
TITLE_BLOCK
100
AcDbLine
 10
319.06
 20
16.604
 30
0.0
 11
319.06
 21
26.764
 31
0.0
  0
LINE
  5
186
330
1F
100
AcDbEntity
  8
TITLE_BLOCK
100
AcDbLine
 10
328.712
 20
10.0
 30
0.0
 11
328.712
 21
16.604
 31
0.0
  0
LINE
  5
187
330
1F
100
AcDbEntity
  8
TITLE_BLOCK
100
AcDbLine
 10
374.94
 20
10.0
 30
0.0
 11
374.94
 21
16.604
 31
0.0
  0
LINE
  5
188
330
1F
100
AcDbEntity
  8
TITLE_BLOCK
100
AcDbLine
 10
400.34
 20
16.604
 30
0.0
 11
400.34
 21
26.764
 31
0.0
  0
LINE
  5
189
330
1F
100
AcDbEntity
  8
TITLE_BLOCK
100
AcDbLine
 10
306.36
 20
16.604
 30
0.0
 11
410.5
 21
16.604
 31
0.0
  0
LINE
  5
18A
330
1F
100
AcDbEntity
  8
TITLE_BLOCK
100
AcDbLine
 10
306.36
 20
26.764
 30
0.0
 11
410.5
 21
26.764
 31
0.0
  0
LINE
  5
18B
330
1F
100
AcDbEntity
  8
TITLE_BLOCK
100
AcDbLine
 10
306.36
 20
48.1
 30
0.0
 11
410.5
 21
48.1
 31
0.0
  0
LINE
  5
18C
330
1F
100
AcDbEntity
  8
TITLE_BLOCK
100
AcDbLine
 10
306.36
 20
60.8
 30
0.0
 11
410.5
 21
60.8
 31
0.0
  0
MTEXT
  5
18D
330
1F
100
AcDbEntity
  8
TITLE_BLOCK
100
AcDbMText
 10
307.25408
 20
46.63696
 30
0.0
 40
1.6256
 41
12.69999999999999
 71
     1
 72
     1
  1
TITLE
  7
ONSHAPE-STANDARD
  0
MTEXT
  5
18E
102
{ACAD_XDICTIONARY
360
18F
102
}
330
1F
100
AcDbEntity
  8
TITLE_BLOCK
100
AcDbMText
 10
358.43
 20
44.036
 30
0.0
 40
3.90144
 41
93.97999999999999
 71
     5
 72
     1
  1
----
  7
ONSHAPE-STANDARD-FIELDS
1001
ACAD
1000
ACAD_MTEXT_DEFINED_HEIGHT_BEGIN
1070
    46
1040
6.4008
1000
ACAD_MTEXT_DEFINED_HEIGHT_END
  0
MTEXT
  5
194
102
{ACAD_XDICTIONARY
360
195
102
}
330
1F
100
AcDbEntity
  8
TITLE_BLOCK
100
AcDbMText
 10
358.43
 20
37.6352
 30
0.0
 40
3.90144
 41
93.98000000000002
 71
     5
 72
     1
  1
Koerper
  7
ONSHAPE-STANDARD-FIELDS
1001
ONSHAPE_NOTES_REORDERING_D
1071
        0
1070
     0
1001
ACAD
1000
ACAD_MTEXT_DEFINED_HEIGHT_BEGIN
1070
    46
1040
3.954593133514987
1000
ACAD_MTEXT_DEFINED_HEIGHT_END
  0
MTEXT
  5
198
102
{ACAD_XDICTIONARY
360
199
102
}
330
1F
100
AcDbEntity
  8
TITLE_BLOCK
100
AcDbMText
 10
358.43
 20
31.2344
 30
0.0
 40
3.90144
 41
93.98000000000002
 71
     5
 72
     1
  1
BfG
  7
ONSHAPE-STANDARD-FIELDS
1001
ONSHAPE_NOTES_REORDERING_D
1071
        0
1070
     0
1001
ACAD
1000
ACAD_MTEXT_DEFINED_HEIGHT_BEGIN
1070
    46
1040
3.954593133514987
1000
ACAD_MTEXT_DEFINED_HEIGHT_END
  0
MTEXT
  5
19A
330
1F
100
AcDbEntity
  8
TITLE_BLOCK
100
AcDbMText
 10
307.075264
 20
25.593568
 30
0.0
 40
1.30048
 41
12.69999999999999
 71
     1
 72
     1
  1
SIZE
  7
ONSHAPE-STANDARD
  0
MTEXT
  5
19B
102
{ACAD_XDICTIONARY
360
19C
102
}
330
1F
100
AcDbEntity
  8
TITLE_BLOCK
100
AcDbMText
 10
312.71
 20
21.684
 30
0.0
 40
4.8768
 41
12.69999999999999
 71
     5
 72
     1
  1
A3
  7
ONSHAPE-STANDARD-FIELDS
1001
ACAD
1000
ACAD_MTEXT_DEFINED_HEIGHT_BEGIN
1070
    46
1040
10.16
1000
ACAD_MTEXT_DEFINED_HEIGHT_END
  0
MTEXT
  5
1A1
330
1F
100
AcDbEntity
  8
TITLE_BLOCK
100
AcDbMText
 10
319.775264
 20
25.593568
 30
0.0
 40
1.30048
 41
81.27999999999997
 71
     1
 72
     1
  1
DWG NO.
  7
ONSHAPE-STANDARD
  0
MTEXT
  5
1A2
102
{ACAD_XDICTIONARY
360
1A3
102
}
330
1F
100
AcDbEntity
  8
TITLE_BLOCK
100
AcDbMText
 10
359.7
 20
21.684
 30
0.0
 40
4.8768
 41
81.27999999999997
 71
     5
 72
     1
  1
----
  7
ONSHAPE-STANDARD-FIELDS
1001
ACAD
1000
ACAD_MTEXT_DEFINED_HEIGHT_BEGIN
1070
    46
1040
10.16
1000
ACAD_MTEXT_DEFINED_HEIGHT_END
  0
MTEXT
  5
1A8
330
1F
100
AcDbEntity
  8
TITLE_BLOCK
100
AcDbMText
 10
401.055264
 20
25.593568
 30
0.0
 40
1.30048
 41
10.16000000000003
 71
     1
 72
     1
  1
REV.
  7
ONSHAPE-STANDARD
  0
MTEXT
  5
1A9
102
{ACAD_XDICTIONARY
360
1AA
102
}
330
1F
100
AcDbEntity
  8
TITLE_BLOCK
100
AcDbMText
 10
405.928
 20
21.684
 30
0.0
 40
4.8768
 41
9.144000000000005
 71
     5
 72
     1
  1
-
  7
ONSHAPE-STANDARD-FIELDS
1001
ACAD
1000
ACAD_MTEXT_DEFINED_HEIGHT_BEGIN
1070
    46
1040
10.16
1000
ACAD_MTEXT_DEFINED_HEIGHT_END
  0
MTEXT
  5
1AF
330
1F
100
AcDbEntity
  8
TITLE_BLOCK
100
AcDbMText
 10
307.075264
 20
15.433568
 30
0.0
 40
1.30048
 41
22.35199999999998
 71
     1
 72
     1
  1
SCALE
  7
ONSHAPE-STANDARD
  0
MTEXT
  5
1B0
102
{ACAD_XDICTIONARY
360
1B1
102
}
330
1F
100
AcDbEntity
  8
TITLE_BLOCK
100
AcDbMText
 10
318.552
 20
13.302
 30
0.0
 40
2.92608
 41
20.31999999999999
 71
     5
 72
     1
  1
1:4
  7
ONSHAPE-STANDARD-FIELDS
1001
ACAD
1000
ACAD_MTEXT_DEFINED_HEIGHT_BEGIN
1070
    46
1040
6.603999999999999
1000
ACAD_MTEXT_DEFINED_HEIGHT_END
  0
MTEXT
  5
1B6
330
1F
100
AcDbEntity
  8
TITLE_BLOCK
100
AcDbMText
 10
329.427264
 20
15.433568
 30
0.0
 40
1.30048
 41
46.22800000000001
 71
     1
 72
     1
  1
WEIGHT
  7
ONSHAPE-STANDARD
  0
MTEXT
  5
1B7
330
1F
100
AcDbEntity
  8
TITLE_BLOCK
100
AcDbMText
 10
351.826
 20
13.302
 30
0.0
 40
2.92608
 41
46.22800000000001
 71
     5
 72
     1
  1
 
  7
ONSHAPE-STANDARD-FIELDS
1001
ACAD
1000
ACAD_MTEXT_DEFINED_HEIGHT_BEGIN
1070
    46
1040
6.603999999999999
1000
ACAD_MTEXT_DEFINED_HEIGHT_END
  0
MTEXT
  5
1B8
330
1F
100
AcDbEntity
  8
TITLE_BLOCK
100
AcDbMText
 10
375.655264
 20
15.433568
 30
0.0
 40
1.30048
 41
35.56
 71
     1
 72
     1
  1
SHEET
  7
ONSHAPE-STANDARD
  0
MTEXT
  5
1B9
102
{ACAD_XDICTIONARY
360
1BA
102
}
330
1F
100
AcDbEntity
  8
TITLE_BLOCK
100
AcDbMText
 10
393.736
 20
13.302
 30
0.0
 40
2.92608
 41
33.52800000000002
 71
     5
 72
     1
  1
1 of 1
  7
ONSHAPE-STANDARD-FIELDS
1001
ACAD
1000
ACAD_MTEXT_DEFINED_HEIGHT_BEGIN
1070
    46
1040
6.603999999999999
1000
ACAD_MTEXT_DEFINED_HEIGHT_END
  0
MTEXT
  5
1BF
102
{ACAD_XDICTIONARY
360
1C0
102
}
330
1F
100
AcDbEntity
  8
ANNOTATION_TEXT
 62
     7
 60
     1
100
AcDbMText
 10
172.3509073822503
 20
194.095587485119
 30
0.0
 40
3.5
 41
0.0
 71
     2
 72
     1
  1

  7
ONSHAPE-STANDARD-VIEW-LABE
1001
ACAD
1000
ACAD_MTEXT_DEFINED_HEIGHT_BEGIN
1070
    46
1040
3.5
1000
ACAD_MTEXT_DEFINED_HEIGHT_END
  0
DIMENSION
  5
1C6
102
{ACAD_REACTORS
102
}
102
{ACAD_XDICTIONARY
360
1C7
102
}
330
1F
100
AcDbEntity
  8
ANNOTATION_TEXT
100
AcDbDimension
  2
*D1
 10
239.0747720785544
 20
201.970587485119
 30
0.0
 11
239.0747720785544
 21
233.220587485119
 31
0.0
 70
   160
  3
ONSHAPE-ISO-25$0
100
AcDbAlignedDimension
 13
222.3509073822502
 23
264.470587485119
 33
18.74999999999997
 14
222.3509073822502
 24
201.970587485119
 34
18.74999999999997
 50
90.0
100
AcDbRotatedDimension
1001
ACAD
1000
DSTYLE
1002
{
1070
     4
1000
[]
1070
   144
1040
4.0
1070
     3
1000

1070
   288
1070
     1
1002
}
1001
ACAD_DIMASSOC_CALC_DIMLFAC
1040
-4.0
1001
ACAD_DIMASSOC_DIMLFAC
1040
-4.0
1001
ACAD_DIMASSOC_OVERRIDDEN_D
1040
0.0
  0
DIMENSION
  5
1E1
102
{ACAD_REACTORS
102
}
102
{ACAD_XDICTIONARY
360
1E2
102
}
330
1F
100
AcDbEntity
  8
ANNOTATION_TEXT
100
AcDbDimension
  2
*D2
 10
222.3509073822502
 20
195.1958352075407
 30
0.0
 11
173.0780967765197
 21
195.1958352075407
 31
0.0
 70
   160
  3
ONSHAPE-ISO-25$0
100
AcDbAlignedDimension
 13
122.3509073822502
 23
201.970587485119
 33
18.75000000000002
 14
222.3509073822502
 24
201.970587485119
 34
18.74999999999997
100
AcDbRotatedDimension
1001
ACAD
1000
DSTYLE
1002
{
1070
     4
1000
[]
1070
   144
1040
4.0
1070
     3
1000

1070
   288
1070
     1
1002
}
1001
ACAD_DIMASSOC_CALC_DIMLFAC
1040
-4.0
1001
ACAD_DIMASSOC_DIMLFAC
1040
-4.0
1001
ACAD_DIMASSOC_OVERRIDDEN_D
1040
0.0
  0
DIMENSION
  5
1F3
102
{ACAD_REACTORS
102
}
102
{ACAD_XDICTIONARY
360
1F4
102
}
330
1F
100
AcDbEntity
  8
ANNOTATION_TEXT
100
AcDbDimension
  2
*D3
 10
105.1310581711147
 20
201.970587485119
 30
0.0
 11
105.1310581711147
 21
221.1667490995452
 31
0.0
 70
   160
  3
ONSHAPE-ISO-25$0
100
AcDbAlignedDimension
 13
113.6009073822502
 23
233.220587485119
 33
-18.74999999999996
 14
122.3509073822502
 24
201.970587485119
 34
18.75000000000002
 50
90.0
100
AcDbRotatedDimension
1001
ACAD
1000
DSTYLE
1002
{
1070
     4
1000
[]
1070
   144
1040
4.0
1070
     3
1000

1070
   288
1070
     1
1002
}
1001
ACAD_DIMASSOC_CALC_DIMLFAC
1040
-4.0
1001
ACAD_DIMASSOC_DIMLFAC
1040
-4.0
1001
ACAD_DIMASSOC_OVERRIDDEN_D
1040
0.0
  0
DIMENSION
  5
205
102
{ACAD_REACTORS
102
}
102
{ACAD_XDICTIONARY
360
206
102
}
330
1F
100
AcDbEntity
  8
ANNOTATION_TEXT
100
AcDbDimension
  2
*D4
 10
91.19333297584706
 20
229.870587485119
 30
0.0
 11
91.19333297584706
 21
233.2205874851191
 31
0.0
 70
   160
  3
ONSHAPE-ISO-25$0
100
AcDbAlignedDimension
 13
113.6009073822502
 23
236.570587485119
 33
-18.74999999999996
 14
113.6009073822502
 24
229.870587485119
 34
-18.74999999999996
 50
90.0
100
AcDbRotatedDimension
1001
ACAD
1000
DSTYLE
1002
{
1070
     4
1000
[]
1070
   144
1040
4.0
1070
     3
1000

1070
   288
1070
     1
1002
}
1001
ACAD_DIMASSOC_CALC_DIMLFAC
1040
-4.0
1001
ACAD_DIMASSOC_DIMLFAC
1040
-4.0
1001
ACAD_DIMASSOC_OVERRIDDEN_D
1040
0.0
  0
POLYLINE
  5
21D
330
1F
100
AcDbEntity
  8
ANNOTATION_TEXT
 62
     7
100
AcDb2dPolyline
 66
     1
 10
0.0
 20
0.0
 30
0.0
 70
     1
  0
VERTEX
  5
21E
330
21D
100
AcDbEntity
  8
ANNOTATION_TEXT
 62
     7
100
AcDbVertex
100
AcDb2dVertex
 10
26.68088064132667
 20
263.0272202022869
 30
0.0
  0
VERTEX
  5
21F
330
21D
100
AcDbEntity
  8
ANNOTATION_TEXT
 62
     7
100
AcDbVertex
100
AcDb2dVertex
 10
26.68088064132667
 20
276.3540821459745
 30
0.0
  0
VERTEX
  5
220
330
21D
100
AcDbEntity
  8
ANNOTATION_TEXT
 62
     7
100
AcDbVertex
100
AcDb2dVertex
 10
95.42202505549562
 20
276.3540821459745
 30
0.0
  0
VERTEX
  5
221
330
21D
100
AcDbEntity
  8
ANNOTATION_TEXT
 62
     7
100
AcDbVertex
100
AcDb2dVertex
 10
95.42202505549562
 20
263.0272202022869
 30
0.0
  0
SEQEND
  5
222
330
21D
100
AcDbEntity
  8
ANNOTATION_TEXT
 62
     7
  0
MTEXT
  5
223
330
1F
100
AcDbEntity
  8
ANNOTATION_TEXT
 62
     7
100
AcDbMText
 10
28.43088064132667
 20
269.6906511741307
 30
0.0
 40
3.5
 41
0.0
 71
     4
 72
     1
  1
{\fNoto Sans;Tülle mit 2 Einkerbungen für\PSchlauch 1"ID}
  7
ONSHAPE-STANDARD
  0
SOLID
  5
227
330
1F
100
AcDbEntity
  8
ANNOTATION_LINES
 62
     7
100
AcDbTrace
 10
112.7632612610233
 20
238.9626493753519
 30
0.0
 11
113.6009073822502
 21
236.570587485119
 31
0.0
 12
112.0327355734465
 22
238.5616797203468
 32
0.0
 13
112.0327355734465
 23
238.5616797203468
 33
0.0
  0
LINE
  5
228
330
1F
100
AcDbEntity
  8
ANNOTATION_LINES
 62
     7
100
AcDbLine
 10
113.6009073822502
 20
236.570587485119
 30
-9.374999999999979
 11
95.42202505549562
 21
269.6906511741307
 31
9.374999999999979
  0
POLYLINE
  5
22D
330
1F
100
AcDbEntity
  8
ANNOTATION_TEXT
 62
     7
100
AcDb2dPolyline
 66
     1
 10
0.0
 20
0.0
 30
0.0
 70
     1
  0
VERTEX
  5
22E
330
22D
100
AcDbEntity
  8
ANNOTATION_TEXT
 62
     7
100
AcDbVertex
100
AcDb2dVertex
 10
252.5116041501687
 20
112.7202140636151
 30
0.0
  0
VERTEX
  5
22F
330
22D
100
AcDbEntity
  8
ANNOTATION_TEXT
 62
     7
100
AcDbVertex
100
AcDb2dVertex
 10
252.5116041501687
 20
126.0470760073026
 30
0.0
  0
VERTEX
  5
230
330
22D
100
AcDbEntity
  8
ANNOTATION_TEXT
 62
     7
100
AcDbVertex
100
AcDb2dVertex
 10
321.2527485643377
 20
126.0470760073026
 30
0.0
  0
VERTEX
  5
231
330
22D
100
AcDbEntity
  8
ANNOTATION_TEXT
 62
     7
100
AcDbVertex
100
AcDb2dVertex
 10
321.2527485643377
 20
112.7202140636151
 30
0.0
  0
SEQEND
  5
232
330
22D
100
AcDbEntity
  8
ANNOTATION_TEXT
 62
     7
  0
MTEXT
  5
233
330
1F
100
AcDbEntity
  8
ANNOTATION_TEXT
 62
     7
100
AcDbMText
 10
254.2616041501687
 20
119.3836450354589
 30
0.0
 40
3.5
 41
0.0
 71
     4
 72
     1
  1
{\fNoto Sans;Tülle mit 2 Einkerbungen für\PSchlauch 1"ID}
  7
ONSHAPE-STANDARD
  0
SOLID
  5
237
330
1F
100
AcDbEntity
  8
ANNOTATION_LINES
 62
     7
100
AcDbTrace
 10
231.1403514766601
 20
234.0364100496328
 30
0.0
 11
231.1009073822502
 21
236.570587485119
 31
0.0
 12
231.9601147479308
 22
234.1861852929812
 32
0.0
 13
231.9601147479308
 23
234.1861852929812
 33
0.0
  0
LINE
  5
238
330
1F
100
AcDbEntity
  8
ANNOTATION_LINES
 62
     7
100
AcDbLine
 10
231.1009073822502
 20
236.570587485119
 30
-9.375000000000009
 11
252.5116041501687
 21
119.3836450354589
 31
9.375000000000009
  0
MTEXT
  5
239
102
{ACAD_XDICTIONARY
360
23A
102
}
330
1F
100
AcDbEntity
  8
ANNOTATION_TEXT
 62
     7
 60
     1
100
AcDbMText
 10
62.02752736548538
 20
13.53771461561288
 30
0.0
 40
3.5
 41
0.0
 71
     2
 72
     1
  1

  7
ONSHAPE-STANDARD-VIEW-LABE
1001
ACAD
1000
ACAD_MTEXT_DEFINED_HEIGHT_BEGIN
1070
    46
1040
3.5
1000
ACAD_MTEXT_DEFINED_HEIGHT_END
  0
LINE
  5
245
330
1F
100
AcDbEntity
  8
SECTION_CUTTING_LINE
 62
     7
100
AcDbLine
 10
62.02752736548535
 20
15.41271461561289
 30
0.0
 11
62.02752736548535
 21
149.9127146156129
 31
0.0
  0
SOLID
  5
246
330
1F
100
AcDbEntity
  8
SECTION_CUTTING_LINE
 62
     7
100
AcDbTrace
 10
62.02752736548535
 20
15.41271461561289
 30
0.0
 11
59.52752736548535
 21
15.82938128227955
 31
0.0
 12
59.52752736548535
 22
14.99604794894622
 32
0.0
 13
59.52752736548535
 23
14.99604794894622
 33
0.0
  0
SOLID
  5
247
330
1F
100
AcDbEntity
  8
SECTION_CUTTING_LINE
 62
     7
100
AcDbTrace
 10
59.52752736548535
 20
15.51688128227955
 30
0.0
 11
57.02752736548535
 21
15.51688128227955
 31
0.0
 12
59.52752736548535
 22
15.30854794894622
 32
0.0
 13
57.02752736548535
 23
15.30854794894622
 33
0.0
  0
SOLID
  5
248
330
1F
100
AcDbEntity
  8
SECTION_CUTTING_LINE
 62
     7
100
AcDbTrace
 10
62.02752736548535
 20
149.9127146156129
 30
0.0
 11
59.52752736548535
 21
150.3293812822796
 31
0.0
 12
59.52752736548535
 22
149.4960479489463
 32
0.0
 13
59.52752736548535
 23
149.4960479489463
 33
0.0
  0
SOLID
  5
249
330
1F
100
AcDbEntity
  8
SECTION_CUTTING_LINE
 62
     7
100
AcDbTrace
 10
59.52752736548535
 20
150.0168812822796
 30
0.0
 11
57.02752736548535
 21
150.0168812822796
 31
0.0
 12
59.52752736548535
 22
149.8085479489463
 32
0.0
 13
57.02752736548535
 23
149.8085479489463
 33
0.0
  0
MTEXT
  5
24A
330
1F
100
AcDbEntity
  8
SECTION_CUTTING_LINE
 62
     7
100
AcDbMText
 10
53.07804961798308
 20
17.16271461561288
 30
0.0
 40
3.5
 41
3.12091280653951
 71
     1
 72
     1
  1
\fNoto Sans|b0|i0|c0|p0;\W1.0000000000;\T1.0000000000;\o\lA
  7
ONSHAPE-STANDARD
  0
MTEXT
  5
24B
330
1F
100
AcDbEntity
  8
SECTION_CUTTING_LINE
 62
     7
100
AcDbMText
 10
53.07804961798308
 20
151.6627146156129
 30
0.0
 40
3.5
 41
3.12091280653951
 71
     1
 72
     1
  1
\fNoto Sans|b0|i0|c0|p0;\W1.0000000000;\T1.0000000000;\o\lA
  7
ONSHAPE-STANDARD
  0
MTEXT
  5
24C
102
{ACAD_XDICTIONARY
360
24D
102
}
330
1F
100
AcDbEntity
  8
ANNOTATION_TEXT
 62
     7
100
AcDbMText
 10
155.8210579311355
 20
13.53771461561287
 30
0.0
 40
3.5
 41
0.0
 71
     2
 72
     1
  1
 A - A 
  7
ONSHAPE-STANDARD-VIEW-LABE
1001
ACAD
1000
ACAD_MTEXT_DEFINED_HEIGHT_BEGIN
1070
    46
1040
3.5
1000
ACAD_MTEXT_DEFINED_HEIGHT_END
  0
DIMENSION
  5
253
102
{ACAD_REACTORS
102
}
102
{ACAD_XDICTIONARY
360
254
102
}
330
1F
100
AcDbEntity
  8
ANNOTATION_TEXT
100
AcDbDimension
  2
*D5
 10
224.9175447904931
 20
62.53771461561288
 30
0.0
 11
224.9175447904931
 21
52.32790535130772
 31
0.0
 70
   160
  3
ONSHAPE-ISO-25$0
100
AcDbAlignedDimension
 13
174.8210579311354
 23
62.78771461561288
 33
0.0000000000000178
 14
174.8210579311354
 24
62.53771461561288
 34
0.000000000000032
 50
90.0
100
AcDbRotatedDimension
1001
ACAD
1000
DSTYLE
1002
{
1070
     4
1000
[]
1070
   144
1040
4.0
1070
     3
1000

1070
   288
1070
     1
1002
}
1001
ACAD_DIMASSOC_CALC_DIMLFAC
1040
-4.0
1001
ACAD_DIMASSOC_DIMLFAC
1040
-4.0
1001
ACAD_DIMASSOC_OVERRIDDEN_D
1040
0.0
  0
DIMENSION
  5
271
102
{ACAD_REACTORS
102
}
102
{ACAD_XDICTIONARY
360
272
102
}
330
1F
100
AcDbEntity
  8
ANNOTATION_TEXT
100
AcDbDimension
  2
*D6
 10
124.8210579311355
 20
69.99986148443165
 30
0.0
 11
151.5695200709392
 21
69.99986148443165
 31
0.0
 70
   160
  3
ONSHAPE-ISO-25$0
100
AcDbAlignedDimension
 13
174.8210579311354
 23
62.78771461561288
 33
0.0000000000000178
 14
124.8210579311355
 24
62.78771461561288
 34
0.0000000000000178
100
AcDbRotatedDimension
1001
ACAD
1000
DSTYLE
1002
{
1070
     4
1000
[]
1070
   144
1040
4.0
1070
     3
1000

1070
   288
1070
     1
1002
}
1001
ACAD_DIMASSOC_CALC_DIMLFAC
1040
-4.0
1001
ACAD_DIMASSOC_DIMLFAC
1040
-4.0
1001
ACAD_DIMASSOC_OVERRIDDEN_D
1040
0.0
  0
DIMENSION
  5
283
102
{ACAD_REACTORS
102
}
102
{ACAD_XDICTIONARY
360
284
102
}
330
1F
100
AcDbEntity
  8
ANNOTATION_TEXT
100
AcDbDimension
  2
*D7
 10
124.5710579311355
 20
68.9098098756024
 30
0.0
 11
114.3612486668303
 21
68.9098098756024
 31
0.0
 70
   160
  3
ONSHAPE-ISO-25$0
100
AcDbAlignedDimension
 13
124.8210579311355
 23
68.9098098756024
 33
0.0000000000000213
 14
124.5710579311355
 24
68.90980987560242
 34
0.0000000000000213
 50
0.0000000000000046
100
AcDbRotatedDimension
1001
ACAD
1000
DSTYLE
1002
{
1070
     4
1000
[]
1070
   144
1040
4.0
1070
     3
1000

1070
   288
1070
     1
1002
}
1001
ACAD_DIMASSOC_CALC_DIMLFAC
1040
-4.0
1001
ACAD_DIMASSOC_DIMLFAC
1040
-4.0
1001
ACAD_DIMASSOC_OVERRIDDEN_D
1040
0.0
  0
MTEXT
  5
298
102
{ACAD_XDICTIONARY
360
3A2
102
}
330
1F
100
AcDbEntity
  8
ANNOTATION_TEXT
100
AcDbMText
 10
160.5121986394382
 20
277.4215930872374
 30
0.0
 40
3.5
 41
30.77758855585831
 71
     1
 72
     5
  1
Bodenansicht
  7
ONSHAPE-STANDARD-NOTESTYLE
1001
ACAD
1000
ACAD_MTEXT_DEFINED_HEIGHT_BEGIN
1070
    46
1040
3.547683923705722
1000
ACAD_MTEXT_DEFINED_HEIGHT_END
  0
MTEXT
  5
29D
102
{ACAD_XDICTIONARY
360
3A4
102
}
330
1F
100
AcDbEntity
  8
ANNOTATION_TEXT
100
AcDbMText
 10
75.6597672647029
 20
152.8120924675334
 30
0.0
 40
3.5
 41
30.77758855585832
 71
     1
 72
     5
  1
Top Ansicht
  7
ONSHAPE-STANDARD-NOTESTYLE
1001
ACAD
1000
ACAD_MTEXT_DEFINED_HEIGHT_BEGIN
1070
    46
1040
3.547683923705722
1000
ACAD_MTEXT_DEFINED_HEIGHT_END
  0
DIMENSION
  5
29E
102
{ACAD_REACTORS
102
}
102
{ACAD_XDICTIONARY
360
29F
102
}
330
1F
100
AcDbEntity
  8
ANNOTATION_TEXT
100
AcDbDimension
  2
*D8
 10
152.6960579311355
 20
147.5156183970581
 30
0.0
 11
138.6335579311355
 21
147.5156183970581
 31
0.0
 70
   160
  3
ONSHAPE-ISO-25$0
100
AcDbAlignedDimension
 13
124.5710579311355
 23
132.6627146156129
 33
0.0000000000000391
 14
152.6960579311355
 24
132.6627146156129
 34
-0.0000000000000355
100
AcDbRotatedDimension
1001
ACAD
1000
DSTYLE
1002
{
1070
     4
1000
[]
1070
   144
1040
4.0
1070
     3
1000

1070
   288
1070
     1
1002
}
1001
ACAD_DIMASSOC_CALC_DIMLFAC
1040
-4.0
1001
ACAD_DIMASSOC_DIMLFAC
1040
-4.0
1001
ACAD_DIMASSOC_OVERRIDDEN_D
1040
0.0
  0
DIMENSION
  5
2B9
102
{ACAD_REACTORS
102
}
102
{ACAD_XDICTIONARY
360
2BA
102
}
330
1F
100
AcDbEntity
  8
ANNOTATION_TEXT
100
AcDbDimension
  2
*D9
 10
163.522207245973
 20
128.9127146156129
 30
0.0
 11
163.522207245973
 21
118.6933685665666
 31
0.0
 70
   160
  3
ONSHAPE-ISO-25$0
100
AcDbAlignedDimension
 13
152.6960579311355
 23
132.6627146156129
 33
-0.0000000000000355
 14
187.0710579311355
 24
128.9127146156129
 34
0.0000000000000107
 50
90.0
100
AcDbRotatedDimension
1001
ACAD
1000
DSTYLE
1002
{
1070
     4
1000
[]
1070
   144
1040
4.0
1070
     3
1000

1070
   288
1070
     1
1002
}
1001
ACAD_DIMASSOC_CALC_DIMLFAC
1040
-4.0
1001
ACAD_DIMASSOC_DIMLFAC
1040
-4.0
1001
ACAD_DIMASSOC_OVERRIDDEN_D
1040
0.0
  0
DIMENSION
  5
2CE
102
{ACAD_REACTORS
102
}
102
{ACAD_XDICTIONARY
360
2CF
102
}
330
1F
100
AcDbEntity
  8
ANNOTATION_TEXT
100
AcDbDimension
  2
*D10
 10
113.41327232682
 20
32.66271461561288
 30
0.0
 11
113.41327232682
 21
79.79209421220226
 31
0.0
 70
   160
  3
ONSHAPE-ISO-25$0
100
AcDbAlignedDimension
 13
124.5710579311355
 23
132.6627146156129
 33
0.0000000000000391
 14
124.5710579311355
 24
32.66271461561288
 34
0.0000000000000107
 50
90.0
100
AcDbRotatedDimension
1001
ACAD
1000
DSTYLE
1002
{
1070
     4
1000
[]
1070
   144
1040
4.0
1070
     3
1000

1070
   288
1070
     1
1002
}
1001
ACAD_DIMASSOC_CALC_DIMLFAC
1040
-4.0
1001
ACAD_DIMASSOC_DIMLFAC
1040
-4.0
1001
ACAD_DIMASSOC_OVERRIDDEN_D
1040
0.0
  0
DIMENSION
  5
2E0
102
{ACAD_REACTORS
102
}
102
{ACAD_XDICTIONARY
360
2E1
102
}
330
1F
100
AcDbEntity
  8
ANNOTATION_TEXT
100
AcDbDimension
  2
*D11
 10
190.7246852615338
 20
62.53771461561288
 30
0.0
 11
190.7246852615338
 21
52.39110470776443
 31
0.0
 70
   160
  3
ONSHAPE-ISO-25$0
100
AcDbAlignedDimension
 13
152.6960579311355
 23
32.6627146156129
 33
0.0
 14
174.8210579311354
 24
62.53771461561288
 34
0.000000000000032
 50
90.0
100
AcDbRotatedDimension
1001
ACAD
1000
DSTYLE
1002
{
1070
     4
1000
[]
1070
   144
1040
4.0
1070
     3
1000

1070
   288
1070
     1
1002
}
1001
ACAD_DIMASSOC_CALC_DIMLFAC
1040
-4.0
1001
ACAD_DIMASSOC_DIMLFAC
1040
-4.0
1001
ACAD_DIMASSOC_OVERRIDDEN_D
1040
0.0
  0
DIMENSION
  5
2F2
102
{ACAD_REACTORS
102
}
102
{ACAD_XDICTIONARY
360
2F3
102
}
330
1F
100
AcDbEntity
  8
ANNOTATION_TEXT
100
AcDbDimension
  2
*D12
 10
190.7246852615338
 20
62.78771461561288
 30
0.0
 11
190.7246852615338
 21
94.63488911528287
 31
0.0
 70
   160
  3
ONSHAPE-ISO-25$0
100
AcDbAlignedDimension
 13
152.6960579311355
 23
132.6627146156129
 33
-0.0000000000000355
 14
174.8210579311354
 24
62.78771461561288
 34
0.0000000000000178
 50
90.0
100
AcDbRotatedDimension
1001
ACAD
1000
DSTYLE
1002
{
1070
     4
1000
[]
1070
   144
1040
4.0
1070
     3
1000

1070
   288
1070
     1
1002
}
1001
ACAD_DIMASSOC_CALC_DIMLFAC
1040
-4.0
1001
ACAD_DIMASSOC_DIMLFAC
1040
-4.0
1001
ACAD_DIMASSOC_OVERRIDDEN_D
1040
0.0
  0
MTEXT
  5
304
102
{ACAD_XDICTIONARY
360
305
102
}
330
1F
100
AcDbEntity
  8
ANNOTATION_TEXT
 62
     7
 60
     1
100
AcDbMText
 10
343.0909854503117
 20
149.1235281716416
 30
0.0
 40
3.5
 41
0.0
 71
     2
 72
     1
  1

  7
ONSHAPE-STANDARD-VIEW-LABE
1001
ACAD
1000
ACAD_MTEXT_DEFINED_HEIGHT_BEGIN
1070
    46
1040
3.5
1000
ACAD_MTEXT_DEFINED_HEIGHT_END
  0
MTEXT
  5
30B
102
{ACAD_REACTORS
102
}
102
{ACAD_XDICTIONARY
360
3A6
102
}
330
1F
100
AcDbEntity
  8
ANNOTATION_TEXT
100
AcDbMText
 10
126.6583150569035
 20
175.4874587490717
 30
0.0
 40
3.5
 41
94.33787465940054
 71
     6
 72
     1
  1
Höhe muss individuell angepasst werden
  7
ONSHAPE-STANDARD-NOTESTYLE
1001
ONSHAPE_NOTES_REORDERING_D
1071
        0
1070
     0
1001
ACAD
1000
ACAD_MTEXT_DEFINED_HEIGHT_BEGIN
1070
    46
1040
3.547683923705722
1000
ACAD_MTEXT_DEFINED_HEIGHT_END
  0
SOLID
  5
312
330
1F
100
AcDbEntity
  8
ANNOTATION_TEXT
100
AcDbTrace
 10
113.8007442746403
 20
227.3439936658534
 30
0.0
 11
113.6009073822502
 21
229.870587485119
 31
0.0
 12
114.6093781137324
 22
227.5453782698321
 32
0.0
 13
114.6093781137324
 23
227.5453782698321
 33
0.0
  0
POLYLINE
  5
313
330
1F
100
AcDbEntity
  8
ANNOTATION_TEXT
100
AcDb2dPolyline
 66
     1
 10
0.0
 20
0.0
 30
62.40884244700025
210
0.0
220
0.3102666717143343
230
0.9506495634161464
  0
VERTEX
  5
314
330
313
100
AcDbEntity
  8
ANNOTATION_TEXT
100
AcDbVertex
100
AcDb2dVertex
 10
-113.6009073822502
 20
-221.4351236822633
 30
62.40884244700025
  0
VERTEX
  5
315
330
313
100
AcDbEntity
  8
ANNOTATION_TEXT
100
AcDbVertex
100
AcDb2dVertex
 10
-127.9083150569035
 20
-161.0032381162129
 30
62.40884244700025
  0
VERTEX
  5
316
330
313
100
AcDbEntity
  8
ANNOTATION_TEXT
100
AcDbVertex
100
AcDb2dVertex
 10
-32.32044039750296
 20
-161.0032381162129
 30
62.40884244700025
  0
SEQEND
  5
317
330
313
100
AcDbEntity
  8
ANNOTATION_TEXT
  0
ENDSEC
  0
SECTION
  2
OBJECTS
  0
DICTIONARY
  5
C
330
0
100
AcDbDictionary
  3
ACAD_FIELDLIST
350
1C5
  3
ACAD_GROUP
350
D
  3
ACAD_LAYOUT
350
1A
  3
ACAD_MATERIAL
350
43
  3
ACAD_MLEADERSTYLE
350
6B
  3
ACAD_MLINESTYLE
350
17
  3
ACAD_PLOTSETTINGS
350
19
  3
ACAD_SCALELIST
350
47
  3
ACAD_VISUALSTYLE
350
2A
  3
ACDB_RECOMPOSE_DATA
350
3B3
  3
ACDBHEADERROUNDTRIPXREC
350
378
  3
ACDBVARIABLEDICTIONARY
350
6E
  3
DWGPROPS
350
39F
  3
ONSHAPE_DATA
350
318
  0
DICTIONARY
  5
3A8
330
8
100
AcDbDictionary
280
     1
  3
ACAD_XREC_ROUNDTRIP
360
3A9
  0
DICTIONARY
  5
15E
330
15D
100
AcDbDictionary
280
     1
  0
DICTIONARY
  5
165
330
164
100
AcDbDictionary
280
     1
  0
DICTIONARY
  5
16F
330
16E
100
AcDbDictionary
280
     1
  0
DICTIONARY
  5
175
330
174
100
AcDbDictionary
280
     1
  0
DICTIONARY
  5
18F
330
18E
100
AcDbDictionary
280
     1
  0
DICTIONARY
  5
195
330
194
100
AcDbDictionary
280
     1
  3
ACAD_MTEXT_RT
360
3A0
  0
DICTIONARY
  5
199
330
198
100
AcDbDictionary
280
     1
  3
ACAD_MTEXT_RT
360
3A1
  0
DICTIONARY
  5
19C
330
19B
100
AcDbDictionary
280
     1
  0
DICTIONARY
  5
1A3
330
1A2
100
AcDbDictionary
280
     1
  0
DICTIONARY
  5
1AA
330
1A9
100
AcDbDictionary
280
     1
  0
DICTIONARY
  5
1B1
330
1B0
100
AcDbDictionary
280
     1
  0
DICTIONARY
  5
1BA
330
1B9
100
AcDbDictionary
280
     1
  0
DICTIONARY
  5
1C0
330
1BF
100
AcDbDictionary
280
     1
  3
ONSHAPE_VIEW_ID
360
1C1
  0
DICTIONARY
  5
1C7
330
1C6
100
AcDbDictionary
280
     1
  3
OS_DIM_DISPLAY_FLAG_DATA
360
1CA
  0
DICTIONARY
  5
1E2
330
1E1
100
AcDbDictionary
280
     1
  3
OS_DIM_DISPLAY_FLAG_DATA
360
1E5
  0
DICTIONARY
  5
1F4
330
1F3
100
AcDbDictionary
280
     1
  3
OS_DIM_DISPLAY_FLAG_DATA
360
1F7
  0
DICTIONARY
  5
206
330
205
100
AcDbDictionary
280
     1
  3
OS_DIM_DISPLAY_FLAG_DATA
360
209
  0
DICTIONARY
  5
23A
330
239
100
AcDbDictionary
280
     1
  3
ONSHAPE_VIEW_ID
360
23B
  0
DICTIONARY
  5
24D
330
24C
100
AcDbDictionary
280
     1
  3
ONSHAPE_VIEW_ID
360
24E
  0
DICTIONARY
  5
254
330
253
100
AcDbDictionary
280
     1
  3
OS_DIM_DISPLAY_FLAG_DATA
360
257
  0
DICTIONARY
  5
272
330
271
100
AcDbDictionary
280
     1
  3
OS_DIM_DISPLAY_FLAG_DATA
360
275
  0
DICTIONARY
  5
284
330
283
100
AcDbDictionary
280
     1
  3
OS_DIM_DISPLAY_FLAG_DATA
360
287
  0
DICTIONARY
  5
3A2
330
298
100
AcDbDictionary
280
     1
  3
ACAD_MTEXT_RT
360
3A3
  0
DICTIONARY
  5
3A4
330
29D
100
AcDbDictionary
280
     1
  3
ACAD_MTEXT_RT
360
3A5
  0
DICTIONARY
  5
29F
330
29E
100
AcDbDictionary
280
     1
  3
OS_DIM_DISPLAY_FLAG_DATA
360
2A2
  0
DICTIONARY
  5
2BA
330
2B9
100
AcDbDictionary
280
     1
  3
OS_DIM_DISPLAY_FLAG_DATA
360
2BD
  0
DICTIONARY
  5
2CF
330
2CE
100
AcDbDictionary
280
     1
  3
OS_DIM_DISPLAY_FLAG_DATA
360
2D2
  0
DICTIONARY
  5
2E1
330
2E0
100
AcDbDictionary
280
     1
  3
OS_DIM_DISPLAY_FLAG_DATA
360
2E4
  0
DICTIONARY
  5
2F3
330
2F2
100
AcDbDictionary
280
     1
  3
OS_DIM_DISPLAY_FLAG_DATA
360
2F6
  0
DICTIONARY
  5
305
330
304
100
AcDbDictionary
280
     1
  3
ONSHAPE_VIEW_ID
360
306
  0
DICTIONARY
  5
3A6
330
30B
100
AcDbDictionary
280
     1
  3
ACAD_MTEXT_RT
360
3A7
  0
ACAD_PROXY_OBJECT
  5
1C5
102
{ACAD_REACTORS
330
C
102
}
330
C
100
AcDbProxyObject
 90
      499
 91
      509
 93
       11
310
4500
330
161
330
162
330
168
330
169
330
172
330
173
330
178
330
179
330
192
330
193
330
19F
330
1A0
330
1A6
330
1A7
330
1AD
330
1AE
330
1B4
330
1B5
330
1BD
330
1BE
 94
        0
  0
DICTIONARY
  5
D
102
{ACAD_REACTORS
330
C
102
}
330
C
100
AcDbDictionary
  0
DICTIONARY
  5
1A
102
{ACAD_REACTORS
330
C
102
}
330
C
100
AcDbDictionary
  0
DICTIONARY
  5
43
102
{ACAD_REACTORS
330
C
102
}
330
C
100
AcDbDictionary
  3
BYBLOCK
350
45
  3
BYLAYER
350
44
  3
GLOBAL
350
46
  0
DICTIONARY
  5
6B
102
{ACAD_REACTORS
330
C
102
}
330
C
100
AcDbDictionary
  3
STANDARD
350
6C
  0
DICTIONARY
  5
17
102
{ACAD_REACTORS
330
C
102
}
330
C
100
AcDbDictionary
  3
STANDARD
350
18
  0
DICTIONARY
  5
19
102
{ACAD_REACTORS
330
C
102
}
330
C
100
AcDbDictionary
  0
DICTIONARY
  5
47
102
{ACAD_REACTORS
330
C
102
}
330
C
100
AcDbDictionary
  3
A0
350
48
  3
A1
350
49
  3
A2
350
4A
  3
A3
350
4B
  3
A4
350
4C
  3
A5
350
4D
  3
A6
350
4E
  3
A7
350
4F
  3
A8
350
50
  3
A9
350
51
  3
B0
350
52
  3
B1
350
53
  3
B2
350
54
  3
B3
350
55
  3
B4
350
56
  3
B5
350
57
  3
B6
350
58
  3
B7
350
59
  3
B8
350
5A
  3
B9
350
5B
  3
C0
350
5C
  3
C1
350
5D
  3
C2
350
5E
  3
C3
350
5F
  3
C4
350
60
  3
C5
350
61
  3
C6
350
62
  3
C7
350
63
  3
C8
350
64
  3
C9
350
65
  3
D0
350
66
  3
D1
350
67
  3
D2
350
68
  0
DICTIONARY
  5
2A
102
{ACAD_REACTORS
330
C
102
}
330
C
100
AcDbDictionary
  3
2DWIREFRAME
350
2F
  3
BASIC
350
32
  3
BRIGHTEN
350
36
  3
COLORCHANGE
350
3A
  3
CONCEPTUAL
350
34
  3
DIM
350
35
  3
EDGECOLOROFF
350
3D
  3
FACEPATTERN
350
39
  3
FLAT
350
2B
  3
FLATWITHEDGES
350
2C
  3
GOURAUD
350
2D
  3
GOURAUDWITHEDGES
350
2E
  3
HIDDEN
350
31
  3
JITTEROFF
350
3B
  3
LINEPATTERN
350
38
  3
OVERHANGOFF
350
3C
  3
REALISTIC
350
33
  3
SHADED
350
42
  3
SHADED_WITH_EDGES
350
41
  3
SHADES_OF_GRAY
350
3E
  3
SKETCHY
350
3F
  3
THICKEN
350
37
  3
WIREFRAME
350
30
  3
X-RAY
350
40
  0
XRECORD
  5
3B3
102
{ACAD_REACTORS
330
C
102
}
330
C
100
AcDbXrecord
 90
        1
330
194
330
198
330
298
330
29D
330
30B
  0
DICTIONARY
  5
378
102
{ACAD_REACTORS
330
C
102
}
330
C
100
AcDbDictionary
  3
CEPSNID
350
382
  3
CEPSNTYPE
350
381
  3
DIMSTYLEDATA
350
398
  3
FINGERPRINTGUID
350
383
  3
HYPERLINKBASE
350
37B
  3
INSUNITS
350
380
  3
LAYOUTDICT
350
37D
  3
LWETCUNION
350
37F
  3
PLOTSETDICT
350
37E
  3
PSVPSCALE
350
385
  3
PUCSBASE
350
388
  3
PUCSORGBACK
350
38E
  3
PUCSORGBOTTOM
350
38A
  3
PUCSORGFRONT
350
38D
  3
PUCSORGLEFT
350
38B
  3
PUCSORGRIGHT
350
38C
  3
PUCSORGTOP
350
389
  3
PUCSORTHOREF
350
386
  3
PUCSORTHOVIEW
350
387
  3
STYLESHEET
350
37C
  3
TSTACKALIGN
350
379
  3
TSTACKSIZE
350
37A
  3
UCSBASE
350
391
  3
UCSORGBACK
350
397
  3
UCSORGBOTTOM
350
393
  3
UCSORGFRONT
350
396
  3
UCSORGLEFT
350
394
  3
UCSORGRIGHT
350
395
  3
UCSORGTOP
350
392
  3
UCSORTHOREF
350
38F
  3
UCSORTHOVIEW
350
390
  3
VERSIONGUID
350
384
  0
DICTIONARY
  5
6E
102
{ACAD_REACTORS
330
C
102
}
330
C
100
AcDbDictionary
  3
CANNOSCALE
350
3AA
  3
CMLEADERSTYLE
350
39A
  3
CTABLESTYLE
350
399
  3
DIMASSOC
350
39D
  3
HIDETEXT
350
39E
  3
MSLTSCALE
350
3AB
  3
OLEFRAME
350
6F
  0
XRECORD
  5
39F
102
{ACAD_REACTORS
330
C
102
}
330
C
100
AcDbXrecord
  1
DWGPROPS COOKIE
  2

  3

  4

  6

  7

  8
nobody
  9

300
=
301
=
302
=
303
=
304
=
305
=
306
=
307
=
308
=
309
=
 40
0.0
 41
2461083.465718183
 42
2461083.46571904
  1

 90
        0
  0
DICTIONARY
  5
318
102
{ACAD_REACTORS
330
C
102
}
330
C
100
AcDbDictionary
280
     1
  3
DIM_UNITS
360
319
  3
ONSHAPE_ANG_TOL_PRECISION
360
31C
  3
ONSHAPE_BREAK_DIMENSION_DEFAULT
360
322
  3
ONSHAPE_DIMENSION_TEXT_HOR
360
321
  3
ONSHAPE_FITCLASS_TOL_PRECISION
360
31D
  3
ONSHAPE_JOGDIMENSION_LOCK_
360
31F
  3
ONSHAPE_SHOWDIMENSIONSLINE
360
320
  3
ONSHAPE_UNDERLINEOVERRIDEN
360
31E
  3
ONSHAPE_VSHARP_EXTENSION
360
31B
  3
ONSHAPE_WELD_STANDARD
360
31A
  0
XRECORD
  5
3A9
102
{ACAD_REACTORS
330
3A8
102
}
330
3A8
100
AcDbXrecord
102
VTR_0.000_0.000_1.000_1.000_VISUALSTYLE
340
2F
102
VTR_0.000_0.000_1.000_1.000_GRIDDISPLAY
 70
     3
102
VTR_0.000_0.000_1.000_1.000_GRIDMAJOR
 70
     5
102
VTR_0.000_0.000_1.000_1.000_DEFAULTLIGHTING
280
     1
102
VTR_0.000_0.000_1.000_1.000_DEFAULTLIGHTINGTYPE
 70
     1
102
VTR_0.000_0.000_1.000_1.000_BRIGHTNESS
141
0.0
102
VTR_0.000_0.000_1.000_1.000_CONTRAST
142
0.0
  0
XRECORD
  5
3A0
102
{ACAD_REACTORS
330
195
102
}
330
195
100
AcDbXrecord
 40
3020.0
  1
{\pxqc;Koerper}
  0
XRECORD
  5
3A1
102
{ACAD_REACTORS
330
199
102
}
330
199
100
AcDbXrecord
 40
483.0
  1
{\pxqc;BfG}
  0
XRECORD
  5
1C1
102
{ACAD_REACTORS
330
1C0
102
}
330
1C0
100
AcDbXrecord
330
0
  0
XRECORD
  5
1CA
102
{ACAD_REACTORS
330
1C7
102
}
330
1C7
100
AcDbXrecord
 90
        1
 90
        0
  0
XRECORD
  5
1E5
102
{ACAD_REACTORS
330
1E2
102
}
330
1E2
100
AcDbXrecord
 90
        1
 90
        0
  0
XRECORD
  5
1F7
102
{ACAD_REACTORS
330
1F4
102
}
330
1F4
100
AcDbXrecord
 90
        1
 90
        0
  0
XRECORD
  5
209
102
{ACAD_REACTORS
330
206
102
}
330
206
100
AcDbXrecord
 90
        1
 90
        0
  0
XRECORD
  5
23B
102
{ACAD_REACTORS
330
23A
102
}
330
23A
100
AcDbXrecord
330
0
  0
XRECORD
  5
24E
102
{ACAD_REACTORS
330
24D
102
}
330
24D
100
AcDbXrecord
330
0
  0
XRECORD
  5
257
102
{ACAD_REACTORS
330
254
102
}
330
254
100
AcDbXrecord
 90
        1
 90
        0
  0
XRECORD
  5
275
102
{ACAD_REACTORS
330
272
102
}
330
272
100
AcDbXrecord
 90
        1
 90
        0
  0
XRECORD
  5
287
102
{ACAD_REACTORS
330
284
102
}
330
284
100
AcDbXrecord
 90
        1
 90
        0
  0
XRECORD
  5
3A3
102
{ACAD_REACTORS
330
3A2
102
}
330
3A2
100
AcDbXrecord
 40
8285.0
  1
{\pxql;Bodenansicht}
  0
XRECORD
  5
3A5
102
{ACAD_REACTORS
330
3A4
102
}
330
3A4
100
AcDbXrecord
 40
6607.0
  1
{\pxql;Top Ansicht}
  0
XRECORD
  5
2A2
102
{ACAD_REACTORS
330
29F
102
}
330
29F
100
AcDbXrecord
 90
        1
 90
        0
  0
XRECORD
  5
2BD
102
{ACAD_REACTORS
330
2BA
102
}
330
2BA
100
AcDbXrecord
 90
        1
 90
        0
  0
XRECORD
  5
2D2
102
{ACAD_REACTORS
330
2CF
102
}
330
2CF
100
AcDbXrecord
 90
        1
 90
        0
  0
XRECORD
  5
2E4
102
{ACAD_REACTORS
330
2E1
102
}
330
2E1
100
AcDbXrecord
 90
        1
 90
        0
  0
XRECORD
  5
2F6
102
{ACAD_REACTORS
330
2F3
102
}
330
2F3
100
AcDbXrecord
 90
        1
 90
        0
  0
XRECORD
  5
306
102
{ACAD_REACTORS
330
305
102
}
330
305
100
AcDbXrecord
330
0
  0
XRECORD
  5
3A7
102
{ACAD_REACTORS
330
3A6
102
}
330
3A6
100
AcDbXrecord
 40
74313.0
  1
{\pxqr;Höhe muss individuell angepasst werden}
  0
MATERIAL
  5
45
102
{ACAD_REACTORS
330
43
102
}
102
{ACAD_XDICTIONARY
360
3AE
102
}
330
43
100
AcDbMaterial
  1
BYBLOCK
  0
MATERIAL
  5
44
102
{ACAD_REACTORS
330
43
102
}
102
{ACAD_XDICTIONARY
360
3AC
102
}
330
43
100
AcDbMaterial
  1
BYLAYER
  0
MATERIAL
  5
46
102
{ACAD_REACTORS
330
43
102
}
102
{ACAD_XDICTIONARY
360
3B0
102
}
330
43
100
AcDbMaterial
  1
GLOBAL
  0
ACAD_PROXY_OBJECT
  5
6C
102
{ACAD_REACTORS
330
6B
102
}
330
6B
100
AcDbProxyObject
 90
      499
 91
      505
 93
      610
310
40901902A4063FBFFFFFE056BD1B81E855B9FC0AD7A3703D0AD73F4214DD185B99185C9900AD7A3703D0AC73F90140501A02B5E8DC0F42B1CFC02B5E8DC0F42B1CFE5764000000000000300FC0
340
14
340
0
340
11
340
0
 94
        0
1001
ACAD_MLEADERVER
1070
     2
  0
MLINESTYLE
  5
18
102
{ACAD_REACTORS
330
17
102
}
330
17
100
AcDbMlineStyle
  2
Standard
 70
     0
  3

 62
   256
 51
90.0
 52
90.0
 71
     2
 49
0.5
 62
   256
  6
BYLAYER
 49
-0.5
 62
   256
  6
BYLAYER
  0
ACAD_PROXY_OBJECT
  5
48
102
{ACAD_REACTORS
330
47
102
}
330
47
100
AcDbProxyObject
 90
      499
 91
      503
 93
       41
310
903313A31580
  0
ACAD_PROXY_OBJECT
  5
49
102
{ACAD_REACTORS
330
47
102
}
330
47
100
AcDbProxyObject
 90
      499
 91
      503
 93
      105
310
903313A324000000000000004000
  0
ACAD_PROXY_OBJECT
  5
4A
102
{ACAD_REACTORS
330
47
102
}
330
47
100
AcDbProxyObject
 90
      499
 91
      503
 93
      105
310
903313A344000000000000104000
  0
ACAD_PROXY_OBJECT
  5
4B
102
{ACAD_REACTORS
330
47
102
}
330
47
100
AcDbProxyObject
 90
      499
 91
      503
 93
      105
310
903313A354000000000000144000
  0
ACAD_PROXY_OBJECT
  5
4C
102
{ACAD_REACTORS
330
47
102
}
330
47
100
AcDbProxyObject
 90
      499
 91
      503
 93
      105
310
903313A384000000000000204000
  0
ACAD_PROXY_OBJECT
  5
4D
102
{ACAD_REACTORS
330
47
102
}
330
47
100
AcDbProxyObject
 90
      499
 91
      503
 93
      113
310
904313A31304000000000000244000
  0
ACAD_PROXY_OBJECT
  5
4E
102
{ACAD_REACTORS
330
47
102
}
330
47
100
AcDbProxyObject
 90
      499
 91
      503
 93
      113
310
904313A31364000000000000304000
  0
ACAD_PROXY_OBJECT
  5
4F
102
{ACAD_REACTORS
330
47
102
}
330
47
100
AcDbProxyObject
 90
      499
 91
      503
 93
      113
310
904313A32304000000000000344000
  0
ACAD_PROXY_OBJECT
  5
50
102
{ACAD_REACTORS
330
47
102
}
330
47
100
AcDbProxyObject
 90
      499
 91
      503
 93
      113
310
904313A333040000000000003E4000
  0
ACAD_PROXY_OBJECT
  5
51
102
{ACAD_REACTORS
330
47
102
}
330
47
100
AcDbProxyObject
 90
      499
 91
      503
 93
      113
310
904313A34304000000000000444000
  0
ACAD_PROXY_OBJECT
  5
52
102
{ACAD_REACTORS
330
47
102
}
330
47
100
AcDbProxyObject
 90
      499
 91
      503
 93
      113
310
904313A35304000000000000494000
  0
ACAD_PROXY_OBJECT
  5
53
102
{ACAD_REACTORS
330
47
102
}
330
47
100
AcDbProxyObject
 90
      499
 91
      503
 93
      121
310
905313A3130304000000000000594000
  0
ACAD_PROXY_OBJECT
  5
54
102
{ACAD_REACTORS
330
47
102
}
330
47
100
AcDbProxyObject
 90
      499
 91
      503
 93
      105
310
903323A310000000000000010100
  0
ACAD_PROXY_OBJECT
  5
55
102
{ACAD_REACTORS
330
47
102
}
330
47
100
AcDbProxyObject
 90
      499
 91
      503
 93
      105
310
903343A310000000000000410100
  0
ACAD_PROXY_OBJECT
  5
56
102
{ACAD_REACTORS
330
47
102
}
330
47
100
AcDbProxyObject
 90
      499
 91
      503
 93
      105
310
903383A310000000000000810100
  0
ACAD_PROXY_OBJECT
  5
57
102
{ACAD_REACTORS
330
47
102
}
330
47
100
AcDbProxyObject
 90
      499
 91
      503
 93
      113
310
90431303A310000000000000910100
  0
ACAD_PROXY_OBJECT
  5
58
102
{ACAD_REACTORS
330
47
102
}
330
47
100
AcDbProxyObject
 90
      499
 91
      503
 93
      121
310
9053130303A310000000000001650100
  0
ACAD_PROXY_OBJECT
  5
59
102
{ACAD_REACTORS
330
47
102
}
330
47
100
AcDbProxyObject
 90
      499
 91
      503
 93
      257
310
90E312F31323822203D2031272D3022000000000000200FC000000000000284000
  0
ACAD_PROXY_OBJECT
  5
5A
102
{ACAD_REACTORS
330
47
102
}
330
47
100
AcDbProxyObject
 90
      499
 91
      503
 93
      249
310
90D312F363422203D2031272D3022000000000000240FC000000000000284000
  0
ACAD_PROXY_OBJECT
  5
5B
102
{ACAD_REACTORS
330
47
102
}
330
47
100
AcDbProxyObject
 90
      499
 91
      503
 93
      249
310
90D312F333222203D2031272D3022000000000000280FC000000000000284000
  0
ACAD_PROXY_OBJECT
  5
5C
102
{ACAD_REACTORS
330
47
102
}
330
47
100
AcDbProxyObject
 90
      499
 91
      503
 93
      249
310
90D312F313622203D2031272D30220000000000002C0FC000000000000284000
  0
ACAD_PROXY_OBJECT
  5
5D
102
{ACAD_REACTORS
330
47
102
}
330
47
100
AcDbProxyObject
 90
      499
 91
      503
 93
      249
310
90D332F333222203D2031272D30220000000000002E0FC000000000000284000
  0
ACAD_PROXY_OBJECT
  5
5E
102
{ACAD_REACTORS
330
47
102
}
330
47
100
AcDbProxyObject
 90
      499
 91
      503
 93
      241
310
90C312F3822203D2031272D3022000000000000300FC000000000000284000
  0
ACAD_PROXY_OBJECT
  5
5F
102
{ACAD_REACTORS
330
47
102
}
330
47
100
AcDbProxyObject
 90
      499
 91
      503
 93
      249
310
90D332F313622203D2031272D3022000000000000320FC000000000000284000
  0
ACAD_PROXY_OBJECT
  5
60
102
{ACAD_REACTORS
330
47
102
}
330
47
100
AcDbProxyObject
 90
      499
 91
      503
 93
      241
310
90C312F3422203D2031272D3022000000000000340FC000000000000284000
  0
ACAD_PROXY_OBJECT
  5
61
102
{ACAD_REACTORS
330
47
102
}
330
47
100
AcDbProxyObject
 90
      499
 91
      503
 93
      241
310
90C332F3822203D2031272D3022000000000000360FC000000000000284000
  0
ACAD_PROXY_OBJECT
  5
62
102
{ACAD_REACTORS
330
47
102
}
330
47
100
AcDbProxyObject
 90
      499
 91
      503
 93
      241
310
90C312F3222203D2031272D3022000000000000380FC000000000000284000
  0
ACAD_PROXY_OBJECT
  5
63
102
{ACAD_REACTORS
330
47
102
}
330
47
100
AcDbProxyObject
 90
      499
 91
      503
 93
      241
310
90C332F3422203D2031272D30220000000000003A0FC000000000000284000
  0
ACAD_PROXY_OBJECT
  5
64
102
{ACAD_REACTORS
330
47
102
}
330
47
100
AcDbProxyObject
 90
      499
 91
      503
 93
      161
310
90A3122203D2031272D30224000000000000284000
  0
ACAD_PROXY_OBJECT
  5
65
102
{ACAD_REACTORS
330
47
102
}
330
47
100
AcDbProxyObject
 90
      499
 91
      503
 93
      257
310
90E312D312F3222203D2031272D30220000000000003E0FC000000000000284000
  0
ACAD_PROXY_OBJECT
  5
66
102
{ACAD_REACTORS
330
47
102
}
330
47
100
AcDbProxyObject
 90
      499
 91
      503
 93
      225
310
90A3322203D2031272D302200000000000002100000000000000284000
  0
ACAD_PROXY_OBJECT
  5
67
102
{ACAD_REACTORS
330
47
102
}
330
47
100
AcDbProxyObject
 90
      499
 91
      503
 93
      225
310
90A3622203D2031272D302200000000000006100000000000000284000
  0
ACAD_PROXY_OBJECT
  5
68
102
{ACAD_REACTORS
330
47
102
}
330
47
100
AcDbProxyObject
 90
      499
 91
      503
 93
      249
310
90D31272D3022203D2031272D30220000000000000A100000000000000284000
  0
ACAD_PROXY_OBJECT
  5
2F
102
{ACAD_REACTORS
330
2A
102
}
330
2A
100
AcDbProxyObject
 90
      499
 91
      501
 93
      436
310
42CC9915DA5C99599C985B595049028333333333333E33F0000000000000F90107901411070040501600405405064090741402480A0340
1001
ACAD
1000
AcDbSavedByObjectVersion
1070
     0
  0
ACAD_PROXY_OBJECT
  5
32
102
{ACAD_REACTORS
330
2A
102
}
330
2A
100
AcDbProxyObject
 90
      499
 91
      501
 93
      388
310
4150985CDA58D07406404333333333333E33F0000000000000F90107A41107004050150841D405064090741402480A0350
1001
ACAD
1000
AcDbSavedByObjectVersion
1070
     0
  0
ACAD_PROXY_OBJECT
  5
36
102
{ACAD_REACTORS
330
2A
102
}
330
2A
100
AcDbProxyObject
 90
      499
 91
      501
 93
      428
310
42109C9A59DA1D195B90C409028333333333333E33F0000000000000F9010790141107004050150841D405064090741402480A029950
1001
ACAD
1000
AcDbSavedByObjectVersion
1070
     0
  0
ACAD_PROXY_OBJECT
  5
3A
102
{ACAD_REACTORS
330
2A
102
}
330
2A
100
AcDbProxyObject
 90
      499
 91
      501
 93
      452
310
42D0DBDB1BDC90DA185B99D95104090240C333333333333E33F0000000000000F90108901411070040501508421405064090741402480A0350
1001
ACAD
1000
AcDbSavedByObjectVersion
1070
     0
  0
ACAD_PROXY_OBJECT
  5
34
102
{ACAD_REACTORS
330
2A
102
}
330
2A
100
AcDbProxyObject
 90
      499
 91
      501
 93
      500
310
4290DBDB98D95C1D1D585B10940D028333333333333E33F0000000000000F90107902409070040501000000000018199010841D405064090740C02480A0340
1001
ACAD
1000
AcDbSavedByObjectVersion
1070
     0
  0
ACAD_PROXY_OBJECT
  5
35
102
{ACAD_REACTORS
330
2A
102
}
330
2A
100
AcDbProxyObject
 90
      499
 91
      501
 93
      412
310
40D11A5B50B409028333333333333E33F0000000000000F9010790141107004050150841D405064090741402480A02677FFFFFD0
1001
ACAD
1000
AcDbSavedByObjectVersion
1070
     0
  0
ACAD_PROXY_OBJECT
  5
3D
102
{ACAD_REACTORS
330
2A
102
}
330
2A
100
AcDbProxyObject
 90
      499
 91
      501
 93
      452
310
43115919D950DBDB1BDC93D999916409028333333333333E33F0000000000000F9010790141107004050150841D405064090741402480A0350
1001
ACAD
1000
AcDbSavedByObjectVersion
1070
     0
  0
ACAD_PROXY_OBJECT
  5
39
102
{ACAD_REACTORS
330
2A
102
}
330
2A
100
AcDbProxyObject
 90
      499
 91
      501
 93
      444
310
42D19858D95C185D1D195C9B90F409028333333333333E33F0000000000000F9010790141107004050150841D405064090741402480A0350
1001
ACAD
1000
AcDbSavedByObjectVersion
1070
     0
  0
ACAD_PROXY_OBJECT
  5
2B
102
{ACAD_REACTORS
330
2A
102
}
330
2A
100
AcDbProxyObject
 90
      499
 91
      501
 93
      380
310
41119B185D240901404333333333333E33F0000000000000F9010740A907004050150841D405064090741402480A1B50
1001
ACAD
1000
AcDbSavedByObjectVersion
1070
     0
  0
ACAD_PROXY_OBJECT
  5
2C
102
{ACAD_REACTORS
330
2A
102
}
330
2A
100
AcDbProxyObject
 90
      499
 91
      501
 93
      468
310
43519B185D15DA5D1A115919D95CD0140901404333333333333E33F0000000000000F90107409019070040501600405405064090741402480A1B50
1001
ACAD
1000
AcDbSavedByObjectVersion
1070
     0
  0
ACAD_PROXY_OBJECT
  5
2D
102
{ACAD_REACTORS
330
2A
102
}
330
2A
100
AcDbProxyObject
 90
      499
 91
      501
 93
      404
310
41D1DBDD5C985D5910240902404333333333333E33F0000000000000F9010740A9070040501641D405064090741402480A1B50
1001
ACAD
1000
AcDbSavedByObjectVersion
1070
     0
  0
ACAD_PROXY_OBJECT
  5
2E
102
{ACAD_REACTORS
330
2A
102
}
330
2A
100
AcDbProxyObject
 90
      499
 91
      501
 93
      492
310
4411DBDD5C985D5915DA5D1A115919D95CD0340902404333333333333E33F0000000000000F90107409019070040501600405405064090741402480A1B50
1001
ACAD
1000
AcDbSavedByObjectVersion
1070
     0
  0
ACAD_PROXY_OBJECT
  5
31
102
{ACAD_REACTORS
330
2A
102
}
330
2A
100
AcDbProxyObject
 90
      499
 91
      501
 93
      476
310
41921A5919195B90640502408333333333333E33F0000000000000F901079024090700405020000000000001110200405405064090740C02480A0340
1001
ACAD
1000
AcDbSavedByObjectVersion
1070
     0
  0
ACAD_PROXY_OBJECT
  5
3B
102
{ACAD_REACTORS
330
2A
102
}
330
2A
100
AcDbProxyObject
 90
      499
 91
      501
 93
      428
310
42529A5D1D195C93D999914409028333333333333E33F0000000000000F9010790141107004050150A41D405064090741402480A0350
1001
ACAD
1000
AcDbSavedByObjectVersion
1070
     0
  0
ACAD_PROXY_OBJECT
  5
38
102
{ACAD_REACTORS
330
2A
102
}
330
2A
100
AcDbProxyObject
 90
      499
 91
      501
 93
      444
310
42D31A5B995C185D1D195C9B90E409028333333333333E33F0000000000000F9010790141107004050750841D405064090741402483A0350
1001
ACAD
1000
AcDbSavedByObjectVersion
1070
     0
  0
ACAD_PROXY_OBJECT
  5
3C
102
{ACAD_REACTORS
330
2A
102
}
330
2A
100
AcDbProxyObject
 90
      499
 91
      501
 93
      444
310
42D3DD995C9A185B99D3D999915409028333333333333E33F0000000000000F9010790141107004050150941D405064090741402480A0350
1001
ACAD
1000
AcDbSavedByObjectVersion
1070
     0
  0
ACAD_PROXY_OBJECT
  5
33
102
{ACAD_REACTORS
330
2A
102
}
330
2A
100
AcDbProxyObject
 90
      499
 91
      501
 93
      428
310
425499585B1A5CDD1A58D08409038333333333333E33F0000000000000F9010740A907004050150800405405064090740C02480A1B40
1001
ACAD
1000
AcDbSavedByObjectVersion
1070
     0
  0
ACAD_PROXY_OBJECT
  5
42
102
{ACAD_REACTORS
330
2A
102
}
330
2A
100
AcDbProxyObject
 90
      499
 91
      501
 93
      420
310
4194DA1859195911B40902404333333333333E33F0000000000000F9010740A41107004050150800405405064090840C02480A0B40
1001
ACAD
1000
AcDbSavedByObjectVersion
1070
     0
  0
ACAD_PROXY_OBJECT
  5
41
102
{ACAD_REACTORS
330
2A
102
}
330
2A
100
AcDbProxyObject
 90
      499
 91
      501
 93
      516
310
4454DA18591959081DDA5D1A08195919D95CD1A40902404333333333333E33F0000000000000F901074090142907004050250800405405064090740C02480A0B40
1001
ACAD
1000
AcDbSavedByObjectVersion
1070
     0
  0
ACAD_PROXY_OBJECT
  5
3E
102
{ACAD_REACTORS
330
2A
102
}
330
2A
100
AcDbProxyObject
 90
      499
 91
      501
 93
      532
310
4394DA1859195CC81BD98811DC985E5174090240C333333333333E33F0000000000000F901079024090741D01000000000000111010841D405064090740C02480A0340
1001
ACAD
1000
AcDbSavedByObjectVersion
1070
     0
  0
ACAD_PROXY_OBJECT
  5
3F
102
{ACAD_REACTORS
330
2A
102
}
330
2A
100
AcDbProxyObject
 90
      499
 91
      501
 93
      476
310
41D4DAD95D18DA1E51840502408333333333333E33F0000000000000F901079024090741D01000000000000111010B41D405064090741802480A0340
1001
ACAD
1000
AcDbSavedByObjectVersion
1070
     0
  0
ACAD_PROXY_OBJECT
  5
37
102
{ACAD_REACTORS
330
2A
102
}
330
2A
100
AcDbProxyObject
 90
      499
 91
      501
 93
      412
310
41D51A1A58DAD95B90D409028333333333333E33F0000000000000F9010790141107004050150C41D405064090741402480A0350
1001
ACAD
1000
AcDbSavedByObjectVersion
1070
     0
  0
ACAD_PROXY_OBJECT
  5
30
102
{ACAD_REACTORS
330
2A
102
}
330
2A
100
AcDbProxyObject
 90
      499
 91
      501
 93
      420
310
4255DA5C99599C985B595059028333333333333E33F0000000000000F90107901411070040501600405405064090740C02480A0340
1001
ACAD
1000
AcDbSavedByObjectVersion
1070
     0
  0
ACAD_PROXY_OBJECT
  5
40
102
{ACAD_REACTORS
330
2A
102
}
330
2A
100
AcDbProxyObject
 90
      499
 91
      501
 93
      404
310
41560B54985E51940902404000000000000E03F0000000000000F9010740501907004050150841D405064090740C02480A1B40
1001
ACAD
1000
AcDbSavedByObjectVersion
1070
     0
  0
XRECORD
  5
382
102
{ACAD_REACTORS
330
378
102
}
330
378
100
AcDbXrecord
340
0
  0
XRECORD
  5
381
102
{ACAD_REACTORS
330
378
102
}
330
378
100
AcDbXrecord
 90
        0
  0
XRECORD
  5
398
102
{ACAD_REACTORS
330
378
102
}
330
378
100
AcDbXrecord
1000
DSTYLE
1002
{
1070
   179
 70
     1
1070
   171
 70
     3
1070
   143
 40
0.03937
1070
   274
 70
     3
1070
   285
 70
     8
1070
    41
 40
2.5
1070
   141
 40
2.5
1070
   176
 70
     7
1070
   177
 70
     7
1070
   178
 70
     7
1070
   271
 70
     2
1070
    43
 40
3.75
1070
   278
 70
    44
1070
    44
 40
1.25
1070
    42
 40
0.625
1070
   147
 40
0.625
1070
   144
 40
4.0
1070
   371
 70
    13
1070
   372
 70
    13
1070
    77
 70
     1
1070
   272
 70
     2
1070
    73
 70
     0
1070
   172
 70
     1
1070
    74
 70
     0
1070
   283
 70
     0
1070
   340
340
73
1070
   140
 40
3.5
1070
   284
 70
     8
1070
   288
 70
     1
1070
    78
 70
     8
1002
}
  0
XRECORD
  5
383
102
{ACAD_REACTORS
330
378
102
}
330
378
100
AcDbXrecord
  1
{b4617564-3361-6564-b262-7334b8b06370}
  0
XRECORD
  5
37B
102
{ACAD_REACTORS
330
378
102
}
330
378
100
AcDbXrecord
  1

  0
XRECORD
  5
380
102
{ACAD_REACTORS
330
378
102
}
330
378
100
AcDbXrecord
 90
        0
  0
XRECORD
  5
37D
102
{ACAD_REACTORS
330
378
102
}
330
378
100
AcDbXrecord
340
1A
  0
XRECORD
  5
37F
102
{ACAD_REACTORS
330
378
102
}
330
378
100
AcDbXrecord
 90
    10269
  0
XRECORD
  5
37E
102
{ACAD_REACTORS
330
378
102
}
330
378
100
AcDbXrecord
340
19
  0
XRECORD
  5
385
102
{ACAD_REACTORS
330
378
102
}
330
378
100
AcDbXrecord
 40
0.0
  0
XRECORD
  5
388
102
{ACAD_REACTORS
330
378
102
}
330
378
100
AcDbXrecord
340
0
  0
XRECORD
  5
38E
102
{ACAD_REACTORS
330
378
102
}
330
378
100
AcDbXrecord
 10
0.0
 20
0.0
 30
0.0
  0
XRECORD
  5
38A
102
{ACAD_REACTORS
330
378
102
}
330
378
100
AcDbXrecord
 10
0.0
 20
0.0
 30
0.0
  0
XRECORD
  5
38D
102
{ACAD_REACTORS
330
378
102
}
330
378
100
AcDbXrecord
 10
0.0
 20
0.0
 30
0.0
  0
XRECORD
  5
38B
102
{ACAD_REACTORS
330
378
102
}
330
378
100
AcDbXrecord
 10
0.0
 20
0.0
 30
0.0
  0
XRECORD
  5
38C
102
{ACAD_REACTORS
330
378
102
}
330
378
100
AcDbXrecord
 10
0.0
 20
0.0
 30
0.0
  0
XRECORD
  5
389
102
{ACAD_REACTORS
330
378
102
}
330
378
100
AcDbXrecord
 10
0.0
 20
0.0
 30
0.0
  0
XRECORD
  5
386
102
{ACAD_REACTORS
330
378
102
}
330
378
100
AcDbXrecord
340
0
  0
XRECORD
  5
387
102
{ACAD_REACTORS
330
378
102
}
330
378
100
AcDbXrecord
 70
     0
  0
XRECORD
  5
37C
102
{ACAD_REACTORS
330
378
102
}
330
378
100
AcDbXrecord
  1

  0
XRECORD
  5
379
102
{ACAD_REACTORS
330
378
102
}
330
378
100
AcDbXrecord
 90
        1
  0
XRECORD
  5
37A
102
{ACAD_REACTORS
330
378
102
}
330
378
100
AcDbXrecord
 90
       70
  0
XRECORD
  5
391
102
{ACAD_REACTORS
330
378
102
}
330
378
100
AcDbXrecord
340
0
  0
XRECORD
  5
397
102
{ACAD_REACTORS
330
378
102
}
330
378
100
AcDbXrecord
 10
0.0
 20
0.0
 30
0.0
  0
XRECORD
  5
393
102
{ACAD_REACTORS
330
378
102
}
330
378
100
AcDbXrecord
 10
0.0
 20
0.0
 30
0.0
  0
XRECORD
  5
396
102
{ACAD_REACTORS
330
378
102
}
330
378
100
AcDbXrecord
 10
0.0
 20
0.0
 30
0.0
  0
XRECORD
  5
394
102
{ACAD_REACTORS
330
378
102
}
330
378
100
AcDbXrecord
 10
0.0
 20
0.0
 30
0.0
  0
XRECORD
  5
395
102
{ACAD_REACTORS
330
378
102
}
330
378
100
AcDbXrecord
 10
0.0
 20
0.0
 30
0.0
  0
XRECORD
  5
392
102
{ACAD_REACTORS
330
378
102
}
330
378
100
AcDbXrecord
 10
0.0
 20
0.0
 30
0.0
  0
XRECORD
  5
38F
102
{ACAD_REACTORS
330
378
102
}
330
378
100
AcDbXrecord
340
0
  0
XRECORD
  5
390
102
{ACAD_REACTORS
330
378
102
}
330
378
100
AcDbXrecord
 70
     0
  0
XRECORD
  5
384
102
{ACAD_REACTORS
330
378
102
}
330
378
100
AcDbXrecord
  1
{FAEB1C32-E019-11D5-929B-00C0DF256EC4}
  0
DICTIONARYVAR
  5
3AA
102
{ACAD_REACTORS
330
6E
102
}
330
6E
100
DictionaryVariables
280
     0
  1
1:1
  0
DICTIONARYVAR
  5
39A
102
{ACAD_REACTORS
330
6E
102
}
330
6E
100
DictionaryVariables
280
     0
  1
Standard
  0
DICTIONARYVAR
  5
399
102
{ACAD_REACTORS
330
6E
102
}
330
6E
100
DictionaryVariables
280
     0
  1
Onshape-Standard
  0
DICTIONARYVAR
  5
39D
102
{ACAD_REACTORS
330
6E
102
}
330
6E
100
DictionaryVariables
280
     0
  1
2
  0
DICTIONARYVAR
  5
39E
102
{ACAD_REACTORS
330
6E
102
}
330
6E
100
DictionaryVariables
280
     0
  1
1
  0
DICTIONARYVAR
  5
3AB
102
{ACAD_REACTORS
330
6E
102
}
330
6E
100
DictionaryVariables
280
     0
  1
1
  0
DICTIONARYVAR
  5
6F
102
{ACAD_REACTORS
330
6E
102
}
330
6E
100
DictionaryVariables
280
     0
  1
0
  0
XRECORD
  5
319
102
{ACAD_REACTORS
330
318
102
}
330
318
100
AcDbXrecord
 70
     0
  0
XRECORD
  5
31C
102
{ACAD_REACTORS
330
318
102
}
330
318
100
AcDbXrecord
 90
        0
  0
ACAD_PROXY_OBJECT
  5
322
102
{ACAD_REACTORS
330
318
102
}
330
318
100
AcDbProxyObject
 90
      499
 91
      511
 93
       34
310
40C8804040
  0
XRECORD
  5
321
102
{ACAD_REACTORS
330
318
102
}
330
318
100
AcDbXrecord
 90
        5
  0
XRECORD
  5
31D
102
{ACAD_REACTORS
330
318
102
}
330
318
100
AcDbXrecord
 90
        0
  0
XRECORD
  5
31F
102
{ACAD_REACTORS
330
318
102
}
330
318
100
AcDbXrecord
 90
        0
  0
ACAD_PROXY_OBJECT
  5
320
102
{ACAD_REACTORS
330
318
102
}
330
318
100
AcDbProxyObject
 90
      499
 91
      511
 93
       34
310
40C8804040
  0
ACAD_PROXY_OBJECT
  5
31E
102
{ACAD_REACTORS
330
318
102
}
330
318
100
AcDbProxyObject
 90
      499
 91
      511
 93
       34
310
40C8804040
  0
XRECORD
  5
31B
102
{ACAD_REACTORS
330
318
102
}
330
318
100
AcDbXrecord
 90
        0
  0
XRECORD
  5
31A
102
{ACAD_REACTORS
330
318
102
}
330
318
100
AcDbXrecord
 90
        1
  0
DICTIONARY
  5
3AE
330
45
100
AcDbDictionary
280
     1
  3
ACAD_XREC_ROUNDTRIP
360
3AF
  0
DICTIONARY
  5
3AC
330
44
100
AcDbDictionary
280
     1
  3
ACAD_XREC_ROUNDTRIP
360
3AD
  0
DICTIONARY
  5
3B0
330
46
100
AcDbDictionary
280
     1
  3
ACAD_XREC_ROUNDTRIP
360
3B1
  0
XRECORD
  5
3AF
102
{ACAD_REACTORS
330
3AE
102
}
330
3AE
100
AcDbXrecord
102
MATERIAL
148
0.0
149
0.0
149
0.0
 93
        0
 94
      127
282
     0
 72
     1
 77
     1
171
     1
175
     1
179
     1
273
     0
  0
XRECORD
  5
3AD
102
{ACAD_REACTORS
330
3AC
102
}
330
3AC
100
AcDbXrecord
102
MATERIAL
148
0.0
149
0.0
149
0.0
 93
        0
 94
      127
282
     0
 72
     1
 77
     1
171
     1
175
     1
179
     1
273
     0
  0
XRECORD
  5
3B1
102
{ACAD_REACTORS
330
3B0
102
}
330
3B0
100
AcDbXrecord
102
MATERIAL
148
0.0
149
0.0
149
0.0
 93
        0
 94
      127
282
     0
 72
     1
 77
     1
171
     1
175
     1
179
     1
273
     0
  0
ENDSEC
  0
EOF
