ISO-10303-21;
HEADER;
/* Generated by software containing ST-Developer
 * from STEP Tools, Inc. (www.steptools.com) 
 */
/* OPTION: using custom renumber hook */

FILE_DESCRIPTION(
/* description */ ('STEP AP242 Edition 2',
'CAx-IF Rec.Pracs.---Representation and Presentation of Product Manufa
cturing Information (PMI)---4.0---2014-10-13',
'CAx-IF Rec.Pracs.---3D Tessellated Geometry---0.4---2014-09-14','2;1',
'CAx-IF Rec.Pracs.---User Defined Attributes---1.5---2016-08-15'),
/* implementation_level */ '2;1');

FILE_NAME(
/* name */ '698c62d33c032df967dc48cc',
/* time_stamp */ '2026-02-11T11:07:00Z',
/* author */ (''),
/* organization */ (''),
/* preprocessor_version */ 'ST-DEVELOPER v20',
/* originating_system */ 'ONSHAPE BY PTC INC, 1.210',
/* authorisation */ '  ');

FILE_SCHEMA (('AP242_MANAGED_MODEL_BASED_3D_ENGINEERING_MIM_LF { 1 0 10303 442 3 1 4 }'));
ENDSEC;

DATA;
#10=LINE('',#1025,#82);
#11=LINE('',#1028,#83);
#12=LINE('',#1030,#84);
#13=LINE('',#1032,#85);
#14=LINE('',#1034,#86);
#15=LINE('',#1036,#87);
#16=LINE('',#1038,#88);
#17=LINE('',#1040,#89);
#18=LINE('',#1042,#90);
#19=LINE('',#1044,#91);
#20=LINE('',#1046,#92);
#21=LINE('',#1047,#93);
#22=LINE('',#1054,#94);
#23=LINE('',#1057,#95);
#24=LINE('',#1059,#96);
#25=LINE('',#1061,#97);
#26=LINE('',#1063,#98);
#27=LINE('',#1065,#99);
#28=LINE('',#1067,#100);
#29=LINE('',#1069,#101);
#30=LINE('',#1071,#102);
#31=LINE('',#1073,#103);
#32=LINE('',#1075,#104);
#33=LINE('',#1077,#105);
#34=LINE('',#1080,#106);
#35=LINE('',#1081,#107);
#36=LINE('',#1083,#108);
#37=LINE('',#1085,#109);
#38=LINE('',#1087,#110);
#39=LINE('',#1089,#111);
#40=LINE('',#1093,#112);
#41=LINE('',#1096,#113);
#42=LINE('',#1097,#114);
#43=LINE('',#1099,#115);
#44=LINE('',#1101,#116);
#45=LINE('',#1103,#117);
#46=LINE('',#1105,#118);
#47=LINE('',#1107,#119);
#48=LINE('',#1109,#120);
#49=LINE('',#1111,#121);
#50=LINE('',#1113,#122);
#51=LINE('',#1115,#123);
#52=LINE('',#1117,#124);
#53=LINE('',#1119,#125);
#54=LINE('',#1121,#126);
#55=LINE('',#1122,#127);
#56=LINE('',#1132,#128);
#57=LINE('',#1133,#129);
#58=LINE('',#1134,#130);
#59=LINE('',#1137,#131);
#60=LINE('',#1139,#132);
#61=LINE('',#1141,#133);
#62=LINE('',#1143,#134);
#63=LINE('',#1145,#135);
#64=LINE('',#1147,#136);
#65=LINE('',#1151,#137);
#66=LINE('',#1153,#138);
#67=LINE('',#1155,#139);
#68=LINE('',#1157,#140);
#69=LINE('',#1161,#141);
#70=LINE('',#1165,#142);
#71=LINE('',#1167,#143);
#72=LINE('',#1168,#144);
#73=LINE('',#1170,#145);
#74=LINE('',#1172,#146);
#75=LINE('',#1174,#147);
#76=LINE('',#1175,#148);
#77=LINE('',#1177,#149);
#78=LINE('',#1179,#150);
#79=LINE('',#1186,#151);
#80=LINE('',#1191,#152);
#81=LINE('',#1194,#153);
#82=VECTOR('',#840,1.);
#83=VECTOR('',#841,1.);
#84=VECTOR('',#842,1.);
#85=VECTOR('',#843,1.);
#86=VECTOR('',#846,1.);
#87=VECTOR('',#847,1.);
#88=VECTOR('',#848,1.);
#89=VECTOR('',#851,1.);
#90=VECTOR('',#852,1.);
#91=VECTOR('',#853,1.);
#92=VECTOR('',#856,1.);
#93=VECTOR('',#857,1.);
#94=VECTOR('',#868,1.);
#95=VECTOR('',#869,1.);
#96=VECTOR('',#870,1.);
#97=VECTOR('',#871,1.);
#98=VECTOR('',#872,1.);
#99=VECTOR('',#873,1.);
#100=VECTOR('',#874,1.);
#101=VECTOR('',#875,1.);
#102=VECTOR('',#878,1.);
#103=VECTOR('',#879,1.);
#104=VECTOR('',#880,1.);
#105=VECTOR('',#883,1.);
#106=VECTOR('',#884,1.);
#107=VECTOR('',#885,1.);
#108=VECTOR('',#886,1.);
#109=VECTOR('',#887,1.);
#110=VECTOR('',#888,1.);
#111=VECTOR('',#889,1.);
#112=VECTOR('',#894,1.);
#113=VECTOR('',#895,1.);
#114=VECTOR('',#896,1.);
#115=VECTOR('',#897,1.);
#116=VECTOR('',#898,1.);
#117=VECTOR('',#899,1.);
#118=VECTOR('',#900,1.);
#119=VECTOR('',#903,1.);
#120=VECTOR('',#904,1.);
#121=VECTOR('',#905,1.);
#122=VECTOR('',#908,1.);
#123=VECTOR('',#909,1.);
#124=VECTOR('',#910,1.);
#125=VECTOR('',#911,1.);
#126=VECTOR('',#912,1.);
#127=VECTOR('',#913,1.);
#128=VECTOR('',#924,1.);
#129=VECTOR('',#925,1.);
#130=VECTOR('',#926,1.);
#131=VECTOR('',#927,1.);
#132=VECTOR('',#928,1.);
#133=VECTOR('',#929,1.);
#134=VECTOR('',#932,1.);
#135=VECTOR('',#933,1.);
#136=VECTOR('',#934,1.);
#137=VECTOR('',#939,1.);
#138=VECTOR('',#940,1.);
#139=VECTOR('',#943,1.);
#140=VECTOR('',#944,1.);
#141=VECTOR('',#949,1.);
#142=VECTOR('',#956,1.);
#143=VECTOR('',#957,1.);
#144=VECTOR('',#958,1.);
#145=VECTOR('',#959,1.);
#146=VECTOR('',#962,1.);
#147=VECTOR('',#963,1.);
#148=VECTOR('',#964,1.);
#149=VECTOR('',#965,1.);
#150=VECTOR('',#968,1.);
#151=VECTOR('',#977,1.);
#152=VECTOR('',#984,1.);
#153=VECTOR('',#989,1.);
#154=CONTEXT_DEPENDENT_SHAPE_REPRESENTATION(#162,#1220);
#155=CONTEXT_DEPENDENT_SHAPE_REPRESENTATION(#163,#1222);
#156=CONTEXT_DEPENDENT_SHAPE_REPRESENTATION(#164,#1224);
#157=CONTEXT_DEPENDENT_SHAPE_REPRESENTATION(#165,#1225);
#158=NEXT_ASSEMBLY_USAGE_OCCURRENCE('NAUO1','Anschluss','Anschluss',#1226,
#1227,'');
#159=NEXT_ASSEMBLY_USAGE_OCCURRENCE('NAUO2','Wand','Wand',#1226,#1228,
'');
#160=NEXT_ASSEMBLY_USAGE_OCCURRENCE('NAUO3','koerper','koerper',#1226,#1229,
'');
#161=NEXT_ASSEMBLY_USAGE_OCCURRENCE('NAUO4','Anschluss','Anschluss',#1226,
#1227,'');
#162=(
REPRESENTATION_RELATIONSHIP(' ',' ',#755,#754)
REPRESENTATION_RELATIONSHIP_WITH_TRANSFORMATION(#166)
SHAPE_REPRESENTATION_RELATIONSHIP()
);
#163=(
REPRESENTATION_RELATIONSHIP(' ',' ',#756,#754)
REPRESENTATION_RELATIONSHIP_WITH_TRANSFORMATION(#167)
SHAPE_REPRESENTATION_RELATIONSHIP()
);
#164=(
REPRESENTATION_RELATIONSHIP(' ',' ',#757,#754)
REPRESENTATION_RELATIONSHIP_WITH_TRANSFORMATION(#168)
SHAPE_REPRESENTATION_RELATIONSHIP()
);
#165=(
REPRESENTATION_RELATIONSHIP(' ',' ',#755,#754)
REPRESENTATION_RELATIONSHIP_WITH_TRANSFORMATION(#169)
SHAPE_REPRESENTATION_RELATIONSHIP()
);
#166=ITEM_DEFINED_TRANSFORMATION(' ',' ',#758,#767);
#167=ITEM_DEFINED_TRANSFORMATION(' ',' ',#758,#774);
#168=ITEM_DEFINED_TRANSFORMATION(' ',' ',#758,#816);
#169=ITEM_DEFINED_TRANSFORMATION(' ',' ',#758,#817);
#170=SHAPE_REPRESENTATION_RELATIONSHIP('','',#755,#173);
#171=SHAPE_REPRESENTATION_RELATIONSHIP('','',#756,#174);
#172=SHAPE_REPRESENTATION_RELATIONSHIP('','',#757,#175);
#173=ADVANCED_BREP_SHAPE_REPRESENTATION('',(#747),#1208);
#174=ADVANCED_BREP_SHAPE_REPRESENTATION('',(#748),#1209);
#175=ADVANCED_BREP_SHAPE_REPRESENTATION('',(#749),#1210);
#176=PLANE('',#762);
#177=PLANE('',#764);
#178=PLANE('',#768);
#179=PLANE('',#769);
#180=PLANE('',#770);
#181=PLANE('',#771);
#182=PLANE('',#772);
#183=PLANE('',#773);
#184=PLANE('',#775);
#185=PLANE('',#777);
#186=PLANE('',#778);
#187=PLANE('',#779);
#188=PLANE('',#781);
#189=PLANE('',#782);
#190=PLANE('',#783);
#191=PLANE('',#788);
#192=PLANE('',#789);
#193=PLANE('',#791);
#194=PLANE('',#792);
#195=PLANE('',#794);
#196=PLANE('',#795);
#197=PLANE('',#796);
#198=PLANE('',#797);
#199=PLANE('',#798);
#200=PLANE('',#799);
#201=PLANE('',#801);
#202=PLANE('',#803);
#203=PLANE('',#804);
#204=PLANE('',#806);
#205=PLANE('',#807);
#206=PLANE('',#808);
#207=ORIENTED_EDGE('',*,*,#383,.F.);
#208=ORIENTED_EDGE('',*,*,#384,.T.);
#209=ORIENTED_EDGE('',*,*,#385,.T.);
#210=ORIENTED_EDGE('',*,*,#383,.T.);
#211=ORIENTED_EDGE('',*,*,#386,.F.);
#212=ORIENTED_EDGE('',*,*,#384,.F.);
#213=ORIENTED_EDGE('',*,*,#385,.F.);
#214=ORIENTED_EDGE('',*,*,#386,.T.);
#215=ORIENTED_EDGE('',*,*,#387,.F.);
#216=ORIENTED_EDGE('',*,*,#388,.F.);
#217=ORIENTED_EDGE('',*,*,#389,.T.);
#218=ORIENTED_EDGE('',*,*,#390,.T.);
#219=ORIENTED_EDGE('',*,*,#391,.T.);
#220=ORIENTED_EDGE('',*,*,#392,.F.);
#221=ORIENTED_EDGE('',*,*,#393,.F.);
#222=ORIENTED_EDGE('',*,*,#388,.T.);
#223=ORIENTED_EDGE('',*,*,#394,.T.);
#224=ORIENTED_EDGE('',*,*,#395,.F.);
#225=ORIENTED_EDGE('',*,*,#396,.F.);
#226=ORIENTED_EDGE('',*,*,#392,.T.);
#227=ORIENTED_EDGE('',*,*,#397,.F.);
#228=ORIENTED_EDGE('',*,*,#390,.F.);
#229=ORIENTED_EDGE('',*,*,#398,.T.);
#230=ORIENTED_EDGE('',*,*,#395,.T.);
#231=ORIENTED_EDGE('',*,*,#389,.F.);
#232=ORIENTED_EDGE('',*,*,#393,.T.);
#233=ORIENTED_EDGE('',*,*,#396,.T.);
#234=ORIENTED_EDGE('',*,*,#398,.F.);
#235=ORIENTED_EDGE('',*,*,#387,.T.);
#236=ORIENTED_EDGE('',*,*,#397,.T.);
#237=ORIENTED_EDGE('',*,*,#394,.F.);
#238=ORIENTED_EDGE('',*,*,#391,.F.);
#239=ORIENTED_EDGE('',*,*,#399,.T.);
#240=ORIENTED_EDGE('',*,*,#400,.T.);
#241=ORIENTED_EDGE('',*,*,#401,.T.);
#242=ORIENTED_EDGE('',*,*,#402,.T.);
#243=ORIENTED_EDGE('',*,*,#403,.T.);
#244=ORIENTED_EDGE('',*,*,#404,.F.);
#245=ORIENTED_EDGE('',*,*,#405,.F.);
#246=ORIENTED_EDGE('',*,*,#406,.T.);
#247=ORIENTED_EDGE('',*,*,#407,.F.);
#248=ORIENTED_EDGE('',*,*,#408,.F.);
#249=ORIENTED_EDGE('',*,*,#400,.F.);
#250=ORIENTED_EDGE('',*,*,#409,.T.);
#251=ORIENTED_EDGE('',*,*,#410,.F.);
#252=ORIENTED_EDGE('',*,*,#411,.T.);
#253=ORIENTED_EDGE('',*,*,#412,.F.);
#254=ORIENTED_EDGE('',*,*,#405,.T.);
#255=ORIENTED_EDGE('',*,*,#413,.T.);
#256=ORIENTED_EDGE('',*,*,#414,.F.);
#257=ORIENTED_EDGE('',*,*,#415,.F.);
#258=ORIENTED_EDGE('',*,*,#416,.F.);
#259=ORIENTED_EDGE('',*,*,#417,.F.);
#260=ORIENTED_EDGE('',*,*,#418,.F.);
#261=ORIENTED_EDGE('',*,*,#419,.F.);
#262=ORIENTED_EDGE('',*,*,#420,.F.);
#263=ORIENTED_EDGE('',*,*,#414,.T.);
#264=ORIENTED_EDGE('',*,*,#421,.T.);
#265=ORIENTED_EDGE('',*,*,#422,.F.);
#266=ORIENTED_EDGE('',*,*,#423,.F.);
#267=ORIENTED_EDGE('',*,*,#424,.T.);
#268=ORIENTED_EDGE('',*,*,#425,.F.);
#269=ORIENTED_EDGE('',*,*,#426,.F.);
#270=ORIENTED_EDGE('',*,*,#425,.T.);
#271=ORIENTED_EDGE('',*,*,#427,.T.);
#272=ORIENTED_EDGE('',*,*,#428,.T.);
#273=ORIENTED_EDGE('',*,*,#429,.T.);
#274=ORIENTED_EDGE('',*,*,#430,.F.);
#275=ORIENTED_EDGE('',*,*,#431,.T.);
#276=ORIENTED_EDGE('',*,*,#432,.T.);
#277=ORIENTED_EDGE('',*,*,#433,.T.);
#278=ORIENTED_EDGE('',*,*,#422,.T.);
#279=ORIENTED_EDGE('',*,*,#434,.F.);
#280=ORIENTED_EDGE('',*,*,#403,.F.);
#281=ORIENTED_EDGE('',*,*,#435,.F.);
#282=ORIENTED_EDGE('',*,*,#436,.F.);
#283=ORIENTED_EDGE('',*,*,#437,.F.);
#284=ORIENTED_EDGE('',*,*,#438,.F.);
#285=ORIENTED_EDGE('',*,*,#431,.F.);
#286=ORIENTED_EDGE('',*,*,#439,.T.);
#287=ORIENTED_EDGE('',*,*,#417,.T.);
#288=ORIENTED_EDGE('',*,*,#440,.F.);
#289=ORIENTED_EDGE('',*,*,#441,.T.);
#290=ORIENTED_EDGE('',*,*,#442,.F.);
#291=ORIENTED_EDGE('',*,*,#443,.F.);
#292=ORIENTED_EDGE('',*,*,#444,.T.);
#293=ORIENTED_EDGE('',*,*,#443,.T.);
#294=ORIENTED_EDGE('',*,*,#445,.T.);
#295=ORIENTED_EDGE('',*,*,#446,.F.);
#296=ORIENTED_EDGE('',*,*,#447,.F.);
#297=ORIENTED_EDGE('',*,*,#448,.F.);
#298=ORIENTED_EDGE('',*,*,#449,.F.);
#299=ORIENTED_EDGE('',*,*,#444,.F.);
#300=ORIENTED_EDGE('',*,*,#447,.T.);
#301=ORIENTED_EDGE('',*,*,#450,.T.);
#302=ORIENTED_EDGE('',*,*,#449,.T.);
#303=ORIENTED_EDGE('',*,*,#451,.T.);
#304=ORIENTED_EDGE('',*,*,#452,.F.);
#305=ORIENTED_EDGE('',*,*,#441,.F.);
#306=ORIENTED_EDGE('',*,*,#453,.T.);
#307=ORIENTED_EDGE('',*,*,#442,.T.);
#308=ORIENTED_EDGE('',*,*,#452,.T.);
#309=ORIENTED_EDGE('',*,*,#454,.F.);
#310=ORIENTED_EDGE('',*,*,#445,.F.);
#311=ORIENTED_EDGE('',*,*,#446,.T.);
#312=ORIENTED_EDGE('',*,*,#454,.T.);
#313=ORIENTED_EDGE('',*,*,#451,.F.);
#314=ORIENTED_EDGE('',*,*,#450,.F.);
#315=ORIENTED_EDGE('',*,*,#413,.F.);
#316=ORIENTED_EDGE('',*,*,#404,.T.);
#317=ORIENTED_EDGE('',*,*,#434,.T.);
#318=ORIENTED_EDGE('',*,*,#421,.F.);
#319=ORIENTED_EDGE('',*,*,#411,.F.);
#320=ORIENTED_EDGE('',*,*,#439,.F.);
#321=ORIENTED_EDGE('',*,*,#430,.T.);
#322=ORIENTED_EDGE('',*,*,#455,.T.);
#323=ORIENTED_EDGE('',*,*,#456,.T.);
#324=ORIENTED_EDGE('',*,*,#410,.T.);
#325=ORIENTED_EDGE('',*,*,#457,.F.);
#326=ORIENTED_EDGE('',*,*,#458,.F.);
#327=ORIENTED_EDGE('',*,*,#416,.T.);
#328=ORIENTED_EDGE('',*,*,#459,.T.);
#329=ORIENTED_EDGE('',*,*,#460,.T.);
#330=ORIENTED_EDGE('',*,*,#428,.F.);
#331=ORIENTED_EDGE('',*,*,#461,.F.);
#332=ORIENTED_EDGE('',*,*,#462,.F.);
#333=ORIENTED_EDGE('',*,*,#432,.F.);
#334=ORIENTED_EDGE('',*,*,#440,.T.);
#335=ORIENTED_EDGE('',*,*,#424,.F.);
#336=ORIENTED_EDGE('',*,*,#463,.T.);
#337=ORIENTED_EDGE('',*,*,#461,.T.);
#338=ORIENTED_EDGE('',*,*,#427,.F.);
#339=ORIENTED_EDGE('',*,*,#464,.F.);
#340=ORIENTED_EDGE('',*,*,#433,.F.);
#341=ORIENTED_EDGE('',*,*,#462,.T.);
#342=ORIENTED_EDGE('',*,*,#463,.F.);
#343=ORIENTED_EDGE('',*,*,#423,.T.);
#344=ORIENTED_EDGE('',*,*,#465,.F.);
#345=ORIENTED_EDGE('',*,*,#459,.F.);
#346=ORIENTED_EDGE('',*,*,#415,.T.);
#347=ORIENTED_EDGE('',*,*,#420,.T.);
#348=ORIENTED_EDGE('',*,*,#466,.T.);
#349=ORIENTED_EDGE('',*,*,#466,.F.);
#350=ORIENTED_EDGE('',*,*,#419,.T.);
#351=ORIENTED_EDGE('',*,*,#426,.T.);
#352=ORIENTED_EDGE('',*,*,#460,.F.);
#353=ORIENTED_EDGE('',*,*,#467,.F.);
#354=ORIENTED_EDGE('',*,*,#406,.F.);
#355=ORIENTED_EDGE('',*,*,#412,.T.);
#356=ORIENTED_EDGE('',*,*,#458,.T.);
#357=ORIENTED_EDGE('',*,*,#468,.F.);
#358=ORIENTED_EDGE('',*,*,#409,.F.);
#359=ORIENTED_EDGE('',*,*,#407,.T.);
#360=ORIENTED_EDGE('',*,*,#468,.T.);
#361=ORIENTED_EDGE('',*,*,#457,.T.);
#362=ORIENTED_EDGE('',*,*,#401,.F.);
#363=ORIENTED_EDGE('',*,*,#408,.T.);
#364=ORIENTED_EDGE('',*,*,#456,.F.);
#365=ORIENTED_EDGE('',*,*,#469,.F.);
#366=ORIENTED_EDGE('',*,*,#470,.F.);
#367=ORIENTED_EDGE('',*,*,#429,.F.);
#368=ORIENTED_EDGE('',*,*,#402,.F.);
#369=ORIENTED_EDGE('',*,*,#469,.T.);
#370=ORIENTED_EDGE('',*,*,#455,.F.);
#371=ORIENTED_EDGE('',*,*,#438,.T.);
#372=ORIENTED_EDGE('',*,*,#470,.T.);
#373=ORIENTED_EDGE('',*,*,#435,.T.);
#374=ORIENTED_EDGE('',*,*,#467,.T.);
#375=ORIENTED_EDGE('',*,*,#436,.T.);
#376=ORIENTED_EDGE('',*,*,#465,.T.);
#377=ORIENTED_EDGE('',*,*,#437,.T.);
#378=ORIENTED_EDGE('',*,*,#464,.T.);
#379=ORIENTED_EDGE('',*,*,#453,.F.);
#380=ORIENTED_EDGE('',*,*,#418,.T.);
#381=ORIENTED_EDGE('',*,*,#399,.F.);
#382=ORIENTED_EDGE('',*,*,#448,.T.);
#383=EDGE_CURVE('',#471,#471,#535,.T.);
#384=EDGE_CURVE('',#472,#472,#536,.T.);
#385=EDGE_CURVE('',#473,#473,#537,.F.);
#386=EDGE_CURVE('',#474,#474,#538,.T.);
#387=EDGE_CURVE('',#475,#476,#10,.T.);
#388=EDGE_CURVE('',#477,#475,#11,.T.);
#389=EDGE_CURVE('',#477,#478,#12,.T.);
#390=EDGE_CURVE('',#478,#476,#13,.T.);
#391=EDGE_CURVE('',#475,#479,#14,.T.);
#392=EDGE_CURVE('',#480,#479,#15,.T.);
#393=EDGE_CURVE('',#477,#480,#16,.T.);
#394=EDGE_CURVE('',#479,#481,#17,.T.);
#395=EDGE_CURVE('',#482,#481,#18,.T.);
#396=EDGE_CURVE('',#480,#482,#19,.T.);
#397=EDGE_CURVE('',#476,#481,#20,.T.);
#398=EDGE_CURVE('',#478,#482,#21,.T.);
#399=EDGE_CURVE('',#483,#483,#539,.F.);
#400=EDGE_CURVE('',#484,#485,#22,.T.);
#401=EDGE_CURVE('',#485,#486,#23,.T.);
#402=EDGE_CURVE('',#486,#487,#24,.T.);
#403=EDGE_CURVE('',#487,#488,#25,.T.);
#404=EDGE_CURVE('',#489,#488,#26,.T.);
#405=EDGE_CURVE('',#490,#489,#27,.T.);
#406=EDGE_CURVE('',#490,#491,#28,.T.);
#407=EDGE_CURVE('',#484,#491,#29,.T.);
#408=EDGE_CURVE('',#485,#492,#30,.T.);
#409=EDGE_CURVE('',#484,#493,#31,.T.);
#410=EDGE_CURVE('',#492,#493,#32,.T.);
#411=EDGE_CURVE('',#494,#495,#33,.T.);
#412=EDGE_CURVE('',#490,#495,#34,.T.);
#413=EDGE_CURVE('',#489,#496,#35,.T.);
#414=EDGE_CURVE('',#497,#496,#36,.T.);
#415=EDGE_CURVE('',#498,#497,#37,.T.);
#416=EDGE_CURVE('',#499,#498,#38,.T.);
#417=EDGE_CURVE('',#494,#499,#39,.T.);
#418=EDGE_CURVE('',#500,#500,#540,.F.);
#419=EDGE_CURVE('',#501,#502,#40,.T.);
#420=EDGE_CURVE('',#497,#501,#41,.T.);
#421=EDGE_CURVE('',#496,#503,#42,.T.);
#422=EDGE_CURVE('',#504,#503,#43,.T.);
#423=EDGE_CURVE('',#505,#504,#44,.T.);
#424=EDGE_CURVE('',#505,#506,#45,.T.);
#425=EDGE_CURVE('',#502,#506,#46,.T.);
#426=EDGE_CURVE('',#502,#507,#47,.T.);
#427=EDGE_CURVE('',#506,#508,#48,.T.);
#428=EDGE_CURVE('',#508,#507,#49,.T.);
#429=EDGE_CURVE('',#487,#509,#50,.T.);
#430=EDGE_CURVE('',#510,#509,#51,.T.);
#431=EDGE_CURVE('',#510,#511,#52,.T.);
#432=EDGE_CURVE('',#511,#512,#53,.T.);
#433=EDGE_CURVE('',#512,#504,#54,.T.);
#434=EDGE_CURVE('',#488,#503,#55,.T.);
#435=EDGE_CURVE('',#513,#513,#541,.T.);
#436=EDGE_CURVE('',#514,#514,#542,.T.);
#437=EDGE_CURVE('',#515,#515,#543,.T.);
#438=EDGE_CURVE('',#516,#516,#544,.T.);
#439=EDGE_CURVE('',#510,#494,#56,.T.);
#440=EDGE_CURVE('',#511,#499,#57,.T.);
#441=EDGE_CURVE('',#517,#518,#58,.T.);
#442=EDGE_CURVE('',#519,#518,#59,.T.);
#443=EDGE_CURVE('',#520,#519,#60,.T.);
#444=EDGE_CURVE('',#520,#517,#61,.T.);
#445=EDGE_CURVE('',#519,#521,#62,.T.);
#446=EDGE_CURVE('',#522,#521,#63,.T.);
#447=EDGE_CURVE('',#520,#522,#64,.T.);
#448=EDGE_CURVE('',#523,#523,#545,.F.);
#449=EDGE_CURVE('',#517,#524,#65,.T.);
#450=EDGE_CURVE('',#522,#524,#66,.T.);
#451=EDGE_CURVE('',#524,#525,#67,.T.);
#452=EDGE_CURVE('',#518,#525,#68,.T.);
#453=EDGE_CURVE('',#526,#526,#546,.T.);
#454=EDGE_CURVE('',#521,#525,#69,.T.);
#455=EDGE_CURVE('',#509,#527,#70,.T.);
#456=EDGE_CURVE('',#527,#492,#71,.T.);
#457=EDGE_CURVE('',#528,#493,#72,.T.);
#458=EDGE_CURVE('',#495,#528,#73,.T.);
#459=EDGE_CURVE('',#498,#529,#74,.T.);
#460=EDGE_CURVE('',#529,#507,#75,.T.);
#461=EDGE_CURVE('',#530,#508,#76,.T.);
#462=EDGE_CURVE('',#512,#530,#77,.T.);
#463=EDGE_CURVE('',#505,#530,#78,.T.);
#464=EDGE_CURVE('',#531,#531,#547,.F.);
#465=EDGE_CURVE('',#532,#532,#548,.F.);
#466=EDGE_CURVE('',#501,#529,#79,.T.);
#467=EDGE_CURVE('',#533,#533,#549,.F.);
#468=EDGE_CURVE('',#491,#528,#80,.T.);
#469=EDGE_CURVE('',#486,#527,#81,.T.);
#470=EDGE_CURVE('',#534,#534,#550,.F.);
#471=VERTEX_POINT('',#1013);
#472=VERTEX_POINT('',#1015);
#473=VERTEX_POINT('',#1018);
#474=VERTEX_POINT('',#1021);
#475=VERTEX_POINT('',#1026);
#476=VERTEX_POINT('',#1027);
#477=VERTEX_POINT('',#1029);
#478=VERTEX_POINT('',#1031);
#479=VERTEX_POINT('',#1035);
#480=VERTEX_POINT('',#1037);
#481=VERTEX_POINT('',#1041);
#482=VERTEX_POINT('',#1043);
#483=VERTEX_POINT('',#1053);
#484=VERTEX_POINT('',#1055);
#485=VERTEX_POINT('',#1056);
#486=VERTEX_POINT('',#1058);
#487=VERTEX_POINT('',#1060);
#488=VERTEX_POINT('',#1062);
#489=VERTEX_POINT('',#1064);
#490=VERTEX_POINT('',#1066);
#491=VERTEX_POINT('',#1068);
#492=VERTEX_POINT('',#1072);
#493=VERTEX_POINT('',#1074);
#494=VERTEX_POINT('',#1078);
#495=VERTEX_POINT('',#1079);
#496=VERTEX_POINT('',#1082);
#497=VERTEX_POINT('',#1084);
#498=VERTEX_POINT('',#1086);
#499=VERTEX_POINT('',#1088);
#500=VERTEX_POINT('',#1092);
#501=VERTEX_POINT('',#1094);
#502=VERTEX_POINT('',#1095);
#503=VERTEX_POINT('',#1098);
#504=VERTEX_POINT('',#1100);
#505=VERTEX_POINT('',#1102);
#506=VERTEX_POINT('',#1104);
#507=VERTEX_POINT('',#1108);
#508=VERTEX_POINT('',#1110);
#509=VERTEX_POINT('',#1114);
#510=VERTEX_POINT('',#1116);
#511=VERTEX_POINT('',#1118);
#512=VERTEX_POINT('',#1120);
#513=VERTEX_POINT('',#1125);
#514=VERTEX_POINT('',#1127);
#515=VERTEX_POINT('',#1129);
#516=VERTEX_POINT('',#1131);
#517=VERTEX_POINT('',#1135);
#518=VERTEX_POINT('',#1136);
#519=VERTEX_POINT('',#1138);
#520=VERTEX_POINT('',#1140);
#521=VERTEX_POINT('',#1144);
#522=VERTEX_POINT('',#1146);
#523=VERTEX_POINT('',#1150);
#524=VERTEX_POINT('',#1152);
#525=VERTEX_POINT('',#1156);
#526=VERTEX_POINT('',#1160);
#527=VERTEX_POINT('',#1166);
#528=VERTEX_POINT('',#1169);
#529=VERTEX_POINT('',#1173);
#530=VERTEX_POINT('',#1176);
#531=VERTEX_POINT('',#1182);
#532=VERTEX_POINT('',#1185);
#533=VERTEX_POINT('',#1190);
#534=VERTEX_POINT('',#1197);
#535=CIRCLE('',#760,0.0134);
#536=CIRCLE('',#761,0.0134);
#537=CIRCLE('',#763,0.0125);
#538=CIRCLE('',#765,0.0125);
#539=CIRCLE('',#776,0.0125);
#540=CIRCLE('',#780,0.0125);
#541=CIRCLE('',#784,0.0045);
#542=CIRCLE('',#785,0.0045);
#543=CIRCLE('',#786,0.0045);
#544=CIRCLE('',#787,0.0045);
#545=CIRCLE('',#790,0.0125);
#546=CIRCLE('',#793,0.0125);
#547=CIRCLE('',#800,0.0045);
#548=CIRCLE('',#802,0.0045);
#549=CIRCLE('',#805,0.0045);
#550=CIRCLE('',#809,0.0045);
#551=EDGE_LOOP('',(#207));
#552=EDGE_LOOP('',(#208));
#553=EDGE_LOOP('',(#209));
#554=EDGE_LOOP('',(#210));
#555=EDGE_LOOP('',(#211));
#556=EDGE_LOOP('',(#212));
#557=EDGE_LOOP('',(#213));
#558=EDGE_LOOP('',(#214));
#559=EDGE_LOOP('',(#215,#216,#217,#218));
#560=EDGE_LOOP('',(#219,#220,#221,#222));
#561=EDGE_LOOP('',(#223,#224,#225,#226));
#562=EDGE_LOOP('',(#227,#228,#229,#230));
#563=EDGE_LOOP('',(#231,#232,#233,#234));
#564=EDGE_LOOP('',(#235,#236,#237,#238));
#565=EDGE_LOOP('',(#239));
#566=EDGE_LOOP('',(#240,#241,#242,#243,#244,#245,#246,#247));
#567=EDGE_LOOP('',(#248,#249,#250,#251));
#568=EDGE_LOOP('',(#252,#253,#254,#255,#256,#257,#258,#259));
#569=EDGE_LOOP('',(#260));
#570=EDGE_LOOP('',(#261,#262,#263,#264,#265,#266,#267,#268));
#571=EDGE_LOOP('',(#269,#270,#271,#272));
#572=EDGE_LOOP('',(#273,#274,#275,#276,#277,#278,#279,#280));
#573=EDGE_LOOP('',(#281));
#574=EDGE_LOOP('',(#282));
#575=EDGE_LOOP('',(#283));
#576=EDGE_LOOP('',(#284));
#577=EDGE_LOOP('',(#285,#286,#287,#288));
#578=EDGE_LOOP('',(#289,#290,#291,#292));
#579=EDGE_LOOP('',(#293,#294,#295,#296));
#580=EDGE_LOOP('',(#297));
#581=EDGE_LOOP('',(#298,#299,#300,#301));
#582=EDGE_LOOP('',(#302,#303,#304,#305));
#583=EDGE_LOOP('',(#306));
#584=EDGE_LOOP('',(#307,#308,#309,#310));
#585=EDGE_LOOP('',(#311,#312,#313,#314));
#586=EDGE_LOOP('',(#315,#316,#317,#318));
#587=EDGE_LOOP('',(#319,#320,#321,#322,#323,#324,#325,#326));
#588=EDGE_LOOP('',(#327,#328,#329,#330,#331,#332,#333,#334));
#589=EDGE_LOOP('',(#335,#336,#337,#338));
#590=EDGE_LOOP('',(#339));
#591=EDGE_LOOP('',(#340,#341,#342,#343));
#592=EDGE_LOOP('',(#344));
#593=EDGE_LOOP('',(#345,#346,#347,#348));
#594=EDGE_LOOP('',(#349,#350,#351,#352));
#595=EDGE_LOOP('',(#353));
#596=EDGE_LOOP('',(#354,#355,#356,#357));
#597=EDGE_LOOP('',(#358,#359,#360,#361));
#598=EDGE_LOOP('',(#362,#363,#364,#365));
#599=EDGE_LOOP('',(#366));
#600=EDGE_LOOP('',(#367,#368,#369,#370));
#601=EDGE_LOOP('',(#371));
#602=EDGE_LOOP('',(#372));
#603=EDGE_LOOP('',(#373));
#604=EDGE_LOOP('',(#374));
#605=EDGE_LOOP('',(#375));
#606=EDGE_LOOP('',(#376));
#607=EDGE_LOOP('',(#377));
#608=EDGE_LOOP('',(#378));
#609=EDGE_LOOP('',(#379));
#610=EDGE_LOOP('',(#380));
#611=EDGE_LOOP('',(#381));
#612=EDGE_LOOP('',(#382));
#613=FACE_BOUND('',#551,.T.);
#614=FACE_BOUND('',#552,.T.);
#615=FACE_BOUND('',#553,.T.);
#616=FACE_BOUND('',#554,.T.);
#617=FACE_BOUND('',#555,.T.);
#618=FACE_BOUND('',#556,.T.);
#619=FACE_BOUND('',#557,.T.);
#620=FACE_BOUND('',#558,.T.);
#621=FACE_BOUND('',#559,.T.);
#622=FACE_BOUND('',#560,.T.);
#623=FACE_BOUND('',#561,.T.);
#624=FACE_BOUND('',#562,.T.);
#625=FACE_BOUND('',#563,.T.);
#626=FACE_BOUND('',#564,.T.);
#627=FACE_BOUND('',#565,.T.);
#628=FACE_BOUND('',#566,.T.);
#629=FACE_BOUND('',#567,.T.);
#630=FACE_BOUND('',#568,.T.);
#631=FACE_BOUND('',#569,.T.);
#632=FACE_BOUND('',#570,.T.);
#633=FACE_BOUND('',#571,.T.);
#634=FACE_BOUND('',#572,.T.);
#635=FACE_BOUND('',#573,.T.);
#636=FACE_BOUND('',#574,.T.);
#637=FACE_BOUND('',#575,.T.);
#638=FACE_BOUND('',#576,.T.);
#639=FACE_BOUND('',#577,.T.);
#640=FACE_BOUND('',#578,.T.);
#641=FACE_BOUND('',#579,.T.);
#642=FACE_BOUND('',#580,.T.);
#643=FACE_BOUND('',#581,.T.);
#644=FACE_BOUND('',#582,.T.);
#645=FACE_BOUND('',#583,.T.);
#646=FACE_BOUND('',#584,.T.);
#647=FACE_BOUND('',#585,.T.);
#648=FACE_BOUND('',#586,.T.);
#649=FACE_BOUND('',#587,.T.);
#650=FACE_BOUND('',#588,.T.);
#651=FACE_BOUND('',#589,.T.);
#652=FACE_BOUND('',#590,.T.);
#653=FACE_BOUND('',#591,.T.);
#654=FACE_BOUND('',#592,.T.);
#655=FACE_BOUND('',#593,.T.);
#656=FACE_BOUND('',#594,.T.);
#657=FACE_BOUND('',#595,.T.);
#658=FACE_BOUND('',#596,.T.);
#659=FACE_BOUND('',#597,.T.);
#660=FACE_BOUND('',#598,.T.);
#661=FACE_BOUND('',#599,.T.);
#662=FACE_BOUND('',#600,.T.);
#663=FACE_BOUND('',#601,.T.);
#664=FACE_BOUND('',#602,.T.);
#665=FACE_BOUND('',#603,.T.);
#666=FACE_BOUND('',#604,.T.);
#667=FACE_BOUND('',#605,.T.);
#668=FACE_BOUND('',#606,.T.);
#669=FACE_BOUND('',#607,.T.);
#670=FACE_BOUND('',#608,.T.);
#671=FACE_BOUND('',#609,.T.);
#672=FACE_BOUND('',#610,.T.);
#673=FACE_BOUND('',#611,.T.);
#674=FACE_BOUND('',#612,.T.);
#675=CYLINDRICAL_SURFACE('',#759,0.0134);
#676=CYLINDRICAL_SURFACE('',#766,0.0125);
#677=CYLINDRICAL_SURFACE('',#810,0.0045);
#678=CYLINDRICAL_SURFACE('',#811,0.0045);
#679=CYLINDRICAL_SURFACE('',#812,0.0045);
#680=CYLINDRICAL_SURFACE('',#813,0.0045);
#681=CYLINDRICAL_SURFACE('',#814,0.0125);
#682=CYLINDRICAL_SURFACE('',#815,0.0125);
#683=ADVANCED_FACE('',(#613,#614),#675,.T.);
#684=ADVANCED_FACE('',(#615,#616),#176,.T.);
#685=ADVANCED_FACE('',(#617,#618),#177,.F.);
#686=ADVANCED_FACE('',(#619,#620),#676,.F.);
#687=ADVANCED_FACE('',(#621),#178,.T.);
#688=ADVANCED_FACE('',(#622),#179,.F.);
#689=ADVANCED_FACE('',(#623),#180,.F.);
#690=ADVANCED_FACE('',(#624),#181,.T.);
#691=ADVANCED_FACE('',(#625),#182,.T.);
#692=ADVANCED_FACE('',(#626),#183,.F.);
#693=ADVANCED_FACE('',(#627,#628),#184,.T.);
#694=ADVANCED_FACE('',(#629),#185,.F.);
#695=ADVANCED_FACE('',(#630),#186,.F.);
#696=ADVANCED_FACE('',(#631,#632),#187,.F.);
#697=ADVANCED_FACE('',(#633),#188,.F.);
#698=ADVANCED_FACE('',(#634),#189,.T.);
#699=ADVANCED_FACE('',(#635,#636,#637,#638,#639,#640),#190,.T.);
#700=ADVANCED_FACE('',(#641),#191,.T.);
#701=ADVANCED_FACE('',(#642,#643),#192,.F.);
#702=ADVANCED_FACE('',(#644),#193,.F.);
#703=ADVANCED_FACE('',(#645,#646),#194,.T.);
#704=ADVANCED_FACE('',(#647),#195,.F.);
#705=ADVANCED_FACE('',(#648),#196,.T.);
#706=ADVANCED_FACE('',(#649),#197,.T.);
#707=ADVANCED_FACE('',(#650),#198,.F.);
#708=ADVANCED_FACE('',(#651),#199,.T.);
#709=ADVANCED_FACE('',(#652,#653),#200,.F.);
#710=ADVANCED_FACE('',(#654,#655),#201,.F.);
#711=ADVANCED_FACE('',(#656),#202,.F.);
#712=ADVANCED_FACE('',(#657,#658),#203,.F.);
#713=ADVANCED_FACE('',(#659),#204,.T.);
#714=ADVANCED_FACE('',(#660),#205,.F.);
#715=ADVANCED_FACE('',(#661,#662),#206,.F.);
#716=ADVANCED_FACE('',(#663,#664),#677,.F.);
#717=ADVANCED_FACE('',(#665,#666),#678,.F.);
#718=ADVANCED_FACE('',(#667,#668),#679,.F.);
#719=ADVANCED_FACE('',(#669,#670),#680,.F.);
#720=ADVANCED_FACE('',(#671,#672),#681,.F.);
#721=ADVANCED_FACE('',(#673,#674),#682,.F.);
#722=CLOSED_SHELL('',(#683,#684,#685,#686));
#723=CLOSED_SHELL('',(#687,#688,#689,#690,#691,#692));
#724=CLOSED_SHELL('',(#693,#694,#695,#696,#697,#698,#699,#700,#701,#702,
#703,#704,#705,#706,#707,#708,#709,#710,#711,#712,#713,#714,#715,#716,#717,
#718,#719,#720,#721));
#725=STYLED_ITEM('',(#728),#747);
#726=STYLED_ITEM('',(#729),#748);
#727=STYLED_ITEM('',(#730),#749);
#728=PRESENTATION_STYLE_ASSIGNMENT((#731));
#729=PRESENTATION_STYLE_ASSIGNMENT((#732));
#730=PRESENTATION_STYLE_ASSIGNMENT((#733));
#731=SURFACE_STYLE_USAGE(.BOTH.,#734);
#732=SURFACE_STYLE_USAGE(.BOTH.,#735);
#733=SURFACE_STYLE_USAGE(.BOTH.,#736);
#734=SURFACE_SIDE_STYLE('',(#737));
#735=SURFACE_SIDE_STYLE('',(#738));
#736=SURFACE_SIDE_STYLE('',(#739));
#737=SURFACE_STYLE_FILL_AREA(#740);
#738=SURFACE_STYLE_FILL_AREA(#741);
#739=SURFACE_STYLE_FILL_AREA(#742);
#740=FILL_AREA_STYLE('',(#743));
#741=FILL_AREA_STYLE('',(#744));
#742=FILL_AREA_STYLE('',(#745));
#743=FILL_AREA_STYLE_COLOUR('',#746);
#744=FILL_AREA_STYLE_COLOUR('',#746);
#745=FILL_AREA_STYLE_COLOUR('',#746);
#746=COLOUR_RGB('',0.615686274509804,0.811764705882353,0.929411764705882);
#747=MANIFOLD_SOLID_BREP('Anschluss',#722);
#748=MANIFOLD_SOLID_BREP('Wand',#723);
#749=MANIFOLD_SOLID_BREP('koerper',#724);
#750=SHAPE_DEFINITION_REPRESENTATION(#1218,#754);
#751=SHAPE_DEFINITION_REPRESENTATION(#1219,#755);
#752=SHAPE_DEFINITION_REPRESENTATION(#1221,#756);
#753=SHAPE_DEFINITION_REPRESENTATION(#1223,#757);
#754=SHAPE_REPRESENTATION('koerper',(#758,#767,#774,#816,#817),#1207);
#755=SHAPE_REPRESENTATION('Anschluss',(#758),#1208);
#756=SHAPE_REPRESENTATION('Wand',(#758),#1209);
#757=SHAPE_REPRESENTATION('koerper',(#758),#1210);
#758=AXIS2_PLACEMENT_3D('',#1010,#818,#819);
#759=AXIS2_PLACEMENT_3D('',#1011,#820,#821);
#760=AXIS2_PLACEMENT_3D('',#1012,#822,#823);
#761=AXIS2_PLACEMENT_3D('',#1014,#824,#825);
#762=AXIS2_PLACEMENT_3D('',#1016,#826,#827);
#763=AXIS2_PLACEMENT_3D('',#1017,#828,#829);
#764=AXIS2_PLACEMENT_3D('',#1019,#830,#831);
#765=AXIS2_PLACEMENT_3D('',#1020,#832,#833);
#766=AXIS2_PLACEMENT_3D('',#1022,#834,#835);
#767=AXIS2_PLACEMENT_3D('',#1023,#836,#837);
#768=AXIS2_PLACEMENT_3D('',#1024,#838,#839);
#769=AXIS2_PLACEMENT_3D('',#1033,#844,#845);
#770=AXIS2_PLACEMENT_3D('',#1039,#849,#850);
#771=AXIS2_PLACEMENT_3D('',#1045,#854,#855);
#772=AXIS2_PLACEMENT_3D('',#1048,#858,#859);
#773=AXIS2_PLACEMENT_3D('',#1049,#860,#861);
#774=AXIS2_PLACEMENT_3D('',#1050,#862,#863);
#775=AXIS2_PLACEMENT_3D('',#1051,#864,#865);
#776=AXIS2_PLACEMENT_3D('',#1052,#866,#867);
#777=AXIS2_PLACEMENT_3D('',#1070,#876,#877);
#778=AXIS2_PLACEMENT_3D('',#1076,#881,#882);
#779=AXIS2_PLACEMENT_3D('',#1090,#890,#891);
#780=AXIS2_PLACEMENT_3D('',#1091,#892,#893);
#781=AXIS2_PLACEMENT_3D('',#1106,#901,#902);
#782=AXIS2_PLACEMENT_3D('',#1112,#906,#907);
#783=AXIS2_PLACEMENT_3D('',#1123,#914,#915);
#784=AXIS2_PLACEMENT_3D('',#1124,#916,#917);
#785=AXIS2_PLACEMENT_3D('',#1126,#918,#919);
#786=AXIS2_PLACEMENT_3D('',#1128,#920,#921);
#787=AXIS2_PLACEMENT_3D('',#1130,#922,#923);
#788=AXIS2_PLACEMENT_3D('',#1142,#930,#931);
#789=AXIS2_PLACEMENT_3D('',#1148,#935,#936);
#790=AXIS2_PLACEMENT_3D('',#1149,#937,#938);
#791=AXIS2_PLACEMENT_3D('',#1154,#941,#942);
#792=AXIS2_PLACEMENT_3D('',#1158,#945,#946);
#793=AXIS2_PLACEMENT_3D('',#1159,#947,#948);
#794=AXIS2_PLACEMENT_3D('',#1162,#950,#951);
#795=AXIS2_PLACEMENT_3D('',#1163,#952,#953);
#796=AXIS2_PLACEMENT_3D('',#1164,#954,#955);
#797=AXIS2_PLACEMENT_3D('',#1171,#960,#961);
#798=AXIS2_PLACEMENT_3D('',#1178,#966,#967);
#799=AXIS2_PLACEMENT_3D('',#1180,#969,#970);
#800=AXIS2_PLACEMENT_3D('',#1181,#971,#972);
#801=AXIS2_PLACEMENT_3D('',#1183,#973,#974);
#802=AXIS2_PLACEMENT_3D('',#1184,#975,#976);
#803=AXIS2_PLACEMENT_3D('',#1187,#978,#979);
#804=AXIS2_PLACEMENT_3D('',#1188,#980,#981);
#805=AXIS2_PLACEMENT_3D('',#1189,#982,#983);
#806=AXIS2_PLACEMENT_3D('',#1192,#985,#986);
#807=AXIS2_PLACEMENT_3D('',#1193,#987,#988);
#808=AXIS2_PLACEMENT_3D('',#1195,#990,#991);
#809=AXIS2_PLACEMENT_3D('',#1196,#992,#993);
#810=AXIS2_PLACEMENT_3D('',#1198,#994,#995);
#811=AXIS2_PLACEMENT_3D('',#1199,#996,#997);
#812=AXIS2_PLACEMENT_3D('',#1200,#998,#999);
#813=AXIS2_PLACEMENT_3D('',#1201,#1000,#1001);
#814=AXIS2_PLACEMENT_3D('',#1202,#1002,#1003);
#815=AXIS2_PLACEMENT_3D('',#1203,#1004,#1005);
#816=AXIS2_PLACEMENT_3D('',#1204,#1006,#1007);
#817=AXIS2_PLACEMENT_3D('',#1205,#1008,#1009);
#818=DIRECTION('',(0.,0.,1.));
#819=DIRECTION('',(1.,0.,0.));
#820=DIRECTION('',(-1.,0.,0.));
#821=DIRECTION('',(0.,0.,1.));
#822=DIRECTION('',(1.,0.,0.));
#823=DIRECTION('',(0.,0.,-1.));
#824=DIRECTION('',(1.,0.,0.));
#825=DIRECTION('',(0.,0.,-1.));
#826=DIRECTION('',(1.,0.,0.));
#827=DIRECTION('',(0.,1.,0.));
#828=DIRECTION('',(1.,0.,0.));
#829=DIRECTION('',(0.,0.,-1.));
#830=DIRECTION('',(1.,0.,0.));
#831=DIRECTION('',(0.,1.,0.));
#832=DIRECTION('',(-1.,0.,0.));
#833=DIRECTION('',(0.,0.,1.));
#834=DIRECTION('',(-1.,0.,0.));
#835=DIRECTION('',(0.,0.,1.));
#836=DIRECTION('',(0.,0.,1.));
#837=DIRECTION('',(9.25185853854297E-17,-1.,0.));
#838=DIRECTION('',(1.,0.,0.));
#839=DIRECTION('',(0.,0.,-1.));
#840=DIRECTION('',(0.,0.,-1.));
#841=DIRECTION('',(0.,1.,0.));
#842=DIRECTION('',(0.,0.,-1.));
#843=DIRECTION('',(0.,1.,0.));
#844=DIRECTION('',(9.34531165509391E-17,0.,-1.));
#845=DIRECTION('',(-1.,0.,-9.34531165509391E-17));
#846=DIRECTION('',(-1.,0.,-9.34531165509391E-17));
#847=DIRECTION('',(0.,1.,0.));
#848=DIRECTION('',(-1.,0.,-9.34531165509391E-17));
#849=DIRECTION('',(1.,0.,2.77555756156289E-16));
#850=DIRECTION('',(2.77555756156289E-16,0.,-1.));
#851=DIRECTION('',(2.77555756156289E-16,0.,-1.));
#852=DIRECTION('',(0.,1.,0.));
#853=DIRECTION('',(2.77555756156289E-16,0.,-1.));
#854=DIRECTION('',(1.86906233101878E-16,0.,-1.));
#855=DIRECTION('',(-1.,0.,-1.86906233101878E-16));
#856=DIRECTION('',(-1.,0.,-1.86906233101878E-16));
#857=DIRECTION('',(-1.,0.,-1.86906233101878E-16));
#858=DIRECTION('',(0.,-1.,0.));
#859=DIRECTION('',(1.,0.,0.));
#860=DIRECTION('',(0.,-1.,0.));
#861=DIRECTION('',(1.,0.,0.));
#862=DIRECTION('',(0.,0.,1.));
#863=DIRECTION('',(1.,0.,0.));
#864=DIRECTION('',(9.25185853854297E-17,-1.,0.));
#865=DIRECTION('',(1.,9.25185853854297E-17,0.));
#866=DIRECTION('',(9.25185853854297E-17,-1.,0.));
#867=DIRECTION('',(1.,9.25185853854297E-17,0.));
#868=DIRECTION('',(-1.,-9.25185853854297E-17,0.));
#869=DIRECTION('',(0.,0.,-1.));
#870=DIRECTION('',(-1.,-9.25185853854297E-17,0.));
#871=DIRECTION('',(0.,0.,-1.));
#872=DIRECTION('',(-1.,-9.25185853854297E-17,0.));
#873=DIRECTION('',(0.,0.,-1.));
#874=DIRECTION('',(-1.,-9.25185853854297E-17,0.));
#875=DIRECTION('',(0.,0.,-1.));
#876=DIRECTION('',(0.,0.,1.));
#877=DIRECTION('',(1.,0.,0.));
#878=DIRECTION('',(0.,-1.,0.));
#879=DIRECTION('',(0.,-1.,0.));
#880=DIRECTION('',(1.,0.,0.));
#881=DIRECTION('',(1.,3.46944695195362E-16,0.));
#882=DIRECTION('',(-3.46944695195362E-16,1.,0.));
#883=DIRECTION('',(0.,0.,-1.));
#884=DIRECTION('',(3.46944695195362E-16,-1.,0.));
#885=DIRECTION('',(3.46944695195362E-16,-1.,0.));
#886=DIRECTION('',(0.,0.,-1.));
#887=DIRECTION('',(3.46944695195362E-16,-1.,0.));
#888=DIRECTION('',(0.,0.,-1.));
#889=DIRECTION('',(3.46944695195362E-16,-1.,0.));
#890=DIRECTION('',(9.25185853854297E-17,-1.,0.));
#891=DIRECTION('',(1.,9.25185853854297E-17,0.));
#892=DIRECTION('',(9.25185853854297E-17,-1.,0.));
#893=DIRECTION('',(1.,9.25185853854297E-17,0.));
#894=DIRECTION('',(0.,0.,1.));
#895=DIRECTION('',(-1.,-9.25185853854297E-17,0.));
#896=DIRECTION('',(-1.,-9.25185853854297E-17,0.));
#897=DIRECTION('',(0.,0.,-1.));
#898=DIRECTION('',(-1.,-9.25185853854297E-17,0.));
#899=DIRECTION('',(0.,0.,1.));
#900=DIRECTION('',(-1.,-9.25185853854297E-17,0.));
#901=DIRECTION('',(0.,0.,1.));
#902=DIRECTION('',(1.,0.,0.));
#903=DIRECTION('',(0.,1.,0.));
#904=DIRECTION('',(0.,1.,0.));
#905=DIRECTION('',(1.,0.,0.));
#906=DIRECTION('',(1.,2.77555756156289E-16,0.));
#907=DIRECTION('',(-2.77555756156289E-16,1.,0.));
#908=DIRECTION('',(2.77555756156289E-16,-1.,0.));
#909=DIRECTION('',(0.,0.,-1.));
#910=DIRECTION('',(2.77555756156289E-16,-1.,0.));
#911=DIRECTION('',(0.,0.,-1.));
#912=DIRECTION('',(2.77555756156289E-16,-1.,0.));
#913=DIRECTION('',(2.77555756156289E-16,-1.,0.));
#914=DIRECTION('',(0.,0.,1.));
#915=DIRECTION('',(1.,0.,0.));
#916=DIRECTION('',(0.,0.,1.));
#917=DIRECTION('',(1.,0.,0.));
#918=DIRECTION('',(0.,0.,1.));
#919=DIRECTION('',(1.,0.,0.));
#920=DIRECTION('',(0.,0.,1.));
#921=DIRECTION('',(1.,0.,0.));
#922=DIRECTION('',(0.,0.,1.));
#923=DIRECTION('',(1.,0.,0.));
#924=DIRECTION('',(1.,0.,0.));
#925=DIRECTION('',(1.,0.,0.));
#926=DIRECTION('',(2.77555756156289E-16,-1.,0.));
#927=DIRECTION('',(-1.,-9.25185853854297E-17,0.));
#928=DIRECTION('',(3.46944695195362E-16,-1.,0.));
#929=DIRECTION('',(-1.,-9.25185853854297E-17,0.));
#930=DIRECTION('',(1.,3.46944695195362E-16,0.));
#931=DIRECTION('',(-3.46944695195362E-16,1.,0.));
#932=DIRECTION('',(0.,0.,-1.));
#933=DIRECTION('',(3.46944695195362E-16,-1.,0.));
#934=DIRECTION('',(0.,0.,-1.));
#935=DIRECTION('',(9.25185853854297E-17,-1.,0.));
#936=DIRECTION('',(1.,9.25185853854297E-17,0.));
#937=DIRECTION('',(9.25185853854297E-17,-1.,0.));
#938=DIRECTION('',(1.,9.25185853854297E-17,0.));
#939=DIRECTION('',(0.,0.,-1.));
#940=DIRECTION('',(-1.,-9.25185853854297E-17,0.));
#941=DIRECTION('',(1.,2.77555756156289E-16,0.));
#942=DIRECTION('',(-2.77555756156289E-16,1.,0.));
#943=DIRECTION('',(2.77555756156289E-16,-1.,0.));
#944=DIRECTION('',(0.,0.,-1.));
#945=DIRECTION('',(9.25185853854297E-17,-1.,0.));
#946=DIRECTION('',(1.,9.25185853854297E-17,0.));
#947=DIRECTION('',(-9.25185853854297E-17,1.,0.));
#948=DIRECTION('',(-1.,-9.25185853854297E-17,0.));
#949=DIRECTION('',(-1.,-9.25185853854297E-17,0.));
#950=DIRECTION('',(0.,0.,1.));
#951=DIRECTION('',(1.,0.,0.));
#952=DIRECTION('',(0.,0.,1.));
#953=DIRECTION('',(1.,0.,0.));
#954=DIRECTION('',(0.,-1.,0.));
#955=DIRECTION('',(0.,0.,-1.));
#956=DIRECTION('',(1.,0.,0.));
#957=DIRECTION('',(0.,0.,1.));
#958=DIRECTION('',(0.,0.,1.));
#959=DIRECTION('',(-1.,0.,0.));
#960=DIRECTION('',(0.,-1.,0.));
#961=DIRECTION('',(0.,0.,-1.));
#962=DIRECTION('',(-1.,0.,0.));
#963=DIRECTION('',(0.,0.,1.));
#964=DIRECTION('',(0.,0.,1.));
#965=DIRECTION('',(1.,0.,0.));
#966=DIRECTION('',(1.,0.,0.));
#967=DIRECTION('',(0.,0.,-1.));
#968=DIRECTION('',(0.,1.,0.));
#969=DIRECTION('',(0.,0.,1.));
#970=DIRECTION('',(1.,0.,0.));
#971=DIRECTION('',(0.,0.,1.));
#972=DIRECTION('',(1.,0.,0.));
#973=DIRECTION('',(0.,0.,1.));
#974=DIRECTION('',(1.,0.,0.));
#975=DIRECTION('',(0.,0.,1.));
#976=DIRECTION('',(1.,0.,0.));
#977=DIRECTION('',(0.,1.,0.));
#978=DIRECTION('',(1.,0.,0.));
#979=DIRECTION('',(0.,0.,-1.));
#980=DIRECTION('',(0.,0.,1.));
#981=DIRECTION('',(1.,0.,0.));
#982=DIRECTION('',(0.,0.,1.));
#983=DIRECTION('',(1.,0.,0.));
#984=DIRECTION('',(0.,-1.,0.));
#985=DIRECTION('',(-1.,0.,0.));
#986=DIRECTION('',(0.,0.,1.));
#987=DIRECTION('',(-1.,0.,0.));
#988=DIRECTION('',(0.,0.,1.));
#989=DIRECTION('',(0.,-1.,0.));
#990=DIRECTION('',(0.,0.,1.));
#991=DIRECTION('',(1.,0.,0.));
#992=DIRECTION('',(0.,0.,1.));
#993=DIRECTION('',(1.,0.,0.));
#994=DIRECTION('',(0.,0.,1.));
#995=DIRECTION('',(1.,0.,0.));
#996=DIRECTION('',(0.,0.,1.));
#997=DIRECTION('',(1.,0.,0.));
#998=DIRECTION('',(0.,0.,1.));
#999=DIRECTION('',(1.,0.,0.));
#1000=DIRECTION('',(0.,0.,1.));
#1001=DIRECTION('',(1.,0.,0.));
#1002=DIRECTION('',(-9.25185853854297E-17,1.,0.));
#1003=DIRECTION('',(-1.,-9.25185853854297E-17,0.));
#1004=DIRECTION('',(-9.25185853854297E-17,1.,0.));
#1005=DIRECTION('',(-1.,-9.25185853854297E-17,0.));
#1006=DIRECTION('',(0.,0.,1.));
#1007=DIRECTION('',(1.,0.,0.));
#1008=DIRECTION('',(0.,0.,1.));
#1009=DIRECTION('',(9.25185853854297E-17,-1.,0.));
#1010=CARTESIAN_POINT('',(0.,0.,0.));
#1011=CARTESIAN_POINT('',(0.035,0.,8.20513355428727E-19));
#1012=CARTESIAN_POINT('',(0.035,0.,8.20513355428727E-19));
#1013=CARTESIAN_POINT('',(0.035,0.,-0.0134));
#1014=CARTESIAN_POINT('',(0.,0.,8.20513355428727E-19));
#1015=CARTESIAN_POINT('',(0.,0.,-0.0134));
#1016=CARTESIAN_POINT('',(0.035,0.,0.));
#1017=CARTESIAN_POINT('',(0.035,0.,0.));
#1018=CARTESIAN_POINT('',(0.035,0.,-0.0125));
#1019=CARTESIAN_POINT('',(0.,0.,0.));
#1020=CARTESIAN_POINT('',(0.,0.,0.));
#1021=CARTESIAN_POINT('',(0.,0.,0.0125));
#1022=CARTESIAN_POINT('',(0.0553449126912006,0.,0.));
#1023=CARTESIAN_POINT('',(-0.0544480963349341,-0.18971822950989,0.103279285132885));
#1024=CARTESIAN_POINT('',(0.,-0.001,-0.0281879195593271));
#1025=CARTESIAN_POINT('',(0.,0.,-0.0281879195593271));
#1026=CARTESIAN_POINT('',(2.77555756156289E-17,0.,0.0718120804406729));
#1027=CARTESIAN_POINT('',(0.,0.,-0.128187919559327));
#1028=CARTESIAN_POINT('',(2.77555756156289E-17,-0.001,0.0718120804406729));
#1029=CARTESIAN_POINT('',(2.77555756156289E-17,-0.001,0.0718120804406729));
#1030=CARTESIAN_POINT('',(0.,-0.001,-0.0281879195593271));
#1031=CARTESIAN_POINT('',(0.,-0.001,-0.128187919559327));
#1032=CARTESIAN_POINT('',(0.,-0.001,-0.128187919559327));
#1033=CARTESIAN_POINT('',(-0.1485,-0.001,0.0718120804406729));
#1034=CARTESIAN_POINT('',(-0.1485,0.,0.0718120804406729));
#1035=CARTESIAN_POINT('',(-0.297,0.,0.0718120804406729));
#1036=CARTESIAN_POINT('',(-0.297,-0.001,0.0718120804406729));
#1037=CARTESIAN_POINT('',(-0.297,-0.001,0.0718120804406729));
#1038=CARTESIAN_POINT('',(-0.1485,-0.001,0.0718120804406729));
#1039=CARTESIAN_POINT('',(-0.297,-0.001,-0.0281879195593271));
#1040=CARTESIAN_POINT('',(-0.297,0.,-0.0281879195593271));
#1041=CARTESIAN_POINT('',(-0.297,0.,-0.128187919559327));
#1042=CARTESIAN_POINT('',(-0.297,-0.001,-0.128187919559327));
#1043=CARTESIAN_POINT('',(-0.297,-0.001,-0.128187919559327));
#1044=CARTESIAN_POINT('',(-0.297,-0.001,-0.0281879195593271));
#1045=CARTESIAN_POINT('',(-0.1485,-0.001,-0.128187919559327));
#1046=CARTESIAN_POINT('',(-0.1485,0.,-0.128187919559327));
#1047=CARTESIAN_POINT('',(-0.1485,-0.001,-0.128187919559327));
#1048=CARTESIAN_POINT('',(-0.1485,-0.001,-0.0281879195593271));
#1049=CARTESIAN_POINT('',(-0.1485,0.,-0.0281879195593271));
#1050=CARTESIAN_POINT('',(0.0940519036650657,-0.0692182295098901,0.107467204692212));
#1051=CARTESIAN_POINT('',(-1.1092978387713E-16,0.199,0.25));
#1052=CARTESIAN_POINT('',(-1.74775313836884E-17,0.199,0.125));
#1053=CARTESIAN_POINT('',(0.0125,0.199,0.125));
#1054=CARTESIAN_POINT('',(-1.1092978387713E-16,0.199,0.249));
#1055=CARTESIAN_POINT('',(0.135,0.199,0.249));
#1056=CARTESIAN_POINT('',(-0.135,0.199,0.249));
#1057=CARTESIAN_POINT('',(-0.135,0.199,0.25));
#1058=CARTESIAN_POINT('',(-0.135,0.199,0.23));
#1059=CARTESIAN_POINT('',(-1.1092978387713E-16,0.199,0.23));
#1060=CARTESIAN_POINT('',(-0.149,0.199,0.23));
#1061=CARTESIAN_POINT('',(-0.149,0.199,0.25));
#1062=CARTESIAN_POINT('',(-0.149,0.199,0.001));
#1063=CARTESIAN_POINT('',(-1.1092978387713E-16,0.199,0.001));
#1064=CARTESIAN_POINT('',(0.149,0.199,0.001));
#1065=CARTESIAN_POINT('',(0.149,0.199,0.25));
#1066=CARTESIAN_POINT('',(0.149,0.199,0.23));
#1067=CARTESIAN_POINT('',(-1.1092978387713E-16,0.199,0.23));
#1068=CARTESIAN_POINT('',(0.135,0.199,0.23));
#1069=CARTESIAN_POINT('',(0.135,0.199,0.25));
#1070=CARTESIAN_POINT('',(0.,-2.77555756156289E-17,0.249));
#1071=CARTESIAN_POINT('',(-0.135,-2.77555756156289E-17,0.249));
#1072=CARTESIAN_POINT('',(-0.135,0.185,0.249));
#1073=CARTESIAN_POINT('',(0.135,-2.77555756156289E-17,0.249));
#1074=CARTESIAN_POINT('',(0.135,0.185,0.249));
#1075=CARTESIAN_POINT('',(-8.32667268468867E-17,0.185,0.249));
#1076=CARTESIAN_POINT('',(0.149,-3.46944695195362E-19,0.25));
#1077=CARTESIAN_POINT('',(0.149,0.185,0.25));
#1078=CARTESIAN_POINT('',(0.149,0.185,0.25));
#1079=CARTESIAN_POINT('',(0.149,0.185,0.23));
#1080=CARTESIAN_POINT('',(0.149,-3.46944695195362E-19,0.23));
#1081=CARTESIAN_POINT('',(0.149,-3.46944695195362E-19,0.001));
#1082=CARTESIAN_POINT('',(0.149,-0.199,0.001));
#1083=CARTESIAN_POINT('',(0.149,-0.199,0.25));
#1084=CARTESIAN_POINT('',(0.149,-0.199,0.23));
#1085=CARTESIAN_POINT('',(0.149,-3.46944695195362E-19,0.23));
#1086=CARTESIAN_POINT('',(0.149,-0.185,0.23));
#1087=CARTESIAN_POINT('',(0.149,-0.185,0.25));
#1088=CARTESIAN_POINT('',(0.149,-0.185,0.25));
#1089=CARTESIAN_POINT('',(0.149,-3.46944695195362E-19,0.25));
#1090=CARTESIAN_POINT('',(4.15408448380579E-17,-0.199,0.25));
#1091=CARTESIAN_POINT('',(1.93448655997126E-17,-0.199,0.125));
#1092=CARTESIAN_POINT('',(0.0125,-0.199,0.125));
#1093=CARTESIAN_POINT('',(0.135,-0.199,0.25));
#1094=CARTESIAN_POINT('',(0.135,-0.199,0.23));
#1095=CARTESIAN_POINT('',(0.135,-0.199,0.249));
#1096=CARTESIAN_POINT('',(4.15408448380579E-17,-0.199,0.23));
#1097=CARTESIAN_POINT('',(4.15408448380579E-17,-0.199,0.001));
#1098=CARTESIAN_POINT('',(-0.149,-0.199,0.001));
#1099=CARTESIAN_POINT('',(-0.149,-0.199,0.25));
#1100=CARTESIAN_POINT('',(-0.149,-0.199,0.23));
#1101=CARTESIAN_POINT('',(4.15408448380579E-17,-0.199,0.23));
#1102=CARTESIAN_POINT('',(-0.135,-0.199,0.23));
#1103=CARTESIAN_POINT('',(-0.135,-0.199,0.25));
#1104=CARTESIAN_POINT('',(-0.135,-0.199,0.249));
#1105=CARTESIAN_POINT('',(4.15408448380579E-17,-0.199,0.249));
#1106=CARTESIAN_POINT('',(0.,-2.77555756156289E-17,0.249));
#1107=CARTESIAN_POINT('',(0.135,-2.77555756156289E-17,0.249));
#1108=CARTESIAN_POINT('',(0.135,-0.185,0.249));
#1109=CARTESIAN_POINT('',(-0.135,-2.77555756156289E-17,0.249));
#1110=CARTESIAN_POINT('',(-0.135,-0.185,0.249));
#1111=CARTESIAN_POINT('',(5.55111512312578E-17,-0.185,0.249));
#1112=CARTESIAN_POINT('',(-0.149,-5.52335954751015E-17,0.25));
#1113=CARTESIAN_POINT('',(-0.149,-5.52335954751015E-17,0.23));
#1114=CARTESIAN_POINT('',(-0.149,0.185,0.23));
#1115=CARTESIAN_POINT('',(-0.149,0.185,0.25));
#1116=CARTESIAN_POINT('',(-0.149,0.185,0.25));
#1117=CARTESIAN_POINT('',(-0.149,-5.52335954751015E-17,0.25));
#1118=CARTESIAN_POINT('',(-0.149,-0.185,0.25));
#1119=CARTESIAN_POINT('',(-0.149,-0.185,0.25));
#1120=CARTESIAN_POINT('',(-0.149,-0.185,0.23));
#1121=CARTESIAN_POINT('',(-0.149,-5.52335954751015E-17,0.23));
#1122=CARTESIAN_POINT('',(-0.149,-5.52335954751015E-17,0.001));
#1123=CARTESIAN_POINT('',(0.,0.,0.25));
#1124=CARTESIAN_POINT('',(0.1425,0.1925,0.25));
#1125=CARTESIAN_POINT('',(0.147,0.1925,0.25));
#1126=CARTESIAN_POINT('',(0.1425,-0.1925,0.25));
#1127=CARTESIAN_POINT('',(0.147,-0.1925,0.25));
#1128=CARTESIAN_POINT('',(-0.1425,-0.1925,0.25));
#1129=CARTESIAN_POINT('',(-0.138,-0.1925,0.25));
#1130=CARTESIAN_POINT('',(-0.1425,0.1925,0.25));
#1131=CARTESIAN_POINT('',(-0.138,0.1925,0.25));
#1132=CARTESIAN_POINT('',(-8.32667268468867E-17,0.185,0.25));
#1133=CARTESIAN_POINT('',(5.55111512312578E-17,-0.185,0.25));
#1134=CARTESIAN_POINT('',(-0.15,-5.55111512312578E-17,0.25));
#1135=CARTESIAN_POINT('',(-0.15,0.2,0.25));
#1136=CARTESIAN_POINT('',(-0.15,-0.2,0.25));
#1137=CARTESIAN_POINT('',(4.16333634234433E-17,-0.2,0.25));
#1138=CARTESIAN_POINT('',(0.15,-0.2,0.25));
#1139=CARTESIAN_POINT('',(0.15,0.,0.25));
#1140=CARTESIAN_POINT('',(0.15,0.2,0.25));
#1141=CARTESIAN_POINT('',(-1.11022302462516E-16,0.2,0.25));
#1142=CARTESIAN_POINT('',(0.15,0.,0.25));
#1143=CARTESIAN_POINT('',(0.15,-0.2,0.25));
#1144=CARTESIAN_POINT('',(0.15,-0.2,0.));
#1145=CARTESIAN_POINT('',(0.15,0.,0.));
#1146=CARTESIAN_POINT('',(0.15,0.2,0.));
#1147=CARTESIAN_POINT('',(0.15,0.2,0.25));
#1148=CARTESIAN_POINT('',(-1.11022302462516E-16,0.2,0.25));
#1149=CARTESIAN_POINT('',(-1.75700499690738E-17,0.2,0.125));
#1150=CARTESIAN_POINT('',(0.0125,0.2,0.125));
#1151=CARTESIAN_POINT('',(-0.15,0.2,0.25));
#1152=CARTESIAN_POINT('',(-0.15,0.2,0.));
#1153=CARTESIAN_POINT('',(-1.11022302462516E-16,0.2,0.));
#1154=CARTESIAN_POINT('',(-0.15,-5.55111512312578E-17,0.25));
#1155=CARTESIAN_POINT('',(-0.15,-5.55111512312578E-17,0.));
#1156=CARTESIAN_POINT('',(-0.15,-0.2,0.));
#1157=CARTESIAN_POINT('',(-0.15,-0.2,0.25));
#1158=CARTESIAN_POINT('',(4.16333634234433E-17,-0.2,0.25));
#1159=CARTESIAN_POINT('',(1.9437384185098E-17,-0.2,0.125));
#1160=CARTESIAN_POINT('',(-0.0125,-0.2,0.125));
#1161=CARTESIAN_POINT('',(4.16333634234433E-17,-0.2,0.));
#1162=CARTESIAN_POINT('',(0.,0.,0.));
#1163=CARTESIAN_POINT('',(0.,0.,0.001));
#1164=CARTESIAN_POINT('',(-8.32667268468867E-17,0.185,0.249));
#1165=CARTESIAN_POINT('',(-0.1425,0.185,0.23));
#1166=CARTESIAN_POINT('',(-0.135,0.185,0.23));
#1167=CARTESIAN_POINT('',(-0.135,0.185,0.23));
#1168=CARTESIAN_POINT('',(0.135,0.185,0.23));
#1169=CARTESIAN_POINT('',(0.135,0.185,0.23));
#1170=CARTESIAN_POINT('',(0.1425,0.185,0.23));
#1171=CARTESIAN_POINT('',(5.55111512312578E-17,-0.185,0.249));
#1172=CARTESIAN_POINT('',(0.1425,-0.185,0.23));
#1173=CARTESIAN_POINT('',(0.135,-0.185,0.23));
#1174=CARTESIAN_POINT('',(0.135,-0.185,0.23));
#1175=CARTESIAN_POINT('',(-0.135,-0.185,0.23));
#1176=CARTESIAN_POINT('',(-0.135,-0.185,0.23));
#1177=CARTESIAN_POINT('',(-0.1425,-0.185,0.23));
#1178=CARTESIAN_POINT('',(-0.135,-0.1925,0.23));
#1179=CARTESIAN_POINT('',(-0.135,-0.1925,0.23));
#1180=CARTESIAN_POINT('',(0.,-2.77555756156289E-17,0.23));
#1181=CARTESIAN_POINT('',(-0.1425,-0.1925,0.23));
#1182=CARTESIAN_POINT('',(-0.138,-0.1925,0.23));
#1183=CARTESIAN_POINT('',(0.,-2.77555756156289E-17,0.23));
#1184=CARTESIAN_POINT('',(0.1425,-0.1925,0.23));
#1185=CARTESIAN_POINT('',(0.147,-0.1925,0.23));
#1186=CARTESIAN_POINT('',(0.135,-0.1925,0.23));
#1187=CARTESIAN_POINT('',(0.135,-0.1925,0.23));
#1188=CARTESIAN_POINT('',(0.,-2.77555756156289E-17,0.23));
#1189=CARTESIAN_POINT('',(0.1425,0.1925,0.23));
#1190=CARTESIAN_POINT('',(0.147,0.1925,0.23));
#1191=CARTESIAN_POINT('',(0.135,0.1925,0.23));
#1192=CARTESIAN_POINT('',(0.135,0.1925,0.23));
#1193=CARTESIAN_POINT('',(-0.135,0.1925,0.23));
#1194=CARTESIAN_POINT('',(-0.135,0.1925,0.23));
#1195=CARTESIAN_POINT('',(0.,-2.77555756156289E-17,0.23));
#1196=CARTESIAN_POINT('',(-0.1425,0.1925,0.23));
#1197=CARTESIAN_POINT('',(-0.138,0.1925,0.23));
#1198=CARTESIAN_POINT('',(-0.1425,0.1925,0.198648063607188));
#1199=CARTESIAN_POINT('',(0.1425,0.1925,0.198648063607188));
#1200=CARTESIAN_POINT('',(0.1425,-0.1925,0.198648063607188));
#1201=CARTESIAN_POINT('',(-0.1425,-0.1925,0.198648063607188));
#1202=CARTESIAN_POINT('',(1.9437384185098E-17,-0.2,0.125));
#1203=CARTESIAN_POINT('',(1.9437384185098E-17,-0.2,0.125));
#1204=CARTESIAN_POINT('',(-0.0544480963349342,0.01028177049011,-0.021720714867115));
#1205=CARTESIAN_POINT('',(-0.0544480963349343,0.24528177049011,0.103279285132885));
#1206=MECHANICAL_DESIGN_GEOMETRIC_PRESENTATION_REPRESENTATION('',(#725,
#726,#727),#1207);
#1207=(
GEOMETRIC_REPRESENTATION_CONTEXT(3)
GLOBAL_UNCERTAINTY_ASSIGNED_CONTEXT((#1211))
GLOBAL_UNIT_ASSIGNED_CONTEXT((#1217,#1216,#1215))
REPRESENTATION_CONTEXT('koerper','TOP_LEVEL_ASSEMBLY_PART')
);
#1208=(
GEOMETRIC_REPRESENTATION_CONTEXT(3)
GLOBAL_UNCERTAINTY_ASSIGNED_CONTEXT((#1212))
GLOBAL_UNIT_ASSIGNED_CONTEXT((#1217,#1216,#1215))
REPRESENTATION_CONTEXT('Anschluss','COMPONENT_PART')
);
#1209=(
GEOMETRIC_REPRESENTATION_CONTEXT(3)
GLOBAL_UNCERTAINTY_ASSIGNED_CONTEXT((#1213))
GLOBAL_UNIT_ASSIGNED_CONTEXT((#1217,#1216,#1215))
REPRESENTATION_CONTEXT('Wand','COMPONENT_PART')
);
#1210=(
GEOMETRIC_REPRESENTATION_CONTEXT(3)
GLOBAL_UNCERTAINTY_ASSIGNED_CONTEXT((#1214))
GLOBAL_UNIT_ASSIGNED_CONTEXT((#1217,#1216,#1215))
REPRESENTATION_CONTEXT('koerper','COMPONENT_PART')
);
#1211=UNCERTAINTY_MEASURE_WITH_UNIT(LENGTH_MEASURE(1.E-8),#1217,
'DISTANCE_ACCURACY_VALUE','Maximum Tolerance applied to model');
#1212=UNCERTAINTY_MEASURE_WITH_UNIT(LENGTH_MEASURE(1.E-8),#1217,
'DISTANCE_ACCURACY_VALUE','Maximum Tolerance applied to model');
#1213=UNCERTAINTY_MEASURE_WITH_UNIT(LENGTH_MEASURE(1.E-8),#1217,
'DISTANCE_ACCURACY_VALUE','Maximum Tolerance applied to model');
#1214=UNCERTAINTY_MEASURE_WITH_UNIT(LENGTH_MEASURE(1.E-8),#1217,
'DISTANCE_ACCURACY_VALUE','Maximum Tolerance applied to model');
#1215=(
NAMED_UNIT(*)
SI_UNIT($,.STERADIAN.)
SOLID_ANGLE_UNIT()
);
#1216=(
NAMED_UNIT(*)
PLANE_ANGLE_UNIT()
SI_UNIT($,.RADIAN.)
);
#1217=(
LENGTH_UNIT()
NAMED_UNIT(*)
SI_UNIT($,.METRE.)
);
#1218=PRODUCT_DEFINITION_SHAPE('','',#1226);
#1219=PRODUCT_DEFINITION_SHAPE('','',#1227);
#1220=PRODUCT_DEFINITION_SHAPE(' ','NAUO PRDDFN',#158);
#1221=PRODUCT_DEFINITION_SHAPE('','',#1228);
#1222=PRODUCT_DEFINITION_SHAPE(' ','NAUO PRDDFN',#159);
#1223=PRODUCT_DEFINITION_SHAPE('','',#1229);
#1224=PRODUCT_DEFINITION_SHAPE(' ','NAUO PRDDFN',#160);
#1225=PRODUCT_DEFINITION_SHAPE(' ','NAUO PRDDFN',#161);
#1226=PRODUCT_DEFINITION('','',#1234,#1230);
#1227=PRODUCT_DEFINITION('','',#1235,#1231);
#1228=PRODUCT_DEFINITION('','',#1236,#1232);
#1229=PRODUCT_DEFINITION('','',#1237,#1233);
#1230=PRODUCT_DEFINITION_CONTEXT('',#1255,'design');
#1231=PRODUCT_DEFINITION_CONTEXT('',#1255,'design');
#1232=PRODUCT_DEFINITION_CONTEXT('',#1255,'design');
#1233=PRODUCT_DEFINITION_CONTEXT('',#1255,'design');
#1234=PRODUCT_DEFINITION_FORMATION_WITH_SPECIFIED_SOURCE('','',#1242,
 .NOT_KNOWN.);
#1235=PRODUCT_DEFINITION_FORMATION_WITH_SPECIFIED_SOURCE('','',#1243,
 .NOT_KNOWN.);
#1236=PRODUCT_DEFINITION_FORMATION_WITH_SPECIFIED_SOURCE('','',#1244,
 .NOT_KNOWN.);
#1237=PRODUCT_DEFINITION_FORMATION_WITH_SPECIFIED_SOURCE('','',#1245,
 .NOT_KNOWN.);
#1238=PRODUCT_RELATED_PRODUCT_CATEGORY('','',(#1242));
#1239=PRODUCT_RELATED_PRODUCT_CATEGORY('','',(#1243));
#1240=PRODUCT_RELATED_PRODUCT_CATEGORY('','',(#1244));
#1241=PRODUCT_RELATED_PRODUCT_CATEGORY('','',(#1245));
#1242=PRODUCT('koerper','koerper','koerper',(#1250));
#1243=PRODUCT('Anschluss','Anschluss','Anschluss',(#1251));
#1244=PRODUCT('Wand','Wand','Wand',(#1252));
#1245=PRODUCT('koerper','koerper','koerper',(#1253));
#1246=PRODUCT_CATEGORY('','');
#1247=PRODUCT_CATEGORY('','');
#1248=PRODUCT_CATEGORY('','');
#1249=PRODUCT_CATEGORY('','');
#1250=PRODUCT_CONTEXT('',#1255,'mechanical');
#1251=PRODUCT_CONTEXT('',#1255,'mechanical');
#1252=PRODUCT_CONTEXT('',#1255,'mechanical');
#1253=PRODUCT_CONTEXT('',#1255,'mechanical');
#1254=APPLICATION_PROTOCOL_DEFINITION('international standard',
'ap242_managed_model_based_3d_engineering',2020,#1255);
#1255=APPLICATION_CONTEXT('managed model based 3d engineering');
ENDSEC;
END-ISO-10303-21;
