  0
SECTION
  2
HEADER
  9
$ACADVER
  1
AC1014
  9
$ACADMAINTVER
 70
     9
  9
$DWGCODEPAGE
  3
ANSI_1252
  9
$INSBASE
 10
0.0
 20
0.0
 30
0.0
  9
$EXTMIN
 10
1.0
 20
0.5
 30
0.0
  9
$EXTMAX
 10
420.0
 20
296.5
 30
0.0
  9
$LIMMIN
 10
0.0
 20
0.0
  9
$LIMMAX
 10
12.0
 20
9.0
  9
$ORTHOMODE
 70
     0
  9
$REGENMODE
 70
     1
  9
$FILLMODE
 70
     1
  9
$QTEXTMODE
 70
     0
  9
$MIRRTEXT
 70
     1
  9
$DRAGMODE
 70
     2
  9
$LTSCALE
 40
12.7
  9
$OSMODE
 70
    23
  9
$ATTMODE
 70
     1
  9
$TEXTSIZE
 40
3.5
  9
$TRACEWID
 40
0.05
  9
$TEXTSTYLE
  7
ONSHAPE-STANDARD
  9
$CLAYER
  8
0
  9
$CELTYPE
  6
BYLAYER
  9
$CECOLOR
 62
   256
  9
$CELTSCALE
 40
1.0
  9
$DELOBJ
 70
     1
  9
$DISPSILH
 70
     0
  9
$DIMSCALE
 40
1.0
  9
$DIMASZ
 40
2.5
  9
$DIMEXO
 40
0.625
  9
$DIMDLI
 40
3.75
  9
$DIMRND
 40
0.0
  9
$DIMDLE
 40
0.0
  9
$DIMEXE
 40
1.25
  9
$DIMTP
 40
0.0
  9
$DIMTM
 40
0.0
  9
$DIMTXT
 40
3.5
  9
$DIMCEN
 40
2.5
  9
$DIMTSZ
 40
0.0
  9
$DIMTOL
 70
     0
  9
$DIMLIM
 70
     0
  9
$DIMTIH
 70
     0
  9
$DIMTOH
 70
     0
  9
$DIMSE1
 70
     0
  9
$DIMSE2
 70
     0
  9
$DIMTAD
 70
     1
  9
$DIMZIN
 70
     8
  9
$DIMBLK
  1

  9
$DIMASO
 70
     1
  9
$DIMSHO
 70
     1
  9
$DIMPOST
  1

  9
$DIMAPOST
  1

  9
$DIMALT
 70
     0
  9
$DIMALTD
 70
     3
  9
$DIMALTF
 40
0.03937
  9
$DIMLFAC
 40
4.0
  9
$DIMTOFL
 70
     1
  9
$DIMTVP
 40
0.0
  9
$DIMTIX
 70
     0
  9
$DIMSOXD
 70
     0
  9
$DIMSAH
 70
     0
  9
$DIMBLK1
  1

  9
$DIMBLK2
  1

  9
$DIMSTYLE
  2
ONSHAPE-ISO-25
  9
$DIMCLRD
 70
     7
  9
$DIMCLRE
 70
     7
  9
$DIMCLRT
 70
     7
  9
$DIMTFAC
 40
1.0
  9
$DIMGAP
 40
0.625
  9
$DIMJUST
 70
     0
  9
$DIMSD1
 70
     0
  9
$DIMSD2
 70
     0
  9
$DIMTOLJ
 70
     0
  9
$DIMTZIN
 70
     8
  9
$DIMALTZ
 70
     8
  9
$DIMALTTZ
 70
     0
  9
$DIMFIT
 70
     3
  9
$DIMUPT
 70
     1
  9
$DIMUNIT
 70
     2
  9
$DIMDEC
 70
     2
  9
$DIMTDEC
 70
     2
  9
$DIMALTU
 70
     2
  9
$DIMALTTD
 70
     3
  9
$DIMTXSTY
  7
ONSHAPE-STANDARD-DIMENSION
  9
$DIMAUNIT
 70
     0
  9
$LUNITS
 70
     2
  9
$LUPREC
 70
     4
  9
$SKETCHINC
 40
0.1
  9
$FILLETRAD
 40
0.5
  9
$AUNITS
 70
     0
  9
$AUPREC
 70
     0
  9
$MENU
  1
.
  9
$ELEVATION
 40
0.0
  9
$PELEVATION
 40
0.0
  9
$THICKNESS
 40
0.0
  9
$LIMCHECK
 70
     0
  9
$CHAMFERA
 40
0.0
  9
$CHAMFERB
 40
0.0
  9
$CHAMFERC
 40
0.0
  9
$CHAMFERD
 40
0.0
  9
$SKPOLY
 70
     0
  9
$TDCREATE
 40
2461083.465166042
  9
$TDUPDATE
 40
2461083.46516706
  9
$TDINDWG
 40
0.0
  9
$TDUSRTIMER
 40
0.0
  9
$USRTIMER
 70
     1
  9
$ANGBASE
 50
0.0
  9
$ANGDIR
 70
     0
  9
$PDMODE
 70
    33
  9
$PDSIZE
 40
1.0
  9
$PLINEWID
 40
0.0
  9
$COORDS
 70
     1
  9
$SPLFRAME
 70
     0
  9
$SPLINETYPE
 70
     6
  9
$SPLINESEGS
 70
     8
  9
$ATTDIA
 70
     0
  9
$ATTREQ
 70
     1
  9
$HANDLING
 70
     1
  9
$HANDSEED
  5
3C3
  9
$SURFTAB1
 70
     6
  9
$SURFTAB2
 70
     6
  9
$SURFTYPE
 70
     6
  9
$SURFU
 70
     6
  9
$SURFV
 70
     6
  9
$UCSNAME
  2

  9
$UCSORG
 10
0.0
 20
0.0
 30
0.0
  9
$UCSXDIR
 10
1.0
 20
0.0
 30
0.0
  9
$UCSYDIR
 10
0.0
 20
1.0
 30
0.0
  9
$PUCSNAME
  2

  9
$PUCSORG
 10
0.0
 20
0.0
 30
0.0
  9
$PUCSXDIR
 10
1.0
 20
0.0
 30
0.0
  9
$PUCSYDIR
 10
0.0
 20
1.0
 30
0.0
  9
$USERI1
 70
     0
  9
$USERI2
 70
     0
  9
$USERI3
 70
     0
  9
$USERI4
 70
     0
  9
$USERI5
 70
     0
  9
$USERR1
 40
0.0
  9
$USERR2
 40
0.0
  9
$USERR3
 40
0.0
  9
$USERR4
 40
0.0
  9
$USERR5
 40
0.0
  9
$WORLDVIEW
 70
     1
  9
$SHADEDGE
 70
     3
  9
$SHADEDIF
 70
    70
  9
$TILEMODE
 70
     1
  9
$MAXACTVP
 70
    64
  9
$PINSBASE
 10
0.0
 20
0.0
 30
0.0
  9
$PLIMCHECK
 70
     0
  9
$PEXTMIN
 10
1.000000000000000E+20
 20
1.000000000000000E+20
 30
1.000000000000000E+20
  9
$PEXTMAX
 10
-1.000000000000000E+20
 20
-1.000000000000000E+20
 30
-1.000000000000000E+20
  9
$PLIMMIN
 10
0.0
 20
0.0
  9
$PLIMMAX
 10
12.0
 20
9.0
  9
$UNITMODE
 70
     0
  9
$VISRETAIN
 70
     1
  9
$PLINEGEN
 70
     0
  9
$PSLTSCALE
 70
     1
  9
$TREEDEPTH
 70
  3020
  9
$PICKSTYLE
 70
     1
  9
$CMLSTYLE
  2
STANDARD
  9
$CMLJUST
 70
     0
  9
$CMLSCALE
 40
1.0
  9
$PROXYGRAPHICS
 70
     1
  9
$MEASUREMENT
 70
     0
  0
ENDSEC
  0
SECTION
  2
CLASSES
  0
CLASS
  1
ACDBDICTIONARYWDFLT
  2
AcDbDictionaryWithDefault
  3
ObjectDBX Classes
 90
        0
280
     0
281
     0
  0
CLASS
  1
VISUALSTYLE
  2
AcDbVisualStyle
  3
ObjectDBX Classes
 90
     4095
280
     0
281
     0
  0
CLASS
  1
MATERIAL
  2
AcDbMaterial
  3
ObjectDBX Classes
 90
     1153
280
     0
281
     0
  0
CLASS
  1
SCALE
  2
AcDbScale
  3
ObjectDBX Classes
 90
     1153
280
     0
281
     0
  0
CLASS
  1
TABLESTYLE
  2
AcDbTableStyle
  3
ObjectDBX Classes
 90
     4095
280
     0
281
     0
  0
CLASS
  1
MLEADERSTYLE
  2
AcDbMLeaderStyle
  3
ACDB_MLEADERSTYLE_CLASS
 90
     4095
280
     0
281
     0
  0
CLASS
  1
SUN
  2
AcDbSun
  3
SCENEOE
 90
     1153
280
     0
281
     0
  0
CLASS
  1
DICTIONARYVAR
  2
AcDbDictionaryVar
  3
ObjectDBX Classes
 90
        0
280
     0
281
     0
  0
CLASS
  1
FIELD
  2
AcDbField
  3
ObjectDBX Classes
 90
     1152
280
     0
281
     0
  0
CLASS
  1
FIELDLIST
  2
AcDbFieldList
  3
ObjectDBX Classes
 90
     1152
280
     0
281
     0
  0
CLASS
  1
DIMASSOC
  2
AcDbDimAssoc
  3
"AcDbDimAssoc|Product Desc:     AcDim ARX App For Dimension|Company:          Autodesk, Inc.|WEB Address:      www.autodesk.com"
 90
        0
280
     0
281
     0
  0
CLASS
  1
XRECORD
  2
AcDbXrecord
  3
ObjectDBX Classes
 90
        0
280
     0
281
     0
  0
CLASS
  1
LWPOLYLINE
  2
AcDbPolyline
  3
ObjectDBX Classes
 90
        0
280
     0
281
     1
  0
CLASS
  1
HATCH
  2
AcDbHatch
  3
ObjectDBX Classes
 90
        0
280
     0
281
     1
  0
CLASS
  1
ACDBPLACEHOLDER
  2
AcDbPlaceHolder
  3
ObjectDBX Classes
 90
        0
280
     0
281
     0
  0
CLASS
  1
LAYOUT
  2
AcDbLayout
  3
ObjectDBX Classes
 90
        0
280
     0
281
     0
  0
ENDSEC
  0
SECTION
  2
TABLES
  0
TABLE
  2
VPORT
  5
8
102
{ACAD_XDICTIONARY
360
3B7
102
}
330
0
100
AcDbSymbolTable
 70
     1
  0
VPORT
  5
29
330
8
100
AcDbSymbolTableRecord
100
AcDbViewportTableRecord
  2
*ACTIVE
 70
     0
 10
0.0
 20
0.0
 11
1.0
 21
1.0
 12
210.5
 22
153.2942779291553
 13
0.0
 23
0.0
 14
0.5
 24
0.5
 15
0.5
 25
0.5
 16
0.0
 26
0.0
 36
1.0
 17
0.0
 27
0.0
 37
0.0
 40
313.7055858310626
 41
1.365292874703758
 42
50.0
 43
0.0
 44
0.0
 50
0.0
 51
0.0
 71
     0
 72
   100
 73
     1
 74
     3
 75
     0
 76
     0
 77
     0
 78
     0
  0
ENDTAB
  0
TABLE
  2
LTYPE
  5
5
330
0
100
AcDbSymbolTable
 70
     1
  0
LTYPE
  5
14
330
5
100
AcDbSymbolTableRecord
100
AcDbLinetypeTableRecord
  2
BYBLOCK
 70
     0
  3

 72
    65
 73
     0
 40
0.0
  0
LTYPE
  5
15
330
5
100
AcDbSymbolTableRecord
100
AcDbLinetypeTableRecord
  2
BYLAYER
 70
     0
  3

 72
    65
 73
     0
 40
0.0
  0
LTYPE
  5
16
330
5
100
AcDbSymbolTableRecord
100
AcDbLinetypeTableRecord
  2
CONTINUOUS
 70
     0
  3
Solid line
 72
    65
 73
     0
 40
0.0
  0
ENDTAB
  0
TABLE
  2
LAYER
  5
2
330
0
100
AcDbSymbolTable
 70
     7
  0
LAYER
  5
10
330
2
100
AcDbSymbolTableRecord
100
AcDbLayerTableRecord
  2
0
 70
     0
 62
     7
  6
CONTINUOUS
  0
LAYER
  5
70
330
2
100
AcDbSymbolTableRecord
100
AcDbLayerTableRecord
  2
DEFPOINTS
 70
     0
 62
     7
  6
CONTINUOUS
  0
LAYER
  5
74
330
2
100
AcDbSymbolTableRecord
100
AcDbLayerTableRecord
  2
VISIBLE
 70
     0
 62
     7
  6
CONTINUOUS
  0
LAYER
  5
126
330
2
100
AcDbSymbolTableRecord
100
AcDbLayerTableRecord
  2
BORDER_FRAME
 70
     0
 62
     7
  6
CONTINUOUS
  0
LAYER
  5
12C
330
2
100
AcDbSymbolTableRecord
100
AcDbLayerTableRecord
  2
BORDER_ZONES
 70
     0
 62
     7
  6
CONTINUOUS
  0
LAYER
  5
152
330
2
100
AcDbSymbolTableRecord
100
AcDbLayerTableRecord
  2
TITLE_BLOCK
 70
     0
 62
     7
  6
CONTINUOUS
  0
LAYER
  5
1E6
330
2
100
AcDbSymbolTableRecord
100
AcDbLayerTableRecord
  2
ANNOTATION_TEXT
 70
     0
 62
     7
  6
CONTINUOUS
  0
ENDTAB
  0
TABLE
  2
STYLE
  5
3
330
0
100
AcDbSymbolTable
 70
    34
  0
STYLE
  5
11
330
3
100
AcDbSymbolTableRecord
100
AcDbTextStyleTableRecord
  2
STANDARD
 70
     0
 40
0.0
 41
1.0
 50
0.0
 71
     0
 42
3.5
  3
txt
  4

  0
STYLE
  5
71
330
3
100
AcDbSymbolTableRecord
100
AcDbTextStyleTableRecord
  2
ONSHAPE-STANDARD
 70
     0
 40
0.0
 41
1.0
 50
0.0
 71
     0
 42
3.5
  3
NotoSans-Regular.ttf
  4

1001
ACAD
1000
Noto Sans
1071
        0
  0
STYLE
  5
73
330
3
100
AcDbSymbolTableRecord
100
AcDbTextStyleTableRecord
  2
ONSHAPE-STANDARD-DIMENSION
 70
     0
 40
0.0
 41
1.0
 50
0.0
 71
     0
 42
3.5
  3

  4

1001
ACAD
1000
Noto Sans
1071
        0
  0
STYLE
  5
187
330
3
100
AcDbSymbolTableRecord
100
AcDbTextStyleTableRecord
  2
ONSHAPE-STANDARD-FIELDS
 70
     0
 40
0.0
 41
1.0
 50
0.0
 71
     0
 42
3.5
  3

  4

1001
ACAD
1000
Noto Sans
1071
        0
  0
STYLE
  5
1E8
330
3
100
AcDbSymbolTableRecord
100
AcDbTextStyleTableRecord
  2
ONSHAPE-STANDARD-VIEW-LABE
 70
     0
 40
3.5
 41
1.0
 50
0.0
 71
     0
 42
3.5
  3
NotoSans-Regular.ttf
  4

1001
ACAD
1000
Noto Sans
1071
        0
  0
STYLE
  5
327
330
3
100
AcDbSymbolTableRecord
100
AcDbTextStyleTableRecord
  2
ONSHAPE-STANDARD-NOTESTYLE
 70
     0
 40
3.5
 41
1.0
 50
0.0
 71
     0
 42
3.5
  3
Noto Sans
  4

1001
ACAD
1000
Noto Sans
1071
        0
  0
STYLE
  5
336
330
3
100
AcDbSymbolTableRecord
100
AcDbTextStyleTableRecord
  2
ONSHAPE-STANDARD-BOLD
 70
     0
 40
0.0
 41
1.0
 50
0.0
 71
     0
 42
3.5
  3
NotoSans-Bold.ttf
  4

1001
ACAD
1000
Noto Sans
1071
 33554432
  0
STYLE
  5
338
330
3
100
AcDbSymbolTableRecord
100
AcDbTextStyleTableRecord
  2
ONSHAPE-STANDARD-TCFIELDS
 70
     0
 40
0.0
 41
1.0
 50
0.0
 71
     0
 42
3.5
  3
NotoSansTC-Regular.otf
  4

1001
ACAD
1000
Noto Sans TC
1071
        0
  0
STYLE
  5
339
330
3
100
AcDbSymbolTableRecord
100
AcDbTextStyleTableRecord
  2
ONSHAPE-STANDARD-SCFIELDS
 70
     0
 40
0.0
 41
1.0
 50
0.0
 71
     0
 42
3.5
  3
NotoSansSC-Regular.otf
  4

1001
ACAD
1000
Noto Sans SC
1071
        0
  0
STYLE
  5
33A
330
3
100
AcDbSymbolTableRecord
100
AcDbTextStyleTableRecord
  2
ONSHAPE-STANDARD-KOREANFIE
 70
     0
 40
0.0
 41
1.0
 50
0.0
 71
     0
 42
3.5
  3
NotoSansKR-Regular.otf
  4

1001
ACAD
1000
Noto Sans KR
1071
        0
  0
STYLE
  5
33C
330
3
100
AcDbSymbolTableRecord
100
AcDbTextStyleTableRecord
  2
TTFSTYLE
 70
     0
 40
0.0
 41
1.0
 50
0.0
 71
     0
 42
3.5
  3
Verdana.ttf
  4

1001
ACAD
1000
Verdana
1071
       34
  0
STYLE
  5
33D
330
3
100
AcDbSymbolTableRecord
100
AcDbTextStyleTableRecord
  2
ONSHAPE-STANDARD-GTOLERANC
 70
     0
 40
0.0
 41
1.0
 50
0.0
 71
     0
 42
3.5
  3

  4

1001
ACAD
1000
Noto Sans
1071
        0
  0
STYLE
  5
33E
330
3
100
AcDbSymbolTableRecord
100
AcDbTextStyleTableRecord
  2
ONSHAPE-STANDARD-TABLE-DAT
 70
     0
 40
0.0
 41
1.0
 50
0.0
 71
     0
 42
3.5
  3
NotoSans-Regular.ttf
  4

1001
ACAD
1000
Noto Sans
1071
        0
  0
STYLE
  5
33F
330
3
100
AcDbSymbolTableRecord
100
AcDbTextStyleTableRecord
  2
ONSHAPE-STANDARD-TABLE-TIT
 70
     0
 40
0.0
 41
1.0
 50
0.0
 71
     0
 42
3.5
  3
NotoSans-Bold.ttf
  4

1001
ACAD
1000
Noto Sans
1071
 33554432
  0
STYLE
  5
340
330
3
100
AcDbSymbolTableRecord
100
AcDbTextStyleTableRecord
  2
ONSHAPE-STANDARD-TABLE-HEA
 70
     0
 40
0.0
 41
1.0
 50
0.0
 71
     0
 42
3.5
  3
NotoSans-Bold.ttf
  4

1001
ACAD
1000
Noto Sans
1071
 33554432
  0
STYLE
  5
341
330
3
100
AcDbSymbolTableRecord
100
AcDbTextStyleTableRecord
  2
ONSHAPE-STANDARD-BOMTABLE-
 70
     0
 40
0.0
 41
1.0
 50
0.0
 71
     0
 42
3.5
  3
NotoSans-Regular.ttf
  4

1001
ACAD
1000
Noto Sans
1071
        0
  0
STYLE
  5
342
330
3
100
AcDbSymbolTableRecord
100
AcDbTextStyleTableRecord
  2
ONSHAPE-STANDARD-BOMTABLE0
 70
     0
 40
0.0
 41
1.0
 50
0.0
 71
     0
 42
3.5
  3
NotoSans-Bold.ttf
  4

1001
ACAD
1000
Noto Sans
1071
 33554432
  0
STYLE
  5
343
330
3
100
AcDbSymbolTableRecord
100
AcDbTextStyleTableRecord
  2
ONSHAPE-STANDARD-BOMTABLE1
 70
     0
 40
0.0
 41
1.0
 50
0.0
 71
     0
 42
3.5
  3
NotoSans-Bold.ttf
  4

1001
ACAD
1000
Noto Sans
1071
 33554432
  0
STYLE
  5
346
330
3
100
AcDbSymbolTableRecord
100
AcDbTextStyleTableRecord
  2
ONSHAPE-STANDARD-HOLE-CALL
 70
     0
 40
3.5
 41
1.0
 50
0.0
 71
     0
 42
3.5
  3
Noto Sans
  4

1001
ACAD
1000
Noto Sans
1071
        0
  0
STYLE
  5
347
330
3
100
AcDbSymbolTableRecord
100
AcDbTextStyleTableRecord
  2
ONSHAPE-STANDARD-HOLETABLE
 70
     0
 40
0.0
 41
1.0
 50
0.0
 71
     0
 42
3.5
  3
NotoSans-Regular.ttf
  4

1001
ACAD
1000
Noto Sans
1071
        0
  0
STYLE
  5
348
330
3
100
AcDbSymbolTableRecord
100
AcDbTextStyleTableRecord
  2
ONSHAPE-STANDARD-HOLETABL0
 70
     0
 40
0.0
 41
1.0
 50
0.0
 71
     0
 42
3.5
  3
NotoSans-Bold.ttf
  4

1001
ACAD
1000
Noto Sans
1071
 33554432
  0
STYLE
  5
349
330
3
100
AcDbSymbolTableRecord
100
AcDbTextStyleTableRecord
  2
ONSHAPE-STANDARD-HOLETABL1
 70
     0
 40
0.0
 41
1.0
 50
0.0
 71
     0
 42
3.5
  3
NotoSans-Bold.ttf
  4

1001
ACAD
1000
Noto Sans
1071
 33554432
  0
STYLE
  5
34A
330
3
100
AcDbSymbolTableRecord
100
AcDbTextStyleTableRecord
  2
ONSHAPE-STANDARD-HOLE-TAG
 70
     0
 40
3.5
 41
1.0
 50
0.0
 71
     0
 42
3.5
  3
Noto Sans
  4

1001
ACAD
1000
Noto Sans
1071
        0
  0
STYLE
  5
34B
330
3
100
AcDbSymbolTableRecord
100
AcDbTextStyleTableRecord
  2
ONSHAPE-STANDARD-REVISIONT
 70
     0
 40
0.0
 41
1.0
 50
0.0
 71
     0
 42
3.5
  3
NotoSans-Regular.ttf
  4

1001
ACAD
1000
Noto Sans
1071
        0
  0
STYLE
  5
34C
330
3
100
AcDbSymbolTableRecord
100
AcDbTextStyleTableRecord
  2
ONSHAPE-STANDARD-REVISION0
 70
     0
 40
0.0
 41
1.0
 50
0.0
 71
     0
 42
3.5
  3
NotoSans-Bold.ttf
  4

1001
ACAD
1000
Noto Sans
1071
 33554432
  0
STYLE
  5
34D
330
3
100
AcDbSymbolTableRecord
100
AcDbTextStyleTableRecord
  2
ONSHAPE-STANDARD-REVISION1
 70
     0
 40
0.0
 41
1.0
 50
0.0
 71
     0
 42
3.5
  3
NotoSans-Bold.ttf
  4

1001
ACAD
1000
Noto Sans
1071
 33554432
  0
STYLE
  5
34E
330
3
100
AcDbSymbolTableRecord
100
AcDbTextStyleTableRecord
  2
ONSHAPE-STANDARD-REVISION-
 70
     0
 40
3.5
 41
1.0
 50
0.0
 71
     0
 42
3.5
  3
Noto Sans
  4

1001
ACAD
1000
Noto Sans
1071
        0
  0
STYLE
  5
34F
330
3
100
AcDbSymbolTableRecord
100
AcDbTextStyleTableRecord
  2
ONSHAPE-STANDARD-CUTLISTTA
 70
     0
 40
0.0
 41
1.0
 50
0.0
 71
     0
 42
3.5
  3
NotoSans-Regular.ttf
  4

1001
ACAD
1000
Noto Sans
1071
        0
  0
STYLE
  5
350
330
3
100
AcDbSymbolTableRecord
100
AcDbTextStyleTableRecord
  2
ONSHAPE-STANDARD-CUTLISTT0
 70
     0
 40
0.0
 41
1.0
 50
0.0
 71
     0
 42
3.5
  3
NotoSans-Bold.ttf
  4

1001
ACAD
1000
Noto Sans
1071
 33554432
  0
STYLE
  5
351
330
3
100
AcDbSymbolTableRecord
100
AcDbTextStyleTableRecord
  2
ONSHAPE-STANDARD-CUTLISTT1
 70
     0
 40
0.0
 41
1.0
 50
0.0
 71
     0
 42
3.5
  3
NotoSans-Bold.ttf
  4

1001
ACAD
1000
Noto Sans
1071
 33554432
  0
STYLE
  5
352
330
3
100
AcDbSymbolTableRecord
100
AcDbTextStyleTableRecord
  2
ONSHAPE-STANDARD-CUSTOMTAB
 70
     0
 40
0.0
 41
1.0
 50
0.0
 71
     0
 42
3.5
  3
NotoSans-Regular.ttf
  4

1001
ACAD
1000
Noto Sans
1071
        0
  0
STYLE
  5
353
330
3
100
AcDbSymbolTableRecord
100
AcDbTextStyleTableRecord
  2
ONSHAPE-STANDARD-CUSTOMTA0
 70
     0
 40
0.0
 41
1.0
 50
0.0
 71
     0
 42
3.5
  3
NotoSans-Bold.ttf
  4

1001
ACAD
1000
Noto Sans
1071
 33554432
  0
STYLE
  5
354
330
3
100
AcDbSymbolTableRecord
100
AcDbTextStyleTableRecord
  2
ONSHAPE-STANDARD-CUSTOMTA1
 70
     0
 40
0.0
 41
1.0
 50
0.0
 71
     0
 42
3.5
  3
NotoSans-Bold.ttf
  4

1001
ACAD
1000
Noto Sans
1071
 33554432
  0
STYLE
  5
355
330
3
100
AcDbSymbolTableRecord
100
AcDbTextStyleTableRecord
  2
ONSHAPE-STANDARD-DATUM-DIM
 70
     0
 40
3.5
 41
1.0
 50
0.0
 71
     0
 42
3.5
  3
NotoSans-Regular.ttf
  4

1001
ACAD
1000
Noto Sans
1071
        0
  0
ENDTAB
  0
TABLE
  2
VIEW
  5
6
330
0
100
AcDbSymbolTable
 70
     0
  0
ENDTAB
  0
TABLE
  2
UCS
  5
7
330
0
100
AcDbSymbolTable
 70
     0
  0
ENDTAB
  0
TABLE
  2
APPID
  5
9
330
0
100
AcDbSymbolTable
 70
     8
  0
APPID
  5
12
330
9
100
AcDbSymbolTableRecord
100
AcDbRegAppTableRecord
  2
ACAD
 70
     0
  0
APPID
  5
1BA
330
9
100
AcDbSymbolTableRecord
100
AcDbRegAppTableRecord
  2
ONSHAPE_NOTES_REORDERING_D
 70
     0
  0
APPID
  5
1BB
330
9
100
AcDbSymbolTableRecord
100
AcDbRegAppTableRecord
  2
ONSHAPE_NOTES_ANNOTATION_D
 70
     0
  0
APPID
  5
202
330
9
100
AcDbSymbolTableRecord
100
AcDbRegAppTableRecord
  2
ACAD_DIMASSOC_CALC_DIMLFAC
 70
     0
  0
APPID
  5
203
330
9
100
AcDbSymbolTableRecord
100
AcDbRegAppTableRecord
  2
ACAD_DIMASSOC_DIMLFAC
 70
     0
  0
APPID
  5
204
330
9
100
AcDbSymbolTableRecord
100
AcDbRegAppTableRecord
  2
ACAD_DIMASSOC_OVERRIDDEN_D
 70
     0
  0
APPID
  5
1F7
330
9
100
AcDbSymbolTableRecord
100
AcDbRegAppTableRecord
  2
INDEX
 70
     0
  0
APPID
  5
3C1
330
9
100
AcDbSymbolTableRecord
100
AcDbRegAppTableRecord
  2
ACAD_MLEADERVER
 70
     0
  0
ENDTAB
  0
TABLE
  2
DIMSTYLE
  5
A
330
0
100
AcDbSymbolTable
 70
    23
  0
DIMSTYLE
105
27
330
A
100
AcDbSymbolTableRecord
100
AcDbDimStyleTableRecord
  2
STANDARD
 70
     0
  3

  4

  5

  6

  7

 40
1.0
 41
0.18
 42
0.0625
 43
0.38
 44
0.18
 45
0.0
 46
0.0
 47
0.0
 48
0.0
140
0.18
141
0.09
142
0.0
143
25.4
144
1.0
145
0.0
146
1.0
147
0.09
 71
     0
 72
     0
 73
     1
 74
     1
 75
     0
 76
     0
 77
     0
 78
     0
170
     0
171
     2
172
     0
173
     0
174
     0
175
     0
176
     0
177
     0
178
     0
270
     2
271
     4
272
     4
273
     2
274
     2
340
11
275
     0
280
     0
281
     0
282
     0
283
     1
284
     0
285
     0
286
     0
287
     3
288
     0
  0
DIMSTYLE
105
72
102
{ACAD_REACTORS
102
}
330
A
100
AcDbSymbolTableRecord
100
AcDbDimStyleTableRecord
  2
ONSHAPE-ISO-25
 70
     0
  3

  4

  5

  6

  7

 40
1.0
 41
2.5
 42
0.625
 43
3.75
 44
1.25
 45
0.0
 46
0.0
 47
0.0
 48
0.0
140
3.5
141
2.5
142
0.0
143
0.03937
144
1.0
145
0.0
146
1.0
147
0.625
 71
     0
 72
     0
 73
     0
 74
     0
 75
     0
 76
     0
 77
     1
 78
     8
170
     0
171
     3
172
     1
173
     0
174
     0
175
     0
176
     7
177
     7
178
     7
179
     1
270
     2
271
     2
272
     2
273
     2
274
     3
340
73
275
     0
280
     0
281
     0
282
     0
283
     0
284
     8
285
     8
286
     0
287
     3
288
     1
  0
DIMSTYLE
105
1F2
102
{ACAD_REACTORS
330
1EA
330
205
330
217
330
229
330
23B
330
255
330
271
330
296
330
2B1
330
2C3
330
2D6
330
2E8
330
2FA
330
30D
102
}
330
A
100
AcDbSymbolTableRecord
100
AcDbDimStyleTableRecord
  2
ONSHAPE-ISO-25$0
 70
     0
  3

  4

  5

  6

  7

 40
1.0
 41
2.5
 42
0.625
 43
3.75
 44
1.25
 45
0.0
 46
0.0
 47
0.0
 48
0.0
140
3.5
141
2.5
142
0.0
143
0.03937
144
1.0
145
0.0
146
1.0
147
0.625
 71
     0
 72
     0
 73
     0
 74
     0
 75
     0
 76
     0
 77
     1
 78
     8
170
     0
171
     3
172
     1
173
     0
174
     0
175
     0
176
     7
177
     7
178
     7
179
     1
270
     2
271
     2
272
     2
273
     2
274
     3
340
73
275
     0
280
     0
281
     0
282
     0
283
     0
284
     8
285
     8
286
     0
287
     3
288
     1
  0
DIMSTYLE
105
356
330
A
100
AcDbSymbolTableRecord
100
AcDbDimStyleTableRecord
  2
ISO-25
 70
     0
  3

  4

  5

  6

  7

 40
1.0
 41
2.5
 42
0.625
 43
3.75
 44
1.25
 45
0.0
 46
0.0
 47
0.0
 48
0.0
140
2.5
141
2.5
142
0.0
143
0.03937007874016
144
1.0
145
0.0
146
1.0
147
0.625
 71
     0
 72
     0
 73
     0
 74
     0
 75
     0
 76
     0
 77
     1
 78
     8
170
     0
171
     3
172
     1
173
     0
174
     0
175
     0
176
     7
177
     7
178
     7
270
     2
271
     2
272
     2
273
     2
274
     3
340
11
275
     0
280
     0
281
     0
282
     0
283
     0
284
     8
285
     0
286
     0
287
     3
288
     1
  0
DIMSTYLE
105
358
330
A
100
AcDbSymbolTableRecord
100
AcDbDimStyleTableRecord
  2
ISO
 70
     0
  3

  4
"
  5

  6

  7

 40
1.0
 41
3.5
 42
1.0
 43
10.0
 44
1.0
 45
0.0
 46
0.0
 47
0.1
 48
0.1
140
3.5
141
0.0
142
0.0
143
0.03937
144
1.0
145
0.0
146
0.71
147
1.5
 71
     0
 72
     0
 73
     0
 74
     0
 75
     0
 76
     0
 77
     1
 78
     8
170
     0
171
     3
172
     1
173
     0
174
     0
175
     0
176
     7
177
     7
178
     7
270
     2
271
     2
272
     3
273
     2
274
     3
340
11
275
     0
280
     0
281
     0
282
     0
283
     0
284
     8
285
     8
286
     0
287
     3
288
     1
  0
DIMSTYLE
105
359
330
A
100
AcDbSymbolTableRecord
100
AcDbDimStyleTableRecord
  2
ISO$3
 70
     0
  3

  4
"
  5

  6

  7

 40
1.0
 41
3.5
 42
1.0
 43
10.0
 44
1.0
 45
0.0
 46
0.0
 47
0.1
 48
0.1
140
3.5
141
0.0
142
0.0
143
0.03937
144
1.0
145
0.0
146
0.71
147
1.5
 71
     0
 72
     0
 73
     0
 74
     1
 75
     0
 76
     0
 77
     1
 78
     8
170
     0
171
     3
172
     0
173
     0
174
     0
175
     0
176
     7
177
     7
178
     7
270
     2
271
     2
272
     3
273
     2
274
     3
340
11
275
     0
280
     0
281
     0
282
     0
283
     0
284
     8
285
     8
286
     0
288
     1
  0
DIMSTYLE
105
35A
330
A
100
AcDbSymbolTableRecord
100
AcDbDimStyleTableRecord
  2
ISO$4
 70
     0
  3

  4
"
  5

  6

  7

 40
1.0
 41
3.5
 42
1.0
 43
10.0
 44
1.0
 45
0.0
 46
0.0
 47
0.1
 48
0.1
140
3.5
141
0.0
142
0.0
143
0.03937
144
1.0
145
0.0
146
0.71
147
1.5
 71
     0
 72
     0
 73
     0
 74
     0
 75
     0
 76
     0
 77
     1
 78
     8
170
     0
171
     3
172
     1
173
     0
174
     0
175
     0
176
     7
177
     7
178
     7
270
     2
271
     2
272
     3
273
     2
274
     3
340
11
275
     0
280
     0
281
     0
282
     0
283
     0
284
     8
285
     8
286
     0
287
     3
288
     1
  0
DIMSTYLE
105
35B
330
A
100
AcDbSymbolTableRecord
100
AcDbDimStyleTableRecord
  2
ISO$6
 70
     0
  3

  4
"
  5

  6

  7

 40
1.0
 41
0.5
 42
1.0
 43
10.0
 44
1.0
 45
0.0
 46
0.0
 47
0.1
 48
0.1
140
3.5
141
0.0
142
0.0
143
0.03937
144
1.0
145
0.0
146
0.71
147
1.5
 71
     0
 72
     0
 73
     0
 74
     0
 75
     0
 76
     0
 77
     0
 78
     8
170
     0
171
     3
172
     1
173
     0
174
     0
175
     0
176
     7
177
     7
178
     7
270
     2
271
     2
272
     3
273
     2
274
     3
340
11
275
     0
280
     0
281
     0
282
     0
283
     0
284
     8
285
     8
286
     0
287
     3
288
     1
  0
DIMSTYLE
105
35C
330
A
100
AcDbSymbolTableRecord
100
AcDbDimStyleTableRecord
  2
ISO$7
 70
     0
  3

  4
"
  5

  6

  7

 40
1.0
 41
3.5
 42
1.0
 43
10.0
 44
1.0
 45
0.0
 46
0.0
 47
0.1
 48
0.1
140
3.5
141
0.0
142
0.0
143
0.03937
144
1.0
145
0.0
146
0.71
147
1.5
 71
     0
 72
     0
 73
     0
 74
     0
 75
     0
 76
     0
 77
     1
 78
     8
170
     0
171
     3
172
     1
173
     0
174
     0
175
     0
176
     7
177
     7
178
     7
270
     2
271
     2
272
     3
273
     2
274
     3
340
11
275
     0
280
     0
281
     0
282
     0
283
     0
284
     8
285
     8
286
     0
287
     3
288
     1
  0
DIMSTYLE
105
35D
330
A
100
AcDbSymbolTableRecord
100
AcDbDimStyleTableRecord
  2
ISO$SF
 70
     0
  3

  4
"
  5

  6

  7

 40
1.0
 41
3.5
 42
1.0
 43
10.0
 44
1.0
 45
0.0
 46
0.0
 47
0.1
 48
0.1
140
3.5
141
0.0
142
0.0
143
0.03937
144
1.0
145
0.0
146
0.71
147
1.5
 71
     0
 72
     0
 73
     0
 74
     0
 75
     1
 76
     1
 77
     1
 78
     8
170
     0
171
     3
172
     1
173
     0
174
     0
175
     0
176
     7
177
     7
178
     7
270
     2
271
     2
272
     3
273
     2
274
     3
340
11
275
     0
280
     0
281
     0
282
     0
283
     0
284
     8
285
     8
286
     0
287
     3
288
     1
  0
DIMSTYLE
105
35E
330
A
100
AcDbSymbolTableRecord
100
AcDbDimStyleTableRecord
  2
ISO$SH
 70
     0
  3

  4
"
  5

  6

  7

 40
1.0
 41
3.5
 42
1.0
 43
10.0
 44
1.0
 45
0.0
 46
0.0
 47
0.1
 48
0.1
140
3.5
141
0.0
142
0.0
143
0.03937
144
2.0
145
0.0
146
0.71
147
1.5
 71
     0
 72
     0
 73
     0
 74
     0
 75
     1
 76
     1
 77
     1
 78
     8
170
     0
171
     3
172
     1
173
     1
174
     0
175
     0
176
     7
177
     7
178
     7
270
     2
271
     2
272
     3
273
     2
274
     3
340
11
275
     0
280
     0
281
     0
282
     0
283
     0
284
     8
285
     8
286
     0
287
     3
288
     1
  0
DIMSTYLE
105
362
330
A
100
AcDbSymbolTableRecord
100
AcDbDimStyleTableRecord
  2
ONSHAPE-ISO-25$2
 70
     0
  3

  4

  5

  6

  7

 40
1.0
 41
2.5
 42
0.625
 43
3.75
 44
1.25
 45
0.0
 46
0.0
 47
0.0
 48
0.0
140
3.5
141
2.5
142
0.0
143
0.03937
144
1.0
145
0.0
146
1.0
147
0.625
 71
     0
 72
     0
 73
     0
 74
     0
 75
     0
 76
     0
 77
     1
 78
     8
170
     0
171
     3
172
     1
173
     0
174
     0
175
     0
176
     7
177
     7
178
     7
179
     1
270
     2
271
     2
272
     2
273
     2
274
     3
340
73
275
     0
280
     0
281
     0
282
     0
283
     0
284
     8
285
     8
286
     0
287
     3
288
     1
  0
DIMSTYLE
105
363
330
A
100
AcDbSymbolTableRecord
100
AcDbDimStyleTableRecord
  2
ONSHAPE-ISO-25$3
 70
     0
  3

  4

  5

  6

  7

 40
1.0
 41
2.5
 42
0.625
 43
3.75
 44
1.25
 45
0.0
 46
0.0
 47
0.0
 48
0.0
140
3.5
141
0.0
142
0.0
143
0.03937
144
1.0
145
0.0
146
1.0
147
0.625
 71
     0
 72
     0
 73
     0
 74
     0
 75
     0
 76
     0
 77
     1
 78
     8
170
     0
171
     3
172
     1
173
     0
174
     0
175
     0
176
     7
177
     7
178
     7
179
     1
270
     2
271
     2
272
     2
273
     2
274
     3
340
73
275
     0
280
     0
281
     0
282
     0
283
     0
284
     8
285
     8
286
     0
287
     3
288
     1
  0
DIMSTYLE
105
364
330
A
100
AcDbSymbolTableRecord
100
AcDbDimStyleTableRecord
  2
ONSHAPE-ISO-25$4
 70
     0
  3

  4

  5

  6

  7

 40
1.0
 41
2.5
 42
0.625
 43
3.75
 44
1.25
 45
0.0
 46
0.0
 47
0.0
 48
0.0
140
3.5
141
0.0
142
0.0
143
0.03937
144
1.0
145
0.0
146
1.0
147
0.625
 71
     0
 72
     0
 73
     0
 74
     0
 75
     0
 76
     0
 77
     1
 78
     8
170
     0
171
     3
172
     1
173
     0
174
     0
175
     0
176
     7
177
     7
178
     7
179
     1
270
     2
271
     2
272
     2
273
     2
274
     3
340
73
275
     0
280
     0
281
     0
282
     0
283
     0
284
     8
285
     8
286
     0
287
     3
288
     1
  0
DIMSTYLE
105
365
330
A
100
AcDbSymbolTableRecord
100
AcDbDimStyleTableRecord
  2
ONSHAPE-ISO-25$6
 70
     0
  3

  4

  5

  6

  7

 40
1.0
 41
0.5
 42
0.625
 43
3.75
 44
1.25
 45
0.0
 46
0.0
 47
0.0
 48
0.0
140
3.5
141
2.5
142
0.0
143
0.03937
144
1.0
145
0.0
146
1.0
147
0.625
 71
     0
 72
     0
 73
     0
 74
     0
 75
     0
 76
     0
 77
     1
 78
     8
170
     0
171
     3
172
     1
173
     0
174
     0
175
     0
176
     7
177
     7
178
     7
179
     1
270
     2
271
     2
272
     2
273
     2
274
     3
340
73
275
     0
280
     0
281
     0
282
     0
283
     0
284
     8
285
     8
286
     0
287
     3
288
     1
  0
DIMSTYLE
105
366
330
A
100
AcDbSymbolTableRecord
100
AcDbDimStyleTableRecord
  2
ONSHAPE-ISO-25$7
 70
     0
  3

  4

  5

  6

  7

 40
1.0
 41
2.5
 42
0.625
 43
3.75
 44
1.25
 45
0.0
 46
0.0
 47
0.0
 48
0.0
140
3.5
141
2.5
142
0.0
143
0.03937
144
1.0
145
0.0
146
1.0
147
0.625
 71
     0
 72
     0
 73
     0
 74
     0
 75
     0
 76
     0
 77
     1
 78
     8
170
     0
171
     3
172
     1
173
     0
174
     0
175
     0
176
     7
177
     7
178
     7
179
     1
270
     2
271
     2
272
     2
273
     2
274
     3
340
73
275
     0
280
     0
281
     0
282
     0
283
     0
284
     8
285
     8
286
     0
287
     3
288
     1
  0
DIMSTYLE
105
367
330
A
100
AcDbSymbolTableRecord
100
AcDbDimStyleTableRecord
  2
ONSHAPE-STANDARD-GTOLERANC
 70
     0
  3

  4

  5

  6

  7

 40
1.0
 41
2.5
 42
0.625
 43
3.75
 44
1.25
 45
0.0
 46
0.0
 47
0.0
 48
0.0
140
3.5
141
2.5
142
0.0
143
0.03937
144
1.0
145
0.0
146
1.0
147
0.625
 71
     0
 72
     0
 73
     0
 74
     0
 75
     0
 76
     0
 77
     1
 78
     8
170
     0
171
     3
172
     1
173
     0
174
     0
175
     0
176
     7
177
     7
178
     7
179
     1
270
     2
271
     2
272
     2
273
     2
274
     3
340
33D
275
     0
280
     0
281
     0
282
     0
283
     0
284
     8
285
     8
286
     0
287
     3
288
     1
  0
DIMSTYLE
105
369
330
A
100
AcDbSymbolTableRecord
100
AcDbDimStyleTableRecord
  2
ONSHAPE-ORDINATESTYLE
 70
     0
  3

  4

  5

  6

  7

 40
1.0
 41
2.5
 42
0.625
 43
3.75
 44
1.25
 45
0.0
 46
0.0
 47
0.0
 48
0.0
140
3.5
141
2.5
142
0.0
143
0.03937
144
1.0
145
0.0
146
1.0
147
0.625
 71
     0
 72
     0
 73
     0
 74
     0
 75
     0
 76
     0
 77
     1
 78
     8
170
     0
171
     3
172
     1
173
     0
174
     0
175
     0
176
     7
177
     7
178
     7
179
     1
270
     2
271
     2
272
     2
273
     2
274
     3
340
73
275
     0
280
     0
281
     0
282
     0
283
     0
284
     8
285
     8
286
     0
287
     3
288
     1
  0
DIMSTYLE
105
36A
330
A
100
AcDbSymbolTableRecord
100
AcDbDimStyleTableRecord
  2
ONSHAPE-CHAMFERDIMSTYLE
 70
     0
  3

  4

  5

  6

  7

 40
1.0
 41
2.5
 42
0.625
 43
3.75
 44
1.25
 45
0.0
 46
0.0
 47
0.0
 48
0.0
140
3.5
141
2.5
142
0.0
143
0.03937
144
1.0
145
0.0
146
1.0
147
0.625
 71
     0
 72
     0
 73
     0
 74
     0
 75
     0
 76
     0
 77
     1
 78
     8
170
     0
171
     3
172
     1
173
     0
174
     0
175
     0
176
     7
177
     7
178
     7
179
     1
270
     2
271
     2
272
     2
273
     2
274
     3
340
73
275
     0
280
     0
281
     0
282
     0
283
     0
284
     8
285
     8
286
     0
287
     3
288
     1
  0
DIMSTYLE
105
36B
330
A
100
AcDbSymbolTableRecord
100
AcDbDimStyleTableRecord
  2
ONSHAPE-SKETCHDRIVENDIMSTY
 70
     0
  3

  4

  5

  6

  7

 40
1.0
 41
2.5
 42
0.625
 43
3.75
 44
1.25
 45
0.0
 46
0.0
 47
0.0
 48
0.0
140
3.5
141
2.5
142
0.0
143
0.03937
144
1.0
145
0.0
146
1.0
147
0.625
 71
     0
 72
     0
 73
     0
 74
     0
 75
     0
 76
     0
 77
     1
 78
     8
170
     0
171
     3
172
     1
173
     0
174
     0
175
     0
176
   251
177
   251
178
   251
179
     1
270
     2
271
     2
272
     2
273
     2
274
     3
340
73
275
     0
280
     0
281
     0
282
     0
283
     0
284
     8
285
     8
286
     0
287
     3
288
     1
  0
DIMSTYLE
105
36C
330
A
100
AcDbSymbolTableRecord
100
AcDbDimStyleTableRecord
  2
ONSHAPE-SKETCHDRIVENDIMST0
 70
     0
  3

  4

  5

  6

  7

 40
1.0
 41
2.5
 42
0.625
 43
3.75
 44
1.25
 45
0.0
 46
0.0
 47
0.0
 48
0.0
140
3.5
141
2.5
142
0.0
143
0.03937
144
1.0
145
0.0
146
1.0
147
0.625
 71
     0
 72
     0
 73
     0
 74
     0
 75
     0
 76
     0
 77
     1
 78
     8
170
     0
171
     3
172
     1
173
     0
174
     0
175
     0
176
   251
177
   251
178
   251
179
     1
270
     2
271
     2
272
     2
273
     2
274
     3
340
73
275
     0
280
     0
281
     0
282
     0
283
     0
284
     8
285
     8
286
     0
287
     3
288
     1
  0
DIMSTYLE
105
36D
330
A
100
AcDbSymbolTableRecord
100
AcDbDimStyleTableRecord
  2
ONSHAPE-SKETCHDRIVENDIMST1
 70
     0
  3

  4

  5

  6

  7

 40
1.0
 41
2.5
 42
0.625
 43
3.75
 44
1.25
 45
0.0
 46
0.0
 47
0.0
 48
0.0
140
3.5
141
0.0
142
0.0
143
0.03937
144
1.0
145
0.0
146
1.0
147
0.625
 71
     0
 72
     0
 73
     0
 74
     0
 75
     0
 76
     0
 77
     1
 78
     8
170
     0
171
     3
172
     1
173
     0
174
     0
175
     0
176
   251
177
   251
178
   251
179
     1
270
     2
271
     2
272
     2
273
     2
274
     3
340
73
275
     0
280
     0
281
     0
282
     0
283
     0
284
     8
285
     8
286
     0
287
     3
288
     1
  0
DIMSTYLE
105
36E
330
A
100
AcDbSymbolTableRecord
100
AcDbDimStyleTableRecord
  2
ONSHAPE-SKETCHDRIVENDIMST2
 70
     0
  3

  4

  5

  6

  7

 40
1.0
 41
2.5
 42
0.625
 43
3.75
 44
1.25
 45
0.0
 46
0.0
 47
0.0
 48
0.0
140
3.5
141
0.0
142
0.0
143
0.03937
144
1.0
145
0.0
146
1.0
147
0.625
 71
     0
 72
     0
 73
     0
 74
     0
 75
     0
 76
     0
 77
     1
 78
     8
170
     0
171
     3
172
     1
173
     0
174
     0
175
     0
176
   251
177
   251
178
   251
179
     1
270
     2
271
     2
272
     2
273
     2
274
     3
340
73
275
     0
280
     0
281
     0
282
     0
283
     0
284
     8
285
     8
286
     0
287
     3
288
     1
  0
ENDTAB
  0
TABLE
  2
BLOCK_RECORD
  5
1
330
0
100
AcDbSymbolTable
 70
    14
  0
BLOCK_RECORD
  5
1F
330
1
100
AcDbSymbolTableRecord
100
AcDbBlockTableRecord
  2
*MODEL_SPACE
  0
BLOCK_RECORD
  5
1B
330
1
100
AcDbSymbolTableRecord
100
AcDbBlockTableRecord
  2
*PAPER_SPACE
  0
BLOCK_RECORD
  5
1F4
330
1
100
AcDbSymbolTableRecord
100
AcDbBlockTableRecord
  2
*D1
  0
BLOCK_RECORD
  5
20A
330
1
100
AcDbSymbolTableRecord
100
AcDbBlockTableRecord
  2
*D2
  0
BLOCK_RECORD
  5
21C
330
1
100
AcDbSymbolTableRecord
100
AcDbBlockTableRecord
  2
*D3
  0
BLOCK_RECORD
  5
22E
330
1
100
AcDbSymbolTableRecord
100
AcDbBlockTableRecord
  2
*D4
  0
BLOCK_RECORD
  5
240
330
1
100
AcDbSymbolTableRecord
100
AcDbBlockTableRecord
  2
*D5
  0
BLOCK_RECORD
  5
25F
330
1
100
AcDbSymbolTableRecord
100
AcDbBlockTableRecord
  2
*D6
  0
BLOCK_RECORD
  5
276
330
1
100
AcDbSymbolTableRecord
100
AcDbBlockTableRecord
  2
*D7
  0
BLOCK_RECORD
  5
2A0
330
1
100
AcDbSymbolTableRecord
100
AcDbBlockTableRecord
  2
*D8
  0
BLOCK_RECORD
  5
2B6
330
1
100
AcDbSymbolTableRecord
100
AcDbBlockTableRecord
  2
*D9
  0
BLOCK_RECORD
  5
2C8
330
1
100
AcDbSymbolTableRecord
100
AcDbBlockTableRecord
  2
*D10
  0
BLOCK_RECORD
  5
2DB
330
1
100
AcDbSymbolTableRecord
100
AcDbBlockTableRecord
  2
*D11
  0
BLOCK_RECORD
  5
2ED
330
1
100
AcDbSymbolTableRecord
100
AcDbBlockTableRecord
  2
*D12
  0
BLOCK_RECORD
  5
2FF
330
1
100
AcDbSymbolTableRecord
100
AcDbBlockTableRecord
  2
*D13
  0
BLOCK_RECORD
  5
312
330
1
100
AcDbSymbolTableRecord
100
AcDbBlockTableRecord
  2
*D14
  0
ENDTAB
  0
ENDSEC
  0
SECTION
  2
BLOCKS
  0
BLOCK
  5
20
330
1F
100
AcDbEntity
  8
0
100
AcDbBlockBegin
  2
*MODEL_SPACE
 70
     0
 10
0.0
 20
0.0
 30
0.0
  3
*MODEL_SPACE
  1

  0
ENDBLK
  5
21
330
1F
100
AcDbEntity
  8
0
100
AcDbBlockEnd
  0
BLOCK
  5
1C
330
1B
100
AcDbEntity
 67
     1
  8
0
100
AcDbBlockBegin
  2
*PAPER_SPACE
 70
     0
 10
0.0
 20
0.0
 30
0.0
  3
*PAPER_SPACE
  1

  0
ENDBLK
  5
1D
330
1B
100
AcDbEntity
 67
     1
  8
0
100
AcDbBlockEnd
  0
BLOCK
  5
1F5
330
1F4
100
AcDbEntity
  8
0
100
AcDbBlockBegin
  2
*D1
 70
     1
 10
0.0
 20
0.0
 30
0.0
  3
*D1
  1

  0
LINE
  5
1F6
330
1F4
100
AcDbEntity
  8
ANNOTATION_TEXT
 62
     7
100
AcDbLine
 10
233.3862291935499
 20
228.8279159119683
 30
0.0
 11
211.4507103001167
 21
228.8279159119683
 31
0.0
1001
INDEX
1070
     0
  0
LINE
  5
1F8
330
1F4
100
AcDbEntity
  8
ANNOTATION_TEXT
 62
     7
100
AcDbLine
 10
233.3862291935499
 20
217.5779159119683
 30
0.0
 11
211.4507103001167
 21
217.5779159119683
 31
0.0
1001
INDEX
1070
     1
  0
LINE
  5
1F9
330
1F4
100
AcDbEntity
  8
ANNOTATION_TEXT
 62
     7
100
AcDbLine
 10
212.7007103001167
 20
226.3279159119683
 30
0.0
 11
212.7007103001167
 21
220.0779159119683
 31
0.0
1001
INDEX
1070
     3
  0
SOLID
  5
1FA
330
1F4
100
AcDbEntity
  8
ANNOTATION_TEXT
 62
     7
100
AcDbTrace
 10
213.1173769667834
 20
226.3279159119683
 30
0.0
 11
212.2840436334501
 21
226.3279159119683
 31
0.0
 12
212.7007103001167
 22
228.8279159119683
 32
0.0
 13
212.7007103001167
 23
228.8279159119683
 33
0.0
  0
SOLID
  5
1FB
330
1F4
100
AcDbEntity
  8
ANNOTATION_TEXT
 62
     7
100
AcDbTrace
 10
212.2840436334501
 20
220.0779159119683
 30
0.0
 11
213.1173769667834
 21
220.0779159119683
 31
0.0
 12
212.7007103001167
 22
217.5779159119683
 32
0.0
 13
212.7007103001167
 23
217.5779159119683
 33
0.0
  0
MTEXT
  5
1FC
330
1F4
100
AcDbEntity
  8
ANNOTATION_TEXT
 62
     7
100
AcDbMText
 10
210.2994841420786
 20
223.2029159119683
 30
0.0
 40
3.5
 41
0.0
 71
     5
 72
     1
  1
45
  7
ONSHAPE-STANDARD-DIMENSION
 11
0.0
 21
1.0
 31
0.0
  0
POINT
  5
1FD
330
1F4
100
AcDbEntity
  8
DEFPOINTS
 62
     0
100
AcDbPoint
 10
234.0112291935499
 20
228.8279159119683
 30
0.0
  0
POINT
  5
1FE
330
1F4
100
AcDbEntity
  8
DEFPOINTS
 62
     0
100
AcDbPoint
 10
234.0112291935499
 20
217.5779159119683
 30
0.0
  0
POINT
  5
1FF
330
1F4
100
AcDbEntity
  8
DEFPOINTS
 62
     0
100
AcDbPoint
 10
212.7007103001167
 20
217.5779159119683
 30
0.0
  0
POINT
  5
200
330
1F4
100
AcDbEntity
  8
DEFPOINTS
 62
     0
100
AcDbPoint
 10
212.7007103001167
 20
217.5779159119683
 30
0.0
  0
ENDBLK
  5
201
330
1F4
100
AcDbEntity
  8
0
100
AcDbBlockEnd
  0
BLOCK
  5
20B
330
20A
100
AcDbEntity
  8
0
100
AcDbBlockBegin
  2
*D2
 70
     1
 10
0.0
 20
0.0
 30
0.0
  3
*D2
  1

  0
LINE
  5
20C
330
20A
100
AcDbEntity
  8
ANNOTATION_TEXT
 62
     7
100
AcDbLine
 10
234.0112291935499
 20
216.9529159119683
 30
0.0
 11
234.0112291935499
 21
204.074884759645
 31
0.0
1001
INDEX
1070
     0
  0
LINE
  5
20D
330
20A
100
AcDbEntity
  8
ANNOTATION_TEXT
 62
     7
100
AcDbLine
 10
300.2612291935499
 20
216.9529159119683
 30
0.0
 11
300.2612291935499
 21
204.074884759645
 31
0.0
1001
INDEX
1070
     1
  0
LINE
  5
20E
330
20A
100
AcDbEntity
  8
ANNOTATION_TEXT
 62
     7
100
AcDbLine
 10
236.5112291935499
 20
205.324884759645
 30
0.0
 11
297.7612291935499
 21
205.324884759645
 31
0.0
1001
INDEX
1070
     3
  0
SOLID
  5
20F
330
20A
100
AcDbEntity
  8
ANNOTATION_TEXT
 62
     7
100
AcDbTrace
 10
236.5112291935499
 20
205.7415514263117
 30
0.0
 11
236.5112291935499
 21
204.9082180929784
 31
0.0
 12
234.0112291935499
 22
205.324884759645
 32
0.0
 13
234.0112291935499
 23
205.324884759645
 33
0.0
  0
SOLID
  5
210
330
20A
100
AcDbEntity
  8
ANNOTATION_TEXT
 62
     7
100
AcDbTrace
 10
297.7612291935499
 20
204.9082180929784
 30
0.0
 11
297.7612291935499
 21
205.7415514263117
 31
0.0
 12
300.2612291935499
 22
205.324884759645
 32
0.0
 13
300.2612291935499
 23
205.324884759645
 33
0.0
  0
MTEXT
  5
211
330
20A
100
AcDbEntity
  8
ANNOTATION_TEXT
 62
     7
100
AcDbMText
 10
267.1362291935499
 20
207.7416081928876
 30
0.0
 40
3.5
 41
0.0
 71
     5
 72
     1
  1
265
  7
ONSHAPE-STANDARD-DIMENSION
  0
POINT
  5
212
330
20A
100
AcDbEntity
  8
DEFPOINTS
 62
     0
100
AcDbPoint
 10
234.0112291935499
 20
217.5779159119683
 30
0.0
  0
POINT
  5
213
330
20A
100
AcDbEntity
  8
DEFPOINTS
 62
     0
100
AcDbPoint
 10
300.2612291935499
 20
217.5779159119683
 30
0.0
  0
POINT
  5
214
330
20A
100
AcDbEntity
  8
DEFPOINTS
 62
     0
100
AcDbPoint
 10
300.2612291935499
 20
205.324884759645
 30
0.0
  0
POINT
  5
215
330
20A
100
AcDbEntity
  8
DEFPOINTS
 62
     0
100
AcDbPoint
 10
300.2612291935499
 20
205.324884759645
 30
0.0
  0
ENDBLK
  5
216
330
20A
100
AcDbEntity
  8
0
100
AcDbBlockEnd
  0
BLOCK
  5
21D
330
21C
100
AcDbEntity
  8
0
100
AcDbBlockBegin
  2
*D3
 70
     1
 10
0.0
 20
0.0
 30
0.0
  3
*D3
  1

  0
LINE
  5
21E
330
21C
100
AcDbEntity
  8
ANNOTATION_TEXT
 62
     7
100
AcDbLine
 10
262.1362291935499
 20
257.0779159119683
 30
0.0
 11
262.1362291935499
 21
274.4144345074984
 31
0.0
1001
INDEX
1070
     0
  0
LINE
  5
21F
330
21C
100
AcDbEntity
  8
ANNOTATION_TEXT
 62
     7
100
AcDbLine
 10
272.1362291935499
 20
257.0779159119683
 30
0.0
 11
272.1362291935499
 21
274.4144345074984
 31
0.0
1001
INDEX
1070
     1
  0
LINE
  5
220
330
21C
100
AcDbEntity
  8
ANNOTATION_TEXT
 62
     7
100
AcDbLine
 10
264.6362291935499
 20
273.1644345074984
 30
0.0
 11
269.6362291935499
 21
273.1644345074984
 31
0.0
1001
INDEX
1070
     3
  0
SOLID
  5
221
330
21C
100
AcDbEntity
  8
ANNOTATION_TEXT
 62
     7
100
AcDbTrace
 10
264.6362291935499
 20
273.5811011741651
 30
0.0
 11
264.6362291935499
 21
272.7477678408317
 31
0.0
 12
262.1362291935499
 22
273.1644345074984
 32
0.0
 13
262.1362291935499
 23
273.1644345074984
 33
0.0
  0
SOLID
  5
222
330
21C
100
AcDbEntity
  8
ANNOTATION_TEXT
 62
     7
100
AcDbTrace
 10
269.6362291935499
 20
272.7477678408317
 30
0.0
 11
269.6362291935499
 21
273.5811011741651
 31
0.0
 12
272.1362291935499
 22
273.1644345074984
 32
0.0
 13
272.1362291935499
 23
273.1644345074984
 33
0.0
  0
MTEXT
  5
223
330
21C
100
AcDbEntity
  8
ANNOTATION_TEXT
 62
     7
100
AcDbMText
 10
267.1362291935499
 20
275.5835421369262
 30
0.0
 40
3.5
 41
0.0
 71
     5
 72
     1
  1
40
  7
ONSHAPE-STANDARD-DIMENSION
  0
POINT
  5
224
330
21C
100
AcDbEntity
  8
DEFPOINTS
 62
     0
100
AcDbPoint
 10
262.1362291935499
 20
256.4529159119683
 30
0.0
  0
POINT
  5
225
330
21C
100
AcDbEntity
  8
DEFPOINTS
 62
     0
100
AcDbPoint
 10
272.1362291935499
 20
256.4529159119683
 30
0.0
  0
POINT
  5
226
330
21C
100
AcDbEntity
  8
DEFPOINTS
 62
     0
100
AcDbPoint
 10
272.1362291935499
 20
273.1644345074984
 30
0.0
  0
POINT
  5
227
330
21C
100
AcDbEntity
  8
DEFPOINTS
 62
     0
100
AcDbPoint
 10
272.1362291935499
 20
273.1644345074984
 30
0.0
  0
ENDBLK
  5
228
330
21C
100
AcDbEntity
  8
0
100
AcDbBlockEnd
  0
BLOCK
  5
22F
330
22E
100
AcDbEntity
  8
0
100
AcDbBlockBegin
  2
*D4
 70
     1
 10
0.0
 20
0.0
 30
0.0
  3
*D4
  1

  0
LINE
  5
230
330
22E
100
AcDbEntity
  8
ANNOTATION_TEXT
 62
     7
100
AcDbLine
 10
272.7612291935499
 20
256.4529159119683
 30
0.0
 11
285.8952009562797
 21
256.4529159119683
 31
0.0
1001
INDEX
1070
     0
  0
LINE
  5
231
330
22E
100
AcDbEntity
  8
ANNOTATION_TEXT
 62
     7
100
AcDbLine
 10
272.7612291935499
 20
228.8279159119683
 30
0.0
 11
285.8952009562797
 21
228.8279159119683
 31
0.0
1001
INDEX
1070
     1
  0
LINE
  5
232
330
22E
100
AcDbEntity
  8
ANNOTATION_TEXT
 62
     7
100
AcDbLine
 10
284.6452009562797
 20
253.9529159119683
 30
0.0
 11
284.6452009562797
 21
231.3279159119683
 31
0.0
1001
INDEX
1070
     3
  0
SOLID
  5
233
330
22E
100
AcDbEntity
  8
ANNOTATION_TEXT
 62
     7
100
AcDbTrace
 10
285.0618676229464
 20
253.9529159119683
 30
0.0
 11
284.228534289613
 21
253.9529159119683
 31
0.0
 12
284.6452009562797
 22
256.4529159119683
 32
0.0
 13
284.6452009562797
 23
256.4529159119683
 33
0.0
  0
SOLID
  5
234
330
22E
100
AcDbEntity
  8
ANNOTATION_TEXT
 62
     7
100
AcDbTrace
 10
284.228534289613
 20
231.3279159119683
 30
0.0
 11
285.0618676229464
 21
231.3279159119683
 31
0.0
 12
284.6452009562797
 22
228.8279159119683
 32
0.0
 13
284.6452009562797
 23
228.8279159119683
 33
0.0
  0
MTEXT
  5
235
330
22E
100
AcDbEntity
  8
ANNOTATION_TEXT
 62
     7
100
AcDbMText
 10
281.9352213922471
 20
242.6404159119683
 30
0.0
 40
3.5
 41
0.0
 71
     5
 72
     1
  1
110,5
  7
ONSHAPE-STANDARD-DIMENSION
 11
0.0
 21
1.0
 31
0.0
  0
POINT
  5
236
330
22E
100
AcDbEntity
  8
DEFPOINTS
 62
     0
100
AcDbPoint
 10
272.1362291935499
 20
256.4529159119683
 30
0.0
  0
POINT
  5
237
330
22E
100
AcDbEntity
  8
DEFPOINTS
 62
     0
100
AcDbPoint
 10
272.1362291935499
 20
228.8279159119683
 30
0.0
  0
POINT
  5
238
330
22E
100
AcDbEntity
  8
DEFPOINTS
 62
     0
100
AcDbPoint
 10
284.6452009562797
 20
228.8279159119683
 30
0.0
  0
POINT
  5
239
330
22E
100
AcDbEntity
  8
DEFPOINTS
 62
     0
100
AcDbPoint
 10
284.6452009562797
 20
228.8279159119683
 30
0.0
  0
ENDBLK
  5
23A
330
22E
100
AcDbEntity
  8
0
100
AcDbBlockEnd
  0
BLOCK
  5
241
330
240
100
AcDbEntity
  8
0
100
AcDbBlockBegin
  2
*D5
 70
     1
 10
0.0
 20
0.0
 30
0.0
  3
*D5
  1

  0
LINE
  5
242
330
240
100
AcDbEntity
  8
ANNOTATION_TEXT
 62
     7
100
AcDbLine
 10
262.1362291935499
 20
229.4529159119683
 30
0.0
 11
262.1362291935499
 21
240.9267586765517
 31
0.0
1001
INDEX
1070
     0
  0
LINE
  5
243
330
240
100
AcDbEntity
  8
ANNOTATION_TEXT
 62
     7
100
AcDbLine
 10
234.0112291935499
 20
229.4529159119683
 30
0.0
 11
234.0112291935499
 21
240.9267586765517
 31
0.0
1001
INDEX
1070
     1
  0
LINE
  5
244
330
240
100
AcDbEntity
  8
ANNOTATION_TEXT
 62
     7
100
AcDbLine
 10
234.0112291935499
 20
239.6767586765517
 30
0.0
 11
210.7297461642128
 21
239.6767586765517
 31
0.0
  0
LINE
  5
245
330
240
100
AcDbEntity
  8
ANNOTATION_TEXT
 62
     7
100
AcDbLine
 10
259.6362291935499
 20
239.6767586765517
 30
0.0
 11
236.5112291935499
 21
239.6767586765517
 31
0.0
1001
INDEX
1070
     3
  0
SOLID
  5
246
330
240
100
AcDbEntity
  8
ANNOTATION_TEXT
 62
     7
100
AcDbTrace
 10
259.6362291935499
 20
239.260092009885
 30
0.0
 11
259.6362291935499
 21
240.0934253432183
 31
0.0
 12
262.1362291935499
 22
239.6767586765517
 32
0.0
 13
262.1362291935499
 23
239.6767586765517
 33
0.0
  0
SOLID
  5
247
330
240
100
AcDbEntity
  8
ANNOTATION_TEXT
 62
     7
100
AcDbTrace
 10
236.5112291935499
 20
240.0934253432183
 30
0.0
 11
236.5112291935499
 21
239.260092009885
 31
0.0
 12
234.0112291935499
 22
239.6767586765517
 32
0.0
 13
234.0112291935499
 23
239.6767586765517
 33
0.0
  0
MTEXT
  5
248
330
240
100
AcDbEntity
  8
ANNOTATION_TEXT
 62
     7
100
AcDbMText
 10
217.2377502514063
 20
242.3843540443991
 30
0.0
 40
3.5
 41
0.0
 71
     5
 72
     1
  1
112,5
  7
ONSHAPE-STANDARD-DIMENSION
  0
POINT
  5
249
330
240
100
AcDbEntity
  8
DEFPOINTS
 62
     0
100
AcDbPoint
 10
262.1362291935499
 20
228.8279159119683
 30
0.0
  0
POINT
  5
24A
330
240
100
AcDbEntity
  8
DEFPOINTS
 62
     0
100
AcDbPoint
 10
234.0112291935499
 20
228.8279159119683
 30
0.0
  0
POINT
  5
24B
330
240
100
AcDbEntity
  8
DEFPOINTS
 62
     0
100
AcDbPoint
 10
234.0112291935499
 20
239.6767586765517
 30
0.0
  0
POINT
  5
24C
330
240
100
AcDbEntity
  8
DEFPOINTS
 62
     0
100
AcDbPoint
 10
234.0112291935499
 20
239.6767586765517
 30
0.0
  0
ENDBLK
  5
24D
330
240
100
AcDbEntity
  8
0
100
AcDbBlockEnd
  0
BLOCK
  5
260
330
25F
100
AcDbEntity
  8
0
100
AcDbBlockBegin
  2
*D6
 70
     1
 10
0.0
 20
0.0
 30
0.0
  3
*D6
  1

  0
LINE
  5
261
330
25F
100
AcDbEntity
  8
ANNOTATION_TEXT
 62
     7
100
AcDbLine
 10
320.6863535279494
 20
257.0779159119683
 30
0.0
 11
320.6863535279494
 21
265.1243050834292
 31
0.0
1001
INDEX
1070
     0
  0
LINE
  5
263
330
25F
100
AcDbEntity
  8
ANNOTATION_TEXT
 62
     7
100
AcDbLine
 10
326.9363535279494
 20
257.0779159119683
 30
0.0
 11
326.9363535279494
 21
265.1243050834292
 31
0.0
1001
INDEX
1070
     1
  0
LINE
  5
264
330
25F
100
AcDbEntity
  8
ANNOTATION_TEXT
 62
     7
100
AcDbLine
 10
320.6863535279494
 20
263.8743050834292
 30
0.0
 11
307.2220702309295
 21
263.8743050834292
 31
0.0
  0
LINE
  5
265
330
25F
100
AcDbEntity
  8
ANNOTATION_TEXT
 62
     7
100
AcDbLine
 10
323.1863535279494
 20
263.8743050834292
 30
0.0
 11
324.4363535279494
 21
263.8743050834292
 31
0.0
1001
INDEX
1070
     3
  0
SOLID
  5
266
330
25F
100
AcDbEntity
  8
ANNOTATION_TEXT
 62
     7
100
AcDbTrace
 10
323.1863535279494
 20
264.2909717500959
 30
0.0
 11
323.1863535279494
 21
263.4576384167626
 31
0.0
 12
320.6863535279494
 22
263.8743050834292
 32
0.0
 13
320.6863535279494
 23
263.8743050834292
 33
0.0
  0
SOLID
  5
267
330
25F
100
AcDbEntity
  8
ANNOTATION_TEXT
 62
     7
100
AcDbTrace
 10
324.4363535279494
 20
263.4576384167626
 30
0.0
 11
324.4363535279494
 21
264.2909717500959
 31
0.0
 12
326.9363535279494
 22
263.8743050834292
 32
0.0
 13
326.9363535279494
 23
263.8743050834292
 33
0.0
  0
MTEXT
  5
268
330
25F
100
AcDbEntity
  8
ANNOTATION_TEXT
 62
     7
100
AcDbMText
 10
310.3838549720739
 20
266.2910285166718
 30
0.0
 40
3.5
 41
0.0
 71
     5
 72
     1
  1
25
  7
ONSHAPE-STANDARD-DIMENSION
  0
POINT
  5
269
330
25F
100
AcDbEntity
  8
DEFPOINTS
 62
     0
100
AcDbPoint
 10
320.6863535279494
 20
256.4529159119683
 30
0.0
  0
POINT
  5
26A
330
25F
100
AcDbEntity
  8
DEFPOINTS
 62
     0
100
AcDbPoint
 10
326.9363535279494
 20
256.4529159119683
 30
0.0
  0
POINT
  5
26B
330
25F
100
AcDbEntity
  8
DEFPOINTS
 62
     0
100
AcDbPoint
 10
326.9363535279494
 20
263.8743050834292
 30
0.0
  0
POINT
  5
26C
330
25F
100
AcDbEntity
  8
DEFPOINTS
 62
     0
100
AcDbPoint
 10
326.9363535279494
 20
263.8743050834292
 30
0.0
  0
ENDBLK
  5
26D
330
25F
100
AcDbEntity
  8
0
100
AcDbBlockEnd
  0
BLOCK
  5
277
330
276
100
AcDbEntity
  8
0
100
AcDbBlockBegin
  2
*D7
 70
     1
 10
0.0
 20
0.0
 30
0.0
  3
*D7
  1

  0
LINE
  5
278
330
276
100
AcDbEntity
  8
ANNOTATION_TEXT
 62
     7
100
AcDbLine
 10
320.4363535279494
 20
216.9529159119683
 30
0.0
 11
320.4363535279494
 21
204.074884759645
 31
0.0
1001
INDEX
1070
     0
  0
LINE
  5
279
330
276
100
AcDbEntity
  8
ANNOTATION_TEXT
 62
     7
100
AcDbLine
 10
391.9363535279494
 20
216.9529159119683
 30
0.0
 11
391.9363535279494
 21
204.074884759645
 31
0.0
1001
INDEX
1070
     1
  0
LINE
  5
27A
330
276
100
AcDbEntity
  8
ANNOTATION_TEXT
 62
     7
100
AcDbLine
 10
322.9363535279494
 20
205.324884759645
 30
0.0
 11
389.4363535279494
 21
205.324884759645
 31
0.0
1001
INDEX
1070
     3
  0
SOLID
  5
27B
330
276
100
AcDbEntity
  8
ANNOTATION_TEXT
 62
     7
100
AcDbTrace
 10
322.9363535279494
 20
205.7415514263117
 30
0.0
 11
322.9363535279494
 21
204.9082180929784
 31
0.0
 12
320.4363535279494
 22
205.324884759645
 32
0.0
 13
320.4363535279494
 23
205.324884759645
 33
0.0
  0
SOLID
  5
27C
330
276
100
AcDbEntity
  8
ANNOTATION_TEXT
 62
     7
100
AcDbTrace
 10
389.4363535279494
 20
204.9082180929784
 30
0.0
 11
389.4363535279494
 21
205.7415514263117
 31
0.0
 12
391.9363535279494
 22
205.324884759645
 32
0.0
 13
391.9363535279494
 23
205.324884759645
 33
0.0
  0
MTEXT
  5
27D
330
276
100
AcDbEntity
  8
ANNOTATION_TEXT
 62
     7
100
AcDbMText
 10
352.7295611841098
 20
207.7416081928876
 30
0.0
 40
3.5
 41
0.0
 71
     5
 72
     1
  1
286
  7
ONSHAPE-STANDARD-DIMENSION
  0
POINT
  5
27E
330
276
100
AcDbEntity
  8
DEFPOINTS
 62
     0
100
AcDbPoint
 10
320.4363535279494
 20
217.5779159119683
 30
0.0
  0
POINT
  5
27F
330
276
100
AcDbEntity
  8
DEFPOINTS
 62
     0
100
AcDbPoint
 10
391.9363535279494
 20
217.5779159119683
 30
0.0
  0
POINT
  5
280
330
276
100
AcDbEntity
  8
DEFPOINTS
 62
     0
100
AcDbPoint
 10
391.9363535279494
 20
205.324884759645
 30
0.0
  0
POINT
  5
281
330
276
100
AcDbEntity
  8
DEFPOINTS
 62
     0
100
AcDbPoint
 10
391.9363535279494
 20
205.324884759645
 30
0.0
  0
ENDBLK
  5
282
330
276
100
AcDbEntity
  8
0
100
AcDbBlockEnd
  0
BLOCK
  5
2A1
330
2A0
100
AcDbEntity
  8
0
100
AcDbBlockBegin
  2
*D8
 70
     1
 10
0.0
 20
0.0
 30
0.0
  3
*D8
  1

  0
LINE
  5
2A2
330
2A0
100
AcDbEntity
  8
ANNOTATION_TEXT
 62
     7
100
AcDbLine
 10
25.51088831166712
 20
131.7806551855578
 30
0.0
 11
25.51088831166712
 21
115.8620084230439
 31
0.0
1001
INDEX
1070
     0
  0
LINE
  5
2A4
330
2A0
100
AcDbEntity
  8
ANNOTATION_TEXT
 62
     7
100
AcDbLine
 10
53.01088831166712
 20
131.7806551855578
 30
0.0
 11
53.01088831166712
 21
115.8620084230439
 31
0.0
1001
INDEX
1070
     1
  0
LINE
  5
2A5
330
2A0
100
AcDbEntity
  8
ANNOTATION_TEXT
 62
     7
100
AcDbLine
 10
28.01088831166712
 20
117.1120084230439
 30
0.0
 11
50.51088831166712
 21
117.1120084230439
 31
0.0
1001
INDEX
1070
     3
  0
SOLID
  5
2A6
330
2A0
100
AcDbEntity
  8
ANNOTATION_TEXT
 62
     7
100
AcDbTrace
 10
28.01088831166712
 20
117.5286750897106
 30
0.0
 11
28.01088831166712
 21
116.6953417563772
 31
0.0
 12
25.51088831166712
 22
117.1120084230439
 32
0.0
 13
25.51088831166712
 23
117.1120084230439
 33
0.0
  0
SOLID
  5
2A7
330
2A0
100
AcDbEntity
  8
ANNOTATION_TEXT
 62
     7
100
AcDbTrace
 10
50.51088831166712
 20
116.6953417563772
 30
0.0
 11
50.51088831166712
 21
117.5286750897106
 31
0.0
 12
53.01088831166712
 22
117.1120084230439
 32
0.0
 13
53.01088831166712
 23
117.1120084230439
 33
0.0
  0
MTEXT
  5
2A8
330
2A0
100
AcDbEntity
  8
ANNOTATION_TEXT
 62
     7
100
AcDbMText
 10
39.26088831166712
 20
119.5311160524717
 30
0.0
 40
3.5
 41
0.0
 71
     5
 72
     1
  1
110
  7
ONSHAPE-STANDARD-DIMENSION
  0
POINT
  5
2A9
330
2A0
100
AcDbEntity
  8
DEFPOINTS
 62
     0
100
AcDbPoint
 10
25.51088831166712
 20
132.4056551855578
 30
0.0
  0
POINT
  5
2AA
330
2A0
100
AcDbEntity
  8
DEFPOINTS
 62
     0
100
AcDbPoint
 10
53.01088831166712
 20
132.4056551855578
 30
0.0
  0
POINT
  5
2AB
330
2A0
100
AcDbEntity
  8
DEFPOINTS
 62
     0
100
AcDbPoint
 10
53.01088831166712
 20
117.1120084230439
 30
0.0
  0
POINT
  5
2AC
330
2A0
100
AcDbEntity
  8
DEFPOINTS
 62
     0
100
AcDbPoint
 10
53.01088831166712
 20
117.1120084230439
 30
0.0
  0
ENDBLK
  5
2AD
330
2A0
100
AcDbEntity
  8
0
100
AcDbBlockEnd
  0
BLOCK
  5
2B7
330
2B6
100
AcDbEntity
  8
0
100
AcDbBlockBegin
  2
*D9
 70
     1
 10
0.0
 20
0.0
 30
0.0
  3
*D9
  1

  0
LINE
  5
2B8
330
2B6
100
AcDbEntity
  8
ANNOTATION_TEXT
 62
     7
100
AcDbLine
 10
24.88588831166712
 20
143.6556551855578
 30
0.0
 11
17.66325828018836
 21
143.6556551855578
 31
0.0
1001
INDEX
1070
     0
  0
LINE
  5
2B9
330
2B6
100
AcDbEntity
  8
ANNOTATION_TEXT
 62
     7
100
AcDbLine
 10
24.88588831166712
 20
132.4056551855578
 30
0.0
 11
17.66325828018836
 21
132.4056551855578
 31
0.0
1001
INDEX
1070
     1
  0
LINE
  5
2BA
330
2B6
100
AcDbEntity
  8
ANNOTATION_TEXT
 62
     7
100
AcDbLine
 10
18.91325828018836
 20
141.1556551855578
 30
0.0
 11
18.91325828018836
 21
134.9056551855578
 31
0.0
1001
INDEX
1070
     3
  0
SOLID
  5
2BB
330
2B6
100
AcDbEntity
  8
ANNOTATION_TEXT
 62
     7
100
AcDbTrace
 10
19.32992494685503
 20
141.1556551855578
 30
0.0
 11
18.49659161352169
 21
141.1556551855578
 31
0.0
 12
18.91325828018836
 22
143.6556551855578
 32
0.0
 13
18.91325828018836
 23
143.6556551855578
 33
0.0
  0
SOLID
  5
2BC
330
2B6
100
AcDbEntity
  8
ANNOTATION_TEXT
 62
     7
100
AcDbTrace
 10
18.49659161352169
 20
134.9056551855578
 30
0.0
 11
19.32992494685503
 21
134.9056551855578
 31
0.0
 12
18.91325828018836
 22
132.4056551855578
 32
0.0
 13
18.91325828018836
 23
132.4056551855578
 33
0.0
  0
MTEXT
  5
2BD
330
2B6
100
AcDbEntity
  8
ANNOTATION_TEXT
 62
     7
100
AcDbMText
 10
16.5120321221502
 20
138.0306551855578
 30
0.0
 40
3.5
 41
0.0
 71
     5
 72
     1
  1
45
  7
ONSHAPE-STANDARD-DIMENSION
 11
0.0
 21
1.0
 31
0.0
  0
POINT
  5
2BE
330
2B6
100
AcDbEntity
  8
DEFPOINTS
 62
     0
100
AcDbPoint
 10
25.51088831166712
 20
143.6556551855578
 30
0.0
  0
POINT
  5
2BF
330
2B6
100
AcDbEntity
  8
DEFPOINTS
 62
     0
100
AcDbPoint
 10
25.51088831166712
 20
132.4056551855578
 30
0.0
  0
POINT
  5
2C0
330
2B6
100
AcDbEntity
  8
DEFPOINTS
 62
     0
100
AcDbPoint
 10
18.91325828018836
 20
132.4056551855578
 30
0.0
  0
POINT
  5
2C1
330
2B6
100
AcDbEntity
  8
DEFPOINTS
 62
     0
100
AcDbPoint
 10
18.91325828018836
 20
132.4056551855578
 30
0.0
  0
ENDBLK
  5
2C2
330
2B6
100
AcDbEntity
  8
0
100
AcDbBlockEnd
  0
BLOCK
  5
2C9
330
2C8
100
AcDbEntity
  8
0
100
AcDbBlockBegin
  2
*D10
 70
     1
 10
0.0
 20
0.0
 30
0.0
  3
*D10
  1

  0
LINE
  5
2CA
330
2C8
100
AcDbEntity
  8
ANNOTATION_TEXT
 62
     7
100
AcDbLine
 10
25.51088831166712
 20
144.2806551855578
 30
0.0
 11
25.51088831166712
 21
152.5169588330262
 31
0.0
1001
INDEX
1070
     0
  0
LINE
  5
2CB
330
2C8
100
AcDbEntity
  8
ANNOTATION_TEXT
 62
     7
100
AcDbLine
 10
34.26088831166711
 20
151.8919588330262
 30
0.0
 11
34.26088831166711
 21
152.5169588330262
 31
0.0
1001
INDEX
1070
     1
  0
LINE
  5
2CC
330
2C8
100
AcDbEntity
  8
ANNOTATION_TEXT
 62
     7
100
AcDbLine
 10
25.51088831166712
 20
151.2669588330262
 30
0.0
 11
14.63214171766167
 21
151.2669588330262
 31
0.0
  0
LINE
  5
2CD
330
2C8
100
AcDbEntity
  8
ANNOTATION_TEXT
 62
     7
100
AcDbLine
 10
28.01088831166712
 20
151.2669588330262
 30
0.0
 11
31.76088831166711
 21
151.2669588330262
 31
0.0
1001
INDEX
1070
     3
  0
SOLID
  5
2CE
330
2C8
100
AcDbEntity
  8
ANNOTATION_TEXT
 62
     7
100
AcDbTrace
 10
28.01088831166712
 20
151.6836254996928
 30
0.0
 11
28.01088831166712
 21
150.8502921663595
 31
0.0
 12
25.51088831166712
 22
151.2669588330262
 32
0.0
 13
25.51088831166712
 23
151.2669588330262
 33
0.0
  0
SOLID
  5
2CF
330
2C8
100
AcDbEntity
  8
ANNOTATION_TEXT
 62
     7
100
AcDbTrace
 10
31.76088831166711
 20
150.8502921663595
 30
0.0
 11
31.76088831166711
 21
151.6836254996928
 31
0.0
 12
34.26088831166711
 22
151.2669588330262
 32
0.0
 13
34.26088831166711
 23
151.2669588330262
 33
0.0
  0
MTEXT
  5
2D0
330
2C8
100
AcDbEntity
  8
ANNOTATION_TEXT
 62
     7
100
AcDbMText
 10
17.80107904736194
 20
153.6836822662687
 30
0.0
 40
3.5
 41
0.0
 71
     5
 72
     1
  1
35
  7
ONSHAPE-STANDARD-DIMENSION
  0
POINT
  5
2D1
330
2C8
100
AcDbEntity
  8
DEFPOINTS
 62
     0
100
AcDbPoint
 10
25.51088831166712
 20
143.6556551855578
 30
0.0
  0
POINT
  5
2D2
330
2C8
100
AcDbEntity
  8
DEFPOINTS
 62
     0
100
AcDbPoint
 10
34.26088831166711
 20
151.2669588330262
 30
0.0
  0
POINT
  5
2D3
330
2C8
100
AcDbEntity
  8
DEFPOINTS
 62
     0
100
AcDbPoint
 10
34.26088831166711
 20
151.2669588330262
 30
0.0
  0
POINT
  5
2D4
330
2C8
100
AcDbEntity
  8
DEFPOINTS
 62
     0
100
AcDbPoint
 10
34.26088831166711
 20
151.2669588330262
 30
0.0
  0
ENDBLK
  5
2D5
330
2C8
100
AcDbEntity
  8
0
100
AcDbBlockEnd
  0
BLOCK
  5
2DC
330
2DB
100
AcDbEntity
  8
0
100
AcDbBlockBegin
  2
*D11
 70
     1
 10
0.0
 20
0.0
 30
0.0
  3
*D11
  1

  0
LINE
  5
2DD
330
2DB
100
AcDbEntity
  8
ANNOTATION_TEXT
 62
     7
100
AcDbLine
 10
34.26088831166712
 20
171.9056551855577
 30
0.0
 11
34.26088831166712
 21
186.6719092430084
 31
0.0
1001
INDEX
1070
     0
  0
LINE
  5
2DE
330
2DB
100
AcDbEntity
  8
ANNOTATION_TEXT
 62
     7
100
AcDbLine
 10
44.2608883116671
 20
171.9056551855577
 30
0.0
 11
44.2608883116671
 21
186.6719092430084
 31
0.0
1001
INDEX
1070
     1
  0
LINE
  5
2DF
330
2DB
100
AcDbEntity
  8
ANNOTATION_TEXT
 62
     7
100
AcDbLine
 10
36.76088831166712
 20
185.4219092430084
 30
0.0
 11
41.7608883116671
 21
185.4219092430084
 31
0.0
1001
INDEX
1070
     3
  0
SOLID
  5
2E0
330
2DB
100
AcDbEntity
  8
ANNOTATION_TEXT
 62
     7
100
AcDbTrace
 10
36.76088831166712
 20
185.8385759096751
 30
0.0
 11
36.76088831166712
 21
185.0052425763418
 31
0.0
 12
34.26088831166712
 22
185.4219092430084
 32
0.0
 13
34.26088831166712
 23
185.4219092430084
 33
0.0
  0
SOLID
  5
2E1
330
2DB
100
AcDbEntity
  8
ANNOTATION_TEXT
 62
     7
100
AcDbTrace
 10
41.7608883116671
 20
185.0052425763418
 30
0.0
 11
41.7608883116671
 21
185.8385759096751
 31
0.0
 12
44.2608883116671
 22
185.4219092430084
 32
0.0
 13
44.2608883116671
 23
185.4219092430084
 33
0.0
  0
MTEXT
  5
2E2
330
2DB
100
AcDbEntity
  8
ANNOTATION_TEXT
 62
     7
100
AcDbMText
 10
39.26088831166711
 20
187.8410168724362
 30
0.0
 40
3.5
 41
0.0
 71
     5
 72
     1
  1
40
  7
ONSHAPE-STANDARD-DIMENSION
  0
POINT
  5
2E3
330
2DB
100
AcDbEntity
  8
DEFPOINTS
 62
     0
100
AcDbPoint
 10
34.26088831166712
 20
171.2806551855577
 30
0.0
  0
POINT
  5
2E4
330
2DB
100
AcDbEntity
  8
DEFPOINTS
 62
     0
100
AcDbPoint
 10
44.2608883116671
 20
171.2806551855577
 30
0.0
  0
POINT
  5
2E5
330
2DB
100
AcDbEntity
  8
DEFPOINTS
 62
     0
100
AcDbPoint
 10
44.2608883116671
 20
185.4219092430084
 30
0.0
  0
POINT
  5
2E6
330
2DB
100
AcDbEntity
  8
DEFPOINTS
 62
     0
100
AcDbPoint
 10
44.2608883116671
 20
185.4219092430084
 30
0.0
  0
ENDBLK
  5
2E7
330
2DB
100
AcDbEntity
  8
0
100
AcDbBlockEnd
  0
BLOCK
  5
2EE
330
2ED
100
AcDbEntity
  8
0
100
AcDbBlockBegin
  2
*D12
 70
     1
 10
0.0
 20
0.0
 30
0.0
  3
*D12
  1

  0
LINE
  5
2EF
330
2ED
100
AcDbEntity
  8
ANNOTATION_TEXT
 62
     7
100
AcDbLine
 10
44.8858883116671
 20
171.2806551855577
 30
0.0
 11
54.26088831166712
 21
171.2806551855577
 31
0.0
1001
INDEX
1070
     0
  0
LINE
  5
2F0
330
2ED
100
AcDbEntity
  8
ANNOTATION_TEXT
 62
     7
100
AcDbLine
 10
44.8858883116671
 20
143.6556551855578
 30
0.0
 11
54.26088831166712
 21
143.6556551855578
 31
0.0
1001
INDEX
1070
     1
  0
LINE
  5
2F1
330
2ED
100
AcDbEntity
  8
ANNOTATION_TEXT
 62
     7
100
AcDbLine
 10
53.01088831166712
 20
168.7806551855577
 30
0.0
 11
53.01088831166712
 21
146.1556551855578
 31
0.0
1001
INDEX
1070
     3
  0
SOLID
  5
2F2
330
2ED
100
AcDbEntity
  8
ANNOTATION_TEXT
 62
     7
100
AcDbTrace
 10
53.42755497833378
 20
168.7806551855577
 30
0.0
 11
52.59422164500045
 21
168.7806551855577
 31
0.0
 12
53.01088831166712
 22
171.2806551855577
 32
0.0
 13
53.01088831166712
 23
171.2806551855577
 33
0.0
  0
SOLID
  5
2F3
330
2ED
100
AcDbEntity
  8
ANNOTATION_TEXT
 62
     7
100
AcDbTrace
 10
52.59422164500045
 20
146.1556551855578
 30
0.0
 11
53.42755497833378
 21
146.1556551855578
 31
0.0
 12
53.01088831166712
 22
143.6556551855578
 32
0.0
 13
53.01088831166712
 23
143.6556551855578
 33
0.0
  0
MTEXT
  5
2F4
330
2ED
100
AcDbEntity
  8
ANNOTATION_TEXT
 62
     7
100
AcDbMText
 10
50.30090874763442
 20
157.4681551855577
 30
0.0
 40
3.5
 41
0.0
 71
     5
 72
     1
  1
110,5
  7
ONSHAPE-STANDARD-DIMENSION
 11
0.0
 21
1.0
 31
0.0
  0
POINT
  5
2F5
330
2ED
100
AcDbEntity
  8
DEFPOINTS
 62
     0
100
AcDbPoint
 10
44.2608883116671
 20
171.2806551855577
 30
0.0
  0
POINT
  5
2F6
330
2ED
100
AcDbEntity
  8
DEFPOINTS
 62
     0
100
AcDbPoint
 10
44.2608883116671
 20
143.6556551855578
 30
0.0
  0
POINT
  5
2F7
330
2ED
100
AcDbEntity
  8
DEFPOINTS
 62
     0
100
AcDbPoint
 10
53.01088831166712
 20
143.6556551855578
 30
0.0
  0
POINT
  5
2F8
330
2ED
100
AcDbEntity
  8
DEFPOINTS
 62
     0
100
AcDbPoint
 10
53.01088831166712
 20
143.6556551855578
 30
0.0
  0
ENDBLK
  5
2F9
330
2ED
100
AcDbEntity
  8
0
100
AcDbBlockEnd
  0
BLOCK
  5
300
330
2FF
100
AcDbEntity
  8
0
100
AcDbBlockBegin
  2
*D13
 70
     1
 10
0.0
 20
0.0
 30
0.0
  3
*D13
  1

  0
LINE
  5
301
330
2FF
100
AcDbEntity
  8
ANNOTATION_TEXT
 62
     7
100
AcDbLine
 10
74.97759342184298
 20
171.9056551855577
 30
0.0
 11
74.97759342184298
 21
181.2216511988623
 31
0.0
1001
INDEX
1070
     0
  0
LINE
  5
302
330
2FF
100
AcDbEntity
  8
ANNOTATION_TEXT
 62
     7
100
AcDbLine
 10
81.22759342184298
 20
171.9056551855577
 30
0.0
 11
81.22759342184298
 21
181.2216511988623
 31
0.0
1001
INDEX
1070
     1
  0
LINE
  5
303
330
2FF
100
AcDbEntity
  8
ANNOTATION_TEXT
 62
     7
100
AcDbLine
 10
74.97759342184298
 20
179.9716511988623
 30
0.0
 11
61.89699164614767
 21
179.9716511988623
 31
0.0
  0
LINE
  5
304
330
2FF
100
AcDbEntity
  8
ANNOTATION_TEXT
 62
     7
100
AcDbLine
 10
77.47759342184298
 20
179.9716511988623
 30
0.0
 11
78.72759342184298
 21
179.9716511988623
 31
0.0
1001
INDEX
1070
     3
  0
SOLID
  5
305
330
2FF
100
AcDbEntity
  8
ANNOTATION_TEXT
 62
     7
100
AcDbTrace
 10
77.47759342184298
 20
180.388317865529
 30
0.0
 11
77.47759342184298
 21
179.5549845321957
 31
0.0
 12
74.97759342184298
 22
179.9716511988623
 32
0.0
 13
74.97759342184298
 23
179.9716511988623
 33
0.0
  0
SOLID
  5
306
330
2FF
100
AcDbEntity
  8
ANNOTATION_TEXT
 62
     7
100
AcDbTrace
 10
78.72759342184298
 20
179.5549845321957
 30
0.0
 11
78.72759342184298
 21
180.388317865529
 31
0.0
 12
81.22759342184298
 22
179.9716511988623
 32
0.0
 13
81.22759342184298
 23
179.9716511988623
 33
0.0
  0
MTEXT
  5
307
330
2FF
100
AcDbEntity
  8
ANNOTATION_TEXT
 62
     7
100
AcDbMText
 10
65.05877638729208
 20
182.3883746321048
 30
0.0
 40
3.5
 41
0.0
 71
     5
 72
     1
  1
25
  7
ONSHAPE-STANDARD-DIMENSION
  0
POINT
  5
308
330
2FF
100
AcDbEntity
  8
DEFPOINTS
 62
     0
100
AcDbPoint
 10
74.97759342184298
 20
171.2806551855577
 30
0.0
  0
POINT
  5
309
330
2FF
100
AcDbEntity
  8
DEFPOINTS
 62
     0
100
AcDbPoint
 10
81.22759342184298
 20
171.2806551855577
 30
0.0
  0
POINT
  5
30A
330
2FF
100
AcDbEntity
  8
DEFPOINTS
 62
     0
100
AcDbPoint
 10
81.22759342184298
 20
179.9716511988623
 30
0.0
  0
POINT
  5
30B
330
2FF
100
AcDbEntity
  8
DEFPOINTS
 62
     0
100
AcDbPoint
 10
81.22759342184298
 20
179.9716511988623
 30
0.0
  0
ENDBLK
  5
30C
330
2FF
100
AcDbEntity
  8
0
100
AcDbBlockEnd
  0
BLOCK
  5
313
330
312
100
AcDbEntity
  8
0
100
AcDbBlockBegin
  2
*D14
 70
     1
 10
0.0
 20
0.0
 30
0.0
  3
*D14
  1

  0
LINE
  5
314
330
312
100
AcDbEntity
  8
ANNOTATION_TEXT
 62
     7
100
AcDbLine
 10
74.72759342184298
 20
131.7806551855578
 30
0.0
 11
74.72759342184298
 21
110.4117503788978
 31
0.0
1001
INDEX
1070
     0
  0
LINE
  5
315
330
312
100
AcDbEntity
  8
ANNOTATION_TEXT
 62
     7
100
AcDbLine
 10
146.227593421843
 20
131.7806551855578
 30
0.0
 11
146.227593421843
 21
110.4117503788978
 31
0.0
1001
INDEX
1070
     1
  0
LINE
  5
316
330
312
100
AcDbEntity
  8
ANNOTATION_TEXT
 62
     7
100
AcDbLine
 10
77.22759342184298
 20
111.6617503788978
 30
0.0
 11
143.727593421843
 21
111.6617503788978
 31
0.0
1001
INDEX
1070
     3
  0
SOLID
  5
317
330
312
100
AcDbEntity
  8
ANNOTATION_TEXT
 62
     7
100
AcDbTrace
 10
77.22759342184298
 20
112.0784170455645
 30
0.0
 11
77.22759342184298
 21
111.2450837122311
 31
0.0
 12
74.72759342184298
 22
111.6617503788978
 32
0.0
 13
74.72759342184298
 23
111.6617503788978
 33
0.0
  0
SOLID
  5
318
330
312
100
AcDbEntity
  8
ANNOTATION_TEXT
 62
     7
100
AcDbTrace
 10
143.727593421843
 20
111.2450837122311
 30
0.0
 11
143.727593421843
 21
112.0784170455645
 31
0.0
 12
146.227593421843
 22
111.6617503788978
 32
0.0
 13
146.227593421843
 23
111.6617503788978
 33
0.0
  0
MTEXT
  5
319
330
312
100
AcDbEntity
  8
ANNOTATION_TEXT
 62
     7
100
AcDbMText
 10
110.477593421843
 20
114.0784738121403
 30
0.0
 40
3.5
 41
0.0
 71
     5
 72
     1
  1
286
  7
ONSHAPE-STANDARD-DIMENSION
  0
POINT
  5
31A
330
312
100
AcDbEntity
  8
DEFPOINTS
 62
     0
100
AcDbPoint
 10
74.72759342184298
 20
132.4056551855578
 30
0.0
  0
POINT
  5
31B
330
312
100
AcDbEntity
  8
DEFPOINTS
 62
     0
100
AcDbPoint
 10
146.227593421843
 20
132.4056551855578
 30
0.0
  0
POINT
  5
31C
330
312
100
AcDbEntity
  8
DEFPOINTS
 62
     0
100
AcDbPoint
 10
146.227593421843
 20
111.6617503788978
 30
0.0
  0
POINT
  5
31D
330
312
100
AcDbEntity
  8
DEFPOINTS
 62
     0
100
AcDbPoint
 10
146.227593421843
 20
111.6617503788978
 30
0.0
  0
ENDBLK
  5
31E
330
312
100
AcDbEntity
  8
0
100
AcDbBlockEnd
  0
ENDSEC
  0
SECTION
  2
ENTITIES
  0
LINE
  5
76
330
1F
100
AcDbEntity
  8
VISIBLE
100
AcDbLine
 10
234.0112291935499
 20
217.5779159119683
 30
0.0
 11
300.2612291935499
 21
217.5779159119683
 31
0.0
  0
LINE
  5
77
330
1F
100
AcDbEntity
  8
VISIBLE
100
AcDbLine
 10
300.2612291935499
 20
228.8279159119683
 30
0.0
 11
300.2612291935499
 21
217.5779159119683
 31
0.0
  0
LINE
  5
78
330
1F
100
AcDbEntity
  8
VISIBLE
100
AcDbLine
 10
234.0112291935499
 20
228.8279159119683
 30
0.0
 11
234.0112291935499
 21
217.5779159119683
 31
0.0
  0
LINE
  5
79
330
1F
100
AcDbEntity
  8
VISIBLE
100
AcDbLine
 10
234.0112291935499
 20
228.8279159119683
 30
0.0
 11
300.2612291935499
 21
228.8279159119683
 31
0.0
  0
LINE
  5
7A
330
1F
100
AcDbEntity
  8
VISIBLE
100
AcDbLine
 10
262.1362291935499
 20
228.8279159119683
 30
0.0
 11
262.1362291935499
 21
256.4529159119683
 31
0.0
  0
LINE
  5
7B
330
1F
100
AcDbEntity
  8
VISIBLE
100
AcDbLine
 10
272.1362291935499
 20
228.8279159119683
 30
0.0
 11
272.1362291935499
 21
256.4529159119683
 31
0.0
  0
LINE
  5
7C
330
1F
100
AcDbEntity
  8
VISIBLE
100
AcDbLine
 10
272.1362291935499
 20
256.4529159119683
 30
0.0
 11
262.1362291935499
 21
256.4529159119683
 31
0.0
  0
LINE
  5
7F
330
1F
100
AcDbEntity
  8
VISIBLE
100
AcDbLine
 10
320.4363535279494
 20
228.8279159119683
 30
0.0
 11
391.9363535279494
 21
228.8279159119683
 31
0.0
  0
LINE
  5
80
330
1F
100
AcDbEntity
  8
VISIBLE
100
AcDbLine
 10
320.4363535279494
 20
228.8279159119683
 30
0.0
 11
320.4363535279494
 21
217.5779159119683
 31
0.0
  0
LINE
  5
81
330
1F
100
AcDbEntity
  8
VISIBLE
100
AcDbLine
 10
391.9363535279494
 20
228.8279159119683
 30
0.0
 11
391.9363535279494
 21
217.5779159119683
 31
0.0
  0
LINE
  5
82
330
1F
100
AcDbEntity
  8
VISIBLE
100
AcDbLine
 10
320.4363535279494
 20
217.5779159119683
 30
0.0
 11
391.9363535279494
 21
217.5779159119683
 31
0.0
  0
LINE
  5
83
330
1F
100
AcDbEntity
  8
VISIBLE
100
AcDbLine
 10
391.4363535279494
 20
256.2029159119683
 30
0.0
 11
385.4363535279494
 21
256.2029159119683
 31
0.0
  0
LINE
  5
84
330
1F
100
AcDbEntity
  8
VISIBLE
100
AcDbLine
 10
385.4363535279494
 20
256.2029159119683
 30
0.0
 11
385.4363535279494
 21
256.4529159119683
 31
0.0
  0
LINE
  5
85
330
1F
100
AcDbEntity
  8
VISIBLE
100
AcDbLine
 10
385.4363535279494
 20
256.4529159119683
 30
0.0
 11
391.6863535279494
 21
256.4529159119683
 31
0.0
  0
LINE
  5
86
330
1F
100
AcDbEntity
  8
VISIBLE
100
AcDbLine
 10
391.4363535279494
 20
228.8279159119683
 30
0.0
 11
391.4363535279494
 21
256.2029159119683
 31
0.0
  0
LINE
  5
87
330
1F
100
AcDbEntity
  8
VISIBLE
100
AcDbLine
 10
391.6863535279494
 20
228.8279159119683
 30
0.0
 11
391.6863535279494
 21
256.4529159119683
 31
0.0
  0
LINE
  5
88
330
1F
100
AcDbEntity
  8
VISIBLE
100
AcDbLine
 10
326.9363535279494
 20
256.4529159119683
 30
0.0
 11
320.6863535279494
 21
256.4529159119683
 31
0.0
  0
LINE
  5
89
330
1F
100
AcDbEntity
  8
VISIBLE
100
AcDbLine
 10
326.9363535279494
 20
256.2029159119683
 30
0.0
 11
326.9363535279494
 21
256.4529159119683
 31
0.0
  0
LINE
  5
8A
330
1F
100
AcDbEntity
  8
VISIBLE
100
AcDbLine
 10
320.6863535279494
 20
228.8279159119683
 30
0.0
 11
320.6863535279494
 21
256.4529159119683
 31
0.0
  0
LINE
  5
8B
330
1F
100
AcDbEntity
  8
VISIBLE
100
AcDbLine
 10
320.9363535279494
 20
228.8279159119683
 30
0.0
 11
320.9363535279494
 21
256.2029159119683
 31
0.0
  0
LINE
  5
8C
330
1F
100
AcDbEntity
  8
VISIBLE
100
AcDbLine
 10
320.9363535279494
 20
256.2029159119683
 30
0.0
 11
326.9363535279494
 21
256.2029159119683
 31
0.0
  0
LINE
  5
8F
330
1F
100
AcDbEntity
  8
VISIBLE
100
AcDbLine
 10
391.6863535279494
 20
104.5436115786803
 30
0.0
 11
391.6863535279494
 21
132.4186115786803
 31
0.0
  0
LINE
  5
90
330
1F
100
AcDbEntity
  8
VISIBLE
100
AcDbLine
 10
391.6863535279494
 20
142.4186115786803
 30
0.0
 11
391.6863535279494
 21
170.2936115786803
 31
0.0
  0
LINE
  5
91
330
1F
100
AcDbEntity
  8
VISIBLE
100
AcDbLine
 10
320.6863535279494
 20
170.2936115786803
 30
0.0
 11
391.6863535279494
 21
170.2936115786803
 31
0.0
  0
LINE
  5
92
330
1F
100
AcDbEntity
  8
VISIBLE
100
AcDbLine
 10
320.6863535279494
 20
104.5436115786803
 30
0.0
 11
391.6863535279494
 21
104.5436115786803
 31
0.0
  0
LINE
  5
93
330
1F
100
AcDbEntity
  8
VISIBLE
100
AcDbLine
 10
391.9363535279494
 20
104.2936115786803
 30
0.0
 11
391.9363535279494
 21
170.5436115786803
 31
0.0
  0
LINE
  5
94
330
1F
100
AcDbEntity
  8
VISIBLE
100
AcDbLine
 10
320.4363535279494
 20
104.2936115786803
 30
0.0
 11
391.9363535279494
 21
104.2936115786803
 31
0.0
  0
LINE
  5
95
330
1F
100
AcDbEntity
  8
VISIBLE
100
AcDbLine
 10
320.4363535279494
 20
104.2936115786803
 30
0.0
 11
320.4363535279494
 21
170.5436115786803
 31
0.0
  0
LINE
  5
96
330
1F
100
AcDbEntity
  8
VISIBLE
100
AcDbLine
 10
320.6863535279494
 20
104.5436115786803
 30
0.0
 11
320.6863535279494
 21
132.4186115786803
 31
0.0
  0
LINE
  5
97
330
1F
100
AcDbEntity
  8
VISIBLE
100
AcDbLine
 10
320.6863535279494
 20
142.4186115786803
 30
0.0
 11
320.6863535279494
 21
170.2936115786803
 31
0.0
  0
LINE
  5
98
330
1F
100
AcDbEntity
  8
VISIBLE
100
AcDbLine
 10
320.4363535279494
 20
170.5436115786803
 30
0.0
 11
391.9363535279494
 21
170.5436115786803
 31
0.0
  0
LINE
  5
99
330
1F
100
AcDbEntity
  8
VISIBLE
100
AcDbLine
 10
385.4363535279494
 20
132.4186115786803
 30
0.0
 11
385.4363535279494
 21
142.4186115786803
 31
0.0
  0
LINE
  5
9A
330
1F
100
AcDbEntity
  8
VISIBLE
100
AcDbLine
 10
391.6863535279494
 20
142.4186115786803
 30
0.0
 11
391.6863535279494
 21
132.4186115786803
 31
0.0
  0
LINE
  5
9B
330
1F
100
AcDbEntity
  8
VISIBLE
100
AcDbLine
 10
385.4363535279494
 20
132.4186115786803
 30
0.0
 11
391.6863535279494
 21
132.4186115786803
 31
0.0
  0
LINE
  5
9C
330
1F
100
AcDbEntity
  8
VISIBLE
100
AcDbLine
 10
385.4363535279494
 20
142.4186115786803
 30
0.0
 11
391.6863535279494
 21
142.4186115786803
 31
0.0
  0
LINE
  5
9D
330
1F
100
AcDbEntity
  8
VISIBLE
100
AcDbLine
 10
326.9363535279494
 20
142.4186115786803
 30
0.0
 11
326.9363535279494
 21
132.4186115786803
 31
0.0
  0
LINE
  5
9E
330
1F
100
AcDbEntity
  8
VISIBLE
100
AcDbLine
 10
320.6863535279494
 20
132.4186115786803
 30
0.0
 11
320.6863535279494
 21
142.4186115786803
 31
0.0
  0
LINE
  5
9F
330
1F
100
AcDbEntity
  8
VISIBLE
100
AcDbLine
 10
326.9363535279494
 20
142.4186115786803
 30
0.0
 11
320.6863535279494
 21
142.4186115786803
 31
0.0
  0
LINE
  5
A0
330
1F
100
AcDbEntity
  8
VISIBLE
100
AcDbLine
 10
326.9363535279494
 20
132.4186115786803
 30
0.0
 11
320.6863535279494
 21
132.4186115786803
 31
0.0
  0
LINE
  5
A3
330
1F
100
AcDbEntity
  8
VISIBLE
100
AcDbLine
 10
217.9350265988623
 20
103.3590375076615
 30
0.0
 11
229.8674535313853
 21
110.2482274092392
 31
0.0
  0
LINE
  5
A4
330
1F
100
AcDbEntity
  8
VISIBLE
100
AcDbLine
 10
237.1152980385474
 20
114.4327723864938
 30
0.0
 11
256.6491228688258
 21
125.710631410558
 31
0.0
  0
LINE
  5
A5
330
1F
100
AcDbEntity
  8
VISIBLE
100
AcDbLine
 10
256.6491228688258
 20
134.8962179459949
 30
0.0
 11
307.2072577236639
 21
105.7064651778287
 31
0.0
  0
LINE
  5
A6
330
1F
100
AcDbEntity
  8
VISIBLE
100
AcDbLine
 10
210.1568520058103
 20
107.849768702764
 30
0.0
 11
260.3614334700551
 21
78.86414007982972
 31
0.0
  0
LINE
  5
A7
330
1F
100
AcDbEntity
  8
VISIBLE
100
AcDbLine
 10
210.1568520058103
 20
107.849768702764
 30
0.0
 11
229.8674535313853
 21
119.2296897994442
 31
0.0
  0
LINE
  5
A8
330
1F
100
AcDbEntity
  8
VISIBLE
100
AcDbLine
 10
237.1152980385474
 20
123.4142347766988
 30
0.0
 11
256.6491228688258
 21
134.692093800763
 31
0.0
  0
LINE
  5
A9
330
1F
100
AcDbEntity
  8
VISIBLE
100
AcDbLine
 10
256.6491228688258
 20
134.692093800763
 30
0.0
 11
306.8537043330707
 21
105.7064651778287
 31
0.0
  0
LINE
  5
AA
330
1F
100
AcDbEntity
  8
VISIBLE
100
AcDbLine
 10
209.803298615217
 20
107.849768702764
 30
0.0
 11
229.8674535313853
 21
119.4338139446761
 31
0.0
  0
LINE
  5
AB
330
1F
100
AcDbEntity
  8
VISIBLE
100
AcDbLine
 10
237.1152980385474
 20
123.6183589219307
 30
0.0
 11
256.6491228688258
 21
134.8962179459949
 31
0.0
  0
LINE
  5
AC
330
1F
100
AcDbEntity
  8
VISIBLE
100
AcDbLine
 10
260.3614334700551
 20
78.86414007982972
 30
0.0
 11
306.8537043330707
 21
105.7064651778287
 31
0.0
  0
LINE
  5
AD
330
1F
100
AcDbEntity
  8
VISIBLE
100
AcDbLine
 10
260.3614334700551
 20
78.6600159345978
 30
0.0
 11
307.2072577236639
 21
105.7064651778287
 31
0.0
  0
LINE
  5
AE
330
1F
100
AcDbEntity
  8
VISIBLE
100
AcDbLine
 10
260.3614334700551
 20
78.6600159345978
 30
0.0
 11
260.3614334700551
 21
69.47442939916087
 31
0.0
  0
LINE
  5
AF
330
1F
100
AcDbEntity
  8
VISIBLE
100
AcDbLine
 10
256.6491228688258
 20
134.692093800763
 30
0.0
 11
256.6491228688258
 21
125.710631410558
 31
0.0
  0
LINE
  5
B0
330
1F
100
AcDbEntity
  8
VISIBLE
100
AcDbLine
 10
307.2072577236639
 20
105.7064651778287
 30
0.0
 11
307.2072577236639
 21
96.52087864239179
 31
0.0
  0
LINE
  5
B1
330
1F
100
AcDbEntity
  8
VISIBLE
100
AcDbLine
 10
209.803298615217
 20
107.849768702764
 30
0.0
 11
209.803298615217
 21
98.66418216732708
 31
0.0
  0
LINE
  5
B2
330
1F
100
AcDbEntity
  8
VISIBLE
100
AcDbLine
 10
256.6491228688258
 20
125.710631410558
 30
0.0
 11
279.8952583003335
 21
112.2894688615585
 31
0.0
  0
LINE
  5
B3
330
1F
100
AcDbEntity
  8
VISIBLE
100
AcDbLine
 10
287.1431028074957
 20
108.1049238843039
 30
0.0
 11
299.0755297400186
 21
101.2157339827262
 31
0.0
  0
LINE
  5
B4
330
1F
100
AcDbEntity
  8
VISIBLE
100
AcDbLine
 10
209.803298615217
 20
98.66418216732708
 30
0.0
 11
260.3614334700551
 21
69.47442939916087
 31
0.0
  0
LINE
  5
B5
330
1F
100
AcDbEntity
  8
VISIBLE
100
AcDbLine
 10
260.3614334700551
 20
69.47442939916087
 30
0.0
 11
307.2072577236639
 21
96.52087864239179
 31
0.0
  0
LINE
  5
B6
330
1F
100
AcDbEntity
  8
VISIBLE
100
AcDbLine
 10
209.803298615217
 20
107.849768702764
 30
0.0
 11
260.3614334700551
 21
78.6600159345978
 31
0.0
  0
LINE
  5
B7
330
1F
100
AcDbEntity
  8
VISIBLE
100
AcDbLine
 10
275.6526176132143
 20
115.3513310400375
 30
0.0
 11
282.7236854250797
 21
119.4338139446761
 31
0.0
  0
LINE
  5
B8
330
1F
100
AcDbEntity
  8
VISIBLE
100
AcDbLine
 10
275.6526176132143
 20
115.3513310400375
 30
0.0
 11
280.0720349956301
 21
112.7997792246383
 31
0.0
  0
LINE
  5
B9
330
1F
100
AcDbEntity
  8
VISIBLE
100
AcDbLine
 10
275.6526176132143
 20
115.1472068948055
 30
0.0
 11
275.6526176132143
 21
115.3513310400375
 31
0.0
  0
LINE
  5
BA
330
1F
100
AcDbEntity
  8
VISIBLE
100
AcDbLine
 10
279.8952583003335
 20
112.6977171520224
 30
0.0
 11
275.6526176132143
 21
115.1472068948055
 31
0.0
  0
LINE
  5
BB
330
1F
100
AcDbEntity
  8
VISIBLE
100
AcDbLine
 10
279.8952583003335
 20
90.14199910389394
 30
0.0
 11
279.8952583003335
 21
112.6977171520224
 31
0.0
  0
LINE
  5
BC
330
1F
100
AcDbEntity
  8
VISIBLE
100
AcDbLine
 10
287.1431028074957
 20
94.32654408114854
 30
0.0
 11
287.1431028074957
 21
116.882262129277
 31
0.0
  0
LINE
  5
BD
330
1F
100
AcDbEntity
  8
VISIBLE
100
AcDbLine
 10
287.1431028074957
 20
116.882262129277
 30
0.0
 11
280.0720349956301
 21
112.7997792246383
 31
0.0
  0
LINE
  5
BE
330
1F
100
AcDbEntity
  8
VISIBLE
100
AcDbLine
 10
282.7236854250797
 20
119.4338139446761
 30
0.0
 11
287.1431028074957
 21
116.882262129277
 31
0.0
  0
LINE
  5
BF
330
1F
100
AcDbEntity
  8
VISIBLE
100
AcDbLine
 10
280.0720349956301
 20
90.2440611765099
 30
0.0
 11
280.0720349956301
 21
112.7997792246383
 31
0.0
  0
LINE
  5
C0
330
1F
100
AcDbEntity
  8
VISIBLE
100
AcDbLine
 10
237.1152980385474
 20
114.2286482412619
 30
0.0
 11
237.1152980385474
 21
140.662725048797
 31
0.0
  0
LINE
  5
C1
330
1F
100
AcDbEntity
  8
VISIBLE
100
AcDbLine
 10
230.0442302266819
 20
110.1461653366232
 30
0.0
 11
229.8674535313853
 21
110.2482274092392
 31
0.0
  0
LINE
  5
C2
330
1F
100
AcDbEntity
  8
VISIBLE
100
AcDbLine
 10
230.0442302266819
 20
141.4792216297247
 30
0.0
 11
234.2868709138012
 21
139.0297318869415
 31
0.0
  0
LINE
  5
C3
330
1F
100
AcDbEntity
  8
VISIBLE
100
AcDbLine
 10
234.2868709138012
 20
139.0297318869415
 30
0.0
 11
234.2868709138012
 21
139.2338560321735
 31
0.0
  0
LINE
  5
C4
330
1F
100
AcDbEntity
  8
VISIBLE
100
AcDbLine
 10
241.3579387256667
 20
143.1122147915802
 30
0.0
 11
234.2868709138012
 21
139.0297318869415
 31
0.0
  0
LINE
  5
C5
330
1F
100
AcDbEntity
  8
VISIBLE
100
AcDbLine
 10
229.8674535313853
 20
110.2482274092392
 30
0.0
 11
229.8674535313853
 21
141.7854078475726
 31
0.0
  0
LINE
  5
C6
330
1F
100
AcDbEntity
  8
VISIBLE
100
AcDbLine
 10
229.8674535313853
 20
141.7854078475726
 30
0.0
 11
236.9385213432508
 21
145.8678907522112
 31
0.0
  0
LINE
  5
C7
330
1F
100
AcDbEntity
  8
VISIBLE
100
AcDbLine
 10
234.2868709138012
 20
139.2338560321735
 30
0.0
 11
229.8674535313853
 21
141.7854078475726
 31
0.0
  0
LINE
  5
C8
330
1F
100
AcDbEntity
  8
VISIBLE
100
AcDbLine
 10
230.0442302266819
 20
110.1461653366232
 30
0.0
 11
230.0442302266819
 21
141.4792216297247
 31
0.0
  0
LINE
  5
C9
330
1F
100
AcDbEntity
  8
VISIBLE
100
AcDbLine
 10
241.3579387256667
 20
143.3163389368121
 30
0.0
 11
234.2868709138012
 21
139.2338560321735
 31
0.0
  0
LINE
  5
CA
330
1F
100
AcDbEntity
  8
VISIBLE
100
AcDbLine
 10
230.0442302266819
 20
110.1461653366232
 30
0.0
 11
237.1152980385474
 21
114.2286482412619
 31
0.0
  0
LINE
  5
CB
330
1F
100
AcDbEntity
  8
VISIBLE
100
AcDbLine
 10
241.3579387256667
 20
143.1122147915802
 30
0.0
 11
241.3579387256667
 21
143.3163389368121
 31
0.0
  0
LINE
  5
CC
330
1F
100
AcDbEntity
  8
VISIBLE
100
AcDbLine
 10
241.3579387256667
 20
143.3163389368121
 30
0.0
 11
236.9385213432508
 21
145.8678907522112
 31
0.0
  0
LINE
  5
CF
330
1F
100
AcDbEntity
  8
VISIBLE
100
AcDbLine
 10
25.51088831166711
 20
132.4056551855577
 30
0.0
 11
53.01088831166711
 21
132.4056551855577
 31
0.0
  0
LINE
  5
D0
330
1F
100
AcDbEntity
  8
VISIBLE
100
AcDbLine
 10
53.01088831166711
 20
143.6556551855577
 30
0.0
 11
53.01088831166711
 21
132.4056551855577
 31
0.0
  0
LINE
  5
D1
330
1F
100
AcDbEntity
  8
VISIBLE
100
AcDbLine
 10
25.51088831166711
 20
143.6556551855577
 30
0.0
 11
25.51088831166711
 21
132.4056551855577
 31
0.0
  0
LINE
  5
D2
330
1F
100
AcDbEntity
  8
VISIBLE
100
AcDbLine
 10
25.51088831166711
 20
143.6556551855577
 30
0.0
 11
53.01088831166711
 21
143.6556551855577
 31
0.0
  0
LINE
  5
D3
330
1F
100
AcDbEntity
  8
VISIBLE
100
AcDbLine
 10
34.2608883116671
 20
143.6556551855577
 30
0.0
 11
34.26088831166712
 21
171.2806551855577
 31
0.0
  0
LINE
  5
D4
330
1F
100
AcDbEntity
  8
VISIBLE
100
AcDbLine
 10
44.26088831166712
 20
143.6556551855577
 30
0.0
 11
44.26088831166712
 21
171.2806551855577
 31
0.0
  0
LINE
  5
D5
330
1F
100
AcDbEntity
  8
VISIBLE
100
AcDbLine
 10
44.26088831166712
 20
171.2806551855577
 30
0.0
 11
34.26088831166712
 21
171.2806551855577
 31
0.0
  0
LINE
  5
D8
330
1F
100
AcDbEntity
  8
VISIBLE
100
AcDbLine
 10
74.72759342184298
 20
143.6556551855577
 30
0.0
 11
146.227593421843
 21
143.6556551855577
 31
0.0
  0
LINE
  5
D9
330
1F
100
AcDbEntity
  8
VISIBLE
100
AcDbLine
 10
74.72759342184298
 20
143.6556551855577
 30
0.0
 11
74.72759342184298
 21
132.4056551855577
 31
0.0
  0
LINE
  5
DA
330
1F
100
AcDbEntity
  8
VISIBLE
100
AcDbLine
 10
146.227593421843
 20
143.6556551855577
 30
0.0
 11
146.227593421843
 21
132.4056551855577
 31
0.0
  0
LINE
  5
DB
330
1F
100
AcDbEntity
  8
VISIBLE
100
AcDbLine
 10
74.72759342184298
 20
132.4056551855577
 30
0.0
 11
146.227593421843
 21
132.4056551855577
 31
0.0
  0
LINE
  5
DC
330
1F
100
AcDbEntity
  8
VISIBLE
100
AcDbLine
 10
145.727593421843
 20
171.0306551855577
 30
0.0
 11
139.727593421843
 21
171.0306551855577
 31
0.0
  0
LINE
  5
DD
330
1F
100
AcDbEntity
  8
VISIBLE
100
AcDbLine
 10
139.727593421843
 20
171.0306551855577
 30
0.0
 11
139.727593421843
 21
171.2806551855577
 31
0.0
  0
LINE
  5
DE
330
1F
100
AcDbEntity
  8
VISIBLE
100
AcDbLine
 10
139.727593421843
 20
171.2806551855577
 30
0.0
 11
145.977593421843
 21
171.2806551855577
 31
0.0
  0
LINE
  5
DF
330
1F
100
AcDbEntity
  8
VISIBLE
100
AcDbLine
 10
145.727593421843
 20
143.6556551855577
 30
0.0
 11
145.727593421843
 21
171.0306551855577
 31
0.0
  0
LINE
  5
E0
330
1F
100
AcDbEntity
  8
VISIBLE
100
AcDbLine
 10
145.977593421843
 20
143.6556551855577
 30
0.0
 11
145.977593421843
 21
171.2806551855577
 31
0.0
  0
LINE
  5
E1
330
1F
100
AcDbEntity
  8
VISIBLE
100
AcDbLine
 10
81.22759342184298
 20
171.2806551855577
 30
0.0
 11
74.97759342184298
 21
171.2806551855577
 31
0.0
  0
LINE
  5
E2
330
1F
100
AcDbEntity
  8
VISIBLE
100
AcDbLine
 10
81.22759342184298
 20
171.0306551855577
 30
0.0
 11
81.22759342184298
 21
171.2806551855577
 31
0.0
  0
LINE
  5
E3
330
1F
100
AcDbEntity
  8
VISIBLE
100
AcDbLine
 10
74.97759342184298
 20
143.6556551855577
 30
0.0
 11
74.97759342184298
 21
171.2806551855577
 31
0.0
  0
LINE
  5
E4
330
1F
100
AcDbEntity
  8
VISIBLE
100
AcDbLine
 10
75.22759342184298
 20
143.6556551855577
 30
0.0
 11
75.22759342184298
 21
171.0306551855577
 31
0.0
  0
LINE
  5
E5
330
1F
100
AcDbEntity
  8
VISIBLE
100
AcDbLine
 10
75.22759342184298
 20
171.0306551855577
 30
0.0
 11
81.22759342184298
 21
171.0306551855577
 31
0.0
  0
LINE
  5
E8
330
1F
100
AcDbEntity
  8
VISIBLE
100
AcDbLine
 10
145.977593421843
 20
63.85629524889428
 30
0.0
 11
145.977593421843
 21
72.35629524889427
 31
0.0
  0
LINE
  5
E9
330
1F
100
AcDbEntity
  8
VISIBLE
100
AcDbLine
 10
145.977593421843
 20
82.35629524889427
 30
0.0
 11
145.977593421843
 21
90.85629524889427
 31
0.0
  0
LINE
  5
EA
330
1F
100
AcDbEntity
  8
VISIBLE
100
AcDbLine
 10
74.97759342184295
 20
90.85629524889426
 30
0.0
 11
145.977593421843
 21
90.85629524889427
 31
0.0
  0
LINE
  5
EB
330
1F
100
AcDbEntity
  8
VISIBLE
100
AcDbLine
 10
74.97759342184295
 20
63.85629524889426
 30
0.0
 11
145.977593421843
 21
63.85629524889428
 31
0.0
  0
LINE
  5
EC
330
1F
100
AcDbEntity
  8
VISIBLE
100
AcDbLine
 10
146.227593421843
 20
63.60629524889428
 30
0.0
 11
146.227593421843
 21
91.10629524889427
 31
0.0
  0
LINE
  5
ED
330
1F
100
AcDbEntity
  8
VISIBLE
100
AcDbLine
 10
74.72759342184295
 20
63.60629524889426
 30
0.0
 11
146.227593421843
 21
63.60629524889428
 31
0.0
  0
LINE
  5
EE
330
1F
100
AcDbEntity
  8
VISIBLE
100
AcDbLine
 10
74.72759342184295
 20
63.60629524889426
 30
0.0
 11
74.72759342184295
 21
91.10629524889426
 31
0.0
  0
LINE
  5
EF
330
1F
100
AcDbEntity
  8
VISIBLE
100
AcDbLine
 10
74.97759342184295
 20
63.85629524889426
 30
0.0
 11
74.97759342184295
 21
72.35629524889426
 31
0.0
  0
LINE
  5
F0
330
1F
100
AcDbEntity
  8
VISIBLE
100
AcDbLine
 10
74.97759342184295
 20
82.35629524889426
 30
0.0
 11
74.97759342184295
 21
90.85629524889426
 31
0.0
  0
LINE
  5
F1
330
1F
100
AcDbEntity
  8
VISIBLE
100
AcDbLine
 10
74.72759342184295
 20
91.10629524889426
 30
0.0
 11
146.227593421843
 21
91.10629524889427
 31
0.0
  0
LINE
  5
F2
330
1F
100
AcDbEntity
  8
VISIBLE
100
AcDbLine
 10
139.727593421843
 20
72.35629524889427
 30
0.0
 11
139.727593421843
 21
82.35629524889427
 31
0.0
  0
LINE
  5
F3
330
1F
100
AcDbEntity
  8
VISIBLE
100
AcDbLine
 10
145.977593421843
 20
82.35629524889427
 30
0.0
 11
145.977593421843
 21
72.35629524889427
 31
0.0
  0
LINE
  5
F4
330
1F
100
AcDbEntity
  8
VISIBLE
100
AcDbLine
 10
139.727593421843
 20
72.35629524889427
 30
0.0
 11
145.977593421843
 21
72.35629524889427
 31
0.0
  0
LINE
  5
F5
330
1F
100
AcDbEntity
  8
VISIBLE
100
AcDbLine
 10
139.727593421843
 20
82.35629524889427
 30
0.0
 11
145.977593421843
 21
82.35629524889427
 31
0.0
  0
LINE
  5
F6
330
1F
100
AcDbEntity
  8
VISIBLE
100
AcDbLine
 10
81.22759342184295
 20
82.35629524889426
 30
0.0
 11
81.22759342184295
 21
72.35629524889426
 31
0.0
  0
LINE
  5
F7
330
1F
100
AcDbEntity
  8
VISIBLE
100
AcDbLine
 10
74.97759342184295
 20
72.35629524889426
 30
0.0
 11
74.97759342184295
 21
82.35629524889426
 31
0.0
  0
LINE
  5
F8
330
1F
100
AcDbEntity
  8
VISIBLE
100
AcDbLine
 10
81.22759342184295
 20
82.35629524889426
 30
0.0
 11
74.97759342184295
 21
82.35629524889426
 31
0.0
  0
LINE
  5
F9
330
1F
100
AcDbEntity
  8
VISIBLE
100
AcDbLine
 10
81.22759342184295
 20
72.35629524889426
 30
0.0
 11
74.97759342184295
 21
72.35629524889426
 31
0.0
  0
LINE
  5
FC
330
1F
100
AcDbEntity
  8
VISIBLE
100
AcDbLine
 10
34.38708984924941
 20
240.9056594919626
 30
0.0
 11
40.22072079403843
 21
244.2737078882894
 31
0.0
  0
LINE
  5
FD
330
1F
100
AcDbEntity
  8
VISIBLE
100
AcDbLine
 10
20.77528431140836
 20
242.2324664359701
 30
0.0
 11
20.77528431140836
 21
233.0468799005332
 31
0.0
  0
LINE
  5
FE
330
1F
100
AcDbEntity
  8
VISIBLE
100
AcDbLine
 10
40.22072079403843
 20
244.2737078882894
 30
0.0
 11
77.16705011103554
 21
222.9427347115526
 31
0.0
  0
LINE
  5
FF
330
1F
100
AcDbEntity
  8
VISIBLE
100
AcDbLine
 10
20.77528431140836
 20
233.0468799005332
 30
0.0
 11
71.3334191662465
 21
203.857127132367
 31
0.0
  0
LINE
  5
100
330
1F
100
AcDbEntity
  8
VISIBLE
100
AcDbLine
 10
71.3334191662465
 20
203.857127132367
 30
0.0
 11
90.77885564887657
 21
215.0839551201232
 31
0.0
  0
LINE
  5
101
330
1F
100
AcDbEntity
  8
VISIBLE
100
AcDbLine
 10
40.22072079403843
 20
253.2551702784944
 30
0.0
 11
40.22072079403843
 21
244.2737078882894
 31
0.0
  0
LINE
  5
102
330
1F
100
AcDbEntity
  8
VISIBLE
100
AcDbLine
 10
90.77885564887657
 20
224.2695416555601
 30
0.0
 11
90.77885564887657
 21
215.0839551201232
 31
0.0
  0
LINE
  5
103
330
1F
100
AcDbEntity
  8
VISIBLE
100
AcDbLine
 10
20.77528431140836
 20
242.2324664359701
 30
0.0
 11
71.3334191662465
 21
213.0427136678039
 31
0.0
  0
LINE
  5
104
330
1F
100
AcDbEntity
  8
VISIBLE
100
AcDbLine
 10
40.22072079403843
 20
253.2551702784944
 30
0.0
 11
77.16705011103554
 21
231.9241971017576
 31
0.0
  0
LINE
  5
105
330
1F
100
AcDbEntity
  8
VISIBLE
100
AcDbLine
 10
84.41489461819765
 20
227.739652124503
 30
0.0
 11
90.4253022582833
 21
224.2695416555601
 31
0.0
  0
LINE
  5
106
330
1F
100
AcDbEntity
  8
VISIBLE
100
AcDbLine
 10
21.12883770200163
 20
242.2324664359701
 30
0.0
 11
27.13924534208729
 21
245.702576904913
 31
0.0
  0
LINE
  5
107
330
1F
100
AcDbEntity
  8
VISIBLE
100
AcDbLine
 10
34.38708984924941
 20
249.8871218821675
 30
0.0
 11
40.22072079403843
 21
253.2551702784944
 31
0.0
  0
LINE
  5
108
330
1F
100
AcDbEntity
  8
VISIBLE
100
AcDbLine
 10
40.22072079403843
 20
253.4592944237264
 30
0.0
 11
77.16705011103554
 21
232.1283212469895
 31
0.0
  0
LINE
  5
109
330
1F
100
AcDbEntity
  8
VISIBLE
100
AcDbLine
 10
84.41489461819765
 20
227.9437762697349
 30
0.0
 11
90.77885564887657
 21
224.2695416555601
 31
0.0
  0
LINE
  5
10A
330
1F
100
AcDbEntity
  8
VISIBLE
100
AcDbLine
 10
20.77528431140836
 20
242.2324664359701
 30
0.0
 11
27.13924534208729
 21
245.9067010501449
 31
0.0
  0
LINE
  5
10B
330
1F
100
AcDbEntity
  8
VISIBLE
100
AcDbLine
 10
34.38708984924941
 20
250.0912460273995
 30
0.0
 11
40.22072079403843
 21
253.4592944237264
 31
0.0
  0
LINE
  5
10C
330
1F
100
AcDbEntity
  8
VISIBLE
100
AcDbLine
 10
71.3334191662465
 20
213.2468378130359
 30
0.0
 11
90.4253022582833
 21
224.2695416555601
 31
0.0
  0
LINE
  5
10D
330
1F
100
AcDbEntity
  8
VISIBLE
100
AcDbLine
 10
21.12883770200163
 20
242.2324664359701
 30
0.0
 11
71.3334191662465
 21
213.2468378130359
 31
0.0
  0
LINE
  5
10E
330
1F
100
AcDbEntity
  8
VISIBLE
100
AcDbLine
 10
71.3334191662465
 20
213.0427136678039
 30
0.0
 11
71.3334191662465
 21
203.857127132367
 31
0.0
  0
LINE
  5
10F
330
1F
100
AcDbEntity
  8
VISIBLE
100
AcDbLine
 10
71.3334191662465
 20
213.0427136678039
 30
0.0
 11
90.77885564887657
 21
224.2695416555601
 31
0.0
  0
LINE
  5
110
330
1F
100
AcDbEntity
  8
VISIBLE
100
AcDbLine
 10
72.92440942391625
 20
241.8242181455063
 30
0.0
 11
79.99547723578172
 21
245.9067010501449
 31
0.0
  0
LINE
  5
111
330
1F
100
AcDbEntity
  8
VISIBLE
100
AcDbLine
 10
72.92440942391625
 20
241.8242181455063
 30
0.0
 11
77.34382680633216
 21
239.2726663301071
 31
0.0
  0
LINE
  5
112
330
1F
100
AcDbEntity
  8
VISIBLE
100
AcDbLine
 10
72.92440942391625
 20
241.6200940002743
 30
0.0
 11
72.92440942391625
 21
241.8242181455063
 31
0.0
  0
LINE
  5
113
330
1F
100
AcDbEntity
  8
VISIBLE
100
AcDbLine
 10
77.16705011103552
 20
239.1706042574911
 30
0.0
 11
72.92440942391625
 21
241.6200940002743
 31
0.0
  0
LINE
  5
114
330
1F
100
AcDbEntity
  8
VISIBLE
100
AcDbLine
 10
77.16705011103552
 20
216.6148862093627
 30
0.0
 11
77.16705011103552
 21
239.1706042574911
 31
0.0
  0
LINE
  5
115
330
1F
100
AcDbEntity
  8
VISIBLE
100
AcDbLine
 10
84.41489461819765
 20
220.7994311866173
 30
0.0
 11
84.41489461819765
 21
243.3551492347457
 31
0.0
  0
LINE
  5
116
330
1F
100
AcDbEntity
  8
VISIBLE
100
AcDbLine
 10
84.41489461819765
 20
243.3551492347457
 30
0.0
 11
77.34382680633216
 21
239.2726663301071
 31
0.0
  0
LINE
  5
117
330
1F
100
AcDbEntity
  8
VISIBLE
100
AcDbLine
 10
79.99547723578172
 20
245.9067010501449
 30
0.0
 11
84.41489461819765
 21
243.3551492347457
 31
0.0
  0
LINE
  5
118
330
1F
100
AcDbEntity
  8
VISIBLE
100
AcDbLine
 10
77.34382680633216
 20
216.7169482819787
 30
0.0
 11
77.34382680633216
 21
239.2726663301071
 31
0.0
  0
LINE
  5
119
330
1F
100
AcDbEntity
  8
VISIBLE
100
AcDbLine
 10
34.38708984924941
 20
240.7015353467307
 30
0.0
 11
34.38708984924941
 21
267.1356121542658
 31
0.0
  0
LINE
  5
11A
330
1F
100
AcDbEntity
  8
VISIBLE
100
AcDbLine
 10
38.6297305363687
 20
269.585101897049
 30
0.0
 11
31.55866272450321
 21
265.5026189924103
 31
0.0
  0
LINE
  5
11B
330
1F
100
AcDbEntity
  8
VISIBLE
100
AcDbLine
 10
27.31602203738392
 20
267.9521087351935
 30
0.0
 11
31.55866272450321
 21
265.5026189924103
 31
0.0
  0
LINE
  5
11C
330
1F
100
AcDbEntity
  8
VISIBLE
100
AcDbLine
 10
31.55866272450321
 20
265.5026189924103
 30
0.0
 11
31.55866272450321
 21
265.7067431376423
 31
0.0
  0
LINE
  5
11D
330
1F
100
AcDbEntity
  8
VISIBLE
100
AcDbLine
 10
27.13924534208729
 20
238.7623559670273
 30
0.0
 11
27.13924534208729
 21
268.2582949530414
 31
0.0
  0
LINE
  5
11E
330
1F
100
AcDbEntity
  8
VISIBLE
100
AcDbLine
 10
27.13924534208729
 20
268.2582949530414
 30
0.0
 11
34.21031315395277
 21
272.34077785768
 31
0.0
  0
LINE
  5
11F
330
1F
100
AcDbEntity
  8
VISIBLE
100
AcDbLine
 10
31.55866272450321
 20
265.7067431376423
 30
0.0
 11
27.13924534208729
 21
268.2582949530414
 31
0.0
  0
LINE
  5
120
330
1F
100
AcDbEntity
  8
VISIBLE
100
AcDbLine
 10
27.31602203738392
 20
238.6602938944113
 30
0.0
 11
27.31602203738392
 21
267.9521087351935
 31
0.0
  0
LINE
  5
121
330
1F
100
AcDbEntity
  8
VISIBLE
100
AcDbLine
 10
38.6297305363687
 20
269.7892260422809
 30
0.0
 11
31.55866272450321
 21
265.7067431376423
 31
0.0
  0
LINE
  5
122
330
1F
100
AcDbEntity
  8
VISIBLE
100
AcDbLine
 10
29.0837889903503
 20
237.6396731682517
 30
0.0
 11
34.38708984924941
 21
240.7015353467307
 31
0.0
  0
LINE
  5
123
330
1F
100
AcDbEntity
  8
VISIBLE
100
AcDbLine
 10
38.6297305363687
 20
269.585101897049
 30
0.0
 11
38.6297305363687
 21
269.7892260422809
 31
0.0
  0
LINE
  5
124
330
1F
100
AcDbEntity
  8
VISIBLE
100
AcDbLine
 10
38.6297305363687
 20
269.7892260422809
 30
0.0
 11
34.21031315395277
 21
272.34077785768
 31
0.0
  0
LINE
  5
125
330
1F
100
AcDbEntity
  8
BORDER_FRAME
100
AcDbLine
 10
10.5
 20
10.0
 30
0.0
 11
10.5
 21
287.0
 31
0.0
  0
LINE
  5
128
330
1F
100
AcDbEntity
  8
BORDER_FRAME
100
AcDbLine
 10
10.5
 20
287.0
 30
0.0
 11
410.5
 21
287.0
 31
0.0
  0
LINE
  5
129
330
1F
100
AcDbEntity
  8
BORDER_FRAME
100
AcDbLine
 10
410.5
 20
287.0
 30
0.0
 11
410.5
 21
10.0
 31
0.0
  0
LINE
  5
12A
330
1F
100
AcDbEntity
  8
BORDER_FRAME
100
AcDbLine
 10
410.5
 20
10.0
 30
0.0
 11
10.5
 21
10.0
 31
0.0
  0
LINE
  5
12B
330
1F
100
AcDbEntity
  8
BORDER_ZONES
100
AcDbLine
 10
70.5
 20
10.0
 30
0.0
 11
70.5
 21
0.5
 31
0.0
  0
LINE
  5
12D
330
1F
100
AcDbEntity
  8
BORDER_ZONES
100
AcDbLine
 10
70.5
 20
287.0
 30
0.0
 11
70.5
 21
296.5
 31
0.0
  0
MTEXT
  5
12E
330
1F
100
AcDbEntity
  8
BORDER_ZONES
100
AcDbMText
 10
35.5
 20
5.0
 30
0.0
 40
6.0
 41
0.0
 71
     5
 72
     1
  1
6
  7
ONSHAPE-STANDARD
  0
MTEXT
  5
130
330
1F
100
AcDbEntity
  8
BORDER_ZONES
100
AcDbMText
 10
35.5
 20
292.0
 30
0.0
 40
6.0
 41
0.0
 71
     5
 72
     1
  1
6
  7
ONSHAPE-STANDARD
  0
MTEXT
  5
131
330
1F
100
AcDbEntity
  8
BORDER_ZONES
100
AcDbMText
 10
105.5
 20
5.0
 30
0.0
 40
6.0
 41
0.0
 71
     5
 72
     1
  1
5
  7
ONSHAPE-STANDARD
  0
MTEXT
  5
132
330
1F
100
AcDbEntity
  8
BORDER_ZONES
100
AcDbMText
 10
105.5
 20
292.0
 30
0.0
 40
6.0
 41
0.0
 71
     5
 72
     1
  1
5
  7
ONSHAPE-STANDARD
  0
LINE
  5
133
330
1F
100
AcDbEntity
  8
BORDER_ZONES
100
AcDbLine
 10
140.5
 20
10.0
 30
0.0
 11
140.5
 21
0.5
 31
0.0
  0
LINE
  5
134
330
1F
100
AcDbEntity
  8
BORDER_ZONES
100
AcDbLine
 10
140.5
 20
287.0
 30
0.0
 11
140.5
 21
296.5
 31
0.0
  0
MTEXT
  5
135
330
1F
100
AcDbEntity
  8
BORDER_ZONES
100
AcDbMText
 10
175.5
 20
5.0
 30
0.0
 40
6.0
 41
0.0
 71
     5
 72
     1
  1
4
  7
ONSHAPE-STANDARD
  0
MTEXT
  5
136
330
1F
100
AcDbEntity
  8
BORDER_ZONES
100
AcDbMText
 10
175.5
 20
292.0
 30
0.0
 40
6.0
 41
0.0
 71
     5
 72
     1
  1
4
  7
ONSHAPE-STANDARD
  0
LINE
  5
137
330
1F
100
AcDbEntity
  8
BORDER_ZONES
100
AcDbLine
 10
210.5
 20
10.0
 30
0.0
 11
210.5
 21
0.5
 31
0.0
  0
LINE
  5
138
330
1F
100
AcDbEntity
  8
BORDER_ZONES
100
AcDbLine
 10
210.5
 20
287.0
 30
0.0
 11
210.5
 21
296.5
 31
0.0
  0
MTEXT
  5
139
330
1F
100
AcDbEntity
  8
BORDER_ZONES
100
AcDbMText
 10
245.5
 20
5.0
 30
0.0
 40
6.0
 41
0.0
 71
     5
 72
     1
  1
3
  7
ONSHAPE-STANDARD
  0
MTEXT
  5
13A
330
1F
100
AcDbEntity
  8
BORDER_ZONES
100
AcDbMText
 10
245.5
 20
292.0
 30
0.0
 40
6.0
 41
0.0
 71
     5
 72
     1
  1
3
  7
ONSHAPE-STANDARD
  0
LINE
  5
13B
330
1F
100
AcDbEntity
  8
BORDER_ZONES
100
AcDbLine
 10
280.5
 20
10.0
 30
0.0
 11
280.5
 21
0.5
 31
0.0
  0
LINE
  5
13C
330
1F
100
AcDbEntity
  8
BORDER_ZONES
100
AcDbLine
 10
280.5
 20
287.0
 30
0.0
 11
280.5
 21
296.5
 31
0.0
  0
MTEXT
  5
13D
330
1F
100
AcDbEntity
  8
BORDER_ZONES
100
AcDbMText
 10
315.5
 20
5.0
 30
0.0
 40
6.0
 41
0.0
 71
     5
 72
     1
  1
2
  7
ONSHAPE-STANDARD
  0
MTEXT
  5
13E
330
1F
100
AcDbEntity
  8
BORDER_ZONES
100
AcDbMText
 10
315.5
 20
292.0
 30
0.0
 40
6.0
 41
0.0
 71
     5
 72
     1
  1
2
  7
ONSHAPE-STANDARD
  0
LINE
  5
13F
330
1F
100
AcDbEntity
  8
BORDER_ZONES
100
AcDbLine
 10
350.5
 20
10.0
 30
0.0
 11
350.5
 21
0.5
 31
0.0
  0
LINE
  5
140
330
1F
100
AcDbEntity
  8
BORDER_ZONES
100
AcDbLine
 10
350.5
 20
287.0
 30
0.0
 11
350.5
 21
296.5
 31
0.0
  0
MTEXT
  5
141
330
1F
100
AcDbEntity
  8
BORDER_ZONES
100
AcDbMText
 10
385.5
 20
5.0
 30
0.0
 40
6.0
 41
0.0
 71
     5
 72
     1
  1
1
  7
ONSHAPE-STANDARD
  0
MTEXT
  5
142
330
1F
100
AcDbEntity
  8
BORDER_ZONES
100
AcDbMText
 10
385.5
 20
292.0
 30
0.0
 40
6.0
 41
0.0
 71
     5
 72
     1
  1
1
  7
ONSHAPE-STANDARD
  0
LINE
  5
143
330
1F
100
AcDbEntity
  8
BORDER_ZONES
100
AcDbLine
 10
10.5
 20
74.5
 30
0.0
 11
1.0
 21
74.5
 31
0.0
  0
LINE
  5
144
330
1F
100
AcDbEntity
  8
BORDER_ZONES
100
AcDbLine
 10
410.5
 20
74.5
 30
0.0
 11
420.0
 21
74.5
 31
0.0
  0
MTEXT
  5
145
330
1F
100
AcDbEntity
  8
BORDER_ZONES
100
AcDbMText
 10
5.5
 20
37.5
 30
0.0
 40
6.0
 41
0.0
 71
     5
 72
     1
  1
A
  7
ONSHAPE-STANDARD
  0
MTEXT
  5
146
330
1F
100
AcDbEntity
  8
BORDER_ZONES
100
AcDbMText
 10
415.5
 20
37.5
 30
0.0
 40
6.0
 41
0.0
 71
     5
 72
     1
  1
A
  7
ONSHAPE-STANDARD
  0
MTEXT
  5
147
330
1F
100
AcDbEntity
  8
BORDER_ZONES
100
AcDbMText
 10
5.5
 20
111.5
 30
0.0
 40
6.0
 41
0.0
 71
     5
 72
     1
  1
B
  7
ONSHAPE-STANDARD
  0
MTEXT
  5
148
330
1F
100
AcDbEntity
  8
BORDER_ZONES
100
AcDbMText
 10
415.5
 20
111.5
 30
0.0
 40
6.0
 41
0.0
 71
     5
 72
     1
  1
B
  7
ONSHAPE-STANDARD
  0
LINE
  5
149
330
1F
100
AcDbEntity
  8
BORDER_ZONES
100
AcDbLine
 10
10.5
 20
148.5
 30
0.0
 11
1.0
 21
148.5
 31
0.0
  0
LINE
  5
14A
330
1F
100
AcDbEntity
  8
BORDER_ZONES
100
AcDbLine
 10
410.5
 20
148.5
 30
0.0
 11
420.0
 21
148.5
 31
0.0
  0
MTEXT
  5
14B
330
1F
100
AcDbEntity
  8
BORDER_ZONES
100
AcDbMText
 10
5.5
 20
185.5
 30
0.0
 40
6.0
 41
0.0
 71
     5
 72
     1
  1
C
  7
ONSHAPE-STANDARD
  0
MTEXT
  5
14C
330
1F
100
AcDbEntity
  8
BORDER_ZONES
100
AcDbMText
 10
415.5
 20
185.5
 30
0.0
 40
6.0
 41
0.0
 71
     5
 72
     1
  1
C
  7
ONSHAPE-STANDARD
  0
LINE
  5
14D
330
1F
100
AcDbEntity
  8
BORDER_ZONES
100
AcDbLine
 10
10.5
 20
222.5
 30
0.0
 11
1.0
 21
222.5
 31
0.0
  0
LINE
  5
14E
330
1F
100
AcDbEntity
  8
BORDER_ZONES
100
AcDbLine
 10
410.5
 20
222.5
 30
0.0
 11
420.0
 21
222.5
 31
0.0
  0
MTEXT
  5
14F
330
1F
100
AcDbEntity
  8
BORDER_ZONES
100
AcDbMText
 10
5.5
 20
259.5
 30
0.0
 40
6.0
 41
0.0
 71
     5
 72
     1
  1
D
  7
ONSHAPE-STANDARD
  0
MTEXT
  5
150
330
1F
100
AcDbEntity
  8
BORDER_ZONES
100
AcDbMText
 10
415.5
 20
259.5
 30
0.0
 40
6.0
 41
0.0
 71
     5
 72
     1
  1
D
  7
ONSHAPE-STANDARD
  0
LINE
  5
151
330
1F
100
AcDbEntity
  8
TITLE_BLOCK
100
AcDbLine
 10
194.6
 20
10.0
 30
0.0
 11
194.6
 21
60.8
 31
0.0
  0
LINE
  5
153
330
1F
100
AcDbEntity
  8
TITLE_BLOCK
100
AcDbLine
 10
194.6
 20
10.0
 30
0.0
 11
235.24
 21
10.0
 31
0.0
  0
LINE
  5
154
330
1F
100
AcDbEntity
  8
TITLE_BLOCK
100
AcDbLine
 10
194.6
 20
20.16
 30
0.0
 11
235.24
 21
20.16
 31
0.0
  0
LINE
  5
155
330
1F
100
AcDbEntity
  8
TITLE_BLOCK
100
AcDbLine
 10
194.6
 20
24.224
 30
0.0
 11
235.24
 21
24.224
 31
0.0
  0
LINE
  5
156
330
1F
100
AcDbEntity
  8
TITLE_BLOCK
100
AcDbLine
 10
194.6
 20
31.1328
 30
0.0
 11
235.24
 21
31.1328
 31
0.0
  0
LINE
  5
157
330
1F
100
AcDbEntity
  8
TITLE_BLOCK
100
AcDbLine
 10
194.6
 20
37.0256
 30
0.0
 11
235.24
 21
37.0256
 31
0.0
  0
LINE
  5
158
330
1F
100
AcDbEntity
  8
TITLE_BLOCK
100
AcDbLine
 10
194.6
 20
60.8
 30
0.0
 11
235.24
 21
60.8
 31
0.0
  0
MTEXT
  5
159
330
1F
100
AcDbEntity
  8
TITLE_BLOCK
100
AcDbMText
 10
195.49408
 20
59.33696
 30
0.0
 40
1.6256
 41
40.64000000000001
 71
     1
 72
     1
  1
UNLESS OTHERWISE SPECIFIED, DIMENSIONS ARE IN MILLIMETERS
  7
ONSHAPE-STANDARD
  0
MTEXT
  5
15A
330
1F
100
AcDbEntity
  8
TITLE_BLOCK
100
AcDbMText
 10
215.724672
 20
53.38726400000001
 30
0.0
 40
1.46304
 41
20.32000000000002
 71
     1
 72
     1
  1
^JANGULAR = ± ∞^J
  7
ONSHAPE-STANDARD
  0
MTEXT
  5
15B
330
1F
100
AcDbEntity
  8
TITLE_BLOCK
100
AcDbMText
 10
195.49408
 20
43.48736
 30
0.0
 40
1.6256
 41
20.31999999999999
 71
     1
 72
     1
  1
SURFACE FINISH
  7
ONSHAPE-STANDARD
  0
LINE
  5
15C
330
1F
100
AcDbEntity
  8
TITLE_BLOCK
100
AcDbLine
 10
212.888
 20
41.0896
 30
0.0
 11
213.904
 21
39.32983637951002
 31
0.0
  0
LINE
  5
15D
330
1F
100
AcDbEntity
  8
TITLE_BLOCK
100
AcDbLine
 10
213.904
 20
39.32983637951002
 30
0.0
 11
216.0376
 21
43.02533998253897
 31
0.0
  0
LINE
  5
15E
330
1F
100
AcDbEntity
  8
TITLE_BLOCK
100
AcDbLine
 10
216.0376
 20
43.02533998253897
 30
0.0
 11
218.2728
 21
43.02533998253897
 31
0.0
  0
MTEXT
  5
15F
330
1F
100
AcDbEntity
  8
TITLE_BLOCK
100
AcDbMText
 10
214.92
 20
35.123648
 30
0.0
 40
2.11328
 41
40.64000000000001
 71
     2
 72
     1
  1
DO NOT SCALE DRAWING
  7
ONSHAPE-STANDARD
  0
MTEXT
  5
160
330
1F
100
AcDbEntity
  8
TITLE_BLOCK
100
AcDbMText
 10
214.92
 20
29.66976
 30
0.0
 40
1.6256
 41
40.64000000000001
 71
     2
 72
     1
  1
BREAK ALL SHARP EDGES AND REMOVE BURRS
  7
ONSHAPE-STANDARD
  0
CIRCLE
  5
161
330
1F
100
AcDbEntity
  8
TITLE_BLOCK
100
AcDbCircle
 10
219.492
 20
15.03936
 30
0.0
 40
1.8288
  0
CIRCLE
  5
162
330
1F
100
AcDbEntity
  8
TITLE_BLOCK
100
AcDbCircle
 10
219.492
 20
15.03936
 30
0.0
 40
3.6576
  0
LINE
  5
163
330
1F
100
AcDbEntity
  8
TITLE_BLOCK
100
AcDbLine
 10
220.4064
 20
15.03936
 30
0.0
 11
218.5776
 21
15.03936
 31
0.0
  0
LINE
  5
164
330
1F
100
AcDbEntity
  8
TITLE_BLOCK
100
AcDbLine
 10
219.492
 20
15.95376
 30
0.0
 11
219.492
 21
14.12496
 31
0.0
  0
LINE
  5
165
330
1F
100
AcDbEntity
  8
TITLE_BLOCK
100
AcDbLine
 10
221.3208
 20
15.03936
 30
0.0
 11
224.064
 21
15.03936
 31
0.0
  0
LINE
  5
166
330
1F
100
AcDbEntity
  8
TITLE_BLOCK
100
AcDbLine
 10
219.492
 20
16.86816
 30
0.0
 11
219.492
 21
19.61136
 31
0.0
  0
LINE
  5
167
330
1F
100
AcDbEntity
  8
TITLE_BLOCK
100
AcDbLine
 10
217.6632
 20
15.03936
 30
0.0
 11
214.92
 21
15.03936
 31
0.0
  0
LINE
  5
168
330
1F
100
AcDbEntity
  8
TITLE_BLOCK
100
AcDbLine
 10
219.492
 20
13.21056
 30
0.0
 11
219.492
 21
10.46736
 31
0.0
  0
LINE
  5
169
330
1F
100
AcDbEntity
  8
TITLE_BLOCK
100
AcDbLine
 10
214.0056
 20
11.38176
 30
0.0
 11
214.0056
 21
18.69696
 31
0.0
  0
LINE
  5
16A
330
1F
100
AcDbEntity
  8
TITLE_BLOCK
100
AcDbLine
 10
214.0056
 20
18.69696
 30
0.0
 11
206.6904
 21
16.86816
 31
0.0
  0
LINE
  5
16B
330
1F
100
AcDbEntity
  8
TITLE_BLOCK
100
AcDbLine
 10
206.6904
 20
16.86816
 30
0.0
 11
206.6904
 21
13.21056
 31
0.0
  0
LINE
  5
16C
330
1F
100
AcDbEntity
  8
TITLE_BLOCK
100
AcDbLine
 10
206.6904
 20
13.21056
 30
0.0
 11
214.0056
 21
11.38176
 31
0.0
  0
LINE
  5
16D
330
1F
100
AcDbEntity
  8
TITLE_BLOCK
100
AcDbLine
 10
211.2624
 20
15.03936
 30
0.0
 11
214.4628
 21
15.03936
 31
0.0
  0
LINE
  5
16E
330
1F
100
AcDbEntity
  8
TITLE_BLOCK
100
AcDbLine
 10
210.71376
 20
15.03936
 30
0.0
 11
209.98224
 21
15.03936
 31
0.0
  0
LINE
  5
16F
330
1F
100
AcDbEntity
  8
TITLE_BLOCK
100
AcDbLine
 10
209.4336
 20
15.03936
 30
0.0
 11
206.2332
 21
15.03936
 31
0.0
  0
MTEXT
  5
170
330
1F
100
AcDbEntity
  8
TITLE_BLOCK
100
AcDbMText
 10
214.92
 20
22.76096
 30
0.0
 40
1.6256
 41
40.64000000000001
 71
     2
 72
     1
  1
FIRST ANGLE PROJECTION
  7
ONSHAPE-STANDARD
  0
LINE
  5
171
330
1F
100
AcDbEntity
  8
TITLE_BLOCK
100
AcDbLine
 10
235.24
 20
10.0
 30
0.0
 11
235.24
 21
60.8
 31
0.0
  0
LINE
  5
172
330
1F
100
AcDbEntity
  8
TITLE_BLOCK
100
AcDbLine
 10
253.02
 20
24.224
 30
0.0
 11
253.02
 21
60.8
 31
0.0
  0
LINE
  5
173
330
1F
100
AcDbEntity
  8
TITLE_BLOCK
100
AcDbLine
 10
273.34
 20
24.224
 30
0.0
 11
273.34
 21
60.8
 31
0.0
  0
LINE
  5
174
330
1F
100
AcDbEntity
  8
TITLE_BLOCK
100
AcDbLine
 10
270.8
 20
10.0
 30
0.0
 11
270.8
 21
24.224
 31
0.0
  0
MTEXT
  5
175
330
1F
100
AcDbEntity
  8
TITLE_BLOCK
100
AcDbMText
 10
283.5
 20
59.33696
 30
0.0
 40
1.6256
 41
20.31999999999994
 71
     2
 72
     1
  1
SIGNATURE
  7
ONSHAPE-STANDARD
  0
LINE
  5
176
330
1F
100
AcDbEntity
  8
TITLE_BLOCK
100
AcDbLine
 10
293.66
 20
24.224
 30
0.0
 11
293.66
 21
60.8
 31
0.0
  0
LINE
  5
177
330
1F
100
AcDbEntity
  8
TITLE_BLOCK
100
AcDbLine
 10
235.24
 20
60.8
 30
0.0
 11
306.36
 21
60.8
 31
0.0
  0
LINE
  5
178
330
1F
100
AcDbEntity
  8
TITLE_BLOCK
100
AcDbLine
 10
235.24
 20
54.70400000000001
 30
0.0
 11
306.36
 21
54.70400000000001
 31
0.0
  0
LINE
  5
179
330
1F
100
AcDbEntity
  8
TITLE_BLOCK
100
AcDbLine
 10
235.24
 20
48.608
 30
0.0
 11
306.36
 21
48.608
 31
0.0
  0
LINE
  5
17A
330
1F
100
AcDbEntity
  8
TITLE_BLOCK
100
AcDbLine
 10
235.24
 20
42.512
 30
0.0
 11
306.36
 21
42.512
 31
0.0
  0
LINE
  5
17B
330
1F
100
AcDbEntity
  8
TITLE_BLOCK
100
AcDbLine
 10
235.24
 20
36.416
 30
0.0
 11
306.36
 21
36.416
 31
0.0
  0
LINE
  5
17C
330
1F
100
AcDbEntity
  8
TITLE_BLOCK
100
AcDbLine
 10
235.24
 20
30.32
 30
0.0
 11
306.36
 21
30.32
 31
0.0
  0
LINE
  5
17D
330
1F
100
AcDbEntity
  8
TITLE_BLOCK
100
AcDbLine
 10
235.24
 20
24.224
 30
0.0
 11
306.36
 21
24.224
 31
0.0
  0
MTEXT
  5
17E
330
1F
100
AcDbEntity
  8
TITLE_BLOCK
100
AcDbMText
 10
253.91408
 20
59.33696
 30
0.0
 40
1.6256
 41
20.32000000000002
 71
     1
 72
     1
  1
NAME
  7
ONSHAPE-STANDARD
  0
MTEXT
  5
17F
330
1F
100
AcDbEntity
  8
TITLE_BLOCK
100
AcDbMText
 10
300.01
 20
59.33696
 30
0.0
 40
1.6256
 41
12.70000000000005
 71
     2
 72
     1
  1
DATE
  7
ONSHAPE-STANDARD
  0
MTEXT
  5
180
330
1F
100
AcDbEntity
  8
TITLE_BLOCK
100
AcDbMText
 10
236.13408
 20
53.24096000000001
 30
0.0
 40
1.6256
 41
17.78
 71
     1
 72
     1
  1
DRAWN
  7
ONSHAPE-STANDARD
  0
MTEXT
  5
181
102
{ACAD_XDICTIONARY
360
182
102
}
330
1F
100
AcDbEntity
  8
TITLE_BLOCK
100
AcDbMText
 10
263.18
 20
51.65600000000001
 30
0.0
 40
1.365504
 41
20.32000000000002
 71
     5
 72
     1
  1
ALEX ZAVARSKY
  7
ONSHAPE-STANDARD-FIELDS
1001
ACAD
1000
ACAD_MTEXT_DEFINED_HEIGHT_BEGIN
1070
    46
1040
6.096000000000011
1000
ACAD_MTEXT_DEFINED_HEIGHT_END
  0
MTEXT
  5
188
102
{ACAD_XDICTIONARY
360
189
102
}
330
1F
100
AcDbEntity
  8
TITLE_BLOCK
100
AcDbMText
 10
300.01
 20
51.65600000000001
 30
0.0
 40
1.365504
 41
12.70000000000005
 71
     5
 72
     1
  1
2021-05-26
  7
ONSHAPE-STANDARD-FIELDS
1001
ACAD
1000
ACAD_MTEXT_DEFINED_HEIGHT_BEGIN
1070
    46
1040
6.096000000000011
1000
ACAD_MTEXT_DEFINED_HEIGHT_END
  0
MTEXT
  5
18E
330
1F
100
AcDbEntity
  8
TITLE_BLOCK
100
AcDbMText
 10
236.13408
 20
47.14496
 30
0.0
 40
1.6256
 41
17.78
 71
     1
 72
     1
  1
CHECKED
  7
ONSHAPE-STANDARD
  0
MTEXT
  5
18F
330
1F
100
AcDbEntity
  8
TITLE_BLOCK
100
AcDbMText
 10
263.18
 20
45.56
 30
0.0
 40
1.365504
 41
20.32000000000002
 71
     5
 72
     1
  1
 
  7
ONSHAPE-STANDARD-FIELDS
1001
ACAD
1000
ACAD_MTEXT_DEFINED_HEIGHT_BEGIN
1070
    46
1040
6.095999999999997
1000
ACAD_MTEXT_DEFINED_HEIGHT_END
  0
MTEXT
  5
190
330
1F
100
AcDbEntity
  8
TITLE_BLOCK
100
AcDbMText
 10
300.01
 20
45.56
 30
0.0
 40
1.365504
 41
12.70000000000005
 71
     5
 72
     1
  1
 
  7
ONSHAPE-STANDARD-FIELDS
1001
ACAD
1000
ACAD_MTEXT_DEFINED_HEIGHT_BEGIN
1070
    46
1040
6.095999999999997
1000
ACAD_MTEXT_DEFINED_HEIGHT_END
  0
MTEXT
  5
191
330
1F
100
AcDbEntity
  8
TITLE_BLOCK
100
AcDbMText
 10
236.13408
 20
41.04896
 30
0.0
 40
1.6256
 41
17.78
 71
     1
 72
     1
  1
APPROVED
  7
ONSHAPE-STANDARD
  0
MTEXT
  5
192
102
{ACAD_XDICTIONARY
360
193
102
}
330
1F
100
AcDbEntity
  8
TITLE_BLOCK
100
AcDbMText
 10
263.18
 20
39.464
 30
0.0
 40
1.365504
 41
20.32000000000002
 71
     5
 72
     1
  1
----
  7
ONSHAPE-STANDARD-FIELDS
1001
ACAD
1000
ACAD_MTEXT_DEFINED_HEIGHT_BEGIN
1070
    46
1040
6.096000000000004
1000
ACAD_MTEXT_DEFINED_HEIGHT_END
  0
MTEXT
  5
198
102
{ACAD_XDICTIONARY
360
199
102
}
330
1F
100
AcDbEntity
  8
TITLE_BLOCK
100
AcDbMText
 10
300.01
 20
39.464
 30
0.0
 40
1.365504
 41
12.70000000000005
 71
     5
 72
     1
  1
----
  7
ONSHAPE-STANDARD-FIELDS
1001
ACAD
1000
ACAD_MTEXT_DEFINED_HEIGHT_BEGIN
1070
    46
1040
6.096000000000004
1000
ACAD_MTEXT_DEFINED_HEIGHT_END
  0
MTEXT
  5
19E
330
1F
100
AcDbEntity
  8
TITLE_BLOCK
100
AcDbMText
 10
244.13
 20
33.36799999999999
 30
0.0
 40
2.4384
 41
17.78
 71
     5
 72
     1
  1
 
  7
ONSHAPE-STANDARD-FIELDS
1001
ACAD
1000
ACAD_MTEXT_DEFINED_HEIGHT_BEGIN
1070
    46
1040
6.095999999999997
1000
ACAD_MTEXT_DEFINED_HEIGHT_END
  0
MTEXT
  5
19F
330
1F
100
AcDbEntity
  8
TITLE_BLOCK
100
AcDbMText
 10
263.18
 20
33.36799999999999
 30
0.0
 40
1.365504
 41
20.32000000000002
 71
     5
 72
     1
  1
 
  7
ONSHAPE-STANDARD-FIELDS
1001
ACAD
1000
ACAD_MTEXT_DEFINED_HEIGHT_BEGIN
1070
    46
1040
6.095999999999997
1000
ACAD_MTEXT_DEFINED_HEIGHT_END
  0
MTEXT
  5
1A0
330
1F
100
AcDbEntity
  8
TITLE_BLOCK
100
AcDbMText
 10
300.01
 20
33.36799999999999
 30
0.0
 40
1.365504
 41
12.70000000000005
 71
     5
 72
     1
  1
 
  7
ONSHAPE-STANDARD-FIELDS
1001
ACAD
1000
ACAD_MTEXT_DEFINED_HEIGHT_BEGIN
1070
    46
1040
6.095999999999997
1000
ACAD_MTEXT_DEFINED_HEIGHT_END
  0
MTEXT
  5
1A1
330
1F
100
AcDbEntity
  8
TITLE_BLOCK
100
AcDbMText
 10
244.13
 20
27.272
 30
0.0
 40
2.4384
 41
17.78
 71
     5
 72
     1
  1
 
  7
ONSHAPE-STANDARD-FIELDS
1001
ACAD
1000
ACAD_MTEXT_DEFINED_HEIGHT_BEGIN
1070
    46
1040
6.096000000000004
1000
ACAD_MTEXT_DEFINED_HEIGHT_END
  0
MTEXT
  5
1A2
330
1F
100
AcDbEntity
  8
TITLE_BLOCK
100
AcDbMText
 10
263.18
 20
27.272
 30
0.0
 40
1.365504
 41
20.32000000000002
 71
     5
 72
     1
  1
 
  7
ONSHAPE-STANDARD-FIELDS
1001
ACAD
1000
ACAD_MTEXT_DEFINED_HEIGHT_BEGIN
1070
    46
1040
6.096000000000004
1000
ACAD_MTEXT_DEFINED_HEIGHT_END
  0
MTEXT
  5
1A3
330
1F
100
AcDbEntity
  8
TITLE_BLOCK
100
AcDbMText
 10
300.01
 20
27.272
 30
0.0
 40
1.365504
 41
12.70000000000005
 71
     5
 72
     1
  1
 
  7
ONSHAPE-STANDARD-FIELDS
1001
ACAD
1000
ACAD_MTEXT_DEFINED_HEIGHT_BEGIN
1070
    46
1040
6.096000000000004
1000
ACAD_MTEXT_DEFINED_HEIGHT_END
  0
MTEXT
  5
1A4
330
1F
100
AcDbEntity
  8
TITLE_BLOCK
100
AcDbMText
 10
236.13408
 20
22.76096
 30
0.0
 40
1.6256
 41
35.56
 71
     1
 72
     1
  1
MATERIAL
  7
ONSHAPE-STANDARD
  0
MTEXT
  5
1A5
330
1F
100
AcDbEntity
  8
TITLE_BLOCK
100
AcDbMText
 10
253.02
 20
17.112
 30
0.0
 40
2.4384
 41
35.56
 71
     5
 72
     1
  1
 
  7
ONSHAPE-STANDARD-FIELDS
1001
ACAD
1000
ACAD_MTEXT_DEFINED_HEIGHT_BEGIN
1070
    46
1040
14.224
1000
ACAD_MTEXT_DEFINED_HEIGHT_END
  0
MTEXT
  5
1A6
330
1F
100
AcDbEntity
  8
TITLE_BLOCK
100
AcDbMText
 10
271.69408
 20
22.76096
 30
0.0
 40
1.6256
 41
35.56
 71
     1
 72
     1
  1
FINISH
  7
ONSHAPE-STANDARD
  0
MTEXT
  5
1A7
330
1F
100
AcDbEntity
  8
TITLE_BLOCK
100
AcDbMText
 10
288.58
 20
17.112
 30
0.0
 40
2.4384
 41
35.56
 71
     5
 72
     1
  1
 
  7
ONSHAPE-STANDARD-FIELDS
1001
ACAD
1000
ACAD_MTEXT_DEFINED_HEIGHT_BEGIN
1070
    46
1040
14.224
1000
ACAD_MTEXT_DEFINED_HEIGHT_END
  0
LINE
  5
1A8
330
1F
100
AcDbEntity
  8
TITLE_BLOCK
100
AcDbLine
 10
306.36
 20
10.0
 30
0.0
 11
306.36
 21
60.8
 31
0.0
  0
LINE
  5
1A9
330
1F
100
AcDbEntity
  8
TITLE_BLOCK
100
AcDbLine
 10
319.06
 20
16.604
 30
0.0
 11
319.06
 21
26.764
 31
0.0
  0
LINE
  5
1AA
330
1F
100
AcDbEntity
  8
TITLE_BLOCK
100
AcDbLine
 10
328.712
 20
10.0
 30
0.0
 11
328.712
 21
16.604
 31
0.0
  0
LINE
  5
1AB
330
1F
100
AcDbEntity
  8
TITLE_BLOCK
100
AcDbLine
 10
374.94
 20
10.0
 30
0.0
 11
374.94
 21
16.604
 31
0.0
  0
LINE
  5
1AC
330
1F
100
AcDbEntity
  8
TITLE_BLOCK
100
AcDbLine
 10
400.34
 20
16.604
 30
0.0
 11
400.34
 21
26.764
 31
0.0
  0
LINE
  5
1AD
330
1F
100
AcDbEntity
  8
TITLE_BLOCK
100
AcDbLine
 10
306.36
 20
16.604
 30
0.0
 11
410.5
 21
16.604
 31
0.0
  0
LINE
  5
1AE
330
1F
100
AcDbEntity
  8
TITLE_BLOCK
100
AcDbLine
 10
306.36
 20
26.764
 30
0.0
 11
410.5
 21
26.764
 31
0.0
  0
LINE
  5
1AF
330
1F
100
AcDbEntity
  8
TITLE_BLOCK
100
AcDbLine
 10
306.36
 20
48.1
 30
0.0
 11
410.5
 21
48.1
 31
0.0
  0
LINE
  5
1B0
330
1F
100
AcDbEntity
  8
TITLE_BLOCK
100
AcDbLine
 10
306.36
 20
60.8
 30
0.0
 11
410.5
 21
60.8
 31
0.0
  0
MTEXT
  5
1B1
330
1F
100
AcDbEntity
  8
TITLE_BLOCK
100
AcDbMText
 10
307.25408
 20
46.63696
 30
0.0
 40
1.6256
 41
12.69999999999999
 71
     1
 72
     1
  1
TITLE
  7
ONSHAPE-STANDARD
  0
MTEXT
  5
1B2
102
{ACAD_XDICTIONARY
360
1B3
102
}
330
1F
100
AcDbEntity
  8
TITLE_BLOCK
100
AcDbMText
 10
358.43
 20
44.036
 30
0.0
 40
3.90144
 41
93.97999999999999
 71
     5
 72
     1
  1
----
  7
ONSHAPE-STANDARD-FIELDS
1001
ACAD
1000
ACAD_MTEXT_DEFINED_HEIGHT_BEGIN
1070
    46
1040
6.4008
1000
ACAD_MTEXT_DEFINED_HEIGHT_END
  0
MTEXT
  5
1B8
102
{ACAD_XDICTIONARY
360
1B9
102
}
330
1F
100
AcDbEntity
  8
TITLE_BLOCK
100
AcDbMText
 10
358.43
 20
37.6352
 30
0.0
 40
3.90144
 41
93.98000000000002
 71
     5
 72
     1
  1
Schale
  7
ONSHAPE-STANDARD-FIELDS
1001
ONSHAPE_NOTES_REORDERING_D
1071
        0
1070
     0
1001
ACAD
1000
ACAD_MTEXT_DEFINED_HEIGHT_BEGIN
1070
    46
1040
3.954593133514987
1000
ACAD_MTEXT_DEFINED_HEIGHT_END
  0
MTEXT
  5
1BC
102
{ACAD_XDICTIONARY
360
1BD
102
}
330
1F
100
AcDbEntity
  8
TITLE_BLOCK
100
AcDbMText
 10
358.43
 20
31.2344
 30
0.0
 40
3.90144
 41
93.98000000000002
 71
     5
 72
     1
  1
BfG
  7
ONSHAPE-STANDARD-FIELDS
1001
ONSHAPE_NOTES_REORDERING_D
1071
        0
1070
     0
1001
ACAD
1000
ACAD_MTEXT_DEFINED_HEIGHT_BEGIN
1070
    46
1040
3.954593133514987
1000
ACAD_MTEXT_DEFINED_HEIGHT_END
  0
MTEXT
  5
1BE
330
1F
100
AcDbEntity
  8
TITLE_BLOCK
100
AcDbMText
 10
307.075264
 20
25.593568
 30
0.0
 40
1.30048
 41
12.69999999999999
 71
     1
 72
     1
  1
SIZE
  7
ONSHAPE-STANDARD
  0
MTEXT
  5
1BF
102
{ACAD_XDICTIONARY
360
1C0
102
}
330
1F
100
AcDbEntity
  8
TITLE_BLOCK
100
AcDbMText
 10
312.71
 20
21.684
 30
0.0
 40
4.8768
 41
12.69999999999999
 71
     5
 72
     1
  1
A3
  7
ONSHAPE-STANDARD-FIELDS
1001
ACAD
1000
ACAD_MTEXT_DEFINED_HEIGHT_BEGIN
1070
    46
1040
10.16
1000
ACAD_MTEXT_DEFINED_HEIGHT_END
  0
MTEXT
  5
1C5
330
1F
100
AcDbEntity
  8
TITLE_BLOCK
100
AcDbMText
 10
319.775264
 20
25.593568
 30
0.0
 40
1.30048
 41
81.27999999999997
 71
     1
 72
     1
  1
DWG NO.
  7
ONSHAPE-STANDARD
  0
MTEXT
  5
1C6
102
{ACAD_XDICTIONARY
360
1C7
102
}
330
1F
100
AcDbEntity
  8
TITLE_BLOCK
100
AcDbMText
 10
359.7
 20
21.684
 30
0.0
 40
4.8768
 41
81.27999999999997
 71
     5
 72
     1
  1
----
  7
ONSHAPE-STANDARD-FIELDS
1001
ACAD
1000
ACAD_MTEXT_DEFINED_HEIGHT_BEGIN
1070
    46
1040
10.16
1000
ACAD_MTEXT_DEFINED_HEIGHT_END
  0
MTEXT
  5
1CC
330
1F
100
AcDbEntity
  8
TITLE_BLOCK
100
AcDbMText
 10
401.055264
 20
25.593568
 30
0.0
 40
1.30048
 41
10.16000000000003
 71
     1
 72
     1
  1
REV.
  7
ONSHAPE-STANDARD
  0
MTEXT
  5
1CD
102
{ACAD_XDICTIONARY
360
1CE
102
}
330
1F
100
AcDbEntity
  8
TITLE_BLOCK
100
AcDbMText
 10
405.928
 20
21.684
 30
0.0
 40
4.8768
 41
9.144000000000005
 71
     5
 72
     1
  1
-
  7
ONSHAPE-STANDARD-FIELDS
1001
ACAD
1000
ACAD_MTEXT_DEFINED_HEIGHT_BEGIN
1070
    46
1040
10.16
1000
ACAD_MTEXT_DEFINED_HEIGHT_END
  0
MTEXT
  5
1D3
330
1F
100
AcDbEntity
  8
TITLE_BLOCK
100
AcDbMText
 10
307.075264
 20
15.433568
 30
0.0
 40
1.30048
 41
22.35199999999998
 71
     1
 72
     1
  1
SCALE
  7
ONSHAPE-STANDARD
  0
MTEXT
  5
1D4
102
{ACAD_XDICTIONARY
360
1D5
102
}
330
1F
100
AcDbEntity
  8
TITLE_BLOCK
100
AcDbMText
 10
318.552
 20
13.302
 30
0.0
 40
2.92608
 41
20.31999999999999
 71
     5
 72
     1
  1
1:4
  7
ONSHAPE-STANDARD-FIELDS
1001
ACAD
1000
ACAD_MTEXT_DEFINED_HEIGHT_BEGIN
1070
    46
1040
6.603999999999999
1000
ACAD_MTEXT_DEFINED_HEIGHT_END
  0
MTEXT
  5
1DA
330
1F
100
AcDbEntity
  8
TITLE_BLOCK
100
AcDbMText
 10
329.427264
 20
15.433568
 30
0.0
 40
1.30048
 41
46.22800000000001
 71
     1
 72
     1
  1
WEIGHT
  7
ONSHAPE-STANDARD
  0
MTEXT
  5
1DB
330
1F
100
AcDbEntity
  8
TITLE_BLOCK
100
AcDbMText
 10
351.826
 20
13.302
 30
0.0
 40
2.92608
 41
46.22800000000001
 71
     5
 72
     1
  1
 
  7
ONSHAPE-STANDARD-FIELDS
1001
ACAD
1000
ACAD_MTEXT_DEFINED_HEIGHT_BEGIN
1070
    46
1040
6.603999999999999
1000
ACAD_MTEXT_DEFINED_HEIGHT_END
  0
MTEXT
  5
1DC
330
1F
100
AcDbEntity
  8
TITLE_BLOCK
100
AcDbMText
 10
375.655264
 20
15.433568
 30
0.0
 40
1.30048
 41
35.56
 71
     1
 72
     1
  1
SHEET
  7
ONSHAPE-STANDARD
  0
MTEXT
  5
1DD
102
{ACAD_XDICTIONARY
360
1DE
102
}
330
1F
100
AcDbEntity
  8
TITLE_BLOCK
100
AcDbMText
 10
393.736
 20
13.302
 30
0.0
 40
2.92608
 41
33.52800000000002
 71
     5
 72
     1
  1
1 of 1
  7
ONSHAPE-STANDARD-FIELDS
1001
ACAD
1000
ACAD_MTEXT_DEFINED_HEIGHT_BEGIN
1070
    46
1040
6.603999999999999
1000
ACAD_MTEXT_DEFINED_HEIGHT_END
  0
MTEXT
  5
1E3
102
{ACAD_XDICTIONARY
360
1E4
102
}
330
1F
100
AcDbEntity
  8
ANNOTATION_TEXT
 62
     7
 60
     1
100
AcDbMText
 10
267.1362291935499
 20
212.5154159119683
 30
0.0
 40
3.5
 41
0.0
 71
     2
 72
     1
  1

  7
ONSHAPE-STANDARD-VIEW-LABE
1001
ACAD
1000
ACAD_MTEXT_DEFINED_HEIGHT_BEGIN
1070
    46
1040
3.5
1000
ACAD_MTEXT_DEFINED_HEIGHT_END
  0
DIMENSION
  5
1EA
102
{ACAD_REACTORS
102
}
102
{ACAD_XDICTIONARY
360
1EB
102
}
330
1F
100
AcDbEntity
  8
ANNOTATION_TEXT
100
AcDbDimension
  2
*D1
 10
212.7007103001167
 20
217.5779159119683
 30
0.0
 11
212.7007103001167
 21
223.2029159119683
 31
0.0
 70
   160
  3
ONSHAPE-ISO-25$0
100
AcDbAlignedDimension
 13
234.0112291935499
 23
228.8279159119683
 33
0.1249999999999716
 14
234.0112291935499
 24
217.5779159119683
 34
0.1249999999999716
 50
90.0
100
AcDbRotatedDimension
1001
ACAD
1000
DSTYLE
1002
{
1070
     4
1000
[]
1070
   144
1040
4.0
1070
     3
1000

1070
   288
1070
     1
1002
}
1001
ACAD_DIMASSOC_CALC_DIMLFAC
1040
-4.0
1001
ACAD_DIMASSOC_DIMLFAC
1040
-4.0
1001
ACAD_DIMASSOC_OVERRIDDEN_D
1040
0.0
  0
DIMENSION
  5
205
102
{ACAD_REACTORS
102
}
102
{ACAD_XDICTIONARY
360
206
102
}
330
1F
100
AcDbEntity
  8
ANNOTATION_TEXT
100
AcDbDimension
  2
*D2
 10
300.2612291935499
 20
205.324884759645
 30
0.0
 11
267.1362291935499
 21
205.324884759645
 31
0.0
 70
   160
  3
ONSHAPE-ISO-25$0
100
AcDbAlignedDimension
 13
234.0112291935499
 23
217.5779159119683
 33
0.1249999999999716
 14
300.2612291935499
 24
217.5779159119683
 34
0.1249999999999716
100
AcDbRotatedDimension
1001
ACAD
1000
DSTYLE
1002
{
1070
     4
1000
[]
1070
   144
1040
4.0
1070
     3
1000

1070
   288
1070
     1
1002
}
1001
ACAD_DIMASSOC_CALC_DIMLFAC
1040
-4.0
1001
ACAD_DIMASSOC_DIMLFAC
1040
-4.0
1001
ACAD_DIMASSOC_OVERRIDDEN_D
1040
0.0
  0
DIMENSION
  5
217
102
{ACAD_REACTORS
102
}
102
{ACAD_XDICTIONARY
360
218
102
}
330
1F
100
AcDbEntity
  8
ANNOTATION_TEXT
100
AcDbDimension
  2
*D3
 10
272.1362291935499
 20
273.1644345074984
 30
0.0
 11
267.1362291935499
 21
273.1644345074984
 31
0.0
 70
   160
  3
ONSHAPE-ISO-25$0
100
AcDbAlignedDimension
 13
262.1362291935499
 23
256.4529159119683
 33
-0.1250000000000213
 14
272.1362291935499
 24
256.4529159119683
 34
-0.1250000000000213
100
AcDbRotatedDimension
1001
ACAD
1000
DSTYLE
1002
{
1070
     4
1000
[]
1070
   144
1040
4.0
1070
     3
1000

1070
   288
1070
     1
1002
}
1001
ACAD_DIMASSOC_CALC_DIMLFAC
1040
-4.0
1001
ACAD_DIMASSOC_DIMLFAC
1040
-4.0
1001
ACAD_DIMASSOC_OVERRIDDEN_D
1040
0.0
  0
DIMENSION
  5
229
102
{ACAD_REACTORS
102
}
102
{ACAD_XDICTIONARY
360
22A
102
}
330
1F
100
AcDbEntity
  8
ANNOTATION_TEXT
100
AcDbDimension
  2
*D4
 10
284.6452009562797
 20
228.8279159119683
 30
0.0
 11
284.6452009562797
 21
242.6404159119683
 31
0.0
 70
   160
  3
ONSHAPE-ISO-25$0
100
AcDbAlignedDimension
 13
272.1362291935499
 23
256.4529159119683
 33
-0.1250000000000213
 14
272.1362291935499
 24
228.8279159119683
 34
-0.1250000000000213
 50
90.0
100
AcDbRotatedDimension
1001
ACAD
1000
DSTYLE
1002
{
1070
     4
1000
[]
1070
   144
1040
4.0
1070
     3
1000

1070
   288
1070
     1
1002
}
1001
ACAD_DIMASSOC_CALC_DIMLFAC
1040
-4.0
1001
ACAD_DIMASSOC_DIMLFAC
1040
-4.0
1001
ACAD_DIMASSOC_OVERRIDDEN_D
1040
0.0
  0
DIMENSION
  5
23B
102
{ACAD_REACTORS
102
}
102
{ACAD_XDICTIONARY
360
23C
102
}
330
1F
100
AcDbEntity
  8
ANNOTATION_TEXT
100
AcDbDimension
  2
*D5
 10
234.0112291935499
 20
239.6767586765517
 30
0.0
 11
217.2377502514063
 21
239.6767586765517
 31
0.0
 70
   160
  3
ONSHAPE-ISO-25$0
100
AcDbAlignedDimension
 13
262.1362291935499
 23
228.8279159119683
 33
-0.1250000000000213
 14
234.0112291935499
 24
228.8279159119683
 34
0.1249999999999716
100
AcDbRotatedDimension
1001
ACAD
1000
DSTYLE
1002
{
1070
     4
1000
[]
1070
   144
1040
4.0
1070
     3
1000

1070
   288
1070
     1
1002
}
1001
ACAD_DIMASSOC_CALC_DIMLFAC
1040
-4.0
1001
ACAD_DIMASSOC_DIMLFAC
1040
-4.0
1001
ACAD_DIMASSOC_OVERRIDDEN_D
1040
0.0
  0
MTEXT
  5
24E
102
{ACAD_XDICTIONARY
360
24F
102
}
330
1F
100
AcDbEntity
  8
ANNOTATION_TEXT
 62
     7
 60
     1
100
AcDbMText
 10
356.1863535279494
 20
212.2529159119683
 30
0.0
 40
3.5
 41
0.0
 71
     2
 72
     1
  1

  7
ONSHAPE-STANDARD-VIEW-LABE
1001
ACAD
1000
ACAD_MTEXT_DEFINED_HEIGHT_BEGIN
1070
    46
1040
3.5
1000
ACAD_MTEXT_DEFINED_HEIGHT_END
  0
DIMENSION
  5
255
102
{ACAD_REACTORS
102
}
102
{ACAD_XDICTIONARY
360
256
102
}
330
1F
100
AcDbEntity
  8
ANNOTATION_TEXT
100
AcDbDimension
  2
*D6
 10
326.9363535279494
 20
263.8743050834292
 30
0.0
 11
310.3838549720739
 21
263.8743050834292
 31
0.0
 70
   160
  3
ONSHAPE-ISO-25$0
100
AcDbAlignedDimension
 13
320.6863535279494
 23
256.4529159119683
 33
5.000000000000011
 14
326.9363535279494
 24
256.4529159119683
 34
5.000000000000007
100
AcDbRotatedDimension
1001
ACAD
1000
DSTYLE
1002
{
1070
     4
1000
[]
1070
   144
1040
4.0
1070
     3
1000

1070
   288
1070
     1
1002
}
1001
ACAD_DIMASSOC_CALC_DIMLFAC
1040
-4.0
1001
ACAD_DIMASSOC_DIMLFAC
1040
-4.0
1001
ACAD_DIMASSOC_OVERRIDDEN_D
1040
0.0
  0
DIMENSION
  5
271
102
{ACAD_REACTORS
102
}
102
{ACAD_XDICTIONARY
360
272
102
}
330
1F
100
AcDbEntity
  8
ANNOTATION_TEXT
100
AcDbDimension
  2
*D7
 10
391.9363535279494
 20
205.324884759645
 30
0.0
 11
352.7295611841098
 21
205.324884759645
 31
0.0
 70
   160
  3
ONSHAPE-ISO-25$0
100
AcDbAlignedDimension
 13
320.4363535279494
 23
217.5779159119683
 33
33.12500000000001
 14
391.9363535279494
 24
217.5779159119683
 34
33.125
100
AcDbRotatedDimension
1001
ACAD
1000
DSTYLE
1002
{
1070
     4
1000
[]
1070
   144
1040
4.0
1070
     3
1000

1070
   288
1070
     1
1002
}
1001
ACAD_DIMASSOC_CALC_DIMLFAC
1040
-4.0
1001
ACAD_DIMASSOC_DIMLFAC
1040
-4.0
1001
ACAD_DIMASSOC_OVERRIDDEN_D
1040
0.0
  0
MTEXT
  5
283
102
{ACAD_XDICTIONARY
360
284
102
}
330
1F
100
AcDbEntity
  8
ANNOTATION_TEXT
 62
     7
 60
     1
100
AcDbMText
 10
356.1863535279494
 20
98.96861157868028
 30
0.0
 40
3.5
 41
0.0
 71
     2
 72
     1
  1

  7
ONSHAPE-STANDARD-VIEW-LABE
1001
ACAD
1000
ACAD_MTEXT_DEFINED_HEIGHT_BEGIN
1070
    46
1040
3.5
1000
ACAD_MTEXT_DEFINED_HEIGHT_END
  0
MTEXT
  5
28A
102
{ACAD_XDICTIONARY
360
28B
102
}
330
1F
100
AcDbEntity
  8
ANNOTATION_TEXT
 62
     7
 60
     1
100
AcDbMText
 10
258.5052781694404
 20
62.85423144373853
 30
0.0
 40
3.5
 41
0.0
 71
     2
 72
     1
  1

  7
ONSHAPE-STANDARD-VIEW-LABE
1001
ACAD
1000
ACAD_MTEXT_DEFINED_HEIGHT_BEGIN
1070
    46
1040
3.5
1000
ACAD_MTEXT_DEFINED_HEIGHT_END
  0
MTEXT
  5
28D
102
{ACAD_XDICTIONARY
360
28E
102
}
330
1F
100
AcDbEntity
  8
ANNOTATION_TEXT
 62
     7
 60
     1
100
AcDbMText
 10
39.26088831166712
 20
128.7119051855578
 30
0.0
 40
3.5
 41
0.0
 71
     2
 72
     1
  1

  7
ONSHAPE-STANDARD-VIEW-LABE
1001
ACAD
1000
ACAD_MTEXT_DEFINED_HEIGHT_BEGIN
1070
    46
1040
3.5
1000
ACAD_MTEXT_DEFINED_HEIGHT_END
  0
MTEXT
  5
290
102
{ACAD_XDICTIONARY
360
291
102
}
330
1F
100
AcDbEntity
  8
ANNOTATION_TEXT
 62
     7
 60
     1
100
AcDbMText
 10
110.477593421843
 20
127.0806551855578
 30
0.0
 40
3.5
 41
0.0
 71
     2
 72
     1
  1

  7
ONSHAPE-STANDARD-VIEW-LABE
1001
ACAD
1000
ACAD_MTEXT_DEFINED_HEIGHT_BEGIN
1070
    46
1040
3.5
1000
ACAD_MTEXT_DEFINED_HEIGHT_END
  0
MTEXT
  5
293
102
{ACAD_XDICTIONARY
360
294
102
}
330
1F
100
AcDbEntity
  8
ANNOTATION_TEXT
 62
     7
 60
     1
100
AcDbMText
 10
110.477593421843
 20
58.28129524889428
 30
0.0
 40
3.5
 41
0.0
 71
     2
 72
     1
  1

  7
ONSHAPE-STANDARD-VIEW-LABE
1001
ACAD
1000
ACAD_MTEXT_DEFINED_HEIGHT_BEGIN
1070
    46
1040
3.5
1000
ACAD_MTEXT_DEFINED_HEIGHT_END
  0
DIMENSION
  5
296
102
{ACAD_REACTORS
102
}
102
{ACAD_XDICTIONARY
360
297
102
}
330
1F
100
AcDbEntity
  8
ANNOTATION_TEXT
100
AcDbDimension
  2
*D8
 10
53.01088831166712
 20
117.1120084230439
 30
0.0
 11
39.26088831166712
 21
117.1120084230439
 31
0.0
 70
   160
  3
ONSHAPE-ISO-25$0
100
AcDbAlignedDimension
 13
25.51088831166712
 23
132.4056551855578
 33
0.1249999999999929
 14
53.01088831166712
 24
132.4056551855578
 34
0.1249999999999929
100
AcDbRotatedDimension
1001
ACAD
1000
DSTYLE
1002
{
1070
     4
1000
[]
1070
   144
1040
4.0
1070
     3
1000

1070
   288
1070
     1
1002
}
1001
ACAD_DIMASSOC_CALC_DIMLFAC
1040
-4.0
1001
ACAD_DIMASSOC_DIMLFAC
1040
-4.0
1001
ACAD_DIMASSOC_OVERRIDDEN_D
1040
0.0
  0
DIMENSION
  5
2B1
102
{ACAD_REACTORS
102
}
102
{ACAD_XDICTIONARY
360
2B2
102
}
330
1F
100
AcDbEntity
  8
ANNOTATION_TEXT
100
AcDbDimension
  2
*D9
 10
18.91325828018836
 20
132.4056551855578
 30
0.0
 11
18.91325828018836
 21
138.0306551855578
 31
0.0
 70
   160
  3
ONSHAPE-ISO-25$0
100
AcDbAlignedDimension
 13
25.51088831166712
 23
143.6556551855578
 33
0.1249999999999929
 14
25.51088831166712
 24
132.4056551855578
 34
0.1249999999999929
 50
90.0
100
AcDbRotatedDimension
1001
ACAD
1000
DSTYLE
1002
{
1070
     4
1000
[]
1070
   144
1040
4.0
1070
     3
1000

1070
   288
1070
     1
1002
}
1001
ACAD_DIMASSOC_CALC_DIMLFAC
1040
-4.0
1001
ACAD_DIMASSOC_DIMLFAC
1040
-4.0
1001
ACAD_DIMASSOC_OVERRIDDEN_D
1040
0.0
  0
DIMENSION
  5
2C3
102
{ACAD_REACTORS
102
}
102
{ACAD_XDICTIONARY
360
2C4
102
}
330
1F
100
AcDbEntity
  8
ANNOTATION_TEXT
100
AcDbDimension
  2
*D10
 10
34.26088831166711
 20
151.2669588330262
 30
0.0
 11
17.80107904736194
 21
151.2669588330262
 31
0.0
 70
   160
  3
ONSHAPE-ISO-25$0
100
AcDbAlignedDimension
 13
25.51088831166712
 23
143.6556551855578
 33
0.1249999999999929
 14
34.26088831166711
 24
151.2669588330262
 34
-0.1250000000000071
 50
-0.0000000000000254
100
AcDbRotatedDimension
1001
ACAD
1000
DSTYLE
1002
{
1070
     4
1000
[]
1070
   144
1040
4.0
1070
     3
1000

1070
   288
1070
     1
1002
}
1001
ACAD_DIMASSOC_CALC_DIMLFAC
1040
-4.0
1001
ACAD_DIMASSOC_DIMLFAC
1040
-4.0
1001
ACAD_DIMASSOC_OVERRIDDEN_D
1040
0.0
  0
DIMENSION
  5
2D6
102
{ACAD_REACTORS
102
}
102
{ACAD_XDICTIONARY
360
2D7
102
}
330
1F
100
AcDbEntity
  8
ANNOTATION_TEXT
100
AcDbDimension
  2
*D11
 10
44.2608883116671
 20
185.4219092430084
 30
0.0
 11
39.26088831166711
 21
185.4219092430084
 31
0.0
 70
   160
  3
ONSHAPE-ISO-25$0
100
AcDbAlignedDimension
 13
34.26088831166712
 23
171.2806551855577
 33
-0.1250000000000071
 14
44.2608883116671
 24
171.2806551855577
 34
-0.1250000000000071
100
AcDbRotatedDimension
1001
ACAD
1000
DSTYLE
1002
{
1070
     4
1000
[]
1070
   144
1040
4.0
1070
     3
1000

1070
   288
1070
     1
1002
}
1001
ACAD_DIMASSOC_CALC_DIMLFAC
1040
-4.0
1001
ACAD_DIMASSOC_DIMLFAC
1040
-4.0
1001
ACAD_DIMASSOC_OVERRIDDEN_D
1040
0.0
  0
DIMENSION
  5
2E8
102
{ACAD_REACTORS
102
}
102
{ACAD_XDICTIONARY
360
2E9
102
}
330
1F
100
AcDbEntity
  8
ANNOTATION_TEXT
100
AcDbDimension
  2
*D12
 10
53.01088831166712
 20
143.6556551855578
 30
0.0
 11
53.01088831166712
 21
157.4681551855577
 31
0.0
 70
   160
  3
ONSHAPE-ISO-25$0
100
AcDbAlignedDimension
 13
44.2608883116671
 23
171.2806551855577
 33
-0.1250000000000071
 14
44.2608883116671
 24
143.6556551855578
 34
-0.1250000000000071
 50
90.0
100
AcDbRotatedDimension
1001
ACAD
1000
DSTYLE
1002
{
1070
     4
1000
[]
1070
   144
1040
4.0
1070
     3
1000

1070
   288
1070
     1
1002
}
1001
ACAD_DIMASSOC_CALC_DIMLFAC
1040
-4.0
1001
ACAD_DIMASSOC_DIMLFAC
1040
-4.0
1001
ACAD_DIMASSOC_OVERRIDDEN_D
1040
0.0
  0
DIMENSION
  5
2FA
102
{ACAD_REACTORS
102
}
102
{ACAD_XDICTIONARY
360
2FB
102
}
330
1F
100
AcDbEntity
  8
ANNOTATION_TEXT
100
AcDbDimension
  2
*D13
 10
81.22759342184298
 20
179.9716511988623
 30
0.0
 11
65.05877638729208
 21
179.9716511988623
 31
0.0
 70
   160
  3
ONSHAPE-ISO-25$0
100
AcDbAlignedDimension
 13
74.97759342184298
 23
171.2806551855577
 33
5.000000000000014
 14
81.22759342184298
 24
171.2806551855577
 34
5.000000000000014
100
AcDbRotatedDimension
1001
ACAD
1000
DSTYLE
1002
{
1070
     4
1000
[]
1070
   144
1040
4.0
1070
     3
1000

1070
   288
1070
     1
1002
}
1001
ACAD_DIMASSOC_CALC_DIMLFAC
1040
-4.0
1001
ACAD_DIMASSOC_DIMLFAC
1040
-4.0
1001
ACAD_DIMASSOC_OVERRIDDEN_D
1040
0.0
  0
DIMENSION
  5
30D
102
{ACAD_REACTORS
102
}
102
{ACAD_XDICTIONARY
360
30E
102
}
330
1F
100
AcDbEntity
  8
ANNOTATION_TEXT
100
AcDbDimension
  2
*D14
 10
146.227593421843
 20
111.6617503788978
 30
0.0
 11
110.477593421843
 21
111.6617503788978
 31
0.0
 70
   160
  3
ONSHAPE-ISO-25$0
100
AcDbAlignedDimension
 13
74.72759342184298
 23
132.4056551855578
 33
13.75000000000001
 14
146.227593421843
 24
132.4056551855578
 34
13.75
100
AcDbRotatedDimension
1001
ACAD
1000
DSTYLE
1002
{
1070
     4
1000
[]
1070
   144
1040
4.0
1070
     3
1000

1070
   288
1070
     1
1002
}
1001
ACAD_DIMASSOC_CALC_DIMLFAC
1040
-4.0
1001
ACAD_DIMASSOC_DIMLFAC
1040
-4.0
1001
ACAD_DIMASSOC_OVERRIDDEN_D
1040
0.0
  0
MTEXT
  5
31F
102
{ACAD_XDICTIONARY
360
320
102
}
330
1F
100
AcDbEntity
  8
ANNOTATION_TEXT
 62
     7
 60
     1
100
AcDbMText
 10
55.77706998014247
 20
198.6069485654936
 30
0.0
 40
3.5
 41
0.0
 71
     2
 72
     1
  1

  7
ONSHAPE-STANDARD-VIEW-LABE
1001
ACAD
1000
ACAD_MTEXT_DEFINED_HEIGHT_BEGIN
1070
    46
1040
3.5
1000
ACAD_MTEXT_DEFINED_HEIGHT_END
  0
MTEXT
  5
326
102
{ACAD_XDICTIONARY
360
3B3
102
}
330
1F
100
AcDbEntity
  8
ANNOTATION_TEXT
100
AcDbMText
 10
56.70516068358455
 20
272.2520677544757
 30
0.0
 40
3.5
 41
46.90536967739956
 71
     1
 72
     5
  1
Kleine Schale
  7
ONSHAPE-STANDARD-NOTESTYLE
1001
ACAD
1000
ACAD_MTEXT_DEFINED_HEIGHT_BEGIN
1070
    46
1040
3.547683923705722
1000
ACAD_MTEXT_DEFINED_HEIGHT_END
  0
MTEXT
  5
328
102
{ACAD_XDICTIONARY
360
3B5
102
}
330
1F
100
AcDbEntity
  8
ANNOTATION_TEXT
100
AcDbMText
 10
243.0295581561387
 20
171.1949519320781
 30
0.0
 40
3.5
 41
45.45196753229391
 71
     1
 72
     5
  1
Groﬂe Schale
  7
ONSHAPE-STANDARD-NOTESTYLE
1001
ACAD
1000
ACAD_MTEXT_DEFINED_HEIGHT_BEGIN
1070
    46
1040
3.547683923705722
1000
ACAD_MTEXT_DEFINED_HEIGHT_END
  0
ENDSEC
  0
SECTION
  2
OBJECTS
  0
DICTIONARY
  5
C
330
0
100
AcDbDictionary
  3
ACAD_FIELDLIST
350
1E9
  3
ACAD_GROUP
350
D
  3
ACAD_LAYOUT
350
1A
  3
ACAD_MATERIAL
350
43
  3
ACAD_MLEADERSTYLE
350
6B
  3
ACAD_MLINESTYLE
350
17
  3
ACAD_PLOTSETTINGS
350
19
  3
ACAD_SCALELIST
350
47
  3
ACAD_VISUALSTYLE
350
2A
  3
ACDB_RECOMPOSE_DATA
350
3C2
  3
ACDBHEADERROUNDTRIPXREC
350
389
  3
ACDBVARIABLEDICTIONARY
350
6E
  3
DWGPROPS
350
3B0
  3
ONSHAPE_DATA
350
329
  0
DICTIONARY
  5
3B7
330
8
100
AcDbDictionary
280
     1
  3
ACAD_XREC_ROUNDTRIP
360
3B8
  0
DICTIONARY
  5
182
330
181
100
AcDbDictionary
280
     1
  0
DICTIONARY
  5
189
330
188
100
AcDbDictionary
280
     1
  0
DICTIONARY
  5
193
330
192
100
AcDbDictionary
280
     1
  0
DICTIONARY
  5
199
330
198
100
AcDbDictionary
280
     1
  0
DICTIONARY
  5
1B3
330
1B2
100
AcDbDictionary
280
     1
  0
DICTIONARY
  5
1B9
330
1B8
100
AcDbDictionary
280
     1
  3
ACAD_MTEXT_RT
360
3B1
  0
DICTIONARY
  5
1BD
330
1BC
100
AcDbDictionary
280
     1
  3
ACAD_MTEXT_RT
360
3B2
  0
DICTIONARY
  5
1C0
330
1BF
100
AcDbDictionary
280
     1
  0
DICTIONARY
  5
1C7
330
1C6
100
AcDbDictionary
280
     1
  0
DICTIONARY
  5
1CE
330
1CD
100
AcDbDictionary
280
     1
  0
DICTIONARY
  5
1D5
330
1D4
100
AcDbDictionary
280
     1
  0
DICTIONARY
  5
1DE
330
1DD
100
AcDbDictionary
280
     1
  0
DICTIONARY
  5
1E4
330
1E3
100
AcDbDictionary
280
     1
  3
ONSHAPE_VIEW_ID
360
1E5
  0
DICTIONARY
  5
1EB
330
1EA
100
AcDbDictionary
280
     1
  3
OS_DIM_DISPLAY_FLAG_DATA
360
1EE
  0
DICTIONARY
  5
206
330
205
100
AcDbDictionary
280
     1
  3
OS_DIM_DISPLAY_FLAG_DATA
360
209
  0
DICTIONARY
  5
218
330
217
100
AcDbDictionary
280
     1
  3
OS_DIM_DISPLAY_FLAG_DATA
360
21B
  0
DICTIONARY
  5
22A
330
229
100
AcDbDictionary
280
     1
  3
OS_DIM_DISPLAY_FLAG_DATA
360
22D
  0
DICTIONARY
  5
23C
330
23B
100
AcDbDictionary
280
     1
  3
OS_DIM_DISPLAY_FLAG_DATA
360
23F
  0
DICTIONARY
  5
24F
330
24E
100
AcDbDictionary
280
     1
  3
ONSHAPE_VIEW_ID
360
250
  0
DICTIONARY
  5
256
330
255
100
AcDbDictionary
280
     1
  3
OS_DIM_DISPLAY_FLAG_DATA
360
259
  0
DICTIONARY
  5
272
330
271
100
AcDbDictionary
280
     1
  3
OS_DIM_DISPLAY_FLAG_DATA
360
275
  0
DICTIONARY
  5
284
330
283
100
AcDbDictionary
280
     1
  3
ONSHAPE_VIEW_ID
360
285
  0
DICTIONARY
  5
28B
330
28A
100
AcDbDictionary
280
     1
  3
ONSHAPE_VIEW_ID
360
28C
  0
DICTIONARY
  5
28E
330
28D
100
AcDbDictionary
280
     1
  3
ONSHAPE_VIEW_ID
360
28F
  0
DICTIONARY
  5
291
330
290
100
AcDbDictionary
280
     1
  3
ONSHAPE_VIEW_ID
360
292
  0
DICTIONARY
  5
294
330
293
100
AcDbDictionary
280
     1
  3
ONSHAPE_VIEW_ID
360
295
  0
DICTIONARY
  5
297
330
296
100
AcDbDictionary
280
     1
  3
OS_DIM_DISPLAY_FLAG_DATA
360
29A
  0
DICTIONARY
  5
2B2
330
2B1
100
AcDbDictionary
280
     1
  3
OS_DIM_DISPLAY_FLAG_DATA
360
2B5
  0
DICTIONARY
  5
2C4
330
2C3
100
AcDbDictionary
280
     1
  3
OS_DIM_DISPLAY_FLAG_DATA
360
2C7
  0
DICTIONARY
  5
2D7
330
2D6
100
AcDbDictionary
280
     1
  3
OS_DIM_DISPLAY_FLAG_DATA
360
2DA
  0
DICTIONARY
  5
2E9
330
2E8
100
AcDbDictionary
280
     1
  3
OS_DIM_DISPLAY_FLAG_DATA
360
2EC
  0
DICTIONARY
  5
2FB
330
2FA
100
AcDbDictionary
280
     1
  3
OS_DIM_DISPLAY_FLAG_DATA
360
2FE
  0
DICTIONARY
  5
30E
330
30D
100
AcDbDictionary
280
     1
  3
OS_DIM_DISPLAY_FLAG_DATA
360
311
  0
DICTIONARY
  5
320
330
31F
100
AcDbDictionary
280
     1
  3
ONSHAPE_VIEW_ID
360
321
  0
DICTIONARY
  5
3B3
330
326
100
AcDbDictionary
280
     1
  3
ACAD_MTEXT_RT
360
3B4
  0
DICTIONARY
  5
3B5
330
328
100
AcDbDictionary
280
     1
  3
ACAD_MTEXT_RT
360
3B6
  0
ACAD_PROXY_OBJECT
  5
1E9
102
{ACAD_REACTORS
330
C
102
}
330
C
100
AcDbProxyObject
 90
      499
 91
      509
 93
       11
310
4500
330
185
330
186
330
18C
330
18D
330
196
330
197
330
19C
330
19D
330
1B6
330
1B7
330
1C3
330
1C4
330
1CA
330
1CB
330
1D1
330
1D2
330
1D8
330
1D9
330
1E1
330
1E2
 94
        0
  0
DICTIONARY
  5
D
102
{ACAD_REACTORS
330
C
102
}
330
C
100
AcDbDictionary
  0
DICTIONARY
  5
1A
102
{ACAD_REACTORS
330
C
102
}
330
C
100
AcDbDictionary
  0
DICTIONARY
  5
43
102
{ACAD_REACTORS
330
C
102
}
330
C
100
AcDbDictionary
  3
BYBLOCK
350
45
  3
BYLAYER
350
44
  3
GLOBAL
350
46
  0
DICTIONARY
  5
6B
102
{ACAD_REACTORS
330
C
102
}
330
C
100
AcDbDictionary
  3
STANDARD
350
6C
  0
DICTIONARY
  5
17
102
{ACAD_REACTORS
330
C
102
}
330
C
100
AcDbDictionary
  3
STANDARD
350
18
  0
DICTIONARY
  5
19
102
{ACAD_REACTORS
330
C
102
}
330
C
100
AcDbDictionary
  0
DICTIONARY
  5
47
102
{ACAD_REACTORS
330
C
102
}
330
C
100
AcDbDictionary
  3
A0
350
48
  3
A1
350
49
  3
A2
350
4A
  3
A3
350
4B
  3
A4
350
4C
  3
A5
350
4D
  3
A6
350
4E
  3
A7
350
4F
  3
A8
350
50
  3
A9
350
51
  3
B0
350
52
  3
B1
350
53
  3
B2
350
54
  3
B3
350
55
  3
B4
350
56
  3
B5
350
57
  3
B6
350
58
  3
B7
350
59
  3
B8
350
5A
  3
B9
350
5B
  3
C0
350
5C
  3
C1
350
5D
  3
C2
350
5E
  3
C3
350
5F
  3
C4
350
60
  3
C5
350
61
  3
C6
350
62
  3
C7
350
63
  3
C8
350
64
  3
C9
350
65
  3
D0
350
66
  3
D1
350
67
  3
D2
350
68
  0
DICTIONARY
  5
2A
102
{ACAD_REACTORS
330
C
102
}
330
C
100
AcDbDictionary
  3
2DWIREFRAME
350
2F
  3
BASIC
350
32
  3
BRIGHTEN
350
36
  3
COLORCHANGE
350
3A
  3
CONCEPTUAL
350
34
  3
DIM
350
35
  3
EDGECOLOROFF
350
3D
  3
FACEPATTERN
350
39
  3
FLAT
350
2B
  3
FLATWITHEDGES
350
2C
  3
GOURAUD
350
2D
  3
GOURAUDWITHEDGES
350
2E
  3
HIDDEN
350
31
  3
JITTEROFF
350
3B
  3
LINEPATTERN
350
38
  3
OVERHANGOFF
350
3C
  3
REALISTIC
350
33
  3
SHADED
350
42
  3
SHADED_WITH_EDGES
350
41
  3
SHADES_OF_GRAY
350
3E
  3
SKETCHY
350
3F
  3
THICKEN
350
37
  3
WIREFRAME
350
30
  3
X-RAY
350
40
  0
XRECORD
  5
3C2
102
{ACAD_REACTORS
330
C
102
}
330
C
100
AcDbXrecord
 90
        1
330
1B8
330
1BC
330
328
330
326
  0
DICTIONARY
  5
389
102
{ACAD_REACTORS
330
C
102
}
330
C
100
AcDbDictionary
  3
CEPSNID
350
393
  3
CEPSNTYPE
350
392
  3
DIMSTYLEDATA
350
3A9
  3
FINGERPRINTGUID
350
394
  3
HYPERLINKBASE
350
38C
  3
INSUNITS
350
391
  3
LAYOUTDICT
350
38E
  3
LWETCUNION
350
390
  3
PLOTSETDICT
350
38F
  3
PSVPSCALE
350
396
  3
PUCSBASE
350
399
  3
PUCSORGBACK
350
39F
  3
PUCSORGBOTTOM
350
39B
  3
PUCSORGFRONT
350
39E
  3
PUCSORGLEFT
350
39C
  3
PUCSORGRIGHT
350
39D
  3
PUCSORGTOP
350
39A
  3
PUCSORTHOREF
350
397
  3
PUCSORTHOVIEW
350
398
  3
STYLESHEET
350
38D
  3
TSTACKALIGN
350
38A
  3
TSTACKSIZE
350
38B
  3
UCSBASE
350
3A2
  3
UCSORGBACK
350
3A8
  3
UCSORGBOTTOM
350
3A4
  3
UCSORGFRONT
350
3A7
  3
UCSORGLEFT
350
3A5
  3
UCSORGRIGHT
350
3A6
  3
UCSORGTOP
350
3A3
  3
UCSORTHOREF
350
3A0
  3
UCSORTHOVIEW
350
3A1
  3
VERSIONGUID
350
395
  0
DICTIONARY
  5
6E
102
{ACAD_REACTORS
330
C
102
}
330
C
100
AcDbDictionary
  3
CANNOSCALE
350
3B9
  3
CMLEADERSTYLE
350
3AB
  3
CTABLESTYLE
350
3AA
  3
DIMASSOC
350
3AE
  3
HIDETEXT
350
3AF
  3
MSLTSCALE
350
3BA
  3
OLEFRAME
350
6F
  0
XRECORD
  5
3B0
102
{ACAD_REACTORS
330
C
102
}
330
C
100
AcDbXrecord
  1
DWGPROPS COOKIE
  2

  3

  4

  6

  7

  8
nobody
  9

300
=
301
=
302
=
303
=
304
=
305
=
306
=
307
=
308
=
309
=
 40
0.0
 41
2461083.465166042
 42
2461083.46516706
  1

 90
        0
  0
DICTIONARY
  5
329
102
{ACAD_REACTORS
330
C
102
}
330
C
100
AcDbDictionary
280
     1
  3
DIM_UNITS
360
32A
  3
ONSHAPE_ANG_TOL_PRECISION
360
32D
  3
ONSHAPE_BREAK_DIMENSION_DEFAULT
360
333
  3
ONSHAPE_DIMENSION_TEXT_HOR
360
332
  3
ONSHAPE_FITCLASS_TOL_PRECISION
360
32E
  3
ONSHAPE_JOGDIMENSION_LOCK_
360
330
  3
ONSHAPE_SHOWDIMENSIONSLINE
360
331
  3
ONSHAPE_UNDERLINEOVERRIDEN
360
32F
  3
ONSHAPE_VSHARP_EXTENSION
360
32C
  3
ONSHAPE_WELD_STANDARD
360
32B
  0
XRECORD
  5
3B8
102
{ACAD_REACTORS
330
3B7
102
}
330
3B7
100
AcDbXrecord
102
VTR_0.000_0.000_1.000_1.000_VISUALSTYLE
340
2F
102
VTR_0.000_0.000_1.000_1.000_GRIDDISPLAY
 70
     3
102
VTR_0.000_0.000_1.000_1.000_GRIDMAJOR
 70
     5
102
VTR_0.000_0.000_1.000_1.000_DEFAULTLIGHTING
280
     1
102
VTR_0.000_0.000_1.000_1.000_DEFAULTLIGHTINGTYPE
 70
     1
102
VTR_0.000_0.000_1.000_1.000_BRIGHTNESS
141
0.0
102
VTR_0.000_0.000_1.000_1.000_CONTRAST
142
0.0
  0
XRECORD
  5
3B1
102
{ACAD_REACTORS
330
1B9
102
}
330
1B9
100
AcDbXrecord
 40
2127.0
  1
{\pxqc;Schale}
  0
XRECORD
  5
3B2
102
{ACAD_REACTORS
330
1BD
102
}
330
1BD
100
AcDbXrecord
 40
483.0
  1
{\pxqc;BfG}
  0
XRECORD
  5
1E5
102
{ACAD_REACTORS
330
1E4
102
}
330
1E4
100
AcDbXrecord
330
0
  0
XRECORD
  5
1EE
102
{ACAD_REACTORS
330
1EB
102
}
330
1EB
100
AcDbXrecord
 90
        1
 90
        0
  0
XRECORD
  5
209
102
{ACAD_REACTORS
330
206
102
}
330
206
100
AcDbXrecord
 90
        1
 90
        0
  0
XRECORD
  5
21B
102
{ACAD_REACTORS
330
218
102
}
330
218
100
AcDbXrecord
 90
        1
 90
        0
  0
XRECORD
  5
22D
102
{ACAD_REACTORS
330
22A
102
}
330
22A
100
AcDbXrecord
 90
        1
 90
        0
  0
XRECORD
  5
23F
102
{ACAD_REACTORS
330
23C
102
}
330
23C
100
AcDbXrecord
 90
        1
 90
        0
  0
XRECORD
  5
250
102
{ACAD_REACTORS
330
24F
102
}
330
24F
100
AcDbXrecord
330
0
  0
XRECORD
  5
259
102
{ACAD_REACTORS
330
256
102
}
330
256
100
AcDbXrecord
 90
        1
 90
        0
  0
XRECORD
  5
275
102
{ACAD_REACTORS
330
272
102
}
330
272
100
AcDbXrecord
 90
        1
 90
        0
  0
XRECORD
  5
285
102
{ACAD_REACTORS
330
284
102
}
330
284
100
AcDbXrecord
330
0
  0
XRECORD
  5
28C
102
{ACAD_REACTORS
330
28B
102
}
330
28B
100
AcDbXrecord
330
0
  0
XRECORD
  5
28F
102
{ACAD_REACTORS
330
28E
102
}
330
28E
100
AcDbXrecord
330
0
  0
XRECORD
  5
292
102
{ACAD_REACTORS
330
291
102
}
330
291
100
AcDbXrecord
330
0
  0
XRECORD
  5
295
102
{ACAD_REACTORS
330
294
102
}
330
294
100
AcDbXrecord
330
0
  0
XRECORD
  5
29A
102
{ACAD_REACTORS
330
297
102
}
330
297
100
AcDbXrecord
 90
        1
 90
        0
  0
XRECORD
  5
2B5
102
{ACAD_REACTORS
330
2B2
102
}
330
2B2
100
AcDbXrecord
 90
        1
 90
        0
  0
XRECORD
  5
2C7
102
{ACAD_REACTORS
330
2C4
102
}
330
2C4
100
AcDbXrecord
 90
        1
 90
        0
  0
XRECORD
  5
2DA
102
{ACAD_REACTORS
330
2D7
102
}
330
2D7
100
AcDbXrecord
 90
        1
 90
        0
  0
XRECORD
  5
2EC
102
{ACAD_REACTORS
330
2E9
102
}
330
2E9
100
AcDbXrecord
 90
        1
 90
        0
  0
XRECORD
  5
2FE
102
{ACAD_REACTORS
330
2FB
102
}
330
2FB
100
AcDbXrecord
 90
        1
 90
        0
  0
XRECORD
  5
311
102
{ACAD_REACTORS
330
30E
102
}
330
30E
100
AcDbXrecord
 90
        1
 90
        0
  0
XRECORD
  5
321
102
{ACAD_REACTORS
330
320
102
}
330
320
100
AcDbXrecord
330
0
  0
XRECORD
  5
3B4
102
{ACAD_REACTORS
330
3B3
102
}
330
3B3
100
AcDbXrecord
 40
8665.0
  1
{\pxql;Kleine Schale}
  0
XRECORD
  5
3B6
102
{ACAD_REACTORS
330
3B5
102
}
330
3B5
100
AcDbXrecord
 40
6876.0
  1
{\pxql;Groﬂe Schale}
  0
MATERIAL
  5
45
102
{ACAD_REACTORS
330
43
102
}
102
{ACAD_XDICTIONARY
360
3BD
102
}
330
43
100
AcDbMaterial
  1
BYBLOCK
  0
MATERIAL
  5
44
102
{ACAD_REACTORS
330
43
102
}
102
{ACAD_XDICTIONARY
360
3BB
102
}
330
43
100
AcDbMaterial
  1
BYLAYER
  0
MATERIAL
  5
46
102
{ACAD_REACTORS
330
43
102
}
102
{ACAD_XDICTIONARY
360
3BF
102
}
330
43
100
AcDbMaterial
  1
GLOBAL
  0
ACAD_PROXY_OBJECT
  5
6C
102
{ACAD_REACTORS
330
6B
102
}
330
6B
100
AcDbProxyObject
 90
      499
 91
      505
 93
      610
310
40901902A4063FBFFFFFE056BD1B81E855B9FC0AD7A3703D0AD73F4214DD185B99185C9900AD7A3703D0AC73F90140501A02B5E8DC0F42B1CFC02B5E8DC0F42B1CFE5764000000000000300FC0
340
14
340
0
340
11
340
0
 94
        0
1001
ACAD_MLEADERVER
1070
     2
  0
MLINESTYLE
  5
18
102
{ACAD_REACTORS
330
17
102
}
330
17
100
AcDbMlineStyle
  2
Standard
 70
     0
  3

 62
   256
 51
90.0
 52
90.0
 71
     2
 49
0.5
 62
   256
  6
BYLAYER
 49
-0.5
 62
   256
  6
BYLAYER
  0
ACAD_PROXY_OBJECT
  5
48
102
{ACAD_REACTORS
330
47
102
}
330
47
100
AcDbProxyObject
 90
      499
 91
      503
 93
       41
310
903313A31580
  0
ACAD_PROXY_OBJECT
  5
49
102
{ACAD_REACTORS
330
47
102
}
330
47
100
AcDbProxyObject
 90
      499
 91
      503
 93
      105
310
903313A324000000000000004000
  0
ACAD_PROXY_OBJECT
  5
4A
102
{ACAD_REACTORS
330
47
102
}
330
47
100
AcDbProxyObject
 90
      499
 91
      503
 93
      105
310
903313A344000000000000104000
  0
ACAD_PROXY_OBJECT
  5
4B
102
{ACAD_REACTORS
330
47
102
}
330
47
100
AcDbProxyObject
 90
      499
 91
      503
 93
      105
310
903313A354000000000000144000
  0
ACAD_PROXY_OBJECT
  5
4C
102
{ACAD_REACTORS
330
47
102
}
330
47
100
AcDbProxyObject
 90
      499
 91
      503
 93
      105
310
903313A384000000000000204000
  0
ACAD_PROXY_OBJECT
  5
4D
102
{ACAD_REACTORS
330
47
102
}
330
47
100
AcDbProxyObject
 90
      499
 91
      503
 93
      113
310
904313A31304000000000000244000
  0
ACAD_PROXY_OBJECT
  5
4E
102
{ACAD_REACTORS
330
47
102
}
330
47
100
AcDbProxyObject
 90
      499
 91
      503
 93
      113
310
904313A31364000000000000304000
  0
ACAD_PROXY_OBJECT
  5
4F
102
{ACAD_REACTORS
330
47
102
}
330
47
100
AcDbProxyObject
 90
      499
 91
      503
 93
      113
310
904313A32304000000000000344000
  0
ACAD_PROXY_OBJECT
  5
50
102
{ACAD_REACTORS
330
47
102
}
330
47
100
AcDbProxyObject
 90
      499
 91
      503
 93
      113
310
904313A333040000000000003E4000
  0
ACAD_PROXY_OBJECT
  5
51
102
{ACAD_REACTORS
330
47
102
}
330
47
100
AcDbProxyObject
 90
      499
 91
      503
 93
      113
310
904313A34304000000000000444000
  0
ACAD_PROXY_OBJECT
  5
52
102
{ACAD_REACTORS
330
47
102
}
330
47
100
AcDbProxyObject
 90
      499
 91
      503
 93
      113
310
904313A35304000000000000494000
  0
ACAD_PROXY_OBJECT
  5
53
102
{ACAD_REACTORS
330
47
102
}
330
47
100
AcDbProxyObject
 90
      499
 91
      503
 93
      121
310
905313A3130304000000000000594000
  0
ACAD_PROXY_OBJECT
  5
54
102
{ACAD_REACTORS
330
47
102
}
330
47
100
AcDbProxyObject
 90
      499
 91
      503
 93
      105
310
903323A310000000000000010100
  0
ACAD_PROXY_OBJECT
  5
55
102
{ACAD_REACTORS
330
47
102
}
330
47
100
AcDbProxyObject
 90
      499
 91
      503
 93
      105
310
903343A310000000000000410100
  0
ACAD_PROXY_OBJECT
  5
56
102
{ACAD_REACTORS
330
47
102
}
330
47
100
AcDbProxyObject
 90
      499
 91
      503
 93
      105
310
903383A310000000000000810100
  0
ACAD_PROXY_OBJECT
  5
57
102
{ACAD_REACTORS
330
47
102
}
330
47
100
AcDbProxyObject
 90
      499
 91
      503
 93
      113
310
90431303A310000000000000910100
  0
ACAD_PROXY_OBJECT
  5
58
102
{ACAD_REACTORS
330
47
102
}
330
47
100
AcDbProxyObject
 90
      499
 91
      503
 93
      121
310
9053130303A310000000000001650100
  0
ACAD_PROXY_OBJECT
  5
59
102
{ACAD_REACTORS
330
47
102
}
330
47
100
AcDbProxyObject
 90
      499
 91
      503
 93
      257
310
90E312F31323822203D2031272D3022000000000000200FC000000000000284000
  0
ACAD_PROXY_OBJECT
  5
5A
102
{ACAD_REACTORS
330
47
102
}
330
47
100
AcDbProxyObject
 90
      499
 91
      503
 93
      249
310
90D312F363422203D2031272D3022000000000000240FC000000000000284000
  0
ACAD_PROXY_OBJECT
  5
5B
102
{ACAD_REACTORS
330
47
102
}
330
47
100
AcDbProxyObject
 90
      499
 91
      503
 93
      249
310
90D312F333222203D2031272D3022000000000000280FC000000000000284000
  0
ACAD_PROXY_OBJECT
  5
5C
102
{ACAD_REACTORS
330
47
102
}
330
47
100
AcDbProxyObject
 90
      499
 91
      503
 93
      249
310
90D312F313622203D2031272D30220000000000002C0FC000000000000284000
  0
ACAD_PROXY_OBJECT
  5
5D
102
{ACAD_REACTORS
330
47
102
}
330
47
100
AcDbProxyObject
 90
      499
 91
      503
 93
      249
310
90D332F333222203D2031272D30220000000000002E0FC000000000000284000
  0
ACAD_PROXY_OBJECT
  5
5E
102
{ACAD_REACTORS
330
47
102
}
330
47
100
AcDbProxyObject
 90
      499
 91
      503
 93
      241
310
90C312F3822203D2031272D3022000000000000300FC000000000000284000
  0
ACAD_PROXY_OBJECT
  5
5F
102
{ACAD_REACTORS
330
47
102
}
330
47
100
AcDbProxyObject
 90
      499
 91
      503
 93
      249
310
90D332F313622203D2031272D3022000000000000320FC000000000000284000
  0
ACAD_PROXY_OBJECT
  5
60
102
{ACAD_REACTORS
330
47
102
}
330
47
100
AcDbProxyObject
 90
      499
 91
      503
 93
      241
310
90C312F3422203D2031272D3022000000000000340FC000000000000284000
  0
ACAD_PROXY_OBJECT
  5
61
102
{ACAD_REACTORS
330
47
102
}
330
47
100
AcDbProxyObject
 90
      499
 91
      503
 93
      241
310
90C332F3822203D2031272D3022000000000000360FC000000000000284000
  0
ACAD_PROXY_OBJECT
  5
62
102
{ACAD_REACTORS
330
47
102
}
330
47
100
AcDbProxyObject
 90
      499
 91
      503
 93
      241
310
90C312F3222203D2031272D3022000000000000380FC000000000000284000
  0
ACAD_PROXY_OBJECT
  5
63
102
{ACAD_REACTORS
330
47
102
}
330
47
100
AcDbProxyObject
 90
      499
 91
      503
 93
      241
310
90C332F3422203D2031272D30220000000000003A0FC000000000000284000
  0
ACAD_PROXY_OBJECT
  5
64
102
{ACAD_REACTORS
330
47
102
}
330
47
100
AcDbProxyObject
 90
      499
 91
      503
 93
      161
310
90A3122203D2031272D30224000000000000284000
  0
ACAD_PROXY_OBJECT
  5
65
102
{ACAD_REACTORS
330
47
102
}
330
47
100
AcDbProxyObject
 90
      499
 91
      503
 93
      257
310
90E312D312F3222203D2031272D30220000000000003E0FC000000000000284000
  0
ACAD_PROXY_OBJECT
  5
66
102
{ACAD_REACTORS
330
47
102
}
330
47
100
AcDbProxyObject
 90
      499
 91
      503
 93
      225
310
90A3322203D2031272D302200000000000002100000000000000284000
  0
ACAD_PROXY_OBJECT
  5
67
102
{ACAD_REACTORS
330
47
102
}
330
47
100
AcDbProxyObject
 90
      499
 91
      503
 93
      225
310
90A3622203D2031272D302200000000000006100000000000000284000
  0
ACAD_PROXY_OBJECT
  5
68
102
{ACAD_REACTORS
330
47
102
}
330
47
100
AcDbProxyObject
 90
      499
 91
      503
 93
      249
310
90D31272D3022203D2031272D30220000000000000A100000000000000284000
  0
ACAD_PROXY_OBJECT
  5
2F
102
{ACAD_REACTORS
330
2A
102
}
330
2A
100
AcDbProxyObject
 90
      499
 91
      501
 93
      436
310
42CC9915DA5C99599C985B595049028333333333333E33F0000000000000F90107901411070040501600405405064090741402480A0340
1001
ACAD
1000
AcDbSavedByObjectVersion
1070
     0
  0
ACAD_PROXY_OBJECT
  5
32
102
{ACAD_REACTORS
330
2A
102
}
330
2A
100
AcDbProxyObject
 90
      499
 91
      501
 93
      388
310
4150985CDA58D07406404333333333333E33F0000000000000F90107A41107004050150841D405064090741402480A0350
1001
ACAD
1000
AcDbSavedByObjectVersion
1070
     0
  0
ACAD_PROXY_OBJECT
  5
36
102
{ACAD_REACTORS
330
2A
102
}
330
2A
100
AcDbProxyObject
 90
      499
 91
      501
 93
      428
310
42109C9A59DA1D195B90C409028333333333333E33F0000000000000F9010790141107004050150841D405064090741402480A029950
1001
ACAD
1000
AcDbSavedByObjectVersion
1070
     0
  0
ACAD_PROXY_OBJECT
  5
3A
102
{ACAD_REACTORS
330
2A
102
}
330
2A
100
AcDbProxyObject
 90
      499
 91
      501
 93
      452
310
42D0DBDB1BDC90DA185B99D95104090240C333333333333E33F0000000000000F90108901411070040501508421405064090741402480A0350
1001
ACAD
1000
AcDbSavedByObjectVersion
1070
     0
  0
ACAD_PROXY_OBJECT
  5
34
102
{ACAD_REACTORS
330
2A
102
}
330
2A
100
AcDbProxyObject
 90
      499
 91
      501
 93
      500
310
4290DBDB98D95C1D1D585B10940D028333333333333E33F0000000000000F90107902409070040501000000000018199010841D405064090740C02480A0340
1001
ACAD
1000
AcDbSavedByObjectVersion
1070
     0
  0
ACAD_PROXY_OBJECT
  5
35
102
{ACAD_REACTORS
330
2A
102
}
330
2A
100
AcDbProxyObject
 90
      499
 91
      501
 93
      412
310
40D11A5B50B409028333333333333E33F0000000000000F9010790141107004050150841D405064090741402480A02677FFFFFD0
1001
ACAD
1000
AcDbSavedByObjectVersion
1070
     0
  0
ACAD_PROXY_OBJECT
  5
3D
102
{ACAD_REACTORS
330
2A
102
}
330
2A
100
AcDbProxyObject
 90
      499
 91
      501
 93
      452
310
43115919D950DBDB1BDC93D999916409028333333333333E33F0000000000000F9010790141107004050150841D405064090741402480A0350
1001
ACAD
1000
AcDbSavedByObjectVersion
1070
     0
  0
ACAD_PROXY_OBJECT
  5
39
102
{ACAD_REACTORS
330
2A
102
}
330
2A
100
AcDbProxyObject
 90
      499
 91
      501
 93
      444
310
42D19858D95C185D1D195C9B90F409028333333333333E33F0000000000000F9010790141107004050150841D405064090741402480A0350
1001
ACAD
1000
AcDbSavedByObjectVersion
1070
     0
  0
ACAD_PROXY_OBJECT
  5
2B
102
{ACAD_REACTORS
330
2A
102
}
330
2A
100
AcDbProxyObject
 90
      499
 91
      501
 93
      380
310
41119B185D240901404333333333333E33F0000000000000F9010740A907004050150841D405064090741402480A1B50
1001
ACAD
1000
AcDbSavedByObjectVersion
1070
     0
  0
ACAD_PROXY_OBJECT
  5
2C
102
{ACAD_REACTORS
330
2A
102
}
330
2A
100
AcDbProxyObject
 90
      499
 91
      501
 93
      468
310
43519B185D15DA5D1A115919D95CD0140901404333333333333E33F0000000000000F90107409019070040501600405405064090741402480A1B50
1001
ACAD
1000
AcDbSavedByObjectVersion
1070
     0
  0
ACAD_PROXY_OBJECT
  5
2D
102
{ACAD_REACTORS
330
2A
102
}
330
2A
100
AcDbProxyObject
 90
      499
 91
      501
 93
      404
310
41D1DBDD5C985D5910240902404333333333333E33F0000000000000F9010740A9070040501641D405064090741402480A1B50
1001
ACAD
1000
AcDbSavedByObjectVersion
1070
     0
  0
ACAD_PROXY_OBJECT
  5
2E
102
{ACAD_REACTORS
330
2A
102
}
330
2A
100
AcDbProxyObject
 90
      499
 91
      501
 93
      492
310
4411DBDD5C985D5915DA5D1A115919D95CD0340902404333333333333E33F0000000000000F90107409019070040501600405405064090741402480A1B50
1001
ACAD
1000
AcDbSavedByObjectVersion
1070
     0
  0
ACAD_PROXY_OBJECT
  5
31
102
{ACAD_REACTORS
330
2A
102
}
330
2A
100
AcDbProxyObject
 90
      499
 91
      501
 93
      476
310
41921A5919195B90640502408333333333333E33F0000000000000F901079024090700405020000000000001110200405405064090740C02480A0340
1001
ACAD
1000
AcDbSavedByObjectVersion
1070
     0
  0
ACAD_PROXY_OBJECT
  5
3B
102
{ACAD_REACTORS
330
2A
102
}
330
2A
100
AcDbProxyObject
 90
      499
 91
      501
 93
      428
310
42529A5D1D195C93D999914409028333333333333E33F0000000000000F9010790141107004050150A41D405064090741402480A0350
1001
ACAD
1000
AcDbSavedByObjectVersion
1070
     0
  0
ACAD_PROXY_OBJECT
  5
38
102
{ACAD_REACTORS
330
2A
102
}
330
2A
100
AcDbProxyObject
 90
      499
 91
      501
 93
      444
310
42D31A5B995C185D1D195C9B90E409028333333333333E33F0000000000000F9010790141107004050750841D405064090741402483A0350
1001
ACAD
1000
AcDbSavedByObjectVersion
1070
     0
  0
ACAD_PROXY_OBJECT
  5
3C
102
{ACAD_REACTORS
330
2A
102
}
330
2A
100
AcDbProxyObject
 90
      499
 91
      501
 93
      444
310
42D3DD995C9A185B99D3D999915409028333333333333E33F0000000000000F9010790141107004050150941D405064090741402480A0350
1001
ACAD
1000
AcDbSavedByObjectVersion
1070
     0
  0
ACAD_PROXY_OBJECT
  5
33
102
{ACAD_REACTORS
330
2A
102
}
330
2A
100
AcDbProxyObject
 90
      499
 91
      501
 93
      428
310
425499585B1A5CDD1A58D08409038333333333333E33F0000000000000F9010740A907004050150800405405064090740C02480A1B40
1001
ACAD
1000
AcDbSavedByObjectVersion
1070
     0
  0
ACAD_PROXY_OBJECT
  5
42
102
{ACAD_REACTORS
330
2A
102
}
330
2A
100
AcDbProxyObject
 90
      499
 91
      501
 93
      420
310
4194DA1859195911B40902404333333333333E33F0000000000000F9010740A41107004050150800405405064090840C02480A0B40
1001
ACAD
1000
AcDbSavedByObjectVersion
1070
     0
  0
ACAD_PROXY_OBJECT
  5
41
102
{ACAD_REACTORS
330
2A
102
}
330
2A
100
AcDbProxyObject
 90
      499
 91
      501
 93
      516
310
4454DA18591959081DDA5D1A08195919D95CD1A40902404333333333333E33F0000000000000F901074090142907004050250800405405064090740C02480A0B40
1001
ACAD
1000
AcDbSavedByObjectVersion
1070
     0
  0
ACAD_PROXY_OBJECT
  5
3E
102
{ACAD_REACTORS
330
2A
102
}
330
2A
100
AcDbProxyObject
 90
      499
 91
      501
 93
      532
310
4394DA1859195CC81BD98811DC985E5174090240C333333333333E33F0000000000000F901079024090741D01000000000000111010841D405064090740C02480A0340
1001
ACAD
1000
AcDbSavedByObjectVersion
1070
     0
  0
ACAD_PROXY_OBJECT
  5
3F
102
{ACAD_REACTORS
330
2A
102
}
330
2A
100
AcDbProxyObject
 90
      499
 91
      501
 93
      476
310
41D4DAD95D18DA1E51840502408333333333333E33F0000000000000F901079024090741D01000000000000111010B41D405064090741802480A0340
1001
ACAD
1000
AcDbSavedByObjectVersion
1070
     0
  0
ACAD_PROXY_OBJECT
  5
37
102
{ACAD_REACTORS
330
2A
102
}
330
2A
100
AcDbProxyObject
 90
      499
 91
      501
 93
      412
310
41D51A1A58DAD95B90D409028333333333333E33F0000000000000F9010790141107004050150C41D405064090741402480A0350
1001
ACAD
1000
AcDbSavedByObjectVersion
1070
     0
  0
ACAD_PROXY_OBJECT
  5
30
102
{ACAD_REACTORS
330
2A
102
}
330
2A
100
AcDbProxyObject
 90
      499
 91
      501
 93
      420
310
4255DA5C99599C985B595059028333333333333E33F0000000000000F90107901411070040501600405405064090740C02480A0340
1001
ACAD
1000
AcDbSavedByObjectVersion
1070
     0
  0
ACAD_PROXY_OBJECT
  5
40
102
{ACAD_REACTORS
330
2A
102
}
330
2A
100
AcDbProxyObject
 90
      499
 91
      501
 93
      404
310
41560B54985E51940902404000000000000E03F0000000000000F9010740501907004050150841D405064090740C02480A1B40
1001
ACAD
1000
AcDbSavedByObjectVersion
1070
     0
  0
XRECORD
  5
393
102
{ACAD_REACTORS
330
389
102
}
330
389
100
AcDbXrecord
340
0
  0
XRECORD
  5
392
102
{ACAD_REACTORS
330
389
102
}
330
389
100
AcDbXrecord
 90
        0
  0
XRECORD
  5
3A9
102
{ACAD_REACTORS
330
389
102
}
330
389
100
AcDbXrecord
1000
DSTYLE
1002
{
1070
   179
 70
     1
1070
   171
 70
     3
1070
   143
 40
0.03937
1070
   274
 70
     3
1070
   285
 70
     8
1070
    41
 40
2.5
1070
   141
 40
2.5
1070
   176
 70
     7
1070
   177
 70
     7
1070
   178
 70
     7
1070
   271
 70
     2
1070
    43
 40
3.75
1070
   278
 70
    44
1070
    44
 40
1.25
1070
    42
 40
0.625
1070
   147
 40
0.625
1070
   144
 40
4.0
1070
   371
 70
    13
1070
   372
 70
    13
1070
    77
 70
     1
1070
   272
 70
     2
1070
    73
 70
     0
1070
   172
 70
     1
1070
    74
 70
     0
1070
   283
 70
     0
1070
   340
340
73
1070
   140
 40
3.5
1070
   284
 70
     8
1070
   288
 70
     1
1070
    78
 70
     8
1002
}
  0
XRECORD
  5
394
102
{ACAD_REACTORS
330
389
102
}
330
389
100
AcDbXrecord
  1
{74663338-7538-3761-e536-3073e5b53430}
  0
XRECORD
  5
38C
102
{ACAD_REACTORS
330
389
102
}
330
389
100
AcDbXrecord
  1

  0
XRECORD
  5
391
102
{ACAD_REACTORS
330
389
102
}
330
389
100
AcDbXrecord
 90
        0
  0
XRECORD
  5
38E
102
{ACAD_REACTORS
330
389
102
}
330
389
100
AcDbXrecord
340
1A
  0
XRECORD
  5
390
102
{ACAD_REACTORS
330
389
102
}
330
389
100
AcDbXrecord
 90
    10269
  0
XRECORD
  5
38F
102
{ACAD_REACTORS
330
389
102
}
330
389
100
AcDbXrecord
340
19
  0
XRECORD
  5
396
102
{ACAD_REACTORS
330
389
102
}
330
389
100
AcDbXrecord
 40
0.0
  0
XRECORD
  5
399
102
{ACAD_REACTORS
330
389
102
}
330
389
100
AcDbXrecord
340
0
  0
XRECORD
  5
39F
102
{ACAD_REACTORS
330
389
102
}
330
389
100
AcDbXrecord
 10
0.0
 20
0.0
 30
0.0
  0
XRECORD
  5
39B
102
{ACAD_REACTORS
330
389
102
}
330
389
100
AcDbXrecord
 10
0.0
 20
0.0
 30
0.0
  0
XRECORD
  5
39E
102
{ACAD_REACTORS
330
389
102
}
330
389
100
AcDbXrecord
 10
0.0
 20
0.0
 30
0.0
  0
XRECORD
  5
39C
102
{ACAD_REACTORS
330
389
102
}
330
389
100
AcDbXrecord
 10
0.0
 20
0.0
 30
0.0
  0
XRECORD
  5
39D
102
{ACAD_REACTORS
330
389
102
}
330
389
100
AcDbXrecord
 10
0.0
 20
0.0
 30
0.0
  0
XRECORD
  5
39A
102
{ACAD_REACTORS
330
389
102
}
330
389
100
AcDbXrecord
 10
0.0
 20
0.0
 30
0.0
  0
XRECORD
  5
397
102
{ACAD_REACTORS
330
389
102
}
330
389
100
AcDbXrecord
340
0
  0
XRECORD
  5
398
102
{ACAD_REACTORS
330
389
102
}
330
389
100
AcDbXrecord
 70
     0
  0
XRECORD
  5
38D
102
{ACAD_REACTORS
330
389
102
}
330
389
100
AcDbXrecord
  1

  0
XRECORD
  5
38A
102
{ACAD_REACTORS
330
389
102
}
330
389
100
AcDbXrecord
 90
        1
  0
XRECORD
  5
38B
102
{ACAD_REACTORS
330
389
102
}
330
389
100
AcDbXrecord
 90
       70
  0
XRECORD
  5
3A2
102
{ACAD_REACTORS
330
389
102
}
330
389
100
AcDbXrecord
340
0
  0
XRECORD
  5
3A8
102
{ACAD_REACTORS
330
389
102
}
330
389
100
AcDbXrecord
 10
0.0
 20
0.0
 30
0.0
  0
XRECORD
  5
3A4
102
{ACAD_REACTORS
330
389
102
}
330
389
100
AcDbXrecord
 10
0.0
 20
0.0
 30
0.0
  0
XRECORD
  5
3A7
102
{ACAD_REACTORS
330
389
102
}
330
389
100
AcDbXrecord
 10
0.0
 20
0.0
 30
0.0
  0
XRECORD
  5
3A5
102
{ACAD_REACTORS
330
389
102
}
330
389
100
AcDbXrecord
 10
0.0
 20
0.0
 30
0.0
  0
XRECORD
  5
3A6
102
{ACAD_REACTORS
330
389
102
}
330
389
100
AcDbXrecord
 10
0.0
 20
0.0
 30
0.0
  0
XRECORD
  5
3A3
102
{ACAD_REACTORS
330
389
102
}
330
389
100
AcDbXrecord
 10
0.0
 20
0.0
 30
0.0
  0
XRECORD
  5
3A0
102
{ACAD_REACTORS
330
389
102
}
330
389
100
AcDbXrecord
340
0
  0
XRECORD
  5
3A1
102
{ACAD_REACTORS
330
389
102
}
330
389
100
AcDbXrecord
 70
     0
  0
XRECORD
  5
395
102
{ACAD_REACTORS
330
389
102
}
330
389
100
AcDbXrecord
  1
{FAEB1C32-E019-11D5-929B-00C0DF256EC4}
  0
DICTIONARYVAR
  5
3B9
102
{ACAD_REACTORS
330
6E
102
}
330
6E
100
DictionaryVariables
280
     0
  1
1:1
  0
DICTIONARYVAR
  5
3AB
102
{ACAD_REACTORS
330
6E
102
}
330
6E
100
DictionaryVariables
280
     0
  1
Standard
  0
DICTIONARYVAR
  5
3AA
102
{ACAD_REACTORS
330
6E
102
}
330
6E
100
DictionaryVariables
280
     0
  1
Onshape-Standard
  0
DICTIONARYVAR
  5
3AE
102
{ACAD_REACTORS
330
6E
102
}
330
6E
100
DictionaryVariables
280
     0
  1
2
  0
DICTIONARYVAR
  5
3AF
102
{ACAD_REACTORS
330
6E
102
}
330
6E
100
DictionaryVariables
280
     0
  1
1
  0
DICTIONARYVAR
  5
3BA
102
{ACAD_REACTORS
330
6E
102
}
330
6E
100
DictionaryVariables
280
     0
  1
1
  0
DICTIONARYVAR
  5
6F
102
{ACAD_REACTORS
330
6E
102
}
330
6E
100
DictionaryVariables
280
     0
  1
0
  0
XRECORD
  5
32A
102
{ACAD_REACTORS
330
329
102
}
330
329
100
AcDbXrecord
 70
     0
  0
XRECORD
  5
32D
102
{ACAD_REACTORS
330
329
102
}
330
329
100
AcDbXrecord
 90
        0
  0
ACAD_PROXY_OBJECT
  5
333
102
{ACAD_REACTORS
330
329
102
}
330
329
100
AcDbProxyObject
 90
      499
 91
      511
 93
       34
310
40C8804040
  0
XRECORD
  5
332
102
{ACAD_REACTORS
330
329
102
}
330
329
100
AcDbXrecord
 90
        5
  0
XRECORD
  5
32E
102
{ACAD_REACTORS
330
329
102
}
330
329
100
AcDbXrecord
 90
        0
  0
XRECORD
  5
330
102
{ACAD_REACTORS
330
329
102
}
330
329
100
AcDbXrecord
 90
        0
  0
ACAD_PROXY_OBJECT
  5
331
102
{ACAD_REACTORS
330
329
102
}
330
329
100
AcDbProxyObject
 90
      499
 91
      511
 93
       34
310
40C8804040
  0
ACAD_PROXY_OBJECT
  5
32F
102
{ACAD_REACTORS
330
329
102
}
330
329
100
AcDbProxyObject
 90
      499
 91
      511
 93
       34
310
40C8804040
  0
XRECORD
  5
32C
102
{ACAD_REACTORS
330
329
102
}
330
329
100
AcDbXrecord
 90
        0
  0
XRECORD
  5
32B
102
{ACAD_REACTORS
330
329
102
}
330
329
100
AcDbXrecord
 90
        1
  0
DICTIONARY
  5
3BD
330
45
100
AcDbDictionary
280
     1
  3
ACAD_XREC_ROUNDTRIP
360
3BE
  0
DICTIONARY
  5
3BB
330
44
100
AcDbDictionary
280
     1
  3
ACAD_XREC_ROUNDTRIP
360
3BC
  0
DICTIONARY
  5
3BF
330
46
100
AcDbDictionary
280
     1
  3
ACAD_XREC_ROUNDTRIP
360
3C0
  0
XRECORD
  5
3BE
102
{ACAD_REACTORS
330
3BD
102
}
330
3BD
100
AcDbXrecord
102
MATERIAL
148
0.0
149
0.0
149
0.0
 93
        0
 94
      127
282
     0
 72
     1
 77
     1
171
     1
175
     1
179
     1
273
     0
  0
XRECORD
  5
3BC
102
{ACAD_REACTORS
330
3BB
102
}
330
3BB
100
AcDbXrecord
102
MATERIAL
148
0.0
149
0.0
149
0.0
 93
        0
 94
      127
282
     0
 72
     1
 77
     1
171
     1
175
     1
179
     1
273
     0
  0
XRECORD
  5
3C0
102
{ACAD_REACTORS
330
3BF
102
}
330
3BF
100
AcDbXrecord
102
MATERIAL
148
0.0
149
0.0
149
0.0
 93
        0
 94
      127
282
     0
 72
     1
 77
     1
171
     1
175
     1
179
     1
273
     0
  0
ENDSEC
  0
EOF
