ISO-10303-21;
HEADER;
/* Generated by software containing ST-Developer
 * from STEP Tools, Inc. (www.steptools.com) 
 */
/* OPTION: using custom renumber hook */

FILE_DESCRIPTION(
/* description */ ('STEP AP242 Edition 2',
'CAx-IF Rec.Pracs.---Representation and Presentation of Product Manufa
cturing Information (PMI)---4.0---2014-10-13',
'CAx-IF Rec.Pracs.---3D Tessellated Geometry---0.4---2014-09-14','2;1',
'CAx-IF Rec.Pracs.---User Defined Attributes---1.5---2016-08-15'),
/* implementation_level */ '2;1');

FILE_NAME(
/* name */ '69888ba1d67534afdc18dcd4',
/* time_stamp */ '2026-02-08T13:12:02Z',
/* author */ (''),
/* organization */ (''),
/* preprocessor_version */ 'ST-DEVELOPER v20',
/* originating_system */ 'ONSHAPE BY PTC INC, 1.210',
/* authorisation */ '  ');

FILE_SCHEMA (('AP242_MANAGED_MODEL_BASED_3D_ENGINEERING_MIM_LF { 1 0 10303 442 3 1 4 }'));
ENDSEC;

DATA;
#10=SHAPE_REPRESENTATION_RELATIONSHIP('','',#115,#11);
#11=ADVANCED_BREP_SHAPE_REPRESENTATION('',(#113),#177);
#12=ORIENTED_EDGE('',*,*,#36,.F.);
#13=ORIENTED_EDGE('',*,*,#37,.F.);
#14=ORIENTED_EDGE('',*,*,#38,.T.);
#15=ORIENTED_EDGE('',*,*,#39,.T.);
#16=ORIENTED_EDGE('',*,*,#40,.T.);
#17=ORIENTED_EDGE('',*,*,#41,.F.);
#18=ORIENTED_EDGE('',*,*,#42,.F.);
#19=ORIENTED_EDGE('',*,*,#37,.T.);
#20=ORIENTED_EDGE('',*,*,#43,.T.);
#21=ORIENTED_EDGE('',*,*,#44,.F.);
#22=ORIENTED_EDGE('',*,*,#45,.F.);
#23=ORIENTED_EDGE('',*,*,#41,.T.);
#24=ORIENTED_EDGE('',*,*,#46,.F.);
#25=ORIENTED_EDGE('',*,*,#39,.F.);
#26=ORIENTED_EDGE('',*,*,#47,.T.);
#27=ORIENTED_EDGE('',*,*,#44,.T.);
#28=ORIENTED_EDGE('',*,*,#38,.F.);
#29=ORIENTED_EDGE('',*,*,#42,.T.);
#30=ORIENTED_EDGE('',*,*,#45,.T.);
#31=ORIENTED_EDGE('',*,*,#47,.F.);
#32=ORIENTED_EDGE('',*,*,#36,.T.);
#33=ORIENTED_EDGE('',*,*,#46,.T.);
#34=ORIENTED_EDGE('',*,*,#43,.F.);
#35=ORIENTED_EDGE('',*,*,#40,.F.);
#36=EDGE_CURVE('',#48,#49,#56,.T.);
#37=EDGE_CURVE('',#50,#48,#57,.T.);
#38=EDGE_CURVE('',#50,#51,#58,.T.);
#39=EDGE_CURVE('',#51,#49,#59,.T.);
#40=EDGE_CURVE('',#48,#52,#60,.T.);
#41=EDGE_CURVE('',#53,#52,#61,.T.);
#42=EDGE_CURVE('',#50,#53,#62,.T.);
#43=EDGE_CURVE('',#52,#54,#63,.T.);
#44=EDGE_CURVE('',#55,#54,#64,.T.);
#45=EDGE_CURVE('',#53,#55,#65,.T.);
#46=EDGE_CURVE('',#49,#54,#66,.T.);
#47=EDGE_CURVE('',#51,#55,#67,.T.);
#48=VERTEX_POINT('',#152);
#49=VERTEX_POINT('',#153);
#50=VERTEX_POINT('',#155);
#51=VERTEX_POINT('',#157);
#52=VERTEX_POINT('',#161);
#53=VERTEX_POINT('',#163);
#54=VERTEX_POINT('',#167);
#55=VERTEX_POINT('',#169);
#56=LINE('',#151,#68);
#57=LINE('',#154,#69);
#58=LINE('',#156,#70);
#59=LINE('',#158,#71);
#60=LINE('',#160,#72);
#61=LINE('',#162,#73);
#62=LINE('',#164,#74);
#63=LINE('',#166,#75);
#64=LINE('',#168,#76);
#65=LINE('',#170,#77);
#66=LINE('',#172,#78);
#67=LINE('',#173,#79);
#68=VECTOR('',#127,1.);
#69=VECTOR('',#128,1.);
#70=VECTOR('',#129,1.);
#71=VECTOR('',#130,1.);
#72=VECTOR('',#133,1.);
#73=VECTOR('',#134,1.);
#74=VECTOR('',#135,1.);
#75=VECTOR('',#138,1.);
#76=VECTOR('',#139,1.);
#77=VECTOR('',#140,1.);
#78=VECTOR('',#143,1.);
#79=VECTOR('',#144,1.);
#80=EDGE_LOOP('',(#12,#13,#14,#15));
#81=EDGE_LOOP('',(#16,#17,#18,#19));
#82=EDGE_LOOP('',(#20,#21,#22,#23));
#83=EDGE_LOOP('',(#24,#25,#26,#27));
#84=EDGE_LOOP('',(#28,#29,#30,#31));
#85=EDGE_LOOP('',(#32,#33,#34,#35));
#86=FACE_BOUND('',#80,.T.);
#87=FACE_BOUND('',#81,.T.);
#88=FACE_BOUND('',#82,.T.);
#89=FACE_BOUND('',#83,.T.);
#90=FACE_BOUND('',#84,.T.);
#91=FACE_BOUND('',#85,.T.);
#92=PLANE('',#117);
#93=PLANE('',#118);
#94=PLANE('',#119);
#95=PLANE('',#120);
#96=PLANE('',#121);
#97=PLANE('',#122);
#98=ADVANCED_FACE('',(#86),#92,.T.);
#99=ADVANCED_FACE('',(#87),#93,.F.);
#100=ADVANCED_FACE('',(#88),#94,.F.);
#101=ADVANCED_FACE('',(#89),#95,.T.);
#102=ADVANCED_FACE('',(#90),#96,.T.);
#103=ADVANCED_FACE('',(#91),#97,.F.);
#104=CLOSED_SHELL('',(#98,#99,#100,#101,#102,#103));
#105=STYLED_ITEM('',(#106),#113);
#106=PRESENTATION_STYLE_ASSIGNMENT((#107));
#107=SURFACE_STYLE_USAGE(.BOTH.,#108);
#108=SURFACE_SIDE_STYLE('',(#109));
#109=SURFACE_STYLE_FILL_AREA(#110);
#110=FILL_AREA_STYLE('',(#111));
#111=FILL_AREA_STYLE_COLOUR('',#112);
#112=COLOUR_RGB('',0.647058823529412,0.647058823529412,0.647058823529412);
#113=MANIFOLD_SOLID_BREP('24',#104);
#114=SHAPE_DEFINITION_REPRESENTATION(#182,#115);
#115=SHAPE_REPRESENTATION('24',(#116),#177);
#116=AXIS2_PLACEMENT_3D('',#149,#123,#124);
#117=AXIS2_PLACEMENT_3D('',#150,#125,#126);
#118=AXIS2_PLACEMENT_3D('',#159,#131,#132);
#119=AXIS2_PLACEMENT_3D('',#165,#136,#137);
#120=AXIS2_PLACEMENT_3D('',#171,#141,#142);
#121=AXIS2_PLACEMENT_3D('',#174,#145,#146);
#122=AXIS2_PLACEMENT_3D('',#175,#147,#148);
#123=DIRECTION('',(0.,0.,1.));
#124=DIRECTION('',(1.,0.,0.));
#125=DIRECTION('',(-0.838670567945424,0.440622235127129,0.320130792604637));
#126=DIRECTION('',(-0.465098825446677,-0.885258765880419,0.));
#127=DIRECTION('',(-3.02335398391655E-17,0.587785252292473,-0.809016994374948));
#128=DIRECTION('',(-0.544639035015027,-0.678498742149937,-0.492958191370073));
#129=DIRECTION('',(-3.02335398391655E-17,0.587785252292473,-0.809016994374948));
#130=DIRECTION('',(-0.544639035015027,-0.678498742149937,-0.492958191370073));
#131=DIRECTION('',(5.42101086242752E-17,0.587785252292473,-0.809016994374948));
#132=DIRECTION('',(0.,0.809016994374948,0.587785252292473));
#133=DIRECTION('',(0.838670567945424,-0.440622235127129,-0.320130792604637));
#134=DIRECTION('',(-0.544639035015027,-0.678498742149937,-0.492958191370073));
#135=DIRECTION('',(0.838670567945424,-0.440622235127129,-0.320130792604637));
#136=DIRECTION('',(-0.838670567945424,0.440622235127129,0.320130792604637));
#137=DIRECTION('',(-0.465098825446677,-0.885258765880419,0.));
#138=DIRECTION('',(3.02335398391655E-17,0.587785252292473,-0.809016994374948));
#139=DIRECTION('',(-0.544639035015027,-0.678498742149937,-0.492958191370073));
#140=DIRECTION('',(3.02335398391655E-17,0.587785252292473,-0.809016994374948));
#141=DIRECTION('',(5.42101086242752E-17,0.587785252292473,-0.809016994374948));
#142=DIRECTION('',(0.,0.809016994374948,0.587785252292473));
#143=DIRECTION('',(0.838670567945424,-0.440622235127129,-0.320130792604637));
#144=DIRECTION('',(0.838670567945424,-0.440622235127129,-0.320130792604637));
#145=DIRECTION('',(0.544639035015027,0.678498742149937,0.492958191370073));
#146=DIRECTION('',(-0.838670567945424,0.440622235127129,0.320130792604637));
#147=DIRECTION('',(0.544639035015027,0.678498742149937,0.492958191370073));
#148=DIRECTION('',(-0.838670567945424,0.440622235127129,0.320130792604637));
#149=CARTESIAN_POINT('',(0.,0.,0.));
#150=CARTESIAN_POINT('',(-1.22450995730023,0.728610524401858,0.327818138777706));
#151=CARTESIAN_POINT('',(-1.22505459633524,0.727932025659708,0.327325180586336));
#152=CARTESIAN_POINT('',(-1.22505459633524,0.369148911279306,0.821147772589865));
#153=CARTESIAN_POINT('',(-1.22505459633524,1.08671514004011,-0.16649741141719));
#154=CARTESIAN_POINT('',(-1.22450995730023,0.369827410021456,0.821640730781235));
#155=CARTESIAN_POINT('',(-1.22450995730023,0.369827410021456,0.821640730781235));
#156=CARTESIAN_POINT('',(-1.22450995730023,0.728610524401858,0.327818138777706));
#157=CARTESIAN_POINT('',(-1.22450995730023,1.08739363878226,-0.166004453225821));
#158=CARTESIAN_POINT('',(-1.22450995730023,1.08739363878226,-0.166004453225821));
#159=CARTESIAN_POINT('',(-0.326880137829424,-0.101770941570782,0.479004472212249));
#160=CARTESIAN_POINT('',(-0.327424776864439,-0.102449440312932,0.478511514020879));
#161=CARTESIAN_POINT('',(0.570205042606367,-0.57404779190517,0.135875255451894));
#162=CARTESIAN_POINT('',(0.570749681641382,-0.57336929316302,0.136368213643264));
#163=CARTESIAN_POINT('',(0.570749681641382,-0.57336929316302,0.136368213643264));
#164=CARTESIAN_POINT('',(-0.326880137829424,-0.101770941570782,0.479004472212249));
#165=CARTESIAN_POINT('',(0.570749681641382,-0.214586178782617,-0.357454378360264));
#166=CARTESIAN_POINT('',(0.570205042606367,-0.215264677524766,-0.357947336551634));
#167=CARTESIAN_POINT('',(0.570205042606367,0.143518436855636,-0.851769928555161));
#168=CARTESIAN_POINT('',(0.570749681641382,0.144196935597786,-0.851276970363791));
#169=CARTESIAN_POINT('',(0.570749681641382,0.144196935597786,-0.851276970363791));
#170=CARTESIAN_POINT('',(0.570749681641382,-0.214586178782617,-0.357454378360264));
#171=CARTESIAN_POINT('',(-0.326880137829424,0.615795287190024,-0.508640711794806));
#172=CARTESIAN_POINT('',(-0.327424776864439,0.615116788447874,-0.509133669986176));
#173=CARTESIAN_POINT('',(-0.326880137829424,0.615795287190024,-0.508640711794806));
#174=CARTESIAN_POINT('',(-0.326880137829423,0.25701217280962,-0.0148181197912784));
#175=CARTESIAN_POINT('',(-0.327424776864438,0.256333674067471,-0.0153110779826484));
#176=MECHANICAL_DESIGN_GEOMETRIC_PRESENTATION_REPRESENTATION('',(#105),
#177);
#177=(
GEOMETRIC_REPRESENTATION_CONTEXT(3)
GLOBAL_UNCERTAINTY_ASSIGNED_CONTEXT((#178))
GLOBAL_UNIT_ASSIGNED_CONTEXT((#181,#180,#179))
REPRESENTATION_CONTEXT('24','TOP_LEVEL_ASSEMBLY_PART')
);
#178=UNCERTAINTY_MEASURE_WITH_UNIT(LENGTH_MEASURE(1.E-8),#181,
'DISTANCE_ACCURACY_VALUE','Maximum Tolerance applied to model');
#179=(
NAMED_UNIT(*)
SI_UNIT($,.STERADIAN.)
SOLID_ANGLE_UNIT()
);
#180=(
NAMED_UNIT(*)
PLANE_ANGLE_UNIT()
SI_UNIT($,.RADIAN.)
);
#181=(
LENGTH_UNIT()
NAMED_UNIT(*)
SI_UNIT($,.METRE.)
);
#182=PRODUCT_DEFINITION_SHAPE('','',#183);
#183=PRODUCT_DEFINITION('','',#185,#184);
#184=PRODUCT_DEFINITION_CONTEXT('',#191,'design');
#185=PRODUCT_DEFINITION_FORMATION_WITH_SPECIFIED_SOURCE('','',#187,
 .NOT_KNOWN.);
#186=PRODUCT_RELATED_PRODUCT_CATEGORY('','',(#187));
#187=PRODUCT('24','24','24',(#189));
#188=PRODUCT_CATEGORY('','');
#189=PRODUCT_CONTEXT('',#191,'mechanical');
#190=APPLICATION_PROTOCOL_DEFINITION('international standard',
'ap242_managed_model_based_3d_engineering',2020,#191);
#191=APPLICATION_CONTEXT('managed model based 3d engineering');
ENDSEC;
END-ISO-10303-21;
