ISO-10303-21;
HEADER;
/* Generated by software containing ST-Developer
 * from STEP Tools, Inc. (www.steptools.com) 
 */
/* OPTION: using custom renumber hook */

FILE_DESCRIPTION(
/* description */ ('STEP AP242 Edition 2',
'CAx-IF Rec.Pracs.---Representation and Presentation of Product Manufa
cturing Information (PMI)---4.0---2014-10-13',
'CAx-IF Rec.Pracs.---3D Tessellated Geometry---0.4---2014-09-14','2;1',
'CAx-IF Rec.Pracs.---User Defined Attributes---1.5---2016-08-15'),
/* implementation_level */ '2;1');

FILE_NAME(
/* name */ '69888fe1d67534afdc18f4cb',
/* time_stamp */ '2026-02-08T13:30:10Z',
/* author */ (''),
/* organization */ (''),
/* preprocessor_version */ 'ST-DEVELOPER v20',
/* originating_system */ 'ONSHAPE BY PTC INC, 1.210',
/* authorisation */ '  ');

FILE_SCHEMA (('AP242_MANAGED_MODEL_BASED_3D_ENGINEERING_MIM_LF { 1 0 10303 442 3 1 4 }'));
ENDSEC;

DATA;
#10=CYLINDRICAL_SURFACE('',#1094,0.016);
#11=CYLINDRICAL_SURFACE('',#1098,0.016);
#12=CYLINDRICAL_SURFACE('',#1102,0.016);
#13=CYLINDRICAL_SURFACE('',#1106,0.016);
#14=CYLINDRICAL_SURFACE('',#1110,0.015);
#15=CYLINDRICAL_SURFACE('',#1111,0.015);
#16=CYLINDRICAL_SURFACE('',#1112,0.015);
#17=CYLINDRICAL_SURFACE('',#1113,0.015);
#18=CIRCLE('',#1075,0.016);
#19=CIRCLE('',#1076,0.016);
#20=CIRCLE('',#1077,0.016);
#21=CIRCLE('',#1080,0.016);
#22=CIRCLE('',#1084,0.015);
#23=CIRCLE('',#1085,0.015);
#24=CIRCLE('',#1086,0.015);
#25=CIRCLE('',#1089,0.015);
#26=CIRCLE('',#1095,0.016);
#27=CIRCLE('',#1097,0.015);
#28=CIRCLE('',#1099,0.016);
#29=CIRCLE('',#1101,0.015);
#30=CIRCLE('',#1103,0.016);
#31=CIRCLE('',#1105,0.015);
#32=CIRCLE('',#1107,0.016);
#33=CIRCLE('',#1109,0.015);
#34=CONTEXT_DEPENDENT_SHAPE_REPRESENTATION(#46,#1691);
#35=CONTEXT_DEPENDENT_SHAPE_REPRESENTATION(#47,#1693);
#36=CONTEXT_DEPENDENT_SHAPE_REPRESENTATION(#48,#1695);
#37=CONTEXT_DEPENDENT_SHAPE_REPRESENTATION(#49,#1697);
#38=CONTEXT_DEPENDENT_SHAPE_REPRESENTATION(#50,#1699);
#39=CONTEXT_DEPENDENT_SHAPE_REPRESENTATION(#51,#1701);
#40=NEXT_ASSEMBLY_USAGE_OCCURRENCE('NAUO1','schraege_r','schraege_r',#1702,
#1703,'');
#41=NEXT_ASSEMBLY_USAGE_OCCURRENCE('NAUO2','118','118',#1702,#1704,'');
#42=NEXT_ASSEMBLY_USAGE_OCCURRENCE('NAUO3','gehaeuse','gehaeuse',#1702,
#1705,'');
#43=NEXT_ASSEMBLY_USAGE_OCCURRENCE('NAUO4','schraege_l','schraege_l',#1702,
#1706,'');
#44=NEXT_ASSEMBLY_USAGE_OCCURRENCE('NAUO5','10','10',#1702,#1707,'');
#45=NEXT_ASSEMBLY_USAGE_OCCURRENCE('NAUO6','16','16',#1702,#1708,'');
#46=(
REPRESENTATION_RELATIONSHIP(' ',' ',#1049,#1048)
REPRESENTATION_RELATIONSHIP_WITH_TRANSFORMATION(#52)
SHAPE_REPRESENTATION_RELATIONSHIP()
);
#47=(
REPRESENTATION_RELATIONSHIP(' ',' ',#1050,#1048)
REPRESENTATION_RELATIONSHIP_WITH_TRANSFORMATION(#53)
SHAPE_REPRESENTATION_RELATIONSHIP()
);
#48=(
REPRESENTATION_RELATIONSHIP(' ',' ',#1051,#1048)
REPRESENTATION_RELATIONSHIP_WITH_TRANSFORMATION(#54)
SHAPE_REPRESENTATION_RELATIONSHIP()
);
#49=(
REPRESENTATION_RELATIONSHIP(' ',' ',#1052,#1048)
REPRESENTATION_RELATIONSHIP_WITH_TRANSFORMATION(#55)
SHAPE_REPRESENTATION_RELATIONSHIP()
);
#50=(
REPRESENTATION_RELATIONSHIP(' ',' ',#1053,#1048)
REPRESENTATION_RELATIONSHIP_WITH_TRANSFORMATION(#56)
SHAPE_REPRESENTATION_RELATIONSHIP()
);
#51=(
REPRESENTATION_RELATIONSHIP(' ',' ',#1054,#1048)
REPRESENTATION_RELATIONSHIP_WITH_TRANSFORMATION(#57)
SHAPE_REPRESENTATION_RELATIONSHIP()
);
#52=ITEM_DEFINED_TRANSFORMATION(' ',' ',#1055,#1063);
#53=ITEM_DEFINED_TRANSFORMATION(' ',' ',#1055,#1070);
#54=ITEM_DEFINED_TRANSFORMATION(' ',' ',#1055,#1114);
#55=ITEM_DEFINED_TRANSFORMATION(' ',' ',#1055,#1122);
#56=ITEM_DEFINED_TRANSFORMATION(' ',' ',#1055,#1129);
#57=ITEM_DEFINED_TRANSFORMATION(' ',' ',#1055,#1136);
#58=SHAPE_REPRESENTATION_RELATIONSHIP('','',#1049,#64);
#59=SHAPE_REPRESENTATION_RELATIONSHIP('','',#1050,#65);
#60=SHAPE_REPRESENTATION_RELATIONSHIP('','',#1051,#66);
#61=SHAPE_REPRESENTATION_RELATIONSHIP('','',#1052,#67);
#62=SHAPE_REPRESENTATION_RELATIONSHIP('','',#1053,#68);
#63=SHAPE_REPRESENTATION_RELATIONSHIP('','',#1054,#69);
#64=ADVANCED_BREP_SHAPE_REPRESENTATION('',(#1035),#1673);
#65=ADVANCED_BREP_SHAPE_REPRESENTATION('',(#1036),#1674);
#66=ADVANCED_BREP_SHAPE_REPRESENTATION('',(#1037),#1675);
#67=ADVANCED_BREP_SHAPE_REPRESENTATION('',(#1038),#1676);
#68=ADVANCED_BREP_SHAPE_REPRESENTATION('',(#1039),#1677);
#69=ADVANCED_BREP_SHAPE_REPRESENTATION('',(#1040),#1678);
#70=ORIENTED_EDGE('',*,*,#306,.F.);
#71=ORIENTED_EDGE('',*,*,#307,.T.);
#72=ORIENTED_EDGE('',*,*,#308,.T.);
#73=ORIENTED_EDGE('',*,*,#309,.F.);
#74=ORIENTED_EDGE('',*,*,#310,.F.);
#75=ORIENTED_EDGE('',*,*,#311,.T.);
#76=ORIENTED_EDGE('',*,*,#312,.T.);
#77=ORIENTED_EDGE('',*,*,#310,.T.);
#78=ORIENTED_EDGE('',*,*,#313,.F.);
#79=ORIENTED_EDGE('',*,*,#314,.T.);
#80=ORIENTED_EDGE('',*,*,#315,.T.);
#81=ORIENTED_EDGE('',*,*,#316,.F.);
#82=ORIENTED_EDGE('',*,*,#313,.T.);
#83=ORIENTED_EDGE('',*,*,#317,.F.);
#84=ORIENTED_EDGE('',*,*,#308,.F.);
#85=ORIENTED_EDGE('',*,*,#318,.T.);
#86=ORIENTED_EDGE('',*,*,#319,.F.);
#87=ORIENTED_EDGE('',*,*,#318,.F.);
#88=ORIENTED_EDGE('',*,*,#307,.F.);
#89=ORIENTED_EDGE('',*,*,#315,.F.);
#90=ORIENTED_EDGE('',*,*,#320,.T.);
#91=ORIENTED_EDGE('',*,*,#311,.F.);
#92=ORIENTED_EDGE('',*,*,#309,.T.);
#93=ORIENTED_EDGE('',*,*,#317,.T.);
#94=ORIENTED_EDGE('',*,*,#316,.T.);
#95=ORIENTED_EDGE('',*,*,#319,.T.);
#96=ORIENTED_EDGE('',*,*,#306,.T.);
#97=ORIENTED_EDGE('',*,*,#312,.F.);
#98=ORIENTED_EDGE('',*,*,#320,.F.);
#99=ORIENTED_EDGE('',*,*,#314,.F.);
#100=ORIENTED_EDGE('',*,*,#321,.F.);
#101=ORIENTED_EDGE('',*,*,#322,.F.);
#102=ORIENTED_EDGE('',*,*,#323,.T.);
#103=ORIENTED_EDGE('',*,*,#324,.T.);
#104=ORIENTED_EDGE('',*,*,#325,.T.);
#105=ORIENTED_EDGE('',*,*,#326,.F.);
#106=ORIENTED_EDGE('',*,*,#327,.F.);
#107=ORIENTED_EDGE('',*,*,#322,.T.);
#108=ORIENTED_EDGE('',*,*,#328,.T.);
#109=ORIENTED_EDGE('',*,*,#329,.F.);
#110=ORIENTED_EDGE('',*,*,#330,.F.);
#111=ORIENTED_EDGE('',*,*,#326,.T.);
#112=ORIENTED_EDGE('',*,*,#331,.F.);
#113=ORIENTED_EDGE('',*,*,#324,.F.);
#114=ORIENTED_EDGE('',*,*,#332,.T.);
#115=ORIENTED_EDGE('',*,*,#329,.T.);
#116=ORIENTED_EDGE('',*,*,#323,.F.);
#117=ORIENTED_EDGE('',*,*,#327,.T.);
#118=ORIENTED_EDGE('',*,*,#330,.T.);
#119=ORIENTED_EDGE('',*,*,#332,.F.);
#120=ORIENTED_EDGE('',*,*,#321,.T.);
#121=ORIENTED_EDGE('',*,*,#331,.T.);
#122=ORIENTED_EDGE('',*,*,#328,.F.);
#123=ORIENTED_EDGE('',*,*,#325,.F.);
#124=ORIENTED_EDGE('',*,*,#333,.T.);
#125=ORIENTED_EDGE('',*,*,#334,.T.);
#126=ORIENTED_EDGE('',*,*,#335,.F.);
#127=ORIENTED_EDGE('',*,*,#336,.F.);
#128=ORIENTED_EDGE('',*,*,#337,.F.);
#129=ORIENTED_EDGE('',*,*,#338,.T.);
#130=ORIENTED_EDGE('',*,*,#339,.T.);
#131=ORIENTED_EDGE('',*,*,#340,.F.);
#132=ORIENTED_EDGE('',*,*,#341,.F.);
#133=ORIENTED_EDGE('',*,*,#342,.T.);
#134=ORIENTED_EDGE('',*,*,#343,.T.);
#135=ORIENTED_EDGE('',*,*,#344,.F.);
#136=ORIENTED_EDGE('',*,*,#345,.F.);
#137=ORIENTED_EDGE('',*,*,#346,.T.);
#138=ORIENTED_EDGE('',*,*,#347,.T.);
#139=ORIENTED_EDGE('',*,*,#348,.F.);
#140=ORIENTED_EDGE('',*,*,#349,.F.);
#141=ORIENTED_EDGE('',*,*,#350,.F.);
#142=ORIENTED_EDGE('',*,*,#351,.T.);
#143=ORIENTED_EDGE('',*,*,#352,.T.);
#144=ORIENTED_EDGE('',*,*,#353,.T.);
#145=ORIENTED_EDGE('',*,*,#341,.T.);
#146=ORIENTED_EDGE('',*,*,#354,.F.);
#147=ORIENTED_EDGE('',*,*,#333,.F.);
#148=ORIENTED_EDGE('',*,*,#355,.F.);
#149=ORIENTED_EDGE('',*,*,#356,.F.);
#150=ORIENTED_EDGE('',*,*,#357,.F.);
#151=ORIENTED_EDGE('',*,*,#358,.T.);
#152=ORIENTED_EDGE('',*,*,#359,.F.);
#153=ORIENTED_EDGE('',*,*,#360,.F.);
#154=ORIENTED_EDGE('',*,*,#350,.T.);
#155=ORIENTED_EDGE('',*,*,#361,.T.);
#156=ORIENTED_EDGE('',*,*,#362,.F.);
#157=ORIENTED_EDGE('',*,*,#363,.F.);
#158=ORIENTED_EDGE('',*,*,#359,.T.);
#159=ORIENTED_EDGE('',*,*,#364,.F.);
#160=ORIENTED_EDGE('',*,*,#365,.F.);
#161=ORIENTED_EDGE('',*,*,#352,.F.);
#162=ORIENTED_EDGE('',*,*,#366,.T.);
#163=ORIENTED_EDGE('',*,*,#362,.T.);
#164=ORIENTED_EDGE('',*,*,#351,.F.);
#165=ORIENTED_EDGE('',*,*,#360,.T.);
#166=ORIENTED_EDGE('',*,*,#363,.T.);
#167=ORIENTED_EDGE('',*,*,#366,.F.);
#168=ORIENTED_EDGE('',*,*,#349,.T.);
#169=ORIENTED_EDGE('',*,*,#365,.T.);
#170=ORIENTED_EDGE('',*,*,#361,.F.);
#171=ORIENTED_EDGE('',*,*,#358,.F.);
#172=ORIENTED_EDGE('',*,*,#367,.T.);
#173=ORIENTED_EDGE('',*,*,#368,.T.);
#174=ORIENTED_EDGE('',*,*,#369,.T.);
#175=ORIENTED_EDGE('',*,*,#342,.F.);
#176=ORIENTED_EDGE('',*,*,#353,.F.);
#177=ORIENTED_EDGE('',*,*,#336,.T.);
#178=ORIENTED_EDGE('',*,*,#370,.T.);
#179=ORIENTED_EDGE('',*,*,#343,.F.);
#180=ORIENTED_EDGE('',*,*,#370,.F.);
#181=ORIENTED_EDGE('',*,*,#335,.T.);
#182=ORIENTED_EDGE('',*,*,#371,.T.);
#183=ORIENTED_EDGE('',*,*,#372,.F.);
#184=ORIENTED_EDGE('',*,*,#344,.T.);
#185=ORIENTED_EDGE('',*,*,#371,.F.);
#186=ORIENTED_EDGE('',*,*,#334,.F.);
#187=ORIENTED_EDGE('',*,*,#354,.T.);
#188=ORIENTED_EDGE('',*,*,#373,.T.);
#189=ORIENTED_EDGE('',*,*,#337,.T.);
#190=ORIENTED_EDGE('',*,*,#374,.F.);
#191=ORIENTED_EDGE('',*,*,#346,.F.);
#192=ORIENTED_EDGE('',*,*,#338,.F.);
#193=ORIENTED_EDGE('',*,*,#373,.F.);
#194=ORIENTED_EDGE('',*,*,#345,.T.);
#195=ORIENTED_EDGE('',*,*,#375,.T.);
#196=ORIENTED_EDGE('',*,*,#339,.F.);
#197=ORIENTED_EDGE('',*,*,#375,.F.);
#198=ORIENTED_EDGE('',*,*,#348,.T.);
#199=ORIENTED_EDGE('',*,*,#376,.T.);
#200=ORIENTED_EDGE('',*,*,#374,.T.);
#201=ORIENTED_EDGE('',*,*,#340,.T.);
#202=ORIENTED_EDGE('',*,*,#376,.F.);
#203=ORIENTED_EDGE('',*,*,#347,.F.);
#204=ORIENTED_EDGE('',*,*,#377,.F.);
#205=ORIENTED_EDGE('',*,*,#357,.T.);
#206=ORIENTED_EDGE('',*,*,#378,.T.);
#207=ORIENTED_EDGE('',*,*,#377,.T.);
#208=ORIENTED_EDGE('',*,*,#379,.F.);
#209=ORIENTED_EDGE('',*,*,#356,.T.);
#210=ORIENTED_EDGE('',*,*,#380,.T.);
#211=ORIENTED_EDGE('',*,*,#379,.T.);
#212=ORIENTED_EDGE('',*,*,#381,.F.);
#213=ORIENTED_EDGE('',*,*,#355,.T.);
#214=ORIENTED_EDGE('',*,*,#382,.T.);
#215=ORIENTED_EDGE('',*,*,#381,.T.);
#216=ORIENTED_EDGE('',*,*,#383,.F.);
#217=ORIENTED_EDGE('',*,*,#364,.T.);
#218=ORIENTED_EDGE('',*,*,#384,.T.);
#219=ORIENTED_EDGE('',*,*,#383,.T.);
#220=ORIENTED_EDGE('',*,*,#384,.F.);
#221=ORIENTED_EDGE('',*,*,#372,.T.);
#222=ORIENTED_EDGE('',*,*,#369,.F.);
#223=ORIENTED_EDGE('',*,*,#382,.F.);
#224=ORIENTED_EDGE('',*,*,#368,.F.);
#225=ORIENTED_EDGE('',*,*,#380,.F.);
#226=ORIENTED_EDGE('',*,*,#367,.F.);
#227=ORIENTED_EDGE('',*,*,#378,.F.);
#228=ORIENTED_EDGE('',*,*,#385,.F.);
#229=ORIENTED_EDGE('',*,*,#386,.F.);
#230=ORIENTED_EDGE('',*,*,#387,.F.);
#231=ORIENTED_EDGE('',*,*,#388,.T.);
#232=ORIENTED_EDGE('',*,*,#389,.T.);
#233=ORIENTED_EDGE('',*,*,#390,.T.);
#234=ORIENTED_EDGE('',*,*,#391,.T.);
#235=ORIENTED_EDGE('',*,*,#392,.F.);
#236=ORIENTED_EDGE('',*,*,#393,.F.);
#237=ORIENTED_EDGE('',*,*,#387,.T.);
#238=ORIENTED_EDGE('',*,*,#392,.T.);
#239=ORIENTED_EDGE('',*,*,#394,.T.);
#240=ORIENTED_EDGE('',*,*,#395,.F.);
#241=ORIENTED_EDGE('',*,*,#396,.F.);
#242=ORIENTED_EDGE('',*,*,#389,.F.);
#243=ORIENTED_EDGE('',*,*,#397,.T.);
#244=ORIENTED_EDGE('',*,*,#398,.F.);
#245=ORIENTED_EDGE('',*,*,#397,.F.);
#246=ORIENTED_EDGE('',*,*,#388,.F.);
#247=ORIENTED_EDGE('',*,*,#393,.T.);
#248=ORIENTED_EDGE('',*,*,#395,.T.);
#249=ORIENTED_EDGE('',*,*,#386,.T.);
#250=ORIENTED_EDGE('',*,*,#399,.T.);
#251=ORIENTED_EDGE('',*,*,#390,.F.);
#252=ORIENTED_EDGE('',*,*,#398,.T.);
#253=ORIENTED_EDGE('',*,*,#394,.F.);
#254=ORIENTED_EDGE('',*,*,#391,.F.);
#255=ORIENTED_EDGE('',*,*,#399,.F.);
#256=ORIENTED_EDGE('',*,*,#385,.T.);
#257=ORIENTED_EDGE('',*,*,#396,.T.);
#258=ORIENTED_EDGE('',*,*,#400,.F.);
#259=ORIENTED_EDGE('',*,*,#401,.F.);
#260=ORIENTED_EDGE('',*,*,#402,.T.);
#261=ORIENTED_EDGE('',*,*,#403,.T.);
#262=ORIENTED_EDGE('',*,*,#404,.T.);
#263=ORIENTED_EDGE('',*,*,#405,.F.);
#264=ORIENTED_EDGE('',*,*,#406,.F.);
#265=ORIENTED_EDGE('',*,*,#401,.T.);
#266=ORIENTED_EDGE('',*,*,#407,.T.);
#267=ORIENTED_EDGE('',*,*,#408,.F.);
#268=ORIENTED_EDGE('',*,*,#409,.F.);
#269=ORIENTED_EDGE('',*,*,#405,.T.);
#270=ORIENTED_EDGE('',*,*,#410,.F.);
#271=ORIENTED_EDGE('',*,*,#403,.F.);
#272=ORIENTED_EDGE('',*,*,#411,.T.);
#273=ORIENTED_EDGE('',*,*,#408,.T.);
#274=ORIENTED_EDGE('',*,*,#402,.F.);
#275=ORIENTED_EDGE('',*,*,#406,.T.);
#276=ORIENTED_EDGE('',*,*,#409,.T.);
#277=ORIENTED_EDGE('',*,*,#411,.F.);
#278=ORIENTED_EDGE('',*,*,#400,.T.);
#279=ORIENTED_EDGE('',*,*,#410,.T.);
#280=ORIENTED_EDGE('',*,*,#407,.F.);
#281=ORIENTED_EDGE('',*,*,#404,.F.);
#282=ORIENTED_EDGE('',*,*,#412,.F.);
#283=ORIENTED_EDGE('',*,*,#413,.F.);
#284=ORIENTED_EDGE('',*,*,#414,.T.);
#285=ORIENTED_EDGE('',*,*,#415,.T.);
#286=ORIENTED_EDGE('',*,*,#416,.T.);
#287=ORIENTED_EDGE('',*,*,#417,.F.);
#288=ORIENTED_EDGE('',*,*,#418,.F.);
#289=ORIENTED_EDGE('',*,*,#413,.T.);
#290=ORIENTED_EDGE('',*,*,#419,.T.);
#291=ORIENTED_EDGE('',*,*,#420,.F.);
#292=ORIENTED_EDGE('',*,*,#421,.F.);
#293=ORIENTED_EDGE('',*,*,#417,.T.);
#294=ORIENTED_EDGE('',*,*,#422,.F.);
#295=ORIENTED_EDGE('',*,*,#415,.F.);
#296=ORIENTED_EDGE('',*,*,#423,.T.);
#297=ORIENTED_EDGE('',*,*,#420,.T.);
#298=ORIENTED_EDGE('',*,*,#414,.F.);
#299=ORIENTED_EDGE('',*,*,#418,.T.);
#300=ORIENTED_EDGE('',*,*,#421,.T.);
#301=ORIENTED_EDGE('',*,*,#423,.F.);
#302=ORIENTED_EDGE('',*,*,#412,.T.);
#303=ORIENTED_EDGE('',*,*,#422,.T.);
#304=ORIENTED_EDGE('',*,*,#419,.F.);
#305=ORIENTED_EDGE('',*,*,#416,.F.);
#306=EDGE_CURVE('',#424,#425,#508,.T.);
#307=EDGE_CURVE('',#424,#426,#509,.T.);
#308=EDGE_CURVE('',#426,#427,#510,.T.);
#309=EDGE_CURVE('',#428,#427,#511,.T.);
#310=EDGE_CURVE('',#425,#428,#512,.T.);
#311=EDGE_CURVE('',#428,#429,#513,.T.);
#312=EDGE_CURVE('',#429,#425,#514,.T.);
#313=EDGE_CURVE('',#430,#431,#515,.T.);
#314=EDGE_CURVE('',#430,#432,#516,.T.);
#315=EDGE_CURVE('',#432,#431,#517,.T.);
#316=EDGE_CURVE('',#430,#433,#518,.T.);
#317=EDGE_CURVE('',#427,#431,#519,.T.);
#318=EDGE_CURVE('',#426,#433,#520,.T.);
#319=EDGE_CURVE('',#433,#424,#521,.T.);
#320=EDGE_CURVE('',#432,#429,#522,.T.);
#321=EDGE_CURVE('',#434,#435,#523,.T.);
#322=EDGE_CURVE('',#436,#434,#524,.T.);
#323=EDGE_CURVE('',#436,#437,#525,.T.);
#324=EDGE_CURVE('',#437,#435,#526,.T.);
#325=EDGE_CURVE('',#434,#438,#527,.T.);
#326=EDGE_CURVE('',#439,#438,#528,.T.);
#327=EDGE_CURVE('',#436,#439,#529,.T.);
#328=EDGE_CURVE('',#438,#440,#530,.T.);
#329=EDGE_CURVE('',#441,#440,#531,.T.);
#330=EDGE_CURVE('',#439,#441,#532,.T.);
#331=EDGE_CURVE('',#435,#440,#533,.T.);
#332=EDGE_CURVE('',#437,#441,#534,.T.);
#333=EDGE_CURVE('',#442,#443,#535,.T.);
#334=EDGE_CURVE('',#443,#444,#536,.T.);
#335=EDGE_CURVE('',#445,#444,#537,.T.);
#336=EDGE_CURVE('',#442,#445,#538,.T.);
#337=EDGE_CURVE('',#446,#447,#539,.T.);
#338=EDGE_CURVE('',#446,#448,#540,.T.);
#339=EDGE_CURVE('',#448,#449,#541,.T.);
#340=EDGE_CURVE('',#447,#449,#542,.T.);
#341=EDGE_CURVE('',#450,#451,#543,.T.);
#342=EDGE_CURVE('',#450,#452,#544,.T.);
#343=EDGE_CURVE('',#452,#453,#545,.T.);
#344=EDGE_CURVE('',#451,#453,#546,.T.);
#345=EDGE_CURVE('',#454,#455,#547,.T.);
#346=EDGE_CURVE('',#454,#456,#548,.T.);
#347=EDGE_CURVE('',#456,#457,#549,.T.);
#348=EDGE_CURVE('',#455,#457,#550,.T.);
#349=EDGE_CURVE('',#458,#459,#551,.T.);
#350=EDGE_CURVE('',#460,#458,#552,.T.);
#351=EDGE_CURVE('',#460,#461,#553,.T.);
#352=EDGE_CURVE('',#461,#459,#554,.T.);
#353=EDGE_CURVE('',#442,#450,#555,.T.);
#354=EDGE_CURVE('',#443,#451,#556,.T.);
#355=EDGE_CURVE('',#462,#462,#18,.T.);
#356=EDGE_CURVE('',#463,#463,#19,.T.);
#357=EDGE_CURVE('',#464,#464,#20,.T.);
#358=EDGE_CURVE('',#458,#465,#557,.T.);
#359=EDGE_CURVE('',#466,#465,#558,.T.);
#360=EDGE_CURVE('',#460,#466,#559,.T.);
#361=EDGE_CURVE('',#465,#467,#560,.T.);
#362=EDGE_CURVE('',#468,#467,#561,.T.);
#363=EDGE_CURVE('',#466,#468,#562,.T.);
#364=EDGE_CURVE('',#469,#469,#21,.T.);
#365=EDGE_CURVE('',#459,#467,#563,.T.);
#366=EDGE_CURVE('',#461,#468,#564,.T.);
#367=EDGE_CURVE('',#470,#470,#22,.F.);
#368=EDGE_CURVE('',#471,#471,#23,.F.);
#369=EDGE_CURVE('',#472,#472,#24,.F.);
#370=EDGE_CURVE('',#445,#452,#565,.T.);
#371=EDGE_CURVE('',#444,#453,#566,.T.);
#372=EDGE_CURVE('',#473,#473,#25,.F.);
#373=EDGE_CURVE('',#454,#446,#567,.T.);
#374=EDGE_CURVE('',#456,#447,#568,.T.);
#375=EDGE_CURVE('',#455,#448,#569,.T.);
#376=EDGE_CURVE('',#457,#449,#570,.T.);
#377=EDGE_CURVE('',#474,#474,#26,.T.);
#378=EDGE_CURVE('',#475,#475,#27,.T.);
#379=EDGE_CURVE('',#476,#476,#28,.T.);
#380=EDGE_CURVE('',#477,#477,#29,.T.);
#381=EDGE_CURVE('',#478,#478,#30,.T.);
#382=EDGE_CURVE('',#479,#479,#31,.T.);
#383=EDGE_CURVE('',#480,#480,#32,.T.);
#384=EDGE_CURVE('',#481,#481,#33,.T.);
#385=EDGE_CURVE('',#482,#483,#571,.T.);
#386=EDGE_CURVE('',#484,#482,#572,.T.);
#387=EDGE_CURVE('',#485,#484,#573,.T.);
#388=EDGE_CURVE('',#485,#486,#574,.T.);
#389=EDGE_CURVE('',#486,#483,#575,.T.);
#390=EDGE_CURVE('',#484,#487,#576,.T.);
#391=EDGE_CURVE('',#487,#488,#577,.T.);
#392=EDGE_CURVE('',#489,#488,#578,.T.);
#393=EDGE_CURVE('',#485,#489,#579,.T.);
#394=EDGE_CURVE('',#488,#490,#580,.T.);
#395=EDGE_CURVE('',#489,#490,#581,.T.);
#396=EDGE_CURVE('',#483,#491,#582,.T.);
#397=EDGE_CURVE('',#486,#491,#583,.T.);
#398=EDGE_CURVE('',#491,#490,#584,.T.);
#399=EDGE_CURVE('',#482,#487,#585,.T.);
#400=EDGE_CURVE('',#492,#493,#586,.T.);
#401=EDGE_CURVE('',#494,#492,#587,.T.);
#402=EDGE_CURVE('',#494,#495,#588,.T.);
#403=EDGE_CURVE('',#495,#493,#589,.T.);
#404=EDGE_CURVE('',#492,#496,#590,.T.);
#405=EDGE_CURVE('',#497,#496,#591,.T.);
#406=EDGE_CURVE('',#494,#497,#592,.T.);
#407=EDGE_CURVE('',#496,#498,#593,.T.);
#408=EDGE_CURVE('',#499,#498,#594,.T.);
#409=EDGE_CURVE('',#497,#499,#595,.T.);
#410=EDGE_CURVE('',#493,#498,#596,.T.);
#411=EDGE_CURVE('',#495,#499,#597,.T.);
#412=EDGE_CURVE('',#500,#501,#598,.T.);
#413=EDGE_CURVE('',#502,#500,#599,.T.);
#414=EDGE_CURVE('',#502,#503,#600,.T.);
#415=EDGE_CURVE('',#503,#501,#601,.T.);
#416=EDGE_CURVE('',#500,#504,#602,.T.);
#417=EDGE_CURVE('',#505,#504,#603,.T.);
#418=EDGE_CURVE('',#502,#505,#604,.T.);
#419=EDGE_CURVE('',#504,#506,#605,.T.);
#420=EDGE_CURVE('',#507,#506,#606,.T.);
#421=EDGE_CURVE('',#505,#507,#607,.T.);
#422=EDGE_CURVE('',#501,#506,#608,.T.);
#423=EDGE_CURVE('',#503,#507,#609,.T.);
#424=VERTEX_POINT('',#1406);
#425=VERTEX_POINT('',#1407);
#426=VERTEX_POINT('',#1409);
#427=VERTEX_POINT('',#1411);
#428=VERTEX_POINT('',#1413);
#429=VERTEX_POINT('',#1417);
#430=VERTEX_POINT('',#1421);
#431=VERTEX_POINT('',#1422);
#432=VERTEX_POINT('',#1424);
#433=VERTEX_POINT('',#1428);
#434=VERTEX_POINT('',#1439);
#435=VERTEX_POINT('',#1440);
#436=VERTEX_POINT('',#1442);
#437=VERTEX_POINT('',#1444);
#438=VERTEX_POINT('',#1448);
#439=VERTEX_POINT('',#1450);
#440=VERTEX_POINT('',#1454);
#441=VERTEX_POINT('',#1456);
#442=VERTEX_POINT('',#1466);
#443=VERTEX_POINT('',#1467);
#444=VERTEX_POINT('',#1469);
#445=VERTEX_POINT('',#1471);
#446=VERTEX_POINT('',#1474);
#447=VERTEX_POINT('',#1475);
#448=VERTEX_POINT('',#1477);
#449=VERTEX_POINT('',#1479);
#450=VERTEX_POINT('',#1483);
#451=VERTEX_POINT('',#1484);
#452=VERTEX_POINT('',#1486);
#453=VERTEX_POINT('',#1488);
#454=VERTEX_POINT('',#1491);
#455=VERTEX_POINT('',#1492);
#456=VERTEX_POINT('',#1494);
#457=VERTEX_POINT('',#1496);
#458=VERTEX_POINT('',#1500);
#459=VERTEX_POINT('',#1501);
#460=VERTEX_POINT('',#1503);
#461=VERTEX_POINT('',#1505);
#462=VERTEX_POINT('',#1511);
#463=VERTEX_POINT('',#1513);
#464=VERTEX_POINT('',#1515);
#465=VERTEX_POINT('',#1517);
#466=VERTEX_POINT('',#1519);
#467=VERTEX_POINT('',#1523);
#468=VERTEX_POINT('',#1525);
#469=VERTEX_POINT('',#1529);
#470=VERTEX_POINT('',#1536);
#471=VERTEX_POINT('',#1538);
#472=VERTEX_POINT('',#1540);
#473=VERTEX_POINT('',#1546);
#474=VERTEX_POINT('',#1557);
#475=VERTEX_POINT('',#1560);
#476=VERTEX_POINT('',#1563);
#477=VERTEX_POINT('',#1566);
#478=VERTEX_POINT('',#1569);
#479=VERTEX_POINT('',#1572);
#480=VERTEX_POINT('',#1575);
#481=VERTEX_POINT('',#1578);
#482=VERTEX_POINT('',#1586);
#483=VERTEX_POINT('',#1587);
#484=VERTEX_POINT('',#1589);
#485=VERTEX_POINT('',#1591);
#486=VERTEX_POINT('',#1593);
#487=VERTEX_POINT('',#1597);
#488=VERTEX_POINT('',#1599);
#489=VERTEX_POINT('',#1601);
#490=VERTEX_POINT('',#1605);
#491=VERTEX_POINT('',#1609);
#492=VERTEX_POINT('',#1619);
#493=VERTEX_POINT('',#1620);
#494=VERTEX_POINT('',#1622);
#495=VERTEX_POINT('',#1624);
#496=VERTEX_POINT('',#1628);
#497=VERTEX_POINT('',#1630);
#498=VERTEX_POINT('',#1634);
#499=VERTEX_POINT('',#1636);
#500=VERTEX_POINT('',#1646);
#501=VERTEX_POINT('',#1647);
#502=VERTEX_POINT('',#1649);
#503=VERTEX_POINT('',#1651);
#504=VERTEX_POINT('',#1655);
#505=VERTEX_POINT('',#1657);
#506=VERTEX_POINT('',#1661);
#507=VERTEX_POINT('',#1663);
#508=LINE('',#1405,#610);
#509=LINE('',#1408,#611);
#510=LINE('',#1410,#612);
#511=LINE('',#1412,#613);
#512=LINE('',#1414,#614);
#513=LINE('',#1416,#615);
#514=LINE('',#1418,#616);
#515=LINE('',#1420,#617);
#516=LINE('',#1423,#618);
#517=LINE('',#1425,#619);
#518=LINE('',#1427,#620);
#519=LINE('',#1429,#621);
#520=LINE('',#1430,#622);
#521=LINE('',#1432,#623);
#522=LINE('',#1434,#624);
#523=LINE('',#1438,#625);
#524=LINE('',#1441,#626);
#525=LINE('',#1443,#627);
#526=LINE('',#1445,#628);
#527=LINE('',#1447,#629);
#528=LINE('',#1449,#630);
#529=LINE('',#1451,#631);
#530=LINE('',#1453,#632);
#531=LINE('',#1455,#633);
#532=LINE('',#1457,#634);
#533=LINE('',#1459,#635);
#534=LINE('',#1460,#636);
#535=LINE('',#1465,#637);
#536=LINE('',#1468,#638);
#537=LINE('',#1470,#639);
#538=LINE('',#1472,#640);
#539=LINE('',#1473,#641);
#540=LINE('',#1476,#642);
#541=LINE('',#1478,#643);
#542=LINE('',#1480,#644);
#543=LINE('',#1482,#645);
#544=LINE('',#1485,#646);
#545=LINE('',#1487,#647);
#546=LINE('',#1489,#648);
#547=LINE('',#1490,#649);
#548=LINE('',#1493,#650);
#549=LINE('',#1495,#651);
#550=LINE('',#1497,#652);
#551=LINE('',#1499,#653);
#552=LINE('',#1502,#654);
#553=LINE('',#1504,#655);
#554=LINE('',#1506,#656);
#555=LINE('',#1507,#657);
#556=LINE('',#1508,#658);
#557=LINE('',#1516,#659);
#558=LINE('',#1518,#660);
#559=LINE('',#1520,#661);
#560=LINE('',#1522,#662);
#561=LINE('',#1524,#663);
#562=LINE('',#1526,#664);
#563=LINE('',#1530,#665);
#564=LINE('',#1531,#666);
#565=LINE('',#1541,#667);
#566=LINE('',#1543,#668);
#567=LINE('',#1548,#669);
#568=LINE('',#1549,#670);
#569=LINE('',#1551,#671);
#570=LINE('',#1553,#672);
#571=LINE('',#1585,#673);
#572=LINE('',#1588,#674);
#573=LINE('',#1590,#675);
#574=LINE('',#1592,#676);
#575=LINE('',#1594,#677);
#576=LINE('',#1596,#678);
#577=LINE('',#1598,#679);
#578=LINE('',#1600,#680);
#579=LINE('',#1602,#681);
#580=LINE('',#1604,#682);
#581=LINE('',#1606,#683);
#582=LINE('',#1608,#684);
#583=LINE('',#1610,#685);
#584=LINE('',#1612,#686);
#585=LINE('',#1614,#687);
#586=LINE('',#1618,#688);
#587=LINE('',#1621,#689);
#588=LINE('',#1623,#690);
#589=LINE('',#1625,#691);
#590=LINE('',#1627,#692);
#591=LINE('',#1629,#693);
#592=LINE('',#1631,#694);
#593=LINE('',#1633,#695);
#594=LINE('',#1635,#696);
#595=LINE('',#1637,#697);
#596=LINE('',#1639,#698);
#597=LINE('',#1640,#699);
#598=LINE('',#1645,#700);
#599=LINE('',#1648,#701);
#600=LINE('',#1650,#702);
#601=LINE('',#1652,#703);
#602=LINE('',#1654,#704);
#603=LINE('',#1656,#705);
#604=LINE('',#1658,#706);
#605=LINE('',#1660,#707);
#606=LINE('',#1662,#708);
#607=LINE('',#1664,#709);
#608=LINE('',#1666,#710);
#609=LINE('',#1667,#711);
#610=VECTOR('',#1141,1.);
#611=VECTOR('',#1142,1.);
#612=VECTOR('',#1143,1.);
#613=VECTOR('',#1144,1.);
#614=VECTOR('',#1145,1.);
#615=VECTOR('',#1148,1.);
#616=VECTOR('',#1149,1.);
#617=VECTOR('',#1152,1.);
#618=VECTOR('',#1153,1.);
#619=VECTOR('',#1154,1.);
#620=VECTOR('',#1157,1.);
#621=VECTOR('',#1158,1.);
#622=VECTOR('',#1159,1.);
#623=VECTOR('',#1162,1.);
#624=VECTOR('',#1165,1.);
#625=VECTOR('',#1172,1.);
#626=VECTOR('',#1173,1.);
#627=VECTOR('',#1174,1.);
#628=VECTOR('',#1175,1.);
#629=VECTOR('',#1178,1.);
#630=VECTOR('',#1179,1.);
#631=VECTOR('',#1180,1.);
#632=VECTOR('',#1183,1.);
#633=VECTOR('',#1184,1.);
#634=VECTOR('',#1185,1.);
#635=VECTOR('',#1188,1.);
#636=VECTOR('',#1189,1.);
#637=VECTOR('',#1198,1.);
#638=VECTOR('',#1199,1.);
#639=VECTOR('',#1200,1.);
#640=VECTOR('',#1201,1.);
#641=VECTOR('',#1202,1.);
#642=VECTOR('',#1203,1.);
#643=VECTOR('',#1204,1.);
#644=VECTOR('',#1205,1.);
#645=VECTOR('',#1208,1.);
#646=VECTOR('',#1209,1.);
#647=VECTOR('',#1210,1.);
#648=VECTOR('',#1211,1.);
#649=VECTOR('',#1212,1.);
#650=VECTOR('',#1213,1.);
#651=VECTOR('',#1214,1.);
#652=VECTOR('',#1215,1.);
#653=VECTOR('',#1218,1.);
#654=VECTOR('',#1219,1.);
#655=VECTOR('',#1220,1.);
#656=VECTOR('',#1221,1.);
#657=VECTOR('',#1222,1.);
#658=VECTOR('',#1223,1.);
#659=VECTOR('',#1232,1.);
#660=VECTOR('',#1233,1.);
#661=VECTOR('',#1234,1.);
#662=VECTOR('',#1237,1.);
#663=VECTOR('',#1238,1.);
#664=VECTOR('',#1239,1.);
#665=VECTOR('',#1244,1.);
#666=VECTOR('',#1245,1.);
#667=VECTOR('',#1258,1.);
#668=VECTOR('',#1261,1.);
#669=VECTOR('',#1268,1.);
#670=VECTOR('',#1269,1.);
#671=VECTOR('',#1272,1.);
#672=VECTOR('',#1275,1.);
#673=VECTOR('',#1322,1.);
#674=VECTOR('',#1323,1.);
#675=VECTOR('',#1324,1.);
#676=VECTOR('',#1325,1.);
#677=VECTOR('',#1326,1.);
#678=VECTOR('',#1329,1.);
#679=VECTOR('',#1330,1.);
#680=VECTOR('',#1331,1.);
#681=VECTOR('',#1332,1.);
#682=VECTOR('',#1335,1.);
#683=VECTOR('',#1336,1.);
#684=VECTOR('',#1339,1.);
#685=VECTOR('',#1340,1.);
#686=VECTOR('',#1343,1.);
#687=VECTOR('',#1346,1.);
#688=VECTOR('',#1353,1.);
#689=VECTOR('',#1354,1.);
#690=VECTOR('',#1355,1.);
#691=VECTOR('',#1356,1.);
#692=VECTOR('',#1359,1.);
#693=VECTOR('',#1360,1.);
#694=VECTOR('',#1361,1.);
#695=VECTOR('',#1364,1.);
#696=VECTOR('',#1365,1.);
#697=VECTOR('',#1366,1.);
#698=VECTOR('',#1369,1.);
#699=VECTOR('',#1370,1.);
#700=VECTOR('',#1379,1.);
#701=VECTOR('',#1380,1.);
#702=VECTOR('',#1381,1.);
#703=VECTOR('',#1382,1.);
#704=VECTOR('',#1385,1.);
#705=VECTOR('',#1386,1.);
#706=VECTOR('',#1387,1.);
#707=VECTOR('',#1390,1.);
#708=VECTOR('',#1391,1.);
#709=VECTOR('',#1392,1.);
#710=VECTOR('',#1395,1.);
#711=VECTOR('',#1396,1.);
#712=EDGE_LOOP('',(#70,#71,#72,#73,#74));
#713=EDGE_LOOP('',(#75,#76,#77));
#714=EDGE_LOOP('',(#78,#79,#80));
#715=EDGE_LOOP('',(#81,#82,#83,#84,#85));
#716=EDGE_LOOP('',(#86,#87,#88));
#717=EDGE_LOOP('',(#89,#90,#91,#92,#93));
#718=EDGE_LOOP('',(#94,#95,#96,#97,#98,#99));
#719=EDGE_LOOP('',(#100,#101,#102,#103));
#720=EDGE_LOOP('',(#104,#105,#106,#107));
#721=EDGE_LOOP('',(#108,#109,#110,#111));
#722=EDGE_LOOP('',(#112,#113,#114,#115));
#723=EDGE_LOOP('',(#116,#117,#118,#119));
#724=EDGE_LOOP('',(#120,#121,#122,#123));
#725=EDGE_LOOP('',(#124,#125,#126,#127));
#726=EDGE_LOOP('',(#128,#129,#130,#131));
#727=EDGE_LOOP('',(#132,#133,#134,#135));
#728=EDGE_LOOP('',(#136,#137,#138,#139));
#729=EDGE_LOOP('',(#140,#141,#142,#143));
#730=EDGE_LOOP('',(#144,#145,#146,#147));
#731=EDGE_LOOP('',(#148));
#732=EDGE_LOOP('',(#149));
#733=EDGE_LOOP('',(#150));
#734=EDGE_LOOP('',(#151,#152,#153,#154));
#735=EDGE_LOOP('',(#155,#156,#157,#158));
#736=EDGE_LOOP('',(#159));
#737=EDGE_LOOP('',(#160,#161,#162,#163));
#738=EDGE_LOOP('',(#164,#165,#166,#167));
#739=EDGE_LOOP('',(#168,#169,#170,#171));
#740=EDGE_LOOP('',(#172));
#741=EDGE_LOOP('',(#173));
#742=EDGE_LOOP('',(#174));
#743=EDGE_LOOP('',(#175,#176,#177,#178));
#744=EDGE_LOOP('',(#179,#180,#181,#182));
#745=EDGE_LOOP('',(#183));
#746=EDGE_LOOP('',(#184,#185,#186,#187));
#747=EDGE_LOOP('',(#188,#189,#190,#191));
#748=EDGE_LOOP('',(#192,#193,#194,#195));
#749=EDGE_LOOP('',(#196,#197,#198,#199));
#750=EDGE_LOOP('',(#200,#201,#202,#203));
#751=EDGE_LOOP('',(#204));
#752=EDGE_LOOP('',(#205));
#753=EDGE_LOOP('',(#206));
#754=EDGE_LOOP('',(#207));
#755=EDGE_LOOP('',(#208));
#756=EDGE_LOOP('',(#209));
#757=EDGE_LOOP('',(#210));
#758=EDGE_LOOP('',(#211));
#759=EDGE_LOOP('',(#212));
#760=EDGE_LOOP('',(#213));
#761=EDGE_LOOP('',(#214));
#762=EDGE_LOOP('',(#215));
#763=EDGE_LOOP('',(#216));
#764=EDGE_LOOP('',(#217));
#765=EDGE_LOOP('',(#218));
#766=EDGE_LOOP('',(#219));
#767=EDGE_LOOP('',(#220));
#768=EDGE_LOOP('',(#221));
#769=EDGE_LOOP('',(#222));
#770=EDGE_LOOP('',(#223));
#771=EDGE_LOOP('',(#224));
#772=EDGE_LOOP('',(#225));
#773=EDGE_LOOP('',(#226));
#774=EDGE_LOOP('',(#227));
#775=EDGE_LOOP('',(#228,#229,#230,#231,#232));
#776=EDGE_LOOP('',(#233,#234,#235,#236,#237));
#777=EDGE_LOOP('',(#238,#239,#240));
#778=EDGE_LOOP('',(#241,#242,#243));
#779=EDGE_LOOP('',(#244,#245,#246,#247,#248));
#780=EDGE_LOOP('',(#249,#250,#251));
#781=EDGE_LOOP('',(#252,#253,#254,#255,#256,#257));
#782=EDGE_LOOP('',(#258,#259,#260,#261));
#783=EDGE_LOOP('',(#262,#263,#264,#265));
#784=EDGE_LOOP('',(#266,#267,#268,#269));
#785=EDGE_LOOP('',(#270,#271,#272,#273));
#786=EDGE_LOOP('',(#274,#275,#276,#277));
#787=EDGE_LOOP('',(#278,#279,#280,#281));
#788=EDGE_LOOP('',(#282,#283,#284,#285));
#789=EDGE_LOOP('',(#286,#287,#288,#289));
#790=EDGE_LOOP('',(#290,#291,#292,#293));
#791=EDGE_LOOP('',(#294,#295,#296,#297));
#792=EDGE_LOOP('',(#298,#299,#300,#301));
#793=EDGE_LOOP('',(#302,#303,#304,#305));
#794=FACE_BOUND('',#712,.T.);
#795=FACE_BOUND('',#713,.T.);
#796=FACE_BOUND('',#714,.T.);
#797=FACE_BOUND('',#715,.T.);
#798=FACE_BOUND('',#716,.T.);
#799=FACE_BOUND('',#717,.T.);
#800=FACE_BOUND('',#718,.T.);
#801=FACE_BOUND('',#719,.T.);
#802=FACE_BOUND('',#720,.T.);
#803=FACE_BOUND('',#721,.T.);
#804=FACE_BOUND('',#722,.T.);
#805=FACE_BOUND('',#723,.T.);
#806=FACE_BOUND('',#724,.T.);
#807=FACE_BOUND('',#725,.T.);
#808=FACE_BOUND('',#726,.T.);
#809=FACE_BOUND('',#727,.T.);
#810=FACE_BOUND('',#728,.T.);
#811=FACE_BOUND('',#729,.T.);
#812=FACE_BOUND('',#730,.T.);
#813=FACE_BOUND('',#731,.T.);
#814=FACE_BOUND('',#732,.T.);
#815=FACE_BOUND('',#733,.T.);
#816=FACE_BOUND('',#734,.T.);
#817=FACE_BOUND('',#735,.T.);
#818=FACE_BOUND('',#736,.T.);
#819=FACE_BOUND('',#737,.T.);
#820=FACE_BOUND('',#738,.T.);
#821=FACE_BOUND('',#739,.T.);
#822=FACE_BOUND('',#740,.T.);
#823=FACE_BOUND('',#741,.T.);
#824=FACE_BOUND('',#742,.T.);
#825=FACE_BOUND('',#743,.T.);
#826=FACE_BOUND('',#744,.T.);
#827=FACE_BOUND('',#745,.T.);
#828=FACE_BOUND('',#746,.T.);
#829=FACE_BOUND('',#747,.T.);
#830=FACE_BOUND('',#748,.T.);
#831=FACE_BOUND('',#749,.T.);
#832=FACE_BOUND('',#750,.T.);
#833=FACE_BOUND('',#751,.T.);
#834=FACE_BOUND('',#752,.T.);
#835=FACE_BOUND('',#753,.T.);
#836=FACE_BOUND('',#754,.T.);
#837=FACE_BOUND('',#755,.T.);
#838=FACE_BOUND('',#756,.T.);
#839=FACE_BOUND('',#757,.T.);
#840=FACE_BOUND('',#758,.T.);
#841=FACE_BOUND('',#759,.T.);
#842=FACE_BOUND('',#760,.T.);
#843=FACE_BOUND('',#761,.T.);
#844=FACE_BOUND('',#762,.T.);
#845=FACE_BOUND('',#763,.T.);
#846=FACE_BOUND('',#764,.T.);
#847=FACE_BOUND('',#765,.T.);
#848=FACE_BOUND('',#766,.T.);
#849=FACE_BOUND('',#767,.T.);
#850=FACE_BOUND('',#768,.T.);
#851=FACE_BOUND('',#769,.T.);
#852=FACE_BOUND('',#770,.T.);
#853=FACE_BOUND('',#771,.T.);
#854=FACE_BOUND('',#772,.T.);
#855=FACE_BOUND('',#773,.T.);
#856=FACE_BOUND('',#774,.T.);
#857=FACE_BOUND('',#775,.T.);
#858=FACE_BOUND('',#776,.T.);
#859=FACE_BOUND('',#777,.T.);
#860=FACE_BOUND('',#778,.T.);
#861=FACE_BOUND('',#779,.T.);
#862=FACE_BOUND('',#780,.T.);
#863=FACE_BOUND('',#781,.T.);
#864=FACE_BOUND('',#782,.T.);
#865=FACE_BOUND('',#783,.T.);
#866=FACE_BOUND('',#784,.T.);
#867=FACE_BOUND('',#785,.T.);
#868=FACE_BOUND('',#786,.T.);
#869=FACE_BOUND('',#787,.T.);
#870=FACE_BOUND('',#788,.T.);
#871=FACE_BOUND('',#789,.T.);
#872=FACE_BOUND('',#790,.T.);
#873=FACE_BOUND('',#791,.T.);
#874=FACE_BOUND('',#792,.T.);
#875=FACE_BOUND('',#793,.T.);
#876=PLANE('',#1056);
#877=PLANE('',#1057);
#878=PLANE('',#1058);
#879=PLANE('',#1059);
#880=PLANE('',#1060);
#881=PLANE('',#1061);
#882=PLANE('',#1062);
#883=PLANE('',#1064);
#884=PLANE('',#1065);
#885=PLANE('',#1066);
#886=PLANE('',#1067);
#887=PLANE('',#1068);
#888=PLANE('',#1069);
#889=PLANE('',#1071);
#890=PLANE('',#1072);
#891=PLANE('',#1073);
#892=PLANE('',#1074);
#893=PLANE('',#1078);
#894=PLANE('',#1079);
#895=PLANE('',#1081);
#896=PLANE('',#1082);
#897=PLANE('',#1083);
#898=PLANE('',#1087);
#899=PLANE('',#1088);
#900=PLANE('',#1090);
#901=PLANE('',#1091);
#902=PLANE('',#1092);
#903=PLANE('',#1093);
#904=PLANE('',#1096);
#905=PLANE('',#1100);
#906=PLANE('',#1104);
#907=PLANE('',#1108);
#908=PLANE('',#1115);
#909=PLANE('',#1116);
#910=PLANE('',#1117);
#911=PLANE('',#1118);
#912=PLANE('',#1119);
#913=PLANE('',#1120);
#914=PLANE('',#1121);
#915=PLANE('',#1123);
#916=PLANE('',#1124);
#917=PLANE('',#1125);
#918=PLANE('',#1126);
#919=PLANE('',#1127);
#920=PLANE('',#1128);
#921=PLANE('',#1130);
#922=PLANE('',#1131);
#923=PLANE('',#1132);
#924=PLANE('',#1133);
#925=PLANE('',#1134);
#926=PLANE('',#1135);
#927=ADVANCED_FACE('',(#794),#876,.T.);
#928=ADVANCED_FACE('',(#795),#877,.F.);
#929=ADVANCED_FACE('',(#796),#878,.F.);
#930=ADVANCED_FACE('',(#797),#879,.T.);
#931=ADVANCED_FACE('',(#798),#880,.T.);
#932=ADVANCED_FACE('',(#799),#881,.F.);
#933=ADVANCED_FACE('',(#800),#882,.F.);
#934=ADVANCED_FACE('',(#801),#883,.T.);
#935=ADVANCED_FACE('',(#802),#884,.F.);
#936=ADVANCED_FACE('',(#803),#885,.F.);
#937=ADVANCED_FACE('',(#804),#886,.T.);
#938=ADVANCED_FACE('',(#805),#887,.T.);
#939=ADVANCED_FACE('',(#806),#888,.F.);
#940=ADVANCED_FACE('',(#807,#808),#889,.F.);
#941=ADVANCED_FACE('',(#809,#810),#890,.T.);
#942=ADVANCED_FACE('',(#811,#812),#891,.T.);
#943=ADVANCED_FACE('',(#813,#814,#815,#816),#892,.F.);
#944=ADVANCED_FACE('',(#817),#893,.F.);
#945=ADVANCED_FACE('',(#818,#819),#894,.T.);
#946=ADVANCED_FACE('',(#820),#895,.T.);
#947=ADVANCED_FACE('',(#821),#896,.F.);
#948=ADVANCED_FACE('',(#822,#823,#824,#825),#897,.T.);
#949=ADVANCED_FACE('',(#826),#898,.T.);
#950=ADVANCED_FACE('',(#827,#828),#899,.F.);
#951=ADVANCED_FACE('',(#829),#900,.F.);
#952=ADVANCED_FACE('',(#830),#901,.T.);
#953=ADVANCED_FACE('',(#831),#902,.T.);
#954=ADVANCED_FACE('',(#832),#903,.F.);
#955=ADVANCED_FACE('',(#833,#834),#10,.T.);
#956=ADVANCED_FACE('',(#835,#836),#904,.T.);
#957=ADVANCED_FACE('',(#837,#838),#11,.T.);
#958=ADVANCED_FACE('',(#839,#840),#905,.T.);
#959=ADVANCED_FACE('',(#841,#842),#12,.T.);
#960=ADVANCED_FACE('',(#843,#844),#906,.T.);
#961=ADVANCED_FACE('',(#845,#846),#13,.T.);
#962=ADVANCED_FACE('',(#847,#848),#907,.T.);
#963=ADVANCED_FACE('',(#849,#850),#14,.F.);
#964=ADVANCED_FACE('',(#851,#852),#15,.F.);
#965=ADVANCED_FACE('',(#853,#854),#16,.F.);
#966=ADVANCED_FACE('',(#855,#856),#17,.F.);
#967=ADVANCED_FACE('',(#857),#908,.T.);
#968=ADVANCED_FACE('',(#858),#909,.F.);
#969=ADVANCED_FACE('',(#859),#910,.F.);
#970=ADVANCED_FACE('',(#860),#911,.T.);
#971=ADVANCED_FACE('',(#861),#912,.T.);
#972=ADVANCED_FACE('',(#862),#913,.F.);
#973=ADVANCED_FACE('',(#863),#914,.F.);
#974=ADVANCED_FACE('',(#864),#915,.T.);
#975=ADVANCED_FACE('',(#865),#916,.F.);
#976=ADVANCED_FACE('',(#866),#917,.F.);
#977=ADVANCED_FACE('',(#867),#918,.T.);
#978=ADVANCED_FACE('',(#868),#919,.T.);
#979=ADVANCED_FACE('',(#869),#920,.F.);
#980=ADVANCED_FACE('',(#870),#921,.T.);
#981=ADVANCED_FACE('',(#871),#922,.F.);
#982=ADVANCED_FACE('',(#872),#923,.F.);
#983=ADVANCED_FACE('',(#873),#924,.T.);
#984=ADVANCED_FACE('',(#874),#925,.T.);
#985=ADVANCED_FACE('',(#875),#926,.F.);
#986=CLOSED_SHELL('',(#927,#928,#929,#930,#931,#932,#933));
#987=CLOSED_SHELL('',(#934,#935,#936,#937,#938,#939));
#988=CLOSED_SHELL('',(#940,#941,#942,#943,#944,#945,#946,#947,#948,#949,
#950,#951,#952,#953,#954,#955,#956,#957,#958,#959,#960,#961,#962,#963,#964,
#965,#966));
#989=CLOSED_SHELL('',(#967,#968,#969,#970,#971,#972,#973));
#990=CLOSED_SHELL('',(#974,#975,#976,#977,#978,#979));
#991=CLOSED_SHELL('',(#980,#981,#982,#983,#984,#985));
#992=STYLED_ITEM('',(#998),#1035);
#993=STYLED_ITEM('',(#999),#1036);
#994=STYLED_ITEM('',(#1000),#1037);
#995=STYLED_ITEM('',(#1001),#1038);
#996=STYLED_ITEM('',(#1002),#1039);
#997=STYLED_ITEM('',(#1003),#1040);
#998=PRESENTATION_STYLE_ASSIGNMENT((#1004));
#999=PRESENTATION_STYLE_ASSIGNMENT((#1005));
#1000=PRESENTATION_STYLE_ASSIGNMENT((#1006));
#1001=PRESENTATION_STYLE_ASSIGNMENT((#1007));
#1002=PRESENTATION_STYLE_ASSIGNMENT((#1008));
#1003=PRESENTATION_STYLE_ASSIGNMENT((#1009));
#1004=SURFACE_STYLE_USAGE(.BOTH.,#1010);
#1005=SURFACE_STYLE_USAGE(.BOTH.,#1011);
#1006=SURFACE_STYLE_USAGE(.BOTH.,#1012);
#1007=SURFACE_STYLE_USAGE(.BOTH.,#1013);
#1008=SURFACE_STYLE_USAGE(.BOTH.,#1014);
#1009=SURFACE_STYLE_USAGE(.BOTH.,#1015);
#1010=SURFACE_SIDE_STYLE('',(#1016));
#1011=SURFACE_SIDE_STYLE('',(#1017));
#1012=SURFACE_SIDE_STYLE('',(#1018));
#1013=SURFACE_SIDE_STYLE('',(#1019));
#1014=SURFACE_SIDE_STYLE('',(#1020));
#1015=SURFACE_SIDE_STYLE('',(#1021));
#1016=SURFACE_STYLE_FILL_AREA(#1022);
#1017=SURFACE_STYLE_FILL_AREA(#1023);
#1018=SURFACE_STYLE_FILL_AREA(#1024);
#1019=SURFACE_STYLE_FILL_AREA(#1025);
#1020=SURFACE_STYLE_FILL_AREA(#1026);
#1021=SURFACE_STYLE_FILL_AREA(#1027);
#1022=FILL_AREA_STYLE('',(#1028));
#1023=FILL_AREA_STYLE('',(#1029));
#1024=FILL_AREA_STYLE('',(#1030));
#1025=FILL_AREA_STYLE('',(#1031));
#1026=FILL_AREA_STYLE('',(#1032));
#1027=FILL_AREA_STYLE('',(#1033));
#1028=FILL_AREA_STYLE_COLOUR('',#1034);
#1029=FILL_AREA_STYLE_COLOUR('',#1034);
#1030=FILL_AREA_STYLE_COLOUR('',#1034);
#1031=FILL_AREA_STYLE_COLOUR('',#1034);
#1032=FILL_AREA_STYLE_COLOUR('',#1034);
#1033=FILL_AREA_STYLE_COLOUR('',#1034);
#1034=COLOUR_RGB('',0.615686274509804,0.811764705882353,0.929411764705882);
#1035=MANIFOLD_SOLID_BREP('schraege_r',#986);
#1036=MANIFOLD_SOLID_BREP('118',#987);
#1037=MANIFOLD_SOLID_BREP('gehaeuse',#988);
#1038=MANIFOLD_SOLID_BREP('schraege_l',#989);
#1039=MANIFOLD_SOLID_BREP('10',#990);
#1040=MANIFOLD_SOLID_BREP('16',#991);
#1041=SHAPE_DEFINITION_REPRESENTATION(#1689,#1048);
#1042=SHAPE_DEFINITION_REPRESENTATION(#1690,#1049);
#1043=SHAPE_DEFINITION_REPRESENTATION(#1692,#1050);
#1044=SHAPE_DEFINITION_REPRESENTATION(#1694,#1051);
#1045=SHAPE_DEFINITION_REPRESENTATION(#1696,#1052);
#1046=SHAPE_DEFINITION_REPRESENTATION(#1698,#1053);
#1047=SHAPE_DEFINITION_REPRESENTATION(#1700,#1054);
#1048=SHAPE_REPRESENTATION('elbsammler',(#1055,#1063,#1070,#1114,#1122,
#1129,#1136),#1672);
#1049=SHAPE_REPRESENTATION('schraege_r',(#1055),#1673);
#1050=SHAPE_REPRESENTATION('118',(#1055),#1674);
#1051=SHAPE_REPRESENTATION('gehaeuse',(#1055),#1675);
#1052=SHAPE_REPRESENTATION('schraege_l',(#1055),#1676);
#1053=SHAPE_REPRESENTATION('10',(#1055),#1677);
#1054=SHAPE_REPRESENTATION('16',(#1055),#1678);
#1055=AXIS2_PLACEMENT_3D('',#1403,#1137,#1138);
#1056=AXIS2_PLACEMENT_3D('',#1404,#1139,#1140);
#1057=AXIS2_PLACEMENT_3D('',#1415,#1146,#1147);
#1058=AXIS2_PLACEMENT_3D('',#1419,#1150,#1151);
#1059=AXIS2_PLACEMENT_3D('',#1426,#1155,#1156);
#1060=AXIS2_PLACEMENT_3D('',#1431,#1160,#1161);
#1061=AXIS2_PLACEMENT_3D('',#1433,#1163,#1164);
#1062=AXIS2_PLACEMENT_3D('',#1435,#1166,#1167);
#1063=AXIS2_PLACEMENT_3D('',#1436,#1168,#1169);
#1064=AXIS2_PLACEMENT_3D('',#1437,#1170,#1171);
#1065=AXIS2_PLACEMENT_3D('',#1446,#1176,#1177);
#1066=AXIS2_PLACEMENT_3D('',#1452,#1181,#1182);
#1067=AXIS2_PLACEMENT_3D('',#1458,#1186,#1187);
#1068=AXIS2_PLACEMENT_3D('',#1461,#1190,#1191);
#1069=AXIS2_PLACEMENT_3D('',#1462,#1192,#1193);
#1070=AXIS2_PLACEMENT_3D('',#1463,#1194,#1195);
#1071=AXIS2_PLACEMENT_3D('',#1464,#1196,#1197);
#1072=AXIS2_PLACEMENT_3D('',#1481,#1206,#1207);
#1073=AXIS2_PLACEMENT_3D('',#1498,#1216,#1217);
#1074=AXIS2_PLACEMENT_3D('',#1509,#1224,#1225);
#1075=AXIS2_PLACEMENT_3D('',#1510,#1226,#1227);
#1076=AXIS2_PLACEMENT_3D('',#1512,#1228,#1229);
#1077=AXIS2_PLACEMENT_3D('',#1514,#1230,#1231);
#1078=AXIS2_PLACEMENT_3D('',#1521,#1235,#1236);
#1079=AXIS2_PLACEMENT_3D('',#1527,#1240,#1241);
#1080=AXIS2_PLACEMENT_3D('',#1528,#1242,#1243);
#1081=AXIS2_PLACEMENT_3D('',#1532,#1246,#1247);
#1082=AXIS2_PLACEMENT_3D('',#1533,#1248,#1249);
#1083=AXIS2_PLACEMENT_3D('',#1534,#1250,#1251);
#1084=AXIS2_PLACEMENT_3D('',#1535,#1252,#1253);
#1085=AXIS2_PLACEMENT_3D('',#1537,#1254,#1255);
#1086=AXIS2_PLACEMENT_3D('',#1539,#1256,#1257);
#1087=AXIS2_PLACEMENT_3D('',#1542,#1259,#1260);
#1088=AXIS2_PLACEMENT_3D('',#1544,#1262,#1263);
#1089=AXIS2_PLACEMENT_3D('',#1545,#1264,#1265);
#1090=AXIS2_PLACEMENT_3D('',#1547,#1266,#1267);
#1091=AXIS2_PLACEMENT_3D('',#1550,#1270,#1271);
#1092=AXIS2_PLACEMENT_3D('',#1552,#1273,#1274);
#1093=AXIS2_PLACEMENT_3D('',#1554,#1276,#1277);
#1094=AXIS2_PLACEMENT_3D('',#1555,#1278,#1279);
#1095=AXIS2_PLACEMENT_3D('',#1556,#1280,#1281);
#1096=AXIS2_PLACEMENT_3D('',#1558,#1282,#1283);
#1097=AXIS2_PLACEMENT_3D('',#1559,#1284,#1285);
#1098=AXIS2_PLACEMENT_3D('',#1561,#1286,#1287);
#1099=AXIS2_PLACEMENT_3D('',#1562,#1288,#1289);
#1100=AXIS2_PLACEMENT_3D('',#1564,#1290,#1291);
#1101=AXIS2_PLACEMENT_3D('',#1565,#1292,#1293);
#1102=AXIS2_PLACEMENT_3D('',#1567,#1294,#1295);
#1103=AXIS2_PLACEMENT_3D('',#1568,#1296,#1297);
#1104=AXIS2_PLACEMENT_3D('',#1570,#1298,#1299);
#1105=AXIS2_PLACEMENT_3D('',#1571,#1300,#1301);
#1106=AXIS2_PLACEMENT_3D('',#1573,#1302,#1303);
#1107=AXIS2_PLACEMENT_3D('',#1574,#1304,#1305);
#1108=AXIS2_PLACEMENT_3D('',#1576,#1306,#1307);
#1109=AXIS2_PLACEMENT_3D('',#1577,#1308,#1309);
#1110=AXIS2_PLACEMENT_3D('',#1579,#1310,#1311);
#1111=AXIS2_PLACEMENT_3D('',#1580,#1312,#1313);
#1112=AXIS2_PLACEMENT_3D('',#1581,#1314,#1315);
#1113=AXIS2_PLACEMENT_3D('',#1582,#1316,#1317);
#1114=AXIS2_PLACEMENT_3D('',#1583,#1318,#1319);
#1115=AXIS2_PLACEMENT_3D('',#1584,#1320,#1321);
#1116=AXIS2_PLACEMENT_3D('',#1595,#1327,#1328);
#1117=AXIS2_PLACEMENT_3D('',#1603,#1333,#1334);
#1118=AXIS2_PLACEMENT_3D('',#1607,#1337,#1338);
#1119=AXIS2_PLACEMENT_3D('',#1611,#1341,#1342);
#1120=AXIS2_PLACEMENT_3D('',#1613,#1344,#1345);
#1121=AXIS2_PLACEMENT_3D('',#1615,#1347,#1348);
#1122=AXIS2_PLACEMENT_3D('',#1616,#1349,#1350);
#1123=AXIS2_PLACEMENT_3D('',#1617,#1351,#1352);
#1124=AXIS2_PLACEMENT_3D('',#1626,#1357,#1358);
#1125=AXIS2_PLACEMENT_3D('',#1632,#1362,#1363);
#1126=AXIS2_PLACEMENT_3D('',#1638,#1367,#1368);
#1127=AXIS2_PLACEMENT_3D('',#1641,#1371,#1372);
#1128=AXIS2_PLACEMENT_3D('',#1642,#1373,#1374);
#1129=AXIS2_PLACEMENT_3D('',#1643,#1375,#1376);
#1130=AXIS2_PLACEMENT_3D('',#1644,#1377,#1378);
#1131=AXIS2_PLACEMENT_3D('',#1653,#1383,#1384);
#1132=AXIS2_PLACEMENT_3D('',#1659,#1388,#1389);
#1133=AXIS2_PLACEMENT_3D('',#1665,#1393,#1394);
#1134=AXIS2_PLACEMENT_3D('',#1668,#1397,#1398);
#1135=AXIS2_PLACEMENT_3D('',#1669,#1399,#1400);
#1136=AXIS2_PLACEMENT_3D('',#1670,#1401,#1402);
#1137=DIRECTION('',(0.,0.,1.));
#1138=DIRECTION('',(1.,0.,0.));
#1139=DIRECTION('',(0.,1.,0.));
#1140=DIRECTION('',(0.,0.,1.));
#1141=DIRECTION('',(-0.707106781186548,0.,-0.707106781186547));
#1142=DIRECTION('',(1.,0.,0.));
#1143=DIRECTION('',(0.,0.,-1.));
#1144=DIRECTION('',(1.,0.,0.));
#1145=DIRECTION('',(0.,0.,-1.));
#1146=DIRECTION('',(1.,0.,0.));
#1147=DIRECTION('',(0.,0.,-1.));
#1148=DIRECTION('',(0.,-1.,0.));
#1149=DIRECTION('',(0.,0.736517530601432,0.676418455629922));
#1150=DIRECTION('',(0.,1.,0.));
#1151=DIRECTION('',(0.,0.,1.));
#1152=DIRECTION('',(0.,0.,-1.));
#1153=DIRECTION('',(-0.707106781186548,0.,-0.707106781186547));
#1154=DIRECTION('',(1.,0.,0.));
#1155=DIRECTION('',(1.,0.,0.));
#1156=DIRECTION('',(0.,0.,-1.));
#1157=DIRECTION('',(0.,0.736517530601432,0.676418455629922));
#1158=DIRECTION('',(0.,-1.,0.));
#1159=DIRECTION('',(0.,-1.,0.));
#1160=DIRECTION('',(0.,0.,1.));
#1161=DIRECTION('',(1.,0.,0.));
#1162=DIRECTION('',(-0.676418455629922,0.736517530601432,0.));
#1163=DIRECTION('',(0.,0.,1.));
#1164=DIRECTION('',(1.,0.,0.));
#1165=DIRECTION('',(-0.676418455629922,0.736517530601432,0.));
#1166=DIRECTION('',(0.593029645775782,0.544639035015027,-0.593029645775783));
#1167=DIRECTION('',(-0.385117954958023,0.838670567945424,0.385117954958023));
#1168=DIRECTION('',(0.707106781186548,-4.17229699771078E-26,-0.707106781186547));
#1169=DIRECTION('',(0.707106781186547,3.23092899261937E-16,0.707106781186548));
#1170=DIRECTION('',(0.,0.,1.));
#1171=DIRECTION('',(1.,0.,0.));
#1172=DIRECTION('',(1.,0.,0.));
#1173=DIRECTION('',(0.,1.,0.));
#1174=DIRECTION('',(1.,0.,0.));
#1175=DIRECTION('',(0.,1.,0.));
#1176=DIRECTION('',(1.,0.,0.));
#1177=DIRECTION('',(0.,0.,-1.));
#1178=DIRECTION('',(0.,0.,-1.));
#1179=DIRECTION('',(0.,1.,0.));
#1180=DIRECTION('',(0.,0.,-1.));
#1181=DIRECTION('',(0.,0.,1.));
#1182=DIRECTION('',(1.,0.,0.));
#1183=DIRECTION('',(1.,0.,0.));
#1184=DIRECTION('',(0.,1.,0.));
#1185=DIRECTION('',(1.,0.,0.));
#1186=DIRECTION('',(1.,0.,0.));
#1187=DIRECTION('',(0.,0.,-1.));
#1188=DIRECTION('',(0.,0.,-1.));
#1189=DIRECTION('',(0.,0.,-1.));
#1190=DIRECTION('',(0.,-1.,0.));
#1191=DIRECTION('',(1.,0.,0.));
#1192=DIRECTION('',(0.,-1.,0.));
#1193=DIRECTION('',(1.,0.,0.));
#1194=DIRECTION('',(1.,-1.4157966309571E-26,-6.85824233757343E-34));
#1195=DIRECTION('',(-1.18738700193267E-26,-0.838670567945424,-0.544639035015027));
#1196=DIRECTION('',(0.,-1.,0.));
#1197=DIRECTION('',(1.,0.,0.));
#1198=DIRECTION('',(1.,0.,1.66533453693773E-16));
#1199=DIRECTION('',(0.,0.,-1.));
#1200=DIRECTION('',(1.,0.,2.22044604925032E-16));
#1201=DIRECTION('',(0.,0.,-1.));
#1202=DIRECTION('',(1.,0.,0.));
#1203=DIRECTION('',(0.,0.,-1.));
#1204=DIRECTION('',(1.,0.,0.));
#1205=DIRECTION('',(0.,0.,-1.));
#1206=DIRECTION('',(0.,-1.,0.));
#1207=DIRECTION('',(1.,0.,0.));
#1208=DIRECTION('',(1.,0.,1.66533453693773E-16));
#1209=DIRECTION('',(0.,0.,-1.));
#1210=DIRECTION('',(1.,0.,2.22044604925032E-16));
#1211=DIRECTION('',(0.,0.,-1.));
#1212=DIRECTION('',(0.,0.,-1.));
#1213=DIRECTION('',(1.,0.,0.));
#1214=DIRECTION('',(0.,0.,-1.));
#1215=DIRECTION('',(1.,0.,0.));
#1216=DIRECTION('',(-1.66533453693773E-16,0.,1.));
#1217=DIRECTION('',(1.,0.,1.66533453693773E-16));
#1218=DIRECTION('',(1.,0.,1.66533453693773E-16));
#1219=DIRECTION('',(0.,1.,0.));
#1220=DIRECTION('',(1.,0.,1.66533453693773E-16));
#1221=DIRECTION('',(0.,1.,0.));
#1222=DIRECTION('',(0.,1.,0.));
#1223=DIRECTION('',(0.,1.,0.));
#1224=DIRECTION('',(1.,0.,0.));
#1225=DIRECTION('',(0.,0.,-1.));
#1226=DIRECTION('',(-1.,0.,0.));
#1227=DIRECTION('',(0.,0.,1.));
#1228=DIRECTION('',(-1.,0.,0.));
#1229=DIRECTION('',(0.,0.,1.));
#1230=DIRECTION('',(-1.,0.,0.));
#1231=DIRECTION('',(0.,0.,1.));
#1232=DIRECTION('',(0.,0.,-1.));
#1233=DIRECTION('',(0.,1.,0.));
#1234=DIRECTION('',(0.,0.,-1.));
#1235=DIRECTION('',(-2.22044604925032E-16,0.,1.));
#1236=DIRECTION('',(1.,0.,2.22044604925032E-16));
#1237=DIRECTION('',(1.,0.,2.22044604925032E-16));
#1238=DIRECTION('',(0.,1.,0.));
#1239=DIRECTION('',(1.,0.,2.22044604925032E-16));
#1240=DIRECTION('',(1.,0.,0.));
#1241=DIRECTION('',(0.,0.,-1.));
#1242=DIRECTION('',(1.,0.,0.));
#1243=DIRECTION('',(0.,0.,-1.));
#1244=DIRECTION('',(0.,0.,-1.));
#1245=DIRECTION('',(0.,0.,-1.));
#1246=DIRECTION('',(0.,-1.,0.));
#1247=DIRECTION('',(1.,0.,0.));
#1248=DIRECTION('',(0.,-1.,0.));
#1249=DIRECTION('',(1.,0.,0.));
#1250=DIRECTION('',(1.,0.,0.));
#1251=DIRECTION('',(0.,0.,-1.));
#1252=DIRECTION('',(1.,0.,0.));
#1253=DIRECTION('',(0.,0.,-1.));
#1254=DIRECTION('',(1.,0.,0.));
#1255=DIRECTION('',(0.,0.,-1.));
#1256=DIRECTION('',(1.,0.,0.));
#1257=DIRECTION('',(0.,0.,-1.));
#1258=DIRECTION('',(0.,1.,0.));
#1259=DIRECTION('',(-2.22044604925032E-16,0.,1.));
#1260=DIRECTION('',(1.,0.,2.22044604925032E-16));
#1261=DIRECTION('',(0.,1.,0.));
#1262=DIRECTION('',(1.,0.,0.));
#1263=DIRECTION('',(0.,0.,-1.));
#1264=DIRECTION('',(1.,0.,0.));
#1265=DIRECTION('',(0.,0.,-1.));
#1266=DIRECTION('',(0.,0.,-1.));
#1267=DIRECTION('',(-1.,0.,0.));
#1268=DIRECTION('',(0.,-1.,0.));
#1269=DIRECTION('',(0.,-1.,0.));
#1270=DIRECTION('',(-1.,0.,0.));
#1271=DIRECTION('',(0.,0.,1.));
#1272=DIRECTION('',(0.,-1.,0.));
#1273=DIRECTION('',(0.,0.,-1.));
#1274=DIRECTION('',(-1.,0.,0.));
#1275=DIRECTION('',(0.,-1.,0.));
#1276=DIRECTION('',(-1.,0.,0.));
#1277=DIRECTION('',(0.,0.,1.));
#1278=DIRECTION('',(1.,0.,0.));
#1279=DIRECTION('',(0.,0.,-1.));
#1280=DIRECTION('',(-1.,0.,0.));
#1281=DIRECTION('',(0.,0.,1.));
#1282=DIRECTION('',(-1.,0.,0.));
#1283=DIRECTION('',(0.,-1.,0.));
#1284=DIRECTION('',(1.,0.,0.));
#1285=DIRECTION('',(0.,0.,-1.));
#1286=DIRECTION('',(1.,0.,0.));
#1287=DIRECTION('',(0.,0.,-1.));
#1288=DIRECTION('',(-1.,0.,0.));
#1289=DIRECTION('',(0.,0.,1.));
#1290=DIRECTION('',(-1.,0.,0.));
#1291=DIRECTION('',(0.,-1.,0.));
#1292=DIRECTION('',(1.,0.,0.));
#1293=DIRECTION('',(0.,0.,-1.));
#1294=DIRECTION('',(1.,0.,0.));
#1295=DIRECTION('',(0.,0.,-1.));
#1296=DIRECTION('',(-1.,0.,0.));
#1297=DIRECTION('',(0.,0.,1.));
#1298=DIRECTION('',(-1.,0.,0.));
#1299=DIRECTION('',(0.,-1.,0.));
#1300=DIRECTION('',(1.,0.,0.));
#1301=DIRECTION('',(0.,0.,-1.));
#1302=DIRECTION('',(-1.,0.,0.));
#1303=DIRECTION('',(0.,0.,1.));
#1304=DIRECTION('',(1.,0.,0.));
#1305=DIRECTION('',(0.,0.,-1.));
#1306=DIRECTION('',(1.,0.,0.));
#1307=DIRECTION('',(0.,1.,0.));
#1308=DIRECTION('',(-1.,0.,0.));
#1309=DIRECTION('',(0.,0.,1.));
#1310=DIRECTION('',(-1.,0.,0.));
#1311=DIRECTION('',(0.,0.,1.));
#1312=DIRECTION('',(1.,0.,0.));
#1313=DIRECTION('',(0.,0.,-1.));
#1314=DIRECTION('',(1.,0.,0.));
#1315=DIRECTION('',(0.,0.,-1.));
#1316=DIRECTION('',(1.,0.,0.));
#1317=DIRECTION('',(0.,0.,-1.));
#1318=DIRECTION('',(-5.06432721278096E-53,7.15228660942322E-27,1.));
#1319=DIRECTION('',(1.41579648105351E-26,1.,-7.15228660942322E-27));
#1320=DIRECTION('',(0.,1.,0.));
#1321=DIRECTION('',(0.,0.,1.));
#1322=DIRECTION('',(0.736517530601432,0.,0.676418455629921));
#1323=DIRECTION('',(1.,0.,0.));
#1324=DIRECTION('',(0.,0.,-1.));
#1325=DIRECTION('',(1.,0.,0.));
#1326=DIRECTION('',(0.,0.,-1.));
#1327=DIRECTION('',(1.,0.,0.));
#1328=DIRECTION('',(0.,0.,-1.));
#1329=DIRECTION('',(0.,-1.,0.));
#1330=DIRECTION('',(0.,-0.707106781186548,0.707106781186548));
#1331=DIRECTION('',(0.,0.,-1.));
#1332=DIRECTION('',(0.,-1.,0.));
#1333=DIRECTION('',(0.,1.,0.));
#1334=DIRECTION('',(0.,0.,1.));
#1335=DIRECTION('',(0.736517530601432,0.,0.676418455629921));
#1336=DIRECTION('',(1.,0.,0.));
#1337=DIRECTION('',(1.,0.,0.));
#1338=DIRECTION('',(0.,0.,-1.));
#1339=DIRECTION('',(0.,-0.707106781186548,0.707106781186548));
#1340=DIRECTION('',(0.,-1.,0.));
#1341=DIRECTION('',(0.,0.,1.));
#1342=DIRECTION('',(1.,0.,0.));
#1343=DIRECTION('',(-0.736517530601432,-0.676418455629921,0.));
#1344=DIRECTION('',(0.,0.,1.));
#1345=DIRECTION('',(1.,0.,0.));
#1346=DIRECTION('',(-0.736517530601432,-0.676418455629921,0.));
#1347=DIRECTION('',(-0.544639035015027,0.593029645775783,0.593029645775783));
#1348=DIRECTION('',(-0.838670567945425,-0.385117954958023,-0.385117954958022));
#1349=DIRECTION('',(0.707106781186548,-1.18490678642153E-26,0.707106781186548));
#1350=DIRECTION('',(1.74641294275648E-27,1.,1.50106995322961E-26));
#1351=DIRECTION('',(0.,0.,1.));
#1352=DIRECTION('',(1.,0.,0.));
#1353=DIRECTION('',(1.,0.,0.));
#1354=DIRECTION('',(0.,1.,0.));
#1355=DIRECTION('',(1.,0.,0.));
#1356=DIRECTION('',(0.,1.,0.));
#1357=DIRECTION('',(1.,0.,0.));
#1358=DIRECTION('',(0.,0.,-1.));
#1359=DIRECTION('',(0.,0.,-1.));
#1360=DIRECTION('',(0.,1.,0.));
#1361=DIRECTION('',(0.,0.,-1.));
#1362=DIRECTION('',(0.,0.,1.));
#1363=DIRECTION('',(1.,0.,0.));
#1364=DIRECTION('',(1.,0.,0.));
#1365=DIRECTION('',(0.,1.,0.));
#1366=DIRECTION('',(1.,0.,0.));
#1367=DIRECTION('',(1.,0.,0.));
#1368=DIRECTION('',(0.,0.,-1.));
#1369=DIRECTION('',(0.,0.,-1.));
#1370=DIRECTION('',(0.,0.,-1.));
#1371=DIRECTION('',(0.,-1.,0.));
#1372=DIRECTION('',(1.,0.,0.));
#1373=DIRECTION('',(0.,-1.,0.));
#1374=DIRECTION('',(1.,0.,0.));
#1375=DIRECTION('',(1.92894241376097E-16,0.707106781186547,0.707106781186548));
#1376=DIRECTION('',(-1.,1.13403354422389E-16,1.59390297835357E-16));
#1377=DIRECTION('',(0.,0.,1.));
#1378=DIRECTION('',(1.,0.,0.));
#1379=DIRECTION('',(1.,0.,0.));
#1380=DIRECTION('',(0.,1.,0.));
#1381=DIRECTION('',(1.,0.,0.));
#1382=DIRECTION('',(0.,1.,0.));
#1383=DIRECTION('',(1.,0.,0.));
#1384=DIRECTION('',(0.,0.,-1.));
#1385=DIRECTION('',(0.,0.,-1.));
#1386=DIRECTION('',(0.,1.,0.));
#1387=DIRECTION('',(0.,0.,-1.));
#1388=DIRECTION('',(0.,0.,1.));
#1389=DIRECTION('',(1.,0.,0.));
#1390=DIRECTION('',(1.,0.,0.));
#1391=DIRECTION('',(0.,1.,0.));
#1392=DIRECTION('',(1.,0.,0.));
#1393=DIRECTION('',(1.,0.,0.));
#1394=DIRECTION('',(0.,0.,-1.));
#1395=DIRECTION('',(0.,0.,-1.));
#1396=DIRECTION('',(0.,0.,-1.));
#1397=DIRECTION('',(0.,-1.,0.));
#1398=DIRECTION('',(1.,0.,0.));
#1399=DIRECTION('',(0.,-1.,0.));
#1400=DIRECTION('',(1.,0.,0.));
#1401=DIRECTION('',(9.35226412733985E-19,-0.819152044288992,0.573576436351046));
#1402=DIRECTION('',(-1.,-2.72055861405202E-19,1.24198145627293E-18));
#1403=CARTESIAN_POINT('',(0.,0.,0.));
#1404=CARTESIAN_POINT('',(0.0706346956267953,0.22327886878853,0.005));
#1405=CARTESIAN_POINT('',(0.00786872104097812,0.22327886878853,0.0677659745858172));
#1406=CARTESIAN_POINT('',(-0.0548972535448392,0.22327886878853,0.005));
#1407=CARTESIAN_POINT('',(-0.0593653043732047,0.22327886878853,0.000531949171634419));
#1408=CARTESIAN_POINT('',(0.0706346956267953,0.22327886878853,0.005));
#1409=CARTESIAN_POINT('',(0.200634695626796,0.22327886878853,0.005));
#1410=CARTESIAN_POINT('',(0.200634695626796,0.22327886878853,0.005));
#1411=CARTESIAN_POINT('',(0.200634695626796,0.22327886878853,0.));
#1412=CARTESIAN_POINT('',(0.0706346956267953,0.22327886878853,0.));
#1413=CARTESIAN_POINT('',(-0.0593653043732048,0.22327886878853,0.));
#1414=CARTESIAN_POINT('',(-0.0593653043732048,0.22327886878853,0.005));
#1415=CARTESIAN_POINT('',(-0.0593653043732047,0.0832788687885306,0.005));
#1416=CARTESIAN_POINT('',(-0.0593653043732047,0.0832788687885306,0.));
#1417=CARTESIAN_POINT('',(-0.0593653043732047,0.222699656487274,0.));
#1418=CARTESIAN_POINT('',(-0.0593653043732047,0.149560694925321,-0.0671708973250293));
#1419=CARTESIAN_POINT('',(0.0706346956267953,-0.0567211312114694,0.005));
#1420=CARTESIAN_POINT('',(0.200634695626796,-0.0567211312114694,0.005));
#1421=CARTESIAN_POINT('',(0.200634695626796,-0.0567211312114694,0.00337966194539743));
#1422=CARTESIAN_POINT('',(0.200634695626796,-0.0567211312114694,0.));
#1423=CARTESIAN_POINT('',(0.136444864654096,-0.0567211312114694,-0.0608101690273013));
#1424=CARTESIAN_POINT('',(0.197255033681398,-0.0567211312114694,0.));
#1425=CARTESIAN_POINT('',(0.0706346956267953,-0.0567211312114694,0.));
#1426=CARTESIAN_POINT('',(0.200634695626796,0.0832788687885306,0.005));
#1427=CARTESIAN_POINT('',(0.200634695626796,0.0200302417709367,0.0738682016246108));
#1428=CARTESIAN_POINT('',(0.200634695626796,-0.0549568278090673,0.005));
#1429=CARTESIAN_POINT('',(0.200634695626796,0.0832788687885306,0.));
#1430=CARTESIAN_POINT('',(0.200634695626796,0.0832788687885306,0.005));
#1431=CARTESIAN_POINT('',(0.0706346956267953,0.0832788687885306,0.005));
#1432=CARTESIAN_POINT('',(0.0722860434770046,0.0847954683481287,0.005));
#1433=CARTESIAN_POINT('',(0.0706346956267953,0.0832788687885306,0.));
#1434=CARTESIAN_POINT('',(0.0695737531125884,0.0823044980951598,0.));
#1435=CARTESIAN_POINT('',(0.164543559080672,-0.274620218284462,-0.232830219691187));
#1436=CARTESIAN_POINT('',(0.0475883622740125,0.22327886878853,-0.449858116997964));
#1437=CARTESIAN_POINT('',(-0.00264635600149632,-0.01,-0.0121701113757864));
#1438=CARTESIAN_POINT('',(-0.00264635600149632,0.,-0.0121701113757864));
#1439=CARTESIAN_POINT('',(-0.587646356001496,0.,-0.0121701113757864));
#1440=CARTESIAN_POINT('',(0.582353643998504,0.,-0.0121701113757864));
#1441=CARTESIAN_POINT('',(-0.587646356001496,-0.01,-0.0121701113757864));
#1442=CARTESIAN_POINT('',(-0.587646356001496,-0.01,-0.0121701113757864));
#1443=CARTESIAN_POINT('',(-0.00264635600149632,-0.01,-0.0121701113757864));
#1444=CARTESIAN_POINT('',(0.582353643998504,-0.01,-0.0121701113757864));
#1445=CARTESIAN_POINT('',(0.582353643998504,-0.01,-0.0121701113757864));
#1446=CARTESIAN_POINT('',(-0.587646356001496,-0.01,-0.207170111375786));
#1447=CARTESIAN_POINT('',(-0.587646356001496,0.,-0.207170111375786));
#1448=CARTESIAN_POINT('',(-0.587646356001496,0.,-0.402170111375787));
#1449=CARTESIAN_POINT('',(-0.587646356001496,-0.01,-0.402170111375787));
#1450=CARTESIAN_POINT('',(-0.587646356001496,-0.01,-0.402170111375787));
#1451=CARTESIAN_POINT('',(-0.587646356001496,-0.01,-0.207170111375786));
#1452=CARTESIAN_POINT('',(-0.00264635600149632,-0.01,-0.402170111375787));
#1453=CARTESIAN_POINT('',(-0.00264635600149632,0.,-0.402170111375787));
#1454=CARTESIAN_POINT('',(0.582353643998504,0.,-0.402170111375787));
#1455=CARTESIAN_POINT('',(0.582353643998504,-0.01,-0.402170111375787));
#1456=CARTESIAN_POINT('',(0.582353643998504,-0.01,-0.402170111375787));
#1457=CARTESIAN_POINT('',(-0.00264635600149632,-0.01,-0.402170111375787));
#1458=CARTESIAN_POINT('',(0.582353643998504,-0.01,-0.207170111375786));
#1459=CARTESIAN_POINT('',(0.582353643998504,0.,-0.207170111375786));
#1460=CARTESIAN_POINT('',(0.582353643998504,-0.01,-0.207170111375786));
#1461=CARTESIAN_POINT('',(-0.00264635600149632,-0.01,-0.207170111375786));
#1462=CARTESIAN_POINT('',(-0.00264635600149632,0.,-0.207170111375786));
#1463=CARTESIAN_POINT('',(0.207170111375786,0.501126056532379,-0.177991780054149));
#1464=CARTESIAN_POINT('',(0.,-0.39,-1.11022302462516E-16));
#1465=CARTESIAN_POINT('',(0.,-0.39,0.5));
#1466=CARTESIAN_POINT('',(-0.49,-0.39,0.5));
#1467=CARTESIAN_POINT('',(0.49,-0.39,0.5));
#1468=CARTESIAN_POINT('',(0.49,-0.39,5.55111512312578E-17));
#1469=CARTESIAN_POINT('',(0.49,-0.39,-0.49));
#1470=CARTESIAN_POINT('',(-2.22044604925032E-18,-0.39,-0.49));
#1471=CARTESIAN_POINT('',(-0.49,-0.39,-0.49));
#1472=CARTESIAN_POINT('',(-0.49,-0.39,-5.55111512312578E-17));
#1473=CARTESIAN_POINT('',(0.,-0.39,0.32));
#1474=CARTESIAN_POINT('',(-0.05,-0.39,0.32));
#1475=CARTESIAN_POINT('',(0.05,-0.39,0.32));
#1476=CARTESIAN_POINT('',(-0.05,-0.39,-1.11022302462516E-16));
#1477=CARTESIAN_POINT('',(-0.05,-0.39,0.3));
#1478=CARTESIAN_POINT('',(0.,-0.39,0.3));
#1479=CARTESIAN_POINT('',(0.05,-0.39,0.3));
#1480=CARTESIAN_POINT('',(0.05,-0.39,-1.11022302462516E-16));
#1481=CARTESIAN_POINT('',(0.,-0.01,-1.11022302462516E-16));
#1482=CARTESIAN_POINT('',(0.,-0.01,0.5));
#1483=CARTESIAN_POINT('',(-0.49,-0.01,0.5));
#1484=CARTESIAN_POINT('',(0.49,-0.01,0.5));
#1485=CARTESIAN_POINT('',(-0.49,-0.01,-5.55111512312578E-17));
#1486=CARTESIAN_POINT('',(-0.49,-0.01,-0.49));
#1487=CARTESIAN_POINT('',(-2.22044604925032E-18,-0.01,-0.49));
#1488=CARTESIAN_POINT('',(0.49,-0.01,-0.49));
#1489=CARTESIAN_POINT('',(0.49,-0.01,5.55111512312578E-17));
#1490=CARTESIAN_POINT('',(-0.05,-0.01,-1.11022302462516E-16));
#1491=CARTESIAN_POINT('',(-0.05,-0.01,0.32));
#1492=CARTESIAN_POINT('',(-0.05,-0.01,0.3));
#1493=CARTESIAN_POINT('',(0.,-0.01,0.32));
#1494=CARTESIAN_POINT('',(0.05,-0.01,0.32));
#1495=CARTESIAN_POINT('',(0.05,-0.01,-1.11022302462516E-16));
#1496=CARTESIAN_POINT('',(0.05,-0.01,0.3));
#1497=CARTESIAN_POINT('',(0.,-0.01,0.3));
#1498=CARTESIAN_POINT('',(0.,-0.4,0.5));
#1499=CARTESIAN_POINT('',(0.,0.,0.5));
#1500=CARTESIAN_POINT('',(-0.5,0.,0.5));
#1501=CARTESIAN_POINT('',(0.5,0.,0.5));
#1502=CARTESIAN_POINT('',(-0.5,-0.4,0.5));
#1503=CARTESIAN_POINT('',(-0.5,-0.4,0.5));
#1504=CARTESIAN_POINT('',(0.,-0.4,0.5));
#1505=CARTESIAN_POINT('',(0.5,-0.4,0.5));
#1506=CARTESIAN_POINT('',(0.5,-0.4,0.5));
#1507=CARTESIAN_POINT('',(-0.49,-0.4,0.5));
#1508=CARTESIAN_POINT('',(0.49,-0.4,0.5));
#1509=CARTESIAN_POINT('',(-0.5,-0.4,-5.55111512312578E-17));
#1510=CARTESIAN_POINT('',(-0.5,-0.2,-0.46));
#1511=CARTESIAN_POINT('',(-0.5,-0.2,-0.444));
#1512=CARTESIAN_POINT('',(-0.5,-0.2,-0.29));
#1513=CARTESIAN_POINT('',(-0.5,-0.2,-0.274));
#1514=CARTESIAN_POINT('',(-0.5,-0.2,0.27));
#1515=CARTESIAN_POINT('',(-0.5,-0.2,0.286));
#1516=CARTESIAN_POINT('',(-0.5,0.,-5.55111512312578E-17));
#1517=CARTESIAN_POINT('',(-0.5,0.,-0.5));
#1518=CARTESIAN_POINT('',(-0.5,-0.4,-0.5));
#1519=CARTESIAN_POINT('',(-0.5,-0.4,-0.5));
#1520=CARTESIAN_POINT('',(-0.5,-0.4,-5.55111512312578E-17));
#1521=CARTESIAN_POINT('',(0.,-0.4,-0.5));
#1522=CARTESIAN_POINT('',(0.,0.,-0.5));
#1523=CARTESIAN_POINT('',(0.5,0.,-0.5));
#1524=CARTESIAN_POINT('',(0.5,-0.4,-0.5));
#1525=CARTESIAN_POINT('',(0.5,-0.4,-0.5));
#1526=CARTESIAN_POINT('',(0.,-0.4,-0.5));
#1527=CARTESIAN_POINT('',(0.5,-0.4,5.55111512312578E-17));
#1528=CARTESIAN_POINT('',(0.5,-0.2,0.25));
#1529=CARTESIAN_POINT('',(0.5,-0.2,0.234));
#1530=CARTESIAN_POINT('',(0.5,0.,5.55111512312578E-17));
#1531=CARTESIAN_POINT('',(0.5,-0.4,5.55111512312578E-17));
#1532=CARTESIAN_POINT('',(0.,-0.4,-1.11022302462516E-16));
#1533=CARTESIAN_POINT('',(0.,0.,-1.11022302462516E-16));
#1534=CARTESIAN_POINT('',(-0.49,-0.4,-5.55111512312578E-17));
#1535=CARTESIAN_POINT('',(-0.49,-0.2,0.27));
#1536=CARTESIAN_POINT('',(-0.49,-0.2,0.255));
#1537=CARTESIAN_POINT('',(-0.49,-0.2,-0.29));
#1538=CARTESIAN_POINT('',(-0.49,-0.2,-0.305));
#1539=CARTESIAN_POINT('',(-0.49,-0.2,-0.46));
#1540=CARTESIAN_POINT('',(-0.49,-0.2,-0.475));
#1541=CARTESIAN_POINT('',(-0.49,-0.4,-0.49));
#1542=CARTESIAN_POINT('',(-2.22044604925032E-18,-0.4,-0.49));
#1543=CARTESIAN_POINT('',(0.49,-0.4,-0.49));
#1544=CARTESIAN_POINT('',(0.49,-0.4,5.55111512312578E-17));
#1545=CARTESIAN_POINT('',(0.49,-0.2,0.25));
#1546=CARTESIAN_POINT('',(0.49,-0.2,0.235));
#1547=CARTESIAN_POINT('',(-1.38777878078145E-17,0.,0.32));
#1548=CARTESIAN_POINT('',(-0.05,0.,0.32));
#1549=CARTESIAN_POINT('',(0.05,0.,0.32));
#1550=CARTESIAN_POINT('',(-0.05,0.,0.31));
#1551=CARTESIAN_POINT('',(-0.05,0.,0.3));
#1552=CARTESIAN_POINT('',(-1.38777878078145E-17,0.,0.3));
#1553=CARTESIAN_POINT('',(0.05,0.,0.3));
#1554=CARTESIAN_POINT('',(0.05,0.,0.31));
#1555=CARTESIAN_POINT('',(-0.55,-0.2,0.27));
#1556=CARTESIAN_POINT('',(-0.55,-0.2,0.27));
#1557=CARTESIAN_POINT('',(-0.55,-0.2,0.286));
#1558=CARTESIAN_POINT('',(-0.55,-0.2,-1.11022302462516E-16));
#1559=CARTESIAN_POINT('',(-0.55,-0.2,0.27));
#1560=CARTESIAN_POINT('',(-0.55,-0.2,0.255));
#1561=CARTESIAN_POINT('',(-0.55,-0.2,-0.29));
#1562=CARTESIAN_POINT('',(-0.55,-0.2,-0.29));
#1563=CARTESIAN_POINT('',(-0.55,-0.2,-0.274));
#1564=CARTESIAN_POINT('',(-0.55,-0.2,-1.11022302462516E-16));
#1565=CARTESIAN_POINT('',(-0.55,-0.2,-0.29));
#1566=CARTESIAN_POINT('',(-0.55,-0.2,-0.305));
#1567=CARTESIAN_POINT('',(-0.55,-0.2,-0.46));
#1568=CARTESIAN_POINT('',(-0.55,-0.2,-0.46));
#1569=CARTESIAN_POINT('',(-0.55,-0.2,-0.444));
#1570=CARTESIAN_POINT('',(-0.55,-0.2,-1.11022302462516E-16));
#1571=CARTESIAN_POINT('',(-0.55,-0.2,-0.46));
#1572=CARTESIAN_POINT('',(-0.55,-0.2,-0.475));
#1573=CARTESIAN_POINT('',(0.55,-0.2,0.25));
#1574=CARTESIAN_POINT('',(0.55,-0.2,0.25));
#1575=CARTESIAN_POINT('',(0.55,-0.2,0.234));
#1576=CARTESIAN_POINT('',(0.55,-0.2,0.));
#1577=CARTESIAN_POINT('',(0.55,-0.2,0.25));
#1578=CARTESIAN_POINT('',(0.55,-0.2,0.265));
#1579=CARTESIAN_POINT('',(0.55,-0.2,0.25));
#1580=CARTESIAN_POINT('',(-0.55,-0.2,-0.46));
#1581=CARTESIAN_POINT('',(-0.55,-0.2,-0.29));
#1582=CARTESIAN_POINT('',(-0.55,-0.2,0.27));
#1583=CARTESIAN_POINT('',(-0.2,0.5,-0.000970953919246099));
#1584=CARTESIAN_POINT('',(0.0806346956267953,0.20327886878853,0.005));
#1585=CARTESIAN_POINT('',(0.146374292897358,0.20327886878853,-0.0665804919890272));
#1586=CARTESIAN_POINT('',(0.218870392224394,0.20327886878853,0.));
#1587=CARTESIAN_POINT('',(0.220634695626795,0.20327886878853,0.00162033805460198));
#1588=CARTESIAN_POINT('',(0.0806346956267953,0.20327886878853,0.));
#1589=CARTESIAN_POINT('',(-0.0593653043732048,0.20327886878853,0.));
#1590=CARTESIAN_POINT('',(-0.0593653043732048,0.20327886878853,0.005));
#1591=CARTESIAN_POINT('',(-0.0593653043732048,0.20327886878853,0.005));
#1592=CARTESIAN_POINT('',(0.0806346956267953,0.20327886878853,0.005));
#1593=CARTESIAN_POINT('',(0.220634695626795,0.20327886878853,0.005));
#1594=CARTESIAN_POINT('',(0.220634695626795,0.20327886878853,0.005));
#1595=CARTESIAN_POINT('',(-0.0593653043732047,0.0732788687885306,0.005));
#1596=CARTESIAN_POINT('',(-0.0593653043732047,0.0732788687885306,0.));
#1597=CARTESIAN_POINT('',(-0.0593653043732048,-0.052253080383104,0.));
#1598=CARTESIAN_POINT('',(-0.0593653043732047,0.0080128942027133,-0.0602659745858173));
#1599=CARTESIAN_POINT('',(-0.0593653043732047,-0.0567211312114694,0.00446805082836538));
#1600=CARTESIAN_POINT('',(-0.0593653043732047,-0.0567211312114694,0.005));
#1601=CARTESIAN_POINT('',(-0.0593653043732047,-0.0567211312114694,0.005));
#1602=CARTESIAN_POINT('',(-0.0593653043732047,0.0732788687885306,0.005));
#1603=CARTESIAN_POINT('',(0.0806346956267953,-0.0567211312114694,0.005));
#1604=CARTESIAN_POINT('',(0.0168438397429744,-0.0567211312114694,0.0744586069606131));
#1605=CARTESIAN_POINT('',(-0.0587860920719482,-0.0567211312114694,0.005));
#1606=CARTESIAN_POINT('',(0.0806346956267953,-0.0567211312114694,0.005));
#1607=CARTESIAN_POINT('',(0.220634695626795,0.0732788687885306,0.005));
#1608=CARTESIAN_POINT('',(0.220634695626795,0.136589037815832,0.068310169027301));
#1609=CARTESIAN_POINT('',(0.220634695626795,0.199899206843133,0.005));
#1610=CARTESIAN_POINT('',(0.220634695626795,0.0732788687885306,0.005));
#1611=CARTESIAN_POINT('',(0.0806346956267953,0.0732788687885306,0.005));
#1612=CARTESIAN_POINT('',(0.0816090663201664,0.0722179262743236,0.005));
#1613=CARTESIAN_POINT('',(0.0806346956267953,0.0732788687885306,0.));
#1614=CARTESIAN_POINT('',(0.0791180960671974,0.0749302166387397,0.));
#1615=CARTESIAN_POINT('',(0.438533782699789,0.167187732242407,0.237830219691187));
#1616=CARTESIAN_POINT('',(-0.0492541834066506,0.0593653043732047,-0.455263363677191));
#1617=CARTESIAN_POINT('',(0.00552339665591714,-0.01,-0.0460276771819999));
#1618=CARTESIAN_POINT('',(0.00552339665591714,0.,-0.0460276771819999));
#1619=CARTESIAN_POINT('',(-0.184476603344083,0.,-0.0460276771819999));
#1620=CARTESIAN_POINT('',(0.195523396655917,0.,-0.0460276771819998));
#1621=CARTESIAN_POINT('',(-0.184476603344083,-0.01,-0.0460276771819999));
#1622=CARTESIAN_POINT('',(-0.184476603344083,-0.01,-0.0460276771819999));
#1623=CARTESIAN_POINT('',(0.00552339665591714,-0.01,-0.0460276771819999));
#1624=CARTESIAN_POINT('',(0.195523396655917,-0.01,-0.0460276771819998));
#1625=CARTESIAN_POINT('',(0.195523396655917,-0.01,-0.0460276771819998));
#1626=CARTESIAN_POINT('',(-0.184476603344083,-0.01,-0.0960276771819998));
#1627=CARTESIAN_POINT('',(-0.184476603344083,0.,-0.0960276771819998));
#1628=CARTESIAN_POINT('',(-0.184476603344083,0.,-0.146027677182));
#1629=CARTESIAN_POINT('',(-0.184476603344083,-0.01,-0.146027677182));
#1630=CARTESIAN_POINT('',(-0.184476603344083,-0.01,-0.146027677182));
#1631=CARTESIAN_POINT('',(-0.184476603344083,-0.01,-0.0960276771819998));
#1632=CARTESIAN_POINT('',(0.00552339665591717,-0.01,-0.146027677182));
#1633=CARTESIAN_POINT('',(0.00552339665591717,0.,-0.146027677182));
#1634=CARTESIAN_POINT('',(0.195523396655917,0.,-0.146027677182));
#1635=CARTESIAN_POINT('',(0.195523396655917,-0.01,-0.146027677182));
#1636=CARTESIAN_POINT('',(0.195523396655917,-0.01,-0.146027677182));
#1637=CARTESIAN_POINT('',(0.00552339665591717,-0.01,-0.146027677182));
#1638=CARTESIAN_POINT('',(0.195523396655917,-0.01,-0.0960276771819998));
#1639=CARTESIAN_POINT('',(0.195523396655917,0.,-0.0960276771819998));
#1640=CARTESIAN_POINT('',(0.195523396655917,-0.01,-0.0960276771819998));
#1641=CARTESIAN_POINT('',(0.00552339665591717,-0.01,-0.0960276771819999));
#1642=CARTESIAN_POINT('',(0.00552339665591717,0.,-0.0960276771819999));
#1643=CARTESIAN_POINT('',(0.00552339665591718,0.109721626870379,0.335821740762999));
#1644=CARTESIAN_POINT('',(0.162264816984534,-0.01,0.124637856930494));
#1645=CARTESIAN_POINT('',(0.162264816984534,0.,0.124637856930494));
#1646=CARTESIAN_POINT('',(-0.0277351830154658,0.,0.124637856930494));
#1647=CARTESIAN_POINT('',(0.352264816984534,0.,0.124637856930494));
#1648=CARTESIAN_POINT('',(-0.0277351830154658,-0.01,0.124637856930494));
#1649=CARTESIAN_POINT('',(-0.0277351830154658,-0.01,0.124637856930494));
#1650=CARTESIAN_POINT('',(0.162264816984534,-0.01,0.124637856930494));
#1651=CARTESIAN_POINT('',(0.352264816984534,-0.01,0.124637856930494));
#1652=CARTESIAN_POINT('',(0.352264816984534,-0.01,0.124637856930494));
#1653=CARTESIAN_POINT('',(-0.0277351830154658,-0.01,0.0446378569304943));
#1654=CARTESIAN_POINT('',(-0.0277351830154658,0.,0.0446378569304943));
#1655=CARTESIAN_POINT('',(-0.0277351830154658,0.,-0.0353621430695057));
#1656=CARTESIAN_POINT('',(-0.0277351830154658,-0.01,-0.0353621430695057));
#1657=CARTESIAN_POINT('',(-0.0277351830154658,-0.01,-0.0353621430695057));
#1658=CARTESIAN_POINT('',(-0.0277351830154658,-0.01,0.0446378569304943));
#1659=CARTESIAN_POINT('',(0.162264816984534,-0.01,-0.0353621430695057));
#1660=CARTESIAN_POINT('',(0.162264816984534,0.,-0.0353621430695057));
#1661=CARTESIAN_POINT('',(0.352264816984534,0.,-0.0353621430695057));
#1662=CARTESIAN_POINT('',(0.352264816984534,-0.01,-0.0353621430695057));
#1663=CARTESIAN_POINT('',(0.352264816984534,-0.01,-0.0353621430695057));
#1664=CARTESIAN_POINT('',(0.162264816984534,-0.01,-0.0353621430695057));
#1665=CARTESIAN_POINT('',(0.352264816984534,-0.01,0.0446378569304943));
#1666=CARTESIAN_POINT('',(0.352264816984534,0.,0.0446378569304943));
#1667=CARTESIAN_POINT('',(0.352264816984534,-0.01,0.0446378569304943));
#1668=CARTESIAN_POINT('',(0.162264816984534,-0.01,0.0446378569304943));
#1669=CARTESIAN_POINT('',(0.162264816984534,0.,0.0446378569304943));
#1670=CARTESIAN_POINT('',(0.162264816984534,0.958165146032419,0.185216177862852));
#1671=MECHANICAL_DESIGN_GEOMETRIC_PRESENTATION_REPRESENTATION('',(#992,
#993,#994,#995,#996,#997),#1672);
#1672=(
GEOMETRIC_REPRESENTATION_CONTEXT(3)
GLOBAL_UNCERTAINTY_ASSIGNED_CONTEXT((#1679))
GLOBAL_UNIT_ASSIGNED_CONTEXT((#1688,#1687,#1686))
REPRESENTATION_CONTEXT('elbsammler','TOP_LEVEL_ASSEMBLY_PART')
);
#1673=(
GEOMETRIC_REPRESENTATION_CONTEXT(3)
GLOBAL_UNCERTAINTY_ASSIGNED_CONTEXT((#1680))
GLOBAL_UNIT_ASSIGNED_CONTEXT((#1688,#1687,#1686))
REPRESENTATION_CONTEXT('schraege_r','COMPONENT_PART')
);
#1674=(
GEOMETRIC_REPRESENTATION_CONTEXT(3)
GLOBAL_UNCERTAINTY_ASSIGNED_CONTEXT((#1681))
GLOBAL_UNIT_ASSIGNED_CONTEXT((#1688,#1687,#1686))
REPRESENTATION_CONTEXT('118','COMPONENT_PART')
);
#1675=(
GEOMETRIC_REPRESENTATION_CONTEXT(3)
GLOBAL_UNCERTAINTY_ASSIGNED_CONTEXT((#1682))
GLOBAL_UNIT_ASSIGNED_CONTEXT((#1688,#1687,#1686))
REPRESENTATION_CONTEXT('gehaeuse','COMPONENT_PART')
);
#1676=(
GEOMETRIC_REPRESENTATION_CONTEXT(3)
GLOBAL_UNCERTAINTY_ASSIGNED_CONTEXT((#1683))
GLOBAL_UNIT_ASSIGNED_CONTEXT((#1688,#1687,#1686))
REPRESENTATION_CONTEXT('schraege_l','COMPONENT_PART')
);
#1677=(
GEOMETRIC_REPRESENTATION_CONTEXT(3)
GLOBAL_UNCERTAINTY_ASSIGNED_CONTEXT((#1684))
GLOBAL_UNIT_ASSIGNED_CONTEXT((#1688,#1687,#1686))
REPRESENTATION_CONTEXT('10','COMPONENT_PART')
);
#1678=(
GEOMETRIC_REPRESENTATION_CONTEXT(3)
GLOBAL_UNCERTAINTY_ASSIGNED_CONTEXT((#1685))
GLOBAL_UNIT_ASSIGNED_CONTEXT((#1688,#1687,#1686))
REPRESENTATION_CONTEXT('16','COMPONENT_PART')
);
#1679=UNCERTAINTY_MEASURE_WITH_UNIT(LENGTH_MEASURE(1.E-8),#1688,
'DISTANCE_ACCURACY_VALUE','Maximum Tolerance applied to model');
#1680=UNCERTAINTY_MEASURE_WITH_UNIT(LENGTH_MEASURE(1.E-8),#1688,
'DISTANCE_ACCURACY_VALUE','Maximum Tolerance applied to model');
#1681=UNCERTAINTY_MEASURE_WITH_UNIT(LENGTH_MEASURE(1.E-8),#1688,
'DISTANCE_ACCURACY_VALUE','Maximum Tolerance applied to model');
#1682=UNCERTAINTY_MEASURE_WITH_UNIT(LENGTH_MEASURE(1.E-8),#1688,
'DISTANCE_ACCURACY_VALUE','Maximum Tolerance applied to model');
#1683=UNCERTAINTY_MEASURE_WITH_UNIT(LENGTH_MEASURE(1.E-8),#1688,
'DISTANCE_ACCURACY_VALUE','Maximum Tolerance applied to model');
#1684=UNCERTAINTY_MEASURE_WITH_UNIT(LENGTH_MEASURE(1.E-8),#1688,
'DISTANCE_ACCURACY_VALUE','Maximum Tolerance applied to model');
#1685=UNCERTAINTY_MEASURE_WITH_UNIT(LENGTH_MEASURE(1.E-8),#1688,
'DISTANCE_ACCURACY_VALUE','Maximum Tolerance applied to model');
#1686=(
NAMED_UNIT(*)
SI_UNIT($,.STERADIAN.)
SOLID_ANGLE_UNIT()
);
#1687=(
NAMED_UNIT(*)
PLANE_ANGLE_UNIT()
SI_UNIT($,.RADIAN.)
);
#1688=(
LENGTH_UNIT()
NAMED_UNIT(*)
SI_UNIT($,.METRE.)
);
#1689=PRODUCT_DEFINITION_SHAPE('','',#1702);
#1690=PRODUCT_DEFINITION_SHAPE('','',#1703);
#1691=PRODUCT_DEFINITION_SHAPE(' ','NAUO PRDDFN',#40);
#1692=PRODUCT_DEFINITION_SHAPE('','',#1704);
#1693=PRODUCT_DEFINITION_SHAPE(' ','NAUO PRDDFN',#41);
#1694=PRODUCT_DEFINITION_SHAPE('','',#1705);
#1695=PRODUCT_DEFINITION_SHAPE(' ','NAUO PRDDFN',#42);
#1696=PRODUCT_DEFINITION_SHAPE('','',#1706);
#1697=PRODUCT_DEFINITION_SHAPE(' ','NAUO PRDDFN',#43);
#1698=PRODUCT_DEFINITION_SHAPE('','',#1707);
#1699=PRODUCT_DEFINITION_SHAPE(' ','NAUO PRDDFN',#44);
#1700=PRODUCT_DEFINITION_SHAPE('','',#1708);
#1701=PRODUCT_DEFINITION_SHAPE(' ','NAUO PRDDFN',#45);
#1702=PRODUCT_DEFINITION('','',#1716,#1709);
#1703=PRODUCT_DEFINITION('','',#1717,#1710);
#1704=PRODUCT_DEFINITION('','',#1718,#1711);
#1705=PRODUCT_DEFINITION('','',#1719,#1712);
#1706=PRODUCT_DEFINITION('','',#1720,#1713);
#1707=PRODUCT_DEFINITION('','',#1721,#1714);
#1708=PRODUCT_DEFINITION('','',#1722,#1715);
#1709=PRODUCT_DEFINITION_CONTEXT('',#1752,'design');
#1710=PRODUCT_DEFINITION_CONTEXT('',#1752,'design');
#1711=PRODUCT_DEFINITION_CONTEXT('',#1752,'design');
#1712=PRODUCT_DEFINITION_CONTEXT('',#1752,'design');
#1713=PRODUCT_DEFINITION_CONTEXT('',#1752,'design');
#1714=PRODUCT_DEFINITION_CONTEXT('',#1752,'design');
#1715=PRODUCT_DEFINITION_CONTEXT('',#1752,'design');
#1716=PRODUCT_DEFINITION_FORMATION_WITH_SPECIFIED_SOURCE('','',#1730,
 .NOT_KNOWN.);
#1717=PRODUCT_DEFINITION_FORMATION_WITH_SPECIFIED_SOURCE('','',#1731,
 .NOT_KNOWN.);
#1718=PRODUCT_DEFINITION_FORMATION_WITH_SPECIFIED_SOURCE('','',#1732,
 .NOT_KNOWN.);
#1719=PRODUCT_DEFINITION_FORMATION_WITH_SPECIFIED_SOURCE('','',#1733,
 .NOT_KNOWN.);
#1720=PRODUCT_DEFINITION_FORMATION_WITH_SPECIFIED_SOURCE('','',#1734,
 .NOT_KNOWN.);
#1721=PRODUCT_DEFINITION_FORMATION_WITH_SPECIFIED_SOURCE('','',#1735,
 .NOT_KNOWN.);
#1722=PRODUCT_DEFINITION_FORMATION_WITH_SPECIFIED_SOURCE('','',#1736,
 .NOT_KNOWN.);
#1723=PRODUCT_RELATED_PRODUCT_CATEGORY('','',(#1730));
#1724=PRODUCT_RELATED_PRODUCT_CATEGORY('','',(#1731));
#1725=PRODUCT_RELATED_PRODUCT_CATEGORY('','',(#1732));
#1726=PRODUCT_RELATED_PRODUCT_CATEGORY('','',(#1733));
#1727=PRODUCT_RELATED_PRODUCT_CATEGORY('','',(#1734));
#1728=PRODUCT_RELATED_PRODUCT_CATEGORY('','',(#1735));
#1729=PRODUCT_RELATED_PRODUCT_CATEGORY('','',(#1736));
#1730=PRODUCT('elbsammler','elbsammler','elbsammler',(#1744));
#1731=PRODUCT('schraege_r','schraege_r','schraege_r',(#1745));
#1732=PRODUCT('118','118','118',(#1746));
#1733=PRODUCT('gehaeuse','gehaeuse','gehaeuse',(#1747));
#1734=PRODUCT('schraege_l','schraege_l','schraege_l',(#1748));
#1735=PRODUCT('10','10','10',(#1749));
#1736=PRODUCT('16','16','16',(#1750));
#1737=PRODUCT_CATEGORY('','');
#1738=PRODUCT_CATEGORY('','');
#1739=PRODUCT_CATEGORY('','');
#1740=PRODUCT_CATEGORY('','');
#1741=PRODUCT_CATEGORY('','');
#1742=PRODUCT_CATEGORY('','');
#1743=PRODUCT_CATEGORY('','');
#1744=PRODUCT_CONTEXT('',#1752,'mechanical');
#1745=PRODUCT_CONTEXT('',#1752,'mechanical');
#1746=PRODUCT_CONTEXT('',#1752,'mechanical');
#1747=PRODUCT_CONTEXT('',#1752,'mechanical');
#1748=PRODUCT_CONTEXT('',#1752,'mechanical');
#1749=PRODUCT_CONTEXT('',#1752,'mechanical');
#1750=PRODUCT_CONTEXT('',#1752,'mechanical');
#1751=APPLICATION_PROTOCOL_DEFINITION('international standard',
'ap242_managed_model_based_3d_engineering',2020,#1752);
#1752=APPLICATION_CONTEXT('managed model based 3d engineering');
ENDSEC;
END-ISO-10303-21;
