ISO-10303-21;
HEADER;
/* Generated by software containing ST-Developer
 * from STEP Tools, Inc. (www.steptools.com) 
 */
/* OPTION: using custom renumber hook */

FILE_DESCRIPTION(
/* description */ ('STEP AP242 Edition 2',
'CAx-IF Rec.Pracs.---Representation and Presentation of Product Manufa
cturing Information (PMI)---4.0---2014-10-13',
'CAx-IF Rec.Pracs.---3D Tessellated Geometry---0.4---2014-09-14','2;1',
'CAx-IF Rec.Pracs.---User Defined Attributes---1.5---2016-08-15'),
/* implementation_level */ '2;1');

FILE_NAME(
/* name */ '69888fe8d67534afdc18f58f',
/* time_stamp */ '2026-02-08T13:30:16Z',
/* author */ (''),
/* organization */ (''),
/* preprocessor_version */ 'ST-DEVELOPER v20',
/* originating_system */ 'ONSHAPE BY PTC INC, 1.210',
/* authorisation */ '  ');

FILE_SCHEMA (('AP242_MANAGED_MODEL_BASED_3D_ENGINEERING_MIM_LF { 1 0 10303 442 3 1 4 }'));
ENDSEC;

DATA;
#10=SHAPE_REPRESENTATION_RELATIONSHIP('','',#461,#11);
#11=ADVANCED_BREP_SHAPE_REPRESENTATION('',(#459),#751);
#12=CYLINDRICAL_SURFACE('',#486,0.016);
#13=CYLINDRICAL_SURFACE('',#490,0.016);
#14=CYLINDRICAL_SURFACE('',#494,0.016);
#15=CYLINDRICAL_SURFACE('',#498,0.016);
#16=CYLINDRICAL_SURFACE('',#502,0.015);
#17=CYLINDRICAL_SURFACE('',#503,0.015);
#18=CYLINDRICAL_SURFACE('',#504,0.015);
#19=CYLINDRICAL_SURFACE('',#505,0.015);
#20=CIRCLE('',#467,0.016);
#21=CIRCLE('',#468,0.016);
#22=CIRCLE('',#469,0.016);
#23=CIRCLE('',#472,0.016);
#24=CIRCLE('',#476,0.015);
#25=CIRCLE('',#477,0.015);
#26=CIRCLE('',#478,0.015);
#27=CIRCLE('',#481,0.015);
#28=CIRCLE('',#487,0.016);
#29=CIRCLE('',#489,0.015);
#30=CIRCLE('',#491,0.016);
#31=CIRCLE('',#493,0.015);
#32=CIRCLE('',#495,0.016);
#33=CIRCLE('',#497,0.015);
#34=CIRCLE('',#499,0.016);
#35=CIRCLE('',#501,0.015);
#36=ORIENTED_EDGE('',*,*,#140,.T.);
#37=ORIENTED_EDGE('',*,*,#141,.T.);
#38=ORIENTED_EDGE('',*,*,#142,.F.);
#39=ORIENTED_EDGE('',*,*,#143,.F.);
#40=ORIENTED_EDGE('',*,*,#144,.F.);
#41=ORIENTED_EDGE('',*,*,#145,.T.);
#42=ORIENTED_EDGE('',*,*,#146,.T.);
#43=ORIENTED_EDGE('',*,*,#147,.F.);
#44=ORIENTED_EDGE('',*,*,#148,.F.);
#45=ORIENTED_EDGE('',*,*,#149,.T.);
#46=ORIENTED_EDGE('',*,*,#150,.T.);
#47=ORIENTED_EDGE('',*,*,#151,.F.);
#48=ORIENTED_EDGE('',*,*,#152,.F.);
#49=ORIENTED_EDGE('',*,*,#153,.T.);
#50=ORIENTED_EDGE('',*,*,#154,.T.);
#51=ORIENTED_EDGE('',*,*,#155,.F.);
#52=ORIENTED_EDGE('',*,*,#156,.F.);
#53=ORIENTED_EDGE('',*,*,#157,.F.);
#54=ORIENTED_EDGE('',*,*,#158,.T.);
#55=ORIENTED_EDGE('',*,*,#159,.T.);
#56=ORIENTED_EDGE('',*,*,#160,.T.);
#57=ORIENTED_EDGE('',*,*,#148,.T.);
#58=ORIENTED_EDGE('',*,*,#161,.F.);
#59=ORIENTED_EDGE('',*,*,#140,.F.);
#60=ORIENTED_EDGE('',*,*,#162,.F.);
#61=ORIENTED_EDGE('',*,*,#163,.F.);
#62=ORIENTED_EDGE('',*,*,#164,.F.);
#63=ORIENTED_EDGE('',*,*,#165,.T.);
#64=ORIENTED_EDGE('',*,*,#166,.F.);
#65=ORIENTED_EDGE('',*,*,#167,.F.);
#66=ORIENTED_EDGE('',*,*,#157,.T.);
#67=ORIENTED_EDGE('',*,*,#168,.T.);
#68=ORIENTED_EDGE('',*,*,#169,.F.);
#69=ORIENTED_EDGE('',*,*,#170,.F.);
#70=ORIENTED_EDGE('',*,*,#166,.T.);
#71=ORIENTED_EDGE('',*,*,#171,.F.);
#72=ORIENTED_EDGE('',*,*,#172,.F.);
#73=ORIENTED_EDGE('',*,*,#159,.F.);
#74=ORIENTED_EDGE('',*,*,#173,.T.);
#75=ORIENTED_EDGE('',*,*,#169,.T.);
#76=ORIENTED_EDGE('',*,*,#158,.F.);
#77=ORIENTED_EDGE('',*,*,#167,.T.);
#78=ORIENTED_EDGE('',*,*,#170,.T.);
#79=ORIENTED_EDGE('',*,*,#173,.F.);
#80=ORIENTED_EDGE('',*,*,#156,.T.);
#81=ORIENTED_EDGE('',*,*,#172,.T.);
#82=ORIENTED_EDGE('',*,*,#168,.F.);
#83=ORIENTED_EDGE('',*,*,#165,.F.);
#84=ORIENTED_EDGE('',*,*,#174,.T.);
#85=ORIENTED_EDGE('',*,*,#175,.T.);
#86=ORIENTED_EDGE('',*,*,#176,.T.);
#87=ORIENTED_EDGE('',*,*,#149,.F.);
#88=ORIENTED_EDGE('',*,*,#160,.F.);
#89=ORIENTED_EDGE('',*,*,#143,.T.);
#90=ORIENTED_EDGE('',*,*,#177,.T.);
#91=ORIENTED_EDGE('',*,*,#150,.F.);
#92=ORIENTED_EDGE('',*,*,#177,.F.);
#93=ORIENTED_EDGE('',*,*,#142,.T.);
#94=ORIENTED_EDGE('',*,*,#178,.T.);
#95=ORIENTED_EDGE('',*,*,#179,.F.);
#96=ORIENTED_EDGE('',*,*,#151,.T.);
#97=ORIENTED_EDGE('',*,*,#178,.F.);
#98=ORIENTED_EDGE('',*,*,#141,.F.);
#99=ORIENTED_EDGE('',*,*,#161,.T.);
#100=ORIENTED_EDGE('',*,*,#180,.T.);
#101=ORIENTED_EDGE('',*,*,#144,.T.);
#102=ORIENTED_EDGE('',*,*,#181,.F.);
#103=ORIENTED_EDGE('',*,*,#153,.F.);
#104=ORIENTED_EDGE('',*,*,#145,.F.);
#105=ORIENTED_EDGE('',*,*,#180,.F.);
#106=ORIENTED_EDGE('',*,*,#152,.T.);
#107=ORIENTED_EDGE('',*,*,#182,.T.);
#108=ORIENTED_EDGE('',*,*,#146,.F.);
#109=ORIENTED_EDGE('',*,*,#182,.F.);
#110=ORIENTED_EDGE('',*,*,#155,.T.);
#111=ORIENTED_EDGE('',*,*,#183,.T.);
#112=ORIENTED_EDGE('',*,*,#181,.T.);
#113=ORIENTED_EDGE('',*,*,#147,.T.);
#114=ORIENTED_EDGE('',*,*,#183,.F.);
#115=ORIENTED_EDGE('',*,*,#154,.F.);
#116=ORIENTED_EDGE('',*,*,#184,.F.);
#117=ORIENTED_EDGE('',*,*,#164,.T.);
#118=ORIENTED_EDGE('',*,*,#185,.T.);
#119=ORIENTED_EDGE('',*,*,#184,.T.);
#120=ORIENTED_EDGE('',*,*,#186,.F.);
#121=ORIENTED_EDGE('',*,*,#163,.T.);
#122=ORIENTED_EDGE('',*,*,#187,.T.);
#123=ORIENTED_EDGE('',*,*,#186,.T.);
#124=ORIENTED_EDGE('',*,*,#188,.F.);
#125=ORIENTED_EDGE('',*,*,#162,.T.);
#126=ORIENTED_EDGE('',*,*,#189,.T.);
#127=ORIENTED_EDGE('',*,*,#188,.T.);
#128=ORIENTED_EDGE('',*,*,#190,.F.);
#129=ORIENTED_EDGE('',*,*,#171,.T.);
#130=ORIENTED_EDGE('',*,*,#191,.T.);
#131=ORIENTED_EDGE('',*,*,#190,.T.);
#132=ORIENTED_EDGE('',*,*,#191,.F.);
#133=ORIENTED_EDGE('',*,*,#179,.T.);
#134=ORIENTED_EDGE('',*,*,#176,.F.);
#135=ORIENTED_EDGE('',*,*,#189,.F.);
#136=ORIENTED_EDGE('',*,*,#175,.F.);
#137=ORIENTED_EDGE('',*,*,#187,.F.);
#138=ORIENTED_EDGE('',*,*,#174,.F.);
#139=ORIENTED_EDGE('',*,*,#185,.F.);
#140=EDGE_CURVE('',#192,#193,#232,.T.);
#141=EDGE_CURVE('',#193,#194,#233,.T.);
#142=EDGE_CURVE('',#195,#194,#234,.T.);
#143=EDGE_CURVE('',#192,#195,#235,.T.);
#144=EDGE_CURVE('',#196,#197,#236,.T.);
#145=EDGE_CURVE('',#196,#198,#237,.T.);
#146=EDGE_CURVE('',#198,#199,#238,.T.);
#147=EDGE_CURVE('',#197,#199,#239,.T.);
#148=EDGE_CURVE('',#200,#201,#240,.T.);
#149=EDGE_CURVE('',#200,#202,#241,.T.);
#150=EDGE_CURVE('',#202,#203,#242,.T.);
#151=EDGE_CURVE('',#201,#203,#243,.T.);
#152=EDGE_CURVE('',#204,#205,#244,.T.);
#153=EDGE_CURVE('',#204,#206,#245,.T.);
#154=EDGE_CURVE('',#206,#207,#246,.T.);
#155=EDGE_CURVE('',#205,#207,#247,.T.);
#156=EDGE_CURVE('',#208,#209,#248,.T.);
#157=EDGE_CURVE('',#210,#208,#249,.T.);
#158=EDGE_CURVE('',#210,#211,#250,.T.);
#159=EDGE_CURVE('',#211,#209,#251,.T.);
#160=EDGE_CURVE('',#192,#200,#252,.T.);
#161=EDGE_CURVE('',#193,#201,#253,.T.);
#162=EDGE_CURVE('',#212,#212,#20,.T.);
#163=EDGE_CURVE('',#213,#213,#21,.T.);
#164=EDGE_CURVE('',#214,#214,#22,.T.);
#165=EDGE_CURVE('',#208,#215,#254,.T.);
#166=EDGE_CURVE('',#216,#215,#255,.T.);
#167=EDGE_CURVE('',#210,#216,#256,.T.);
#168=EDGE_CURVE('',#215,#217,#257,.T.);
#169=EDGE_CURVE('',#218,#217,#258,.T.);
#170=EDGE_CURVE('',#216,#218,#259,.T.);
#171=EDGE_CURVE('',#219,#219,#23,.T.);
#172=EDGE_CURVE('',#209,#217,#260,.T.);
#173=EDGE_CURVE('',#211,#218,#261,.T.);
#174=EDGE_CURVE('',#220,#220,#24,.F.);
#175=EDGE_CURVE('',#221,#221,#25,.F.);
#176=EDGE_CURVE('',#222,#222,#26,.F.);
#177=EDGE_CURVE('',#195,#202,#262,.T.);
#178=EDGE_CURVE('',#194,#203,#263,.T.);
#179=EDGE_CURVE('',#223,#223,#27,.F.);
#180=EDGE_CURVE('',#204,#196,#264,.T.);
#181=EDGE_CURVE('',#206,#197,#265,.T.);
#182=EDGE_CURVE('',#205,#198,#266,.T.);
#183=EDGE_CURVE('',#207,#199,#267,.T.);
#184=EDGE_CURVE('',#224,#224,#28,.T.);
#185=EDGE_CURVE('',#225,#225,#29,.T.);
#186=EDGE_CURVE('',#226,#226,#30,.T.);
#187=EDGE_CURVE('',#227,#227,#31,.T.);
#188=EDGE_CURVE('',#228,#228,#32,.T.);
#189=EDGE_CURVE('',#229,#229,#33,.T.);
#190=EDGE_CURVE('',#230,#230,#34,.T.);
#191=EDGE_CURVE('',#231,#231,#35,.T.);
#192=VERTEX_POINT('',#633);
#193=VERTEX_POINT('',#634);
#194=VERTEX_POINT('',#636);
#195=VERTEX_POINT('',#638);
#196=VERTEX_POINT('',#641);
#197=VERTEX_POINT('',#642);
#198=VERTEX_POINT('',#644);
#199=VERTEX_POINT('',#646);
#200=VERTEX_POINT('',#650);
#201=VERTEX_POINT('',#651);
#202=VERTEX_POINT('',#653);
#203=VERTEX_POINT('',#655);
#204=VERTEX_POINT('',#658);
#205=VERTEX_POINT('',#659);
#206=VERTEX_POINT('',#661);
#207=VERTEX_POINT('',#663);
#208=VERTEX_POINT('',#667);
#209=VERTEX_POINT('',#668);
#210=VERTEX_POINT('',#670);
#211=VERTEX_POINT('',#672);
#212=VERTEX_POINT('',#678);
#213=VERTEX_POINT('',#680);
#214=VERTEX_POINT('',#682);
#215=VERTEX_POINT('',#684);
#216=VERTEX_POINT('',#686);
#217=VERTEX_POINT('',#690);
#218=VERTEX_POINT('',#692);
#219=VERTEX_POINT('',#696);
#220=VERTEX_POINT('',#703);
#221=VERTEX_POINT('',#705);
#222=VERTEX_POINT('',#707);
#223=VERTEX_POINT('',#713);
#224=VERTEX_POINT('',#724);
#225=VERTEX_POINT('',#727);
#226=VERTEX_POINT('',#730);
#227=VERTEX_POINT('',#733);
#228=VERTEX_POINT('',#736);
#229=VERTEX_POINT('',#739);
#230=VERTEX_POINT('',#742);
#231=VERTEX_POINT('',#745);
#232=LINE('',#632,#268);
#233=LINE('',#635,#269);
#234=LINE('',#637,#270);
#235=LINE('',#639,#271);
#236=LINE('',#640,#272);
#237=LINE('',#643,#273);
#238=LINE('',#645,#274);
#239=LINE('',#647,#275);
#240=LINE('',#649,#276);
#241=LINE('',#652,#277);
#242=LINE('',#654,#278);
#243=LINE('',#656,#279);
#244=LINE('',#657,#280);
#245=LINE('',#660,#281);
#246=LINE('',#662,#282);
#247=LINE('',#664,#283);
#248=LINE('',#666,#284);
#249=LINE('',#669,#285);
#250=LINE('',#671,#286);
#251=LINE('',#673,#287);
#252=LINE('',#674,#288);
#253=LINE('',#675,#289);
#254=LINE('',#683,#290);
#255=LINE('',#685,#291);
#256=LINE('',#687,#292);
#257=LINE('',#689,#293);
#258=LINE('',#691,#294);
#259=LINE('',#693,#295);
#260=LINE('',#697,#296);
#261=LINE('',#698,#297);
#262=LINE('',#708,#298);
#263=LINE('',#710,#299);
#264=LINE('',#715,#300);
#265=LINE('',#716,#301);
#266=LINE('',#718,#302);
#267=LINE('',#720,#303);
#268=VECTOR('',#510,1.);
#269=VECTOR('',#511,1.);
#270=VECTOR('',#512,1.);
#271=VECTOR('',#513,1.);
#272=VECTOR('',#514,1.);
#273=VECTOR('',#515,1.);
#274=VECTOR('',#516,1.);
#275=VECTOR('',#517,1.);
#276=VECTOR('',#520,1.);
#277=VECTOR('',#521,1.);
#278=VECTOR('',#522,1.);
#279=VECTOR('',#523,1.);
#280=VECTOR('',#524,1.);
#281=VECTOR('',#525,1.);
#282=VECTOR('',#526,1.);
#283=VECTOR('',#527,1.);
#284=VECTOR('',#530,1.);
#285=VECTOR('',#531,1.);
#286=VECTOR('',#532,1.);
#287=VECTOR('',#533,1.);
#288=VECTOR('',#534,1.);
#289=VECTOR('',#535,1.);
#290=VECTOR('',#544,1.);
#291=VECTOR('',#545,1.);
#292=VECTOR('',#546,1.);
#293=VECTOR('',#549,1.);
#294=VECTOR('',#550,1.);
#295=VECTOR('',#551,1.);
#296=VECTOR('',#556,1.);
#297=VECTOR('',#557,1.);
#298=VECTOR('',#570,1.);
#299=VECTOR('',#573,1.);
#300=VECTOR('',#580,1.);
#301=VECTOR('',#581,1.);
#302=VECTOR('',#584,1.);
#303=VECTOR('',#587,1.);
#304=EDGE_LOOP('',(#36,#37,#38,#39));
#305=EDGE_LOOP('',(#40,#41,#42,#43));
#306=EDGE_LOOP('',(#44,#45,#46,#47));
#307=EDGE_LOOP('',(#48,#49,#50,#51));
#308=EDGE_LOOP('',(#52,#53,#54,#55));
#309=EDGE_LOOP('',(#56,#57,#58,#59));
#310=EDGE_LOOP('',(#60));
#311=EDGE_LOOP('',(#61));
#312=EDGE_LOOP('',(#62));
#313=EDGE_LOOP('',(#63,#64,#65,#66));
#314=EDGE_LOOP('',(#67,#68,#69,#70));
#315=EDGE_LOOP('',(#71));
#316=EDGE_LOOP('',(#72,#73,#74,#75));
#317=EDGE_LOOP('',(#76,#77,#78,#79));
#318=EDGE_LOOP('',(#80,#81,#82,#83));
#319=EDGE_LOOP('',(#84));
#320=EDGE_LOOP('',(#85));
#321=EDGE_LOOP('',(#86));
#322=EDGE_LOOP('',(#87,#88,#89,#90));
#323=EDGE_LOOP('',(#91,#92,#93,#94));
#324=EDGE_LOOP('',(#95));
#325=EDGE_LOOP('',(#96,#97,#98,#99));
#326=EDGE_LOOP('',(#100,#101,#102,#103));
#327=EDGE_LOOP('',(#104,#105,#106,#107));
#328=EDGE_LOOP('',(#108,#109,#110,#111));
#329=EDGE_LOOP('',(#112,#113,#114,#115));
#330=EDGE_LOOP('',(#116));
#331=EDGE_LOOP('',(#117));
#332=EDGE_LOOP('',(#118));
#333=EDGE_LOOP('',(#119));
#334=EDGE_LOOP('',(#120));
#335=EDGE_LOOP('',(#121));
#336=EDGE_LOOP('',(#122));
#337=EDGE_LOOP('',(#123));
#338=EDGE_LOOP('',(#124));
#339=EDGE_LOOP('',(#125));
#340=EDGE_LOOP('',(#126));
#341=EDGE_LOOP('',(#127));
#342=EDGE_LOOP('',(#128));
#343=EDGE_LOOP('',(#129));
#344=EDGE_LOOP('',(#130));
#345=EDGE_LOOP('',(#131));
#346=EDGE_LOOP('',(#132));
#347=EDGE_LOOP('',(#133));
#348=EDGE_LOOP('',(#134));
#349=EDGE_LOOP('',(#135));
#350=EDGE_LOOP('',(#136));
#351=EDGE_LOOP('',(#137));
#352=EDGE_LOOP('',(#138));
#353=EDGE_LOOP('',(#139));
#354=FACE_BOUND('',#304,.T.);
#355=FACE_BOUND('',#305,.T.);
#356=FACE_BOUND('',#306,.T.);
#357=FACE_BOUND('',#307,.T.);
#358=FACE_BOUND('',#308,.T.);
#359=FACE_BOUND('',#309,.T.);
#360=FACE_BOUND('',#310,.T.);
#361=FACE_BOUND('',#311,.T.);
#362=FACE_BOUND('',#312,.T.);
#363=FACE_BOUND('',#313,.T.);
#364=FACE_BOUND('',#314,.T.);
#365=FACE_BOUND('',#315,.T.);
#366=FACE_BOUND('',#316,.T.);
#367=FACE_BOUND('',#317,.T.);
#368=FACE_BOUND('',#318,.T.);
#369=FACE_BOUND('',#319,.T.);
#370=FACE_BOUND('',#320,.T.);
#371=FACE_BOUND('',#321,.T.);
#372=FACE_BOUND('',#322,.T.);
#373=FACE_BOUND('',#323,.T.);
#374=FACE_BOUND('',#324,.T.);
#375=FACE_BOUND('',#325,.T.);
#376=FACE_BOUND('',#326,.T.);
#377=FACE_BOUND('',#327,.T.);
#378=FACE_BOUND('',#328,.T.);
#379=FACE_BOUND('',#329,.T.);
#380=FACE_BOUND('',#330,.T.);
#381=FACE_BOUND('',#331,.T.);
#382=FACE_BOUND('',#332,.T.);
#383=FACE_BOUND('',#333,.T.);
#384=FACE_BOUND('',#334,.T.);
#385=FACE_BOUND('',#335,.T.);
#386=FACE_BOUND('',#336,.T.);
#387=FACE_BOUND('',#337,.T.);
#388=FACE_BOUND('',#338,.T.);
#389=FACE_BOUND('',#339,.T.);
#390=FACE_BOUND('',#340,.T.);
#391=FACE_BOUND('',#341,.T.);
#392=FACE_BOUND('',#342,.T.);
#393=FACE_BOUND('',#343,.T.);
#394=FACE_BOUND('',#344,.T.);
#395=FACE_BOUND('',#345,.T.);
#396=FACE_BOUND('',#346,.T.);
#397=FACE_BOUND('',#347,.T.);
#398=FACE_BOUND('',#348,.T.);
#399=FACE_BOUND('',#349,.T.);
#400=FACE_BOUND('',#350,.T.);
#401=FACE_BOUND('',#351,.T.);
#402=FACE_BOUND('',#352,.T.);
#403=FACE_BOUND('',#353,.T.);
#404=PLANE('',#463);
#405=PLANE('',#464);
#406=PLANE('',#465);
#407=PLANE('',#466);
#408=PLANE('',#470);
#409=PLANE('',#471);
#410=PLANE('',#473);
#411=PLANE('',#474);
#412=PLANE('',#475);
#413=PLANE('',#479);
#414=PLANE('',#480);
#415=PLANE('',#482);
#416=PLANE('',#483);
#417=PLANE('',#484);
#418=PLANE('',#485);
#419=PLANE('',#488);
#420=PLANE('',#492);
#421=PLANE('',#496);
#422=PLANE('',#500);
#423=ADVANCED_FACE('',(#354,#355),#404,.F.);
#424=ADVANCED_FACE('',(#356,#357),#405,.T.);
#425=ADVANCED_FACE('',(#358,#359),#406,.T.);
#426=ADVANCED_FACE('',(#360,#361,#362,#363),#407,.F.);
#427=ADVANCED_FACE('',(#364),#408,.F.);
#428=ADVANCED_FACE('',(#365,#366),#409,.T.);
#429=ADVANCED_FACE('',(#367),#410,.T.);
#430=ADVANCED_FACE('',(#368),#411,.F.);
#431=ADVANCED_FACE('',(#369,#370,#371,#372),#412,.T.);
#432=ADVANCED_FACE('',(#373),#413,.T.);
#433=ADVANCED_FACE('',(#374,#375),#414,.F.);
#434=ADVANCED_FACE('',(#376),#415,.F.);
#435=ADVANCED_FACE('',(#377),#416,.T.);
#436=ADVANCED_FACE('',(#378),#417,.T.);
#437=ADVANCED_FACE('',(#379),#418,.F.);
#438=ADVANCED_FACE('',(#380,#381),#12,.T.);
#439=ADVANCED_FACE('',(#382,#383),#419,.T.);
#440=ADVANCED_FACE('',(#384,#385),#13,.T.);
#441=ADVANCED_FACE('',(#386,#387),#420,.T.);
#442=ADVANCED_FACE('',(#388,#389),#14,.T.);
#443=ADVANCED_FACE('',(#390,#391),#421,.T.);
#444=ADVANCED_FACE('',(#392,#393),#15,.T.);
#445=ADVANCED_FACE('',(#394,#395),#422,.T.);
#446=ADVANCED_FACE('',(#396,#397),#16,.F.);
#447=ADVANCED_FACE('',(#398,#399),#17,.F.);
#448=ADVANCED_FACE('',(#400,#401),#18,.F.);
#449=ADVANCED_FACE('',(#402,#403),#19,.F.);
#450=CLOSED_SHELL('',(#423,#424,#425,#426,#427,#428,#429,#430,#431,#432,
#433,#434,#435,#436,#437,#438,#439,#440,#441,#442,#443,#444,#445,#446,#447,
#448,#449));
#451=STYLED_ITEM('',(#452),#459);
#452=PRESENTATION_STYLE_ASSIGNMENT((#453));
#453=SURFACE_STYLE_USAGE(.BOTH.,#454);
#454=SURFACE_SIDE_STYLE('',(#455));
#455=SURFACE_STYLE_FILL_AREA(#456);
#456=FILL_AREA_STYLE('',(#457));
#457=FILL_AREA_STYLE_COLOUR('',#458);
#458=COLOUR_RGB('',0.615686274509804,0.811764705882353,0.929411764705882);
#459=MANIFOLD_SOLID_BREP('gehaeuse',#450);
#460=SHAPE_DEFINITION_REPRESENTATION(#756,#461);
#461=SHAPE_REPRESENTATION('gehaeuse',(#462),#751);
#462=AXIS2_PLACEMENT_3D('',#630,#506,#507);
#463=AXIS2_PLACEMENT_3D('',#631,#508,#509);
#464=AXIS2_PLACEMENT_3D('',#648,#518,#519);
#465=AXIS2_PLACEMENT_3D('',#665,#528,#529);
#466=AXIS2_PLACEMENT_3D('',#676,#536,#537);
#467=AXIS2_PLACEMENT_3D('',#677,#538,#539);
#468=AXIS2_PLACEMENT_3D('',#679,#540,#541);
#469=AXIS2_PLACEMENT_3D('',#681,#542,#543);
#470=AXIS2_PLACEMENT_3D('',#688,#547,#548);
#471=AXIS2_PLACEMENT_3D('',#694,#552,#553);
#472=AXIS2_PLACEMENT_3D('',#695,#554,#555);
#473=AXIS2_PLACEMENT_3D('',#699,#558,#559);
#474=AXIS2_PLACEMENT_3D('',#700,#560,#561);
#475=AXIS2_PLACEMENT_3D('',#701,#562,#563);
#476=AXIS2_PLACEMENT_3D('',#702,#564,#565);
#477=AXIS2_PLACEMENT_3D('',#704,#566,#567);
#478=AXIS2_PLACEMENT_3D('',#706,#568,#569);
#479=AXIS2_PLACEMENT_3D('',#709,#571,#572);
#480=AXIS2_PLACEMENT_3D('',#711,#574,#575);
#481=AXIS2_PLACEMENT_3D('',#712,#576,#577);
#482=AXIS2_PLACEMENT_3D('',#714,#578,#579);
#483=AXIS2_PLACEMENT_3D('',#717,#582,#583);
#484=AXIS2_PLACEMENT_3D('',#719,#585,#586);
#485=AXIS2_PLACEMENT_3D('',#721,#588,#589);
#486=AXIS2_PLACEMENT_3D('',#722,#590,#591);
#487=AXIS2_PLACEMENT_3D('',#723,#592,#593);
#488=AXIS2_PLACEMENT_3D('',#725,#594,#595);
#489=AXIS2_PLACEMENT_3D('',#726,#596,#597);
#490=AXIS2_PLACEMENT_3D('',#728,#598,#599);
#491=AXIS2_PLACEMENT_3D('',#729,#600,#601);
#492=AXIS2_PLACEMENT_3D('',#731,#602,#603);
#493=AXIS2_PLACEMENT_3D('',#732,#604,#605);
#494=AXIS2_PLACEMENT_3D('',#734,#606,#607);
#495=AXIS2_PLACEMENT_3D('',#735,#608,#609);
#496=AXIS2_PLACEMENT_3D('',#737,#610,#611);
#497=AXIS2_PLACEMENT_3D('',#738,#612,#613);
#498=AXIS2_PLACEMENT_3D('',#740,#614,#615);
#499=AXIS2_PLACEMENT_3D('',#741,#616,#617);
#500=AXIS2_PLACEMENT_3D('',#743,#618,#619);
#501=AXIS2_PLACEMENT_3D('',#744,#620,#621);
#502=AXIS2_PLACEMENT_3D('',#746,#622,#623);
#503=AXIS2_PLACEMENT_3D('',#747,#624,#625);
#504=AXIS2_PLACEMENT_3D('',#748,#626,#627);
#505=AXIS2_PLACEMENT_3D('',#749,#628,#629);
#506=DIRECTION('',(0.,0.,1.));
#507=DIRECTION('',(1.,0.,0.));
#508=DIRECTION('',(0.,-1.,0.));
#509=DIRECTION('',(1.,0.,0.));
#510=DIRECTION('',(1.,0.,1.66533453693773E-16));
#511=DIRECTION('',(0.,0.,-1.));
#512=DIRECTION('',(1.,0.,2.22044604925032E-16));
#513=DIRECTION('',(0.,0.,-1.));
#514=DIRECTION('',(1.,0.,0.));
#515=DIRECTION('',(0.,0.,-1.));
#516=DIRECTION('',(1.,0.,0.));
#517=DIRECTION('',(0.,0.,-1.));
#518=DIRECTION('',(0.,-1.,0.));
#519=DIRECTION('',(1.,0.,0.));
#520=DIRECTION('',(1.,0.,1.66533453693773E-16));
#521=DIRECTION('',(0.,0.,-1.));
#522=DIRECTION('',(1.,0.,2.22044604925032E-16));
#523=DIRECTION('',(0.,0.,-1.));
#524=DIRECTION('',(0.,0.,-1.));
#525=DIRECTION('',(1.,0.,0.));
#526=DIRECTION('',(0.,0.,-1.));
#527=DIRECTION('',(1.,0.,0.));
#528=DIRECTION('',(-1.66533453693773E-16,0.,1.));
#529=DIRECTION('',(1.,0.,1.66533453693773E-16));
#530=DIRECTION('',(1.,0.,1.66533453693773E-16));
#531=DIRECTION('',(0.,1.,0.));
#532=DIRECTION('',(1.,0.,1.66533453693773E-16));
#533=DIRECTION('',(0.,1.,0.));
#534=DIRECTION('',(0.,1.,0.));
#535=DIRECTION('',(0.,1.,0.));
#536=DIRECTION('',(1.,0.,0.));
#537=DIRECTION('',(0.,0.,-1.));
#538=DIRECTION('',(-1.,0.,0.));
#539=DIRECTION('',(0.,0.,1.));
#540=DIRECTION('',(-1.,0.,0.));
#541=DIRECTION('',(0.,0.,1.));
#542=DIRECTION('',(-1.,0.,0.));
#543=DIRECTION('',(0.,0.,1.));
#544=DIRECTION('',(0.,0.,-1.));
#545=DIRECTION('',(0.,1.,0.));
#546=DIRECTION('',(0.,0.,-1.));
#547=DIRECTION('',(-2.22044604925032E-16,0.,1.));
#548=DIRECTION('',(1.,0.,2.22044604925032E-16));
#549=DIRECTION('',(1.,0.,2.22044604925032E-16));
#550=DIRECTION('',(0.,1.,0.));
#551=DIRECTION('',(1.,0.,2.22044604925032E-16));
#552=DIRECTION('',(1.,0.,0.));
#553=DIRECTION('',(0.,0.,-1.));
#554=DIRECTION('',(1.,0.,0.));
#555=DIRECTION('',(0.,0.,-1.));
#556=DIRECTION('',(0.,0.,-1.));
#557=DIRECTION('',(0.,0.,-1.));
#558=DIRECTION('',(0.,-1.,0.));
#559=DIRECTION('',(1.,0.,0.));
#560=DIRECTION('',(0.,-1.,0.));
#561=DIRECTION('',(1.,0.,0.));
#562=DIRECTION('',(1.,0.,0.));
#563=DIRECTION('',(0.,0.,-1.));
#564=DIRECTION('',(1.,0.,0.));
#565=DIRECTION('',(0.,0.,-1.));
#566=DIRECTION('',(1.,0.,0.));
#567=DIRECTION('',(0.,0.,-1.));
#568=DIRECTION('',(1.,0.,0.));
#569=DIRECTION('',(0.,0.,-1.));
#570=DIRECTION('',(0.,1.,0.));
#571=DIRECTION('',(-2.22044604925032E-16,0.,1.));
#572=DIRECTION('',(1.,0.,2.22044604925032E-16));
#573=DIRECTION('',(0.,1.,0.));
#574=DIRECTION('',(1.,0.,0.));
#575=DIRECTION('',(0.,0.,-1.));
#576=DIRECTION('',(1.,0.,0.));
#577=DIRECTION('',(0.,0.,-1.));
#578=DIRECTION('',(0.,0.,-1.));
#579=DIRECTION('',(-1.,0.,0.));
#580=DIRECTION('',(0.,-1.,0.));
#581=DIRECTION('',(0.,-1.,0.));
#582=DIRECTION('',(-1.,0.,0.));
#583=DIRECTION('',(0.,0.,1.));
#584=DIRECTION('',(0.,-1.,0.));
#585=DIRECTION('',(0.,0.,-1.));
#586=DIRECTION('',(-1.,0.,0.));
#587=DIRECTION('',(0.,-1.,0.));
#588=DIRECTION('',(-1.,0.,0.));
#589=DIRECTION('',(0.,0.,1.));
#590=DIRECTION('',(1.,0.,0.));
#591=DIRECTION('',(0.,0.,-1.));
#592=DIRECTION('',(-1.,0.,0.));
#593=DIRECTION('',(0.,0.,1.));
#594=DIRECTION('',(-1.,0.,0.));
#595=DIRECTION('',(0.,-1.,0.));
#596=DIRECTION('',(1.,0.,0.));
#597=DIRECTION('',(0.,0.,-1.));
#598=DIRECTION('',(1.,0.,0.));
#599=DIRECTION('',(0.,0.,-1.));
#600=DIRECTION('',(-1.,0.,0.));
#601=DIRECTION('',(0.,0.,1.));
#602=DIRECTION('',(-1.,0.,0.));
#603=DIRECTION('',(0.,-1.,0.));
#604=DIRECTION('',(1.,0.,0.));
#605=DIRECTION('',(0.,0.,-1.));
#606=DIRECTION('',(1.,0.,0.));
#607=DIRECTION('',(0.,0.,-1.));
#608=DIRECTION('',(-1.,0.,0.));
#609=DIRECTION('',(0.,0.,1.));
#610=DIRECTION('',(-1.,0.,0.));
#611=DIRECTION('',(0.,-1.,0.));
#612=DIRECTION('',(1.,0.,0.));
#613=DIRECTION('',(0.,0.,-1.));
#614=DIRECTION('',(-1.,0.,0.));
#615=DIRECTION('',(0.,0.,1.));
#616=DIRECTION('',(1.,0.,0.));
#617=DIRECTION('',(0.,0.,-1.));
#618=DIRECTION('',(1.,0.,0.));
#619=DIRECTION('',(0.,1.,0.));
#620=DIRECTION('',(-1.,0.,0.));
#621=DIRECTION('',(0.,0.,1.));
#622=DIRECTION('',(-1.,0.,0.));
#623=DIRECTION('',(0.,0.,1.));
#624=DIRECTION('',(1.,0.,0.));
#625=DIRECTION('',(0.,0.,-1.));
#626=DIRECTION('',(1.,0.,0.));
#627=DIRECTION('',(0.,0.,-1.));
#628=DIRECTION('',(1.,0.,0.));
#629=DIRECTION('',(0.,0.,-1.));
#630=CARTESIAN_POINT('',(0.,0.,0.));
#631=CARTESIAN_POINT('',(0.,-0.39,-1.11022302462516E-16));
#632=CARTESIAN_POINT('',(0.,-0.39,0.5));
#633=CARTESIAN_POINT('',(-0.49,-0.39,0.5));
#634=CARTESIAN_POINT('',(0.49,-0.39,0.5));
#635=CARTESIAN_POINT('',(0.49,-0.39,5.55111512312578E-17));
#636=CARTESIAN_POINT('',(0.49,-0.39,-0.49));
#637=CARTESIAN_POINT('',(-2.22044604925032E-18,-0.39,-0.49));
#638=CARTESIAN_POINT('',(-0.49,-0.39,-0.49));
#639=CARTESIAN_POINT('',(-0.49,-0.39,-5.55111512312578E-17));
#640=CARTESIAN_POINT('',(0.,-0.39,0.32));
#641=CARTESIAN_POINT('',(-0.05,-0.39,0.32));
#642=CARTESIAN_POINT('',(0.05,-0.39,0.32));
#643=CARTESIAN_POINT('',(-0.05,-0.39,-1.11022302462516E-16));
#644=CARTESIAN_POINT('',(-0.05,-0.39,0.3));
#645=CARTESIAN_POINT('',(0.,-0.39,0.3));
#646=CARTESIAN_POINT('',(0.05,-0.39,0.3));
#647=CARTESIAN_POINT('',(0.05,-0.39,-1.11022302462516E-16));
#648=CARTESIAN_POINT('',(0.,-0.01,-1.11022302462516E-16));
#649=CARTESIAN_POINT('',(0.,-0.01,0.5));
#650=CARTESIAN_POINT('',(-0.49,-0.01,0.5));
#651=CARTESIAN_POINT('',(0.49,-0.01,0.5));
#652=CARTESIAN_POINT('',(-0.49,-0.01,-5.55111512312578E-17));
#653=CARTESIAN_POINT('',(-0.49,-0.01,-0.49));
#654=CARTESIAN_POINT('',(-2.22044604925032E-18,-0.01,-0.49));
#655=CARTESIAN_POINT('',(0.49,-0.01,-0.49));
#656=CARTESIAN_POINT('',(0.49,-0.01,5.55111512312578E-17));
#657=CARTESIAN_POINT('',(-0.05,-0.01,-1.11022302462516E-16));
#658=CARTESIAN_POINT('',(-0.05,-0.01,0.32));
#659=CARTESIAN_POINT('',(-0.05,-0.01,0.3));
#660=CARTESIAN_POINT('',(0.,-0.01,0.32));
#661=CARTESIAN_POINT('',(0.05,-0.01,0.32));
#662=CARTESIAN_POINT('',(0.05,-0.01,-1.11022302462516E-16));
#663=CARTESIAN_POINT('',(0.05,-0.01,0.3));
#664=CARTESIAN_POINT('',(0.,-0.01,0.3));
#665=CARTESIAN_POINT('',(0.,-0.4,0.5));
#666=CARTESIAN_POINT('',(0.,0.,0.5));
#667=CARTESIAN_POINT('',(-0.5,0.,0.5));
#668=CARTESIAN_POINT('',(0.5,0.,0.5));
#669=CARTESIAN_POINT('',(-0.5,-0.4,0.5));
#670=CARTESIAN_POINT('',(-0.5,-0.4,0.5));
#671=CARTESIAN_POINT('',(0.,-0.4,0.5));
#672=CARTESIAN_POINT('',(0.5,-0.4,0.5));
#673=CARTESIAN_POINT('',(0.5,-0.4,0.5));
#674=CARTESIAN_POINT('',(-0.49,-0.4,0.5));
#675=CARTESIAN_POINT('',(0.49,-0.4,0.5));
#676=CARTESIAN_POINT('',(-0.5,-0.4,-5.55111512312578E-17));
#677=CARTESIAN_POINT('',(-0.5,-0.2,-0.46));
#678=CARTESIAN_POINT('',(-0.5,-0.2,-0.444));
#679=CARTESIAN_POINT('',(-0.5,-0.2,-0.29));
#680=CARTESIAN_POINT('',(-0.5,-0.2,-0.274));
#681=CARTESIAN_POINT('',(-0.5,-0.2,0.27));
#682=CARTESIAN_POINT('',(-0.5,-0.2,0.286));
#683=CARTESIAN_POINT('',(-0.5,0.,-5.55111512312578E-17));
#684=CARTESIAN_POINT('',(-0.5,0.,-0.5));
#685=CARTESIAN_POINT('',(-0.5,-0.4,-0.5));
#686=CARTESIAN_POINT('',(-0.5,-0.4,-0.5));
#687=CARTESIAN_POINT('',(-0.5,-0.4,-5.55111512312578E-17));
#688=CARTESIAN_POINT('',(0.,-0.4,-0.5));
#689=CARTESIAN_POINT('',(0.,0.,-0.5));
#690=CARTESIAN_POINT('',(0.5,0.,-0.5));
#691=CARTESIAN_POINT('',(0.5,-0.4,-0.5));
#692=CARTESIAN_POINT('',(0.5,-0.4,-0.5));
#693=CARTESIAN_POINT('',(0.,-0.4,-0.5));
#694=CARTESIAN_POINT('',(0.5,-0.4,5.55111512312578E-17));
#695=CARTESIAN_POINT('',(0.5,-0.2,0.25));
#696=CARTESIAN_POINT('',(0.5,-0.2,0.234));
#697=CARTESIAN_POINT('',(0.5,0.,5.55111512312578E-17));
#698=CARTESIAN_POINT('',(0.5,-0.4,5.55111512312578E-17));
#699=CARTESIAN_POINT('',(0.,-0.4,-1.11022302462516E-16));
#700=CARTESIAN_POINT('',(0.,0.,-1.11022302462516E-16));
#701=CARTESIAN_POINT('',(-0.49,-0.4,-5.55111512312578E-17));
#702=CARTESIAN_POINT('',(-0.49,-0.2,0.27));
#703=CARTESIAN_POINT('',(-0.49,-0.2,0.255));
#704=CARTESIAN_POINT('',(-0.49,-0.2,-0.29));
#705=CARTESIAN_POINT('',(-0.49,-0.2,-0.305));
#706=CARTESIAN_POINT('',(-0.49,-0.2,-0.46));
#707=CARTESIAN_POINT('',(-0.49,-0.2,-0.475));
#708=CARTESIAN_POINT('',(-0.49,-0.4,-0.49));
#709=CARTESIAN_POINT('',(-2.22044604925032E-18,-0.4,-0.49));
#710=CARTESIAN_POINT('',(0.49,-0.4,-0.49));
#711=CARTESIAN_POINT('',(0.49,-0.4,5.55111512312578E-17));
#712=CARTESIAN_POINT('',(0.49,-0.2,0.25));
#713=CARTESIAN_POINT('',(0.49,-0.2,0.235));
#714=CARTESIAN_POINT('',(-1.38777878078145E-17,0.,0.32));
#715=CARTESIAN_POINT('',(-0.05,0.,0.32));
#716=CARTESIAN_POINT('',(0.05,0.,0.32));
#717=CARTESIAN_POINT('',(-0.05,0.,0.31));
#718=CARTESIAN_POINT('',(-0.05,0.,0.3));
#719=CARTESIAN_POINT('',(-1.38777878078145E-17,0.,0.3));
#720=CARTESIAN_POINT('',(0.05,0.,0.3));
#721=CARTESIAN_POINT('',(0.05,0.,0.31));
#722=CARTESIAN_POINT('',(-0.55,-0.2,0.27));
#723=CARTESIAN_POINT('',(-0.55,-0.2,0.27));
#724=CARTESIAN_POINT('',(-0.55,-0.2,0.286));
#725=CARTESIAN_POINT('',(-0.55,-0.2,-1.11022302462516E-16));
#726=CARTESIAN_POINT('',(-0.55,-0.2,0.27));
#727=CARTESIAN_POINT('',(-0.55,-0.2,0.255));
#728=CARTESIAN_POINT('',(-0.55,-0.2,-0.29));
#729=CARTESIAN_POINT('',(-0.55,-0.2,-0.29));
#730=CARTESIAN_POINT('',(-0.55,-0.2,-0.274));
#731=CARTESIAN_POINT('',(-0.55,-0.2,-1.11022302462516E-16));
#732=CARTESIAN_POINT('',(-0.55,-0.2,-0.29));
#733=CARTESIAN_POINT('',(-0.55,-0.2,-0.305));
#734=CARTESIAN_POINT('',(-0.55,-0.2,-0.46));
#735=CARTESIAN_POINT('',(-0.55,-0.2,-0.46));
#736=CARTESIAN_POINT('',(-0.55,-0.2,-0.444));
#737=CARTESIAN_POINT('',(-0.55,-0.2,-1.11022302462516E-16));
#738=CARTESIAN_POINT('',(-0.55,-0.2,-0.46));
#739=CARTESIAN_POINT('',(-0.55,-0.2,-0.475));
#740=CARTESIAN_POINT('',(0.55,-0.2,0.25));
#741=CARTESIAN_POINT('',(0.55,-0.2,0.25));
#742=CARTESIAN_POINT('',(0.55,-0.2,0.234));
#743=CARTESIAN_POINT('',(0.55,-0.2,0.));
#744=CARTESIAN_POINT('',(0.55,-0.2,0.25));
#745=CARTESIAN_POINT('',(0.55,-0.2,0.265));
#746=CARTESIAN_POINT('',(0.55,-0.2,0.25));
#747=CARTESIAN_POINT('',(-0.55,-0.2,-0.46));
#748=CARTESIAN_POINT('',(-0.55,-0.2,-0.29));
#749=CARTESIAN_POINT('',(-0.55,-0.2,0.27));
#750=MECHANICAL_DESIGN_GEOMETRIC_PRESENTATION_REPRESENTATION('',(#451),
#751);
#751=(
GEOMETRIC_REPRESENTATION_CONTEXT(3)
GLOBAL_UNCERTAINTY_ASSIGNED_CONTEXT((#752))
GLOBAL_UNIT_ASSIGNED_CONTEXT((#755,#754,#753))
REPRESENTATION_CONTEXT('gehaeuse','TOP_LEVEL_ASSEMBLY_PART')
);
#752=UNCERTAINTY_MEASURE_WITH_UNIT(LENGTH_MEASURE(1.E-8),#755,
'DISTANCE_ACCURACY_VALUE','Maximum Tolerance applied to model');
#753=(
NAMED_UNIT(*)
SI_UNIT($,.STERADIAN.)
SOLID_ANGLE_UNIT()
);
#754=(
NAMED_UNIT(*)
PLANE_ANGLE_UNIT()
SI_UNIT($,.RADIAN.)
);
#755=(
LENGTH_UNIT()
NAMED_UNIT(*)
SI_UNIT($,.METRE.)
);
#756=PRODUCT_DEFINITION_SHAPE('','',#757);
#757=PRODUCT_DEFINITION('','',#759,#758);
#758=PRODUCT_DEFINITION_CONTEXT('',#765,'design');
#759=PRODUCT_DEFINITION_FORMATION_WITH_SPECIFIED_SOURCE('','',#761,
 .NOT_KNOWN.);
#760=PRODUCT_RELATED_PRODUCT_CATEGORY('','',(#761));
#761=PRODUCT('gehaeuse','gehaeuse','gehaeuse',(#763));
#762=PRODUCT_CATEGORY('','');
#763=PRODUCT_CONTEXT('',#765,'mechanical');
#764=APPLICATION_PROTOCOL_DEFINITION('international standard',
'ap242_managed_model_based_3d_engineering',2020,#765);
#765=APPLICATION_CONTEXT('managed model based 3d engineering');
ENDSEC;
END-ISO-10303-21;
