ISO-10303-21;
HEADER;
/* Generated by software containing ST-Developer
 * from STEP Tools, Inc. (www.steptools.com) 
 */
/* OPTION: using custom renumber hook */

FILE_DESCRIPTION(
/* description */ ('STEP AP242 Edition 2',
'CAx-IF Rec.Pracs.---Representation and Presentation of Product Manufa
cturing Information (PMI)---4.0---2014-10-13',
'CAx-IF Rec.Pracs.---3D Tessellated Geometry---0.4---2014-09-14','2;1',
'CAx-IF Rec.Pracs.---User Defined Attributes---1.5---2016-08-15'),
/* implementation_level */ '2;1');

FILE_NAME(
/* name */ '69888b6bd67534afdc18dbc2',
/* time_stamp */ '2026-02-08T13:11:08Z',
/* author */ (''),
/* organization */ (''),
/* preprocessor_version */ 'ST-DEVELOPER v20',
/* originating_system */ 'ONSHAPE BY PTC INC, 1.210',
/* authorisation */ '  ');

FILE_SCHEMA (('AP242_MANAGED_MODEL_BASED_3D_ENGINEERING_MIM_LF { 1 0 10303 442 3 1 4 }'));
ENDSEC;

DATA;
#10=SHAPE_REPRESENTATION_RELATIONSHIP('','',#136,#11);
#11=ADVANCED_BREP_SHAPE_REPRESENTATION('',(#134),#210);
#12=ORIENTED_EDGE('',*,*,#42,.F.);
#13=ORIENTED_EDGE('',*,*,#43,.T.);
#14=ORIENTED_EDGE('',*,*,#44,.T.);
#15=ORIENTED_EDGE('',*,*,#45,.F.);
#16=ORIENTED_EDGE('',*,*,#46,.F.);
#17=ORIENTED_EDGE('',*,*,#47,.T.);
#18=ORIENTED_EDGE('',*,*,#48,.T.);
#19=ORIENTED_EDGE('',*,*,#46,.T.);
#20=ORIENTED_EDGE('',*,*,#49,.F.);
#21=ORIENTED_EDGE('',*,*,#50,.T.);
#22=ORIENTED_EDGE('',*,*,#51,.T.);
#23=ORIENTED_EDGE('',*,*,#52,.F.);
#24=ORIENTED_EDGE('',*,*,#49,.T.);
#25=ORIENTED_EDGE('',*,*,#53,.F.);
#26=ORIENTED_EDGE('',*,*,#44,.F.);
#27=ORIENTED_EDGE('',*,*,#54,.T.);
#28=ORIENTED_EDGE('',*,*,#55,.F.);
#29=ORIENTED_EDGE('',*,*,#54,.F.);
#30=ORIENTED_EDGE('',*,*,#43,.F.);
#31=ORIENTED_EDGE('',*,*,#51,.F.);
#32=ORIENTED_EDGE('',*,*,#56,.T.);
#33=ORIENTED_EDGE('',*,*,#47,.F.);
#34=ORIENTED_EDGE('',*,*,#45,.T.);
#35=ORIENTED_EDGE('',*,*,#53,.T.);
#36=ORIENTED_EDGE('',*,*,#52,.T.);
#37=ORIENTED_EDGE('',*,*,#55,.T.);
#38=ORIENTED_EDGE('',*,*,#42,.T.);
#39=ORIENTED_EDGE('',*,*,#48,.F.);
#40=ORIENTED_EDGE('',*,*,#56,.F.);
#41=ORIENTED_EDGE('',*,*,#50,.F.);
#42=EDGE_CURVE('',#57,#58,#67,.T.);
#43=EDGE_CURVE('',#57,#59,#68,.T.);
#44=EDGE_CURVE('',#59,#60,#69,.T.);
#45=EDGE_CURVE('',#61,#60,#70,.T.);
#46=EDGE_CURVE('',#58,#61,#71,.T.);
#47=EDGE_CURVE('',#61,#62,#72,.T.);
#48=EDGE_CURVE('',#62,#58,#73,.T.);
#49=EDGE_CURVE('',#63,#64,#74,.T.);
#50=EDGE_CURVE('',#63,#65,#75,.T.);
#51=EDGE_CURVE('',#65,#64,#76,.T.);
#52=EDGE_CURVE('',#63,#66,#77,.T.);
#53=EDGE_CURVE('',#60,#64,#78,.T.);
#54=EDGE_CURVE('',#59,#66,#79,.T.);
#55=EDGE_CURVE('',#66,#57,#80,.T.);
#56=EDGE_CURVE('',#65,#62,#81,.T.);
#57=VERTEX_POINT('',#179);
#58=VERTEX_POINT('',#180);
#59=VERTEX_POINT('',#182);
#60=VERTEX_POINT('',#184);
#61=VERTEX_POINT('',#186);
#62=VERTEX_POINT('',#190);
#63=VERTEX_POINT('',#194);
#64=VERTEX_POINT('',#195);
#65=VERTEX_POINT('',#197);
#66=VERTEX_POINT('',#201);
#67=LINE('',#178,#82);
#68=LINE('',#181,#83);
#69=LINE('',#183,#84);
#70=LINE('',#185,#85);
#71=LINE('',#187,#86);
#72=LINE('',#189,#87);
#73=LINE('',#191,#88);
#74=LINE('',#193,#89);
#75=LINE('',#196,#90);
#76=LINE('',#198,#91);
#77=LINE('',#200,#92);
#78=LINE('',#202,#93);
#79=LINE('',#203,#94);
#80=LINE('',#205,#95);
#81=LINE('',#207,#96);
#82=VECTOR('',#149,1.);
#83=VECTOR('',#150,1.);
#84=VECTOR('',#151,1.);
#85=VECTOR('',#152,1.);
#86=VECTOR('',#153,1.);
#87=VECTOR('',#156,1.);
#88=VECTOR('',#157,1.);
#89=VECTOR('',#160,1.);
#90=VECTOR('',#161,1.);
#91=VECTOR('',#162,1.);
#92=VECTOR('',#165,1.);
#93=VECTOR('',#166,1.);
#94=VECTOR('',#167,1.);
#95=VECTOR('',#170,1.);
#96=VECTOR('',#173,1.);
#97=EDGE_LOOP('',(#12,#13,#14,#15,#16));
#98=EDGE_LOOP('',(#17,#18,#19));
#99=EDGE_LOOP('',(#20,#21,#22));
#100=EDGE_LOOP('',(#23,#24,#25,#26,#27));
#101=EDGE_LOOP('',(#28,#29,#30));
#102=EDGE_LOOP('',(#31,#32,#33,#34,#35));
#103=EDGE_LOOP('',(#36,#37,#38,#39,#40,#41));
#104=FACE_BOUND('',#97,.T.);
#105=FACE_BOUND('',#98,.T.);
#106=FACE_BOUND('',#99,.T.);
#107=FACE_BOUND('',#100,.T.);
#108=FACE_BOUND('',#101,.T.);
#109=FACE_BOUND('',#102,.T.);
#110=FACE_BOUND('',#103,.T.);
#111=PLANE('',#138);
#112=PLANE('',#139);
#113=PLANE('',#140);
#114=PLANE('',#141);
#115=PLANE('',#142);
#116=PLANE('',#143);
#117=PLANE('',#144);
#118=ADVANCED_FACE('',(#104),#111,.T.);
#119=ADVANCED_FACE('',(#105),#112,.F.);
#120=ADVANCED_FACE('',(#106),#113,.F.);
#121=ADVANCED_FACE('',(#107),#114,.T.);
#122=ADVANCED_FACE('',(#108),#115,.T.);
#123=ADVANCED_FACE('',(#109),#116,.F.);
#124=ADVANCED_FACE('',(#110),#117,.F.);
#125=CLOSED_SHELL('',(#118,#119,#120,#121,#122,#123,#124));
#126=STYLED_ITEM('',(#127),#134);
#127=PRESENTATION_STYLE_ASSIGNMENT((#128));
#128=SURFACE_STYLE_USAGE(.BOTH.,#129);
#129=SURFACE_SIDE_STYLE('',(#130));
#130=SURFACE_STYLE_FILL_AREA(#131);
#131=FILL_AREA_STYLE('',(#132));
#132=FILL_AREA_STYLE_COLOUR('',#133);
#133=COLOUR_RGB('',0.615686274509804,0.811764705882353,0.929411764705882);
#134=MANIFOLD_SOLID_BREP('schraege_r',#125);
#135=SHAPE_DEFINITION_REPRESENTATION(#215,#136);
#136=SHAPE_REPRESENTATION('schraege_r',(#137),#210);
#137=AXIS2_PLACEMENT_3D('',#176,#145,#146);
#138=AXIS2_PLACEMENT_3D('',#177,#147,#148);
#139=AXIS2_PLACEMENT_3D('',#188,#154,#155);
#140=AXIS2_PLACEMENT_3D('',#192,#158,#159);
#141=AXIS2_PLACEMENT_3D('',#199,#163,#164);
#142=AXIS2_PLACEMENT_3D('',#204,#168,#169);
#143=AXIS2_PLACEMENT_3D('',#206,#171,#172);
#144=AXIS2_PLACEMENT_3D('',#208,#174,#175);
#145=DIRECTION('',(0.,0.,1.));
#146=DIRECTION('',(1.,0.,0.));
#147=DIRECTION('',(0.,1.,0.));
#148=DIRECTION('',(0.,0.,1.));
#149=DIRECTION('',(-0.707106781186548,0.,-0.707106781186547));
#150=DIRECTION('',(1.,0.,0.));
#151=DIRECTION('',(0.,0.,-1.));
#152=DIRECTION('',(1.,0.,0.));
#153=DIRECTION('',(0.,0.,-1.));
#154=DIRECTION('',(1.,0.,0.));
#155=DIRECTION('',(0.,0.,-1.));
#156=DIRECTION('',(0.,-1.,0.));
#157=DIRECTION('',(0.,0.736517530601432,0.676418455629922));
#158=DIRECTION('',(0.,1.,0.));
#159=DIRECTION('',(0.,0.,1.));
#160=DIRECTION('',(0.,0.,-1.));
#161=DIRECTION('',(-0.707106781186548,0.,-0.707106781186547));
#162=DIRECTION('',(1.,0.,0.));
#163=DIRECTION('',(1.,0.,0.));
#164=DIRECTION('',(0.,0.,-1.));
#165=DIRECTION('',(0.,0.736517530601432,0.676418455629922));
#166=DIRECTION('',(0.,-1.,0.));
#167=DIRECTION('',(0.,-1.,0.));
#168=DIRECTION('',(0.,0.,1.));
#169=DIRECTION('',(1.,0.,0.));
#170=DIRECTION('',(-0.676418455629922,0.736517530601432,0.));
#171=DIRECTION('',(0.,0.,1.));
#172=DIRECTION('',(1.,0.,0.));
#173=DIRECTION('',(-0.676418455629922,0.736517530601432,0.));
#174=DIRECTION('',(0.593029645775782,0.544639035015027,-0.593029645775783));
#175=DIRECTION('',(-0.385117954958023,0.838670567945424,0.385117954958023));
#176=CARTESIAN_POINT('',(0.,0.,0.));
#177=CARTESIAN_POINT('',(0.0706346956267953,0.22327886878853,0.005));
#178=CARTESIAN_POINT('',(0.00786872104097812,0.22327886878853,0.0677659745858172));
#179=CARTESIAN_POINT('',(-0.0548972535448392,0.22327886878853,0.005));
#180=CARTESIAN_POINT('',(-0.0593653043732047,0.22327886878853,0.000531949171634419));
#181=CARTESIAN_POINT('',(0.0706346956267953,0.22327886878853,0.005));
#182=CARTESIAN_POINT('',(0.200634695626796,0.22327886878853,0.005));
#183=CARTESIAN_POINT('',(0.200634695626796,0.22327886878853,0.005));
#184=CARTESIAN_POINT('',(0.200634695626796,0.22327886878853,0.));
#185=CARTESIAN_POINT('',(0.0706346956267953,0.22327886878853,0.));
#186=CARTESIAN_POINT('',(-0.0593653043732048,0.22327886878853,0.));
#187=CARTESIAN_POINT('',(-0.0593653043732048,0.22327886878853,0.005));
#188=CARTESIAN_POINT('',(-0.0593653043732047,0.0832788687885306,0.005));
#189=CARTESIAN_POINT('',(-0.0593653043732047,0.0832788687885306,0.));
#190=CARTESIAN_POINT('',(-0.0593653043732047,0.222699656487274,0.));
#191=CARTESIAN_POINT('',(-0.0593653043732047,0.149560694925321,-0.0671708973250293));
#192=CARTESIAN_POINT('',(0.0706346956267953,-0.0567211312114694,0.005));
#193=CARTESIAN_POINT('',(0.200634695626796,-0.0567211312114694,0.005));
#194=CARTESIAN_POINT('',(0.200634695626796,-0.0567211312114694,0.00337966194539743));
#195=CARTESIAN_POINT('',(0.200634695626796,-0.0567211312114694,0.));
#196=CARTESIAN_POINT('',(0.136444864654096,-0.0567211312114694,-0.0608101690273013));
#197=CARTESIAN_POINT('',(0.197255033681398,-0.0567211312114694,0.));
#198=CARTESIAN_POINT('',(0.0706346956267953,-0.0567211312114694,0.));
#199=CARTESIAN_POINT('',(0.200634695626796,0.0832788687885306,0.005));
#200=CARTESIAN_POINT('',(0.200634695626796,0.0200302417709367,0.0738682016246108));
#201=CARTESIAN_POINT('',(0.200634695626796,-0.0549568278090673,0.005));
#202=CARTESIAN_POINT('',(0.200634695626796,0.0832788687885306,0.));
#203=CARTESIAN_POINT('',(0.200634695626796,0.0832788687885306,0.005));
#204=CARTESIAN_POINT('',(0.0706346956267953,0.0832788687885306,0.005));
#205=CARTESIAN_POINT('',(0.0722860434770046,0.0847954683481287,0.005));
#206=CARTESIAN_POINT('',(0.0706346956267953,0.0832788687885306,0.));
#207=CARTESIAN_POINT('',(0.0695737531125884,0.0823044980951598,0.));
#208=CARTESIAN_POINT('',(0.164543559080672,-0.274620218284462,-0.232830219691187));
#209=MECHANICAL_DESIGN_GEOMETRIC_PRESENTATION_REPRESENTATION('',(#126),
#210);
#210=(
GEOMETRIC_REPRESENTATION_CONTEXT(3)
GLOBAL_UNCERTAINTY_ASSIGNED_CONTEXT((#211))
GLOBAL_UNIT_ASSIGNED_CONTEXT((#214,#213,#212))
REPRESENTATION_CONTEXT('schraege_r','TOP_LEVEL_ASSEMBLY_PART')
);
#211=UNCERTAINTY_MEASURE_WITH_UNIT(LENGTH_MEASURE(1.E-8),#214,
'DISTANCE_ACCURACY_VALUE','Maximum Tolerance applied to model');
#212=(
NAMED_UNIT(*)
SI_UNIT($,.STERADIAN.)
SOLID_ANGLE_UNIT()
);
#213=(
NAMED_UNIT(*)
PLANE_ANGLE_UNIT()
SI_UNIT($,.RADIAN.)
);
#214=(
LENGTH_UNIT()
NAMED_UNIT(*)
SI_UNIT($,.METRE.)
);
#215=PRODUCT_DEFINITION_SHAPE('','',#216);
#216=PRODUCT_DEFINITION('','',#218,#217);
#217=PRODUCT_DEFINITION_CONTEXT('',#224,'design');
#218=PRODUCT_DEFINITION_FORMATION_WITH_SPECIFIED_SOURCE('','',#220,
 .NOT_KNOWN.);
#219=PRODUCT_RELATED_PRODUCT_CATEGORY('','',(#220));
#220=PRODUCT('schraege_r','schraege_r','schraege_r',(#222));
#221=PRODUCT_CATEGORY('','');
#222=PRODUCT_CONTEXT('',#224,'mechanical');
#223=APPLICATION_PROTOCOL_DEFINITION('international standard',
'ap242_managed_model_based_3d_engineering',2020,#224);
#224=APPLICATION_CONTEXT('managed model based 3d engineering');
ENDSEC;
END-ISO-10303-21;
