ISO-10303-21;
HEADER;
/*Generated by software containing ST-Developer
 * from STEP Tools, Inc. (www.steptools.com) 
 */
/*OPTION: using custom renumber hook */
/*description */
/*implementation_level */
FILE_DESCRIPTION(('STEP AP242 Edition 2','STEP AP242 Edition 2''CAx-IF Rec.Pracs.---Representation and Presentation of Product Manufa
cturing Information (PMI)---4.0---2014-10-13','STEP AP242 Edition 2''CAx-IF Rec.Pracs.---Representation and Presentation of Product Manufa
cturing Information (PMI)---4.0---2014-10-13''CAx-IF Rec.Pracs.---3D Tessellated Geometry---0.4---2014-09-14','STEP AP242 Edition 2''CAx-IF Rec.Pracs.---Representation and Presentation of Product Manufa
cturing Information (PMI)---4.0---2014-10-13''CAx-IF Rec.Pracs.---3D Tessellated Geometry---0.4---2014-09-14''2;1','STEP AP242 Edition 2''CAx-IF Rec.Pracs.---Representation and Presentation of Product Manufa
cturing Information (PMI)---4.0---2014-10-13''CAx-IF Rec.Pracs.---3D Tessellated Geometry---0.4---2014-09-14''2;1''CAx-IF Rec.Pracs.---User Defined Attributes---1.5---2016-08-15'),'2;1');
/*name */
/*time_stamp */
/*author */
/*organization */
/*preprocessor_version */
/*originating_system */
/*authorisation */
FILE_NAME('/vol/tmp/translate-238007121139394991/d5c66517-e519-4012-83b0-0705e7f795f7.step','2026-02-21T14:09:49',(''),(''),'ST-DEVELOPER v20','ONSHAPE BY PTC INC, 1.211','  ');
FILE_SCHEMA(('AP242_MANAGED_MODEL_BASED_3D_ENGINEERING_MIM_LF { 1 0 10303 442 3 1 4 }'));
ENDSEC;
DATA;
#10=SHAPE_REPRESENTATION_RELATIONSHIP('','',#637,#11);
#11=ADVANCED_BREP_SHAPE_REPRESENTATION('',(#635),#1003);
#12=ORIENTED_EDGE('',*,*,#180,.F.);
#13=ORIENTED_EDGE('',*,*,#181,.F.);
#14=ORIENTED_EDGE('',*,*,#182,.T.);
#15=ORIENTED_EDGE('',*,*,#183,.T.);
#16=ORIENTED_EDGE('',*,*,#184,.T.);
#17=ORIENTED_EDGE('',*,*,#185,.T.);
#18=ORIENTED_EDGE('',*,*,#186,.F.);
#19=ORIENTED_EDGE('',*,*,#187,.F.);
#20=ORIENTED_EDGE('',*,*,#188,.F.);
#21=ORIENTED_EDGE('',*,*,#183,.F.);
#22=ORIENTED_EDGE('',*,*,#189,.T.);
#23=ORIENTED_EDGE('',*,*,#186,.T.);
#24=ORIENTED_EDGE('',*,*,#190,.F.);
#25=ORIENTED_EDGE('',*,*,#191,.F.);
#26=ORIENTED_EDGE('',*,*,#192,.T.);
#27=ORIENTED_EDGE('',*,*,#193,.T.);
#28=ORIENTED_EDGE('',*,*,#194,.T.);
#29=ORIENTED_EDGE('',*,*,#195,.T.);
#30=ORIENTED_EDGE('',*,*,#196,.F.);
#31=ORIENTED_EDGE('',*,*,#197,.F.);
#32=ORIENTED_EDGE('',*,*,#198,.F.);
#33=ORIENTED_EDGE('',*,*,#193,.F.);
#34=ORIENTED_EDGE('',*,*,#199,.T.);
#35=ORIENTED_EDGE('',*,*,#196,.T.);
#36=ORIENTED_EDGE('',*,*,#200,.F.);
#37=ORIENTED_EDGE('',*,*,#201,.F.);
#38=ORIENTED_EDGE('',*,*,#202,.T.);
#39=ORIENTED_EDGE('',*,*,#203,.T.);
#40=ORIENTED_EDGE('',*,*,#204,.T.);
#41=ORIENTED_EDGE('',*,*,#205,.T.);
#42=ORIENTED_EDGE('',*,*,#206,.F.);
#43=ORIENTED_EDGE('',*,*,#207,.F.);
#44=ORIENTED_EDGE('',*,*,#208,.F.);
#45=ORIENTED_EDGE('',*,*,#203,.F.);
#46=ORIENTED_EDGE('',*,*,#209,.T.);
#47=ORIENTED_EDGE('',*,*,#206,.T.);
#48=ORIENTED_EDGE('',*,*,#210,.T.);
#49=ORIENTED_EDGE('',*,*,#211,.F.);
#50=ORIENTED_EDGE('',*,*,#212,.F.);
#51=ORIENTED_EDGE('',*,*,#213,.T.);
#52=ORIENTED_EDGE('',*,*,#212,.T.);
#53=ORIENTED_EDGE('',*,*,#214,.T.);
#54=ORIENTED_EDGE('',*,*,#215,.F.);
#55=ORIENTED_EDGE('',*,*,#216,.F.);
#56=ORIENTED_EDGE('',*,*,#215,.T.);
#57=ORIENTED_EDGE('',*,*,#217,.T.);
#58=ORIENTED_EDGE('',*,*,#218,.F.);
#59=ORIENTED_EDGE('',*,*,#219,.F.);
#60=ORIENTED_EDGE('',*,*,#218,.T.);
#61=ORIENTED_EDGE('',*,*,#220,.F.);
#62=ORIENTED_EDGE('',*,*,#210,.F.);
#63=ORIENTED_EDGE('',*,*,#221,.T.);
#64=ORIENTED_EDGE('',*,*,#213,.F.);
#65=ORIENTED_EDGE('',*,*,#216,.T.);
#66=ORIENTED_EDGE('',*,*,#219,.T.);
#67=ORIENTED_EDGE('',*,*,#221,.F.);
#68=ORIENTED_EDGE('',*,*,#209,.F.);
#69=ORIENTED_EDGE('',*,*,#202,.F.);
#70=ORIENTED_EDGE('',*,*,#222,.T.);
#71=ORIENTED_EDGE('',*,*,#207,.T.);
#72=ORIENTED_EDGE('',*,*,#223,.F.);
#73=ORIENTED_EDGE('',*,*,#224,.T.);
#74=ORIENTED_EDGE('',*,*,#225,.T.);
#75=ORIENTED_EDGE('',*,*,#226,.F.);
#76=ORIENTED_EDGE('',*,*,#227,.T.);
#77=ORIENTED_EDGE('',*,*,#228,.F.);
#78=ORIENTED_EDGE('',*,*,#229,.F.);
#79=ORIENTED_EDGE('',*,*,#226,.T.);
#80=ORIENTED_EDGE('',*,*,#230,.F.);
#81=ORIENTED_EDGE('',*,*,#231,.T.);
#82=ORIENTED_EDGE('',*,*,#228,.T.);
#83=ORIENTED_EDGE('',*,*,#232,.F.);
#84=ORIENTED_EDGE('',*,*,#222,.F.);
#85=ORIENTED_EDGE('',*,*,#201,.T.);
#86=ORIENTED_EDGE('',*,*,#233,.T.);
#87=ORIENTED_EDGE('',*,*,#191,.T.);
#88=ORIENTED_EDGE('',*,*,#234,.T.);
#89=ORIENTED_EDGE('',*,*,#181,.T.);
#90=ORIENTED_EDGE('',*,*,#235,.T.);
#91=ORIENTED_EDGE('',*,*,#223,.T.);
#92=ORIENTED_EDGE('',*,*,#229,.T.);
#93=ORIENTED_EDGE('',*,*,#231,.F.);
#94=ORIENTED_EDGE('',*,*,#236,.F.);
#95=ORIENTED_EDGE('',*,*,#184,.F.);
#96=ORIENTED_EDGE('',*,*,#237,.F.);
#97=ORIENTED_EDGE('',*,*,#194,.F.);
#98=ORIENTED_EDGE('',*,*,#238,.F.);
#99=ORIENTED_EDGE('',*,*,#204,.F.);
#100=ORIENTED_EDGE('',*,*,#214,.F.);
#101=ORIENTED_EDGE('',*,*,#211,.T.);
#102=ORIENTED_EDGE('',*,*,#220,.T.);
#103=ORIENTED_EDGE('',*,*,#217,.F.);
#104=ORIENTED_EDGE('',*,*,#225,.F.);
#105=ORIENTED_EDGE('',*,*,#239,.T.);
#106=ORIENTED_EDGE('',*,*,#232,.T.);
#107=ORIENTED_EDGE('',*,*,#227,.F.);
#108=ORIENTED_EDGE('',*,*,#233,.F.);
#109=ORIENTED_EDGE('',*,*,#240,.F.);
#110=ORIENTED_EDGE('',*,*,#241,.T.);
#111=ORIENTED_EDGE('',*,*,#242,.T.);
#112=ORIENTED_EDGE('',*,*,#243,.T.);
#113=ORIENTED_EDGE('',*,*,#238,.T.);
#114=ORIENTED_EDGE('',*,*,#244,.F.);
#115=ORIENTED_EDGE('',*,*,#245,.F.);
#116=ORIENTED_EDGE('',*,*,#208,.T.);
#117=ORIENTED_EDGE('',*,*,#205,.F.);
#118=ORIENTED_EDGE('',*,*,#243,.F.);
#119=ORIENTED_EDGE('',*,*,#246,.F.);
#120=ORIENTED_EDGE('',*,*,#240,.T.);
#121=ORIENTED_EDGE('',*,*,#200,.T.);
#122=ORIENTED_EDGE('',*,*,#199,.F.);
#123=ORIENTED_EDGE('',*,*,#192,.F.);
#124=ORIENTED_EDGE('',*,*,#242,.F.);
#125=ORIENTED_EDGE('',*,*,#247,.T.);
#126=ORIENTED_EDGE('',*,*,#244,.T.);
#127=ORIENTED_EDGE('',*,*,#197,.T.);
#128=ORIENTED_EDGE('',*,*,#241,.F.);
#129=ORIENTED_EDGE('',*,*,#246,.T.);
#130=ORIENTED_EDGE('',*,*,#245,.T.);
#131=ORIENTED_EDGE('',*,*,#247,.F.);
#132=ORIENTED_EDGE('',*,*,#234,.F.);
#133=ORIENTED_EDGE('',*,*,#248,.F.);
#134=ORIENTED_EDGE('',*,*,#249,.T.);
#135=ORIENTED_EDGE('',*,*,#250,.T.);
#136=ORIENTED_EDGE('',*,*,#251,.T.);
#137=ORIENTED_EDGE('',*,*,#237,.T.);
#138=ORIENTED_EDGE('',*,*,#252,.F.);
#139=ORIENTED_EDGE('',*,*,#253,.F.);
#140=ORIENTED_EDGE('',*,*,#189,.F.);
#141=ORIENTED_EDGE('',*,*,#182,.F.);
#142=ORIENTED_EDGE('',*,*,#250,.F.);
#143=ORIENTED_EDGE('',*,*,#254,.T.);
#144=ORIENTED_EDGE('',*,*,#252,.T.);
#145=ORIENTED_EDGE('',*,*,#187,.T.);
#146=ORIENTED_EDGE('',*,*,#198,.T.);
#147=ORIENTED_EDGE('',*,*,#195,.F.);
#148=ORIENTED_EDGE('',*,*,#251,.F.);
#149=ORIENTED_EDGE('',*,*,#255,.F.);
#150=ORIENTED_EDGE('',*,*,#248,.T.);
#151=ORIENTED_EDGE('',*,*,#190,.T.);
#152=ORIENTED_EDGE('',*,*,#254,.F.);
#153=ORIENTED_EDGE('',*,*,#249,.F.);
#154=ORIENTED_EDGE('',*,*,#255,.T.);
#155=ORIENTED_EDGE('',*,*,#253,.T.);
#156=ORIENTED_EDGE('',*,*,#235,.F.);
#157=ORIENTED_EDGE('',*,*,#256,.F.);
#158=ORIENTED_EDGE('',*,*,#257,.T.);
#159=ORIENTED_EDGE('',*,*,#258,.T.);
#160=ORIENTED_EDGE('',*,*,#259,.T.);
#161=ORIENTED_EDGE('',*,*,#236,.T.);
#162=ORIENTED_EDGE('',*,*,#260,.F.);
#163=ORIENTED_EDGE('',*,*,#261,.F.);
#164=ORIENTED_EDGE('',*,*,#188,.T.);
#165=ORIENTED_EDGE('',*,*,#185,.F.);
#166=ORIENTED_EDGE('',*,*,#259,.F.);
#167=ORIENTED_EDGE('',*,*,#262,.F.);
#168=ORIENTED_EDGE('',*,*,#256,.T.);
#169=ORIENTED_EDGE('',*,*,#180,.T.);
#170=ORIENTED_EDGE('',*,*,#239,.F.);
#171=ORIENTED_EDGE('',*,*,#224,.F.);
#172=ORIENTED_EDGE('',*,*,#258,.F.);
#173=ORIENTED_EDGE('',*,*,#263,.T.);
#174=ORIENTED_EDGE('',*,*,#260,.T.);
#175=ORIENTED_EDGE('',*,*,#230,.T.);
#176=ORIENTED_EDGE('',*,*,#257,.F.);
#177=ORIENTED_EDGE('',*,*,#262,.T.);
#178=ORIENTED_EDGE('',*,*,#261,.T.);
#179=ORIENTED_EDGE('',*,*,#263,.F.);
#180=EDGE_CURVE('',#264,#265,#316,.T.);
#181=EDGE_CURVE('',#266,#264,#317,.T.);
#182=EDGE_CURVE('',#266,#267,#318,.T.);
#183=EDGE_CURVE('',#267,#265,#319,.T.);
#184=EDGE_CURVE('',#268,#269,#320,.T.);
#185=EDGE_CURVE('',#269,#270,#321,.T.);
#186=EDGE_CURVE('',#271,#270,#322,.T.);
#187=EDGE_CURVE('',#268,#271,#323,.T.);
#188=EDGE_CURVE('',#265,#270,#324,.T.);
#189=EDGE_CURVE('',#267,#271,#325,.T.);
#190=EDGE_CURVE('',#272,#273,#326,.T.);
#191=EDGE_CURVE('',#274,#272,#327,.T.);
#192=EDGE_CURVE('',#274,#275,#328,.T.);
#193=EDGE_CURVE('',#275,#273,#329,.T.);
#194=EDGE_CURVE('',#276,#277,#330,.T.);
#195=EDGE_CURVE('',#277,#278,#331,.T.);
#196=EDGE_CURVE('',#279,#278,#332,.T.);
#197=EDGE_CURVE('',#276,#279,#333,.T.);
#198=EDGE_CURVE('',#273,#278,#334,.T.);
#199=EDGE_CURVE('',#275,#279,#335,.T.);
#200=EDGE_CURVE('',#280,#281,#336,.T.);
#201=EDGE_CURVE('',#282,#280,#337,.T.);
#202=EDGE_CURVE('',#282,#283,#338,.T.);
#203=EDGE_CURVE('',#283,#281,#339,.T.);
#204=EDGE_CURVE('',#284,#285,#340,.T.);
#205=EDGE_CURVE('',#285,#286,#341,.T.);
#206=EDGE_CURVE('',#287,#286,#342,.T.);
#207=EDGE_CURVE('',#284,#287,#343,.T.);
#208=EDGE_CURVE('',#281,#286,#344,.T.);
#209=EDGE_CURVE('',#283,#287,#345,.T.);
#210=EDGE_CURVE('',#288,#289,#346,.T.);
#211=EDGE_CURVE('',#290,#289,#347,.T.);
#212=EDGE_CURVE('',#291,#290,#348,.T.);
#213=EDGE_CURVE('',#291,#288,#349,.T.);
#214=EDGE_CURVE('',#290,#292,#350,.T.);
#215=EDGE_CURVE('',#293,#292,#351,.T.);
#216=EDGE_CURVE('',#291,#293,#352,.T.);
#217=EDGE_CURVE('',#292,#294,#353,.T.);
#218=EDGE_CURVE('',#295,#294,#354,.T.);
#219=EDGE_CURVE('',#293,#295,#355,.T.);
#220=EDGE_CURVE('',#289,#294,#356,.T.);
#221=EDGE_CURVE('',#288,#295,#357,.T.);
#222=EDGE_CURVE('',#282,#284,#358,.T.);
#223=EDGE_CURVE('',#296,#297,#359,.T.);
#224=EDGE_CURVE('',#296,#298,#360,.T.);
#225=EDGE_CURVE('',#298,#299,#361,.T.);
#226=EDGE_CURVE('',#297,#299,#362,.T.);
#227=EDGE_CURVE('',#299,#300,#363,.T.);
#228=EDGE_CURVE('',#301,#300,#364,.T.);
#229=EDGE_CURVE('',#297,#301,#365,.T.);
#230=EDGE_CURVE('',#302,#303,#366,.T.);
#231=EDGE_CURVE('',#302,#301,#367,.T.);
#232=EDGE_CURVE('',#303,#300,#368,.T.);
#233=EDGE_CURVE('',#280,#274,#369,.T.);
#234=EDGE_CURVE('',#272,#266,#370,.T.);
#235=EDGE_CURVE('',#264,#296,#371,.T.);
#236=EDGE_CURVE('',#269,#302,#372,.T.);
#237=EDGE_CURVE('',#277,#268,#373,.T.);
#238=EDGE_CURVE('',#285,#276,#374,.T.);
#239=EDGE_CURVE('',#298,#303,#375,.T.);
#240=EDGE_CURVE('',#304,#280,#376,.T.);
#241=EDGE_CURVE('',#304,#305,#377,.T.);
#242=EDGE_CURVE('',#305,#274,#378,.T.);
#243=EDGE_CURVE('',#306,#285,#379,.T.);
#244=EDGE_CURVE('',#307,#276,#380,.T.);
#245=EDGE_CURVE('',#306,#307,#381,.T.);
#246=EDGE_CURVE('',#304,#306,#382,.T.);
#247=EDGE_CURVE('',#305,#307,#383,.T.);
#248=EDGE_CURVE('',#308,#272,#384,.T.);
#249=EDGE_CURVE('',#308,#309,#385,.T.);
#250=EDGE_CURVE('',#309,#266,#386,.T.);
#251=EDGE_CURVE('',#310,#277,#387,.T.);
#252=EDGE_CURVE('',#311,#268,#388,.T.);
#253=EDGE_CURVE('',#310,#311,#389,.T.);
#254=EDGE_CURVE('',#309,#311,#390,.T.);
#255=EDGE_CURVE('',#308,#310,#391,.T.);
#256=EDGE_CURVE('',#312,#264,#392,.T.);
#257=EDGE_CURVE('',#312,#313,#393,.T.);
#258=EDGE_CURVE('',#313,#296,#394,.T.);
#259=EDGE_CURVE('',#314,#269,#395,.T.);
#260=EDGE_CURVE('',#315,#302,#396,.T.);
#261=EDGE_CURVE('',#314,#315,#397,.T.);
#262=EDGE_CURVE('',#312,#314,#398,.T.);
#263=EDGE_CURVE('',#313,#315,#399,.T.);
#264=VERTEX_POINT('',#833);
#265=VERTEX_POINT('',#834);
#266=VERTEX_POINT('',#836);
#267=VERTEX_POINT('',#838);
#268=VERTEX_POINT('',#842);
#269=VERTEX_POINT('',#843);
#270=VERTEX_POINT('',#845);
#271=VERTEX_POINT('',#847);
#272=VERTEX_POINT('',#854);
#273=VERTEX_POINT('',#855);
#274=VERTEX_POINT('',#857);
#275=VERTEX_POINT('',#859);
#276=VERTEX_POINT('',#863);
#277=VERTEX_POINT('',#864);
#278=VERTEX_POINT('',#866);
#279=VERTEX_POINT('',#868);
#280=VERTEX_POINT('',#875);
#281=VERTEX_POINT('',#876);
#282=VERTEX_POINT('',#878);
#283=VERTEX_POINT('',#880);
#284=VERTEX_POINT('',#884);
#285=VERTEX_POINT('',#885);
#286=VERTEX_POINT('',#887);
#287=VERTEX_POINT('',#889);
#288=VERTEX_POINT('',#896);
#289=VERTEX_POINT('',#897);
#290=VERTEX_POINT('',#899);
#291=VERTEX_POINT('',#901);
#292=VERTEX_POINT('',#905);
#293=VERTEX_POINT('',#907);
#294=VERTEX_POINT('',#911);
#295=VERTEX_POINT('',#913);
#296=VERTEX_POINT('',#923);
#297=VERTEX_POINT('',#924);
#298=VERTEX_POINT('',#926);
#299=VERTEX_POINT('',#928);
#300=VERTEX_POINT('',#932);
#301=VERTEX_POINT('',#934);
#302=VERTEX_POINT('',#938);
#303=VERTEX_POINT('',#939);
#304=VERTEX_POINT('',#953);
#305=VERTEX_POINT('',#955);
#306=VERTEX_POINT('',#959);
#307=VERTEX_POINT('',#961);
#308=VERTEX_POINT('',#970);
#309=VERTEX_POINT('',#972);
#310=VERTEX_POINT('',#976);
#311=VERTEX_POINT('',#978);
#312=VERTEX_POINT('',#987);
#313=VERTEX_POINT('',#989);
#314=VERTEX_POINT('',#993);
#315=VERTEX_POINT('',#995);
#316=LINE('',#832,#400);
#317=LINE('',#835,#401);
#318=LINE('',#837,#402);
#319=LINE('',#839,#403);
#320=LINE('',#841,#404);
#321=LINE('',#844,#405);
#322=LINE('',#846,#406);
#323=LINE('',#848,#407);
#324=LINE('',#850,#408);
#325=LINE('',#851,#409);
#326=LINE('',#853,#410);
#327=LINE('',#856,#411);
#328=LINE('',#858,#412);
#329=LINE('',#860,#413);
#330=LINE('',#862,#414);
#331=LINE('',#865,#415);
#332=LINE('',#867,#416);
#333=LINE('',#869,#417);
#334=LINE('',#871,#418);
#335=LINE('',#872,#419);
#336=LINE('',#874,#420);
#337=LINE('',#877,#421);
#338=LINE('',#879,#422);
#339=LINE('',#881,#423);
#340=LINE('',#883,#424);
#341=LINE('',#886,#425);
#342=LINE('',#888,#426);
#343=LINE('',#890,#427);
#344=LINE('',#892,#428);
#345=LINE('',#893,#429);
#346=LINE('',#895,#430);
#347=LINE('',#898,#431);
#348=LINE('',#900,#432);
#349=LINE('',#902,#433);
#350=LINE('',#904,#434);
#351=LINE('',#906,#435);
#352=LINE('',#908,#436);
#353=LINE('',#910,#437);
#354=LINE('',#912,#438);
#355=LINE('',#914,#439);
#356=LINE('',#916,#440);
#357=LINE('',#917,#441);
#358=LINE('',#920,#442);
#359=LINE('',#922,#443);
#360=LINE('',#925,#444);
#361=LINE('',#927,#445);
#362=LINE('',#929,#446);
#363=LINE('',#931,#447);
#364=LINE('',#933,#448);
#365=LINE('',#935,#449);
#366=LINE('',#937,#450);
#367=LINE('',#940,#451);
#368=LINE('',#941,#452);
#369=LINE('',#943,#453);
#370=LINE('',#944,#454);
#371=LINE('',#945,#455);
#372=LINE('',#946,#456);
#373=LINE('',#947,#457);
#374=LINE('',#948,#458);
#375=LINE('',#950,#459);
#376=LINE('',#952,#460);
#377=LINE('',#954,#461);
#378=LINE('',#956,#462);
#379=LINE('',#958,#463);
#380=LINE('',#960,#464);
#381=LINE('',#962,#465);
#382=LINE('',#964,#466);
#383=LINE('',#966,#467);
#384=LINE('',#969,#468);
#385=LINE('',#971,#469);
#386=LINE('',#973,#470);
#387=LINE('',#975,#471);
#388=LINE('',#977,#472);
#389=LINE('',#979,#473);
#390=LINE('',#981,#474);
#391=LINE('',#983,#475);
#392=LINE('',#986,#476);
#393=LINE('',#988,#477);
#394=LINE('',#990,#478);
#395=LINE('',#992,#479);
#396=LINE('',#994,#480);
#397=LINE('',#996,#481);
#398=LINE('',#998,#482);
#399=LINE('',#1000,#483);
#400=VECTOR('',#678,1.);
#401=VECTOR('',#679,1.);
#402=VECTOR('',#680,1.);
#403=VECTOR('',#681,1.);
#404=VECTOR('',#684,1.);
#405=VECTOR('',#685,1.);
#406=VECTOR('',#686,1.);
#407=VECTOR('',#687,1.);
#408=VECTOR('',#690,1.);
#409=VECTOR('',#691,1.);
#410=VECTOR('',#694,1.);
#411=VECTOR('',#695,1.);
#412=VECTOR('',#696,1.);
#413=VECTOR('',#697,1.);
#414=VECTOR('',#700,1.);
#415=VECTOR('',#701,1.);
#416=VECTOR('',#702,1.);
#417=VECTOR('',#703,1.);
#418=VECTOR('',#706,1.);
#419=VECTOR('',#707,1.);
#420=VECTOR('',#710,1.);
#421=VECTOR('',#711,1.);
#422=VECTOR('',#712,1.);
#423=VECTOR('',#713,1.);
#424=VECTOR('',#716,1.);
#425=VECTOR('',#717,1.);
#426=VECTOR('',#718,1.);
#427=VECTOR('',#719,1.);
#428=VECTOR('',#722,1.);
#429=VECTOR('',#723,1.);
#430=VECTOR('',#726,1.);
#431=VECTOR('',#727,1.);
#432=VECTOR('',#728,1.);
#433=VECTOR('',#729,1.);
#434=VECTOR('',#732,1.);
#435=VECTOR('',#733,1.);
#436=VECTOR('',#734,1.);
#437=VECTOR('',#737,1.);
#438=VECTOR('',#738,1.);
#439=VECTOR('',#739,1.);
#440=VECTOR('',#742,1.);
#441=VECTOR('',#743,1.);
#442=VECTOR('',#748,1.);
#443=VECTOR('',#751,1.);
#444=VECTOR('',#752,1.);
#445=VECTOR('',#753,1.);
#446=VECTOR('',#754,1.);
#447=VECTOR('',#757,1.);
#448=VECTOR('',#758,1.);
#449=VECTOR('',#759,1.);
#450=VECTOR('',#762,1.);
#451=VECTOR('',#763,1.);
#452=VECTOR('',#764,1.);
#453=VECTOR('',#767,1.);
#454=VECTOR('',#768,1.);
#455=VECTOR('',#769,1.);
#456=VECTOR('',#770,1.);
#457=VECTOR('',#771,1.);
#458=VECTOR('',#772,1.);
#459=VECTOR('',#775,1.);
#460=VECTOR('',#778,1.);
#461=VECTOR('',#779,1.);
#462=VECTOR('',#780,1.);
#463=VECTOR('',#783,1.);
#464=VECTOR('',#784,1.);
#465=VECTOR('',#785,1.);
#466=VECTOR('',#788,1.);
#467=VECTOR('',#791,1.);
#468=VECTOR('',#796,1.);
#469=VECTOR('',#797,1.);
#470=VECTOR('',#798,1.);
#471=VECTOR('',#801,1.);
#472=VECTOR('',#802,1.);
#473=VECTOR('',#803,1.);
#474=VECTOR('',#806,1.);
#475=VECTOR('',#809,1.);
#476=VECTOR('',#814,1.);
#477=VECTOR('',#815,1.);
#478=VECTOR('',#816,1.);
#479=VECTOR('',#819,1.);
#480=VECTOR('',#820,1.);
#481=VECTOR('',#821,1.);
#482=VECTOR('',#824,1.);
#483=VECTOR('',#827,1.);
#484=EDGE_LOOP('',(#12,#13,#14,#15));
#485=EDGE_LOOP('',(#16,#17,#18,#19));
#486=EDGE_LOOP('',(#20,#21,#22,#23));
#487=EDGE_LOOP('',(#24,#25,#26,#27));
#488=EDGE_LOOP('',(#28,#29,#30,#31));
#489=EDGE_LOOP('',(#32,#33,#34,#35));
#490=EDGE_LOOP('',(#36,#37,#38,#39));
#491=EDGE_LOOP('',(#40,#41,#42,#43));
#492=EDGE_LOOP('',(#44,#45,#46,#47));
#493=EDGE_LOOP('',(#48,#49,#50,#51));
#494=EDGE_LOOP('',(#52,#53,#54,#55));
#495=EDGE_LOOP('',(#56,#57,#58,#59));
#496=EDGE_LOOP('',(#60,#61,#62,#63));
#497=EDGE_LOOP('',(#64,#65,#66,#67));
#498=EDGE_LOOP('',(#68,#69,#70,#71));
#499=EDGE_LOOP('',(#72,#73,#74,#75));
#500=EDGE_LOOP('',(#76,#77,#78,#79));
#501=EDGE_LOOP('',(#80,#81,#82,#83));
#502=EDGE_LOOP('',(#84,#85,#86,#87,#88,#89,#90,#91,#92,#93,#94,#95,#96,#97,#98,#99));
#503=EDGE_LOOP('',(#100,#101,#102,#103));
#504=EDGE_LOOP('',(#104,#105,#106,#107));
#505=EDGE_LOOP('',(#108,#109,#110,#111));
#506=EDGE_LOOP('',(#112,#113,#114,#115));
#507=EDGE_LOOP('',(#116,#117,#118,#119,#120,#121));
#508=EDGE_LOOP('',(#122,#123,#124,#125,#126,#127));
#509=EDGE_LOOP('',(#128,#129,#130,#131));
#510=EDGE_LOOP('',(#132,#133,#134,#135));
#511=EDGE_LOOP('',(#136,#137,#138,#139));
#512=EDGE_LOOP('',(#140,#141,#142,#143,#144,#145));
#513=EDGE_LOOP('',(#146,#147,#148,#149,#150,#151));
#514=EDGE_LOOP('',(#152,#153,#154,#155));
#515=EDGE_LOOP('',(#156,#157,#158,#159));
#516=EDGE_LOOP('',(#160,#161,#162,#163));
#517=EDGE_LOOP('',(#164,#165,#166,#167,#168,#169));
#518=EDGE_LOOP('',(#170,#171,#172,#173,#174,#175));
#519=EDGE_LOOP('',(#176,#177,#178,#179));
#520=FACE_BOUND('',#484,.T.);
#521=FACE_BOUND('',#485,.T.);
#522=FACE_BOUND('',#486,.T.);
#523=FACE_BOUND('',#487,.T.);
#524=FACE_BOUND('',#488,.T.);
#525=FACE_BOUND('',#489,.T.);
#526=FACE_BOUND('',#490,.T.);
#527=FACE_BOUND('',#491,.T.);
#528=FACE_BOUND('',#492,.T.);
#529=FACE_BOUND('',#493,.T.);
#530=FACE_BOUND('',#494,.T.);
#531=FACE_BOUND('',#495,.T.);
#532=FACE_BOUND('',#496,.T.);
#533=FACE_BOUND('',#497,.T.);
#534=FACE_BOUND('',#498,.T.);
#535=FACE_BOUND('',#499,.T.);
#536=FACE_BOUND('',#500,.T.);
#537=FACE_BOUND('',#501,.T.);
#538=FACE_BOUND('',#502,.T.);
#539=FACE_BOUND('',#503,.T.);
#540=FACE_BOUND('',#504,.T.);
#541=FACE_BOUND('',#505,.T.);
#542=FACE_BOUND('',#506,.T.);
#543=FACE_BOUND('',#507,.T.);
#544=FACE_BOUND('',#508,.T.);
#545=FACE_BOUND('',#509,.T.);
#546=FACE_BOUND('',#510,.T.);
#547=FACE_BOUND('',#511,.T.);
#548=FACE_BOUND('',#512,.T.);
#549=FACE_BOUND('',#513,.T.);
#550=FACE_BOUND('',#514,.T.);
#551=FACE_BOUND('',#515,.T.);
#552=FACE_BOUND('',#516,.T.);
#553=FACE_BOUND('',#517,.T.);
#554=FACE_BOUND('',#518,.T.);
#555=FACE_BOUND('',#519,.T.);
#556=PLANE('',#639);
#557=PLANE('',#640);
#558=PLANE('',#641);
#559=PLANE('',#642);
#560=PLANE('',#643);
#561=PLANE('',#644);
#562=PLANE('',#645);
#563=PLANE('',#646);
#564=PLANE('',#647);
#565=PLANE('',#648);
#566=PLANE('',#649);
#567=PLANE('',#650);
#568=PLANE('',#651);
#569=PLANE('',#652);
#570=PLANE('',#653);
#571=PLANE('',#654);
#572=PLANE('',#655);
#573=PLANE('',#656);
#574=PLANE('',#657);
#575=PLANE('',#658);
#576=PLANE('',#659);
#577=PLANE('',#660);
#578=PLANE('',#661);
#579=PLANE('',#662);
#580=PLANE('',#663);
#581=PLANE('',#664);
#582=PLANE('',#665);
#583=PLANE('',#666);
#584=PLANE('',#667);
#585=PLANE('',#668);
#586=PLANE('',#669);
#587=PLANE('',#670);
#588=PLANE('',#671);
#589=PLANE('',#672);
#590=PLANE('',#673);
#591=ADVANCED_FACE('',(#520),#556,.F.);
#592=ADVANCED_FACE('',(#521),#557,.T.);
#593=ADVANCED_FACE('',(#522),#558,.F.);
#594=ADVANCED_FACE('',(#523),#559,.F.);
#595=ADVANCED_FACE('',(#524),#560,.T.);
#596=ADVANCED_FACE('',(#525),#561,.F.);
#597=ADVANCED_FACE('',(#526),#562,.F.);
#598=ADVANCED_FACE('',(#527),#563,.T.);
#599=ADVANCED_FACE('',(#528),#564,.F.);
#600=ADVANCED_FACE('',(#529),#565,.T.);
#601=ADVANCED_FACE('',(#530),#566,.F.);
#602=ADVANCED_FACE('',(#531),#567,.F.);
#603=ADVANCED_FACE('',(#532),#568,.T.);
#604=ADVANCED_FACE('',(#533),#569,.T.);
#605=ADVANCED_FACE('',(#534),#570,.T.);
#606=ADVANCED_FACE('',(#535),#571,.F.);
#607=ADVANCED_FACE('',(#536),#572,.F.);
#608=ADVANCED_FACE('',(#537),#573,.T.);
#609=ADVANCED_FACE('',(#538,#539),#574,.T.);
#610=ADVANCED_FACE('',(#540),#575,.F.);
#611=ADVANCED_FACE('',(#541),#576,.T.);
#612=ADVANCED_FACE('',(#542),#577,.F.);
#613=ADVANCED_FACE('',(#543),#578,.F.);
#614=ADVANCED_FACE('',(#544),#579,.T.);
#615=ADVANCED_FACE('',(#545),#580,.T.);
#616=ADVANCED_FACE('',(#546),#581,.T.);
#617=ADVANCED_FACE('',(#547),#582,.F.);
#618=ADVANCED_FACE('',(#548),#583,.T.);
#619=ADVANCED_FACE('',(#549),#584,.F.);
#620=ADVANCED_FACE('',(#550),#585,.T.);
#621=ADVANCED_FACE('',(#551),#586,.T.);
#622=ADVANCED_FACE('',(#552),#587,.F.);
#623=ADVANCED_FACE('',(#553),#588,.F.);
#624=ADVANCED_FACE('',(#554),#589,.T.);
#625=ADVANCED_FACE('',(#555),#590,.T.);
#626=CLOSED_SHELL('',(#591,#592,#593,#594,#595,#596,#597,#598,#599,#600,#601,#602,#603,#604,#605,#606,#607,#608,#609,#610,#611,#612,#613,#614,#615,#616,#617,#618,#619,#620,#621,#622,#623,#624,#625));
#627=STYLED_ITEM('',(#628),#635);
#628=PRESENTATION_STYLE_ASSIGNMENT((#629));
#629=SURFACE_STYLE_USAGE(.BOTH.,#630);
#630=SURFACE_SIDE_STYLE('',(#631));
#631=SURFACE_STYLE_FILL_AREA(#632);
#632=FILL_AREA_STYLE('',(#633));
#633=FILL_AREA_STYLE_COLOUR('',#634);
#634=COLOUR_RGB('',0.615686274509804,0.811764705882353,0.929411764705882);
#635=MANIFOLD_SOLID_BREP('deckel',#626);
#636=SHAPE_DEFINITION_REPRESENTATION(#1008,#637);
#637=SHAPE_REPRESENTATION('deckel',(#638),#1003);
#638=AXIS2_PLACEMENT_3D('',#830,#674,#675);
#639=AXIS2_PLACEMENT_3D('',#831,#676,#677);
#640=AXIS2_PLACEMENT_3D('',#840,#682,#683);
#641=AXIS2_PLACEMENT_3D('',#849,#688,#689);
#642=AXIS2_PLACEMENT_3D('',#852,#692,#693);
#643=AXIS2_PLACEMENT_3D('',#861,#698,#699);
#644=AXIS2_PLACEMENT_3D('',#870,#704,#705);
#645=AXIS2_PLACEMENT_3D('',#873,#708,#709);
#646=AXIS2_PLACEMENT_3D('',#882,#714,#715);
#647=AXIS2_PLACEMENT_3D('',#891,#720,#721);
#648=AXIS2_PLACEMENT_3D('',#894,#724,#725);
#649=AXIS2_PLACEMENT_3D('',#903,#730,#731);
#650=AXIS2_PLACEMENT_3D('',#909,#735,#736);
#651=AXIS2_PLACEMENT_3D('',#915,#740,#741);
#652=AXIS2_PLACEMENT_3D('',#918,#744,#745);
#653=AXIS2_PLACEMENT_3D('',#919,#746,#747);
#654=AXIS2_PLACEMENT_3D('',#921,#749,#750);
#655=AXIS2_PLACEMENT_3D('',#930,#755,#756);
#656=AXIS2_PLACEMENT_3D('',#936,#760,#761);
#657=AXIS2_PLACEMENT_3D('',#942,#765,#766);
#658=AXIS2_PLACEMENT_3D('',#949,#773,#774);
#659=AXIS2_PLACEMENT_3D('',#951,#776,#777);
#660=AXIS2_PLACEMENT_3D('',#957,#781,#782);
#661=AXIS2_PLACEMENT_3D('',#963,#786,#787);
#662=AXIS2_PLACEMENT_3D('',#965,#789,#790);
#663=AXIS2_PLACEMENT_3D('',#967,#792,#793);
#664=AXIS2_PLACEMENT_3D('',#968,#794,#795);
#665=AXIS2_PLACEMENT_3D('',#974,#799,#800);
#666=AXIS2_PLACEMENT_3D('',#980,#804,#805);
#667=AXIS2_PLACEMENT_3D('',#982,#807,#808);
#668=AXIS2_PLACEMENT_3D('',#984,#810,#811);
#669=AXIS2_PLACEMENT_3D('',#985,#812,#813);
#670=AXIS2_PLACEMENT_3D('',#991,#817,#818);
#671=AXIS2_PLACEMENT_3D('',#997,#822,#823);
#672=AXIS2_PLACEMENT_3D('',#999,#825,#826);
#673=AXIS2_PLACEMENT_3D('',#1001,#828,#829);
#674=DIRECTION('',(0.,0.,1.));
#675=DIRECTION('',(1.,0.,0.));
#676=DIRECTION('',(0.,-1.,0.));
#677=DIRECTION('',(0.,0.,-1.));
#678=DIRECTION('',(0.,0.,1.));
#679=DIRECTION('',(1.,0.,0.));
#680=DIRECTION('',(0.,0.,1.));
#681=DIRECTION('',(1.,0.,0.));
#682=DIRECTION('',(0.,-1.,0.));
#683=DIRECTION('',(0.,0.,-1.));
#684=DIRECTION('',(1.,0.,0.));
#685=DIRECTION('',(0.,0.,1.));
#686=DIRECTION('',(1.,0.,0.));
#687=DIRECTION('',(0.,0.,1.));
#688=DIRECTION('',(0.,0.,1.));
#689=DIRECTION('',(1.,0.,0.));
#690=DIRECTION('',(1.21468602256582E-16,1.,0.));
#691=DIRECTION('',(6.12087878558556E-17,1.,0.));
#692=DIRECTION('',(0.,-1.,0.));
#693=DIRECTION('',(0.,0.,-1.));
#694=DIRECTION('',(0.,0.,1.));
#695=DIRECTION('',(1.,0.,0.));
#696=DIRECTION('',(0.,0.,1.));
#697=DIRECTION('',(1.,0.,0.));
#698=DIRECTION('',(0.,-1.,0.));
#699=DIRECTION('',(0.,0.,-1.));
#700=DIRECTION('',(1.,0.,0.));
#701=DIRECTION('',(0.,0.,1.));
#702=DIRECTION('',(1.,0.,0.));
#703=DIRECTION('',(0.,0.,1.));
#704=DIRECTION('',(0.,0.,1.));
#705=DIRECTION('',(1.,0.,0.));
#706=DIRECTION('',(6.12087878558556E-17,1.,0.));
#707=DIRECTION('',(1.21468602256582E-16,1.,0.));
#708=DIRECTION('',(0.,-1.,0.));
#709=DIRECTION('',(0.,0.,-1.));
#710=DIRECTION('',(0.,0.,1.));
#711=DIRECTION('',(1.,0.,0.));
#712=DIRECTION('',(0.,0.,1.));
#713=DIRECTION('',(1.,0.,0.));
#714=DIRECTION('',(0.,-1.,0.));
#715=DIRECTION('',(0.,0.,-1.));
#716=DIRECTION('',(1.,0.,0.));
#717=DIRECTION('',(0.,0.,1.));
#718=DIRECTION('',(1.,0.,0.));
#719=DIRECTION('',(0.,0.,1.));
#720=DIRECTION('',(0.,0.,1.));
#721=DIRECTION('',(1.,0.,0.));
#722=DIRECTION('',(1.21468602256582E-16,1.,0.));
#723=DIRECTION('',(0.,1.,0.));
#724=DIRECTION('',(0.,1.,0.));
#725=DIRECTION('',(0.,0.,1.));
#726=DIRECTION('',(0.,0.,-1.));
#727=DIRECTION('',(1.,0.,0.));
#728=DIRECTION('',(0.,0.,-1.));
#729=DIRECTION('',(1.,0.,0.));
#730=DIRECTION('',(1.,0.,0.));
#731=DIRECTION('',(0.,0.,-1.));
#732=DIRECTION('',(0.,-1.,0.));
#733=DIRECTION('',(0.,0.,-1.));
#734=DIRECTION('',(0.,-1.,0.));
#735=DIRECTION('',(0.,1.,0.));
#736=DIRECTION('',(0.,0.,1.));
#737=DIRECTION('',(1.,0.,0.));
#738=DIRECTION('',(0.,0.,-1.));
#739=DIRECTION('',(1.,0.,0.));
#740=DIRECTION('',(1.,0.,0.));
#741=DIRECTION('',(0.,0.,-1.));
#742=DIRECTION('',(0.,-1.,0.));
#743=DIRECTION('',(0.,-1.,0.));
#744=DIRECTION('',(0.,0.,1.));
#745=DIRECTION('',(1.,0.,0.));
#746=DIRECTION('',(1.,0.,0.));
#747=DIRECTION('',(0.,0.,-1.));
#748=DIRECTION('',(0.,1.,0.));
#749=DIRECTION('',(0.,-1.,0.));
#750=DIRECTION('',(0.,0.,-1.));
#751=DIRECTION('',(1.,0.,0.));
#752=DIRECTION('',(0.,0.,1.));
#753=DIRECTION('',(1.,0.,0.));
#754=DIRECTION('',(0.,0.,1.));
#755=DIRECTION('',(1.,0.,0.));
#756=DIRECTION('',(0.,0.,-1.));
#757=DIRECTION('',(0.,1.,0.));
#758=DIRECTION('',(0.,0.,1.));
#759=DIRECTION('',(0.,1.,0.));
#760=DIRECTION('',(0.,-1.,0.));
#761=DIRECTION('',(0.,0.,-1.));
#762=DIRECTION('',(0.,0.,1.));
#763=DIRECTION('',(1.,0.,0.));
#764=DIRECTION('',(1.,0.,0.));
#765=DIRECTION('',(0.,0.,-1.));
#766=DIRECTION('',(1.,0.,0.));
#767=DIRECTION('',(1.,0.,0.));
#768=DIRECTION('',(1.,0.,0.));
#769=DIRECTION('',(1.,0.,0.));
#770=DIRECTION('',(1.,0.,0.));
#771=DIRECTION('',(1.,0.,0.));
#772=DIRECTION('',(1.,0.,0.));
#773=DIRECTION('',(0.,0.,1.));
#774=DIRECTION('',(1.,0.,0.));
#775=DIRECTION('',(1.21468602256582E-16,1.,0.));
#776=DIRECTION('',(0.,-1.,0.));
#777=DIRECTION('',(0.,0.,-1.));
#778=DIRECTION('',(0.,0.,1.));
#779=DIRECTION('',(1.,0.,0.));
#780=DIRECTION('',(0.,0.,1.));
#781=DIRECTION('',(0.,-1.,0.));
#782=DIRECTION('',(0.,0.,-1.));
#783=DIRECTION('',(0.,0.,1.));
#784=DIRECTION('',(0.,0.,1.));
#785=DIRECTION('',(1.,0.,0.));
#786=DIRECTION('',(1.,-1.21468602256582E-16,0.));
#787=DIRECTION('',(1.21468602256582E-16,1.,0.));
#788=DIRECTION('',(1.21468602256582E-16,1.,0.));
#789=DIRECTION('',(1.,-1.21468602256582E-16,0.));
#790=DIRECTION('',(1.21468602256582E-16,1.,0.));
#791=DIRECTION('',(1.21468602256582E-16,1.,0.));
#792=DIRECTION('',(0.,0.,-1.));
#793=DIRECTION('',(1.,0.,0.));
#794=DIRECTION('',(0.,-1.,0.));
#795=DIRECTION('',(0.,0.,-1.));
#796=DIRECTION('',(0.,0.,1.));
#797=DIRECTION('',(1.,0.,0.));
#798=DIRECTION('',(0.,0.,1.));
#799=DIRECTION('',(0.,-1.,0.));
#800=DIRECTION('',(0.,0.,-1.));
#801=DIRECTION('',(0.,0.,1.));
#802=DIRECTION('',(0.,0.,1.));
#803=DIRECTION('',(1.,0.,0.));
#804=DIRECTION('',(1.,-6.12087878558556E-17,0.));
#805=DIRECTION('',(6.12087878558556E-17,1.,0.));
#806=DIRECTION('',(6.12087878558556E-17,1.,0.));
#807=DIRECTION('',(1.,-6.12087878558556E-17,0.));
#808=DIRECTION('',(6.12087878558556E-17,1.,0.));
#809=DIRECTION('',(6.12087878558556E-17,1.,0.));
#810=DIRECTION('',(0.,0.,-1.));
#811=DIRECTION('',(1.,0.,0.));
#812=DIRECTION('',(0.,-1.,0.));
#813=DIRECTION('',(0.,0.,-1.));
#814=DIRECTION('',(0.,0.,1.));
#815=DIRECTION('',(1.,0.,0.));
#816=DIRECTION('',(0.,0.,1.));
#817=DIRECTION('',(0.,-1.,0.));
#818=DIRECTION('',(0.,0.,-1.));
#819=DIRECTION('',(0.,0.,1.));
#820=DIRECTION('',(0.,0.,1.));
#821=DIRECTION('',(1.,0.,0.));
#822=DIRECTION('',(1.,-1.21468602256582E-16,0.));
#823=DIRECTION('',(1.21468602256582E-16,1.,0.));
#824=DIRECTION('',(1.21468602256582E-16,1.,0.));
#825=DIRECTION('',(1.,-1.21468602256582E-16,0.));
#826=DIRECTION('',(1.21468602256582E-16,1.,0.));
#827=DIRECTION('',(1.21468602256582E-16,1.,0.));
#828=DIRECTION('',(0.,0.,-1.));
#829=DIRECTION('',(1.,0.,0.));
#830=CARTESIAN_POINT('',(0.,0.,0.));
#831=CARTESIAN_POINT('',(-5.55111512312578E-17,-0.2285,-0.025));
#832=CARTESIAN_POINT('',(0.1975,-0.2285,-0.17));
#833=CARTESIAN_POINT('',(0.1975,-0.2285,-0.025));
#834=CARTESIAN_POINT('',(0.1975,-0.2285,0.));
#835=CARTESIAN_POINT('',(-5.55111512312578E-17,-0.2285,-0.025));
#836=CARTESIAN_POINT('',(-0.000500000000000084,-0.2285,-0.025));
#837=CARTESIAN_POINT('',(-0.000500000000000098,-0.2285,-0.17));
#838=CARTESIAN_POINT('',(-0.000500000000000084,-0.2285,0.));
#839=CARTESIAN_POINT('',(-5.55111512312578E-17,-0.2285,0.));
#840=CARTESIAN_POINT('',(-5.55111512312578E-17,0.2285,-0.025));
#841=CARTESIAN_POINT('',(-5.55111512312578E-17,0.2285,-0.025));
#842=CARTESIAN_POINT('',(-0.000500000000000084,0.2285,-0.025));
#843=CARTESIAN_POINT('',(0.1975,0.2285,-0.025));
#844=CARTESIAN_POINT('',(0.1975,0.2285,-0.17));
#845=CARTESIAN_POINT('',(0.1975,0.2285,0.));
#846=CARTESIAN_POINT('',(-5.55111512312578E-17,0.2285,0.));
#847=CARTESIAN_POINT('',(-0.000500000000000084,0.2285,0.));
#848=CARTESIAN_POINT('',(-0.00050000000000007,0.2285,-0.17));
#849=CARTESIAN_POINT('',(-5.55111512312578E-17,0.,0.));
#850=CARTESIAN_POINT('',(0.1975,0.,0.));
#851=CARTESIAN_POINT('',(-0.000500000000000084,0.,0.));
#852=CARTESIAN_POINT('',(-5.55111512312578E-17,-0.2285,-0.025));
#853=CARTESIAN_POINT('',(-0.0015000000000001,-0.2285,-0.17));
#854=CARTESIAN_POINT('',(-0.00150000000000009,-0.2285,-0.025));
#855=CARTESIAN_POINT('',(-0.00150000000000009,-0.2285,0.));
#856=CARTESIAN_POINT('',(-5.55111512312578E-17,-0.2285,-0.025));
#857=CARTESIAN_POINT('',(-0.2005,-0.2285,-0.025));
#858=CARTESIAN_POINT('',(-0.2005,-0.2285,-0.17));
#859=CARTESIAN_POINT('',(-0.2005,-0.2285,0.));
#860=CARTESIAN_POINT('',(-5.55111512312578E-17,-0.2285,0.));
#861=CARTESIAN_POINT('',(-5.55111512312578E-17,0.2285,-0.025));
#862=CARTESIAN_POINT('',(-5.55111512312578E-17,0.2285,-0.025));
#863=CARTESIAN_POINT('',(-0.2005,0.2285,-0.025));
#864=CARTESIAN_POINT('',(-0.00150000000000009,0.2285,-0.025));
#865=CARTESIAN_POINT('',(-0.00150000000000007,0.2285,-0.17));
#866=CARTESIAN_POINT('',(-0.00150000000000007,0.2285,0.));
#867=CARTESIAN_POINT('',(-5.55111512312578E-17,0.2285,0.));
#868=CARTESIAN_POINT('',(-0.2005,0.2285,0.));
#869=CARTESIAN_POINT('',(-0.2005,0.2285,-0.17));
#870=CARTESIAN_POINT('',(-5.55111512312578E-17,0.,0.));
#871=CARTESIAN_POINT('',(-0.00150000000000009,-2.77555756156289E-17,0.));
#872=CARTESIAN_POINT('',(-0.2005,0.,0.));
#873=CARTESIAN_POINT('',(-5.55111512312578E-17,-0.2285,-0.025));
#874=CARTESIAN_POINT('',(-0.2015,-0.2285,-0.17));
#875=CARTESIAN_POINT('',(-0.2015,-0.2285,-0.025));
#876=CARTESIAN_POINT('',(-0.2015,-0.2285,0.));
#877=CARTESIAN_POINT('',(-5.55111512312578E-17,-0.2285,-0.025));
#878=CARTESIAN_POINT('',(-0.3035,-0.2285,-0.025));
#879=CARTESIAN_POINT('',(-0.3035,-0.2285,-0.025));
#880=CARTESIAN_POINT('',(-0.3035,-0.2285,0.));
#881=CARTESIAN_POINT('',(-5.55111512312578E-17,-0.2285,0.));
#882=CARTESIAN_POINT('',(-5.55111512312578E-17,0.2285,-0.025));
#883=CARTESIAN_POINT('',(-5.55111512312578E-17,0.2285,-0.025));
#884=CARTESIAN_POINT('',(-0.3035,0.2285,-0.025));
#885=CARTESIAN_POINT('',(-0.2015,0.2285,-0.025));
#886=CARTESIAN_POINT('',(-0.2015,0.2285,-0.17));
#887=CARTESIAN_POINT('',(-0.2015,0.2285,0.));
#888=CARTESIAN_POINT('',(-5.55111512312578E-17,0.2285,0.));
#889=CARTESIAN_POINT('',(-0.3035,0.2285,0.));
#890=CARTESIAN_POINT('',(-0.3035,0.2285,-0.025));
#891=CARTESIAN_POINT('',(-5.55111512312578E-17,0.,0.));
#892=CARTESIAN_POINT('',(-0.2015,0.,0.));
#893=CARTESIAN_POINT('',(-0.3035,0.,0.));
#894=CARTESIAN_POINT('',(-5.55111512312578E-17,0.2295,0.001));
#895=CARTESIAN_POINT('',(0.3045,0.2295,0.001));
#896=CARTESIAN_POINT('',(0.3045,0.2295,0.001));
#897=CARTESIAN_POINT('',(0.3045,0.2295,-0.025));
#898=CARTESIAN_POINT('',(-5.55111512312578E-17,0.2295,-0.025));
#899=CARTESIAN_POINT('',(-0.3045,0.2295,-0.025));
#900=CARTESIAN_POINT('',(-0.3045,0.2295,0.001));
#901=CARTESIAN_POINT('',(-0.3045,0.2295,0.001));
#902=CARTESIAN_POINT('',(-5.55111512312578E-17,0.2295,0.001));
#903=CARTESIAN_POINT('',(-0.3045,0.,0.001));
#904=CARTESIAN_POINT('',(-0.3045,0.,-0.025));
#905=CARTESIAN_POINT('',(-0.3045,-0.2295,-0.025));
#906=CARTESIAN_POINT('',(-0.3045,-0.2295,0.001));
#907=CARTESIAN_POINT('',(-0.3045,-0.2295,0.001));
#908=CARTESIAN_POINT('',(-0.3045,0.,0.001));
#909=CARTESIAN_POINT('',(-5.55111512312578E-17,-0.2295,0.001));
#910=CARTESIAN_POINT('',(-5.55111512312578E-17,-0.2295,-0.025));
#911=CARTESIAN_POINT('',(0.3045,-0.2295,-0.025));
#912=CARTESIAN_POINT('',(0.3045,-0.2295,0.001));
#913=CARTESIAN_POINT('',(0.3045,-0.2295,0.001));
#914=CARTESIAN_POINT('',(-5.55111512312578E-17,-0.2295,0.001));
#915=CARTESIAN_POINT('',(0.3045,0.,0.001));
#916=CARTESIAN_POINT('',(0.3045,0.,-0.025));
#917=CARTESIAN_POINT('',(0.3045,0.,0.001));
#918=CARTESIAN_POINT('',(-5.55111512312578E-17,0.,0.001));
#919=CARTESIAN_POINT('',(-0.3035,0.,-0.025));
#920=CARTESIAN_POINT('',(-0.3035,0.,-0.025));
#921=CARTESIAN_POINT('',(-5.55111512312578E-17,-0.2285,-0.025));
#922=CARTESIAN_POINT('',(-5.55111512312578E-17,-0.2285,-0.025));
#923=CARTESIAN_POINT('',(0.1985,-0.2285,-0.025));
#924=CARTESIAN_POINT('',(0.3035,-0.2285,-0.025));
#925=CARTESIAN_POINT('',(0.1985,-0.2285,-0.17));
#926=CARTESIAN_POINT('',(0.1985,-0.2285,0.));
#927=CARTESIAN_POINT('',(-5.55111512312578E-17,-0.2285,0.));
#928=CARTESIAN_POINT('',(0.3035,-0.2285,0.));
#929=CARTESIAN_POINT('',(0.3035,-0.2285,-0.025));
#930=CARTESIAN_POINT('',(0.3035,0.,-0.025));
#931=CARTESIAN_POINT('',(0.3035,0.,0.));
#932=CARTESIAN_POINT('',(0.3035,0.2285,0.));
#933=CARTESIAN_POINT('',(0.3035,0.2285,-0.025));
#934=CARTESIAN_POINT('',(0.3035,0.2285,-0.025));
#935=CARTESIAN_POINT('',(0.3035,0.,-0.025));
#936=CARTESIAN_POINT('',(-5.55111512312578E-17,0.2285,-0.025));
#937=CARTESIAN_POINT('',(0.1985,0.2285,-0.17));
#938=CARTESIAN_POINT('',(0.1985,0.2285,-0.025));
#939=CARTESIAN_POINT('',(0.1985,0.2285,0.));
#940=CARTESIAN_POINT('',(-5.55111512312578E-17,0.2285,-0.025));
#941=CARTESIAN_POINT('',(-5.55111512312578E-17,0.2285,0.));
#942=CARTESIAN_POINT('',(-5.55111512312578E-17,0.,-0.025));
#943=CARTESIAN_POINT('',(-5.55111512312578E-17,-0.2285,-0.025));
#944=CARTESIAN_POINT('',(-5.55111512312578E-17,-0.2285,-0.025));
#945=CARTESIAN_POINT('',(-5.55111512312578E-17,-0.2285,-0.025));
#946=CARTESIAN_POINT('',(-5.55111512312578E-17,0.2285,-0.025));
#947=CARTESIAN_POINT('',(-5.55111512312578E-17,0.2285,-0.025));
#948=CARTESIAN_POINT('',(-5.55111512312578E-17,0.2285,-0.025));
#949=CARTESIAN_POINT('',(-5.55111512312578E-17,0.,0.));
#950=CARTESIAN_POINT('',(0.1985,0.,0.));
#951=CARTESIAN_POINT('',(-5.55111512312578E-17,-0.2285,-0.17));
#952=CARTESIAN_POINT('',(-0.2015,-0.2285,-0.17));
#953=CARTESIAN_POINT('',(-0.2015,-0.2285,-0.17));
#954=CARTESIAN_POINT('',(-5.55111512312578E-17,-0.2285,-0.17));
#955=CARTESIAN_POINT('',(-0.2005,-0.2285,-0.17));
#956=CARTESIAN_POINT('',(-0.2005,-0.2285,-0.17));
#957=CARTESIAN_POINT('',(-5.55111512312578E-17,0.2285,-0.17));
#958=CARTESIAN_POINT('',(-0.2015,0.2285,-0.17));
#959=CARTESIAN_POINT('',(-0.2015,0.2285,-0.17));
#960=CARTESIAN_POINT('',(-0.2005,0.2285,-0.17));
#961=CARTESIAN_POINT('',(-0.2005,0.2285,-0.17));
#962=CARTESIAN_POINT('',(-5.55111512312578E-17,0.2285,-0.17));
#963=CARTESIAN_POINT('',(-0.2015,0.,-0.17));
#964=CARTESIAN_POINT('',(-0.2015,0.,-0.17));
#965=CARTESIAN_POINT('',(-0.2005,0.,-0.17));
#966=CARTESIAN_POINT('',(-0.2005,0.,-0.17));
#967=CARTESIAN_POINT('',(-5.55111512312578E-17,0.,-0.17));
#968=CARTESIAN_POINT('',(-5.55111512312578E-17,-0.2285,-0.17));
#969=CARTESIAN_POINT('',(-0.0015000000000001,-0.2285,-0.17));
#970=CARTESIAN_POINT('',(-0.0015000000000001,-0.2285,-0.17));
#971=CARTESIAN_POINT('',(-5.55111512312578E-17,-0.2285,-0.17));
#972=CARTESIAN_POINT('',(-0.000500000000000098,-0.2285,-0.17));
#973=CARTESIAN_POINT('',(-0.000500000000000098,-0.2285,-0.17));
#974=CARTESIAN_POINT('',(-5.55111512312578E-17,0.2285,-0.17));
#975=CARTESIAN_POINT('',(-0.00150000000000007,0.2285,-0.17));
#976=CARTESIAN_POINT('',(-0.00150000000000007,0.2285,-0.17));
#977=CARTESIAN_POINT('',(-0.00050000000000007,0.2285,-0.17));
#978=CARTESIAN_POINT('',(-0.00050000000000007,0.2285,-0.17));
#979=CARTESIAN_POINT('',(-5.55111512312578E-17,0.2285,-0.17));
#980=CARTESIAN_POINT('',(-0.000500000000000084,0.,-0.17));
#981=CARTESIAN_POINT('',(-0.000500000000000084,0.,-0.17));
#982=CARTESIAN_POINT('',(-0.00150000000000009,-2.77555756156289E-17,-0.17));
#983=CARTESIAN_POINT('',(-0.00150000000000009,-2.77555756156289E-17,-0.17));
#984=CARTESIAN_POINT('',(-5.55111512312578E-17,0.,-0.17));
#985=CARTESIAN_POINT('',(-5.55111512312578E-17,-0.2285,-0.17));
#986=CARTESIAN_POINT('',(0.1975,-0.2285,-0.17));
#987=CARTESIAN_POINT('',(0.1975,-0.2285,-0.17));
#988=CARTESIAN_POINT('',(-5.55111512312578E-17,-0.2285,-0.17));
#989=CARTESIAN_POINT('',(0.1985,-0.2285,-0.17));
#990=CARTESIAN_POINT('',(0.1985,-0.2285,-0.17));
#991=CARTESIAN_POINT('',(-5.55111512312578E-17,0.2285,-0.17));
#992=CARTESIAN_POINT('',(0.1975,0.2285,-0.17));
#993=CARTESIAN_POINT('',(0.1975,0.2285,-0.17));
#994=CARTESIAN_POINT('',(0.1985,0.2285,-0.17));
#995=CARTESIAN_POINT('',(0.1985,0.2285,-0.17));
#996=CARTESIAN_POINT('',(-5.55111512312578E-17,0.2285,-0.17));
#997=CARTESIAN_POINT('',(0.1975,0.,-0.17));
#998=CARTESIAN_POINT('',(0.1975,0.,-0.17));
#999=CARTESIAN_POINT('',(0.1985,0.,-0.17));
#1000=CARTESIAN_POINT('',(0.1985,0.,-0.17));
#1001=CARTESIAN_POINT('',(-5.55111512312578E-17,0.,-0.17));
#1002=MECHANICAL_DESIGN_GEOMETRIC_PRESENTATION_REPRESENTATION('',(#627),#1003);
#1003=(
GEOMETRIC_REPRESENTATION_CONTEXT(3)
GLOBAL_UNCERTAINTY_ASSIGNED_CONTEXT((#1004))
GLOBAL_UNIT_ASSIGNED_CONTEXT((#1007,#1006,#1005))
REPRESENTATION_CONTEXT('deckel','TOP_LEVEL_ASSEMBLY_PART')
);
#1004=UNCERTAINTY_MEASURE_WITH_UNIT(LENGTH_MEASURE(1.E-08),#1007,'DISTANCE_ACCURACY_VALUE','Maximum Tolerance applied to model');
#1005=(
NAMED_UNIT(*)
SI_UNIT($,.STERADIAN.)
SOLID_ANGLE_UNIT()
);
#1006=(
NAMED_UNIT(*)
PLANE_ANGLE_UNIT()
SI_UNIT($,.RADIAN.)
);
#1007=(
LENGTH_UNIT()
NAMED_UNIT(*)
SI_UNIT($,.METRE.)
);
#1008=PRODUCT_DEFINITION_SHAPE('','',#1009);
#1009=PRODUCT_DEFINITION('','',#1011,#1010);
#1010=PRODUCT_DEFINITION_CONTEXT('',#1017,'design');
#1011=PRODUCT_DEFINITION_FORMATION_WITH_SPECIFIED_SOURCE('','',#1013,.NOT_KNOWN.);
#1012=PRODUCT_RELATED_PRODUCT_CATEGORY('','',(#1013));
#1013=PRODUCT('deckel','deckel','deckel',(#1015));
#1014=PRODUCT_CATEGORY('','');
#1015=PRODUCT_CONTEXT('',#1017,'mechanical');
#1016=APPLICATION_PROTOCOL_DEFINITION('international standard','ap242_managed_model_based_3d_engineering',2020,#1017);
#1017=APPLICATION_CONTEXT('managed model based 3d engineering');
ENDSEC;
END-ISO-10303-21;
